<?xml version="1.0" encoding="UTF-8"?>
<svg xmlns="http://www.w3.org/2000/svg" xmlns:xlink="http://www.w3.org/1999/xlink" width="11px" height="11px" viewBox="0 0 11 11" version="1.1">
<g id="surface1">
<path style=" stroke:none;fill-rule:nonzero;fill:rgb(30%,30%,30%);fill-opacity:1;" d="M 5.5 3.90625 C 5.824219 3.90625 6.089844 4.171875 6.089844 4.492188 C 6.089844 4.816406 5.824219 5.082031 5.5 5.082031 C 5.175781 5.082031 4.910156 4.816406 4.910156 4.492188 C 4.910156 4.171875 5.175781 3.90625 5.5 3.90625 Z M 6.863281 11 L 6.738281 10.980469 C 6.691406 10.972656 6.660156 10.933594 6.667969 10.886719 L 7.457031 5.816406 C 7.464844 5.769531 7.507812 5.742188 7.554688 5.746094 L 7.675781 5.765625 C 7.722656 5.773438 7.753906 5.816406 7.746094 5.859375 L 6.957031 10.929688 C 6.949219 10.976562 6.90625 11.007812 6.863281 11 Z M 4.324219 5.015625 C 4.507812 5.070312 4.613281 5.257812 4.558594 5.441406 L 4.253906 6.472656 C 4.203125 6.652344 4.011719 6.757812 3.828125 6.703125 C 3.648438 6.652344 3.542969 6.460938 3.597656 6.28125 L 3.898438 5.25 C 3.949219 5.066406 4.144531 4.964844 4.324219 5.015625 Z M 6.957031 6.648438 L 5.921875 6.472656 L 5.605469 5.472656 C 5.601562 5.449219 5.589844 5.429688 5.574219 5.410156 C 5.535156 5.21875 5.347656 5.097656 5.152344 5.136719 C 5.019531 5.164062 4.914062 5.265625 4.878906 5.398438 L 3.546875 10.5 C 3.496094 10.6875 3.613281 10.882812 3.804688 10.933594 C 3.996094 10.984375 4.191406 10.867188 4.242188 10.679688 L 5.003906 7.757812 L 5.734375 10.667969 C 5.777344 10.84375 5.957031 10.949219 6.132812 10.90625 L 6.191406 10.890625 C 6.367188 10.847656 6.476562 10.671875 6.429688 10.496094 L 5.472656 6.671875 L 5.492188 6.738281 C 5.53125 6.832031 5.613281 6.902344 5.710938 6.929688 L 6.871094 7.125 C 7.007812 7.148438 7.132812 7.058594 7.15625 6.925781 C 7.179688 6.796875 7.089844 6.671875 6.957031 6.648438 Z M 10.996094 2.636719 L 5.597656 0 L 0.00390625 2.636719 L 0.00390625 4.492188 L 1.179688 3.972656 L 1.179688 10.941406 L 2.355469 10.941406 L 2.355469 3.449219 L 5.597656 2.019531 L 8.640625 3.414062 L 8.640625 10.941406 L 9.820312 10.941406 L 9.820312 3.953125 L 10.996094 4.492188 Z M 10.996094 2.636719 "/>
</g>
</svg>
