<?xml version="1.0" encoding="UTF-8"?>
<svg xmlns="http://www.w3.org/2000/svg" xmlns:xlink="http://www.w3.org/1999/xlink" width="11px" height="11px" viewBox="0 0 11 11" version="1.1">
<g id="surface1">
<path style=" stroke:none;fill-rule:nonzero;fill:rgb(30%,30%,30%);fill-opacity:1;" d="M 11 7.058594 L 5.570312 3.898438 L 0.15625 7.058594 L 1.652344 7.058594 L 2.441406 6.746094 L 2.441406 10.648438 C 2.441406 10.84375 2.601562 11 2.796875 11 C 2.996094 11 3.152344 10.84375 3.152344 10.648438 L 3.152344 6.464844 L 5.570312 5.511719 L 7.992188 6.441406 L 7.992188 10.648438 C 7.992188 10.84375 8.148438 11 8.347656 11 C 8.542969 11 8.703125 10.84375 8.703125 10.648438 L 8.703125 6.714844 L 9.59375 7.058594 Z M 0.375 3.101562 L 0 3.101562 L 0.863281 1.5625 L 1.234375 1.5625 Z M 1.5625 4.660156 L 1.191406 4.660156 L 2.054688 3.121094 L 2.425781 3.121094 Z M 7.898438 4.660156 L 7.527344 4.660156 L 8.386719 3.121094 L 8.761719 3.121094 Z M 3.546875 3.101562 L 3.175781 3.101562 L 4.039062 1.5625 L 4.410156 1.5625 Z M 6.722656 3.101562 L 6.351562 3.101562 L 7.214844 1.5625 L 7.585938 1.5625 Z M 9.898438 3.101562 L 9.527344 3.101562 L 10.386719 1.5625 L 10.761719 1.5625 Z M 2.773438 1.539062 L 2.402344 1.539062 L 3.265625 0 L 3.636719 0 Z M 5.949219 1.539062 L 5.578125 1.539062 L 6.441406 0 L 6.8125 0 Z M 9.125 1.539062 L 8.753906 1.539062 L 9.613281 0 L 9.988281 0 Z M 9.125 1.539062 "/>
</g>
</svg>
