<?xml version="1.0" encoding="UTF-8"?>
<svg xmlns="http://www.w3.org/2000/svg" xmlns:xlink="http://www.w3.org/1999/xlink" width="11px" height="10px" viewBox="0 0 11 10" version="1.1">
<g id="surface1">
<path style=" stroke:none;fill-rule:nonzero;fill:rgb(30%,30%,30%);fill-opacity:1;" d="M 9.441406 0.816406 C 9.441406 1.261719 9.0625 1.621094 8.59375 1.621094 C 8.125 1.621094 7.746094 1.261719 7.746094 0.816406 C 7.746094 0.605469 7.835938 0.402344 7.996094 0.25 C 8.152344 0.101562 8.371094 0.015625 8.59375 0.015625 C 9.0625 0.015625 9.441406 0.375 9.441406 0.816406 "/>
<path style=" stroke:none;fill-rule:nonzero;fill:rgb(30%,30%,30%);fill-opacity:1;" d="M 3.265625 0.816406 C 3.265625 1.261719 2.886719 1.621094 2.417969 1.621094 C 1.949219 1.621094 1.570312 1.261719 1.570312 0.816406 C 1.570312 0.605469 1.660156 0.402344 1.820312 0.25 C 1.976562 0.101562 2.195312 0.015625 2.417969 0.015625 C 2.886719 0.015625 3.265625 0.375 3.265625 0.816406 "/>
<path style=" stroke:none;fill-rule:nonzero;fill:rgb(30%,30%,30%);fill-opacity:1;" d="M 10.980469 5.121094 L 9.742188 1.886719 C 9.726562 1.851562 9.691406 1.828125 9.652344 1.828125 L 7.535156 1.828125 C 7.496094 1.828125 7.460938 1.851562 7.449219 1.882812 L 6.207031 5.125 C 6.152344 5.269531 6.230469 5.429688 6.382812 5.488281 C 6.539062 5.539062 6.710938 5.464844 6.765625 5.316406 L 7.746094 2.757812 L 7.746094 9.636719 C 7.746094 9.765625 7.816406 9.882812 7.9375 9.949219 C 8.054688 10.015625 8.203125 10.015625 8.320312 9.949219 C 8.4375 9.882812 8.511719 9.765625 8.507812 9.636719 L 8.507812 5.527344 L 8.675781 5.527344 L 8.675781 9.636719 C 8.675781 9.765625 8.75 9.882812 8.867188 9.949219 C 8.984375 10.015625 9.132812 10.015625 9.25 9.949219 C 9.367188 9.882812 9.441406 9.765625 9.441406 9.636719 L 9.441406 2.753906 L 10.421875 5.316406 C 10.476562 5.460938 10.648438 5.535156 10.800781 5.484375 L 10.804688 5.480469 C 10.878906 5.457031 10.941406 5.402344 10.972656 5.335938 C 11.003906 5.269531 11.007812 5.191406 10.980469 5.121094 "/>
<path style=" stroke:none;fill-rule:nonzero;fill:rgb(30%,30%,30%);fill-opacity:1;" d="M 4.792969 5.121094 L 3.550781 1.886719 C 3.539062 1.851562 3.503906 1.828125 3.464844 1.828125 L 1.347656 1.828125 C 1.308594 1.828125 1.273438 1.851562 1.261719 1.886719 L 0.0195312 5.125 C -0.0390625 5.269531 0.0390625 5.429688 0.195312 5.488281 C 0.269531 5.511719 0.351562 5.507812 0.421875 5.476562 C 0.496094 5.445312 0.550781 5.386719 0.578125 5.316406 L 1.570312 2.722656 L 1.570312 4.578125 L 0.714844 6.695312 L 1.570312 6.695312 L 1.570312 9.636719 C 1.570312 9.765625 1.644531 9.882812 1.761719 9.949219 C 1.878906 10.015625 2.027344 10.015625 2.144531 9.949219 C 2.261719 9.882812 2.335938 9.765625 2.335938 9.636719 L 2.335938 6.695312 L 2.5 6.695312 L 2.5 9.636719 C 2.5 9.765625 2.574219 9.882812 2.691406 9.949219 C 2.808594 10.015625 2.957031 10.015625 3.074219 9.949219 C 3.191406 9.882812 3.265625 9.765625 3.265625 9.636719 L 3.265625 6.695312 L 4.09375 6.695312 L 3.265625 4.578125 L 3.265625 2.789062 L 4.234375 5.316406 C 4.289062 5.460938 4.457031 5.535156 4.613281 5.484375 L 4.617188 5.480469 C 4.769531 5.425781 4.847656 5.265625 4.792969 5.121094 "/>
<path style="fill:rgb(30%,30%,30%);stroke-width:21;stroke-linecap:round;stroke-linejoin:miter;stroke:rgb(11.372549%,11.372549%,10.588235%);stroke-opacity:1;stroke-miterlimit:10;" d="M 485.779871 10.491814 L 499.31231 928.310621 " transform="matrix(0.0112577,0,0,0.0106145,0,0.00191589)"/>
</g>
</svg>
