<?xml version="1.0" encoding="UTF-8"?>
<svg xmlns="http://www.w3.org/2000/svg" xmlns:xlink="http://www.w3.org/1999/xlink" width="9px" height="10px" viewBox="0 0 9 10" version="1.1">
<g id="surface1">
<path style=" stroke:none;fill-rule:nonzero;fill:rgb(30%,30%,30%);fill-opacity:1;" d="M 6.40625 0.578125 L 5.144531 0.574219 L 5.144531 0.28125 C 5.144531 0.125 4.882812 0 4.554688 0 C 4.230469 0 3.964844 0.125 3.964844 0.28125 L 3.964844 0.570312 L 2.6875 0.566406 L 0 2.402344 L 0 10 L 9 10 L 9 2.402344 Z M 2.511719 8.988281 C 2.429688 8.875 2.335938 8.769531 2.265625 8.652344 C 1.984375 8.183594 1.710938 7.707031 1.429688 7.238281 C 1.332031 7.078125 1.34375 6.929688 1.449219 6.773438 C 1.566406 6.601562 1.675781 6.421875 1.796875 6.238281 L 1.347656 5.976562 L 1.347656 5.960938 C 1.425781 5.953125 1.503906 5.941406 1.582031 5.9375 C 2 5.902344 2.414062 5.867188 2.832031 5.832031 C 2.894531 5.824219 2.925781 5.839844 2.957031 5.898438 C 3.167969 6.328125 3.386719 6.757812 3.601562 7.1875 C 3.609375 7.203125 3.617188 7.222656 3.628906 7.253906 C 3.476562 7.183594 3.335938 7.117188 3.191406 7.046875 C 3.082031 7.234375 2.976562 7.414062 2.871094 7.59375 C 2.78125 7.746094 2.675781 7.890625 2.605469 8.046875 C 2.464844 8.34375 2.425781 8.65625 2.535156 8.976562 C 2.527344 8.980469 2.519531 8.984375 2.511719 8.988281 Z M 4.4375 9.15625 C 4.253906 9.15625 4.089844 9.160156 3.921875 9.15625 C 3.570312 9.15625 3.222656 9.152344 2.871094 9.144531 C 2.714844 9.144531 2.664062 9.105469 2.613281 8.964844 C 2.503906 8.664062 2.542969 8.367188 2.667969 8.078125 C 2.722656 7.960938 2.792969 7.851562 2.863281 7.742188 C 2.878906 7.71875 2.910156 7.703125 2.941406 7.699219 C 3.433594 7.703125 3.925781 7.707031 4.417969 7.710938 C 4.421875 7.714844 4.429688 7.714844 4.4375 7.71875 Z M 4.34375 4.761719 C 4.136719 5.066406 3.929688 5.371094 3.726562 5.675781 C 3.710938 5.699219 3.691406 5.722656 3.671875 5.75 C 3.246094 5.492188 2.820312 5.238281 2.378906 4.976562 C 2.667969 4.550781 2.945312 4.132812 3.230469 3.714844 C 3.289062 3.625 3.375 3.59375 3.492188 3.617188 C 3.867188 3.695312 4.132812 3.914062 4.335938 4.207031 C 4.53125 4.480469 4.527344 4.484375 4.34375 4.761719 Z M 4.519531 5.339844 C 4.664062 5.257812 4.796875 5.179688 4.9375 5.097656 C 4.910156 5.050781 4.882812 5.011719 4.859375 4.972656 C 4.746094 4.765625 4.628906 4.558594 4.515625 4.351562 C 4.304688 3.972656 4.011719 3.679688 3.5625 3.539062 C 3.640625 3.527344 3.714844 3.507812 3.792969 3.507812 C 3.984375 3.511719 4.171875 3.527344 4.363281 3.535156 C 4.804688 3.550781 5.246094 3.566406 5.6875 3.582031 C 5.886719 3.589844 6.019531 3.671875 6.101562 3.84375 C 6.195312 4.03125 6.300781 4.214844 6.402344 4.40625 L 6.894531 4.171875 C 6.875 4.214844 6.867188 4.234375 6.859375 4.253906 C 6.640625 4.660156 6.425781 5.066406 6.210938 5.46875 C 6.1875 5.511719 6.164062 5.523438 6.117188 5.515625 C 5.617188 5.460938 5.113281 5.40625 4.609375 5.351562 C 4.582031 5.351562 4.558594 5.34375 4.519531 5.339844 Z M 7.84375 7.414062 C 7.589844 7.875 7.324219 8.335938 7.0625 8.796875 C 7.039062 8.835938 7.019531 8.875 6.996094 8.914062 C 6.914062 9.066406 6.777344 9.136719 6.59375 9.132812 C 6.371094 9.132812 6.148438 9.132812 5.917969 9.132812 L 5.917969 9.648438 L 5.894531 9.667969 C 5.886719 9.648438 5.878906 9.628906 5.863281 9.609375 C 5.570312 9.25 5.273438 8.886719 4.980469 8.527344 C 4.953125 8.496094 4.945312 8.46875 4.96875 8.429688 C 5.25 8.015625 5.527344 7.597656 5.800781 7.179688 C 5.808594 7.171875 5.816406 7.164062 5.828125 7.144531 C 5.847656 7.304688 5.867188 7.453125 5.882812 7.601562 C 6.054688 7.59375 6.21875 7.582031 6.382812 7.574219 C 6.605469 7.5625 6.832031 7.566406 7.054688 7.539062 C 7.40625 7.492188 7.714844 7.355469 7.953125 7.089844 L 7.976562 7.101562 C 7.933594 7.207031 7.898438 7.316406 7.84375 7.414062 Z M 7.894531 7.042969 C 7.667969 7.300781 7.363281 7.425781 7.019531 7.472656 C 6.90625 7.488281 6.792969 7.488281 6.675781 7.488281 C 6.648438 7.488281 6.621094 7.472656 6.601562 7.453125 C 6.335938 7.054688 6.074219 6.65625 5.800781 6.246094 C 6.234375 5.992188 6.664062 5.738281 7.09375 5.484375 C 7.210938 5.652344 7.328125 5.816406 7.4375 5.984375 C 7.601562 6.226562 7.769531 6.472656 7.929688 6.722656 C 8.015625 6.855469 8.003906 6.921875 7.894531 7.042969 Z M 7.894531 7.042969 "/>
</g>
</svg>
