<?xml version="1.0" encoding="UTF-8"?>
<svg xmlns="http://www.w3.org/2000/svg" xmlns:xlink="http://www.w3.org/1999/xlink" width="11px" height="11px" viewBox="0 0 11 11" version="1.1">
<g id="surface1">
<path style=" stroke:none;fill-rule:nonzero;fill:rgb(30%,30%,30%);fill-opacity:1;" d="M 8.214844 11 L 3.578125 6.414062 L 8.214844 1.878906 L 1.695312 1.878906 L 1.695312 11 Z M 4.753906 6.414062 C 4.792969 6.453125 8.828125 10.394531 8.976562 10.539062 L 8.976562 2.273438 C 8.777344 2.46875 4.804688 6.355469 4.753906 6.414062 Z M 4.753906 6.414062 "/>
<path style=" stroke:none;fill-rule:nonzero;fill:rgb(30%,30%,30%);fill-opacity:1;" d="M 10.367188 0 L 0.632812 0 C 0.285156 0 0.00390625 0.28125 0 0.628906 L 0 2.207031 C 0.00390625 2.554688 0.285156 2.835938 0.632812 2.835938 L 0.933594 2.835938 L 0.933594 1.027344 L 9.96875 1.027344 L 9.96875 2.835938 L 10.367188 2.835938 C 10.714844 2.835938 10.996094 2.554688 11 2.207031 L 11 0.628906 C 10.996094 0.28125 10.714844 0 10.367188 0 Z M 10.367188 0 "/>
</g>
</svg>
