<?xml version="1.0" encoding="UTF-8"?>
<svg xmlns="http://www.w3.org/2000/svg" xmlns:xlink="http://www.w3.org/1999/xlink" width="11px" height="11px" viewBox="0 0 11 11" version="1.1">
<g id="surface1">
<path style=" stroke:none;fill-rule:nonzero;fill:rgb(30%,30%,30%);fill-opacity:1;" d="M 10.671875 8.71875 L 8.351562 7.519531 C 8.03125 7.359375 7.667969 7.566406 7.472656 7.761719 L 7.167969 8.0625 L 10.789062 9.851562 C 11.082031 9.433594 11.089844 8.925781 10.671875 8.71875 Z M 10.671875 8.71875 "/>
<path style=" stroke:none;fill-rule:nonzero;fill:rgb(30%,30%,30%);fill-opacity:1;" d="M 5.734375 8.070312 L 2.960938 5.300781 C 2.625 4.964844 2.570312 4.441406 2.828125 4.042969 L 1.015625 0.386719 L 0.957031 0.441406 C 0.234375 1.164062 -0.109375 2.027344 0.03125 2.964844 C 0.132812 3.648438 1.628906 5.679688 2.191406 6.242188 L 4.351562 8.480469 C 4.886719 9.015625 7.257812 10.851562 7.953125 10.957031 C 8.992188 11.117188 9.851562 10.820312 10.597656 10.074219 L 10.628906 10.042969 L 6.917969 8.207031 C 6.554688 8.335938 5.96875 8.328125 5.734375 8.070312 Z M 5.734375 8.070312 "/>
<path style=" stroke:none;fill-rule:nonzero;fill:rgb(30%,30%,30%);fill-opacity:1;" d="M 3.3125 3.523438 C 3.507812 3.328125 3.632812 2.886719 3.390625 2.484375 L 2.351562 0.40625 C 2.058594 -0.109375 1.570312 -0.0898438 1.195312 0.214844 L 2.996094 3.839844 Z M 3.3125 3.523438 "/>
</g>
</svg>
