<?xml version="1.0" encoding="UTF-8"?>
<svg xmlns="http://www.w3.org/2000/svg" xmlns:xlink="http://www.w3.org/1999/xlink" width="11px" height="11px" viewBox="0 0 11 11" version="1.1">
<g id="surface1">
<path style=" stroke:none;fill-rule:nonzero;fill:rgb(30%,30%,30%);fill-opacity:1;" d="M 8.398438 5.5 C 8.398438 7.097656 7.101562 8.394531 5.5 8.394531 C 3.898438 8.394531 2.601562 7.097656 2.601562 5.5 C 2.601562 3.902344 3.898438 2.605469 5.5 2.605469 C 7.101562 2.605469 8.398438 3.902344 8.398438 5.5 Z M 8.398438 5.5 "/>
<path style=" stroke:none;fill-rule:nonzero;fill:rgb(30%,30%,30%);fill-opacity:1;" d="M 2.3125 4.035156 L 0.574219 3.03125 C 0.238281 3.699219 0.0429688 4.425781 0 5.171875 L 2.007812 5.171875 C 2.042969 4.777344 2.148438 4.394531 2.3125 4.035156 Z M 2.3125 4.035156 "/>
<path style=" stroke:none;fill-rule:nonzero;fill:rgb(30%,30%,30%);fill-opacity:1;" d="M 2.640625 7.527344 L 0.902344 8.53125 C 1.304688 9.144531 1.832031 9.667969 2.441406 10.078125 L 3.445312 8.339844 C 3.136719 8.113281 2.863281 7.839844 2.640625 7.527344 Z M 2.640625 7.527344 "/>
<path style=" stroke:none;fill-rule:nonzero;fill:rgb(30%,30%,30%);fill-opacity:1;" d="M 2.007812 5.824219 L 0 5.824219 C 0.0429688 6.570312 0.238281 7.296875 0.574219 7.964844 L 2.3125 6.960938 C 2.148438 6.601562 2.042969 6.21875 2.007812 5.824219 Z M 2.007812 5.824219 "/>
<path style=" stroke:none;fill-rule:nonzero;fill:rgb(30%,30%,30%);fill-opacity:1;" d="M 6.933594 2.304688 L 7.941406 0.566406 C 7.277344 0.238281 6.550781 0.046875 5.8125 0.00390625 L 5.8125 2.011719 C 6.199219 2.042969 6.578125 2.144531 6.933594 2.304688 Z M 6.933594 2.304688 "/>
<path style=" stroke:none;fill-rule:nonzero;fill:rgb(30%,30%,30%);fill-opacity:1;" d="M 3.472656 2.640625 L 2.46875 0.90625 C 1.847656 1.316406 1.316406 1.84375 0.902344 2.464844 L 2.644531 3.46875 C 2.871094 3.148438 3.152344 2.867188 3.472656 2.640625 Z M 3.472656 2.640625 "/>
<path style=" stroke:none;fill-rule:nonzero;fill:rgb(30%,30%,30%);fill-opacity:1;" d="M 8.992188 5.171875 L 11 5.171875 C 10.957031 4.429688 10.761719 3.703125 10.429688 3.039062 L 8.6875 4.039062 C 8.851562 4.398438 8.957031 4.78125 8.992188 5.171875 Z M 8.992188 5.171875 "/>
<path style=" stroke:none;fill-rule:nonzero;fill:rgb(30%,30%,30%);fill-opacity:1;" d="M 5.15625 2.015625 L 5.15625 0.0078125 C 4.417969 0.0546875 3.695312 0.246094 3.035156 0.578125 L 4.039062 2.3125 C 4.390625 2.152344 4.769531 2.050781 5.15625 2.015625 Z M 5.15625 2.015625 "/>
<path style=" stroke:none;fill-rule:nonzero;fill:rgb(30%,30%,30%);fill-opacity:1;" d="M 5.8125 8.988281 L 5.8125 10.996094 C 6.5625 10.953125 7.296875 10.757812 7.96875 10.421875 L 6.964844 8.683594 C 6.601562 8.851562 6.210938 8.953125 5.8125 8.988281 Z M 5.8125 8.988281 "/>
<path style=" stroke:none;fill-rule:nonzero;fill:rgb(30%,30%,30%);fill-opacity:1;" d="M 8.992188 5.824219 C 8.957031 6.214844 8.855469 6.597656 8.691406 6.957031 L 10.429688 7.957031 C 10.761719 7.292969 10.957031 6.566406 11 5.824219 Z M 8.992188 5.824219 "/>
<path style=" stroke:none;fill-rule:nonzero;fill:rgb(30%,30%,30%);fill-opacity:1;" d="M 7.53125 8.355469 L 8.535156 10.09375 C 9.160156 9.679688 9.691406 9.148438 10.101562 8.527344 L 8.363281 7.523438 C 8.136719 7.84375 7.855469 8.125 7.53125 8.355469 Z M 7.53125 8.355469 "/>
<path style=" stroke:none;fill-rule:nonzero;fill:rgb(30%,30%,30%);fill-opacity:1;" d="M 8.359375 3.472656 L 10.101562 2.46875 C 9.683594 1.839844 9.140625 1.304688 8.507812 0.890625 L 7.503906 2.625 C 7.835938 2.855469 8.125 3.144531 8.359375 3.472656 Z M 8.359375 3.472656 "/>
<path style=" stroke:none;fill-rule:nonzero;fill:rgb(30%,30%,30%);fill-opacity:1;" d="M 4.011719 8.671875 L 3.007812 10.410156 C 3.675781 10.746094 4.40625 10.945312 5.15625 10.992188 L 5.15625 8.984375 C 4.757812 8.949219 4.371094 8.839844 4.011719 8.671875 Z M 4.011719 8.671875 "/>
</g>
</svg>
