<?xml version="1.0" encoding="UTF-8"?>
<svg xmlns="http://www.w3.org/2000/svg" xmlns:xlink="http://www.w3.org/1999/xlink" width="11px" height="11px" viewBox="0 0 11 11" version="1.1">
<g id="surface1">
<path style=" stroke:none;fill-rule:nonzero;fill:rgb(30%,30%,30%);fill-opacity:1;" d="M 11 0.746094 L 10.996094 0.570312 L 10.996094 0.015625 L 10.984375 0.015625 L 0 0 L 0.015625 0.730469 L 0.0195312 0.730469 L 0.0195312 2.386719 L 0.796875 2.386719 L 0.796875 0.730469 L 10.214844 0.746094 L 10.214844 2.386719 L 10.996094 2.386719 L 10.996094 0.746094 Z M 11 0.746094 "/>
<path style=" stroke:none;fill-rule:nonzero;fill:rgb(30%,30%,30%);fill-opacity:1;" d="M 10.203125 11 L 9.445312 9.449219 L 9.445312 1.566406 L 1.558594 1.566406 L 1.558594 9.496094 L 0.796875 10.984375 Z M 8.664062 10.003906 L 8.449219 10.265625 L 2.597656 10.257812 L 2.339844 10.003906 L 2.339844 3.90625 L 8.664062 3.917969 Z M 8.664062 2.320312 L 8.664062 3.1875 L 2.339844 3.175781 L 2.339844 2.308594 Z M 8.664062 2.320312 "/>
<path style=" stroke:none;fill-rule:nonzero;fill:rgb(30%,30%,30%);fill-opacity:1;" d="M 7.054688 7.839844 L 6.460938 7.839844 C 6.792969 7.824219 7.054688 7.550781 7.054688 7.21875 L 7.054688 7.105469 C 7.054688 6.675781 6.703125 6.328125 6.273438 6.324219 L 6.265625 6.324219 C 6.277344 6.09375 6.28125 5.699219 6.171875 5.433594 C 5.957031 4.917969 5.4375 4.703125 5.4375 4.703125 C 5.4375 4.703125 5.605469 5.542969 5.210938 5.90625 C 5.019531 6.082031 4.84375 6.222656 4.707031 6.324219 C 4.296875 6.328125 3.964844 6.65625 3.964844 7.066406 L 3.964844 7.21875 C 3.964844 7.550781 4.226562 7.824219 4.554688 7.839844 L 3.902344 7.839844 C 3.480469 7.839844 3.125 8.164062 3.101562 8.582031 C 3.09375 8.796875 3.171875 9.007812 3.320312 9.164062 C 3.46875 9.320312 3.671875 9.410156 3.890625 9.410156 L 7.066406 9.410156 C 7.28125 9.410156 7.488281 9.320312 7.636719 9.164062 C 7.785156 9.007812 7.863281 8.796875 7.851562 8.582031 C 7.828125 8.164062 7.472656 7.839844 7.054688 7.839844 Z M 7.054688 7.839844 "/>
</g>
</svg>
