<?xml version="1.0" encoding="UTF-8" standalone="no"?>
<!-- Created with Inkscape (http://www.inkscape.org/) -->

<svg
   xmlns:dc="http://purl.org/dc/elements/1.1/"
   xmlns:cc="http://creativecommons.org/ns#"
   xmlns:rdf="http://www.w3.org/1999/02/22-rdf-syntax-ns#"
   xmlns:svg="http://www.w3.org/2000/svg"
   xmlns="http://www.w3.org/2000/svg"
   xmlns:xlink="http://www.w3.org/1999/xlink"
   xmlns:sodipodi="http://sodipodi.sourceforge.net/DTD/sodipodi-0.dtd"
   xmlns:inkscape="http://www.inkscape.org/namespaces/inkscape"
   width="30px"
   height="30px"
   version="1.1"
   id="svg8"
   inkscape:version="0.92.4 5da689c313, 2019-01-14"
   sodipodi:docname="container.svg">
  <defs
     id="defs2" />
  <sodipodi:namedview
     id="base"
     pagecolor="#ffffff"
     bordercolor="#666666"
     borderopacity="1.0"
     inkscape:pageopacity="0.0"
     inkscape:pageshadow="2"
     inkscape:zoom="13.049334"
     inkscape:cx="18.679046"
     inkscape:cy="12.165829"
     inkscape:document-units="px"
     inkscape:current-layer="layer1"
     showgrid="false"
     inkscape:snap-page="false"
     units="px"
     inkscape:window-width="1884"
     inkscape:window-height="1061"
     inkscape:window-x="0"
     inkscape:window-y="0"
     inkscape:window-maximized="1"
     fit-margin-top="0"
     fit-margin-left="0"
     fit-margin-right="0"
     fit-margin-bottom="0" />
  <metadata
     id="metadata5">
    <rdf:RDF>
      <cc:Work
         rdf:about="">
        <dc:format>image/svg+xml</dc:format>
        <dc:type
           rdf:resource="http://purl.org/dc/dcmitype/StillImage" />
        <dc:title></dc:title>
      </cc:Work>
    </rdf:RDF>
  </metadata>
    <circle
       style="color:#000000;clip-rule:nonzero;display:inline;overflow:visible;visibility:visible;opacity:1;isolation:auto;mix-blend-mode:normal;color-interpolation:sRGB;color-interpolation-filters:linearRGB;solid-color:#000000;solid-opacity:1;vector-effect:none;fill:#ffffff;fill-opacity:1;fill-rule:evenodd;stroke:#0a86a5;stroke-width:1;stroke-linecap:butt;stroke-linejoin:miter;stroke-miterlimit:4;stroke-dasharray:none;stroke-dashoffset:0;stroke-opacity:1;marker:none;color-rendering:auto;image-rendering:auto;shape-rendering:auto;text-rendering:auto;enable-background:accumulate"
       id="path815"
       cx="15"
       cy="15"
       r="14.5" />
<g transform="translate(9,7)"><g id="surface1">
<path style=" stroke:none;fill-rule:nonzero;fill:rgb(30%,30%,30%);fill-opacity:1;" d="M 5.386719 0 L 7.449219 0 C 7.554688 0 7.644531 0.0820312 7.644531 0.183594 L 7.644531 1 C 7.644531 1.101562 7.554688 1.183594 7.449219 1.183594 L 5.386719 1.183594 C 5.28125 1.183594 5.195312 1.101562 5.195312 1 L 5.195312 0.183594 C 5.195312 0.0820312 5.28125 0 5.386719 0 Z M 5.386719 0 "/>
<path style=" stroke:none;fill-rule:nonzero;fill:rgb(30%,30%,30%);fill-opacity:1;" d="M 9.324219 3.601562 C 8.707031 3.59375 8.082031 3.589844 7.457031 3.585938 C 7.34375 3.585938 7.257812 3.503906 7.257812 3.398438 L 7.257812 1.902344 C 7.257812 1.796875 7.167969 1.710938 7.058594 1.710938 L 5.910156 1.710938 C 5.796875 1.710938 5.710938 1.796875 5.710938 1.902344 L 5.710938 3.398438 C 5.710938 3.503906 5.621094 3.585938 5.511719 3.585938 C 4.886719 3.589844 4.265625 3.597656 3.644531 3.613281 C 3.144531 3.613281 2.699219 3.824219 2.453125 4.171875 L 2.4375 4.199219 C 2.117188 4.703125 2.046875 6.039062 2.03125 6.714844 C 2.03125 6.820312 2.074219 6.921875 2.152344 6.996094 C 2.230469 7.070312 2.339844 7.113281 2.449219 7.109375 L 3.105469 7.097656 C 3.332031 7.09375 3.507812 6.917969 3.507812 6.707031 C 3.503906 6.160156 3.527344 5.214844 3.746094 5.082031 C 4.035156 4.90625 10.347656 5.011719 11.796875 5.023438 C 11.851562 5.023438 11.902344 5.003906 11.941406 4.96875 C 11.976562 4.933594 12 4.882812 12 4.832031 L 12 3.804688 C 12 3.699219 11.910156 3.613281 11.800781 3.613281 C 10.972656 3.613281 10.136719 3.605469 9.324219 3.601562 Z M 9.324219 3.601562 "/>
<path style=" stroke:none;fill-rule:nonzero;fill:rgb(30%,30%,30%);fill-opacity:1;" d="M 5.269531 16 L 1.027344 16 C 0.929688 16 0.84375 15.925781 0.835938 15.835938 L 0 8.257812 C -0.00390625 8.207031 0.0117188 8.152344 0.0507812 8.113281 C 0.0859375 8.078125 0.140625 8.054688 0.195312 8.054688 L 5.859375 8.054688 C 5.914062 8.054688 5.964844 8.074219 6 8.113281 C 6.039062 8.152344 6.054688 8.199219 6.050781 8.25 L 5.464844 15.828125 C 5.457031 15.925781 5.371094 16 5.269531 16 Z M 4.957031 10.015625 C 5.039062 9.980469 5.078125 9.890625 5.039062 9.8125 C 5.003906 9.734375 4.910156 9.699219 4.828125 9.734375 C 4.820312 9.738281 4.042969 10.046875 3.0625 9.675781 C 1.976562 9.269531 1.429688 9.503906 1.171875 9.613281 C 1.136719 9.628906 1.109375 9.640625 1.089844 9.644531 C 1.007812 9.671875 0.957031 9.757812 0.984375 9.835938 C 1.011719 9.917969 1.101562 9.964844 1.1875 9.9375 C 1.226562 9.925781 1.265625 9.910156 1.304688 9.894531 C 1.523438 9.796875 1.984375 9.601562 2.941406 9.960938 C 3.292969 10.097656 3.667969 10.164062 4.046875 10.164062 C 4.582031 10.164062 4.933594 10.023438 4.957031 10.015625 Z M 4.957031 11.140625 C 5.039062 11.109375 5.078125 11.019531 5.039062 10.941406 C 5.003906 10.863281 4.910156 10.828125 4.828125 10.859375 C 4.820312 10.863281 4.042969 11.175781 3.0625 10.804688 C 1.976562 10.394531 1.429688 10.628906 1.171875 10.742188 C 1.136719 10.753906 1.109375 10.769531 1.089844 10.773438 C 1.007812 10.796875 0.957031 10.882812 0.984375 10.964844 C 1.011719 11.046875 1.101562 11.089844 1.1875 11.066406 C 1.226562 11.054688 1.265625 11.039062 1.304688 11.019531 C 1.523438 10.925781 1.984375 10.726562 2.941406 11.089844 C 3.292969 11.222656 3.667969 11.292969 4.046875 11.292969 C 4.582031 11.292969 4.933594 11.152344 4.957031 11.140625 Z M 4.957031 11.140625 "/>
</g>
</g>
</svg>
