<?xml version="1.0" encoding="UTF-8" standalone="no"?>
<!-- Created with Inkscape (http://www.inkscape.org/) -->

<svg
   xmlns:dc="http://purl.org/dc/elements/1.1/"
   xmlns:cc="http://creativecommons.org/ns#"
   xmlns:rdf="http://www.w3.org/1999/02/22-rdf-syntax-ns#"
   xmlns:svg="http://www.w3.org/2000/svg"
   xmlns="http://www.w3.org/2000/svg"
   xmlns:xlink="http://www.w3.org/1999/xlink"
   xmlns:sodipodi="http://sodipodi.sourceforge.net/DTD/sodipodi-0.dtd"
   xmlns:inkscape="http://www.inkscape.org/namespaces/inkscape"
   width="30px"
   height="30px"
   version="1.1"
   id="svg8"
   inkscape:version="0.92.4 5da689c313, 2019-01-14"
   sodipodi:docname="container.svg">
  <defs
     id="defs2" />
  <sodipodi:namedview
     id="base"
     pagecolor="#ffffff"
     bordercolor="#666666"
     borderopacity="1.0"
     inkscape:pageopacity="0.0"
     inkscape:pageshadow="2"
     inkscape:zoom="13.049334"
     inkscape:cx="18.679046"
     inkscape:cy="12.165829"
     inkscape:document-units="px"
     inkscape:current-layer="layer1"
     showgrid="false"
     inkscape:snap-page="false"
     units="px"
     inkscape:window-width="1884"
     inkscape:window-height="1061"
     inkscape:window-x="0"
     inkscape:window-y="0"
     inkscape:window-maximized="1"
     fit-margin-top="0"
     fit-margin-left="0"
     fit-margin-right="0"
     fit-margin-bottom="0" />
  <metadata
     id="metadata5">
    <rdf:RDF>
      <cc:Work
         rdf:about="">
        <dc:format>image/svg+xml</dc:format>
        <dc:type
           rdf:resource="http://purl.org/dc/dcmitype/StillImage" />
        <dc:title></dc:title>
      </cc:Work>
    </rdf:RDF>
  </metadata>
    <circle
       style="color:#000000;clip-rule:nonzero;display:inline;overflow:visible;visibility:visible;opacity:1;isolation:auto;mix-blend-mode:normal;color-interpolation:sRGB;color-interpolation-filters:linearRGB;solid-color:#000000;solid-opacity:1;vector-effect:none;fill:#0a86a5;fill-opacity:1;fill-rule:evenodd;stroke:#ffffff;stroke-width:1;stroke-linecap:butt;stroke-linejoin:miter;stroke-miterlimit:4;stroke-dasharray:none;stroke-dashoffset:0;stroke-opacity:1;marker:none;color-rendering:auto;image-rendering:auto;shape-rendering:auto;text-rendering:auto;enable-background:accumulate"
       id="path815"
       cx="15"
       cy="15"
       r="14.5" />
<g transform="translate(6,6)"><g id="surface1">
<path style=" stroke:none;fill-rule:nonzero;fill:#FFFFFF;fill-opacity:1;" d="M 12.980469 8.5 C 12.980469 10.972656 10.976562 12.976562 8.5 12.976562 C 6.023438 12.976562 4.019531 10.972656 4.019531 8.5 C 4.019531 6.027344 6.023438 4.023438 8.5 4.023438 C 10.976562 4.023438 12.980469 6.027344 12.980469 8.5 Z M 12.980469 8.5 "/>
<path style=" stroke:none;fill-rule:nonzero;fill:#FFFFFF;fill-opacity:1;" d="M 3.574219 6.234375 L 0.886719 4.683594 C 0.371094 5.714844 0.0664062 6.839844 0 7.992188 L 3.101562 7.992188 C 3.160156 7.382812 3.320312 6.789062 3.574219 6.234375 Z M 3.574219 6.234375 "/>
<path style=" stroke:none;fill-rule:nonzero;fill:#FFFFFF;fill-opacity:1;" d="M 4.082031 11.636719 L 1.394531 13.183594 C 2.019531 14.132812 2.828125 14.945312 3.773438 15.574219 L 5.324219 12.886719 C 4.84375 12.539062 4.425781 12.117188 4.082031 11.636719 Z M 4.082031 11.636719 "/>
<path style=" stroke:none;fill-rule:nonzero;fill:#FFFFFF;fill-opacity:1;" d="M 3.101562 9.003906 L 0 9.003906 C 0.0664062 10.152344 0.367188 11.277344 0.886719 12.308594 L 3.574219 10.757812 C 3.316406 10.203125 3.160156 9.609375 3.101562 9.003906 Z M 3.101562 9.003906 "/>
<path style=" stroke:none;fill-rule:nonzero;fill:#FFFFFF;fill-opacity:1;" d="M 10.71875 3.558594 L 12.269531 0.875 C 11.242188 0.367188 10.125 0.0703125 8.980469 0.0078125 L 8.980469 3.109375 C 9.582031 3.160156 10.167969 3.3125 10.71875 3.558594 Z M 10.71875 3.558594 "/>
<path style=" stroke:none;fill-rule:nonzero;fill:#FFFFFF;fill-opacity:1;" d="M 5.367188 4.082031 L 3.8125 1.398438 C 2.855469 2.03125 2.03125 2.851562 1.398438 3.808594 L 4.085938 5.359375 C 4.4375 4.867188 4.871094 4.433594 5.367188 4.082031 Z M 5.367188 4.082031 "/>
<path style=" stroke:none;fill-rule:nonzero;fill:#FFFFFF;fill-opacity:1;" d="M 13.898438 7.992188 L 17 7.992188 C 16.933594 6.84375 16.632812 5.722656 16.117188 4.695312 L 13.429688 6.242188 C 13.683594 6.796875 13.839844 7.386719 13.898438 7.992188 Z M 13.898438 7.992188 "/>
<path style=" stroke:none;fill-rule:nonzero;fill:#FFFFFF;fill-opacity:1;" d="M 7.96875 3.113281 L 7.96875 0.0117188 C 6.828125 0.0820312 5.710938 0.382812 4.691406 0.890625 L 6.242188 3.578125 C 6.789062 3.328125 7.371094 3.171875 7.96875 3.113281 Z M 7.96875 3.113281 "/>
<path style=" stroke:none;fill-rule:nonzero;fill:#FFFFFF;fill-opacity:1;" d="M 8.980469 13.890625 L 8.980469 16.992188 C 10.140625 16.925781 11.277344 16.625 12.316406 16.105469 L 10.761719 13.421875 C 10.199219 13.679688 9.597656 13.839844 8.980469 13.890625 Z M 8.980469 13.890625 "/>
<path style=" stroke:none;fill-rule:nonzero;fill:#FFFFFF;fill-opacity:1;" d="M 13.898438 9.003906 C 13.839844 9.605469 13.683594 10.199219 13.433594 10.75 L 16.121094 12.300781 C 16.632812 11.273438 16.933594 10.148438 17 9.003906 Z M 13.898438 9.003906 "/>
<path style=" stroke:none;fill-rule:nonzero;fill:#FFFFFF;fill-opacity:1;" d="M 11.640625 12.914062 L 13.191406 15.597656 C 14.152344 14.960938 14.976562 14.136719 15.613281 13.175781 L 12.925781 11.625 C 12.574219 12.125 12.136719 12.558594 11.640625 12.914062 Z M 11.640625 12.914062 "/>
<path style=" stroke:none;fill-rule:nonzero;fill:#FFFFFF;fill-opacity:1;" d="M 12.921875 5.367188 L 15.609375 3.816406 C 14.964844 2.84375 14.128906 2.011719 13.152344 1.375 L 11.597656 4.058594 C 12.113281 4.414062 12.558594 4.859375 12.921875 5.367188 Z M 12.921875 5.367188 "/>
<path style=" stroke:none;fill-rule:nonzero;fill:#FFFFFF;fill-opacity:1;" d="M 6.199219 13.402344 L 4.648438 16.085938 C 5.679688 16.609375 6.808594 16.917969 7.96875 16.988281 L 7.96875 13.886719 C 7.355469 13.828125 6.753906 13.664062 6.199219 13.402344 Z M 6.199219 13.402344 "/>
</g>
</g>
</svg>
