<?xml version="1.0" encoding="UTF-8"?>
<svg xmlns="http://www.w3.org/2000/svg" xmlns:xlink="http://www.w3.org/1999/xlink" width="11px" height="8px" viewBox="0 0 11 8" version="1.1">
<g id="surface1">
<path style=" stroke:none;fill-rule:nonzero;fill:rgb(30%,30%,30%);fill-opacity:1;" d="M 2.089844 0 L 8.910156 0 C 9.238281 0 9.507812 0.269531 9.507812 0.601562 L 9.507812 0.605469 C 9.507812 0.9375 9.238281 1.207031 8.910156 1.207031 L 2.089844 1.207031 C 1.761719 1.207031 1.492188 0.9375 1.492188 0.605469 L 1.492188 0.601562 C 1.492188 0.269531 1.761719 0 2.089844 0 Z M 10.398438 3.980469 L 8.484375 3.980469 L 7.902344 1.609375 L 6.703125 1.609375 L 7.285156 3.980469 L 3.726562 3.980469 L 4.335938 1.609375 L 3.132812 1.609375 L 2.523438 3.980469 L 0.601562 3.980469 C 0.269531 3.980469 0 4.25 0 4.585938 C 0 4.917969 0.269531 5.1875 0.601562 5.1875 L 2.214844 5.1875 L 1.492188 8 L 2.695312 8 L 3.417969 5.1875 L 7.578125 5.1875 L 8.269531 8 L 9.46875 8 L 8.78125 5.1875 L 10.398438 5.1875 C 10.730469 5.1875 11 4.917969 11 4.585938 C 11 4.25 10.730469 3.980469 10.398438 3.980469 Z M 10.398438 3.980469 "/>
</g>
</svg>
