<?xml version="1.0" encoding="UTF-8" standalone="no"?>
<!-- Created with Inkscape (http://www.inkscape.org/) -->

<svg
   xmlns:dc="http://purl.org/dc/elements/1.1/"
   xmlns:cc="http://creativecommons.org/ns#"
   xmlns:rdf="http://www.w3.org/1999/02/22-rdf-syntax-ns#"
   xmlns:svg="http://www.w3.org/2000/svg"
   xmlns="http://www.w3.org/2000/svg"
   xmlns:xlink="http://www.w3.org/1999/xlink"
   xmlns:sodipodi="http://sodipodi.sourceforge.net/DTD/sodipodi-0.dtd"
   xmlns:inkscape="http://www.inkscape.org/namespaces/inkscape"
   width="30px"
   height="30px"
   version="1.1"
   id="svg8"
   inkscape:version="0.92.4 5da689c313, 2019-01-14"
   sodipodi:docname="container.svg">
  <defs
     id="defs2" />
  <sodipodi:namedview
     id="base"
     pagecolor="#ffffff"
     bordercolor="#666666"
     borderopacity="1.0"
     inkscape:pageopacity="0.0"
     inkscape:pageshadow="2"
     inkscape:zoom="13.049334"
     inkscape:cx="18.679046"
     inkscape:cy="12.165829"
     inkscape:document-units="px"
     inkscape:current-layer="layer1"
     showgrid="false"
     inkscape:snap-page="false"
     units="px"
     inkscape:window-width="1884"
     inkscape:window-height="1061"
     inkscape:window-x="0"
     inkscape:window-y="0"
     inkscape:window-maximized="1"
     fit-margin-top="0"
     fit-margin-left="0"
     fit-margin-right="0"
     fit-margin-bottom="0" />
  <metadata
     id="metadata5">
    <rdf:RDF>
      <cc:Work
         rdf:about="">
        <dc:format>image/svg+xml</dc:format>
        <dc:type
           rdf:resource="http://purl.org/dc/dcmitype/StillImage" />
        <dc:title></dc:title>
      </cc:Work>
    </rdf:RDF>
  </metadata>
    <circle
       style="color:#000000;clip-rule:nonzero;display:inline;overflow:visible;visibility:visible;opacity:1;isolation:auto;mix-blend-mode:normal;color-interpolation:sRGB;color-interpolation-filters:linearRGB;solid-color:#000000;solid-opacity:1;vector-effect:none;fill:#ffffff;fill-opacity:1;fill-rule:evenodd;stroke:#0a86a5;stroke-width:1;stroke-linecap:butt;stroke-linejoin:miter;stroke-miterlimit:4;stroke-dasharray:none;stroke-dashoffset:0;stroke-opacity:1;marker:none;color-rendering:auto;image-rendering:auto;shape-rendering:auto;text-rendering:auto;enable-background:accumulate"
       id="path815"
       cx="15"
       cy="15"
       r="14.5" />
<g transform="translate(8,6)"><g id="surface1">
<path style=" stroke:none;fill-rule:nonzero;fill:rgb(30%,30%,30%);fill-opacity:1;" d="M 12.425781 1.566406 L 9.78125 1.566406 L 9.78125 0.0078125 L 3.304688 0.0078125 L 3.28125 1.566406 L 0.554688 1.566406 C 0.25 1.566406 0 1.808594 0 2.109375 L 0 2.128906 C 0 2.441406 0.257812 2.691406 0.574219 2.691406 L 12.445312 2.691406 C 12.75 2.691406 13 2.449219 13 2.148438 L 13 2.128906 C 13 1.820312 12.742188 1.566406 12.425781 1.566406 Z M 4.433594 0.933594 L 8.628906 0.933594 L 8.628906 1.566406 L 4.433594 1.566406 Z M 4.433594 0.933594 "/>
<path style=" stroke:none;fill-rule:nonzero;fill:rgb(30%,30%,30%);fill-opacity:1;" d="M 11.511719 3.523438 C 11.191406 3.46875 10.882812 3.675781 10.824219 3.988281 L 8.589844 14.777344 L 8.445312 14.777344 L 9.597656 4.152344 C 9.628906 3.828125 9.394531 3.539062 9.070312 3.507812 C 8.757812 3.476562 8.484375 3.703125 8.453125 4.015625 L 7.289062 14.777344 C 7.289062 14.785156 7.054688 14.773438 7.066406 14.777344 L 7.066406 4.085938 C 7.066406 3.765625 6.800781 3.507812 6.476562 3.507812 C 6.164062 3.507812 5.914062 3.753906 5.914062 4.058594 L 5.914062 14.777344 C 5.890625 14.777344 5.867188 14.777344 5.84375 14.777344 C 5.707031 14.785156 5.808594 14.773438 5.671875 14.777344 C 5.746094 14.769531 4.671875 4.03125 4.671875 4.03125 C 4.648438 3.726562 4.378906 3.503906 4.066406 3.527344 C 3.914062 3.523438 3.769531 3.585938 3.664062 3.695312 C 3.558594 3.804688 3.507812 3.953125 3.523438 4.101562 L 4.5 14.777344 C 4.429688 14.777344 4.363281 14.78125 4.296875 14.777344 C 4.269531 14.667969 2.210938 3.988281 2.210938 3.988281 C 2.160156 3.683594 1.863281 3.480469 1.550781 3.53125 L 1.535156 3.53125 C 1.226562 3.582031 1.023438 3.867188 1.074219 4.167969 L 3.308594 16.988281 C 3.308594 16.988281 9.601562 16.996094 9.601562 16.988281 L 9.78125 15.894531 C 9.777344 15.894531 9.777344 15.894531 9.777344 15.894531 L 11.964844 4.160156 C 12.019531 3.863281 11.816406 3.578125 11.511719 3.523438 Z M 11.511719 3.523438 "/>
</g>
</g>
</svg>
