<?xml version="1.0" encoding="UTF-8" standalone="no"?>
<!-- Created with Inkscape (http://www.inkscape.org/) -->

<svg
   xmlns:dc="http://purl.org/dc/elements/1.1/"
   xmlns:cc="http://creativecommons.org/ns#"
   xmlns:rdf="http://www.w3.org/1999/02/22-rdf-syntax-ns#"
   xmlns:svg="http://www.w3.org/2000/svg"
   xmlns="http://www.w3.org/2000/svg"
   xmlns:xlink="http://www.w3.org/1999/xlink"
   xmlns:sodipodi="http://sodipodi.sourceforge.net/DTD/sodipodi-0.dtd"
   xmlns:inkscape="http://www.inkscape.org/namespaces/inkscape"
   width="30px"
   height="30px"
   version="1.1"
   id="svg8"
   inkscape:version="0.92.4 5da689c313, 2019-01-14"
   sodipodi:docname="container.svg">
  <defs
     id="defs2" />
  <sodipodi:namedview
     id="base"
     pagecolor="#ffffff"
     bordercolor="#666666"
     borderopacity="1.0"
     inkscape:pageopacity="0.0"
     inkscape:pageshadow="2"
     inkscape:zoom="13.049334"
     inkscape:cx="18.679046"
     inkscape:cy="12.165829"
     inkscape:document-units="px"
     inkscape:current-layer="layer1"
     showgrid="false"
     inkscape:snap-page="false"
     units="px"
     inkscape:window-width="1884"
     inkscape:window-height="1061"
     inkscape:window-x="0"
     inkscape:window-y="0"
     inkscape:window-maximized="1"
     fit-margin-top="0"
     fit-margin-left="0"
     fit-margin-right="0"
     fit-margin-bottom="0" />
  <metadata
     id="metadata5">
    <rdf:RDF>
      <cc:Work
         rdf:about="">
        <dc:format>image/svg+xml</dc:format>
        <dc:type
           rdf:resource="http://purl.org/dc/dcmitype/StillImage" />
        <dc:title></dc:title>
      </cc:Work>
    </rdf:RDF>
  </metadata>
    <circle
       style="color:#000000;clip-rule:nonzero;display:inline;overflow:visible;visibility:visible;opacity:1;isolation:auto;mix-blend-mode:normal;color-interpolation:sRGB;color-interpolation-filters:linearRGB;solid-color:#000000;solid-opacity:1;vector-effect:none;fill:#ffffff;fill-opacity:1;fill-rule:evenodd;stroke:#0a86a5;stroke-width:1;stroke-linecap:butt;stroke-linejoin:miter;stroke-miterlimit:4;stroke-dasharray:none;stroke-dashoffset:0;stroke-opacity:1;marker:none;color-rendering:auto;image-rendering:auto;shape-rendering:auto;text-rendering:auto;enable-background:accumulate"
       id="path815"
       cx="15"
       cy="15"
       r="14.5" />
<g transform="translate(7,7)"><g id="surface1">
<path style=" stroke:none;fill-rule:nonzero;fill:rgb(30%,30%,30%);fill-opacity:1;" d="M 15.644531 15.277344 L 13.542969 15.277344 L 13.152344 13.628906 L 14.148438 13.628906 C 14.355469 13.628906 14.519531 13.457031 14.519531 13.242188 C 14.519531 13.03125 14.355469 12.859375 14.148438 12.859375 L 12.972656 12.859375 L 12.613281 11.34375 L 11.875 11.34375 L 12.230469 12.859375 L 10.042969 12.859375 L 10.414062 11.34375 L 9.675781 11.34375 L 9.300781 12.859375 L 8.117188 12.859375 C 7.914062 12.859375 7.746094 13.03125 7.746094 13.242188 C 7.746094 13.457031 7.914062 13.628906 8.117188 13.628906 L 9.109375 13.628906 L 8.703125 15.277344 L 4.371094 15.277344 L 4.371094 11.804688 L 7.40625 11.804688 C 7.484375 11.804688 7.523438 11.761719 7.523438 11.691406 C 7.519531 11.636719 7.503906 11.582031 7.472656 11.539062 L 5.316406 7.980469 L 6.933594 7.980469 C 7.011719 7.980469 7.050781 7.9375 7.050781 7.871094 C 7.046875 7.8125 7.03125 7.761719 7 7.714844 L 4.84375 4.160156 L 6.007812 4.160156 C 6.082031 4.160156 6.125 4.113281 6.125 4.046875 C 6.121094 3.988281 6.101562 3.9375 6.070312 3.890625 L 3.765625 0 L 1.457031 3.890625 C 1.429688 3.9375 1.410156 3.988281 1.40625 4.046875 C 1.40625 4.113281 1.449219 4.160156 1.523438 4.160156 L 2.6875 4.160156 L 0.53125 7.714844 C 0.5 7.761719 0.480469 7.8125 0.480469 7.871094 C 0.480469 7.9375 0.519531 7.980469 0.597656 7.980469 L 2.214844 7.980469 L 0.0585938 11.539062 C 0.0273438 11.582031 0.0078125 11.636719 0.0078125 11.691406 C 0.0078125 11.761719 0.046875 11.804688 0.125 11.804688 L 3.316406 11.804688 L 3.316406 15.277344 L 0.769531 15.277344 C 0.578125 15.277344 0.421875 15.4375 0.421875 15.636719 C 0.421875 15.839844 0.578125 16 0.769531 16 L 15.644531 16 C 15.839844 16 15.992188 15.839844 15.992188 15.636719 C 15.992188 15.4375 15.839844 15.277344 15.644531 15.277344 Z M 9.851562 13.628906 L 12.414062 13.628906 L 12.804688 15.277344 L 9.441406 15.277344 Z M 9.851562 13.628906 "/>
<path style=" stroke:none;fill-rule:nonzero;fill:rgb(30%,30%,30%);fill-opacity:1;" d="M 9.035156 10.320312 L 13.230469 10.320312 C 13.433594 10.320312 13.601562 10.488281 13.601562 10.699219 L 13.601562 10.703125 C 13.601562 10.917969 13.433594 11.085938 13.230469 11.085938 L 9.035156 11.085938 C 8.832031 11.085938 8.667969 10.917969 8.667969 10.703125 L 8.667969 10.699219 C 8.667969 10.488281 8.832031 10.320312 9.035156 10.320312 Z M 9.035156 10.320312 "/>
</g>
</g>
</svg>
