<?xml version="1.0" encoding="UTF-8" standalone="no"?>
<!-- Created with Inkscape (http://www.inkscape.org/) -->

<svg
   xmlns:dc="http://purl.org/dc/elements/1.1/"
   xmlns:cc="http://creativecommons.org/ns#"
   xmlns:rdf="http://www.w3.org/1999/02/22-rdf-syntax-ns#"
   xmlns:svg="http://www.w3.org/2000/svg"
   xmlns="http://www.w3.org/2000/svg"
   xmlns:xlink="http://www.w3.org/1999/xlink"
   xmlns:sodipodi="http://sodipodi.sourceforge.net/DTD/sodipodi-0.dtd"
   xmlns:inkscape="http://www.inkscape.org/namespaces/inkscape"
   width="30px"
   height="30px"
   version="1.1"
   id="svg8"
   inkscape:version="0.92.4 5da689c313, 2019-01-14"
   sodipodi:docname="container.svg">
  <defs
     id="defs2" />
  <sodipodi:namedview
     id="base"
     pagecolor="#ffffff"
     bordercolor="#666666"
     borderopacity="1.0"
     inkscape:pageopacity="0.0"
     inkscape:pageshadow="2"
     inkscape:zoom="13.049334"
     inkscape:cx="18.679046"
     inkscape:cy="12.165829"
     inkscape:document-units="px"
     inkscape:current-layer="layer1"
     showgrid="false"
     inkscape:snap-page="false"
     units="px"
     inkscape:window-width="1884"
     inkscape:window-height="1061"
     inkscape:window-x="0"
     inkscape:window-y="0"
     inkscape:window-maximized="1"
     fit-margin-top="0"
     fit-margin-left="0"
     fit-margin-right="0"
     fit-margin-bottom="0" />
  <metadata
     id="metadata5">
    <rdf:RDF>
      <cc:Work
         rdf:about="">
        <dc:format>image/svg+xml</dc:format>
        <dc:type
           rdf:resource="http://purl.org/dc/dcmitype/StillImage" />
        <dc:title></dc:title>
      </cc:Work>
    </rdf:RDF>
  </metadata>
    <circle
       style="color:#000000;clip-rule:nonzero;display:inline;overflow:visible;visibility:visible;opacity:1;isolation:auto;mix-blend-mode:normal;color-interpolation:sRGB;color-interpolation-filters:linearRGB;solid-color:#000000;solid-opacity:1;vector-effect:none;fill:#0a86a5;fill-opacity:1;fill-rule:evenodd;stroke:#ffffff;stroke-width:1;stroke-linecap:butt;stroke-linejoin:miter;stroke-miterlimit:4;stroke-dasharray:none;stroke-dashoffset:0;stroke-opacity:1;marker:none;color-rendering:auto;image-rendering:auto;shape-rendering:auto;text-rendering:auto;enable-background:accumulate"
       id="path815"
       cx="15"
       cy="15"
       r="14.5" />
<g transform="translate(10,6)"><g id="surface1">
<path style=" stroke:none;fill-rule:nonzero;fill:#FFFFFF;fill-opacity:1;" d="M 5.570312 15.878906 L 5.570312 10.761719 L 6.859375 10.761719 C 7.664062 10.761719 8.335938 10.152344 8.398438 9.363281 L 9 2.597656 L 1 2.597656 L 1.570312 9.359375 C 1.632812 10.148438 2.304688 10.761719 3.113281 10.761719 L 4.429688 10.761719 L 4.429688 15.878906 C 1.9375 15.90625 0 16.125 0 16.4375 C 0 16.804688 2.292969 16.996094 5.035156 16.996094 C 7.777344 16.996094 10 16.785156 10 16.4375 C 10 16.191406 8.03125 15.921875 5.570312 15.878906 Z M 7.65625 5.464844 C 7.65625 5.570312 7.613281 5.675781 7.535156 5.75 L 7.3125 5.96875 C 7.3125 5.96875 7.054688 5.800781 6.882812 5.800781 C 6.714844 5.800781 6.542969 6.050781 6.542969 6.050781 L 5.792969 5.351562 L 7.027344 4.089844 L 7.054688 4.707031 L 7.65625 5.296875 Z M 1.265625 2.925781 C 1.222656 2.925781 1.179688 2.90625 1.160156 2.871094 C 1.136719 2.835938 1.136719 2.789062 1.160156 2.753906 C 1.179688 2.71875 1.222656 2.699219 1.265625 2.703125 L 8.734375 2.703125 C 8.777344 2.699219 8.820312 2.71875 8.839844 2.753906 C 8.863281 2.789062 8.863281 2.835938 8.839844 2.871094 C 8.820312 2.90625 8.777344 2.925781 8.734375 2.925781 Z M 4.453125 7.09375 C 4.367188 7.074219 4.277344 7.101562 4.21875 7.167969 L 3.796875 7.648438 L 3.796875 8.410156 C 3.796875 8.546875 3.683594 8.660156 3.542969 8.660156 L 3.539062 8.660156 C 3.398438 8.660156 3.285156 8.546875 3.285156 8.410156 L 3.285156 6.976562 L 3.371094 6.640625 L 3.460938 6.355469 C 3.457031 6.355469 2.820312 5.914062 2.820312 5.914062 C 2.757812 5.867188 2.71875 5.800781 2.714844 5.722656 C 2.707031 5.648438 2.738281 5.574219 2.792969 5.523438 C 2.886719 5.4375 3.027344 5.4375 3.128906 5.507812 L 3.578125 5.820312 L 5.511719 5.546875 L 6.371094 6.304688 L 6.371094 8.410156 C 6.371094 8.546875 6.257812 8.660156 6.113281 8.660156 L 6.109375 8.660156 C 5.96875 8.660156 5.855469 8.546875 5.855469 8.410156 L 5.855469 7.398438 Z M 4.453125 7.09375 "/>
<path style=" stroke:none;fill-rule:nonzero;fill:#FFFFFF;fill-opacity:1;" d="M 8.566406 2.703125 L 1.433594 2.703125 C 1.015625 2.703125 0.679688 2.371094 0.679688 1.960938 L 0.679688 0.480469 C 0.679688 0.214844 0.894531 0.00390625 1.164062 0.00390625 L 8.710938 0.00390625 C 9.050781 0.00390625 9.320312 0.269531 9.320312 0.601562 L 9.320312 1.960938 C 9.320312 2.371094 8.984375 2.703125 8.566406 2.703125 Z M 8.113281 1.789062 L 8.113281 0.8125 C 8.113281 0.574219 7.914062 0.382812 7.671875 0.382812 L 2.238281 0.382812 C 2.046875 0.382812 1.886719 0.535156 1.886719 0.722656 L 1.886719 1.789062 C 1.886719 2.085938 2.132812 2.324219 2.433594 2.324219 L 7.566406 2.324219 C 7.867188 2.324219 8.113281 2.085938 8.113281 1.789062 Z M 8.113281 1.789062 "/>
</g>
</g>
</svg>
