<?xml version="1.0" encoding="UTF-8"?>
<svg xmlns="http://www.w3.org/2000/svg" xmlns:xlink="http://www.w3.org/1999/xlink" width="8px" height="10px" viewBox="0 0 8 10" version="1.1">
<g id="surface1">
<path style=" stroke:none;fill-rule:nonzero;fill:rgb(30%,30%,30%);fill-opacity:1;" d="M 0.339844 1.0625 L 7.644531 1.0625 C 7.839844 1.0625 8 1.207031 8 1.382812 L 8 1.394531 C 8 1.566406 7.847656 1.707031 7.660156 1.707031 L 0.355469 1.707031 C 0.160156 1.707031 0 1.5625 0 1.382812 L 0 1.371094 C 0 1.199219 0.152344 1.0625 0.339844 1.0625 Z M 0.339844 1.0625 "/>
<path style=" stroke:none;fill-rule:nonzero;fill:rgb(30%,30%,30%);fill-opacity:1;" d="M 2.316406 0 L 5.667969 0 C 5.855469 0 6.007812 0.140625 6.007812 0.3125 L 6.007812 0.421875 C 6.007812 0.546875 5.898438 0.648438 5.761719 0.648438 L 2.316406 0.648438 C 2.128906 0.648438 1.976562 0.507812 1.976562 0.335938 L 1.976562 0.3125 C 1.976562 0.140625 2.128906 0 2.316406 0 Z M 2.316406 0 "/>
<path style=" stroke:none;fill-rule:nonzero;fill:rgb(30%,30%,30%);fill-opacity:1;" d="M 7.390625 2.492188 C 7.390625 2.316406 7.234375 2.175781 7.042969 2.175781 C 6.84375 2.175781 6.683594 2.324219 6.683594 2.507812 L 6.683594 9.332031 C 6.683594 9.34375 6.671875 9.351562 6.660156 9.351562 L 5.878906 9.351562 C 5.867188 9.351562 5.855469 9.34375 5.855469 9.332031 L 5.855469 2.507812 C 5.855469 2.324219 5.695312 2.175781 5.492188 2.175781 C 5.300781 2.175781 5.148438 2.316406 5.148438 2.492188 L 5.148438 9.332031 C 5.148438 9.34375 5.136719 9.351562 5.125 9.351562 L 4.367188 9.351562 C 4.355469 9.351562 4.347656 9.34375 4.347656 9.332031 L 4.347656 2.507812 C 4.347656 2.324219 4.183594 2.175781 3.984375 2.175781 C 3.792969 2.175781 3.640625 2.316406 3.640625 2.492188 L 3.640625 9.332031 C 3.640625 9.34375 3.628906 9.351562 3.617188 9.351562 L 2.875 9.351562 C 2.863281 9.351562 2.855469 9.34375 2.855469 9.332031 L 2.855469 2.492188 C 2.855469 2.316406 2.699219 2.175781 2.507812 2.175781 C 2.308594 2.175781 2.144531 2.324219 2.144531 2.507812 L 2.144531 9.332031 C 2.144531 9.34375 2.136719 9.351562 2.125 9.351562 L 1.339844 9.351562 C 1.328125 9.351562 1.320312 9.34375 1.320312 9.332031 L 1.320312 2.5 C 1.320312 2.320312 1.160156 2.175781 0.964844 2.175781 L 0.957031 2.175781 C 0.765625 2.175781 0.609375 2.316406 0.609375 2.492188 L 0.609375 9.351562 L 0.601562 9.351562 L 0.601562 9.6875 C 0.601562 9.859375 0.753906 10 0.941406 10 L 7.046875 10 C 7.234375 10 7.386719 9.859375 7.386719 9.6875 L 7.386719 9.679688 C 7.390625 9.667969 7.390625 9.65625 7.390625 9.644531 Z M 7.390625 2.492188 "/>
</g>
</svg>
