<?xml version="1.0" encoding="UTF-8" standalone="no"?>
<!-- Created with Inkscape (http://www.inkscape.org/) -->

<svg
   xmlns:dc="http://purl.org/dc/elements/1.1/"
   xmlns:cc="http://creativecommons.org/ns#"
   xmlns:rdf="http://www.w3.org/1999/02/22-rdf-syntax-ns#"
   xmlns:svg="http://www.w3.org/2000/svg"
   xmlns="http://www.w3.org/2000/svg"
   xmlns:xlink="http://www.w3.org/1999/xlink"
   xmlns:sodipodi="http://sodipodi.sourceforge.net/DTD/sodipodi-0.dtd"
   xmlns:inkscape="http://www.inkscape.org/namespaces/inkscape"
   width="30px"
   height="30px"
   version="1.1"
   id="svg8"
   inkscape:version="0.92.4 5da689c313, 2019-01-14"
   sodipodi:docname="container.svg">
  <defs
     id="defs2" />
  <sodipodi:namedview
     id="base"
     pagecolor="#ffffff"
     bordercolor="#666666"
     borderopacity="1.0"
     inkscape:pageopacity="0.0"
     inkscape:pageshadow="2"
     inkscape:zoom="13.049334"
     inkscape:cx="18.679046"
     inkscape:cy="12.165829"
     inkscape:document-units="px"
     inkscape:current-layer="layer1"
     showgrid="false"
     inkscape:snap-page="false"
     units="px"
     inkscape:window-width="1884"
     inkscape:window-height="1061"
     inkscape:window-x="0"
     inkscape:window-y="0"
     inkscape:window-maximized="1"
     fit-margin-top="0"
     fit-margin-left="0"
     fit-margin-right="0"
     fit-margin-bottom="0" />
  <metadata
     id="metadata5">
    <rdf:RDF>
      <cc:Work
         rdf:about="">
        <dc:format>image/svg+xml</dc:format>
        <dc:type
           rdf:resource="http://purl.org/dc/dcmitype/StillImage" />
        <dc:title></dc:title>
      </cc:Work>
    </rdf:RDF>
  </metadata>
    <circle
       style="color:#000000;clip-rule:nonzero;display:inline;overflow:visible;visibility:visible;opacity:1;isolation:auto;mix-blend-mode:normal;color-interpolation:sRGB;color-interpolation-filters:linearRGB;solid-color:#000000;solid-opacity:1;vector-effect:none;fill:#0a86a5;fill-opacity:1;fill-rule:evenodd;stroke:#ffffff;stroke-width:1;stroke-linecap:butt;stroke-linejoin:miter;stroke-miterlimit:4;stroke-dasharray:none;stroke-dashoffset:0;stroke-opacity:1;marker:none;color-rendering:auto;image-rendering:auto;shape-rendering:auto;text-rendering:auto;enable-background:accumulate"
       id="path815"
       cx="15"
       cy="15"
       r="14.5" />
<g transform="translate(6,6)"><g id="surface1">
<path style=" stroke:none;fill-rule:nonzero;fill:#FFFFFF;fill-opacity:1;" d="M 16.996094 1.152344 L 16.992188 0.882812 L 16.992188 0.0234375 L 16.972656 0.0234375 L 0.00390625 0 L 0.0273438 1.128906 L 0.0273438 3.6875 L 1.230469 3.6875 L 1.230469 1.132812 L 15.789062 1.152344 L 15.789062 3.6875 L 16.992188 3.6875 L 16.992188 1.152344 Z M 16.996094 1.152344 "/>
<path style=" stroke:none;fill-rule:nonzero;fill:#FFFFFF;fill-opacity:1;" d="M 15.769531 17 L 14.597656 14.605469 L 14.597656 2.421875 L 2.410156 2.421875 L 2.410156 14.675781 L 1.230469 16.976562 Z M 13.390625 15.457031 L 13.054688 15.867188 L 4.015625 15.851562 L 3.613281 15.457031 L 3.613281 6.039062 L 13.390625 6.054688 Z M 13.390625 3.585938 L 13.390625 4.925781 L 3.613281 4.90625 L 3.613281 3.566406 Z M 13.390625 3.585938 "/>
<path style=" stroke:none;fill-rule:nonzero;fill:#FFFFFF;fill-opacity:1;" d="M 10.902344 12.117188 L 9.988281 12.117188 C 10.5 12.089844 10.902344 11.667969 10.902344 11.160156 L 10.902344 10.980469 C 10.902344 10.316406 10.363281 9.777344 9.695312 9.777344 L 9.683594 9.777344 C 9.703125 9.417969 9.707031 8.808594 9.539062 8.398438 C 9.207031 7.601562 8.40625 7.269531 8.40625 7.269531 C 8.40625 7.269531 8.664062 8.566406 8.050781 9.128906 C 7.757812 9.398438 7.484375 9.617188 7.273438 9.777344 C 6.640625 9.777344 6.128906 10.289062 6.125 10.921875 L 6.125 11.160156 C 6.128906 11.667969 6.53125 12.089844 7.042969 12.117188 L 6.027344 12.117188 C 5.378906 12.117188 4.828125 12.617188 4.796875 13.265625 C 4.78125 13.597656 4.898438 13.921875 5.128906 14.164062 C 5.359375 14.402344 5.675781 14.539062 6.011719 14.542969 L 10.917969 14.542969 C 11.253906 14.539062 11.570312 14.402344 11.800781 14.164062 C 12.03125 13.921875 12.148438 13.597656 12.132812 13.265625 C 12.101562 12.617188 11.550781 12.117188 10.902344 12.117188 Z M 10.902344 12.117188 "/>
</g>
</g>
</svg>
