<?xml version="1.0" encoding="UTF-8" standalone="no"?>
<!-- Created with Inkscape (http://www.inkscape.org/) -->

<svg
   xmlns:dc="http://purl.org/dc/elements/1.1/"
   xmlns:cc="http://creativecommons.org/ns#"
   xmlns:rdf="http://www.w3.org/1999/02/22-rdf-syntax-ns#"
   xmlns:svg="http://www.w3.org/2000/svg"
   xmlns="http://www.w3.org/2000/svg"
   xmlns:xlink="http://www.w3.org/1999/xlink"
   xmlns:sodipodi="http://sodipodi.sourceforge.net/DTD/sodipodi-0.dtd"
   xmlns:inkscape="http://www.inkscape.org/namespaces/inkscape"
   width="30px"
   height="30px"
   version="1.1"
   id="svg8"
   inkscape:version="0.92.4 5da689c313, 2019-01-14"
   sodipodi:docname="container.svg">
  <defs
     id="defs2" />
  <sodipodi:namedview
     id="base"
     pagecolor="#ffffff"
     bordercolor="#666666"
     borderopacity="1.0"
     inkscape:pageopacity="0.0"
     inkscape:pageshadow="2"
     inkscape:zoom="13.049334"
     inkscape:cx="18.679046"
     inkscape:cy="12.165829"
     inkscape:document-units="px"
     inkscape:current-layer="layer1"
     showgrid="false"
     inkscape:snap-page="false"
     units="px"
     inkscape:window-width="1884"
     inkscape:window-height="1061"
     inkscape:window-x="0"
     inkscape:window-y="0"
     inkscape:window-maximized="1"
     fit-margin-top="0"
     fit-margin-left="0"
     fit-margin-right="0"
     fit-margin-bottom="0" />
  <metadata
     id="metadata5">
    <rdf:RDF>
      <cc:Work
         rdf:about="">
        <dc:format>image/svg+xml</dc:format>
        <dc:type
           rdf:resource="http://purl.org/dc/dcmitype/StillImage" />
        <dc:title></dc:title>
      </cc:Work>
    </rdf:RDF>
  </metadata>
    <circle
       style="color:#000000;clip-rule:nonzero;display:inline;overflow:visible;visibility:visible;opacity:1;isolation:auto;mix-blend-mode:normal;color-interpolation:sRGB;color-interpolation-filters:linearRGB;solid-color:#000000;solid-opacity:1;vector-effect:none;fill:#0a86a5;fill-opacity:1;fill-rule:evenodd;stroke:#ffffff;stroke-width:1;stroke-linecap:butt;stroke-linejoin:miter;stroke-miterlimit:4;stroke-dasharray:none;stroke-dashoffset:0;stroke-opacity:1;marker:none;color-rendering:auto;image-rendering:auto;shape-rendering:auto;text-rendering:auto;enable-background:accumulate"
       id="path815"
       cx="15"
       cy="15"
       r="14.5" />
<g transform="translate(6,7)"><g id="surface1">
<path style=" stroke:none;fill-rule:nonzero;fill:#FFFFFF;fill-opacity:1;" d="M 10.742188 11.855469 C 10.742188 12.410156 10.265625 12.855469 9.679688 12.855469 C 9.09375 12.855469 8.621094 12.410156 8.621094 11.855469 C 8.621094 11.304688 9.09375 10.855469 9.679688 10.855469 C 10.265625 10.855469 10.742188 11.304688 10.742188 11.855469 Z M 10.742188 11.855469 "/>
<path style=" stroke:none;fill-rule:nonzero;fill:#FFFFFF;fill-opacity:1;" d="M 10.742188 8.714844 C 10.742188 9.265625 10.265625 9.714844 9.679688 9.714844 C 9.09375 9.714844 8.621094 9.265625 8.621094 8.714844 C 8.621094 8.160156 9.09375 7.714844 9.679688 7.714844 C 10.265625 7.714844 10.742188 8.160156 10.742188 8.714844 Z M 10.742188 8.714844 "/>
<path style=" stroke:none;fill-rule:nonzero;fill:#FFFFFF;fill-opacity:1;" d="M 10.742188 15 C 10.742188 15.550781 10.265625 16 9.679688 16 C 9.09375 16 8.621094 15.550781 8.621094 15 C 8.621094 14.449219 9.09375 14 9.679688 14 C 10.265625 14 10.742188 14.449219 10.742188 15 Z M 10.742188 15 "/>
<path style=" stroke:none;fill-rule:nonzero;fill:#FFFFFF;fill-opacity:1;" d="M 7.105469 11.855469 C 7.105469 12.410156 6.632812 12.855469 6.046875 12.855469 C 5.460938 12.855469 4.988281 12.410156 4.988281 11.855469 C 4.988281 11.304688 5.460938 10.855469 6.046875 10.855469 C 6.632812 10.855469 7.105469 11.304688 7.105469 11.855469 Z M 7.105469 11.855469 "/>
<path style=" stroke:none;fill-rule:nonzero;fill:#FFFFFF;fill-opacity:1;" d="M 7.777344 8.777344 C 7.777344 9.332031 7.300781 9.777344 6.714844 9.777344 C 6.128906 9.777344 5.65625 9.332031 5.65625 8.777344 C 5.65625 8.226562 6.128906 7.777344 6.714844 7.777344 C 7.300781 7.777344 7.777344 8.226562 7.777344 8.777344 Z M 7.777344 8.777344 "/>
<path style=" stroke:none;fill-rule:nonzero;fill:#FFFFFF;fill-opacity:1;" d="M 6.4375 14.9375 C 6.4375 15.488281 5.960938 15.933594 5.378906 15.933594 C 4.792969 15.933594 4.316406 15.488281 4.316406 14.9375 C 4.316406 14.382812 4.792969 13.9375 5.378906 13.9375 C 5.960938 13.9375 6.4375 14.382812 6.4375 14.9375 Z M 6.4375 14.9375 "/>
<path style=" stroke:none;fill-rule:nonzero;fill:#FFFFFF;fill-opacity:1;" d="M 3.472656 10.714844 C 3.472656 11.265625 2.996094 11.714844 2.414062 11.714844 C 1.828125 11.714844 1.351562 11.265625 1.351562 10.714844 C 1.351562 10.160156 1.828125 9.714844 2.414062 9.714844 C 2.996094 9.714844 3.472656 10.160156 3.472656 10.714844 Z M 3.472656 10.714844 "/>
<path style=" stroke:none;fill-rule:nonzero;fill:#FFFFFF;fill-opacity:1;" d="M 4.824219 7.839844 C 4.824219 8.394531 4.347656 8.839844 3.765625 8.839844 C 3.179688 8.839844 2.703125 8.394531 2.703125 7.839844 C 2.703125 7.289062 3.179688 6.84375 3.765625 6.84375 C 4.347656 6.84375 4.824219 7.289062 4.824219 7.839844 Z M 4.824219 7.839844 "/>
<path style=" stroke:none;fill-rule:nonzero;fill:#FFFFFF;fill-opacity:1;" d="M 2.121094 13.585938 C 2.121094 14.136719 1.644531 14.585938 1.058594 14.585938 C 0.476562 14.585938 0 14.136719 0 13.585938 C 0 13.035156 0.476562 12.585938 1.058594 12.585938 C 1.644531 12.585938 2.121094 13.035156 2.121094 13.585938 Z M 2.121094 13.585938 "/>
<path style=" stroke:none;fill-rule:nonzero;fill:#FFFFFF;fill-opacity:1;" d="M 17 1.714844 L 17 0 L 8.21875 0 L 8.21875 0.0390625 C 7.804688 0.046875 7.453125 0.316406 7.351562 0.691406 L 6.875 2.554688 C 5.320312 2.699219 3.992188 3.800781 3.75 5.300781 L 10.640625 6.285156 C 10.878906 4.808594 10.046875 3.417969 8.671875 2.828125 L 8.960938 1.714844 Z M 17 1.714844 "/>
</g>
</g>
</svg>
