<?xml version="1.0" encoding="UTF-8"?>
<svg xmlns="http://www.w3.org/2000/svg" xmlns:xlink="http://www.w3.org/1999/xlink" width="11px" height="11px" viewBox="0 0 11 11" version="1.1">
<g id="surface1">
<path style=" stroke:none;fill-rule:nonzero;fill:rgb(30%,30%,30%);fill-opacity:1;" d="M 11 3.695312 L 11 5.535156 L 9.8125 4.996094 L 9.8125 10.980469 L 8.648438 10.980469 L 8.648438 4.464844 L 7.515625 3.953125 L 7.515625 7.066406 L 7.519531 7.066406 L 7.519531 10.996094 L 3.542969 10.996094 L 3.542969 7.066406 L 6.335938 7.066406 L 6.351562 3.421875 L 5.613281 3.085938 L 2.355469 4.523438 L 2.355469 10.980469 L 1.191406 10.980469 L 1.191406 5.035156 L 0 5.5625 L 0 3.707031 L 5.605469 1.089844 L 6.351562 1.449219 L 6.351562 0.00390625 C 6.363281 0.015625 7.515625 0.00390625 7.515625 0.00390625 L 7.515625 2.011719 Z M 6.335938 9.332031 C 6.335938 8.882812 5.964844 8.515625 5.507812 8.515625 C 5.050781 8.515625 4.679688 8.882812 4.679688 9.332031 L 4.679688 10.222656 L 6.335938 10.222656 Z M 6.335938 9.332031 "/>
</g>
</svg>
