<?xml version="1.0" encoding="UTF-8"?>
<svg xmlns="http://www.w3.org/2000/svg" xmlns:xlink="http://www.w3.org/1999/xlink" width="10px" height="6px" viewBox="0 0 10 6" version="1.1">
<g id="surface1">
<path style=" stroke:none;fill-rule:nonzero;fill:rgb(30%,30%,30%);fill-opacity:1;" d="M 2.292969 0.359375 L 1.839844 0.359375 L 1.839844 0.175781 C 1.839844 0.0820312 1.746094 0.00390625 1.628906 0.00390625 C 1.511719 0.00390625 1.417969 0.0820312 1.417969 0.175781 L 1.417969 0.355469 L 0.960938 0.351562 L 0.308594 1.71875 L 0 1.71875 L 0 5.996094 L 3.21875 5.996094 L 3.21875 1.71875 L 2.960938 1.71875 Z M 0.964844 1.101562 L 2.292969 1.101562 L 2.289062 1.734375 L 0.957031 1.734375 Z M 0.964844 1.101562 "/>
<path style=" stroke:none;fill-rule:nonzero;fill:rgb(30%,30%,30%);fill-opacity:1;" d="M 5.683594 0.359375 L 5.230469 0.359375 L 5.230469 0.175781 C 5.230469 0.0820312 5.136719 0.00390625 5.019531 0.00390625 C 4.902344 0.00390625 4.808594 0.0820312 4.808594 0.175781 L 4.808594 0.355469 L 4.351562 0.351562 L 3.699219 1.71875 L 3.390625 1.71875 L 3.390625 5.996094 L 6.609375 5.996094 L 6.609375 1.71875 L 6.351562 1.71875 Z M 4.355469 1.101562 L 5.683594 1.101562 L 5.679688 1.734375 L 4.347656 1.734375 Z M 4.355469 1.101562 "/>
<path style=" stroke:none;fill-rule:nonzero;fill:rgb(30%,30%,30%);fill-opacity:1;" d="M 9.074219 0.359375 L 8.621094 0.359375 L 8.621094 0.175781 C 8.621094 0.0820312 8.527344 0.00390625 8.410156 0.00390625 C 8.292969 0.00390625 8.199219 0.0820312 8.199219 0.175781 L 8.199219 0.355469 L 7.742188 0.351562 L 7.089844 1.71875 L 6.78125 1.71875 L 6.78125 5.996094 L 10 5.996094 L 10 1.71875 L 9.742188 1.71875 Z M 7.746094 1.101562 L 9.074219 1.101562 L 9.070312 1.734375 L 7.738281 1.734375 Z M 7.746094 1.101562 "/>
</g>
</svg>
