<?xml version="1.0" encoding="UTF-8"?>
<svg xmlns="http://www.w3.org/2000/svg" xmlns:xlink="http://www.w3.org/1999/xlink" width="8px" height="11px" viewBox="0 0 8 11" version="1.1">
<g id="surface1">
<path style=" stroke:none;fill-rule:nonzero;fill:rgb(30%,30%,30%);fill-opacity:1;" d="M 3.589844 0 L 4.964844 0 C 5.035156 0 5.09375 0.0585938 5.09375 0.128906 L 5.09375 0.6875 C 5.09375 0.757812 5.039062 0.8125 4.964844 0.8125 L 3.589844 0.8125 C 3.519531 0.8125 3.460938 0.757812 3.460938 0.6875 L 3.460938 0.128906 C 3.460938 0.0585938 3.519531 0 3.589844 0 Z M 6.214844 2.472656 C 5.804688 2.472656 5.386719 2.46875 4.972656 2.464844 C 4.898438 2.464844 4.839844 2.40625 4.839844 2.335938 L 4.839844 1.308594 C 4.839844 1.234375 4.777344 1.175781 4.707031 1.175781 L 3.9375 1.175781 C 3.867188 1.175781 3.804688 1.234375 3.804688 1.308594 L 3.804688 2.335938 C 3.804688 2.40625 3.746094 2.464844 3.671875 2.464844 C 3.257812 2.46875 2.84375 2.472656 2.429688 2.484375 C 2.09375 2.484375 1.796875 2.628906 1.636719 2.867188 L 1.625 2.886719 C 1.410156 3.234375 1.363281 4.148438 1.355469 4.617188 C 1.351562 4.761719 1.472656 4.882812 1.621094 4.886719 C 1.625 4.886719 1.628906 4.886719 1.632812 4.886719 L 2.070312 4.878906 C 2.21875 4.875 2.339844 4.757812 2.335938 4.609375 C 2.335938 4.234375 2.351562 3.582031 2.496094 3.492188 C 2.6875 3.371094 6.898438 3.441406 7.863281 3.453125 C 7.9375 3.453125 7.996094 3.394531 8 3.324219 L 8 2.613281 C 8 2.542969 7.941406 2.484375 7.867188 2.484375 C 7.316406 2.484375 6.757812 2.480469 6.214844 2.472656 Z M 3.515625 11 L 0.683594 11 C 0.617188 11 0.5625 10.949219 0.554688 10.886719 L 0 5.675781 C -0.0078125 5.605469 0.0429688 5.546875 0.117188 5.539062 C 0.121094 5.539062 0.125 5.535156 0.128906 5.535156 L 3.90625 5.535156 C 3.976562 5.535156 4.035156 5.59375 4.035156 5.664062 C 4.035156 5.667969 4.035156 5.667969 4.035156 5.671875 L 3.644531 10.882812 C 3.636719 10.949219 3.582031 11 3.515625 11 Z M 3.304688 6.882812 C 3.359375 6.859375 3.382812 6.800781 3.359375 6.746094 C 3.335938 6.691406 3.273438 6.667969 3.21875 6.691406 C 3.214844 6.691406 2.695312 6.90625 2.039062 6.652344 C 1.316406 6.371094 0.953125 6.53125 0.78125 6.609375 C 0.757812 6.617188 0.738281 6.628906 0.726562 6.628906 C 0.671875 6.648438 0.640625 6.707031 0.65625 6.761719 C 0.675781 6.820312 0.734375 6.847656 0.792969 6.832031 C 0.816406 6.824219 0.84375 6.8125 0.871094 6.800781 C 1.015625 6.734375 1.324219 6.597656 1.960938 6.847656 C 2.195312 6.941406 2.445312 6.988281 2.699219 6.988281 C 3.054688 6.988281 3.289062 6.890625 3.304688 6.882812 Z M 3.304688 7.660156 C 3.359375 7.636719 3.382812 7.574219 3.359375 7.519531 C 3.335938 7.464844 3.273438 7.441406 3.21875 7.464844 C 3.214844 7.46875 2.695312 7.679688 2.039062 7.425781 C 1.316406 7.144531 0.953125 7.304688 0.78125 7.382812 C 0.757812 7.394531 0.738281 7.402344 0.726562 7.40625 C 0.671875 7.421875 0.640625 7.480469 0.65625 7.539062 C 0.675781 7.59375 0.734375 7.625 0.792969 7.605469 C 0.816406 7.597656 0.84375 7.585938 0.871094 7.574219 C 1.015625 7.507812 1.324219 7.375 1.960938 7.621094 C 2.195312 7.714844 2.445312 7.761719 2.699219 7.761719 C 3.054688 7.765625 3.289062 7.667969 3.304688 7.660156 Z M 3.304688 7.660156 "/>
</g>
</svg>
