<?xml version="1.0" encoding="UTF-8" standalone="no"?>
<!-- Created with Inkscape (http://www.inkscape.org/) -->

<svg
   xmlns:dc="http://purl.org/dc/elements/1.1/"
   xmlns:cc="http://creativecommons.org/ns#"
   xmlns:rdf="http://www.w3.org/1999/02/22-rdf-syntax-ns#"
   xmlns:svg="http://www.w3.org/2000/svg"
   xmlns="http://www.w3.org/2000/svg"
   xmlns:xlink="http://www.w3.org/1999/xlink"
   xmlns:sodipodi="http://sodipodi.sourceforge.net/DTD/sodipodi-0.dtd"
   xmlns:inkscape="http://www.inkscape.org/namespaces/inkscape"
   width="30px"
   height="30px"
   version="1.1"
   id="svg8"
   inkscape:version="0.92.4 5da689c313, 2019-01-14"
   sodipodi:docname="container.svg">
  <defs
     id="defs2" />
  <sodipodi:namedview
     id="base"
     pagecolor="#ffffff"
     bordercolor="#666666"
     borderopacity="1.0"
     inkscape:pageopacity="0.0"
     inkscape:pageshadow="2"
     inkscape:zoom="13.049334"
     inkscape:cx="18.679046"
     inkscape:cy="12.165829"
     inkscape:document-units="px"
     inkscape:current-layer="layer1"
     showgrid="false"
     inkscape:snap-page="false"
     units="px"
     inkscape:window-width="1884"
     inkscape:window-height="1061"
     inkscape:window-x="0"
     inkscape:window-y="0"
     inkscape:window-maximized="1"
     fit-margin-top="0"
     fit-margin-left="0"
     fit-margin-right="0"
     fit-margin-bottom="0" />
  <metadata
     id="metadata5">
    <rdf:RDF>
      <cc:Work
         rdf:about="">
        <dc:format>image/svg+xml</dc:format>
        <dc:type
           rdf:resource="http://purl.org/dc/dcmitype/StillImage" />
        <dc:title></dc:title>
      </cc:Work>
    </rdf:RDF>
  </metadata>
    <circle
       style="color:#000000;clip-rule:nonzero;display:inline;overflow:visible;visibility:visible;opacity:1;isolation:auto;mix-blend-mode:normal;color-interpolation:sRGB;color-interpolation-filters:linearRGB;solid-color:#000000;solid-opacity:1;vector-effect:none;fill:#ffffff;fill-opacity:1;fill-rule:evenodd;stroke:#2a62ac;stroke-width:1;stroke-linecap:butt;stroke-linejoin:miter;stroke-miterlimit:4;stroke-dasharray:none;stroke-dashoffset:0;stroke-opacity:1;marker:none;color-rendering:auto;image-rendering:auto;shape-rendering:auto;text-rendering:auto;enable-background:accumulate"
       id="path815"
       cx="15"
       cy="15"
       r="14.5" />
<g transform="translate(7,7)"><g id="surface1">
<path style=" stroke:none;fill-rule:nonzero;fill:rgb(30%,30%,30%);fill-opacity:1;" d="M 13.730469 1.308594 C 13.730469 2.019531 13.183594 2.59375 12.503906 2.59375 C 11.820312 2.59375 11.269531 2.019531 11.269531 1.308594 C 11.269531 0.601562 11.820312 0.0273438 12.503906 0.0234375 C 13.179688 0.0234375 13.730469 0.597656 13.730469 1.308594 M 4.75 1.308594 C 4.75 2.019531 4.199219 2.59375 3.519531 2.59375 C 2.835938 2.59375 2.289062 2.019531 2.289062 1.308594 C 2.285156 0.601562 2.835938 0.0273438 3.519531 0.0234375 C 4.195312 0.0234375 4.75 0.597656 4.75 1.308594 M 15.972656 8.195312 L 14.167969 3.019531 C 14.148438 2.964844 14.09375 2.925781 14.039062 2.925781 L 10.957031 2.925781 C 10.902344 2.925781 10.855469 2.960938 10.835938 3.015625 L 9.027344 8.199219 C 8.945312 8.433594 9.0625 8.691406 9.285156 8.777344 C 9.511719 8.863281 9.761719 8.742188 9.839844 8.507812 L 11.269531 4.414062 L 11.269531 15.417969 C 11.265625 15.734375 11.511719 15.996094 11.816406 15.996094 C 12.125 16 12.375 15.742188 12.375 15.425781 C 12.375 15.421875 12.375 15.421875 12.375 15.417969 L 12.375 8.84375 L 12.621094 8.84375 L 12.621094 15.417969 C 12.617188 15.734375 12.863281 15.996094 13.171875 15.996094 C 13.476562 16 13.726562 15.742188 13.730469 15.425781 C 13.730469 15.421875 13.730469 15.421875 13.730469 15.417969 L 13.730469 4.40625 L 15.15625 8.503906 C 15.238281 8.734375 15.484375 8.855469 15.707031 8.773438 L 15.714844 8.769531 C 15.9375 8.683594 16.050781 8.429688 15.96875 8.195312 C 15.972656 8.195312 15.972656 8.195312 15.972656 8.195312 M 6.972656 8.195312 L 5.167969 3.019531 C 5.148438 2.964844 5.097656 2.925781 5.039062 2.925781 L 1.960938 2.925781 C 1.902344 2.925781 1.851562 2.964844 1.832031 3.019531 L 0.0273438 8.199219 C -0.0546875 8.433594 0.0625 8.691406 0.285156 8.777344 C 0.511719 8.863281 0.761719 8.742188 0.839844 8.507812 L 2.289062 4.359375 L 2.289062 7.328125 L 1.042969 10.710938 L 2.289062 10.710938 L 2.289062 15.417969 C 2.285156 15.734375 2.53125 15.996094 2.835938 15.996094 C 3.144531 16 3.394531 15.742188 3.394531 15.425781 C 3.394531 15.421875 3.394531 15.421875 3.394531 15.417969 L 3.394531 10.714844 L 3.636719 10.714844 L 3.636719 15.417969 C 3.636719 15.738281 3.882812 15.996094 4.1875 16 C 4.496094 16 4.746094 15.746094 4.746094 15.425781 C 4.746094 15.425781 4.746094 15.421875 4.746094 15.417969 L 4.746094 10.714844 L 5.953125 10.714844 L 4.75 7.328125 L 4.75 4.464844 L 6.160156 8.503906 C 6.238281 8.734375 6.484375 8.855469 6.707031 8.773438 L 6.714844 8.769531 C 6.941406 8.683594 7.054688 8.425781 6.972656 8.195312 M 8.175781 15.949219 C 8.269531 15.945312 8.347656 15.863281 8.34375 15.765625 L 8.128906 0.179688 C 8.125 0.078125 8.046875 0.00390625 7.953125 0.00390625 C 7.859375 0.00390625 7.78125 0.0859375 7.785156 0.183594 L 8.003906 15.773438 C 8.003906 15.871094 8.082031 15.949219 8.175781 15.949219 Z M 8.175781 15.949219 "/>
</g>
</g>
</svg>
