<?xml version="1.0" encoding="UTF-8"?>
<svg xmlns="http://www.w3.org/2000/svg" xmlns:xlink="http://www.w3.org/1999/xlink" width="11px" height="10px" viewBox="0 0 11 10" version="1.1">
<g id="surface1">
<path style=" stroke:none;fill-rule:nonzero;fill:rgb(30%,30%,30%);fill-opacity:1;" d="M 6.261719 6.785156 C 6.644531 6.785156 6.949219 7.066406 6.949219 7.410156 C 6.949219 7.753906 6.640625 8.035156 6.261719 8.035156 C 5.886719 8.035156 5.578125 7.753906 5.578125 7.410156 C 5.578125 7.066406 5.882812 6.785156 6.261719 6.785156 Z M 6.261719 4.820312 C 6.644531 4.820312 6.949219 5.101562 6.949219 5.445312 C 6.949219 5.789062 6.640625 6.070312 6.261719 6.070312 C 5.886719 6.070312 5.578125 5.789062 5.578125 5.445312 C 5.578125 5.101562 5.882812 4.820312 6.261719 4.820312 Z M 6.261719 8.75 C 6.644531 8.75 6.949219 9.027344 6.949219 9.375 C 6.949219 9.71875 6.640625 10 6.261719 10 C 5.886719 10 5.578125 9.71875 5.578125 9.375 C 5.578125 9.027344 5.882812 8.75 6.261719 8.75 Z M 3.914062 6.785156 C 4.292969 6.785156 4.597656 7.066406 4.597656 7.410156 C 4.597656 7.753906 4.289062 8.035156 3.914062 8.035156 C 3.535156 8.035156 3.226562 7.753906 3.226562 7.410156 C 3.226562 7.066406 3.53125 6.785156 3.914062 6.785156 Z M 4.34375 4.863281 C 4.722656 4.863281 5.03125 5.140625 5.03125 5.484375 C 5.03125 5.832031 4.722656 6.109375 4.34375 6.109375 C 3.964844 6.109375 3.660156 5.832031 3.660156 5.484375 C 3.660156 5.140625 3.964844 4.863281 4.34375 4.863281 Z M 3.480469 8.710938 C 3.859375 8.710938 4.164062 8.992188 4.164062 9.335938 C 4.164062 9.679688 3.855469 9.960938 3.480469 9.960938 C 3.101562 9.960938 2.792969 9.679688 2.792969 9.335938 C 2.792969 8.992188 3.101562 8.710938 3.480469 8.710938 Z M 1.5625 6.070312 C 1.941406 6.070312 2.246094 6.351562 2.246094 6.695312 C 2.246094 7.039062 1.9375 7.320312 1.5625 7.320312 C 1.183594 7.320312 0.875 7.039062 0.875 6.695312 C 0.875 6.351562 1.183594 6.070312 1.5625 6.070312 Z M 2.4375 4.277344 C 2.816406 4.277344 3.121094 4.554688 3.121094 4.902344 C 3.121094 5.246094 2.8125 5.523438 2.4375 5.523438 C 2.058594 5.523438 1.75 5.246094 1.75 4.902344 C 1.75 4.554688 2.054688 4.277344 2.4375 4.277344 Z M 0.683594 7.867188 C 1.066406 7.867188 1.371094 8.144531 1.371094 8.492188 C 1.371094 8.835938 1.066406 9.117188 0.683594 9.117188 C 0.304688 9.117188 0 8.835938 0 8.492188 C 0 8.148438 0.308594 7.867188 0.683594 7.867188 Z M 11 1.070312 L 11 0 L 5.316406 0 L 5.316406 0.0273438 C 5.050781 0.03125 4.820312 0.199219 4.757812 0.433594 L 4.445312 1.597656 C 3.441406 1.6875 2.582031 2.375 2.425781 3.3125 L 6.882812 3.929688 C 7.039062 3.007812 6.5 2.136719 5.609375 1.769531 L 5.796875 1.070312 Z M 11 1.070312 "/>
</g>
</svg>
