<?xml version="1.0" encoding="UTF-8" standalone="no"?>
<!-- Created with Inkscape (http://www.inkscape.org/) -->

<svg
   xmlns:dc="http://purl.org/dc/elements/1.1/"
   xmlns:cc="http://creativecommons.org/ns#"
   xmlns:rdf="http://www.w3.org/1999/02/22-rdf-syntax-ns#"
   xmlns:svg="http://www.w3.org/2000/svg"
   xmlns="http://www.w3.org/2000/svg"
   xmlns:xlink="http://www.w3.org/1999/xlink"
   xmlns:sodipodi="http://sodipodi.sourceforge.net/DTD/sodipodi-0.dtd"
   xmlns:inkscape="http://www.inkscape.org/namespaces/inkscape"
   width="30px"
   height="30px"
   version="1.1"
   id="svg8"
   inkscape:version="0.92.4 5da689c313, 2019-01-14"
   sodipodi:docname="container.svg">
  <defs
     id="defs2" />
  <sodipodi:namedview
     id="base"
     pagecolor="#ffffff"
     bordercolor="#666666"
     borderopacity="1.0"
     inkscape:pageopacity="0.0"
     inkscape:pageshadow="2"
     inkscape:zoom="13.049334"
     inkscape:cx="18.679046"
     inkscape:cy="12.165829"
     inkscape:document-units="px"
     inkscape:current-layer="layer1"
     showgrid="false"
     inkscape:snap-page="false"
     units="px"
     inkscape:window-width="1884"
     inkscape:window-height="1061"
     inkscape:window-x="0"
     inkscape:window-y="0"
     inkscape:window-maximized="1"
     fit-margin-top="0"
     fit-margin-left="0"
     fit-margin-right="0"
     fit-margin-bottom="0" />
  <metadata
     id="metadata5">
    <rdf:RDF>
      <cc:Work
         rdf:about="">
        <dc:format>image/svg+xml</dc:format>
        <dc:type
           rdf:resource="http://purl.org/dc/dcmitype/StillImage" />
        <dc:title></dc:title>
      </cc:Work>
    </rdf:RDF>
  </metadata>
    <circle
       style="color:#000000;clip-rule:nonzero;display:inline;overflow:visible;visibility:visible;opacity:1;isolation:auto;mix-blend-mode:normal;color-interpolation:sRGB;color-interpolation-filters:linearRGB;solid-color:#000000;solid-opacity:1;vector-effect:none;fill:#ffffff;fill-opacity:1;fill-rule:evenodd;stroke:#2a62ac;stroke-width:1;stroke-linecap:butt;stroke-linejoin:miter;stroke-miterlimit:4;stroke-dasharray:none;stroke-dashoffset:0;stroke-opacity:1;marker:none;color-rendering:auto;image-rendering:auto;shape-rendering:auto;text-rendering:auto;enable-background:accumulate"
       id="path815"
       cx="15"
       cy="15"
       r="14.5" />
<g transform="translate(9,7)"><g id="surface1">
<path style=" stroke:none;fill-rule:nonzero;fill:rgb(30%,30%,30%);fill-opacity:1;" d="M 0.511719 1.699219 L 11.46875 1.699219 C 11.761719 1.699219 12 1.929688 12 2.214844 L 12 2.234375 C 12 2.507812 11.769531 2.730469 11.488281 2.730469 L 0.53125 2.730469 C 0.238281 2.730469 0 2.5 0 2.214844 L 0 2.195312 C 0 1.921875 0.230469 1.699219 0.511719 1.699219 Z M 0.511719 1.699219 "/>
<path style=" stroke:none;fill-rule:nonzero;fill:rgb(30%,30%,30%);fill-opacity:1;" d="M 3.476562 0 L 8.5 0 C 8.785156 0 9.011719 0.222656 9.011719 0.5 L 9.011719 0.675781 C 9.011719 0.875 8.847656 1.035156 8.644531 1.035156 L 3.476562 1.035156 C 3.195312 1.035156 2.964844 0.8125 2.964844 0.535156 L 2.964844 0.5 C 2.964844 0.222656 3.195312 0 3.476562 0 Z M 3.476562 0 "/>
<path style=" stroke:none;fill-rule:nonzero;fill:rgb(30%,30%,30%);fill-opacity:1;" d="M 11.085938 3.988281 C 11.085938 3.707031 10.855469 3.484375 10.566406 3.484375 C 10.265625 3.484375 10.023438 3.71875 10.023438 4.011719 L 10.023438 14.933594 C 10.023438 14.949219 10.007812 14.964844 9.992188 14.964844 L 8.816406 14.964844 C 8.800781 14.964844 8.785156 14.949219 8.785156 14.933594 L 8.785156 4.011719 C 8.785156 3.71875 8.542969 3.484375 8.242188 3.484375 C 7.953125 3.484375 7.722656 3.707031 7.722656 3.988281 L 7.722656 14.933594 C 7.722656 14.949219 7.707031 14.964844 7.691406 14.964844 L 6.554688 14.964844 C 6.535156 14.964844 6.523438 14.949219 6.523438 14.933594 L 6.523438 4.011719 C 6.523438 3.71875 6.277344 3.484375 5.976562 3.484375 C 5.691406 3.484375 5.457031 3.707031 5.457031 3.988281 L 5.457031 14.933594 C 5.457031 14.949219 5.445312 14.964844 5.425781 14.964844 L 4.3125 14.964844 C 4.296875 14.964844 4.28125 14.949219 4.28125 14.933594 L 4.28125 3.988281 C 4.28125 3.707031 4.050781 3.484375 3.761719 3.484375 C 3.460938 3.484375 3.21875 3.71875 3.21875 4.011719 L 3.21875 14.933594 C 3.21875 14.949219 3.203125 14.964844 3.1875 14.964844 L 2.007812 14.964844 C 1.992188 14.964844 1.976562 14.949219 1.976562 14.933594 L 1.976562 3.996094 C 1.976562 3.714844 1.742188 3.484375 1.449219 3.484375 L 1.433594 3.484375 C 1.148438 3.484375 0.914062 3.707031 0.914062 3.988281 L 0.914062 14.964844 L 0.898438 14.964844 L 0.898438 15.5 C 0.898438 15.777344 1.128906 16 1.414062 16 L 10.570312 16 C 10.851562 16 11.082031 15.777344 11.082031 15.5 L 11.082031 15.488281 C 11.082031 15.488281 11.082031 15.484375 11.082031 15.484375 C 11.085938 15.464844 11.085938 15.449219 11.085938 15.429688 Z M 11.085938 3.988281 "/>
</g>
</g>
</svg>
