<?xml version="1.0" encoding="UTF-8"?>
<svg xmlns="http://www.w3.org/2000/svg" xmlns:xlink="http://www.w3.org/1999/xlink" width="8px" height="10px" viewBox="0 0 8 10" version="1.1">
<g id="surface1">
<path style=" stroke:none;fill-rule:nonzero;fill:rgb(30%,30%,30%);fill-opacity:1;" d="M 7.644531 0.921875 L 6.019531 0.921875 L 6.019531 0.00390625 L 2.03125 0.00390625 L 2.019531 0.921875 L 0.339844 0.921875 C 0.152344 0.921875 0 1.0625 0 1.242188 L 0 1.253906 C 0 1.433594 0.160156 1.582031 0.355469 1.582031 L 7.660156 1.582031 C 7.847656 1.582031 8 1.441406 8 1.265625 L 8 1.253906 C 8 1.070312 7.839844 0.921875 7.644531 0.921875 Z M 2.730469 0.546875 L 5.3125 0.546875 L 5.3125 0.921875 L 2.730469 0.921875 Z M 2.730469 0.546875 "/>
<path style=" stroke:none;fill-rule:nonzero;fill:rgb(30%,30%,30%);fill-opacity:1;" d="M 7.082031 2.074219 C 6.886719 2.039062 6.699219 2.160156 6.660156 2.347656 L 5.285156 8.691406 L 5.195312 8.691406 L 5.90625 2.441406 C 5.925781 2.25 5.78125 2.082031 5.582031 2.0625 C 5.390625 2.046875 5.222656 2.179688 5.203125 2.363281 L 4.484375 8.691406 C 4.488281 8.695312 4.339844 8.691406 4.347656 8.691406 L 4.347656 2.402344 C 4.347656 2.214844 4.183594 2.0625 3.984375 2.0625 C 3.792969 2.0625 3.640625 2.210938 3.640625 2.386719 L 3.640625 8.691406 C 3.625 8.691406 3.609375 8.691406 3.597656 8.691406 C 3.511719 8.699219 3.574219 8.691406 3.492188 8.691406 C 3.535156 8.6875 2.875 2.371094 2.875 2.371094 C 2.859375 2.191406 2.695312 2.058594 2.503906 2.074219 C 2.410156 2.074219 2.320312 2.109375 2.253906 2.175781 C 2.191406 2.238281 2.160156 2.324219 2.167969 2.414062 L 2.769531 8.691406 C 2.726562 8.691406 2.683594 8.695312 2.644531 8.691406 C 2.625 8.628906 1.359375 2.347656 1.359375 2.347656 C 1.328125 2.167969 1.144531 2.046875 0.953125 2.078125 L 0.945312 2.078125 C 0.753906 2.109375 0.628906 2.273438 0.660156 2.449219 L 2.035156 9.992188 C 2.035156 9.992188 5.90625 9.996094 5.910156 9.992188 L 6.019531 9.351562 C 6.019531 9.351562 6.015625 9.351562 6.015625 9.351562 L 7.363281 2.449219 C 7.394531 2.273438 7.273438 2.105469 7.082031 2.074219 Z M 7.082031 2.074219 "/>
</g>
</svg>
