<?xml version="1.0" encoding="UTF-8"?>
<svg xmlns="http://www.w3.org/2000/svg" xmlns:xlink="http://www.w3.org/1999/xlink" width="6px" height="10px" viewBox="0 0 6 10" version="1.1">
<g id="surface1">
<path style=" stroke:none;fill-rule:nonzero;fill:rgb(30%,30%,30%);fill-opacity:1;" d="M 3.34375 9.339844 L 3.34375 6.328125 L 4.113281 6.328125 C 4.597656 6.328125 5 5.972656 5.039062 5.507812 L 5.398438 1.527344 L 0.601562 1.527344 L 0.941406 5.503906 C 0.980469 5.96875 1.382812 6.328125 1.867188 6.328125 L 2.65625 6.328125 L 2.65625 9.339844 C 1.164062 9.359375 0 9.484375 0 9.667969 C 0 9.882812 1.375 9.996094 3.019531 9.996094 C 4.667969 9.996094 6 9.875 6 9.667969 C 6 9.523438 4.820312 9.367188 3.34375 9.339844 Z M 4.59375 3.214844 C 4.59375 3.277344 4.566406 3.335938 4.519531 3.382812 L 4.386719 3.511719 C 4.386719 3.511719 4.234375 3.410156 4.128906 3.410156 C 4.027344 3.410156 3.925781 3.558594 3.925781 3.558594 L 3.476562 3.148438 L 4.214844 2.40625 L 4.234375 2.769531 L 4.59375 3.113281 Z M 0.757812 1.71875 C 0.734375 1.722656 0.707031 1.710938 0.695312 1.6875 C 0.683594 1.667969 0.683594 1.640625 0.695312 1.621094 C 0.707031 1.601562 0.734375 1.585938 0.757812 1.589844 L 5.242188 1.589844 C 5.265625 1.585938 5.292969 1.601562 5.304688 1.621094 C 5.316406 1.640625 5.316406 1.667969 5.304688 1.6875 C 5.292969 1.710938 5.265625 1.722656 5.242188 1.71875 Z M 2.671875 4.171875 C 2.621094 4.160156 2.566406 4.179688 2.53125 4.21875 L 2.277344 4.5 L 2.277344 4.945312 C 2.277344 5.027344 2.210938 5.09375 2.125 5.09375 C 2.039062 5.09375 1.972656 5.027344 1.972656 4.945312 L 1.972656 4.105469 L 2.023438 3.90625 L 2.078125 3.738281 C 2.074219 3.738281 1.691406 3.476562 1.691406 3.476562 C 1.65625 3.453125 1.632812 3.410156 1.628906 3.367188 C 1.625 3.324219 1.644531 3.277344 1.675781 3.25 C 1.730469 3.199219 1.816406 3.199219 1.875 3.238281 L 2.148438 3.425781 L 3.308594 3.261719 L 3.820312 3.707031 L 3.820312 4.945312 C 3.820312 5.027344 3.753906 5.09375 3.667969 5.09375 C 3.582031 5.09375 3.511719 5.027344 3.511719 4.945312 L 3.511719 4.351562 Z M 2.671875 4.171875 "/>
<path style=" stroke:none;fill-rule:nonzero;fill:rgb(30%,30%,30%);fill-opacity:1;" d="M 5.140625 1.589844 L 0.859375 1.589844 C 0.609375 1.589844 0.40625 1.394531 0.40625 1.152344 L 0.40625 0.28125 C 0.40625 0.128906 0.539062 0.00390625 0.699219 0.00390625 L 5.226562 0.00390625 C 5.429688 0.00390625 5.59375 0.160156 5.59375 0.351562 L 5.59375 1.152344 C 5.59375 1.394531 5.390625 1.589844 5.140625 1.589844 Z M 4.867188 1.054688 L 4.867188 0.476562 C 4.867188 0.335938 4.75 0.222656 4.605469 0.222656 L 1.34375 0.222656 C 1.226562 0.222656 1.132812 0.316406 1.132812 0.425781 L 1.132812 1.054688 C 1.132812 1.226562 1.277344 1.367188 1.460938 1.367188 L 4.539062 1.367188 C 4.722656 1.367188 4.867188 1.226562 4.867188 1.054688 Z M 4.867188 1.054688 "/>
</g>
</svg>
