<?xml version="1.0" encoding="UTF-8"?>
<svg xmlns="http://www.w3.org/2000/svg" xmlns:xlink="http://www.w3.org/1999/xlink" width="11px" height="10px" viewBox="0 0 11 10" version="1.1">
<g id="surface1">
<path style=" stroke:none;fill-rule:nonzero;fill:rgb(30%,30%,30%);fill-opacity:1;" d="M 6.949219 7.410156 C 6.949219 7.753906 6.644531 8.035156 6.265625 8.035156 C 5.886719 8.035156 5.578125 7.753906 5.578125 7.410156 C 5.578125 7.066406 5.886719 6.785156 6.265625 6.785156 C 6.644531 6.785156 6.949219 7.066406 6.949219 7.410156 Z M 6.949219 7.410156 "/>
<path style=" stroke:none;fill-rule:nonzero;fill:rgb(30%,30%,30%);fill-opacity:1;" d="M 6.949219 5.445312 C 6.949219 5.792969 6.644531 6.070312 6.265625 6.070312 C 5.886719 6.070312 5.578125 5.792969 5.578125 5.445312 C 5.578125 5.101562 5.886719 4.820312 6.265625 4.820312 C 6.644531 4.820312 6.949219 5.101562 6.949219 5.445312 Z M 6.949219 5.445312 "/>
<path style=" stroke:none;fill-rule:nonzero;fill:rgb(30%,30%,30%);fill-opacity:1;" d="M 6.949219 9.375 C 6.949219 9.71875 6.644531 10 6.265625 10 C 5.886719 10 5.578125 9.71875 5.578125 9.375 C 5.578125 9.03125 5.886719 8.75 6.265625 8.75 C 6.644531 8.75 6.949219 9.03125 6.949219 9.375 Z M 6.949219 9.375 "/>
<path style=" stroke:none;fill-rule:nonzero;fill:rgb(30%,30%,30%);fill-opacity:1;" d="M 4.597656 7.410156 C 4.597656 7.753906 4.292969 8.035156 3.914062 8.035156 C 3.535156 8.035156 3.226562 7.753906 3.226562 7.410156 C 3.226562 7.066406 3.535156 6.785156 3.914062 6.785156 C 4.292969 6.785156 4.597656 7.066406 4.597656 7.410156 Z M 4.597656 7.410156 "/>
<path style=" stroke:none;fill-rule:nonzero;fill:rgb(30%,30%,30%);fill-opacity:1;" d="M 5.03125 5.488281 C 5.03125 5.832031 4.722656 6.113281 4.34375 6.113281 C 3.964844 6.113281 3.660156 5.832031 3.660156 5.488281 C 3.660156 5.140625 3.964844 4.863281 4.34375 4.863281 C 4.722656 4.863281 5.03125 5.140625 5.03125 5.488281 Z M 5.03125 5.488281 "/>
<path style=" stroke:none;fill-rule:nonzero;fill:rgb(30%,30%,30%);fill-opacity:1;" d="M 4.164062 9.335938 C 4.164062 9.679688 3.859375 9.960938 3.480469 9.960938 C 3.101562 9.960938 2.792969 9.679688 2.792969 9.335938 C 2.792969 8.988281 3.101562 8.710938 3.480469 8.710938 C 3.859375 8.710938 4.164062 8.988281 4.164062 9.335938 Z M 4.164062 9.335938 "/>
<path style=" stroke:none;fill-rule:nonzero;fill:rgb(30%,30%,30%);fill-opacity:1;" d="M 2.246094 6.695312 C 2.246094 7.042969 1.941406 7.320312 1.5625 7.320312 C 1.183594 7.320312 0.875 7.042969 0.875 6.695312 C 0.875 6.351562 1.183594 6.070312 1.5625 6.070312 C 1.941406 6.070312 2.246094 6.351562 2.246094 6.695312 Z M 2.246094 6.695312 "/>
<path style=" stroke:none;fill-rule:nonzero;fill:rgb(30%,30%,30%);fill-opacity:1;" d="M 3.121094 4.902344 C 3.121094 5.246094 2.8125 5.527344 2.4375 5.527344 C 2.058594 5.527344 1.75 5.246094 1.75 4.902344 C 1.75 4.554688 2.058594 4.277344 2.4375 4.277344 C 2.8125 4.277344 3.121094 4.554688 3.121094 4.902344 Z M 3.121094 4.902344 "/>
<path style=" stroke:none;fill-rule:nonzero;fill:rgb(30%,30%,30%);fill-opacity:1;" d="M 1.371094 8.492188 C 1.371094 8.835938 1.066406 9.117188 0.6875 9.117188 C 0.308594 9.117188 0 8.835938 0 8.492188 C 0 8.144531 0.308594 7.867188 0.6875 7.867188 C 1.066406 7.867188 1.371094 8.144531 1.371094 8.492188 Z M 1.371094 8.492188 "/>
<path style=" stroke:none;fill-rule:nonzero;fill:rgb(30%,30%,30%);fill-opacity:1;" d="M 11 1.070312 L 11 0 L 5.316406 0 L 5.316406 0.0234375 C 5.050781 0.03125 4.820312 0.195312 4.757812 0.433594 L 4.449219 1.597656 C 3.445312 1.6875 2.582031 2.375 2.425781 3.3125 L 6.882812 3.929688 C 7.039062 3.007812 6.5 2.136719 5.613281 1.769531 L 5.796875 1.070312 Z M 11 1.070312 "/>
</g>
</svg>
