<?xml version="1.0" encoding="UTF-8"?>
<svg xmlns="http://www.w3.org/2000/svg" xmlns:xlink="http://www.w3.org/1999/xlink" width="11px" height="10px" viewBox="0 0 11 10" version="1.1">
<g id="surface1">
<path style=" stroke:none;fill-rule:nonzero;fill:rgb(30%,30%,30%);fill-opacity:1;" d="M 9.441406 0.816406 C 9.441406 1.261719 9.0625 1.621094 8.59375 1.621094 C 8.128906 1.621094 7.75 1.261719 7.75 0.816406 C 7.746094 0.375 8.125 0.015625 8.59375 0.015625 C 8.59375 0.015625 8.597656 0.015625 8.597656 0.015625 C 9.0625 0.015625 9.441406 0.375 9.441406 0.816406 M 3.265625 0.816406 C 3.265625 1.261719 2.886719 1.621094 2.417969 1.621094 C 1.949219 1.621094 1.574219 1.261719 1.574219 0.816406 C 1.570312 0.375 1.949219 0.015625 2.417969 0.015625 C 2.417969 0.015625 2.421875 0.015625 2.421875 0.015625 C 2.886719 0.015625 3.265625 0.375 3.265625 0.816406 M 10.980469 5.121094 L 9.742188 1.886719 C 9.726562 1.851562 9.691406 1.828125 9.652344 1.828125 L 7.535156 1.828125 C 7.496094 1.828125 7.460938 1.851562 7.449219 1.882812 L 6.207031 5.125 C 6.148438 5.269531 6.230469 5.429688 6.382812 5.488281 C 6.539062 5.539062 6.710938 5.464844 6.765625 5.316406 L 7.746094 2.757812 L 7.746094 9.636719 C 7.746094 9.835938 7.914062 9.996094 8.125 9.996094 C 8.335938 10 8.507812 9.839844 8.507812 9.640625 C 8.507812 9.640625 8.507812 9.636719 8.507812 9.636719 L 8.507812 5.527344 L 8.675781 5.527344 L 8.675781 9.636719 C 8.675781 9.835938 8.84375 9.996094 9.054688 9.996094 C 9.265625 10 9.4375 9.839844 9.4375 9.640625 C 9.4375 9.640625 9.4375 9.636719 9.4375 9.636719 L 9.4375 2.753906 L 10.421875 5.316406 C 10.476562 5.460938 10.644531 5.535156 10.796875 5.484375 L 10.804688 5.480469 C 10.957031 5.429688 11.035156 5.269531 10.980469 5.121094 M 4.792969 5.121094 L 3.554688 1.886719 C 3.539062 1.851562 3.503906 1.828125 3.464844 1.828125 L 1.347656 1.828125 C 1.308594 1.828125 1.273438 1.851562 1.257812 1.886719 L 0.0195312 5.125 C -0.0390625 5.269531 0.0429688 5.429688 0.195312 5.488281 C 0.351562 5.539062 0.523438 5.464844 0.578125 5.316406 L 1.574219 2.722656 L 1.574219 4.578125 L 0.71875 6.695312 L 1.574219 6.695312 L 1.574219 9.636719 C 1.570312 9.835938 1.742188 9.996094 1.949219 9.996094 C 2.160156 10 2.332031 9.839844 2.335938 9.640625 C 2.335938 9.640625 2.335938 9.636719 2.335938 9.636719 L 2.335938 6.695312 L 2.5 6.695312 L 2.5 9.636719 C 2.5 9.835938 2.667969 9.996094 2.878906 10 C 3.089844 10 3.261719 9.839844 3.261719 9.640625 C 3.261719 9.640625 3.261719 9.640625 3.261719 9.636719 L 3.261719 6.695312 L 4.09375 6.695312 L 3.265625 4.578125 L 3.265625 2.789062 L 4.234375 5.316406 C 4.289062 5.460938 4.460938 5.535156 4.613281 5.484375 L 4.617188 5.480469 C 4.769531 5.429688 4.851562 5.265625 4.792969 5.121094 M 5.621094 9.96875 C 5.6875 9.964844 5.738281 9.914062 5.738281 9.855469 L 5.589844 0.113281 C 5.585938 0.0507812 5.535156 0.00390625 5.46875 0.00390625 C 5.402344 0.00390625 5.351562 0.0546875 5.351562 0.117188 L 5.5 9.859375 C 5.503906 9.917969 5.554688 9.96875 5.621094 9.96875 Z M 5.621094 9.96875 "/>
</g>
</svg>
