<?xml version="1.0" encoding="UTF-8" standalone="no"?>
<!-- Created with Inkscape (http://www.inkscape.org/) -->

<svg
   xmlns:dc="http://purl.org/dc/elements/1.1/"
   xmlns:cc="http://creativecommons.org/ns#"
   xmlns:rdf="http://www.w3.org/1999/02/22-rdf-syntax-ns#"
   xmlns:svg="http://www.w3.org/2000/svg"
   xmlns="http://www.w3.org/2000/svg"
   xmlns:xlink="http://www.w3.org/1999/xlink"
   xmlns:sodipodi="http://sodipodi.sourceforge.net/DTD/sodipodi-0.dtd"
   xmlns:inkscape="http://www.inkscape.org/namespaces/inkscape"
   width="30px"
   height="30px"
   version="1.1"
   id="svg8"
   inkscape:version="0.92.4 5da689c313, 2019-01-14"
   sodipodi:docname="container.svg">
  <defs
     id="defs2" />
  <sodipodi:namedview
     id="base"
     pagecolor="#ffffff"
     bordercolor="#666666"
     borderopacity="1.0"
     inkscape:pageopacity="0.0"
     inkscape:pageshadow="2"
     inkscape:zoom="13.049334"
     inkscape:cx="18.679046"
     inkscape:cy="12.165829"
     inkscape:document-units="px"
     inkscape:current-layer="layer1"
     showgrid="false"
     inkscape:snap-page="false"
     units="px"
     inkscape:window-width="1884"
     inkscape:window-height="1061"
     inkscape:window-x="0"
     inkscape:window-y="0"
     inkscape:window-maximized="1"
     fit-margin-top="0"
     fit-margin-left="0"
     fit-margin-right="0"
     fit-margin-bottom="0" />
  <metadata
     id="metadata5">
    <rdf:RDF>
      <cc:Work
         rdf:about="">
        <dc:format>image/svg+xml</dc:format>
        <dc:type
           rdf:resource="http://purl.org/dc/dcmitype/StillImage" />
        <dc:title></dc:title>
      </cc:Work>
    </rdf:RDF>
  </metadata>
    <circle
       style="color:#000000;clip-rule:nonzero;display:inline;overflow:visible;visibility:visible;opacity:1;isolation:auto;mix-blend-mode:normal;color-interpolation:sRGB;color-interpolation-filters:linearRGB;solid-color:#000000;solid-opacity:1;vector-effect:none;fill:#0a86a5;fill-opacity:1;fill-rule:evenodd;stroke:#ffffff;stroke-width:1;stroke-linecap:butt;stroke-linejoin:miter;stroke-miterlimit:4;stroke-dasharray:none;stroke-dashoffset:0;stroke-opacity:1;marker:none;color-rendering:auto;image-rendering:auto;shape-rendering:auto;text-rendering:auto;enable-background:accumulate"
       id="path815"
       cx="15"
       cy="15"
       r="14.5" />
<g transform="translate(9,7)"><g id="surface1">
<path style=" stroke:none;fill-rule:nonzero;fill:#FFFFFF;fill-opacity:1;" d="M 5.386719 0 L 7.449219 0 C 7.554688 0 7.644531 0.0820312 7.644531 0.183594 L 7.644531 1 C 7.644531 1.101562 7.558594 1.183594 7.449219 1.183594 L 5.386719 1.183594 C 5.28125 1.183594 5.191406 1.101562 5.191406 1 L 5.191406 0.183594 C 5.195312 0.0820312 5.28125 0 5.386719 0 Z M 9.324219 3.597656 C 8.707031 3.59375 8.082031 3.589844 7.457031 3.585938 C 7.347656 3.585938 7.257812 3.5 7.257812 3.398438 L 7.257812 1.902344 C 7.257812 1.796875 7.167969 1.710938 7.058594 1.710938 L 5.910156 1.710938 C 5.796875 1.710938 5.707031 1.796875 5.707031 1.902344 L 5.707031 3.398438 C 5.707031 3.5 5.621094 3.585938 5.511719 3.585938 C 4.886719 3.589844 4.265625 3.597656 3.644531 3.613281 C 3.144531 3.613281 2.699219 3.824219 2.453125 4.167969 L 2.4375 4.199219 C 2.117188 4.703125 2.046875 6.035156 2.03125 6.714844 C 2.027344 6.925781 2.207031 7.105469 2.433594 7.109375 C 2.4375 7.109375 2.445312 7.109375 2.449219 7.109375 L 3.105469 7.097656 C 3.328125 7.09375 3.507812 6.917969 3.503906 6.707031 C 3.503906 6.160156 3.527344 5.210938 3.746094 5.078125 C 4.03125 4.902344 10.347656 5.007812 11.796875 5.023438 C 11.90625 5.023438 11.996094 4.9375 12 4.835938 C 12 4.835938 12 4.832031 12 4.832031 L 12 3.804688 C 12 3.699219 11.914062 3.613281 11.800781 3.613281 C 10.972656 3.613281 10.136719 3.605469 9.324219 3.597656 Z M 5.269531 16 L 1.027344 16 C 0.925781 16 0.84375 15.929688 0.832031 15.835938 L 0 8.257812 C -0.0078125 8.15625 0.0664062 8.066406 0.175781 8.054688 C 0.179688 8.054688 0.1875 8.054688 0.195312 8.054688 L 5.859375 8.054688 C 5.964844 8.054688 6.054688 8.132812 6.054688 8.238281 C 6.054688 8.242188 6.054688 8.246094 6.054688 8.25 L 5.46875 15.828125 C 5.457031 15.925781 5.371094 16 5.269531 16 Z M 4.957031 10.011719 C 5.039062 9.980469 5.078125 9.890625 5.039062 9.8125 C 5.003906 9.734375 4.910156 9.699219 4.828125 9.730469 C 4.820312 9.734375 4.042969 10.046875 3.0625 9.675781 C 1.972656 9.265625 1.429688 9.5 1.171875 9.613281 C 1.140625 9.628906 1.109375 9.640625 1.09375 9.644531 C 1.007812 9.667969 0.960938 9.753906 0.984375 9.835938 C 1.011719 9.917969 1.101562 9.960938 1.1875 9.9375 C 1.226562 9.925781 1.265625 9.910156 1.304688 9.890625 C 1.527344 9.796875 1.984375 9.597656 2.941406 9.960938 C 3.292969 10.09375 3.667969 10.164062 4.046875 10.164062 C 4.582031 10.164062 4.933594 10.023438 4.957031 10.011719 Z M 4.957031 11.140625 C 5.039062 11.105469 5.078125 11.015625 5.039062 10.9375 C 5.003906 10.859375 4.910156 10.824219 4.828125 10.859375 C 4.820312 10.863281 4.042969 11.171875 3.0625 10.800781 C 1.972656 10.394531 1.429688 10.625 1.171875 10.738281 C 1.140625 10.753906 1.109375 10.765625 1.09375 10.773438 C 1.007812 10.796875 0.960938 10.882812 0.984375 10.964844 C 1.011719 11.046875 1.101562 11.089844 1.1875 11.066406 C 1.226562 11.050781 1.265625 11.035156 1.304688 11.019531 C 1.527344 10.921875 1.984375 10.726562 2.941406 11.085938 C 3.292969 11.222656 3.667969 11.292969 4.046875 11.292969 C 4.582031 11.292969 4.933594 11.152344 4.957031 11.140625 Z M 4.957031 11.140625 "/>
</g>
</g>
</svg>
