<?xml version="1.0" encoding="UTF-8"?>
<svg xmlns="http://www.w3.org/2000/svg" xmlns:xlink="http://www.w3.org/1999/xlink" width="11px" height="10px" viewBox="0 0 11 10" version="1.1">
<g id="surface1">
<path style=" stroke:none;fill-rule:nonzero;fill:rgb(30%,30%,30%);fill-opacity:1;" d="M 10.757812 9.546875 L 9.3125 9.546875 L 9.042969 8.515625 L 9.726562 8.515625 C 9.867188 8.515625 9.980469 8.410156 9.980469 8.277344 C 9.980469 8.144531 9.867188 8.035156 9.726562 8.035156 L 8.917969 8.035156 L 8.671875 7.089844 L 8.164062 7.089844 L 8.410156 8.035156 L 6.902344 8.035156 L 7.160156 7.089844 L 6.652344 7.089844 L 6.394531 8.035156 L 5.582031 8.035156 C 5.441406 8.035156 5.328125 8.144531 5.328125 8.277344 C 5.328125 8.410156 5.441406 8.515625 5.582031 8.515625 L 6.261719 8.515625 L 5.984375 9.546875 L 3.003906 9.546875 L 3.003906 7.378906 L 5.09375 7.378906 C 5.144531 7.378906 5.171875 7.351562 5.171875 7.308594 C 5.171875 7.273438 5.160156 7.238281 5.136719 7.210938 L 3.652344 4.988281 L 4.765625 4.988281 C 4.820312 4.988281 4.847656 4.960938 4.847656 4.917969 C 4.84375 4.882812 4.832031 4.851562 4.8125 4.820312 L 3.328125 2.597656 L 4.128906 2.597656 C 4.183594 2.597656 4.210938 2.570312 4.210938 2.527344 C 4.207031 2.492188 4.195312 2.460938 4.175781 2.433594 L 2.589844 0 L 1.003906 2.433594 C 0.980469 2.460938 0.96875 2.492188 0.96875 2.527344 C 0.96875 2.570312 0.996094 2.597656 1.046875 2.597656 L 1.847656 2.597656 L 0.363281 4.820312 C 0.34375 4.851562 0.332031 4.882812 0.328125 4.917969 C 0.328125 4.960938 0.359375 4.988281 0.410156 4.988281 L 1.523438 4.988281 L 0.0390625 7.210938 C 0.0195312 7.238281 0.0078125 7.273438 0.00390625 7.308594 C 0.00390625 7.351562 0.03125 7.378906 0.0859375 7.378906 L 2.28125 7.378906 L 2.28125 9.546875 L 0.53125 9.546875 C 0.398438 9.546875 0.289062 9.648438 0.289062 9.773438 C 0.289062 9.898438 0.398438 10 0.53125 10 L 10.757812 10 C 10.886719 10 10.996094 9.898438 10.996094 9.773438 C 10.996094 9.648438 10.886719 9.546875 10.757812 9.546875 Z M 6.773438 8.515625 L 8.535156 8.515625 L 8.800781 9.546875 L 6.492188 9.546875 Z M 6.773438 8.515625 "/>
<path style=" stroke:none;fill-rule:nonzero;fill:rgb(30%,30%,30%);fill-opacity:1;" d="M 6.210938 6.449219 L 9.097656 6.449219 C 9.238281 6.449219 9.351562 6.554688 9.351562 6.6875 L 9.351562 6.691406 C 9.351562 6.824219 9.238281 6.929688 9.097656 6.929688 L 6.210938 6.929688 C 6.070312 6.929688 5.957031 6.824219 5.957031 6.691406 L 5.957031 6.6875 C 5.957031 6.554688 6.070312 6.449219 6.210938 6.449219 Z M 6.210938 6.449219 "/>
</g>
</svg>
