<?xml version="1.0" encoding="UTF-8" standalone="no"?>
<!-- Created with Inkscape (http://www.inkscape.org/) -->

<svg
   xmlns:dc="http://purl.org/dc/elements/1.1/"
   xmlns:cc="http://creativecommons.org/ns#"
   xmlns:rdf="http://www.w3.org/1999/02/22-rdf-syntax-ns#"
   xmlns:svg="http://www.w3.org/2000/svg"
   xmlns="http://www.w3.org/2000/svg"
   xmlns:xlink="http://www.w3.org/1999/xlink"
   xmlns:sodipodi="http://sodipodi.sourceforge.net/DTD/sodipodi-0.dtd"
   xmlns:inkscape="http://www.inkscape.org/namespaces/inkscape"
   width="30px"
   height="30px"
   version="1.1"
   id="svg8"
   inkscape:version="0.92.4 5da689c313, 2019-01-14"
   sodipodi:docname="container.svg">
  <defs
     id="defs2" />
  <sodipodi:namedview
     id="base"
     pagecolor="#ffffff"
     bordercolor="#666666"
     borderopacity="1.0"
     inkscape:pageopacity="0.0"
     inkscape:pageshadow="2"
     inkscape:zoom="13.049334"
     inkscape:cx="18.679046"
     inkscape:cy="12.165829"
     inkscape:document-units="px"
     inkscape:current-layer="layer1"
     showgrid="false"
     inkscape:snap-page="false"
     units="px"
     inkscape:window-width="1884"
     inkscape:window-height="1061"
     inkscape:window-x="0"
     inkscape:window-y="0"
     inkscape:window-maximized="1"
     fit-margin-top="0"
     fit-margin-left="0"
     fit-margin-right="0"
     fit-margin-bottom="0" />
  <metadata
     id="metadata5">
    <rdf:RDF>
      <cc:Work
         rdf:about="">
        <dc:format>image/svg+xml</dc:format>
        <dc:type
           rdf:resource="http://purl.org/dc/dcmitype/StillImage" />
        <dc:title></dc:title>
      </cc:Work>
    </rdf:RDF>
  </metadata>
    <circle
       style="color:#000000;clip-rule:nonzero;display:inline;overflow:visible;visibility:visible;opacity:1;isolation:auto;mix-blend-mode:normal;color-interpolation:sRGB;color-interpolation-filters:linearRGB;solid-color:#000000;solid-opacity:1;vector-effect:none;fill:#ffffff;fill-opacity:1;fill-rule:evenodd;stroke:#2a62ac;stroke-width:1;stroke-linecap:butt;stroke-linejoin:miter;stroke-miterlimit:4;stroke-dasharray:none;stroke-dashoffset:0;stroke-opacity:1;marker:none;color-rendering:auto;image-rendering:auto;shape-rendering:auto;text-rendering:auto;enable-background:accumulate"
       id="path815"
       cx="15"
       cy="15"
       r="14.5" />
<g transform="translate(8,7)"><g id="surface1">
<path style=" stroke:none;fill-rule:nonzero;fill:rgb(30%,30%,30%);fill-opacity:1;" d="M 9.964844 0.929688 L 8.003906 0.917969 L 8.003906 0.453125 C 8.003906 0.203125 7.59375 0 7.085938 0 C 6.578125 0 6.167969 0.203125 6.167969 0.453125 L 6.167969 0.914062 L 4.179688 0.902344 L 0 3.84375 L 0 16 L 14 16 L 14 3.84375 Z M 3.90625 14.382812 C 3.78125 14.203125 3.636719 14.03125 3.523438 13.84375 C 3.085938 13.089844 2.660156 12.335938 2.222656 11.582031 C 2.070312 11.324219 2.089844 11.085938 2.253906 10.839844 C 2.4375 10.5625 2.609375 10.273438 2.792969 9.976562 L 2.097656 9.566406 L 2.097656 9.539062 C 2.21875 9.523438 2.339844 9.507812 2.460938 9.5 C 3.109375 9.441406 3.757812 9.390625 4.40625 9.328125 C 4.503906 9.320312 4.554688 9.34375 4.597656 9.4375 C 4.929688 10.125 5.265625 10.8125 5.601562 11.496094 C 5.617188 11.527344 5.625 11.554688 5.648438 11.605469 C 5.410156 11.492188 5.191406 11.386719 4.96875 11.277344 C 4.796875 11.574219 4.628906 11.863281 4.464844 12.152344 C 4.324219 12.394531 4.164062 12.621094 4.050781 12.875 C 3.835938 13.351562 3.773438 13.851562 3.945312 14.363281 C 3.933594 14.367188 3.921875 14.375 3.90625 14.382812 Z M 6.898438 14.652344 C 6.617188 14.652344 6.359375 14.65625 6.101562 14.652344 C 5.554688 14.648438 5.011719 14.640625 4.464844 14.632812 C 4.226562 14.628906 4.148438 14.566406 4.066406 14.347656 C 3.894531 13.863281 3.957031 13.386719 4.152344 12.925781 C 4.234375 12.738281 4.34375 12.5625 4.453125 12.386719 C 4.480469 12.347656 4.527344 12.324219 4.578125 12.320312 C 5.339844 12.324219 6.105469 12.332031 6.871094 12.339844 C 6.878906 12.339844 6.890625 12.34375 6.898438 12.347656 Z M 6.753906 7.617188 C 6.433594 8.105469 6.113281 8.59375 5.792969 9.082031 C 5.769531 9.117188 5.746094 9.152344 5.714844 9.199219 C 5.046875 8.789062 4.386719 8.382812 3.703125 7.960938 C 4.148438 7.28125 4.582031 6.609375 5.023438 5.941406 C 5.117188 5.800781 5.246094 5.746094 5.429688 5.785156 C 6.015625 5.910156 6.425781 6.261719 6.746094 6.730469 C 7.050781 7.171875 7.046875 7.171875 6.753906 7.617188 Z M 7.03125 8.542969 C 7.253906 8.410156 7.464844 8.285156 7.675781 8.15625 C 7.636719 8.085938 7.597656 8.019531 7.5625 7.953125 C 7.382812 7.621094 7.203125 7.292969 7.023438 6.960938 C 6.691406 6.359375 6.242188 5.886719 5.539062 5.660156 C 5.660156 5.644531 5.78125 5.613281 5.898438 5.613281 C 6.195312 5.621094 6.492188 5.640625 6.789062 5.652344 C 7.472656 5.679688 8.160156 5.707031 8.847656 5.730469 C 9.15625 5.742188 9.363281 5.875 9.492188 6.152344 C 9.636719 6.453125 9.800781 6.742188 9.960938 7.046875 L 10.722656 6.679688 C 10.695312 6.742188 10.683594 6.777344 10.667969 6.808594 C 10.332031 7.457031 9.992188 8.105469 9.660156 8.753906 C 9.625 8.816406 9.589844 8.835938 9.519531 8.828125 C 8.734375 8.738281 7.953125 8.652344 7.167969 8.566406 C 7.128906 8.5625 7.089844 8.550781 7.03125 8.542969 Z M 12.203125 11.863281 C 11.804688 12.601562 11.394531 13.335938 10.988281 14.074219 C 10.953125 14.136719 10.917969 14.195312 10.882812 14.261719 C 10.753906 14.507812 10.542969 14.617188 10.261719 14.613281 C 9.910156 14.609375 9.5625 14.613281 9.203125 14.613281 L 9.203125 15.4375 L 9.171875 15.46875 C 9.15625 15.4375 9.144531 15.40625 9.121094 15.378906 C 8.664062 14.800781 8.207031 14.222656 7.746094 13.644531 C 7.703125 13.59375 7.691406 13.550781 7.730469 13.488281 C 8.164062 12.824219 8.597656 12.15625 9.027344 11.484375 C 9.035156 11.472656 9.046875 11.460938 9.070312 11.433594 C 9.097656 11.6875 9.125 11.921875 9.152344 12.160156 C 9.417969 12.148438 9.671875 12.132812 9.925781 12.117188 C 10.273438 12.101562 10.625 12.109375 10.972656 12.0625 C 11.519531 11.988281 12.003906 11.765625 12.371094 11.34375 L 12.40625 11.363281 C 12.339844 11.53125 12.289062 11.707031 12.203125 11.863281 Z M 12.28125 11.265625 C 11.929688 11.679688 11.457031 11.878906 10.921875 11.953125 C 10.746094 11.976562 10.566406 11.980469 10.386719 11.980469 C 10.339844 11.980469 10.296875 11.957031 10.269531 11.921875 C 9.855469 11.285156 9.445312 10.648438 9.027344 9.996094 C 9.699219 9.585938 10.363281 9.179688 11.035156 8.773438 C 11.214844 9.042969 11.394531 9.308594 11.570312 9.574219 C 11.828125 9.964844 12.085938 10.359375 12.332031 10.757812 C 12.464844 10.972656 12.449219 11.074219 12.28125 11.265625 Z M 12.28125 11.265625 "/>
</g>
</g>
</svg>
