<?xml version="1.0" encoding="UTF-8"?>
<svg xmlns="http://www.w3.org/2000/svg" xmlns:xlink="http://www.w3.org/1999/xlink" width="11px" height="9px" viewBox="0 0 11 9" version="1.1">
<g id="surface1">
<path style=" stroke:none;fill-rule:nonzero;fill:rgb(30%,30%,30%);fill-opacity:1;" d="M 5.714844 8.632812 C 3.605469 8.632812 1.886719 6.824219 1.886719 4.601562 C 1.886719 2.378906 3.605469 0.570312 5.714844 0.570312 C 7.824219 0.570312 9.542969 2.378906 9.542969 4.601562 C 9.542969 6.824219 7.824219 8.632812 5.714844 8.632812 Z M 5.714844 0.953125 C 3.804688 0.953125 2.253906 2.589844 2.253906 4.601562 C 2.253906 6.613281 3.804688 8.25 5.714844 8.25 C 7.625 8.25 9.179688 6.613281 9.179688 4.601562 C 9.179688 2.589844 7.625 0.953125 5.714844 0.953125 Z M 5.714844 7.417969 C 4.238281 7.417969 3.042969 6.15625 3.042969 4.601562 C 3.042969 3.046875 4.238281 1.785156 5.714844 1.785156 C 7.191406 1.785156 8.390625 3.046875 8.390625 4.601562 C 8.390625 6.15625 7.191406 7.417969 5.714844 7.417969 Z M 1.953125 0.289062 C 1.9375 0.253906 1.914062 0.253906 1.898438 0.289062 L 1.804688 0.523438 C 1.789062 0.570312 1.777344 0.617188 1.777344 0.664062 L 1.777344 2.414062 L 1.480469 2.414062 L 1.480469 0.664062 C 1.480469 0.617188 1.46875 0.570312 1.453125 0.523438 L 1.359375 0.289062 C 1.34375 0.253906 1.320312 0.253906 1.304688 0.289062 L 1.210938 0.523438 C 1.195312 0.570312 1.1875 0.617188 1.183594 0.664062 L 1.183594 2.414062 L 0.886719 2.414062 L 0.886719 0.664062 C 0.886719 0.617188 0.878906 0.570312 0.863281 0.523438 L 0.765625 0.289062 C 0.753906 0.253906 0.730469 0.253906 0.714844 0.289062 L 0.617188 0.523438 C 0.601562 0.570312 0.59375 0.617188 0.59375 0.664062 L 0.59375 2.414062 L 0.296875 2.414062 L 0.296875 0.664062 C 0.292969 0.617188 0.285156 0.570312 0.269531 0.523438 L 0.175781 0.289062 C 0.160156 0.253906 0.136719 0.253906 0.121094 0.289062 L 0.0273438 0.523438 C 0.0117188 0.570312 0 0.617188 0 0.664062 L 0.015625 2.40625 C 0.015625 2.40625 0.0703125 3.136719 0.738281 3.386719 L 0.746094 8.601562 C 0.734375 8.898438 0.917969 8.996094 1.0625 9 C 1.203125 9.003906 1.371094 8.832031 1.355469 8.613281 L 1.359375 3.390625 C 2.125 3.148438 2.085938 2.417969 2.085938 2.417969 L 2.085938 0.671875 C 2.085938 0.632812 2.0625 0.558594 2.046875 0.523438 Z M 11 4.375 L 11 8.484375 C 11 8.671875 10.855469 8.820312 10.679688 8.820312 C 10.503906 8.820312 10.359375 8.671875 10.359375 8.484375 L 10.359375 5.292969 C 10.035156 5.277344 9.777344 4.996094 9.777344 4.652344 L 9.777344 0.644531 C 9.777344 0.289062 10.050781 0 10.386719 0 C 10.726562 0 11 0.289062 11 0.644531 Z M 11 4.375 "/>
</g>
</svg>
