<?xml version="1.0" encoding="UTF-8"?>
<svg xmlns="http://www.w3.org/2000/svg" xmlns:xlink="http://www.w3.org/1999/xlink" width="11px" height="10px" viewBox="0 0 11 10" version="1.1">
<g id="surface1">
<path style=" stroke:none;fill-rule:nonzero;fill:rgb(30%,30%,30%);fill-opacity:1;" d="M 5.386719 0 C 5.5625 0 5.707031 0.132812 5.707031 0.292969 C 5.707031 0.527344 5.816406 0.636719 6.027344 0.824219 C 6.261719 1.03125 6.546875 1.285156 6.546875 1.78125 C 6.546875 2.277344 6.257812 2.53125 6.027344 2.738281 C 5.816406 2.925781 5.707031 3.03125 5.707031 3.269531 C 5.707031 3.429688 5.5625 3.5625 5.386719 3.5625 C 5.214844 3.5625 5.070312 3.429688 5.070312 3.269531 C 5.070312 2.769531 5.359375 2.515625 5.589844 2.3125 C 5.804688 2.125 5.914062 2.015625 5.914062 1.78125 C 5.914062 1.546875 5.804688 1.4375 5.589844 1.25 C 5.359375 1.046875 5.070312 0.789062 5.070312 0.292969 C 5.070312 0.132812 5.214844 0 5.386719 0 Z M 5.386719 0 "/>
<path style=" stroke:none;fill-rule:nonzero;fill:rgb(30%,30%,30%);fill-opacity:1;" d="M 4.484375 1.25 C 4.25 1.046875 3.964844 0.789062 3.964844 0.292969 C 3.964844 0.132812 4.105469 0 4.28125 0 C 4.453125 0 4.597656 0.132812 4.597656 0.292969 C 4.597656 0.527344 4.707031 0.636719 4.921875 0.824219 C 5.152344 1.03125 5.4375 1.285156 5.4375 1.78125 C 5.4375 2.277344 5.152344 2.53125 4.917969 2.738281 C 4.707031 2.925781 4.597656 3.03125 4.597656 3.269531 C 4.597656 3.429688 4.453125 3.5625 4.28125 3.5625 C 4.105469 3.5625 3.964844 3.429688 3.964844 3.269531 C 3.964844 2.769531 4.25 2.515625 4.484375 2.3125 C 4.695312 2.125 4.804688 2.015625 4.804688 1.78125 C 4.804688 1.546875 4.695312 1.4375 4.484375 1.25 Z M 4.484375 1.25 "/>
<path style=" stroke:none;fill-rule:nonzero;fill:rgb(30%,30%,30%);fill-opacity:1;" d="M 9.117188 10 L 0.53125 10 C 0.238281 10 0.00390625 9.839844 0.00390625 9.644531 C 0.00390625 9.449219 0.238281 9.289062 0.53125 9.289062 L 9.117188 9.289062 C 9.410156 9.289062 9.644531 9.449219 9.644531 9.644531 C 9.644531 9.839844 9.410156 10 9.117188 10 Z M 9.117188 10 "/>
<path style=" stroke:none;fill-rule:nonzero;fill:rgb(30%,30%,30%);fill-opacity:1;" d="M 10.996094 5.707031 C 11 6.25 10.636719 6.742188 10.089844 6.9375 C 9.539062 7.132812 8.917969 6.996094 8.523438 6.59375 C 7.894531 7.972656 6.4375 8.867188 4.824219 8.867188 C 2.609375 8.867188 0.8125 7.203125 0.8125 5.152344 C 0.8125 4.683594 0.910156 4.21875 1.097656 3.785156 L 8.550781 3.785156 C 8.664062 4.050781 8.742188 4.328125 8.785156 4.609375 C 9.222656 4.339844 9.785156 4.316406 10.246094 4.542969 C 10.710938 4.773438 11 5.222656 10.996094 5.707031 Z M 9.59375 4.941406 C 9.128906 4.941406 8.75 5.289062 8.75 5.722656 C 8.75 6.152344 9.128906 6.5 9.59375 6.5 C 10.058594 6.5 10.4375 6.152344 10.4375 5.722656 C 10.4375 5.289062 10.058594 4.941406 9.59375 4.941406 Z M 9.59375 4.941406 "/>
</g>
</svg>
