<?xml version="1.0" encoding="UTF-8" standalone="no"?>
<!-- Created with Inkscape (http://www.inkscape.org/) -->

<svg
   xmlns:dc="http://purl.org/dc/elements/1.1/"
   xmlns:cc="http://creativecommons.org/ns#"
   xmlns:rdf="http://www.w3.org/1999/02/22-rdf-syntax-ns#"
   xmlns:svg="http://www.w3.org/2000/svg"
   xmlns="http://www.w3.org/2000/svg"
   xmlns:xlink="http://www.w3.org/1999/xlink"
   xmlns:sodipodi="http://sodipodi.sourceforge.net/DTD/sodipodi-0.dtd"
   xmlns:inkscape="http://www.inkscape.org/namespaces/inkscape"
   width="30px"
   height="30px"
   version="1.1"
   id="svg8"
   inkscape:version="0.92.4 5da689c313, 2019-01-14"
   sodipodi:docname="container.svg">
  <defs
     id="defs2" />
  <sodipodi:namedview
     id="base"
     pagecolor="#ffffff"
     bordercolor="#666666"
     borderopacity="1.0"
     inkscape:pageopacity="0.0"
     inkscape:pageshadow="2"
     inkscape:zoom="13.049334"
     inkscape:cx="18.679046"
     inkscape:cy="12.165829"
     inkscape:document-units="px"
     inkscape:current-layer="layer1"
     showgrid="false"
     inkscape:snap-page="false"
     units="px"
     inkscape:window-width="1884"
     inkscape:window-height="1061"
     inkscape:window-x="0"
     inkscape:window-y="0"
     inkscape:window-maximized="1"
     fit-margin-top="0"
     fit-margin-left="0"
     fit-margin-right="0"
     fit-margin-bottom="0" />
  <metadata
     id="metadata5">
    <rdf:RDF>
      <cc:Work
         rdf:about="">
        <dc:format>image/svg+xml</dc:format>
        <dc:type
           rdf:resource="http://purl.org/dc/dcmitype/StillImage" />
        <dc:title></dc:title>
      </cc:Work>
    </rdf:RDF>
  </metadata>
    <circle
       style="color:#000000;clip-rule:nonzero;display:inline;overflow:visible;visibility:visible;opacity:1;isolation:auto;mix-blend-mode:normal;color-interpolation:sRGB;color-interpolation-filters:linearRGB;solid-color:#000000;solid-opacity:1;vector-effect:none;fill:#F5B700;fill-opacity:1;fill-rule:evenodd;stroke:#ffffff;stroke-width:1;stroke-linecap:butt;stroke-linejoin:miter;stroke-miterlimit:4;stroke-dasharray:none;stroke-dashoffset:0;stroke-opacity:1;marker:none;color-rendering:auto;image-rendering:auto;shape-rendering:auto;text-rendering:auto;enable-background:accumulate"
       id="path815"
       cx="15"
       cy="15"
       r="14.5" />
<g transform="translate(6,7)"><g id="surface1">
<path style=" stroke:none;fill-rule:nonzero;fill:#FFFFFF;fill-opacity:1;" d="M 8.328125 0 C 8.597656 0 8.816406 0.210938 8.816406 0.46875 C 8.816406 0.84375 8.988281 1.019531 9.316406 1.320312 C 9.675781 1.648438 10.121094 2.054688 10.121094 2.847656 C 10.121094 3.644531 9.671875 4.050781 9.316406 4.378906 C 8.988281 4.679688 8.816406 4.851562 8.816406 5.230469 C 8.816406 5.488281 8.597656 5.699219 8.328125 5.699219 C 8.058594 5.699219 7.839844 5.488281 7.839844 5.230469 C 7.839844 4.433594 8.285156 4.027344 8.640625 3.699219 C 8.96875 3.398438 9.140625 3.226562 9.140625 2.847656 C 9.140625 2.472656 8.96875 2.296875 8.640625 2 C 8.285156 1.671875 7.839844 1.265625 7.839844 0.46875 C 7.839844 0.210938 8.058594 0 8.328125 0 Z M 8.328125 0 "/>
<path style=" stroke:none;fill-rule:nonzero;fill:#FFFFFF;fill-opacity:1;" d="M 6.925781 2 C 6.570312 1.671875 6.125 1.265625 6.125 0.46875 C 6.125 0.210938 6.34375 0 6.613281 0 C 6.886719 0 7.105469 0.210938 7.105469 0.46875 C 7.105469 0.84375 7.273438 1.019531 7.605469 1.320312 C 7.960938 1.648438 8.40625 2.054688 8.40625 2.847656 C 8.40625 3.644531 7.960938 4.050781 7.601562 4.378906 C 7.273438 4.679688 7.105469 4.851562 7.105469 5.230469 C 7.105469 5.488281 6.886719 5.699219 6.613281 5.699219 C 6.34375 5.699219 6.125 5.488281 6.125 5.230469 C 6.125 4.433594 6.570312 4.027344 6.925781 3.699219 C 7.253906 3.398438 7.425781 3.226562 7.425781 2.847656 C 7.425781 2.472656 7.253906 2.296875 6.925781 2 Z M 6.925781 2 "/>
<path style=" stroke:none;fill-rule:nonzero;fill:#FFFFFF;fill-opacity:1;" d="M 14.089844 16 L 0.820312 16 C 0.367188 16 0.00390625 15.746094 0.00390625 15.433594 C 0.00390625 15.121094 0.367188 14.867188 0.820312 14.867188 L 14.089844 14.867188 C 14.539062 14.867188 14.90625 15.121094 14.90625 15.433594 C 14.90625 15.746094 14.539062 16 14.089844 16 Z M 14.089844 16 "/>
<path style=" stroke:none;fill-rule:nonzero;fill:#FFFFFF;fill-opacity:1;" d="M 16.996094 9.132812 C 17 10.003906 16.441406 10.785156 15.589844 11.097656 C 14.742188 11.414062 13.78125 11.195312 13.171875 10.546875 C 12.203125 12.753906 9.949219 14.1875 7.453125 14.1875 C 4.03125 14.1875 1.253906 11.527344 1.253906 8.246094 C 1.253906 7.496094 1.402344 6.75 1.695312 6.054688 L 13.214844 6.054688 C 13.386719 6.480469 13.511719 6.921875 13.578125 7.375 C 14.253906 6.945312 15.121094 6.902344 15.835938 7.273438 C 16.550781 7.640625 16.996094 8.355469 16.996094 9.132812 Z M 14.828125 7.90625 C 14.105469 7.90625 13.523438 8.464844 13.523438 9.152344 C 13.523438 9.84375 14.105469 10.402344 14.828125 10.402344 C 15.546875 10.402344 16.128906 9.84375 16.128906 9.152344 C 16.128906 8.464844 15.546875 7.90625 14.828125 7.90625 Z M 14.828125 7.90625 "/>
</g>
</g>
</svg>
