<?xml version="1.0" encoding="UTF-8" standalone="no"?>
<!-- Created with Inkscape (http://www.inkscape.org/) -->

<svg
   xmlns:dc="http://purl.org/dc/elements/1.1/"
   xmlns:cc="http://creativecommons.org/ns#"
   xmlns:rdf="http://www.w3.org/1999/02/22-rdf-syntax-ns#"
   xmlns:svg="http://www.w3.org/2000/svg"
   xmlns="http://www.w3.org/2000/svg"
   xmlns:xlink="http://www.w3.org/1999/xlink"
   xmlns:sodipodi="http://sodipodi.sourceforge.net/DTD/sodipodi-0.dtd"
   xmlns:inkscape="http://www.inkscape.org/namespaces/inkscape"
   width="30px"
   height="30px"
   version="1.1"
   id="svg8"
   inkscape:version="0.92.4 5da689c313, 2019-01-14"
   sodipodi:docname="container.svg">
  <defs
     id="defs2" />
  <sodipodi:namedview
     id="base"
     pagecolor="#ffffff"
     bordercolor="#666666"
     borderopacity="1.0"
     inkscape:pageopacity="0.0"
     inkscape:pageshadow="2"
     inkscape:zoom="13.049334"
     inkscape:cx="18.679046"
     inkscape:cy="12.165829"
     inkscape:document-units="px"
     inkscape:current-layer="layer1"
     showgrid="false"
     inkscape:snap-page="false"
     units="px"
     inkscape:window-width="1884"
     inkscape:window-height="1061"
     inkscape:window-x="0"
     inkscape:window-y="0"
     inkscape:window-maximized="1"
     fit-margin-top="0"
     fit-margin-left="0"
     fit-margin-right="0"
     fit-margin-bottom="0" />
  <metadata
     id="metadata5">
    <rdf:RDF>
      <cc:Work
         rdf:about="">
        <dc:format>image/svg+xml</dc:format>
        <dc:type
           rdf:resource="http://purl.org/dc/dcmitype/StillImage" />
        <dc:title></dc:title>
      </cc:Work>
    </rdf:RDF>
  </metadata>
    <circle
       style="color:#000000;clip-rule:nonzero;display:inline;overflow:visible;visibility:visible;opacity:1;isolation:auto;mix-blend-mode:normal;color-interpolation:sRGB;color-interpolation-filters:linearRGB;solid-color:#000000;solid-opacity:1;vector-effect:none;fill:#ffffff;fill-opacity:1;fill-rule:evenodd;stroke:#F5B700;stroke-width:1;stroke-linecap:butt;stroke-linejoin:miter;stroke-miterlimit:4;stroke-dasharray:none;stroke-dashoffset:0;stroke-opacity:1;marker:none;color-rendering:auto;image-rendering:auto;shape-rendering:auto;text-rendering:auto;enable-background:accumulate"
       id="path815"
       cx="15"
       cy="15"
       r="14.5" />
<g transform="translate(6,7)"><g id="surface1">
<path style=" stroke:none;fill-rule:nonzero;fill:rgb(30%,30%,30%);fill-opacity:1;" d="M 15.734375 10.953125 C 15.671875 11.0625 15.597656 11.359375 15.546875 11.5625 C 15.402344 12.164062 15.234375 12.84375 14.675781 12.949219 C 14.25 13.027344 13.875 12.632812 13.441406 12.175781 C 13.257812 11.980469 12.925781 11.632812 12.761719 11.558594 C 12.667969 11.683594 12.539062 12.023438 12.457031 12.234375 C 12.230469 12.828125 11.996094 13.441406 11.484375 13.480469 C 11.035156 13.511719 10.691406 13.035156 10.296875 12.488281 C 10.136719 12.261719 9.875 11.898438 9.722656 11.785156 C 9.601562 11.921875 9.417969 12.292969 9.300781 12.523438 C 8.972656 13.171875 8.691406 13.730469 8.199219 13.730469 C 7.699219 13.730469 7.414062 13.171875 7.082031 12.527344 C 6.960938 12.289062 6.765625 11.910156 6.640625 11.78125 C 6.488281 11.886719 6.214844 12.257812 6.046875 12.488281 C 5.644531 13.035156 5.300781 13.507812 4.84375 13.472656 C 4.328125 13.4375 4.089844 12.820312 3.855469 12.226562 C 3.773438 12.011719 3.636719 11.660156 3.542969 11.539062 C 3.390625 11.605469 3.050781 11.964844 2.863281 12.160156 C 2.425781 12.617188 2.050781 13.011719 1.628906 12.929688 C 1.070312 12.824219 0.917969 12.140625 0.777344 11.539062 C 0.734375 11.335938 0.667969 11.042969 0.609375 10.933594 C 0.59375 10.933594 0.582031 10.929688 0.570312 10.929688 C 0.265625 13.058594 0.0078125 14.863281 0.00390625 14.890625 C 0.460938 15.09375 1.144531 15.296875 2.167969 15.488281 C 3.921875 15.8125 6.210938 16 8.445312 16 C 10.6875 16 12.984375 15.8125 14.75 15.488281 C 15.832031 15.289062 16.535156 15.074219 16.996094 14.859375 C 16.980469 14.738281 16.746094 13.191406 16.457031 11.304688 C 16.441406 11.289062 16.429688 11.277344 16.414062 11.265625 C 16.195312 11.070312 15.976562 10.902344 15.734375 10.953125 Z M 15.734375 10.953125 "/>
<path style=" stroke:none;fill-rule:nonzero;fill:rgb(30%,30%,30%);fill-opacity:1;" d="M 15.796875 6.988281 C 15.726562 7.015625 15.652344 7.027344 15.578125 7.027344 C 15.203125 7.027344 14.898438 6.722656 14.898438 6.347656 C 14.898438 5.972656 15.203125 5.667969 15.578125 5.667969 C 15.582031 5.667969 15.589844 5.671875 15.59375 5.671875 C 15.472656 4.867188 15.382812 4.292969 15.359375 4.128906 C 15.058594 4.464844 14.382812 4.726562 13.289062 4.9375 C 11.992188 5.1875 10.273438 5.324219 8.445312 5.324219 C 6.621094 5.324219 4.902344 5.1875 3.605469 4.9375 C 2.511719 4.726562 1.835938 4.464844 1.535156 4.128906 C 1.511719 4.308594 1.417969 4.976562 1.285156 5.898438 C 1.296875 5.898438 1.304688 5.894531 1.316406 5.894531 C 1.691406 5.894531 1.996094 6.199219 1.996094 6.574219 C 1.996094 6.953125 1.691406 7.253906 1.316406 7.253906 C 1.242188 7.253906 1.167969 7.242188 1.097656 7.214844 C 0.964844 8.144531 0.816406 9.183594 0.675781 10.191406 C 0.75 10.203125 0.824219 10.21875 0.898438 10.242188 C 1.277344 10.371094 1.382812 10.835938 1.503906 11.371094 C 1.554688 11.597656 1.65625 12.039062 1.757812 12.175781 C 1.898438 12.09375 2.160156 11.820312 2.324219 11.648438 C 2.769531 11.179688 3.191406 10.734375 3.660156 10.792969 C 4.121094 10.847656 4.328125 11.386719 4.550781 11.957031 C 4.636719 12.179688 4.789062 12.570312 4.902344 12.703125 C 5.042969 12.59375 5.289062 12.257812 5.445312 12.046875 C 5.839844 11.507812 6.214844 11 6.683594 11.015625 C 7.152344 11.03125 7.425781 11.566406 7.742188 12.183594 C 7.867188 12.425781 8.0625 12.808594 8.195312 12.949219 C 8.324219 12.804688 8.515625 12.425781 8.632812 12.1875 C 8.945312 11.566406 9.214844 11.03125 9.679688 11.015625 C 10.148438 11 10.496094 11.488281 10.902344 12.050781 C 11.050781 12.257812 11.289062 12.585938 11.429688 12.703125 C 11.535156 12.5625 11.679688 12.183594 11.761719 11.96875 C 11.980469 11.398438 12.183594 10.855469 12.644531 10.800781 C 13.113281 10.746094 13.535156 11.191406 13.980469 11.660156 C 14.148438 11.839844 14.421875 12.125 14.558594 12.199219 C 14.652344 12.085938 14.765625 11.617188 14.824219 11.386719 C 14.957031 10.847656 15.070312 10.382812 15.453125 10.257812 C 15.773438 10.152344 16.0625 10.199219 16.304688 10.300781 C 16.132812 9.179688 15.953125 8.007812 15.796875 6.988281 Z M 3.355469 7.9375 C 2.980469 7.9375 2.675781 7.632812 2.675781 7.253906 C 2.675781 6.878906 2.980469 6.574219 3.355469 6.574219 C 3.730469 6.574219 4.035156 6.878906 4.035156 7.253906 C 4.035156 7.632812 3.730469 7.9375 3.355469 7.9375 Z M 5.617188 8.390625 C 5.242188 8.390625 4.9375 8.085938 4.9375 7.710938 C 4.9375 7.332031 5.242188 7.027344 5.617188 7.027344 C 5.992188 7.027344 6.296875 7.332031 6.296875 7.710938 C 6.296875 8.085938 5.992188 8.390625 5.617188 8.390625 Z M 8.335938 8.617188 C 7.957031 8.617188 7.65625 8.3125 7.65625 7.9375 C 7.65625 7.558594 7.957031 7.253906 8.335938 7.253906 C 8.710938 7.253906 9.011719 7.558594 9.011719 7.9375 C 9.011719 8.3125 8.710938 8.617188 8.335938 8.617188 Z M 11.050781 8.390625 C 10.675781 8.390625 10.371094 8.085938 10.371094 7.710938 C 10.371094 7.332031 10.675781 7.027344 11.050781 7.027344 C 11.425781 7.027344 11.730469 7.332031 11.730469 7.710938 C 11.730469 8.085938 11.425781 8.390625 11.050781 8.390625 Z M 13.539062 7.9375 C 13.164062 7.9375 12.859375 7.632812 12.859375 7.253906 C 12.859375 6.878906 13.164062 6.574219 13.539062 6.574219 C 13.914062 6.574219 14.21875 6.878906 14.21875 7.253906 C 14.21875 7.632812 13.914062 7.9375 13.539062 7.9375 Z M 13.539062 7.9375 "/>
<path style=" stroke:none;fill-rule:nonzero;fill:rgb(30%,30%,30%);fill-opacity:1;" d="M 10.039062 2.417969 C 10.308594 1.664062 10.050781 0.824219 9.410156 0.347656 C 8.765625 -0.125 7.890625 -0.121094 7.25 0.355469 C 6.609375 0.835938 6.359375 1.675781 6.632812 2.425781 C 3.78125 2.582031 1.6875 3.085938 1.6875 3.683594 C 1.6875 4.402344 4.714844 4.984375 8.445312 4.984375 C 12.179688 4.984375 15.207031 4.402344 15.207031 3.683594 C 15.207031 3.070312 13.003906 2.554688 10.039062 2.417969 Z M 10.039062 2.417969 "/>
</g>
</g>
</svg>
