<?xml version="1.0" encoding="UTF-8" standalone="no"?>
<!-- Created with Inkscape (http://www.inkscape.org/) -->

<svg
   xmlns:dc="http://purl.org/dc/elements/1.1/"
   xmlns:cc="http://creativecommons.org/ns#"
   xmlns:rdf="http://www.w3.org/1999/02/22-rdf-syntax-ns#"
   xmlns:svg="http://www.w3.org/2000/svg"
   xmlns="http://www.w3.org/2000/svg"
   xmlns:xlink="http://www.w3.org/1999/xlink"
   xmlns:sodipodi="http://sodipodi.sourceforge.net/DTD/sodipodi-0.dtd"
   xmlns:inkscape="http://www.inkscape.org/namespaces/inkscape"
   width="30px"
   height="30px"
   version="1.1"
   id="svg8"
   inkscape:version="0.92.4 5da689c313, 2019-01-14"
   sodipodi:docname="container.svg">
  <defs
     id="defs2" />
  <sodipodi:namedview
     id="base"
     pagecolor="#ffffff"
     bordercolor="#666666"
     borderopacity="1.0"
     inkscape:pageopacity="0.0"
     inkscape:pageshadow="2"
     inkscape:zoom="13.049334"
     inkscape:cx="18.679046"
     inkscape:cy="12.165829"
     inkscape:document-units="px"
     inkscape:current-layer="layer1"
     showgrid="false"
     inkscape:snap-page="false"
     units="px"
     inkscape:window-width="1884"
     inkscape:window-height="1061"
     inkscape:window-x="0"
     inkscape:window-y="0"
     inkscape:window-maximized="1"
     fit-margin-top="0"
     fit-margin-left="0"
     fit-margin-right="0"
     fit-margin-bottom="0" />
  <metadata
     id="metadata5">
    <rdf:RDF>
      <cc:Work
         rdf:about="">
        <dc:format>image/svg+xml</dc:format>
        <dc:type
           rdf:resource="http://purl.org/dc/dcmitype/StillImage" />
        <dc:title></dc:title>
      </cc:Work>
    </rdf:RDF>
  </metadata>
    <circle
       style="color:#000000;clip-rule:nonzero;display:inline;overflow:visible;visibility:visible;opacity:1;isolation:auto;mix-blend-mode:normal;color-interpolation:sRGB;color-interpolation-filters:linearRGB;solid-color:#000000;solid-opacity:1;vector-effect:none;fill:#F5B700;fill-opacity:1;fill-rule:evenodd;stroke:#ffffff;stroke-width:1;stroke-linecap:butt;stroke-linejoin:miter;stroke-miterlimit:4;stroke-dasharray:none;stroke-dashoffset:0;stroke-opacity:1;marker:none;color-rendering:auto;image-rendering:auto;shape-rendering:auto;text-rendering:auto;enable-background:accumulate"
       id="path815"
       cx="15"
       cy="15"
       r="14.5" />
<g transform="translate(7,10)"><g id="surface1">
<path style=" stroke:none;fill-rule:nonzero;fill:#FFFFFF;fill-opacity:1;" d="M 3.023438 4.710938 C 2.019531 4.710938 1.15625 4.921875 0.785156 5.21875 L 0.785156 0.410156 C 0.785156 0.183594 0.613281 0 0.398438 0 C 0.183594 0 0.0078125 0.183594 0.0078125 0.410156 L 0.0078125 9.589844 C 0.0078125 9.816406 0.183594 10 0.398438 10 C 0.613281 10 0.785156 9.816406 0.785156 9.589844 L 0.785156 5.875 C 1.15625 6.175781 2.019531 6.382812 3.023438 6.382812 C 3.664062 6.382812 4.246094 6.296875 4.679688 6.160156 L 4.679688 9.628906 C 4.679688 9.835938 4.839844 10 5.03125 10 L 5.105469 10 C 5.300781 10 5.457031 9.835938 5.457031 9.628906 L 5.457031 5.683594 C 5.457031 5.660156 5.457031 5.574219 5.457031 5.546875 C 5.457031 5.085938 4.367188 4.710938 3.023438 4.710938 Z M 3.023438 4.710938 "/>
<path style=" stroke:none;fill-rule:nonzero;fill:#FFFFFF;fill-opacity:1;" d="M 15.601562 0 C 15.386719 0 15.214844 0.183594 15.214844 0.410156 L 15.214844 5.21875 C 14.84375 4.921875 13.980469 4.710938 12.976562 4.710938 C 11.632812 4.710938 10.542969 5.085938 10.542969 5.546875 C 10.542969 5.574219 10.542969 5.660156 10.542969 5.683594 L 10.542969 9.628906 C 10.542969 9.835938 10.699219 10 10.894531 10 L 10.96875 10 C 11.160156 10 11.320312 9.835938 11.320312 9.628906 L 11.320312 6.160156 C 11.753906 6.296875 12.335938 6.382812 12.976562 6.382812 C 13.980469 6.382812 14.84375 6.175781 15.214844 5.875 L 15.214844 9.589844 C 15.214844 9.816406 15.386719 10 15.601562 10 C 15.816406 10 15.992188 9.816406 15.992188 9.589844 L 15.992188 0.410156 C 15.992188 0.183594 15.816406 0 15.601562 0 Z M 15.601562 0 "/>
<path style=" stroke:none;fill-rule:nonzero;fill:#FFFFFF;fill-opacity:1;" d="M 9.609375 9.351562 L 8.429688 9.351562 L 8.429688 4.503906 C 10.867188 4.445312 12.785156 3.820312 12.785156 3.054688 C 12.785156 2.25 10.667969 1.597656 8.058594 1.597656 C 5.449219 1.597656 3.335938 2.25 3.335938 3.054688 C 3.335938 3.816406 5.234375 4.441406 7.648438 4.503906 L 7.648438 4.660156 L 7.652344 4.660156 L 7.652344 9.351562 L 6.402344 9.351562 C 6.234375 9.351562 6.101562 9.492188 6.101562 9.667969 C 6.101562 9.84375 6.234375 9.984375 6.402344 9.984375 L 9.609375 9.984375 C 9.777344 9.984375 9.914062 9.84375 9.914062 9.667969 C 9.914062 9.492188 9.777344 9.351562 9.609375 9.351562 Z M 9.609375 9.351562 "/>
</g>
</g>
</svg>
