<?xml version="1.0" encoding="UTF-8" standalone="no"?>
<!-- Created with Inkscape (http://www.inkscape.org/) -->

<svg
   xmlns:dc="http://purl.org/dc/elements/1.1/"
   xmlns:cc="http://creativecommons.org/ns#"
   xmlns:rdf="http://www.w3.org/1999/02/22-rdf-syntax-ns#"
   xmlns:svg="http://www.w3.org/2000/svg"
   xmlns="http://www.w3.org/2000/svg"
   xmlns:xlink="http://www.w3.org/1999/xlink"
   xmlns:sodipodi="http://sodipodi.sourceforge.net/DTD/sodipodi-0.dtd"
   xmlns:inkscape="http://www.inkscape.org/namespaces/inkscape"
   width="30px"
   height="30px"
   version="1.1"
   id="svg8"
   inkscape:version="0.92.4 5da689c313, 2019-01-14"
   sodipodi:docname="container.svg">
  <defs
     id="defs2" />
  <sodipodi:namedview
     id="base"
     pagecolor="#ffffff"
     bordercolor="#666666"
     borderopacity="1.0"
     inkscape:pageopacity="0.0"
     inkscape:pageshadow="2"
     inkscape:zoom="13.049334"
     inkscape:cx="18.679046"
     inkscape:cy="12.165829"
     inkscape:document-units="px"
     inkscape:current-layer="layer1"
     showgrid="false"
     inkscape:snap-page="false"
     units="px"
     inkscape:window-width="1884"
     inkscape:window-height="1061"
     inkscape:window-x="0"
     inkscape:window-y="0"
     inkscape:window-maximized="1"
     fit-margin-top="0"
     fit-margin-left="0"
     fit-margin-right="0"
     fit-margin-bottom="0" />
  <metadata
     id="metadata5">
    <rdf:RDF>
      <cc:Work
         rdf:about="">
        <dc:format>image/svg+xml</dc:format>
        <dc:type
           rdf:resource="http://purl.org/dc/dcmitype/StillImage" />
        <dc:title></dc:title>
      </cc:Work>
    </rdf:RDF>
  </metadata>
    <circle
       style="color:#000000;clip-rule:nonzero;display:inline;overflow:visible;visibility:visible;opacity:1;isolation:auto;mix-blend-mode:normal;color-interpolation:sRGB;color-interpolation-filters:linearRGB;solid-color:#000000;solid-opacity:1;vector-effect:none;fill:#ffffff;fill-opacity:1;fill-rule:evenodd;stroke:#F5B700;stroke-width:1;stroke-linecap:butt;stroke-linejoin:miter;stroke-miterlimit:4;stroke-dasharray:none;stroke-dashoffset:0;stroke-opacity:1;marker:none;color-rendering:auto;image-rendering:auto;shape-rendering:auto;text-rendering:auto;enable-background:accumulate"
       id="path815"
       cx="15"
       cy="15"
       r="14.5" />
<g transform="translate(9,6)"><g id="surface1">
<path style=" stroke:none;fill-rule:nonzero;fill:rgb(30%,30%,30%);fill-opacity:1;" d="M 11 0.628906 L 11 16.289062 C 11 16.675781 10.691406 16.996094 10.3125 16.996094 L 9.625 16.996094 C 9.246094 16.996094 8.9375 16.675781 8.9375 16.289062 L 8.9375 10.640625 C 8.9375 10.640625 6.875 10 6.875 8.519531 L 6.875 3.449219 C 6.875 2.863281 7.261719 2.125 7.734375 1.800781 L 10.140625 0.152344 C 10.613281 -0.164062 11 0.046875 11 0.628906 Z M 4.53125 0.183594 C 4.5 0.113281 4.445312 0.113281 4.410156 0.183594 L 4.1875 0.636719 C 4.152344 0.722656 4.128906 0.8125 4.128906 0.90625 L 4.128906 4.292969 L 3.441406 4.292969 L 3.441406 0.90625 C 3.4375 0.8125 3.414062 0.722656 3.378906 0.636719 L 3.15625 0.183594 C 3.121094 0.113281 3.070312 0.113281 3.035156 0.183594 L 2.8125 0.636719 C 2.777344 0.722656 2.753906 0.8125 2.75 0.90625 L 2.75 4.292969 L 2.0625 4.292969 L 2.0625 0.90625 C 2.058594 0.8125 2.039062 0.722656 2.003906 0.636719 L 1.78125 0.183594 C 1.746094 0.113281 1.691406 0.113281 1.660156 0.183594 L 1.4375 0.636719 C 1.398438 0.722656 1.378906 0.8125 1.375 0.90625 L 1.375 4.292969 L 0.6875 4.292969 L 0.6875 0.90625 C 0.683594 0.8125 0.664062 0.722656 0.625 0.636719 L 0.40625 0.183594 C 0.371094 0.113281 0.316406 0.113281 0.28125 0.183594 L 0.0625 0.636719 C 0.0234375 0.722656 0.00390625 0.8125 0 0.90625 L 0 5.351562 C 0 5.546875 0.0664062 5.847656 0.152344 6.023438 L 1.375 8.527344 L 1.375 16.289062 C 1.375 16.675781 1.6875 16.996094 2.0625 16.996094 L 2.75 16.996094 C 3.128906 16.996094 3.441406 16.675781 3.441406 16.289062 L 3.441406 8.523438 L 4.664062 6.019531 C 4.746094 5.84375 4.816406 5.542969 4.816406 5.347656 L 4.816406 0.902344 C 4.8125 0.808594 4.792969 0.71875 4.753906 0.632812 Z M 4.53125 0.183594 "/>
</g>
</g>
</svg>
