<?xml version="1.0" encoding="UTF-8"?>
<svg xmlns="http://www.w3.org/2000/svg" xmlns:xlink="http://www.w3.org/1999/xlink" width="6px" height="10px" viewBox="0 0 6 10" version="1.1">
<g id="surface1">
<path style=" stroke:none;fill-rule:nonzero;fill:rgb(30%,30%,30%);fill-opacity:1;" d="M 3.003906 10 L 0.253906 4.101562 L 5.75 4.101562 Z M 4.46875 1.445312 C 4.46875 1.433594 4.46875 1.460938 4.46875 1.449219 C 4.46875 0.667969 3.8125 0 3 0 C 2.1875 0 1.53125 0.632812 1.53125 1.417969 C 1.53125 1.429688 1.53125 1.441406 1.53125 1.453125 C 2.871094 1.460938 2.984375 2.597656 2.984375 2.585938 C 2.996094 2.117188 3.453125 1.5625 4.46875 1.445312 Z M 2.949219 3.15625 C 2.949219 3.144531 2.945312 3.132812 2.945312 3.121094 C 2.929688 2.382812 2.324219 1.785156 1.558594 1.746094 C 1.53125 1.746094 1.503906 1.738281 1.480469 1.738281 C 0.664062 1.738281 0.00390625 2.371094 0.00390625 3.15625 C 0.00390625 3.390625 0.0703125 3.625 0.1875 3.832031 L 2.765625 3.832031 C 2.886719 3.625 2.949219 3.390625 2.949219 3.15625 Z M 4.519531 1.738281 C 4.511719 1.738281 4.503906 1.742188 4.496094 1.742188 C 3.703125 1.753906 3.070312 2.367188 3.050781 3.125 C 3.050781 3.136719 3.046875 3.144531 3.046875 3.15625 C 3.046875 3.390625 3.113281 3.625 3.230469 3.832031 L 5.808594 3.832031 C 5.929688 3.625 5.992188 3.390625 5.992188 3.15625 C 5.996094 2.371094 5.335938 1.738281 4.519531 1.738281 Z M 4.519531 1.738281 "/>
</g>
</svg>
