<?xml version="1.0" encoding="UTF-8"?>
<svg xmlns="http://www.w3.org/2000/svg" xmlns:xlink="http://www.w3.org/1999/xlink" width="10px" height="8px" viewBox="0 0 10 8" version="1.1">
<g id="surface1">
<path style=" stroke:none;fill-rule:nonzero;fill:rgb(30%,30%,30%);fill-opacity:1;" d="M 5.117188 7.675781 C 3.265625 7.675781 1.757812 6.066406 1.757812 4.089844 C 1.757812 2.113281 3.265625 0.507812 5.117188 0.507812 C 6.964844 0.507812 8.472656 2.113281 8.472656 4.089844 C 8.472656 6.066406 6.964844 7.675781 5.117188 7.675781 Z M 5.117188 0.847656 C 3.441406 0.847656 2.078125 2.304688 2.078125 4.089844 C 2.078125 5.878906 3.441406 7.335938 5.117188 7.335938 C 6.789062 7.335938 8.152344 5.878906 8.152344 4.089844 C 8.152344 2.304688 6.789062 0.847656 5.117188 0.847656 Z M 5.117188 6.59375 C 3.820312 6.59375 2.769531 5.472656 2.769531 4.089844 C 2.769531 2.707031 3.820312 1.589844 5.117188 1.589844 C 6.410156 1.589844 7.460938 2.707031 7.460938 4.089844 C 7.460938 5.472656 6.410156 6.59375 5.117188 6.59375 Z M 5.117188 6.59375 "/>
<path style=" stroke:none;fill-rule:nonzero;fill:rgb(30%,30%,30%);fill-opacity:1;" d="M 10 3.890625 L 10 7.542969 C 10 7.707031 9.875 7.84375 9.71875 7.84375 C 9.5625 7.84375 9.4375 7.707031 9.4375 7.542969 L 9.4375 4.703125 C 9.152344 4.691406 8.925781 4.441406 8.925781 4.132812 L 8.925781 0.574219 C 8.925781 0.257812 9.167969 0 9.460938 0 C 9.757812 0 10 0.257812 10 0.574219 Z M 10 3.890625 "/>
<path style=" stroke:none;fill-rule:nonzero;fill:rgb(30%,30%,30%);fill-opacity:1;" d="M 1.710938 0.257812 C 1.699219 0.226562 1.679688 0.226562 1.667969 0.257812 L 1.582031 0.464844 C 1.566406 0.503906 1.558594 0.546875 1.558594 0.589844 L 1.558594 2.148438 L 1.300781 2.148438 L 1.300781 0.589844 C 1.296875 0.546875 1.289062 0.503906 1.277344 0.464844 L 1.191406 0.257812 C 1.179688 0.226562 1.160156 0.226562 1.148438 0.257812 L 1.0625 0.464844 C 1.046875 0.503906 1.039062 0.546875 1.039062 0.589844 L 1.039062 2.148438 L 0.78125 2.148438 L 0.78125 0.589844 C 0.777344 0.546875 0.769531 0.503906 0.757812 0.464844 L 0.671875 0.257812 C 0.660156 0.226562 0.640625 0.226562 0.628906 0.257812 L 0.542969 0.464844 C 0.527344 0.503906 0.519531 0.546875 0.519531 0.589844 L 0.519531 2.148438 L 0.261719 2.148438 L 0.261719 0.589844 C 0.257812 0.546875 0.25 0.503906 0.238281 0.464844 L 0.152344 0.257812 C 0.140625 0.226562 0.121094 0.226562 0.109375 0.257812 L 0.0234375 0.464844 C 0.0117188 0.503906 0.00390625 0.546875 0 0.589844 L 0.015625 2.136719 C 0.015625 2.136719 0.0625 2.789062 0.648438 3.007812 L 0.65625 7.644531 C 0.644531 7.910156 0.808594 7.996094 0.933594 8 C 1.058594 8.003906 1.203125 7.851562 1.191406 7.65625 L 1.195312 3.011719 C 1.863281 2.796875 1.828125 2.152344 1.828125 2.152344 L 1.828125 0.597656 C 1.828125 0.5625 1.808594 0.496094 1.796875 0.464844 Z M 1.710938 0.257812 "/>
</g>
</svg>
