<?xml version="1.0" encoding="UTF-8"?>
<svg xmlns="http://www.w3.org/2000/svg" xmlns:xlink="http://www.w3.org/1999/xlink" width="11px" height="9px" viewBox="0 0 11 9" version="1.1">
<g id="surface1">
<path style=" stroke:none;fill-rule:nonzero;fill:rgb(30%,30%,30%);fill-opacity:1;" d="M 0.699219 4.589844 L 10.300781 4.589844 C 10.683594 4.589844 10.996094 4.902344 10.996094 5.292969 C 10.996094 5.683594 10.683594 6 10.300781 6 L 0.699219 6 C 0.316406 6 0.00390625 5.683594 0.00390625 5.292969 C 0.00390625 4.902344 0.316406 4.589844 0.699219 4.589844 Z M 0.699219 4.589844 "/>
<path style=" stroke:none;fill-rule:nonzero;fill:rgb(30%,30%,30%);fill-opacity:1;" d="M 10.648438 3.683594 C 10.65625 3.777344 10.625 3.867188 10.5625 3.933594 C 10.5 4.003906 10.414062 4.042969 10.320312 4.039062 L 0.613281 4.039062 C 0.519531 4.042969 0.433594 4.003906 0.371094 3.933594 C 0.308594 3.867188 0.277344 3.777344 0.285156 3.683594 C 0.488281 1.042969 2.761719 0 5.5 0 C 8.238281 0 10.453125 1.042969 10.648438 3.683594 Z M 4.386719 0.695312 C 2.46875 0.660156 0.773438 2.3125 0.738281 3.289062 C 0.734375 3.335938 1.195312 3.300781 1.195312 3.300781 C 1.519531 2.765625 2.023438 1.167969 4.386719 0.695312 Z M 4.386719 0.695312 "/>
<path style=" stroke:none;fill-rule:nonzero;fill:rgb(30%,30%,30%);fill-opacity:1;" d="M 0.464844 6.558594 L 0.441406 6.585938 C 0.4375 8.867188 2.96875 9 5.5 9 C 8.328125 9 10.648438 8.933594 10.625 6.558594 Z M 0.464844 6.558594 "/>
</g>
</svg>
