<?xml version="1.0" encoding="UTF-8" standalone="no"?>
<!-- Created with Inkscape (http://www.inkscape.org/) -->

<svg
   xmlns:dc="http://purl.org/dc/elements/1.1/"
   xmlns:cc="http://creativecommons.org/ns#"
   xmlns:rdf="http://www.w3.org/1999/02/22-rdf-syntax-ns#"
   xmlns:svg="http://www.w3.org/2000/svg"
   xmlns="http://www.w3.org/2000/svg"
   xmlns:xlink="http://www.w3.org/1999/xlink"
   xmlns:sodipodi="http://sodipodi.sourceforge.net/DTD/sodipodi-0.dtd"
   xmlns:inkscape="http://www.inkscape.org/namespaces/inkscape"
   width="30px"
   height="30px"
   version="1.1"
   id="svg8"
   inkscape:version="0.92.4 5da689c313, 2019-01-14"
   sodipodi:docname="container.svg">
  <defs
     id="defs2" />
  <sodipodi:namedview
     id="base"
     pagecolor="#ffffff"
     bordercolor="#666666"
     borderopacity="1.0"
     inkscape:pageopacity="0.0"
     inkscape:pageshadow="2"
     inkscape:zoom="13.049334"
     inkscape:cx="18.679046"
     inkscape:cy="12.165829"
     inkscape:document-units="px"
     inkscape:current-layer="layer1"
     showgrid="false"
     inkscape:snap-page="false"
     units="px"
     inkscape:window-width="1884"
     inkscape:window-height="1061"
     inkscape:window-x="0"
     inkscape:window-y="0"
     inkscape:window-maximized="1"
     fit-margin-top="0"
     fit-margin-left="0"
     fit-margin-right="0"
     fit-margin-bottom="0" />
  <metadata
     id="metadata5">
    <rdf:RDF>
      <cc:Work
         rdf:about="">
        <dc:format>image/svg+xml</dc:format>
        <dc:type
           rdf:resource="http://purl.org/dc/dcmitype/StillImage" />
        <dc:title></dc:title>
      </cc:Work>
    </rdf:RDF>
  </metadata>
    <circle
       style="color:#000000;clip-rule:nonzero;display:inline;overflow:visible;visibility:visible;opacity:1;isolation:auto;mix-blend-mode:normal;color-interpolation:sRGB;color-interpolation-filters:linearRGB;solid-color:#000000;solid-opacity:1;vector-effect:none;fill:#ffffff;fill-opacity:1;fill-rule:evenodd;stroke:#F5B700;stroke-width:1;stroke-linecap:butt;stroke-linejoin:miter;stroke-miterlimit:4;stroke-dasharray:none;stroke-dashoffset:0;stroke-opacity:1;marker:none;color-rendering:auto;image-rendering:auto;shape-rendering:auto;text-rendering:auto;enable-background:accumulate"
       id="path815"
       cx="15"
       cy="15"
       r="14.5" />
<g transform="translate(6,8)"><g id="surface1">
<path style=" stroke:none;fill-rule:nonzero;fill:rgb(30%,30%,30%);fill-opacity:1;" d="M 1.078125 7.136719 L 15.921875 7.136719 C 16.511719 7.136719 16.992188 7.628906 16.992188 8.234375 C 16.992188 8.839844 16.511719 9.332031 15.921875 9.332031 L 1.078125 9.332031 C 0.488281 9.332031 0.0078125 8.839844 0.0078125 8.234375 C 0.0078125 7.628906 0.488281 7.136719 1.078125 7.136719 Z M 1.078125 7.136719 "/>
<path style=" stroke:none;fill-rule:nonzero;fill:rgb(30%,30%,30%);fill-opacity:1;" d="M 16.457031 5.730469 C 16.46875 5.875 16.417969 6.015625 16.324219 6.121094 C 16.226562 6.226562 16.09375 6.285156 15.953125 6.285156 L 0.945312 6.285156 C 0.804688 6.285156 0.671875 6.226562 0.574219 6.121094 C 0.480469 6.015625 0.429688 5.875 0.441406 5.730469 C 0.753906 1.621094 4.265625 0 8.5 0 C 12.734375 0 16.152344 1.621094 16.457031 5.730469 Z M 6.78125 1.082031 C 3.816406 1.027344 1.191406 3.597656 1.136719 5.113281 C 1.136719 5.191406 1.847656 5.132812 1.847656 5.132812 C 2.351562 4.304688 3.125 1.8125 6.78125 1.082031 Z M 6.78125 1.082031 "/>
<path style=" stroke:none;fill-rule:nonzero;fill:rgb(30%,30%,30%);fill-opacity:1;" d="M 0.722656 10.199219 L 0.679688 10.242188 C 0.671875 13.792969 4.585938 14 8.5 14 C 12.867188 14 16.453125 13.894531 16.421875 10.203125 L 16.421875 10.199219 Z M 0.722656 10.199219 "/>
</g>
</g>
</svg>
