<?xml version="1.0" encoding="UTF-8"?>
<svg xmlns="http://www.w3.org/2000/svg" xmlns:xlink="http://www.w3.org/1999/xlink" width="10px" height="10px" viewBox="0 0 10 10" version="1.1">
<g id="surface1">
<path style=" stroke:none;fill-rule:nonzero;fill:rgb(30%,30%,30%);fill-opacity:1;" d="M 9.253906 6.84375 C 9.21875 6.914062 9.175781 7.097656 9.144531 7.226562 C 9.058594 7.601562 8.960938 8.027344 8.632812 8.09375 C 8.382812 8.140625 8.164062 7.894531 7.90625 7.609375 C 7.796875 7.488281 7.605469 7.269531 7.507812 7.222656 C 7.453125 7.300781 7.375 7.515625 7.328125 7.648438 C 7.195312 8.019531 7.058594 8.402344 6.753906 8.425781 C 6.492188 8.445312 6.289062 8.148438 6.058594 7.804688 C 5.960938 7.664062 5.808594 7.4375 5.71875 7.367188 C 5.648438 7.449219 5.539062 7.683594 5.46875 7.828125 C 5.277344 8.230469 5.113281 8.582031 4.820312 8.582031 C 4.53125 8.582031 4.359375 8.234375 4.164062 7.828125 C 4.09375 7.679688 3.980469 7.445312 3.90625 7.363281 C 3.816406 7.429688 3.65625 7.660156 3.558594 7.804688 C 3.320312 8.148438 3.117188 8.441406 2.851562 8.421875 C 2.546875 8.398438 2.40625 8.011719 2.269531 7.640625 C 2.21875 7.507812 2.140625 7.289062 2.082031 7.214844 C 1.996094 7.253906 1.792969 7.476562 1.683594 7.601562 C 1.425781 7.886719 1.207031 8.132812 0.957031 8.082031 C 0.628906 8.015625 0.539062 7.589844 0.457031 7.210938 C 0.429688 7.085938 0.390625 6.902344 0.359375 6.832031 C 0.351562 6.832031 0.34375 6.832031 0.335938 6.832031 C 0.15625 8.160156 0.00390625 9.289062 0.00390625 9.304688 C 0.269531 9.433594 0.675781 9.5625 1.273438 9.679688 C 2.304688 9.882812 3.652344 10 4.96875 10 C 6.285156 10 7.636719 9.882812 8.675781 9.679688 C 9.3125 9.554688 9.726562 9.421875 9.996094 9.289062 C 9.988281 9.210938 9.851562 8.242188 9.679688 7.0625 C 9.671875 7.054688 9.664062 7.046875 9.65625 7.042969 C 9.527344 6.917969 9.398438 6.8125 9.253906 6.84375 Z M 9.253906 6.84375 "/>
<path style=" stroke:none;fill-rule:nonzero;fill:rgb(30%,30%,30%);fill-opacity:1;" d="M 9.292969 4.367188 C 9.25 4.382812 9.207031 4.394531 9.164062 4.394531 C 8.941406 4.394531 8.765625 4.203125 8.765625 3.96875 C 8.765625 3.734375 8.941406 3.542969 9.164062 3.542969 C 9.167969 3.542969 9.167969 3.542969 9.171875 3.542969 C 9.101562 3.042969 9.050781 2.683594 9.035156 2.582031 C 8.855469 2.789062 8.460938 2.953125 7.816406 3.085938 C 7.054688 3.242188 6.042969 3.328125 4.96875 3.328125 C 3.894531 3.328125 2.882812 3.242188 2.121094 3.085938 C 1.476562 2.953125 1.082031 2.789062 0.902344 2.582031 C 0.890625 2.691406 0.832031 3.109375 0.757812 3.6875 C 0.761719 3.6875 0.769531 3.683594 0.773438 3.683594 C 0.996094 3.683594 1.175781 3.875 1.175781 4.109375 C 1.175781 4.34375 0.996094 4.535156 0.773438 4.535156 C 0.730469 4.535156 0.6875 4.527344 0.644531 4.511719 C 0.566406 5.089844 0.480469 5.742188 0.398438 6.371094 C 0.441406 6.375 0.484375 6.386719 0.527344 6.402344 C 0.75 6.480469 0.8125 6.773438 0.886719 7.109375 C 0.914062 7.246094 0.976562 7.523438 1.035156 7.609375 C 1.117188 7.558594 1.269531 7.386719 1.367188 7.28125 C 1.628906 6.984375 1.878906 6.710938 2.152344 6.746094 C 2.421875 6.777344 2.546875 7.117188 2.675781 7.472656 C 2.726562 7.613281 2.816406 7.855469 2.882812 7.941406 C 2.96875 7.871094 3.113281 7.660156 3.203125 7.53125 C 3.4375 7.191406 3.65625 6.875 3.933594 6.882812 C 4.207031 6.894531 4.367188 7.230469 4.554688 7.617188 C 4.628906 7.765625 4.742188 8.003906 4.820312 8.09375 C 4.894531 8.003906 5.007812 7.765625 5.078125 7.617188 C 5.261719 7.230469 5.421875 6.894531 5.695312 6.886719 C 5.96875 6.875 6.175781 7.179688 6.414062 7.53125 C 6.5 7.660156 6.640625 7.867188 6.722656 7.941406 C 6.785156 7.851562 6.871094 7.617188 6.917969 7.480469 C 7.046875 7.121094 7.167969 6.785156 7.4375 6.75 C 7.714844 6.71875 7.960938 6.996094 8.222656 7.289062 C 8.324219 7.398438 8.484375 7.578125 8.5625 7.625 C 8.621094 7.554688 8.6875 7.261719 8.71875 7.117188 C 8.796875 6.78125 8.863281 6.488281 9.089844 6.410156 C 9.28125 6.34375 9.449219 6.375 9.589844 6.4375 C 9.488281 5.738281 9.382812 5.003906 9.292969 4.367188 Z M 1.972656 4.960938 C 1.753906 4.960938 1.574219 4.769531 1.574219 4.535156 C 1.574219 4.300781 1.753906 4.109375 1.972656 4.109375 C 2.195312 4.109375 2.371094 4.300781 2.371094 4.535156 C 2.371094 4.769531 2.195312 4.960938 1.972656 4.960938 Z M 3.304688 5.242188 C 3.082031 5.242188 2.90625 5.054688 2.90625 4.816406 C 2.90625 4.582031 3.082031 4.394531 3.304688 4.394531 C 3.523438 4.394531 3.703125 4.582031 3.703125 4.816406 C 3.703125 5.054688 3.523438 5.242188 3.304688 5.242188 Z M 4.902344 5.386719 C 4.683594 5.386719 4.503906 5.195312 4.503906 4.960938 C 4.503906 4.726562 4.683594 4.535156 4.902344 4.535156 C 5.121094 4.535156 5.300781 4.726562 5.300781 4.960938 C 5.300781 5.195312 5.121094 5.386719 4.902344 5.386719 Z M 6.5 5.242188 C 6.28125 5.242188 6.101562 5.054688 6.101562 4.816406 C 6.101562 4.582031 6.28125 4.394531 6.5 4.394531 C 6.722656 4.394531 6.898438 4.582031 6.898438 4.816406 C 6.898438 5.054688 6.722656 5.242188 6.5 5.242188 Z M 7.964844 4.960938 C 7.746094 4.960938 7.566406 4.769531 7.566406 4.535156 C 7.566406 4.300781 7.746094 4.109375 7.964844 4.109375 C 8.183594 4.109375 8.363281 4.300781 8.363281 4.535156 C 8.363281 4.769531 8.183594 4.960938 7.964844 4.960938 Z M 7.964844 4.960938 "/>
<path style=" stroke:none;fill-rule:nonzero;fill:rgb(30%,30%,30%);fill-opacity:1;" d="M 5.90625 1.511719 C 6.0625 1.039062 5.914062 0.515625 5.535156 0.21875 C 5.15625 -0.078125 4.640625 -0.078125 4.265625 0.222656 C 3.890625 0.523438 3.742188 1.046875 3.902344 1.515625 C 2.222656 1.613281 0.992188 1.929688 0.992188 2.300781 C 0.992188 2.75 2.773438 3.117188 4.96875 3.117188 C 7.164062 3.117188 8.945312 2.75 8.945312 2.300781 C 8.945312 1.917969 7.648438 1.597656 5.90625 1.511719 Z M 5.90625 1.511719 "/>
</g>
</svg>
