<?xml version="1.0" encoding="UTF-8"?>
<svg xmlns="http://www.w3.org/2000/svg" xmlns:xlink="http://www.w3.org/1999/xlink" width="9px" height="11px" viewBox="0 0 9 11" version="1.1">
<g id="surface1">
<path style=" stroke:none;fill-rule:nonzero;fill:rgb(30%,30%,30%);fill-opacity:1;" d="M 7.960938 4.484375 L 7.121094 4.484375 L 7.121094 4.378906 C 7.140625 4.367188 7.179688 4.296875 7.179688 4.296875 C 7.191406 4.285156 7.203125 4.273438 7.214844 4.257812 C 7.546875 3.910156 7.730469 3.453125 7.730469 2.976562 C 7.730469 1.867188 6.753906 0.96875 5.605469 1.09375 C 5.289062 0.425781 4.609375 0 3.863281 0 C 3.117188 0 2.4375 0.425781 2.121094 1.09375 C 0.972656 0.96875 0 1.867188 0 2.976562 C 0 3.453125 0.183594 3.910156 0.511719 4.257812 C 0.523438 4.273438 0.539062 4.289062 0.550781 4.300781 L 0.546875 9.964844 C 0.546875 10.535156 1.019531 11 1.597656 11 L 6.128906 11 C 6.710938 11 7.179688 10.535156 7.179688 9.964844 L 7.207031 9.519531 L 7.945312 9.507812 C 8.527344 9.507812 9 9.042969 9 8.472656 L 9 5.507812 C 9 4.941406 8.535156 4.484375 7.960938 4.484375 Z M 0.828125 3.605469 L 0.71875 3.613281 C 0.609375 3.417969 0.550781 3.199219 0.546875 2.976562 C 0.546875 2.128906 1.335938 1.453125 2.234375 1.660156 L 2.480469 1.714844 L 2.558594 1.480469 C 2.742188 0.921875 3.269531 0.539062 3.863281 0.539062 C 4.460938 0.539062 4.988281 0.921875 5.171875 1.480469 L 5.246094 1.714844 L 5.492188 1.660156 C 6.394531 1.453125 7.179688 2.128906 7.179688 2.976562 C 7.179688 3.203125 7.117188 3.417969 7.011719 3.605469 Z M 1.996094 9.871094 C 1.996094 10.023438 1.875 10.144531 1.722656 10.144531 C 1.570312 10.144531 1.449219 10.023438 1.449219 9.871094 L 1.449219 4.800781 C 1.445312 4.691406 1.511719 4.59375 1.613281 4.554688 C 1.808594 4.476562 1.996094 4.621094 1.996094 4.804688 Z M 3.0625 9.871094 C 3.0625 10.023438 2.9375 10.144531 2.785156 10.144531 C 2.636719 10.144531 2.511719 10.023438 2.511719 9.871094 L 2.511719 4.800781 C 2.511719 4.691406 2.578125 4.59375 2.679688 4.554688 C 2.875 4.476562 3.0625 4.621094 3.0625 4.804688 Z M 4.125 9.871094 C 4.125 10.023438 4.003906 10.144531 3.851562 10.144531 C 3.699219 10.144531 3.574219 10.023438 3.574219 9.871094 L 3.574219 4.800781 C 3.574219 4.683594 3.652344 4.582031 3.761719 4.546875 C 3.953125 4.488281 4.125 4.625 4.125 4.804688 Z M 5.191406 9.871094 C 5.191406 10.023438 5.066406 10.144531 4.914062 10.144531 C 4.761719 10.144531 4.640625 10.023438 4.640625 9.871094 L 4.640625 4.800781 C 4.640625 4.691406 4.703125 4.59375 4.804688 4.554688 C 5.003906 4.476562 5.191406 4.621094 5.191406 4.804688 Z M 6.253906 9.871094 C 6.253906 10.023438 6.128906 10.144531 5.976562 10.144531 C 5.828125 10.144531 5.703125 10.023438 5.703125 9.871094 L 5.703125 4.800781 C 5.703125 4.683594 5.777344 4.582031 5.890625 4.546875 C 6.082031 4.488281 6.253906 4.625 6.253906 4.804688 Z M 8.449219 8.5 C 8.449219 8.773438 8.226562 8.996094 7.945312 8.996094 L 7.121094 8.996094 L 7.121094 5.050781 L 7.945312 5.050781 C 8.222656 5.054688 8.449219 5.273438 8.449219 5.546875 Z M 8.449219 8.5 "/>
</g>
</svg>
