<?xml version="1.0" encoding="UTF-8" standalone="no"?>
<!-- Created with Inkscape (http://www.inkscape.org/) -->

<svg
   xmlns:dc="http://purl.org/dc/elements/1.1/"
   xmlns:cc="http://creativecommons.org/ns#"
   xmlns:rdf="http://www.w3.org/1999/02/22-rdf-syntax-ns#"
   xmlns:svg="http://www.w3.org/2000/svg"
   xmlns="http://www.w3.org/2000/svg"
   xmlns:xlink="http://www.w3.org/1999/xlink"
   xmlns:sodipodi="http://sodipodi.sourceforge.net/DTD/sodipodi-0.dtd"
   xmlns:inkscape="http://www.inkscape.org/namespaces/inkscape"
   width="30px"
   height="30px"
   version="1.1"
   id="svg8"
   inkscape:version="0.92.4 5da689c313, 2019-01-14"
   sodipodi:docname="container.svg">
  <defs
     id="defs2" />
  <sodipodi:namedview
     id="base"
     pagecolor="#ffffff"
     bordercolor="#666666"
     borderopacity="1.0"
     inkscape:pageopacity="0.0"
     inkscape:pageshadow="2"
     inkscape:zoom="13.049334"
     inkscape:cx="18.679046"
     inkscape:cy="12.165829"
     inkscape:document-units="px"
     inkscape:current-layer="layer1"
     showgrid="false"
     inkscape:snap-page="false"
     units="px"
     inkscape:window-width="1884"
     inkscape:window-height="1061"
     inkscape:window-x="0"
     inkscape:window-y="0"
     inkscape:window-maximized="1"
     fit-margin-top="0"
     fit-margin-left="0"
     fit-margin-right="0"
     fit-margin-bottom="0" />
  <metadata
     id="metadata5">
    <rdf:RDF>
      <cc:Work
         rdf:about="">
        <dc:format>image/svg+xml</dc:format>
        <dc:type
           rdf:resource="http://purl.org/dc/dcmitype/StillImage" />
        <dc:title></dc:title>
      </cc:Work>
    </rdf:RDF>
  </metadata>
    <circle
       style="color:#000000;clip-rule:nonzero;display:inline;overflow:visible;visibility:visible;opacity:1;isolation:auto;mix-blend-mode:normal;color-interpolation:sRGB;color-interpolation-filters:linearRGB;solid-color:#000000;solid-opacity:1;vector-effect:none;fill:#ffffff;fill-opacity:1;fill-rule:evenodd;stroke:#F5B700;stroke-width:1;stroke-linecap:butt;stroke-linejoin:miter;stroke-miterlimit:4;stroke-dasharray:none;stroke-dashoffset:0;stroke-opacity:1;marker:none;color-rendering:auto;image-rendering:auto;shape-rendering:auto;text-rendering:auto;enable-background:accumulate"
       id="path815"
       cx="15"
       cy="15"
       r="14.5" />
<g transform="translate(6,8)"><g id="surface1">
<path style=" stroke:none;fill-rule:nonzero;fill:rgb(30%,30%,30%);fill-opacity:1;" d="M 8.695312 12.472656 C 5.550781 12.472656 2.988281 9.859375 2.988281 6.648438 C 2.988281 3.4375 5.550781 0.824219 8.695312 0.824219 C 11.84375 0.824219 14.402344 3.4375 14.402344 6.648438 C 14.402344 9.859375 11.84375 12.472656 8.695312 12.472656 Z M 8.695312 1.378906 C 5.851562 1.378906 3.535156 3.742188 3.535156 6.648438 C 3.535156 9.554688 5.851562 11.917969 8.695312 11.917969 C 11.542969 11.917969 13.859375 9.554688 13.859375 6.648438 C 13.859375 3.742188 11.542969 1.378906 8.695312 1.378906 Z M 8.695312 10.714844 C 6.496094 10.714844 4.710938 8.894531 4.710938 6.648438 C 4.710938 4.402344 6.496094 2.582031 8.695312 2.582031 C 10.898438 2.582031 12.679688 4.402344 12.679688 6.648438 C 12.679688 8.894531 10.898438 10.714844 8.695312 10.714844 Z M 8.695312 10.714844 "/>
<path style=" stroke:none;fill-rule:nonzero;fill:rgb(30%,30%,30%);fill-opacity:1;" d="M 17 6.320312 L 17 12.257812 C 17 12.527344 16.785156 12.742188 16.523438 12.742188 C 16.257812 12.742188 16.046875 12.527344 16.046875 12.257812 L 16.046875 7.644531 C 15.558594 7.621094 15.175781 7.214844 15.175781 6.71875 L 15.175781 0.929688 C 15.175781 0.417969 15.582031 0 16.085938 0 C 16.589844 0 17 0.417969 17 0.929688 Z M 17 6.320312 "/>
<path style=" stroke:none;fill-rule:nonzero;fill:rgb(30%,30%,30%);fill-opacity:1;" d="M 2.910156 0.417969 C 2.890625 0.367188 2.855469 0.367188 2.832031 0.417969 L 2.691406 0.757812 C 2.664062 0.820312 2.652344 0.886719 2.652344 0.957031 L 2.652344 3.488281 L 2.210938 3.488281 L 2.210938 0.957031 C 2.207031 0.886719 2.195312 0.820312 2.171875 0.757812 L 2.027344 0.417969 C 2.007812 0.367188 1.972656 0.367188 1.949219 0.417969 L 1.808594 0.757812 C 1.78125 0.820312 1.769531 0.886719 1.769531 0.957031 L 1.769531 3.488281 L 1.328125 3.488281 L 1.328125 0.957031 C 1.324219 0.886719 1.3125 0.820312 1.285156 0.757812 L 1.144531 0.417969 C 1.121094 0.367188 1.089844 0.367188 1.066406 0.417969 L 0.925781 0.757812 C 0.898438 0.820312 0.886719 0.886719 0.882812 0.957031 L 0.882812 3.488281 L 0.441406 3.488281 L 0.441406 0.957031 C 0.441406 0.886719 0.429688 0.820312 0.402344 0.757812 L 0.261719 0.417969 C 0.238281 0.367188 0.203125 0.367188 0.183594 0.417969 L 0.0390625 0.757812 C 0.015625 0.820312 0.00390625 0.886719 0 0.957031 L 0.0273438 3.472656 C 0.0273438 3.472656 0.105469 4.53125 1.101562 4.890625 L 1.113281 12.421875 C 1.09375 12.855469 1.371094 12.992188 1.585938 13 C 1.796875 13.007812 2.046875 12.757812 2.023438 12.441406 L 2.027344 4.898438 C 3.167969 4.546875 3.109375 3.496094 3.109375 3.496094 L 3.109375 0.972656 C 3.109375 0.914062 3.074219 0.808594 3.054688 0.753906 Z M 2.910156 0.417969 "/>
</g>
</g>
</svg>
