<?xml version="1.0" encoding="UTF-8"?>
<svg xmlns="http://www.w3.org/2000/svg" xmlns:xlink="http://www.w3.org/1999/xlink" width="7px" height="10px" viewBox="0 0 7 10" version="1.1">
<g id="surface1">
<path style=" stroke:none;fill-rule:nonzero;fill:rgb(30%,30%,30%);fill-opacity:1;" d="M 7 0.371094 L 7 9.582031 C 7 9.808594 6.804688 9.996094 6.5625 9.996094 L 6.125 9.996094 C 5.882812 9.996094 5.6875 9.808594 5.6875 9.582031 L 5.6875 6.257812 C 5.6875 6.257812 4.375 5.882812 4.375 5.011719 L 4.375 2.027344 C 4.375 1.683594 4.621094 1.25 4.921875 1.058594 L 6.453125 0.0898438 C 6.753906 -0.0976562 7 0.0273438 7 0.371094 Z M 2.882812 0.105469 C 2.863281 0.0664062 2.828125 0.0664062 2.804688 0.105469 L 2.664062 0.375 C 2.640625 0.425781 2.628906 0.476562 2.625 0.53125 L 2.625 2.527344 L 2.1875 2.527344 L 2.1875 0.53125 C 2.1875 0.476562 2.171875 0.425781 2.148438 0.375 L 2.007812 0.105469 C 1.988281 0.0664062 1.953125 0.0664062 1.929688 0.105469 L 1.789062 0.375 C 1.765625 0.425781 1.753906 0.476562 1.75 0.53125 L 1.75 2.527344 L 1.3125 2.527344 L 1.3125 0.53125 C 1.3125 0.476562 1.296875 0.425781 1.273438 0.375 L 1.132812 0.105469 C 1.113281 0.0664062 1.078125 0.0664062 1.054688 0.105469 L 0.914062 0.375 C 0.890625 0.425781 0.878906 0.476562 0.875 0.53125 L 0.875 2.527344 L 0.4375 2.527344 L 0.4375 0.53125 C 0.4375 0.476562 0.421875 0.425781 0.398438 0.375 L 0.257812 0.105469 C 0.234375 0.0664062 0.203125 0.0664062 0.179688 0.105469 L 0.0390625 0.375 C 0.015625 0.425781 0 0.476562 0 0.53125 L 0 3.148438 C 0 3.261719 0.0429688 3.441406 0.0976562 3.542969 L 0.875 5.015625 L 0.875 9.582031 C 0.875 9.808594 1.074219 9.996094 1.3125 9.996094 L 1.75 9.996094 C 1.992188 9.996094 2.1875 9.808594 2.1875 9.582031 L 2.1875 5.015625 L 2.96875 3.539062 C 3.019531 3.4375 3.0625 3.261719 3.0625 3.148438 L 3.0625 0.53125 C 3.0625 0.476562 3.050781 0.421875 3.023438 0.371094 Z M 2.882812 0.105469 "/>
</g>
</svg>
