<?xml version="1.0" encoding="UTF-8"?>
<svg xmlns="http://www.w3.org/2000/svg" xmlns:xlink="http://www.w3.org/1999/xlink" width="11px" height="7px" viewBox="0 0 11 7" version="1.1">
<g id="surface1">
<path style=" stroke:none;fill-rule:nonzero;fill:rgb(30%,30%,30%);fill-opacity:1;" d="M 2.078125 3.296875 C 1.386719 3.296875 0.796875 3.445312 0.539062 3.652344 L 0.539062 0.285156 C 0.539062 0.128906 0.421875 0 0.273438 0 C 0.125 0 0.0078125 0.128906 0.0078125 0.285156 L 0.0078125 6.714844 C 0.0078125 6.871094 0.125 7 0.273438 7 C 0.421875 7 0.539062 6.871094 0.539062 6.714844 L 0.539062 4.113281 C 0.796875 4.320312 1.386719 4.46875 2.078125 4.46875 C 2.519531 4.46875 2.917969 4.410156 3.21875 4.3125 L 3.21875 6.742188 C 3.21875 6.882812 3.328125 7 3.460938 7 L 3.511719 7 C 3.644531 7 3.753906 6.882812 3.753906 6.742188 L 3.753906 3.976562 C 3.753906 3.964844 3.75 3.902344 3.75 3.882812 C 3.75 3.558594 3.003906 3.296875 2.078125 3.296875 Z M 2.078125 3.296875 "/>
<path style=" stroke:none;fill-rule:nonzero;fill:rgb(30%,30%,30%);fill-opacity:1;" d="M 10.726562 0 C 10.578125 0 10.460938 0.128906 10.460938 0.285156 L 10.460938 3.652344 C 10.203125 3.445312 9.613281 3.296875 8.921875 3.296875 C 7.996094 3.296875 7.25 3.558594 7.25 3.882812 C 7.25 3.902344 7.246094 3.964844 7.246094 3.976562 L 7.246094 6.742188 C 7.246094 6.882812 7.355469 7 7.488281 7 L 7.539062 7 C 7.671875 7 7.78125 6.882812 7.78125 6.742188 L 7.78125 4.3125 C 8.082031 4.410156 8.480469 4.46875 8.921875 4.46875 C 9.613281 4.46875 10.203125 4.320312 10.460938 4.113281 L 10.460938 6.714844 C 10.460938 6.871094 10.578125 7 10.726562 7 C 10.875 7 10.992188 6.871094 10.992188 6.714844 L 10.992188 0.285156 C 10.992188 0.128906 10.875 0 10.726562 0 Z M 10.726562 0 "/>
<path style=" stroke:none;fill-rule:nonzero;fill:rgb(30%,30%,30%);fill-opacity:1;" d="M 6.609375 6.546875 L 5.796875 6.546875 L 5.796875 3.152344 C 7.46875 3.113281 8.789062 2.671875 8.789062 2.136719 C 8.789062 1.574219 7.335938 1.117188 5.542969 1.117188 C 3.746094 1.117188 2.292969 1.574219 2.292969 2.136719 C 2.292969 2.671875 3.597656 3.109375 5.257812 3.152344 L 5.257812 3.261719 L 5.261719 3.261719 L 5.261719 6.546875 L 4.402344 6.546875 C 4.285156 6.546875 4.195312 6.644531 4.195312 6.769531 C 4.195312 6.890625 4.285156 6.988281 4.402344 6.988281 L 6.609375 6.988281 C 6.722656 6.988281 6.816406 6.890625 6.816406 6.769531 C 6.816406 6.644531 6.722656 6.546875 6.609375 6.546875 Z M 6.609375 6.546875 "/>
</g>
</svg>
