<?xml version="1.0" encoding="UTF-8" standalone="no"?>
<!-- Created with Inkscape (http://www.inkscape.org/) -->

<svg
   xmlns:dc="http://purl.org/dc/elements/1.1/"
   xmlns:cc="http://creativecommons.org/ns#"
   xmlns:rdf="http://www.w3.org/1999/02/22-rdf-syntax-ns#"
   xmlns:svg="http://www.w3.org/2000/svg"
   xmlns="http://www.w3.org/2000/svg"
   xmlns:xlink="http://www.w3.org/1999/xlink"
   xmlns:sodipodi="http://sodipodi.sourceforge.net/DTD/sodipodi-0.dtd"
   xmlns:inkscape="http://www.inkscape.org/namespaces/inkscape"
   width="30px"
   height="30px"
   version="1.1"
   id="svg8"
   inkscape:version="0.92.4 5da689c313, 2019-01-14"
   sodipodi:docname="container.svg">
  <defs
     id="defs2" />
  <sodipodi:namedview
     id="base"
     pagecolor="#ffffff"
     bordercolor="#666666"
     borderopacity="1.0"
     inkscape:pageopacity="0.0"
     inkscape:pageshadow="2"
     inkscape:zoom="13.049334"
     inkscape:cx="18.679046"
     inkscape:cy="12.165829"
     inkscape:document-units="px"
     inkscape:current-layer="layer1"
     showgrid="false"
     inkscape:snap-page="false"
     units="px"
     inkscape:window-width="1884"
     inkscape:window-height="1061"
     inkscape:window-x="0"
     inkscape:window-y="0"
     inkscape:window-maximized="1"
     fit-margin-top="0"
     fit-margin-left="0"
     fit-margin-right="0"
     fit-margin-bottom="0" />
  <metadata
     id="metadata5">
    <rdf:RDF>
      <cc:Work
         rdf:about="">
        <dc:format>image/svg+xml</dc:format>
        <dc:type
           rdf:resource="http://purl.org/dc/dcmitype/StillImage" />
        <dc:title></dc:title>
      </cc:Work>
    </rdf:RDF>
  </metadata>
    <circle
       style="color:#000000;clip-rule:nonzero;display:inline;overflow:visible;visibility:visible;opacity:1;isolation:auto;mix-blend-mode:normal;color-interpolation:sRGB;color-interpolation-filters:linearRGB;solid-color:#000000;solid-opacity:1;vector-effect:none;fill:#ffffff;fill-opacity:1;fill-rule:evenodd;stroke:#F5B700;stroke-width:1;stroke-linecap:butt;stroke-linejoin:miter;stroke-miterlimit:4;stroke-dasharray:none;stroke-dashoffset:0;stroke-opacity:1;marker:none;color-rendering:auto;image-rendering:auto;shape-rendering:auto;text-rendering:auto;enable-background:accumulate"
       id="path815"
       cx="15"
       cy="15"
       r="14.5" />
<g transform="translate(7,8)"><g id="surface1">
<path style=" stroke:none;fill-rule:nonzero;fill:rgb(30%,30%,30%);fill-opacity:1;" d="M 8.3125 12.472656 C 5.242188 12.472656 2.746094 9.859375 2.746094 6.648438 C 2.746094 3.4375 5.242188 0.824219 8.3125 0.824219 C 11.382812 0.824219 13.882812 3.4375 13.882812 6.648438 C 13.882812 9.859375 11.382812 12.472656 8.3125 12.472656 Z M 8.3125 1.378906 C 5.535156 1.378906 3.277344 3.742188 3.277344 6.648438 C 3.277344 9.554688 5.535156 11.917969 8.3125 11.917969 C 11.089844 11.917969 13.351562 9.554688 13.351562 6.648438 C 13.351562 3.742188 11.089844 1.378906 8.3125 1.378906 Z M 8.3125 10.714844 C 6.167969 10.714844 4.425781 8.894531 4.425781 6.648438 C 4.425781 4.402344 6.167969 2.582031 8.3125 2.582031 C 10.460938 2.582031 12.203125 4.402344 12.203125 6.648438 C 12.203125 8.894531 10.460938 10.714844 8.3125 10.714844 Z M 2.839844 0.417969 C 2.816406 0.367188 2.785156 0.367188 2.761719 0.417969 L 2.625 0.757812 C 2.601562 0.820312 2.585938 0.890625 2.585938 0.957031 L 2.585938 3.488281 L 2.152344 3.488281 L 2.152344 0.957031 C 2.152344 0.890625 2.140625 0.820312 2.117188 0.757812 L 1.976562 0.417969 C 1.957031 0.367188 1.921875 0.367188 1.898438 0.417969 L 1.761719 0.757812 C 1.738281 0.820312 1.726562 0.890625 1.722656 0.957031 L 1.722656 3.488281 L 1.292969 3.488281 L 1.292969 0.957031 C 1.289062 0.890625 1.277344 0.820312 1.253906 0.757812 L 1.117188 0.417969 C 1.09375 0.367188 1.058594 0.367188 1.039062 0.417969 L 0.898438 0.757812 C 0.875 0.820312 0.863281 0.890625 0.863281 0.957031 L 0.863281 3.488281 L 0.429688 3.488281 L 0.429688 0.957031 C 0.429688 0.890625 0.414062 0.820312 0.390625 0.757812 L 0.253906 0.417969 C 0.234375 0.367188 0.199219 0.367188 0.175781 0.417969 L 0.0390625 0.757812 C 0.015625 0.820312 0 0.890625 0 0.957031 L 0.0234375 3.476562 C 0.0234375 3.476562 0.0976562 4.53125 1.074219 4.890625 L 1.085938 12.421875 C 1.066406 12.855469 1.335938 12.992188 1.542969 13 C 1.75 13.007812 1.996094 12.757812 1.972656 12.441406 L 1.976562 4.898438 C 3.089844 4.546875 3.035156 3.496094 3.035156 3.496094 L 3.035156 0.972656 C 3.035156 0.914062 3 0.808594 2.976562 0.753906 Z M 16 6.320312 L 16 12.257812 C 16 12.527344 15.792969 12.742188 15.535156 12.742188 C 15.277344 12.742188 15.070312 12.527344 15.070312 12.257812 L 15.070312 7.644531 C 14.597656 7.621094 14.222656 7.214844 14.222656 6.71875 L 14.222656 0.929688 C 14.21875 0.417969 14.617188 0 15.109375 0 C 15.601562 0 16 0.417969 16 0.929688 Z M 16 6.320312 "/>
</g>
</g>
</svg>
