<?xml version="1.0" encoding="UTF-8"?>
<svg xmlns="http://www.w3.org/2000/svg" xmlns:xlink="http://www.w3.org/1999/xlink" width="10px" height="11px" viewBox="0 0 10 11" version="1.1">
<g id="surface1">
<path style=" stroke:none;fill-rule:nonzero;fill:rgb(30%,30%,30%);fill-opacity:1;" d="M 5.957031 7.363281 C 4.929688 8.019531 4.128906 8.589844 4.128906 8.589844 C 4.128906 8.589844 1.027344 5.332031 0.0117188 2.128906 C -0.214844 1.964844 4.332031 -0.152344 4.714844 0.0078125 C 4.863281 0.0703125 5.890625 4.144531 7.496094 5.847656 C 8.054688 6.445312 9.542969 8.839844 9.957031 9.832031 C 10.050781 10.050781 9.96875 10.300781 9.761719 10.425781 L 8.746094 11 C 7.671875 9.972656 6.757812 8.738281 5.957031 7.363281 Z M 4.179688 7.96875 C 4.179688 7.96875 6.992188 6.027344 6.851562 5.902344 C 5.785156 4.917969 4.378906 0.664062 4.425781 0.53125 L 0.628906 2.238281 C 1.242188 4.351562 4.179688 7.96875 4.179688 7.96875 Z M 4.179688 7.96875 "/>
<path style=" stroke:none;fill-rule:nonzero;fill:rgb(30%,30%,30%);fill-opacity:1;" d="M 4.234375 2.230469 C 4.234375 2.546875 3.984375 2.800781 3.671875 2.800781 C 3.363281 2.800781 3.113281 2.546875 3.113281 2.230469 C 3.113281 1.917969 3.363281 1.664062 3.671875 1.664062 C 3.984375 1.664062 4.234375 1.917969 4.234375 2.230469 Z M 4.234375 2.230469 "/>
</g>
</svg>
