<?xml version="1.0" encoding="UTF-8"?>
<svg xmlns="http://www.w3.org/2000/svg" xmlns:xlink="http://www.w3.org/1999/xlink" width="11px" height="10px" viewBox="0 0 11 10" version="1.1">
<g id="surface1">
<path style="fill-rule:nonzero;fill:rgb(30%,30%,30%);fill-opacity:1;stroke-width:1.85824;stroke-linecap:butt;stroke-linejoin:miter;stroke:rgb(100%,100%,100%);stroke-opacity:1;stroke-miterlimit:10;" d="M 679.97076 97.595406 C 750.246 112.251884 801.170088 141.56484 832.403528 185.534273 C 837.83543 192.862512 836.816949 203.854871 830.366564 210.083874 C 830.02707 210.083874 830.02707 210.083874 830.02707 210.450286 C 823.237192 216.312877 813.391869 215.213641 807.959966 207.51899 C 769.257659 153.290022 694.908492 132.404541 624.633251 125.442714 C 581.857018 148.893078 536.364833 178.206034 488.496191 214.114405 C 552.321047 217.412113 599.171208 240.862477 629.72566 262.847194 C 674.878351 295.091446 695.58748 331.732641 696.605961 333.198288 C 700.679888 340.892939 699.321913 350.786062 693.550516 356.282241 C 692.871528 357.015065 692.192541 357.381477 691.513553 357.747889 C 684.38418 362.877656 674.538857 360.312773 669.785942 351.885298 C 669.446448 351.518886 651.113777 319.641046 611.732482 291.427326 C 563.86384 257.717427 506.828862 244.160185 442.325018 250.7556 C 421.61589 267.976962 400.567267 286.663971 379.518644 306.083804 C 365.938887 318.541811 353.038118 330.999817 340.816338 343.091411 C 410.073096 344.190647 460.65769 368.740247 492.909612 391.8242 C 538.062303 424.434864 558.771432 461.076058 559.450419 462.541706 C 563.86384 470.236357 562.505865 480.12948 556.394974 485.625659 C 556.05548 485.992071 555.376492 486.724895 554.697505 487.091307 C 547.228638 492.221074 537.722809 489.65619 532.969894 481.228716 C 532.6304 480.862304 514.297729 448.618052 474.916434 420.770744 C 426.368804 386.694433 368.994333 373.137191 303.811501 380.46543 C 268.504133 417.473037 236.591705 454.114231 208.41371 490.022602 C 271.899073 490.022602 320.107209 510.908083 352.019637 530.694329 C 396.49334 558.541637 418.899938 590.785888 419.91842 592.251536 C 425.010829 599.579775 423.992347 610.572133 417.541963 616.801136 C 417.541963 616.801136 417.202469 616.801136 417.202469 617.167548 C 410.41259 623.030139 400.567267 621.564492 395.135364 613.869841 C 394.79587 613.503429 374.765729 585.289709 335.384435 561.10652 C 289.213262 532.526388 237.270693 520.801206 180.575209 526.663797 C 146.965312 572.831703 119.466304 617.167548 97.738694 659.304922 C 204.000289 661.136982 284.120854 733.686548 288.194781 737.350667 C 294.984659 743.57967 296.003141 754.938441 290.571238 762.26668 C 289.89225 763.365916 289.213262 764.09874 288.534274 764.831563 C 282.762878 770.327743 273.936036 770.327743 268.16464 764.831563 C 267.485652 763.732328 183.630654 688.617878 80.08501 695.213293 C 26.105477 813.930764 22.03155 909.197871 61.073351 958.663484 C 132.367073 1049.900059 352.698625 887.579566 603.245135 650.877448 C 853.452151 414.541741 1034.741902 160.618261 979.404393 86.236635 C 944.097026 39.335906 833.082516 28.343548 679.97076 97.595406 Z M 679.97076 97.595406 " transform="matrix(0.0115061,0,0,0.0106608,-0.394122,-0.50529)"/>
</g>
</svg>
