<?xml version="1.0" encoding="UTF-8" standalone="no"?>
<!-- Created with Inkscape (http://www.inkscape.org/) -->

<svg
   xmlns:dc="http://purl.org/dc/elements/1.1/"
   xmlns:cc="http://creativecommons.org/ns#"
   xmlns:rdf="http://www.w3.org/1999/02/22-rdf-syntax-ns#"
   xmlns:svg="http://www.w3.org/2000/svg"
   xmlns="http://www.w3.org/2000/svg"
   xmlns:xlink="http://www.w3.org/1999/xlink"
   xmlns:sodipodi="http://sodipodi.sourceforge.net/DTD/sodipodi-0.dtd"
   xmlns:inkscape="http://www.inkscape.org/namespaces/inkscape"
   width="30px"
   height="30px"
   version="1.1"
   id="svg8"
   inkscape:version="0.92.4 5da689c313, 2019-01-14"
   sodipodi:docname="container.svg">
  <defs
     id="defs2" />
  <sodipodi:namedview
     id="base"
     pagecolor="#ffffff"
     bordercolor="#666666"
     borderopacity="1.0"
     inkscape:pageopacity="0.0"
     inkscape:pageshadow="2"
     inkscape:zoom="13.049334"
     inkscape:cx="18.679046"
     inkscape:cy="12.165829"
     inkscape:document-units="px"
     inkscape:current-layer="layer1"
     showgrid="false"
     inkscape:snap-page="false"
     units="px"
     inkscape:window-width="1884"
     inkscape:window-height="1061"
     inkscape:window-x="0"
     inkscape:window-y="0"
     inkscape:window-maximized="1"
     fit-margin-top="0"
     fit-margin-left="0"
     fit-margin-right="0"
     fit-margin-bottom="0" />
  <metadata
     id="metadata5">
    <rdf:RDF>
      <cc:Work
         rdf:about="">
        <dc:format>image/svg+xml</dc:format>
        <dc:type
           rdf:resource="http://purl.org/dc/dcmitype/StillImage" />
        <dc:title></dc:title>
      </cc:Work>
    </rdf:RDF>
  </metadata>
    <circle
       style="color:#000000;clip-rule:nonzero;display:inline;overflow:visible;visibility:visible;opacity:1;isolation:auto;mix-blend-mode:normal;color-interpolation:sRGB;color-interpolation-filters:linearRGB;solid-color:#000000;solid-opacity:1;vector-effect:none;fill:#ffffff;fill-opacity:1;fill-rule:evenodd;stroke:#00b2cc;stroke-width:1;stroke-linecap:butt;stroke-linejoin:miter;stroke-miterlimit:4;stroke-dasharray:none;stroke-dashoffset:0;stroke-opacity:1;marker:none;color-rendering:auto;image-rendering:auto;shape-rendering:auto;text-rendering:auto;enable-background:accumulate"
       id="path815"
       cx="15"
       cy="15"
       r="14.5" />
<g transform="translate(7,7)"><g id="surface1">
<path style=" stroke:none;fill-rule:nonzero;fill:rgb(30%,30%,30%);fill-opacity:1;" d="M 15.824219 11.566406 L 15.628906 11.746094 C 15.394531 11.960938 15.027344 11.957031 14.800781 11.734375 L 9.9375 6.894531 L 8.234375 8.410156 C 8.089844 8.539062 7.867188 8.53125 7.734375 8.390625 C 7.597656 8.253906 7.609375 8.035156 7.75 7.90625 L 9.441406 6.402344 L 9.1875 6.148438 L 7.472656 7.675781 C 7.328125 7.804688 7.101562 7.796875 6.96875 7.65625 C 6.835938 7.519531 6.84375 7.300781 6.988281 7.171875 L 8.691406 5.65625 L 8.488281 5.453125 L 6.757812 6.988281 C 6.613281 7.117188 6.390625 7.109375 6.257812 6.96875 C 6.121094 6.832031 6.132812 6.613281 6.277344 6.484375 L 7.992188 4.957031 L 7.785156 4.753906 L 6.046875 6.304688 C 5.902344 6.433594 5.675781 6.421875 5.542969 6.285156 C 5.410156 6.144531 5.417969 5.929688 5.5625 5.800781 L 7.289062 4.261719 L 7.085938 4.058594 L 5.332031 5.617188 C 5.1875 5.746094 4.964844 5.738281 4.832031 5.597656 C 4.699219 5.457031 4.707031 5.242188 4.851562 5.113281 L 6.589844 3.5625 L 6.308594 3.285156 L 4.542969 4.855469 C 4.398438 4.984375 4.175781 4.976562 4.042969 4.839844 C 3.910156 4.699219 3.917969 4.480469 4.0625 4.351562 L 5.8125 2.792969 L 5.609375 2.589844 L 3.832031 4.171875 C 3.6875 4.300781 3.460938 4.289062 3.328125 4.152344 C 3.195312 4.011719 3.203125 3.796875 3.347656 3.667969 L 5.113281 2.09375 L 4.90625 1.890625 L 3.121094 3.484375 C 2.976562 3.613281 2.75 3.605469 2.617188 3.464844 C 2.484375 3.328125 2.492188 3.109375 2.636719 2.980469 L 4.410156 1.398438 L 4.207031 1.195312 L 2.40625 2.796875 C 2.261719 2.925781 2.035156 2.917969 1.902344 2.777344 C 1.769531 2.640625 1.777344 2.421875 1.921875 2.292969 L 4.203125 0.265625 C 4.238281 0.230469 4.285156 0.207031 4.332031 0.191406 L 4.359375 0.164062 C 4.59375 -0.0507812 4.960938 -0.0429688 5.1875 0.175781 L 15.835938 10.769531 C 16.058594 10.992188 16.054688 11.347656 15.824219 11.566406 Z M 12.953125 12.808594 L 12.488281 12.292969 C 12.710938 11.695312 12.578125 11.027344 12.140625 10.550781 C 11.707031 10.074219 11.035156 9.867188 10.390625 10.007812 C 9.746094 10.144531 9.234375 10.613281 9.050781 11.222656 L 5.773438 7.855469 C 5.605469 7.691406 0.582031 3.296875 0.0351562 3.726562 C -0.4375 4.082031 3.976562 9.066406 4.144531 9.226562 L 7.503906 12.5625 C 7.503906 12.5625 7.503906 12.5625 7.507812 12.5625 C 6.675781 12.757812 6.101562 13.488281 6.128906 14.3125 C 6.160156 15.136719 6.785156 15.828125 7.628906 15.96875 C 8.472656 16.109375 9.300781 15.660156 9.617188 14.894531 C 9.933594 14.128906 9.648438 13.257812 8.933594 12.800781 C 8.34375 12.117188 6.703125 10.515625 6.179688 10.011719 C 6.128906 9.964844 6.316406 9.882812 6.332031 9.863281 L 9.183594 12.5625 C 9.191406 12.554688 9.199219 12.546875 9.203125 12.542969 C 9.46875 13.003906 9.933594 13.324219 10.46875 13.417969 C 11.007812 13.507812 11.558594 13.363281 11.972656 13.015625 L 12.542969 13.542969 C 12.542969 13.542969 13.714844 14.128906 13.867188 13.589844 C 14.019531 13.050781 12.953125 12.808594 12.953125 12.808594 Z M 8.980469 14.253906 C 8.980469 14.808594 8.515625 15.257812 7.9375 15.257812 C 7.359375 15.257812 6.894531 14.808594 6.894531 14.253906 C 6.894531 13.699219 7.359375 13.246094 7.9375 13.246094 C 8.515625 13.246094 8.980469 13.699219 8.980469 14.253906 Z M 11.882812 11.703125 C 11.882812 12.257812 11.414062 12.707031 10.839844 12.707031 C 10.261719 12.707031 9.796875 12.257812 9.796875 11.703125 C 9.796875 11.148438 10.261719 10.699219 10.839844 10.699219 C 11.414062 10.699219 11.882812 11.148438 11.882812 11.703125 Z M 11.882812 11.703125 "/>
</g>
</g>
</svg>
