<?xml version="1.0" encoding="UTF-8" standalone="no"?>
<!-- Created with Inkscape (http://www.inkscape.org/) -->

<svg
   xmlns:dc="http://purl.org/dc/elements/1.1/"
   xmlns:cc="http://creativecommons.org/ns#"
   xmlns:rdf="http://www.w3.org/1999/02/22-rdf-syntax-ns#"
   xmlns:svg="http://www.w3.org/2000/svg"
   xmlns="http://www.w3.org/2000/svg"
   xmlns:xlink="http://www.w3.org/1999/xlink"
   xmlns:sodipodi="http://sodipodi.sourceforge.net/DTD/sodipodi-0.dtd"
   xmlns:inkscape="http://www.inkscape.org/namespaces/inkscape"
   width="30px"
   height="30px"
   version="1.1"
   id="svg8"
   inkscape:version="0.92.4 5da689c313, 2019-01-14"
   sodipodi:docname="container.svg">
  <defs
     id="defs2" />
  <sodipodi:namedview
     id="base"
     pagecolor="#ffffff"
     bordercolor="#666666"
     borderopacity="1.0"
     inkscape:pageopacity="0.0"
     inkscape:pageshadow="2"
     inkscape:zoom="13.049334"
     inkscape:cx="18.679046"
     inkscape:cy="12.165829"
     inkscape:document-units="px"
     inkscape:current-layer="layer1"
     showgrid="false"
     inkscape:snap-page="false"
     units="px"
     inkscape:window-width="1884"
     inkscape:window-height="1061"
     inkscape:window-x="0"
     inkscape:window-y="0"
     inkscape:window-maximized="1"
     fit-margin-top="0"
     fit-margin-left="0"
     fit-margin-right="0"
     fit-margin-bottom="0" />
  <metadata
     id="metadata5">
    <rdf:RDF>
      <cc:Work
         rdf:about="">
        <dc:format>image/svg+xml</dc:format>
        <dc:type
           rdf:resource="http://purl.org/dc/dcmitype/StillImage" />
        <dc:title></dc:title>
      </cc:Work>
    </rdf:RDF>
  </metadata>
    <circle
       style="color:#000000;clip-rule:nonzero;display:inline;overflow:visible;visibility:visible;opacity:1;isolation:auto;mix-blend-mode:normal;color-interpolation:sRGB;color-interpolation-filters:linearRGB;solid-color:#000000;solid-opacity:1;vector-effect:none;fill:#00b2cc;fill-opacity:1;fill-rule:evenodd;stroke:#ffffff;stroke-width:1;stroke-linecap:butt;stroke-linejoin:miter;stroke-miterlimit:4;stroke-dasharray:none;stroke-dashoffset:0;stroke-opacity:1;marker:none;color-rendering:auto;image-rendering:auto;shape-rendering:auto;text-rendering:auto;enable-background:accumulate"
       id="path815"
       cx="15"
       cy="15"
       r="14.5" />
<g transform="translate(6,7)"><g id="surface1">
<path style=" stroke:none;fill-rule:nonzero;fill:#FFFFFF;fill-opacity:1;" d="M 7.191406 8.714844 C 7.308594 8.699219 7.425781 8.71875 7.53125 8.761719 C 7.726562 8.839844 7.859375 8.992188 7.890625 9.144531 C 7.980469 9.121094 8.542969 9 8.707031 9.5 C 8.707031 9.5 8.734375 9.496094 8.78125 9.496094 C 8.992188 9.492188 9.371094 9.457031 9.535156 9.90625 C 9.535156 9.90625 11.738281 10.332031 13.214844 11.054688 C 13.441406 11.164062 13.675781 11.257812 13.914062 11.339844 L 13.929688 4.542969 C 13.71875 4.425781 13.53125 4.277344 13.371094 4.101562 C 13.054688 3.75 12.878906 3.296875 12.878906 2.832031 L 12.878906 0.00390625 L 11.796875 0.00390625 L 11.796875 0.703125 C 11.796875 1.792969 10.859375 2.675781 9.707031 2.675781 L 9.664062 2.675781 C 8.511719 2.675781 7.578125 1.792969 7.578125 0.703125 L 7.578125 0.00390625 L 6.492188 0.00390625 L 6.492188 2.832031 C 6.496094 3.296875 6.320312 3.75 6 4.101562 C 5.84375 4.277344 5.652344 4.425781 5.441406 4.542969 L 5.441406 7.605469 Z M 7.191406 8.714844 "/>
<path style=" stroke:none;fill-rule:nonzero;fill:#FFFFFF;fill-opacity:1;" d="M 12.996094 11.753906 C 11.519531 11.03125 9.320312 10.605469 9.320312 10.605469 C 9.152344 10.152344 8.773438 10.191406 8.566406 10.195312 C 8.515625 10.195312 8.492188 10.195312 8.492188 10.195312 C 8.324219 9.695312 7.761719 9.820312 7.671875 9.839844 C 7.640625 9.6875 7.511719 9.539062 7.316406 9.460938 C 7.207031 9.417969 7.089844 9.398438 6.976562 9.410156 L 4.472656 7.832031 C 4.425781 7.796875 4.371094 7.78125 4.3125 7.785156 C 4.230469 7.789062 4.152344 7.828125 4.105469 7.894531 L 4.121094 7.921875 C 3.628906 8.582031 5.230469 10.261719 4.972656 10.496094 C 4.804688 10.652344 4.363281 10.820312 3.785156 10.832031 C 3.414062 10.835938 3.042969 10.78125 2.6875 10.660156 C 1.882812 10.40625 1.367188 9.324219 0.988281 9.332031 C 0.863281 9.332031 0.949219 9.464844 0.683594 9.792969 C -0.375 11.101562 0.101562 13.167969 0.148438 14.503906 C 0.171875 15.277344 0.488281 15.457031 1.101562 15.484375 L 1.230469 15.921875 L 1.332031 15.992188 L 2.304688 15.976562 C 2.351562 15.976562 2.402344 15.949219 2.402344 15.90625 L 2.496094 15.46875 C 2.628906 15.46875 2.765625 15.46875 2.90625 15.476562 C 3.027344 15.480469 3.230469 15.484375 3.496094 15.492188 L 3.621094 15.925781 C 3.636719 15.96875 3.675781 15.996094 3.71875 15.996094 L 4.691406 15.980469 C 4.738281 15.976562 4.777344 15.949219 4.789062 15.910156 L 4.878906 15.515625 C 5.199219 15.523438 5.546875 15.527344 5.910156 15.53125 L 6.023438 15.925781 C 6.039062 15.96875 6.078125 15.996094 6.125 15.996094 L 7.097656 15.980469 C 7.140625 15.976562 7.179688 15.949219 7.195312 15.910156 L 7.277344 15.550781 C 7.621094 15.558594 7.96875 15.5625 8.320312 15.566406 L 8.429688 15.925781 C 8.445312 15.96875 8.484375 15.996094 8.527344 15.996094 L 9.5 15.980469 C 9.546875 15.976562 9.585938 15.949219 9.597656 15.910156 L 9.675781 15.582031 C 10.039062 15.585938 10.390625 15.589844 10.730469 15.59375 L 10.835938 15.925781 C 10.847656 15.96875 10.890625 15.996094 10.933594 15.996094 L 11.90625 15.980469 C 11.949219 15.976562 11.988281 15.949219 12.003906 15.910156 L 12.078125 15.601562 C 12.417969 15.601562 12.722656 15.605469 12.972656 15.605469 L 13.074219 15.890625 C 13.074219 15.925781 13.125 15.960938 13.160156 15.960938 L 14.144531 15.945312 C 14.179688 15.945312 14.230469 15.910156 14.230469 15.875 L 14.3125 15.539062 C 15.667969 15.363281 17.015625 14.804688 17 13.820312 C 16.980469 12.644531 14.472656 12.476562 12.996094 11.753906 Z M 12.996094 11.753906 "/>
</g>
</g>
</svg>
