<?xml version="1.0" encoding="UTF-8" standalone="no"?>
<!-- Created with Inkscape (http://www.inkscape.org/) -->

<svg
   xmlns:dc="http://purl.org/dc/elements/1.1/"
   xmlns:cc="http://creativecommons.org/ns#"
   xmlns:rdf="http://www.w3.org/1999/02/22-rdf-syntax-ns#"
   xmlns:svg="http://www.w3.org/2000/svg"
   xmlns="http://www.w3.org/2000/svg"
   xmlns:xlink="http://www.w3.org/1999/xlink"
   xmlns:sodipodi="http://sodipodi.sourceforge.net/DTD/sodipodi-0.dtd"
   xmlns:inkscape="http://www.inkscape.org/namespaces/inkscape"
   width="30px"
   height="30px"
   version="1.1"
   id="svg8"
   inkscape:version="0.92.4 5da689c313, 2019-01-14"
   sodipodi:docname="container.svg">
  <defs
     id="defs2" />
  <sodipodi:namedview
     id="base"
     pagecolor="#ffffff"
     bordercolor="#666666"
     borderopacity="1.0"
     inkscape:pageopacity="0.0"
     inkscape:pageshadow="2"
     inkscape:zoom="13.049334"
     inkscape:cx="18.679046"
     inkscape:cy="12.165829"
     inkscape:document-units="px"
     inkscape:current-layer="layer1"
     showgrid="false"
     inkscape:snap-page="false"
     units="px"
     inkscape:window-width="1884"
     inkscape:window-height="1061"
     inkscape:window-x="0"
     inkscape:window-y="0"
     inkscape:window-maximized="1"
     fit-margin-top="0"
     fit-margin-left="0"
     fit-margin-right="0"
     fit-margin-bottom="0" />
  <metadata
     id="metadata5">
    <rdf:RDF>
      <cc:Work
         rdf:about="">
        <dc:format>image/svg+xml</dc:format>
        <dc:type
           rdf:resource="http://purl.org/dc/dcmitype/StillImage" />
        <dc:title></dc:title>
      </cc:Work>
    </rdf:RDF>
  </metadata>
    <circle
       style="color:#000000;clip-rule:nonzero;display:inline;overflow:visible;visibility:visible;opacity:1;isolation:auto;mix-blend-mode:normal;color-interpolation:sRGB;color-interpolation-filters:linearRGB;solid-color:#000000;solid-opacity:1;vector-effect:none;fill:#00b2cc;fill-opacity:1;fill-rule:evenodd;stroke:#ffffff;stroke-width:1;stroke-linecap:butt;stroke-linejoin:miter;stroke-miterlimit:4;stroke-dasharray:none;stroke-dashoffset:0;stroke-opacity:1;marker:none;color-rendering:auto;image-rendering:auto;shape-rendering:auto;text-rendering:auto;enable-background:accumulate"
       id="path815"
       cx="15"
       cy="15"
       r="14.5" />
<g transform="translate(7,7)"><g id="surface1">
<path style=" stroke:none;fill-rule:nonzero;fill:#FFFFFF;fill-opacity:1;" d="M 15.992188 6.726562 C 15.992188 5.535156 15.417969 4.421875 14.46875 3.78125 C 13.515625 3.144531 12.324219 3.066406 11.304688 3.574219 C 11.304688 3.546875 11.308594 3.515625 11.308594 3.488281 C 11.308594 1.5625 9.835938 0.00390625 8.019531 0.00390625 C 6.203125 0.00390625 4.730469 1.5625 4.730469 3.488281 C 4.730469 3.496094 4.730469 3.503906 4.730469 3.511719 C 3.710938 2.984375 2.511719 3.050781 1.550781 3.691406 C 0.589844 4.328125 0.0078125 5.445312 0.0078125 6.644531 C 0.0078125 8.367188 1.1875 9.796875 2.734375 10.078125 C 1.890625 11.085938 1.671875 12.519531 2.171875 13.757812 C 2.667969 14.996094 3.796875 15.820312 5.066406 15.875 C 6.335938 15.925781 7.519531 15.199219 8.109375 14.007812 C 8.664062 15.25 9.859375 16.03125 11.15625 16 C 12.457031 15.96875 13.617188 15.125 14.113281 13.851562 C 14.613281 12.582031 14.355469 11.117188 13.460938 10.117188 C 14.945312 9.746094 15.988281 8.34375 15.992188 6.726562 Z M 11.230469 8.535156 C 11.230469 10.460938 9.757812 12.019531 7.941406 12.019531 C 6.125 12.019531 4.652344 10.460938 4.652344 8.535156 C 4.652344 6.605469 6.125 5.046875 7.941406 5.046875 C 9.757812 5.046875 11.230469 6.605469 11.230469 8.535156 Z M 11.230469 8.535156 "/>
</g>
</g>
</svg>
