<?xml version="1.0" encoding="UTF-8"?>
<svg xmlns="http://www.w3.org/2000/svg" xmlns:xlink="http://www.w3.org/1999/xlink" width="11px" height="11px" viewBox="0 0 11 11" version="1.1">
<g id="surface1">
<path style=" stroke:none;fill-rule:nonzero;fill:rgb(30%,30%,30%);fill-opacity:1;" d="M 10.242188 1.304688 L 0.757812 1.304688 L 1.136719 0 L 9.863281 0 Z M 10.242188 1.304688 "/>
<path style=" stroke:none;fill-rule:nonzero;fill:rgb(30%,30%,30%);fill-opacity:1;" d="M 10.242188 2.238281 L 0.757812 2.238281 L 0 3.542969 L 0 4.660156 L 11 4.660156 L 11 3.542969 Z M 10.242188 2.238281 "/>
<path style=" stroke:none;fill-rule:nonzero;fill:rgb(30%,30%,30%);fill-opacity:1;" d="M 10.242188 7.269531 L 9.863281 7.269531 L 9.863281 5.40625 L 8.914062 5.40625 L 8.914062 7.269531 L 2.085938 7.269531 L 2.085938 5.40625 L 1.136719 5.40625 L 1.136719 7.269531 L 0.757812 7.269531 L 0.757812 9.320312 L 1.136719 9.320312 L 1.136719 11 L 2.085938 11 L 2.085938 9.320312 L 8.914062 9.320312 L 8.914062 11 L 9.863281 11 L 9.863281 9.320312 L 10.242188 9.320312 Z M 10.242188 7.269531 "/>
</g>
</svg>
