<?xml version="1.0" encoding="UTF-8" standalone="no"?>
<!-- Created with Inkscape (http://www.inkscape.org/) -->

<svg
   xmlns:dc="http://purl.org/dc/elements/1.1/"
   xmlns:cc="http://creativecommons.org/ns#"
   xmlns:rdf="http://www.w3.org/1999/02/22-rdf-syntax-ns#"
   xmlns:svg="http://www.w3.org/2000/svg"
   xmlns="http://www.w3.org/2000/svg"
   xmlns:xlink="http://www.w3.org/1999/xlink"
   xmlns:sodipodi="http://sodipodi.sourceforge.net/DTD/sodipodi-0.dtd"
   xmlns:inkscape="http://www.inkscape.org/namespaces/inkscape"
   width="30px"
   height="30px"
   version="1.1"
   id="svg8"
   inkscape:version="0.92.4 5da689c313, 2019-01-14"
   sodipodi:docname="container.svg">
  <defs
     id="defs2" />
  <sodipodi:namedview
     id="base"
     pagecolor="#ffffff"
     bordercolor="#666666"
     borderopacity="1.0"
     inkscape:pageopacity="0.0"
     inkscape:pageshadow="2"
     inkscape:zoom="13.049334"
     inkscape:cx="18.679046"
     inkscape:cy="12.165829"
     inkscape:document-units="px"
     inkscape:current-layer="layer1"
     showgrid="false"
     inkscape:snap-page="false"
     units="px"
     inkscape:window-width="1884"
     inkscape:window-height="1061"
     inkscape:window-x="0"
     inkscape:window-y="0"
     inkscape:window-maximized="1"
     fit-margin-top="0"
     fit-margin-left="0"
     fit-margin-right="0"
     fit-margin-bottom="0" />
  <metadata
     id="metadata5">
    <rdf:RDF>
      <cc:Work
         rdf:about="">
        <dc:format>image/svg+xml</dc:format>
        <dc:type
           rdf:resource="http://purl.org/dc/dcmitype/StillImage" />
        <dc:title></dc:title>
      </cc:Work>
    </rdf:RDF>
  </metadata>
    <circle
       style="color:#000000;clip-rule:nonzero;display:inline;overflow:visible;visibility:visible;opacity:1;isolation:auto;mix-blend-mode:normal;color-interpolation:sRGB;color-interpolation-filters:linearRGB;solid-color:#000000;solid-opacity:1;vector-effect:none;fill:#00a0a4;fill-opacity:1;fill-rule:evenodd;stroke:#ffffff;stroke-width:1;stroke-linecap:butt;stroke-linejoin:miter;stroke-miterlimit:4;stroke-dasharray:none;stroke-dashoffset:0;stroke-opacity:1;marker:none;color-rendering:auto;image-rendering:auto;shape-rendering:auto;text-rendering:auto;enable-background:accumulate"
       id="path815"
       cx="15"
       cy="15"
       r="14.5" />
<g transform="translate(7,8)"><g id="surface1">
<path style=" stroke:none;fill-rule:nonzero;fill:#FFFFFF;fill-opacity:1;" d="M 14.1875 11.113281 L 4.550781 11.113281 C 4.140625 11.113281 3.808594 10.765625 3.808594 10.335938 C 3.808594 9.902344 4.140625 9.554688 4.550781 9.554688 L 14.09375 9.554688 C 14.238281 9.554688 14.363281 9.449219 14.398438 9.304688 L 15.988281 2.636719 C 16.011719 2.535156 15.992188 2.429688 15.933594 2.351562 C 15.871094 2.269531 15.78125 2.222656 15.683594 2.222656 L 3.207031 2.222656 L 2.738281 0.25 C 2.703125 0.101562 2.574219 0 2.429688 0 L 0.316406 0 C 0.140625 0 0 0.148438 0 0.332031 C 0 0.511719 0.140625 0.660156 0.316406 0.660156 L 2.183594 0.660156 L 2.65625 2.636719 L 4.167969 8.972656 C 3.949219 9.039062 3.742188 9.140625 3.578125 9.316406 C 3.320312 9.585938 3.175781 9.953125 3.175781 10.332031 C 3.175781 10.792969 3.390625 11.183594 3.710938 11.445312 C 3.667969 11.480469 3.617188 11.496094 3.578125 11.539062 C 3.183594 11.953125 3.066406 12.570312 3.28125 13.109375 C 3.492188 13.648438 3.992188 14 4.550781 14 L 4.554688 14 C 5.3125 14 5.929688 13.355469 5.925781 12.558594 C 5.925781 12.261719 5.824219 12.007812 5.675781 11.777344 L 13.0625 11.777344 C 12.914062 12.011719 12.8125 12.269531 12.8125 12.558594 C 12.8125 13.351562 13.425781 14 14.1875 14 L 14.191406 14 C 14.949219 13.996094 15.566406 13.351562 15.566406 12.558594 C 15.5625 11.761719 14.945312 11.117188 14.1875 11.113281 Z M 14.1875 11.113281 "/>
</g>
</g>
</svg>
