<?xml version="1.0" encoding="UTF-8" standalone="no"?>
<!-- Created with Inkscape (http://www.inkscape.org/) -->

<svg
   xmlns:dc="http://purl.org/dc/elements/1.1/"
   xmlns:cc="http://creativecommons.org/ns#"
   xmlns:rdf="http://www.w3.org/1999/02/22-rdf-syntax-ns#"
   xmlns:svg="http://www.w3.org/2000/svg"
   xmlns="http://www.w3.org/2000/svg"
   xmlns:xlink="http://www.w3.org/1999/xlink"
   xmlns:sodipodi="http://sodipodi.sourceforge.net/DTD/sodipodi-0.dtd"
   xmlns:inkscape="http://www.inkscape.org/namespaces/inkscape"
   width="30px"
   height="30px"
   version="1.1"
   id="svg8"
   inkscape:version="0.92.4 5da689c313, 2019-01-14"
   sodipodi:docname="container.svg">
  <defs
     id="defs2" />
  <sodipodi:namedview
     id="base"
     pagecolor="#ffffff"
     bordercolor="#666666"
     borderopacity="1.0"
     inkscape:pageopacity="0.0"
     inkscape:pageshadow="2"
     inkscape:zoom="13.049334"
     inkscape:cx="18.679046"
     inkscape:cy="12.165829"
     inkscape:document-units="px"
     inkscape:current-layer="layer1"
     showgrid="false"
     inkscape:snap-page="false"
     units="px"
     inkscape:window-width="1884"
     inkscape:window-height="1061"
     inkscape:window-x="0"
     inkscape:window-y="0"
     inkscape:window-maximized="1"
     fit-margin-top="0"
     fit-margin-left="0"
     fit-margin-right="0"
     fit-margin-bottom="0" />
  <metadata
     id="metadata5">
    <rdf:RDF>
      <cc:Work
         rdf:about="">
        <dc:format>image/svg+xml</dc:format>
        <dc:type
           rdf:resource="http://purl.org/dc/dcmitype/StillImage" />
        <dc:title></dc:title>
      </cc:Work>
    </rdf:RDF>
  </metadata>
    <circle
       style="color:#000000;clip-rule:nonzero;display:inline;overflow:visible;visibility:visible;opacity:1;isolation:auto;mix-blend-mode:normal;color-interpolation:sRGB;color-interpolation-filters:linearRGB;solid-color:#000000;solid-opacity:1;vector-effect:none;fill:#ffffff;fill-opacity:1;fill-rule:evenodd;stroke:#00b2cc;stroke-width:1;stroke-linecap:butt;stroke-linejoin:miter;stroke-miterlimit:4;stroke-dasharray:none;stroke-dashoffset:0;stroke-opacity:1;marker:none;color-rendering:auto;image-rendering:auto;shape-rendering:auto;text-rendering:auto;enable-background:accumulate"
       id="path815"
       cx="15"
       cy="15"
       r="14.5" />
<g transform="translate(6,7)"><g id="surface1">
<path style=" stroke:none;fill-rule:nonzero;fill:rgb(30%,30%,30%);fill-opacity:1;" d="M 14 5.898438 L 14 10.191406 L 2.921875 10.191406 L 2.921875 5.898438 L 1.484375 5.898438 L 1.484375 15 L 15.351562 15 L 15.351562 5.898438 Z M 16.996094 3.542969 C 16.992188 3.523438 16.988281 3.5 16.980469 3.480469 C 16.976562 3.46875 16.96875 3.453125 16.960938 3.441406 L 13.480469 0.078125 C 13.449219 0.0273438 13.394531 0 13.335938 0 L 3.394531 0 C 3.335938 0 3.285156 0.0273438 3.25 0.0742188 L 0.0429688 3.4375 C 0.0195312 3.46875 0.0078125 3.503906 0.00390625 3.542969 C 0.00390625 3.546875 0.00390625 3.546875 0.00390625 3.550781 C 0.00390625 4.511719 0.8125 5.292969 1.808594 5.292969 C 2.527344 5.292969 3.152344 4.878906 3.4375 4.289062 C 3.726562 4.878906 4.347656 5.292969 5.070312 5.292969 C 5.867188 5.292969 6.546875 4.789062 6.78125 4.089844 C 7.019531 4.789062 7.695312 5.292969 8.496094 5.292969 C 9.296875 5.292969 9.980469 4.78125 10.210938 4.078125 C 10.445312 4.78125 11.125 5.292969 11.929688 5.292969 C 12.652344 5.292969 13.273438 4.878906 13.5625 4.289062 C 13.847656 4.878906 14.472656 5.292969 15.191406 5.292969 C 16.1875 5.292969 16.996094 4.511719 16.996094 3.550781 C 16.996094 3.546875 16.996094 3.546875 16.996094 3.542969 Z M 7.074219 3.367188 L 7.347656 0.367188 L 9.199219 0.367188 L 9.925781 3.367188 Z M 16.460938 3.367188 L 13.488281 3.367188 L 11.601562 0.367188 L 13.242188 0.367188 Z M 3.484375 0.367188 L 5.121094 0.367188 L 3.519531 3.367188 L 0.550781 3.367188 Z M 3.484375 0.367188 "/>
</g>
</g>
</svg>
