<?xml version="1.0" encoding="UTF-8"?>
<svg xmlns="http://www.w3.org/2000/svg" xmlns:xlink="http://www.w3.org/1999/xlink" width="7px" height="10px" viewBox="0 0 7 10" version="1.1">
<g id="surface1">
<path style=" stroke:none;fill-rule:nonzero;fill:rgb(30%,30%,30%);fill-opacity:1;" d="M 0 4 L 4.734375 4 L 4.734375 9.996094 L 0 9.996094 Z M 0 4 "/>
<path style=" stroke:none;fill-rule:nonzero;fill:rgb(30%,30%,30%);fill-opacity:1;" d="M 4.804688 1.351562 C 4.796875 1.335938 4.605469 0.957031 4.140625 0.773438 C 3.847656 0.660156 3.46875 0.632812 3.183594 0.628906 L 3.183594 0.273438 L 1.546875 0.273438 L 1.546875 1.878906 L 2.039062 1.878906 L 2.039062 2.636719 L 1.066406 2.636719 L 1.066406 3.585938 L 3.664062 3.585938 L 3.664062 2.636719 L 2.691406 2.636719 L 2.691406 1.878906 L 3.183594 1.878906 L 3.183594 1.042969 C 3.675781 1.046875 4.179688 1.113281 4.410156 1.527344 C 4.445312 1.59375 4.511719 1.640625 4.589844 1.644531 C 4.667969 1.652344 4.742188 1.617188 4.785156 1.558594 C 4.832031 1.496094 4.839844 1.417969 4.804688 1.351562 Z M 4.804688 1.351562 "/>
<path style=" stroke:none;fill-rule:nonzero;fill:rgb(30%,30%,30%);fill-opacity:1;" d="M 6.78125 2.339844 L 6.445312 2.164062 L 6.101562 2.328125 L 6.171875 1.972656 L 5.902344 1.714844 L 6.28125 1.667969 L 6.457031 1.34375 L 6.621094 1.671875 L 7 1.726562 L 6.722656 1.980469 Z M 6.78125 2.339844 "/>
<path style=" stroke:none;fill-rule:nonzero;fill:rgb(30%,30%,30%);fill-opacity:1;" d="M 5.621094 1 L 5.285156 0.824219 L 4.941406 0.988281 L 5.011719 0.632812 L 4.742188 0.375 L 5.121094 0.328125 L 5.296875 0.00390625 L 5.460938 0.332031 L 5.839844 0.386719 L 5.5625 0.640625 Z M 5.621094 1 "/>
<path style=" stroke:none;fill-rule:nonzero;fill:rgb(30%,30%,30%);fill-opacity:1;" d="M 5.996094 3.957031 L 5.660156 3.785156 L 5.320312 3.949219 L 5.386719 3.59375 L 5.117188 3.335938 L 5.496094 3.289062 L 5.671875 2.964844 L 5.835938 3.292969 L 6.214844 3.347656 L 5.9375 3.597656 Z M 5.996094 3.957031 "/>
</g>
</svg>
