<?xml version="1.0" encoding="UTF-8" standalone="no"?>
<!-- Created with Inkscape (http://www.inkscape.org/) -->

<svg
   xmlns:dc="http://purl.org/dc/elements/1.1/"
   xmlns:cc="http://creativecommons.org/ns#"
   xmlns:rdf="http://www.w3.org/1999/02/22-rdf-syntax-ns#"
   xmlns:svg="http://www.w3.org/2000/svg"
   xmlns="http://www.w3.org/2000/svg"
   xmlns:xlink="http://www.w3.org/1999/xlink"
   xmlns:sodipodi="http://sodipodi.sourceforge.net/DTD/sodipodi-0.dtd"
   xmlns:inkscape="http://www.inkscape.org/namespaces/inkscape"
   width="30px"
   height="30px"
   version="1.1"
   id="svg8"
   inkscape:version="0.92.4 5da689c313, 2019-01-14"
   sodipodi:docname="container.svg">
  <defs
     id="defs2" />
  <sodipodi:namedview
     id="base"
     pagecolor="#ffffff"
     bordercolor="#666666"
     borderopacity="1.0"
     inkscape:pageopacity="0.0"
     inkscape:pageshadow="2"
     inkscape:zoom="13.049334"
     inkscape:cx="18.679046"
     inkscape:cy="12.165829"
     inkscape:document-units="px"
     inkscape:current-layer="layer1"
     showgrid="false"
     inkscape:snap-page="false"
     units="px"
     inkscape:window-width="1884"
     inkscape:window-height="1061"
     inkscape:window-x="0"
     inkscape:window-y="0"
     inkscape:window-maximized="1"
     fit-margin-top="0"
     fit-margin-left="0"
     fit-margin-right="0"
     fit-margin-bottom="0" />
  <metadata
     id="metadata5">
    <rdf:RDF>
      <cc:Work
         rdf:about="">
        <dc:format>image/svg+xml</dc:format>
        <dc:type
           rdf:resource="http://purl.org/dc/dcmitype/StillImage" />
        <dc:title></dc:title>
      </cc:Work>
    </rdf:RDF>
  </metadata>
    <circle
       style="color:#000000;clip-rule:nonzero;display:inline;overflow:visible;visibility:visible;opacity:1;isolation:auto;mix-blend-mode:normal;color-interpolation:sRGB;color-interpolation-filters:linearRGB;solid-color:#000000;solid-opacity:1;vector-effect:none;fill:#00a0a4;fill-opacity:1;fill-rule:evenodd;stroke:#ffffff;stroke-width:1;stroke-linecap:butt;stroke-linejoin:miter;stroke-miterlimit:4;stroke-dasharray:none;stroke-dashoffset:0;stroke-opacity:1;marker:none;color-rendering:auto;image-rendering:auto;shape-rendering:auto;text-rendering:auto;enable-background:accumulate"
       id="path815"
       cx="15"
       cy="15"
       r="14.5" />
<g transform="translate(6,10)"><g id="surface1">
<path style=" stroke:none;fill-rule:nonzero;fill:#FFFFFF;fill-opacity:1;" d="M 13.847656 3.820312 C 13.847656 3.453125 14.21875 3.195312 14.46875 3.195312 C 14.710938 3.195312 15.050781 3.421875 15.050781 3.785156 C 15.050781 4.152344 14.679688 4.40625 14.433594 4.40625 C 14.183594 4.40625 13.847656 4.183594 13.847656 3.820312 Z M 11.964844 9.613281 C 11.3125 6.574219 11.3125 3.425781 11.964844 0.386719 C 11.3125 0.148438 10.625 0 9.914062 0 C 7.550781 0 5.4375 1.5625 4.035156 2.941406 C 3.742188 3.230469 3.367188 3.226562 3.074219 2.941406 C 2.273438 2.15625 1.246094 1.316406 0.0742188 0.734375 C 0.0273438 0.714844 -0.0117188 0.792969 0.015625 0.855469 C 0.304688 1.644531 0.554688 2.460938 0.75 3.160156 C 1.078125 4.335938 1.078125 5.664062 0.75 6.839844 C 0.554688 7.539062 0.304688 8.355469 0.015625 9.144531 C -0.0117188 9.207031 0.0273438 9.285156 0.0742188 9.265625 C 1.253906 8.679688 2.285156 7.832031 3.085938 7.046875 C 3.371094 6.765625 3.734375 6.765625 4.019531 7.046875 C 5.425781 8.425781 7.542969 10 9.914062 10 C 10.625 10 11.3125 9.851562 11.964844 9.613281 Z M 16.601562 6.203125 C 17.125 5.613281 17.125 4.386719 16.601562 3.796875 C 15.6875 2.765625 14.191406 1.332031 12.398438 0.558594 C 11.761719 3.484375 11.761719 6.515625 12.398438 9.445312 C 14.191406 8.667969 15.6875 7.234375 16.601562 6.203125 Z M 16.601562 6.203125 "/>
</g>
</g>
</svg>
