<?xml version="1.0" encoding="UTF-8"?>
<svg xmlns="http://www.w3.org/2000/svg" xmlns:xlink="http://www.w3.org/1999/xlink" width="11px" height="11px" viewBox="0 0 11 11" version="1.1">
<g id="surface1">
<path style=" stroke:none;fill-rule:nonzero;fill:rgb(30%,30%,30%);fill-opacity:1;" d="M 10.886719 7.40625 L 3.566406 0.121094 C 3.410156 -0.03125 3.15625 -0.0351562 3 0.113281 L 2.980469 0.132812 C 2.945312 0.140625 2.914062 0.160156 2.890625 0.179688 L 1.320312 1.578125 C 1.222656 1.664062 1.21875 1.816406 1.308594 1.910156 C 1.402344 2.007812 1.554688 2.011719 1.65625 1.921875 L 2.890625 0.820312 L 3.035156 0.960938 L 1.8125 2.050781 C 1.710938 2.136719 1.707031 2.285156 1.796875 2.382812 C 1.890625 2.476562 2.046875 2.484375 2.144531 2.394531 L 3.375 1.300781 L 3.515625 1.441406 L 2.300781 2.519531 C 2.203125 2.609375 2.195312 2.757812 2.289062 2.855469 C 2.378906 2.949219 2.535156 2.957031 2.632812 2.867188 L 3.855469 1.78125 L 3.996094 1.917969 L 2.792969 2.992188 C 2.691406 3.082031 2.6875 3.230469 2.777344 3.324219 C 2.871094 3.421875 3.023438 3.425781 3.125 3.339844 L 4.335938 2.257812 L 4.53125 2.449219 L 3.335938 3.515625 C 3.234375 3.605469 3.230469 3.753906 3.320312 3.847656 C 3.414062 3.945312 3.566406 3.949219 3.667969 3.863281 L 4.871094 2.789062 L 5.011719 2.929688 L 3.824219 3.988281 C 3.726562 4.074219 3.71875 4.226562 3.8125 4.320312 C 3.902344 4.414062 4.058594 4.421875 4.15625 4.332031 L 5.351562 3.269531 L 5.492188 3.410156 L 4.3125 4.460938 C 4.214844 4.546875 4.210938 4.695312 4.300781 4.792969 C 4.394531 4.886719 4.546875 4.894531 4.648438 4.804688 L 5.835938 3.746094 L 5.976562 3.886719 L 4.804688 4.929688 C 4.707031 5.019531 4.699219 5.167969 4.792969 5.265625 C 4.882812 5.359375 5.039062 5.367188 5.136719 5.277344 L 6.316406 4.226562 L 6.492188 4.402344 L 5.328125 5.4375 C 5.230469 5.523438 5.222656 5.675781 5.316406 5.769531 C 5.40625 5.863281 5.5625 5.871094 5.660156 5.78125 L 6.832031 4.742188 L 10.175781 8.066406 C 10.332031 8.21875 10.585938 8.222656 10.746094 8.074219 L 10.878906 7.953125 C 11.035156 7.800781 11.042969 7.558594 10.886719 7.40625 Z M 10.886719 7.40625 "/>
<path style=" stroke:none;fill-rule:nonzero;fill:rgb(30%,30%,30%);fill-opacity:1;" d="M 9.535156 9.34375 C 9.429688 9.714844 8.625 9.308594 8.625 9.308594 L 8.230469 8.949219 C 7.949219 9.1875 7.566406 9.289062 7.199219 9.222656 C 6.828125 9.160156 6.507812 8.9375 6.328125 8.621094 C 6.324219 8.628906 6.320312 8.632812 6.316406 8.636719 L 4.355469 6.78125 C 4.34375 6.792969 4.214844 6.851562 4.25 6.882812 C 4.609375 7.230469 5.734375 8.332031 6.144531 8.800781 C 6.632812 9.113281 6.828125 9.714844 6.613281 10.242188 C 6.394531 10.765625 5.824219 11.074219 5.246094 10.976562 C 4.664062 10.878906 4.234375 10.40625 4.214844 9.839844 C 4.195312 9.273438 4.589844 8.773438 5.160156 8.636719 L 2.847656 6.34375 C 2.734375 6.234375 -0.300781 2.804688 0.0234375 2.5625 C 0.398438 2.265625 3.855469 5.289062 3.96875 5.402344 L 6.222656 7.714844 C 6.347656 7.296875 6.699219 6.976562 7.144531 6.878906 C 7.585938 6.785156 8.046875 6.925781 8.347656 7.253906 C 8.648438 7.582031 8.738281 8.039062 8.585938 8.449219 L 8.90625 8.804688 C 8.90625 8.804688 9.640625 8.972656 9.535156 9.34375 Z M 5.457031 9.109375 C 5.0625 9.109375 4.738281 9.417969 4.738281 9.800781 C 4.738281 10.179688 5.0625 10.488281 5.457031 10.488281 C 5.851562 10.488281 6.175781 10.179688 6.175781 9.800781 C 6.175781 9.417969 5.851562 9.109375 5.457031 9.109375 Z M 7.453125 7.355469 C 7.054688 7.355469 6.734375 7.664062 6.734375 8.046875 C 6.734375 8.429688 7.054688 8.738281 7.453125 8.738281 C 7.847656 8.738281 8.167969 8.429688 8.167969 8.046875 C 8.167969 7.664062 7.847656 7.355469 7.453125 7.355469 Z M 7.453125 7.355469 "/>
</g>
</svg>
