<?xml version="1.0" encoding="UTF-8"?>
<svg xmlns="http://www.w3.org/2000/svg" xmlns:xlink="http://www.w3.org/1999/xlink" width="10px" height="9px" viewBox="0 0 10 9" version="1.1">
<g id="surface1">
<path style=" stroke:none;fill-rule:nonzero;fill:rgb(30%,30%,30%);fill-opacity:1;" d="M 8.867188 7.144531 L 2.84375 7.144531 C 2.585938 7.144531 2.378906 6.921875 2.378906 6.644531 C 2.378906 6.367188 2.585938 6.140625 2.84375 6.140625 L 8.808594 6.140625 C 8.898438 6.140625 8.976562 6.074219 9 5.980469 L 9.992188 1.695312 C 10.007812 1.628906 9.996094 1.5625 9.957031 1.511719 C 9.917969 1.460938 9.863281 1.429688 9.800781 1.429688 L 2.003906 1.429688 L 1.710938 0.160156 C 1.691406 0.0664062 1.609375 0 1.519531 0 L 0.199219 0 C 0.0898438 0 0 0.09375 0 0.210938 C 0 0.332031 0.0898438 0.425781 0.199219 0.425781 L 1.367188 0.425781 L 1.660156 1.695312 L 2.605469 5.769531 C 2.46875 5.8125 2.339844 5.878906 2.234375 5.988281 C 2.074219 6.160156 1.984375 6.398438 1.984375 6.644531 C 1.984375 6.9375 2.121094 7.1875 2.316406 7.359375 C 2.292969 7.378906 2.261719 7.390625 2.234375 7.417969 C 1.992188 7.683594 1.917969 8.082031 2.050781 8.429688 C 2.183594 8.773438 2.496094 9 2.84375 9 L 2.847656 9 C 3.320312 9 3.707031 8.585938 3.703125 8.074219 C 3.703125 7.882812 3.640625 7.71875 3.546875 7.570312 L 8.164062 7.570312 C 8.070312 7.722656 8.007812 7.886719 8.007812 8.074219 C 8.007812 8.585938 8.390625 9 8.867188 9 L 8.871094 9 C 9.34375 9 9.726562 8.582031 9.726562 8.074219 C 9.726562 7.5625 9.34375 7.144531 8.867188 7.144531 Z M 8.867188 7.144531 "/>
</g>
</svg>
