<?xml version="1.0" encoding="UTF-8" standalone="no"?>
<!-- Created with Inkscape (http://www.inkscape.org/) -->

<svg
   xmlns:dc="http://purl.org/dc/elements/1.1/"
   xmlns:cc="http://creativecommons.org/ns#"
   xmlns:rdf="http://www.w3.org/1999/02/22-rdf-syntax-ns#"
   xmlns:svg="http://www.w3.org/2000/svg"
   xmlns="http://www.w3.org/2000/svg"
   xmlns:xlink="http://www.w3.org/1999/xlink"
   xmlns:sodipodi="http://sodipodi.sourceforge.net/DTD/sodipodi-0.dtd"
   xmlns:inkscape="http://www.inkscape.org/namespaces/inkscape"
   width="30px"
   height="30px"
   version="1.1"
   id="svg8"
   inkscape:version="0.92.4 5da689c313, 2019-01-14"
   sodipodi:docname="container.svg">
  <defs
     id="defs2" />
  <sodipodi:namedview
     id="base"
     pagecolor="#ffffff"
     bordercolor="#666666"
     borderopacity="1.0"
     inkscape:pageopacity="0.0"
     inkscape:pageshadow="2"
     inkscape:zoom="13.049334"
     inkscape:cx="18.679046"
     inkscape:cy="12.165829"
     inkscape:document-units="px"
     inkscape:current-layer="layer1"
     showgrid="false"
     inkscape:snap-page="false"
     units="px"
     inkscape:window-width="1884"
     inkscape:window-height="1061"
     inkscape:window-x="0"
     inkscape:window-y="0"
     inkscape:window-maximized="1"
     fit-margin-top="0"
     fit-margin-left="0"
     fit-margin-right="0"
     fit-margin-bottom="0" />
  <metadata
     id="metadata5">
    <rdf:RDF>
      <cc:Work
         rdf:about="">
        <dc:format>image/svg+xml</dc:format>
        <dc:type
           rdf:resource="http://purl.org/dc/dcmitype/StillImage" />
        <dc:title></dc:title>
      </cc:Work>
    </rdf:RDF>
  </metadata>
    <circle
       style="color:#000000;clip-rule:nonzero;display:inline;overflow:visible;visibility:visible;opacity:1;isolation:auto;mix-blend-mode:normal;color-interpolation:sRGB;color-interpolation-filters:linearRGB;solid-color:#000000;solid-opacity:1;vector-effect:none;fill:#00b2cc;fill-opacity:1;fill-rule:evenodd;stroke:#ffffff;stroke-width:1;stroke-linecap:butt;stroke-linejoin:miter;stroke-miterlimit:4;stroke-dasharray:none;stroke-dashoffset:0;stroke-opacity:1;marker:none;color-rendering:auto;image-rendering:auto;shape-rendering:auto;text-rendering:auto;enable-background:accumulate"
       id="path815"
       cx="15"
       cy="15"
       r="14.5" />
<g transform="translate(7,9)"><g id="surface1">
<path style=" stroke:none;fill-rule:nonzero;fill:#FFFFFF;fill-opacity:1;" d="M 10.738281 6.324219 C 10.738281 7.894531 9.519531 9.164062 8.019531 9.164062 C 6.515625 9.164062 5.296875 7.894531 5.296875 6.324219 C 5.296875 4.757812 6.515625 3.488281 8.019531 3.488281 C 9.519531 3.488281 10.738281 4.757812 10.738281 6.324219 Z M 16 2.53125 L 16 9.660156 C 16 10.398438 15.425781 10.996094 14.71875 10.996094 L 1.28125 10.996094 C 0.574219 10.996094 0 10.398438 0 9.660156 L 0 2.53125 C 0 1.792969 0.574219 1.195312 1.28125 1.195312 L 5.105469 1.195312 L 5.105469 0.636719 C 5.109375 0.289062 5.378906 0.00390625 5.714844 0.00390625 L 10.414062 0.00390625 C 10.75 0.00390625 11.023438 0.289062 11.023438 0.636719 L 11.023438 1.195312 L 14.71875 1.195312 C 15.425781 1.195312 16 1.792969 16 2.53125 Z M 11.824219 6.984375 C 12.242188 4.253906 10.003906 1.917969 7.382812 2.355469 C 5.753906 2.632812 4.476562 3.964844 4.210938 5.664062 C 3.792969 8.398438 6.03125 10.734375 8.652344 10.296875 C 10.28125 10.019531 11.558594 8.6875 11.824219 6.984375 Z M 14.558594 2.484375 L 11.820312 2.484375 L 11.820312 3.363281 L 14.558594 3.363281 Z M 14.558594 2.484375 "/>
</g>
</g>
</svg>
