<?xml version="1.0" encoding="UTF-8"?>
<svg xmlns="http://www.w3.org/2000/svg" xmlns:xlink="http://www.w3.org/1999/xlink" width="11px" height="10px" viewBox="0 0 11 10" version="1.1">
<g id="surface1">
<path style=" stroke:none;fill-rule:nonzero;fill:rgb(30%,30%,30%);fill-opacity:1;" d="M 4.65625 5.445312 C 4.730469 5.4375 4.804688 5.449219 4.875 5.476562 C 5 5.527344 5.085938 5.617188 5.105469 5.714844 C 5.164062 5.699219 5.527344 5.625 5.636719 5.9375 C 5.636719 5.9375 5.652344 5.9375 5.683594 5.9375 C 5.816406 5.933594 6.0625 5.910156 6.171875 6.191406 C 6.171875 6.191406 7.59375 6.457031 8.550781 6.910156 C 8.699219 6.976562 8.847656 7.035156 9.003906 7.085938 L 9.011719 2.839844 C 8.878906 2.765625 8.753906 2.675781 8.652344 2.5625 C 8.445312 2.34375 8.332031 2.0625 8.332031 1.769531 L 8.332031 0.00390625 L 7.632812 0.00390625 L 7.632812 0.4375 C 7.632812 1.121094 7.027344 1.671875 6.28125 1.671875 L 6.253906 1.671875 C 5.507812 1.671875 4.902344 1.121094 4.902344 0.4375 L 4.902344 0.00390625 L 4.203125 0.00390625 L 4.203125 1.769531 C 4.203125 2.0625 4.089844 2.34375 3.882812 2.5625 C 3.78125 2.675781 3.65625 2.765625 3.519531 2.839844 L 3.519531 4.753906 Z M 4.65625 5.445312 "/>
<path style=" stroke:none;fill-rule:nonzero;fill:rgb(30%,30%,30%);fill-opacity:1;" d="M 8.410156 7.347656 C 7.453125 6.894531 6.03125 6.628906 6.03125 6.628906 C 5.921875 6.347656 5.675781 6.371094 5.542969 6.371094 C 5.511719 6.371094 5.496094 6.371094 5.496094 6.371094 C 5.386719 6.058594 5.023438 6.136719 4.964844 6.152344 C 4.945312 6.054688 4.859375 5.960938 4.734375 5.914062 C 4.664062 5.886719 4.589844 5.875 4.511719 5.882812 L 2.894531 4.894531 C 2.863281 4.875 2.828125 4.863281 2.789062 4.867188 C 2.734375 4.867188 2.6875 4.894531 2.65625 4.933594 L 2.667969 4.953125 C 2.347656 5.363281 3.382812 6.414062 3.21875 6.5625 C 3.109375 6.65625 2.824219 6.761719 2.449219 6.769531 C 2.207031 6.773438 1.96875 6.738281 1.738281 6.664062 C 1.21875 6.503906 0.886719 5.828125 0.640625 5.832031 C 0.558594 5.832031 0.613281 5.914062 0.441406 6.121094 C -0.242188 6.9375 0.0664062 8.230469 0.09375 9.066406 C 0.109375 9.550781 0.316406 9.660156 0.714844 9.675781 L 0.796875 9.953125 L 0.863281 9.996094 L 1.492188 9.984375 C 1.523438 9.984375 1.554688 9.96875 1.554688 9.941406 L 1.613281 9.667969 C 1.699219 9.667969 1.789062 9.667969 1.882812 9.671875 C 1.960938 9.675781 2.089844 9.675781 2.261719 9.679688 L 2.34375 9.953125 C 2.351562 9.980469 2.378906 9.996094 2.40625 9.996094 L 3.035156 9.988281 C 3.066406 9.988281 3.089844 9.96875 3.097656 9.941406 L 3.15625 9.699219 C 3.363281 9.699219 3.589844 9.703125 3.824219 9.707031 L 3.898438 9.953125 C 3.910156 9.980469 3.933594 9.996094 3.964844 9.996094 L 4.59375 9.988281 C 4.621094 9.988281 4.644531 9.96875 4.65625 9.941406 L 4.707031 9.71875 C 4.929688 9.722656 5.15625 9.726562 5.382812 9.730469 L 5.453125 9.953125 C 5.464844 9.980469 5.488281 9.996094 5.519531 9.996094 L 6.148438 9.988281 C 6.175781 9.988281 6.203125 9.96875 6.210938 9.941406 L 6.261719 9.738281 C 6.496094 9.742188 6.722656 9.742188 6.945312 9.746094 L 7.011719 9.953125 C 7.019531 9.980469 7.046875 9.996094 7.074219 9.996094 L 7.703125 9.988281 C 7.734375 9.988281 7.757812 9.96875 7.765625 9.941406 L 7.8125 9.75 C 8.035156 9.753906 8.230469 9.753906 8.394531 9.753906 L 8.457031 9.933594 C 8.460938 9.953125 8.492188 9.976562 8.515625 9.976562 L 9.152344 9.964844 C 9.175781 9.964844 9.207031 9.945312 9.207031 9.921875 L 9.261719 9.710938 C 10.140625 9.601562 11.011719 9.253906 11 8.636719 C 10.988281 7.902344 9.367188 7.796875 8.410156 7.347656 Z M 8.410156 7.347656 "/>
</g>
</svg>
