<?xml version="1.0" encoding="UTF-8"?>
<svg xmlns="http://www.w3.org/2000/svg" xmlns:xlink="http://www.w3.org/1999/xlink" width="10px" height="4px" viewBox="0 0 10 4" version="1.1">
<g id="surface1">
<path style=" stroke:none;fill-rule:nonzero;fill:rgb(30%,30%,30%);fill-opacity:1;" d="M 8.238281 1.535156 C 8.238281 1.382812 8.355469 1.257812 8.5 1.257812 C 8.644531 1.257812 8.761719 1.382812 8.761719 1.535156 C 8.761719 1.6875 8.644531 1.8125 8.5 1.8125 C 8.429688 1.8125 8.363281 1.785156 8.316406 1.734375 C 8.265625 1.679688 8.238281 1.609375 8.238281 1.535156 Z M 7.039062 3.84375 C 6.65625 2.648438 6.65625 1.351562 7.039062 0.15625 C 6.65625 0.0625 6.25 0 5.832031 0 C 4.441406 0 3.199219 0.625 2.371094 1.175781 C 2.199219 1.292969 1.976562 1.292969 1.804688 1.175781 C 1.335938 0.863281 0.730469 0.527344 0.0390625 0.296875 C 0.0273438 0.292969 0.015625 0.296875 0.0078125 0.304688 C 0 0.316406 -0.00390625 0.332031 0.00390625 0.34375 C 0.164062 0.640625 0.308594 0.949219 0.4375 1.265625 C 0.628906 1.734375 0.628906 2.265625 0.4375 2.734375 C 0.308594 3.050781 0.164062 3.359375 0.00390625 3.65625 C -0.00390625 3.667969 0 3.683594 0.0078125 3.695312 C 0.015625 3.703125 0.0273438 3.707031 0.0390625 3.703125 C 0.734375 3.472656 1.339844 3.132812 1.8125 2.816406 C 1.980469 2.707031 2.195312 2.707031 2.363281 2.816406 C 3.191406 3.371094 4.4375 4 5.832031 4 C 6.25 4 6.65625 3.9375 7.039062 3.84375 Z M 9.769531 2.480469 C 9.914062 2.371094 10 2.191406 10 2 C 10 1.808594 9.914062 1.628906 9.769531 1.519531 C 9.230469 1.109375 8.351562 0.535156 7.296875 0.222656 C 6.921875 1.375 6.921875 2.625 7.296875 3.777344 C 8.351562 3.464844 9.230469 2.894531 9.769531 2.480469 Z M 9.769531 2.480469 "/>
</g>
</svg>
