<?xml version="1.0" encoding="UTF-8" standalone="no"?>
<!-- Created with Inkscape (http://www.inkscape.org/) -->

<svg
   xmlns:dc="http://purl.org/dc/elements/1.1/"
   xmlns:cc="http://creativecommons.org/ns#"
   xmlns:rdf="http://www.w3.org/1999/02/22-rdf-syntax-ns#"
   xmlns:svg="http://www.w3.org/2000/svg"
   xmlns="http://www.w3.org/2000/svg"
   xmlns:xlink="http://www.w3.org/1999/xlink"
   xmlns:sodipodi="http://sodipodi.sourceforge.net/DTD/sodipodi-0.dtd"
   xmlns:inkscape="http://www.inkscape.org/namespaces/inkscape"
   width="30px"
   height="30px"
   version="1.1"
   id="svg8"
   inkscape:version="0.92.4 5da689c313, 2019-01-14"
   sodipodi:docname="container.svg">
  <defs
     id="defs2" />
  <sodipodi:namedview
     id="base"
     pagecolor="#ffffff"
     bordercolor="#666666"
     borderopacity="1.0"
     inkscape:pageopacity="0.0"
     inkscape:pageshadow="2"
     inkscape:zoom="13.049334"
     inkscape:cx="18.679046"
     inkscape:cy="12.165829"
     inkscape:document-units="px"
     inkscape:current-layer="layer1"
     showgrid="false"
     inkscape:snap-page="false"
     units="px"
     inkscape:window-width="1884"
     inkscape:window-height="1061"
     inkscape:window-x="0"
     inkscape:window-y="0"
     inkscape:window-maximized="1"
     fit-margin-top="0"
     fit-margin-left="0"
     fit-margin-right="0"
     fit-margin-bottom="0" />
  <metadata
     id="metadata5">
    <rdf:RDF>
      <cc:Work
         rdf:about="">
        <dc:format>image/svg+xml</dc:format>
        <dc:type
           rdf:resource="http://purl.org/dc/dcmitype/StillImage" />
        <dc:title></dc:title>
      </cc:Work>
    </rdf:RDF>
  </metadata>
    <circle
       style="color:#000000;clip-rule:nonzero;display:inline;overflow:visible;visibility:visible;opacity:1;isolation:auto;mix-blend-mode:normal;color-interpolation:sRGB;color-interpolation-filters:linearRGB;solid-color:#000000;solid-opacity:1;vector-effect:none;fill:#ffffff;fill-opacity:1;fill-rule:evenodd;stroke:#00b2cc;stroke-width:1;stroke-linecap:butt;stroke-linejoin:miter;stroke-miterlimit:4;stroke-dasharray:none;stroke-dashoffset:0;stroke-opacity:1;marker:none;color-rendering:auto;image-rendering:auto;shape-rendering:auto;text-rendering:auto;enable-background:accumulate"
       id="path815"
       cx="15"
       cy="15"
       r="14.5" />
<g transform="translate(7,12)"><g id="surface1">
<path style=" stroke:none;fill-rule:nonzero;fill:rgb(30%,30%,30%);fill-opacity:1;" d="M 12.355469 2.300781 C 12.359375 2.070312 12.535156 1.882812 12.75 1.886719 C 12.96875 1.886719 13.144531 2.074219 13.144531 2.304688 C 13.144531 2.535156 12.96875 2.722656 12.75 2.722656 C 12.644531 2.722656 12.546875 2.675781 12.472656 2.597656 C 12.398438 2.519531 12.355469 2.414062 12.355469 2.300781 Z M 10.558594 5.765625 C 9.984375 3.972656 9.984375 2.027344 10.558594 0.234375 C 9.984375 0.09375 9.375 0.00390625 8.746094 0.00390625 C 6.660156 0.00390625 4.796875 0.9375 3.558594 1.765625 C 3.296875 1.9375 2.96875 1.9375 2.707031 1.765625 C 2.003906 1.296875 1.09375 0.792969 0.0585938 0.445312 C 0.0429688 0.4375 0.0234375 0.445312 0.0117188 0.460938 C 0 0.476562 -0.00390625 0.496094 0.0078125 0.515625 C 0.246094 0.960938 0.464844 1.425781 0.65625 1.898438 C 0.945312 2.601562 0.945312 3.398438 0.65625 4.101562 C 0.464844 4.574219 0.246094 5.039062 0.0078125 5.484375 C -0.00390625 5.503906 0 5.523438 0.0117188 5.539062 C 0.0234375 5.554688 0.0429688 5.5625 0.0585938 5.554688 C 1.101562 5.207031 2.011719 4.699219 2.71875 4.226562 C 2.972656 4.058594 3.292969 4.058594 3.542969 4.226562 C 4.785156 5.054688 6.65625 5.996094 8.746094 5.996094 C 9.375 5.996094 9.984375 5.90625 10.558594 5.765625 Z M 14.652344 3.722656 C 14.871094 3.554688 15 3.285156 15 3 C 15 2.714844 14.871094 2.445312 14.652344 2.277344 C 13.847656 1.660156 12.527344 0.800781 10.941406 0.335938 C 10.378906 2.0625 10.378906 3.9375 10.941406 5.664062 C 12.527344 5.199219 13.847656 4.339844 14.652344 3.722656 Z M 14.652344 3.722656 "/>
</g>
</g>
</svg>
