<?xml version="1.0" encoding="UTF-8" standalone="no"?>
<!-- Created with Inkscape (http://www.inkscape.org/) -->

<svg
   xmlns:dc="http://purl.org/dc/elements/1.1/"
   xmlns:cc="http://creativecommons.org/ns#"
   xmlns:rdf="http://www.w3.org/1999/02/22-rdf-syntax-ns#"
   xmlns:svg="http://www.w3.org/2000/svg"
   xmlns="http://www.w3.org/2000/svg"
   xmlns:xlink="http://www.w3.org/1999/xlink"
   xmlns:sodipodi="http://sodipodi.sourceforge.net/DTD/sodipodi-0.dtd"
   xmlns:inkscape="http://www.inkscape.org/namespaces/inkscape"
   width="30px"
   height="30px"
   version="1.1"
   id="svg8"
   inkscape:version="0.92.4 5da689c313, 2019-01-14"
   sodipodi:docname="container.svg">
  <defs
     id="defs2" />
  <sodipodi:namedview
     id="base"
     pagecolor="#ffffff"
     bordercolor="#666666"
     borderopacity="1.0"
     inkscape:pageopacity="0.0"
     inkscape:pageshadow="2"
     inkscape:zoom="13.049334"
     inkscape:cx="18.679046"
     inkscape:cy="12.165829"
     inkscape:document-units="px"
     inkscape:current-layer="layer1"
     showgrid="false"
     inkscape:snap-page="false"
     units="px"
     inkscape:window-width="1884"
     inkscape:window-height="1061"
     inkscape:window-x="0"
     inkscape:window-y="0"
     inkscape:window-maximized="1"
     fit-margin-top="0"
     fit-margin-left="0"
     fit-margin-right="0"
     fit-margin-bottom="0" />
  <metadata
     id="metadata5">
    <rdf:RDF>
      <cc:Work
         rdf:about="">
        <dc:format>image/svg+xml</dc:format>
        <dc:type
           rdf:resource="http://purl.org/dc/dcmitype/StillImage" />
        <dc:title></dc:title>
      </cc:Work>
    </rdf:RDF>
  </metadata>
    <circle
       style="color:#000000;clip-rule:nonzero;display:inline;overflow:visible;visibility:visible;opacity:1;isolation:auto;mix-blend-mode:normal;color-interpolation:sRGB;color-interpolation-filters:linearRGB;solid-color:#000000;solid-opacity:1;vector-effect:none;fill:#ffffff;fill-opacity:1;fill-rule:evenodd;stroke:#00a0a4;stroke-width:1;stroke-linecap:butt;stroke-linejoin:miter;stroke-miterlimit:4;stroke-dasharray:none;stroke-dashoffset:0;stroke-opacity:1;marker:none;color-rendering:auto;image-rendering:auto;shape-rendering:auto;text-rendering:auto;enable-background:accumulate"
       id="path815"
       cx="15"
       cy="15"
       r="14.5" />
<g transform="translate(9,7)"><g id="surface1">
<path style=" stroke:none;fill-rule:nonzero;fill:rgb(30%,30%,30%);fill-opacity:1;" d="M 7.4375 15.996094 L 0 15.996094 L 0 6.398438 L 7.4375 6.398438 Z M 7.550781 2.160156 C 7.539062 2.136719 7.238281 1.53125 6.503906 1.238281 C 6.046875 1.058594 5.453125 1.011719 5.003906 1.007812 L 5.003906 0.4375 L 2.433594 0.4375 L 2.433594 3.003906 L 3.207031 3.003906 L 3.207031 4.222656 L 1.675781 4.222656 L 1.675781 5.734375 L 5.757812 5.734375 L 5.757812 4.222656 L 4.230469 4.222656 L 4.230469 3.003906 L 5.003906 3.003906 L 5.003906 1.667969 C 5.773438 1.675781 6.570312 1.78125 6.929688 2.441406 C 6.984375 2.550781 7.089844 2.621094 7.210938 2.632812 C 7.332031 2.644531 7.453125 2.589844 7.523438 2.492188 C 7.59375 2.394531 7.601562 2.269531 7.550781 2.160156 Z M 10.5625 3.164062 L 11 2.765625 L 10.40625 2.671875 L 10.144531 2.148438 L 9.871094 2.667969 L 9.273438 2.742188 L 9.699219 3.15625 L 9.589844 3.726562 L 10.128906 3.464844 L 10.65625 3.742188 Z M 8.738281 1.023438 L 9.175781 0.621094 L 8.582031 0.53125 L 8.324219 0.00390625 L 8.050781 0.523438 L 7.453125 0.597656 L 7.878906 1.011719 L 7.769531 1.582031 L 8.304688 1.320312 L 8.832031 1.597656 Z M 9.328125 5.757812 L 9.765625 5.359375 L 9.171875 5.265625 L 8.914062 4.742188 L 8.640625 5.261719 L 8.042969 5.335938 L 8.46875 5.746094 L 8.359375 6.320312 L 8.894531 6.054688 L 9.421875 6.335938 Z M 9.328125 5.757812 "/>
</g>
</g>
</svg>
