<?xml version="1.0" encoding="UTF-8"?>
<svg xmlns="http://www.w3.org/2000/svg" xmlns:xlink="http://www.w3.org/1999/xlink" width="11px" height="10px" viewBox="0 0 11 10" version="1.1">
<g id="surface1">
<path style=" stroke:none;fill-rule:nonzero;fill:rgb(30%,30%,30%);fill-opacity:1;" d="M 9.058594 3.933594 L 9.058594 6.792969 L 1.890625 6.792969 L 1.890625 3.933594 L 0.960938 3.933594 L 0.960938 10 L 9.933594 10 L 9.933594 3.933594 Z M 10.996094 2.363281 C 10.996094 2.347656 10.992188 2.335938 10.988281 2.320312 C 10.984375 2.3125 10.980469 2.300781 10.976562 2.292969 L 8.722656 0.0507812 C 8.703125 0.0195312 8.667969 0 8.628906 0 L 2.195312 0 C 2.160156 0 2.125 0.0195312 2.101562 0.046875 L 0.0273438 2.292969 C 0.0117188 2.3125 0.00390625 2.335938 0.00390625 2.363281 C 0.00390625 2.363281 0.00390625 2.363281 0.00390625 2.367188 C 0.00390625 3.007812 0.527344 3.527344 1.167969 3.527344 C 1.636719 3.527344 2.039062 3.253906 2.226562 2.859375 C 2.410156 3.253906 2.8125 3.527344 3.28125 3.527344 C 3.796875 3.527344 4.234375 3.191406 4.390625 2.726562 C 4.542969 3.191406 4.980469 3.527344 5.496094 3.527344 C 6.015625 3.527344 6.457031 3.1875 6.609375 2.71875 C 6.757812 3.1875 7.199219 3.527344 7.71875 3.527344 C 8.1875 3.527344 8.589844 3.253906 8.773438 2.859375 C 8.960938 3.253906 9.363281 3.527344 9.832031 3.527344 C 10.472656 3.527344 10.996094 3.007812 10.996094 2.367188 C 10.996094 2.363281 10.996094 2.363281 10.996094 2.363281 Z M 4.578125 2.242188 L 4.753906 0.246094 L 5.953125 0.246094 L 6.421875 2.242188 Z M 10.652344 2.242188 L 8.726562 2.242188 L 7.503906 0.246094 L 8.570312 0.246094 Z M 2.253906 0.246094 L 3.3125 0.246094 L 2.277344 2.242188 L 0.355469 2.242188 Z M 2.253906 0.246094 "/>
</g>
</svg>
