<?xml version="1.0" encoding="UTF-8" standalone="no"?>
<!-- Created with Inkscape (http://www.inkscape.org/) -->

<svg
   xmlns:dc="http://purl.org/dc/elements/1.1/"
   xmlns:cc="http://creativecommons.org/ns#"
   xmlns:rdf="http://www.w3.org/1999/02/22-rdf-syntax-ns#"
   xmlns:svg="http://www.w3.org/2000/svg"
   xmlns="http://www.w3.org/2000/svg"
   xmlns:xlink="http://www.w3.org/1999/xlink"
   xmlns:sodipodi="http://sodipodi.sourceforge.net/DTD/sodipodi-0.dtd"
   xmlns:inkscape="http://www.inkscape.org/namespaces/inkscape"
   width="30px"
   height="30px"
   version="1.1"
   id="svg8"
   inkscape:version="0.92.4 5da689c313, 2019-01-14"
   sodipodi:docname="container.svg">
  <defs
     id="defs2" />
  <sodipodi:namedview
     id="base"
     pagecolor="#ffffff"
     bordercolor="#666666"
     borderopacity="1.0"
     inkscape:pageopacity="0.0"
     inkscape:pageshadow="2"
     inkscape:zoom="13.049334"
     inkscape:cx="18.679046"
     inkscape:cy="12.165829"
     inkscape:document-units="px"
     inkscape:current-layer="layer1"
     showgrid="false"
     inkscape:snap-page="false"
     units="px"
     inkscape:window-width="1884"
     inkscape:window-height="1061"
     inkscape:window-x="0"
     inkscape:window-y="0"
     inkscape:window-maximized="1"
     fit-margin-top="0"
     fit-margin-left="0"
     fit-margin-right="0"
     fit-margin-bottom="0" />
  <metadata
     id="metadata5">
    <rdf:RDF>
      <cc:Work
         rdf:about="">
        <dc:format>image/svg+xml</dc:format>
        <dc:type
           rdf:resource="http://purl.org/dc/dcmitype/StillImage" />
        <dc:title></dc:title>
      </cc:Work>
    </rdf:RDF>
  </metadata>
    <circle
       style="color:#000000;clip-rule:nonzero;display:inline;overflow:visible;visibility:visible;opacity:1;isolation:auto;mix-blend-mode:normal;color-interpolation:sRGB;color-interpolation-filters:linearRGB;solid-color:#000000;solid-opacity:1;vector-effect:none;fill:#00b2cc;fill-opacity:1;fill-rule:evenodd;stroke:#ffffff;stroke-width:1;stroke-linecap:butt;stroke-linejoin:miter;stroke-miterlimit:4;stroke-dasharray:none;stroke-dashoffset:0;stroke-opacity:1;marker:none;color-rendering:auto;image-rendering:auto;shape-rendering:auto;text-rendering:auto;enable-background:accumulate"
       id="path815"
       cx="15"
       cy="15"
       r="14.5" />
<g transform="translate(8,6)"><g id="surface1">
<path style=" stroke:none;fill-rule:nonzero;fill:#FFFFFF;fill-opacity:1;" d="M 13.984375 8.457031 C 14.007812 8.285156 13.957031 8.109375 13.945312 7.929688 C 13.867188 6.847656 13.035156 5.269531 11.996094 4.851562 C 10.226562 4.140625 8.574219 4.605469 8.589844 4.613281 C 8.070312 4.679688 7.53125 4.75 7 4.765625 C 6.46875 4.75 5.925781 4.679688 5.402344 4.609375 C 4.5 4.425781 2.914062 4.363281 2.003906 4.851562 C 1.019531 5.378906 0.132812 6.847656 0.0546875 7.929688 C 0.0429688 8.109375 -0.0078125 8.285156 0.015625 8.457031 C -0.0273438 8.847656 0.0390625 9.25 0.0859375 9.648438 C 0.292969 11.464844 1.566406 12.753906 2.742188 14.070312 C 3.078125 14.441406 3.441406 14.78125 3.808594 15.117188 C 4.078125 15.398438 4.347656 15.679688 4.613281 15.964844 C 5.308594 16.710938 6.011719 17.074219 7 16.988281 C 7.988281 17.074219 8.691406 16.710938 9.386719 15.964844 C 9.652344 15.679688 9.921875 15.398438 10.191406 15.117188 C 10.558594 14.78125 10.921875 14.441406 11.257812 14.070312 C 12.433594 12.753906 13.707031 11.464844 13.914062 9.648438 C 13.960938 9.25 14.027344 8.847656 13.984375 8.457031 Z M 7.421875 6.25 C 8.445312 6.339844 8.386719 8.1875 7.511719 8.429688 C 6.574219 8.691406 6.082031 6.136719 7.421875 6.25 Z M 1.613281 9.535156 C 0.726562 9.78125 0.261719 7.371094 1.523438 7.476562 C 2.496094 7.5625 2.4375 9.308594 1.613281 9.535156 Z M 3.214844 12.328125 C 2.382812 12.558594 1.945312 10.292969 3.132812 10.390625 C 4.046875 10.46875 3.992188 12.113281 3.214844 12.328125 Z M 3.828125 7.792969 C 2.886719 8.050781 2.398438 5.5 3.734375 5.613281 C 4.761719 5.703125 4.699219 7.550781 3.828125 7.792969 Z M 5.054688 14.429688 C 4.273438 14.648438 3.863281 12.519531 4.976562 12.613281 C 5.832031 12.6875 5.785156 14.230469 5.054688 14.429688 Z M 5.453125 10.515625 C 4.570312 10.757812 4.105469 8.347656 5.367188 8.457031 C 6.335938 8.539062 6.28125 10.285156 5.453125 10.515625 Z M 7.28125 15.691406 C 6.570312 15.890625 6.199219 13.957031 7.210938 14.042969 C 7.988281 14.109375 7.941406 15.511719 7.28125 15.691406 Z M 7.761719 12.042969 C 6.980469 12.257812 6.570312 10.128906 7.683594 10.226562 C 8.539062 10.296875 8.488281 11.839844 7.761719 12.042969 Z M 9.675781 14.144531 C 8.894531 14.359375 8.484375 12.234375 9.597656 12.328125 C 10.453125 12.402344 10.40625 13.945312 9.675781 14.144531 Z M 9.777344 9.785156 C 8.890625 10.03125 8.425781 7.621094 9.691406 7.726562 C 10.660156 7.8125 10.605469 9.558594 9.777344 9.785156 Z M 11.792969 11.183594 C 10.960938 11.414062 10.523438 9.144531 11.710938 9.246094 C 12.625 9.324219 12.570312 10.96875 11.792969 11.183594 Z M 11.765625 7.84375 C 10.878906 8.089844 10.414062 5.679688 11.679688 5.785156 C 12.648438 5.867188 12.589844 7.617188 11.765625 7.84375 Z M 11.765625 7.84375 "/>
<path style=" stroke:none;fill-rule:nonzero;fill:#FFFFFF;fill-opacity:1;" d="M 1.859375 3.523438 C 2.074219 3.496094 2.492188 3.53125 2.703125 3.617188 C 2.984375 3.734375 3.046875 3.898438 3.335938 4.03125 C 3.429688 4.074219 3.527344 4.109375 3.625 4.140625 C 3.621094 4.148438 3.621094 4.15625 3.617188 4.164062 C 3.738281 4.15625 3.855469 4.15625 3.964844 4.15625 C 4.460938 4.15625 4.988281 4.203125 5.417969 4.292969 C 5.910156 4.355469 6.464844 4.429688 7 4.445312 C 7.535156 4.429688 8.082031 4.359375 8.5625 4.296875 C 8.621094 4.273438 8.726562 4.246094 8.933594 4.214844 C 9.25 4.160156 9.570312 4.136719 9.890625 4.136719 C 10.023438 4.136719 10.152344 4.140625 10.277344 4.148438 C 10.460938 4.085938 10.695312 4.050781 10.808594 4.011719 C 11.308594 3.824219 11.8125 3.570312 12.21875 3.160156 C 12.402344 2.972656 13.007812 2.605469 13.242188 2.902344 C 13.207031 2.859375 13.171875 2.816406 13.128906 2.777344 C 13.136719 2.78125 13.140625 2.785156 13.148438 2.789062 C 12.765625 2.503906 11.328125 1.859375 9.257812 3.613281 C 9.1875 3.5625 9.359375 3.285156 9.386719 3.222656 C 9.511719 2.898438 9.71875 2.300781 9.710938 1.9375 C 9.703125 1.472656 9.542969 1.046875 9.507812 0.582031 C 9.496094 0.421875 9.449219 0.273438 9.484375 0.128906 C 9.496094 0.105469 9.507812 0.0820312 9.523438 0.0625 C 9.511719 0.078125 9.503906 0.0898438 9.492188 0.105469 C 9.503906 0.0664062 9.519531 0.03125 9.542969 0 C 9.105469 0.65625 8.394531 0.804688 7.839844 1.246094 C 7.691406 1.359375 7.40625 1.742188 7.289062 1.902344 C 7.21875 1.992188 7.15625 2.082031 7.101562 2.179688 C 6.996094 2.367188 6.941406 2.605469 6.871094 2.820312 C 6.75 2.582031 6.589844 2.367188 6.398438 2.175781 C 5.992188 1.769531 5.570312 1.613281 5.09375 1.371094 C 3.679688 0.648438 1.917969 0.902344 1.695312 1.085938 C 1.605469 1.132812 1.53125 1.207031 1.476562 1.292969 C 1.496094 1.257812 1.53125 1.234375 1.570312 1.226562 C 1.566406 1.230469 1.566406 1.230469 1.566406 1.234375 C 1.566406 1.230469 1.566406 1.230469 1.570312 1.226562 C 1.894531 1.15625 2.8125 1.730469 2.964844 1.84375 C 3.355469 2.140625 3.671875 2.589844 4.003906 2.980469 C 3.875 2.964844 2.179688 2.371094 1.242188 3.578125 C 1.207031 3.625 1.804688 3.53125 1.859375 3.523438 Z M 1.859375 3.523438 "/>
</g>
</g>
</svg>
