<?xml version="1.0" encoding="UTF-8"?>
<svg xmlns="http://www.w3.org/2000/svg" xmlns:xlink="http://www.w3.org/1999/xlink" width="9px" height="11px" viewBox="0 0 9 11" version="1.1">
<g id="surface1">
<path style=" stroke:none;fill-rule:nonzero;fill:rgb(30%,30%,30%);fill-opacity:1;" d="M 8.988281 5.472656 C 9.003906 5.359375 8.972656 5.246094 8.964844 5.132812 C 8.914062 4.429688 8.382812 3.410156 7.710938 3.140625 C 6.574219 2.679688 5.511719 2.980469 5.523438 2.984375 C 5.1875 3.027344 4.839844 3.074219 4.5 3.085938 C 4.15625 3.074219 3.808594 3.027344 3.472656 2.984375 C 2.894531 2.863281 1.871094 2.824219 1.289062 3.140625 C 0.65625 3.480469 0.0859375 4.429688 0.0351562 5.132812 C 0.0273438 5.246094 -0.00390625 5.359375 0.0117188 5.472656 C -0.0195312 5.726562 0.0273438 5.984375 0.0546875 6.242188 C 0.1875 7.417969 1.007812 8.253906 1.765625 9.101562 C 1.980469 9.34375 2.210938 9.566406 2.449219 9.78125 C 2.621094 9.964844 2.792969 10.144531 2.964844 10.328125 C 3.414062 10.8125 3.867188 11.046875 4.5 10.992188 C 5.132812 11.046875 5.585938 10.8125 6.035156 10.328125 C 6.207031 10.144531 6.378906 9.964844 6.550781 9.78125 C 6.789062 9.566406 7.019531 9.34375 7.234375 9.101562 C 7.992188 8.253906 8.8125 7.417969 8.945312 6.242188 C 8.972656 5.984375 9.019531 5.726562 8.988281 5.472656 Z M 4.769531 4.046875 C 5.429688 4.101562 5.390625 5.300781 4.828125 5.457031 C 4.226562 5.621094 3.910156 3.972656 4.769531 4.046875 Z M 1.035156 6.171875 C 0.46875 6.328125 0.167969 4.769531 0.980469 4.839844 C 1.605469 4.890625 1.566406 6.023438 1.035156 6.171875 Z M 2.066406 7.976562 C 1.53125 8.125 1.25 6.660156 2.015625 6.722656 C 2.601562 6.773438 2.566406 7.839844 2.066406 7.976562 Z M 2.460938 5.042969 C 1.855469 5.210938 1.539062 3.558594 2.398438 3.632812 C 3.058594 3.6875 3.023438 4.886719 2.460938 5.042969 Z M 3.25 9.335938 C 2.746094 9.476562 2.484375 8.101562 3.199219 8.164062 C 3.75 8.210938 3.71875 9.207031 3.25 9.335938 Z M 3.507812 6.804688 C 2.9375 6.960938 2.636719 5.402344 3.449219 5.472656 C 4.074219 5.523438 4.035156 6.65625 3.507812 6.804688 Z M 4.679688 10.152344 C 4.222656 10.28125 3.984375 9.03125 4.636719 9.085938 C 5.136719 9.128906 5.105469 10.035156 4.679688 10.152344 Z M 4.988281 7.792969 C 4.488281 7.929688 4.222656 6.554688 4.9375 6.617188 C 5.488281 6.664062 5.457031 7.660156 4.988281 7.792969 Z M 6.21875 9.152344 C 5.71875 9.292969 5.453125 7.917969 6.171875 7.976562 C 6.71875 8.023438 6.6875 9.023438 6.21875 9.152344 Z M 6.285156 6.332031 C 5.714844 6.492188 5.417969 4.929688 6.230469 5 C 6.851562 5.054688 6.816406 6.183594 6.285156 6.332031 Z M 7.582031 7.238281 C 7.046875 7.386719 6.765625 5.917969 7.527344 5.984375 C 8.117188 6.035156 8.082031 7.097656 7.582031 7.238281 Z M 7.5625 5.074219 C 6.996094 5.234375 6.695312 3.675781 7.507812 3.742188 C 8.128906 3.796875 8.09375 4.929688 7.5625 5.074219 Z M 7.5625 5.074219 "/>
<path style=" stroke:none;fill-rule:nonzero;fill:rgb(30%,30%,30%);fill-opacity:1;" d="M 1.195312 2.28125 C 1.332031 2.261719 1.601562 2.285156 1.738281 2.339844 C 1.917969 2.414062 1.957031 2.523438 2.144531 2.609375 C 2.207031 2.636719 2.265625 2.660156 2.328125 2.679688 C 2.328125 2.683594 2.328125 2.6875 2.328125 2.695312 C 2.40625 2.691406 2.480469 2.6875 2.546875 2.6875 C 2.867188 2.6875 3.207031 2.71875 3.484375 2.777344 C 3.796875 2.820312 4.15625 2.863281 4.5 2.878906 C 4.84375 2.867188 5.195312 2.820312 5.503906 2.777344 C 5.542969 2.765625 5.609375 2.75 5.742188 2.726562 C 5.945312 2.691406 6.152344 2.675781 6.359375 2.675781 C 6.441406 2.675781 6.527344 2.679688 6.609375 2.683594 C 6.726562 2.644531 6.875 2.621094 6.949219 2.59375 C 7.269531 2.472656 7.59375 2.3125 7.855469 2.042969 C 7.972656 1.921875 8.363281 1.6875 8.511719 1.878906 C 8.492188 1.847656 8.46875 1.824219 8.441406 1.796875 C 8.445312 1.800781 8.449219 1.800781 8.453125 1.804688 C 8.207031 1.621094 7.28125 1.203125 5.953125 2.335938 C 5.90625 2.304688 6.019531 2.125 6.03125 2.085938 C 6.113281 1.875 6.25 1.488281 6.242188 1.253906 C 6.238281 0.953125 6.136719 0.675781 6.113281 0.378906 C 6.105469 0.273438 6.074219 0.175781 6.097656 0.0820312 C 6.105469 0.0664062 6.113281 0.0546875 6.121094 0.0390625 C 6.117188 0.0507812 6.109375 0.0585938 6.101562 0.0664062 C 6.109375 0.0429688 6.121094 0.0195312 6.136719 0 C 5.851562 0.425781 5.394531 0.519531 5.039062 0.804688 C 4.945312 0.878906 4.761719 1.125 4.6875 1.230469 C 4.640625 1.289062 4.601562 1.347656 4.566406 1.410156 C 4.496094 1.53125 4.460938 1.683594 4.417969 1.824219 C 4.339844 1.671875 4.238281 1.53125 4.113281 1.410156 C 3.851562 1.144531 3.582031 1.042969 3.273438 0.886719 C 2.363281 0.417969 1.230469 0.585938 1.089844 0.703125 C 1.03125 0.734375 0.984375 0.78125 0.949219 0.835938 C 0.960938 0.8125 0.984375 0.800781 1.007812 0.792969 C 1.007812 0.796875 1.007812 0.796875 1.007812 0.800781 C 1.007812 0.796875 1.007812 0.796875 1.007812 0.792969 C 1.21875 0.75 1.808594 1.117188 1.90625 1.195312 C 2.15625 1.382812 2.359375 1.675781 2.574219 1.929688 C 2.492188 1.917969 1.402344 1.535156 0.796875 2.316406 C 0.773438 2.34375 1.160156 2.285156 1.195312 2.28125 Z M 1.195312 2.28125 "/>
</g>
</svg>
