<?xml version="1.0" encoding="UTF-8"?>
<svg xmlns="http://www.w3.org/2000/svg" xmlns:xlink="http://www.w3.org/1999/xlink" width="11px" height="9px" viewBox="0 0 11 9" version="1.1">
<g id="surface1">
<path style=" stroke:none;fill-rule:nonzero;fill:rgb(30%,30%,30%);fill-opacity:1;" d="M 8.882812 3.234375 L 8.882812 5.929688 L 2.117188 5.929688 L 2.117188 3.234375 L 1.238281 3.234375 L 1.238281 9 L 9.707031 9 L 9.707031 3.234375 Z M 8.882812 3.234375 "/>
<path style=" stroke:none;fill-rule:nonzero;fill:rgb(30%,30%,30%);fill-opacity:1;" d="M 9.554688 0 L 1.445312 0 L 0.00390625 1.777344 C 0 1.816406 0 1.851562 0 1.886719 C 0 2.480469 0.472656 2.964844 1.058594 2.964844 C 1.644531 2.964844 2.144531 2.480469 2.144531 1.886719 C 2.144531 2.480469 2.644531 2.964844 3.226562 2.964844 C 3.8125 2.964844 4.335938 2.480469 4.335938 1.886719 C 4.335938 2.480469 4.863281 2.964844 5.449219 2.964844 C 6.03125 2.964844 6.558594 2.480469 6.558594 1.886719 C 6.558594 2.480469 7.085938 2.964844 7.667969 2.964844 C 8.253906 2.964844 8.804688 2.480469 8.804688 1.886719 C 8.804688 2.480469 9.355469 2.964844 9.941406 2.964844 C 10.527344 2.964844 11 2.375 11 1.777344 C 11 1.761719 11 1.796875 11 1.777344 Z M 9.554688 0 "/>
</g>
</svg>
