<?xml version="1.0" encoding="UTF-8"?>
<svg xmlns="http://www.w3.org/2000/svg" xmlns:xlink="http://www.w3.org/1999/xlink" width="10px" height="10px" viewBox="0 0 10 10" version="1.1">
<g id="surface1">
<path style=" stroke:none;fill-rule:nonzero;fill:rgb(30%,30%,30%);fill-opacity:1;" d="M 9.996094 4.207031 C 9.996094 3.457031 9.636719 2.765625 9.042969 2.363281 C 8.449219 1.964844 7.703125 1.914062 7.066406 2.234375 C 7.066406 2.214844 7.066406 2.199219 7.066406 2.179688 C 7.066406 0.976562 6.148438 0 5.011719 0 C 3.878906 0 2.957031 0.976562 2.957031 2.179688 C 2.957031 2.183594 2.957031 2.1875 2.957031 2.195312 C 2.320312 1.867188 1.570312 1.90625 0.96875 2.304688 C 0.367188 2.703125 0.00390625 3.402344 0.00390625 4.152344 C 0.00390625 5.230469 0.742188 6.121094 1.710938 6.300781 C 1.183594 6.929688 1.046875 7.824219 1.355469 8.597656 C 1.667969 9.375 2.371094 9.886719 3.164062 9.921875 C 3.957031 9.953125 4.699219 9.5 5.066406 8.753906 C 5.414062 9.53125 6.160156 10.019531 6.972656 10 C 7.785156 9.980469 8.507812 9.453125 8.820312 8.660156 C 9.132812 7.863281 8.972656 6.949219 8.414062 6.324219 C 9.339844 6.089844 9.992188 5.214844 9.996094 4.207031 Z M 7.019531 5.332031 C 7.019531 6.535156 6.097656 7.511719 4.964844 7.511719 C 3.828125 7.511719 2.90625 6.535156 2.90625 5.332031 C 2.90625 4.128906 3.828125 3.152344 4.964844 3.152344 C 6.097656 3.152344 7.019531 4.128906 7.019531 5.332031 Z M 7.019531 5.332031 "/>
</g>
</svg>
