<?xml version="1.0" encoding="UTF-8"?>
<svg xmlns="http://www.w3.org/2000/svg" xmlns:xlink="http://www.w3.org/1999/xlink" width="11px" height="11px" viewBox="0 0 11 11" version="1.1">
<g id="surface1">
<path style=" stroke:none;fill-rule:nonzero;fill:rgb(30%,30%,30%);fill-opacity:1;" d="M 10.878906 7.953125 L 10.746094 8.074219 C 10.585938 8.222656 10.332031 8.21875 10.175781 8.066406 L 6.832031 4.742188 L 5.660156 5.78125 C 5.5625 5.871094 5.40625 5.863281 5.316406 5.769531 C 5.222656 5.675781 5.230469 5.523438 5.328125 5.4375 L 6.492188 4.402344 L 6.316406 4.226562 L 5.136719 5.277344 C 5.039062 5.367188 4.882812 5.359375 4.792969 5.265625 C 4.699219 5.167969 4.707031 5.019531 4.804688 4.929688 L 5.976562 3.886719 L 5.835938 3.746094 L 4.648438 4.804688 C 4.546875 4.894531 4.394531 4.886719 4.300781 4.792969 C 4.210938 4.695312 4.214844 4.546875 4.3125 4.460938 L 5.492188 3.410156 L 5.351562 3.269531 L 4.15625 4.332031 C 4.058594 4.421875 3.902344 4.414062 3.8125 4.320312 C 3.71875 4.226562 3.726562 4.074219 3.824219 3.988281 L 5.011719 2.929688 L 4.871094 2.789062 L 3.667969 3.863281 C 3.566406 3.949219 3.414062 3.945312 3.320312 3.847656 C 3.230469 3.753906 3.234375 3.605469 3.335938 3.515625 L 4.53125 2.449219 L 4.335938 2.257812 L 3.125 3.339844 C 3.023438 3.425781 2.871094 3.421875 2.777344 3.324219 C 2.6875 3.230469 2.691406 3.082031 2.792969 2.992188 L 3.996094 1.917969 L 3.855469 1.78125 L 2.632812 2.867188 C 2.535156 2.957031 2.378906 2.949219 2.289062 2.855469 C 2.195312 2.757812 2.203125 2.609375 2.300781 2.519531 L 3.515625 1.441406 L 3.375 1.300781 L 2.144531 2.394531 C 2.046875 2.484375 1.890625 2.476562 1.796875 2.382812 C 1.707031 2.285156 1.710938 2.136719 1.8125 2.050781 L 3.035156 0.960938 L 2.890625 0.820312 L 1.65625 1.921875 C 1.554688 2.011719 1.402344 2.007812 1.308594 1.910156 C 1.21875 1.816406 1.222656 1.664062 1.320312 1.578125 L 2.890625 0.179688 C 2.914062 0.160156 2.945312 0.140625 2.980469 0.132812 L 3 0.113281 C 3.15625 -0.0351562 3.410156 -0.03125 3.566406 0.121094 L 10.886719 7.40625 C 11.042969 7.558594 11.035156 7.800781 10.878906 7.953125 Z M 8.90625 8.804688 L 8.585938 8.449219 C 8.738281 8.039062 8.648438 7.582031 8.347656 7.253906 C 8.046875 6.925781 7.585938 6.78125 7.144531 6.878906 C 6.699219 6.976562 6.347656 7.296875 6.222656 7.714844 L 3.96875 5.402344 C 3.855469 5.289062 0.398438 2.265625 0.0234375 2.5625 C -0.300781 2.804688 2.734375 6.234375 2.847656 6.34375 L 5.160156 8.636719 C 4.589844 8.773438 4.195312 9.273438 4.214844 9.839844 C 4.234375 10.40625 4.664062 10.882812 5.246094 10.976562 C 5.824219 11.074219 6.394531 10.765625 6.613281 10.242188 C 6.828125 9.714844 6.632812 9.113281 6.144531 8.800781 C 5.734375 8.332031 4.609375 7.230469 4.25 6.882812 C 4.214844 6.851562 4.34375 6.792969 4.355469 6.78125 L 6.316406 8.636719 C 6.320312 8.632812 6.324219 8.628906 6.328125 8.621094 C 6.507812 8.9375 6.828125 9.160156 7.199219 9.222656 C 7.566406 9.289062 7.949219 9.1875 8.230469 8.949219 L 8.625 9.308594 C 8.625 9.308594 9.429688 9.714844 9.535156 9.34375 C 9.640625 8.972656 8.90625 8.804688 8.90625 8.804688 Z M 6.175781 9.800781 C 6.175781 10.179688 5.851562 10.488281 5.457031 10.488281 C 5.0625 10.488281 4.738281 10.179688 4.738281 9.800781 C 4.738281 9.417969 5.0625 9.109375 5.457031 9.109375 C 5.851562 9.109375 6.175781 9.417969 6.175781 9.800781 Z M 8.167969 8.046875 C 8.167969 8.429688 7.847656 8.738281 7.453125 8.738281 C 7.054688 8.738281 6.734375 8.429688 6.734375 8.046875 C 6.734375 7.664062 7.054688 7.355469 7.453125 7.355469 C 7.847656 7.355469 8.167969 7.664062 8.167969 8.046875 Z M 8.167969 8.046875 "/>
</g>
</svg>
