<?xml version="1.0" encoding="UTF-8"?>
<svg xmlns="http://www.w3.org/2000/svg" xmlns:xlink="http://www.w3.org/1999/xlink" width="11px" height="10px" viewBox="0 0 11 10" version="1.1">
<g id="surface1">
<path style=" stroke:none;fill-rule:nonzero;fill:rgb(30%,30%,30%);fill-opacity:1;" d="M 11 10 L 3.109375 10 L 3.109375 7.808594 L 11 7.808594 Z M 0.789062 7.808594 L 0 7.808594 L 0 10 L 0.789062 10 Z M 2.367188 7.808594 L 1.578125 7.808594 L 1.578125 10 L 2.367188 10 Z M 3.207031 0 C 3.207031 0 0.0507812 0.503906 0 1.828125 C -0.0664062 3.699219 2.320312 3.972656 2.417969 4.929688 C 2.503906 5.75 0.839844 6.941406 0.839844 6.941406 C 0.839844 6.941406 4.085938 6.484375 4.046875 5.070312 C 3.996094 3.242188 1.628906 2.46875 1.628906 1.917969 C 1.628906 1.460938 3.207031 0 3.207031 0 Z M 3.207031 0 "/>
</g>
</svg>
