<?xml version="1.0" encoding="UTF-8"?>
<svg xmlns="http://www.w3.org/2000/svg" xmlns:xlink="http://www.w3.org/1999/xlink" width="10px" height="6px" viewBox="0 0 10 6" version="1.1">
<g id="surface1">
<path style=" stroke:none;fill-rule:nonzero;fill:rgb(30%,30%,30%);fill-opacity:1;" d="M 8.144531 2.292969 C 8.144531 2.074219 8.363281 1.917969 8.511719 1.917969 C 8.65625 1.917969 8.855469 2.054688 8.855469 2.273438 C 8.855469 2.492188 8.632812 2.644531 8.488281 2.644531 C 8.34375 2.644531 8.144531 2.511719 8.144531 2.292969 Z M 7.039062 5.769531 C 6.65625 3.945312 6.65625 2.054688 7.039062 0.230469 C 6.652344 0.0898438 6.25 0 5.832031 0 C 4.441406 0 3.199219 0.9375 2.375 1.765625 C 2.199219 1.9375 1.980469 1.9375 1.808594 1.765625 C 1.335938 1.292969 0.734375 0.789062 0.0429688 0.441406 C 0.015625 0.429688 -0.0078125 0.476562 0.0078125 0.515625 C 0.179688 0.988281 0.328125 1.476562 0.441406 1.898438 C 0.632812 2.601562 0.632812 3.398438 0.441406 4.101562 C 0.328125 4.523438 0.179688 5.011719 0.0078125 5.484375 C -0.0078125 5.523438 0.015625 5.570312 0.0429688 5.558594 C 0.738281 5.207031 1.34375 4.699219 1.816406 4.226562 C 1.984375 4.058594 2.195312 4.058594 2.363281 4.226562 C 3.191406 5.054688 4.4375 6 5.832031 6 C 6.25 6 6.652344 5.910156 7.039062 5.769531 Z M 9.765625 3.722656 C 10.074219 3.367188 10.074219 2.632812 9.765625 2.277344 C 9.226562 1.660156 8.347656 0.800781 7.292969 0.335938 C 6.917969 2.089844 6.917969 3.910156 7.292969 5.667969 C 8.347656 5.199219 9.226562 4.339844 9.765625 3.722656 Z M 9.765625 3.722656 "/>
</g>
</svg>
