<?xml version="1.0" encoding="UTF-8" standalone="no"?>
<!-- Created with Inkscape (http://www.inkscape.org/) -->

<svg
   xmlns:dc="http://purl.org/dc/elements/1.1/"
   xmlns:cc="http://creativecommons.org/ns#"
   xmlns:rdf="http://www.w3.org/1999/02/22-rdf-syntax-ns#"
   xmlns:svg="http://www.w3.org/2000/svg"
   xmlns="http://www.w3.org/2000/svg"
   xmlns:xlink="http://www.w3.org/1999/xlink"
   xmlns:sodipodi="http://sodipodi.sourceforge.net/DTD/sodipodi-0.dtd"
   xmlns:inkscape="http://www.inkscape.org/namespaces/inkscape"
   width="30px"
   height="30px"
   version="1.1"
   id="svg8"
   inkscape:version="0.92.4 5da689c313, 2019-01-14"
   sodipodi:docname="container.svg">
  <defs
     id="defs2" />
  <sodipodi:namedview
     id="base"
     pagecolor="#ffffff"
     bordercolor="#666666"
     borderopacity="1.0"
     inkscape:pageopacity="0.0"
     inkscape:pageshadow="2"
     inkscape:zoom="13.049334"
     inkscape:cx="18.679046"
     inkscape:cy="12.165829"
     inkscape:document-units="px"
     inkscape:current-layer="layer1"
     showgrid="false"
     inkscape:snap-page="false"
     units="px"
     inkscape:window-width="1884"
     inkscape:window-height="1061"
     inkscape:window-x="0"
     inkscape:window-y="0"
     inkscape:window-maximized="1"
     fit-margin-top="0"
     fit-margin-left="0"
     fit-margin-right="0"
     fit-margin-bottom="0" />
  <metadata
     id="metadata5">
    <rdf:RDF>
      <cc:Work
         rdf:about="">
        <dc:format>image/svg+xml</dc:format>
        <dc:type
           rdf:resource="http://purl.org/dc/dcmitype/StillImage" />
        <dc:title></dc:title>
      </cc:Work>
    </rdf:RDF>
  </metadata>
    <circle
       style="color:#000000;clip-rule:nonzero;display:inline;overflow:visible;visibility:visible;opacity:1;isolation:auto;mix-blend-mode:normal;color-interpolation:sRGB;color-interpolation-filters:linearRGB;solid-color:#000000;solid-opacity:1;vector-effect:none;fill:#76009e;fill-opacity:1;fill-rule:evenodd;stroke:#ffffff;stroke-width:1;stroke-linecap:butt;stroke-linejoin:miter;stroke-miterlimit:4;stroke-dasharray:none;stroke-dashoffset:0;stroke-opacity:1;marker:none;color-rendering:auto;image-rendering:auto;shape-rendering:auto;text-rendering:auto;enable-background:accumulate"
       id="path815"
       cx="15"
       cy="15"
       r="14.5" />
<g transform="translate(6,7)"><g id="surface1">
<path style=" stroke:none;fill-rule:nonzero;fill:#FFFFFF;fill-opacity:1;" d="M 9.382812 12.914062 L 9.378906 12.910156 C 9.355469 12.882812 9.34375 12.847656 9.34375 12.8125 L 9.34375 4.980469 C 9.34375 4.894531 9.417969 4.820312 9.507812 4.820312 L 12.359375 4.820312 C 12.453125 4.820312 12.527344 4.75 12.527344 4.664062 L 12.527344 3.425781 C 12.527344 3.339844 12.453125 3.269531 12.359375 3.269531 L 9.507812 3.269531 C 9.417969 3.269531 9.34375 3.199219 9.34375 3.109375 L 9.34375 0.160156 C 9.34375 0.0703125 9.265625 0 9.175781 0 L 7.917969 0 C 7.824219 0 7.75 0.0703125 7.75 0.160156 L 7.75 3.109375 C 7.75 3.199219 7.675781 3.269531 7.582031 3.269531 L 4.730469 3.269531 C 4.640625 3.269531 4.566406 3.339844 4.566406 3.425781 L 4.566406 4.664062 C 4.566406 4.75 4.640625 4.820312 4.730469 4.820312 L 7.582031 4.820312 C 7.675781 4.820312 7.75 4.894531 7.75 4.980469 L 7.75 12.808594 C 7.75 12.847656 7.734375 12.882812 7.710938 12.910156 C 7.683594 12.945312 7.640625 12.964844 7.59375 12.96875 C 4.390625 13.136719 1.628906 14.203125 0.0507812 15.730469 C 0.00390625 15.773438 -0.0117188 15.84375 0.015625 15.902344 C 0.0390625 15.960938 0.101562 16 0.167969 16 L 16.832031 16 C 16.898438 16 16.960938 15.960938 16.984375 15.902344 C 17.011719 15.84375 16.996094 15.773438 16.949219 15.730469 C 15.386719 14.21875 12.664062 13.160156 9.5 12.972656 C 9.453125 12.96875 9.410156 12.949219 9.382812 12.914062 Z M 9.382812 12.914062 "/>
</g>
</g>
</svg>
