<?xml version="1.0" encoding="UTF-8"?>
<svg xmlns="http://www.w3.org/2000/svg" xmlns:xlink="http://www.w3.org/1999/xlink" width="10px" height="10px" viewBox="0 0 10 10" version="1.1">
<g id="surface1">
<path style=" stroke:none;fill-rule:nonzero;fill:rgb(30%,30%,30%);fill-opacity:1;" d="M 9.519531 1.980469 C 8.835938 1.347656 7.652344 1.402344 6.605469 2.054688 C 6.601562 1.902344 6.617188 1.75 6.652344 1.605469 C 6.734375 1.222656 7.023438 0.871094 7.128906 0.753906 L 8.074219 0.753906 L 8.074219 0 L 1.972656 0 L 1.972656 0.753906 L 2.882812 0.753906 C 3 0.835938 3.105469 0.929688 3.191406 1.039062 C 3.382812 1.273438 3.457031 1.773438 3.480469 2.109375 C 2.417969 1.40625 1.183594 1.328125 0.480469 1.980469 C 0.0664062 2.367188 -0.0859375 2.9375 0.0507812 3.582031 C 0.179688 4.175781 0.542969 4.773438 1.074219 5.265625 C 1.234375 5.414062 1.402344 5.589844 1.582031 5.773438 C 1.75 5.949219 1.929688 6.132812 2.121094 6.320312 C 2.355469 7.246094 2.847656 8.171875 3.496094 8.769531 L 3.496094 9.320312 L 2.683594 9.621094 L 2.683594 10 L 7.261719 10 L 7.261719 9.621094 L 6.546875 9.320312 L 6.546875 8.769531 C 7.214844 8.15625 7.714844 7.207031 7.941406 6.257812 C 8.109375 6.09375 8.269531 5.929688 8.417969 5.773438 C 8.597656 5.589844 8.765625 5.414062 8.925781 5.265625 C 9.457031 4.773438 9.820312 4.175781 9.949219 3.582031 C 10.085938 2.9375 9.933594 2.367188 9.519531 1.980469 Z M 1.972656 5.050781 C 1.863281 4.9375 1.753906 4.832031 1.648438 4.730469 C 1.230469 4.34375 0.945312 3.882812 0.847656 3.4375 C 0.800781 3.210938 0.761719 2.789062 1.054688 2.515625 C 1.519531 2.085938 2.523438 2.292969 3.316406 2.953125 C 2.417969 3.15625 2 3.691406 1.972656 5.050781 Z M 9.152344 3.4375 C 9.054688 3.882812 8.769531 4.34375 8.351562 4.730469 C 8.257812 4.816406 8.167969 4.910156 8.070312 5.003906 C 8.039062 3.695312 7.636719 3.160156 6.683594 2.953125 C 7.476562 2.292969 8.484375 2.085938 8.945312 2.515625 C 9.238281 2.789062 9.199219 3.210938 9.152344 3.4375 Z M 9.152344 3.4375 "/>
</g>
</svg>
