<?xml version="1.0" encoding="UTF-8"?>
<svg xmlns="http://www.w3.org/2000/svg" xmlns:xlink="http://www.w3.org/1999/xlink" width="5px" height="10px" viewBox="0 0 5 10" version="1.1">
<g id="surface1">
<path style=" stroke:none;fill-rule:nonzero;fill:rgb(30%,30%,30%);fill-opacity:1;" d="M 4.167969 9.351562 L 4.183594 8.097656 L 3.800781 7.628906 L 3.800781 6.175781 L 3.972656 6.175781 L 3.972656 5.851562 L 3.78125 5.570312 L 3.800781 3.269531 L 4.25 3.269531 L 2.644531 1.550781 L 2.644531 0.746094 L 3.140625 0.746094 L 3.140625 0.488281 L 2.644531 0.488281 L 2.644531 0 L 2.394531 0 L 2.394531 0.488281 L 1.898438 0.488281 L 1.898438 0.746094 L 2.394531 0.742188 L 2.394531 1.554688 L 0.738281 3.269531 L 1.261719 3.269531 L 1.261719 5.570312 L 1.050781 5.851562 L 1.0625 6.175781 L 1.265625 6.175781 L 1.265625 7.628906 L 0.890625 8.097656 L 0.890625 9.351562 L 0 9.351562 L 0 10 L 5 10 L 5 9.351562 Z M 2.230469 3.59375 C 2.230469 3.457031 2.355469 3.34375 2.503906 3.34375 C 2.65625 3.34375 2.78125 3.457031 2.78125 3.59375 L 2.78125 5.433594 L 2.230469 5.433594 Z M 2.230469 3.59375 "/>
</g>
</svg>
