<?xml version="1.0" encoding="UTF-8" standalone="no"?>
<!-- Created with Inkscape (http://www.inkscape.org/) -->

<svg
   xmlns:dc="http://purl.org/dc/elements/1.1/"
   xmlns:cc="http://creativecommons.org/ns#"
   xmlns:rdf="http://www.w3.org/1999/02/22-rdf-syntax-ns#"
   xmlns:svg="http://www.w3.org/2000/svg"
   xmlns="http://www.w3.org/2000/svg"
   xmlns:xlink="http://www.w3.org/1999/xlink"
   xmlns:sodipodi="http://sodipodi.sourceforge.net/DTD/sodipodi-0.dtd"
   xmlns:inkscape="http://www.inkscape.org/namespaces/inkscape"
   width="30px"
   height="30px"
   version="1.1"
   id="svg8"
   inkscape:version="0.92.4 5da689c313, 2019-01-14"
   sodipodi:docname="container.svg">
  <defs
     id="defs2" />
  <sodipodi:namedview
     id="base"
     pagecolor="#ffffff"
     bordercolor="#666666"
     borderopacity="1.0"
     inkscape:pageopacity="0.0"
     inkscape:pageshadow="2"
     inkscape:zoom="13.049334"
     inkscape:cx="18.679046"
     inkscape:cy="12.165829"
     inkscape:document-units="px"
     inkscape:current-layer="layer1"
     showgrid="false"
     inkscape:snap-page="false"
     units="px"
     inkscape:window-width="1884"
     inkscape:window-height="1061"
     inkscape:window-x="0"
     inkscape:window-y="0"
     inkscape:window-maximized="1"
     fit-margin-top="0"
     fit-margin-left="0"
     fit-margin-right="0"
     fit-margin-bottom="0" />
  <metadata
     id="metadata5">
    <rdf:RDF>
      <cc:Work
         rdf:about="">
        <dc:format>image/svg+xml</dc:format>
        <dc:type
           rdf:resource="http://purl.org/dc/dcmitype/StillImage" />
        <dc:title></dc:title>
      </cc:Work>
    </rdf:RDF>
  </metadata>
    <circle
       style="color:#000000;clip-rule:nonzero;display:inline;overflow:visible;visibility:visible;opacity:1;isolation:auto;mix-blend-mode:normal;color-interpolation:sRGB;color-interpolation-filters:linearRGB;solid-color:#000000;solid-opacity:1;vector-effect:none;fill:#76009e;fill-opacity:1;fill-rule:evenodd;stroke:#ffffff;stroke-width:1;stroke-linecap:butt;stroke-linejoin:miter;stroke-miterlimit:4;stroke-dasharray:none;stroke-dashoffset:0;stroke-opacity:1;marker:none;color-rendering:auto;image-rendering:auto;shape-rendering:auto;text-rendering:auto;enable-background:accumulate"
       id="path815"
       cx="15"
       cy="15"
       r="14.5" />
<g transform="translate(6,8)"><g id="surface1">
<path style=" stroke:none;fill-rule:nonzero;fill:#FFFFFF;fill-opacity:1;" d="M 0.203125 0 L 16.703125 0 L 16.703125 1.238281 L 0.203125 1.238281 Z M 11.707031 2.902344 L 5.238281 2.902344 L 4.378906 1.648438 L 12.648438 1.648438 Z M 5.816406 14 L 5.816406 3.347656 L 7.046875 3.347656 L 7.046875 14 Z M 7.796875 14 L 7.796875 3.347656 L 9.023438 3.347656 L 9.023438 14 Z M 9.863281 14 L 9.863281 3.347656 L 11.09375 3.347656 L 11.09375 14 Z M 5.136719 3.976562 C 5.136719 3.953125 5.136719 3.933594 5.132812 3.910156 C 5.125 3.847656 5.03125 3.292969 4.617188 2.726562 C 4.226562 2.191406 3.675781 1.539062 2.289062 1.539062 C 1.699219 1.539062 0.957031 1.8125 0.566406 2.273438 C 0.230469 2.671875 0.0234375 3.214844 0.00390625 3.761719 C -0.03125 4.75 0.550781 5.792969 1.933594 5.890625 C 2.804688 5.953125 3.226562 5.507812 3.398438 5.238281 C 3.710938 4.746094 3.726562 4.054688 3.433594 3.515625 C 3.207031 3.097656 2.835938 2.851562 2.410156 2.839844 C 2.230469 2.8125 1.789062 2.808594 1.484375 3.039062 C 1.332031 3.152344 1.234375 3.300781 1.210938 3.492188 C 1.1875 3.730469 1.351562 3.925781 1.585938 3.953125 C 1.777344 3.972656 1.957031 3.867188 2.03125 3.691406 C 2.121094 3.683594 2.210938 3.6875 2.296875 3.699219 C 2.320312 3.703125 2.347656 3.707031 2.371094 3.707031 C 2.523438 3.707031 2.710938 3.828125 2.769531 3.933594 C 2.90625 4.1875 2.878906 4.511719 2.671875 4.765625 C 2.527344 4.949219 2.320312 5.050781 1.992188 5.027344 C 0.910156 4.949219 0.855469 4.0625 0.867188 3.792969 C 0.898438 2.90625 1.519531 2.445312 2.085938 2.425781 C 3.300781 2.390625 3.507812 2.691406 3.902344 3.214844 C 4.082031 3.449219 4.210938 3.722656 4.273438 4.011719 L 4.234375 14 L 5.097656 14 Z M 11.863281 3.960938 C 11.863281 3.941406 11.863281 3.917969 11.867188 3.898438 C 11.875 3.835938 11.96875 3.277344 12.382812 2.710938 C 12.773438 2.179688 13.324219 1.523438 14.710938 1.523438 C 15.300781 1.523438 16.042969 1.796875 16.433594 2.257812 C 16.769531 2.660156 16.976562 3.199219 16.996094 3.746094 C 17.03125 4.734375 16.449219 5.777344 15.066406 5.878906 C 14.195312 5.941406 13.773438 5.496094 13.601562 5.222656 C 13.289062 4.730469 13.273438 4.039062 13.566406 3.503906 C 13.792969 3.082031 14.164062 2.839844 14.589844 2.824219 C 14.769531 2.796875 15.210938 2.796875 15.515625 3.023438 C 15.667969 3.140625 15.765625 3.289062 15.789062 3.476562 C 15.8125 3.714844 15.648438 3.910156 15.414062 3.9375 C 15.222656 3.957031 15.042969 3.851562 14.96875 3.679688 C 14.878906 3.667969 14.789062 3.671875 14.703125 3.6875 C 14.679688 3.691406 14.652344 3.691406 14.628906 3.691406 C 14.476562 3.691406 14.289062 3.816406 14.230469 3.917969 C 14.09375 4.175781 14.121094 4.496094 14.328125 4.753906 C 14.472656 4.933594 14.679688 5.035156 15.007812 5.011719 C 16.089844 4.933594 16.144531 4.046875 16.132812 3.777344 C 16.101562 2.890625 15.480469 2.429688 14.914062 2.414062 C 13.699219 2.378906 13.492188 2.679688 13.097656 3.199219 C 12.917969 3.4375 12.789062 3.707031 12.726562 4 L 12.765625 14 L 11.902344 14 Z M 11.863281 3.960938 "/>
</g>
</g>
</svg>
