<?xml version="1.0" encoding="UTF-8" standalone="no"?>
<!-- Created with Inkscape (http://www.inkscape.org/) -->

<svg
   xmlns:dc="http://purl.org/dc/elements/1.1/"
   xmlns:cc="http://creativecommons.org/ns#"
   xmlns:rdf="http://www.w3.org/1999/02/22-rdf-syntax-ns#"
   xmlns:svg="http://www.w3.org/2000/svg"
   xmlns="http://www.w3.org/2000/svg"
   xmlns:xlink="http://www.w3.org/1999/xlink"
   xmlns:sodipodi="http://sodipodi.sourceforge.net/DTD/sodipodi-0.dtd"
   xmlns:inkscape="http://www.inkscape.org/namespaces/inkscape"
   width="30px"
   height="30px"
   version="1.1"
   id="svg8"
   inkscape:version="0.92.4 5da689c313, 2019-01-14"
   sodipodi:docname="container.svg">
  <defs
     id="defs2" />
  <sodipodi:namedview
     id="base"
     pagecolor="#ffffff"
     bordercolor="#666666"
     borderopacity="1.0"
     inkscape:pageopacity="0.0"
     inkscape:pageshadow="2"
     inkscape:zoom="13.049334"
     inkscape:cx="18.679046"
     inkscape:cy="12.165829"
     inkscape:document-units="px"
     inkscape:current-layer="layer1"
     showgrid="false"
     inkscape:snap-page="false"
     units="px"
     inkscape:window-width="1884"
     inkscape:window-height="1061"
     inkscape:window-x="0"
     inkscape:window-y="0"
     inkscape:window-maximized="1"
     fit-margin-top="0"
     fit-margin-left="0"
     fit-margin-right="0"
     fit-margin-bottom="0" />
  <metadata
     id="metadata5">
    <rdf:RDF>
      <cc:Work
         rdf:about="">
        <dc:format>image/svg+xml</dc:format>
        <dc:type
           rdf:resource="http://purl.org/dc/dcmitype/StillImage" />
        <dc:title></dc:title>
      </cc:Work>
    </rdf:RDF>
  </metadata>
    <circle
       style="color:#000000;clip-rule:nonzero;display:inline;overflow:visible;visibility:visible;opacity:1;isolation:auto;mix-blend-mode:normal;color-interpolation:sRGB;color-interpolation-filters:linearRGB;solid-color:#000000;solid-opacity:1;vector-effect:none;fill:#76009e;fill-opacity:1;fill-rule:evenodd;stroke:#ffffff;stroke-width:1;stroke-linecap:butt;stroke-linejoin:miter;stroke-miterlimit:4;stroke-dasharray:none;stroke-dashoffset:0;stroke-opacity:1;marker:none;color-rendering:auto;image-rendering:auto;shape-rendering:auto;text-rendering:auto;enable-background:accumulate"
       id="path815"
       cx="15"
       cy="15"
       r="14.5" />
<g transform="translate(8,6)"><g id="surface1">
<path style=" stroke:none;fill-rule:nonzero;fill:#FFFFFF;fill-opacity:1;" d="M 8.238281 1.820312 C 8.238281 2.828125 7.410156 3.644531 6.390625 3.644531 C 5.367188 3.644531 4.539062 2.828125 4.539062 1.820312 C 4.539062 0.816406 5.367188 0 6.390625 0 C 7.410156 0 8.238281 0.816406 8.238281 1.820312 Z M 8.238281 1.820312 "/>
<path style=" stroke:none;fill-rule:nonzero;fill:#FFFFFF;fill-opacity:1;" d="M 12.71875 14.480469 L 8.882812 14.480469 C 8.875 14.480469 8.867188 14.476562 8.867188 14.46875 C 8.863281 14.460938 8.863281 14.453125 8.871094 14.449219 C 9.679688 13.726562 11.015625 12.613281 11.214844 11.71875 C 11.421875 10.796875 10.207031 5.765625 10.195312 5.707031 C 9.816406 4.414062 8.449219 3.667969 7.136719 4.039062 C 7.132812 4.039062 7.132812 4.039062 7.132812 4.039062 L 2.488281 6.246094 C 2.476562 6.25 2.46875 6.246094 2.460938 6.238281 L 1.417969 4.675781 C 1.414062 4.675781 1.414062 4.675781 1.414062 4.675781 C 1.222656 4.320312 0.75 3.886719 0.390625 4.078125 C 0.03125 4.269531 -0.101562 4.707031 0.0898438 5.0625 C 0.0898438 5.0625 1.414062 7.820312 1.875 8.046875 C 2.242188 8.226562 5.386719 7.015625 5.667969 6.910156 C 5.671875 6.90625 5.679688 6.90625 5.683594 6.910156 C 5.6875 6.914062 5.691406 6.917969 5.691406 6.921875 L 6.8125 11.488281 C 6.886719 11.785156 6.800781 12.097656 6.585938 12.316406 L 4.175781 14.785156 C 4.171875 14.785156 4.171875 14.785156 4.171875 14.785156 C 3.898438 15.023438 3.742188 15.363281 3.742188 15.722656 L 3.742188 15.738281 C 3.742188 16.4375 4.316406 17 5.019531 17 L 12.71875 17 C 13.425781 17 14 16.4375 14 15.738281 C 14 15.042969 13.425781 14.480469 12.71875 14.480469 Z M 12.71875 14.480469 "/>
</g>
</g>
</svg>
