<?xml version="1.0" encoding="UTF-8" standalone="no"?>
<!-- Created with Inkscape (http://www.inkscape.org/) -->

<svg
   xmlns:dc="http://purl.org/dc/elements/1.1/"
   xmlns:cc="http://creativecommons.org/ns#"
   xmlns:rdf="http://www.w3.org/1999/02/22-rdf-syntax-ns#"
   xmlns:svg="http://www.w3.org/2000/svg"
   xmlns="http://www.w3.org/2000/svg"
   xmlns:xlink="http://www.w3.org/1999/xlink"
   xmlns:sodipodi="http://sodipodi.sourceforge.net/DTD/sodipodi-0.dtd"
   xmlns:inkscape="http://www.inkscape.org/namespaces/inkscape"
   width="30px"
   height="30px"
   version="1.1"
   id="svg8"
   inkscape:version="0.92.4 5da689c313, 2019-01-14"
   sodipodi:docname="container.svg">
  <defs
     id="defs2" />
  <sodipodi:namedview
     id="base"
     pagecolor="#ffffff"
     bordercolor="#666666"
     borderopacity="1.0"
     inkscape:pageopacity="0.0"
     inkscape:pageshadow="2"
     inkscape:zoom="13.049334"
     inkscape:cx="18.679046"
     inkscape:cy="12.165829"
     inkscape:document-units="px"
     inkscape:current-layer="layer1"
     showgrid="false"
     inkscape:snap-page="false"
     units="px"
     inkscape:window-width="1884"
     inkscape:window-height="1061"
     inkscape:window-x="0"
     inkscape:window-y="0"
     inkscape:window-maximized="1"
     fit-margin-top="0"
     fit-margin-left="0"
     fit-margin-right="0"
     fit-margin-bottom="0" />
  <metadata
     id="metadata5">
    <rdf:RDF>
      <cc:Work
         rdf:about="">
        <dc:format>image/svg+xml</dc:format>
        <dc:type
           rdf:resource="http://purl.org/dc/dcmitype/StillImage" />
        <dc:title></dc:title>
      </cc:Work>
    </rdf:RDF>
  </metadata>
    <circle
       style="color:#000000;clip-rule:nonzero;display:inline;overflow:visible;visibility:visible;opacity:1;isolation:auto;mix-blend-mode:normal;color-interpolation:sRGB;color-interpolation-filters:linearRGB;solid-color:#000000;solid-opacity:1;vector-effect:none;fill:#76009e;fill-opacity:1;fill-rule:evenodd;stroke:#ffffff;stroke-width:1;stroke-linecap:butt;stroke-linejoin:miter;stroke-miterlimit:4;stroke-dasharray:none;stroke-dashoffset:0;stroke-opacity:1;marker:none;color-rendering:auto;image-rendering:auto;shape-rendering:auto;text-rendering:auto;enable-background:accumulate"
       id="path815"
       cx="15"
       cy="15"
       r="14.5" />
<g transform="translate(6,7)"><g id="surface1">
<path style=" stroke:none;fill-rule:nonzero;fill:#FFFFFF;fill-opacity:1;" d="M 16.351562 4.230469 C 16.351562 4.230469 13.734375 3.410156 12.238281 3.410156 C 11.695312 3.410156 11 3.519531 10.335938 3.65625 L 10.335938 5.453125 C 10.335938 5.785156 10.253906 6.171875 10.121094 6.582031 C 10.621094 6.480469 11.15625 6.148438 11.164062 6.144531 C 11.234375 6.097656 11.320312 6.070312 11.40625 6.066406 C 11.578125 6.066406 11.765625 6.195312 11.765625 6.476562 L 11.765625 7.160156 C 11.765625 7.425781 11.582031 7.714844 11.34375 7.835938 C 11.328125 7.84375 10.910156 8.046875 10.199219 8.046875 C 9.84375 8.046875 9.585938 8.101562 9.421875 8.152344 C 8.964844 8.96875 8.429688 9.738281 7.820312 10.453125 C 8.714844 12.71875 11.101562 15 11.898438 15 L 12.578125 15 C 13.609375 15 17 10.859375 17 8.863281 L 17 5.113281 C 17 4.738281 16.707031 4.339844 16.351562 4.230469 Z M 14.054688 11.773438 C 13.992188 11.773438 13.929688 11.761719 13.871094 11.742188 C 13.867188 11.742188 13.183594 11.523438 12.238281 11.523438 C 11.296875 11.523438 10.613281 11.742188 10.609375 11.742188 C 10.550781 11.761719 10.488281 11.773438 10.425781 11.773438 C 10.289062 11.773438 10.160156 11.71875 10.066406 11.617188 C 9.976562 11.515625 9.925781 11.386719 9.929688 11.25 C 9.929688 10.96875 10.109375 10.644531 10.347656 10.5 C 10.386719 10.476562 11.25 9.953125 12.238281 9.953125 C 13.230469 9.953125 14.09375 10.476562 14.132812 10.5 C 14.371094 10.644531 14.550781 10.96875 14.550781 11.25 C 14.550781 11.546875 14.335938 11.773438 14.054688 11.773438 Z M 15.699219 8.148438 C 15.640625 8.226562 15.550781 8.269531 15.453125 8.269531 C 15.378906 8.265625 15.308594 8.25 15.246094 8.214844 C 15.242188 8.214844 14.886719 8.046875 14.28125 8.046875 C 13.570312 8.046875 13.152344 7.84375 13.136719 7.832031 C 12.894531 7.714844 12.714844 7.425781 12.714844 7.160156 L 12.714844 6.476562 C 12.714844 6.195312 12.902344 6.066406 13.074219 6.066406 C 13.160156 6.070312 13.246094 6.097656 13.316406 6.144531 C 13.324219 6.148438 14.070312 6.613281 14.621094 6.613281 C 15.367188 6.613281 15.703125 7.675781 15.738281 7.796875 C 15.792969 7.972656 15.746094 8.085938 15.699219 8.148438 Z M 9.519531 1.703125 C 9.519531 1.328125 9.226562 0.929688 8.871094 0.820312 C 8.871094 0.820312 6.253906 0 4.761719 0 C 3.265625 0 0.648438 0.820312 0.648438 0.820312 C 0.292969 0.929688 0 1.328125 0 1.703125 L 0 5.453125 C 0 8.089844 3.433594 11.589844 4.421875 11.589844 L 5.101562 11.589844 C 6.128906 11.589844 9.519531 7.453125 9.519531 5.453125 Z M 1.542969 4.175781 C 1.433594 4.179688 1.328125 4.128906 1.253906 4.046875 C 1.1875 3.960938 1.152344 3.859375 1.15625 3.75 C 1.15625 3.503906 1.289062 3.195312 1.46875 3.027344 C 1.558594 2.941406 2.382812 2.183594 3.058594 2.183594 C 3.785156 2.183594 4.070312 2.652344 4.082031 2.671875 C 4.195312 2.863281 4.285156 3.1875 4.285156 3.410156 L 4.285156 3.75 C 4.285156 3.996094 4.121094 4.175781 3.898438 4.175781 C 3.824219 4.175781 3.75 4.15625 3.683594 4.125 C 3.683594 4.121094 3.328125 3.953125 2.71875 3.953125 C 2.113281 3.953125 1.757812 4.121094 1.753906 4.125 C 1.6875 4.15625 1.617188 4.175781 1.542969 4.175781 Z M 6.652344 7.910156 C 6.613281 7.933594 5.75 8.453125 4.761719 8.453125 C 3.769531 8.453125 2.90625 7.933594 2.867188 7.910156 C 2.628906 7.765625 2.449219 7.441406 2.449219 7.160156 C 2.449219 6.859375 2.664062 6.636719 2.945312 6.636719 C 3.007812 6.636719 3.070312 6.644531 3.128906 6.664062 C 3.132812 6.667969 3.816406 6.886719 4.761719 6.886719 C 5.703125 6.886719 6.386719 6.667969 6.390625 6.664062 C 6.449219 6.644531 6.511719 6.636719 6.574219 6.636719 C 6.859375 6.636719 7.070312 6.859375 7.070312 7.160156 C 7.070312 7.441406 6.890625 7.765625 6.652344 7.910156 Z M 8.265625 4.046875 C 8.191406 4.128906 8.085938 4.179688 7.976562 4.175781 C 7.902344 4.175781 7.832031 4.15625 7.765625 4.125 C 7.761719 4.121094 7.40625 3.953125 6.800781 3.953125 C 6.191406 3.953125 5.839844 4.121094 5.835938 4.125 C 5.769531 4.15625 5.695312 4.175781 5.621094 4.175781 C 5.398438 4.175781 5.234375 3.996094 5.234375 3.75 L 5.234375 3.410156 C 5.234375 3.1875 5.324219 2.863281 5.4375 2.671875 C 5.449219 2.652344 5.734375 2.183594 6.460938 2.183594 C 7.136719 2.183594 7.960938 2.941406 8.050781 3.027344 C 8.230469 3.195312 8.363281 3.503906 8.363281 3.75 C 8.367188 3.859375 8.332031 3.960938 8.265625 4.046875 Z M 8.265625 4.046875 "/>
</g>
</g>
</svg>
