<?xml version="1.0" encoding="UTF-8"?>
<svg xmlns="http://www.w3.org/2000/svg" xmlns:xlink="http://www.w3.org/1999/xlink" width="9px" height="11px" viewBox="0 0 9 11" version="1.1">
<g id="surface1">
<path style=" stroke:none;fill-rule:nonzero;fill:rgb(30%,30%,30%);fill-opacity:1;" d="M 5.296875 1.179688 C 5.296875 1.828125 4.765625 2.359375 4.105469 2.359375 C 3.449219 2.359375 2.917969 1.828125 2.917969 1.179688 C 2.917969 0.527344 3.449219 0 4.105469 0 C 4.765625 0 5.296875 0.527344 5.296875 1.179688 Z M 5.296875 1.179688 "/>
<path style=" stroke:none;fill-rule:nonzero;fill:rgb(30%,30%,30%);fill-opacity:1;" d="M 8.175781 9.371094 L 5.710938 9.371094 C 5.707031 9.371094 5.703125 9.367188 5.699219 9.363281 C 5.699219 9.355469 5.699219 9.351562 5.703125 9.347656 C 6.222656 8.882812 7.082031 8.164062 7.210938 7.582031 C 7.34375 6.984375 6.5625 3.730469 6.554688 3.691406 C 6.3125 2.855469 5.429688 2.371094 4.585938 2.613281 L 1.597656 4.042969 C 1.59375 4.042969 1.585938 4.042969 1.582031 4.039062 L 0.910156 3.027344 C 0.785156 2.796875 0.480469 2.515625 0.25 2.636719 C 0.0195312 2.761719 -0.0664062 3.046875 0.0585938 3.277344 C 0.0585938 3.277344 0.910156 5.058594 1.207031 5.207031 C 1.441406 5.324219 3.460938 4.539062 3.644531 4.46875 C 3.648438 4.46875 3.648438 4.46875 3.652344 4.472656 C 3.65625 4.472656 3.660156 4.476562 3.660156 4.480469 L 4.378906 7.433594 C 4.425781 7.625 4.371094 7.828125 4.234375 7.96875 L 2.683594 9.566406 C 2.507812 9.71875 2.40625 9.941406 2.40625 10.171875 L 2.40625 10.183594 C 2.40625 10.636719 2.773438 11 3.226562 11 L 8.175781 11 C 8.628906 11 9 10.636719 9 10.183594 C 9 9.734375 8.628906 9.371094 8.175781 9.371094 Z M 8.175781 9.371094 "/>
</g>
</svg>
