<?xml version="1.0" encoding="UTF-8"?>
<svg xmlns="http://www.w3.org/2000/svg" xmlns:xlink="http://www.w3.org/1999/xlink" width="10px" height="11px" viewBox="0 0 10 11" version="1.1">
<g id="surface1">
<path style=" stroke:none;fill-rule:nonzero;fill:rgb(30%,30%,30%);fill-opacity:1;" d="M 0.335938 7.957031 L 9.664062 7.957031 C 9.847656 7.957031 10 8.109375 10 8.292969 L 10 10.667969 C 10 10.851562 9.847656 11 9.664062 11 L 0.335938 11 C 0.152344 11 0 10.851562 0 10.667969 L 0 8.292969 C 0 8.109375 0.152344 7.957031 0.335938 7.957031 Z M 0.335938 7.957031 "/>
<path style=" stroke:none;fill-rule:nonzero;fill:rgb(30%,30%,30%);fill-opacity:1;" d="M 8.445312 3.433594 L 8.445312 7.695312 L 1.515625 7.695312 L 1.515625 3.433594 C 1.515625 1.539062 3.066406 0 4.980469 0 C 6.894531 0 8.445312 1.539062 8.445312 3.433594 Z M 7.347656 5.332031 L 7.347656 5.328125 C 7.347656 5.1875 7.230469 5.070312 7.085938 5.066406 L 2.953125 5.066406 C 2.808594 5.070312 2.691406 5.1875 2.6875 5.328125 L 2.6875 5.332031 C 2.691406 5.476562 2.808594 5.59375 2.953125 5.59375 L 7.085938 5.59375 C 7.230469 5.59375 7.347656 5.476562 7.347656 5.332031 Z M 7.347656 6.34375 C 7.347656 6.199219 7.230469 6.082031 7.085938 6.082031 L 2.953125 6.082031 C 2.808594 6.082031 2.691406 6.199219 2.6875 6.34375 C 2.691406 6.488281 2.808594 6.605469 2.953125 6.605469 L 7.085938 6.605469 C 7.230469 6.605469 7.347656 6.488281 7.347656 6.34375 Z M 7.347656 3.304688 C 7.347656 3.160156 7.230469 3.042969 7.085938 3.042969 L 2.953125 3.042969 C 2.808594 3.042969 2.691406 3.160156 2.6875 3.304688 C 2.691406 3.449219 2.808594 3.566406 2.953125 3.566406 L 7.085938 3.566406 C 7.230469 3.566406 7.347656 3.449219 7.347656 3.304688 Z M 7.347656 4.320312 L 7.347656 4.316406 C 7.347656 4.171875 7.230469 4.054688 7.085938 4.054688 L 2.953125 4.054688 C 2.808594 4.054688 2.691406 4.171875 2.6875 4.316406 L 2.6875 4.320312 C 2.691406 4.464844 2.808594 4.578125 2.953125 4.582031 L 7.085938 4.582031 C 7.230469 4.578125 7.347656 4.464844 7.347656 4.320312 Z M 7.347656 4.320312 "/>
</g>
</svg>
