<?xml version="1.0" encoding="UTF-8"?>
<svg xmlns="http://www.w3.org/2000/svg" xmlns:xlink="http://www.w3.org/1999/xlink" width="10px" height="10px" viewBox="0 0 10 10" version="1.1">
<g id="surface1">
<path style=" stroke:none;fill-rule:nonzero;fill:rgb(30%,30%,30%);fill-opacity:1;" d="M 9.511719 9.492188 L 8.320312 1.347656 L 8.910156 1.347656 L 8.910156 0.00390625 L 7.925781 0.00390625 L 7.925781 0.796875 L 7.164062 0.796875 L 7.164062 0.00390625 L 6.195312 0.00390625 L 6.195312 0.796875 L 5.429688 0.796875 L 5.429688 0.00390625 L 4.460938 0.00390625 L 4.460938 0.796875 L 3.695312 0.796875 L 3.695312 0.00390625 L 2.726562 0.00390625 L 2.726562 0.796875 L 1.964844 0.796875 L 1.964844 0.00390625 L 0.996094 0.00390625 L 0.996094 1.347656 L 1.558594 1.347656 L 0.429688 9.480469 L 0 9.480469 L 0 9.996094 L 2.839844 9.996094 L 2.839844 9.636719 L 3.152344 5.757812 C 3.152344 4.824219 3.96875 4.058594 4.964844 4.058594 C 5.960938 4.058594 6.773438 4.824219 6.773438 5.757812 L 7.160156 9.625 L 7.160156 9.996094 L 10 9.996094 L 10 9.492188 Z M 9.511719 9.492188 "/>
</g>
</svg>
