<?xml version="1.0" encoding="UTF-8" standalone="no"?>
<!-- Created with Inkscape (http://www.inkscape.org/) -->

<svg
   xmlns:dc="http://purl.org/dc/elements/1.1/"
   xmlns:cc="http://creativecommons.org/ns#"
   xmlns:rdf="http://www.w3.org/1999/02/22-rdf-syntax-ns#"
   xmlns:svg="http://www.w3.org/2000/svg"
   xmlns="http://www.w3.org/2000/svg"
   xmlns:xlink="http://www.w3.org/1999/xlink"
   xmlns:sodipodi="http://sodipodi.sourceforge.net/DTD/sodipodi-0.dtd"
   xmlns:inkscape="http://www.inkscape.org/namespaces/inkscape"
   width="30px"
   height="30px"
   version="1.1"
   id="svg8"
   inkscape:version="0.92.4 5da689c313, 2019-01-14"
   sodipodi:docname="container.svg">
  <defs
     id="defs2" />
  <sodipodi:namedview
     id="base"
     pagecolor="#ffffff"
     bordercolor="#666666"
     borderopacity="1.0"
     inkscape:pageopacity="0.0"
     inkscape:pageshadow="2"
     inkscape:zoom="13.049334"
     inkscape:cx="18.679046"
     inkscape:cy="12.165829"
     inkscape:document-units="px"
     inkscape:current-layer="layer1"
     showgrid="false"
     inkscape:snap-page="false"
     units="px"
     inkscape:window-width="1884"
     inkscape:window-height="1061"
     inkscape:window-x="0"
     inkscape:window-y="0"
     inkscape:window-maximized="1"
     fit-margin-top="0"
     fit-margin-left="0"
     fit-margin-right="0"
     fit-margin-bottom="0" />
  <metadata
     id="metadata5">
    <rdf:RDF>
      <cc:Work
         rdf:about="">
        <dc:format>image/svg+xml</dc:format>
        <dc:type
           rdf:resource="http://purl.org/dc/dcmitype/StillImage" />
        <dc:title></dc:title>
      </cc:Work>
    </rdf:RDF>
  </metadata>
    <circle
       style="color:#000000;clip-rule:nonzero;display:inline;overflow:visible;visibility:visible;opacity:1;isolation:auto;mix-blend-mode:normal;color-interpolation:sRGB;color-interpolation-filters:linearRGB;solid-color:#000000;solid-opacity:1;vector-effect:none;fill:#76009e;fill-opacity:1;fill-rule:evenodd;stroke:#ffffff;stroke-width:1;stroke-linecap:butt;stroke-linejoin:miter;stroke-miterlimit:4;stroke-dasharray:none;stroke-dashoffset:0;stroke-opacity:1;marker:none;color-rendering:auto;image-rendering:auto;shape-rendering:auto;text-rendering:auto;enable-background:accumulate"
       id="path815"
       cx="15"
       cy="15"
       r="14.5" />
<g transform="translate(7,7)"><g id="surface1">
<path style=" stroke:none;fill-rule:nonzero;fill:#FFFFFF;fill-opacity:1;" d="M 0.503906 11.578125 L 14.496094 11.578125 C 14.773438 11.578125 15 11.792969 15 12.0625 L 15 15.515625 C 15 15.78125 14.773438 16 14.496094 16 L 0.503906 16 C 0.226562 16 0 15.78125 0 15.515625 L 0 12.0625 C 0 11.792969 0.226562 11.578125 0.503906 11.578125 Z M 0.503906 11.578125 "/>
<path style=" stroke:none;fill-rule:nonzero;fill:#FFFFFF;fill-opacity:1;" d="M 12.671875 4.996094 L 12.671875 11.195312 L 2.273438 11.195312 L 2.273438 4.996094 C 2.273438 2.238281 4.601562 0 7.472656 0 C 10.34375 0 12.671875 2.238281 12.671875 4.996094 Z M 11.023438 7.753906 C 11.023438 7.542969 10.84375 7.371094 10.625 7.371094 L 4.429688 7.371094 C 4.210938 7.371094 4.035156 7.542969 4.035156 7.753906 C 4.035156 7.964844 4.210938 8.136719 4.429688 8.136719 L 10.625 8.136719 C 10.84375 8.136719 11.023438 7.964844 11.023438 7.753906 Z M 11.023438 9.230469 L 11.023438 9.226562 C 11.023438 9.015625 10.84375 8.847656 10.625 8.847656 L 4.429688 8.847656 C 4.210938 8.847656 4.035156 9.015625 4.035156 9.226562 L 4.035156 9.230469 C 4.035156 9.441406 4.210938 9.609375 4.429688 9.609375 L 10.625 9.609375 C 10.84375 9.609375 11.023438 9.441406 11.023438 9.230469 Z M 11.023438 4.808594 L 11.023438 4.804688 C 11.023438 4.59375 10.84375 4.425781 10.625 4.421875 L 4.429688 4.421875 C 4.210938 4.425781 4.035156 4.59375 4.035156 4.804688 L 4.035156 4.808594 C 4.035156 5.015625 4.210938 5.1875 4.429688 5.1875 L 10.625 5.1875 C 10.84375 5.1875 11.023438 5.015625 11.023438 4.808594 Z M 11.023438 6.28125 L 11.023438 6.277344 C 11.023438 6.070312 10.84375 5.898438 10.625 5.898438 L 4.429688 5.898438 C 4.210938 5.898438 4.035156 6.070312 4.035156 6.277344 L 4.035156 6.28125 C 4.035156 6.492188 4.210938 6.660156 4.429688 6.664062 L 10.625 6.664062 C 10.84375 6.660156 11.023438 6.492188 11.023438 6.28125 Z M 11.023438 6.28125 "/>
</g>
</g>
</svg>
