<?xml version="1.0" encoding="UTF-8"?>
<svg xmlns="http://www.w3.org/2000/svg" xmlns:xlink="http://www.w3.org/1999/xlink" width="11px" height="9px" viewBox="0 0 11 9" version="1.1">
<g id="surface1">
<path style=" stroke:none;fill-rule:nonzero;fill:rgb(30%,30%,30%);fill-opacity:1;" d="M 0.132812 0 L 10.808594 0 L 10.808594 0.796875 L 0.132812 0.796875 Z M 7.574219 1.863281 L 3.390625 1.863281 L 2.832031 1.0625 L 8.183594 1.0625 Z M 3.765625 9 L 3.765625 2.152344 L 4.558594 2.152344 L 4.558594 9 Z M 5.042969 9 L 5.042969 2.152344 L 5.839844 2.152344 L 5.839844 9 Z M 6.382812 9 L 6.382812 2.152344 L 7.179688 2.152344 L 7.179688 9 Z M 3.324219 2.554688 C 3.324219 2.542969 3.324219 2.527344 3.320312 2.515625 C 3.316406 2.472656 3.257812 2.117188 2.988281 1.75 C 2.734375 1.410156 2.378906 0.988281 1.480469 0.988281 C 1.097656 0.988281 0.617188 1.164062 0.367188 1.460938 C 0.148438 1.71875 0.015625 2.066406 0.00390625 2.417969 C -0.0195312 3.054688 0.355469 3.722656 1.25 3.789062 C 1.8125 3.828125 2.085938 3.542969 2.199219 3.367188 C 2.402344 3.050781 2.410156 2.605469 2.222656 2.261719 C 2.074219 1.992188 1.835938 1.832031 1.558594 1.824219 C 1.445312 1.808594 1.15625 1.804688 0.960938 1.953125 C 0.863281 2.027344 0.796875 2.121094 0.785156 2.246094 C 0.765625 2.398438 0.875 2.523438 1.027344 2.539062 C 1.148438 2.554688 1.265625 2.484375 1.3125 2.375 C 1.371094 2.367188 1.429688 2.371094 1.488281 2.378906 C 1.503906 2.382812 1.519531 2.382812 1.535156 2.382812 C 1.632812 2.382812 1.753906 2.460938 1.792969 2.527344 C 1.878906 2.691406 1.863281 2.898438 1.730469 3.066406 C 1.636719 3.179688 1.5 3.246094 1.289062 3.230469 C 0.589844 3.179688 0.554688 2.609375 0.558594 2.4375 C 0.582031 1.867188 0.980469 1.570312 1.347656 1.558594 C 2.136719 1.539062 2.269531 1.730469 2.527344 2.066406 C 2.640625 2.21875 2.722656 2.394531 2.765625 2.578125 L 2.742188 9 L 3.296875 9 Z M 7.675781 2.546875 C 7.675781 2.53125 7.675781 2.519531 7.679688 2.503906 C 7.683594 2.464844 7.742188 2.105469 8.011719 1.742188 C 8.265625 1.402344 8.621094 0.980469 9.519531 0.980469 C 9.902344 0.980469 10.382812 1.15625 10.632812 1.453125 C 10.851562 1.710938 10.984375 2.058594 10.996094 2.410156 C 11.019531 3.042969 10.644531 3.714844 9.75 3.777344 C 9.1875 3.820312 8.914062 3.53125 8.800781 3.359375 C 8.597656 3.042969 8.589844 2.597656 8.777344 2.25 C 8.925781 1.984375 9.164062 1.824219 9.441406 1.816406 C 9.554688 1.796875 9.84375 1.796875 10.039062 1.945312 C 10.136719 2.019531 10.203125 2.113281 10.214844 2.234375 C 10.234375 2.390625 10.125 2.515625 9.972656 2.53125 C 9.851562 2.542969 9.734375 2.476562 9.6875 2.363281 C 9.628906 2.359375 9.570312 2.359375 9.511719 2.371094 C 9.496094 2.371094 9.480469 2.375 9.464844 2.375 C 9.367188 2.375 9.246094 2.453125 9.207031 2.519531 C 9.121094 2.683594 9.136719 2.890625 9.269531 3.054688 C 9.363281 3.171875 9.5 3.238281 9.710938 3.222656 C 10.410156 3.171875 10.445312 2.601562 10.441406 2.429688 C 10.417969 1.859375 10.019531 1.5625 9.652344 1.550781 C 8.863281 1.527344 8.730469 1.722656 8.472656 2.058594 C 8.359375 2.210938 8.277344 2.382812 8.234375 2.570312 L 8.257812 9 L 7.703125 9 Z M 7.675781 2.546875 "/>
</g>
</svg>
