<?xml version="1.0" encoding="UTF-8"?>
<svg xmlns="http://www.w3.org/2000/svg" xmlns:xlink="http://www.w3.org/1999/xlink" width="9px" height="10px" viewBox="0 0 9 10" version="1.1">
<g id="surface1">
<path style=" stroke:none;fill-rule:nonzero;fill:rgb(30%,30%,30%);fill-opacity:1;" d="M 8.246094 9.230469 L 7.492188 9.234375 L 7.492188 8.5625 C 7.492188 8.136719 7.128906 7.789062 6.683594 7.789062 L 2.3125 7.789062 C 1.867188 7.789062 1.503906 8.136719 1.503906 8.5625 L 1.503906 9.242188 L 0.753906 9.242188 L 0 10 L 9 10 Z M 8.246094 9.230469 "/>
<path style=" stroke:none;fill-rule:nonzero;fill:rgb(30%,30%,30%);fill-opacity:1;" d="M 5.988281 7.128906 L 3.023438 7.128906 L 3.011719 1.378906 C 3.011719 1.328125 3.03125 1.28125 3.070312 1.246094 L 4.308594 0.078125 C 4.417969 -0.0273438 4.59375 -0.0273438 4.703125 0.078125 L 5.941406 1.246094 C 5.976562 1.28125 6 1.328125 6 1.378906 Z M 5.988281 7.128906 "/>
</g>
</svg>
