<?xml version="1.0" encoding="UTF-8"?>
<svg xmlns="http://www.w3.org/2000/svg" xmlns:xlink="http://www.w3.org/1999/xlink" width="9px" height="11px" viewBox="0 0 9 11" version="1.1">
<g id="surface1">
<path style=" stroke:none;fill-rule:nonzero;fill:rgb(30%,30%,30%);fill-opacity:1;" d="M 8.996094 9.714844 L 8.996094 10.910156 C 8.996094 10.957031 8.953125 11 8.902344 11 L 0.0976562 11 C 0.046875 11 0.00390625 10.957031 0.00390625 10.910156 L 0.00390625 9.714844 C 0.00390625 9.667969 0.046875 9.625 0.0976562 9.625 L 8.902344 9.625 C 8.953125 9.625 8.996094 9.667969 8.996094 9.714844 Z M 5.683594 1.285156 L 5.683594 0.0898438 C 5.683594 0.0429688 5.640625 0 5.589844 0 L 3.410156 0 C 3.359375 0 3.316406 0.0429688 3.316406 0.0898438 L 3.316406 1.285156 C 3.316406 1.332031 3.273438 1.375 3.222656 1.375 L 2.464844 1.375 C 2.414062 1.375 2.371094 1.332031 2.371094 1.285156 L 2.371094 0.550781 C 2.371094 0.5 2.328125 0.457031 2.273438 0.457031 L 1.042969 0.457031 C 0.992188 0.457031 0.949219 0.5 0.949219 0.550781 L 0.949219 2.660156 C 0.949219 2.707031 0.992188 2.75 1.042969 2.75 L 7.957031 2.75 C 8.007812 2.75 8.050781 2.707031 8.050781 2.660156 L 8.050781 0.550781 C 8.050781 0.5 8.007812 0.457031 7.957031 0.457031 L 6.726562 0.457031 C 6.671875 0.457031 6.628906 0.5 6.628906 0.550781 L 6.628906 1.285156 C 6.628906 1.332031 6.585938 1.375 6.535156 1.375 L 5.777344 1.375 C 5.726562 1.375 5.683594 1.332031 5.683594 1.285156 Z M 1.179688 9.167969 L 7.820312 9.167969 C 7.859375 9.167969 7.894531 9.144531 7.910156 9.109375 C 7.921875 9.074219 7.914062 9.035156 7.886719 9.011719 L 6.65625 7.820312 C 6.640625 7.800781 6.628906 7.777344 6.628906 7.753906 L 6.628906 5.070312 C 6.628906 5.050781 6.636719 5.03125 6.648438 5.015625 L 7.9375 3.355469 C 7.957031 3.328125 7.960938 3.289062 7.945312 3.257812 C 7.929688 3.226562 7.898438 3.207031 7.859375 3.207031 L 1.140625 3.207031 C 1.101562 3.207031 1.070312 3.226562 1.054688 3.257812 C 1.039062 3.289062 1.042969 3.328125 1.0625 3.355469 L 2.351562 5.015625 C 2.363281 5.03125 2.371094 5.050781 2.371094 5.070312 L 2.371094 7.753906 C 2.371094 7.777344 2.359375 7.800781 2.34375 7.820312 L 1.113281 9.011719 C 1.085938 9.035156 1.078125 9.074219 1.089844 9.109375 C 1.105469 9.144531 1.140625 9.167969 1.179688 9.167969 Z M 1.179688 9.167969 "/>
</g>
</svg>
