<?xml version="1.0" encoding="UTF-8" standalone="no"?>
<!-- Created with Inkscape (http://www.inkscape.org/) -->

<svg
   xmlns:dc="http://purl.org/dc/elements/1.1/"
   xmlns:cc="http://creativecommons.org/ns#"
   xmlns:rdf="http://www.w3.org/1999/02/22-rdf-syntax-ns#"
   xmlns:svg="http://www.w3.org/2000/svg"
   xmlns="http://www.w3.org/2000/svg"
   xmlns:xlink="http://www.w3.org/1999/xlink"
   xmlns:sodipodi="http://sodipodi.sourceforge.net/DTD/sodipodi-0.dtd"
   xmlns:inkscape="http://www.inkscape.org/namespaces/inkscape"
   width="30px"
   height="30px"
   version="1.1"
   id="svg8"
   inkscape:version="0.92.4 5da689c313, 2019-01-14"
   sodipodi:docname="container.svg">
  <defs
     id="defs2" />
  <sodipodi:namedview
     id="base"
     pagecolor="#ffffff"
     bordercolor="#666666"
     borderopacity="1.0"
     inkscape:pageopacity="0.0"
     inkscape:pageshadow="2"
     inkscape:zoom="13.049334"
     inkscape:cx="18.679046"
     inkscape:cy="12.165829"
     inkscape:document-units="px"
     inkscape:current-layer="layer1"
     showgrid="false"
     inkscape:snap-page="false"
     units="px"
     inkscape:window-width="1884"
     inkscape:window-height="1061"
     inkscape:window-x="0"
     inkscape:window-y="0"
     inkscape:window-maximized="1"
     fit-margin-top="0"
     fit-margin-left="0"
     fit-margin-right="0"
     fit-margin-bottom="0" />
  <metadata
     id="metadata5">
    <rdf:RDF>
      <cc:Work
         rdf:about="">
        <dc:format>image/svg+xml</dc:format>
        <dc:type
           rdf:resource="http://purl.org/dc/dcmitype/StillImage" />
        <dc:title></dc:title>
      </cc:Work>
    </rdf:RDF>
  </metadata>
    <circle
       style="color:#000000;clip-rule:nonzero;display:inline;overflow:visible;visibility:visible;opacity:1;isolation:auto;mix-blend-mode:normal;color-interpolation:sRGB;color-interpolation-filters:linearRGB;solid-color:#000000;solid-opacity:1;vector-effect:none;fill:#76009e;fill-opacity:1;fill-rule:evenodd;stroke:#ffffff;stroke-width:1;stroke-linecap:butt;stroke-linejoin:miter;stroke-miterlimit:4;stroke-dasharray:none;stroke-dashoffset:0;stroke-opacity:1;marker:none;color-rendering:auto;image-rendering:auto;shape-rendering:auto;text-rendering:auto;enable-background:accumulate"
       id="path815"
       cx="15"
       cy="15"
       r="14.5" />
<g transform="translate(7,7)"><g id="surface1">
<path style=" stroke:none;fill-rule:nonzero;fill:#FFFFFF;fill-opacity:1;" d="M 14.644531 15.992188 L 1.355469 15.992188 C 0.996094 15.992188 0.652344 15.839844 0.398438 15.574219 C 0.140625 15.304688 0 14.9375 0 14.558594 L 0 1.441406 C 0 1.0625 0.140625 0.695312 0.398438 0.425781 C 0.652344 0.160156 0.996094 0.0078125 1.355469 0.0078125 L 14.644531 0.0078125 C 15.003906 0.0078125 15.347656 0.160156 15.601562 0.425781 C 15.859375 0.695312 16 1.0625 16 1.441406 L 16 14.558594 C 16 15.351562 15.394531 15.992188 14.644531 15.992188 Z M 1.09375 2.550781 L 2.304688 2.550781 L 2.304688 1.273438 L 1.09375 1.273438 Z M 1.09375 4.972656 L 2.304688 4.972656 L 2.304688 3.695312 L 1.09375 3.695312 Z M 1.09375 7.394531 L 2.304688 7.394531 L 2.304688 6.117188 L 1.09375 6.117188 Z M 1.09375 9.8125 L 2.304688 9.8125 L 2.304688 8.535156 L 1.09375 8.535156 Z M 1.09375 12.234375 L 2.304688 12.234375 L 2.304688 10.957031 L 1.09375 10.957031 Z M 1.09375 14.65625 L 2.304688 14.65625 L 2.304688 13.378906 L 1.09375 13.378906 Z M 13.675781 2.550781 L 14.882812 2.550781 L 14.882812 1.273438 L 13.675781 1.273438 Z M 13.675781 4.972656 L 14.882812 4.972656 L 14.882812 3.695312 L 13.675781 3.695312 Z M 13.675781 7.394531 L 14.882812 7.394531 L 14.882812 6.117188 L 13.675781 6.117188 Z M 13.675781 9.8125 L 14.882812 9.8125 L 14.882812 8.535156 L 13.675781 8.535156 Z M 13.675781 12.234375 L 14.882812 12.234375 L 14.882812 10.957031 L 13.675781 10.957031 Z M 13.675781 14.65625 L 14.882812 14.65625 L 14.882812 13.378906 L 13.675781 13.378906 Z M 4.59375 7.394531 L 11.433594 7.394531 L 11.433594 1.273438 L 4.59375 1.273438 Z M 4.59375 14.65625 L 11.433594 14.65625 L 11.433594 8.535156 L 4.59375 8.535156 Z M 4.59375 14.65625 "/>
</g>
</g>
</svg>
