<?xml version="1.0" encoding="UTF-8"?>
<svg xmlns="http://www.w3.org/2000/svg" xmlns:xlink="http://www.w3.org/1999/xlink" width="11px" height="11px" viewBox="0 0 11 11" version="1.1">
<g id="surface1">
<path style=" stroke:none;fill-rule:nonzero;fill:rgb(30%,30%,30%);fill-opacity:1;" d="M 4.125 5.71875 L 9.164062 5.71875 L 10.539062 7.039062 L 10.539062 7.480469 L 4.125 7.480469 Z M 10.996094 10.5625 L 10.996094 11 L 0.460938 11 L 0.460938 4.839844 L 0.00390625 4.839844 L 0.00390625 4.398438 L 1.835938 2.664062 L 1.835938 1.320312 L 0.921875 1.320312 L 0.921875 0.882812 L 1.835938 0.882812 L 1.835938 0 L 2.292969 0 L 2.292969 0.882812 L 3.210938 0.882812 L 3.210938 1.320312 L 2.292969 1.320312 L 2.292969 2.664062 L 4.125 4.398438 L 4.125 4.839844 L 3.667969 4.839844 L 3.667969 7.921875 L 10.539062 7.921875 L 10.539062 10.5625 Z M 5.042969 8.800781 L 4.582031 8.800781 L 4.582031 10.121094 L 5.042969 10.121094 Z M 5.957031 8.800781 L 5.5 8.800781 L 5.5 10.121094 L 5.957031 10.121094 Z M 6.875 8.800781 L 6.414062 8.800781 L 6.414062 10.121094 L 6.875 10.121094 Z M 7.789062 8.800781 L 7.332031 8.800781 L 7.332031 10.121094 L 7.789062 10.121094 Z M 8.707031 8.800781 L 8.246094 8.800781 L 8.246094 10.121094 L 8.707031 10.121094 Z M 9.621094 8.800781 L 9.164062 8.800781 L 9.164062 10.121094 L 9.621094 10.121094 Z M 9.621094 8.800781 "/>
</g>
</svg>
