<?xml version="1.0" encoding="UTF-8" standalone="no"?>
<!-- Created with Inkscape (http://www.inkscape.org/) -->

<svg
   xmlns:dc="http://purl.org/dc/elements/1.1/"
   xmlns:cc="http://creativecommons.org/ns#"
   xmlns:rdf="http://www.w3.org/1999/02/22-rdf-syntax-ns#"
   xmlns:svg="http://www.w3.org/2000/svg"
   xmlns="http://www.w3.org/2000/svg"
   xmlns:xlink="http://www.w3.org/1999/xlink"
   xmlns:sodipodi="http://sodipodi.sourceforge.net/DTD/sodipodi-0.dtd"
   xmlns:inkscape="http://www.inkscape.org/namespaces/inkscape"
   width="30px"
   height="30px"
   version="1.1"
   id="svg8"
   inkscape:version="0.92.4 5da689c313, 2019-01-14"
   sodipodi:docname="container.svg">
  <defs
     id="defs2" />
  <sodipodi:namedview
     id="base"
     pagecolor="#ffffff"
     bordercolor="#666666"
     borderopacity="1.0"
     inkscape:pageopacity="0.0"
     inkscape:pageshadow="2"
     inkscape:zoom="13.049334"
     inkscape:cx="18.679046"
     inkscape:cy="12.165829"
     inkscape:document-units="px"
     inkscape:current-layer="layer1"
     showgrid="false"
     inkscape:snap-page="false"
     units="px"
     inkscape:window-width="1884"
     inkscape:window-height="1061"
     inkscape:window-x="0"
     inkscape:window-y="0"
     inkscape:window-maximized="1"
     fit-margin-top="0"
     fit-margin-left="0"
     fit-margin-right="0"
     fit-margin-bottom="0" />
  <metadata
     id="metadata5">
    <rdf:RDF>
      <cc:Work
         rdf:about="">
        <dc:format>image/svg+xml</dc:format>
        <dc:type
           rdf:resource="http://purl.org/dc/dcmitype/StillImage" />
        <dc:title></dc:title>
      </cc:Work>
    </rdf:RDF>
  </metadata>
    <circle
       style="color:#000000;clip-rule:nonzero;display:inline;overflow:visible;visibility:visible;opacity:1;isolation:auto;mix-blend-mode:normal;color-interpolation:sRGB;color-interpolation-filters:linearRGB;solid-color:#000000;solid-opacity:1;vector-effect:none;fill:#76009e;fill-opacity:1;fill-rule:evenodd;stroke:#ffffff;stroke-width:1;stroke-linecap:butt;stroke-linejoin:miter;stroke-miterlimit:4;stroke-dasharray:none;stroke-dashoffset:0;stroke-opacity:1;marker:none;color-rendering:auto;image-rendering:auto;shape-rendering:auto;text-rendering:auto;enable-background:accumulate"
       id="path815"
       cx="15"
       cy="15"
       r="14.5" />
<g transform="translate(7,6)"><g id="surface1">
<path style=" stroke:none;fill-rule:nonzero;fill:#FFFFFF;fill-opacity:1;" d="M 15.230469 3.371094 C 14.136719 2.289062 12.242188 2.386719 10.570312 3.488281 C 10.5625 3.234375 10.589844 2.976562 10.640625 2.726562 C 10.773438 2.074219 11.238281 1.484375 11.40625 1.28125 L 12.917969 1.28125 L 12.917969 0 L 3.15625 0 L 3.15625 1.28125 L 4.613281 1.28125 C 4.800781 1.417969 4.96875 1.582031 5.109375 1.765625 C 5.414062 2.167969 5.527344 3.011719 5.570312 3.585938 C 3.867188 2.394531 1.894531 2.257812 0.769531 3.371094 C 0.105469 4.027344 -0.140625 4.992188 0.0820312 6.09375 C 0.285156 7.097656 0.867188 8.113281 1.714844 8.949219 C 1.972656 9.203125 2.242188 9.5 2.527344 9.816406 C 2.800781 10.113281 3.085938 10.425781 3.394531 10.742188 C 3.765625 12.316406 4.554688 13.890625 5.597656 14.90625 L 5.597656 15.84375 L 4.296875 16.359375 L 4.296875 17 L 11.617188 17 L 11.617188 16.359375 L 10.476562 15.84375 L 10.476562 14.90625 C 11.542969 13.867188 12.34375 12.25 12.703125 10.640625 C 12.976562 10.359375 13.230469 10.082031 13.472656 9.816406 C 13.757812 9.5 14.027344 9.203125 14.285156 8.949219 C 15.132812 8.113281 15.714844 7.097656 15.917969 6.09375 C 16.140625 4.992188 15.894531 4.027344 15.230469 3.371094 Z M 3.160156 8.585938 C 2.980469 8.398438 2.808594 8.214844 2.636719 8.042969 C 1.96875 7.382812 1.511719 6.601562 1.359375 5.839844 C 1.28125 5.457031 1.21875 4.738281 1.691406 4.277344 C 2.429688 3.550781 4.039062 3.894531 5.304688 5.019531 C 3.871094 5.367188 3.199219 6.273438 3.160156 8.585938 Z M 14.640625 5.839844 C 14.488281 6.601562 14.03125 7.382812 13.363281 8.042969 C 13.214844 8.191406 13.066406 8.34375 12.914062 8.507812 C 12.863281 6.28125 12.21875 5.371094 10.695312 5.015625 C 11.964844 3.894531 13.570312 3.550781 14.308594 4.277344 C 14.78125 4.738281 14.71875 5.457031 14.640625 5.839844 Z M 14.640625 5.839844 "/>
</g>
</g>
</svg>
