<?xml version="1.0" encoding="UTF-8"?>
<svg xmlns="http://www.w3.org/2000/svg" xmlns:xlink="http://www.w3.org/1999/xlink" width="11px" height="11px" viewBox="0 0 11 11" version="1.1">
<g id="surface1">
<path style=" stroke:none;fill-rule:nonzero;fill:rgb(30%,30%,30%);fill-opacity:1;" d="M 8.601562 4.027344 C 8.429688 6.882812 5.433594 5.796875 4.832031 6.308594 C 4.5 6.59375 4.5 7.003906 4.832031 7.316406 C 5.289062 7.75 5.109375 8.539062 4.476562 8.59375 C 2.015625 8.8125 0 6.878906 0 4.433594 C 0 1.988281 2.003906 0.00390625 4.476562 0.00390625 C 6.949219 0.00390625 8.722656 1.949219 8.601562 4.027344 Z M 6.902344 2.757812 C 6.4375 2.757812 6.0625 3.128906 6.0625 3.589844 C 6.0625 4.050781 6.4375 4.421875 6.902344 4.421875 C 7.367188 4.421875 7.746094 4.050781 7.746094 3.589844 C 7.746094 3.128906 7.367188 2.757812 6.902344 2.757812 Z M 5.523438 0.855469 C 5.058594 0.855469 4.679688 1.230469 4.679688 1.691406 C 4.679688 2.152344 5.058594 2.523438 5.523438 2.523438 C 5.988281 2.523438 6.363281 2.152344 6.363281 1.691406 C 6.363281 1.230469 5.988281 0.855469 5.523438 0.855469 Z M 3.140625 0.882812 C 2.675781 0.882812 2.296875 1.253906 2.296875 1.714844 C 2.296875 2.175781 2.675781 2.546875 3.140625 2.546875 C 3.605469 2.546875 3.980469 2.175781 3.980469 1.714844 C 3.980469 1.253906 3.605469 0.882812 3.140625 0.882812 Z M 1.703125 2.777344 C 1.238281 2.777344 0.863281 3.152344 0.863281 3.613281 C 0.863281 4.070312 1.238281 4.445312 1.703125 4.445312 C 2.167969 4.445312 2.546875 4.070312 2.546875 3.613281 C 2.546875 3.152344 2.167969 2.777344 1.703125 2.777344 Z M 1.703125 2.777344 "/>
<path style=" stroke:none;fill-rule:nonzero;fill:rgb(30%,30%,30%);fill-opacity:1;" d="M 5.046875 9.164062 C 4.636719 9.167969 4.460938 9.402344 4.390625 9.734375 C 4.375 9.804688 4.363281 9.9375 4.351562 10.007812 C 4.316406 10.246094 4.304688 10.214844 4.289062 10.285156 C 4.261719 10.421875 4.121094 10.652344 4.027344 10.765625 C 3.734375 11.109375 3.980469 10.980469 4.0625 10.9375 C 4.183594 10.878906 4.191406 10.863281 4.503906 10.734375 C 4.804688 10.613281 4.914062 10.527344 5.097656 10.480469 C 5.425781 10.390625 5.710938 10.167969 5.714844 9.832031 C 5.722656 9.460938 5.457031 9.164062 5.046875 9.164062 Z M 5.046875 9.164062 "/>
<path style=" stroke:none;fill-rule:nonzero;fill:rgb(30%,30%,30%);fill-opacity:1;" d="M 5.820312 9.472656 L 7.28125 8.394531 L 6.5 7.613281 L 5.445312 9.074219 Z M 5.820312 9.472656 "/>
<path style=" stroke:none;fill-rule:nonzero;fill:rgb(30%,30%,30%);fill-opacity:1;" d="M 7.46875 8.25 L 6.679688 7.445312 C 6.589844 7.472656 10.648438 3.789062 10.980469 3.964844 C 11.3125 4.140625 7.527344 8.28125 7.46875 8.25 Z M 7.46875 8.25 "/>
</g>
</svg>
