<?xml version="1.0" encoding="UTF-8" standalone="no"?>
<!-- Created with Inkscape (http://www.inkscape.org/) -->

<svg
   xmlns:dc="http://purl.org/dc/elements/1.1/"
   xmlns:cc="http://creativecommons.org/ns#"
   xmlns:rdf="http://www.w3.org/1999/02/22-rdf-syntax-ns#"
   xmlns:svg="http://www.w3.org/2000/svg"
   xmlns="http://www.w3.org/2000/svg"
   xmlns:xlink="http://www.w3.org/1999/xlink"
   xmlns:sodipodi="http://sodipodi.sourceforge.net/DTD/sodipodi-0.dtd"
   xmlns:inkscape="http://www.inkscape.org/namespaces/inkscape"
   width="30px"
   height="30px"
   version="1.1"
   id="svg8"
   inkscape:version="0.92.4 5da689c313, 2019-01-14"
   sodipodi:docname="container.svg">
  <defs
     id="defs2" />
  <sodipodi:namedview
     id="base"
     pagecolor="#ffffff"
     bordercolor="#666666"
     borderopacity="1.0"
     inkscape:pageopacity="0.0"
     inkscape:pageshadow="2"
     inkscape:zoom="13.049334"
     inkscape:cx="18.679046"
     inkscape:cy="12.165829"
     inkscape:document-units="px"
     inkscape:current-layer="layer1"
     showgrid="false"
     inkscape:snap-page="false"
     units="px"
     inkscape:window-width="1884"
     inkscape:window-height="1061"
     inkscape:window-x="0"
     inkscape:window-y="0"
     inkscape:window-maximized="1"
     fit-margin-top="0"
     fit-margin-left="0"
     fit-margin-right="0"
     fit-margin-bottom="0" />
  <metadata
     id="metadata5">
    <rdf:RDF>
      <cc:Work
         rdf:about="">
        <dc:format>image/svg+xml</dc:format>
        <dc:type
           rdf:resource="http://purl.org/dc/dcmitype/StillImage" />
        <dc:title></dc:title>
      </cc:Work>
    </rdf:RDF>
  </metadata>
    <circle
       style="color:#000000;clip-rule:nonzero;display:inline;overflow:visible;visibility:visible;opacity:1;isolation:auto;mix-blend-mode:normal;color-interpolation:sRGB;color-interpolation-filters:linearRGB;solid-color:#000000;solid-opacity:1;vector-effect:none;fill:#ffffff;fill-opacity:1;fill-rule:evenodd;stroke:#76009e;stroke-width:1;stroke-linecap:butt;stroke-linejoin:miter;stroke-miterlimit:4;stroke-dasharray:none;stroke-dashoffset:0;stroke-opacity:1;marker:none;color-rendering:auto;image-rendering:auto;shape-rendering:auto;text-rendering:auto;enable-background:accumulate"
       id="path815"
       cx="15"
       cy="15"
       r="14.5" />
<g transform="translate(7,7)"><g id="surface1">
<path style=" stroke:none;fill-rule:nonzero;fill:rgb(30%,30%,30%);fill-opacity:1;" d="M 6 8.320312 L 13.328125 8.320312 L 15.328125 10.242188 L 15.328125 10.882812 L 6 10.882812 Z M 15.992188 15.363281 L 15.992188 16 L 0.671875 16 L 0.671875 7.039062 L 0.0078125 7.039062 L 0.0078125 6.398438 L 2.671875 3.875 L 2.671875 1.921875 L 1.339844 1.921875 L 1.339844 1.28125 L 2.671875 1.28125 L 2.671875 0 L 3.335938 0 L 3.335938 1.28125 L 4.667969 1.28125 L 4.667969 1.921875 L 3.335938 1.921875 L 3.335938 3.875 L 6 6.398438 L 6 7.039062 L 5.335938 7.039062 L 5.335938 11.519531 L 15.328125 11.519531 L 15.328125 15.363281 Z M 7.332031 12.800781 L 6.667969 12.800781 L 6.667969 14.71875 L 7.332031 14.71875 Z M 8.667969 12.800781 L 8 12.800781 L 8 14.71875 L 8.667969 14.71875 Z M 10 12.800781 L 9.332031 12.800781 L 9.332031 14.71875 L 10 14.71875 Z M 11.332031 12.800781 L 10.664062 12.800781 L 10.664062 14.71875 L 11.332031 14.71875 Z M 12.664062 12.800781 L 11.996094 12.800781 L 11.996094 14.71875 L 12.664062 14.71875 Z M 13.992188 12.800781 L 13.328125 12.800781 L 13.328125 14.71875 L 13.992188 14.71875 Z M 13.992188 12.800781 "/>
</g>
</g>
</svg>
