<?xml version="1.0" encoding="UTF-8"?>
<svg xmlns="http://www.w3.org/2000/svg" xmlns:xlink="http://www.w3.org/1999/xlink" width="6px" height="11px" viewBox="0 0 6 11" version="1.1">
<g id="surface1">
<path style=" stroke:none;fill-rule:nonzero;fill:rgb(30%,30%,30%);fill-opacity:1;" d="M 5.429688 9.847656 L 4.523438 9.847656 C 4.648438 9.398438 4.984375 8.171875 4.976562 7.804688 C 4.953125 6.96875 4.308594 6.351562 4.308594 6.351562 L 4.308594 5.65625 C 4.308594 5.570312 4.351562 5.492188 4.421875 5.445312 L 5.007812 4.984375 C 5.023438 4.972656 5.039062 4.957031 5.050781 4.9375 C 5.089844 4.878906 5.140625 4.761719 5.136719 4.71875 C 5.125 4.515625 5.144531 4.101562 5.117188 3.949219 C 5.09375 3.808594 5.070312 3.429688 3.878906 3.261719 C 3.804688 3.25 3.738281 2.953125 3.90625 2.808594 C 4.105469 2.636719 4.523438 1.972656 4.261719 1.21875 C 4.144531 0.871094 3.984375 0.421875 3.5 0.0976562 C 3.144531 -0.136719 2.335938 0.0976562 2.121094 0.3125 C 1.953125 0.480469 1.285156 0.644531 1.261719 1.027344 C 1.226562 1.578125 1.214844 1.621094 1.761719 2.5 C 1.84375 2.628906 2.011719 2.484375 2.144531 2.644531 C 2.285156 2.8125 2.414062 2.898438 2.453125 3 C 2.488281 3.09375 2.480469 3.199219 2.429688 3.285156 C 2.429688 3.285156 0.859375 3.894531 0.761719 4.140625 C 0.644531 4.449219 0.679688 5.566406 0.808594 5.710938 C 0.933594 5.847656 1.140625 5.867188 1.292969 5.855469 C 1.402344 5.851562 1.5 5.925781 1.519531 6.03125 L 1.621094 6.496094 C 1.621094 6.496094 1.070312 7.613281 1.191406 8.277344 C 1.28125 8.785156 1.714844 9.519531 1.917969 9.847656 L 0.570312 9.847656 C 0.257812 9.847656 0 10.101562 0 10.417969 L 0 11 L 6 10.953125 L 6 10.417969 C 6 10.101562 5.742188 9.847656 5.429688 9.847656 Z M 5.429688 9.847656 "/>
</g>
</svg>
