<?xml version="1.0" encoding="UTF-8"?>
<svg xmlns="http://www.w3.org/2000/svg" xmlns:xlink="http://www.w3.org/1999/xlink" width="11px" height="10px" viewBox="0 0 11 10" version="1.1">
<g id="surface1">
<path style=" stroke:none;fill-rule:nonzero;fill:rgb(30%,30%,30%);fill-opacity:1;" d="M 6.070312 8.070312 C 6.054688 8.050781 6.042969 8.03125 6.042969 8.007812 L 6.042969 3.113281 C 6.042969 3.058594 6.09375 3.011719 6.152344 3.011719 L 7.996094 3.011719 C 8.058594 3.011719 8.105469 2.96875 8.105469 2.914062 L 8.105469 2.140625 C 8.105469 2.085938 8.058594 2.042969 7.996094 2.042969 L 6.152344 2.042969 C 6.09375 2.042969 6.042969 2 6.042969 1.945312 L 6.042969 0.0976562 C 6.042969 0.0429688 5.996094 0 5.9375 0 L 5.121094 0 C 5.0625 0 5.015625 0.0429688 5.015625 0.0976562 L 5.015625 1.945312 C 5.015625 2 4.964844 2.042969 4.90625 2.042969 L 3.0625 2.042969 C 3.003906 2.042969 2.953125 2.085938 2.953125 2.140625 L 2.953125 2.914062 C 2.953125 2.96875 3.003906 3.011719 3.0625 3.011719 L 4.90625 3.011719 C 4.964844 3.011719 5.015625 3.058594 5.015625 3.113281 L 5.015625 8.007812 C 5.015625 8.027344 5.003906 8.050781 4.988281 8.070312 C 4.96875 8.089844 4.941406 8.101562 4.914062 8.105469 C 2.839844 8.210938 1.054688 8.875 0.03125 9.832031 C 0.00390625 9.859375 -0.0078125 9.902344 0.0078125 9.9375 C 0.0273438 9.976562 0.0664062 10 0.109375 10 L 10.890625 10 C 10.933594 10 10.972656 9.976562 10.992188 9.9375 C 11.007812 9.902344 10.996094 9.859375 10.96875 9.832031 C 9.953125 8.886719 8.195312 8.222656 6.148438 8.109375 C 6.117188 8.105469 6.089844 8.09375 6.070312 8.070312 Z M 6.070312 8.070312 "/>
</g>
</svg>
