<?xml version="1.0" encoding="UTF-8"?>
<svg xmlns="http://www.w3.org/2000/svg" xmlns:xlink="http://www.w3.org/1999/xlink" width="11px" height="10px" viewBox="0 0 11 10" version="1.1">
<g id="surface1">
<path style=" stroke:none;fill-rule:nonzero;fill:rgb(30%,30%,30%);fill-opacity:1;" d="M 1.445312 3.257812 L 2.195312 3.257812 C 2.378906 3.257812 2.53125 3.398438 2.53125 3.570312 L 2.53125 7.5625 C 2.53125 7.734375 2.378906 7.871094 2.195312 7.871094 L 1.445312 7.871094 C 1.257812 7.871094 1.105469 7.734375 1.105469 7.5625 L 1.105469 3.570312 C 1.105469 3.398438 1.257812 3.257812 1.445312 3.257812 Z M 1.445312 3.257812 "/>
<path style=" stroke:none;fill-rule:nonzero;fill:rgb(30%,30%,30%);fill-opacity:1;" d="M 3.890625 3.257812 L 4.640625 3.257812 C 4.828125 3.257812 4.980469 3.398438 4.980469 3.570312 L 4.980469 7.5625 C 4.980469 7.734375 4.828125 7.871094 4.640625 7.871094 L 3.890625 7.871094 C 3.707031 7.871094 3.554688 7.734375 3.554688 7.5625 L 3.554688 3.570312 C 3.554688 3.398438 3.707031 3.257812 3.890625 3.257812 Z M 3.890625 3.257812 "/>
<path style=" stroke:none;fill-rule:nonzero;fill:rgb(30%,30%,30%);fill-opacity:1;" d="M 6.339844 3.257812 L 7.089844 3.257812 C 7.277344 3.257812 7.425781 3.398438 7.425781 3.570312 L 7.425781 7.5625 C 7.425781 7.734375 7.277344 7.871094 7.089844 7.871094 L 6.339844 7.871094 C 6.152344 7.871094 6 7.734375 6 7.5625 L 6 3.570312 C 6 3.398438 6.152344 3.257812 6.339844 3.257812 Z M 6.339844 3.257812 "/>
<path style=" stroke:none;fill-rule:nonzero;fill:rgb(30%,30%,30%);fill-opacity:1;" d="M 8.789062 3.257812 L 9.535156 3.257812 C 9.722656 3.257812 9.875 3.398438 9.875 3.570312 L 9.875 7.5625 C 9.875 7.734375 9.722656 7.871094 9.535156 7.871094 L 8.789062 7.871094 C 8.601562 7.871094 8.449219 7.734375 8.449219 7.5625 L 8.449219 3.570312 C 8.449219 3.398438 8.601562 3.257812 8.789062 3.257812 Z M 8.789062 3.257812 "/>
<path style=" stroke:none;fill-rule:nonzero;fill:rgb(30%,30%,30%);fill-opacity:1;" d="M 0.367188 8.835938 L 10.660156 8.835938 C 10.847656 8.835938 11 8.976562 11 9.148438 L 11 9.6875 C 11 9.859375 10.847656 10 10.660156 10 L 0.367188 10 C 0.179688 10 0.0273438 9.859375 0.0273438 9.6875 L 0.0273438 9.148438 C 0.0273438 8.976562 0.179688 8.835938 0.367188 8.835938 Z M 0.367188 8.835938 "/>
<path style=" stroke:none;fill-rule:nonzero;fill:rgb(30%,30%,30%);fill-opacity:1;" d="M 10.640625 2.148438 L 0.359375 2.148438 C 0.160156 2.148438 0 2 0 1.820312 C 0 1.675781 0.101562 1.550781 0.246094 1.507812 L 5.164062 0.046875 C 5.371094 -0.015625 5.597656 -0.015625 5.808594 0.046875 L 10.75 1.507812 C 10.898438 1.550781 11 1.675781 11 1.820312 C 11 2 10.839844 2.148438 10.640625 2.148438 Z M 10.640625 2.148438 "/>
</g>
</svg>
