<?xml version="1.0" encoding="UTF-8"?>
<svg xmlns="http://www.w3.org/2000/svg" xmlns:xlink="http://www.w3.org/1999/xlink" width="10px" height="10px" viewBox="0 0 10 10" version="1.1">
<g id="surface1">
<path style=" stroke:none;fill-rule:nonzero;fill:rgb(30%,30%,30%);fill-opacity:1;" d="M 9.152344 9.996094 L 0.847656 9.996094 C 0.621094 9.996094 0.40625 9.902344 0.246094 9.734375 C 0.0898438 9.566406 0 9.335938 0 9.101562 L 0 0.898438 C 0 0.664062 0.0898438 0.433594 0.246094 0.265625 C 0.40625 0.0976562 0.621094 0.00390625 0.847656 0.00390625 L 9.152344 0.00390625 C 9.378906 0.00390625 9.59375 0.0976562 9.753906 0.265625 C 9.910156 0.433594 10 0.664062 10 0.898438 L 10 9.101562 C 10 9.59375 9.621094 9.996094 9.152344 9.996094 Z M 0.683594 1.59375 L 1.441406 1.59375 L 1.441406 0.796875 L 0.683594 0.796875 Z M 0.683594 3.109375 L 1.441406 3.109375 L 1.441406 2.308594 L 0.683594 2.308594 Z M 0.683594 4.621094 L 1.441406 4.621094 L 1.441406 3.824219 L 0.683594 3.824219 Z M 0.683594 6.132812 L 1.441406 6.132812 L 1.441406 5.335938 L 0.683594 5.335938 Z M 0.683594 7.644531 L 1.441406 7.644531 L 1.441406 6.847656 L 0.683594 6.847656 Z M 0.683594 9.160156 L 1.441406 9.160156 L 1.441406 8.359375 L 0.683594 8.359375 Z M 8.546875 1.59375 L 9.300781 1.59375 L 9.300781 0.796875 L 8.546875 0.796875 Z M 8.546875 3.109375 L 9.300781 3.109375 L 9.300781 2.308594 L 8.546875 2.308594 Z M 8.546875 4.621094 L 9.300781 4.621094 L 9.300781 3.824219 L 8.546875 3.824219 Z M 8.546875 6.132812 L 9.300781 6.132812 L 9.300781 5.335938 L 8.546875 5.335938 Z M 8.546875 7.644531 L 9.300781 7.644531 L 9.300781 6.847656 L 8.546875 6.847656 Z M 8.546875 9.160156 L 9.300781 9.160156 L 9.300781 8.359375 L 8.546875 8.359375 Z M 2.871094 4.621094 L 7.144531 4.621094 L 7.144531 0.796875 L 2.871094 0.796875 Z M 2.871094 9.160156 L 7.144531 9.160156 L 7.144531 5.335938 L 2.871094 5.335938 Z M 2.871094 9.160156 "/>
</g>
</svg>
