<?xml version="1.0" encoding="UTF-8"?>
<svg xmlns="http://www.w3.org/2000/svg" xmlns:xlink="http://www.w3.org/1999/xlink" width="11px" height="10px" viewBox="0 0 11 10" version="1.1">
<g id="surface1">
<path style=" stroke:none;fill-rule:nonzero;fill:rgb(30%,30%,30%);fill-opacity:1;" d="M 10.578125 2.820312 C 10.578125 2.820312 8.886719 2.273438 7.921875 2.273438 C 7.566406 2.273438 7.117188 2.347656 6.6875 2.4375 L 6.6875 3.636719 C 6.6875 3.855469 6.636719 4.113281 6.550781 4.386719 C 6.871094 4.320312 7.21875 4.097656 7.222656 4.097656 C 7.269531 4.0625 7.324219 4.046875 7.378906 4.046875 C 7.492188 4.046875 7.613281 4.132812 7.613281 4.316406 L 7.613281 4.773438 C 7.613281 4.953125 7.496094 5.144531 7.339844 5.222656 C 7.328125 5.226562 7.058594 5.363281 6.601562 5.363281 C 6.367188 5.363281 6.203125 5.402344 6.097656 5.433594 C 5.800781 5.980469 5.453125 6.492188 5.0625 6.96875 C 5.636719 8.476562 7.183594 10 7.699219 10 L 8.140625 10 C 8.808594 10 11 7.238281 11 5.910156 L 11 3.410156 C 11 3.160156 10.8125 2.894531 10.578125 2.820312 Z M 9.09375 7.847656 C 9.054688 7.847656 9.015625 7.84375 8.976562 7.828125 C 8.972656 7.828125 8.53125 7.683594 7.921875 7.683594 C 7.308594 7.683594 6.867188 7.828125 6.863281 7.828125 C 6.824219 7.84375 6.785156 7.847656 6.746094 7.847656 C 6.660156 7.851562 6.574219 7.8125 6.511719 7.746094 C 6.453125 7.679688 6.421875 7.589844 6.425781 7.5 C 6.425781 7.3125 6.542969 7.097656 6.695312 7 C 6.71875 6.984375 7.28125 6.636719 7.921875 6.636719 C 8.558594 6.636719 9.121094 6.984375 9.144531 7 C 9.300781 7.097656 9.414062 7.3125 9.414062 7.5 C 9.414062 7.699219 9.277344 7.847656 9.09375 7.847656 Z M 10.160156 5.433594 C 10.121094 5.484375 10.0625 5.511719 10 5.511719 C 9.953125 5.511719 9.90625 5.5 9.863281 5.476562 C 9.863281 5.476562 9.632812 5.363281 9.238281 5.363281 C 8.78125 5.363281 8.511719 5.226562 8.5 5.222656 C 8.34375 5.144531 8.226562 4.953125 8.226562 4.773438 L 8.226562 4.316406 C 8.226562 4.132812 8.347656 4.046875 8.460938 4.046875 C 8.515625 4.046875 8.570312 4.0625 8.617188 4.097656 C 8.621094 4.097656 9.105469 4.410156 9.460938 4.410156 C 9.941406 4.410156 10.160156 5.117188 10.183594 5.199219 C 10.21875 5.316406 10.1875 5.390625 10.160156 5.433594 Z M 6.160156 1.136719 C 6.160156 0.886719 5.972656 0.621094 5.738281 0.546875 C 5.738281 0.546875 4.046875 0 3.078125 0 C 2.113281 0 0.421875 0.546875 0.421875 0.546875 C 0.1875 0.621094 0 0.886719 0 1.136719 L 0 3.636719 C 0 5.394531 2.21875 7.726562 2.859375 7.726562 L 3.300781 7.726562 C 3.96875 7.726562 6.160156 4.96875 6.160156 3.636719 Z M 1 2.785156 C 0.925781 2.785156 0.859375 2.753906 0.8125 2.695312 C 0.769531 2.640625 0.746094 2.570312 0.75 2.5 C 0.75 2.335938 0.835938 2.128906 0.949219 2.019531 C 1.007812 1.960938 1.542969 1.453125 1.980469 1.453125 C 2.449219 1.453125 2.632812 1.765625 2.640625 1.78125 C 2.714844 1.90625 2.773438 2.125 2.773438 2.273438 L 2.773438 2.5 C 2.773438 2.664062 2.667969 2.785156 2.523438 2.785156 C 2.472656 2.785156 2.425781 2.773438 2.382812 2.75 C 2.382812 2.75 2.152344 2.636719 1.761719 2.636719 C 1.367188 2.636719 1.136719 2.75 1.136719 2.75 C 1.09375 2.773438 1.046875 2.785156 1 2.785156 Z M 4.304688 5.273438 C 4.28125 5.289062 3.71875 5.636719 3.078125 5.636719 C 2.441406 5.636719 1.878906 5.289062 1.855469 5.273438 C 1.699219 5.175781 1.585938 4.960938 1.585938 4.773438 C 1.585938 4.574219 1.722656 4.425781 1.90625 4.425781 C 1.945312 4.425781 1.984375 4.429688 2.023438 4.445312 C 2.027344 4.445312 2.46875 4.589844 3.078125 4.589844 C 3.691406 4.589844 4.132812 4.445312 4.136719 4.445312 C 4.175781 4.429688 4.214844 4.425781 4.253906 4.425781 C 4.4375 4.425781 4.574219 4.574219 4.574219 4.773438 C 4.574219 4.960938 4.457031 5.175781 4.304688 5.273438 Z M 5.347656 2.695312 C 5.300781 2.753906 5.234375 2.785156 5.160156 2.785156 C 5.113281 2.785156 5.066406 2.773438 5.023438 2.75 C 5.023438 2.75 4.792969 2.636719 4.398438 2.636719 C 4.007812 2.636719 3.777344 2.75 3.773438 2.75 C 3.734375 2.773438 3.6875 2.785156 3.636719 2.785156 C 3.492188 2.785156 3.386719 2.664062 3.386719 2.5 L 3.386719 2.273438 C 3.386719 2.125 3.445312 1.90625 3.519531 1.78125 C 3.527344 1.765625 3.710938 1.453125 4.179688 1.453125 C 4.617188 1.453125 5.152344 1.960938 5.210938 2.019531 C 5.324219 2.128906 5.410156 2.335938 5.410156 2.5 C 5.414062 2.570312 5.390625 2.640625 5.347656 2.695312 Z M 5.347656 2.695312 "/>
</g>
</svg>
