<?xml version="1.0" encoding="UTF-8" standalone="no"?>
<!-- Created with Inkscape (http://www.inkscape.org/) -->

<svg
   xmlns:dc="http://purl.org/dc/elements/1.1/"
   xmlns:cc="http://creativecommons.org/ns#"
   xmlns:rdf="http://www.w3.org/1999/02/22-rdf-syntax-ns#"
   xmlns:svg="http://www.w3.org/2000/svg"
   xmlns="http://www.w3.org/2000/svg"
   xmlns:xlink="http://www.w3.org/1999/xlink"
   xmlns:sodipodi="http://sodipodi.sourceforge.net/DTD/sodipodi-0.dtd"
   xmlns:inkscape="http://www.inkscape.org/namespaces/inkscape"
   width="30px"
   height="30px"
   version="1.1"
   id="svg8"
   inkscape:version="0.92.4 5da689c313, 2019-01-14"
   sodipodi:docname="container.svg">
  <defs
     id="defs2" />
  <sodipodi:namedview
     id="base"
     pagecolor="#ffffff"
     bordercolor="#666666"
     borderopacity="1.0"
     inkscape:pageopacity="0.0"
     inkscape:pageshadow="2"
     inkscape:zoom="13.049334"
     inkscape:cx="18.679046"
     inkscape:cy="12.165829"
     inkscape:document-units="px"
     inkscape:current-layer="layer1"
     showgrid="false"
     inkscape:snap-page="false"
     units="px"
     inkscape:window-width="1884"
     inkscape:window-height="1061"
     inkscape:window-x="0"
     inkscape:window-y="0"
     inkscape:window-maximized="1"
     fit-margin-top="0"
     fit-margin-left="0"
     fit-margin-right="0"
     fit-margin-bottom="0" />
  <metadata
     id="metadata5">
    <rdf:RDF>
      <cc:Work
         rdf:about="">
        <dc:format>image/svg+xml</dc:format>
        <dc:type
           rdf:resource="http://purl.org/dc/dcmitype/StillImage" />
        <dc:title></dc:title>
      </cc:Work>
    </rdf:RDF>
  </metadata>
    <circle
       style="color:#000000;clip-rule:nonzero;display:inline;overflow:visible;visibility:visible;opacity:1;isolation:auto;mix-blend-mode:normal;color-interpolation:sRGB;color-interpolation-filters:linearRGB;solid-color:#000000;solid-opacity:1;vector-effect:none;fill:#ffffff;fill-opacity:1;fill-rule:evenodd;stroke:#76009e;stroke-width:1;stroke-linecap:butt;stroke-linejoin:miter;stroke-miterlimit:4;stroke-dasharray:none;stroke-dashoffset:0;stroke-opacity:1;marker:none;color-rendering:auto;image-rendering:auto;shape-rendering:auto;text-rendering:auto;enable-background:accumulate"
       id="path815"
       cx="15"
       cy="15"
       r="14.5" />
<g transform="translate(10,6)"><g id="surface1">
<path style=" stroke:none;fill-rule:nonzero;fill:rgb(30%,30%,30%);fill-opacity:1;" d="M 8.140625 15.21875 L 6.785156 15.21875 C 6.976562 14.523438 7.480469 12.628906 7.464844 12.058594 C 7.429688 10.773438 6.464844 9.816406 6.464844 9.816406 L 6.464844 8.738281 C 6.464844 8.609375 6.527344 8.488281 6.632812 8.417969 L 7.511719 7.703125 C 7.539062 7.683594 7.558594 7.660156 7.578125 7.632812 C 7.636719 7.539062 7.710938 7.363281 7.703125 7.292969 C 7.683594 6.980469 7.714844 6.335938 7.679688 6.105469 C 7.640625 5.886719 7.605469 5.296875 5.820312 5.039062 C 5.710938 5.023438 5.605469 4.5625 5.855469 4.34375 C 6.160156 4.074219 6.785156 3.050781 6.390625 1.878906 C 6.214844 1.347656 5.972656 0.648438 5.25 0.152344 C 4.714844 -0.214844 3.503906 0.152344 3.179688 0.484375 C 2.929688 0.742188 1.929688 1 1.894531 1.585938 C 1.839844 2.4375 1.820312 2.503906 2.644531 3.863281 C 2.765625 4.066406 3.019531 3.84375 3.214844 4.085938 C 3.425781 4.34375 3.621094 4.480469 3.679688 4.636719 C 3.730469 4.78125 3.71875 4.941406 3.644531 5.078125 C 3.644531 5.078125 1.285156 6.015625 1.144531 6.398438 C 0.964844 6.878906 1.023438 8.605469 1.214844 8.824219 C 1.402344 9.039062 1.710938 9.066406 1.9375 9.050781 C 2.101562 9.042969 2.25 9.15625 2.277344 9.320312 L 2.429688 10.039062 C 2.429688 10.039062 1.609375 11.765625 1.785156 12.792969 C 1.921875 13.574219 2.570312 14.714844 2.875 15.21875 L 0.859375 15.21875 C 0.382812 15.21875 0 15.613281 0 16.101562 L 0 17 L 9 16.929688 L 9 16.101562 C 9 15.613281 8.617188 15.21875 8.140625 15.21875 Z M 8.140625 15.21875 "/>
</g>
</g>
</svg>
