<?xml version="1.0" encoding="UTF-8"?>
<svg xmlns="http://www.w3.org/2000/svg" xmlns:xlink="http://www.w3.org/1999/xlink" width="10px" height="3px" viewBox="0 0 10 3" version="1.1">
<g id="surface1">
<path style=" stroke:none;fill-rule:nonzero;fill:rgb(30%,30%,30%);fill-opacity:1;" d="M 1.785156 0.671875 L 2.234375 3 L 0 3 L 0.429688 0.671875 L 0.1875 0.355469 L 0.1875 0 L 0.625 0 L 0.625 0.296875 L 0.898438 0.296875 L 0.898438 0 L 1.328125 0 L 1.328125 0.296875 L 1.597656 0.296875 L 1.597656 0 L 2.039062 0 L 2.039062 0.355469 Z M 1.292969 1.34375 C 1.292969 1.214844 1.210938 1.109375 1.109375 1.109375 C 1.003906 1.109375 0.921875 1.214844 0.921875 1.34375 L 0.921875 1.703125 L 1.292969 1.703125 Z M 1.292969 1.34375 "/>
<path style=" stroke:none;fill-rule:nonzero;fill:rgb(30%,30%,30%);fill-opacity:1;" d="M 5.667969 0.671875 L 6.117188 3 L 3.882812 3 L 4.3125 0.671875 L 4.070312 0.355469 L 4.070312 0 L 4.507812 0 L 4.507812 0.296875 L 4.78125 0.296875 L 4.78125 0 L 5.210938 0 L 5.210938 0.296875 L 5.480469 0.296875 L 5.480469 0 L 5.921875 0 L 5.921875 0.355469 Z M 5.175781 1.34375 C 5.175781 1.214844 5.09375 1.109375 4.992188 1.109375 C 4.890625 1.109375 4.804688 1.214844 4.804688 1.34375 L 4.804688 1.703125 L 5.175781 1.703125 Z M 5.175781 1.34375 "/>
<path style=" stroke:none;fill-rule:nonzero;fill:rgb(30%,30%,30%);fill-opacity:1;" d="M 9.550781 0.671875 L 10 3 L 7.765625 3 L 8.195312 0.671875 L 7.953125 0.355469 L 7.953125 0 L 8.390625 0 L 8.390625 0.296875 L 8.664062 0.296875 L 8.664062 0 L 9.09375 0 L 9.09375 0.296875 L 9.367188 0.296875 L 9.367188 0 L 9.804688 0 L 9.804688 0.355469 Z M 9.058594 1.34375 C 9.058594 1.214844 8.976562 1.109375 8.875 1.109375 C 8.773438 1.109375 8.691406 1.214844 8.691406 1.34375 L 8.691406 1.703125 L 9.058594 1.703125 Z M 9.058594 1.34375 "/>
<path style=" stroke:none;fill-rule:nonzero;fill:rgb(30%,30%,30%);fill-opacity:1;" d="M 3.832031 2.683594 L 2.289062 2.695312 L 1.960938 0.988281 L 4.121094 0.988281 Z M 3.832031 2.683594 "/>
<path style=" stroke:none;fill-rule:nonzero;fill:rgb(30%,30%,30%);fill-opacity:1;" d="M 7.730469 2.683594 L 6.1875 2.695312 L 5.859375 0.988281 L 8.019531 0.988281 Z M 7.730469 2.683594 "/>
</g>
</svg>
