<?xml version="1.0" encoding="UTF-8" standalone="no"?>
<!-- Created with Inkscape (http://www.inkscape.org/) -->

<svg
   xmlns:dc="http://purl.org/dc/elements/1.1/"
   xmlns:cc="http://creativecommons.org/ns#"
   xmlns:rdf="http://www.w3.org/1999/02/22-rdf-syntax-ns#"
   xmlns:svg="http://www.w3.org/2000/svg"
   xmlns="http://www.w3.org/2000/svg"
   xmlns:xlink="http://www.w3.org/1999/xlink"
   xmlns:sodipodi="http://sodipodi.sourceforge.net/DTD/sodipodi-0.dtd"
   xmlns:inkscape="http://www.inkscape.org/namespaces/inkscape"
   width="30px"
   height="30px"
   version="1.1"
   id="svg8"
   inkscape:version="0.92.4 5da689c313, 2019-01-14"
   sodipodi:docname="container.svg">
  <defs
     id="defs2" />
  <sodipodi:namedview
     id="base"
     pagecolor="#ffffff"
     bordercolor="#666666"
     borderopacity="1.0"
     inkscape:pageopacity="0.0"
     inkscape:pageshadow="2"
     inkscape:zoom="13.049334"
     inkscape:cx="18.679046"
     inkscape:cy="12.165829"
     inkscape:document-units="px"
     inkscape:current-layer="layer1"
     showgrid="false"
     inkscape:snap-page="false"
     units="px"
     inkscape:window-width="1884"
     inkscape:window-height="1061"
     inkscape:window-x="0"
     inkscape:window-y="0"
     inkscape:window-maximized="1"
     fit-margin-top="0"
     fit-margin-left="0"
     fit-margin-right="0"
     fit-margin-bottom="0" />
  <metadata
     id="metadata5">
    <rdf:RDF>
      <cc:Work
         rdf:about="">
        <dc:format>image/svg+xml</dc:format>
        <dc:type
           rdf:resource="http://purl.org/dc/dcmitype/StillImage" />
        <dc:title></dc:title>
      </cc:Work>
    </rdf:RDF>
  </metadata>
    <circle
       style="color:#000000;clip-rule:nonzero;display:inline;overflow:visible;visibility:visible;opacity:1;isolation:auto;mix-blend-mode:normal;color-interpolation:sRGB;color-interpolation-filters:linearRGB;solid-color:#000000;solid-opacity:1;vector-effect:none;fill:#ffffff;fill-opacity:1;fill-rule:evenodd;stroke:#76009e;stroke-width:1;stroke-linecap:butt;stroke-linejoin:miter;stroke-miterlimit:4;stroke-dasharray:none;stroke-dashoffset:0;stroke-opacity:1;marker:none;color-rendering:auto;image-rendering:auto;shape-rendering:auto;text-rendering:auto;enable-background:accumulate"
       id="path815"
       cx="15"
       cy="15"
       r="14.5" />
<g transform="translate(8,7)"><g id="surface1">
<path style=" stroke:none;fill-rule:nonzero;fill:rgb(30%,30%,30%);fill-opacity:1;" d="M 12.996094 14.132812 L 12.996094 15.867188 C 12.996094 15.941406 12.933594 16 12.859375 16 L 0.140625 16 C 0.0664062 16 0.00390625 15.941406 0.00390625 15.867188 L 0.00390625 14.132812 C 0.00390625 14.058594 0.0664062 14 0.140625 14 L 12.859375 14 C 12.933594 14 12.996094 14.058594 12.996094 14.132812 Z M 8.210938 1.867188 L 8.210938 0.132812 C 8.210938 0.0585938 8.148438 0 8.074219 0 L 4.925781 0 C 4.851562 0 4.789062 0.0585938 4.789062 0.132812 L 4.789062 1.867188 C 4.789062 1.941406 4.730469 2 4.652344 2 L 3.558594 2 C 3.484375 2 3.421875 1.941406 3.421875 1.867188 L 3.421875 0.800781 C 3.421875 0.726562 3.363281 0.667969 3.285156 0.667969 L 1.507812 0.667969 C 1.433594 0.667969 1.371094 0.726562 1.371094 0.800781 L 1.371094 3.867188 C 1.371094 3.941406 1.433594 4 1.507812 4 L 11.492188 4 C 11.566406 4 11.628906 3.941406 11.628906 3.867188 L 11.628906 0.800781 C 11.628906 0.726562 11.566406 0.667969 11.492188 0.667969 L 9.714844 0.667969 C 9.636719 0.667969 9.578125 0.726562 9.578125 0.800781 L 9.578125 1.867188 C 9.578125 1.941406 9.515625 2 9.441406 2 L 8.347656 2 C 8.269531 2 8.210938 1.941406 8.210938 1.867188 Z M 1.703125 13.332031 L 11.296875 13.332031 C 11.351562 13.332031 11.402344 13.300781 11.425781 13.25 C 11.445312 13.203125 11.433594 13.144531 11.394531 13.105469 L 9.617188 11.371094 C 9.589844 11.347656 9.578125 11.3125 9.578125 11.277344 L 9.578125 7.378906 C 9.578125 7.347656 9.585938 7.320312 9.605469 7.296875 L 11.464844 4.878906 C 11.496094 4.839844 11.5 4.785156 11.476562 4.742188 C 11.453125 4.695312 11.40625 4.667969 11.355469 4.667969 L 1.644531 4.667969 C 1.59375 4.667969 1.546875 4.695312 1.523438 4.742188 C 1.5 4.785156 1.503906 4.839844 1.535156 4.878906 L 3.394531 7.296875 C 3.414062 7.320312 3.421875 7.347656 3.421875 7.378906 L 3.421875 11.277344 C 3.421875 11.3125 3.410156 11.347656 3.382812 11.371094 L 1.605469 13.105469 C 1.566406 13.144531 1.554688 13.203125 1.574219 13.25 C 1.597656 13.300781 1.648438 13.332031 1.703125 13.332031 Z M 1.703125 13.332031 "/>
</g>
</g>
</svg>
