<?xml version="1.0" encoding="UTF-8" standalone="no"?>
<!-- Created with Inkscape (http://www.inkscape.org/) -->

<svg
   xmlns:dc="http://purl.org/dc/elements/1.1/"
   xmlns:cc="http://creativecommons.org/ns#"
   xmlns:rdf="http://www.w3.org/1999/02/22-rdf-syntax-ns#"
   xmlns:svg="http://www.w3.org/2000/svg"
   xmlns="http://www.w3.org/2000/svg"
   xmlns:xlink="http://www.w3.org/1999/xlink"
   xmlns:sodipodi="http://sodipodi.sourceforge.net/DTD/sodipodi-0.dtd"
   xmlns:inkscape="http://www.inkscape.org/namespaces/inkscape"
   width="30px"
   height="30px"
   version="1.1"
   id="svg8"
   inkscape:version="0.92.4 5da689c313, 2019-01-14"
   sodipodi:docname="container.svg">
  <defs
     id="defs2" />
  <sodipodi:namedview
     id="base"
     pagecolor="#ffffff"
     bordercolor="#666666"
     borderopacity="1.0"
     inkscape:pageopacity="0.0"
     inkscape:pageshadow="2"
     inkscape:zoom="13.049334"
     inkscape:cx="18.679046"
     inkscape:cy="12.165829"
     inkscape:document-units="px"
     inkscape:current-layer="layer1"
     showgrid="false"
     inkscape:snap-page="false"
     units="px"
     inkscape:window-width="1884"
     inkscape:window-height="1061"
     inkscape:window-x="0"
     inkscape:window-y="0"
     inkscape:window-maximized="1"
     fit-margin-top="0"
     fit-margin-left="0"
     fit-margin-right="0"
     fit-margin-bottom="0" />
  <metadata
     id="metadata5">
    <rdf:RDF>
      <cc:Work
         rdf:about="">
        <dc:format>image/svg+xml</dc:format>
        <dc:type
           rdf:resource="http://purl.org/dc/dcmitype/StillImage" />
        <dc:title></dc:title>
      </cc:Work>
    </rdf:RDF>
  </metadata>
    <circle
       style="color:#000000;clip-rule:nonzero;display:inline;overflow:visible;visibility:visible;opacity:1;isolation:auto;mix-blend-mode:normal;color-interpolation:sRGB;color-interpolation-filters:linearRGB;solid-color:#000000;solid-opacity:1;vector-effect:none;fill:#76009e;fill-opacity:1;fill-rule:evenodd;stroke:#ffffff;stroke-width:1;stroke-linecap:butt;stroke-linejoin:miter;stroke-miterlimit:4;stroke-dasharray:none;stroke-dashoffset:0;stroke-opacity:1;marker:none;color-rendering:auto;image-rendering:auto;shape-rendering:auto;text-rendering:auto;enable-background:accumulate"
       id="path815"
       cx="15"
       cy="15"
       r="14.5" />
<g transform="translate(6,6)"><g id="surface1">
<path style=" stroke:none;fill-rule:nonzero;fill:#FFFFFF;fill-opacity:1;" d="M 16.988281 7.945312 C 16.652344 13.585938 10.734375 11.441406 9.546875 12.457031 C 8.890625 13.015625 8.890625 13.824219 9.546875 14.445312 C 10.445312 15.300781 10.089844 16.855469 8.84375 16.964844 C 3.976562 17.398438 0 13.582031 0 8.75 C 0 3.917969 3.957031 0 8.84375 0 C 13.726562 0 17.230469 3.839844 16.988281 7.945312 Z M 13.636719 5.4375 C 12.71875 5.4375 11.972656 6.175781 11.972656 7.082031 C 11.972656 7.992188 12.71875 8.726562 13.636719 8.726562 C 14.554688 8.726562 15.300781 7.992188 15.300781 7.082031 C 15.300781 6.175781 14.554688 5.4375 13.636719 5.4375 Z M 10.90625 1.6875 C 9.988281 1.6875 9.246094 2.425781 9.246094 3.332031 C 9.246094 4.242188 9.988281 4.976562 10.90625 4.976562 C 11.828125 4.976562 12.570312 4.242188 12.570312 3.332031 C 12.570312 2.425781 11.828125 1.6875 10.90625 1.6875 Z M 6.203125 1.734375 C 5.285156 1.734375 4.539062 2.472656 4.539062 3.382812 C 4.539062 4.289062 5.285156 5.027344 6.203125 5.027344 C 7.121094 5.027344 7.867188 4.289062 7.867188 3.382812 C 7.867188 2.472656 7.121094 1.734375 6.203125 1.734375 Z M 3.367188 5.480469 C 2.445312 5.480469 1.703125 6.21875 1.703125 7.125 C 1.703125 8.035156 2.445312 8.769531 3.367188 8.769531 C 4.285156 8.769531 5.027344 8.035156 5.027344 7.125 C 5.027344 6.21875 4.285156 5.480469 3.367188 5.480469 Z M 3.367188 5.480469 "/>
</g>
</g>
</svg>
