<?xml version="1.0" encoding="UTF-8"?>
<svg xmlns="http://www.w3.org/2000/svg" xmlns:xlink="http://www.w3.org/1999/xlink" width="11px" height="11px" viewBox="0 0 11 11" version="1.1">
<g id="surface1">
<path style=" stroke:none;fill-rule:nonzero;fill:rgb(30%,30%,30%);fill-opacity:1;" d="M 10.992188 5.140625 C 10.773438 8.789062 6.945312 7.402344 6.175781 8.058594 C 5.753906 8.421875 5.753906 8.945312 6.175781 9.347656 C 6.757812 9.898438 6.53125 10.90625 5.722656 10.976562 C 2.574219 11.257812 0 8.789062 0 5.660156 C 0 2.535156 2.5625 0 5.722656 0 C 8.882812 0 11.148438 2.484375 10.992188 5.140625 Z M 8.824219 3.519531 C 8.230469 3.519531 7.746094 3.996094 7.746094 4.582031 C 7.746094 5.171875 8.230469 5.648438 8.824219 5.648438 C 9.417969 5.648438 9.898438 5.171875 9.898438 4.582031 C 9.898438 3.996094 9.417969 3.519531 8.824219 3.519531 Z M 7.058594 1.089844 C 6.464844 1.089844 5.980469 1.570312 5.980469 2.15625 C 5.980469 2.746094 6.464844 3.222656 7.058594 3.222656 C 7.652344 3.222656 8.132812 2.746094 8.132812 2.15625 C 8.132812 1.570312 7.652344 1.089844 7.058594 1.089844 Z M 4.011719 1.121094 C 3.417969 1.121094 2.9375 1.601562 2.9375 2.1875 C 2.9375 2.777344 3.417969 3.253906 4.011719 3.253906 C 4.609375 3.253906 5.089844 2.777344 5.089844 2.1875 C 5.089844 1.601562 4.609375 1.121094 4.011719 1.121094 Z M 2.175781 3.546875 C 1.582031 3.546875 1.101562 4.023438 1.101562 4.609375 C 1.101562 5.199219 1.582031 5.675781 2.175781 5.675781 C 2.773438 5.675781 3.253906 5.199219 3.253906 4.609375 C 3.253906 4.023438 2.773438 3.546875 2.175781 3.546875 Z M 2.175781 3.546875 "/>
</g>
</svg>
