<?xml version="1.0" encoding="UTF-8"?>
<svg xmlns="http://www.w3.org/2000/svg" xmlns:xlink="http://www.w3.org/1999/xlink" width="10px" height="8px" viewBox="0 0 10 8" version="1.1">
<g id="surface1">
<path style=" stroke:none;fill-rule:nonzero;fill:rgb(30%,30%,30%);fill-opacity:1;" d="M 10 6.992188 L 9.085938 6.992188 L 9.085938 0.00390625 L 8.175781 0.00390625 L 8.175781 1.023438 L 7.277344 1.015625 L 7.277344 0.00390625 L 6.363281 0.00390625 L 6.363281 2.472656 L 4.984375 1.015625 L 3.652344 2.492188 L 3.652344 0.00390625 L 2.746094 0.00390625 L 2.746094 1.015625 L 1.84375 1.015625 L 1.84375 0.00390625 L 0.921875 0.00390625 L 0.921875 6.992188 L 0 6.992188 L 0 7.988281 L 3.59375 7.976562 L 3.652344 7.976562 C 3.652344 7.949219 3.652344 7.921875 3.652344 7.894531 L 3.652344 5.503906 C 3.652344 4.683594 4.261719 4.015625 5.007812 4.015625 C 5.753906 4.015625 6.363281 4.683594 6.363281 5.503906 L 6.363281 7.894531 C 6.363281 7.925781 6.363281 7.960938 6.359375 7.996094 L 6.507812 7.996094 L 6.507812 7.988281 L 10 7.988281 Z M 10 6.992188 "/>
</g>
</svg>
