<?xml version="1.0" encoding="UTF-8"?>
<svg xmlns="http://www.w3.org/2000/svg" xmlns:xlink="http://www.w3.org/1999/xlink" width="7px" height="11px" viewBox="0 0 7 11" version="1.1">
<g id="surface1">
<path style=" stroke:none;fill-rule:nonzero;fill:rgb(30%,30%,30%);fill-opacity:1;" d="M 3.46875 5.769531 L 0.425781 7.25 L 0.453125 10.996094 L 2.585938 10.996094 L 2.585938 9.148438 C 2.585938 8.695312 2.980469 8.328125 3.46875 8.328125 C 3.953125 8.328125 4.347656 8.695312 4.347656 9.148438 L 4.347656 10.996094 L 6.484375 10.996094 L 6.484375 7.226562 Z M 2.066406 9.714844 L 1.085938 9.714844 L 1.085938 8.742188 C 1.085938 8.488281 1.308594 8.285156 1.578125 8.285156 C 1.847656 8.285156 2.066406 8.488281 2.066406 8.742188 Z M 5.832031 9.714844 L 4.851562 9.714844 L 4.851562 8.742188 C 4.851562 8.488281 5.070312 8.285156 5.34375 8.285156 C 5.613281 8.285156 5.832031 8.488281 5.832031 8.742188 Z M 5.832031 9.714844 "/>
<path style=" stroke:none;fill-rule:nonzero;fill:rgb(30%,30%,30%);fill-opacity:1;" d="M 4.789062 5.796875 L 4.816406 4.761719 L 5.292969 4.761719 L 3.675781 2.886719 L 3.675781 1.347656 L 4.554688 1.347656 L 4.554688 0.886719 L 3.675781 0.886719 L 3.675781 0.00390625 L 3.234375 0.00390625 L 3.234375 0.886719 L 2.355469 0.886719 L 2.355469 1.347656 L 3.234375 1.347656 L 3.234375 2.886719 L 1.5625 4.761719 L 2.117188 4.761719 L 2.117188 5.796875 L 0.140625 6.761719 C 0.078125 6.792969 0.03125 6.847656 0.0117188 6.910156 C -0.0078125 6.972656 0 7.042969 0.0351562 7.097656 C 0.105469 7.210938 0.257812 7.25 0.382812 7.191406 L 3.46875 5.671875 L 6.613281 7.195312 C 6.734375 7.253906 6.882812 7.21875 6.957031 7.109375 C 7 7.050781 7.011719 6.980469 6.992188 6.914062 C 6.972656 6.84375 6.921875 6.789062 6.855469 6.757812 Z M 3.441406 5.070312 C 3.171875 5.070312 2.953125 4.863281 2.953125 4.613281 C 2.953125 4.359375 3.171875 4.15625 3.441406 4.15625 C 3.710938 4.15625 3.929688 4.359375 3.929688 4.613281 C 3.929688 4.863281 3.710938 5.070312 3.441406 5.070312 Z M 3.441406 5.070312 "/>
</g>
</svg>
