<?xml version="1.0" encoding="UTF-8"?>
<svg xmlns="http://www.w3.org/2000/svg" xmlns:xlink="http://www.w3.org/1999/xlink" width="11px" height="10px" viewBox="0 0 11 10" version="1.1">
<g id="surface1">
<path style=" stroke:none;fill-rule:nonzero;fill:rgb(30%,30%,30%);fill-opacity:1;" d="M 7.777344 7.664062 C 7.707031 7.675781 1.222656 8.488281 0.0117188 8.683594 L 0.0234375 10 L 11 10 L 11 7.1875 Z M 7.777344 7.664062 "/>
<path style=" stroke:none;fill-rule:nonzero;fill:rgb(30%,30%,30%);fill-opacity:1;" d="M 10.320312 0 L 4.460938 4 L 4.429688 4.320312 L 4.582031 4.214844 L 4.582031 5.609375 C 4.582031 5.609375 2 6.746094 1.8125 6.820312 C 1.34375 7.003906 0.566406 7.402344 0 7.707031 L 0.0078125 8.460938 C 1.34375 8.25 7.433594 7.484375 7.734375 7.445312 L 11 6.960938 L 11 0 Z M 0.253906 8.25 L 0.253906 7.972656 C 0.253906 7.972656 0.257812 7.894531 0.277344 7.886719 C 0.300781 7.878906 0.300781 7.941406 0.300781 7.941406 L 0.304688 8.234375 Z M 0.527344 8.183594 L 0.523438 7.871094 C 0.523438 7.871094 0.535156 7.773438 0.5625 7.765625 C 0.605469 7.753906 0.605469 7.832031 0.605469 7.832031 L 0.613281 8.160156 Z M 0.808594 8.121094 L 0.8125 7.765625 C 0.8125 7.765625 0.828125 7.667969 0.863281 7.667969 C 0.917969 7.667969 0.921875 7.675781 0.921875 7.675781 L 0.933594 8.085938 Z M 1.339844 8 L 1.203125 8.027344 L 1.207031 7.671875 C 1.207031 7.671875 1.226562 7.542969 1.273438 7.535156 C 1.34375 7.519531 1.34375 7.617188 1.34375 7.617188 Z M 1.660156 7.941406 L 1.652344 7.488281 C 1.652344 7.488281 1.683594 7.332031 1.757812 7.320312 C 1.878906 7.300781 1.878906 7.425781 1.878906 7.425781 L 1.890625 7.890625 Z M 2.222656 7.824219 L 2.210938 7.328125 C 2.210938 7.328125 2.246094 7.132812 2.34375 7.117188 C 2.492188 7.09375 2.496094 7.25 2.496094 7.25 L 2.511719 7.761719 Z M 3.011719 7.664062 L 3.007812 7.035156 C 3.007812 7.035156 3.050781 6.789062 3.171875 6.769531 C 3.359375 6.742188 3.359375 6.933594 3.359375 6.933594 L 3.371094 7.585938 Z M 4.070312 7.457031 L 4.074219 6.605469 C 4.074219 6.605469 4.128906 6.296875 4.28125 6.277344 C 4.511719 6.242188 4.515625 6.480469 4.515625 6.480469 L 4.53125 7.375 Z M 4.957031 5.144531 L 4.941406 4.625 C 4.941406 4.625 4.972656 4.402344 5.054688 4.386719 C 5.183594 4.359375 5.183594 4.511719 5.183594 4.511719 L 5.269531 4.976562 Z M 5.546875 7.167969 L 5.535156 6.171875 C 5.535156 6.171875 5.621094 5.824219 5.851562 5.796875 C 6.207031 5.757812 6.207031 5.996094 6.207031 5.996094 L 6.226562 7.027344 Z M 6.347656 4.472656 L 6.296875 3.65625 C 6.296875 3.65625 6.382812 3.308594 6.613281 3.285156 C 6.96875 3.242188 6.972656 3.484375 6.972656 3.484375 L 6.992188 4.152344 Z M 7.941406 6.707031 L 7.890625 5.320312 C 7.890625 5.320312 8.011719 4.828125 8.332031 4.792969 C 8.824219 4.734375 8.945312 5.070312 8.945312 5.070312 L 8.996094 6.515625 Z M 8.4375 3.464844 L 8.417969 2.667969 C 8.417969 2.667969 8.546875 2.335938 8.738281 2.304688 C 9.035156 2.261719 9.128906 2.402344 9.128906 2.402344 L 9.179688 3.082031 Z M 8.4375 3.464844 "/>
</g>
</svg>
