<?xml version="1.0" encoding="UTF-8"?>
<svg xmlns="http://www.w3.org/2000/svg" xmlns:xlink="http://www.w3.org/1999/xlink" width="10px" height="7px" viewBox="0 0 10 7" version="1.1">
<g id="surface1">
<path style=" stroke:none;fill-rule:nonzero;fill:rgb(30%,30%,30%);fill-opacity:1;" d="M 7.800781 3.699219 L 5.101562 0.0546875 C 5.082031 0.0195312 5.046875 0 5.007812 0 C 4.972656 0 4.9375 0.0195312 4.914062 0.0507812 L 2.152344 3.699219 C 2.132812 3.726562 2.121094 3.753906 2.121094 3.773438 C 2.121094 3.804688 2.144531 3.828125 2.191406 3.828125 L 3.117188 3.828125 L 3.117188 6.820312 C 3.117188 6.917969 3.179688 7 3.25 7 L 4.578125 7 C 4.652344 7 4.710938 6.917969 4.710938 6.820312 L 4.710938 5.976562 L 5.242188 5.976562 L 5.242188 6.820312 C 5.242188 6.917969 5.300781 7 5.375 7 L 6.699219 7 C 6.773438 7 6.832031 6.917969 6.832031 6.820312 L 6.832031 3.828125 L 7.761719 3.828125 C 7.804688 3.828125 7.828125 3.804688 7.828125 3.773438 C 7.828125 3.75 7.820312 3.726562 7.800781 3.699219 Z M 7.800781 3.699219 "/>
<path style=" stroke:none;fill-rule:nonzero;fill:rgb(30%,30%,30%);fill-opacity:1;" d="M 9.976562 3.546875 L 7.816406 0.628906 C 7.800781 0.601562 7.773438 0.585938 7.742188 0.585938 C 7.710938 0.585938 7.683594 0.601562 7.667969 0.628906 L 6.671875 1.941406 L 7.910156 3.613281 C 7.949219 3.664062 7.96875 3.71875 7.96875 3.773438 C 7.96875 3.871094 7.898438 3.96875 7.761719 3.96875 L 6.972656 3.96875 L 6.972656 6.101562 L 7.398438 6.101562 C 7.457031 6.101562 7.503906 6.039062 7.503906 5.960938 L 7.503906 5.367188 L 7.929688 5.367188 L 7.929688 5.960938 C 7.929688 6.039062 7.976562 6.101562 8.035156 6.101562 L 9.097656 6.101562 C 9.15625 6.101562 9.203125 6.039062 9.203125 5.960938 L 9.203125 3.648438 L 9.945312 3.648438 C 9.980469 3.648438 10 3.628906 10 3.605469 C 10 3.582031 9.988281 3.5625 9.976562 3.546875 Z M 9.976562 3.546875 "/>
<path style=" stroke:none;fill-rule:nonzero;fill:rgb(30%,30%,30%);fill-opacity:1;" d="M 2.191406 3.96875 C 2.054688 3.96875 1.984375 3.871094 1.984375 3.773438 C 1.984375 3.71875 2.003906 3.664062 2.042969 3.613281 L 3.339844 1.898438 L 2.382812 0.605469 C 2.367188 0.582031 2.339844 0.566406 2.308594 0.5625 C 2.277344 0.5625 2.25 0.578125 2.234375 0.605469 L 0.0234375 3.523438 C 0.0117188 3.539062 0 3.5625 0 3.582031 C 0 3.609375 0.0195312 3.625 0.0546875 3.625 L 0.796875 3.625 L 0.796875 5.9375 C 0.796875 6.015625 0.84375 6.082031 0.902344 6.082031 L 1.964844 6.082031 C 2.023438 6.082031 2.070312 6.015625 2.070312 5.9375 L 2.070312 5.347656 L 2.496094 5.347656 L 2.496094 5.9375 C 2.496094 6.015625 2.542969 6.082031 2.601562 6.082031 L 2.980469 6.082031 L 2.980469 3.96875 Z M 2.191406 3.96875 "/>
</g>
</svg>
