<?xml version="1.0" encoding="UTF-8" standalone="no"?>
<!-- Created with Inkscape (http://www.inkscape.org/) -->

<svg
   xmlns:dc="http://purl.org/dc/elements/1.1/"
   xmlns:cc="http://creativecommons.org/ns#"
   xmlns:rdf="http://www.w3.org/1999/02/22-rdf-syntax-ns#"
   xmlns:svg="http://www.w3.org/2000/svg"
   xmlns="http://www.w3.org/2000/svg"
   xmlns:xlink="http://www.w3.org/1999/xlink"
   xmlns:sodipodi="http://sodipodi.sourceforge.net/DTD/sodipodi-0.dtd"
   xmlns:inkscape="http://www.inkscape.org/namespaces/inkscape"
   width="30px"
   height="30px"
   version="1.1"
   id="svg8"
   inkscape:version="0.92.4 5da689c313, 2019-01-14"
   sodipodi:docname="container.svg">
  <defs
     id="defs2" />
  <sodipodi:namedview
     id="base"
     pagecolor="#ffffff"
     bordercolor="#666666"
     borderopacity="1.0"
     inkscape:pageopacity="0.0"
     inkscape:pageshadow="2"
     inkscape:zoom="13.049334"
     inkscape:cx="18.679046"
     inkscape:cy="12.165829"
     inkscape:document-units="px"
     inkscape:current-layer="layer1"
     showgrid="false"
     inkscape:snap-page="false"
     units="px"
     inkscape:window-width="1884"
     inkscape:window-height="1061"
     inkscape:window-x="0"
     inkscape:window-y="0"
     inkscape:window-maximized="1"
     fit-margin-top="0"
     fit-margin-left="0"
     fit-margin-right="0"
     fit-margin-bottom="0" />
  <metadata
     id="metadata5">
    <rdf:RDF>
      <cc:Work
         rdf:about="">
        <dc:format>image/svg+xml</dc:format>
        <dc:type
           rdf:resource="http://purl.org/dc/dcmitype/StillImage" />
        <dc:title></dc:title>
      </cc:Work>
    </rdf:RDF>
  </metadata>
    <circle
       style="color:#000000;clip-rule:nonzero;display:inline;overflow:visible;visibility:visible;opacity:1;isolation:auto;mix-blend-mode:normal;color-interpolation:sRGB;color-interpolation-filters:linearRGB;solid-color:#000000;solid-opacity:1;vector-effect:none;fill:#99163a;fill-opacity:1;fill-rule:evenodd;stroke:#ffffff;stroke-width:1;stroke-linecap:butt;stroke-linejoin:miter;stroke-miterlimit:4;stroke-dasharray:none;stroke-dashoffset:0;stroke-opacity:1;marker:none;color-rendering:auto;image-rendering:auto;shape-rendering:auto;text-rendering:auto;enable-background:accumulate"
       id="path815"
       cx="15"
       cy="15"
       r="14.5" />
<g transform="translate(7,10)"><g id="surface1">
<path style=" stroke:none;fill-rule:nonzero;fill:#FFFFFF;fill-opacity:1;" d="M 8.578125 8.394531 C 8.578125 9.28125 7.894531 10 7.046875 10 C 6.203125 10 5.515625 9.28125 5.515625 8.394531 C 5.515625 7.507812 6.203125 6.789062 7.046875 6.789062 C 7.894531 6.789062 8.578125 7.507812 8.578125 8.394531 Z M 8.578125 8.394531 "/>
<path style=" stroke:none;fill-rule:nonzero;fill:#FFFFFF;fill-opacity:1;" d="M 15.414062 7.664062 L 14.082031 7.664062 L 14.082031 2.660156 C 14.082031 1.191406 12.945312 0 11.542969 0 L 2.539062 0 C 1.140625 0 0.00390625 1.191406 0.00390625 2.660156 L 0.00390625 6.21875 C 0.00390625 7.335938 0.867188 8.242188 1.9375 8.242188 L 5.058594 8.242188 C 5.105469 7.105469 5.992188 6.199219 7.085938 6.199219 C 8.183594 6.199219 9.070312 7.136719 9.113281 8.273438 L 16 8.273438 C 16 7.9375 15.738281 7.664062 15.414062 7.664062 Z M 7.144531 3.195312 C 7.144531 3.527344 6.886719 3.796875 6.570312 3.796875 L 2.582031 3.796875 C 2.265625 3.796875 2.011719 3.527344 2.011719 3.195312 L 2.011719 2.285156 C 2.011719 1.953125 2.265625 1.683594 2.582031 1.683594 L 6.570312 1.683594 C 6.886719 1.683594 7.144531 1.953125 7.144531 2.285156 Z M 12.484375 3.097656 C 12.484375 3.484375 12.183594 3.796875 11.816406 3.796875 L 10.167969 3.796875 C 9.800781 3.796875 9.5 3.484375 9.5 3.097656 L 9.5 2.382812 C 9.5 1.996094 9.800781 1.683594 10.167969 1.683594 L 11.816406 1.683594 C 12.183594 1.683594 12.484375 1.996094 12.484375 2.382812 Z M 12.484375 3.097656 "/>
</g>
</g>
</svg>
