<?xml version="1.0" encoding="UTF-8" standalone="no"?>
<!-- Created with Inkscape (http://www.inkscape.org/) -->

<svg
   xmlns:dc="http://purl.org/dc/elements/1.1/"
   xmlns:cc="http://creativecommons.org/ns#"
   xmlns:rdf="http://www.w3.org/1999/02/22-rdf-syntax-ns#"
   xmlns:svg="http://www.w3.org/2000/svg"
   xmlns="http://www.w3.org/2000/svg"
   xmlns:xlink="http://www.w3.org/1999/xlink"
   xmlns:sodipodi="http://sodipodi.sourceforge.net/DTD/sodipodi-0.dtd"
   xmlns:inkscape="http://www.inkscape.org/namespaces/inkscape"
   width="30px"
   height="30px"
   version="1.1"
   id="svg8"
   inkscape:version="0.92.4 5da689c313, 2019-01-14"
   sodipodi:docname="container.svg">
  <defs
     id="defs2" />
  <sodipodi:namedview
     id="base"
     pagecolor="#ffffff"
     bordercolor="#666666"
     borderopacity="1.0"
     inkscape:pageopacity="0.0"
     inkscape:pageshadow="2"
     inkscape:zoom="13.049334"
     inkscape:cx="18.679046"
     inkscape:cy="12.165829"
     inkscape:document-units="px"
     inkscape:current-layer="layer1"
     showgrid="false"
     inkscape:snap-page="false"
     units="px"
     inkscape:window-width="1884"
     inkscape:window-height="1061"
     inkscape:window-x="0"
     inkscape:window-y="0"
     inkscape:window-maximized="1"
     fit-margin-top="0"
     fit-margin-left="0"
     fit-margin-right="0"
     fit-margin-bottom="0" />
  <metadata
     id="metadata5">
    <rdf:RDF>
      <cc:Work
         rdf:about="">
        <dc:format>image/svg+xml</dc:format>
        <dc:type
           rdf:resource="http://purl.org/dc/dcmitype/StillImage" />
        <dc:title></dc:title>
      </cc:Work>
    </rdf:RDF>
  </metadata>
    <circle
       style="color:#000000;clip-rule:nonzero;display:inline;overflow:visible;visibility:visible;opacity:1;isolation:auto;mix-blend-mode:normal;color-interpolation:sRGB;color-interpolation-filters:linearRGB;solid-color:#000000;solid-opacity:1;vector-effect:none;fill:#ffffff;fill-opacity:1;fill-rule:evenodd;stroke:#a01561;stroke-width:1;stroke-linecap:butt;stroke-linejoin:miter;stroke-miterlimit:4;stroke-dasharray:none;stroke-dashoffset:0;stroke-opacity:1;marker:none;color-rendering:auto;image-rendering:auto;shape-rendering:auto;text-rendering:auto;enable-background:accumulate"
       id="path815"
       cx="15"
       cy="15"
       r="14.5" />
<g transform="translate(7,9)"><g id="surface1">
<path style=" stroke:none;fill-rule:nonzero;fill:rgb(30%,30%,30%);fill-opacity:1;" d="M 12.480469 5.8125 L 8.164062 0.0820312 C 8.132812 0.03125 8.074219 0 8.015625 0 C 7.953125 0 7.898438 0.03125 7.863281 0.0820312 L 3.445312 5.816406 C 3.410156 5.859375 3.394531 5.898438 3.394531 5.929688 C 3.394531 5.980469 3.433594 6.011719 3.503906 6.011719 L 4.988281 6.011719 L 4.988281 10.71875 C 4.988281 10.871094 5.085938 11 5.203125 11 L 7.324219 11 C 7.441406 11 7.535156 10.871094 7.535156 10.71875 L 7.535156 9.394531 L 8.386719 9.394531 L 8.386719 10.71875 C 8.386719 10.871094 8.480469 11 8.597656 11 L 10.71875 11 C 10.835938 11 10.933594 10.871094 10.933594 10.71875 L 10.933594 6.011719 L 12.417969 6.011719 C 12.488281 6.011719 12.527344 5.980469 12.527344 5.929688 C 12.527344 5.894531 12.511719 5.855469 12.480469 5.8125 Z M 12.480469 5.8125 "/>
<path style=" stroke:none;fill-rule:nonzero;fill:rgb(30%,30%,30%);fill-opacity:1;" d="M 15.960938 5.570312 L 12.507812 0.988281 C 12.480469 0.945312 12.4375 0.921875 12.390625 0.921875 C 12.339844 0.921875 12.296875 0.945312 12.269531 0.984375 L 10.675781 3.050781 L 12.65625 5.675781 C 12.71875 5.753906 12.75 5.84375 12.75 5.929688 C 12.75 6.082031 12.636719 6.238281 12.417969 6.238281 L 11.152344 6.238281 L 11.152344 9.589844 L 11.835938 9.589844 C 11.929688 9.589844 12.007812 9.488281 12.007812 9.363281 L 12.007812 8.4375 L 12.6875 8.4375 L 12.6875 9.363281 C 12.6875 9.488281 12.761719 9.589844 12.855469 9.589844 L 14.554688 9.589844 C 14.648438 9.589844 14.722656 9.488281 14.722656 9.363281 L 14.722656 5.730469 L 15.914062 5.730469 C 15.96875 5.730469 16 5.703125 16 5.664062 C 15.996094 5.628906 15.984375 5.597656 15.960938 5.570312 Z M 15.960938 5.570312 "/>
<path style=" stroke:none;fill-rule:nonzero;fill:rgb(30%,30%,30%);fill-opacity:1;" d="M 3.503906 6.238281 C 3.289062 6.238281 3.175781 6.082031 3.175781 5.929688 C 3.175781 5.84375 3.207031 5.753906 3.269531 5.675781 L 5.34375 2.984375 L 3.816406 0.953125 C 3.789062 0.910156 3.742188 0.886719 3.695312 0.886719 C 3.644531 0.886719 3.601562 0.910156 3.574219 0.953125 L 0.0390625 5.539062 C 0.015625 5.5625 0.00390625 5.597656 0 5.628906 C 0 5.671875 0.03125 5.695312 0.0859375 5.695312 L 1.277344 5.695312 L 1.277344 9.332031 C 1.277344 9.453125 1.351562 9.554688 1.445312 9.554688 L 3.144531 9.554688 C 3.238281 9.554688 3.3125 9.453125 3.3125 9.332031 L 3.3125 8.402344 L 3.992188 8.402344 L 3.992188 9.332031 C 3.992188 9.453125 4.070312 9.554688 4.164062 9.554688 L 4.769531 9.554688 L 4.769531 6.238281 Z M 3.503906 6.238281 "/>
</g>
</g>
</svg>
