<?xml version="1.0" encoding="UTF-8" standalone="no"?>
<!-- Created with Inkscape (http://www.inkscape.org/) -->

<svg
   xmlns:dc="http://purl.org/dc/elements/1.1/"
   xmlns:cc="http://creativecommons.org/ns#"
   xmlns:rdf="http://www.w3.org/1999/02/22-rdf-syntax-ns#"
   xmlns:svg="http://www.w3.org/2000/svg"
   xmlns="http://www.w3.org/2000/svg"
   xmlns:xlink="http://www.w3.org/1999/xlink"
   xmlns:sodipodi="http://sodipodi.sourceforge.net/DTD/sodipodi-0.dtd"
   xmlns:inkscape="http://www.inkscape.org/namespaces/inkscape"
   width="30px"
   height="30px"
   version="1.1"
   id="svg8"
   inkscape:version="0.92.4 5da689c313, 2019-01-14"
   sodipodi:docname="container.svg">
  <defs
     id="defs2" />
  <sodipodi:namedview
     id="base"
     pagecolor="#ffffff"
     bordercolor="#666666"
     borderopacity="1.0"
     inkscape:pageopacity="0.0"
     inkscape:pageshadow="2"
     inkscape:zoom="13.049334"
     inkscape:cx="18.679046"
     inkscape:cy="12.165829"
     inkscape:document-units="px"
     inkscape:current-layer="layer1"
     showgrid="false"
     inkscape:snap-page="false"
     units="px"
     inkscape:window-width="1884"
     inkscape:window-height="1061"
     inkscape:window-x="0"
     inkscape:window-y="0"
     inkscape:window-maximized="1"
     fit-margin-top="0"
     fit-margin-left="0"
     fit-margin-right="0"
     fit-margin-bottom="0" />
  <metadata
     id="metadata5">
    <rdf:RDF>
      <cc:Work
         rdf:about="">
        <dc:format>image/svg+xml</dc:format>
        <dc:type
           rdf:resource="http://purl.org/dc/dcmitype/StillImage" />
        <dc:title></dc:title>
      </cc:Work>
    </rdf:RDF>
  </metadata>
    <circle
       style="color:#000000;clip-rule:nonzero;display:inline;overflow:visible;visibility:visible;opacity:1;isolation:auto;mix-blend-mode:normal;color-interpolation:sRGB;color-interpolation-filters:linearRGB;solid-color:#000000;solid-opacity:1;vector-effect:none;fill:#99163a;fill-opacity:1;fill-rule:evenodd;stroke:#ffffff;stroke-width:1;stroke-linecap:butt;stroke-linejoin:miter;stroke-miterlimit:4;stroke-dasharray:none;stroke-dashoffset:0;stroke-opacity:1;marker:none;color-rendering:auto;image-rendering:auto;shape-rendering:auto;text-rendering:auto;enable-background:accumulate"
       id="path815"
       cx="15"
       cy="15"
       r="14.5" />
<g transform="translate(7,7)"><g id="surface1">
<path style=" stroke:none;fill-rule:nonzero;fill:#FFFFFF;fill-opacity:1;" d="M 14.160156 9.480469 L 13.136719 9.46875 C 13.023438 9.464844 12.894531 8.777344 12.738281 8.453125 C 12.019531 6.800781 10.746094 7.070312 8.984375 7.070312 C 8.472656 7.070312 7.1875 7.0625 6.949219 7.070312 L 6.597656 7.070312 C 4.238281 7.078125 2.570312 6.710938 2.039062 8.902344 C 1.980469 9.101562 1.957031 9.484375 1.839844 9.484375 L 0.921875 9.480469 C 0.597656 9.480469 0.238281 9.710938 0.238281 10.015625 C 0.238281 10.265625 0.371094 10.574219 1.035156 10.695312 C 1.101562 10.707031 1.160156 10.75 1.191406 10.808594 C 1.222656 10.867188 1.21875 10.9375 1.1875 10.996094 C 1.007812 11.3125 0.988281 11.65625 0.988281 12.007812 C 0.988281 12.460938 1.152344 13.128906 1.511719 13.601562 C 1.542969 13.644531 1.558594 13.699219 1.550781 13.75 C 1.546875 13.785156 1.546875 13.816406 1.546875 13.851562 L 1.546875 14.972656 C 1.546875 15.539062 2.03125 15.996094 2.628906 15.996094 L 2.699219 15.996094 C 3.292969 15.996094 3.777344 15.539062 3.78125 14.972656 L 3.78125 14.53125 C 3.785156 14.53125 3.789062 14.53125 3.792969 14.53125 C 4.738281 14.605469 9.519531 14.609375 11.09375 14.527344 C 11.152344 14.523438 11.210938 14.542969 11.257812 14.582031 C 11.300781 14.621094 11.324219 14.675781 11.324219 14.734375 L 11.324219 14.972656 C 11.328125 15.539062 11.8125 15.996094 12.410156 15.996094 L 12.476562 15.996094 C 13.074219 15.996094 13.558594 15.539062 13.558594 14.972656 L 13.558594 13.851562 C 13.558594 13.828125 13.558594 13.808594 13.558594 13.785156 C 13.554688 13.734375 13.570312 13.683594 13.601562 13.644531 C 13.933594 13.203125 14.066406 12.441406 14.066406 12.007812 C 14.066406 11.667969 14.042969 11.292969 13.863281 10.96875 C 13.832031 10.914062 13.828125 10.847656 13.855469 10.789062 C 13.882812 10.734375 13.933594 10.691406 13.996094 10.671875 C 14.019531 10.667969 14.039062 10.660156 14.058594 10.65625 C 14.554688 10.511719 14.746094 10.34375 14.746094 10.035156 C 14.746094 9.730469 14.484375 9.480469 14.160156 9.480469 Z M 3.699219 13.546875 C 3.191406 13.546875 2.777344 13.15625 2.777344 12.671875 C 2.777344 12.1875 3.191406 11.796875 3.699219 11.796875 C 4.210938 11.796875 4.625 12.1875 4.625 12.671875 C 4.625 13.15625 4.210938 13.546875 3.699219 13.546875 Z M 2.425781 9.789062 C 2.5625 7.191406 4.414062 7.617188 6.722656 7.582031 L 9.460938 7.582031 C 10.804688 7.589844 12.40625 7.402344 12.457031 9.789062 C 12.484375 10.996094 10.132812 11.300781 7.363281 11.300781 C 4.59375 11.300781 2.363281 10.996094 2.425781 9.789062 Z M 11.558594 13.546875 C 11.050781 13.546875 10.636719 13.15625 10.636719 12.671875 C 10.636719 12.1875 11.050781 11.796875 11.558594 11.796875 C 12.070312 11.796875 12.484375 12.1875 12.484375 12.671875 C 12.484375 13.15625 12.070312 13.546875 11.558594 13.546875 Z M 11.558594 13.546875 "/>
<path style=" stroke:none;fill-rule:nonzero;fill:#FFFFFF;fill-opacity:1;" d="M 5.78125 4.269531 L 5.78125 2.203125 L 7.28125 2.203125 C 8.332031 2.203125 9.386719 2.160156 10.429688 2.214844 C 11.597656 2.273438 12.386719 2.859375 12.726562 3.757812 C 12.78125 3.902344 12.78125 4.070312 12.8125 4.269531 C 10.464844 4.269531 8.160156 4.269531 5.78125 4.269531 Z M 5.78125 4.269531 "/>
<path style=" stroke:none;fill-rule:nonzero;fill:#FFFFFF;fill-opacity:1;" d="M 3.683594 4.3125 C 2.765625 4.328125 2.074219 3.683594 2.046875 2.796875 C 2.023438 1.894531 2.738281 1.167969 3.660156 1.171875 C 4.535156 1.175781 5.269531 1.882812 5.277344 2.734375 C 5.285156 3.601562 4.578125 4.300781 3.683594 4.3125 Z M 3.683594 4.3125 "/>
<path style=" stroke:none;fill-rule:nonzero;fill:#FFFFFF;fill-opacity:1;" d="M 14.355469 1.152344 C 13.921875 1.152344 13.679688 1.304688 13.679688 1.734375 C 13.679688 2.386719 13.667969 3.125 13.667969 3.777344 L 13.667969 5.265625 L 1.324219 5.265625 C 1.324219 3.949219 1.316406 1.304688 1.316406 1.304688 L 1.316406 0.585938 C 1.316406 0.160156 1.074219 0.00390625 0.675781 0.00390625 C 0.285156 0.00390625 0 0.160156 0 0.582031 L 0 0.601562 C 0.0078125 3.230469 0.015625 4.816406 0.0234375 7.441406 L 1.324219 7.441406 L 1.324219 6.085938 L 13.667969 6.085938 L 13.667969 7.421875 L 14.960938 7.421875 C 14.976562 7.28125 15 7.167969 15 7.058594 C 15 5.074219 15 4.132812 15 2.148438 L 15 1.730469 C 15 1.308594 14.757812 1.152344 14.355469 1.152344 Z M 14.355469 1.152344 "/>
</g>
</g>
</svg>
