<?xml version="1.0" encoding="UTF-8"?>
<svg xmlns="http://www.w3.org/2000/svg" xmlns:xlink="http://www.w3.org/1999/xlink" width="11px" height="7px" viewBox="0 0 11 7" version="1.1">
<g id="surface1">
<path style=" stroke:none;fill-rule:nonzero;fill:rgb(30%,30%,30%);fill-opacity:1;" d="M 5.898438 5.875 C 5.898438 6.496094 5.425781 7 4.84375 7 C 4.265625 7 3.792969 6.496094 3.792969 5.875 C 3.792969 5.257812 4.265625 4.753906 4.84375 4.753906 C 5.425781 4.753906 5.898438 5.257812 5.898438 5.875 Z M 5.898438 5.875 "/>
<path style=" stroke:none;fill-rule:nonzero;fill:rgb(30%,30%,30%);fill-opacity:1;" d="M 10.597656 5.363281 L 9.679688 5.363281 L 9.679688 1.863281 C 9.679688 0.832031 8.898438 0 7.933594 0 L 1.746094 0 C 0.78125 0 0 0.835938 0 1.863281 L 0 4.351562 C 0 5.136719 0.597656 5.769531 1.332031 5.769531 L 3.476562 5.769531 C 3.507812 4.976562 4.117188 4.339844 4.871094 4.339844 C 5.625 4.339844 6.234375 4.996094 6.265625 5.792969 L 11 5.792969 C 11 5.554688 10.820312 5.363281 10.597656 5.363281 Z M 4.910156 2.238281 C 4.910156 2.46875 4.734375 2.65625 4.515625 2.65625 L 1.777344 2.65625 C 1.558594 2.65625 1.382812 2.46875 1.382812 2.238281 L 1.382812 1.597656 C 1.382812 1.367188 1.558594 1.179688 1.777344 1.179688 L 4.515625 1.179688 C 4.734375 1.179688 4.910156 1.367188 4.910156 1.597656 Z M 8.582031 2.167969 C 8.582031 2.4375 8.378906 2.65625 8.125 2.65625 L 6.992188 2.65625 C 6.738281 2.65625 6.53125 2.4375 6.53125 2.167969 L 6.53125 1.667969 C 6.53125 1.398438 6.738281 1.179688 6.992188 1.179688 L 8.125 1.179688 C 8.378906 1.179688 8.582031 1.398438 8.582031 1.667969 Z M 8.582031 2.167969 "/>
</g>
</svg>
