<?xml version="1.0" encoding="UTF-8" standalone="no"?>
<!-- Created with Inkscape (http://www.inkscape.org/) -->

<svg
   xmlns:dc="http://purl.org/dc/elements/1.1/"
   xmlns:cc="http://creativecommons.org/ns#"
   xmlns:rdf="http://www.w3.org/1999/02/22-rdf-syntax-ns#"
   xmlns:svg="http://www.w3.org/2000/svg"
   xmlns="http://www.w3.org/2000/svg"
   xmlns:xlink="http://www.w3.org/1999/xlink"
   xmlns:sodipodi="http://sodipodi.sourceforge.net/DTD/sodipodi-0.dtd"
   xmlns:inkscape="http://www.inkscape.org/namespaces/inkscape"
   width="30px"
   height="30px"
   version="1.1"
   id="svg8"
   inkscape:version="0.92.4 5da689c313, 2019-01-14"
   sodipodi:docname="container.svg">
  <defs
     id="defs2" />
  <sodipodi:namedview
     id="base"
     pagecolor="#ffffff"
     bordercolor="#666666"
     borderopacity="1.0"
     inkscape:pageopacity="0.0"
     inkscape:pageshadow="2"
     inkscape:zoom="13.049334"
     inkscape:cx="18.679046"
     inkscape:cy="12.165829"
     inkscape:document-units="px"
     inkscape:current-layer="layer1"
     showgrid="false"
     inkscape:snap-page="false"
     units="px"
     inkscape:window-width="1884"
     inkscape:window-height="1061"
     inkscape:window-x="0"
     inkscape:window-y="0"
     inkscape:window-maximized="1"
     fit-margin-top="0"
     fit-margin-left="0"
     fit-margin-right="0"
     fit-margin-bottom="0" />
  <metadata
     id="metadata5">
    <rdf:RDF>
      <cc:Work
         rdf:about="">
        <dc:format>image/svg+xml</dc:format>
        <dc:type
           rdf:resource="http://purl.org/dc/dcmitype/StillImage" />
        <dc:title></dc:title>
      </cc:Work>
    </rdf:RDF>
  </metadata>
    <circle
       style="color:#000000;clip-rule:nonzero;display:inline;overflow:visible;visibility:visible;opacity:1;isolation:auto;mix-blend-mode:normal;color-interpolation:sRGB;color-interpolation-filters:linearRGB;solid-color:#000000;solid-opacity:1;vector-effect:none;fill:#ffffff;fill-opacity:1;fill-rule:evenodd;stroke:#a01561;stroke-width:1;stroke-linecap:butt;stroke-linejoin:miter;stroke-miterlimit:4;stroke-dasharray:none;stroke-dashoffset:0;stroke-opacity:1;marker:none;color-rendering:auto;image-rendering:auto;shape-rendering:auto;text-rendering:auto;enable-background:accumulate"
       id="path815"
       cx="15"
       cy="15"
       r="14.5" />
<g transform="translate(7,7)"><g id="surface1">
<path style=" stroke:none;fill-rule:nonzero;fill:rgb(30%,30%,30%);fill-opacity:1;" d="M 15.179688 8.925781 L 15.566406 8.925781 C 15.953125 8.925781 16.144531 8.4375 15.871094 8.152344 L 10.53125 2.621094 L 10.53125 2.597656 L 6.605469 6.679688 L 7.195312 7.65625 C 7.222656 7.699219 7.238281 7.75 7.242188 7.800781 C 7.242188 7.863281 7.203125 7.90625 7.132812 7.90625 L 5.625 7.90625 L 7.636719 11.242188 C 7.664062 11.285156 7.679688 11.332031 7.683594 11.386719 C 7.683594 11.449219 7.644531 11.492188 7.574219 11.492188 L 6.382812 11.492188 L 6.382812 14.320312 L 4.070312 14.320312 L 4.070312 11.066406 L 6.898438 11.066406 C 6.96875 11.066406 7.007812 11.027344 7.007812 10.960938 C 7.003906 10.910156 6.988281 10.859375 6.960938 10.816406 L 4.949219 7.484375 L 6.457031 7.484375 C 6.53125 7.484375 6.566406 7.441406 6.566406 7.378906 C 6.566406 7.324219 6.546875 7.273438 6.519531 7.234375 L 4.507812 3.898438 L 5.59375 3.898438 C 5.664062 3.898438 5.703125 3.855469 5.703125 3.792969 C 5.699219 3.742188 5.683594 3.691406 5.65625 3.648438 L 3.503906 0 L 1.355469 3.648438 C 1.328125 3.691406 1.308594 3.742188 1.308594 3.792969 C 1.308594 3.855469 1.34375 3.898438 1.414062 3.898438 L 2.5 3.898438 L 0.492188 7.234375 C 0.460938 7.273438 0.445312 7.324219 0.441406 7.378906 C 0.441406 7.441406 0.480469 7.484375 0.550781 7.484375 L 2.058594 7.484375 L 0.0507812 10.816406 C 0.0195312 10.859375 0.00390625 10.910156 0 10.960938 C 0 11.027344 0.0390625 11.066406 0.109375 11.066406 L 3.085938 11.066406 L 3.085938 14.320312 L 1.671875 14.320312 C 1.492188 14.320312 1.347656 14.472656 1.347656 14.660156 C 1.347656 14.847656 1.492188 15 1.671875 15 L 15.535156 15 C 15.714844 15 15.859375 14.847656 15.859375 14.660156 C 15.859375 14.472656 15.714844 14.320312 15.535156 14.320312 L 14.667969 14.320312 L 14.667969 9.460938 C 14.667969 9.164062 14.894531 8.925781 15.179688 8.925781 Z M 11.742188 14.320312 L 9.304688 14.320312 L 9.304688 11.925781 C 9.304688 11.675781 9.5 11.472656 9.738281 11.472656 L 11.308594 11.472656 C 11.550781 11.472656 11.742188 11.675781 11.742188 11.925781 Z M 11.742188 14.320312 "/>
</g>
</g>
</svg>
