<?xml version="1.0" encoding="UTF-8" standalone="no"?>
<!-- Created with Inkscape (http://www.inkscape.org/) -->

<svg
   xmlns:dc="http://purl.org/dc/elements/1.1/"
   xmlns:cc="http://creativecommons.org/ns#"
   xmlns:rdf="http://www.w3.org/1999/02/22-rdf-syntax-ns#"
   xmlns:svg="http://www.w3.org/2000/svg"
   xmlns="http://www.w3.org/2000/svg"
   xmlns:xlink="http://www.w3.org/1999/xlink"
   xmlns:sodipodi="http://sodipodi.sourceforge.net/DTD/sodipodi-0.dtd"
   xmlns:inkscape="http://www.inkscape.org/namespaces/inkscape"
   width="30px"
   height="30px"
   version="1.1"
   id="svg8"
   inkscape:version="0.92.4 5da689c313, 2019-01-14"
   sodipodi:docname="container.svg">
  <defs
     id="defs2" />
  <sodipodi:namedview
     id="base"
     pagecolor="#ffffff"
     bordercolor="#666666"
     borderopacity="1.0"
     inkscape:pageopacity="0.0"
     inkscape:pageshadow="2"
     inkscape:zoom="13.049334"
     inkscape:cx="18.679046"
     inkscape:cy="12.165829"
     inkscape:document-units="px"
     inkscape:current-layer="layer1"
     showgrid="false"
     inkscape:snap-page="false"
     units="px"
     inkscape:window-width="1884"
     inkscape:window-height="1061"
     inkscape:window-x="0"
     inkscape:window-y="0"
     inkscape:window-maximized="1"
     fit-margin-top="0"
     fit-margin-left="0"
     fit-margin-right="0"
     fit-margin-bottom="0" />
  <metadata
     id="metadata5">
    <rdf:RDF>
      <cc:Work
         rdf:about="">
        <dc:format>image/svg+xml</dc:format>
        <dc:type
           rdf:resource="http://purl.org/dc/dcmitype/StillImage" />
        <dc:title></dc:title>
      </cc:Work>
    </rdf:RDF>
  </metadata>
    <circle
       style="color:#000000;clip-rule:nonzero;display:inline;overflow:visible;visibility:visible;opacity:1;isolation:auto;mix-blend-mode:normal;color-interpolation:sRGB;color-interpolation-filters:linearRGB;solid-color:#000000;solid-opacity:1;vector-effect:none;fill:#ffffff;fill-opacity:1;fill-rule:evenodd;stroke:#99163a;stroke-width:1;stroke-linecap:butt;stroke-linejoin:miter;stroke-miterlimit:4;stroke-dasharray:none;stroke-dashoffset:0;stroke-opacity:1;marker:none;color-rendering:auto;image-rendering:auto;shape-rendering:auto;text-rendering:auto;enable-background:accumulate"
       id="path815"
       cx="15"
       cy="15"
       r="14.5" />
<g transform="translate(6,7)"><g id="surface1">
<path style=" stroke:none;fill-rule:nonzero;fill:rgb(30%,30%,30%);fill-opacity:1;" d="M 6.582031 11.148438 L 6.582031 8.773438 L 8.265625 8.773438 C 9.445312 8.773438 10.632812 8.722656 11.808594 8.785156 C 13.121094 8.855469 14.007812 9.527344 14.390625 10.5625 C 14.449219 10.730469 14.449219 10.921875 14.488281 11.152344 C 11.84375 11.148438 9.253906 11.148438 6.582031 11.148438 Z M 6.582031 11.148438 "/>
<path style=" stroke:none;fill-rule:nonzero;fill:rgb(30%,30%,30%);fill-opacity:1;" d="M 4.222656 11.203125 C 3.1875 11.21875 2.410156 10.476562 2.378906 9.457031 C 2.351562 8.417969 3.160156 7.582031 4.191406 7.585938 C 5.175781 7.585938 6.003906 8.402344 6.011719 9.382812 C 6.019531 10.378906 5.226562 11.1875 4.222656 11.203125 Z M 4.222656 11.203125 "/>
<path style=" stroke:none;fill-rule:nonzero;fill:rgb(30%,30%,30%);fill-opacity:1;" d="M 16.222656 7.5625 C 15.734375 7.5625 15.460938 7.738281 15.460938 8.230469 C 15.460938 8.984375 15.449219 9.832031 15.445312 10.585938 L 15.445312 12.292969 L 1.566406 12.292969 C 1.566406 10.78125 1.558594 7.738281 1.558594 7.738281 L 1.558594 6.910156 C 1.558594 6.421875 1.285156 6.238281 0.835938 6.238281 C 0.398438 6.238281 0.078125 6.417969 0.078125 6.910156 L 0.078125 6.929688 C 0.0859375 9.953125 0.09375 12.976562 0.105469 16 L 1.566406 16 L 1.566406 13.953125 L 15.449219 13.953125 L 15.449219 15.980469 L 16.945312 15.980469 C 16.960938 15.816406 16.945312 15.6875 16.945312 15.558594 C 16.949219 13.277344 16.949219 10.996094 16.945312 8.710938 L 16.945312 8.230469 C 16.949219 7.742188 16.675781 7.5625 16.222656 7.5625 Z M 16.222656 7.5625 "/>
<path style=" stroke:none;fill-rule:nonzero;fill:rgb(30%,30%,30%);fill-opacity:1;" d="M 8.5 0 C 8.285156 0 0.00390625 3.90625 0.00390625 3.90625 L 0.00390625 5.328125 L 8.5 1.386719 L 16.996094 5.332031 L 16.996094 3.910156 C 16.996094 3.910156 8.714844 0 8.5 0 Z M 8.5 0 "/>
</g>
</g>
</svg>
