<?xml version="1.0" encoding="UTF-8"?>
<svg xmlns="http://www.w3.org/2000/svg" xmlns:xlink="http://www.w3.org/1999/xlink" width="10px" height="11px" viewBox="0 0 10 11" version="1.1">
<g id="surface1">
<path style=" stroke:none;fill-rule:nonzero;fill:rgb(30%,30%,30%);fill-opacity:1;" d="M 9.441406 6.519531 L 8.757812 6.507812 C 8.679688 6.507812 8.59375 6.035156 8.492188 5.8125 C 8.011719 4.675781 7.164062 4.859375 5.992188 4.859375 C 5.648438 4.859375 4.792969 4.855469 4.632812 4.859375 L 4.398438 4.859375 C 2.824219 4.867188 1.714844 4.613281 1.359375 6.121094 C 1.320312 6.257812 1.304688 6.523438 1.226562 6.519531 L 0.613281 6.519531 C 0.398438 6.519531 0.160156 6.675781 0.160156 6.886719 C 0.160156 7.058594 0.246094 7.269531 0.6875 7.351562 C 0.734375 7.359375 0.773438 7.390625 0.792969 7.429688 C 0.8125 7.472656 0.8125 7.519531 0.792969 7.558594 C 0.671875 7.777344 0.660156 8.011719 0.660156 8.253906 C 0.660156 8.566406 0.769531 9.027344 1.007812 9.351562 C 1.03125 9.382812 1.039062 9.417969 1.035156 9.453125 C 1.03125 9.476562 1.03125 9.5 1.03125 9.523438 L 1.03125 10.292969 C 1.03125 10.683594 1.355469 10.996094 1.753906 10.996094 L 1.796875 10.996094 C 2.195312 10.996094 2.519531 10.683594 2.519531 10.292969 L 2.519531 9.988281 C 2.523438 9.988281 2.527344 9.988281 2.527344 9.992188 C 3.160156 10.042969 6.34375 10.042969 7.394531 9.988281 C 7.433594 9.984375 7.476562 10 7.503906 10.023438 C 7.535156 10.050781 7.550781 10.089844 7.550781 10.128906 L 7.550781 10.292969 C 7.550781 10.683594 7.875 10.996094 8.273438 10.996094 L 8.320312 10.996094 C 8.714844 10.996094 9.039062 10.683594 9.039062 10.292969 L 9.039062 9.523438 C 9.039062 9.507812 9.039062 9.492188 9.039062 9.476562 C 9.035156 9.441406 9.046875 9.410156 9.066406 9.382812 C 9.289062 9.078125 9.378906 8.554688 9.378906 8.253906 C 9.378906 8.019531 9.363281 7.765625 9.242188 7.539062 C 9.222656 7.503906 9.21875 7.457031 9.238281 7.417969 C 9.253906 7.378906 9.289062 7.347656 9.332031 7.335938 C 9.34375 7.332031 9.359375 7.328125 9.371094 7.324219 C 9.703125 7.226562 9.832031 7.109375 9.832031 6.898438 C 9.832031 6.6875 9.65625 6.519531 9.441406 6.519531 Z M 2.46875 9.3125 C 2.128906 9.3125 1.851562 9.042969 1.851562 8.710938 C 1.851562 8.378906 2.128906 8.109375 2.46875 8.109375 C 2.808594 8.109375 3.082031 8.378906 3.082031 8.710938 C 3.082031 9.042969 2.808594 9.3125 2.46875 9.3125 Z M 1.617188 6.730469 C 1.707031 4.945312 2.941406 5.238281 4.480469 5.210938 L 6.304688 5.210938 C 7.203125 5.21875 8.269531 5.089844 8.304688 6.730469 C 8.324219 7.558594 6.753906 7.769531 4.910156 7.769531 C 3.0625 7.769531 1.574219 7.558594 1.617188 6.730469 Z M 7.707031 9.3125 C 7.367188 9.3125 7.089844 9.042969 7.089844 8.710938 C 7.089844 8.378906 7.367188 8.109375 7.707031 8.109375 C 8.046875 8.109375 8.320312 8.378906 8.320312 8.710938 C 8.320312 9.042969 8.046875 9.3125 7.707031 9.3125 Z M 7.707031 9.3125 "/>
<path style=" stroke:none;fill-rule:nonzero;fill:rgb(30%,30%,30%);fill-opacity:1;" d="M 3.855469 2.933594 L 3.855469 1.515625 L 4.855469 1.515625 C 5.554688 1.515625 6.257812 1.484375 6.953125 1.523438 C 7.730469 1.5625 8.257812 1.96875 8.484375 2.585938 C 8.519531 2.683594 8.519531 2.796875 8.542969 2.9375 C 6.976562 2.933594 5.4375 2.933594 3.855469 2.933594 Z M 3.855469 2.933594 "/>
<path style=" stroke:none;fill-rule:nonzero;fill:rgb(30%,30%,30%);fill-opacity:1;" d="M 2.457031 2.964844 C 1.84375 2.976562 1.382812 2.53125 1.367188 1.921875 C 1.347656 1.304688 1.828125 0.804688 2.4375 0.804688 C 3.023438 0.808594 3.511719 1.292969 3.515625 1.878906 C 3.523438 2.476562 3.054688 2.957031 2.457031 2.964844 Z M 2.457031 2.964844 "/>
<path style=" stroke:none;fill-rule:nonzero;fill:rgb(30%,30%,30%);fill-opacity:1;" d="M 9.570312 0.792969 C 9.28125 0.792969 9.117188 0.898438 9.117188 1.191406 C 9.117188 1.640625 9.113281 2.148438 9.109375 2.597656 L 9.109375 3.617188 L 0.882812 3.617188 C 0.882812 2.714844 0.878906 0.898438 0.878906 0.898438 L 0.878906 0.402344 C 0.878906 0.109375 0.71875 0.00390625 0.449219 0.00390625 C 0.191406 0.00390625 0 0.109375 0 0.402344 L 0 0.414062 C 0.00390625 2.21875 0.0117188 3.308594 0.015625 5.117188 L 0.882812 5.117188 L 0.882812 4.183594 L 9.113281 4.183594 L 9.113281 5.101562 L 9.972656 5.101562 C 9.984375 5.003906 10 4.929688 10 4.851562 C 10 3.488281 10 2.84375 10 1.476562 L 10 1.191406 C 10 0.898438 9.839844 0.792969 9.570312 0.792969 Z M 9.570312 0.792969 "/>
</g>
</svg>
