<?xml version="1.0" encoding="UTF-8"?>
<svg xmlns="http://www.w3.org/2000/svg" xmlns:xlink="http://www.w3.org/1999/xlink" width="11px" height="7px" viewBox="0 0 11 7" version="1.1">
<g id="surface1">
<path style=" stroke:none;fill-rule:nonzero;fill:rgb(30%,30%,30%);fill-opacity:1;" d="M 4.242188 3.519531 L 4.242188 1.816406 L 5.339844 1.816406 C 6.109375 1.816406 6.882812 1.78125 7.648438 1.824219 C 8.503906 1.875 9.082031 2.359375 9.332031 3.101562 C 9.371094 3.21875 9.371094 3.355469 9.394531 3.523438 C 7.671875 3.519531 5.984375 3.519531 4.242188 3.519531 Z M 4.242188 3.519531 "/>
<path style=" stroke:none;fill-rule:nonzero;fill:rgb(30%,30%,30%);fill-opacity:1;" d="M 2.703125 3.558594 C 2.03125 3.570312 1.523438 3.039062 1.503906 2.308594 C 1.484375 1.5625 2.011719 0.960938 2.683594 0.964844 C 3.328125 0.964844 3.863281 1.550781 3.871094 2.253906 C 3.875 2.96875 3.359375 3.546875 2.703125 3.558594 Z M 2.703125 3.558594 "/>
<path style=" stroke:none;fill-rule:nonzero;fill:rgb(30%,30%,30%);fill-opacity:1;" d="M 10.523438 0.949219 C 10.207031 0.949219 10.027344 1.074219 10.027344 1.429688 C 10.027344 1.96875 10.023438 2.578125 10.019531 3.117188 L 10.019531 4.34375 L 0.972656 4.34375 C 0.972656 3.257812 0.96875 1.074219 0.96875 1.074219 L 0.96875 0.480469 C 0.96875 0.132812 0.792969 0 0.496094 0 C 0.210938 0 0.00390625 0.128906 0.00390625 0.480469 L 0.00390625 0.496094 C 0.0078125 2.664062 0.015625 4.832031 0.0195312 7 L 0.972656 7 L 0.972656 5.53125 L 10.023438 5.53125 L 10.023438 6.984375 L 10.96875 6.984375 C 10.980469 6.867188 10.996094 6.773438 10.996094 6.683594 C 11 5.046875 11 3.410156 10.996094 1.773438 L 10.996094 1.425781 C 11 1.078125 10.820312 0.949219 10.523438 0.949219 Z M 10.523438 0.949219 "/>
</g>
</svg>
