<?xml version="1.0" encoding="UTF-8"?>
<svg xmlns="http://www.w3.org/2000/svg" xmlns:xlink="http://www.w3.org/1999/xlink" width="11px" height="10px" viewBox="0 0 11 10" version="1.1">
<g id="surface1">
<path style=" stroke:none;fill-rule:nonzero;fill:rgb(30%,30%,30%);fill-opacity:1;" d="M 10.433594 5.949219 L 10.699219 5.949219 C 10.964844 5.949219 11.097656 5.625 10.910156 5.433594 L 7.242188 1.75 L 7.242188 1.730469 L 4.542969 4.453125 L 4.945312 5.105469 C 4.964844 5.132812 4.976562 5.167969 4.980469 5.199219 C 4.980469 5.242188 4.953125 5.269531 4.90625 5.269531 L 3.867188 5.269531 L 5.25 7.492188 C 5.269531 7.523438 5.28125 7.554688 5.28125 7.589844 C 5.28125 7.632812 5.257812 7.660156 5.207031 7.660156 L 4.386719 7.660156 L 4.386719 9.546875 L 2.796875 9.546875 L 2.796875 7.378906 L 4.742188 7.378906 C 4.792969 7.378906 4.816406 7.351562 4.816406 7.308594 C 4.816406 7.273438 4.804688 7.238281 4.785156 7.210938 L 3.402344 4.988281 L 4.441406 4.988281 C 4.488281 4.988281 4.515625 4.960938 4.515625 4.917969 C 4.511719 4.882812 4.5 4.851562 4.480469 4.820312 L 3.097656 2.597656 L 3.847656 2.597656 C 3.894531 2.597656 3.921875 2.570312 3.921875 2.527344 C 3.917969 2.492188 3.90625 2.460938 3.886719 2.433594 L 2.410156 0 L 0.929688 2.433594 C 0.910156 2.460938 0.902344 2.492188 0.898438 2.527344 C 0.898438 2.570312 0.925781 2.597656 0.972656 2.597656 L 1.71875 2.597656 L 0.335938 4.820312 C 0.316406 4.851562 0.304688 4.882812 0.304688 4.917969 C 0.304688 4.960938 0.328125 4.988281 0.378906 4.988281 L 1.417969 4.988281 L 0.0351562 7.210938 C 0.015625 7.238281 0.00390625 7.273438 0 7.308594 C 0 7.351562 0.0273438 7.378906 0.0742188 7.378906 L 2.121094 7.378906 L 2.121094 9.546875 L 1.148438 9.546875 C 1.027344 9.546875 0.925781 9.648438 0.925781 9.773438 C 0.925781 9.898438 1.027344 10 1.148438 10 L 10.679688 10 C 10.804688 10 10.90625 9.898438 10.90625 9.773438 C 10.90625 9.648438 10.804688 9.546875 10.679688 9.546875 L 10.082031 9.546875 L 10.082031 6.304688 C 10.082031 6.109375 10.242188 5.949219 10.433594 5.949219 Z M 8.074219 9.546875 L 6.398438 9.546875 L 6.398438 7.949219 C 6.398438 7.785156 6.53125 7.648438 6.695312 7.648438 L 7.777344 7.648438 C 7.941406 7.648438 8.074219 7.785156 8.074219 7.949219 Z M 8.074219 9.546875 "/>
</g>
</svg>
