<?xml version="1.0" encoding="UTF-8"?>
<svg xmlns="http://www.w3.org/2000/svg" xmlns:xlink="http://www.w3.org/1999/xlink" width="10px" height="10px" viewBox="0 0 10 10" version="1.1">
<g id="surface1">
<path style=" stroke:none;fill-rule:nonzero;fill:rgb(30%,30%,30%);fill-opacity:1;" d="M 0.558594 6.894531 L 0.558594 9.925781 L 5.632812 9.925781 L 5.632812 6.894531 L 3.125 4.503906 Z M 0.558594 6.894531 "/>
<path style=" stroke:none;fill-rule:nonzero;fill:rgb(30%,30%,30%);fill-opacity:1;" d="M 9.65625 3.734375 L 10 3.316406 L 6.542969 0.03125 L 6.519531 0 L 6.515625 0.00390625 L 6.511719 0 L 6.484375 0.03125 L 3.460938 2.910156 L 3.460938 2.242188 L 2.492188 2.242188 L 2.492188 3.832031 L 0 6.183594 L 0.34375 6.605469 L 3.148438 3.957031 L 6.039062 6.707031 L 6.054688 9.933594 L 9.296875 10 L 9.316406 4.0625 L 6.507812 1.382812 L 3.835938 3.863281 L 3.539062 3.582031 L 6.515625 0.75 Z M 6.128906 4.503906 C 6.128906 4.320312 6.265625 4.171875 6.433594 4.140625 L 7.210938 4.140625 C 7.378906 4.171875 7.515625 4.320312 7.515625 4.503906 L 7.515625 5.34375 C 7.515625 5.527344 7.378906 5.675781 7.210938 5.675781 L 6.433594 5.675781 C 6.265625 5.675781 6.128906 5.527344 6.128906 5.34375 Z M 6.128906 4.503906 "/>
</g>
</svg>
