<?xml version="1.0" encoding="UTF-8"?>
<svg xmlns="http://www.w3.org/2000/svg" xmlns:xlink="http://www.w3.org/1999/xlink" width="10px" height="10px" viewBox="0 0 10 10" version="1.1">
<g id="surface1">
<path style=" stroke:none;fill-rule:nonzero;fill:rgb(30%,30%,30%);fill-opacity:1;" d="M 5 1.703125 L 1.5 4.9375 L 1.5 9.996094 L 3.941406 9.996094 C 3.921875 9.949219 3.914062 9.894531 3.914062 9.839844 L 3.914062 8.160156 C 3.914062 8.039062 3.957031 7.921875 4.039062 7.835938 C 4.121094 7.75 4.230469 7.699219 4.34375 7.699219 L 5.652344 7.699219 C 5.769531 7.699219 5.878906 7.75 5.957031 7.835938 C 6.039062 7.921875 6.082031 8.039062 6.082031 8.160156 L 6.082031 9.839844 C 6.082031 9.894531 6.074219 9.945312 6.058594 9.996094 L 8.417969 9.996094 L 8.417969 4.9375 Z M 5.957031 5.859375 C 5.957031 6.105469 5.769531 6.308594 5.539062 6.308594 L 4.480469 6.308594 C 4.25 6.308594 4.0625 6.105469 4.0625 5.859375 L 4.0625 4.71875 C 4.0625 4.472656 4.25 4.273438 4.480469 4.273438 L 5.539062 4.273438 C 5.769531 4.273438 5.957031 4.472656 5.957031 4.71875 Z M 5.957031 5.859375 "/>
<path style=" stroke:none;fill-rule:nonzero;fill:rgb(30%,30%,30%);fill-opacity:1;" d="M 10 4.730469 L 5.039062 0.0429688 L 5.003906 0.00390625 L 5 0.0078125 L 4.996094 0.00390625 L 4.960938 0.0429688 L 0 4.730469 L 0.464844 5.304688 L 5 1.019531 L 9.535156 5.304688 Z M 10 4.730469 "/>
</g>
</svg>
