<?xml version="1.0" encoding="UTF-8" standalone="no"?>
<!-- Created with Inkscape (http://www.inkscape.org/) -->

<svg
   xmlns:dc="http://purl.org/dc/elements/1.1/"
   xmlns:cc="http://creativecommons.org/ns#"
   xmlns:rdf="http://www.w3.org/1999/02/22-rdf-syntax-ns#"
   xmlns:svg="http://www.w3.org/2000/svg"
   xmlns="http://www.w3.org/2000/svg"
   xmlns:xlink="http://www.w3.org/1999/xlink"
   xmlns:sodipodi="http://sodipodi.sourceforge.net/DTD/sodipodi-0.dtd"
   xmlns:inkscape="http://www.inkscape.org/namespaces/inkscape"
   width="30px"
   height="30px"
   version="1.1"
   id="svg8"
   inkscape:version="0.92.4 5da689c313, 2019-01-14"
   sodipodi:docname="container.svg">
  <defs
     id="defs2" />
  <sodipodi:namedview
     id="base"
     pagecolor="#ffffff"
     bordercolor="#666666"
     borderopacity="1.0"
     inkscape:pageopacity="0.0"
     inkscape:pageshadow="2"
     inkscape:zoom="13.049334"
     inkscape:cx="18.679046"
     inkscape:cy="12.165829"
     inkscape:document-units="px"
     inkscape:current-layer="layer1"
     showgrid="false"
     inkscape:snap-page="false"
     units="px"
     inkscape:window-width="1884"
     inkscape:window-height="1061"
     inkscape:window-x="0"
     inkscape:window-y="0"
     inkscape:window-maximized="1"
     fit-margin-top="0"
     fit-margin-left="0"
     fit-margin-right="0"
     fit-margin-bottom="0" />
  <metadata
     id="metadata5">
    <rdf:RDF>
      <cc:Work
         rdf:about="">
        <dc:format>image/svg+xml</dc:format>
        <dc:type
           rdf:resource="http://purl.org/dc/dcmitype/StillImage" />
        <dc:title></dc:title>
      </cc:Work>
    </rdf:RDF>
  </metadata>
    <circle
       style="color:#000000;clip-rule:nonzero;display:inline;overflow:visible;visibility:visible;opacity:1;isolation:auto;mix-blend-mode:normal;color-interpolation:sRGB;color-interpolation-filters:linearRGB;solid-color:#000000;solid-opacity:1;vector-effect:none;fill:#a01561;fill-opacity:1;fill-rule:evenodd;stroke:#ffffff;stroke-width:1;stroke-linecap:butt;stroke-linejoin:miter;stroke-miterlimit:4;stroke-dasharray:none;stroke-dashoffset:0;stroke-opacity:1;marker:none;color-rendering:auto;image-rendering:auto;shape-rendering:auto;text-rendering:auto;enable-background:accumulate"
       id="path815"
       cx="15"
       cy="15"
       r="14.5" />
<g transform="translate(7,10)"><g id="surface1">
<path style=" stroke:none;fill-rule:nonzero;fill:#FFFFFF;fill-opacity:1;" d="M 6.167969 5.027344 L 6.167969 2.59375 L 7.769531 2.59375 C 8.886719 2.59375 10.007812 2.542969 11.125 2.609375 C 12.371094 2.679688 13.210938 3.371094 13.570312 4.429688 C 13.628906 4.601562 13.628906 4.796875 13.664062 5.03125 C 11.160156 5.027344 8.703125 5.027344 6.167969 5.027344 Z M 6.167969 5.027344 "/>
<path style=" stroke:none;fill-rule:nonzero;fill:#FFFFFF;fill-opacity:1;" d="M 3.933594 5.082031 C 2.953125 5.101562 2.214844 4.339844 2.1875 3.296875 C 2.160156 2.230469 2.925781 1.375 3.902344 1.378906 C 4.839844 1.382812 5.621094 2.214844 5.628906 3.222656 C 5.636719 4.242188 4.886719 5.066406 3.933594 5.082031 Z M 3.933594 5.082031 "/>
<path style=" stroke:none;fill-rule:nonzero;fill:#FFFFFF;fill-opacity:1;" d="M 15.308594 1.351562 C 14.847656 1.351562 14.585938 1.535156 14.585938 2.042969 C 14.585938 2.8125 14.578125 3.679688 14.574219 4.449219 L 14.574219 6.203125 L 1.414062 6.203125 C 1.414062 4.65625 1.40625 1.535156 1.40625 1.535156 L 1.40625 0.6875 C 1.40625 0.1875 1.152344 0 0.722656 0 C 0.308594 0 0.00390625 0.183594 0.00390625 0.683594 L 0.00390625 0.707031 C 0.0117188 3.804688 0.0195312 6.902344 0.03125 10 L 1.414062 10 L 1.414062 7.902344 L 14.578125 7.902344 L 14.578125 9.976562 L 15.957031 9.976562 C 15.972656 9.808594 15.996094 9.679688 15.996094 9.550781 C 15.996094 7.210938 15.996094 4.871094 15.996094 2.53125 L 15.996094 2.039062 C 15.996094 1.539062 15.738281 1.351562 15.308594 1.351562 Z M 15.308594 1.351562 "/>
</g>
</g>
</svg>
