<?xml version="1.0" encoding="UTF-8"?>
<svg xmlns="http://www.w3.org/2000/svg" xmlns:xlink="http://www.w3.org/1999/xlink" width="11px" height="10px" viewBox="0 0 11 10" version="1.1">
<g id="surface1">
<path style=" stroke:none;fill-rule:nonzero;fill:rgb(30%,30%,30%);fill-opacity:1;" d="M 4.257812 6.96875 L 4.257812 5.484375 L 5.347656 5.484375 C 6.113281 5.484375 6.878906 5.453125 7.640625 5.492188 C 8.492188 5.535156 9.0625 5.957031 9.3125 6.601562 C 9.351562 6.707031 9.351562 6.824219 9.375 6.96875 C 7.664062 6.96875 5.988281 6.96875 4.257812 6.96875 Z M 4.257812 6.96875 "/>
<path style=" stroke:none;fill-rule:nonzero;fill:rgb(30%,30%,30%);fill-opacity:1;" d="M 2.730469 7 C 2.0625 7.011719 1.558594 6.546875 1.539062 5.910156 C 1.523438 5.261719 2.042969 4.738281 2.710938 4.742188 C 3.351562 4.742188 3.882812 5.25 3.890625 5.863281 C 3.894531 6.488281 3.382812 6.992188 2.730469 7 Z M 2.730469 7 "/>
<path style=" stroke:none;fill-rule:nonzero;fill:rgb(30%,30%,30%);fill-opacity:1;" d="M 10.496094 4.726562 C 10.179688 4.726562 10.003906 4.835938 10.003906 5.144531 C 10.003906 5.613281 9.996094 6.144531 9.996094 6.613281 L 9.996094 7.683594 L 1.015625 7.683594 C 1.015625 6.738281 1.007812 4.835938 1.007812 4.835938 L 1.007812 4.320312 C 1.007812 4.015625 0.832031 3.898438 0.539062 3.898438 C 0.257812 3.898438 0.0507812 4.011719 0.0507812 4.316406 L 0.0507812 4.332031 C 0.0546875 6.222656 0.0625 8.109375 0.0664062 10 L 1.015625 10 L 1.015625 8.722656 L 9.996094 8.722656 L 9.996094 9.988281 L 10.964844 9.988281 C 10.976562 9.882812 10.964844 9.804688 10.964844 9.726562 C 10.964844 8.296875 10.964844 6.871094 10.964844 5.445312 L 10.964844 5.144531 C 10.964844 4.839844 10.789062 4.726562 10.496094 4.726562 Z M 10.496094 4.726562 "/>
<path style=" stroke:none;fill-rule:nonzero;fill:rgb(30%,30%,30%);fill-opacity:1;" d="M 5.5 0 C 5.359375 0 0.00390625 2.441406 0.00390625 2.441406 L 0.00390625 3.332031 L 5.5 0.867188 L 10.996094 3.332031 L 10.996094 2.445312 C 10.996094 2.445312 5.640625 0 5.5 0 Z M 5.5 0 "/>
</g>
</svg>
