<?xml version="1.0" encoding="UTF-8"?>
<svg xmlns="http://www.w3.org/2000/svg" xmlns:xlink="http://www.w3.org/1999/xlink" width="11px" height="11px" viewBox="0 0 11 11" version="1.1">
<g id="surface1">
<path style=" stroke:none;fill-rule:nonzero;fill:rgb(30%,30%,30%);fill-opacity:1;" d="M 2.734375 0.746094 C 2.734375 1.15625 2.390625 1.492188 1.964844 1.492188 C 1.539062 1.492188 1.191406 1.15625 1.191406 0.746094 C 1.191406 0.332031 1.539062 0 1.964844 0 C 2.390625 0 2.734375 0.332031 2.734375 0.746094 Z M 10.691406 2.175781 L 5.546875 2.175781 L 5.546875 2.453125 L 10.691406 2.453125 Z M 10.042969 10.285156 C 9.863281 10.277344 9.691406 10.167969 9.488281 10.035156 C 9.191406 9.84375 8.855469 9.628906 8.398438 9.679688 C 8.101562 9.710938 7.882812 9.859375 7.675781 10.003906 C 7.445312 10.164062 7.222656 10.316406 6.871094 10.304688 C 6.679688 10.300781 6.492188 10.191406 6.277344 10.0625 C 5.957031 9.875 5.59375 9.660156 5.09375 9.699219 C 4.804688 9.722656 4.578125 9.859375 4.359375 9.996094 C 4.117188 10.144531 3.886719 10.285156 3.558594 10.285156 C 3.359375 10.285156 3.160156 10.167969 2.929688 10.035156 C 2.640625 9.863281 2.3125 9.671875 1.914062 9.699219 C 1.625 9.71875 1.347656 9.867188 1.082031 10.015625 C 0.828125 10.152344 0.589844 10.285156 0.375 10.285156 C 0.25 10.28125 0.121094 10.257812 0.00390625 10.214844 L 0.0078125 10.925781 C 0.128906 10.960938 0.25 10.976562 0.375 10.976562 C 0.675781 10.976562 0.964844 10.820312 1.246094 10.664062 C 1.492188 10.53125 1.71875 10.40625 1.933594 10.390625 C 2.230469 10.371094 2.484375 10.519531 2.753906 10.679688 C 3.007812 10.824219 3.265625 10.976562 3.558594 10.976562 C 3.980469 10.976562 4.277344 10.796875 4.542969 10.632812 C 4.742188 10.511719 4.914062 10.40625 5.117188 10.390625 C 5.511719 10.359375 5.8125 10.535156 6.101562 10.707031 C 6.339844 10.847656 6.585938 10.992188 6.863281 11 C 6.878906 11 6.890625 11 6.90625 11 C 7.34375 11 7.628906 10.804688 7.878906 10.632812 C 8.0625 10.503906 8.222656 10.394531 8.433594 10.371094 C 8.769531 10.332031 9.027344 10.496094 9.296875 10.671875 C 9.523438 10.816406 9.757812 10.96875 10.027344 10.976562 C 10.046875 10.980469 10.066406 10.980469 10.082031 10.980469 C 10.449219 10.980469 10.777344 10.832031 10.996094 10.703125 L 10.996094 9.941406 C 10.878906 10.03125 10.484375 10.304688 10.042969 10.285156 Z M 10.042969 8.976562 C 9.863281 8.96875 9.691406 8.855469 9.488281 8.726562 C 9.191406 8.535156 8.855469 8.316406 8.398438 8.367188 C 8.101562 8.402344 7.882812 8.550781 7.675781 8.695312 C 7.445312 8.855469 7.222656 9.003906 6.871094 8.996094 C 6.679688 8.992188 6.492188 8.878906 6.277344 8.753906 C 6.234375 8.726562 6.191406 8.703125 6.148438 8.675781 C 6.148438 8.675781 9.75 7.90625 9.804688 7.894531 C 10.125 7.824219 10.59375 7.332031 10.59375 7.332031 C 10.707031 7.238281 10.824219 7.003906 10.726562 6.894531 L 10.65625 6.820312 C 10.558594 6.738281 10.441406 6.707031 10.273438 6.890625 L 9.960938 7.21875 C 9.921875 7.257812 9.859375 7.296875 9.773438 7.355469 C 9.769531 7.359375 9.660156 7.421875 9.652344 7.425781 L 9.351562 7.5 L 5.375 8.328125 C 5.375 8.328125 4.78125 5.289062 4.753906 5.257812 C 4.722656 5.105469 4.664062 4.988281 4.53125 4.917969 L 3.398438 4.285156 C 3.394531 4.253906 3.386719 4.222656 3.378906 4.191406 L 2.964844 2.570312 L 4.882812 2.570312 C 5.132812 2.570312 5.34375 2.371094 5.339844 2.128906 C 5.332031 1.894531 5.136719 1.707031 4.890625 1.707031 L 1.925781 1.707031 C 1.648438 1.765625 1.421875 1.957031 1.328125 2.21875 C 1.332031 2.242188 1.242188 2.445312 1.308594 2.78125 C 1.308594 2.78125 1.761719 4.589844 1.765625 4.597656 C 1.785156 4.753906 1.851562 4.910156 2.003906 4.992188 L 3.859375 6.027344 L 4.472656 8.617188 C 4.433594 8.636719 4.398438 8.660156 4.359375 8.683594 C 4.117188 8.835938 3.886719 8.976562 3.558594 8.976562 C 3.359375 8.976562 3.160156 8.859375 2.929688 8.726562 C 2.640625 8.554688 2.3125 8.363281 1.914062 8.386719 C 1.625 8.40625 1.347656 8.558594 1.082031 8.707031 C 0.828125 8.84375 0.589844 8.976562 0.375 8.976562 C 0.25 8.972656 0.121094 8.949219 0.00390625 8.90625 L 0.0078125 9.617188 C 0.128906 9.648438 0.25 9.667969 0.375 9.667969 C 0.675781 9.667969 0.964844 9.507812 1.246094 9.355469 C 1.492188 9.222656 1.71875 9.09375 1.933594 9.082031 C 2.230469 9.0625 2.484375 9.210938 2.753906 9.367188 C 3.007812 9.515625 3.265625 9.667969 3.558594 9.667969 C 3.980469 9.667969 4.277344 9.484375 4.542969 9.324219 C 4.742188 9.203125 4.914062 9.097656 5.117188 9.082031 C 5.511719 9.050781 5.8125 9.226562 6.101562 9.394531 C 6.339844 9.535156 6.585938 9.679688 6.863281 9.6875 C 6.878906 9.691406 6.890625 9.691406 6.90625 9.691406 C 7.34375 9.691406 7.628906 9.496094 7.878906 9.320312 C 8.0625 9.191406 8.222656 9.082031 8.433594 9.058594 C 8.769531 9.023438 9.027344 9.1875 9.296875 9.359375 C 9.523438 9.507812 9.757812 9.65625 10.027344 9.667969 C 10.046875 9.667969 10.066406 9.667969 10.082031 9.667969 C 10.449219 9.667969 10.777344 9.523438 10.996094 9.394531 L 10.996094 8.632812 C 10.878906 8.722656 10.484375 8.992188 10.042969 8.976562 Z M 10.042969 8.976562 "/>
</g>
</svg>
