<?xml version="1.0" encoding="UTF-8"?>
<svg xmlns="http://www.w3.org/2000/svg" xmlns:xlink="http://www.w3.org/1999/xlink" width="10px" height="10px" viewBox="0 0 10 10" version="1.1">
<g id="surface1">
<path style=" stroke:none;fill-rule:nonzero;fill:rgb(30%,30%,30%);fill-opacity:1;" d="M 8.1875 3.40625 C 8.089844 3.449219 8.265625 3.703125 8.195312 3.953125 C 8.125 4.207031 8.214844 4.28125 8.449219 4.300781 C 9.4375 4.378906 10.066406 3.738281 9.996094 3.601562 C 9.925781 3.460938 9.09375 3.738281 8.816406 3.648438 C 8.535156 3.554688 8.339844 3.332031 8.1875 3.40625 Z M 8.1875 3.40625 "/>
<path style=" stroke:none;fill-rule:nonzero;fill:rgb(30%,30%,30%);fill-opacity:1;" d="M 7.488281 2.75 C 7.183594 2.332031 6.808594 1.25 6.433594 0.785156 C 5.597656 -0.253906 4.011719 -0.136719 2.898438 0.414062 C 2.332031 0.691406 1.542969 1.566406 0.332031 1.457031 C 0.332031 1.457031 0.234375 1.453125 0.0429688 1.433594 L 0.0273438 6.863281 C 0.253906 6.839844 0.605469 6.648438 0.976562 6.535156 C 2.300781 6.136719 2.457031 6.324219 2.480469 6.453125 C 2.496094 6.566406 2.050781 6.722656 1.910156 6.769531 C 1.773438 6.816406 1.589844 7.003906 1.316406 7.011719 C 1.046875 7.019531 1.109375 6.945312 1.03125 6.917969 C 0.949219 6.890625 0.828125 7.039062 0.671875 7.078125 C 0.515625 7.113281 0.507812 7.039062 0.453125 7.066406 C 0.347656 7.125 0.09375 7.632812 0.0078125 7.84375 C -0.00390625 7.875 -0.00390625 7.910156 0.0117188 7.941406 C 0.0234375 7.972656 0.046875 7.996094 0.078125 8.007812 C 0.164062 8.039062 0.355469 7.972656 0.480469 7.960938 C 0.707031 7.945312 0.800781 7.457031 1.40625 7.457031 C 1.796875 7.457031 2.871094 7.019531 2.933594 7.050781 C 2.992188 7.078125 3.109375 7.214844 3.308594 7.375 C 3.8125 7.785156 3.910156 8.476562 3.929688 8.78125 C 3.945312 9.089844 3.980469 9.25 4.085938 9.359375 C 4.191406 9.472656 4.191406 9.542969 4.257812 9.769531 C 4.3125 9.949219 4.5 9.820312 4.714844 9.902344 C 4.878906 9.964844 5.007812 9.988281 5.089844 10 C 5.117188 10.003906 5.148438 9.992188 5.167969 9.972656 C 5.1875 9.953125 5.199219 9.921875 5.199219 9.890625 C 5.195312 9.773438 5.191406 9.597656 5.183594 9.566406 C 5.175781 9.519531 4.582031 9.183594 4.257812 8.679688 C 4.167969 8.535156 3.847656 7.113281 3.757812 6.707031 C 3.753906 6.683594 3.761719 6.660156 3.777344 6.644531 C 3.792969 6.625 3.8125 6.617188 3.835938 6.621094 L 4.15625 6.667969 C 4.355469 6.65625 4.660156 6.40625 4.730469 5.894531 C 4.773438 5.570312 4.859375 5.289062 4.957031 5.183594 C 5.148438 4.980469 5.21875 4.625 5.351562 4.652344 C 5.453125 4.675781 5.429688 5.007812 5.4375 5.195312 C 5.445312 5.378906 5.613281 5.511719 5.648438 5.574219 C 5.683594 5.640625 5.640625 5.863281 5.628906 6.246094 C 5.621094 6.628906 5.789062 6.945312 5.9375 6.984375 C 6.082031 7.019531 6.816406 7.167969 6.894531 7.058594 C 7.035156 6.863281 6.914062 6.5 7 6.285156 C 7.046875 6.171875 7.1875 5.683594 7.289062 5.484375 C 7.402344 5.257812 7.550781 5.078125 7.910156 4.4375 C 8.335938 3.675781 7.851562 3.25 7.488281 2.75 Z M 6.320312 5.128906 C 6.222656 5.109375 6.300781 4.878906 6.300781 4.878906 C 6.300781 4.878906 6.597656 4.8125 6.644531 4.988281 C 6.667969 5.097656 6.414062 5.148438 6.320312 5.128906 Z M 6.207031 4.242188 C 5.773438 4.066406 5.492188 3.601562 5.628906 3.179688 C 5.769531 2.761719 6.460938 3.011719 6.460938 3.011719 C 6.824219 3.207031 6.640625 3.648438 6.816406 3.824219 C 7.054688 4.058594 7.734375 3.730469 7.785156 3.859375 C 7.847656 4.019531 7.007812 4.570312 6.207031 4.242188 Z M 6.207031 4.242188 "/>
</g>
</svg>
