<?xml version="1.0" encoding="UTF-8" standalone="no"?>
<!-- Created with Inkscape (http://www.inkscape.org/) -->

<svg
   xmlns:dc="http://purl.org/dc/elements/1.1/"
   xmlns:cc="http://creativecommons.org/ns#"
   xmlns:rdf="http://www.w3.org/1999/02/22-rdf-syntax-ns#"
   xmlns:svg="http://www.w3.org/2000/svg"
   xmlns="http://www.w3.org/2000/svg"
   xmlns:xlink="http://www.w3.org/1999/xlink"
   xmlns:sodipodi="http://sodipodi.sourceforge.net/DTD/sodipodi-0.dtd"
   xmlns:inkscape="http://www.inkscape.org/namespaces/inkscape"
   width="30px"
   height="30px"
   version="1.1"
   id="svg8"
   inkscape:version="0.92.4 5da689c313, 2019-01-14"
   sodipodi:docname="container.svg">
  <defs
     id="defs2" />
  <sodipodi:namedview
     id="base"
     pagecolor="#ffffff"
     bordercolor="#666666"
     borderopacity="1.0"
     inkscape:pageopacity="0.0"
     inkscape:pageshadow="2"
     inkscape:zoom="13.049334"
     inkscape:cx="18.679046"
     inkscape:cy="12.165829"
     inkscape:document-units="px"
     inkscape:current-layer="layer1"
     showgrid="false"
     inkscape:snap-page="false"
     units="px"
     inkscape:window-width="1884"
     inkscape:window-height="1061"
     inkscape:window-x="0"
     inkscape:window-y="0"
     inkscape:window-maximized="1"
     fit-margin-top="0"
     fit-margin-left="0"
     fit-margin-right="0"
     fit-margin-bottom="0" />
  <metadata
     id="metadata5">
    <rdf:RDF>
      <cc:Work
         rdf:about="">
        <dc:format>image/svg+xml</dc:format>
        <dc:type
           rdf:resource="http://purl.org/dc/dcmitype/StillImage" />
        <dc:title></dc:title>
      </cc:Work>
    </rdf:RDF>
  </metadata>
    <circle
       style="color:#000000;clip-rule:nonzero;display:inline;overflow:visible;visibility:visible;opacity:1;isolation:auto;mix-blend-mode:normal;color-interpolation:sRGB;color-interpolation-filters:linearRGB;solid-color:#000000;solid-opacity:1;vector-effect:none;fill:#00A757;fill-opacity:1;fill-rule:evenodd;stroke:#ffffff;stroke-width:1;stroke-linecap:butt;stroke-linejoin:miter;stroke-miterlimit:4;stroke-dasharray:none;stroke-dashoffset:0;stroke-opacity:1;marker:none;color-rendering:auto;image-rendering:auto;shape-rendering:auto;text-rendering:auto;enable-background:accumulate"
       id="path815"
       cx="15"
       cy="15"
       r="14.5" />
<g transform="translate(7,7)"><g id="surface1">
<path style=" stroke:none;fill-rule:nonzero;fill:#FFFFFF;fill-opacity:1;" d="M 9.410156 6.363281 C 9.617188 4.453125 12.375 1.367188 13.476562 0.203125 C 13.722656 -0.0585938 14.121094 -0.0664062 14.378906 0.1875 L 15.796875 1.589844 C 16.054688 1.84375 16.070312 2.269531 15.828125 2.539062 C 14.8125 3.683594 12.160156 6.433594 9.828125 6.832031 C 9.652344 6.863281 14.175781 1.921875 14.070312 1.992188 C 12.785156 2.832031 9.410156 6.363281 9.410156 6.363281 Z M 1.902344 2.046875 C 1.832031 1.933594 6.601562 6.613281 6.574219 6.429688 C 6.167969 3.996094 3.507812 1.25 2.40625 0.199219 C 2.144531 -0.0507812 1.738281 -0.03125 1.5 0.242188 L 0.171875 1.742188 C -0.0664062 2.011719 -0.0546875 2.429688 0.195312 2.683594 C 1.320312 3.820312 4.300781 6.675781 6.128906 6.871094 C 6.128906 6.871094 2.71875 3.378906 1.902344 2.046875 Z M 9.660156 7.058594 L 9.25 6.628906 L 3.3125 12.800781 L 3.136719 12.636719 L 2.902344 12.914062 L 3.0625 13.058594 L 0.6875 15.53125 L 1.09375 15.957031 L 3.5 13.460938 L 3.691406 13.644531 L 3.925781 13.367188 L 3.75 13.199219 Z M 6.765625 6.652344 L 6.351562 7.074219 L 7.28125 8.074219 L 7.679688 7.640625 Z M 12.8125 13.171875 L 13.015625 12.929688 L 12.753906 12.683594 L 12.566406 12.90625 L 8.65625 8.695312 L 8.246094 9.121094 L 12.179688 13.355469 L 12.019531 13.542969 L 12.285156 13.789062 L 12.425781 13.621094 L 14.847656 15.996094 L 15.21875 15.5625 Z M 12.8125 13.171875 "/>
</g>
</g>
</svg>
