<?xml version="1.0" encoding="UTF-8"?>
<svg xmlns="http://www.w3.org/2000/svg" xmlns:xlink="http://www.w3.org/1999/xlink" width="10px" height="7px" viewBox="0 0 10 7" version="1.1">
<g id="surface1">
<path style=" stroke:none;fill-rule:nonzero;fill:rgb(30%,30%,30%);fill-opacity:1;" d="M 9.996094 6.902344 L 7.988281 1.835938 C 7.988281 1.835938 0.628906 0.0234375 0.414062 0 C 0.199219 -0.0195312 0 0.355469 0 0.355469 C 0.0195312 0.5 3.21875 1.808594 4.144531 2.195312 C 4.777344 2.457031 5.46875 2.847656 5.964844 3.167969 L 4.277344 4.269531 C 4.253906 4.285156 4.246094 4.316406 4.261719 4.34375 C 4.277344 4.367188 4.304688 4.375 4.328125 4.359375 L 6.058594 3.226562 C 6.074219 3.234375 6.085938 3.242188 6.097656 3.25 L 5.625 4.089844 C 5.582031 4.167969 5.605469 4.269531 5.675781 4.316406 L 5.792969 4.398438 C 5.355469 4.578125 4.808594 4.835938 4.714844 4.925781 C 4.574219 5.066406 4.730469 5.09375 4.941406 5.128906 C 5.152344 5.167969 6.269531 4.925781 6.269531 4.925781 L 6.4375 4.839844 L 7.160156 5.335938 C 7.195312 5.359375 7.238281 5.355469 7.265625 5.328125 C 7.296875 5.300781 7.308594 5.257812 7.292969 5.21875 L 6.964844 4.347656 C 7.027344 4.332031 7.074219 4.277344 7.089844 4.210938 C 7.101562 4.144531 7.074219 4.074219 7.023438 4.035156 C 6.96875 3.996094 6.902344 3.992188 6.84375 4.023438 L 6.738281 3.738281 C 8.03125 4.9375 8.835938 6.804688 9.445312 6.945312 C 10.074219 7.089844 9.996094 6.902344 9.996094 6.902344 Z M 6.664062 4.871094 L 6.542969 4.785156 L 6.664062 4.722656 Z M 6.953125 4.597656 L 7.191406 5.230469 L 7.070312 5.148438 L 7.074219 5.140625 L 6.785156 4.851562 Z M 6.785156 4.277344 C 6.757812 4.265625 6.730469 4.253906 6.699219 4.25 C 6.699219 4.25 6.585938 4.148438 6.304688 4.210938 C 6.226562 4.230469 6.082031 4.28125 5.910156 4.351562 L 5.730469 4.230469 C 5.703125 4.210938 5.695312 4.171875 5.710938 4.144531 L 6.179688 3.304688 C 6.355469 3.425781 6.496094 3.527344 6.578125 3.597656 L 6.769531 4.113281 C 6.75 4.164062 6.757812 4.226562 6.785156 4.277344 Z M 6.785156 4.277344 "/>
</g>
</svg>
