<?xml version="1.0" encoding="UTF-8" standalone="no"?>
<!-- Created with Inkscape (http://www.inkscape.org/) -->

<svg
   xmlns:dc="http://purl.org/dc/elements/1.1/"
   xmlns:cc="http://creativecommons.org/ns#"
   xmlns:rdf="http://www.w3.org/1999/02/22-rdf-syntax-ns#"
   xmlns:svg="http://www.w3.org/2000/svg"
   xmlns="http://www.w3.org/2000/svg"
   xmlns:xlink="http://www.w3.org/1999/xlink"
   xmlns:sodipodi="http://sodipodi.sourceforge.net/DTD/sodipodi-0.dtd"
   xmlns:inkscape="http://www.inkscape.org/namespaces/inkscape"
   width="30px"
   height="30px"
   version="1.1"
   id="svg8"
   inkscape:version="0.92.4 5da689c313, 2019-01-14"
   sodipodi:docname="container.svg">
  <defs
     id="defs2" />
  <sodipodi:namedview
     id="base"
     pagecolor="#ffffff"
     bordercolor="#666666"
     borderopacity="1.0"
     inkscape:pageopacity="0.0"
     inkscape:pageshadow="2"
     inkscape:zoom="13.049334"
     inkscape:cx="18.679046"
     inkscape:cy="12.165829"
     inkscape:document-units="px"
     inkscape:current-layer="layer1"
     showgrid="false"
     inkscape:snap-page="false"
     units="px"
     inkscape:window-width="1884"
     inkscape:window-height="1061"
     inkscape:window-x="0"
     inkscape:window-y="0"
     inkscape:window-maximized="1"
     fit-margin-top="0"
     fit-margin-left="0"
     fit-margin-right="0"
     fit-margin-bottom="0" />
  <metadata
     id="metadata5">
    <rdf:RDF>
      <cc:Work
         rdf:about="">
        <dc:format>image/svg+xml</dc:format>
        <dc:type
           rdf:resource="http://purl.org/dc/dcmitype/StillImage" />
        <dc:title></dc:title>
      </cc:Work>
    </rdf:RDF>
  </metadata>
    <circle
       style="color:#000000;clip-rule:nonzero;display:inline;overflow:visible;visibility:visible;opacity:1;isolation:auto;mix-blend-mode:normal;color-interpolation:sRGB;color-interpolation-filters:linearRGB;solid-color:#000000;solid-opacity:1;vector-effect:none;fill:#ffffff;fill-opacity:1;fill-rule:evenodd;stroke:#00a19a;stroke-width:1;stroke-linecap:butt;stroke-linejoin:miter;stroke-miterlimit:4;stroke-dasharray:none;stroke-dashoffset:0;stroke-opacity:1;marker:none;color-rendering:auto;image-rendering:auto;shape-rendering:auto;text-rendering:auto;enable-background:accumulate"
       id="path815"
       cx="15"
       cy="15"
       r="14.5" />
<g transform="translate(9,6)"><g id="surface1">
<path style=" stroke:none;fill-rule:nonzero;fill:rgb(30%,30%,30%);fill-opacity:1;" d="M 7.351562 14.769531 C 7.351562 15.496094 6.753906 16.085938 6.019531 16.085938 C 5.285156 16.085938 4.6875 15.496094 4.6875 14.769531 C 4.6875 14.042969 5.285156 13.453125 6.019531 13.453125 C 6.753906 13.453125 7.351562 14.042969 7.351562 14.769531 Z M 11.855469 16.078125 L 11.339844 15.539062 L 7.882812 11.851562 L 7.882812 0.707031 C 7.882812 0.320312 7.566406 0.00390625 7.171875 0.00390625 L 7.128906 0.00390625 C 6.738281 0.00390625 6.421875 0.320312 6.417969 0.707031 L 6.417969 6.238281 L 5.753906 6.238281 L 5.753906 0.707031 C 5.753906 0.320312 5.433594 0.00390625 5.042969 0.00390625 L 5 0.00390625 C 4.605469 0.00390625 4.289062 0.320312 4.289062 0.707031 L 4.289062 11.871094 L 1.042969 15.21875 L 0.152344 16.097656 C -0.0507812 16.300781 -0.0507812 16.628906 0.152344 16.828125 L 0.167969 16.84375 C 0.375 17.046875 0.703125 17.046875 0.910156 16.84375 L 2.050781 15.714844 C 2.066406 15.699219 2.082031 15.679688 2.097656 15.664062 L 5.136719 12.691406 L 7.035156 12.691406 L 10.15625 15.847656 L 11.082031 16.804688 C 11.28125 17.011719 11.613281 17.019531 11.820312 16.824219 L 11.839844 16.808594 C 12.046875 16.609375 12.054688 16.285156 11.855469 16.078125 Z M 11.855469 16.078125 "/>
</g>
</g>
</svg>
