<?xml version="1.0" encoding="UTF-8"?>
<svg xmlns="http://www.w3.org/2000/svg" xmlns:xlink="http://www.w3.org/1999/xlink" width="11px" height="9px" viewBox="0 0 11 9" version="1.1">
<g id="surface1">
<path style=" stroke:none;fill-rule:nonzero;fill:rgb(30%,30%,30%);fill-opacity:1;" d="M 9.425781 6.996094 C 9.347656 7.289062 9.058594 7.460938 8.773438 7.386719 C 8.484375 7.308594 8.316406 7.011719 8.390625 6.71875 C 8.464844 6.425781 8.757812 6.253906 9.042969 6.328125 C 9.328125 6.40625 9.5 6.703125 9.425781 6.996094 Z M 9.425781 6.996094 "/>
<path style=" stroke:none;fill-rule:nonzero;fill:rgb(30%,30%,30%);fill-opacity:1;" d="M 10.714844 5.777344 C 10.183594 4.847656 9.0625 4.46875 8.09375 4.886719 L 7.746094 3.902344 L 8.324219 3.238281 L 8.984375 3.695312 C 9.101562 3.773438 9.257812 3.742188 9.332031 3.625 C 9.410156 3.507812 9.378906 3.347656 9.265625 3.269531 L 7.652344 2.160156 C 7.539062 2.078125 7.382812 2.109375 7.304688 2.226562 C 7.230469 2.34375 7.257812 2.503906 7.375 2.582031 L 7.902344 2.949219 L 7.761719 3.113281 L 4.667969 1.445312 L 5.21875 0.59375 L 5.820312 0.914062 C 5.941406 0.980469 6.09375 0.929688 6.15625 0.804688 C 6.222656 0.679688 6.175781 0.523438 6.050781 0.460938 L 5.25 0.03125 C 5.136719 -0.03125 4.996094 0.0078125 4.925781 0.117188 L 2.996094 3.097656 C 2.875 3.039062 2.753906 2.992188 2.625 2.957031 C 1.507812 2.660156 0.363281 3.34375 0.0703125 4.484375 C -0.222656 5.628906 0.445312 6.800781 1.5625 7.097656 C 2.679688 7.398438 3.824219 6.714844 4.117188 5.570312 C 4.324219 4.761719 4.050781 3.90625 3.417969 3.375 L 4.316406 1.988281 L 5.636719 4.875 C 5.570312 4.960938 5.523438 5.0625 5.496094 5.167969 C 5.40625 5.515625 5.558594 5.878906 5.867188 6.050781 C 6.175781 6.222656 6.5625 6.15625 6.796875 5.894531 L 7.003906 5.96875 C 6.953125 6.078125 6.914062 6.195312 6.882812 6.3125 C 6.589844 7.457031 7.257812 8.628906 8.375 8.925781 C 8.550781 8.972656 8.730469 9 8.910156 9 C 9.660156 8.996094 10.351562 8.585938 10.722656 7.921875 C 11.09375 7.257812 11.089844 6.4375 10.714844 5.777344 Z M 10.5625 7.300781 C 10.359375 8.085938 9.664062 8.605469 8.90625 8.605469 C 8.378906 8.605469 7.878906 8.355469 7.554688 7.925781 C 7.230469 7.496094 7.121094 6.9375 7.253906 6.414062 C 7.453125 5.628906 8.148438 5.109375 8.90625 5.109375 C 9.054688 5.109375 9.199219 5.128906 9.339844 5.164062 C 10.253906 5.410156 10.800781 6.367188 10.5625 7.300781 Z M 6.457031 4.617188 C 6.445312 4.613281 6.4375 4.613281 6.429688 4.609375 C 6.308594 4.578125 6.183594 4.574219 6.066406 4.601562 L 4.957031 2.179688 L 7.417969 3.507812 Z M 5.980469 5.296875 C 6.015625 5.152344 6.160156 5.066406 6.300781 5.105469 C 6.441406 5.144531 6.523438 5.289062 6.488281 5.433594 C 6.453125 5.578125 6.308594 5.664062 6.167969 5.625 C 6.101562 5.605469 6.042969 5.5625 6.007812 5.5 C 5.972656 5.4375 5.960938 5.367188 5.980469 5.296875 Z M 6.863281 4.921875 L 7.367188 4.339844 L 7.652344 5.144531 C 7.511719 5.253906 7.382812 5.378906 7.273438 5.523438 L 6.996094 5.421875 C 7.007812 5.242188 6.960938 5.066406 6.863281 4.921875 Z M 2.128906 4.386719 C 1.835938 4.371094 1.570312 4.5625 1.488281 4.847656 C 1.40625 5.136719 1.53125 5.441406 1.785156 5.589844 C 2.039062 5.734375 2.359375 5.683594 2.554688 5.460938 C 2.753906 5.242188 2.777344 4.910156 2.609375 4.664062 L 3.222656 3.71875 C 3.816406 4.253906 3.972656 5.136719 3.601562 5.851562 C 3.226562 6.566406 2.425781 6.925781 1.660156 6.71875 C 0.746094 6.476562 0.199219 5.519531 0.441406 4.585938 C 0.640625 3.800781 1.335938 3.28125 2.09375 3.28125 C 2.320312 3.28125 2.546875 3.328125 2.757812 3.417969 Z M 2.128906 4.386719 "/>
</g>
</svg>
