<?xml version="1.0" encoding="UTF-8" standalone="no"?>
<!-- Created with Inkscape (http://www.inkscape.org/) -->

<svg
   xmlns:dc="http://purl.org/dc/elements/1.1/"
   xmlns:cc="http://creativecommons.org/ns#"
   xmlns:rdf="http://www.w3.org/1999/02/22-rdf-syntax-ns#"
   xmlns:svg="http://www.w3.org/2000/svg"
   xmlns="http://www.w3.org/2000/svg"
   xmlns:xlink="http://www.w3.org/1999/xlink"
   xmlns:sodipodi="http://sodipodi.sourceforge.net/DTD/sodipodi-0.dtd"
   xmlns:inkscape="http://www.inkscape.org/namespaces/inkscape"
   width="30px"
   height="30px"
   version="1.1"
   id="svg8"
   inkscape:version="0.92.4 5da689c313, 2019-01-14"
   sodipodi:docname="container.svg">
  <defs
     id="defs2" />
  <sodipodi:namedview
     id="base"
     pagecolor="#ffffff"
     bordercolor="#666666"
     borderopacity="1.0"
     inkscape:pageopacity="0.0"
     inkscape:pageshadow="2"
     inkscape:zoom="13.049334"
     inkscape:cx="18.679046"
     inkscape:cy="12.165829"
     inkscape:document-units="px"
     inkscape:current-layer="layer1"
     showgrid="false"
     inkscape:snap-page="false"
     units="px"
     inkscape:window-width="1884"
     inkscape:window-height="1061"
     inkscape:window-x="0"
     inkscape:window-y="0"
     inkscape:window-maximized="1"
     fit-margin-top="0"
     fit-margin-left="0"
     fit-margin-right="0"
     fit-margin-bottom="0" />
  <metadata
     id="metadata5">
    <rdf:RDF>
      <cc:Work
         rdf:about="">
        <dc:format>image/svg+xml</dc:format>
        <dc:type
           rdf:resource="http://purl.org/dc/dcmitype/StillImage" />
        <dc:title></dc:title>
      </cc:Work>
    </rdf:RDF>
  </metadata>
    <circle
       style="color:#000000;clip-rule:nonzero;display:inline;overflow:visible;visibility:visible;opacity:1;isolation:auto;mix-blend-mode:normal;color-interpolation:sRGB;color-interpolation-filters:linearRGB;solid-color:#000000;solid-opacity:1;vector-effect:none;fill:#ffffff;fill-opacity:1;fill-rule:evenodd;stroke:#00A757;stroke-width:1;stroke-linecap:butt;stroke-linejoin:miter;stroke-miterlimit:4;stroke-dasharray:none;stroke-dashoffset:0;stroke-opacity:1;marker:none;color-rendering:auto;image-rendering:auto;shape-rendering:auto;text-rendering:auto;enable-background:accumulate"
       id="path815"
       cx="15"
       cy="15"
       r="14.5" />
<g transform="translate(6,7)"><g id="surface1">
<path style=" stroke:none;fill-rule:nonzero;fill:rgb(30%,30%,30%);fill-opacity:1;" d="M 17 3.039062 C 17 4.0625 16.136719 4.890625 15.074219 4.890625 C 14.011719 4.890625 13.148438 4.0625 13.148438 3.039062 C 13.148438 2.011719 14.011719 1.183594 15.074219 1.183594 C 16.136719 1.183594 17 2.011719 17 3.039062 Z M 17 3.039062 "/>
<path style=" stroke:none;fill-rule:nonzero;fill:rgb(30%,30%,30%);fill-opacity:1;" d="M 0.207031 14.714844 C -0.0859375 15.019531 -0.0664062 15.496094 0.25 15.78125 L 0.273438 15.800781 C 0.59375 16.082031 1.089844 16.0625 1.382812 15.757812 L 7.152344 9.730469 L 5.976562 8.6875 Z M 0.207031 14.714844 "/>
<path style=" stroke:none;fill-rule:nonzero;fill:rgb(30%,30%,30%);fill-opacity:1;" d="M 16.707031 8.3125 C 16.695312 7.902344 16.34375 7.578125 15.917969 7.585938 L 12.648438 7.621094 L 12.636719 6.214844 L 11.097656 7.867188 C 10.957031 8.015625 10.882812 8.214844 10.890625 8.421875 C 10.902344 8.625 10.996094 8.816406 11.152344 8.953125 L 11.179688 8.972656 C 11.269531 9.050781 11.382812 9.109375 11.503906 9.140625 L 11.503906 9.160156 L 11.589844 9.160156 C 11.679688 9.175781 11.777344 9.171875 11.867188 9.15625 L 15.957031 9.101562 C 16.382812 9.089844 16.71875 8.75 16.710938 8.34375 Z M 16.707031 8.3125 "/>
<path style=" stroke:none;fill-rule:nonzero;fill:rgb(30%,30%,30%);fill-opacity:1;" d="M 13.023438 4.167969 L 11.898438 3.195312 L 8.792969 0.21875 C 8.492188 -0.0703125 8.007812 -0.0703125 7.707031 0.21875 L 7.703125 0.21875 L 7.683594 0.238281 C 7.664062 0.257812 7.644531 0.277344 7.628906 0.300781 L 4.882812 3.238281 C 4.59375 3.539062 4.617188 4.007812 4.933594 4.285156 L 4.957031 4.304688 C 5.273438 4.578125 5.757812 4.554688 6.046875 4.253906 L 8.28125 1.863281 L 10.277344 3.777344 L 7.152344 7.121094 L 7.144531 7.113281 L 6.574219 7.738281 C 6.308594 8.027344 6.320312 8.464844 6.605469 8.738281 L 9.496094 11.527344 L 5.507812 12.390625 C 5.175781 12.464844 4.964844 12.78125 5.039062 13.101562 L 5.113281 13.417969 C 5.1875 13.738281 5.515625 13.941406 5.847656 13.871094 L 11.070312 12.742188 C 11.207031 12.742188 11.339844 12.707031 11.453125 12.644531 C 11.566406 12.589844 11.660156 12.507812 11.71875 12.40625 C 11.9375 12.109375 11.902344 11.707031 11.636719 11.453125 L 11.589844 11.40625 C 11.566406 11.378906 11.542969 11.355469 11.515625 11.332031 L 9.308594 9.203125 L 13.078125 5.175781 C 13.347656 4.882812 13.324219 4.433594 13.023438 4.167969 Z M 13.023438 4.167969 "/>
</g>
</g>
</svg>
