<?xml version="1.0" encoding="UTF-8"?>
<svg xmlns="http://www.w3.org/2000/svg" xmlns:xlink="http://www.w3.org/1999/xlink" width="11px" height="10px" viewBox="0 0 11 10" version="1.1">
<g id="surface1">
<path style=" stroke:none;fill-rule:nonzero;fill:rgb(30%,30%,30%);fill-opacity:1;" d="M 10.042969 9.074219 C 9.867188 9.066406 9.691406 8.921875 9.492188 8.753906 C 9.191406 8.503906 8.855469 8.222656 8.398438 8.289062 C 8.101562 8.332031 7.886719 8.527344 7.675781 8.710938 C 7.445312 8.917969 7.226562 9.117188 6.875 9.101562 C 6.679688 9.09375 6.492188 8.953125 6.277344 8.789062 C 5.957031 8.542969 5.59375 8.265625 5.09375 8.316406 C 4.804688 8.347656 4.578125 8.527344 4.359375 8.703125 C 4.117188 8.894531 3.886719 9.078125 3.558594 9.078125 C 3.359375 9.078125 3.160156 8.925781 2.929688 8.753906 C 2.640625 8.535156 2.3125 8.285156 1.914062 8.320312 C 1.625 8.34375 1.347656 8.539062 1.078125 8.730469 C 0.828125 8.910156 0.589844 9.078125 0.375 9.078125 C 0.246094 9.078125 0.117188 9.039062 0.00390625 8.988281 L 0.0078125 9.90625 C 0.125 9.953125 0.25 9.976562 0.375 9.976562 C 0.675781 9.976562 0.964844 9.769531 1.246094 9.570312 C 1.492188 9.398438 1.722656 9.234375 1.933594 9.214844 C 2.230469 9.191406 2.484375 9.382812 2.753906 9.589844 C 3.007812 9.78125 3.269531 9.976562 3.558594 9.976562 C 3.984375 9.976562 4.28125 9.738281 4.542969 9.53125 C 4.742188 9.371094 4.914062 9.238281 5.121094 9.214844 C 5.515625 9.171875 5.8125 9.402344 6.101562 9.621094 C 6.339844 9.800781 6.585938 9.992188 6.867188 10 C 6.882812 10 6.898438 10 6.910156 10 C 7.347656 10 7.632812 9.746094 7.882812 9.523438 C 8.066406 9.359375 8.226562 9.214844 8.4375 9.183594 C 8.773438 9.136719 9.03125 9.351562 9.300781 9.574219 C 9.527344 9.761719 9.761719 9.957031 10.035156 9.972656 C 10.050781 9.972656 10.070312 9.972656 10.085938 9.972656 C 10.453125 9.972656 10.78125 9.78125 11 9.617188 L 11 8.628906 C 10.878906 8.746094 10.484375 9.097656 10.042969 9.074219 Z M 3.554688 8.300781 C 3.882812 8.300781 4.113281 8.144531 4.355469 7.976562 C 4.578125 7.824219 4.804688 7.671875 5.089844 7.644531 C 5.589844 7.597656 5.953125 7.839844 6.273438 8.050781 C 6.492188 8.195312 6.679688 8.316406 6.871094 8.324219 C 7.222656 8.335938 7.441406 8.164062 7.675781 7.984375 C 7.882812 7.824219 8.097656 7.65625 8.398438 7.621094 C 8.402344 7.617188 8.410156 7.617188 8.414062 7.617188 C 8.425781 7.558594 8.429688 7.496094 8.429688 7.4375 L 8.429688 5.339844 C 8.429688 4.570312 7.714844 3.941406 6.839844 3.941406 L 3.5625 3.941406 C 2.6875 3.941406 1.972656 4.570312 1.972656 5.339844 L 1.972656 7.4375 C 1.972656 7.507812 1.980469 7.574219 1.992188 7.644531 C 2.355469 7.644531 2.65625 7.84375 2.929688 8.023438 C 3.15625 8.171875 3.355469 8.300781 3.554688 8.300781 Z M 5.167969 0 C 6.085938 0 6.832031 0.761719 6.832031 1.699219 C 6.832031 2.636719 6.085938 3.398438 5.167969 3.398438 C 4.246094 3.398438 3.5 2.636719 3.5 1.699219 C 3.5 0.761719 4.246094 0 5.167969 0 Z M 5.167969 0 "/>
</g>
</svg>
