<?xml version="1.0" encoding="UTF-8"?>
<svg xmlns="http://www.w3.org/2000/svg" xmlns:xlink="http://www.w3.org/1999/xlink" width="10px" height="8px" viewBox="0 0 10 8" version="1.1">
<g id="surface1">
<path style=" stroke:none;fill-rule:nonzero;fill:rgb(30%,30%,30%);fill-opacity:1;" d="M 0.757812 4.527344 C 0.777344 4.472656 0.800781 4.421875 0.828125 4.375 L 0.734375 4.253906 C 0.648438 4.136719 0.613281 3.984375 0.640625 3.835938 C 0.667969 3.691406 0.753906 3.5625 0.878906 3.488281 L 1.074219 3.371094 C 1.195312 3.296875 1.339844 3.28125 1.472656 3.328125 C 1.605469 3.375 1.714844 3.476562 1.769531 3.613281 L 1.78125 3.640625 L 1.949219 3.957031 C 2.015625 3.992188 2.183594 4.066406 2.554688 4.148438 C 2.761719 4.191406 2.972656 4.214844 3.183594 4.210938 C 3.351562 4.210938 3.515625 4.199219 3.679688 4.179688 L 3.628906 4 C 3.585938 3.832031 3.601562 3.652344 3.679688 3.496094 L 3.753906 3.351562 C 3.84375 3.171875 4.003906 3.046875 4.195312 3.007812 L 4.632812 2.910156 C 4.675781 2.902344 4.722656 2.894531 4.765625 2.894531 C 5.027344 2.894531 5.265625 3.0625 5.363281 3.320312 L 5.386719 3.378906 C 5.449219 3.539062 5.449219 3.71875 5.390625 3.878906 L 5.289062 4.148438 C 5.359375 4.226562 5.417969 4.304688 5.476562 4.378906 C 5.554688 4.417969 5.632812 4.460938 5.714844 4.503906 C 6.203125 4.761719 6.8125 5.082031 7.210938 5.21875 C 7.429688 5.292969 7.761719 5.351562 8.113281 5.414062 C 8.40625 5.46875 8.707031 5.519531 8.992188 5.59375 C 9 5.480469 8.988281 5.394531 8.953125 5.375 C 9.164062 4.667969 7.277344 4.046875 6.5625 3.535156 C 6.109375 3.210938 5.480469 2.566406 5.015625 2.117188 C 4.945312 1.929688 4.886719 1.761719 4.765625 1.601562 C 4.761719 1.597656 4.753906 1.59375 4.75 1.589844 L 5.089844 1.128906 C 5.132812 1.074219 5.148438 1.003906 5.144531 0.933594 L 5.136719 0.871094 C 5.125 0.738281 5.023438 0.636719 4.898438 0.625 L 4.453125 0.585938 C 4.375 0.578125 4.296875 0.609375 4.242188 0.667969 L 4.136719 0.785156 C 4.089844 0.835938 4.0625 0.902344 4.0625 0.972656 L 4.054688 1.617188 C 3.648438 1.582031 2.988281 1.484375 2.421875 1.152344 C 1.730469 0.746094 1.679688 0.503906 1.660156 0.507812 L 1.613281 0.0976562 C 1.609375 0.0664062 1.59375 0.0390625 1.566406 0.0195312 C 1.542969 0 1.511719 -0.00390625 1.484375 0.00390625 L 1.261719 0.0585938 C 1.230469 0.0664062 1.207031 0.0859375 1.191406 0.117188 C 1.179688 0.144531 1.175781 0.175781 1.1875 0.207031 L 1.351562 0.632812 C 1.207031 0.71875 1.050781 0.867188 0.929688 1.113281 C 0.867188 1.238281 0.667969 1.8125 0.519531 2.28125 C 0.46875 2.4375 0.421875 2.582031 0.390625 2.691406 C 0.390625 2.699219 0.386719 2.707031 0.386719 2.714844 C 0.386719 2.714844 0.386719 2.714844 0.382812 2.714844 C 0.0546875 2.660156 -0.101562 3.960938 0.0742188 4.148438 C 0.101562 4.175781 0.199219 4.332031 0.5 4.4375 Z M 0.757812 4.527344 "/>
<path style=" stroke:none;fill-rule:nonzero;fill:rgb(30%,30%,30%);fill-opacity:1;" d="M 9.878906 7.039062 C 9.867188 5.867188 7.917969 5.792969 7.09375 5.515625 C 6.574219 5.335938 5.792969 4.90625 5.226562 4.609375 C 5.109375 4.453125 5.007812 4.308594 4.847656 4.191406 C 4.839844 4.1875 4.835938 4.1875 4.828125 4.1875 L 5.03125 3.640625 C 5.054688 3.578125 5.054688 3.503906 5.03125 3.441406 L 5.007812 3.378906 C 4.957031 3.257812 4.835938 3.1875 4.710938 3.214844 L 4.273438 3.3125 C 4.195312 3.328125 4.132812 3.378906 4.09375 3.453125 L 4.023438 3.597656 C 3.992188 3.660156 3.984375 3.730469 4 3.796875 L 4.171875 4.414062 C 3.769531 4.503906 3.113281 4.59375 2.476562 4.453125 C 1.871094 4.320312 1.683594 4.1875 1.625 4.113281 C 1.519531 4.054688 1.417969 3.683594 1.417969 3.683594 C 1.40625 3.652344 1.382812 3.632812 1.351562 3.621094 C 1.324219 3.613281 1.292969 3.613281 1.265625 3.628906 L 1.070312 3.75 C 1.042969 3.765625 1.023438 3.792969 1.019531 3.824219 C 1.011719 3.855469 1.019531 3.886719 1.039062 3.914062 L 1.308594 4.273438 C 1.199219 4.398438 1.085938 4.585938 1.035156 4.859375 C 1.007812 4.996094 0.972656 5.609375 0.957031 6.101562 C 0.949219 6.265625 0.949219 6.417969 0.945312 6.53125 L 0.945312 6.535156 C 0.945312 6.542969 0.945312 6.550781 0.945312 6.554688 L 0.945312 6.558594 C 0.613281 6.601562 0.816406 7.683594 1.035156 7.8125 C 1.066406 7.828125 1.207031 7.949219 1.523438 7.964844 L 3.085938 8 C 3.730469 8.007812 4.050781 7.777344 4.953125 7.777344 C 5.992188 7.777344 6.601562 7.980469 7.246094 7.957031 L 9.246094 7.773438 C 9.3125 7.761719 9.378906 7.742188 9.441406 7.722656 C 10.164062 7.515625 10.03125 7.070312 9.878906 7.039062 Z M 9.878906 7.039062 "/>
</g>
</svg>
