<?xml version="1.0" encoding="UTF-8" standalone="no"?>
<!-- Created with Inkscape (http://www.inkscape.org/) -->

<svg
   xmlns:dc="http://purl.org/dc/elements/1.1/"
   xmlns:cc="http://creativecommons.org/ns#"
   xmlns:rdf="http://www.w3.org/1999/02/22-rdf-syntax-ns#"
   xmlns:svg="http://www.w3.org/2000/svg"
   xmlns="http://www.w3.org/2000/svg"
   xmlns:xlink="http://www.w3.org/1999/xlink"
   xmlns:sodipodi="http://sodipodi.sourceforge.net/DTD/sodipodi-0.dtd"
   xmlns:inkscape="http://www.inkscape.org/namespaces/inkscape"
   width="30px"
   height="30px"
   version="1.1"
   id="svg8"
   inkscape:version="0.92.4 5da689c313, 2019-01-14"
   sodipodi:docname="container.svg">
  <defs
     id="defs2" />
  <sodipodi:namedview
     id="base"
     pagecolor="#ffffff"
     bordercolor="#666666"
     borderopacity="1.0"
     inkscape:pageopacity="0.0"
     inkscape:pageshadow="2"
     inkscape:zoom="13.049334"
     inkscape:cx="18.679046"
     inkscape:cy="12.165829"
     inkscape:document-units="px"
     inkscape:current-layer="layer1"
     showgrid="false"
     inkscape:snap-page="false"
     units="px"
     inkscape:window-width="1884"
     inkscape:window-height="1061"
     inkscape:window-x="0"
     inkscape:window-y="0"
     inkscape:window-maximized="1"
     fit-margin-top="0"
     fit-margin-left="0"
     fit-margin-right="0"
     fit-margin-bottom="0" />
  <metadata
     id="metadata5">
    <rdf:RDF>
      <cc:Work
         rdf:about="">
        <dc:format>image/svg+xml</dc:format>
        <dc:type
           rdf:resource="http://purl.org/dc/dcmitype/StillImage" />
        <dc:title></dc:title>
      </cc:Work>
    </rdf:RDF>
  </metadata>
    <circle
       style="color:#000000;clip-rule:nonzero;display:inline;overflow:visible;visibility:visible;opacity:1;isolation:auto;mix-blend-mode:normal;color-interpolation:sRGB;color-interpolation-filters:linearRGB;solid-color:#000000;solid-opacity:1;vector-effect:none;fill:#00A757;fill-opacity:1;fill-rule:evenodd;stroke:#ffffff;stroke-width:1;stroke-linecap:butt;stroke-linejoin:miter;stroke-miterlimit:4;stroke-dasharray:none;stroke-dashoffset:0;stroke-opacity:1;marker:none;color-rendering:auto;image-rendering:auto;shape-rendering:auto;text-rendering:auto;enable-background:accumulate"
       id="path815"
       cx="15"
       cy="15"
       r="14.5" />
<g transform="translate(6,8)"><g id="surface1">
<path style=" stroke:none;fill-rule:nonzero;fill:#FFFFFF;fill-opacity:1;" d="M 14.5625 10.882812 C 14.449219 11.335938 13.996094 11.609375 13.554688 11.488281 C 13.113281 11.371094 12.851562 10.90625 12.96875 10.449219 C 13.082031 9.996094 13.535156 9.726562 13.976562 9.84375 C 14.417969 9.964844 14.679688 10.429688 14.5625 10.882812 Z M 14.5625 10.882812 "/>
<path style=" stroke:none;fill-rule:nonzero;fill:#FFFFFF;fill-opacity:1;" d="M 16.558594 8.988281 C 15.738281 7.542969 14.003906 6.949219 12.507812 7.601562 L 11.972656 6.070312 L 12.863281 5.039062 L 13.886719 5.75 C 14.0625 5.871094 14.304688 5.824219 14.425781 5.640625 C 14.542969 5.457031 14.496094 5.210938 14.320312 5.085938 L 11.828125 3.359375 C 11.652344 3.234375 11.410156 3.28125 11.292969 3.464844 C 11.171875 3.648438 11.21875 3.894531 11.394531 4.019531 L 12.214844 4.589844 L 11.996094 4.84375 L 7.214844 2.25 L 8.066406 0.921875 L 8.992188 1.421875 C 9.183594 1.523438 9.417969 1.449219 9.515625 1.253906 C 9.617188 1.058594 9.542969 0.816406 9.351562 0.714844 L 8.117188 0.046875 C 7.9375 -0.046875 7.722656 0.0117188 7.613281 0.183594 L 4.632812 4.820312 C 4.445312 4.730469 4.253906 4.65625 4.054688 4.601562 C 2.328125 4.136719 0.558594 5.199219 0.105469 6.976562 C -0.347656 8.757812 0.6875 10.578125 2.414062 11.042969 C 4.140625 11.507812 5.910156 10.441406 6.363281 8.667969 C 6.683594 7.410156 6.261719 6.074219 5.285156 5.25 L 6.667969 3.09375 L 8.714844 7.585938 C 8.609375 7.71875 8.535156 7.871094 8.492188 8.039062 C 8.355469 8.578125 8.59375 9.144531 9.070312 9.414062 C 9.546875 9.679688 10.140625 9.578125 10.507812 9.167969 L 10.824219 9.285156 C 10.746094 9.457031 10.683594 9.636719 10.636719 9.824219 C 10.183594 11.601562 11.21875 13.421875 12.945312 13.886719 C 13.214844 13.960938 13.492188 13.996094 13.769531 13.996094 C 14.929688 13.996094 15.996094 13.355469 16.570312 12.320312 C 17.144531 11.289062 17.140625 10.015625 16.558594 8.988281 Z M 16.320312 11.355469 C 16.011719 12.578125 14.9375 13.386719 13.765625 13.386719 C 12.945312 13.386719 12.175781 12.996094 11.675781 12.328125 C 11.175781 11.660156 11.003906 10.792969 11.210938 9.976562 C 11.519531 8.757812 12.59375 7.945312 13.765625 7.945312 C 13.992188 7.945312 14.21875 7.976562 14.4375 8.035156 C 15.84375 8.417969 16.691406 9.90625 16.320312 11.355469 Z M 9.976562 7.183594 C 9.964844 7.179688 9.949219 7.171875 9.933594 7.167969 C 9.75 7.121094 9.558594 7.117188 9.375 7.160156 L 7.660156 3.390625 L 11.464844 5.457031 Z M 9.242188 8.238281 C 9.300781 8.015625 9.519531 7.882812 9.738281 7.941406 C 9.953125 8 10.085938 8.230469 10.027344 8.453125 C 9.972656 8.675781 9.75 8.808594 9.53125 8.75 C 9.425781 8.722656 9.339844 8.652344 9.285156 8.558594 C 9.230469 8.460938 9.214844 8.347656 9.242188 8.238281 Z M 10.605469 7.65625 L 11.386719 6.75 L 11.824219 8.003906 C 11.605469 8.171875 11.410156 8.371094 11.238281 8.589844 L 10.8125 8.433594 C 10.832031 8.15625 10.757812 7.882812 10.605469 7.65625 Z M 3.289062 6.824219 C 2.839844 6.796875 2.429688 7.097656 2.300781 7.542969 C 2.175781 7.988281 2.363281 8.464844 2.757812 8.695312 C 3.152344 8.921875 3.644531 8.839844 3.949219 8.496094 C 4.253906 8.152344 4.289062 7.640625 4.035156 7.257812 L 4.980469 5.78125 C 5.898438 6.617188 6.140625 7.988281 5.5625 9.101562 C 4.988281 10.214844 3.746094 10.773438 2.5625 10.453125 C 1.15625 10.074219 0.308594 8.582031 0.679688 7.132812 C 0.988281 5.914062 2.0625 5.101562 3.234375 5.101562 C 3.585938 5.101562 3.933594 5.175781 4.257812 5.316406 Z M 3.289062 6.824219 "/>
</g>
</g>
</svg>
