<?xml version="1.0" encoding="UTF-8" standalone="no"?>
<!-- Created with Inkscape (http://www.inkscape.org/) -->

<svg
   xmlns:dc="http://purl.org/dc/elements/1.1/"
   xmlns:cc="http://creativecommons.org/ns#"
   xmlns:rdf="http://www.w3.org/1999/02/22-rdf-syntax-ns#"
   xmlns:svg="http://www.w3.org/2000/svg"
   xmlns="http://www.w3.org/2000/svg"
   xmlns:xlink="http://www.w3.org/1999/xlink"
   xmlns:sodipodi="http://sodipodi.sourceforge.net/DTD/sodipodi-0.dtd"
   xmlns:inkscape="http://www.inkscape.org/namespaces/inkscape"
   width="30px"
   height="30px"
   version="1.1"
   id="svg8"
   inkscape:version="0.92.4 5da689c313, 2019-01-14"
   sodipodi:docname="container.svg">
  <defs
     id="defs2" />
  <sodipodi:namedview
     id="base"
     pagecolor="#ffffff"
     bordercolor="#666666"
     borderopacity="1.0"
     inkscape:pageopacity="0.0"
     inkscape:pageshadow="2"
     inkscape:zoom="13.049334"
     inkscape:cx="18.679046"
     inkscape:cy="12.165829"
     inkscape:document-units="px"
     inkscape:current-layer="layer1"
     showgrid="false"
     inkscape:snap-page="false"
     units="px"
     inkscape:window-width="1884"
     inkscape:window-height="1061"
     inkscape:window-x="0"
     inkscape:window-y="0"
     inkscape:window-maximized="1"
     fit-margin-top="0"
     fit-margin-left="0"
     fit-margin-right="0"
     fit-margin-bottom="0" />
  <metadata
     id="metadata5">
    <rdf:RDF>
      <cc:Work
         rdf:about="">
        <dc:format>image/svg+xml</dc:format>
        <dc:type
           rdf:resource="http://purl.org/dc/dcmitype/StillImage" />
        <dc:title></dc:title>
      </cc:Work>
    </rdf:RDF>
  </metadata>
    <circle
       style="color:#000000;clip-rule:nonzero;display:inline;overflow:visible;visibility:visible;opacity:1;isolation:auto;mix-blend-mode:normal;color-interpolation:sRGB;color-interpolation-filters:linearRGB;solid-color:#000000;solid-opacity:1;vector-effect:none;fill:#ffffff;fill-opacity:1;fill-rule:evenodd;stroke:#00a19a;stroke-width:1;stroke-linecap:butt;stroke-linejoin:miter;stroke-miterlimit:4;stroke-dasharray:none;stroke-dashoffset:0;stroke-opacity:1;marker:none;color-rendering:auto;image-rendering:auto;shape-rendering:auto;text-rendering:auto;enable-background:accumulate"
       id="path815"
       cx="15"
       cy="15"
       r="14.5" />
<g transform="translate(6,7)"><g id="surface1">
<path style=" stroke:none;fill-rule:nonzero;fill:rgb(30%,30%,30%);fill-opacity:1;" d="M 15.960938 12.730469 C 15.933594 12.71875 15.703125 12.921875 15.257812 12.976562 C 15.609375 13.195312 15.683594 13.394531 15.695312 13.601562 C 15.738281 14.199219 14.855469 14.609375 14.398438 14.609375 L 12.679688 14.609375 C 12.246094 14.609375 11.878906 14.269531 11.855469 13.832031 C 11.855469 13.808594 11.855469 13.785156 11.855469 13.761719 L 11.855469 13.722656 C 11.855469 13.609375 11.898438 13.433594 11.964844 13.230469 L 11.125 13.230469 C 11.125 13.230469 11.238281 13.480469 11.234375 13.675781 C 11.230469 13.867188 11.238281 13.695312 11.238281 13.707031 C 11.226562 14.132812 10.859375 14.523438 10.390625 14.601562 L 4.875 14.554688 C 4.015625 14.210938 4.453125 13.558594 4.625 13.347656 C 4.636719 13.335938 4.636719 13.316406 4.632812 13.304688 C 4.625 13.289062 4.609375 13.28125 4.59375 13.28125 L 2.878906 13.308594 C 2.878906 13.308594 2.855469 13.648438 2.179688 14.035156 C 1.636719 14.339844 1.042969 14.546875 0.429688 14.636719 C -0.136719 14.71875 -0.015625 15.273438 0.105469 15.347656 C 1.832031 16.417969 14.425781 15.859375 14.707031 15.816406 C 15.292969 15.726562 15.917969 15.554688 16.296875 15.335938 C 17.847656 14.433594 16.394531 12.953125 15.960938 12.730469 Z M 15.960938 12.730469 "/>
<path style="fill-rule:nonzero;fill:rgb(30%,30%,30%);fill-opacity:1;stroke-width:3.26868;stroke-linecap:butt;stroke-linejoin:miter;stroke:rgb(0%,0%,0%);stroke-opacity:1;stroke-miterlimit:10;" d="M 917.252066 648.157975 C 899.441074 626.552522 867.337309 610.996596 829.076659 606.027341 C 810.166222 603.650742 794.993895 601.058087 782.240345 598.465433 L 776.743125 610.348432 C 776.303347 610.996596 775.86357 611.860814 775.423792 612.508977 C 776.303347 614.885577 776.523236 617.694286 776.303347 620.28694 C 774.984015 629.361231 767.068018 635.842866 758.052577 635.194703 C 749.257025 634.546539 742.220584 627.200685 742.220584 618.126395 C 742.220584 610.996596 746.61836 604.731014 753.215024 602.13836 C 753.434912 601.274142 753.654801 600.409924 754.094579 599.545706 L 757.6128 591.983797 C 749.916692 589.607197 742.440473 586.582434 735.404031 582.909507 C 733.644921 582.045289 731.006255 580.532907 727.707923 578.804471 L 719.13226 593.496179 C 718.912371 594.144342 718.472594 594.792506 718.032816 595.224615 C 718.692483 597.817269 718.912371 600.409924 718.472594 603.002578 C 716.933372 610.996596 709.896931 617.046122 701.541156 617.046122 C 693.185382 617.046122 685.929052 610.780541 684.829608 602.570469 C 683.510275 594.144342 688.347829 586.150325 696.483714 583.55767 C 696.703603 582.693452 697.143381 581.829234 697.583158 580.965016 L 705.938932 566.489363 C 697.363269 561.520108 687.468273 555.686636 677.1335 549.205 C 676.693722 549.637109 676.473834 550.285273 676.034056 550.717382 L 664.160061 566.489363 C 664.160061 566.921472 664.160061 567.569635 664.160061 568.001744 C 664.160061 577.076035 657.12362 584.637943 648.108179 585.286107 C 638.872849 585.718216 630.956853 579.020525 630.077298 569.946235 C 628.977854 561.087999 635.354629 552.661873 644.15018 551.149491 L 656.244064 535.593565 C 647.448512 529.544038 638.433072 523.062402 629.857409 516.580766 L 618.64308 527.815602 C 617.763525 528.67982 616.664081 529.544038 615.344748 530.192202 C 616.664081 537.105947 613.365749 544.235746 607.428751 547.908673 C 601.271865 551.5816 593.575757 551.149491 587.858649 546.612346 C 582.361429 542.291255 580.162541 534.729347 582.14154 528.031656 C 584.340428 521.117912 590.497314 516.580766 597.753644 516.148657 C 598.193422 513.772058 599.292866 511.611512 601.051976 510.099131 L 610.507195 500.592731 C 603.910531 494.975314 597.973533 489.141841 592.476313 483.524424 C 592.476313 483.524424 592.476313 483.524424 592.256424 483.524424 L 576.204542 499.728513 C 575.764765 500.160622 575.105098 500.592731 574.665321 501.02484 C 574.005654 510.315185 566.089658 517.444985 556.854328 517.012875 C 547.39911 516.580766 540.362668 508.802803 540.582557 499.512459 C 540.802446 490.222114 548.278665 482.660205 557.513995 482.660205 C 557.733883 482.660205 557.733883 482.660205 557.953772 482.660205 C 558.173661 482.444151 558.39355 482.228096 558.613439 482.012042 L 574.665321 465.807952 C 575.105098 465.375843 575.764765 464.943734 576.424431 464.511625 C 572.246544 459.542371 568.068657 454.141008 563.89077 448.52359 C 563.450992 448.739644 563.231103 448.955699 562.791326 449.171753 L 543.001334 460.622643 C 542.121779 461.270807 540.802446 461.702916 539.703002 461.918971 C 539.043336 469.04877 534.205782 474.882242 527.389229 476.826733 C 520.572677 478.771224 513.316346 476.394624 508.91857 470.777206 C 504.740683 465.159789 504.300906 457.381826 508.258904 451.332299 C 511.997014 445.282772 519.033455 442.258008 525.850008 443.554336 C 526.949452 441.609845 528.708562 440.097463 530.467673 439.017191 L 549.378109 428.214464 C 543.661 419.788337 537.724003 411.146156 532.006894 402.287921 C 531.347228 403.152139 530.467673 404.016357 529.368229 404.448466 L 509.798126 415.899356 C 508.478793 416.54752 507.379349 416.979629 506.060016 417.411738 C 504.300906 424.109428 498.803686 429.294737 491.987133 430.375009 C 484.950692 431.455282 478.134139 428.214464 474.615918 422.164937 C 470.877809 416.11541 471.537475 408.553502 475.715362 402.936084 C 479.893249 397.534721 487.14958 395.158121 493.966132 396.886557 C 494.845687 395.806285 495.945131 394.942067 497.264464 394.293903 L 516.834567 382.843013 C 517.494234 382.410904 518.373789 382.194849 519.033455 381.978795 C 512.65668 371.392123 506.279905 360.805451 500.342907 350.650888 C 499.463352 351.515106 498.583797 352.379324 497.484353 353.027488 L 477.91425 364.262324 C 476.814806 364.910487 475.495473 365.558651 474.176141 365.774705 C 472.636919 372.472396 466.91981 377.657704 460.103258 378.737977 C 453.066816 379.81825 446.250263 376.577432 442.732043 370.527905 C 439.213822 364.478378 439.6536 356.91647 443.831487 351.515106 C 448.229263 345.897689 455.265704 343.521089 462.082257 345.46558 C 462.961812 344.385307 464.061256 343.305034 465.380589 342.656871 L 484.950692 331.205981 C 486.270024 330.557817 487.369468 330.125708 488.688801 329.909653 C 483.631359 320.403254 478.793805 311.328964 474.835807 303.118892 C 474.615918 303.334946 474.396029 303.551001 473.956252 303.767055 L 454.386149 315.001891 C 453.726482 315.434 453.286705 315.650055 452.627039 315.866109 C 449.768484 324.50829 440.753043 329.693599 431.957492 327.316999 C 426.020494 325.804617 421.402829 321.267472 419.863608 315.650055 C 418.324386 310.032637 419.42383 304.199164 423.16194 299.878074 C 426.68016 295.340929 432.397269 293.180384 438.114378 293.612493 C 438.993933 293.828547 439.873488 294.044602 440.753043 294.260656 C 440.972932 293.828547 441.41271 293.612493 441.852487 293.396438 L 461.642479 281.945548 C 462.522034 281.513439 463.621478 281.08133 464.720922 280.865275 C 461.862368 273.735476 459.883369 267.685949 459.003814 263.364859 C 451.087817 220.153953 454.16626 147.99174 462.522034 64.378637 C 465.820366 30.242022 334.986532 82.527218 232.738242 121.200978 C 216.246582 127.46656 164.352826 122.281251 164.352826 122.281251 C 164.352826 122.281251 187.44115 217.345244 176.886487 290.587729 C 164.352826 378.305868 110.919848 501.02484 107.621516 547.692619 C 103.003852 610.132377 128.071174 633.034158 129.170618 642.108448 C 130.270062 651.182738 135.987171 768.284293 159.95505 775.198038 L 322.013093 773.037492 C 325.971092 772.821438 329.489312 769.58062 329.489312 765.475584 C 329.709201 743.870131 330.808645 683.374863 331.6882 679.485881 C 332.787644 674.948736 338.064975 668.4671 364.67152 671.707918 C 451.087817 681.862481 520.352788 737.60455 565.869769 753.592585 C 611.38675 769.364565 627.658521 769.364565 648.108179 769.364565 C 668.557837 769.364565 835.233545 766.123747 876.35275 755.75313 C 880.970415 754.672857 904.498516 744.30224 918.131621 727.449987 C 931.764727 710.381679 936.60228 671.491864 917.252066 648.157975 Z M 416.345387 82.527218 C 423.601717 81.879054 430.41827 85.551981 433.496713 92.249672 C 436.575156 98.731307 435.255824 106.50927 430.198381 111.694579 C 425.140939 116.663833 417.224942 118.176215 410.628278 114.935397 C 404.251503 111.910634 400.293505 104.996889 400.953171 97.867089 C 401.832726 89.657017 408.209502 83.391436 416.345387 82.527218 Z M 414.806165 135.676632 C 422.062496 134.812414 428.879048 138.701395 431.957492 145.183031 C 435.035935 151.880722 433.716602 159.658685 428.65916 164.627939 C 423.601717 169.813247 415.685721 171.109575 409.308946 168.084811 C 402.712282 164.843993 398.754283 158.146303 399.633838 150.800449 C 400.293505 142.806431 406.67028 136.324795 414.806165 135.676632 Z M 416.345387 190.122373 C 423.601717 189.47421 430.41827 193.363191 433.496713 199.844827 C 436.575156 206.326463 435.255824 214.104426 430.198381 219.289735 C 425.140939 224.475043 417.224942 225.77137 410.628278 222.530553 C 404.251503 219.505789 400.293505 212.592044 400.953171 205.462245 C 401.832726 197.468227 408.209502 190.986591 416.345387 190.122373 Z M 405.570836 256.451114 C 404.91117 249.321314 408.649279 242.407569 415.245943 239.166751 C 421.842607 236.141988 429.538715 237.438315 434.816046 242.623624 C 439.873488 247.808932 441.192821 255.586895 438.114378 262.068531 C 435.035935 268.550167 427.999493 272.439149 420.963052 271.790985 C 412.827166 270.926767 406.450391 264.445131 405.570836 256.451114 Z M 405.570836 256.451114 " transform="matrix(0.0177647,0,0,0.0180799,-0.236079,-0.933492)"/>
</g>
</g>
</svg>
