<?xml version="1.0" encoding="UTF-8" standalone="no"?>
<!-- Created with Inkscape (http://www.inkscape.org/) -->

<svg
   xmlns:dc="http://purl.org/dc/elements/1.1/"
   xmlns:cc="http://creativecommons.org/ns#"
   xmlns:rdf="http://www.w3.org/1999/02/22-rdf-syntax-ns#"
   xmlns:svg="http://www.w3.org/2000/svg"
   xmlns="http://www.w3.org/2000/svg"
   xmlns:xlink="http://www.w3.org/1999/xlink"
   xmlns:sodipodi="http://sodipodi.sourceforge.net/DTD/sodipodi-0.dtd"
   xmlns:inkscape="http://www.inkscape.org/namespaces/inkscape"
   width="30px"
   height="30px"
   version="1.1"
   id="svg8"
   inkscape:version="0.92.4 5da689c313, 2019-01-14"
   sodipodi:docname="container.svg">
  <defs
     id="defs2" />
  <sodipodi:namedview
     id="base"
     pagecolor="#ffffff"
     bordercolor="#666666"
     borderopacity="1.0"
     inkscape:pageopacity="0.0"
     inkscape:pageshadow="2"
     inkscape:zoom="13.049334"
     inkscape:cx="18.679046"
     inkscape:cy="12.165829"
     inkscape:document-units="px"
     inkscape:current-layer="layer1"
     showgrid="false"
     inkscape:snap-page="false"
     units="px"
     inkscape:window-width="1884"
     inkscape:window-height="1061"
     inkscape:window-x="0"
     inkscape:window-y="0"
     inkscape:window-maximized="1"
     fit-margin-top="0"
     fit-margin-left="0"
     fit-margin-right="0"
     fit-margin-bottom="0" />
  <metadata
     id="metadata5">
    <rdf:RDF>
      <cc:Work
         rdf:about="">
        <dc:format>image/svg+xml</dc:format>
        <dc:type
           rdf:resource="http://purl.org/dc/dcmitype/StillImage" />
        <dc:title></dc:title>
      </cc:Work>
    </rdf:RDF>
  </metadata>
    <circle
       style="color:#000000;clip-rule:nonzero;display:inline;overflow:visible;visibility:visible;opacity:1;isolation:auto;mix-blend-mode:normal;color-interpolation:sRGB;color-interpolation-filters:linearRGB;solid-color:#000000;solid-opacity:1;vector-effect:none;fill:#ffffff;fill-opacity:1;fill-rule:evenodd;stroke:#00A757;stroke-width:1;stroke-linecap:butt;stroke-linejoin:miter;stroke-miterlimit:4;stroke-dasharray:none;stroke-dashoffset:0;stroke-opacity:1;marker:none;color-rendering:auto;image-rendering:auto;shape-rendering:auto;text-rendering:auto;enable-background:accumulate"
       id="path815"
       cx="15"
       cy="15"
       r="14.5" />
<g transform="translate(6,6)"><g id="surface1">
<path style=" stroke:none;fill-rule:nonzero;fill:rgb(30%,30%,30%);fill-opacity:1;" d="M 8.5 6.039062 C 9.003906 6.039062 9.414062 6.445312 9.414062 6.945312 C 9.414062 7.445312 9.003906 7.851562 8.5 7.851562 C 8 7.851562 7.589844 7.445312 7.589844 6.945312 C 7.589844 6.445312 8 6.039062 8.5 6.039062 Z M 10.605469 17 L 10.414062 16.972656 C 10.34375 16.960938 10.292969 16.894531 10.304688 16.824219 L 11.527344 8.988281 C 11.539062 8.917969 11.601562 8.871094 11.671875 8.882812 L 11.863281 8.910156 C 11.933594 8.921875 11.984375 8.988281 11.972656 9.058594 L 10.75 16.894531 C 10.742188 16.960938 10.675781 17.011719 10.605469 17 Z M 6.683594 7.753906 C 6.964844 7.832031 7.125 8.128906 7.042969 8.410156 L 6.574219 10.003906 C 6.496094 10.28125 6.199219 10.445312 5.917969 10.359375 C 5.636719 10.28125 5.472656 9.984375 5.558594 9.707031 L 6.023438 8.109375 C 6.105469 7.832031 6.402344 7.671875 6.683594 7.753906 Z M 10.75 10.273438 L 9.152344 10 L 8.664062 8.457031 C 8.65625 8.421875 8.636719 8.390625 8.617188 8.363281 C 8.554688 8.066406 8.261719 7.875 7.964844 7.9375 C 7.757812 7.980469 7.59375 8.136719 7.542969 8.339844 L 5.484375 16.226562 C 5.40625 16.519531 5.582031 16.820312 5.878906 16.898438 C 6.175781 16.972656 6.480469 16.796875 6.554688 16.503906 L 7.734375 11.988281 L 8.863281 16.488281 C 8.929688 16.757812 9.207031 16.921875 9.476562 16.855469 L 9.570312 16.832031 C 9.84375 16.765625 10.007812 16.492188 9.9375 16.21875 L 8.453125 10.308594 L 8.488281 10.410156 C 8.550781 10.558594 8.675781 10.667969 8.828125 10.707031 L 10.621094 11.015625 C 10.828125 11.046875 11.023438 10.910156 11.0625 10.707031 C 11.097656 10.503906 10.957031 10.308594 10.75 10.273438 Z M 16.996094 4.074219 L 8.652344 0 L 0.00390625 4.074219 L 0.00390625 6.945312 L 1.824219 6.140625 L 1.824219 16.910156 L 3.644531 16.910156 L 3.644531 5.332031 L 8.648438 3.121094 L 13.355469 5.277344 L 13.355469 16.910156 L 15.175781 16.910156 L 15.175781 6.109375 L 16.996094 6.945312 Z M 16.996094 4.074219 "/>
</g>
</g>
</svg>
