<?xml version="1.0" encoding="UTF-8"?>
<svg xmlns="http://www.w3.org/2000/svg" xmlns:xlink="http://www.w3.org/1999/xlink" width="11px" height="8px" viewBox="0 0 11 8" version="1.1">
<g id="surface1">
<path style=" stroke:none;fill-rule:nonzero;fill:rgb(30%,30%,30%);fill-opacity:1;" d="M 7.421875 0.464844 C 8.203125 -0.203125 9.066406 0.015625 9.921875 0.152344 C 11.6875 0.4375 11.011719 1.792969 9.839844 2.675781 L 4.226562 7.050781 C 3.433594 7.640625 1.191406 7.332031 0.398438 6.742188 C -0.394531 6.152344 0.113281 5.828125 0.90625 5.234375 C 0.90625 5.234375 6.636719 1.136719 7.421875 0.464844 Z M 7.421875 0.464844 "/>
<path style=" stroke:none;fill-rule:nonzero;fill:rgb(30%,30%,30%);fill-opacity:1;" d="M 6.246094 7.1875 C 6.246094 7.632812 6.011719 7.996094 5.722656 7.996094 C 5.433594 7.996094 5.199219 7.632812 5.199219 7.1875 C 5.199219 6.738281 5.433594 6.378906 5.722656 6.378906 C 6.011719 6.378906 6.246094 6.738281 6.246094 7.1875 Z M 6.246094 7.1875 "/>
<path style=" stroke:none;fill-rule:nonzero;fill:rgb(30%,30%,30%);fill-opacity:1;" d="M 10.351562 3.894531 C 10.351562 4.34375 10.117188 4.703125 9.828125 4.703125 C 9.539062 4.703125 9.304688 4.34375 9.304688 3.894531 C 9.304688 3.449219 9.539062 3.089844 9.828125 3.089844 C 10.117188 3.089844 10.351562 3.449219 10.351562 3.894531 Z M 10.351562 3.894531 "/>
</g>
</svg>
