<?xml version="1.0" encoding="UTF-8" standalone="no"?>
<!-- Created with Inkscape (http://www.inkscape.org/) -->

<svg
   xmlns:dc="http://purl.org/dc/elements/1.1/"
   xmlns:cc="http://creativecommons.org/ns#"
   xmlns:rdf="http://www.w3.org/1999/02/22-rdf-syntax-ns#"
   xmlns:svg="http://www.w3.org/2000/svg"
   xmlns="http://www.w3.org/2000/svg"
   xmlns:xlink="http://www.w3.org/1999/xlink"
   xmlns:sodipodi="http://sodipodi.sourceforge.net/DTD/sodipodi-0.dtd"
   xmlns:inkscape="http://www.inkscape.org/namespaces/inkscape"
   width="30px"
   height="30px"
   version="1.1"
   id="svg8"
   inkscape:version="0.92.4 5da689c313, 2019-01-14"
   sodipodi:docname="container.svg">
  <defs
     id="defs2" />
  <sodipodi:namedview
     id="base"
     pagecolor="#ffffff"
     bordercolor="#666666"
     borderopacity="1.0"
     inkscape:pageopacity="0.0"
     inkscape:pageshadow="2"
     inkscape:zoom="13.049334"
     inkscape:cx="18.679046"
     inkscape:cy="12.165829"
     inkscape:document-units="px"
     inkscape:current-layer="layer1"
     showgrid="false"
     inkscape:snap-page="false"
     units="px"
     inkscape:window-width="1884"
     inkscape:window-height="1061"
     inkscape:window-x="0"
     inkscape:window-y="0"
     inkscape:window-maximized="1"
     fit-margin-top="0"
     fit-margin-left="0"
     fit-margin-right="0"
     fit-margin-bottom="0" />
  <metadata
     id="metadata5">
    <rdf:RDF>
      <cc:Work
         rdf:about="">
        <dc:format>image/svg+xml</dc:format>
        <dc:type
           rdf:resource="http://purl.org/dc/dcmitype/StillImage" />
        <dc:title></dc:title>
      </cc:Work>
    </rdf:RDF>
  </metadata>
    <circle
       style="color:#000000;clip-rule:nonzero;display:inline;overflow:visible;visibility:visible;opacity:1;isolation:auto;mix-blend-mode:normal;color-interpolation:sRGB;color-interpolation-filters:linearRGB;solid-color:#000000;solid-opacity:1;vector-effect:none;fill:#00a19a;fill-opacity:1;fill-rule:evenodd;stroke:#ffffff;stroke-width:1;stroke-linecap:butt;stroke-linejoin:miter;stroke-miterlimit:4;stroke-dasharray:none;stroke-dashoffset:0;stroke-opacity:1;marker:none;color-rendering:auto;image-rendering:auto;shape-rendering:auto;text-rendering:auto;enable-background:accumulate"
       id="path815"
       cx="15"
       cy="15"
       r="14.5" />
<g transform="translate(8,6)"><g id="surface1">
<path style=" stroke:none;fill-rule:nonzero;fill:#FFFFFF;fill-opacity:1;" d="M 9.820312 8.921875 L 7.496094 8.871094 C 7.527344 8.703125 7.5625 8.53125 7.601562 8.363281 C 6.027344 8.277344 4.878906 8.023438 3.957031 7.820312 C 3.78125 7.78125 3.613281 7.742188 3.453125 7.707031 C 1.859375 7.375 0.496094 6.285156 0 5.90625 L 0 14.304688 C 1.066406 13.984375 2.019531 13.640625 2.503906 13.308594 C 2.503906 13.308594 5.308594 11.625 5.308594 11.625 C 5.910156 11.710938 7.304688 11.910156 7.304688 11.910156 L 7.019531 12.691406 L 5.515625 13.011719 L 4.636719 12.730469 C 4.636719 12.730469 4.035156 14.375 4.015625 14.460938 C 3.992188 14.546875 6.136719 14.179688 6.136719 14.179688 L 7.976562 13.507812 L 8.492188 12.640625 C 8.492188 12.640625 8.792969 13.054688 8.964844 13.117188 C 9.132812 13.183594 10.183594 12.273438 10.183594 12.273438 C 10.183594 12.273438 10.761719 10.695312 10.828125 10.195312 C 10.890625 9.699219 9.820312 8.921875 9.820312 8.921875 Z M 9.027344 11.453125 C 9.027344 11.453125 8.621094 10.738281 8.191406 10.671875 C 7.761719 10.609375 6.605469 10.542969 6.605469 10.542969 L 9.414062 9.894531 L 9.519531 10.910156 Z M 9.027344 11.453125 "/>
<path style=" stroke:none;fill-rule:nonzero;fill:#FFFFFF;fill-opacity:1;" d="M 4.0625 7.34375 C 4.976562 7.542969 6.125 7.796875 7.707031 7.878906 C 7.800781 7.453125 7.890625 7.042969 7.933594 6.667969 C 8.023438 5.957031 8.597656 6.144531 9.21875 5.730469 C 9.433594 5.589844 9.679688 5.503906 9.925781 5.382812 C 9.976562 5.492188 10.007812 5.570312 10.046875 5.644531 C 10.234375 6.019531 10.40625 6.402344 10.625 6.761719 C 10.871094 7.167969 11.214844 7.492188 11.628906 7.730469 C 11.632812 7.730469 11.632812 7.734375 11.632812 7.734375 C 12.351562 7.652344 13.128906 7.539062 13.964844 7.382812 C 13.941406 7.238281 13.902344 7.09375 13.863281 6.949219 C 13.796875 6.710938 13.769531 6.460938 13.773438 6.210938 C 13.792969 4.988281 13.644531 3.789062 13.265625 2.621094 C 13.214844 2.464844 13.269531 2.265625 13.300781 2.09375 C 13.390625 1.582031 13.5 1.078125 13.785156 0.632812 C 13.796875 0.617188 13.800781 0.59375 13.824219 0.519531 C 13.5625 0.617188 13.34375 0.703125 13.113281 0.789062 C 13.144531 0.488281 13.351562 0.269531 13.484375 0.015625 C 13.042969 -0.0195312 11.851562 0.507812 11.542969 0.871094 C 9.621094 -0.109375 7.664062 -0.351562 5.65625 0.613281 C 6.039062 0.746094 6.726562 0.699219 7.121094 0.933594 C 7.007812 0.96875 6.664062 1 6.585938 1.019531 C 2.84375 1.773438 0.707031 4.550781 0.234375 5.460938 C 0.230469 5.476562 0.21875 5.488281 0.207031 5.496094 C 0.1875 5.511719 0.171875 5.527344 0.152344 5.539062 C 0.652344 5.917969 2.101562 6.929688 3.550781 7.230469 C 3.710938 7.265625 3.882812 7.300781 4.0625 7.34375 Z M 4.0625 7.34375 "/>
<path style=" stroke:none;fill-rule:nonzero;fill:#FFFFFF;fill-opacity:1;" d="M 13.984375 7.984375 C 13.992188 7.949219 13.996094 7.910156 14 7.875 C 13.183594 8.023438 12.429688 8.132812 11.726562 8.214844 C 11.730469 8.273438 11.742188 8.332031 11.757812 8.386719 C 11.882812 8.828125 12.183594 9.054688 12.644531 9.066406 C 12.839844 9.070312 13.035156 9.058594 13.226562 9.027344 C 13.425781 8.996094 13.566406 8.863281 13.679688 8.703125 C 13.773438 8.570312 13.855469 8.429688 13.941406 8.292969 L 14 8.109375 C 13.996094 8.066406 13.980469 8.023438 13.984375 7.984375 Z M 13.984375 7.984375 "/>
<path style=" stroke:none;fill-rule:nonzero;fill:#FFFFFF;fill-opacity:1;" d="M 11.589844 16.269531 C 12.503906 15.929688 13.035156 14.992188 12.851562 14.050781 C 12.667969 13.105469 11.820312 12.429688 10.84375 12.445312 C 9.867188 12.460938 9.042969 13.167969 8.890625 14.113281 C 8.738281 15.0625 9.304688 15.984375 10.230469 16.292969 L 10.230469 17 L 11.589844 17 Z M 9.800781 14.421875 C 9.800781 13.835938 10.28125 13.363281 10.878906 13.363281 C 11.472656 13.363281 11.953125 13.835938 11.953125 14.421875 C 11.953125 15.007812 11.472656 15.480469 10.878906 15.480469 C 10.28125 15.480469 9.800781 15.007812 9.800781 14.421875 Z M 9.800781 14.421875 "/>
<path style=" stroke:none;fill-rule:nonzero;fill:#FFFFFF;fill-opacity:1;" d="M 9.015625 8.523438 C 8.425781 8.523438 8.105469 8.445312 7.933594 8.40625 C 7.898438 8.398438 7.859375 8.386719 7.847656 8.386719 L 7.894531 7.898438 C 7.945312 7.90625 7.996094 7.917969 8.042969 7.929688 C 8.363281 8.007812 9.210938 8.210938 11.589844 7.710938 L 11.691406 8.1875 C 10.453125 8.449219 9.601562 8.523438 9.015625 8.523438 Z M 9.015625 8.523438 "/>
</g>
</g>
</svg>
