<?xml version="1.0" encoding="UTF-8"?>
<svg xmlns="http://www.w3.org/2000/svg" xmlns:xlink="http://www.w3.org/1999/xlink" width="11px" height="10px" viewBox="0 0 11 10" version="1.1">
<g id="surface1">
<path style=" stroke:none;fill-rule:nonzero;fill:rgb(30%,30%,30%);fill-opacity:1;" d="M 6.949219 1.316406 C 6.992188 1.335938 7.035156 1.359375 7.066406 1.378906 C 7.082031 1.386719 7.09375 1.394531 7.105469 1.402344 L 8.667969 1.472656 L 8.753906 1.441406 C 8.8125 1.402344 8.929688 1.316406 9 1.230469 L 8.992188 1.0625 C 7.941406 0.140625 6.222656 0.0117188 6.074219 0 C 6.007812 0.015625 5.949219 0.03125 5.921875 0.046875 L 5.796875 0.292969 C 5.785156 0.328125 5.773438 0.363281 5.765625 0.398438 L 6.789062 1.226562 C 6.808594 1.238281 6.878906 1.277344 6.949219 1.316406 Z M 6.949219 1.316406 "/>
<path style=" stroke:none;fill-rule:nonzero;fill:rgb(30%,30%,30%);fill-opacity:1;" d="M 7.898438 5.035156 L 7.910156 5.035156 L 9.417969 5.078125 C 9.519531 4.867188 10.074219 3.730469 10.140625 3.601562 C 10.136719 3.554688 10.125 3.394531 10.121094 3.3125 C 10.042969 3.191406 9.042969 1.875 8.886719 1.6875 L 7.078125 1.574219 C 7 1.722656 6.675781 2.351562 6.5 2.699219 L 6.5 3.191406 L 7.875 5.011719 Z M 7.898438 5.035156 "/>
<path style=" stroke:none;fill-rule:nonzero;fill:rgb(30%,30%,30%);fill-opacity:1;" d="M 0.660156 3.300781 C 0.714844 3.300781 0.816406 3.300781 0.898438 3.316406 C 1.257812 3.085938 1.878906 2.71875 2.136719 2.566406 C 2.179688 2.53125 2.21875 2.492188 2.253906 2.445312 C 2.285156 2.394531 2.660156 1.730469 2.796875 1.273438 C 2.824219 1.171875 2.777344 1.066406 2.648438 0.953125 C 2.636719 0.949219 2.621094 0.941406 2.609375 0.933594 L 2.339844 0.917969 C 2.074219 1.082031 1.601562 1.394531 1.292969 1.71875 C 0.964844 2.058594 0.636719 2.644531 0.5 2.902344 L 0.582031 3.1875 Z M 0.660156 3.300781 "/>
<path style=" stroke:none;fill-rule:nonzero;fill:rgb(30%,30%,30%);fill-opacity:1;" d="M 2.972656 0.839844 C 3.023438 0.84375 3.074219 0.847656 3.121094 0.859375 C 3.125 0.859375 3.125 0.859375 3.128906 0.859375 C 3.339844 0.734375 3.902344 0.523438 4.214844 0.421875 C 4.511719 0.320312 5.351562 0.261719 5.574219 0.265625 C 5.628906 0.234375 5.667969 0.125 5.683594 0.0273438 C 5.300781 0.0273438 4.316406 0.0351562 3.933594 0.144531 C 3.304688 0.328125 2.867188 0.574219 2.644531 0.71875 L 2.65625 0.75 C 2.757812 0.785156 2.863281 0.816406 2.972656 0.839844 Z M 2.972656 0.839844 "/>
<path style=" stroke:none;fill-rule:nonzero;fill:rgb(30%,30%,30%);fill-opacity:1;" d="M 2.203125 2.738281 C 1.902344 2.949219 1.214844 3.359375 0.921875 3.53125 C 0.871094 3.582031 0.8125 3.644531 0.777344 3.683594 C 0.746094 3.78125 0.699219 3.929688 0.65625 4.105469 C 0.546875 4.554688 0.59375 5.160156 0.621094 5.519531 C 0.625 5.546875 0.625 5.570312 0.628906 5.59375 C 0.640625 5.652344 0.648438 5.699219 0.65625 5.730469 L 0.832031 5.933594 C 0.984375 6.03125 1.34375 6.339844 1.492188 6.46875 C 1.613281 6.574219 1.734375 6.683594 1.828125 6.765625 C 1.894531 6.828125 1.9375 6.863281 1.960938 6.886719 L 2.304688 6.890625 C 2.355469 6.859375 2.417969 6.824219 2.480469 6.785156 L 3.46875 6.152344 L 3.539062 5.996094 L 3.574219 3.679688 C 3.570312 3.675781 3.566406 3.667969 3.5625 3.664062 L 2.378906 2.757812 C 2.320312 2.746094 2.261719 2.742188 2.203125 2.738281 Z M 2.203125 2.738281 "/>
<path style=" stroke:none;fill-rule:nonzero;fill:rgb(30%,30%,30%);fill-opacity:1;" d="M 3.878906 3.484375 C 3.894531 3.484375 3.90625 3.484375 3.921875 3.484375 L 6.183594 2.9375 L 6.804688 1.597656 C 6.789062 1.539062 6.769531 1.480469 6.746094 1.425781 L 5.515625 0.488281 L 5.511719 0.484375 C 5.242188 0.503906 4.628906 0.550781 4.441406 0.578125 C 4.320312 0.59375 3.96875 0.71875 3.476562 0.921875 C 3.394531 0.957031 3.328125 0.984375 3.285156 1.003906 L 3.132812 1.066406 L 3.0625 1.207031 C 3.007812 1.402344 2.769531 2.007812 2.5 2.414062 C 2.539062 2.503906 2.578125 2.613281 2.601562 2.683594 C 2.785156 2.808594 2.957031 2.929688 3.105469 3.035156 C 3.382812 3.226562 3.578125 3.371094 3.699219 3.472656 C 3.757812 3.476562 3.820312 3.480469 3.878906 3.484375 Z M 3.878906 3.484375 "/>
<path style=" stroke:none;fill-rule:nonzero;fill:rgb(30%,30%,30%);fill-opacity:1;" d="M 9.171875 1.636719 L 9.148438 1.636719 L 9.15625 1.691406 C 9.214844 1.75 9.269531 1.820312 9.332031 1.902344 C 9.363281 1.941406 9.394531 1.984375 9.425781 2.027344 C 9.707031 2.382812 10.261719 3.152344 10.320312 3.25 L 10.476562 3.445312 L 10.503906 3.441406 L 10.640625 3.253906 C 10.535156 2.996094 10.332031 2.539062 10.109375 2.203125 C 9.851562 1.820312 9.589844 1.582031 9.410156 1.449219 L 9.128906 1.441406 L 9.148438 1.628906 Z M 9.171875 1.636719 "/>
<path style=" stroke:none;fill-rule:nonzero;fill:rgb(30%,30%,30%);fill-opacity:1;" d="M 0.351562 5.949219 C 0.394531 5.902344 0.449219 5.84375 0.464844 5.824219 C 0.464844 5.820312 0.464844 5.816406 0.464844 5.8125 C 0.417969 5.570312 0.320312 4.882812 0.386719 4.492188 C 0.386719 4.484375 0.515625 3.730469 0.605469 3.542969 L 0.382812 3.296875 C 0.359375 3.300781 0.332031 3.304688 0.308594 3.308594 C 0.183594 3.574219 -0.0078125 4.09375 0 4.710938 C 0.0078125 5.261719 0.128906 5.894531 0.167969 6.101562 C 0.238281 6.058594 0.300781 6.007812 0.351562 5.949219 Z M 0.351562 5.949219 "/>
<path style=" stroke:none;fill-rule:nonzero;fill:rgb(30%,30%,30%);fill-opacity:1;" d="M 6.15625 6.839844 L 6.386719 6.632812 L 7.59375 5.171875 L 7.605469 5.066406 L 6.28125 3.207031 L 6.234375 3.183594 L 3.964844 3.734375 C 3.949219 3.753906 3.933594 3.773438 3.917969 3.792969 C 3.894531 3.824219 3.871094 3.855469 3.851562 3.878906 C 3.820312 4.261719 3.769531 5.230469 3.730469 6.039062 L 3.820312 6.117188 Z M 6.15625 6.839844 "/>
<path style=" stroke:none;fill-rule:nonzero;fill:rgb(30%,30%,30%);fill-opacity:1;" d="M 6.34375 8.746094 C 6.398438 8.664062 6.523438 8.472656 6.585938 8.375 L 6.234375 7.25 C 6.171875 7.183594 6.097656 7.050781 6.070312 7 L 3.691406 6.363281 L 3.542969 6.371094 C 3.382812 6.449219 3.035156 6.652344 2.585938 6.925781 L 2.40625 7.042969 L 2.273438 7.273438 C 2.296875 7.367188 2.324219 7.464844 2.355469 7.558594 C 2.566406 8.019531 2.679688 8.390625 2.726562 8.574219 L 2.808594 8.699219 C 3.015625 8.847656 3.234375 8.980469 3.464844 9.101562 C 3.882812 9.269531 4.382812 9.382812 4.871094 9.421875 C 4.871094 9.421875 4.902344 9.421875 5.035156 9.371094 L 6.304688 8.765625 Z M 6.34375 8.746094 "/>
<path style=" stroke:none;fill-rule:nonzero;fill:rgb(30%,30%,30%);fill-opacity:1;" d="M 10.195312 6.972656 L 10.191406 6.972656 C 10.164062 7.019531 10.089844 7.125 9.878906 7.386719 C 9.8125 7.480469 9.746094 7.570312 9.683594 7.65625 C 9.355469 8.097656 9.066406 8.351562 8.882812 8.488281 C 8.777344 8.65625 8.726562 8.789062 8.6875 8.898438 C 8.671875 8.9375 8.660156 8.976562 8.644531 9.011719 C 8.644531 9.027344 8.648438 9.039062 8.648438 9.054688 C 8.769531 8.988281 8.949219 8.871094 9.164062 8.695312 C 9.398438 8.507812 9.839844 8.117188 10.144531 7.636719 C 10.367188 7.292969 10.472656 7.09375 10.527344 6.980469 L 10.519531 6.972656 Z M 10.195312 6.972656 "/>
<path style=" stroke:none;fill-rule:nonzero;fill:rgb(30%,30%,30%);fill-opacity:1;" d="M 2.472656 8.46875 C 2.359375 8.203125 2.25 7.859375 2.175781 7.609375 C 2.140625 7.535156 2.105469 7.460938 2.070312 7.386719 C 2.007812 7.269531 1.933594 7.15625 1.851562 7.050781 C 1.542969 6.792969 0.992188 6.328125 0.695312 6.054688 C 0.671875 6.042969 0.644531 6.050781 0.617188 6.054688 C 0.601562 6.058594 0.589844 6.058594 0.574219 6.058594 C 0.558594 6.0625 0.476562 6.101562 0.402344 6.164062 C 0.351562 6.203125 0.277344 6.292969 0.246094 6.332031 C 0.300781 6.566406 0.488281 7.097656 0.894531 7.703125 C 1.175781 8.128906 1.46875 8.410156 1.667969 8.570312 C 1.757812 8.644531 1.851562 8.714844 1.953125 8.777344 L 2.15625 8.753906 L 2.371094 8.695312 C 2.398438 8.628906 2.441406 8.53125 2.472656 8.46875 Z M 2.472656 8.46875 "/>
<path style=" stroke:none;fill-rule:nonzero;fill:rgb(30%,30%,30%);fill-opacity:1;" d="M 10.835938 3.761719 C 10.8125 3.71875 10.773438 3.683594 10.726562 3.667969 L 10.46875 3.652344 C 10.453125 3.652344 10.4375 3.65625 10.425781 3.660156 C 10.316406 3.808594 10.21875 3.960938 10.136719 4.125 C 9.878906 4.644531 9.777344 4.90625 9.761719 4.96875 C 9.800781 5.15625 9.839844 5.304688 9.875 5.433594 C 9.898438 5.535156 9.921875 5.625 9.941406 5.714844 C 9.964844 5.789062 10.144531 6.46875 10.179688 6.714844 L 10.230469 6.742188 C 10.292969 6.742188 10.359375 6.738281 10.421875 6.730469 L 10.722656 6.558594 C 10.730469 6.550781 10.734375 6.542969 10.742188 6.535156 C 10.914062 6.3125 10.945312 6.179688 10.976562 6.003906 C 11.015625 5.453125 11.03125 4.125 10.835938 3.761719 Z M 10.835938 3.761719 "/>
<path style=" stroke:none;fill-rule:nonzero;fill:rgb(30%,30%,30%);fill-opacity:1;" d="M 9.730469 7.285156 C 9.835938 7.132812 9.921875 7.011719 9.976562 6.929688 L 9.988281 6.785156 C 9.960938 6.726562 9.929688 6.574219 9.863281 6.273438 C 9.8125 6.03125 9.753906 5.753906 9.710938 5.648438 C 9.675781 5.570312 9.632812 5.496094 9.582031 5.429688 C 9.523438 5.375 9.460938 5.320312 9.414062 5.28125 L 7.902344 5.207031 L 7.890625 5.207031 L 7.671875 5.359375 L 6.414062 6.886719 C 6.394531 6.960938 6.394531 7.035156 6.40625 7.113281 C 6.410156 7.128906 6.414062 7.144531 6.414062 7.160156 L 6.894531 8.457031 L 6.949219 8.503906 L 8.75 8.34375 Z M 9.730469 7.285156 "/>
<path style=" stroke:none;fill-rule:nonzero;fill:rgb(30%,30%,30%);fill-opacity:1;" d="M 4.667969 9.632812 C 3.84375 9.5 3.3125 9.253906 3.011719 9.074219 C 2.925781 9.027344 2.84375 8.976562 2.769531 8.914062 L 2.519531 8.875 L 2.257812 9.011719 C 2.382812 9.121094 2.617188 9.308594 2.890625 9.460938 C 3.015625 9.527344 3.148438 9.585938 3.289062 9.628906 C 3.746094 9.769531 4.582031 9.890625 4.972656 9.945312 L 4.992188 9.847656 C 4.980469 9.832031 4.96875 9.8125 4.953125 9.796875 C 4.878906 9.753906 4.757812 9.683594 4.667969 9.632812 Z M 4.667969 9.632812 "/>
<path style=" stroke:none;fill-rule:nonzero;fill:rgb(30%,30%,30%);fill-opacity:1;" d="M 6.789062 8.738281 L 6.664062 8.785156 L 6.375 8.925781 C 6.007812 9.117188 5.507812 9.367188 5.179688 9.5 C 5.175781 9.542969 5.167969 9.597656 5.160156 9.644531 C 5.171875 9.683594 5.183594 9.71875 5.195312 9.753906 C 5.207031 9.792969 5.222656 9.832031 5.242188 9.871094 L 5.417969 10 C 5.871094 9.992188 6.992188 9.929688 7.988281 9.496094 C 8.027344 9.480469 8.09375 9.433594 8.1875 9.304688 L 8.300781 9.132812 C 8.332031 9.078125 8.367188 9.011719 8.398438 8.945312 C 8.460938 8.828125 8.511719 8.714844 8.546875 8.628906 C 8.535156 8.621094 8.519531 8.609375 8.5 8.597656 Z M 6.789062 8.738281 "/>
</g>
</svg>
