<?xml version="1.0" encoding="UTF-8"?>
<svg xmlns="http://www.w3.org/2000/svg" xmlns:xlink="http://www.w3.org/1999/xlink" width="11px" height="9px" viewBox="0 0 11 9" version="1.1">
<g id="surface1">
<path style=" stroke:none;fill-rule:nonzero;fill:rgb(30%,30%,30%);fill-opacity:1;" d="M 0.824219 3.214844 C 1.449219 2.917969 2.753906 2.703125 2.816406 2.847656 C 2.816406 2.847656 2.921875 2.117188 2.929688 2.007812 C 2.394531 2.085938 1.886719 2.292969 1.449219 2.609375 C 1.019531 2.925781 0.78125 3.238281 0.824219 3.214844 Z M 0.824219 3.214844 "/>
<path style=" stroke:none;fill-rule:nonzero;fill:rgb(30%,30%,30%);fill-opacity:1;" d="M 2.289062 4.945312 C 2.289062 4.945312 3.007812 5.824219 3.027344 5.808594 C 4.191406 4.917969 4.636719 2.832031 4.660156 2.207031 C 4.28125 2.058594 3.878906 1.976562 3.472656 1.972656 C 3.261719 4.136719 2.289062 4.945312 2.289062 4.945312 Z M 2.289062 4.945312 "/>
<path style=" stroke:none;fill-rule:nonzero;fill:rgb(30%,30%,30%);fill-opacity:1;" d="M 3.433594 6.167969 L 3.992188 6.558594 L 4.652344 6.902344 C 4.652344 6.902344 6.140625 6.0625 6.332031 3.621094 C 6.332031 3.617188 6.332031 3.617188 6.332031 3.613281 C 6.296875 3.558594 6.261719 3.503906 6.222656 3.453125 C 6.179688 3.394531 6.128906 3.324219 6.070312 3.246094 C 5.808594 2.921875 5.496094 2.652344 5.140625 2.441406 C 5.0625 3.175781 4.738281 4.957031 3.433594 6.167969 Z M 3.433594 6.167969 "/>
<path style=" stroke:none;fill-rule:nonzero;fill:rgb(30%,30%,30%);fill-opacity:1;" d="M 6.777344 4.730469 C 6.765625 4.675781 6.753906 4.621094 6.738281 4.566406 C 6.699219 4.640625 6.492188 5.390625 6.152344 6.027344 C 5.855469 6.585938 5.375 7.058594 5.257812 7.101562 L 6.375 7.285156 C 6.402344 7.234375 6.429688 7.183594 6.457031 7.132812 C 6.625 6.789062 6.980469 5.890625 6.777344 4.730469 Z M 6.777344 4.730469 "/>
<path style=" stroke:none;fill-rule:nonzero;fill:rgb(30%,30%,30%);fill-opacity:1;" d="M 6.019531 7.769531 C 3.039062 7.410156 1.84375 5.175781 1.84375 5.175781 C 1.84375 5.175781 0.925781 5.40625 0.925781 5.554688 C 0.925781 5.648438 1.578125 6.960938 2.367188 7.550781 C 3.414062 8.328125 4.679688 8.574219 4.972656 8.625 C 5.097656 8.558594 5.222656 8.484375 5.339844 8.402344 C 5.523438 8.253906 5.746094 8.066406 5.886719 7.933594 C 5.933594 7.882812 5.980469 7.832031 6.023438 7.78125 C 6.027344 7.773438 6.023438 7.769531 6.019531 7.769531 Z M 6.019531 7.769531 "/>
<path style=" stroke:none;fill-rule:nonzero;fill:rgb(30%,30%,30%);fill-opacity:1;" d="M 0.519531 5.914062 L 0.164062 6.59375 C 0.164062 6.59375 0.3125 7.09375 0.695312 7.625 C 1.347656 8.492188 2.355469 9 3.421875 9 C 3.644531 9 3.863281 8.976562 4.078125 8.9375 C 4.078125 8.933594 4.074219 8.933594 4.070312 8.933594 C 1.402344 8.324219 0.519531 5.914062 0.519531 5.914062 Z M 0.519531 5.914062 "/>
<path style=" stroke:none;fill-rule:nonzero;fill:rgb(30%,30%,30%);fill-opacity:1;" d="M 0.015625 5.742188 C 0.777344 4.667969 1.695312 4.667969 1.84375 4.65625 C 1.988281 4.644531 2.738281 3.359375 2.648438 3.355469 C 1.277344 3.277344 0.25 4.257812 0.179688 4.328125 C 0.15625 4.394531 0.136719 4.457031 0.121094 4.519531 C 0.0390625 4.929688 -0.03125 5.808594 0.015625 5.742188 Z M 0.015625 5.742188 "/>
<path style=" stroke:none;fill-rule:nonzero;fill:rgb(30%,30%,30%);fill-opacity:1;" d="M 10.996094 4.109375 L 10.996094 0.171875 C 10.996094 0.0898438 10.929688 0.0195312 10.847656 0.0195312 C 10.769531 0.0195312 10.703125 0.0898438 10.703125 0.171875 L 10.703125 0.828125 C 9.714844 0.503906 8.03125 0.261719 6.332031 0.199219 C 4.296875 0.128906 2.503906 0.3125 1.257812 0.722656 L 1.257812 0.152344 C 1.257812 0.0664062 1.195312 0 1.113281 0 C 1.03125 0 0.964844 0.0664062 0.964844 0.152344 L 0.964844 2.777344 C 1.058594 2.6875 1.15625 2.605469 1.257812 2.523438 L 1.257812 1.0625 C 2.472656 0.640625 4.269531 0.453125 6.324219 0.527344 C 6.601562 0.535156 6.878906 0.550781 7.152344 0.570312 C 7.152344 0.78125 7.148438 0.984375 7.144531 1.183594 C 5.714844 1.085938 4.402344 1.160156 3.417969 1.273438 L 3.671875 1.398438 C 4.652344 1.285156 5.722656 1.242188 7.144531 1.339844 C 7.140625 1.53125 7.140625 1.71875 7.140625 1.898438 C 6.445312 1.847656 5.550781 1.832031 4.828125 1.859375 L 5.078125 2.015625 C 5.765625 1.992188 6.457031 2.003906 7.144531 2.054688 C 7.144531 2.261719 7.152344 2.464844 7.160156 2.660156 C 6.757812 2.632812 6.347656 2.617188 5.9375 2.613281 L 6.152344 2.773438 C 6.566406 2.777344 6.761719 2.789062 7.167969 2.816406 C 7.179688 3.003906 7.195312 3.1875 7.214844 3.363281 C 6.976562 3.34375 6.730469 3.332031 6.480469 3.320312 C 6.441406 3.316406 6.410156 3.324219 6.371094 3.320312 C 6.449219 3.433594 6.523438 3.550781 6.589844 3.671875 C 8.375 3.765625 9.972656 4.039062 10.703125 4.277344 L 10.703125 6.988281 C 10.703125 7.074219 10.769531 7.140625 10.847656 7.140625 C 10.929688 7.140625 10.996094 7.074219 10.996094 6.988281 L 10.996094 4.164062 C 11 4.144531 11 4.128906 10.996094 4.109375 Z M 7.984375 1.417969 C 8.167969 1.4375 8.351562 1.460938 8.539062 1.488281 C 8.535156 1.679688 8.527344 1.863281 8.527344 2.046875 C 8.347656 2.023438 8.167969 2 7.988281 1.976562 C 7.984375 1.808594 7.984375 1.621094 7.984375 1.417969 Z M 8.675781 2.230469 C 8.84375 2.253906 9.007812 2.285156 9.175781 2.3125 C 9.171875 2.523438 9.171875 2.722656 9.175781 2.914062 C 9.007812 2.882812 8.84375 2.855469 8.675781 2.832031 C 8.671875 2.636719 8.671875 2.433594 8.675781 2.230469 Z M 8.675781 2.070312 C 8.679688 1.886719 8.683594 1.699219 8.691406 1.511719 C 8.855469 1.535156 9.023438 1.566406 9.1875 1.59375 C 9.1875 1.644531 9.1875 1.691406 9.1875 1.742188 C 9.183594 1.882812 9.179688 2.023438 9.175781 2.15625 C 9.011719 2.125 8.84375 2.097656 8.675781 2.070312 Z M 9.335938 1.742188 C 9.339844 1.703125 9.339844 1.664062 9.339844 1.625 C 9.519531 1.660156 9.703125 1.695312 9.886719 1.738281 C 9.882812 1.929688 9.882812 2.117188 9.886719 2.300781 C 9.699219 2.257812 9.515625 2.21875 9.328125 2.183594 C 9.332031 2.042969 9.335938 1.898438 9.335938 1.742188 Z M 9.34375 1.464844 C 9.347656 1.265625 9.351562 1.058594 9.355469 0.835938 C 9.546875 0.871094 9.726562 0.910156 9.898438 0.945312 C 9.894531 1.160156 9.890625 1.371094 9.886719 1.578125 C 9.707031 1.539062 9.523438 1.5 9.34375 1.464844 Z M 9.191406 1.4375 C 9.027344 1.40625 8.859375 1.378906 8.695312 1.355469 C 8.695312 1.292969 8.699219 1.226562 8.699219 1.164062 C 8.703125 1.023438 8.707031 0.878906 8.710938 0.734375 C 8.878906 0.757812 9.042969 0.78125 9.203125 0.808594 C 9.199219 1.03125 9.195312 1.238281 9.191406 1.4375 Z M 8.546875 1.160156 C 8.546875 1.21875 8.542969 1.273438 8.542969 1.332031 C 8.355469 1.304688 8.167969 1.28125 7.984375 1.261719 C 7.988281 1.070312 7.992188 0.863281 7.996094 0.644531 C 8.1875 0.664062 8.375 0.6875 8.5625 0.710938 C 8.558594 0.863281 8.550781 1.015625 8.546875 1.160156 Z M 8.523438 2.207031 C 8.519531 2.410156 8.519531 2.613281 8.523438 2.808594 C 8.355469 2.78125 8.183594 2.761719 8.011719 2.742188 C 8 2.5625 7.996094 2.363281 7.988281 2.136719 C 8.167969 2.15625 8.347656 2.179688 8.523438 2.207031 Z M 8.527344 2.964844 C 8.535156 3.152344 8.542969 3.328125 8.558594 3.5 C 8.398438 3.480469 8.234375 3.460938 8.066406 3.441406 C 8.050781 3.289062 8.035156 3.109375 8.019531 2.898438 C 8.191406 2.917969 8.359375 2.941406 8.527344 2.964844 Z M 8.679688 2.988281 C 8.847656 3.015625 9.011719 3.042969 9.179688 3.074219 C 9.183594 3.25 9.195312 3.421875 9.210938 3.59375 C 9.050781 3.566406 8.886719 3.542969 8.714844 3.519531 C 8.699219 3.351562 8.6875 3.171875 8.679688 2.988281 Z M 9.332031 3.105469 C 9.527344 3.140625 9.71875 3.183594 9.914062 3.226562 C 9.921875 3.398438 9.9375 3.566406 9.953125 3.730469 C 9.773438 3.691406 9.574219 3.65625 9.367188 3.621094 C 9.347656 3.449219 9.335938 3.28125 9.332031 3.105469 Z M 9.328125 2.945312 C 9.324219 2.75 9.324219 2.554688 9.324219 2.34375 C 9.515625 2.378906 9.699219 2.417969 9.886719 2.460938 C 9.890625 2.667969 9.894531 2.867188 9.90625 3.066406 C 9.714844 3.023438 9.519531 2.980469 9.328125 2.945312 Z M 10.039062 2.496094 C 10.261719 2.550781 10.484375 2.609375 10.703125 2.671875 L 10.703125 3.269531 C 10.488281 3.210938 10.273438 3.152344 10.058594 3.101562 C 10.046875 2.90625 10.042969 2.703125 10.039062 2.496094 Z M 10.035156 2.335938 C 10.035156 2.152344 10.035156 1.964844 10.039062 1.773438 C 10.257812 1.824219 10.480469 1.882812 10.703125 1.945312 L 10.703125 2.507812 C 10.484375 2.445312 10.261719 2.390625 10.035156 2.335938 Z M 10.703125 1.785156 C 10.480469 1.722656 10.257812 1.664062 10.039062 1.613281 C 10.042969 1.40625 10.046875 1.195312 10.050781 0.980469 C 10.292969 1.042969 10.511719 1.105469 10.703125 1.171875 Z M 7.304688 0.582031 C 7.488281 0.59375 7.667969 0.609375 7.84375 0.628906 C 7.839844 0.828125 7.835938 1.035156 7.832031 1.242188 C 7.652344 1.222656 7.472656 1.207031 7.296875 1.195312 C 7.300781 0.996094 7.300781 0.789062 7.304688 0.582031 Z M 7.296875 1.351562 C 7.472656 1.363281 7.652344 1.382812 7.832031 1.398438 C 7.832031 1.585938 7.832031 1.773438 7.835938 1.960938 C 7.65625 1.941406 7.476562 1.925781 7.292969 1.910156 C 7.292969 1.730469 7.292969 1.542969 7.296875 1.351562 Z M 7.296875 2.066406 C 7.476562 2.082031 7.65625 2.097656 7.835938 2.117188 C 7.839844 2.320312 7.847656 2.523438 7.859375 2.722656 C 7.679688 2.703125 7.496094 2.6875 7.3125 2.671875 C 7.304688 2.476562 7.296875 2.273438 7.296875 2.066406 Z M 7.320312 2.828125 C 7.503906 2.84375 7.6875 2.859375 7.867188 2.882812 C 7.878906 3.066406 7.894531 3.25 7.910156 3.425781 C 7.734375 3.40625 7.554688 3.390625 7.367188 3.375 C 7.347656 3.199219 7.332031 3.015625 7.320312 2.828125 Z M 10.109375 3.761719 C 10.089844 3.601562 10.078125 3.4375 10.066406 3.265625 C 10.28125 3.316406 10.492188 3.371094 10.703125 3.433594 L 10.703125 3.914062 C 10.539062 3.863281 10.335938 3.8125 10.109375 3.761719 Z M 10.109375 3.761719 "/>
</g>
</svg>
