<?xml version="1.0" encoding="UTF-8"?>
<svg xmlns="http://www.w3.org/2000/svg" xmlns:xlink="http://www.w3.org/1999/xlink" width="9px" height="11px" viewBox="0 0 9 11" version="1.1">
<g id="surface1">
<path style=" stroke:none;fill-rule:nonzero;fill:rgb(30%,30%,30%);fill-opacity:1;" d="M 8.574219 5.578125 C 8.574219 6.132812 8.113281 6.582031 7.546875 6.582031 C 6.976562 6.582031 6.515625 6.132812 6.515625 5.578125 C 6.515625 5.023438 6.976562 4.574219 7.546875 4.574219 C 8.113281 4.574219 8.574219 5.023438 8.574219 5.578125 Z M 0.210938 1.003906 C 0.5625 1.875 1.410156 2.917969 1.691406 3.136719 C 2.5625 3.804688 3.238281 3.9375 3.601562 4.183594 C 4.003906 4.460938 5.03125 5.207031 5.03125 5.207031 C 5.03125 5.207031 5.121094 6.121094 5.410156 6.613281 C 5.699219 7.109375 7.03125 8.640625 7.410156 8.199219 C 7.789062 7.761719 6.875 7.566406 6.277344 6.648438 C 5.867188 6.019531 5.855469 5.390625 5.855469 5.390625 C 5.855469 5.390625 6.21875 5.167969 6.320312 4.992188 C 6.417969 4.8125 6.378906 4.617188 6.179688 4.253906 C 5.796875 3.558594 4.46875 2.800781 4 2.625 C 3.53125 2.449219 3.058594 2.808594 2.84375 2.703125 C 2.625 2.597656 1.964844 2.03125 1.757812 1.746094 C 1.402344 1.261719 1.050781 0.414062 0.792969 0.1875 C 0.222656 -0.3125 -0.0429688 0.265625 0.210938 1.003906 Z M 8.21875 9.101562 C 8.074219 9.09375 7.929688 9.007812 7.765625 8.90625 C 7.523438 8.753906 7.246094 8.585938 6.875 8.625 C 6.628906 8.648438 6.453125 8.765625 6.285156 8.878906 C 6.09375 9.007812 5.914062 9.125 5.628906 9.117188 C 5.46875 9.113281 5.316406 9.027344 5.140625 8.925781 C 4.878906 8.777344 4.582031 8.609375 4.171875 8.640625 C 3.9375 8.660156 3.75 8.769531 3.570312 8.875 C 3.371094 8.992188 3.183594 9.101562 2.917969 9.101562 C 2.753906 9.101562 2.589844 9.011719 2.402344 8.90625 C 2.164062 8.773438 1.898438 8.621094 1.570312 8.640625 C 1.335938 8.65625 1.109375 8.777344 0.890625 8.890625 C 0.683594 9 0.488281 9.101562 0.316406 9.101562 C 0.210938 9.101562 0.105469 9.082031 0.0078125 9.046875 L 0.0117188 9.605469 C 0.113281 9.632812 0.214844 9.644531 0.316406 9.644531 C 0.558594 9.644531 0.796875 9.519531 1.027344 9.398438 C 1.226562 9.296875 1.414062 9.195312 1.589844 9.183594 C 1.832031 9.171875 2.039062 9.285156 2.257812 9.410156 C 2.464844 9.527344 2.679688 9.644531 2.917969 9.644531 C 3.261719 9.644531 3.507812 9.503906 3.722656 9.375 C 3.882812 9.28125 4.023438 9.195312 4.191406 9.183594 C 4.515625 9.160156 4.757812 9.296875 4.996094 9.429688 C 5.191406 9.539062 5.390625 9.65625 5.621094 9.660156 C 5.632812 9.660156 5.644531 9.660156 5.65625 9.660156 C 6.011719 9.660156 6.246094 9.507812 6.449219 9.371094 C 6.601562 9.269531 6.730469 9.183594 6.902344 9.167969 C 7.179688 9.136719 7.386719 9.265625 7.609375 9.402344 C 7.796875 9.515625 7.988281 9.636719 8.207031 9.644531 C 8.222656 9.644531 8.238281 9.644531 8.253906 9.644531 C 8.550781 9.644531 8.820312 9.527344 9 9.425781 L 9 8.832031 C 8.902344 8.902344 8.582031 9.113281 8.21875 9.101562 Z M 8.210938 10.4375 C 8.0625 10.433594 7.921875 10.34375 7.757812 10.242188 C 7.511719 10.09375 7.238281 9.921875 6.863281 9.960938 C 6.621094 9.988281 6.445312 10.105469 6.273438 10.21875 C 6.085938 10.34375 5.90625 10.464844 5.617188 10.457031 C 5.460938 10.453125 5.308594 10.363281 5.128906 10.265625 C 4.867188 10.117188 4.570312 9.949219 4.160156 9.980469 C 3.925781 9.996094 3.742188 10.105469 3.5625 10.210938 C 3.363281 10.328125 3.175781 10.441406 2.90625 10.441406 C 2.742188 10.441406 2.582031 10.347656 2.394531 10.246094 C 2.15625 10.109375 1.886719 9.960938 1.5625 9.980469 C 1.324219 9.996094 1.101562 10.113281 0.882812 10.230469 C 0.675781 10.339844 0.480469 10.441406 0.304688 10.441406 C 0.203125 10.441406 0.0976562 10.421875 0 10.386719 L 0.00390625 10.945312 C 0.101562 10.96875 0.203125 10.984375 0.304688 10.984375 C 0.550781 10.984375 0.789062 10.859375 1.019531 10.738281 C 1.21875 10.632812 1.40625 10.535156 1.578125 10.523438 C 1.820312 10.507812 2.03125 10.625 2.25 10.75 C 2.457031 10.863281 2.667969 10.984375 2.90625 10.984375 C 3.253906 10.984375 3.496094 10.839844 3.710938 10.714844 C 3.875 10.617188 4.015625 10.535156 4.183594 10.523438 C 4.507812 10.496094 4.75 10.636719 4.984375 10.769531 C 5.179688 10.878906 5.382812 10.992188 5.609375 11 C 5.621094 11 5.632812 11 5.644531 11 C 6.003906 11 6.234375 10.847656 6.441406 10.710938 C 6.589844 10.609375 6.722656 10.523438 6.894531 10.503906 C 7.171875 10.476562 7.378906 10.605469 7.601562 10.742188 C 7.785156 10.855469 7.976562 10.972656 8.199219 10.980469 C 8.214844 10.984375 8.230469 10.984375 8.242188 10.984375 C 8.542969 10.984375 8.8125 10.867188 8.992188 10.765625 L 8.988281 10.167969 C 8.894531 10.238281 8.570312 10.453125 8.210938 10.4375 Z M 8.210938 10.4375 "/>
</g>
</svg>
