<?xml version="1.0" encoding="UTF-8"?>
<svg xmlns="http://www.w3.org/2000/svg" xmlns:xlink="http://www.w3.org/1999/xlink" width="10px" height="10px" viewBox="0 0 10 10" version="1.1">
<g id="surface1">
<path style=" stroke:none;fill-rule:nonzero;fill:rgb(30%,30%,30%);fill-opacity:1;" d="M 3.898438 8.449219 C 3.898438 9.304688 3.253906 10 2.457031 10 C 1.660156 10 1.015625 9.304688 1.015625 8.449219 C 1.015625 7.589844 1.660156 6.894531 2.457031 6.894531 C 3.253906 6.894531 3.898438 7.589844 3.898438 8.449219 Z M 1.535156 8.484375 C 1.597656 8.480469 1.644531 8.425781 1.644531 8.359375 C 1.632812 8.082031 1.695312 7.871094 1.832031 7.730469 C 2.054688 7.5 2.410156 7.523438 2.414062 7.523438 C 2.476562 7.527344 2.527344 7.480469 2.535156 7.414062 C 2.539062 7.347656 2.492188 7.289062 2.429688 7.285156 C 2.414062 7.28125 1.976562 7.25 1.679688 7.554688 C 1.496094 7.746094 1.410156 8.019531 1.421875 8.367188 C 1.421875 8.433594 1.472656 8.484375 1.53125 8.484375 C 1.535156 8.484375 1.535156 8.484375 1.535156 8.484375 Z M 1.535156 8.484375 "/>
<path style=" stroke:none;fill-rule:nonzero;fill:rgb(30%,30%,30%);fill-opacity:1;" d="M 1.46875 4.300781 C 1.441406 4.296875 1.417969 4.289062 1.394531 4.28125 C 1.523438 4.65625 1.703125 5.011719 1.929688 5.332031 C 2.296875 5.429688 2.675781 5.433594 3.046875 5.34375 C 3.265625 5.03125 3.441406 4.683594 3.574219 4.316406 C 2.882812 4.503906 2.15625 4.5 1.46875 4.300781 Z M 1.46875 4.300781 "/>
<path style=" stroke:none;fill-rule:nonzero;fill:rgb(30%,30%,30%);fill-opacity:1;" d="M 3.574219 1.136719 C 3.433594 0.742188 3.230469 0.375 2.980469 0.0507812 C 2.648438 -0.0195312 2.308594 -0.015625 1.976562 0.0625 C 1.726562 0.394531 1.53125 0.769531 1.390625 1.171875 C 1.417969 1.164062 1.441406 1.15625 1.46875 1.148438 C 2.15625 0.953125 2.882812 0.945312 3.574219 1.136719 Z M 3.574219 1.136719 "/>
<path style=" stroke:none;fill-rule:nonzero;fill:rgb(30%,30%,30%);fill-opacity:1;" d="M 1.480469 1.386719 C 1.421875 1.40625 1.363281 1.421875 1.304688 1.441406 C 1.078125 2.28125 1.078125 3.171875 1.3125 4.011719 C 1.367188 4.027344 1.425781 4.046875 1.480469 4.0625 C 2.210938 4.273438 2.972656 4.257812 3.660156 4.042969 C 3.777344 3.636719 3.835938 3.21875 3.84375 2.796875 C 3.851562 2.328125 3.789062 1.859375 3.660156 1.410156 C 2.972656 1.191406 2.210938 1.179688 1.480469 1.386719 Z M 1.480469 1.386719 "/>
<path style=" stroke:none;fill-rule:nonzero;fill:rgb(30%,30%,30%);fill-opacity:1;" d="M 1.058594 1.535156 C 0.699219 1.679688 0.363281 1.878906 0.0585938 2.125 C -0.0234375 2.523438 -0.0195312 2.9375 0.0703125 3.332031 C 0.371094 3.574219 0.703125 3.769531 1.050781 3.914062 C 0.960938 3.542969 0.917969 3.160156 0.917969 2.773438 C 0.917969 2.355469 0.964844 1.941406 1.058594 1.535156 Z M 1.058594 1.535156 "/>
<path style=" stroke:none;fill-rule:nonzero;fill:rgb(30%,30%,30%);fill-opacity:1;" d="M 0.175781 3.699219 C 0.429688 4.390625 0.941406 4.941406 1.582031 5.214844 C 1.390625 4.898438 1.238281 4.550781 1.128906 4.191406 C 0.792969 4.066406 0.472656 3.902344 0.175781 3.699219 Z M 0.175781 3.699219 "/>
<path style=" stroke:none;fill-rule:nonzero;fill:rgb(30%,30%,30%);fill-opacity:1;" d="M 3.386719 5.238281 C 4.058594 4.96875 4.589844 4.402344 4.851562 3.683594 C 4.539062 3.921875 4.199219 4.105469 3.839844 4.230469 C 3.726562 4.585938 3.578125 4.925781 3.386719 5.238281 Z M 3.386719 5.238281 "/>
<path style=" stroke:none;fill-rule:nonzero;fill:rgb(30%,30%,30%);fill-opacity:1;" d="M 4.96875 2.152344 C 4.652344 1.871094 4.292969 1.648438 3.910156 1.496094 C 4.015625 1.9375 4.066406 2.390625 4.058594 2.847656 C 4.054688 3.21875 4.007812 3.589844 3.917969 3.949219 C 4.296875 3.800781 4.648438 3.585938 4.957031 3.308594 C 5.039062 2.929688 5.042969 2.535156 4.96875 2.152344 Z M 4.96875 2.152344 "/>
<path style=" stroke:none;fill-rule:nonzero;fill:rgb(30%,30%,30%);fill-opacity:1;" d="M 4.871094 1.785156 C 4.613281 1.019531 4.050781 0.421875 3.335938 0.152344 C 3.550781 0.480469 3.714844 0.835938 3.832031 1.214844 C 4.203125 1.347656 4.554688 1.539062 4.871094 1.785156 Z M 4.871094 1.785156 "/>
<path style=" stroke:none;fill-rule:nonzero;fill:rgb(30%,30%,30%);fill-opacity:1;" d="M 1.617188 0.175781 C 0.941406 0.453125 0.40625 1.035156 0.15625 1.765625 C 0.460938 1.554688 0.789062 1.386719 1.132812 1.257812 C 1.246094 0.875 1.410156 0.511719 1.617188 0.175781 Z M 1.617188 0.175781 "/>
<path style=" stroke:none;fill-rule:nonzero;fill:rgb(30%,30%,30%);fill-opacity:1;" d="M 9.285156 6.066406 C 9.152344 6.292969 9.003906 6.511719 8.835938 6.710938 C 9.167969 6.746094 9.460938 6.714844 9.707031 6.625 L 9.921875 6.488281 C 9.964844 6.316406 9.988281 6.136719 10 5.957031 C 9.785156 6.03125 9.554688 6.066406 9.304688 6.066406 C 9.300781 6.066406 9.292969 6.066406 9.285156 6.066406 Z M 9.285156 6.066406 "/>
<path style=" stroke:none;fill-rule:nonzero;fill:rgb(30%,30%,30%);fill-opacity:1;" d="M 9.96875 5.699219 L 10 5.683594 C 9.984375 5.320312 9.90625 4.960938 9.765625 4.632812 C 9.742188 5.023438 9.617188 5.421875 9.425781 5.808594 C 9.609375 5.800781 9.792969 5.765625 9.96875 5.699219 Z M 9.96875 5.699219 "/>
<path style=" stroke:none;fill-rule:nonzero;fill:rgb(30%,30%,30%);fill-opacity:1;" d="M 7.867188 7.640625 C 7.8125 7.683594 7.757812 7.722656 7.703125 7.757812 C 7.21875 8.085938 6.75 8.273438 6.332031 8.3125 C 7.363281 8.832031 8.585938 8.5625 9.34375 7.652344 C 9.132812 7.722656 8.90625 7.753906 8.671875 7.753906 C 8.410156 7.753906 8.140625 7.714844 7.867188 7.640625 Z M 7.867188 7.640625 "/>
<path style=" stroke:none;fill-rule:nonzero;fill:rgb(30%,30%,30%);fill-opacity:1;" d="M 9.015625 6.050781 C 8.839844 6.03125 8.664062 5.996094 8.496094 5.949219 C 8.460938 5.941406 8.425781 5.929688 8.390625 5.917969 C 8.242188 6.117188 8.082031 6.308594 7.910156 6.484375 C 7.945312 6.5 7.984375 6.511719 8.019531 6.523438 C 8.195312 6.585938 8.375 6.632812 8.554688 6.667969 C 8.707031 6.496094 8.847656 6.308594 8.972656 6.117188 C 8.988281 6.09375 9 6.074219 9.015625 6.050781 Z M 9.015625 6.050781 "/>
<path style=" stroke:none;fill-rule:nonzero;fill:rgb(30%,30%,30%);fill-opacity:1;" d="M 7.183594 7.117188 C 7.34375 7.195312 7.507812 7.261719 7.675781 7.320312 C 7.722656 7.335938 7.773438 7.351562 7.820312 7.367188 C 8.007812 7.21875 8.1875 7.058594 8.355469 6.886719 C 8.140625 6.832031 7.925781 6.761719 7.714844 6.675781 C 7.546875 6.835938 7.371094 6.984375 7.183594 7.117188 Z M 7.183594 7.117188 "/>
<path style=" stroke:none;fill-rule:nonzero;fill:rgb(30%,30%,30%);fill-opacity:1;" d="M 9.808594 6.855469 L 9.796875 6.859375 C 9.582031 6.941406 9.347656 6.980469 9.097656 6.980469 C 8.941406 6.980469 8.789062 6.964844 8.636719 6.941406 C 8.476562 7.121094 8.300781 7.285156 8.121094 7.441406 C 8.582031 7.535156 9 7.519531 9.339844 7.382812 L 9.648438 7.207031 C 9.707031 7.09375 9.761719 6.976562 9.808594 6.855469 Z M 9.808594 6.855469 "/>
<path style=" stroke:none;fill-rule:nonzero;fill:rgb(30%,30%,30%);fill-opacity:1;" d="M 8.148438 5.835938 C 7.933594 5.753906 7.726562 5.652344 7.527344 5.539062 C 7.371094 5.71875 7.207031 5.890625 7.03125 6.046875 C 7.234375 6.175781 7.445312 6.285156 7.664062 6.382812 C 7.835938 6.210938 8 6.027344 8.148438 5.835938 Z M 8.148438 5.835938 "/>
<path style=" stroke:none;fill-rule:nonzero;fill:rgb(30%,30%,30%);fill-opacity:1;" d="M 6.691406 7.136719 C 6.476562 7.011719 6.269531 6.867188 6.074219 6.707031 C 5.726562 6.882812 5.394531 6.976562 5.09375 6.984375 C 5.160156 7.132812 5.234375 7.273438 5.324219 7.402344 C 5.691406 7.523438 6.171875 7.429688 6.691406 7.136719 Z M 6.691406 7.136719 "/>
<path style=" stroke:none;fill-rule:nonzero;fill:rgb(30%,30%,30%);fill-opacity:1;" d="M 6.828125 6.214844 C 6.664062 6.347656 6.488281 6.46875 6.308594 6.578125 C 6.507812 6.730469 6.71875 6.867188 6.933594 6.988281 C 7.121094 6.863281 7.300781 6.722656 7.46875 6.570312 C 7.25 6.464844 7.035156 6.347656 6.828125 6.214844 Z M 6.828125 6.214844 "/>
<path style=" stroke:none;fill-rule:nonzero;fill:rgb(30%,30%,30%);fill-opacity:1;" d="M 5.992188 6.3125 C 6.027344 6.347656 6.0625 6.378906 6.101562 6.410156 C 6.277344 6.308594 6.449219 6.195312 6.613281 6.070312 C 6.445312 5.949219 6.285156 5.820312 6.132812 5.679688 C 5.65625 5.234375 5.355469 4.769531 5.246094 4.316406 C 5.167969 4.449219 5.101562 4.585938 5.046875 4.726562 C 5.089844 5.226562 5.417969 5.789062 5.992188 6.3125 Z M 5.992188 6.3125 "/>
<path style=" stroke:none;fill-rule:nonzero;fill:rgb(30%,30%,30%);fill-opacity:1;" d="M 7.566406 7.550781 C 7.355469 7.472656 7.148438 7.382812 6.945312 7.277344 C 6.484375 7.566406 6.046875 7.710938 5.664062 7.710938 C 5.628906 7.710938 5.589844 7.710938 5.554688 7.707031 C 5.660156 7.832031 5.78125 7.941406 5.90625 8.042969 C 6.355469 8.140625 6.941406 7.96875 7.566406 7.550781 Z M 7.566406 7.550781 "/>
<path style=" stroke:none;fill-rule:nonzero;fill:rgb(30%,30%,30%);fill-opacity:1;" d="M 6.289062 5.488281 C 6.457031 5.640625 6.628906 5.78125 6.816406 5.90625 C 6.992188 5.753906 7.160156 5.589844 7.3125 5.410156 C 7.199219 5.335938 7.085938 5.257812 6.976562 5.171875 C 6.378906 4.714844 5.953125 4.183594 5.769531 3.675781 C 5.648438 3.78125 5.539062 3.898438 5.441406 4.027344 C 5.476562 4.488281 5.773438 5.003906 6.289062 5.488281 Z M 6.289062 5.488281 "/>
<path style=" stroke:none;fill-rule:nonzero;fill:rgb(30%,30%,30%);fill-opacity:1;" d="M 5.863281 6.527344 C 5.855469 6.523438 5.847656 6.515625 5.839844 6.507812 C 5.378906 6.085938 5.0625 5.632812 4.910156 5.195312 C 4.804688 5.707031 4.835938 6.238281 4.996094 6.730469 C 5.253906 6.738281 5.550781 6.667969 5.863281 6.527344 Z M 5.863281 6.527344 "/>
<path style=" stroke:none;fill-rule:nonzero;fill:rgb(30%,30%,30%);fill-opacity:1;" d="M 7.113281 4.964844 C 7.230469 5.054688 7.351562 5.136719 7.472656 5.214844 C 7.960938 4.585938 8.242188 3.886719 8.226562 3.273438 L 8.207031 3.15625 C 7.449219 2.894531 6.621094 3.027344 5.964844 3.511719 C 6.121094 3.992188 6.53125 4.519531 7.113281 4.964844 Z M 7.113281 4.964844 "/>
<path style=" stroke:none;fill-rule:nonzero;fill:rgb(30%,30%,30%);fill-opacity:1;" d="M 8.542969 5.699219 C 8.746094 5.753906 8.949219 5.792969 9.15625 5.804688 C 9.417969 5.320312 9.546875 4.847656 9.53125 4.421875 L 9.476562 4.117188 C 9.394531 4 9.300781 3.890625 9.203125 3.789062 L 9.203125 3.796875 C 9.222656 4.410156 8.953125 5.085938 8.542969 5.699219 Z M 8.542969 5.699219 "/>
<path style=" stroke:none;fill-rule:nonzero;fill:rgb(30%,30%,30%);fill-opacity:1;" d="M 8.003906 4.863281 C 7.90625 5.03125 7.800781 5.1875 7.683594 5.339844 C 7.882812 5.453125 8.09375 5.546875 8.304688 5.621094 C 8.328125 5.589844 8.351562 5.554688 8.371094 5.523438 C 8.769531 4.921875 8.980469 4.316406 8.96875 3.820312 L 8.90625 3.527344 C 8.765625 3.421875 8.617188 3.332031 8.464844 3.257812 C 8.480469 3.765625 8.320312 4.320312 8.003906 4.863281 Z M 8.003906 4.863281 "/>
</g>
</svg>
