<?xml version="1.0" encoding="UTF-8"?>
<svg xmlns="http://www.w3.org/2000/svg" xmlns:xlink="http://www.w3.org/1999/xlink" width="10px" height="10px" viewBox="0 0 10 10" version="1.1">
<g id="surface1">
<path style=" stroke:none;fill-rule:nonzero;fill:rgb(30%,30%,30%);fill-opacity:1;" d="M 3.5 4.574219 L 1.941406 4.574219 C 1.835938 4.574219 1.75 4.496094 1.75 4.398438 C 1.75 4.300781 1.835938 4.222656 1.941406 4.222656 L 3.5 4.222656 C 3.605469 4.222656 3.691406 4.300781 3.691406 4.398438 C 3.691406 4.496094 3.605469 4.574219 3.5 4.574219 Z M 3.585938 5.960938 C 3.585938 5.863281 3.5 5.785156 3.398438 5.785156 L 1.253906 5.785156 C 1.148438 5.785156 1.0625 5.863281 1.0625 5.960938 C 1.0625 6.058594 1.148438 6.136719 1.253906 6.136719 L 3.398438 6.136719 C 3.5 6.136719 3.585938 6.058594 3.585938 5.960938 Z M 3.667969 7.484375 C 3.667969 7.386719 3.585938 7.308594 3.480469 7.308594 L 0.191406 7.308594 C 0.0859375 7.308594 0.00390625 7.386719 0.00390625 7.484375 C 0.00390625 7.582031 0.0859375 7.660156 0.191406 7.660156 L 3.480469 7.660156 C 3.585938 7.660156 3.667969 7.582031 3.667969 7.484375 Z M 5.667969 3.851562 L 5.667969 3.113281 C 5.667969 3.015625 5.585938 2.933594 5.480469 2.933594 C 5.375 2.933594 5.292969 3.015625 5.292969 3.113281 L 5.292969 3.851562 C 5.292969 3.949219 5.375 4.03125 5.480469 4.03125 C 5.585938 4.03125 5.667969 3.949219 5.667969 3.851562 Z M 5.667969 8.773438 L 5.667969 8.03125 C 5.667969 7.933594 5.585938 7.855469 5.480469 7.855469 C 5.375 7.855469 5.292969 7.933594 5.292969 8.03125 L 5.292969 8.773438 C 5.292969 8.871094 5.375 8.949219 5.480469 8.949219 C 5.585938 8.949219 5.667969 8.871094 5.667969 8.773438 Z M 7.71875 6.128906 L 8.511719 6.125 C 8.617188 6.125 8.699219 6.046875 8.699219 5.949219 C 8.699219 5.851562 8.613281 5.773438 8.511719 5.773438 L 7.71875 5.777344 C 7.613281 5.777344 7.53125 5.855469 7.53125 5.953125 C 7.53125 6.050781 7.617188 6.128906 7.71875 6.128906 Z M 7.773438 8.0625 C 7.847656 7.992188 7.847656 7.882812 7.777344 7.8125 L 7.222656 7.28125 C 7.175781 7.234375 7.105469 7.21875 7.042969 7.234375 C 6.976562 7.25 6.925781 7.296875 6.90625 7.355469 C 6.890625 7.417969 6.90625 7.480469 6.953125 7.527344 L 7.507812 8.058594 C 7.582031 8.128906 7.699219 8.128906 7.773438 8.0625 Z M 7.148438 4.578125 L 7.71875 4.066406 C 7.792969 3.996094 7.796875 3.886719 7.722656 3.816406 C 7.652344 3.746094 7.535156 3.742188 7.457031 3.8125 L 6.886719 4.324219 C 6.8125 4.390625 6.808594 4.503906 6.882812 4.574219 C 6.953125 4.644531 7.074219 4.644531 7.148438 4.578125 Z M 9.210938 2.90625 C 9.277344 2.96875 9.390625 2.96875 9.457031 2.90625 L 9.945312 2.445312 C 10.015625 2.382812 10.015625 2.277344 9.945312 2.214844 L 9.457031 1.757812 C 9.390625 1.691406 9.277344 1.691406 9.210938 1.757812 L 8.71875 2.214844 C 8.652344 2.277344 8.652344 2.382812 8.71875 2.445312 L 8.828125 2.546875 L 8.378906 2.984375 C 7.644531 2.355469 6.703125 1.984375 5.710938 1.933594 L 5.707031 1.285156 L 5.824219 1.285156 C 5.910156 1.285156 5.980469 1.222656 5.980469 1.140625 L 5.980469 0.148438 C 5.980469 0.0664062 5.910156 0 5.824219 0 L 5.148438 0 C 5.0625 0 4.992188 0.0664062 4.992188 0.148438 L 4.992188 1.140625 C 4.992188 1.222656 5.0625 1.285156 5.148438 1.285156 L 5.332031 1.285156 L 5.335938 1.929688 C 4.125 1.964844 2.988281 2.476562 2.199219 3.339844 C 2.117188 3.433594 2.128906 3.574219 2.226562 3.652344 C 2.324219 3.730469 2.472656 3.71875 2.558594 3.628906 C 3.285156 2.828125 4.351562 2.367188 5.472656 2.367188 C 7.589844 2.367188 9.3125 3.980469 9.3125 5.964844 C 9.3125 7.945312 7.589844 9.558594 5.472656 9.558594 C 4.269531 9.558594 3.15625 9.042969 2.421875 8.144531 C 2.34375 8.046875 2.195312 8.027344 2.09375 8.101562 C 1.988281 8.175781 1.96875 8.3125 2.046875 8.410156 C 2.871094 9.421875 4.121094 10 5.472656 10 C 7.847656 10 9.78125 8.1875 9.78125 5.964844 C 9.78125 4.953125 9.375 3.976562 8.644531 3.234375 L 9.09375 2.796875 Z M 6.460938 3.347656 C 6.460938 3.347656 4.96875 5.492188 4.871094 5.785156 C 4.773438 6.078125 4.945312 6.390625 5.257812 6.484375 C 5.574219 6.578125 5.90625 6.414062 6.007812 6.121094 C 6.003906 6.121094 6.460938 3.347656 6.460938 3.347656 Z M 6.460938 3.347656 "/>
</g>
</svg>
