<?xml version="1.0" encoding="UTF-8"?>
<svg xmlns="http://www.w3.org/2000/svg" xmlns:xlink="http://www.w3.org/1999/xlink" width="9px" height="11px" viewBox="0 0 9 11" version="1.1">
<g id="surface1">
<path style=" stroke:none;fill-rule:nonzero;fill:rgb(30%,30%,30%);fill-opacity:1;" d="M 6.3125 5.773438 L 4.820312 5.742188 C 4.839844 5.632812 4.863281 5.519531 4.886719 5.414062 C 3.875 5.355469 3.136719 5.191406 2.542969 5.058594 C 2.429688 5.035156 2.320312 5.011719 2.21875 4.988281 C 1.195312 4.773438 0.320312 4.066406 0 3.820312 L 0 9.257812 C 0.6875 9.046875 1.296875 8.824219 1.609375 8.613281 C 1.609375 8.613281 3.414062 7.523438 3.414062 7.523438 C 3.800781 7.578125 4.695312 7.707031 4.695312 7.707031 L 4.511719 8.210938 L 3.542969 8.417969 L 2.980469 8.238281 C 2.980469 8.238281 2.59375 9.300781 2.582031 9.355469 C 2.566406 9.414062 3.945312 9.175781 3.945312 9.175781 L 5.128906 8.742188 L 5.457031 8.179688 C 5.457031 8.179688 5.652344 8.445312 5.761719 8.488281 C 5.871094 8.53125 6.546875 7.941406 6.546875 7.941406 C 6.546875 7.941406 6.917969 6.921875 6.960938 6.597656 C 7 6.277344 6.3125 5.773438 6.3125 5.773438 Z M 5.804688 7.410156 C 5.804688 7.410156 5.542969 6.949219 5.265625 6.90625 C 4.992188 6.863281 4.246094 6.820312 4.246094 6.820312 L 6.050781 6.402344 L 6.121094 7.058594 Z M 5.804688 7.410156 "/>
<path style=" stroke:none;fill-rule:nonzero;fill:rgb(30%,30%,30%);fill-opacity:1;" d="M 2.609375 4.75 C 3.199219 4.882812 3.9375 5.046875 4.953125 5.097656 C 5.015625 4.824219 5.070312 4.558594 5.101562 4.316406 C 5.15625 3.855469 5.527344 3.976562 5.925781 3.707031 C 6.0625 3.617188 6.222656 3.558594 6.382812 3.480469 C 6.414062 3.554688 6.433594 3.605469 6.457031 3.652344 C 6.582031 3.894531 6.691406 4.144531 6.828125 4.375 C 6.988281 4.640625 7.207031 4.847656 7.476562 5.003906 C 7.941406 4.953125 8.4375 4.878906 8.976562 4.777344 C 8.960938 4.683594 8.9375 4.589844 8.914062 4.496094 C 8.871094 4.339844 8.851562 4.179688 8.855469 4.019531 C 8.867188 3.226562 8.769531 2.453125 8.527344 1.695312 C 8.496094 1.59375 8.53125 1.464844 8.550781 1.355469 C 8.605469 1.023438 8.679688 0.695312 8.863281 0.410156 C 8.871094 0.398438 8.871094 0.382812 8.886719 0.335938 C 8.71875 0.398438 8.578125 0.453125 8.429688 0.511719 C 8.449219 0.316406 8.582031 0.175781 8.667969 0.0078125 C 8.382812 -0.0117188 7.617188 0.328125 7.417969 0.566406 C 6.183594 -0.0703125 4.925781 -0.226562 3.636719 0.394531 C 3.882812 0.480469 4.324219 0.453125 4.578125 0.605469 C 4.507812 0.625 4.28125 0.644531 4.234375 0.660156 C 1.828125 1.148438 0.457031 2.945312 0.152344 3.535156 C 0.148438 3.542969 0.140625 3.550781 0.132812 3.558594 C 0.121094 3.566406 0.109375 3.574219 0.0976562 3.585938 C 0.421875 3.828125 1.351562 4.484375 2.28125 4.679688 C 2.386719 4.699219 2.496094 4.726562 2.609375 4.75 Z M 2.609375 4.75 "/>
<path style=" stroke:none;fill-rule:nonzero;fill:rgb(30%,30%,30%);fill-opacity:1;" d="M 8.992188 5.167969 C 8.996094 5.144531 8.996094 5.117188 9 5.09375 C 8.476562 5.191406 7.992188 5.261719 7.539062 5.316406 C 7.542969 5.351562 7.546875 5.390625 7.558594 5.425781 C 7.636719 5.710938 7.832031 5.859375 8.128906 5.867188 C 8.253906 5.867188 8.378906 5.859375 8.503906 5.839844 C 8.628906 5.820312 8.722656 5.734375 8.792969 5.632812 C 8.855469 5.546875 8.90625 5.453125 8.964844 5.367188 L 9 5.246094 C 8.996094 5.21875 8.988281 5.191406 8.992188 5.167969 Z M 8.992188 5.167969 "/>
<path style=" stroke:none;fill-rule:nonzero;fill:rgb(30%,30%,30%);fill-opacity:1;" d="M 7.453125 10.527344 C 8.039062 10.308594 8.382812 9.699219 8.261719 9.089844 C 8.144531 8.480469 7.597656 8.042969 6.972656 8.050781 C 6.34375 8.0625 5.8125 8.519531 5.714844 9.132812 C 5.617188 9.746094 5.980469 10.34375 6.574219 10.542969 L 6.574219 11 L 7.453125 11 Z M 6.300781 9.332031 C 6.300781 8.953125 6.609375 8.648438 6.992188 8.648438 C 7.375 8.648438 7.683594 8.953125 7.683594 9.332031 C 7.683594 9.710938 7.375 10.015625 6.992188 10.015625 C 6.609375 10.015625 6.300781 9.710938 6.300781 9.332031 Z M 6.300781 9.332031 "/>
<path style=" stroke:none;fill-rule:nonzero;fill:rgb(30%,30%,30%);fill-opacity:1;" d="M 5.796875 5.515625 C 5.417969 5.515625 5.210938 5.464844 5.097656 5.4375 C 5.078125 5.433594 5.050781 5.425781 5.042969 5.425781 L 5.074219 5.113281 C 5.109375 5.117188 5.140625 5.121094 5.171875 5.132812 C 5.375 5.179688 5.921875 5.3125 7.453125 4.988281 L 7.515625 5.296875 C 6.71875 5.464844 6.171875 5.515625 5.796875 5.515625 Z M 5.796875 5.515625 "/>
</g>
</svg>
