<?xml version="1.0" encoding="UTF-8"?>
<svg xmlns="http://www.w3.org/2000/svg" xmlns:xlink="http://www.w3.org/1999/xlink" width="9px" height="10px" viewBox="0 0 9 10" version="1.1">
<g id="surface1">
<path style=" stroke:none;fill-rule:nonzero;fill:rgb(30%,30%,30%);fill-opacity:1;" d="M 5.742188 1.097656 C 5.742188 0.492188 5.195312 0 4.515625 0 C 3.839844 0 3.289062 0.492188 3.289062 1.097656 C 3.289062 1.433594 3.449219 1.953125 3.707031 2.355469 L 5.292969 2.355469 C 5.566406 1.953125 5.742188 1.433594 5.742188 1.097656 Z M 5.742188 1.097656 "/>
<path style=" stroke:none;fill-rule:nonzero;fill:rgb(30%,30%,30%);fill-opacity:1;" d="M 5.46875 3.921875 L 3.703125 3.921875 C 3.429688 4.878906 2.554688 6.191406 2.554688 7.148438 C 2.554688 8.386719 3.339844 9.644531 4.09375 9.996094 L 5.042969 9.996094 C 5.800781 9.644531 6.566406 8.386719 6.566406 7.148438 C 6.566406 6.171875 5.773438 4.84375 5.46875 3.921875 Z M 5.46875 3.921875 "/>
<path style=" stroke:none;fill-rule:nonzero;fill:rgb(30%,30%,30%);fill-opacity:1;" d="M 5.203125 3.359375 C 5.1875 3.257812 5.175781 3.160156 5.175781 3.058594 C 5.175781 3.007812 5.179688 2.957031 5.183594 2.90625 L 3.792969 2.90625 C 3.800781 2.964844 3.804688 3.023438 3.804688 3.082031 C 3.800781 3.175781 3.796875 3.265625 3.785156 3.359375 Z M 5.203125 3.359375 "/>
<path style=" stroke:none;fill-rule:nonzero;fill:rgb(30%,30%,30%);fill-opacity:1;" d="M 8.238281 2.195312 C 8.238281 1.640625 7.6875 1.191406 7.011719 1.191406 C 6.332031 1.191406 5.785156 1.640625 5.785156 2.195312 C 5.785156 2.5 5.945312 2.976562 6.203125 3.339844 L 7.789062 3.339844 C 8.058594 2.976562 8.238281 2.5 8.238281 2.195312 Z M 8.238281 2.195312 "/>
<path style=" stroke:none;fill-rule:nonzero;fill:rgb(30%,30%,30%);fill-opacity:1;" d="M 7.695312 4.257812 C 7.679688 4.167969 7.671875 4.074219 7.671875 3.984375 C 7.671875 3.9375 7.671875 3.890625 7.675781 3.84375 L 6.285156 3.84375 C 6.292969 3.898438 6.296875 3.953125 6.296875 4.007812 C 6.296875 4.089844 6.289062 4.175781 6.277344 4.257812 Z M 7.695312 4.257812 "/>
<path style=" stroke:none;fill-rule:nonzero;fill:rgb(30%,30%,30%);fill-opacity:1;" d="M 3.25 2.195312 C 3.25 1.640625 2.703125 1.191406 2.023438 1.191406 C 1.347656 1.191406 0.796875 1.640625 0.796875 2.195312 C 0.796875 2.5 0.957031 2.976562 1.214844 3.339844 L 2.800781 3.339844 C 3.074219 2.976562 3.25 2.5 3.25 2.195312 Z M 3.25 2.195312 "/>
<path style=" stroke:none;fill-rule:nonzero;fill:rgb(30%,30%,30%);fill-opacity:1;" d="M 2.710938 4.257812 C 2.691406 4.167969 2.683594 4.074219 2.683594 3.984375 C 2.683594 3.9375 2.6875 3.890625 2.691406 3.84375 L 1.300781 3.84375 C 1.304688 3.898438 1.308594 3.953125 1.308594 4.007812 C 1.308594 4.089844 1.304688 4.175781 1.289062 4.257812 Z M 2.710938 4.257812 "/>
<path style=" stroke:none;fill-rule:nonzero;fill:rgb(30%,30%,30%);fill-opacity:1;" d="M 5.742188 1.097656 C 5.742188 0.492188 5.195312 0 4.515625 0 C 3.839844 0 3.289062 0.492188 3.289062 1.097656 C 3.289062 1.433594 3.449219 1.953125 3.707031 2.355469 L 5.292969 2.355469 C 5.566406 1.953125 5.742188 1.433594 5.742188 1.097656 Z M 5.742188 1.097656 "/>
<path style=" stroke:none;fill-rule:nonzero;fill:rgb(30%,30%,30%);fill-opacity:1;" d="M 7.902344 4.773438 L 6.132812 4.773438 C 6.132812 4.777344 6.132812 4.78125 6.128906 4.785156 C 6.136719 4.796875 6.140625 4.808594 6.144531 4.820312 C 6.480469 5.578125 6.855469 6.433594 6.855469 7.148438 C 6.855469 8.261719 6.234375 9.484375 5.558594 9.996094 C 5.867188 10.003906 7.726562 9.996094 7.726562 9.996094 C 8.484375 9.675781 9 8.84375 9 7.714844 C 9 6.824219 8.203125 5.613281 7.902344 4.773438 Z M 7.902344 4.773438 "/>
<path style=" stroke:none;fill-rule:nonzero;fill:rgb(30%,30%,30%);fill-opacity:1;" d="M 2.542969 8.863281 C 2.28125 8.378906 2.144531 7.785156 2.144531 7.148438 C 2.144531 6.492188 2.492188 5.738281 2.824219 5.007812 C 2.859375 4.9375 2.890625 4.867188 2.921875 4.796875 C 2.921875 4.789062 2.917969 4.78125 2.914062 4.773438 L 1.148438 4.773438 C 0.871094 5.644531 0 6.84375 0 7.714844 C 0 8.84375 0.539062 9.675781 1.292969 9.996094 C 1.292969 9.996094 3.1875 10.003906 3.476562 9.996094 C 3.199219 9.789062 2.722656 9.199219 2.542969 8.863281 Z M 2.542969 8.863281 "/>
<path style=" stroke:none;fill-rule:nonzero;fill:rgb(30%,30%,30%);fill-opacity:1;" d="M 5.203125 3.359375 C 5.1875 3.257812 5.175781 3.160156 5.175781 3.058594 C 5.175781 3.007812 5.179688 2.957031 5.183594 2.90625 L 3.792969 2.90625 C 3.800781 2.964844 3.804688 3.023438 3.804688 3.082031 C 3.800781 3.175781 3.796875 3.265625 3.785156 3.359375 Z M 5.203125 3.359375 "/>
</g>
</svg>
