<?xml version="1.0" encoding="UTF-8"?>
<svg xmlns="http://www.w3.org/2000/svg" xmlns:xlink="http://www.w3.org/1999/xlink" width="9px" height="11px" viewBox="0 0 9 11" version="1.1">
<g id="surface1">
<path style=" stroke:none;fill-rule:nonzero;fill:rgb(30%,30%,30%);fill-opacity:1;" d="M 8.652344 10.269531 L 5.554688 9.148438 L 8.746094 8.03125 C 8.945312 7.960938 9.046875 7.746094 8.976562 7.550781 C 8.90625 7.355469 8.691406 7.25 8.492188 7.320312 L 4.433594 8.742188 L 0.511719 7.320312 C 0.3125 7.25 0.09375 7.351562 0.0234375 7.546875 C -0.0507812 7.742188 0.0507812 7.957031 0.25 8.027344 L 3.308594 9.136719 L 0.277344 10.195312 C 0.0820312 10.265625 -0.0234375 10.480469 0.046875 10.675781 C 0.117188 10.871094 0.335938 10.972656 0.53125 10.90625 L 4.429688 9.542969 L 8.390625 10.976562 C 8.585938 11.046875 8.804688 10.945312 8.878906 10.753906 C 8.949219 10.558594 8.851562 10.339844 8.652344 10.269531 Z M 8.652344 10.269531 "/>
<path style=" stroke:none;fill-rule:nonzero;fill:rgb(30%,30%,30%);fill-opacity:1;" d="M 3.4375 7.703125 C 3.246094 7.890625 -0.863281 6.640625 1.824219 2.925781 C 1.824219 2.925781 2.359375 4.515625 3.167969 4.515625 C 3.4375 4.515625 1.691406 2.527344 5.046875 0.00390625 C 5.199219 -0.109375 4.601562 3.765625 6.121094 4.515625 C 6.660156 4.78125 6.121094 2.660156 6.121094 2.660156 C 6.121094 2.660156 8.273438 3.988281 7.734375 5.578125 C 7.195312 7.171875 5.585938 7.703125 5.585938 7.703125 C 5.585938 7.703125 6.007812 5.9375 5.585938 5.3125 C 5.046875 4.515625 4.375 4.121094 4.375 4.121094 C 4.375 4.121094 4.511719 5.578125 3.703125 5.84375 C 2.898438 6.109375 2.359375 5.046875 2.359375 5.046875 C 2.226562 5.976562 3.570312 7.570312 3.4375 7.703125 Z M 3.4375 7.703125 "/>
</g>
</svg>
