<?xml version="1.0" encoding="UTF-8"?>
<svg xmlns="http://www.w3.org/2000/svg" xmlns:xlink="http://www.w3.org/1999/xlink" width="10px" height="10px" viewBox="0 0 10 10" version="1.1">
<g id="surface1">
<path style=" stroke:none;fill-rule:nonzero;fill:rgb(30%,30%,30%);fill-opacity:1;" d="M 5.480469 9.644531 L 8.207031 3.921875 C 8.214844 3.910156 8.152344 3.886719 8.15625 3.875 C 8.058594 3.808594 7.960938 3.734375 7.859375 3.65625 L 5.242188 8.160156 C 5.234375 8.175781 5.222656 8.191406 5.210938 8.203125 C 5.128906 8.324219 4.992188 8.386719 4.851562 8.367188 C 4.710938 8.351562 4.59375 8.25 4.542969 8.113281 C 4.496094 7.972656 4.523438 7.816406 4.617188 7.707031 C 4.621094 7.699219 4.625 7.6875 4.632812 7.679688 L 7.675781 3.5 C 7.570312 3.40625 7.46875 3.308594 7.367188 3.203125 L 3.929688 7.1875 C 3.917969 7.203125 3.902344 7.214844 3.886719 7.226562 C 3.785156 7.328125 3.640625 7.363281 3.503906 7.316406 C 3.371094 7.269531 3.273438 7.152344 3.25 7.003906 C 3.226562 6.859375 3.28125 6.710938 3.390625 6.621094 C 3.398438 6.613281 3.40625 6.605469 3.414062 6.597656 L 7.199219 3.023438 C 7.148438 2.964844 7.101562 2.910156 7.050781 2.847656 C 6.996094 2.777344 6.941406 2.707031 6.886719 2.636719 L 2.960938 6.109375 C 2.949219 6.121094 2.933594 6.132812 2.917969 6.140625 C 2.804688 6.226562 2.652344 6.242188 2.527344 6.175781 C 2.398438 6.113281 2.316406 5.980469 2.3125 5.832031 C 2.308594 5.683594 2.378906 5.546875 2.503906 5.472656 C 2.511719 5.464844 2.519531 5.457031 2.527344 5.449219 L 6.742188 2.429688 C 6.671875 2.324219 6.605469 2.222656 6.542969 2.117188 L 2.089844 4.542969 C 2.074219 4.550781 2.058594 4.558594 2.039062 4.5625 C 1.910156 4.621094 1.761719 4.601562 1.652344 4.507812 C 1.539062 4.417969 1.488281 4.269531 1.515625 4.125 C 1.539062 3.976562 1.640625 3.859375 1.777344 3.816406 C 1.785156 3.808594 1.792969 3.804688 1.804688 3.800781 L 6.421875 1.894531 C 6.363281 1.785156 6.3125 1.679688 6.265625 1.570312 C 6.253906 1.570312 6.246094 1.5 6.230469 1.503906 L 0.460938 3.410156 C 0.386719 3.433594 0.320312 3.480469 0.269531 3.546875 C 0.164062 3.679688 -0.00390625 3.929688 0.00390625 4.132812 C 0.0117188 4.429688 0.460938 4.675781 0.527344 4.960938 C 0.664062 5.53125 0.117188 5.730469 0.347656 6.265625 C 0.582031 6.796875 0.820312 6.53125 1.050781 6.9375 C 1.28125 7.339844 0.84375 7.519531 1.214844 8.007812 C 1.589844 8.496094 1.996094 8.203125 2.351562 8.558594 C 2.628906 8.839844 2.523438 9.175781 2.957031 9.394531 C 3.257812 9.546875 3.566406 9.085938 4.066406 9.355469 C 4.539062 9.613281 4.402344 9.957031 4.714844 9.996094 C 4.921875 10.023438 5.171875 9.90625 5.316406 9.824219 C 5.386719 9.78125 5.445312 9.71875 5.480469 9.644531 Z M 5.480469 9.644531 "/>
<path style=" stroke:none;fill-rule:nonzero;fill:rgb(30%,30%,30%);fill-opacity:1;" d="M 8.398438 3.703125 L 8.863281 3.285156 C 8.402344 3.015625 8.152344 2.714844 7.734375 2.203125 C 7.359375 1.742188 7.152344 1.421875 6.964844 0.949219 L 6.464844 1.347656 C 6.648438 1.839844 6.863281 2.183594 7.253906 2.664062 C 7.648438 3.148438 7.960938 3.433594 8.398438 3.703125 Z M 8.398438 3.703125 "/>
<path style=" stroke:none;fill-rule:nonzero;fill:rgb(30%,30%,30%);fill-opacity:1;" d="M 9.644531 0.601562 C 9.085938 -0.0859375 8.273438 -0.339844 7.28125 0.6875 C 7.464844 1.105469 7.722656 1.523438 8.050781 1.929688 C 8.398438 2.355469 8.789062 2.703125 9.175781 2.964844 C 10.132812 2.183594 10.207031 1.285156 9.644531 0.601562 Z M 9.644531 0.601562 "/>
</g>
</svg>
