<?xml version="1.0" encoding="UTF-8" standalone="no"?>
<!-- Created with Inkscape (http://www.inkscape.org/) -->

<svg
   xmlns:dc="http://purl.org/dc/elements/1.1/"
   xmlns:cc="http://creativecommons.org/ns#"
   xmlns:rdf="http://www.w3.org/1999/02/22-rdf-syntax-ns#"
   xmlns:svg="http://www.w3.org/2000/svg"
   xmlns="http://www.w3.org/2000/svg"
   xmlns:xlink="http://www.w3.org/1999/xlink"
   xmlns:sodipodi="http://sodipodi.sourceforge.net/DTD/sodipodi-0.dtd"
   xmlns:inkscape="http://www.inkscape.org/namespaces/inkscape"
   width="30px"
   height="30px"
   version="1.1"
   id="svg8"
   inkscape:version="0.92.4 5da689c313, 2019-01-14"
   sodipodi:docname="container.svg">
  <defs
     id="defs2" />
  <sodipodi:namedview
     id="base"
     pagecolor="#ffffff"
     bordercolor="#666666"
     borderopacity="1.0"
     inkscape:pageopacity="0.0"
     inkscape:pageshadow="2"
     inkscape:zoom="13.049334"
     inkscape:cx="18.679046"
     inkscape:cy="12.165829"
     inkscape:document-units="px"
     inkscape:current-layer="layer1"
     showgrid="false"
     inkscape:snap-page="false"
     units="px"
     inkscape:window-width="1884"
     inkscape:window-height="1061"
     inkscape:window-x="0"
     inkscape:window-y="0"
     inkscape:window-maximized="1"
     fit-margin-top="0"
     fit-margin-left="0"
     fit-margin-right="0"
     fit-margin-bottom="0" />
  <metadata
     id="metadata5">
    <rdf:RDF>
      <cc:Work
         rdf:about="">
        <dc:format>image/svg+xml</dc:format>
        <dc:type
           rdf:resource="http://purl.org/dc/dcmitype/StillImage" />
        <dc:title></dc:title>
      </cc:Work>
    </rdf:RDF>
  </metadata>
    <circle
       style="color:#000000;clip-rule:nonzero;display:inline;overflow:visible;visibility:visible;opacity:1;isolation:auto;mix-blend-mode:normal;color-interpolation:sRGB;color-interpolation-filters:linearRGB;solid-color:#000000;solid-opacity:1;vector-effect:none;fill:#ffffff;fill-opacity:1;fill-rule:evenodd;stroke:#00A757;stroke-width:1;stroke-linecap:butt;stroke-linejoin:miter;stroke-miterlimit:4;stroke-dasharray:none;stroke-dashoffset:0;stroke-opacity:1;marker:none;color-rendering:auto;image-rendering:auto;shape-rendering:auto;text-rendering:auto;enable-background:accumulate"
       id="path815"
       cx="15"
       cy="15"
       r="14.5" />
<g transform="translate(11,7)"><g id="surface1">
<path style=" stroke:none;fill-rule:nonzero;fill:rgb(30%,30%,30%);fill-opacity:1;" d="M 3.144531 5.910156 C 3.144531 6.402344 2.726562 6.804688 2.214844 6.800781 C 1.703125 6.800781 1.289062 6.402344 1.289062 5.90625 C 1.289062 5.414062 1.703125 5.011719 2.214844 5.011719 C 2.726562 5.011719 3.144531 5.414062 3.144531 5.910156 "/>
<path style=" stroke:none;fill-rule:nonzero;fill:rgb(30%,30%,30%);fill-opacity:1;" d="M 5.429688 0 C 4.300781 0 3.921875 3.042969 3.871094 6.976562 L 0.949219 7 C 0.175781 7.132812 0.03125 7.800781 0.0078125 8.011719 C 0.00390625 8.027344 0 8.046875 0 8.066406 L 0 11.164062 C 0 11.367188 0.171875 11.53125 0.382812 11.53125 C 0.59375 11.53125 0.765625 11.367188 0.765625 11.164062 L 0.765625 8.265625 L 1.003906 8.265625 C 1.003906 8.273438 1.003906 8.28125 1.003906 8.292969 L 1.003906 15.457031 C 1.003906 15.757812 1.257812 16 1.566406 16 C 1.878906 16 2.128906 15.757812 2.132812 15.457031 L 2.132812 11.425781 C 2.171875 11.433594 2.214844 11.4375 2.257812 11.4375 L 2.359375 11.4375 L 2.359375 15.457031 C 2.363281 15.753906 2.613281 16 2.925781 16 C 3.234375 16 3.488281 15.753906 3.488281 15.457031 L 3.488281 7.847656 L 3.863281 7.847656 L 3.863281 8 C 3.863281 12.417969 4.5625 16 5.429688 16 C 6.296875 16 7 12.417969 7 8 C 7 3.582031 6.714844 0 5.429688 0 "/>
</g>
</g>
</svg>
