<?xml version="1.0" encoding="UTF-8" standalone="no"?>
<!-- Created with Inkscape (http://www.inkscape.org/) -->

<svg
   xmlns:dc="http://purl.org/dc/elements/1.1/"
   xmlns:cc="http://creativecommons.org/ns#"
   xmlns:rdf="http://www.w3.org/1999/02/22-rdf-syntax-ns#"
   xmlns:svg="http://www.w3.org/2000/svg"
   xmlns="http://www.w3.org/2000/svg"
   xmlns:xlink="http://www.w3.org/1999/xlink"
   xmlns:sodipodi="http://sodipodi.sourceforge.net/DTD/sodipodi-0.dtd"
   xmlns:inkscape="http://www.inkscape.org/namespaces/inkscape"
   width="30px"
   height="30px"
   version="1.1"
   id="svg8"
   inkscape:version="0.92.4 5da689c313, 2019-01-14"
   sodipodi:docname="container.svg">
  <defs
     id="defs2" />
  <sodipodi:namedview
     id="base"
     pagecolor="#ffffff"
     bordercolor="#666666"
     borderopacity="1.0"
     inkscape:pageopacity="0.0"
     inkscape:pageshadow="2"
     inkscape:zoom="13.049334"
     inkscape:cx="18.679046"
     inkscape:cy="12.165829"
     inkscape:document-units="px"
     inkscape:current-layer="layer1"
     showgrid="false"
     inkscape:snap-page="false"
     units="px"
     inkscape:window-width="1884"
     inkscape:window-height="1061"
     inkscape:window-x="0"
     inkscape:window-y="0"
     inkscape:window-maximized="1"
     fit-margin-top="0"
     fit-margin-left="0"
     fit-margin-right="0"
     fit-margin-bottom="0" />
  <metadata
     id="metadata5">
    <rdf:RDF>
      <cc:Work
         rdf:about="">
        <dc:format>image/svg+xml</dc:format>
        <dc:type
           rdf:resource="http://purl.org/dc/dcmitype/StillImage" />
        <dc:title></dc:title>
      </cc:Work>
    </rdf:RDF>
  </metadata>
    <circle
       style="color:#000000;clip-rule:nonzero;display:inline;overflow:visible;visibility:visible;opacity:1;isolation:auto;mix-blend-mode:normal;color-interpolation:sRGB;color-interpolation-filters:linearRGB;solid-color:#000000;solid-opacity:1;vector-effect:none;fill:#00A757;fill-opacity:1;fill-rule:evenodd;stroke:#ffffff;stroke-width:1;stroke-linecap:butt;stroke-linejoin:miter;stroke-miterlimit:4;stroke-dasharray:none;stroke-dashoffset:0;stroke-opacity:1;marker:none;color-rendering:auto;image-rendering:auto;shape-rendering:auto;text-rendering:auto;enable-background:accumulate"
       id="path815"
       cx="15"
       cy="15"
       r="14.5" />
<g transform="translate(7,7)"><g id="surface1">
<path style=" stroke:none;fill-rule:nonzero;fill:#FFFFFF;fill-opacity:1;" d="M 14.609375 13.609375 C 14.351562 13.597656 14.097656 13.382812 13.804688 13.128906 C 13.371094 12.757812 12.878906 12.335938 12.21875 12.433594 C 11.785156 12.496094 11.46875 12.789062 11.164062 13.066406 C 10.828125 13.378906 10.507812 13.671875 9.996094 13.652344 C 9.71875 13.644531 9.445312 13.429688 9.132812 13.179688 C 8.664062 12.816406 8.132812 12.398438 7.40625 12.476562 C 6.988281 12.519531 6.660156 12.792969 6.339844 13.054688 C 5.988281 13.34375 5.652344 13.617188 5.175781 13.617188 C 4.882812 13.617188 4.597656 13.390625 4.261719 13.132812 C 3.839844 12.800781 3.363281 12.429688 2.78125 12.476562 C 2.363281 12.515625 1.960938 12.808594 1.570312 13.09375 C 1.203125 13.363281 0.855469 13.617188 0.546875 13.617188 C 0.355469 13.617188 0.171875 13.5625 0.00390625 13.480469 L 0.0117188 14.863281 C 0.183594 14.925781 0.363281 14.960938 0.546875 14.964844 C 0.984375 14.964844 1.40625 14.65625 1.816406 14.355469 C 2.167969 14.097656 2.503906 13.851562 2.816406 13.824219 C 3.246094 13.789062 3.617188 14.078125 4.007812 14.382812 C 4.375 14.667969 4.753906 14.964844 5.175781 14.960938 C 5.792969 14.960938 6.226562 14.605469 6.609375 14.296875 C 6.898438 14.058594 7.148438 13.855469 7.449219 13.820312 C 8.023438 13.757812 8.457031 14.101562 8.875 14.429688 C 9.222656 14.703125 9.582031 14.984375 9.988281 15 C 10.011719 15 10.03125 15 10.050781 15 C 10.691406 15 11.101562 14.621094 11.464844 14.285156 C 11.734375 14.039062 11.96875 13.820312 12.273438 13.777344 C 12.761719 13.703125 13.136719 14.023438 13.53125 14.363281 C 13.859375 14.644531 14.199219 14.9375 14.59375 14.957031 C 14.621094 14.960938 14.648438 14.960938 14.671875 14.960938 C 15.203125 14.960938 15.683594 14.675781 16.003906 14.421875 L 16.003906 12.945312 C 15.824219 13.121094 15.253906 13.644531 14.609375 13.609375 Z M 5.171875 12.453125 C 5.652344 12.453125 5.984375 12.214844 6.335938 11.964844 C 6.65625 11.738281 6.988281 11.503906 7.402344 11.464844 C 8.132812 11.398438 8.660156 11.757812 9.128906 12.078125 C 9.445312 12.289062 9.714844 12.476562 9.996094 12.484375 C 10.507812 12.5 10.824219 12.25 11.164062 11.976562 C 11.464844 11.734375 11.78125 11.484375 12.214844 11.429688 C 12.222656 11.425781 12.230469 11.425781 12.238281 11.425781 C 12.253906 11.335938 12.257812 11.246094 12.257812 11.15625 L 12.257812 8.011719 C 12.257812 6.855469 11.222656 5.910156 9.949219 5.910156 L 5.179688 5.910156 C 3.910156 5.910156 2.871094 6.855469 2.871094 8.011719 L 2.871094 11.160156 C 2.871094 11.261719 2.878906 11.363281 2.894531 11.464844 C 3.425781 11.46875 3.867188 11.765625 4.261719 12.03125 C 4.59375 12.257812 4.882812 12.453125 5.171875 12.453125 Z M 7.515625 0 C 8.851562 0 9.9375 1.140625 9.9375 2.546875 C 9.9375 3.953125 8.851562 5.097656 7.515625 5.097656 C 6.175781 5.097656 5.089844 3.953125 5.089844 2.546875 C 5.089844 1.140625 6.175781 0 7.515625 0 Z M 7.515625 0 "/>
</g>
</g>
</svg>
