<?xml version="1.0" encoding="UTF-8"?>
<svg xmlns="http://www.w3.org/2000/svg" xmlns:xlink="http://www.w3.org/1999/xlink" width="10px" height="8px" viewBox="0 0 10 8" version="1.1">
<g id="surface1">
<path style=" stroke:none;fill-rule:nonzero;fill:rgb(30%,30%,30%);fill-opacity:1;" d="M 9.789062 3.410156 C 9.765625 3.339844 9.738281 3.273438 9.710938 3.207031 L 9.824219 3.144531 C 9.792969 3.070312 9.753906 3.003906 9.714844 2.9375 L 9.605469 3.015625 C 9.570312 2.957031 9.527344 2.898438 9.480469 2.84375 L 9.578125 2.75 C 9.527344 2.691406 9.472656 2.632812 9.417969 2.582031 L 9.335938 2.691406 C 9.285156 2.644531 9.230469 2.601562 9.171875 2.5625 L 9.238281 2.441406 C 9.175781 2.398438 9.113281 2.363281 9.046875 2.328125 L 8.992188 2.457031 C 8.929688 2.425781 8.867188 2.402344 8.800781 2.378906 L 8.839844 2.246094 C 8.769531 2.222656 8.695312 2.207031 8.625 2.195312 L 8.605469 2.332031 C 8.539062 2.320312 8.46875 2.316406 8.402344 2.316406 L 8.40625 2.175781 C 8.332031 2.171875 8.257812 2.175781 8.183594 2.1875 L 8.199219 2.328125 C 8.132812 2.335938 8.066406 2.351562 8 2.367188 L 7.96875 2.234375 C 7.933594 2.242188 7.898438 2.253906 7.867188 2.265625 L 7.863281 2.265625 C 7.828125 2.28125 7.792969 2.292969 7.761719 2.308594 L 7.808594 2.441406 C 7.773438 2.457031 7.738281 2.476562 7.703125 2.496094 L 7.210938 1.78125 C 7.464844 1.453125 8.445312 1.355469 8.410156 1.328125 C 8.085938 1.085938 7.28125 1.226562 7.28125 1.226562 L 6.960938 0.695312 L 6.414062 0.542969 L 6.355469 0.703125 C 6.355469 0.703125 6.015625 0.164062 5.910156 0.0703125 C 5.722656 -0.0976562 4.804688 0.0859375 4.804688 0.0859375 L 4.875 0.566406 L 5.601562 0.523438 L 5.933594 1.011719 L 5.726562 1.15625 C 4.621094 1.15625 3.992188 2.214844 3.992188 2.214844 C 3.992188 2.214844 3.761719 2.339844 3.328125 2.460938 C 2.890625 2.582031 0.0234375 2.878906 0.0234375 2.878906 C 0.0234375 2.878906 -0.0546875 3.035156 0.09375 3.222656 C 0.242188 3.410156 0.824219 3.414062 1.480469 3.511719 C 2.292969 3.628906 2.191406 3.871094 2.597656 4.003906 C 3.007812 4.136719 3.464844 4.003906 3.464844 4.003906 L 3.636719 4.4375 L 2.980469 4.941406 C 2.953125 4.917969 2.921875 4.894531 2.890625 4.875 L 2.957031 4.753906 C 2.894531 4.714844 2.832031 4.675781 2.765625 4.640625 L 2.710938 4.769531 C 2.648438 4.742188 2.585938 4.714844 2.519531 4.695312 L 2.558594 4.558594 C 2.488281 4.535156 2.414062 4.519531 2.34375 4.507812 L 2.324219 4.644531 C 2.257812 4.632812 2.1875 4.628906 2.121094 4.628906 L 2.125 4.488281 C 2.050781 4.484375 1.976562 4.492188 1.902344 4.5 L 1.917969 4.640625 C 1.851562 4.648438 1.785156 4.664062 1.71875 4.683594 L 1.6875 4.546875 C 1.652344 4.554688 1.617188 4.566406 1.585938 4.578125 L 1.582031 4.582031 C 1.546875 4.59375 1.511719 4.609375 1.480469 4.621094 L 1.527344 4.753906 C 1.464844 4.78125 1.40625 4.8125 1.347656 4.851562 L 1.28125 4.730469 C 1.21875 4.769531 1.15625 4.816406 1.101562 4.867188 L 1.179688 4.976562 C 1.128906 5.023438 1.078125 5.070312 1.03125 5.125 L 0.9375 5.027344 C 0.886719 5.085938 0.839844 5.144531 0.796875 5.210938 L 0.902344 5.292969 C 0.859375 5.351562 0.824219 5.414062 0.792969 5.480469 L 0.679688 5.414062 C 0.644531 5.484375 0.613281 5.558594 0.589844 5.632812 L 0.710938 5.679688 C 0.6875 5.75 0.667969 5.820312 0.652344 5.890625 L 0.527344 5.863281 C 0.511719 5.941406 0.5 6.019531 0.492188 6.097656 L 0.621094 6.109375 C 0.617188 6.183594 0.613281 6.257812 0.617188 6.332031 L 0.488281 6.339844 C 0.492188 6.417969 0.503906 6.5 0.515625 6.578125 L 0.644531 6.550781 C 0.65625 6.621094 0.671875 6.691406 0.695312 6.761719 L 0.574219 6.808594 C 0.597656 6.882812 0.625 6.957031 0.65625 7.027344 L 0.773438 6.964844 C 0.804688 7.03125 0.839844 7.09375 0.875 7.15625 L 0.769531 7.234375 C 0.8125 7.300781 0.855469 7.363281 0.90625 7.425781 L 1 7.328125 C 1.046875 7.382812 1.097656 7.433594 1.148438 7.480469 L 1.066406 7.589844 C 1.121094 7.640625 1.179688 7.6875 1.242188 7.730469 L 1.3125 7.613281 C 1.367188 7.652344 1.429688 7.683594 1.488281 7.714844 L 1.4375 7.84375 C 1.503906 7.875 1.574219 7.90625 1.644531 7.925781 L 1.679688 7.792969 C 1.746094 7.8125 1.8125 7.828125 1.878906 7.839844 L 1.859375 7.980469 C 1.929688 7.992188 2.003906 8 2.078125 8 L 2.078125 7.859375 C 2.148438 7.859375 2.214844 7.855469 2.28125 7.847656 L 2.296875 7.988281 C 2.371094 7.976562 2.441406 7.960938 2.515625 7.941406 L 2.480469 7.804688 C 2.511719 7.796875 2.546875 7.785156 2.578125 7.773438 C 2.609375 7.761719 2.640625 7.75 2.671875 7.734375 L 2.722656 7.863281 C 2.789062 7.832031 2.855469 7.796875 2.917969 7.757812 L 2.855469 7.636719 C 2.914062 7.597656 2.96875 7.558594 3.019531 7.511719 L 3.101562 7.621094 C 3.160156 7.574219 3.214844 7.519531 3.265625 7.460938 L 3.171875 7.363281 C 3.21875 7.3125 3.261719 7.253906 3.300781 7.195312 L 3.40625 7.277344 C 3.449219 7.214844 3.488281 7.144531 3.523438 7.074219 L 3.410156 7.007812 C 3.441406 6.945312 3.46875 6.875 3.492188 6.808594 L 3.613281 6.855469 C 3.640625 6.78125 3.660156 6.703125 3.675781 6.625 L 3.550781 6.597656 C 3.566406 6.523438 3.574219 6.453125 3.582031 6.378906 L 3.710938 6.390625 C 3.714844 6.308594 3.71875 6.230469 3.714844 6.148438 L 3.585938 6.15625 C 3.582031 6.113281 3.578125 6.070312 3.574219 6.027344 L 5.144531 4.828125 L 6.054688 4.511719 C 6.054688 4.511719 6.164062 3.566406 6.199219 3.308594 C 6.238281 3.050781 6.613281 2.425781 6.613281 2.425781 L 6.679688 2.324219 L 7.082031 2.890625 C 7.082031 2.894531 7.078125 2.894531 7.078125 2.898438 L 7.101562 2.917969 L 7.164062 3.007812 C 7.132812 3.058594 7.101562 3.113281 7.074219 3.167969 L 6.960938 3.101562 C 6.925781 3.171875 6.894531 3.242188 6.871094 3.320312 L 6.992188 3.367188 C 6.96875 3.4375 6.949219 3.507812 6.933594 3.578125 L 6.808594 3.546875 C 6.792969 3.625 6.78125 3.707031 6.773438 3.785156 L 6.902344 3.796875 C 6.898438 3.871094 6.894531 3.945312 6.898438 4.019531 L 6.769531 4.027344 C 6.773438 4.105469 6.785156 4.183594 6.796875 4.261719 L 6.925781 4.238281 C 6.9375 4.308594 6.953125 4.378906 6.976562 4.449219 L 6.855469 4.496094 C 6.878906 4.570312 6.90625 4.644531 6.9375 4.714844 L 7.054688 4.652344 C 7.085938 4.71875 7.121094 4.78125 7.15625 4.84375 L 7.050781 4.921875 C 7.09375 4.988281 7.136719 5.050781 7.1875 5.109375 L 7.28125 5.015625 C 7.328125 5.070312 7.378906 5.121094 7.429688 5.167969 L 7.347656 5.277344 C 7.402344 5.328125 7.460938 5.375 7.523438 5.417969 L 7.59375 5.296875 C 7.648438 5.335938 7.710938 5.371094 7.769531 5.402344 L 7.71875 5.53125 C 7.785156 5.5625 7.855469 5.589844 7.925781 5.613281 L 7.960938 5.480469 C 8.027344 5.5 8.09375 5.515625 8.160156 5.527344 L 8.140625 5.667969 C 8.210938 5.679688 8.285156 5.6875 8.359375 5.6875 L 8.359375 5.546875 C 8.429688 5.546875 8.496094 5.542969 8.5625 5.535156 L 8.578125 5.675781 C 8.652344 5.664062 8.722656 5.648438 8.796875 5.628906 L 8.761719 5.492188 C 8.792969 5.484375 8.828125 5.472656 8.859375 5.460938 C 8.890625 5.449219 8.921875 5.4375 8.953125 5.421875 L 9.003906 5.550781 C 9.070312 5.519531 9.136719 5.484375 9.199219 5.445312 L 9.136719 5.324219 C 9.195312 5.285156 9.25 5.246094 9.300781 5.199219 L 9.382812 5.308594 C 9.441406 5.261719 9.496094 5.207031 9.546875 5.148438 L 9.453125 5.050781 C 9.5 4.996094 9.542969 4.941406 9.582031 4.882812 L 9.6875 4.964844 C 9.730469 4.898438 9.769531 4.832031 9.804688 4.761719 L 9.691406 4.695312 C 9.722656 4.628906 9.75 4.5625 9.773438 4.496094 L 9.894531 4.542969 C 9.921875 4.46875 9.941406 4.390625 9.957031 4.3125 L 9.832031 4.28125 C 9.847656 4.210938 9.855469 4.136719 9.863281 4.066406 L 9.992188 4.078125 C 9.996094 3.996094 10 3.917969 9.996094 3.835938 L 9.867188 3.84375 C 9.863281 3.769531 9.851562 3.699219 9.839844 3.625 L 9.96875 3.597656 C 9.953125 3.519531 9.933594 3.441406 9.910156 3.367188 L 9.910156 3.363281 Z M 2.410156 7.140625 C 1.949219 7.3125 1.449219 7.042969 1.292969 6.539062 C 1.136719 6.039062 1.382812 5.492188 1.84375 5.324219 C 2.304688 5.152344 2.804688 5.421875 2.960938 5.925781 C 3.117188 6.425781 2.871094 6.972656 2.410156 7.140625 Z M 8.691406 4.828125 C 8.230469 4.996094 7.730469 4.730469 7.574219 4.226562 C 7.417969 3.726562 7.664062 3.179688 8.125 3.011719 C 8.585938 2.839844 9.085938 3.109375 9.242188 3.613281 C 9.398438 4.113281 9.152344 4.65625 8.691406 4.828125 Z M 8.691406 4.828125 "/>
</g>
</svg>
