<?xml version="1.0" encoding="UTF-8"?>
<svg xmlns="http://www.w3.org/2000/svg" xmlns:xlink="http://www.w3.org/1999/xlink" width="10px" height="10px" viewBox="0 0 10 10" version="1.1">
<g id="surface1">
<path style=" stroke:none;fill-rule:nonzero;fill:rgb(30%,30%,30%);fill-opacity:1;" d="M 6.695312 5.636719 C 6.695312 5.574219 6.703125 1.726562 6.703125 1.726562 L 6.710938 1.726562 L 6.710938 0.109375 C 6.710938 0.078125 6.699219 0.046875 6.675781 0.0273438 C 6.652344 0.0078125 6.625 0 6.59375 0.00390625 L 2.214844 0.964844 C 2.167969 0.976562 2.132812 1.019531 2.132812 1.070312 L 2.132812 5.695312 C 2.132812 5.730469 2.117188 5.765625 2.085938 5.785156 C 2.054688 5.804688 2.019531 5.808594 1.988281 5.789062 C 1.773438 5.671875 1.539062 5.609375 1.300781 5.613281 C 0.582031 5.613281 0 6.132812 0 6.773438 C 0 7.414062 0.582031 7.933594 1.300781 7.933594 C 1.878906 7.933594 2.367188 7.59375 2.535156 7.128906 C 2.535156 7.128906 2.558594 7.066406 2.5625 7.050781 C 2.585938 6.960938 2.597656 6.867188 2.597656 6.773438 C 2.597656 6.675781 2.554688 2.785156 2.554688 2.785156 C 2.554688 2.699219 2.609375 2.625 2.6875 2.609375 L 6.140625 1.851562 C 6.167969 1.84375 6.199219 1.851562 6.222656 1.871094 C 6.246094 1.894531 6.257812 1.925781 6.257812 1.957031 L 6.257812 4.457031 C 6.257812 4.703125 6.21875 4.707031 6.027344 4.621094 C 5.835938 4.535156 5.625 4.476562 5.394531 4.476562 C 4.679688 4.476562 4.097656 4.996094 4.097656 5.636719 C 4.097656 6.277344 4.679688 6.796875 5.394531 6.796875 C 6.113281 6.796875 6.695312 6.277344 6.695312 5.636719 Z M 6.695312 5.636719 "/>
<path style=" stroke:none;fill-rule:nonzero;fill:rgb(30%,30%,30%);fill-opacity:1;" d="M 9.890625 5.382812 C 9.691406 4.925781 8.734375 4.167969 8.515625 3.980469 L 8.511719 3.722656 C 8.507812 3.707031 8.472656 3.457031 8.25 3.445312 L 8.234375 3.445312 C 8.039062 3.445312 7.96875 3.605469 7.96875 3.710938 L 7.96875 7.804688 C 7.96875 7.835938 7.953125 7.867188 7.925781 7.882812 C 7.898438 7.898438 7.867188 7.898438 7.839844 7.882812 C 7.632812 7.753906 7.375 7.675781 7.101562 7.675781 C 6.382812 7.675781 5.800781 8.195312 5.800781 8.835938 C 5.800781 9.476562 6.382812 9.996094 7.101562 9.996094 C 7.714844 9.996094 8.230469 9.613281 8.363281 9.101562 L 8.386719 8.988281 C 8.394531 8.9375 8.398438 8.886719 8.398438 8.835938 C 8.398438 8.789062 8.386719 4.949219 8.386719 4.949219 C 8.726562 5.042969 9.398438 5.476562 9.472656 6.195312 C 9.539062 6.820312 8.742188 7.660156 8.96875 7.558594 C 10.21875 7.007812 10.046875 5.742188 9.890625 5.382812 Z M 9.890625 5.382812 "/>
</g>
</svg>
