<?xml version="1.0" encoding="UTF-8" standalone="no"?>
<!-- Created with Inkscape (http://www.inkscape.org/) -->

<svg
   xmlns:dc="http://purl.org/dc/elements/1.1/"
   xmlns:cc="http://creativecommons.org/ns#"
   xmlns:rdf="http://www.w3.org/1999/02/22-rdf-syntax-ns#"
   xmlns:svg="http://www.w3.org/2000/svg"
   xmlns="http://www.w3.org/2000/svg"
   xmlns:xlink="http://www.w3.org/1999/xlink"
   xmlns:sodipodi="http://sodipodi.sourceforge.net/DTD/sodipodi-0.dtd"
   xmlns:inkscape="http://www.inkscape.org/namespaces/inkscape"
   width="30px"
   height="30px"
   version="1.1"
   id="svg8"
   inkscape:version="0.92.4 5da689c313, 2019-01-14"
   sodipodi:docname="container.svg">
  <defs
     id="defs2" />
  <sodipodi:namedview
     id="base"
     pagecolor="#ffffff"
     bordercolor="#666666"
     borderopacity="1.0"
     inkscape:pageopacity="0.0"
     inkscape:pageshadow="2"
     inkscape:zoom="13.049334"
     inkscape:cx="18.679046"
     inkscape:cy="12.165829"
     inkscape:document-units="px"
     inkscape:current-layer="layer1"
     showgrid="false"
     inkscape:snap-page="false"
     units="px"
     inkscape:window-width="1884"
     inkscape:window-height="1061"
     inkscape:window-x="0"
     inkscape:window-y="0"
     inkscape:window-maximized="1"
     fit-margin-top="0"
     fit-margin-left="0"
     fit-margin-right="0"
     fit-margin-bottom="0" />
  <metadata
     id="metadata5">
    <rdf:RDF>
      <cc:Work
         rdf:about="">
        <dc:format>image/svg+xml</dc:format>
        <dc:type
           rdf:resource="http://purl.org/dc/dcmitype/StillImage" />
        <dc:title></dc:title>
      </cc:Work>
    </rdf:RDF>
  </metadata>
    <circle
       style="color:#000000;clip-rule:nonzero;display:inline;overflow:visible;visibility:visible;opacity:1;isolation:auto;mix-blend-mode:normal;color-interpolation:sRGB;color-interpolation-filters:linearRGB;solid-color:#000000;solid-opacity:1;vector-effect:none;fill:#ffffff;fill-opacity:1;fill-rule:evenodd;stroke:#00a19a;stroke-width:1;stroke-linecap:butt;stroke-linejoin:miter;stroke-miterlimit:4;stroke-dasharray:none;stroke-dashoffset:0;stroke-opacity:1;marker:none;color-rendering:auto;image-rendering:auto;shape-rendering:auto;text-rendering:auto;enable-background:accumulate"
       id="path815"
       cx="15"
       cy="15"
       r="14.5" />
<g transform="translate(6,7)"><g id="surface1">
<path style=" stroke:none;fill-rule:nonzero;fill:rgb(30%,30%,30%);fill-opacity:1;" d="M 9.765625 3.152344 C 9.765625 3.839844 9.214844 4.398438 8.539062 4.398438 C 7.863281 4.398438 7.3125 3.839844 7.3125 3.152344 C 7.3125 2.46875 7.863281 1.910156 8.539062 1.910156 C 9.214844 1.910156 9.765625 2.46875 9.765625 3.152344 Z M 8.5625 6.921875 C 7.886719 6.921875 7.335938 7.480469 7.335938 8.167969 C 7.335938 8.851562 7.886719 9.410156 8.5625 9.410156 C 9.238281 9.410156 9.789062 8.851562 9.789062 8.167969 C 9.789062 7.480469 9.238281 6.921875 8.5625 6.921875 Z M 5.847656 6.9375 C 5.171875 6.9375 4.621094 7.496094 4.621094 8.183594 C 4.621094 8.867188 5.171875 9.425781 5.847656 9.425781 C 6.523438 9.425781 7.074219 8.867188 7.074219 8.183594 C 7.074219 7.496094 6.523438 6.9375 5.847656 6.9375 Z M 11.285156 6.921875 C 10.605469 6.921875 10.058594 7.480469 10.058594 8.167969 C 10.058594 8.851562 10.605469 9.410156 11.285156 9.410156 C 11.960938 9.410156 12.507812 8.851562 12.507812 8.167969 C 12.507812 7.480469 11.960938 6.921875 11.285156 6.921875 Z M 9.9375 9.5625 C 9.261719 9.5625 8.714844 10.117188 8.714844 10.804688 C 8.714844 11.492188 9.261719 12.046875 9.9375 12.046875 C 10.617188 12.046875 11.164062 11.492188 11.164062 10.804688 C 11.164062 10.117188 10.617188 9.5625 9.9375 9.5625 Z M 7.273438 9.5625 C 6.597656 9.5625 6.050781 10.117188 6.050781 10.804688 C 6.050781 11.492188 6.597656 12.046875 7.273438 12.046875 C 7.953125 12.046875 8.5 11.492188 8.5 10.804688 C 8.5 10.117188 7.953125 9.5625 7.273438 9.5625 Z M 4.480469 9.546875 C 3.800781 9.546875 3.253906 10.101562 3.253906 10.789062 C 3.253906 11.476562 3.800781 12.03125 4.480469 12.03125 C 5.15625 12.03125 5.703125 11.476562 5.703125 10.789062 C 5.703125 10.101562 5.15625 9.546875 4.480469 9.546875 Z M 12.554688 9.609375 C 11.878906 9.609375 11.332031 10.164062 11.332031 10.851562 C 11.332031 11.539062 11.878906 12.09375 12.554688 12.09375 C 13.234375 12.09375 13.78125 11.539062 13.78125 10.851562 C 13.78125 10.164062 13.234375 9.609375 12.554688 9.609375 Z M 11.164062 12.222656 C 10.484375 12.222656 9.9375 12.777344 9.9375 13.464844 C 9.9375 14.152344 10.484375 14.707031 11.164062 14.707031 C 11.839844 14.707031 12.386719 14.152344 12.386719 13.464844 C 12.386719 12.777344 11.839844 12.222656 11.164062 12.222656 Z M 8.554688 12.222656 C 7.878906 12.222656 7.332031 12.777344 7.332031 13.464844 C 7.332031 14.152344 7.878906 14.707031 8.554688 14.707031 C 9.234375 14.707031 9.78125 14.152344 9.78125 13.464844 C 9.78125 12.777344 9.234375 12.222656 8.554688 12.222656 Z M 5.933594 12.238281 C 5.257812 12.238281 4.707031 12.792969 4.707031 13.480469 C 4.707031 14.167969 5.257812 14.722656 5.933594 14.722656 C 6.609375 14.722656 7.15625 14.167969 7.15625 13.480469 C 7.15625 12.792969 6.609375 12.238281 5.933594 12.238281 Z M 3.195312 12.222656 C 2.515625 12.222656 1.96875 12.777344 1.96875 13.464844 C 1.96875 14.152344 2.515625 14.707031 3.195312 14.707031 C 3.871094 14.707031 4.417969 14.152344 4.417969 13.464844 C 4.417969 12.777344 3.871094 12.222656 3.195312 12.222656 Z M 13.824219 12.222656 C 13.148438 12.222656 12.601562 12.777344 12.601562 13.464844 C 12.601562 14.152344 13.148438 14.707031 13.824219 14.707031 C 14.503906 14.707031 15.050781 14.152344 15.050781 13.464844 C 15.050781 12.777344 14.503906 12.222656 13.824219 12.222656 Z M 9.894531 4.449219 C 9.21875 4.449219 8.667969 5.003906 8.667969 5.691406 C 8.667969 6.378906 9.21875 6.933594 9.894531 6.933594 C 10.570312 6.933594 11.117188 6.378906 11.117188 5.691406 C 11.117188 5.003906 10.570312 4.449219 9.894531 4.449219 Z M 7.332031 4.441406 C 6.652344 4.441406 6.105469 4.996094 6.105469 5.683594 C 6.105469 6.371094 6.652344 6.925781 7.332031 6.925781 C 8.007812 6.925781 8.554688 6.371094 8.554688 5.683594 C 8.554688 4.996094 8.007812 4.441406 7.332031 4.441406 Z M 7.332031 4.441406 "/>
<path style=" stroke:none;fill-rule:nonzero;fill:rgb(30%,30%,30%);fill-opacity:1;" d="M 8.539062 0.910156 C 8.929688 0.90625 9.292969 1.125 9.480469 1.472656 L 15.964844 13.507812 C 16.351562 14.222656 15.835938 15.089844 15.023438 15.089844 C 15.023438 15.089844 15.019531 15.089844 15.019531 15.089844 L 1.96875 15.011719 C 1.15625 15.007812 0.644531 14.132812 1.039062 13.421875 L 7.601562 1.464844 C 7.789062 1.121094 8.148438 0.90625 8.539062 0.910156 M 8.539062 0 C 8.199219 0 7.867188 0.0859375 7.570312 0.253906 C 7.253906 0.433594 6.992188 0.699219 6.816406 1.023438 L 0.253906 12.976562 C -0.0859375 13.585938 -0.078125 14.332031 0.273438 14.933594 C 0.621094 15.546875 1.265625 15.921875 1.964844 15.921875 L 15.011719 16 L 15.023438 16 C 15.722656 16.003906 16.367188 15.632812 16.71875 15.023438 C 17.074219 14.425781 17.085938 13.679688 16.753906 13.070312 L 10.269531 1.035156 C 9.921875 0.394531 9.257812 0 8.539062 0 "/>
</g>
</g>
</svg>
