<?xml version="1.0" encoding="UTF-8"?>
<svg xmlns="http://www.w3.org/2000/svg" xmlns:xlink="http://www.w3.org/1999/xlink" width="10px" height="10px" viewBox="0 0 10 10" version="1.1">
<g id="surface1">
<path style=" stroke:none;fill-rule:nonzero;fill:rgb(30%,30%,30%);fill-opacity:1;" d="M 8.191406 1.214844 L 3.90625 2.273438 L 3.921875 0.121094 Z M 10 8.101562 C 10 9.148438 7.761719 9.996094 5 9.996094 C 2.238281 9.996094 0 9.148438 0 8.101562 C 0 7.355469 1.140625 6.710938 2.796875 6.402344 L 2.789062 8.613281 C 2.785156 8.742188 2.910156 8.847656 3.0625 8.847656 C 3.0625 8.847656 3.085938 8.835938 3.085938 8.847656 C 3.085938 8.855469 3.078125 8.46875 3.085938 8.46875 L 3.019531 0.238281 C 3.019531 0.109375 3.144531 0.00390625 3.296875 0.00390625 C 3.449219 0.00390625 3.574219 0.109375 3.574219 0.238281 L 3.621094 6.285156 C 4.078125 6.234375 4.539062 6.210938 5 6.210938 C 7.761719 6.210938 10 7.058594 10 8.101562 Z M 5.402344 8.140625 C 5.199219 8.140625 5.035156 8.296875 5.035156 8.492188 C 5.035156 8.683594 5.199219 8.839844 5.402344 8.839844 C 5.605469 8.839844 5.773438 8.683594 5.773438 8.492188 C 5.773438 8.296875 5.605469 8.140625 5.402344 8.140625 Z M 5.402344 8.140625 "/>
</g>
</svg>
