<?xml version="1.0" encoding="UTF-8"?>
<svg xmlns="http://www.w3.org/2000/svg" xmlns:xlink="http://www.w3.org/1999/xlink" width="11px" height="8px" viewBox="0 0 11 8" version="1.1">
<g id="surface1">
<path style=" stroke:none;fill-rule:nonzero;fill:rgb(30%,30%,30%);fill-opacity:1;" d="M 0 0 L 1.738281 0 L 2.316406 1.09375 L 1.738281 1.691406 Z M 0 0 "/>
<path style=" stroke:none;fill-rule:nonzero;fill:rgb(30%,30%,30%);fill-opacity:1;" d="M 5.199219 3.046875 C 4.953125 2.976562 4.699219 3.128906 4.632812 3.378906 L 4.578125 3.59375 C 4.511719 3.847656 4.65625 4.109375 4.902344 4.175781 L 6.785156 4.683594 L 7.046875 3.542969 Z M 5.199219 3.046875 "/>
<path style=" stroke:none;fill-rule:nonzero;fill:rgb(30%,30%,30%);fill-opacity:1;" d="M 7.097656 4.753906 L 7.359375 4.824219 C 7.660156 4.90625 7.972656 4.71875 8.050781 4.40625 C 8.128906 4.09375 7.949219 3.773438 7.644531 3.691406 L 7.359375 3.613281 Z M 7.097656 4.753906 "/>
<path style=" stroke:none;fill-rule:nonzero;fill:rgb(30%,30%,30%);fill-opacity:1;" d="M 9.769531 5.5625 L 9.464844 5.402344 C 9.546875 5.023438 9.363281 4.636719 9.023438 4.46875 C 8.679688 4.304688 8.273438 4.40625 8.042969 4.71875 C 7.8125 5.027344 7.824219 5.460938 8.070312 5.757812 C 8.3125 6.054688 8.726562 6.132812 9.058594 5.949219 L 9.203125 6.242188 Z M 9.769531 5.5625 "/>
<path style=" stroke:none;fill-rule:nonzero;fill:rgb(30%,30%,30%);fill-opacity:1;" d="M 10.621094 7.21875 L 8.9375 7.21875 C 8.921875 7.195312 8.90625 7.171875 8.890625 7.152344 L 7.425781 5.492188 C 7.363281 5.425781 7.082031 5.191406 6.972656 5.160156 L 4.597656 4.5 L 3.023438 1.6875 C 2.863281 1.40625 2.519531 1.3125 2.246094 1.472656 L 2.191406 1.503906 C 1.917969 1.667969 1.828125 2.023438 1.980469 2.304688 L 3.589844 5.175781 C 3.625 5.242188 3.761719 5.492188 3.800781 5.5625 C 3.917969 5.769531 4.355469 5.878906 4.355469 5.878906 L 7.214844 6.730469 C 7.394531 6.78125 8.253906 8 8.632812 8 L 10.621094 8 C 10.828125 8 11 7.824219 11 7.609375 C 11 7.394531 10.828125 7.21875 10.621094 7.21875 Z M 10.621094 7.21875 "/>
</g>
</svg>
