<?xml version="1.0" encoding="UTF-8"?>
<svg xmlns="http://www.w3.org/2000/svg" xmlns:xlink="http://www.w3.org/1999/xlink" width="5px" height="11px" viewBox="0 0 5 11" version="1.1">
<g id="surface1">
<path style=" stroke:none;fill-rule:nonzero;fill:rgb(30%,30%,30%);fill-opacity:1;" d="M 2.246094 4.0625 C 2.246094 4.402344 1.949219 4.675781 1.582031 4.675781 C 1.214844 4.675781 0.921875 4.402344 0.921875 4.0625 C 0.917969 3.722656 1.214844 3.445312 1.582031 3.445312 C 1.949219 3.445312 2.246094 3.722656 2.246094 4.0625 "/>
<path style=" stroke:none;fill-rule:nonzero;fill:rgb(30%,30%,30%);fill-opacity:1;" d="M 3.878906 0 C 3.074219 0 2.800781 2.089844 2.765625 4.796875 L 0.679688 4.8125 C 0.125 4.902344 0.0234375 5.363281 0.00390625 5.507812 C 0 5.519531 0 5.53125 0 5.546875 L 0 7.675781 C 0 7.816406 0.121094 7.929688 0.273438 7.929688 C 0.425781 7.929688 0.546875 7.816406 0.546875 7.675781 L 0.546875 5.683594 L 0.71875 5.683594 C 0.71875 5.6875 0.714844 5.695312 0.714844 5.699219 L 0.714844 10.625 C 0.714844 10.832031 0.898438 11 1.121094 11 C 1.339844 11 1.523438 10.832031 1.523438 10.625 L 1.523438 7.855469 C 1.550781 7.859375 1.582031 7.863281 1.613281 7.863281 L 1.6875 7.863281 L 1.6875 10.625 C 1.6875 10.832031 1.867188 11 2.089844 11 C 2.3125 11 2.492188 10.832031 2.492188 10.625 L 2.492188 5.394531 L 2.757812 5.394531 L 2.757812 5.5 C 2.757812 8.539062 3.261719 11 3.878906 11 C 4.5 11 5 8.539062 5 5.5 C 5 2.464844 4.796875 0 3.878906 0 "/>
</g>
</svg>
