<?xml version="1.0" encoding="UTF-8"?>
<svg xmlns="http://www.w3.org/2000/svg" xmlns:xlink="http://www.w3.org/1999/xlink" width="10px" height="10px" viewBox="0 0 10 10" version="1.1">
<g id="surface1">
<path style=" stroke:none;fill-rule:nonzero;fill:rgb(30%,30%,30%);fill-opacity:1;" d="M 5.742188 1.972656 C 5.742188 2.398438 5.421875 2.746094 5.023438 2.746094 C 4.625 2.746094 4.300781 2.398438 4.300781 1.972656 C 4.300781 1.542969 4.625 1.195312 5.023438 1.195312 C 5.421875 1.195312 5.742188 1.542969 5.742188 1.972656 Z M 5.035156 4.328125 C 4.636719 4.328125 4.316406 4.675781 4.316406 5.105469 C 4.316406 5.53125 4.636719 5.882812 5.035156 5.882812 C 5.433594 5.882812 5.757812 5.53125 5.757812 5.105469 C 5.757812 4.675781 5.433594 4.328125 5.035156 4.328125 Z M 3.441406 4.335938 C 3.042969 4.335938 2.71875 4.683594 2.71875 5.113281 C 2.71875 5.542969 3.042969 5.890625 3.441406 5.890625 C 3.839844 5.890625 4.160156 5.542969 4.160156 5.113281 C 4.160156 4.683594 3.839844 4.335938 3.441406 4.335938 Z M 6.636719 4.328125 C 6.238281 4.328125 5.917969 4.675781 5.917969 5.105469 C 5.917969 5.53125 6.238281 5.882812 6.636719 5.882812 C 7.035156 5.882812 7.359375 5.53125 7.359375 5.105469 C 7.359375 4.675781 7.035156 4.328125 6.636719 4.328125 Z M 5.847656 5.976562 C 5.449219 5.976562 5.125 6.324219 5.125 6.753906 C 5.125 7.183594 5.449219 7.53125 5.847656 7.53125 C 6.246094 7.53125 6.566406 7.183594 6.566406 6.753906 C 6.566406 6.324219 6.246094 5.976562 5.847656 5.976562 Z M 4.28125 5.976562 C 3.882812 5.976562 3.558594 6.324219 3.558594 6.753906 C 3.558594 7.183594 3.882812 7.53125 4.28125 7.53125 C 4.675781 7.53125 5 7.183594 5 6.753906 C 5 6.324219 4.675781 5.976562 4.28125 5.976562 Z M 2.636719 5.964844 C 2.238281 5.964844 1.914062 6.3125 1.914062 6.742188 C 1.914062 7.171875 2.238281 7.519531 2.636719 7.519531 C 3.03125 7.519531 3.355469 7.171875 3.355469 6.742188 C 3.355469 6.3125 3.03125 5.964844 2.636719 5.964844 Z M 7.386719 6.003906 C 6.988281 6.003906 6.664062 6.351562 6.664062 6.78125 C 6.664062 7.210938 6.988281 7.558594 7.386719 7.558594 C 7.785156 7.558594 8.105469 7.210938 8.105469 6.78125 C 8.105469 6.351562 7.785156 6.003906 7.386719 6.003906 Z M 6.566406 7.640625 C 6.167969 7.640625 5.84375 7.988281 5.84375 8.414062 C 5.84375 8.84375 6.167969 9.191406 6.566406 9.191406 C 6.964844 9.191406 7.285156 8.84375 7.285156 8.414062 C 7.285156 7.988281 6.964844 7.640625 6.566406 7.640625 Z M 5.03125 7.640625 C 4.636719 7.640625 4.3125 7.988281 4.3125 8.414062 C 4.3125 8.84375 4.636719 9.191406 5.03125 9.191406 C 5.429688 9.191406 5.753906 8.84375 5.753906 8.414062 C 5.753906 7.988281 5.429688 7.640625 5.03125 7.640625 Z M 3.488281 7.648438 C 3.089844 7.648438 2.769531 7.996094 2.769531 8.425781 C 2.769531 8.855469 3.089844 9.203125 3.488281 9.203125 C 3.886719 9.203125 4.210938 8.855469 4.210938 8.425781 C 4.210938 7.996094 3.886719 7.648438 3.488281 7.648438 Z M 1.878906 7.640625 C 1.480469 7.640625 1.160156 7.988281 1.160156 8.414062 C 1.160156 8.84375 1.480469 9.191406 1.878906 9.191406 C 2.277344 9.191406 2.601562 8.84375 2.601562 8.414062 C 2.601562 7.988281 2.277344 7.640625 1.878906 7.640625 Z M 8.132812 7.640625 C 7.734375 7.640625 7.410156 7.988281 7.410156 8.414062 C 7.410156 8.84375 7.734375 9.191406 8.132812 9.191406 C 8.53125 9.191406 8.855469 8.84375 8.855469 8.414062 C 8.855469 7.988281 8.53125 7.640625 8.132812 7.640625 Z M 5.820312 2.78125 C 5.421875 2.78125 5.097656 3.128906 5.097656 3.558594 C 5.097656 3.984375 5.421875 4.335938 5.820312 4.335938 C 6.21875 4.335938 6.539062 3.984375 6.539062 3.558594 C 6.539062 3.128906 6.21875 2.78125 5.820312 2.78125 Z M 4.3125 2.773438 C 3.914062 2.773438 3.589844 3.121094 3.589844 3.550781 C 3.589844 3.980469 3.914062 4.328125 4.3125 4.328125 C 4.710938 4.328125 5.03125 3.980469 5.03125 3.550781 C 5.03125 3.121094 4.710938 2.773438 4.3125 2.773438 Z M 4.3125 2.773438 "/>
<path style=" stroke:none;fill-rule:nonzero;fill:rgb(30%,30%,30%);fill-opacity:1;" d="M 5.023438 0.570312 C 5.253906 0.566406 5.46875 0.703125 5.578125 0.921875 L 9.390625 8.441406 C 9.617188 8.890625 9.316406 9.429688 8.839844 9.429688 C 8.835938 9.429688 8.835938 9.429688 8.835938 9.429688 L 1.160156 9.382812 C 0.679688 9.378906 0.378906 8.832031 0.609375 8.386719 L 4.472656 0.917969 C 4.582031 0.699219 4.792969 0.566406 5.023438 0.570312 M 5.023438 0 C 4.824219 0 4.628906 0.0546875 4.453125 0.160156 C 4.265625 0.273438 4.113281 0.4375 4.011719 0.640625 L 0.148438 8.113281 C -0.0507812 8.492188 -0.046875 8.957031 0.160156 9.332031 C 0.367188 9.714844 0.746094 9.953125 1.15625 9.949219 L 8.832031 10 L 8.839844 10 C 9.246094 10.003906 9.628906 9.769531 9.835938 9.390625 C 10.042969 9.015625 10.050781 8.550781 9.855469 8.167969 L 6.039062 0.648438 C 5.835938 0.246094 5.445312 0 5.023438 0 "/>
</g>
</svg>
