<?xml version="1.0" encoding="UTF-8"?>
<svg xmlns="http://www.w3.org/2000/svg" xmlns:xlink="http://www.w3.org/1999/xlink" width="11px" height="11px" viewBox="0 0 11 11" version="1.1">
<g id="surface1">
<path style=" stroke:none;fill-rule:nonzero;fill:rgb(30%,30%,30%);fill-opacity:1;" d="M 10.808594 7.089844 C 10.808594 7.9375 10.09375 8.628906 9.207031 8.628906 C 8.320312 8.628906 7.601562 7.9375 7.601562 7.089844 C 7.601562 6.238281 8.320312 5.550781 9.207031 5.550781 C 10.09375 5.550781 10.808594 6.238281 10.808594 7.089844 Z M 10.808594 7.089844 "/>
<path style=" stroke:none;fill-rule:nonzero;fill:rgb(30%,30%,30%);fill-opacity:1;" d="M 7.34375 6.863281 C 7.171875 6.921875 6.996094 6.96875 6.816406 7 C 5.972656 7.152344 5.207031 6.984375 4.660156 6.519531 C 4.109375 6.054688 3.839844 5.347656 3.890625 4.527344 C 3.945312 3.675781 4.339844 2.808594 5.003906 2.085938 C 5.667969 1.367188 6.511719 0.878906 7.386719 0.722656 C 7.582031 0.683594 7.78125 0.667969 7.976562 0.667969 C 8.585938 0.667969 9.128906 0.851562 9.546875 1.203125 C 10.09375 1.664062 10.367188 2.375 10.316406 3.195312 C 10.269531 3.921875 9.972656 4.660156 9.472656 5.308594 C 9.707031 5.339844 9.9375 5.417969 10.140625 5.53125 C 10.644531 4.820312 10.941406 4.023438 10.992188 3.234375 C 11.058594 2.207031 10.703125 1.3125 9.996094 0.714844 C 9.285156 0.113281 8.316406 -0.109375 7.261719 0.0820312 C 6.238281 0.265625 5.257812 0.828125 4.496094 1.65625 C 3.730469 2.484375 3.277344 3.492188 3.214844 4.488281 C 3.171875 5.132812 3.402344 5.902344 3.570312 6.226562 C 3.703125 6.480469 3.191406 7.035156 3.1875 7.042969 L 0.136719 10.171875 C -0.0546875 10.367188 -0.0429688 10.671875 0.160156 10.855469 C 0.363281 11.035156 0.679688 11.027344 0.871094 10.832031 L 3.96875 7.652344 C 3.96875 7.652344 4.46875 7.25 4.65625 7.316406 C 5.15625 7.488281 5.648438 7.707031 6.222656 7.707031 C 6.464844 7.707031 6.707031 7.683594 6.945312 7.640625 C 7.09375 7.613281 7.242188 7.578125 7.390625 7.535156 C 7.328125 7.316406 7.3125 7.085938 7.34375 6.863281 Z M 7.34375 6.863281 "/>
</g>
</svg>
