<?xml version="1.0" encoding="UTF-8"?>
<svg xmlns="http://www.w3.org/2000/svg" xmlns:xlink="http://www.w3.org/1999/xlink" width="8px" height="11px" viewBox="0 0 8 11" version="1.1">
<g id="surface1">
<path style=" stroke:none;fill-rule:nonzero;fill:rgb(30%,30%,30%);fill-opacity:1;" d="M 2.800781 7.023438 L 2.785156 7.023438 M 8 4.121094 L 8 4.183594 C 8 4.28125 7.917969 4.363281 7.820312 4.363281 L 7.398438 4.363281 L 7.371094 4.71875 C 7.199219 5.886719 6.492188 6.671875 5.460938 7.03125 L 6.636719 10.179688 C 6.6875 10.320312 6.617188 10.476562 6.472656 10.527344 C 6.328125 10.582031 6.171875 10.507812 6.117188 10.367188 L 4.929688 7.179688 C 4.707031 7.21875 4.480469 7.246094 4.253906 7.257812 L 4.269531 10.722656 C 4.269531 10.875 4.144531 10.996094 3.992188 10.996094 C 3.839844 10.996094 3.71875 10.878906 3.714844 10.726562 L 3.703125 7.25 C 3.472656 7.234375 3.242188 7.195312 3.019531 7.136719 L 1.835938 10.4375 C 1.785156 10.582031 1.628906 10.652344 1.484375 10.605469 C 1.339844 10.554688 1.265625 10.398438 1.316406 10.257812 L 2.5 6.953125 C 1.496094 6.511719 0.769531 5.613281 0.535156 4.363281 L 0.179688 4.363281 C 0.0820312 4.363281 0 4.28125 0 4.183594 L 0 4.121094 C 0 4.019531 0.0820312 3.941406 0.179688 3.941406 L 0.472656 3.941406 C 0.472656 3.933594 0.472656 3.925781 0.472656 3.917969 C 0.472656 3.175781 2.285156 2.777344 3.996094 2.777344 C 5.703125 2.777344 7.519531 3.179688 7.519531 3.917969 C 7.519531 3.925781 7.515625 3.933594 7.515625 3.941406 L 7.820312 3.941406 C 7.917969 3.941406 8 4.019531 8 4.121094 Z M 2.796875 6.773438 C 2.832031 6.773438 1.4375 6.292969 1.179688 4.972656 L 0.800781 4.757812 C 1.296875 6.5 2.472656 6.765625 2.796875 6.773438 Z M 7.242188 3.917969 C 7.242188 3.554688 6.007812 3.046875 3.992188 3.046875 C 1.980469 3.046875 0.746094 3.554688 0.746094 3.917969 C 0.746094 4.28125 1.980469 4.789062 3.992188 4.789062 C 6.007812 4.789062 7.242188 4.28125 7.242188 3.917969 Z M 1.402344 4.222656 L 1.933594 3.65625 C 1.984375 3.601562 1.980469 3.515625 1.921875 3.464844 C 1.867188 3.414062 1.78125 3.417969 1.730469 3.472656 L 1.199219 4.039062 C 1.148438 4.09375 1.152344 4.179688 1.207031 4.230469 C 1.265625 4.28125 1.351562 4.277344 1.402344 4.222656 Z M 6.554688 4.382812 L 6.984375 3.84375 C 7.03125 3.78125 7.019531 3.699219 6.960938 3.652344 C 6.902344 3.605469 6.816406 3.617188 6.765625 3.675781 L 6.339844 4.214844 C 6.292969 4.273438 6.300781 4.359375 6.363281 4.40625 C 6.421875 4.453125 6.507812 4.441406 6.554688 4.382812 Z M 5.53125 4.617188 L 6.316406 3.589844 C 6.359375 3.53125 6.347656 3.445312 6.289062 3.402344 C 6.226562 3.355469 6.140625 3.367188 6.09375 3.429688 L 5.308594 4.453125 C 5.265625 4.515625 5.277344 4.597656 5.335938 4.644531 C 5.398438 4.691406 5.484375 4.675781 5.53125 4.617188 Z M 2.085938 4.484375 L 2.992188 3.375 C 3.039062 3.316406 3.03125 3.230469 2.972656 3.183594 C 2.914062 3.136719 2.824219 3.144531 2.777344 3.203125 L 1.871094 4.316406 C 1.824219 4.375 1.832031 4.460938 1.894531 4.507812 C 1.953125 4.554688 2.039062 4.542969 2.085938 4.484375 Z M 4.554688 4.691406 L 5.546875 3.414062 C 5.59375 3.355469 5.582031 3.269531 5.519531 3.226562 C 5.460938 3.179688 5.375 3.191406 5.328125 3.25 L 4.335938 4.527344 C 4.289062 4.585938 4.300781 4.671875 4.359375 4.71875 C 4.421875 4.761719 4.507812 4.753906 4.554688 4.691406 Z M 2.875 4.597656 L 3.871094 3.367188 C 3.917969 3.308594 3.910156 3.222656 3.851562 3.175781 C 3.789062 3.128906 3.703125 3.140625 3.65625 3.199219 L 2.65625 4.429688 C 2.609375 4.488281 2.621094 4.574219 2.679688 4.621094 C 2.738281 4.667969 2.824219 4.65625 2.875 4.597656 M 3.679688 4.617188 L 4.679688 3.386719 C 4.726562 3.328125 4.714844 3.242188 4.65625 3.195312 C 4.597656 3.148438 4.511719 3.160156 4.464844 3.21875 L 3.464844 4.449219 C 3.417969 4.507812 3.429688 4.589844 3.488281 4.636719 C 3.546875 4.683594 3.632812 4.675781 3.679688 4.617188 Z M 4.183594 0.00390625 C 4.183594 0.00390625 4.65625 0.523438 4.132812 1.050781 C 3.496094 1.6875 4.253906 2.230469 4.253906 2.230469 C 4.253906 2.230469 4.085938 1.738281 4.511719 1.316406 C 4.90625 0.929688 4.953125 0.4375 4.183594 0.00390625 Z M 3.789062 1.074219 C 3.789062 1.074219 3.117188 1.402344 3.265625 1.882812 C 3.386719 2.273438 3.828125 2.277344 3.679688 2.675781 C 3.667969 2.710938 4.171875 2.460938 3.742188 1.90625 C 3.460938 1.546875 3.789062 1.074219 3.789062 1.074219 Z M 3.789062 1.074219 "/>
</g>
</svg>
