<?xml version="1.0" encoding="UTF-8"?>
<svg xmlns="http://www.w3.org/2000/svg" xmlns:xlink="http://www.w3.org/1999/xlink" width="8px" height="11px" viewBox="0 0 8 11" version="1.1">
<g id="surface1">
<path style=" stroke:none;fill-rule:nonzero;fill:rgb(30%,30%,30%);fill-opacity:1;" d="M 4.902344 9.554688 C 4.902344 10.027344 4.503906 10.410156 4.011719 10.410156 C 3.523438 10.410156 3.125 10.027344 3.125 9.554688 C 3.125 9.085938 3.523438 8.703125 4.011719 8.703125 C 4.503906 8.703125 4.902344 9.085938 4.902344 9.554688 Z M 7.902344 10.402344 L 7.558594 10.054688 L 5.257812 7.667969 L 5.257812 0.457031 C 5.253906 0.207031 5.042969 0.00390625 4.78125 0.00390625 L 4.753906 0.00390625 C 4.492188 0.00390625 4.28125 0.207031 4.28125 0.457031 L 4.28125 4.035156 L 3.835938 4.035156 L 3.835938 0.457031 C 3.835938 0.207031 3.625 0.00390625 3.363281 0.00390625 L 3.332031 0.00390625 C 3.070312 0.00390625 2.859375 0.207031 2.859375 0.457031 L 2.859375 7.683594 L 0.695312 9.847656 L 0.101562 10.417969 C -0.0351562 10.546875 -0.0351562 10.757812 0.101562 10.890625 L 0.113281 10.898438 C 0.25 11.03125 0.46875 11.03125 0.605469 10.898438 L 1.367188 10.167969 C 1.378906 10.15625 1.390625 10.144531 1.398438 10.132812 L 3.425781 8.210938 L 4.691406 8.210938 L 6.773438 10.253906 L 7.386719 10.875 C 7.519531 11.007812 7.742188 11.011719 7.882812 10.886719 L 7.890625 10.875 C 8.03125 10.746094 8.035156 10.535156 7.902344 10.402344 Z M 7.902344 10.402344 "/>
</g>
</svg>
