<?xml version="1.0" encoding="UTF-8" standalone="no"?>
<!-- Created with Inkscape (http://www.inkscape.org/) -->

<svg
   xmlns:dc="http://purl.org/dc/elements/1.1/"
   xmlns:cc="http://creativecommons.org/ns#"
   xmlns:rdf="http://www.w3.org/1999/02/22-rdf-syntax-ns#"
   xmlns:svg="http://www.w3.org/2000/svg"
   xmlns="http://www.w3.org/2000/svg"
   xmlns:xlink="http://www.w3.org/1999/xlink"
   xmlns:sodipodi="http://sodipodi.sourceforge.net/DTD/sodipodi-0.dtd"
   xmlns:inkscape="http://www.inkscape.org/namespaces/inkscape"
   width="30px"
   height="30px"
   version="1.1"
   id="svg8"
   inkscape:version="0.92.4 5da689c313, 2019-01-14"
   sodipodi:docname="container.svg">
  <defs
     id="defs2" />
  <sodipodi:namedview
     id="base"
     pagecolor="#ffffff"
     bordercolor="#666666"
     borderopacity="1.0"
     inkscape:pageopacity="0.0"
     inkscape:pageshadow="2"
     inkscape:zoom="13.049334"
     inkscape:cx="18.679046"
     inkscape:cy="12.165829"
     inkscape:document-units="px"
     inkscape:current-layer="layer1"
     showgrid="false"
     inkscape:snap-page="false"
     units="px"
     inkscape:window-width="1884"
     inkscape:window-height="1061"
     inkscape:window-x="0"
     inkscape:window-y="0"
     inkscape:window-maximized="1"
     fit-margin-top="0"
     fit-margin-left="0"
     fit-margin-right="0"
     fit-margin-bottom="0" />
  <metadata
     id="metadata5">
    <rdf:RDF>
      <cc:Work
         rdf:about="">
        <dc:format>image/svg+xml</dc:format>
        <dc:type
           rdf:resource="http://purl.org/dc/dcmitype/StillImage" />
        <dc:title></dc:title>
      </cc:Work>
    </rdf:RDF>
  </metadata>
    <circle
       style="color:#000000;clip-rule:nonzero;display:inline;overflow:visible;visibility:visible;opacity:1;isolation:auto;mix-blend-mode:normal;color-interpolation:sRGB;color-interpolation-filters:linearRGB;solid-color:#000000;solid-opacity:1;vector-effect:none;fill:#00a19a;fill-opacity:1;fill-rule:evenodd;stroke:#ffffff;stroke-width:1;stroke-linecap:butt;stroke-linejoin:miter;stroke-miterlimit:4;stroke-dasharray:none;stroke-dashoffset:0;stroke-opacity:1;marker:none;color-rendering:auto;image-rendering:auto;shape-rendering:auto;text-rendering:auto;enable-background:accumulate"
       id="path815"
       cx="15"
       cy="15"
       r="14.5" />
<g transform="translate(6,7)"><g id="surface1">
<path style=" stroke:none;fill-rule:nonzero;fill:#FFFFFF;fill-opacity:1;" d="M 11.382812 9.015625 C 11.382812 8.921875 11.394531 2.761719 11.394531 2.761719 L 11.410156 2.761719 L 11.410156 0.179688 C 11.410156 0.125 11.390625 0.078125 11.351562 0.0429688 C 11.3125 0.0117188 11.261719 0 11.210938 0.0078125 L 3.761719 1.546875 C 3.683594 1.5625 3.628906 1.632812 3.628906 1.714844 L 3.628906 9.109375 C 3.628906 9.171875 3.597656 9.226562 3.546875 9.257812 C 3.496094 9.289062 3.433594 9.289062 3.378906 9.261719 C 3.015625 9.074219 2.617188 8.976562 2.210938 8.980469 C 0.988281 8.980469 0 9.8125 0 10.835938 C 0 11.859375 0.988281 12.691406 2.210938 12.691406 C 3.191406 12.691406 4.023438 12.152344 4.3125 11.40625 C 4.3125 11.40625 4.347656 11.304688 4.355469 11.28125 C 4.398438 11.136719 4.417969 10.988281 4.417969 10.835938 C 4.417969 10.683594 4.34375 4.453125 4.34375 4.453125 C 4.34375 4.316406 4.4375 4.199219 4.566406 4.171875 L 10.4375 2.960938 C 10.488281 2.949219 10.539062 2.964844 10.578125 2.996094 C 10.617188 3.03125 10.640625 3.078125 10.640625 3.128906 L 10.640625 7.132812 C 10.636719 7.523438 10.574219 7.53125 10.246094 7.394531 C 9.925781 7.257812 9.5625 7.160156 9.171875 7.160156 C 7.953125 7.160156 6.964844 7.992188 6.964844 9.015625 C 6.964844 10.042969 7.953125 10.871094 9.171875 10.871094 C 10.394531 10.871094 11.382812 10.042969 11.382812 9.015625 Z M 11.382812 9.015625 "/>
<path style=" stroke:none;fill-rule:nonzero;fill:#FFFFFF;fill-opacity:1;" d="M 16.8125 8.613281 C 16.472656 7.882812 14.851562 6.671875 14.476562 6.367188 L 14.46875 5.953125 C 14.464844 5.929688 14.402344 5.527344 14.023438 5.515625 L 13.996094 5.515625 C 13.667969 5.515625 13.546875 5.769531 13.546875 5.9375 L 13.546875 12.484375 C 13.546875 12.539062 13.519531 12.585938 13.472656 12.613281 C 13.429688 12.640625 13.375 12.640625 13.332031 12.613281 C 12.972656 12.40625 12.539062 12.28125 12.070312 12.28125 C 10.851562 12.28125 9.859375 13.113281 9.859375 14.140625 C 9.859375 15.164062 10.851562 15.996094 12.070312 15.996094 C 13.117188 15.996094 13.992188 15.382812 14.222656 14.5625 L 14.261719 14.382812 C 14.273438 14.300781 14.28125 14.21875 14.28125 14.140625 C 14.28125 14.0625 14.261719 7.917969 14.261719 7.917969 C 14.835938 8.070312 15.976562 8.761719 16.105469 9.914062 C 16.21875 10.910156 14.863281 12.253906 15.25 12.09375 C 17.375 11.214844 17.082031 9.1875 16.8125 8.613281 Z M 16.8125 8.613281 "/>
</g>
</g>
</svg>
