<?xml version="1.0" encoding="UTF-8"?>
<svg xmlns="http://www.w3.org/2000/svg" xmlns:xlink="http://www.w3.org/1999/xlink" width="8px" height="10px" viewBox="0 0 8 10" version="1.1">
<g id="surface1">
<path style=" stroke:none;fill-rule:nonzero;fill:rgb(30%,30%,30%);fill-opacity:1;" d="M 3.957031 8.179688 C 3.960938 8.21875 3.933594 8.257812 3.890625 8.261719 L 3.785156 8.273438 C 3.742188 8.28125 3.710938 8.316406 3.714844 8.355469 L 3.765625 8.730469 C 3.773438 8.769531 3.742188 8.804688 3.699219 8.8125 L 3.46875 8.839844 C 3.425781 8.84375 3.394531 8.882812 3.398438 8.921875 L 3.449219 9.28125 C 3.453125 9.320312 3.421875 9.355469 3.378906 9.363281 L 2.9375 9.414062 C 2.894531 9.421875 2.863281 9.457031 2.871094 9.496094 L 2.917969 9.84375 C 2.921875 9.882812 2.890625 9.917969 2.847656 9.925781 L 2.21875 10 C 2.175781 10.003906 2.136719 9.976562 2.132812 9.933594 L 2.085938 9.589844 C 2.078125 9.550781 2.039062 9.523438 1.996094 9.527344 L 1.519531 9.582031 C 1.476562 9.589844 1.4375 9.558594 1.433594 9.519531 L 1.382812 9.160156 C 1.378906 9.121094 1.339844 9.09375 1.296875 9.097656 L 1.066406 9.125 C 1.023438 9.128906 0.984375 9.101562 0.976562 9.058594 L 0.925781 8.6875 C 0.921875 8.648438 0.882812 8.621094 0.839844 8.625 L 0.734375 8.636719 C 0.691406 8.640625 0.652344 8.613281 0.644531 8.574219 L 0.589844 8.167969 C 0.585938 8.125 0.617188 8.089844 0.660156 8.082031 L 1.785156 7.949219 C 1.828125 7.945312 1.855469 7.90625 1.851562 7.867188 L 1.355469 4.207031 C 1.351562 4.164062 1.3125 4.136719 1.269531 4.140625 L 0.144531 4.273438 C 0.101562 4.28125 0.0625 4.25 0.0546875 4.210938 L 0 3.804688 C -0.00390625 3.761719 0.0273438 3.726562 0.0703125 3.722656 L 0.175781 3.707031 C 0.21875 3.703125 0.246094 3.667969 0.242188 3.625 L 0.191406 3.253906 C 0.1875 3.214844 0.21875 3.175781 0.261719 3.171875 L 0.492188 3.144531 C 0.535156 3.140625 0.5625 3.101562 0.558594 3.0625 L 0.511719 2.703125 C 0.503906 2.664062 0.535156 2.625 0.578125 2.621094 L 1.054688 2.566406 C 1.097656 2.558594 1.128906 2.523438 1.125 2.480469 L 1.078125 2.136719 C 1.070312 2.097656 1.101562 2.058594 1.144531 2.054688 L 1.773438 1.980469 C 1.816406 1.976562 1.855469 2.003906 1.863281 2.042969 L 1.910156 2.390625 C 1.914062 2.429688 1.953125 2.457031 1.996094 2.453125 L 2.4375 2.398438 C 2.480469 2.394531 2.519531 2.425781 2.527344 2.464844 L 2.574219 2.824219 C 2.582031 2.863281 2.621094 2.890625 2.664062 2.886719 L 2.894531 2.859375 C 2.9375 2.855469 2.976562 2.882812 2.980469 2.921875 L 3.03125 3.296875 C 3.039062 3.335938 3.078125 3.363281 3.117188 3.359375 L 3.226562 3.347656 C 3.265625 3.339844 3.304688 3.371094 3.3125 3.410156 L 3.367188 3.816406 C 3.371094 3.859375 3.34375 3.894531 3.300781 3.898438 L 2.210938 4.03125 C 2.167969 4.035156 2.136719 4.070312 2.140625 4.113281 L 2.636719 7.773438 C 2.640625 7.816406 2.679688 7.84375 2.722656 7.839844 L 3.8125 7.707031 C 3.855469 7.703125 3.894531 7.734375 3.902344 7.773438 Z M 7.800781 2.445312 C 7.839844 2.453125 7.882812 2.429688 7.894531 2.390625 L 7.996094 1.992188 C 8.007812 1.953125 7.980469 1.914062 7.941406 1.902344 L 7.835938 1.878906 C 7.792969 1.871094 7.769531 1.832031 7.777344 1.789062 L 7.875 1.425781 C 7.882812 1.386719 7.859375 1.347656 7.816406 1.335938 L 7.589844 1.285156 C 7.546875 1.277344 7.519531 1.234375 7.53125 1.195312 L 7.621094 0.847656 C 7.632812 0.804688 7.605469 0.765625 7.566406 0.757812 L 7.132812 0.65625 C 7.089844 0.648438 7.0625 0.609375 7.074219 0.570312 L 7.160156 0.230469 C 7.171875 0.191406 7.144531 0.152344 7.101562 0.140625 L 6.488281 0.00390625 C 6.445312 -0.0078125 6.402344 0.015625 6.390625 0.0546875 L 6.304688 0.394531 C 6.292969 0.433594 6.253906 0.457031 6.210938 0.449219 L 5.742188 0.34375 C 5.699219 0.332031 5.65625 0.355469 5.648438 0.398438 L 5.558594 0.746094 C 5.546875 0.789062 5.503906 0.8125 5.460938 0.800781 L 5.234375 0.75 C 5.191406 0.742188 5.152344 0.765625 5.140625 0.804688 L 5.046875 1.167969 C 5.035156 1.210938 4.992188 1.234375 4.953125 1.222656 L 4.847656 1.199219 C 4.804688 1.191406 4.765625 1.214844 4.753906 1.253906 L 4.652344 1.652344 C 4.640625 1.691406 4.667969 1.734375 4.707031 1.742188 L 5.808594 1.992188 C 5.851562 2.003906 5.878906 2.042969 5.867188 2.082031 L 4.9375 5.667969 C 4.929688 5.710938 4.886719 5.734375 4.84375 5.722656 L 3.742188 5.472656 C 3.699219 5.464844 3.65625 5.488281 3.648438 5.527344 L 3.542969 5.925781 C 3.535156 5.964844 3.558594 6.003906 3.601562 6.015625 L 3.703125 6.039062 C 3.746094 6.046875 3.773438 6.089844 3.761719 6.128906 L 3.667969 6.492188 C 3.65625 6.53125 3.683594 6.570312 3.726562 6.582031 L 3.953125 6.632812 C 3.996094 6.644531 4.019531 6.683594 4.011719 6.722656 L 3.917969 7.074219 C 3.910156 7.113281 3.933594 7.152344 3.976562 7.160156 L 4.445312 7.269531 C 4.484375 7.277344 4.511719 7.316406 4.5 7.359375 L 4.414062 7.695312 C 4.402344 7.734375 4.429688 7.773438 4.472656 7.785156 L 5.089844 7.925781 C 5.128906 7.933594 5.171875 7.910156 5.183594 7.871094 L 5.269531 7.53125 C 5.28125 7.492188 5.324219 7.46875 5.363281 7.476562 L 5.796875 7.578125 C 5.839844 7.585938 5.882812 7.5625 5.894531 7.523438 L 5.984375 7.171875 C 5.996094 7.132812 6.035156 7.109375 6.078125 7.117188 L 6.304688 7.167969 C 6.347656 7.179688 6.390625 7.152344 6.398438 7.113281 L 6.496094 6.75 C 6.503906 6.710938 6.546875 6.6875 6.589844 6.695312 L 6.691406 6.71875 C 6.734375 6.726562 6.777344 6.703125 6.789062 6.664062 L 6.890625 6.265625 C 6.902344 6.226562 6.875 6.1875 6.832031 6.175781 L 5.765625 5.933594 C 5.722656 5.921875 5.695312 5.882812 5.707031 5.84375 L 6.636719 2.257812 C 6.648438 2.21875 6.6875 2.191406 6.730469 2.203125 Z M 7.800781 2.445312 "/>
</g>
</svg>
