<?xml version="1.0" encoding="UTF-8" standalone="no"?>
<!-- Created with Inkscape (http://www.inkscape.org/) -->

<svg
   xmlns:dc="http://purl.org/dc/elements/1.1/"
   xmlns:cc="http://creativecommons.org/ns#"
   xmlns:rdf="http://www.w3.org/1999/02/22-rdf-syntax-ns#"
   xmlns:svg="http://www.w3.org/2000/svg"
   xmlns="http://www.w3.org/2000/svg"
   xmlns:xlink="http://www.w3.org/1999/xlink"
   xmlns:sodipodi="http://sodipodi.sourceforge.net/DTD/sodipodi-0.dtd"
   xmlns:inkscape="http://www.inkscape.org/namespaces/inkscape"
   width="30px"
   height="30px"
   version="1.1"
   id="svg8"
   inkscape:version="0.92.4 5da689c313, 2019-01-14"
   sodipodi:docname="container.svg">
  <defs
     id="defs2" />
  <sodipodi:namedview
     id="base"
     pagecolor="#ffffff"
     bordercolor="#666666"
     borderopacity="1.0"
     inkscape:pageopacity="0.0"
     inkscape:pageshadow="2"
     inkscape:zoom="13.049334"
     inkscape:cx="18.679046"
     inkscape:cy="12.165829"
     inkscape:document-units="px"
     inkscape:current-layer="layer1"
     showgrid="false"
     inkscape:snap-page="false"
     units="px"
     inkscape:window-width="1884"
     inkscape:window-height="1061"
     inkscape:window-x="0"
     inkscape:window-y="0"
     inkscape:window-maximized="1"
     fit-margin-top="0"
     fit-margin-left="0"
     fit-margin-right="0"
     fit-margin-bottom="0" />
  <metadata
     id="metadata5">
    <rdf:RDF>
      <cc:Work
         rdf:about="">
        <dc:format>image/svg+xml</dc:format>
        <dc:type
           rdf:resource="http://purl.org/dc/dcmitype/StillImage" />
        <dc:title></dc:title>
      </cc:Work>
    </rdf:RDF>
  </metadata>
    <circle
       style="color:#000000;clip-rule:nonzero;display:inline;overflow:visible;visibility:visible;opacity:1;isolation:auto;mix-blend-mode:normal;color-interpolation:sRGB;color-interpolation-filters:linearRGB;solid-color:#000000;solid-opacity:1;vector-effect:none;fill:#00A757;fill-opacity:1;fill-rule:evenodd;stroke:#ffffff;stroke-width:1;stroke-linecap:butt;stroke-linejoin:miter;stroke-miterlimit:4;stroke-dasharray:none;stroke-dashoffset:0;stroke-opacity:1;marker:none;color-rendering:auto;image-rendering:auto;shape-rendering:auto;text-rendering:auto;enable-background:accumulate"
       id="path815"
       cx="15"
       cy="15"
       r="14.5" />
<g transform="translate(7,6)"><g id="surface1">
<path style=" stroke:none;fill-rule:nonzero;fill:#FFFFFF;fill-opacity:1;" d="M 10.839844 5.078125 C 10.695312 4.699219 10.273438 4.503906 9.886719 4.640625 L 8.542969 5.125 L 6.667969 3.492188 C 6.5 3.347656 6.277344 3.277344 6.054688 3.308594 C 6.050781 3.308594 6.050781 3.308594 6.046875 3.308594 C 5.867188 3.292969 5.6875 3.328125 5.527344 3.40625 L 2.882812 4.0625 C 2.628906 4.125 2.421875 4.308594 2.335938 4.554688 C 2.320312 4.597656 2.304688 4.636719 2.292969 4.679688 L 1.800781 6.554688 C 1.753906 6.742188 1.78125 6.945312 1.882812 7.113281 C 1.980469 7.28125 2.144531 7.402344 2.335938 7.449219 C 2.394531 7.464844 2.457031 7.472656 2.519531 7.472656 C 2.855469 7.472656 3.152344 7.246094 3.238281 6.921875 L 3.621094 5.460938 L 4.910156 5.140625 L 4.597656 8.609375 C 4.589844 8.695312 4.59375 8.78125 4.609375 8.863281 C 4.589844 8.902344 4.570312 8.945312 4.558594 8.984375 L 3.769531 11.332031 L 1.351562 11.980469 C 0.941406 12.089844 0.699219 12.511719 0.8125 12.921875 C 0.925781 13.332031 1.347656 13.570312 1.757812 13.460938 L 4.566406 12.707031 C 4.59375 12.699219 4.625 12.691406 4.652344 12.679688 C 4.652344 12.679688 4.65625 12.679688 4.65625 12.679688 C 4.664062 12.675781 4.675781 12.671875 4.683594 12.667969 C 4.6875 12.667969 4.691406 12.664062 4.691406 12.664062 C 4.699219 12.660156 4.707031 12.65625 4.714844 12.652344 C 4.722656 12.648438 4.730469 12.644531 4.738281 12.640625 C 4.742188 12.640625 4.746094 12.636719 4.75 12.636719 C 4.757812 12.632812 4.765625 12.628906 4.769531 12.625 C 4.773438 12.621094 4.777344 12.621094 4.78125 12.621094 C 4.785156 12.617188 4.792969 12.609375 4.796875 12.605469 C 4.800781 12.605469 4.804688 12.605469 4.804688 12.601562 C 4.816406 12.59375 4.828125 12.585938 4.839844 12.578125 C 4.84375 12.574219 4.847656 12.574219 4.847656 12.570312 C 4.855469 12.566406 4.859375 12.5625 4.863281 12.5625 C 4.867188 12.558594 4.871094 12.554688 4.878906 12.550781 C 4.878906 12.546875 4.882812 12.542969 4.886719 12.539062 C 4.894531 12.535156 4.898438 12.53125 4.90625 12.523438 C 4.90625 12.523438 4.910156 12.519531 4.914062 12.519531 C 4.972656 12.460938 5.027344 12.390625 5.066406 12.316406 C 5.066406 12.3125 5.066406 12.3125 5.066406 12.3125 C 5.070312 12.300781 5.074219 12.292969 5.078125 12.285156 C 5.082031 12.28125 5.082031 12.277344 5.085938 12.273438 C 5.085938 12.269531 5.089844 12.261719 5.09375 12.257812 C 5.09375 12.25 5.097656 12.246094 5.097656 12.238281 C 5.101562 12.234375 5.101562 12.230469 5.101562 12.230469 C 5.105469 12.222656 5.109375 12.214844 5.113281 12.203125 L 5.804688 10.140625 L 6.941406 11.015625 L 6.644531 13.792969 C 6.625 13.996094 6.683594 14.199219 6.816406 14.355469 C 6.945312 14.515625 7.132812 14.613281 7.335938 14.636719 C 7.363281 14.636719 7.390625 14.640625 7.417969 14.640625 C 7.8125 14.640625 8.144531 14.34375 8.1875 13.953125 L 8.527344 10.75 C 8.53125 10.746094 8.53125 10.738281 8.53125 10.734375 C 8.53125 10.730469 8.53125 10.726562 8.53125 10.71875 C 8.53125 10.710938 8.53125 10.703125 8.53125 10.691406 C 8.53125 10.691406 8.53125 10.6875 8.53125 10.683594 C 8.535156 10.675781 8.535156 10.664062 8.53125 10.652344 C 8.53125 10.652344 8.53125 10.648438 8.53125 10.648438 C 8.53125 10.636719 8.53125 10.625 8.53125 10.613281 C 8.527344 10.554688 8.515625 10.492188 8.496094 10.433594 C 8.496094 10.433594 8.496094 10.433594 8.496094 10.429688 C 8.492188 10.421875 8.488281 10.410156 8.484375 10.402344 C 8.484375 10.398438 8.480469 10.394531 8.480469 10.394531 C 8.476562 10.386719 8.472656 10.378906 8.46875 10.371094 C 8.46875 10.363281 8.464844 10.359375 8.464844 10.355469 C 8.460938 10.347656 8.457031 10.34375 8.457031 10.335938 C 8.453125 10.332031 8.449219 10.324219 8.445312 10.316406 C 8.445312 10.3125 8.441406 10.308594 8.441406 10.304688 C 8.4375 10.296875 8.429688 10.292969 8.425781 10.285156 C 8.425781 10.28125 8.421875 10.277344 8.421875 10.277344 C 8.417969 10.265625 8.410156 10.257812 8.40625 10.25 C 8.40625 10.25 8.402344 10.246094 8.402344 10.246094 C 8.398438 10.238281 8.390625 10.226562 8.382812 10.21875 C 8.382812 10.21875 8.382812 10.21875 8.382812 10.214844 C 8.375 10.207031 8.367188 10.199219 8.363281 10.191406 C 8.359375 10.1875 8.359375 10.1875 8.359375 10.1875 C 8.351562 10.179688 8.34375 10.171875 8.339844 10.164062 C 8.335938 10.160156 8.335938 10.160156 8.332031 10.15625 C 8.328125 10.148438 8.320312 10.144531 8.3125 10.136719 C 8.3125 10.132812 8.308594 10.128906 8.304688 10.128906 C 8.300781 10.121094 8.292969 10.117188 8.289062 10.113281 C 8.285156 10.109375 8.277344 10.101562 8.273438 10.097656 C 8.269531 10.09375 8.265625 10.089844 8.261719 10.085938 C 8.253906 10.082031 8.25 10.078125 8.242188 10.070312 C 8.238281 10.070312 8.238281 10.066406 8.234375 10.066406 L 6.523438 8.75 L 6.804688 5.660156 L 7.746094 6.480469 C 7.949219 6.707031 8.269531 6.785156 8.554688 6.683594 L 10.394531 6.019531 C 10.582031 5.953125 10.730469 5.816406 10.8125 5.640625 C 10.898438 5.464844 10.90625 5.261719 10.839844 5.078125 Z M 10.839844 5.078125 "/>
<path style=" stroke:none;fill-rule:nonzero;fill:#FFFFFF;fill-opacity:1;" d="M 7.746094 1.367188 C 7.746094 2.121094 7.128906 2.730469 6.367188 2.730469 C 5.601562 2.730469 4.984375 2.121094 4.984375 1.367188 C 4.984375 0.613281 5.601562 0.00390625 6.367188 0.00390625 C 7.128906 0.00390625 7.746094 0.613281 7.746094 1.367188 Z M 7.746094 1.367188 "/>
<path style=" stroke:none;fill-rule:nonzero;fill:#FFFFFF;fill-opacity:1;" d="M 15.972656 15.828125 C 15.964844 15.765625 15.953125 15.699219 15.933594 15.640625 L 13.582031 7.164062 C 13.5625 7.09375 13.53125 7.027344 13.492188 6.964844 L 14.335938 5.46875 C 14.402344 5.351562 14.417969 5.214844 14.382812 5.085938 C 14.34375 4.957031 14.257812 4.847656 14.140625 4.785156 C 13.894531 4.648438 13.585938 4.734375 13.449219 4.976562 L 12.339844 6.945312 L 10.730469 6.945312 C 10.566406 6.941406 10.414062 7.027344 10.332031 7.167969 C 10.253906 7.308594 10.253906 7.480469 10.332031 7.621094 C 10.414062 7.761719 10.566406 7.847656 10.730469 7.84375 L 12.550781 7.84375 L 14.570312 15.121094 L 0.949219 15.121094 C 0.425781 15.117188 0.00390625 15.539062 0 16.058594 C 0 16.578125 0.425781 16.996094 0.949219 16.996094 L 15.050781 16.996094 C 15.574219 16.996094 16 16.578125 16 16.058594 C 16 15.980469 15.992188 15.902344 15.972656 15.828125 Z M 15.972656 15.828125 "/>
</g>
</g>
</svg>
