<?xml version="1.0" encoding="UTF-8" standalone="no"?>
<!-- Created with Inkscape (http://www.inkscape.org/) -->

<svg
   xmlns:dc="http://purl.org/dc/elements/1.1/"
   xmlns:cc="http://creativecommons.org/ns#"
   xmlns:rdf="http://www.w3.org/1999/02/22-rdf-syntax-ns#"
   xmlns:svg="http://www.w3.org/2000/svg"
   xmlns="http://www.w3.org/2000/svg"
   xmlns:xlink="http://www.w3.org/1999/xlink"
   xmlns:sodipodi="http://sodipodi.sourceforge.net/DTD/sodipodi-0.dtd"
   xmlns:inkscape="http://www.inkscape.org/namespaces/inkscape"
   width="30px"
   height="30px"
   version="1.1"
   id="svg8"
   inkscape:version="0.92.4 5da689c313, 2019-01-14"
   sodipodi:docname="container.svg">
  <defs
     id="defs2" />
  <sodipodi:namedview
     id="base"
     pagecolor="#ffffff"
     bordercolor="#666666"
     borderopacity="1.0"
     inkscape:pageopacity="0.0"
     inkscape:pageshadow="2"
     inkscape:zoom="13.049334"
     inkscape:cx="18.679046"
     inkscape:cy="12.165829"
     inkscape:document-units="px"
     inkscape:current-layer="layer1"
     showgrid="false"
     inkscape:snap-page="false"
     units="px"
     inkscape:window-width="1884"
     inkscape:window-height="1061"
     inkscape:window-x="0"
     inkscape:window-y="0"
     inkscape:window-maximized="1"
     fit-margin-top="0"
     fit-margin-left="0"
     fit-margin-right="0"
     fit-margin-bottom="0" />
  <metadata
     id="metadata5">
    <rdf:RDF>
      <cc:Work
         rdf:about="">
        <dc:format>image/svg+xml</dc:format>
        <dc:type
           rdf:resource="http://purl.org/dc/dcmitype/StillImage" />
        <dc:title></dc:title>
      </cc:Work>
    </rdf:RDF>
  </metadata>
    <circle
       style="color:#000000;clip-rule:nonzero;display:inline;overflow:visible;visibility:visible;opacity:1;isolation:auto;mix-blend-mode:normal;color-interpolation:sRGB;color-interpolation-filters:linearRGB;solid-color:#000000;solid-opacity:1;vector-effect:none;fill:#ffffff;fill-opacity:1;fill-rule:evenodd;stroke:#00a19a;stroke-width:1;stroke-linecap:butt;stroke-linejoin:miter;stroke-miterlimit:4;stroke-dasharray:none;stroke-dashoffset:0;stroke-opacity:1;marker:none;color-rendering:auto;image-rendering:auto;shape-rendering:auto;text-rendering:auto;enable-background:accumulate"
       id="path815"
       cx="15"
       cy="15"
       r="14.5" />
<g transform="translate(7,10)"><g id="surface1">
<path style=" stroke:none;fill-rule:nonzero;fill:rgb(30%,30%,30%);fill-opacity:1;" d="M 1.207031 3.289062 L 2.480469 3.289062 L 2.480469 5.710938 L 1.207031 5.710938 Z M 1.207031 3.289062 "/>
<path style=" stroke:none;fill-rule:nonzero;fill:rgb(30%,30%,30%);fill-opacity:1;" d="M 13.5 3.289062 L 14.769531 3.289062 L 14.769531 5.710938 L 13.5 5.710938 Z M 13.5 3.289062 "/>
<path style=" stroke:none;fill-rule:nonzero;fill:rgb(30%,30%,30%);fill-opacity:1;" d="M 9.683594 4.511719 C 9.683594 3.613281 8.992188 2.878906 8.117188 2.835938 L 8.117188 0.78125 L 7.839844 0.78125 L 7.839844 2.847656 C 7.011719 2.953125 6.390625 3.679688 6.398438 4.53125 C 6.410156 5.386719 7.050781 6.097656 7.882812 6.179688 L 7.882812 8.175781 L 8.160156 8.175781 L 8.160156 6.183594 C 9.019531 6.121094 9.683594 5.390625 9.683594 4.511719 Z M 8.042969 5.347656 C 7.589844 5.347656 7.222656 4.972656 7.222656 4.511719 C 7.222656 4.046875 7.589844 3.671875 8.042969 3.671875 C 8.496094 3.671875 8.863281 4.046875 8.863281 4.511719 C 8.863281 4.972656 8.496094 5.347656 8.042969 5.347656 Z M 8.042969 5.347656 "/>
<path style=" stroke:none;fill-rule:nonzero;fill:rgb(30%,30%,30%);fill-opacity:1;" d="M 0 0 L 0 9 L 16 9 L 16 0 Z M 1.125 1.800781 C 2.484375 1.9375 3.523438 3.105469 3.523438 4.5 C 3.523438 5.894531 2.484375 7.0625 1.125 7.199219 Z M 0.679688 0.695312 L 0.933594 0.695312 L 0.933594 8.304688 L 0.679688 8.304688 Z M 1.5625 8.304688 C 3.328125 7.972656 4.664062 6.394531 4.664062 4.5 C 4.664062 2.605469 3.328125 1.027344 1.5625 0.695312 L 14.351562 0.695312 C 12.589844 1.027344 11.253906 2.605469 11.253906 4.5 C 11.253906 6.394531 12.589844 7.972656 14.351562 8.304688 Z M 14.855469 7.203125 C 13.464844 7.101562 12.390625 5.921875 12.390625 4.5 C 12.390625 3.078125 13.464844 1.898438 14.855469 1.796875 Z M 15.320312 8.304688 L 15.046875 8.304688 L 15.046875 0.78125 L 15.023438 0.78125 L 15.023438 0.695312 L 15.320312 0.695312 Z M 15.320312 8.304688 "/>
</g>
</g>
</svg>
