<?xml version="1.0" encoding="UTF-8" standalone="no"?>
<!-- Created with Inkscape (http://www.inkscape.org/) -->

<svg
   xmlns:dc="http://purl.org/dc/elements/1.1/"
   xmlns:cc="http://creativecommons.org/ns#"
   xmlns:rdf="http://www.w3.org/1999/02/22-rdf-syntax-ns#"
   xmlns:svg="http://www.w3.org/2000/svg"
   xmlns="http://www.w3.org/2000/svg"
   xmlns:xlink="http://www.w3.org/1999/xlink"
   xmlns:sodipodi="http://sodipodi.sourceforge.net/DTD/sodipodi-0.dtd"
   xmlns:inkscape="http://www.inkscape.org/namespaces/inkscape"
   width="30px"
   height="30px"
   version="1.1"
   id="svg8"
   inkscape:version="0.92.4 5da689c313, 2019-01-14"
   sodipodi:docname="container.svg">
  <defs
     id="defs2" />
  <sodipodi:namedview
     id="base"
     pagecolor="#ffffff"
     bordercolor="#666666"
     borderopacity="1.0"
     inkscape:pageopacity="0.0"
     inkscape:pageshadow="2"
     inkscape:zoom="13.049334"
     inkscape:cx="18.679046"
     inkscape:cy="12.165829"
     inkscape:document-units="px"
     inkscape:current-layer="layer1"
     showgrid="false"
     inkscape:snap-page="false"
     units="px"
     inkscape:window-width="1884"
     inkscape:window-height="1061"
     inkscape:window-x="0"
     inkscape:window-y="0"
     inkscape:window-maximized="1"
     fit-margin-top="0"
     fit-margin-left="0"
     fit-margin-right="0"
     fit-margin-bottom="0" />
  <metadata
     id="metadata5">
    <rdf:RDF>
      <cc:Work
         rdf:about="">
        <dc:format>image/svg+xml</dc:format>
        <dc:type
           rdf:resource="http://purl.org/dc/dcmitype/StillImage" />
        <dc:title></dc:title>
      </cc:Work>
    </rdf:RDF>
  </metadata>
    <circle
       style="color:#000000;clip-rule:nonzero;display:inline;overflow:visible;visibility:visible;opacity:1;isolation:auto;mix-blend-mode:normal;color-interpolation:sRGB;color-interpolation-filters:linearRGB;solid-color:#000000;solid-opacity:1;vector-effect:none;fill:#00A757;fill-opacity:1;fill-rule:evenodd;stroke:#ffffff;stroke-width:1;stroke-linecap:butt;stroke-linejoin:miter;stroke-miterlimit:4;stroke-dasharray:none;stroke-dashoffset:0;stroke-opacity:1;marker:none;color-rendering:auto;image-rendering:auto;shape-rendering:auto;text-rendering:auto;enable-background:accumulate"
       id="path815"
       cx="15"
       cy="15"
       r="14.5" />
<g transform="translate(8,7)"><g id="surface1">
<path style=" stroke:none;fill-rule:nonzero;fill:#FFFFFF;fill-opacity:1;" d="M 8.933594 1.753906 C 8.933594 0.785156 8.082031 0 7.027344 0 C 5.972656 0 5.117188 0.785156 5.117188 1.753906 C 5.117188 2.292969 5.367188 3.128906 5.769531 3.765625 L 8.234375 3.765625 C 8.660156 3.128906 8.933594 2.292969 8.933594 1.753906 Z M 8.933594 1.753906 "/>
<path style=" stroke:none;fill-rule:nonzero;fill:#FFFFFF;fill-opacity:1;" d="M 8.507812 6.277344 L 5.757812 6.277344 C 5.332031 7.804688 3.976562 9.90625 3.976562 11.433594 C 3.976562 13.417969 5.195312 15.433594 6.371094 15.996094 L 7.84375 15.996094 C 9.023438 15.433594 10.214844 13.417969 10.214844 11.433594 C 10.214844 9.875 8.976562 7.746094 8.507812 6.277344 Z M 8.507812 6.277344 "/>
<path style=" stroke:none;fill-rule:nonzero;fill:#FFFFFF;fill-opacity:1;" d="M 8.09375 5.375 C 8.066406 5.214844 8.054688 5.054688 8.054688 4.894531 C 8.054688 4.8125 8.054688 4.730469 8.0625 4.648438 L 5.902344 4.648438 C 5.910156 4.742188 5.914062 4.835938 5.914062 4.933594 C 5.914062 5.082031 5.90625 5.226562 5.886719 5.375 Z M 8.09375 5.375 "/>
<path style=" stroke:none;fill-rule:nonzero;fill:#FFFFFF;fill-opacity:1;" d="M 12.8125 3.511719 C 12.8125 2.625 11.960938 1.910156 10.90625 1.910156 C 9.851562 1.910156 8.996094 2.625 8.996094 3.511719 C 8.996094 4 9.246094 4.761719 9.648438 5.34375 L 12.113281 5.34375 C 12.539062 4.761719 12.8125 4 12.8125 3.511719 Z M 12.8125 3.511719 "/>
<path style=" stroke:none;fill-rule:nonzero;fill:#FFFFFF;fill-opacity:1;" d="M 11.972656 6.8125 C 11.945312 6.667969 11.929688 6.523438 11.929688 6.375 C 11.929688 6.300781 11.933594 6.222656 11.941406 6.152344 L 9.78125 6.152344 C 9.789062 6.238281 9.792969 6.324219 9.792969 6.410156 C 9.792969 6.546875 9.785156 6.679688 9.765625 6.8125 Z M 11.972656 6.8125 "/>
<path style=" stroke:none;fill-rule:nonzero;fill:#FFFFFF;fill-opacity:1;" d="M 5.054688 3.511719 C 5.054688 2.625 4.203125 1.910156 3.148438 1.910156 C 2.09375 1.910156 1.238281 2.625 1.238281 3.511719 C 1.238281 4 1.488281 4.761719 1.890625 5.34375 L 4.355469 5.34375 C 4.78125 4.761719 5.054688 4 5.054688 3.511719 Z M 5.054688 3.511719 "/>
<path style=" stroke:none;fill-rule:nonzero;fill:#FFFFFF;fill-opacity:1;" d="M 4.214844 6.8125 C 4.1875 6.667969 4.175781 6.523438 4.175781 6.375 C 4.175781 6.300781 4.179688 6.222656 4.183594 6.152344 L 2.023438 6.152344 C 2.03125 6.238281 2.035156 6.324219 2.035156 6.410156 C 2.035156 6.546875 2.027344 6.679688 2.007812 6.8125 Z M 4.214844 6.8125 "/>
<path style=" stroke:none;fill-rule:nonzero;fill:#FFFFFF;fill-opacity:1;" d="M 8.933594 1.753906 C 8.933594 0.785156 8.082031 0 7.027344 0 C 5.972656 0 5.117188 0.785156 5.117188 1.753906 C 5.117188 2.292969 5.367188 3.128906 5.769531 3.765625 L 8.234375 3.765625 C 8.660156 3.128906 8.933594 2.292969 8.933594 1.753906 Z M 8.933594 1.753906 "/>
<path style=" stroke:none;fill-rule:nonzero;fill:#FFFFFF;fill-opacity:1;" d="M 12.292969 7.636719 L 9.542969 7.636719 C 9.539062 7.644531 9.539062 7.648438 9.535156 7.65625 C 9.542969 7.675781 9.550781 7.695312 9.5625 7.714844 C 10.078125 8.921875 10.664062 10.292969 10.664062 11.433594 C 10.664062 13.21875 9.699219 15.175781 8.644531 15.996094 C 9.125 16.003906 12.019531 15.996094 12.019531 15.996094 C 13.195312 15.484375 14 14.152344 14 12.34375 C 14 10.921875 12.761719 8.980469 12.292969 7.636719 Z M 12.292969 7.636719 "/>
<path style=" stroke:none;fill-rule:nonzero;fill:#FFFFFF;fill-opacity:1;" d="M 3.953125 14.183594 C 3.550781 13.410156 3.335938 12.457031 3.335938 11.433594 C 3.335938 10.386719 3.875 9.179688 4.394531 8.015625 C 4.445312 7.898438 4.496094 7.785156 4.546875 7.671875 C 4.542969 7.660156 4.539062 7.648438 4.535156 7.636719 L 1.785156 7.636719 C 1.359375 9.03125 0 10.949219 0 12.34375 C 0 14.152344 0.835938 15.484375 2.011719 15.996094 C 2.011719 15.996094 4.960938 16.003906 5.40625 15.996094 C 4.980469 15.660156 4.234375 14.71875 3.953125 14.183594 Z M 3.953125 14.183594 "/>
<path style=" stroke:none;fill-rule:nonzero;fill:#FFFFFF;fill-opacity:1;" d="M 8.09375 5.375 C 8.066406 5.214844 8.054688 5.054688 8.054688 4.894531 C 8.054688 4.8125 8.054688 4.730469 8.0625 4.648438 L 5.902344 4.648438 C 5.910156 4.742188 5.914062 4.835938 5.914062 4.933594 C 5.914062 5.082031 5.90625 5.226562 5.886719 5.375 Z M 8.09375 5.375 "/>
</g>
</g>
</svg>
