<?xml version="1.0" encoding="UTF-8"?>
<svg xmlns="http://www.w3.org/2000/svg" xmlns:xlink="http://www.w3.org/1999/xlink" width="10px" height="10px" viewBox="0 0 10 10" version="1.1">
<g id="surface1">
<path style=" stroke:none;fill-rule:nonzero;fill:rgb(30%,30%,30%);fill-opacity:1;" d="M 5.101562 7.835938 C 5.097656 7.835938 5.097656 7.835938 5.09375 7.835938 C 5.03125 7.824219 5.019531 7.808594 5.046875 7.773438 L 5.0625 7.78125 C 5.078125 7.792969 5.09375 7.8125 5.101562 7.835938 Z M 5.0625 7.757812 L 5.019531 7.757812 L 5.046875 7.773438 C 5.050781 7.769531 5.058594 7.765625 5.0625 7.757812 Z M 9.980469 9.949219 C 9.964844 9.972656 9.9375 9.988281 9.910156 9.988281 C 9.898438 9.988281 9.890625 9.984375 9.878906 9.980469 L 7.035156 9.019531 C 7.035156 9.019531 7.03125 9.019531 7.027344 9.019531 L 5.039062 9.988281 C 5.027344 9.996094 5.011719 10 5 10 C 4.980469 10 4.964844 9.992188 4.949219 9.984375 C 4.941406 9.976562 4.9375 9.972656 4.929688 9.964844 C 4.929688 9.960938 4.929688 9.960938 4.925781 9.960938 L 2.683594 9.015625 C 2.679688 9.015625 2.675781 9.015625 2.675781 9.015625 L 0.121094 9.976562 C 0.113281 9.980469 0.101562 9.984375 0.09375 9.984375 C 0.0625 9.984375 0.0390625 9.96875 0.0195312 9.945312 C -0.00390625 9.914062 -0.0078125 9.867188 0.015625 9.832031 L 1.171875 7.878906 L 1.734375 6.925781 C 1.746094 6.910156 1.757812 6.898438 1.773438 6.890625 L 3.070312 6.191406 C 2.113281 5.085938 2.136719 3.351562 3.148438 2.277344 C 4.1875 1.167969 5.863281 1.175781 6.898438 2.277344 C 7.917969 3.359375 7.933594 5.113281 6.949219 6.222656 L 8.320312 6.898438 C 8.335938 6.910156 8.351562 6.921875 8.359375 6.9375 L 8.894531 7.890625 L 9.441406 8.863281 L 9.988281 9.839844 C 10.007812 9.871094 10.003906 9.917969 9.980469 9.949219 Z M 8.75 8.015625 L 6.695312 7.136719 C 6.691406 7.132812 6.6875 7.136719 6.683594 7.136719 C 6.679688 7.140625 6.679688 7.144531 6.679688 7.152344 L 6.855469 7.855469 C 6.859375 7.859375 6.859375 7.863281 6.863281 7.863281 L 7.476562 8.097656 L 9.121094 8.71875 C 9.125 8.722656 9.132812 8.71875 9.132812 8.714844 C 9.136719 8.710938 9.136719 8.707031 9.136719 8.699219 L 8.753906 8.023438 C 8.753906 8.019531 8.75 8.019531 8.75 8.015625 Z M 8.214844 7.0625 L 6.804688 6.371094 C 6.722656 6.449219 6.632812 6.527344 6.539062 6.597656 L 6.542969 6.597656 L 6.613281 6.882812 C 6.613281 6.886719 6.617188 6.890625 6.621094 6.890625 L 8.585938 7.734375 L 8.597656 7.742188 L 8.21875 7.070312 C 8.21875 7.066406 8.214844 7.066406 8.214844 7.0625 Z M 5.117188 8.046875 L 5.117188 8.195312 L 5.105469 8.78125 C 5.105469 8.785156 5.109375 8.789062 5.109375 8.792969 C 5.113281 8.796875 5.117188 8.796875 5.121094 8.792969 C 5.121094 8.792969 6.539062 7.996094 6.671875 7.925781 C 6.671875 7.925781 6.503906 7.191406 6.484375 7.136719 L 5.101562 7.964844 C 5.121094 8.039062 5.117188 8.042969 5.117188 8.046875 Z M 7.058594 4.378906 L 7.460938 4.378906 C 7.507812 4.378906 7.542969 4.339844 7.542969 4.292969 C 7.542969 4.246094 7.507812 4.207031 7.460938 4.207031 L 7.058594 4.207031 C 6.953125 4.207031 6.953125 4.378906 7.058594 4.378906 Z M 4.816406 2.085938 C 4.816406 2.199219 4.976562 2.199219 4.976562 2.085938 L 4.976562 1.960938 L 5.082031 2.117188 C 5.128906 2.183594 5.226562 2.152344 5.226562 2.070312 L 5.226562 1.695312 C 5.226562 1.585938 5.066406 1.585938 5.066406 1.695312 L 5.066406 1.804688 L 4.960938 1.648438 C 4.941406 1.617188 4.90625 1.605469 4.871094 1.617188 C 4.839844 1.628906 4.816406 1.660156 4.816406 1.695312 Z M 3.226562 4.277344 C 3.226562 5.332031 4.03125 6.191406 5.023438 6.191406 C 6.011719 6.191406 6.820312 5.332031 6.820312 4.277344 C 6.820312 3.21875 6.011719 2.359375 5.023438 2.359375 C 4.03125 2.359375 3.226562 3.21875 3.226562 4.277344 Z M 4.945312 6.441406 L 4.945312 6.855469 C 4.945312 6.96875 5.105469 6.96875 5.105469 6.855469 L 5.105469 6.441406 C 5.105469 6.328125 4.945312 6.328125 4.945312 6.441406 Z M 3.089844 4.292969 C 3.089844 4.246094 3.054688 4.207031 3.011719 4.207031 L 2.582031 4.207031 C 2.476562 4.207031 2.476562 4.378906 2.582031 4.378906 L 3.011719 4.378906 C 3.054688 4.378906 3.089844 4.339844 3.089844 4.292969 Z M 1.523438 7.695312 L 3.238281 6.886719 C 3.242188 6.882812 3.242188 6.882812 3.242188 6.878906 L 3.332031 6.609375 L 3.371094 6.488281 C 3.316406 6.441406 3.261719 6.390625 3.207031 6.339844 L 1.882812 7.050781 C 1.878906 7.050781 1.878906 7.054688 1.875 7.054688 L 1.507812 7.675781 C 1.503906 7.679688 1.507812 7.6875 1.507812 7.691406 C 1.511719 7.695312 1.519531 7.695312 1.523438 7.695312 Z M 0.933594 8.695312 L 2.921875 7.859375 C 2.921875 7.859375 2.925781 7.855469 2.925781 7.851562 L 3.042969 7.496094 L 3.152344 7.164062 C 3.152344 7.160156 3.152344 7.15625 3.148438 7.152344 C 3.144531 7.148438 3.140625 7.148438 3.136719 7.148438 L 1.316406 8.007812 C 1.3125 8.007812 1.3125 8.011719 1.308594 8.011719 L 0.917969 8.675781 C 0.914062 8.679688 0.914062 8.6875 0.917969 8.691406 C 0.921875 8.695312 0.925781 8.695312 0.933594 8.695312 Z M 2.835938 8.128906 C 2.839844 8.125 2.835938 8.117188 2.835938 8.117188 C 2.832031 8.113281 2.824219 8.109375 2.820312 8.113281 L 1.6875 8.585938 L 0.734375 8.988281 C 0.734375 8.988281 0.730469 8.988281 0.730469 8.992188 L 0.328125 9.667969 C 0.328125 9.671875 0.328125 9.679688 0.332031 9.683594 C 0.332031 9.6875 0.339844 9.6875 0.34375 9.6875 L 2.601562 8.835938 C 2.605469 8.832031 2.609375 8.832031 2.609375 8.828125 Z M 4.925781 8.980469 C 4.925781 8.976562 4.921875 8.972656 4.917969 8.96875 L 3.0625 8.074219 C 3.058594 8.070312 3.058594 8.070312 3.054688 8.074219 C 3.050781 8.074219 3.046875 8.078125 3.046875 8.082031 L 3.023438 8.160156 L 2.800781 8.839844 C 2.796875 8.847656 2.800781 8.855469 2.804688 8.859375 L 4.894531 9.738281 C 4.898438 9.738281 4.902344 9.738281 4.90625 9.734375 C 4.910156 9.734375 4.910156 9.730469 4.910156 9.726562 L 4.914062 9.523438 Z M 4.957031 7.996094 C 4.957031 7.972656 3.367188 7.105469 3.339844 7.152344 C 3.335938 7.148438 3.335938 7.148438 3.332031 7.152344 C 3.328125 7.152344 3.324219 7.15625 3.324219 7.160156 L 3.300781 7.238281 L 3.078125 7.921875 C 3.074219 7.925781 3.078125 7.933594 3.082031 7.9375 L 4.945312 8.789062 C 4.953125 8.792969 4.957031 7.996094 4.957031 7.996094 Z M 5.066406 7.753906 C 5.082031 7.738281 5.101562 7.722656 5.125 7.703125 C 5.125 7.703125 5.125 7.699219 5.125 7.699219 L 6.421875 6.921875 C 6.425781 6.917969 6.429688 6.914062 6.429688 6.910156 L 6.378906 6.707031 C 5.5 7.265625 4.378906 7.234375 3.527344 6.613281 L 3.433594 6.898438 C 3.429688 6.90625 3.433594 6.910156 3.4375 6.914062 L 5.019531 7.757812 L 5.046875 7.773438 C 5.046875 7.773438 5.050781 7.773438 5.054688 7.773438 C 5.058594 7.769531 5.0625 7.765625 5.0625 7.761719 C 5.0625 7.761719 5.0625 7.757812 5.066406 7.753906 Z M 6.914062 8.847656 L 6.90625 8.824219 L 6.726562 8.097656 C 6.726562 8.09375 6.722656 8.089844 6.71875 8.089844 C 6.714844 8.085938 6.710938 8.085938 6.710938 8.089844 L 6.050781 8.457031 L 5.113281 8.980469 C 5.109375 8.984375 5.105469 8.988281 5.105469 8.992188 L 5.105469 9.140625 L 5.09375 9.726562 C 5.09375 9.730469 5.097656 9.734375 5.101562 9.738281 C 5.105469 9.738281 5.109375 9.742188 5.113281 9.738281 L 6.90625 8.863281 C 6.914062 8.859375 6.914062 8.851562 6.914062 8.847656 Z M 9.6875 9.6875 L 9.300781 9 C 9.300781 8.996094 9.296875 8.996094 9.296875 8.992188 L 8.851562 8.824219 L 6.9375 8.101562 C 6.933594 8.097656 6.929688 8.101562 6.925781 8.101562 C 6.921875 8.105469 6.921875 8.113281 6.921875 8.117188 L 7.097656 8.828125 C 7.101562 8.832031 7.105469 8.835938 7.105469 8.835938 L 9.675781 9.707031 C 9.679688 9.707031 9.683594 9.707031 9.6875 9.703125 C 9.691406 9.699219 9.691406 9.691406 9.6875 9.6875 Z M 3.910156 0.75 L 3.910156 0.53125 C 3.910156 0.238281 4.132812 0 4.40625 0 L 5.691406 0 C 5.964844 0 6.1875 0.238281 6.1875 0.53125 L 6.1875 0.75 C 6.1875 1.042969 5.964844 1.28125 5.691406 1.28125 L 4.40625 1.28125 C 4.132812 1.28125 3.910156 1.042969 3.910156 0.75 Z M 4.230469 0.75 C 4.230469 0.851562 4.308594 0.9375 4.40625 0.9375 L 5.691406 0.9375 C 5.789062 0.9375 5.867188 0.851562 5.867188 0.75 L 5.867188 0.53125 C 5.867188 0.425781 5.789062 0.34375 5.691406 0.34375 L 4.40625 0.34375 C 4.308594 0.34375 4.230469 0.425781 4.230469 0.53125 Z M 6.195312 3.078125 C 6.195312 3.078125 5.355469 4.609375 5.351562 4.613281 C 5.34375 4.628906 3.898438 5.527344 3.894531 5.527344 C 3.886719 5.53125 3.875 5.53125 3.867188 5.527344 C 3.867188 5.523438 3.863281 5.523438 3.859375 5.519531 C 3.855469 5.515625 3.851562 5.511719 3.847656 5.503906 C 3.847656 5.5 3.847656 5.496094 3.847656 5.492188 L 3.847656 5.488281 C 3.847656 5.484375 3.847656 5.480469 3.847656 5.476562 C 3.847656 5.476562 3.847656 5.472656 3.851562 5.46875 L 3.851562 5.464844 L 4.691406 3.9375 C 4.703125 3.921875 6.144531 3.023438 6.148438 3.023438 C 6.175781 3.007812 6.210938 3.046875 6.195312 3.078125 Z M 5.257812 4.585938 L 5.023438 4.332031 L 4.113281 5.300781 Z M 5.929688 3.25 L 4.785156 3.96875 L 5.023438 4.21875 Z M 5.929688 3.25 "/>
</g>
</svg>
