<?xml version="1.0" encoding="UTF-8" standalone="no"?>
<!-- Created with Inkscape (http://www.inkscape.org/) -->

<svg
   xmlns:dc="http://purl.org/dc/elements/1.1/"
   xmlns:cc="http://creativecommons.org/ns#"
   xmlns:rdf="http://www.w3.org/1999/02/22-rdf-syntax-ns#"
   xmlns:svg="http://www.w3.org/2000/svg"
   xmlns="http://www.w3.org/2000/svg"
   xmlns:xlink="http://www.w3.org/1999/xlink"
   xmlns:sodipodi="http://sodipodi.sourceforge.net/DTD/sodipodi-0.dtd"
   xmlns:inkscape="http://www.inkscape.org/namespaces/inkscape"
   width="30px"
   height="30px"
   version="1.1"
   id="svg8"
   inkscape:version="0.92.4 5da689c313, 2019-01-14"
   sodipodi:docname="container.svg">
  <defs
     id="defs2" />
  <sodipodi:namedview
     id="base"
     pagecolor="#ffffff"
     bordercolor="#666666"
     borderopacity="1.0"
     inkscape:pageopacity="0.0"
     inkscape:pageshadow="2"
     inkscape:zoom="13.049334"
     inkscape:cx="18.679046"
     inkscape:cy="12.165829"
     inkscape:document-units="px"
     inkscape:current-layer="layer1"
     showgrid="false"
     inkscape:snap-page="false"
     units="px"
     inkscape:window-width="1884"
     inkscape:window-height="1061"
     inkscape:window-x="0"
     inkscape:window-y="0"
     inkscape:window-maximized="1"
     fit-margin-top="0"
     fit-margin-left="0"
     fit-margin-right="0"
     fit-margin-bottom="0" />
  <metadata
     id="metadata5">
    <rdf:RDF>
      <cc:Work
         rdf:about="">
        <dc:format>image/svg+xml</dc:format>
        <dc:type
           rdf:resource="http://purl.org/dc/dcmitype/StillImage" />
        <dc:title></dc:title>
      </cc:Work>
    </rdf:RDF>
  </metadata>
    <circle
       style="color:#000000;clip-rule:nonzero;display:inline;overflow:visible;visibility:visible;opacity:1;isolation:auto;mix-blend-mode:normal;color-interpolation:sRGB;color-interpolation-filters:linearRGB;solid-color:#000000;solid-opacity:1;vector-effect:none;fill:#00A757;fill-opacity:1;fill-rule:evenodd;stroke:#ffffff;stroke-width:1;stroke-linecap:butt;stroke-linejoin:miter;stroke-miterlimit:4;stroke-dasharray:none;stroke-dashoffset:0;stroke-opacity:1;marker:none;color-rendering:auto;image-rendering:auto;shape-rendering:auto;text-rendering:auto;enable-background:accumulate"
       id="path815"
       cx="15"
       cy="15"
       r="14.5" />
<g transform="translate(7,7)"><g id="surface1">
<path style=" stroke:none;fill-rule:nonzero;fill:#FFFFFF;fill-opacity:1;" d="M 13.105469 1.945312 L 6.253906 3.636719 L 6.273438 0.191406 Z M 16 12.964844 C 16 14.636719 12.417969 15.992188 8 15.992188 C 3.582031 15.992188 0 14.636719 0 12.964844 C 0 11.769531 1.824219 10.738281 4.476562 10.246094 L 4.460938 13.78125 C 4.457031 13.988281 4.65625 14.15625 4.898438 14.15625 C 4.902344 14.15625 4.9375 14.136719 4.9375 14.15625 C 4.9375 14.167969 4.925781 13.550781 4.9375 13.550781 L 4.835938 0.382812 C 4.832031 0.175781 5.027344 0.0078125 5.273438 0.0078125 C 5.273438 0.0078125 5.277344 0.0078125 5.277344 0.0078125 C 5.519531 0.0078125 5.71875 0.171875 5.71875 0.378906 L 5.792969 10.054688 C 6.527344 9.976562 7.261719 9.9375 8 9.9375 C 12.417969 9.9375 16 11.292969 16 12.964844 Z M 8.644531 13.027344 C 8.316406 13.027344 8.054688 13.277344 8.054688 13.585938 C 8.054688 13.894531 8.316406 14.144531 8.644531 14.144531 C 8.96875 14.144531 9.234375 13.894531 9.234375 13.585938 C 9.234375 13.277344 8.96875 13.027344 8.644531 13.027344 Z M 8.644531 13.027344 "/>
</g>
</g>
</svg>
