<?xml version="1.0" encoding="UTF-8"?>
<svg xmlns="http://www.w3.org/2000/svg" xmlns:xlink="http://www.w3.org/1999/xlink" width="11px" height="11px" viewBox="0 0 11 11" version="1.1">
<g id="surface1">
<path style=" stroke:none;fill-rule:nonzero;fill:rgb(30%,30%,30%);fill-opacity:1;" d="M 10.734375 2.746094 C 10.039062 1.664062 8.476562 0.90625 8.476562 0.90625 C 2.582031 -2.011719 0.128906 3.046875 0.128906 3.046875 C -0.109375 3.558594 -0.0546875 4.03125 0.632812 4.402344 L 3.050781 5.417969 C 3.328125 5.542969 3.632812 5.546875 3.984375 5.488281 L 5.109375 7.757812 C 4.996094 7.785156 4.90625 7.867188 4.867188 7.976562 L 4.019531 10.28125 C 3.988281 10.371094 3.992188 10.472656 4.039062 10.558594 C 4.082031 10.644531 4.160156 10.710938 4.253906 10.734375 L 5.128906 10.984375 C 5.21875 11.011719 5.316406 11 5.398438 10.953125 C 5.480469 10.910156 5.539062 10.832031 5.566406 10.742188 L 6.203125 8.371094 C 6.234375 8.25 6.199219 8.121094 6.105469 8.03125 L 8.5 5.929688 C 11.003906 6.617188 11.347656 3.691406 10.734375 2.746094 Z M 5.0625 10.304688 L 4.769531 10.226562 L 5.351562 8.4375 L 5.496094 8.476562 Z M 5.703125 7.570312 L 4.605469 5.355469 C 4.734375 5.320312 4.863281 5.289062 5 5.253906 C 5 5.253906 6.542969 4.949219 7.304688 5.398438 C 7.496094 5.507812 7.675781 5.605469 7.847656 5.683594 Z M 3.839844 2.679688 C 2.828125 2.808594 2.140625 3.097656 2.195312 3 C 2.242188 2.910156 3.183594 2.371094 3.472656 2.300781 C 4.042969 2.15625 4.644531 2.109375 5.222656 2.21875 C 6.253906 2.421875 6.84375 2.71875 7.617188 3.421875 C 7.648438 3.449219 7.910156 3.738281 7.917969 3.777344 C 7.933594 3.859375 5.921875 2.421875 3.839844 2.679688 Z M 9.324219 1.941406 C 8.46875 1.59375 6.585938 0.757812 4.519531 1.296875 C 2.746094 1.757812 2.042969 1.992188 1.59375 2.277344 C 1.320312 2.449219 2.570312 0.59375 5.710938 0.621094 C 6.230469 0.628906 7.070312 0.703125 7.558594 0.882812 C 8.800781 1.332031 9.410156 1.976562 9.324219 1.941406 Z M 9.324219 1.941406 "/>
</g>
</svg>
