<?xml version="1.0" encoding="UTF-8"?>
<svg xmlns="http://www.w3.org/2000/svg" xmlns:xlink="http://www.w3.org/1999/xlink" width="8px" height="11px" viewBox="0 0 8 11" version="1.1">
<g id="surface1">
<path style=" stroke:none;fill-rule:nonzero;fill:rgb(30%,30%,30%);fill-opacity:1;" d="M 1.402344 3.585938 C 1.414062 3.210938 1.113281 2.882812 0.726562 2.847656 C 0.335938 2.8125 0.0117188 3.085938 0 3.460938 C -0.0117188 3.832031 0.289062 4.164062 0.679688 4.195312 C 1.066406 4.230469 1.390625 3.957031 1.402344 3.585938 Z M 1.402344 3.585938 "/>
<path style=" stroke:none;fill-rule:nonzero;fill:rgb(30%,30%,30%);fill-opacity:1;" d="M 5.046875 0.00390625 C 5.007812 0.00390625 4.941406 0.09375 4.863281 0.230469 C 4.863281 0.242188 4.867188 0.253906 4.867188 0.265625 C 4.878906 0.296875 4.894531 0.320312 4.917969 0.34375 C 4.925781 0.351562 4.925781 0.363281 4.917969 0.371094 C 4.871094 0.410156 4.824219 0.445312 4.78125 0.484375 C 4.734375 0.53125 4.703125 0.582031 4.6875 0.644531 C 4.667969 0.707031 4.6875 0.785156 4.652344 0.839844 C 4.640625 0.859375 4.621094 0.878906 4.609375 0.898438 C 4.59375 0.925781 4.605469 0.945312 4.617188 0.964844 C 4.625 0.972656 4.625 0.984375 4.617188 0.992188 C 4.585938 1.019531 4.5625 1.046875 4.539062 1.078125 C 4.515625 1.109375 4.492188 1.144531 4.480469 1.183594 C 4.472656 1.203125 4.464844 1.222656 4.460938 1.238281 C 4.457031 1.253906 4.453125 1.269531 4.449219 1.285156 C 4.445312 1.316406 4.441406 1.347656 4.4375 1.375 C 4.421875 1.445312 4.359375 1.472656 4.3125 1.507812 C 4.304688 1.511719 4.296875 1.519531 4.289062 1.527344 C 4.269531 1.578125 4.25 1.625 4.234375 1.671875 C 4.234375 1.6875 4.234375 1.707031 4.238281 1.722656 C 4.246094 1.765625 4.253906 1.808594 4.25 1.855469 C 4.25 1.894531 4.242188 1.933594 4.230469 1.96875 C 4.203125 2.042969 4.164062 2.101562 4.121094 2.164062 C 4.078125 2.226562 4.039062 2.292969 4.007812 2.367188 C 3.992188 2.402344 3.976562 2.4375 3.96875 2.476562 C 3.964844 2.507812 3.964844 2.539062 3.972656 2.570312 C 3.984375 2.617188 4 2.664062 4.007812 2.710938 C 4.015625 2.75 4.019531 2.789062 4.011719 2.828125 C 4.007812 2.859375 4 2.894531 3.988281 2.925781 C 3.988281 2.933594 3.984375 2.9375 3.984375 2.945312 C 4.003906 2.945312 4.066406 3.09375 4.046875 3.199219 C 4.03125 3.308594 3.921875 3.328125 3.902344 3.4375 C 3.867188 3.648438 3.902344 3.929688 3.921875 4.121094 C 3.921875 4.128906 3.921875 4.132812 3.921875 4.140625 C 3.71875 4.363281 3.390625 4.710938 3.183594 4.914062 C 3.175781 4.921875 3.167969 4.921875 3.160156 4.917969 C 3.152344 4.914062 3.148438 4.910156 3.152344 4.902344 C 3.164062 4.777344 3.175781 4.652344 3.183594 4.527344 C 3.1875 4.523438 3.1875 4.519531 3.191406 4.515625 C 3.238281 4.480469 3.277344 4.441406 3.3125 4.394531 C 3.3125 4.394531 3.316406 4.390625 3.316406 4.386719 L 3.449219 2.527344 C 3.449219 2.523438 3.453125 2.523438 3.453125 2.519531 C 3.722656 1.691406 4.183594 0.25 4.25 0.0390625 C 4.25 0.0351562 4.25 0.0273438 4.246094 0.0234375 C 4.242188 0.0195312 4.238281 0.015625 4.230469 0.015625 L 4.222656 0.015625 C 4.214844 0.015625 4.207031 0.0234375 4.203125 0.03125 C 4.136719 0.246094 3.734375 1.492188 3.457031 2.328125 C 3.457031 2.335938 3.449219 2.339844 3.441406 2.339844 C 3.433594 2.339844 3.429688 2.335938 3.425781 2.332031 C 3.414062 2.3125 3.402344 2.296875 3.386719 2.28125 C 3.382812 2.277344 3.382812 2.273438 3.382812 2.265625 C 3.5625 1.148438 3.71875 0.175781 3.746094 0.0234375 C 3.746094 0.0117188 3.738281 0.00390625 3.730469 0 C 3.71875 0 3.710938 0.0078125 3.707031 0.015625 C 3.683594 0.160156 3.523438 1.125 3.339844 2.234375 C 3.339844 2.246094 3.328125 2.253906 3.320312 2.25 C 3.308594 2.25 3.300781 2.25 3.289062 2.25 C 3.179688 2.269531 3.027344 2.363281 3.019531 2.480469 C 3.019531 2.480469 2.683594 3.8125 2.664062 4.222656 C 2.664062 4.226562 2.664062 4.234375 2.660156 4.234375 C 2.65625 4.238281 2.648438 4.242188 2.644531 4.238281 C 2.445312 4.21875 1.871094 4.1875 1.707031 4.226562 C 1.703125 4.226562 1.703125 4.226562 1.703125 4.226562 L 0.917969 4.472656 C 0.632812 4.539062 0.503906 4.828125 0.574219 5.035156 C 0.574219 5.035156 0.574219 5.035156 0.574219 5.039062 L 1.570312 7.136719 C 1.878906 7.964844 2.792969 8.375 3.355469 8.683594 C 3.359375 8.6875 3.363281 8.691406 3.363281 8.699219 C 3.363281 8.707031 3.363281 8.710938 3.363281 8.71875 C 3.363281 8.71875 3.363281 8.71875 3.363281 8.722656 L 3.734375 10.753906 C 3.742188 10.886719 3.941406 10.984375 4.082031 10.996094 C 4.222656 11.007812 4.320312 10.917969 4.3125 10.789062 L 4.171875 8.652344 C 4.171875 8.632812 4.167969 8.414062 4.105469 8.363281 L 3.160156 7.601562 C 3.15625 7.597656 3.152344 7.59375 3.152344 7.585938 C 3.15625 7.582031 3.160156 7.574219 3.164062 7.574219 C 3.472656 7.410156 3.832031 7.203125 4.070312 7.019531 C 4.078125 7.015625 4.089844 7.015625 4.097656 7.023438 L 5.195312 8.257812 C 5.273438 8.367188 5.496094 8.359375 5.625 8.300781 C 5.753906 8.246094 5.792969 8.117188 5.714844 8.011719 L 4.464844 6.242188 C 4.386719 6.132812 4.1875 6.113281 4.015625 6.191406 C 3.992188 6.203125 3.96875 6.21875 3.949219 6.234375 C 3.949219 6.238281 3.949219 6.238281 3.945312 6.238281 L 3.410156 6.535156 C 3.367188 6.394531 3.320312 6.25 3.277344 6.109375 C 3.296875 6.105469 3.3125 6.101562 3.332031 6.097656 C 3.359375 6.09375 3.367188 6.066406 3.363281 6.046875 C 3.355469 5.988281 3.34375 5.925781 3.308594 5.875 C 3.277344 5.832031 3.230469 5.800781 3.183594 5.777344 C 3.179688 5.757812 3.171875 5.742188 3.167969 5.722656 C 3.160156 5.699219 3.15625 5.671875 3.148438 5.648438 C 3.1875 5.636719 3.222656 5.605469 3.238281 5.570312 C 3.242188 5.566406 3.242188 5.566406 3.242188 5.566406 L 4.070312 4.597656 C 4.085938 4.632812 4.105469 4.671875 4.121094 4.71875 C 4.15625 4.785156 4.101562 4.890625 4.136719 4.996094 C 4.175781 5.105469 4.300781 5.148438 4.355469 5.296875 C 4.386719 5.417969 4.363281 5.542969 4.375 5.65625 C 4.378906 5.65625 4.382812 5.660156 4.386719 5.660156 C 4.390625 5.664062 4.398438 5.667969 4.40625 5.671875 C 4.410156 5.667969 4.414062 5.667969 4.421875 5.667969 C 4.429688 5.671875 4.429688 5.679688 4.429688 5.683594 C 4.453125 5.703125 4.480469 5.722656 4.503906 5.738281 C 4.53125 5.753906 4.550781 5.777344 4.570312 5.800781 C 4.601562 5.839844 4.617188 5.90625 4.660156 5.925781 C 4.710938 5.953125 4.773438 5.9375 4.828125 5.933594 C 4.867188 5.929688 4.921875 6.046875 4.929688 6.070312 C 4.957031 6.078125 4.984375 6.085938 5.007812 6.097656 C 5.027344 6.085938 5.046875 6.070312 5.070312 6.074219 C 5.117188 6.082031 5.164062 6.101562 5.207031 6.125 C 5.238281 6.140625 5.265625 6.164062 5.289062 6.191406 C 5.292969 6.1875 5.296875 6.1875 5.300781 6.1875 C 5.304688 6.191406 5.304688 6.195312 5.308594 6.195312 C 5.308594 6.207031 5.3125 6.214844 5.3125 6.222656 C 5.347656 6.34375 5.414062 6.457031 5.394531 6.589844 C 5.425781 6.601562 5.449219 6.628906 5.460938 6.660156 C 5.46875 6.675781 5.472656 6.691406 5.472656 6.710938 C 5.46875 6.726562 5.464844 6.742188 5.460938 6.757812 C 5.453125 6.777344 5.453125 6.796875 5.457031 6.8125 C 5.460938 6.828125 5.46875 6.84375 5.476562 6.855469 C 5.496094 6.878906 5.523438 6.894531 5.539062 6.917969 C 5.5625 6.945312 5.570312 6.976562 5.578125 7.011719 C 5.582031 7.027344 5.589844 7.042969 5.597656 7.058594 C 5.609375 7.070312 5.625 7.066406 5.636719 7.066406 C 5.664062 7.0625 5.699219 7.054688 5.722656 7.082031 C 5.730469 7.09375 5.738281 7.109375 5.738281 7.125 C 5.742188 7.140625 5.742188 7.148438 5.753906 7.160156 C 5.816406 7.21875 5.886719 7.265625 5.953125 7.324219 C 6.019531 7.382812 6.074219 7.453125 6.117188 7.53125 C 6.125 7.546875 6.136719 7.566406 6.144531 7.582031 C 6.1875 7.65625 6.214844 7.738281 6.230469 7.820312 C 6.242188 7.855469 6.253906 7.890625 6.265625 7.925781 C 6.269531 7.914062 6.242188 8.054688 6.242188 8.105469 C 6.25 8.097656 6.28125 8.261719 6.253906 8.324219 C 6.242188 8.34375 6.230469 8.363281 6.214844 8.382812 C 6.210938 8.417969 6.207031 8.453125 6.203125 8.488281 C 6.214844 8.5 6.222656 8.511719 6.230469 8.523438 C 6.242188 8.554688 6.25 8.585938 6.25 8.617188 C 6.253906 8.648438 6.253906 8.683594 6.257812 8.71875 C 6.257812 8.75 6.257812 8.78125 6.273438 8.808594 C 6.28125 8.832031 6.300781 8.847656 6.316406 8.867188 C 6.335938 8.90625 6.347656 8.945312 6.351562 8.988281 C 6.351562 9.035156 6.34375 9.082031 6.347656 9.132812 C 6.351562 9.171875 6.367188 9.210938 6.386719 9.242188 C 6.40625 9.273438 6.421875 9.304688 6.433594 9.335938 C 6.449219 9.378906 6.453125 9.425781 6.457031 9.472656 C 6.46875 9.550781 6.480469 9.628906 6.492188 9.707031 C 6.492188 9.71875 6.519531 9.789062 6.511719 9.800781 C 6.582031 10.117188 6.664062 10.359375 6.679688 10.703125 L 8 10.703125 L 8 0.00390625 C 8 0.00390625 6.066406 0 5.046875 0.00390625 Z M 2.382812 4.777344 L 2.921875 4.613281 C 2.929688 4.609375 2.9375 4.613281 2.941406 4.617188 C 2.945312 4.621094 2.949219 4.625 2.945312 4.632812 C 2.925781 4.757812 2.90625 4.878906 2.886719 4.992188 C 2.886719 5 2.882812 5.003906 2.878906 5.007812 C 2.871094 5.007812 2.867188 5.007812 2.859375 5.007812 C 2.742188 4.949219 2.570312 4.875 2.476562 4.832031 C 2.472656 4.832031 2.417969 4.808594 2.371094 4.792969 C 2.375 4.785156 2.378906 4.78125 2.382812 4.777344 Z M 2.917969 5.855469 C 2.90625 5.800781 2.886719 5.753906 2.855469 5.707031 C 2.863281 5.703125 2.84375 5.714844 2.816406 5.730469 C 2.824219 5.699219 2.828125 5.667969 2.835938 5.628906 C 2.835938 5.621094 2.84375 5.613281 2.855469 5.617188 C 2.917969 5.625 2.96875 5.628906 2.980469 5.632812 C 2.960938 5.699219 2.941406 5.773438 2.917969 5.855469 Z M 3.011719 5.640625 C 3.042969 5.648438 3.078125 5.652344 3.109375 5.652344 C 3.121094 5.691406 3.132812 5.730469 3.140625 5.769531 C 3.136719 5.773438 3.128906 5.777344 3.125 5.78125 C 3.0625 5.851562 3 5.917969 2.9375 5.988281 C 2.9375 5.972656 2.9375 5.957031 2.933594 5.941406 C 2.964844 5.832031 2.988281 5.726562 3.011719 5.640625 Z M 2.796875 6.316406 L 2.59375 5.589844 C 2.628906 5.589844 2.671875 5.59375 2.675781 5.59375 C 2.707031 5.597656 2.738281 5.601562 2.769531 5.605469 C 2.773438 5.605469 2.777344 5.609375 2.78125 5.613281 C 2.785156 5.617188 2.785156 5.621094 2.785156 5.625 C 2.773438 5.679688 2.765625 5.730469 2.761719 5.769531 C 2.738281 5.785156 2.71875 5.796875 2.710938 5.804688 C 2.707031 5.808594 2.707031 5.8125 2.703125 5.8125 C 2.6875 5.863281 2.703125 5.953125 2.722656 6.003906 C 2.726562 6.007812 2.730469 6.011719 2.738281 6.011719 C 2.78125 6.023438 2.828125 6.023438 2.875 6.023438 C 2.867188 6.042969 2.863281 6.066406 2.855469 6.085938 C 2.832031 6.117188 2.808594 6.148438 2.789062 6.183594 C 2.777344 6.195312 2.777344 6.214844 2.789062 6.230469 C 2.796875 6.238281 2.804688 6.246094 2.8125 6.246094 C 2.808594 6.269531 2.800781 6.292969 2.796875 6.316406 Z M 3.347656 6.464844 C 3.359375 6.496094 3.367188 6.523438 3.375 6.554688 L 2.949219 6.792969 C 2.945312 6.792969 2.941406 6.796875 2.933594 6.792969 C 2.929688 6.789062 2.925781 6.785156 2.925781 6.78125 C 2.917969 6.757812 2.914062 6.734375 2.90625 6.710938 L 2.820312 6.402344 C 2.832031 6.347656 2.847656 6.292969 2.859375 6.238281 C 2.984375 6.195312 3.109375 6.144531 3.242188 6.117188 C 3.277344 6.234375 3.3125 6.347656 3.347656 6.464844 Z M 3.230469 5.917969 C 3.25 5.949219 3.265625 5.984375 3.269531 6.023438 C 3.265625 6.023438 3.257812 6.023438 3.253906 6.027344 C 3.242188 5.984375 3.230469 5.945312 3.21875 5.90625 C 3.222656 5.910156 3.226562 5.914062 3.230469 5.917969 Z M 3.167969 5.867188 C 3.171875 5.878906 3.175781 5.890625 3.179688 5.898438 C 3.191406 5.945312 3.203125 5.988281 3.214844 6.035156 C 3.125 6.054688 3.035156 6.082031 2.945312 6.117188 C 3.015625 6.03125 3.089844 5.949219 3.167969 5.867188 Z M 3.105469 4.984375 C 3.105469 4.988281 3.101562 4.992188 3.097656 4.996094 C 3.054688 5.035156 3.019531 5.066406 2.996094 5.078125 C 2.992188 5.082031 2.980469 5.078125 2.976562 5.074219 C 2.964844 5.066406 2.953125 5.058594 2.941406 5.050781 C 2.933594 5.046875 2.929688 5.039062 2.933594 5.03125 C 2.953125 4.898438 2.976562 4.75 3.003906 4.597656 C 3.003906 4.589844 3.007812 4.585938 3.015625 4.582031 L 3.136719 4.546875 C 3.140625 4.546875 3.144531 4.542969 3.148438 4.542969 C 3.136719 4.6875 3.121094 4.835938 3.105469 4.984375 Z M 3.105469 4.984375 "/>
</g>
</svg>
