<?xml version="1.0" encoding="UTF-8" standalone="no"?>
<!-- Created with Inkscape (http://www.inkscape.org/) -->

<svg
   xmlns:dc="http://purl.org/dc/elements/1.1/"
   xmlns:cc="http://creativecommons.org/ns#"
   xmlns:rdf="http://www.w3.org/1999/02/22-rdf-syntax-ns#"
   xmlns:svg="http://www.w3.org/2000/svg"
   xmlns="http://www.w3.org/2000/svg"
   xmlns:xlink="http://www.w3.org/1999/xlink"
   xmlns:sodipodi="http://sodipodi.sourceforge.net/DTD/sodipodi-0.dtd"
   xmlns:inkscape="http://www.inkscape.org/namespaces/inkscape"
   width="30px"
   height="30px"
   version="1.1"
   id="svg8"
   inkscape:version="0.92.4 5da689c313, 2019-01-14"
   sodipodi:docname="container.svg">
  <defs
     id="defs2" />
  <sodipodi:namedview
     id="base"
     pagecolor="#ffffff"
     bordercolor="#666666"
     borderopacity="1.0"
     inkscape:pageopacity="0.0"
     inkscape:pageshadow="2"
     inkscape:zoom="13.049334"
     inkscape:cx="18.679046"
     inkscape:cy="12.165829"
     inkscape:document-units="px"
     inkscape:current-layer="layer1"
     showgrid="false"
     inkscape:snap-page="false"
     units="px"
     inkscape:window-width="1884"
     inkscape:window-height="1061"
     inkscape:window-x="0"
     inkscape:window-y="0"
     inkscape:window-maximized="1"
     fit-margin-top="0"
     fit-margin-left="0"
     fit-margin-right="0"
     fit-margin-bottom="0" />
  <metadata
     id="metadata5">
    <rdf:RDF>
      <cc:Work
         rdf:about="">
        <dc:format>image/svg+xml</dc:format>
        <dc:type
           rdf:resource="http://purl.org/dc/dcmitype/StillImage" />
        <dc:title></dc:title>
      </cc:Work>
    </rdf:RDF>
  </metadata>
    <circle
       style="color:#000000;clip-rule:nonzero;display:inline;overflow:visible;visibility:visible;opacity:1;isolation:auto;mix-blend-mode:normal;color-interpolation:sRGB;color-interpolation-filters:linearRGB;solid-color:#000000;solid-opacity:1;vector-effect:none;fill:#ffffff;fill-opacity:1;fill-rule:evenodd;stroke:#00a19a;stroke-width:1;stroke-linecap:butt;stroke-linejoin:miter;stroke-miterlimit:4;stroke-dasharray:none;stroke-dashoffset:0;stroke-opacity:1;marker:none;color-rendering:auto;image-rendering:auto;shape-rendering:auto;text-rendering:auto;enable-background:accumulate"
       id="path815"
       cx="15"
       cy="15"
       r="14.5" />
<g transform="translate(6,7)"><g id="surface1">
<path style=" stroke:none;fill-rule:nonzero;fill:rgb(30%,30%,30%);fill-opacity:1;" d="M 6.742188 0 L 6.519531 0 C 5.84375 0 5.242188 0.328125 4.820312 0.84375 L 5.65625 1.6875 C 5.863281 1.382812 6.175781 1.183594 6.519531 1.183594 L 6.742188 1.183594 C 7.351562 1.183594 7.867188 1.816406 7.867188 2.5625 L 7.867188 3.167969 L 5.144531 3.167969 L 5.144531 2.5625 C 5.144531 1.148438 4.117188 0 2.851562 0 L 2.625 0 C 1.363281 0 0.332031 1.148438 0.332031 2.5625 L 0.332031 4.1875 L 1.503906 4.1875 L 1.503906 2.5625 C 1.503906 1.816406 2.019531 1.183594 2.625 1.183594 L 2.851562 1.183594 C 3.460938 1.183594 3.976562 1.816406 3.976562 2.5625 L 3.976562 7.898438 L 5.144531 7.898438 L 5.144531 7.070312 L 7.867188 7.070312 L 7.867188 7.898438 L 9.039062 7.898438 L 9.039062 2.5625 C 9.039062 1.148438 8.007812 0 6.742188 0 Z M 7.867188 4.011719 L 7.867188 4.730469 L 5.144531 4.730469 L 5.144531 4.011719 Z M 5.144531 6.226562 L 5.144531 5.578125 L 7.867188 5.578125 L 7.867188 6.226562 Z M 5.144531 6.226562 "/>
<path style=" stroke:none;fill-rule:nonzero;fill:rgb(30%,30%,30%);fill-opacity:1;" d="M 14.214844 11.265625 C 13.109375 11.265625 12.46875 10.59375 11.953125 10.046875 C 11.433594 9.5 11.085938 9.160156 10.472656 9.15625 C 10.464844 9.15625 10.453125 9.15625 10.445312 9.15625 C 9.695312 9.15625 9.367188 9.519531 8.914062 10.027344 C 8.417969 10.578125 7.796875 11.265625 6.53125 11.265625 C 5.285156 11.265625 4.695312 10.578125 4.21875 10.027344 C 3.78125 9.519531 3.464844 9.15625 2.71875 9.15625 C 2.707031 9.15625 2.699219 9.15625 2.691406 9.15625 C 1.921875 9.164062 1.554688 9.550781 1.089844 10.042969 C 0.960938 10.179688 0.824219 10.324219 0.679688 10.460938 L 0 9.710938 C 0.125 9.597656 0.242188 9.472656 0.363281 9.339844 C 0.867188 8.8125 1.488281 8.152344 2.679688 8.140625 C 2.691406 8.140625 2.703125 8.140625 2.714844 8.140625 C 3.921875 8.140625 4.503906 8.816406 4.972656 9.359375 C 5.402344 9.859375 5.742188 10.25 6.53125 10.25 C 7.355469 10.25 7.714844 9.851562 8.171875 9.34375 C 8.652344 8.804688 9.253906 8.140625 10.445312 8.140625 C 10.457031 8.140625 10.472656 8.140625 10.484375 8.140625 C 11.546875 8.152344 12.148438 8.785156 12.679688 9.34375 C 13.167969 9.863281 13.546875 10.269531 14.257812 10.25 C 15.640625 10.21875 16.039062 9.179688 16.054688 9.136719 L 17 9.476562 C 16.976562 9.546875 16.375 11.214844 14.285156 11.265625 C 14.261719 11.265625 14.238281 11.265625 14.214844 11.265625 Z M 14.214844 11.265625 "/>
<path style=" stroke:none;fill-rule:nonzero;fill:rgb(30%,30%,30%);fill-opacity:1;" d="M 14.214844 13.550781 C 13.109375 13.550781 12.46875 12.875 11.953125 12.332031 C 11.433594 11.78125 11.085938 11.445312 10.472656 11.441406 C 9.703125 11.421875 9.371094 11.800781 8.914062 12.308594 C 8.417969 12.863281 7.796875 13.550781 6.53125 13.550781 C 5.285156 13.550781 4.695312 12.863281 4.21875 12.3125 C 3.78125 11.804688 3.464844 11.4375 2.71875 11.4375 C 2.707031 11.4375 2.699219 11.4375 2.691406 11.441406 C 1.921875 11.449219 1.554688 11.835938 1.089844 12.328125 C 0.960938 12.464844 0.824219 12.609375 0.679688 12.746094 L 0 11.996094 C 0.125 11.882812 0.242188 11.757812 0.363281 11.625 C 0.867188 11.097656 1.488281 10.4375 2.679688 10.425781 C 3.910156 10.410156 4.5 11.09375 4.972656 11.644531 C 5.402344 12.140625 5.742188 12.535156 6.53125 12.535156 C 7.355469 12.535156 7.714844 12.136719 8.171875 11.625 C 8.660156 11.085938 9.269531 10.402344 10.484375 10.425781 C 11.546875 10.4375 12.148438 11.070312 12.679688 11.628906 C 13.167969 12.144531 13.546875 12.554688 14.257812 12.535156 C 15.640625 12.503906 16.039062 11.464844 16.054688 11.417969 L 17 11.757812 C 16.976562 11.832031 16.375 13.5 14.285156 13.550781 C 14.261719 13.550781 14.238281 13.550781 14.214844 13.550781 Z M 14.214844 13.550781 "/>
<path style=" stroke:none;fill-rule:nonzero;fill:rgb(30%,30%,30%);fill-opacity:1;" d="M 14.214844 16 C 13.109375 16 12.46875 15.324219 11.953125 14.78125 C 11.433594 14.230469 11.085938 13.894531 10.472656 13.886719 C 10.464844 13.886719 10.453125 13.886719 10.445312 13.886719 C 9.695312 13.886719 9.367188 14.253906 8.914062 14.757812 C 8.417969 15.308594 7.796875 16 6.53125 16 C 5.285156 16 4.695312 15.3125 4.21875 14.757812 C 3.78125 14.253906 3.464844 13.886719 2.71875 13.886719 C 2.707031 13.886719 2.699219 13.886719 2.691406 13.886719 C 1.921875 13.894531 1.554688 14.285156 1.089844 14.773438 C 0.960938 14.914062 0.824219 15.054688 0.679688 15.191406 L 0 14.445312 C 0.125 14.328125 0.242188 14.207031 0.363281 14.074219 C 0.867188 13.542969 1.488281 12.886719 2.679688 12.871094 C 3.910156 12.855469 4.5 13.542969 4.972656 14.089844 C 5.402344 14.589844 5.742188 14.984375 6.53125 14.984375 C 7.355469 14.984375 7.714844 14.582031 8.171875 14.074219 C 8.652344 13.539062 9.253906 12.871094 10.445312 12.871094 C 10.457031 12.871094 10.472656 12.871094 10.484375 12.871094 C 11.546875 12.882812 12.148438 13.519531 12.679688 14.078125 C 13.167969 14.59375 13.546875 15 14.257812 14.984375 C 15.640625 14.949219 16.039062 13.910156 16.054688 13.867188 L 17 14.207031 C 16.976562 14.277344 16.375 15.945312 14.285156 16 C 14.261719 16 14.238281 16 14.214844 16 Z M 14.214844 16 "/>
</g>
</g>
</svg>
