<?xml version="1.0" encoding="UTF-8" standalone="no"?>
<!-- Created with Inkscape (http://www.inkscape.org/) -->

<svg
   xmlns:dc="http://purl.org/dc/elements/1.1/"
   xmlns:cc="http://creativecommons.org/ns#"
   xmlns:rdf="http://www.w3.org/1999/02/22-rdf-syntax-ns#"
   xmlns:svg="http://www.w3.org/2000/svg"
   xmlns="http://www.w3.org/2000/svg"
   xmlns:xlink="http://www.w3.org/1999/xlink"
   xmlns:sodipodi="http://sodipodi.sourceforge.net/DTD/sodipodi-0.dtd"
   xmlns:inkscape="http://www.inkscape.org/namespaces/inkscape"
   width="30px"
   height="30px"
   version="1.1"
   id="svg8"
   inkscape:version="0.92.4 5da689c313, 2019-01-14"
   sodipodi:docname="container.svg">
  <defs
     id="defs2" />
  <sodipodi:namedview
     id="base"
     pagecolor="#ffffff"
     bordercolor="#666666"
     borderopacity="1.0"
     inkscape:pageopacity="0.0"
     inkscape:pageshadow="2"
     inkscape:zoom="13.049334"
     inkscape:cx="18.679046"
     inkscape:cy="12.165829"
     inkscape:document-units="px"
     inkscape:current-layer="layer1"
     showgrid="false"
     inkscape:snap-page="false"
     units="px"
     inkscape:window-width="1884"
     inkscape:window-height="1061"
     inkscape:window-x="0"
     inkscape:window-y="0"
     inkscape:window-maximized="1"
     fit-margin-top="0"
     fit-margin-left="0"
     fit-margin-right="0"
     fit-margin-bottom="0" />
  <metadata
     id="metadata5">
    <rdf:RDF>
      <cc:Work
         rdf:about="">
        <dc:format>image/svg+xml</dc:format>
        <dc:type
           rdf:resource="http://purl.org/dc/dcmitype/StillImage" />
        <dc:title></dc:title>
      </cc:Work>
    </rdf:RDF>
  </metadata>
    <circle
       style="color:#000000;clip-rule:nonzero;display:inline;overflow:visible;visibility:visible;opacity:1;isolation:auto;mix-blend-mode:normal;color-interpolation:sRGB;color-interpolation-filters:linearRGB;solid-color:#000000;solid-opacity:1;vector-effect:none;fill:#ffffff;fill-opacity:1;fill-rule:evenodd;stroke:#00a19a;stroke-width:1;stroke-linecap:butt;stroke-linejoin:miter;stroke-miterlimit:4;stroke-dasharray:none;stroke-dashoffset:0;stroke-opacity:1;marker:none;color-rendering:auto;image-rendering:auto;shape-rendering:auto;text-rendering:auto;enable-background:accumulate"
       id="path815"
       cx="15"
       cy="15"
       r="14.5" />
<g transform="translate(6,9)"><g id="surface1">
<path style=" stroke:none;fill-rule:nonzero;fill:rgb(30%,30%,30%);fill-opacity:1;" d="M 0 0 L 2.6875 0 L 3.582031 1.640625 L 2.6875 2.539062 Z M 0 0 "/>
<path style=" stroke:none;fill-rule:nonzero;fill:rgb(30%,30%,30%);fill-opacity:1;" d="M 8.03125 4.570312 C 7.652344 4.464844 7.261719 4.691406 7.160156 5.070312 L 7.074219 5.390625 C 6.972656 5.769531 7.199219 6.164062 7.578125 6.265625 L 10.488281 7.027344 L 10.890625 5.316406 Z M 8.03125 4.570312 "/>
<path style=" stroke:none;fill-rule:nonzero;fill:rgb(30%,30%,30%);fill-opacity:1;" d="M 10.96875 7.132812 L 11.371094 7.238281 C 11.839844 7.359375 12.320312 7.078125 12.441406 6.609375 C 12.566406 6.140625 12.285156 5.660156 11.816406 5.539062 L 11.371094 5.421875 Z M 10.96875 7.132812 "/>
<path style=" stroke:none;fill-rule:nonzero;fill:rgb(30%,30%,30%);fill-opacity:1;" d="M 15.097656 8.339844 L 14.628906 8.105469 C 14.757812 7.535156 14.472656 6.953125 13.941406 6.703125 C 13.414062 6.457031 12.785156 6.609375 12.429688 7.074219 C 12.074219 7.539062 12.089844 8.191406 12.46875 8.636719 C 12.847656 9.082031 13.484375 9.203125 14 8.925781 L 14.21875 9.367188 Z M 15.097656 8.339844 "/>
<path style=" stroke:none;fill-rule:nonzero;fill:rgb(30%,30%,30%);fill-opacity:1;" d="M 16.414062 10.828125 L 13.808594 10.828125 C 13.789062 10.792969 13.765625 10.757812 13.738281 10.730469 L 11.472656 8.238281 C 11.378906 8.136719 10.945312 7.785156 10.777344 7.738281 L 7.109375 6.75 L 4.671875 2.527344 C 4.429688 2.109375 3.890625 1.964844 3.472656 2.207031 L 3.382812 2.257812 C 2.964844 2.5 2.824219 3.039062 3.0625 3.457031 L 5.550781 7.765625 C 5.605469 7.863281 5.816406 8.234375 5.875 8.339844 C 6.058594 8.65625 6.730469 8.816406 6.730469 8.816406 L 11.148438 10.097656 C 11.429688 10.171875 12.757812 12 13.34375 12 L 16.414062 12 C 16.738281 12 17 11.738281 17 11.414062 C 17 11.089844 16.738281 10.828125 16.414062 10.828125 Z M 16.414062 10.828125 "/>
</g>
</g>
</svg>
