<?xml version="1.0" encoding="UTF-8"?>
<svg xmlns="http://www.w3.org/2000/svg" xmlns:xlink="http://www.w3.org/1999/xlink" width="11px" height="8px" viewBox="0 0 11 8" version="1.1">
<g id="surface1">
<path style=" stroke:none;fill-rule:nonzero;fill:rgb(30%,30%,30%);fill-opacity:1;" d="M 10.246094 0 L 0.753906 0 C 0.335938 0 0 0.351562 0 0.785156 L 0 7.214844 C 0 7.648438 0.335938 8 0.753906 8 L 10.246094 8 C 10.664062 8 11 7.648438 11 7.214844 L 11 0.785156 C 11 0.351562 10.664062 0 10.246094 0 Z M 5.273438 4.847656 C 4.910156 4.746094 4.660156 4.402344 4.660156 4.015625 C 4.660156 3.625 4.910156 3.285156 5.273438 3.179688 Z M 5.757812 3.191406 C 6.101562 3.308594 6.332031 3.640625 6.332031 4.015625 C 6.332031 4.386719 6.101562 4.71875 5.757812 4.835938 Z M 0.484375 7.214844 L 0.484375 5.863281 C 0.519531 5.867188 0.554688 5.871094 0.589844 5.871094 L 1.515625 5.871094 C 1.839844 5.871094 2.101562 5.597656 2.101562 5.261719 L 2.101562 2.769531 C 2.101562 2.433594 1.839844 2.164062 1.515625 2.164062 L 0.589844 2.164062 C 0.554688 2.164062 0.519531 2.164062 0.484375 2.171875 L 0.484375 0.785156 C 0.484375 0.628906 0.605469 0.503906 0.753906 0.503906 L 5.273438 0.503906 L 5.273438 2.664062 C 4.640625 2.777344 4.175781 3.347656 4.175781 4.015625 C 4.175781 4.679688 4.640625 5.25 5.273438 5.363281 L 5.273438 7.496094 L 0.753906 7.496094 C 0.605469 7.496094 0.484375 7.371094 0.484375 7.214844 Z M 0.488281 5.261719 L 0.488281 2.769531 C 0.488281 2.714844 0.53125 2.667969 0.589844 2.667969 L 1.515625 2.667969 C 1.570312 2.667969 1.617188 2.714844 1.617188 2.769531 L 1.617188 5.261719 C 1.617188 5.320312 1.570312 5.367188 1.515625 5.367188 L 0.589844 5.367188 C 0.53125 5.367188 0.488281 5.320312 0.488281 5.261719 Z M 10.246094 7.496094 L 5.757812 7.496094 L 5.757812 5.355469 C 6.375 5.226562 6.820312 4.664062 6.820312 4.015625 C 6.820312 3.363281 6.375 2.800781 5.757812 2.671875 L 5.757812 0.503906 L 10.246094 0.503906 C 10.394531 0.503906 10.515625 0.628906 10.515625 0.785156 L 10.515625 2.171875 C 10.480469 2.167969 10.445312 2.164062 10.410156 2.164062 L 9.484375 2.164062 C 9.160156 2.164062 8.898438 2.433594 8.898438 2.769531 L 8.898438 5.261719 C 8.898438 5.597656 9.160156 5.871094 9.484375 5.871094 L 10.410156 5.871094 C 10.445312 5.871094 10.480469 5.867188 10.515625 5.863281 L 10.515625 7.214844 C 10.515625 7.371094 10.394531 7.496094 10.246094 7.496094 Z M 10.511719 2.769531 L 10.511719 5.261719 C 10.511719 5.320312 10.464844 5.367188 10.410156 5.367188 L 9.484375 5.367188 C 9.425781 5.367188 9.382812 5.320312 9.382812 5.261719 L 9.382812 2.769531 C 9.382812 2.714844 9.425781 2.667969 9.484375 2.667969 L 10.410156 2.667969 C 10.464844 2.667969 10.511719 2.714844 10.511719 2.769531 Z M 10.511719 2.769531 "/>
</g>
</svg>
