<?xml version="1.0" encoding="UTF-8" standalone="no"?>
<!-- Created with Inkscape (http://www.inkscape.org/) -->

<svg
   xmlns:dc="http://purl.org/dc/elements/1.1/"
   xmlns:cc="http://creativecommons.org/ns#"
   xmlns:rdf="http://www.w3.org/1999/02/22-rdf-syntax-ns#"
   xmlns:svg="http://www.w3.org/2000/svg"
   xmlns="http://www.w3.org/2000/svg"
   xmlns:xlink="http://www.w3.org/1999/xlink"
   xmlns:sodipodi="http://sodipodi.sourceforge.net/DTD/sodipodi-0.dtd"
   xmlns:inkscape="http://www.inkscape.org/namespaces/inkscape"
   width="30px"
   height="30px"
   version="1.1"
   id="svg8"
   inkscape:version="0.92.4 5da689c313, 2019-01-14"
   sodipodi:docname="container.svg">
  <defs
     id="defs2" />
  <sodipodi:namedview
     id="base"
     pagecolor="#ffffff"
     bordercolor="#666666"
     borderopacity="1.0"
     inkscape:pageopacity="0.0"
     inkscape:pageshadow="2"
     inkscape:zoom="13.049334"
     inkscape:cx="18.679046"
     inkscape:cy="12.165829"
     inkscape:document-units="px"
     inkscape:current-layer="layer1"
     showgrid="false"
     inkscape:snap-page="false"
     units="px"
     inkscape:window-width="1884"
     inkscape:window-height="1061"
     inkscape:window-x="0"
     inkscape:window-y="0"
     inkscape:window-maximized="1"
     fit-margin-top="0"
     fit-margin-left="0"
     fit-margin-right="0"
     fit-margin-bottom="0" />
  <metadata
     id="metadata5">
    <rdf:RDF>
      <cc:Work
         rdf:about="">
        <dc:format>image/svg+xml</dc:format>
        <dc:type
           rdf:resource="http://purl.org/dc/dcmitype/StillImage" />
        <dc:title></dc:title>
      </cc:Work>
    </rdf:RDF>
  </metadata>
    <circle
       style="color:#000000;clip-rule:nonzero;display:inline;overflow:visible;visibility:visible;opacity:1;isolation:auto;mix-blend-mode:normal;color-interpolation:sRGB;color-interpolation-filters:linearRGB;solid-color:#000000;solid-opacity:1;vector-effect:none;fill:#00a19a;fill-opacity:1;fill-rule:evenodd;stroke:#ffffff;stroke-width:1;stroke-linecap:butt;stroke-linejoin:miter;stroke-miterlimit:4;stroke-dasharray:none;stroke-dashoffset:0;stroke-opacity:1;marker:none;color-rendering:auto;image-rendering:auto;shape-rendering:auto;text-rendering:auto;enable-background:accumulate"
       id="path815"
       cx="15"
       cy="15"
       r="14.5" />
<g transform="translate(7,9)"><g id="surface1">
<path style=" stroke:none;fill-rule:nonzero;fill:#FFFFFF;fill-opacity:1;" d="M 15.660156 5.113281 C 15.625 5.007812 15.585938 4.90625 15.535156 4.808594 L 15.71875 4.714844 C 15.667969 4.609375 15.609375 4.503906 15.542969 4.40625 L 15.371094 4.523438 C 15.308594 4.433594 15.242188 4.347656 15.171875 4.265625 L 15.324219 4.121094 C 15.242188 4.035156 15.160156 3.953125 15.070312 3.875 L 14.9375 4.035156 C 14.851562 3.964844 14.765625 3.902344 14.675781 3.84375 L 14.785156 3.664062 C 14.683594 3.601562 14.582031 3.542969 14.472656 3.492188 L 14.386719 3.6875 C 14.289062 3.640625 14.1875 3.601562 14.085938 3.570312 L 14.144531 3.367188 C 14.03125 3.335938 13.914062 3.308594 13.800781 3.289062 L 13.769531 3.5 C 13.660156 3.484375 13.554688 3.472656 13.445312 3.472656 L 13.449219 3.261719 C 13.328125 3.257812 13.210938 3.265625 13.09375 3.28125 L 13.121094 3.488281 C 13.011719 3.503906 12.90625 3.523438 12.800781 3.554688 L 12.75 3.347656 C 12.695312 3.363281 12.640625 3.382812 12.585938 3.398438 L 12.582031 3.402344 C 12.527344 3.421875 12.472656 3.441406 12.417969 3.464844 L 12.496094 3.660156 C 12.4375 3.683594 12.378906 3.710938 12.324219 3.742188 L 11.535156 2.667969 C 11.945312 2.179688 13.511719 2.03125 13.457031 1.992188 C 12.9375 1.628906 11.648438 1.84375 11.648438 1.84375 L 11.136719 1.039062 L 10.261719 0.816406 L 10.167969 1.054688 C 10.167969 1.054688 9.625 0.246094 9.453125 0.105469 C 9.15625 -0.144531 7.6875 0.128906 7.6875 0.128906 L 7.800781 0.851562 L 8.964844 0.785156 L 9.496094 1.519531 L 9.164062 1.734375 C 7.390625 1.734375 6.386719 3.324219 6.386719 3.324219 C 6.386719 3.324219 6.019531 3.507812 5.320312 3.691406 C 4.625 3.871094 0.0390625 4.316406 0.0390625 4.316406 C 0.0390625 4.316406 -0.0859375 4.550781 0.152344 4.832031 C 0.386719 5.117188 1.316406 5.121094 2.367188 5.265625 C 3.671875 5.441406 3.507812 5.804688 4.160156 6.003906 C 4.808594 6.203125 5.546875 6.007812 5.546875 6.007812 L 5.820312 6.65625 L 4.769531 7.414062 C 4.722656 7.378906 4.675781 7.34375 4.625 7.3125 L 4.734375 7.132812 C 4.632812 7.070312 4.53125 7.011719 4.421875 6.964844 L 4.339844 7.15625 C 4.238281 7.109375 4.136719 7.070312 4.035156 7.039062 L 4.09375 6.839844 C 3.980469 6.804688 3.863281 6.777344 3.75 6.761719 L 3.71875 6.96875 C 3.609375 6.953125 3.503906 6.941406 3.394531 6.941406 L 3.398438 6.730469 C 3.28125 6.730469 3.160156 6.734375 3.046875 6.75 L 3.070312 6.960938 C 2.964844 6.972656 2.855469 6.996094 2.753906 7.023438 L 2.699219 6.820312 C 2.644531 6.835938 2.589844 6.851562 2.535156 6.871094 C 2.476562 6.890625 2.421875 6.910156 2.367188 6.933594 L 2.445312 7.128906 C 2.347656 7.171875 2.25 7.222656 2.15625 7.277344 L 2.050781 7.09375 C 1.949219 7.15625 1.851562 7.222656 1.761719 7.296875 L 1.886719 7.464844 C 1.804688 7.53125 1.722656 7.605469 1.648438 7.6875 L 1.5 7.539062 C 1.417969 7.625 1.34375 7.71875 1.273438 7.816406 L 1.441406 7.941406 C 1.378906 8.03125 1.320312 8.121094 1.269531 8.21875 L 1.085938 8.121094 C 1.03125 8.226562 0.984375 8.335938 0.941406 8.449219 L 1.136719 8.519531 C 1.097656 8.625 1.066406 8.730469 1.042969 8.839844 L 0.839844 8.792969 C 0.816406 8.910156 0.796875 9.027344 0.789062 9.148438 L 0.996094 9.164062 C 0.984375 9.277344 0.984375 9.386719 0.988281 9.496094 L 0.785156 9.507812 C 0.789062 9.628906 0.804688 9.746094 0.828125 9.863281 L 1.03125 9.824219 C 1.050781 9.933594 1.078125 10.039062 1.113281 10.140625 C 1.113281 10.144531 1.113281 10.144531 1.113281 10.144531 L 0.917969 10.210938 C 0.953125 10.324219 1 10.4375 1.050781 10.542969 L 1.238281 10.449219 C 1.285156 10.546875 1.339844 10.644531 1.402344 10.734375 L 1.230469 10.855469 C 1.296875 10.953125 1.371094 11.046875 1.449219 11.136719 L 1.601562 10.992188 C 1.675781 11.074219 1.753906 11.152344 1.835938 11.222656 L 1.703125 11.382812 C 1.792969 11.460938 1.890625 11.53125 1.988281 11.597656 L 2.097656 11.417969 C 2.191406 11.476562 2.285156 11.527344 2.382812 11.574219 L 2.300781 11.765625 C 2.40625 11.816406 2.515625 11.855469 2.628906 11.890625 L 2.6875 11.6875 C 2.792969 11.71875 2.898438 11.746094 3.003906 11.761719 L 2.972656 11.96875 C 3.089844 11.988281 3.207031 12 3.324219 12 L 3.328125 11.789062 C 3.4375 11.789062 3.542969 11.785156 3.652344 11.773438 L 3.675781 11.980469 C 3.792969 11.964844 3.910156 11.941406 4.023438 11.914062 L 3.96875 11.707031 C 4.019531 11.695312 4.074219 11.679688 4.125 11.660156 C 4.175781 11.644531 4.226562 11.625 4.277344 11.601562 L 4.355469 11.796875 C 4.464844 11.75 4.570312 11.699219 4.671875 11.636719 L 4.566406 11.453125 C 4.660156 11.398438 4.75 11.335938 4.835938 11.269531 L 4.960938 11.433594 C 5.054688 11.359375 5.140625 11.277344 5.222656 11.191406 L 5.074219 11.046875 C 5.148438 10.964844 5.21875 10.882812 5.28125 10.792969 L 5.449219 10.917969 C 5.519531 10.820312 5.582031 10.71875 5.636719 10.613281 L 5.453125 10.511719 C 5.503906 10.414062 5.550781 10.316406 5.589844 10.210938 L 5.78125 10.285156 C 5.824219 10.171875 5.855469 10.058594 5.882812 9.941406 L 5.679688 9.894531 C 5.703125 9.785156 5.722656 9.675781 5.730469 9.566406 L 5.9375 9.585938 C 5.945312 9.464844 5.949219 9.34375 5.941406 9.226562 L 5.734375 9.234375 C 5.730469 9.171875 5.726562 9.109375 5.714844 9.042969 L 8.230469 7.238281 L 9.6875 6.765625 C 9.6875 6.765625 9.863281 5.347656 9.921875 4.964844 C 9.980469 4.578125 10.582031 3.640625 10.582031 3.640625 L 10.691406 3.488281 L 11.332031 4.335938 C 11.328125 4.339844 11.328125 4.34375 11.324219 4.347656 L 11.363281 4.375 L 11.464844 4.511719 C 11.410156 4.585938 11.363281 4.667969 11.320312 4.75 L 11.136719 4.652344 C 11.082031 4.757812 11.03125 4.867188 10.992188 4.976562 L 11.183594 5.050781 C 11.148438 5.15625 11.117188 5.261719 11.09375 5.367188 L 10.890625 5.324219 C 10.867188 5.441406 10.847656 5.558594 10.839844 5.679688 L 11.042969 5.695312 C 11.035156 5.804688 11.035156 5.917969 11.039062 6.027344 L 10.832031 6.039062 C 10.839844 6.160156 10.855469 6.277344 10.875 6.394531 L 11.078125 6.355469 C 11.101562 6.460938 11.128906 6.570312 11.160156 6.671875 C 11.160156 6.671875 11.164062 6.675781 11.164062 6.675781 L 10.96875 6.742188 C 11.003906 6.855469 11.050781 6.964844 11.101562 7.074219 L 11.289062 6.980469 C 11.335938 7.078125 11.390625 7.171875 11.453125 7.265625 L 11.28125 7.382812 C 11.347656 7.484375 11.421875 7.578125 11.5 7.667969 L 11.652344 7.523438 C 11.726562 7.605469 11.804688 7.683594 11.886719 7.753906 L 11.753906 7.914062 C 11.84375 7.992188 11.9375 8.0625 12.039062 8.125 L 12.148438 7.949219 C 12.238281 8.007812 12.335938 8.058594 12.433594 8.105469 L 12.347656 8.296875 C 12.457031 8.34375 12.566406 8.386719 12.679688 8.421875 L 12.738281 8.21875 C 12.839844 8.25 12.949219 8.273438 13.054688 8.292969 L 13.023438 8.5 C 13.140625 8.519531 13.257812 8.527344 13.375 8.53125 L 13.378906 8.320312 C 13.484375 8.320312 13.59375 8.316406 13.703125 8.300781 L 13.726562 8.511719 C 13.84375 8.496094 13.957031 8.472656 14.074219 8.441406 L 14.019531 8.238281 C 14.070312 8.222656 14.121094 8.210938 14.171875 8.191406 C 14.226562 8.171875 14.277344 8.152344 14.328125 8.132812 L 14.40625 8.328125 C 14.515625 8.28125 14.621094 8.226562 14.722656 8.167969 L 14.617188 7.984375 C 14.710938 7.929688 14.800781 7.867188 14.882812 7.796875 L 15.011719 7.964844 C 15.105469 7.890625 15.191406 7.808594 15.273438 7.722656 L 15.125 7.578125 C 15.199219 7.496094 15.269531 7.410156 15.332031 7.324219 L 15.5 7.445312 C 15.570312 7.351562 15.632812 7.25 15.6875 7.144531 L 15.503906 7.042969 C 15.554688 6.945312 15.601562 6.84375 15.636719 6.742188 L 15.832031 6.816406 C 15.871094 6.703125 15.90625 6.585938 15.933594 6.472656 L 15.730469 6.425781 C 15.753906 6.316406 15.769531 6.207031 15.78125 6.097656 L 15.984375 6.117188 C 15.996094 5.996094 15.996094 5.875 15.992188 5.753906 L 15.785156 5.765625 C 15.777344 5.65625 15.765625 5.546875 15.746094 5.4375 L 15.949219 5.398438 C 15.925781 5.28125 15.894531 5.164062 15.859375 5.050781 L 15.855469 5.046875 Z M 3.855469 10.710938 C 3.117188 10.964844 2.316406 10.5625 2.066406 9.808594 C 1.816406 9.058594 2.210938 8.242188 2.949219 7.984375 C 3.6875 7.730469 4.488281 8.136719 4.738281 8.886719 C 4.988281 9.640625 4.589844 10.457031 3.855469 10.710938 Z M 13.902344 7.242188 C 13.167969 7.496094 12.367188 7.09375 12.117188 6.339844 C 11.867188 5.585938 12.261719 4.769531 13 4.515625 C 13.738281 4.261719 14.539062 4.664062 14.789062 5.417969 C 15.039062 6.171875 14.640625 6.988281 13.902344 7.242188 Z M 13.902344 7.242188 "/>
</g>
</g>
</svg>
