<?xml version="1.0" encoding="UTF-8"?>
<svg xmlns="http://www.w3.org/2000/svg" xmlns:xlink="http://www.w3.org/1999/xlink" width="11px" height="10px" viewBox="0 0 11 10" version="1.1">
<g id="surface1">
<path style=" stroke:none;fill-rule:nonzero;fill:rgb(30%,30%,30%);fill-opacity:1;" d="M 11 1.898438 C 11 2.539062 10.441406 3.054688 9.753906 3.054688 C 9.066406 3.054688 8.507812 2.539062 8.507812 1.898438 C 8.507812 1.257812 9.066406 0.738281 9.753906 0.738281 C 10.441406 0.738281 11 1.257812 11 1.898438 Z M 11 1.898438 "/>
<path style=" stroke:none;fill-rule:nonzero;fill:rgb(30%,30%,30%);fill-opacity:1;" d="M 0.132812 9.195312 C -0.0546875 9.386719 -0.0429688 9.6875 0.164062 9.863281 L 0.179688 9.875 C 0.382812 10.050781 0.703125 10.039062 0.894531 9.847656 L 4.628906 6.082031 L 3.867188 5.429688 Z M 0.132812 9.195312 "/>
<path style=" stroke:none;fill-rule:nonzero;fill:rgb(30%,30%,30%);fill-opacity:1;" d="M 10.8125 5.195312 C 10.804688 4.941406 10.574219 4.738281 10.300781 4.742188 L 8.183594 4.761719 L 8.175781 3.886719 L 7.179688 4.917969 C 7.089844 5.011719 7.039062 5.136719 7.046875 5.261719 C 7.054688 5.390625 7.117188 5.507812 7.21875 5.59375 L 7.234375 5.609375 C 7.292969 5.65625 7.363281 5.695312 7.441406 5.714844 L 7.445312 5.726562 L 7.5 5.726562 C 7.558594 5.734375 7.621094 5.734375 7.679688 5.722656 L 10.324219 5.6875 C 10.601562 5.683594 10.820312 5.46875 10.8125 5.214844 Z M 10.8125 5.195312 "/>
<path style=" stroke:none;fill-rule:nonzero;fill:rgb(30%,30%,30%);fill-opacity:1;" d="M 8.425781 2.605469 L 7.699219 1.996094 L 5.691406 0.136719 C 5.496094 -0.046875 5.179688 -0.046875 4.984375 0.136719 L 4.972656 0.148438 C 4.960938 0.160156 4.945312 0.175781 4.933594 0.1875 L 3.160156 2.023438 C 2.972656 2.210938 2.988281 2.503906 3.191406 2.675781 L 3.207031 2.691406 C 3.410156 2.859375 3.726562 2.847656 3.914062 2.660156 L 5.359375 1.164062 L 6.648438 2.363281 L 4.628906 4.449219 L 4.625 4.445312 L 4.253906 4.835938 C 4.082031 5.015625 4.089844 5.289062 4.273438 5.460938 L 6.144531 7.203125 L 3.5625 7.742188 C 3.347656 7.789062 3.210938 7.988281 3.261719 8.1875 L 3.308594 8.386719 C 3.355469 8.585938 3.570312 8.714844 3.785156 8.667969 L 7.164062 7.964844 C 7.25 7.964844 7.335938 7.941406 7.410156 7.902344 C 7.484375 7.871094 7.542969 7.820312 7.582031 7.753906 C 7.722656 7.570312 7.699219 7.316406 7.53125 7.15625 L 7.5 7.128906 C 7.484375 7.113281 7.46875 7.097656 7.449219 7.082031 L 6.023438 5.753906 L 8.460938 3.234375 C 8.636719 3.050781 8.621094 2.769531 8.425781 2.605469 Z M 8.425781 2.605469 "/>
</g>
</svg>
