<?xml version="1.0" encoding="UTF-8"?>
<svg xmlns="http://www.w3.org/2000/svg" xmlns:xlink="http://www.w3.org/1999/xlink" width="11px" height="10px" viewBox="0 0 11 10" version="1.1">
<g id="surface1">
<path style=" stroke:none;fill-rule:nonzero;fill:rgb(30%,30%,30%);fill-opacity:1;" d="M 10.335938 9.433594 L 8.753906 9.433594 C 8.710938 9.433594 8.679688 9.40625 8.679688 9.367188 L 8.679688 8.042969 C 8.679688 8.011719 8.703125 7.980469 8.738281 7.976562 C 8.855469 7.957031 8.972656 7.929688 9.089844 7.894531 C 10.5625 7.464844 12.917969 5.867188 8.207031 0 C 3.507812 5.847656 5.835938 7.453125 7.308594 7.890625 C 7.425781 7.925781 7.546875 7.953125 7.667969 7.976562 C 7.703125 7.980469 7.730469 8.007812 7.730469 8.042969 L 7.730469 9.367188 C 7.730469 9.40625 7.695312 9.433594 7.65625 9.433594 L 3.101562 9.433594 C 3.082031 9.433594 3.0625 9.429688 3.046875 9.414062 C 3.03125 9.402344 3.027344 9.382812 3.027344 9.367188 L 3.03125 8.675781 C 3.023438 8.648438 3.03125 8.621094 3.046875 8.597656 C 3.066406 8.578125 3.09375 8.5625 3.125 8.5625 L 3.941406 8.5625 C 4.472656 8.5625 5.1875 8.265625 5.1875 7.632812 L 5.1875 7.546875 C 5.1875 7.496094 5.144531 7.457031 5.089844 7.457031 L 2.96875 7.457031 C 2.914062 7.457031 2.871094 7.417969 2.871094 7.367188 L 2.871094 6.457031 C 2.871094 6.410156 2.914062 6.367188 2.96875 6.367188 L 3.375 6.367188 C 3.625 6.367188 3.832031 6.179688 3.832031 5.945312 C 3.832031 5.898438 3.789062 5.859375 3.734375 5.859375 L 2.796875 5.859375 C 2.769531 5.859375 2.746094 5.847656 2.726562 5.832031 C 2.707031 5.8125 2.699219 5.792969 2.699219 5.765625 L 2.707031 5.117188 C 2.707031 5.027344 2.773438 4.953125 2.871094 4.9375 C 2.964844 4.921875 3.058594 4.972656 3.089844 5.054688 C 3.105469 5.09375 3.140625 5.117188 3.183594 5.117188 L 3.1875 5.117188 C 3.21875 5.117188 3.25 5.105469 3.265625 5.082031 C 3.285156 5.054688 3.289062 5.027344 3.28125 5 C 3.238281 4.886719 3.140625 4.800781 3.015625 4.765625 C 2.894531 4.734375 2.761719 4.757812 2.660156 4.828125 C 2.621094 4.855469 2.570312 4.855469 2.535156 4.828125 C 2.433594 4.757812 2.300781 4.734375 2.175781 4.765625 C 2.054688 4.800781 1.957031 4.886719 1.914062 5 C 1.902344 5.027344 1.910156 5.054688 1.925781 5.082031 C 1.945312 5.105469 1.976562 5.117188 2.007812 5.117188 L 2.011719 5.117188 C 2.054688 5.117188 2.089844 5.09375 2.105469 5.054688 C 2.136719 4.972656 2.230469 4.921875 2.324219 4.9375 C 2.417969 4.953125 2.488281 5.027344 2.488281 5.117188 L 2.484375 5.769531 C 2.484375 5.816406 2.4375 5.859375 2.386719 5.859375 L 1.492188 5.859375 C 1.441406 5.859375 1.394531 5.898438 1.394531 5.945312 C 1.394531 6.179688 1.601562 6.367188 1.855469 6.367188 L 2.21875 6.367188 C 2.273438 6.367188 2.316406 6.410156 2.316406 6.457031 L 2.316406 7.367188 C 2.316406 7.417969 2.273438 7.457031 2.21875 7.457031 L 0.0976562 7.457031 C 0.046875 7.457031 0.00390625 7.496094 0.00390625 7.546875 L 0.00390625 7.632812 C 0.00390625 8.265625 0.660156 8.5625 1.246094 8.5625 L 2.121094 8.5625 C 2.152344 8.5625 2.179688 8.574219 2.199219 8.597656 C 2.214844 8.621094 2.222656 8.648438 2.214844 8.675781 L 2.195312 9.367188 C 2.195312 9.40625 2.160156 9.433594 2.121094 9.433594 L 0.75 9.433594 C 0.578125 9.433594 0.441406 9.5625 0.441406 9.71875 C 0.441406 9.875 0.578125 10 0.75 10 L 10.335938 10 C 10.507812 10 10.644531 9.875 10.644531 9.71875 C 10.644531 9.5625 10.507812 9.433594 10.335938 9.433594 Z M 10.335938 9.433594 "/>
<path style=" stroke:none;fill-rule:nonzero;fill:rgb(30%,30%,30%);fill-opacity:1;" d="M 1.957031 5.296875 C 2.207031 5.601562 2.082031 5.691406 2.003906 5.710938 C 1.96875 5.71875 1.925781 5.71875 1.910156 5.710938 C 1.835938 5.675781 1.703125 5.605469 1.957031 5.296875 Z M 1.957031 5.296875 "/>
<path style=" stroke:none;fill-rule:nonzero;fill:rgb(30%,30%,30%);fill-opacity:1;" d="M 3.222656 5.296875 C 3.472656 5.601562 3.351562 5.691406 3.273438 5.710938 C 3.234375 5.71875 3.195312 5.71875 3.175781 5.710938 C 3.105469 5.675781 2.972656 5.605469 3.222656 5.296875 Z M 3.222656 5.296875 "/>
</g>
</svg>
