<?xml version="1.0" encoding="UTF-8"?>
<svg xmlns="http://www.w3.org/2000/svg" xmlns:xlink="http://www.w3.org/1999/xlink" width="10px" height="8px" viewBox="0 0 10 8" version="1.1">
<g id="surface1">
<path style=" stroke:none;fill-rule:nonzero;fill:rgb(30%,30%,30%);fill-opacity:1;" d="M 3.082031 0.402344 C 2.683594 0.5 2.675781 0.542969 2.675781 0.542969 L 2.792969 0.328125 C 2.960938 0.121094 3.273438 0 3.621094 0 C 4.152344 0 4.589844 0.316406 4.589844 0.714844 L 4.5625 0.925781 C 4.480469 0.824219 4.390625 0.738281 4.289062 0.660156 C 4.289062 0.660156 3.738281 0.246094 3.082031 0.402344 Z M 6.851562 0.402344 C 7.25 0.5 7.261719 0.542969 7.261719 0.542969 L 7.144531 0.328125 C 6.972656 0.121094 6.660156 0 6.3125 0 C 5.78125 0 5.34375 0.316406 5.34375 0.714844 L 5.371094 0.925781 C 5.453125 0.824219 5.542969 0.738281 5.644531 0.660156 C 5.644531 0.660156 6.195312 0.246094 6.851562 0.402344 Z M 10 5.636719 C 10 6.941406 9.035156 8 7.84375 8 C 6.652344 8 5.6875 6.941406 5.6875 5.636719 C 5.6875 5.628906 5.691406 5.621094 5.691406 5.613281 C 5.691406 5.621094 5.691406 5.625 5.691406 5.632812 C 5.691406 5.632812 5.691406 5.503906 5.691406 5.613281 C 5.695312 4.96875 5.683594 4.589844 4.972656 4.601562 C 4.367188 4.613281 4.3125 4.90625 4.304688 5.441406 C 4.300781 5.410156 4.3125 5.574219 4.3125 5.636719 C 4.3125 6.941406 3.347656 8 2.15625 8 C 0.964844 8 0 6.941406 0 5.636719 C 0 5.085938 0.175781 4.546875 0.503906 4.125 C 0.453125 4.140625 2.207031 1.320312 2.207031 1.320312 C 2.234375 1.253906 2.273438 1.195312 2.316406 1.140625 C 2.523438 0.894531 2.890625 0.726562 3.304688 0.726562 C 3.949219 0.726562 4.46875 1.117188 4.46875 1.597656 C 4.46875 1.609375 4.46875 1.621094 4.46875 1.632812 C 4.464844 1.65625 4.464844 1.679688 4.460938 1.703125 L 4.367188 2.542969 C 4.460938 2.097656 4.695312 1.785156 4.96875 1.785156 C 5.238281 1.785156 5.46875 2.085938 5.5625 2.515625 L 5.476562 1.703125 C 5.472656 1.679688 5.46875 1.65625 5.46875 1.632812 C 5.464844 1.621094 5.464844 1.609375 5.464844 1.597656 C 5.464844 1.117188 5.984375 0.726562 6.628906 0.726562 C 7.046875 0.726562 7.410156 0.894531 7.617188 1.140625 C 7.660156 1.195312 7.699219 1.253906 7.726562 1.320312 L 9.472656 4.09375 C 9.8125 4.519531 10 5.070312 10 5.636719 Z M 3.753906 5.621094 C 3.753906 4.648438 3.035156 3.863281 2.148438 3.863281 C 1.261719 3.863281 0.539062 4.648438 0.539062 5.621094 C 0.539062 6.59375 1.261719 7.382812 2.148438 7.382812 C 3.035156 7.382812 3.753906 6.59375 3.753906 5.621094 Z M 9.445312 5.621094 C 9.445312 4.648438 8.726562 3.863281 7.835938 3.863281 C 6.949219 3.863281 6.230469 4.648438 6.230469 5.621094 C 6.230469 6.59375 6.949219 7.382812 7.835938 7.382812 C 8.726562 7.382812 9.445312 6.59375 9.445312 5.621094 Z M 4.984375 3.609375 C 4.816406 3.609375 4.679688 3.757812 4.679688 3.941406 C 4.679688 4.125 4.816406 4.273438 4.984375 4.273438 C 5.152344 4.273438 5.289062 4.125 5.289062 3.941406 C 5.289062 3.757812 5.152344 3.609375 4.984375 3.609375 Z M 4.984375 3.609375 "/>
</g>
</svg>
