<?xml version="1.0" encoding="UTF-8" standalone="no"?>
<!-- Created with Inkscape (http://www.inkscape.org/) -->

<svg
   xmlns:dc="http://purl.org/dc/elements/1.1/"
   xmlns:cc="http://creativecommons.org/ns#"
   xmlns:rdf="http://www.w3.org/1999/02/22-rdf-syntax-ns#"
   xmlns:svg="http://www.w3.org/2000/svg"
   xmlns="http://www.w3.org/2000/svg"
   xmlns:xlink="http://www.w3.org/1999/xlink"
   xmlns:sodipodi="http://sodipodi.sourceforge.net/DTD/sodipodi-0.dtd"
   xmlns:inkscape="http://www.inkscape.org/namespaces/inkscape"
   width="30px"
   height="30px"
   version="1.1"
   id="svg8"
   inkscape:version="0.92.4 5da689c313, 2019-01-14"
   sodipodi:docname="container.svg">
  <defs
     id="defs2" />
  <sodipodi:namedview
     id="base"
     pagecolor="#ffffff"
     bordercolor="#666666"
     borderopacity="1.0"
     inkscape:pageopacity="0.0"
     inkscape:pageshadow="2"
     inkscape:zoom="13.049334"
     inkscape:cx="18.679046"
     inkscape:cy="12.165829"
     inkscape:document-units="px"
     inkscape:current-layer="layer1"
     showgrid="false"
     inkscape:snap-page="false"
     units="px"
     inkscape:window-width="1884"
     inkscape:window-height="1061"
     inkscape:window-x="0"
     inkscape:window-y="0"
     inkscape:window-maximized="1"
     fit-margin-top="0"
     fit-margin-left="0"
     fit-margin-right="0"
     fit-margin-bottom="0" />
  <metadata
     id="metadata5">
    <rdf:RDF>
      <cc:Work
         rdf:about="">
        <dc:format>image/svg+xml</dc:format>
        <dc:type
           rdf:resource="http://purl.org/dc/dcmitype/StillImage" />
        <dc:title></dc:title>
      </cc:Work>
    </rdf:RDF>
  </metadata>
    <circle
       style="color:#000000;clip-rule:nonzero;display:inline;overflow:visible;visibility:visible;opacity:1;isolation:auto;mix-blend-mode:normal;color-interpolation:sRGB;color-interpolation-filters:linearRGB;solid-color:#000000;solid-opacity:1;vector-effect:none;fill:#ffffff;fill-opacity:1;fill-rule:evenodd;stroke:#00A757;stroke-width:1;stroke-linecap:butt;stroke-linejoin:miter;stroke-miterlimit:4;stroke-dasharray:none;stroke-dashoffset:0;stroke-opacity:1;marker:none;color-rendering:auto;image-rendering:auto;shape-rendering:auto;text-rendering:auto;enable-background:accumulate"
       id="path815"
       cx="15"
       cy="15"
       r="14.5" />
<g transform="translate(6,9)"><g id="surface1">
<path style=" stroke:none;fill-rule:nonzero;fill:rgb(30%,30%,30%);fill-opacity:1;" d="M 11.363281 3.015625 C 11.070312 3.660156 11.347656 4.421875 11.980469 4.71875 C 12.613281 5.011719 13.367188 4.730469 13.65625 4.085938 C 13.949219 3.441406 13.667969 2.679688 13.035156 2.386719 C 12.402344 2.089844 11.652344 2.371094 11.363281 3.015625 Z M 11.363281 3.015625 "/>
<path style=" stroke:none;fill-rule:nonzero;fill:rgb(30%,30%,30%);fill-opacity:1;" d="M 16.902344 8.0625 C 16.902344 8.0625 16.015625 5.175781 14.601562 4.207031 C 13.839844 3.679688 10.453125 7.6875 10.453125 7.6875 L 10.675781 8.078125 L 5 6.410156 C 5.101562 6.007812 5.144531 5.703125 5.074219 5.625 C 4.84375 5.351562 4.144531 4.835938 3.378906 4.375 L 4.523438 3.386719 L 6.222656 6.367188 L 6.863281 5.914062 C 6.863281 5.914062 5.429688 0.835938 4.523438 0.992188 C 2.941406 1.261719 1.09375 3.253906 0.871094 3.496094 C 0.550781 3.78125 0.269531 4.601562 0.152344 4.988281 L 0.00390625 5.472656 L 3.882812 6.601562 L 3.5 8.175781 L 3.25 8.863281 L 4.035156 9.339844 C 4.035156 9.339844 4.105469 9.160156 4.28125 8.660156 C 4.46875 8.144531 4.699219 7.472656 4.867188 6.890625 L 11.9375 8.949219 C 11.820312 9.613281 11.726562 10.578125 11.671875 11.28125 C 11.628906 11.804688 11.613281 12 11.613281 12 L 12.523438 11.898438 L 12.578125 11.167969 L 12.914062 9.375 L 13.8125 9.492188 L 16.808594 10.367188 L 16.863281 10.042969 L 16.902344 9.902344 C 16.90625 9.878906 17.113281 8.597656 16.902344 8.0625 Z M 12.195312 8.183594 C 12.144531 8.207031 12.089844 8.316406 12.042969 8.476562 L 11.085938 8.195312 L 13.617188 6.382812 L 14.253906 7.765625 C 13.367188 7.863281 12.519531 8.03125 12.195312 8.183594 Z M 12.195312 8.183594 "/>
<path style=" stroke:none;fill-rule:nonzero;fill:rgb(30%,30%,30%);fill-opacity:1;" d="M 7.957031 1.28125 C 7.957031 1.992188 7.390625 2.566406 6.691406 2.566406 C 5.996094 2.566406 5.429688 1.992188 5.429688 1.28125 C 5.429688 0.574219 5.996094 0 6.691406 0 C 7.390625 0 7.957031 0.574219 7.957031 1.28125 Z M 7.957031 1.28125 "/>
<path style=" stroke:none;fill-rule:nonzero;fill:rgb(30%,30%,30%);fill-opacity:1;" d="M 6.226562 11.511719 L 8.222656 8.875 L 9.796875 11.511719 Z M 6.226562 11.511719 "/>
</g>
</g>
</svg>
