<?xml version="1.0" encoding="UTF-8" standalone="no"?>
<!-- Created with Inkscape (http://www.inkscape.org/) -->

<svg
   xmlns:dc="http://purl.org/dc/elements/1.1/"
   xmlns:cc="http://creativecommons.org/ns#"
   xmlns:rdf="http://www.w3.org/1999/02/22-rdf-syntax-ns#"
   xmlns:svg="http://www.w3.org/2000/svg"
   xmlns="http://www.w3.org/2000/svg"
   xmlns:xlink="http://www.w3.org/1999/xlink"
   xmlns:sodipodi="http://sodipodi.sourceforge.net/DTD/sodipodi-0.dtd"
   xmlns:inkscape="http://www.inkscape.org/namespaces/inkscape"
   width="30px"
   height="30px"
   version="1.1"
   id="svg8"
   inkscape:version="0.92.4 5da689c313, 2019-01-14"
   sodipodi:docname="container.svg">
  <defs
     id="defs2" />
  <sodipodi:namedview
     id="base"
     pagecolor="#ffffff"
     bordercolor="#666666"
     borderopacity="1.0"
     inkscape:pageopacity="0.0"
     inkscape:pageshadow="2"
     inkscape:zoom="13.049334"
     inkscape:cx="18.679046"
     inkscape:cy="12.165829"
     inkscape:document-units="px"
     inkscape:current-layer="layer1"
     showgrid="false"
     inkscape:snap-page="false"
     units="px"
     inkscape:window-width="1884"
     inkscape:window-height="1061"
     inkscape:window-x="0"
     inkscape:window-y="0"
     inkscape:window-maximized="1"
     fit-margin-top="0"
     fit-margin-left="0"
     fit-margin-right="0"
     fit-margin-bottom="0" />
  <metadata
     id="metadata5">
    <rdf:RDF>
      <cc:Work
         rdf:about="">
        <dc:format>image/svg+xml</dc:format>
        <dc:type
           rdf:resource="http://purl.org/dc/dcmitype/StillImage" />
        <dc:title></dc:title>
      </cc:Work>
    </rdf:RDF>
  </metadata>
    <circle
       style="color:#000000;clip-rule:nonzero;display:inline;overflow:visible;visibility:visible;opacity:1;isolation:auto;mix-blend-mode:normal;color-interpolation:sRGB;color-interpolation-filters:linearRGB;solid-color:#000000;solid-opacity:1;vector-effect:none;fill:#ffffff;fill-opacity:1;fill-rule:evenodd;stroke:#00A757;stroke-width:1;stroke-linecap:butt;stroke-linejoin:miter;stroke-miterlimit:4;stroke-dasharray:none;stroke-dashoffset:0;stroke-opacity:1;marker:none;color-rendering:auto;image-rendering:auto;shape-rendering:auto;text-rendering:auto;enable-background:accumulate"
       id="path815"
       cx="15"
       cy="15"
       r="14.5" />
<g transform="translate(6,7)"><g id="surface1">
<path style=" stroke:none;fill-rule:nonzero;fill:rgb(30%,30%,30%);fill-opacity:1;" d="M 6.953125 5.515625 C 6.953125 5.816406 7.039062 6.109375 7.203125 6.359375 L 0 6.359375 L 0 4.113281 L 7.175781 4.113281 C 7.027344 4.351562 6.953125 4.628906 6.953125 4.910156 Z M 17 4.113281 L 12.503906 4.113281 C 12.652344 4.351562 12.726562 4.628906 12.726562 4.910156 L 12.726562 5.515625 C 12.726562 5.816406 12.640625 6.109375 12.476562 6.359375 L 17 6.359375 Z M 12.09375 4.113281 C 11.828125 3.671875 11.355469 3.402344 10.847656 3.402344 L 10.101562 3.402344 C 10.96875 3.277344 11.59375 2.488281 11.53125 1.589844 C 11.46875 0.695312 10.746094 0 9.871094 0 C 8.996094 0 8.269531 0.695312 8.207031 1.589844 C 8.148438 2.488281 8.773438 3.277344 9.640625 3.402344 L 8.886719 3.402344 C 8.074219 3.402344 7.417969 4.078125 7.417969 4.910156 L 7.417969 5.515625 C 7.417969 6.140625 7.796875 6.703125 8.367188 6.925781 L 8.800781 11.960938 C 8.5 12.066406 8.300781 12.359375 8.300781 12.683594 L 8.300781 14.109375 L 11.402344 14.109375 L 11.402344 12.683594 C 11.402344 12.402344 11.253906 12.144531 11.011719 12.011719 L 11.433594 6.898438 C 11.972656 6.65625 12.316406 6.113281 12.316406 5.515625 L 12.316406 4.910156 C 12.320312 4.628906 12.242188 4.351562 12.09375 4.113281 Z M 4.476562 12.800781 C 3.613281 12.800781 2.917969 13.515625 2.917969 14.402344 C 2.917969 15.285156 3.613281 16 4.476562 16 C 5.335938 16 6.03125 15.285156 6.03125 14.402344 C 6.03125 13.515625 5.335938 12.800781 4.476562 12.800781 Z M 4.476562 12.800781 "/>
</g>
</g>
</svg>
