<?xml version="1.0" encoding="UTF-8" standalone="no"?>
<!-- Created with Inkscape (http://www.inkscape.org/) -->

<svg
   xmlns:dc="http://purl.org/dc/elements/1.1/"
   xmlns:cc="http://creativecommons.org/ns#"
   xmlns:rdf="http://www.w3.org/1999/02/22-rdf-syntax-ns#"
   xmlns:svg="http://www.w3.org/2000/svg"
   xmlns="http://www.w3.org/2000/svg"
   xmlns:xlink="http://www.w3.org/1999/xlink"
   xmlns:sodipodi="http://sodipodi.sourceforge.net/DTD/sodipodi-0.dtd"
   xmlns:inkscape="http://www.inkscape.org/namespaces/inkscape"
   width="30px"
   height="30px"
   version="1.1"
   id="svg8"
   inkscape:version="0.92.4 5da689c313, 2019-01-14"
   sodipodi:docname="container.svg">
  <defs
     id="defs2" />
  <sodipodi:namedview
     id="base"
     pagecolor="#ffffff"
     bordercolor="#666666"
     borderopacity="1.0"
     inkscape:pageopacity="0.0"
     inkscape:pageshadow="2"
     inkscape:zoom="13.049334"
     inkscape:cx="18.679046"
     inkscape:cy="12.165829"
     inkscape:document-units="px"
     inkscape:current-layer="layer1"
     showgrid="false"
     inkscape:snap-page="false"
     units="px"
     inkscape:window-width="1884"
     inkscape:window-height="1061"
     inkscape:window-x="0"
     inkscape:window-y="0"
     inkscape:window-maximized="1"
     fit-margin-top="0"
     fit-margin-left="0"
     fit-margin-right="0"
     fit-margin-bottom="0" />
  <metadata
     id="metadata5">
    <rdf:RDF>
      <cc:Work
         rdf:about="">
        <dc:format>image/svg+xml</dc:format>
        <dc:type
           rdf:resource="http://purl.org/dc/dcmitype/StillImage" />
        <dc:title></dc:title>
      </cc:Work>
    </rdf:RDF>
  </metadata>
    <circle
       style="color:#000000;clip-rule:nonzero;display:inline;overflow:visible;visibility:visible;opacity:1;isolation:auto;mix-blend-mode:normal;color-interpolation:sRGB;color-interpolation-filters:linearRGB;solid-color:#000000;solid-opacity:1;vector-effect:none;fill:#00a19a;fill-opacity:1;fill-rule:evenodd;stroke:#ffffff;stroke-width:1;stroke-linecap:butt;stroke-linejoin:miter;stroke-miterlimit:4;stroke-dasharray:none;stroke-dashoffset:0;stroke-opacity:1;marker:none;color-rendering:auto;image-rendering:auto;shape-rendering:auto;text-rendering:auto;enable-background:accumulate"
       id="path815"
       cx="15"
       cy="15"
       r="14.5" />
<g transform="translate(7,9)"><g id="surface1">
<path style=" stroke:none;fill-rule:nonzero;fill:#FFFFFF;fill-opacity:1;" d="M 15.992188 10.847656 L 12.78125 2.886719 C 12.78125 2.886719 1.007812 0.0351562 0.664062 0 C 0.316406 -0.03125 0.00390625 0.558594 0.00390625 0.558594 C 0.0351562 0.789062 5.148438 2.839844 6.628906 3.445312 C 7.644531 3.859375 8.75 4.476562 9.546875 4.976562 L 6.84375 6.710938 C 6.808594 6.734375 6.796875 6.785156 6.816406 6.824219 C 6.839844 6.863281 6.890625 6.875 6.925781 6.851562 L 9.695312 5.070312 C 9.714844 5.085938 9.734375 5.097656 9.753906 5.109375 L 9 6.429688 C 8.929688 6.550781 8.96875 6.707031 9.082031 6.785156 L 9.269531 6.910156 C 8.566406 7.195312 7.691406 7.597656 7.542969 7.742188 C 7.320312 7.960938 7.570312 8.003906 7.90625 8.0625 C 8.242188 8.121094 10.03125 7.742188 10.03125 7.742188 L 10.300781 7.605469 L 11.457031 8.382812 C 11.511719 8.417969 11.578125 8.414062 11.625 8.371094 C 11.675781 8.332031 11.691406 8.261719 11.667969 8.199219 L 11.144531 6.832031 C 11.246094 6.808594 11.320312 6.722656 11.339844 6.617188 C 11.359375 6.511719 11.320312 6.40625 11.234375 6.34375 C 11.152344 6.28125 11.042969 6.273438 10.953125 6.324219 L 10.78125 5.875 C 12.847656 7.757812 14.140625 10.691406 15.113281 10.914062 C 16.117188 11.140625 15.992188 10.847656 15.992188 10.847656 Z M 10.664062 7.652344 L 10.464844 7.519531 L 10.664062 7.421875 Z M 11.125 7.226562 L 11.507812 8.222656 L 11.3125 8.09375 L 11.320312 8.078125 L 10.859375 7.625 Z M 10.859375 6.71875 C 10.8125 6.699219 10.765625 6.6875 10.71875 6.679688 C 10.71875 6.679688 10.535156 6.519531 10.089844 6.621094 C 9.964844 6.648438 9.730469 6.730469 9.453125 6.839844 L 9.167969 6.644531 C 9.125 6.617188 9.109375 6.558594 9.136719 6.511719 L 9.886719 5.195312 C 10.167969 5.382812 10.390625 5.539062 10.523438 5.652344 L 10.835938 6.460938 C 10.800781 6.546875 10.808594 6.644531 10.859375 6.71875 Z M 10.859375 6.71875 "/>
</g>
</g>
</svg>
