<?xml version="1.0" encoding="UTF-8" standalone="no"?>
<!-- Created with Inkscape (http://www.inkscape.org/) -->

<svg
   xmlns:dc="http://purl.org/dc/elements/1.1/"
   xmlns:cc="http://creativecommons.org/ns#"
   xmlns:rdf="http://www.w3.org/1999/02/22-rdf-syntax-ns#"
   xmlns:svg="http://www.w3.org/2000/svg"
   xmlns="http://www.w3.org/2000/svg"
   xmlns:xlink="http://www.w3.org/1999/xlink"
   xmlns:sodipodi="http://sodipodi.sourceforge.net/DTD/sodipodi-0.dtd"
   xmlns:inkscape="http://www.inkscape.org/namespaces/inkscape"
   width="30px"
   height="30px"
   version="1.1"
   id="svg8"
   inkscape:version="0.92.4 5da689c313, 2019-01-14"
   sodipodi:docname="container.svg">
  <defs
     id="defs2" />
  <sodipodi:namedview
     id="base"
     pagecolor="#ffffff"
     bordercolor="#666666"
     borderopacity="1.0"
     inkscape:pageopacity="0.0"
     inkscape:pageshadow="2"
     inkscape:zoom="13.049334"
     inkscape:cx="18.679046"
     inkscape:cy="12.165829"
     inkscape:document-units="px"
     inkscape:current-layer="layer1"
     showgrid="false"
     inkscape:snap-page="false"
     units="px"
     inkscape:window-width="1884"
     inkscape:window-height="1061"
     inkscape:window-x="0"
     inkscape:window-y="0"
     inkscape:window-maximized="1"
     fit-margin-top="0"
     fit-margin-left="0"
     fit-margin-right="0"
     fit-margin-bottom="0" />
  <metadata
     id="metadata5">
    <rdf:RDF>
      <cc:Work
         rdf:about="">
        <dc:format>image/svg+xml</dc:format>
        <dc:type
           rdf:resource="http://purl.org/dc/dcmitype/StillImage" />
        <dc:title></dc:title>
      </cc:Work>
    </rdf:RDF>
  </metadata>
    <circle
       style="color:#000000;clip-rule:nonzero;display:inline;overflow:visible;visibility:visible;opacity:1;isolation:auto;mix-blend-mode:normal;color-interpolation:sRGB;color-interpolation-filters:linearRGB;solid-color:#000000;solid-opacity:1;vector-effect:none;fill:#00A757;fill-opacity:1;fill-rule:evenodd;stroke:#ffffff;stroke-width:1;stroke-linecap:butt;stroke-linejoin:miter;stroke-miterlimit:4;stroke-dasharray:none;stroke-dashoffset:0;stroke-opacity:1;marker:none;color-rendering:auto;image-rendering:auto;shape-rendering:auto;text-rendering:auto;enable-background:accumulate"
       id="path815"
       cx="15"
       cy="15"
       r="14.5" />
<g transform="translate(6,8)"><g id="surface1">
<path style=" stroke:none;fill-rule:nonzero;fill:#FFFFFF;fill-opacity:1;" d="M 1.273438 5.003906 C 2.242188 4.535156 4.257812 4.203125 4.351562 4.429688 C 4.351562 4.429688 4.515625 3.292969 4.527344 3.125 C 3.703125 3.246094 2.917969 3.566406 2.238281 4.0625 C 1.574219 4.550781 1.203125 5.035156 1.273438 5.003906 Z M 1.273438 5.003906 "/>
<path style=" stroke:none;fill-rule:nonzero;fill:#FFFFFF;fill-opacity:1;" d="M 3.539062 7.691406 C 3.539062 7.691406 4.648438 9.0625 4.679688 9.035156 C 6.476562 7.652344 7.164062 4.40625 7.203125 3.433594 C 6.617188 3.199219 5.996094 3.078125 5.371094 3.066406 C 5.039062 6.433594 3.539062 7.691406 3.539062 7.691406 Z M 3.539062 7.691406 "/>
<path style=" stroke:none;fill-rule:nonzero;fill:#FFFFFF;fill-opacity:1;" d="M 5.304688 9.59375 L 6.167969 10.203125 L 7.191406 10.738281 C 7.191406 10.738281 9.492188 9.429688 9.785156 5.628906 C 9.785156 5.628906 9.785156 5.625 9.785156 5.625 C 9.730469 5.539062 9.675781 5.453125 9.621094 5.371094 C 9.554688 5.277344 9.472656 5.167969 9.378906 5.046875 C 8.976562 4.546875 8.492188 4.125 7.945312 3.800781 C 7.824219 4.9375 7.324219 7.710938 5.304688 9.59375 Z M 5.304688 9.59375 "/>
<path style=" stroke:none;fill-rule:nonzero;fill:#FFFFFF;fill-opacity:1;" d="M 10.476562 7.359375 C 10.457031 7.273438 10.4375 7.1875 10.414062 7.105469 C 10.351562 7.214844 10.035156 8.386719 9.507812 9.378906 C 9.046875 10.242188 8.308594 10.980469 8.125 11.042969 L 9.851562 11.332031 C 9.894531 11.253906 9.9375 11.175781 9.980469 11.097656 C 10.238281 10.5625 10.785156 9.164062 10.476562 7.359375 Z M 10.476562 7.359375 "/>
<path style=" stroke:none;fill-rule:nonzero;fill:#FFFFFF;fill-opacity:1;" d="M 9.300781 12.085938 C 4.699219 11.527344 2.847656 8.050781 2.847656 8.050781 C 2.847656 8.050781 1.429688 8.410156 1.429688 8.640625 C 1.429688 8.785156 2.441406 10.832031 3.660156 11.742188 C 5.273438 12.953125 7.234375 13.339844 7.683594 13.414062 C 7.878906 13.3125 8.070312 13.195312 8.253906 13.070312 C 8.535156 12.839844 8.878906 12.546875 9.097656 12.339844 C 9.171875 12.265625 9.242188 12.183594 9.308594 12.101562 C 9.3125 12.09375 9.3125 12.085938 9.300781 12.085938 Z M 9.300781 12.085938 "/>
<path style=" stroke:none;fill-rule:nonzero;fill:#FFFFFF;fill-opacity:1;" d="M 0.804688 9.199219 L 0.25 10.257812 C 0.25 10.257812 0.480469 11.035156 1.078125 11.859375 C 2.082031 13.210938 3.640625 14.003906 5.289062 14 C 5.628906 14 5.96875 13.964844 6.304688 13.898438 C 6.300781 13.898438 6.296875 13.894531 6.289062 13.894531 C 2.167969 12.945312 0.804688 9.199219 0.804688 9.199219 Z M 0.804688 9.199219 "/>
<path style=" stroke:none;fill-rule:nonzero;fill:#FFFFFF;fill-opacity:1;" d="M 0.0273438 8.929688 C 1.203125 7.261719 2.621094 7.261719 2.847656 7.242188 C 3.070312 7.226562 4.230469 5.226562 4.09375 5.21875 C 1.976562 5.097656 0.390625 6.625 0.277344 6.734375 C 0.242188 6.832031 0.210938 6.933594 0.183594 7.03125 C 0.0585938 7.667969 -0.046875 9.035156 0.0273438 8.929688 Z M 0.0273438 8.929688 "/>
<path style=" stroke:none;fill-rule:nonzero;fill:#FFFFFF;fill-opacity:1;" d="M 16.996094 6.390625 L 16.996094 0.265625 C 16.996094 0.136719 16.894531 0.03125 16.765625 0.03125 C 16.640625 0.03125 16.539062 0.136719 16.539062 0.265625 L 16.539062 1.289062 C 15.011719 0.785156 12.410156 0.40625 9.789062 0.3125 C 6.640625 0.199219 3.871094 0.484375 1.945312 1.121094 L 1.945312 0.234375 C 1.945312 0.105469 1.84375 0 1.71875 0 C 1.59375 0 1.492188 0.105469 1.492188 0.234375 L 1.492188 4.324219 C 1.636719 4.183594 1.789062 4.050781 1.945312 3.925781 L 1.945312 1.652344 C 3.820312 1 6.597656 0.703125 9.773438 0.816406 C 10.203125 0.832031 10.632812 0.855469 11.054688 0.886719 C 11.050781 1.210938 11.046875 1.53125 11.042969 1.839844 C 8.832031 1.691406 6.804688 1.804688 5.28125 1.984375 L 5.675781 2.171875 C 7.191406 1.996094 8.839844 1.933594 11.039062 2.085938 C 11.035156 2.382812 11.035156 2.671875 11.039062 2.953125 C 9.960938 2.875 8.578125 2.851562 7.464844 2.890625 L 7.847656 3.132812 C 8.914062 3.097656 9.976562 3.117188 11.039062 3.199219 C 11.042969 3.519531 11.050781 3.835938 11.066406 4.136719 C 10.441406 4.09375 9.8125 4.066406 9.175781 4.0625 L 9.507812 4.3125 C 10.148438 4.320312 10.449219 4.335938 11.078125 4.382812 C 11.09375 4.675781 11.117188 4.957031 11.148438 5.230469 C 10.78125 5.203125 10.402344 5.179688 10.019531 5.164062 C 9.957031 5.160156 9.90625 5.171875 9.84375 5.167969 C 9.96875 5.34375 10.082031 5.523438 10.183594 5.710938 C 12.945312 5.859375 15.414062 6.285156 16.539062 6.652344 L 16.539062 10.871094 C 16.539062 11 16.640625 11.105469 16.765625 11.105469 C 16.894531 11.105469 16.996094 11 16.996094 10.871094 L 16.996094 6.476562 C 17 6.449219 17 6.421875 16.996094 6.390625 Z M 12.339844 2.203125 C 12.621094 2.238281 12.90625 2.273438 13.195312 2.316406 C 13.1875 2.609375 13.179688 2.902344 13.175781 3.1875 C 12.898438 3.144531 12.621094 3.109375 12.34375 3.078125 C 12.339844 2.8125 12.339844 2.519531 12.339844 2.203125 Z M 13.40625 3.46875 C 13.664062 3.507812 13.921875 3.550781 14.179688 3.601562 C 14.171875 3.925781 14.171875 4.234375 14.179688 4.535156 C 13.921875 4.488281 13.667969 4.445312 13.410156 4.402344 C 13.402344 4.101562 13.402344 3.789062 13.40625 3.46875 Z M 13.410156 3.222656 C 13.414062 2.9375 13.421875 2.644531 13.429688 2.351562 C 13.683594 2.390625 13.941406 2.433594 14.203125 2.480469 C 14.199219 2.558594 14.199219 2.632812 14.195312 2.707031 C 14.191406 2.929688 14.1875 3.144531 14.183594 3.355469 C 13.925781 3.304688 13.667969 3.261719 13.410156 3.222656 Z M 14.429688 2.714844 C 14.433594 2.652344 14.433594 2.589844 14.433594 2.527344 C 14.714844 2.582031 14.996094 2.640625 15.277344 2.703125 C 15.273438 3 15.273438 3.292969 15.277344 3.582031 C 14.992188 3.515625 14.707031 3.453125 14.417969 3.398438 C 14.421875 3.179688 14.425781 2.949219 14.429688 2.714844 Z M 14.441406 2.28125 C 14.445312 1.96875 14.453125 1.644531 14.457031 1.300781 C 14.75 1.355469 15.035156 1.414062 15.296875 1.472656 C 15.292969 1.804688 15.285156 2.132812 15.28125 2.457031 C 15 2.390625 14.71875 2.332031 14.441406 2.28125 Z M 14.207031 2.234375 C 13.949219 2.1875 13.691406 2.144531 13.4375 2.105469 C 13.441406 2.007812 13.441406 1.910156 13.445312 1.8125 C 13.453125 1.59375 13.457031 1.367188 13.464844 1.140625 C 13.726562 1.179688 13.976562 1.21875 14.222656 1.261719 C 14.21875 1.601562 14.214844 1.925781 14.207031 2.234375 Z M 13.210938 1.804688 C 13.207031 1.894531 13.207031 1.984375 13.203125 2.070312 C 12.914062 2.027344 12.625 1.992188 12.339844 1.960938 C 12.34375 1.664062 12.347656 1.347656 12.355469 1.003906 C 12.652344 1.035156 12.945312 1.070312 13.230469 1.109375 C 13.222656 1.34375 13.21875 1.578125 13.210938 1.804688 Z M 13.171875 3.433594 C 13.167969 3.753906 13.167969 4.066406 13.175781 4.367188 C 12.910156 4.328125 12.648438 4.292969 12.378906 4.261719 C 12.367188 3.988281 12.355469 3.679688 12.347656 3.320312 C 12.625 3.355469 12.898438 3.390625 13.171875 3.433594 Z M 13.179688 4.613281 C 13.191406 4.902344 13.203125 5.179688 13.226562 5.445312 C 12.980469 5.410156 12.726562 5.382812 12.464844 5.351562 C 12.441406 5.113281 12.414062 4.839844 12.394531 4.507812 C 12.660156 4.539062 12.921875 4.574219 13.179688 4.613281 Z M 13.417969 4.648438 C 13.675781 4.691406 13.929688 4.734375 14.183594 4.78125 C 14.191406 5.058594 14.207031 5.324219 14.234375 5.589844 C 13.988281 5.550781 13.734375 5.511719 13.464844 5.476562 C 13.441406 5.210938 13.425781 4.9375 13.417969 4.648438 Z M 14.421875 4.828125 C 14.722656 4.886719 15.023438 4.953125 15.320312 5.023438 C 15.335938 5.289062 15.355469 5.546875 15.378906 5.800781 C 15.101562 5.742188 14.796875 5.683594 14.472656 5.628906 C 14.445312 5.367188 14.429688 5.101562 14.421875 4.828125 Z M 14.414062 4.578125 C 14.40625 4.28125 14.40625 3.972656 14.414062 3.644531 C 14.703125 3.703125 14.992188 3.761719 15.28125 3.828125 C 15.285156 4.148438 15.292969 4.464844 15.308594 4.769531 C 15.011719 4.699219 14.714844 4.636719 14.414062 4.578125 Z M 15.515625 3.886719 C 15.859375 3.96875 16.203125 4.058594 16.539062 4.15625 L 16.539062 5.085938 C 16.210938 4.992188 15.878906 4.90625 15.542969 4.824219 C 15.53125 4.519531 15.519531 4.207031 15.515625 3.886719 Z M 15.511719 3.636719 C 15.507812 3.347656 15.507812 3.054688 15.511719 2.757812 C 15.851562 2.839844 16.195312 2.929688 16.539062 3.027344 L 16.539062 3.902344 C 16.199219 3.808594 15.859375 3.71875 15.511719 3.636719 Z M 16.539062 2.773438 C 16.195312 2.679688 15.855469 2.589844 15.515625 2.511719 C 15.519531 2.1875 15.523438 1.859375 15.53125 1.527344 C 15.910156 1.621094 16.246094 1.71875 16.539062 1.820312 Z M 11.289062 0.902344 C 11.570312 0.925781 11.847656 0.949219 12.121094 0.976562 C 12.113281 1.289062 12.109375 1.609375 12.105469 1.933594 C 11.828125 1.90625 11.550781 1.878906 11.277344 1.859375 C 11.28125 1.546875 11.285156 1.230469 11.289062 0.902344 Z M 11.273438 2.101562 C 11.546875 2.125 11.824219 2.148438 12.105469 2.179688 C 12.101562 2.46875 12.105469 2.757812 12.109375 3.050781 C 11.832031 3.019531 11.554688 2.992188 11.273438 2.972656 C 11.269531 2.6875 11.269531 2.398438 11.273438 2.101562 Z M 11.273438 3.214844 C 11.554688 3.238281 11.835938 3.265625 12.113281 3.296875 C 12.117188 3.613281 12.128906 3.925781 12.144531 4.234375 C 11.867188 4.207031 11.585938 4.179688 11.300781 4.15625 C 11.289062 3.851562 11.277344 3.539062 11.273438 3.214844 Z M 11.316406 4.402344 C 11.597656 4.425781 11.878906 4.449219 12.160156 4.480469 C 12.175781 4.769531 12.199219 5.054688 12.226562 5.328125 C 11.953125 5.300781 11.675781 5.273438 11.386719 5.25 C 11.355469 4.976562 11.332031 4.691406 11.316406 4.402344 Z M 15.621094 5.851562 C 15.59375 5.601562 15.574219 5.34375 15.558594 5.078125 C 15.886719 5.160156 16.214844 5.246094 16.539062 5.339844 L 16.539062 6.085938 C 16.285156 6.011719 15.976562 5.929688 15.621094 5.851562 Z M 15.621094 5.851562 "/>
</g>
</g>
</svg>
