<?xml version="1.0" encoding="UTF-8"?>
<svg xmlns="http://www.w3.org/2000/svg" xmlns:xlink="http://www.w3.org/1999/xlink" width="11px" height="7px" viewBox="0 0 11 7" version="1.1">
<g id="surface1">
<path style=" stroke:none;fill-rule:nonzero;fill:rgb(30%,30%,30%);fill-opacity:1;" d="M 5.492188 3.539062 C 4.945312 2.058594 4.3125 1.765625 4.089844 1.601562 C 4.027344 1.59375 5.261719 0 5.5 0 C 5.734375 0 6.945312 1.582031 6.914062 1.601562 C 6.855469 1.636719 5.867188 2.261719 5.492188 3.539062 Z M 5.492188 3.539062 "/>
<path style=" stroke:none;fill-rule:nonzero;fill:rgb(30%,30%,30%);fill-opacity:1;" d="M 2.25 1.308594 C 2.253906 1.300781 3.625 1.355469 4.671875 2.953125 C 5.527344 4.257812 5.410156 6.546875 5.335938 6.589844 C 5.253906 6.632812 3.507812 6.386719 2.640625 4.664062 C 1.96875 3.335938 2.21875 1.375 2.25 1.308594 Z M 2.25 1.308594 "/>
<path style=" stroke:none;fill-rule:nonzero;fill:rgb(30%,30%,30%);fill-opacity:1;" d="M 8.753906 1.300781 C 8.75 1.292969 7.378906 1.347656 6.332031 2.945312 C 5.476562 4.25 5.59375 6.542969 5.667969 6.582031 C 5.75 6.628906 7.496094 6.378906 8.363281 4.660156 C 9.035156 3.328125 8.789062 1.367188 8.753906 1.300781 Z M 8.753906 1.300781 "/>
<path style=" stroke:none;fill-rule:nonzero;fill:rgb(30%,30%,30%);fill-opacity:1;" d="M 0.00390625 3.800781 C 0.00390625 3.800781 1.949219 7.890625 4.652344 6.824219 C 4.746094 6.785156 2.671875 6.761719 1.859375 3.484375 C 1.835938 3.394531 0.980469 3.40625 0.746094 3.457031 C 0.203125 3.578125 0.00390625 3.800781 0.00390625 3.800781 Z M 0.00390625 3.800781 "/>
<path style=" stroke:none;fill-rule:nonzero;fill:rgb(30%,30%,30%);fill-opacity:1;" d="M 10.996094 3.800781 C 10.996094 3.800781 9.050781 7.890625 6.347656 6.824219 C 6.253906 6.785156 8.328125 6.761719 9.140625 3.484375 C 9.164062 3.394531 10.019531 3.40625 10.253906 3.457031 C 10.796875 3.578125 10.996094 3.800781 10.996094 3.800781 Z M 10.996094 3.800781 "/>
</g>
</svg>
