<?xml version="1.0" encoding="UTF-8" standalone="no"?>
<!-- Created with Inkscape (http://www.inkscape.org/) -->

<svg
   xmlns:dc="http://purl.org/dc/elements/1.1/"
   xmlns:cc="http://creativecommons.org/ns#"
   xmlns:rdf="http://www.w3.org/1999/02/22-rdf-syntax-ns#"
   xmlns:svg="http://www.w3.org/2000/svg"
   xmlns="http://www.w3.org/2000/svg"
   xmlns:xlink="http://www.w3.org/1999/xlink"
   xmlns:sodipodi="http://sodipodi.sourceforge.net/DTD/sodipodi-0.dtd"
   xmlns:inkscape="http://www.inkscape.org/namespaces/inkscape"
   width="30px"
   height="30px"
   version="1.1"
   id="svg8"
   inkscape:version="0.92.4 5da689c313, 2019-01-14"
   sodipodi:docname="container.svg">
  <defs
     id="defs2" />
  <sodipodi:namedview
     id="base"
     pagecolor="#ffffff"
     bordercolor="#666666"
     borderopacity="1.0"
     inkscape:pageopacity="0.0"
     inkscape:pageshadow="2"
     inkscape:zoom="13.049334"
     inkscape:cx="18.679046"
     inkscape:cy="12.165829"
     inkscape:document-units="px"
     inkscape:current-layer="layer1"
     showgrid="false"
     inkscape:snap-page="false"
     units="px"
     inkscape:window-width="1884"
     inkscape:window-height="1061"
     inkscape:window-x="0"
     inkscape:window-y="0"
     inkscape:window-maximized="1"
     fit-margin-top="0"
     fit-margin-left="0"
     fit-margin-right="0"
     fit-margin-bottom="0" />
  <metadata
     id="metadata5">
    <rdf:RDF>
      <cc:Work
         rdf:about="">
        <dc:format>image/svg+xml</dc:format>
        <dc:type
           rdf:resource="http://purl.org/dc/dcmitype/StillImage" />
        <dc:title></dc:title>
      </cc:Work>
    </rdf:RDF>
  </metadata>
    <circle
       style="color:#000000;clip-rule:nonzero;display:inline;overflow:visible;visibility:visible;opacity:1;isolation:auto;mix-blend-mode:normal;color-interpolation:sRGB;color-interpolation-filters:linearRGB;solid-color:#000000;solid-opacity:1;vector-effect:none;fill:#ffffff;fill-opacity:1;fill-rule:evenodd;stroke:#00A757;stroke-width:1;stroke-linecap:butt;stroke-linejoin:miter;stroke-miterlimit:4;stroke-dasharray:none;stroke-dashoffset:0;stroke-opacity:1;marker:none;color-rendering:auto;image-rendering:auto;shape-rendering:auto;text-rendering:auto;enable-background:accumulate"
       id="path815"
       cx="15"
       cy="15"
       r="14.5" />
<g transform="translate(6,10)"><g id="surface1">
<path style=" stroke:none;fill-rule:nonzero;fill:rgb(30%,30%,30%);fill-opacity:1;" d="M 14.058594 1.015625 L 14.058594 8.984375 C 14.058594 9.542969 13.613281 9.996094 13.058594 9.996094 C 12.507812 9.996094 12.0625 9.542969 12.0625 8.984375 L 12.0625 6.28125 L 4.9375 6.28125 L 4.9375 8.984375 C 4.9375 9.542969 4.492188 9.996094 3.941406 9.996094 C 3.390625 9.996094 2.941406 9.542969 2.941406 8.984375 L 2.941406 1.015625 C 2.941406 0.457031 3.390625 0.00390625 3.941406 0.00390625 C 4.492188 0.00390625 4.9375 0.457031 4.9375 1.015625 L 4.9375 3.71875 L 12.0625 3.71875 L 12.0625 1.015625 C 12.0625 0.457031 12.507812 0.00390625 13.058594 0.00390625 C 13.613281 0.00390625 14.058594 0.457031 14.058594 1.015625 Z M 2.484375 7.566406 L 2.484375 2.433594 C 2.480469 2.011719 2.144531 1.671875 1.726562 1.667969 C 1.308594 1.671875 0.972656 2.011719 0.972656 2.433594 L 0.972656 7.566406 C 0.972656 7.988281 1.308594 8.328125 1.726562 8.332031 C 2.144531 8.328125 2.480469 7.988281 2.484375 7.566406 Z M 16.027344 7.566406 L 16.027344 2.433594 C 16.027344 2.011719 15.691406 1.671875 15.273438 1.667969 C 14.855469 1.671875 14.519531 2.011719 14.515625 2.433594 L 14.515625 7.566406 C 14.519531 7.988281 14.855469 8.328125 15.273438 8.332031 C 15.691406 8.328125 16.027344 7.988281 16.027344 7.566406 Z M 0.648438 5.546875 L 0.648438 4.453125 C 0.648438 4.273438 0.503906 4.125 0.324219 4.125 C 0.144531 4.125 0 4.273438 0 4.453125 L 0 5.546875 C 0 5.726562 0.144531 5.875 0.324219 5.875 C 0.503906 5.875 0.648438 5.726562 0.648438 5.546875 Z M 17 5.546875 L 17 4.453125 C 17 4.273438 16.855469 4.125 16.675781 4.125 C 16.496094 4.125 16.351562 4.273438 16.351562 4.453125 L 16.351562 5.546875 C 16.351562 5.726562 16.496094 5.875 16.675781 5.875 C 16.855469 5.875 17 5.726562 17 5.546875 Z M 17 5.546875 "/>
</g>
</g>
</svg>
