<?xml version="1.0" encoding="UTF-8"?>
<svg xmlns="http://www.w3.org/2000/svg" xmlns:xlink="http://www.w3.org/1999/xlink" width="9px" height="4px" viewBox="0 0 9 4" version="1.1">
<g id="surface1">
<path style=" stroke:none;fill-rule:nonzero;fill:rgb(30%,30%,30%);fill-opacity:1;" d="M 1.355469 2.347656 C 0.9375 2.347656 0.601562 2.71875 0.601562 3.171875 C 0.601562 3.628906 0.9375 4 1.355469 4 C 1.773438 4 2.113281 3.628906 2.113281 3.171875 C 2.113281 2.71875 1.773438 2.347656 1.355469 2.347656 Z M 1.355469 3.667969 C 1.105469 3.667969 0.902344 3.449219 0.902344 3.171875 C 0.902344 2.898438 1.105469 2.675781 1.355469 2.675781 C 1.605469 2.675781 1.8125 2.898438 1.8125 3.171875 C 1.8125 3.449219 1.605469 3.667969 1.355469 3.667969 Z M 1.355469 3.667969 "/>
<path style=" stroke:none;fill-rule:nonzero;fill:rgb(30%,30%,30%);fill-opacity:1;" d="M 5.683594 2.347656 C 5.265625 2.347656 4.925781 2.71875 4.925781 3.171875 C 4.925781 3.628906 5.265625 4 5.683594 4 C 6.097656 4 6.4375 3.628906 6.4375 3.171875 C 6.4375 2.71875 6.097656 2.347656 5.683594 2.347656 Z M 5.683594 3.667969 C 5.429688 3.667969 5.226562 3.449219 5.226562 3.171875 C 5.226562 2.898438 5.429688 2.675781 5.683594 2.675781 C 5.933594 2.675781 6.136719 2.898438 6.136719 3.171875 C 6.136719 3.449219 5.933594 3.667969 5.683594 3.667969 Z M 5.683594 3.667969 "/>
<path style=" stroke:none;fill-rule:nonzero;fill:rgb(30%,30%,30%);fill-opacity:1;" d="M 0.390625 3.769531 L 0.585938 3.769531 C 0.460938 3.578125 0.398438 3.34375 0.414062 3.109375 C 0.421875 2.980469 0.449219 2.851562 0.503906 2.734375 L 0 2.734375 Z M 0.390625 3.769531 "/>
<path style=" stroke:none;fill-rule:nonzero;fill:rgb(30%,30%,30%);fill-opacity:1;" d="M 4.945312 2.265625 C 4.902344 2.226562 4.796875 2.234375 4.65625 2.246094 C 4.519531 2.257812 4.058594 2.335938 4.058594 2.335938 L 3.53125 2.089844 L 4.453125 2.144531 L 4.496094 2.058594 C 4.542969 2.09375 4.621094 2.113281 4.65625 2.070312 L 4.929688 1.773438 L 5.238281 1.976562 L 5.496094 2.15625 L 5.667969 2.140625 C 6.027344 2.132812 6.359375 2.351562 6.523438 2.703125 C 6.6875 3.050781 6.65625 3.472656 6.441406 3.789062 L 9 3.78125 L 8.988281 3.445312 L 8.027344 3.445312 L 7.890625 3.339844 L 8.945312 3.34375 L 8.507812 2.921875 L 7.652344 2.949219 L 7.449219 2.753906 L 8.335938 2.734375 L 5.617188 1.0625 L 5.671875 1.875 L 5.15625 1.519531 L 5.402344 1.253906 C 5.425781 1.226562 5.4375 1.191406 5.433594 1.15625 C 5.433594 1.121094 5.417969 1.085938 5.390625 1.066406 C 5.34375 1.027344 5.277344 1.035156 5.238281 1.082031 L 4.957031 1.382812 L 4.925781 1.417969 L 4.78125 1.578125 C 4.753906 1.574219 4.71875 1.566406 4.695312 1.574219 C 4.65625 1.585938 4.480469 1.734375 4.480469 1.734375 C 4.480469 1.734375 4.449219 1.738281 4.304688 1.730469 C 4.164062 1.722656 2.800781 1.539062 2.6875 1.480469 C 2.621094 1.445312 2.589844 1.398438 2.578125 1.367188 L 3.15625 1.308594 L 3.046875 0.859375 L 2.984375 0.859375 C 2.902344 0.859375 2.757812 0.855469 2.734375 0.851562 C 2.386719 0.804688 2.121094 0.664062 2.132812 0.542969 C 2.148438 0.417969 2.441406 0.359375 2.785156 0.40625 C 2.792969 0.40625 2.878906 0.414062 2.882812 0.414062 C 2.789062 0.171875 2.492188 0 2.234375 0 C 1.945312 0 1.691406 0.222656 1.628906 0.53125 C 1.566406 0.84375 1.710938 1.160156 1.976562 1.292969 L 1.972656 1.304688 L 1.855469 1.636719 C 1.855469 1.636719 1.609375 1.207031 1.496094 1.1875 C 1.414062 1.167969 1.613281 1.730469 1.496094 1.773438 C 1.328125 1.832031 0.710938 1.757812 0.703125 1.773438 C 0.648438 1.917969 0.527344 2.199219 0.464844 2.335938 C 0.453125 2.359375 0 2.335938 0 2.335938 L 0 2.664062 L 0.503906 2.664062 C 0.652344 2.386719 0.976562 2.144531 1.34375 2.140625 C 1.699219 2.132812 2.03125 2.347656 2.195312 2.695312 C 2.359375 3.039062 2.332031 3.460938 2.125 3.777344 L 4.917969 3.785156 C 4.625 3.34375 4.691406 2.730469 5.078125 2.382812 Z M 4.945312 2.265625 "/>
</g>
</svg>
