<?xml version="1.0" encoding="UTF-8" standalone="no"?>
<!-- Created with Inkscape (http://www.inkscape.org/) -->

<svg
   xmlns:dc="http://purl.org/dc/elements/1.1/"
   xmlns:cc="http://creativecommons.org/ns#"
   xmlns:rdf="http://www.w3.org/1999/02/22-rdf-syntax-ns#"
   xmlns:svg="http://www.w3.org/2000/svg"
   xmlns="http://www.w3.org/2000/svg"
   xmlns:xlink="http://www.w3.org/1999/xlink"
   xmlns:sodipodi="http://sodipodi.sourceforge.net/DTD/sodipodi-0.dtd"
   xmlns:inkscape="http://www.inkscape.org/namespaces/inkscape"
   width="30px"
   height="30px"
   version="1.1"
   id="svg8"
   inkscape:version="0.92.4 5da689c313, 2019-01-14"
   sodipodi:docname="container.svg">
  <defs
     id="defs2" />
  <sodipodi:namedview
     id="base"
     pagecolor="#ffffff"
     bordercolor="#666666"
     borderopacity="1.0"
     inkscape:pageopacity="0.0"
     inkscape:pageshadow="2"
     inkscape:zoom="13.049334"
     inkscape:cx="18.679046"
     inkscape:cy="12.165829"
     inkscape:document-units="px"
     inkscape:current-layer="layer1"
     showgrid="false"
     inkscape:snap-page="false"
     units="px"
     inkscape:window-width="1884"
     inkscape:window-height="1061"
     inkscape:window-x="0"
     inkscape:window-y="0"
     inkscape:window-maximized="1"
     fit-margin-top="0"
     fit-margin-left="0"
     fit-margin-right="0"
     fit-margin-bottom="0" />
  <metadata
     id="metadata5">
    <rdf:RDF>
      <cc:Work
         rdf:about="">
        <dc:format>image/svg+xml</dc:format>
        <dc:type
           rdf:resource="http://purl.org/dc/dcmitype/StillImage" />
        <dc:title></dc:title>
      </cc:Work>
    </rdf:RDF>
  </metadata>
    <circle
       style="color:#000000;clip-rule:nonzero;display:inline;overflow:visible;visibility:visible;opacity:1;isolation:auto;mix-blend-mode:normal;color-interpolation:sRGB;color-interpolation-filters:linearRGB;solid-color:#000000;solid-opacity:1;vector-effect:none;fill:#ffffff;fill-opacity:1;fill-rule:evenodd;stroke:#00a19a;stroke-width:1;stroke-linecap:butt;stroke-linejoin:miter;stroke-miterlimit:4;stroke-dasharray:none;stroke-dashoffset:0;stroke-opacity:1;marker:none;color-rendering:auto;image-rendering:auto;shape-rendering:auto;text-rendering:auto;enable-background:accumulate"
       id="path815"
       cx="15"
       cy="15"
       r="14.5" />
<g transform="translate(6,7)"><g id="surface1">
<path style=" stroke:none;fill-rule:nonzero;fill:rgb(30%,30%,30%);fill-opacity:1;" d="M 6.628906 13.515625 C 6.628906 14.886719 5.53125 16 4.179688 16 C 2.824219 16 1.730469 14.886719 1.730469 13.515625 C 1.730469 12.144531 2.824219 11.035156 4.179688 11.035156 C 5.53125 11.035156 6.628906 12.144531 6.628906 13.515625 Z M 2.613281 13.574219 C 2.714844 13.570312 2.796875 13.480469 2.792969 13.375 C 2.777344 12.929688 2.886719 12.59375 3.113281 12.367188 C 3.492188 11.996094 4.09375 12.035156 4.105469 12.039062 C 4.207031 12.046875 4.300781 11.96875 4.308594 11.863281 C 4.316406 11.753906 4.238281 11.664062 4.132812 11.65625 C 4.101562 11.652344 3.359375 11.597656 2.855469 12.089844 C 2.542969 12.394531 2.394531 12.832031 2.414062 13.386719 C 2.417969 13.492188 2.503906 13.574219 2.605469 13.574219 C 2.605469 13.574219 2.609375 13.574219 2.613281 13.574219 Z M 2.613281 13.574219 "/>
<path style=" stroke:none;fill-rule:nonzero;fill:rgb(30%,30%,30%);fill-opacity:1;" d="M 2.496094 6.882812 C 2.453125 6.871094 2.414062 6.859375 2.371094 6.847656 C 2.59375 7.449219 2.898438 8.019531 3.277344 8.535156 C 3.902344 8.683594 4.550781 8.691406 5.179688 8.550781 C 5.550781 8.046875 5.851562 7.492188 6.074219 6.90625 C 4.898438 7.207031 3.667969 7.199219 2.496094 6.882812 Z M 2.496094 6.882812 "/>
<path style=" stroke:none;fill-rule:nonzero;fill:rgb(30%,30%,30%);fill-opacity:1;" d="M 6.074219 1.816406 C 5.832031 1.1875 5.496094 0.597656 5.070312 0.078125 C 4.503906 -0.03125 3.925781 -0.0234375 3.363281 0.0976562 C 2.9375 0.632812 2.601562 1.230469 2.363281 1.875 C 2.410156 1.863281 2.453125 1.851562 2.496094 1.839844 C 3.667969 1.523438 4.898438 1.515625 6.074219 1.816406 Z M 6.074219 1.816406 "/>
<path style=" stroke:none;fill-rule:nonzero;fill:rgb(30%,30%,30%);fill-opacity:1;" d="M 2.519531 2.222656 C 2.417969 2.246094 2.320312 2.277344 2.21875 2.308594 C 1.828125 3.648438 1.832031 5.078125 2.226562 6.417969 C 2.324219 6.445312 2.421875 6.472656 2.519531 6.5 C 3.761719 6.835938 5.050781 6.8125 6.222656 6.464844 C 6.417969 5.820312 6.523438 5.148438 6.53125 4.472656 C 6.546875 3.722656 6.441406 2.972656 6.222656 2.253906 C 5.050781 1.910156 3.761719 1.886719 2.519531 2.222656 Z M 2.519531 2.222656 "/>
<path style=" stroke:none;fill-rule:nonzero;fill:rgb(30%,30%,30%);fill-opacity:1;" d="M 1.800781 2.457031 C 1.191406 2.6875 0.617188 3.007812 0.0976562 3.402344 C -0.0390625 4.039062 -0.03125 4.699219 0.117188 5.332031 C 0.628906 5.71875 1.191406 6.03125 1.789062 6.261719 C 1.636719 5.667969 1.558594 5.054688 1.558594 4.4375 C 1.558594 3.769531 1.636719 3.105469 1.800781 2.457031 Z M 1.800781 2.457031 "/>
<path style=" stroke:none;fill-rule:nonzero;fill:rgb(30%,30%,30%);fill-opacity:1;" d="M 0.300781 5.917969 C 0.734375 7.027344 1.597656 7.902344 2.691406 8.347656 C 2.363281 7.835938 2.105469 7.285156 1.917969 6.707031 C 1.351562 6.507812 0.808594 6.242188 0.300781 5.917969 Z M 0.300781 5.917969 "/>
<path style=" stroke:none;fill-rule:nonzero;fill:rgb(30%,30%,30%);fill-opacity:1;" d="M 5.757812 8.378906 C 6.898438 7.949219 7.804688 7.042969 8.246094 5.894531 C 7.71875 6.273438 7.140625 6.566406 6.527344 6.769531 C 6.335938 7.339844 6.078125 7.878906 5.757812 8.378906 Z M 5.757812 8.378906 "/>
<path style=" stroke:none;fill-rule:nonzero;fill:rgb(30%,30%,30%);fill-opacity:1;" d="M 8.445312 3.441406 C 7.910156 2.992188 7.300781 2.636719 6.648438 2.394531 C 6.828125 3.101562 6.914062 3.828125 6.902344 4.554688 C 6.894531 5.152344 6.8125 5.742188 6.660156 6.320312 C 7.300781 6.082031 7.898438 5.734375 8.425781 5.296875 C 8.566406 4.6875 8.570312 4.054688 8.445312 3.441406 Z M 8.445312 3.441406 "/>
<path style=" stroke:none;fill-rule:nonzero;fill:rgb(30%,30%,30%);fill-opacity:1;" d="M 8.28125 2.855469 C 7.84375 1.632812 6.886719 0.671875 5.671875 0.242188 C 6.035156 0.765625 6.316406 1.339844 6.515625 1.945312 C 7.144531 2.15625 7.742188 2.460938 8.28125 2.855469 Z M 8.28125 2.855469 "/>
<path style=" stroke:none;fill-rule:nonzero;fill:rgb(30%,30%,30%);fill-opacity:1;" d="M 2.753906 0.28125 C 1.597656 0.726562 0.691406 1.65625 0.261719 2.828125 C 0.78125 2.488281 1.339844 2.214844 1.925781 2.015625 C 2.117188 1.398438 2.394531 0.816406 2.753906 0.28125 Z M 2.753906 0.28125 "/>
<path style=" stroke:none;fill-rule:nonzero;fill:rgb(30%,30%,30%);fill-opacity:1;" d="M 15.789062 9.707031 C 15.558594 10.070312 15.304688 10.414062 15.023438 10.738281 C 15.582031 10.789062 16.085938 10.746094 16.503906 10.597656 L 16.867188 10.382812 C 16.9375 10.105469 16.980469 9.820312 16.996094 9.53125 C 16.636719 9.648438 16.242188 9.707031 15.820312 9.707031 C 15.808594 9.707031 15.796875 9.707031 15.789062 9.707031 Z M 15.789062 9.707031 "/>
<path style=" stroke:none;fill-rule:nonzero;fill:rgb(30%,30%,30%);fill-opacity:1;" d="M 16.945312 9.121094 L 17 9.09375 C 16.976562 8.511719 16.839844 7.941406 16.597656 7.414062 C 16.558594 8.039062 16.351562 8.675781 16.027344 9.292969 C 16.339844 9.28125 16.648438 9.222656 16.945312 9.121094 Z M 16.945312 9.121094 "/>
<path style=" stroke:none;fill-rule:nonzero;fill:rgb(30%,30%,30%);fill-opacity:1;" d="M 13.375 12.226562 C 13.28125 12.292969 13.1875 12.355469 13.09375 12.414062 C 12.269531 12.9375 11.472656 13.238281 10.769531 13.304688 C 12.519531 14.132812 14.597656 13.699219 15.886719 12.242188 C 15.527344 12.355469 15.140625 12.410156 14.742188 12.410156 C 14.296875 12.410156 13.835938 12.34375 13.375 12.226562 Z M 13.375 12.226562 "/>
<path style=" stroke:none;fill-rule:nonzero;fill:rgb(30%,30%,30%);fill-opacity:1;" d="M 15.324219 9.683594 C 15.027344 9.652344 14.730469 9.597656 14.441406 9.519531 C 14.378906 9.503906 14.320312 9.488281 14.261719 9.46875 C 14.007812 9.789062 13.738281 10.089844 13.445312 10.375 C 13.507812 10.398438 13.570312 10.417969 13.632812 10.4375 C 13.933594 10.535156 14.234375 10.613281 14.542969 10.671875 C 14.800781 10.394531 15.039062 10.097656 15.253906 9.785156 C 15.277344 9.75 15.300781 9.714844 15.324219 9.683594 Z M 15.324219 9.683594 "/>
<path style=" stroke:none;fill-rule:nonzero;fill:rgb(30%,30%,30%);fill-opacity:1;" d="M 12.214844 11.390625 C 12.484375 11.511719 12.765625 11.621094 13.050781 11.710938 C 13.132812 11.738281 13.214844 11.761719 13.292969 11.785156 C 13.617188 11.550781 13.921875 11.292969 14.207031 11.015625 C 13.835938 10.929688 13.472656 10.820312 13.117188 10.683594 C 12.832031 10.9375 12.53125 11.175781 12.214844 11.390625 Z M 12.214844 11.390625 "/>
<path style=" stroke:none;fill-rule:nonzero;fill:rgb(30%,30%,30%);fill-opacity:1;" d="M 16.671875 10.972656 L 16.65625 10.976562 C 16.292969 11.109375 15.886719 11.167969 15.460938 11.167969 C 15.203125 11.167969 14.941406 11.144531 14.683594 11.105469 C 14.410156 11.390625 14.113281 11.660156 13.804688 11.90625 C 14.589844 12.058594 15.296875 12.027344 15.878906 11.8125 L 16.398438 11.53125 C 16.503906 11.351562 16.597656 11.164062 16.675781 10.96875 Z M 16.671875 10.972656 "/>
<path style=" stroke:none;fill-rule:nonzero;fill:rgb(30%,30%,30%);fill-opacity:1;" d="M 13.855469 9.335938 C 13.488281 9.203125 13.136719 9.046875 12.792969 8.863281 C 12.53125 9.152344 12.25 9.425781 11.949219 9.675781 C 12.296875 9.878906 12.660156 10.058594 13.03125 10.214844 C 13.324219 9.941406 13.597656 9.648438 13.855469 9.335938 Z M 13.855469 9.335938 "/>
<path style=" stroke:none;fill-rule:nonzero;fill:rgb(30%,30%,30%);fill-opacity:1;" d="M 11.378906 11.421875 C 11.011719 11.214844 10.660156 10.988281 10.324219 10.734375 C 9.734375 11.011719 9.167969 11.160156 8.660156 11.175781 C 8.769531 11.410156 8.898438 11.632812 9.046875 11.847656 C 9.675781 12.039062 10.492188 11.890625 11.378906 11.421875 Z M 11.378906 11.421875 "/>
<path style=" stroke:none;fill-rule:nonzero;fill:rgb(30%,30%,30%);fill-opacity:1;" d="M 11.609375 9.945312 C 11.328125 10.160156 11.035156 10.351562 10.726562 10.527344 C 11.0625 10.769531 11.417969 10.988281 11.789062 11.183594 C 12.105469 10.980469 12.410156 10.757812 12.699219 10.511719 C 12.324219 10.347656 11.960938 10.15625 11.609375 9.945312 Z M 11.609375 9.945312 "/>
<path style=" stroke:none;fill-rule:nonzero;fill:rgb(30%,30%,30%);fill-opacity:1;" d="M 10.1875 10.101562 C 10.246094 10.152344 10.308594 10.203125 10.371094 10.253906 C 10.675781 10.09375 10.964844 9.914062 11.246094 9.710938 C 10.960938 9.519531 10.6875 9.3125 10.429688 9.085938 C 9.617188 8.375 9.101562 7.628906 8.917969 6.910156 C 8.789062 7.117188 8.675781 7.335938 8.582031 7.5625 C 8.652344 8.363281 9.214844 9.261719 10.1875 10.101562 Z M 10.1875 10.101562 "/>
<path style=" stroke:none;fill-rule:nonzero;fill:rgb(30%,30%,30%);fill-opacity:1;" d="M 12.863281 12.078125 C 12.503906 11.957031 12.148438 11.8125 11.808594 11.644531 C 11.023438 12.105469 10.28125 12.339844 9.632812 12.339844 C 9.566406 12.339844 9.503906 12.335938 9.441406 12.332031 C 9.625 12.527344 9.824219 12.707031 10.042969 12.867188 C 10.804688 13.023438 11.800781 12.75 12.863281 12.078125 Z M 12.863281 12.078125 "/>
<path style=" stroke:none;fill-rule:nonzero;fill:rgb(30%,30%,30%);fill-opacity:1;" d="M 10.691406 8.777344 C 10.972656 9.023438 11.273438 9.246094 11.585938 9.449219 C 11.886719 9.207031 12.171875 8.941406 12.433594 8.65625 C 12.238281 8.539062 12.046875 8.410156 11.855469 8.273438 C 10.839844 7.542969 10.125 6.695312 9.808594 5.878906 C 9.605469 6.050781 9.417969 6.238281 9.25 6.445312 C 9.308594 7.179688 9.8125 8.007812 10.691406 8.777344 Z M 10.691406 8.777344 "/>
<path style=" stroke:none;fill-rule:nonzero;fill:rgb(30%,30%,30%);fill-opacity:1;" d="M 9.964844 10.445312 C 9.953125 10.433594 9.9375 10.421875 9.925781 10.414062 C 9.140625 9.738281 8.605469 9.011719 8.347656 8.3125 C 8.167969 9.128906 8.21875 9.980469 8.496094 10.765625 C 8.929688 10.78125 9.433594 10.671875 9.964844 10.445312 Z M 9.964844 10.445312 "/>
<path style=" stroke:none;fill-rule:nonzero;fill:rgb(30%,30%,30%);fill-opacity:1;" d="M 12.089844 7.941406 C 12.292969 8.089844 12.5 8.222656 12.707031 8.34375 C 13.535156 7.339844 14.015625 6.21875 13.984375 5.238281 L 13.953125 5.046875 C 12.664062 4.632812 11.257812 4.84375 10.140625 5.621094 C 10.40625 6.386719 11.101562 7.230469 12.089844 7.941406 Z M 12.089844 7.941406 "/>
<path style=" stroke:none;fill-rule:nonzero;fill:rgb(30%,30%,30%);fill-opacity:1;" d="M 14.523438 9.117188 C 14.867188 9.207031 15.214844 9.265625 15.566406 9.289062 C 16.011719 8.511719 16.230469 7.757812 16.199219 7.078125 L 16.109375 6.589844 C 15.96875 6.402344 15.8125 6.226562 15.644531 6.066406 L 15.644531 6.078125 C 15.679688 7.054688 15.222656 8.136719 14.523438 9.117188 Z M 14.523438 9.117188 "/>
<path style=" stroke:none;fill-rule:nonzero;fill:rgb(30%,30%,30%);fill-opacity:1;" d="M 13.609375 7.78125 C 13.445312 8.046875 13.261719 8.300781 13.066406 8.542969 C 13.402344 8.722656 13.757812 8.875 14.117188 8.996094 C 14.15625 8.941406 14.195312 8.890625 14.234375 8.835938 C 14.90625 7.871094 15.265625 6.90625 15.246094 6.109375 L 15.140625 5.644531 C 14.902344 5.476562 14.652344 5.332031 14.386719 5.214844 C 14.414062 6.023438 14.144531 6.914062 13.609375 7.78125 Z M 13.609375 7.78125 "/>
</g>
</g>
</svg>
