<?xml version="1.0" encoding="UTF-8"?>
<svg xmlns="http://www.w3.org/2000/svg" xmlns:xlink="http://www.w3.org/1999/xlink" width="11px" height="10px" viewBox="0 0 11 10" version="1.1">
<g id="surface1">
<path style=" stroke:none;fill-rule:evenodd;fill:rgb(30%,30%,30%);fill-opacity:1;" d="M 10.8125 0.382812 C 10.820312 0.304688 10.847656 0.300781 10.8125 0.234375 C 10.683594 0.234375 10.617188 0.121094 10.488281 0.0859375 C 10.363281 0.0507812 10.203125 0.105469 10.117188 0 C 10.074219 0.0820312 9.976562 0.105469 9.859375 0.0664062 C 9.828125 0.242188 9.589844 0.230469 9.605469 0.449219 C 9.5625 0.445312 9.53125 0.453125 9.511719 0.46875 C 9.496094 0.535156 9.574219 0.511719 9.558594 0.578125 C 9.539062 0.636719 9.441406 0.625 9.441406 0.703125 C 9.582031 0.746094 9.585938 0.914062 9.628906 1.046875 C 9.769531 1.09375 9.804688 1.238281 9.953125 1.28125 C 9.765625 1.34375 9.609375 1.433594 9.605469 1.664062 C 10.109375 1.890625 10.140625 1.113281 10.675781 1.238281 C 10.78125 1.011719 11.035156 0.816406 10.882812 0.535156 C 10.914062 0.480469 11 0.484375 11 0.40625 C 10.945312 0.394531 10.832031 0.433594 10.8125 0.382812 Z M 3.1875 8.058594 C 3.085938 8.046875 3.089844 8.128906 3 8.121094 C 2.890625 8.085938 2.882812 7.960938 2.835938 7.867188 C 2.742188 7.851562 2.757812 7.933594 2.652344 7.910156 C 2.582031 7.878906 2.554688 7.8125 2.511719 7.761719 C 2.296875 7.800781 2.25 7.6875 2.140625 7.632812 C 2.097656 7.667969 2.089844 7.730469 2.023438 7.738281 C 1.800781 7.652344 1.773438 7.921875 1.535156 7.824219 C 1.457031 8.066406 1.253906 8.203125 0.953125 8.1875 C 0.945312 8.316406 1.109375 8.285156 1.140625 8.378906 C 1.179688 8.566406 1.066406 8.609375 1.046875 8.742188 C 1.125 8.859375 1.179688 9.035156 1.210938 9.253906 C 1.328125 9.25 1.351562 9.335938 1.394531 9.402344 C 1.519531 9.386719 1.597656 9.414062 1.628906 9.488281 C 1.652344 9.601562 1.582031 9.628906 1.582031 9.722656 C 1.691406 9.671875 1.777344 9.601562 1.929688 9.59375 C 2.03125 9.664062 2.101562 9.765625 2.324219 9.722656 C 2.339844 9.65625 2.382812 9.617188 2.441406 9.59375 C 2.511719 9.621094 2.503906 9.722656 2.605469 9.722656 C 2.683594 9.679688 2.566406 9.480469 2.722656 9.464844 C 2.820312 9.460938 2.792969 9.570312 2.90625 9.550781 C 2.933594 9.453125 2.933594 9.414062 2.90625 9.316406 C 3.058594 9.230469 3.09375 9.421875 3.1875 9.378906 C 3.1875 9.289062 3.070312 9.300781 3.070312 9.210938 C 3.175781 9.078125 3.035156 8.828125 3.1875 8.71875 C 3.289062 8.671875 3.625 8.785156 3.765625 8.675781 C 3.300781 8.792969 2.929688 8.414062 3.1875 8.058594 Z M 9.835938 1.984375 L 9.835938 1.898438 C 9.707031 1.859375 9.726562 1.875 9.605469 1.941406 C 9.515625 1.878906 9.457031 1.925781 9.371094 1.875 C 9.332031 1.96875 9.265625 2.035156 9.09375 2.003906 C 9.011719 2.179688 8.789062 2.3125 8.789062 2.539062 C 8.792969 2.65625 8.925781 2.773438 8.835938 2.878906 C 8.453125 2.507812 7.539062 2.898438 7.070312 2.773438 C 7.128906 2.605469 7.21875 2.46875 7.277344 2.304688 C 7.367188 2.28125 7.46875 2.191406 7.394531 2.089844 C 7.082031 2.1875 7.089844 2.578125 6.765625 2.664062 C 6.640625 2.535156 6.5 2.5 6.347656 2.367188 C 6.332031 2.054688 6.167969 1.898438 6.046875 1.707031 C 5.996094 1.625 6.015625 1.511719 5.882812 1.515625 C 5.871094 1.542969 5.847656 1.566406 5.8125 1.578125 C 5.796875 1.703125 5.878906 1.730469 5.859375 1.855469 C 5.621094 1.976562 5.21875 1.824219 4.953125 1.707031 C 4.925781 1.839844 5.007812 1.871094 5 1.984375 C 4.757812 2.097656 4.605469 1.933594 4.371094 2.027344 C 4.242188 1.953125 4.195312 1.804688 4.023438 1.769531 C 3.867188 1.648438 3.847656 1.40625 3.652344 1.324219 C 3.644531 1.46875 3.722656 1.484375 3.789062 1.578125 C 3.867188 1.683594 3.941406 1.871094 4.023438 1.960938 C 4.128906 2.082031 4.265625 2.121094 4.257812 2.238281 C 4.242188 2.398438 4.039062 2.410156 3.882812 2.496094 C 3.738281 3.085938 3.003906 2.902344 2.488281 2.75 C 2.789062 2.894531 3.183594 2.953125 3.441406 3.132812 C 3.269531 3.261719 3.109375 3.398438 3 3.582031 C 2.863281 3.574219 2.828125 3.46875 2.652344 3.496094 C 2.628906 3.613281 2.777344 3.582031 2.8125 3.644531 C 2.453125 3.722656 2.304688 3.433594 1.90625 3.496094 C 1.902344 3.464844 1.867188 3.460938 1.859375 3.433594 C 1.84375 3.355469 1.910156 3.351562 1.90625 3.285156 C 1.804688 3.210938 1.722656 3.113281 1.746094 2.984375 C 1.578125 2.914062 1.441406 2.824219 1.417969 2.621094 C 1.304688 2.605469 1.355469 2.734375 1.234375 2.707031 C 1.167969 2.53125 1.054688 2.648438 0.882812 2.578125 C 0.855469 2.613281 0.855469 2.667969 0.8125 2.6875 C 0.5625 2.632812 0.5625 2.808594 0.417969 2.855469 C 0.261719 2.804688 0.1875 2.6875 0 2.75 C 0.0078125 2.867188 0.21875 2.792969 0.253906 2.878906 C 0.171875 3.078125 0.109375 3.296875 0 3.476562 C 0.0976562 3.53125 0.152344 3.65625 0.09375 3.796875 C 0.238281 3.917969 0.382812 4.058594 0.441406 4.199219 C 0.527344 4.214844 0.53125 4.152344 0.605469 4.15625 C 0.675781 4.203125 0.75 4.253906 0.765625 4.347656 C 0.992188 4.238281 1.246094 4.25 1.488281 4.199219 C 1.527344 4.171875 1.496094 4.078125 1.535156 4.050781 C 1.597656 4.046875 1.660156 4.03125 1.722656 4.007812 C 1.78125 3.980469 1.699219 3.902344 1.746094 3.902344 C 2.0625 3.941406 2.5625 3.898438 2.8125 4.09375 C 2.886719 4.324219 2.941406 4.550781 2.8125 4.777344 C 2.773438 4.800781 2.660156 4.757812 2.558594 4.777344 C 2.5 4.757812 2.519531 4.667969 2.441406 4.667969 C 2.035156 4.738281 1.753906 4.921875 1.628906 5.246094 C 1.652344 5.359375 1.671875 5.472656 1.675781 5.605469 C 1.785156 5.816406 2.035156 5.902344 2.1875 6.074219 C 2.234375 5.988281 2.410156 6.003906 2.488281 6.054688 C 2.75 5.933594 3.007812 5.804688 3.09375 5.523438 C 3.441406 5.523438 3.453125 5.832031 3.675781 5.949219 C 3.609375 6.265625 3.503906 6.546875 3.417969 6.84375 C 3.589844 6.71875 3.652344 6.457031 3.699219 6.160156 C 3.792969 6.136719 3.859375 6.082031 3.953125 6.054688 C 4.011719 6.109375 4.109375 6.125 4.117188 6.226562 C 4.117188 6.304688 4.03125 6.304688 4.023438 6.375 C 4.292969 6.347656 4.726562 6.324219 4.699219 6.714844 C 4.832031 6.753906 4.785156 6.625 4.882812 6.628906 C 5.105469 6.777344 5.152344 7.382812 5.023438 7.589844 C 4.882812 7.429688 4.902344 7.179688 4.628906 7.207031 C 4.355469 7.234375 4.304688 7.59375 4.488281 7.804688 C 4.726562 7.875 4.9375 8.015625 5.070312 7.761719 C 5.316406 7.957031 5.160156 8.441406 4.929688 8.570312 C 4.835938 8.589844 4.742188 8.609375 4.722656 8.699219 C 4.738281 8.703125 4.746094 8.714844 4.746094 8.742188 C 4.828125 8.785156 4.996094 8.753906 5.117188 8.761719 C 5.179688 8.867188 5.269531 8.949219 5.277344 9.101562 C 5.214844 9.171875 5.015625 9.230469 5.070312 9.335938 C 5.132812 9.230469 5.382812 9.199219 5.511719 9.273438 C 5.519531 9.351562 5.542969 9.417969 5.558594 9.488281 C 5.726562 9.542969 5.859375 9.683594 6.070312 9.636719 C 6.128906 9.703125 6.101562 9.847656 6.1875 9.890625 C 6.320312 9.902344 6.28125 9.75 6.417969 9.765625 C 6.472656 9.828125 6.394531 10.011719 6.535156 10 C 6.628906 9.972656 6.585938 9.820312 6.652344 9.765625 C 6.84375 9.71875 6.957031 9.769531 7.140625 9.765625 C 7.167969 9.796875 7.167969 9.851562 7.210938 9.871094 C 7.222656 9.832031 7.140625 9.78125 7.210938 9.765625 C 7.308594 9.765625 7.3125 9.855469 7.441406 9.828125 C 7.441406 9.738281 7.394531 9.671875 7.441406 9.59375 C 7.886719 9.570312 7.929688 9.175781 8.164062 8.953125 C 8.449219 8.90625 8.636719 9.058594 8.8125 9.039062 C 8.730469 8.996094 8.597656 8.996094 8.558594 8.910156 C 8.605469 8.855469 8.726562 8.832031 8.675781 8.742188 C 8.527344 8.734375 8.480469 8.820312 8.394531 8.867188 C 8.320312 8.824219 8.171875 8.84375 8.140625 8.761719 C 8.113281 8.601562 8.21875 8.5625 8.277344 8.484375 C 8.261719 8.382812 8.183594 8.332031 8.1875 8.207031 C 8.203125 8.121094 8.355469 8.164062 8.347656 8.058594 C 8.34375 7.972656 8.195312 8.011719 8.140625 7.972656 C 8.109375 7.816406 8.152344 7.800781 8.164062 7.652344 C 8.003906 7.613281 7.867188 7.554688 7.882812 7.355469 C 7.699219 7.332031 7.542969 7.285156 7.558594 7.078125 C 7.515625 7.023438 7.40625 7.035156 7.371094 6.972656 C 7.398438 6.964844 7.453125 6.878906 7.394531 6.863281 C 7.34375 6.992188 7.074219 6.898438 7 6.84375 C 6.910156 6.859375 6.910156 6.960938 6.789062 6.949219 C 6.78125 6.910156 6.742188 6.898438 6.746094 6.84375 C 6.90625 6.742188 7.222656 6.785156 7.394531 6.695312 C 7.394531 6.464844 7.277344 6.238281 7.417969 6.011719 C 7.441406 6.011719 7.445312 5.996094 7.464844 5.992188 C 7.503906 6.027344 7.5625 6.042969 7.652344 6.035156 C 7.855469 6.296875 8.210938 6.304688 8.488281 6.480469 C 8.339844 6.234375 7.703125 6.246094 7.789062 5.714844 C 7.640625 5.679688 7.671875 5.90625 7.558594 5.839844 C 7.609375 5.667969 7.8125 5.636719 7.90625 5.5 C 8.46875 5.351562 8.832031 5.820312 9.371094 5.648438 C 9.527344 5.0625 8.367188 5.183594 8.324219 4.753906 C 8.300781 4.488281 8.558594 4.570312 8.746094 4.5 C 8.6875 4.328125 8.410156 4.460938 8.324219 4.347656 C 8.316406 4.164062 8.515625 4.167969 8.628906 4.09375 C 8.589844 3.886719 8.773438 3.871094 8.859375 3.730469 C 8.804688 3.621094 8.589844 3.652344 8.558594 3.519531 C 8.683594 3.347656 8.867188 2.988281 9.164062 3.175781 C 9.296875 3.078125 9.386719 3.179688 9.488281 3.261719 C 9.570312 3.167969 9.664062 3.21875 9.789062 3.242188 C 9.945312 3.058594 10.320312 2.917969 10.1875 2.601562 C 10.195312 2.515625 10.28125 2.503906 10.277344 2.410156 C 10.109375 2.289062 10.089844 2.03125 9.835938 1.984375 Z M 6.164062 6.863281 C 6.234375 6.84375 6.378906 6.859375 6.371094 6.972656 C 6.285156 7.023438 6.175781 6.945312 6.164062 6.863281 Z M 7.699219 5.839844 C 7.804688 5.878906 7.804688 6.011719 7.859375 6.097656 C 7.746094 6.070312 7.578125 5.953125 7.699219 5.839844 Z M 7.699219 5.839844 "/>
</g>
</svg>
