<?xml version="1.0" encoding="UTF-8" standalone="no"?>
<!-- Created with Inkscape (http://www.inkscape.org/) -->

<svg
   xmlns:dc="http://purl.org/dc/elements/1.1/"
   xmlns:cc="http://creativecommons.org/ns#"
   xmlns:rdf="http://www.w3.org/1999/02/22-rdf-syntax-ns#"
   xmlns:svg="http://www.w3.org/2000/svg"
   xmlns="http://www.w3.org/2000/svg"
   xmlns:xlink="http://www.w3.org/1999/xlink"
   xmlns:sodipodi="http://sodipodi.sourceforge.net/DTD/sodipodi-0.dtd"
   xmlns:inkscape="http://www.inkscape.org/namespaces/inkscape"
   width="30px"
   height="30px"
   version="1.1"
   id="svg8"
   inkscape:version="0.92.4 5da689c313, 2019-01-14"
   sodipodi:docname="container.svg">
  <defs
     id="defs2" />
  <sodipodi:namedview
     id="base"
     pagecolor="#ffffff"
     bordercolor="#666666"
     borderopacity="1.0"
     inkscape:pageopacity="0.0"
     inkscape:pageshadow="2"
     inkscape:zoom="13.049334"
     inkscape:cx="18.679046"
     inkscape:cy="12.165829"
     inkscape:document-units="px"
     inkscape:current-layer="layer1"
     showgrid="false"
     inkscape:snap-page="false"
     units="px"
     inkscape:window-width="1884"
     inkscape:window-height="1061"
     inkscape:window-x="0"
     inkscape:window-y="0"
     inkscape:window-maximized="1"
     fit-margin-top="0"
     fit-margin-left="0"
     fit-margin-right="0"
     fit-margin-bottom="0" />
  <metadata
     id="metadata5">
    <rdf:RDF>
      <cc:Work
         rdf:about="">
        <dc:format>image/svg+xml</dc:format>
        <dc:type
           rdf:resource="http://purl.org/dc/dcmitype/StillImage" />
        <dc:title></dc:title>
      </cc:Work>
    </rdf:RDF>
  </metadata>
    <circle
       style="color:#000000;clip-rule:nonzero;display:inline;overflow:visible;visibility:visible;opacity:1;isolation:auto;mix-blend-mode:normal;color-interpolation:sRGB;color-interpolation-filters:linearRGB;solid-color:#000000;solid-opacity:1;vector-effect:none;fill:#ffffff;fill-opacity:1;fill-rule:evenodd;stroke:#00A757;stroke-width:1;stroke-linecap:butt;stroke-linejoin:miter;stroke-miterlimit:4;stroke-dasharray:none;stroke-dashoffset:0;stroke-opacity:1;marker:none;color-rendering:auto;image-rendering:auto;shape-rendering:auto;text-rendering:auto;enable-background:accumulate"
       id="path815"
       cx="15"
       cy="15"
       r="14.5" />
<g transform="translate(9,7)"><g id="surface1">
<path style=" stroke:none;fill-rule:nonzero;fill:rgb(30%,30%,30%);fill-opacity:1;" d="M 4.199219 10.214844 L 4.175781 10.214844 M 12 5.992188 L 12 6.085938 C 12 6.230469 11.878906 6.347656 11.726562 6.347656 L 11.097656 6.347656 L 11.058594 6.863281 C 10.796875 8.5625 9.738281 9.703125 8.191406 10.230469 L 9.957031 14.808594 C 10.035156 15.011719 9.925781 15.238281 9.710938 15.316406 C 9.492188 15.390625 9.257812 15.285156 9.175781 15.078125 L 7.394531 10.441406 C 7.058594 10.503906 6.71875 10.539062 6.378906 10.554688 L 6.402344 15.597656 C 6.402344 15.816406 6.21875 15.996094 5.992188 15.996094 L 5.988281 15.996094 C 5.761719 15.996094 5.574219 15.820312 5.574219 15.605469 L 5.550781 10.546875 C 5.207031 10.523438 4.867188 10.46875 4.53125 10.382812 L 2.753906 15.183594 C 2.679688 15.390625 2.441406 15.496094 2.226562 15.421875 C 2.011719 15.351562 1.898438 15.125 1.976562 14.917969 L 3.753906 10.113281 C 2.246094 9.472656 1.15625 8.164062 0.804688 6.347656 L 0.273438 6.347656 C 0.121094 6.347656 0 6.230469 0 6.085938 L 0 5.992188 C 0 5.847656 0.121094 5.734375 0.273438 5.734375 L 0.710938 5.734375 C 0.710938 5.722656 0.707031 5.710938 0.707031 5.699219 C 0.707031 4.621094 3.429688 4.039062 5.992188 4.039062 C 8.554688 4.039062 11.277344 4.621094 11.277344 5.699219 C 11.277344 5.710938 11.277344 5.722656 11.273438 5.734375 L 11.730469 5.734375 C 11.878906 5.734375 12 5.847656 12 5.992188 Z M 4.195312 9.851562 C 4.246094 9.851562 2.15625 9.152344 1.765625 7.234375 L 1.199219 6.917969 C 1.949219 9.457031 3.707031 9.84375 4.195312 9.851562 Z M 10.863281 5.699219 C 10.863281 5.171875 9.007812 4.433594 5.992188 4.433594 C 2.972656 4.433594 1.121094 5.171875 1.121094 5.699219 C 1.121094 6.230469 2.972656 6.964844 5.992188 6.964844 C 9.007812 6.964844 10.863281 6.226562 10.863281 5.699219 Z M 2.105469 6.144531 L 2.898438 5.320312 C 2.976562 5.238281 2.96875 5.113281 2.886719 5.039062 C 2.800781 4.964844 2.667969 4.972656 2.59375 5.050781 L 1.800781 5.875 C 1.722656 5.953125 1.726562 6.082031 1.8125 6.15625 C 1.898438 6.230469 2.027344 6.222656 2.105469 6.144531 Z M 9.832031 6.375 L 10.476562 5.589844 C 10.546875 5.503906 10.53125 5.378906 10.441406 5.3125 C 10.351562 5.246094 10.222656 5.257812 10.152344 5.34375 L 9.507812 6.132812 C 9.4375 6.21875 9.453125 6.339844 9.542969 6.410156 C 9.632812 6.476562 9.761719 6.460938 9.832031 6.375 Z M 8.296875 6.71875 L 9.472656 5.222656 C 9.539062 5.136719 9.523438 5.011719 9.433594 4.949219 C 9.339844 4.882812 9.210938 4.898438 9.144531 4.984375 L 7.964844 6.480469 C 7.894531 6.566406 7.914062 6.691406 8.007812 6.757812 C 8.097656 6.824219 8.226562 6.804688 8.296875 6.71875 Z M 3.128906 6.523438 L 4.488281 4.90625 C 4.5625 4.824219 4.546875 4.699219 4.457031 4.628906 C 4.371094 4.5625 4.238281 4.574219 4.167969 4.660156 L 2.808594 6.277344 C 2.734375 6.363281 2.75 6.488281 2.839844 6.554688 C 2.929688 6.625 3.058594 6.609375 3.128906 6.523438 Z M 6.832031 6.824219 L 8.320312 4.96875 C 8.390625 4.882812 8.375 4.757812 8.28125 4.691406 C 8.191406 4.625 8.0625 4.640625 7.992188 4.726562 L 6.503906 6.585938 C 6.433594 6.671875 6.449219 6.796875 6.542969 6.863281 C 6.632812 6.929688 6.761719 6.914062 6.832031 6.824219 Z M 4.308594 6.6875 L 5.808594 4.898438 C 5.878906 4.8125 5.863281 4.6875 5.773438 4.621094 C 5.683594 4.554688 5.554688 4.566406 5.484375 4.652344 L 3.988281 6.441406 C 3.914062 6.527344 3.929688 6.652344 4.019531 6.71875 C 4.109375 6.789062 4.238281 6.773438 4.308594 6.6875 M 5.523438 6.714844 L 7.019531 4.925781 C 7.089844 4.839844 7.074219 4.71875 6.988281 4.648438 C 6.894531 4.582031 6.765625 4.59375 6.695312 4.679688 L 5.199219 6.46875 C 5.128906 6.554688 5.144531 6.679688 5.230469 6.746094 C 5.320312 6.816406 5.449219 6.800781 5.523438 6.714844 Z M 6.273438 0.00390625 C 6.273438 0.00390625 6.988281 0.761719 6.199219 1.527344 C 5.246094 2.457031 6.382812 3.246094 6.382812 3.246094 C 6.382812 3.246094 6.125 2.527344 6.769531 1.914062 C 7.359375 1.351562 7.429688 0.636719 6.273438 0.00390625 Z M 5.6875 1.5625 C 5.6875 1.5625 4.675781 2.039062 4.898438 2.738281 C 5.078125 3.308594 5.742188 3.316406 5.523438 3.894531 C 5.503906 3.941406 6.253906 3.578125 5.613281 2.773438 C 5.195312 2.246094 5.6875 1.5625 5.6875 1.5625 Z M 5.6875 1.5625 "/>
</g>
</g>
</svg>
