<?xml version="1.0" encoding="UTF-8" standalone="no"?>
<!-- Created with Inkscape (http://www.inkscape.org/) -->

<svg
   xmlns:dc="http://purl.org/dc/elements/1.1/"
   xmlns:cc="http://creativecommons.org/ns#"
   xmlns:rdf="http://www.w3.org/1999/02/22-rdf-syntax-ns#"
   xmlns:svg="http://www.w3.org/2000/svg"
   xmlns="http://www.w3.org/2000/svg"
   xmlns:xlink="http://www.w3.org/1999/xlink"
   xmlns:sodipodi="http://sodipodi.sourceforge.net/DTD/sodipodi-0.dtd"
   xmlns:inkscape="http://www.inkscape.org/namespaces/inkscape"
   width="30px"
   height="30px"
   version="1.1"
   id="svg8"
   inkscape:version="0.92.4 5da689c313, 2019-01-14"
   sodipodi:docname="container.svg">
  <defs
     id="defs2" />
  <sodipodi:namedview
     id="base"
     pagecolor="#ffffff"
     bordercolor="#666666"
     borderopacity="1.0"
     inkscape:pageopacity="0.0"
     inkscape:pageshadow="2"
     inkscape:zoom="13.049334"
     inkscape:cx="18.679046"
     inkscape:cy="12.165829"
     inkscape:document-units="px"
     inkscape:current-layer="layer1"
     showgrid="false"
     inkscape:snap-page="false"
     units="px"
     inkscape:window-width="1884"
     inkscape:window-height="1061"
     inkscape:window-x="0"
     inkscape:window-y="0"
     inkscape:window-maximized="1"
     fit-margin-top="0"
     fit-margin-left="0"
     fit-margin-right="0"
     fit-margin-bottom="0" />
  <metadata
     id="metadata5">
    <rdf:RDF>
      <cc:Work
         rdf:about="">
        <dc:format>image/svg+xml</dc:format>
        <dc:type
           rdf:resource="http://purl.org/dc/dcmitype/StillImage" />
        <dc:title></dc:title>
      </cc:Work>
    </rdf:RDF>
  </metadata>
    <circle
       style="color:#000000;clip-rule:nonzero;display:inline;overflow:visible;visibility:visible;opacity:1;isolation:auto;mix-blend-mode:normal;color-interpolation:sRGB;color-interpolation-filters:linearRGB;solid-color:#000000;solid-opacity:1;vector-effect:none;fill:#ffffff;fill-opacity:1;fill-rule:evenodd;stroke:#00a19a;stroke-width:1;stroke-linecap:butt;stroke-linejoin:miter;stroke-miterlimit:4;stroke-dasharray:none;stroke-dashoffset:0;stroke-opacity:1;marker:none;color-rendering:auto;image-rendering:auto;shape-rendering:auto;text-rendering:auto;enable-background:accumulate"
       id="path815"
       cx="15"
       cy="15"
       r="14.5" />
<g transform="translate(6,7)"><g id="surface1">
<path style=" stroke:none;fill-rule:nonzero;fill:rgb(30%,30%,30%);fill-opacity:1;" d="M 15.285156 2 C 14.769531 1.441406 12.339844 -0.921875 9.191406 0.402344 C 5.664062 1.890625 5.15625 7.59375 5.023438 8.246094 C 4.898438 8.863281 4.625 10.53125 4.21875 11.0625 C 4.367188 11.304688 4.671875 11.667969 5.261719 12.003906 C 6.046875 11.515625 8.527344 11.238281 9.894531 10.945312 C 12.675781 10.355469 15.269531 9.605469 16.308594 7.816406 C 18.109375 4.707031 15.890625 2.65625 15.285156 2 Z M 12.527344 4.703125 C 12.6875 4.703125 12.8125 4.824219 12.8125 4.972656 C 12.8125 5.125 12.6875 5.246094 12.527344 5.246094 C 12.371094 5.246094 12.246094 5.125 12.246094 4.972656 C 12.246094 4.824219 12.371094 4.703125 12.527344 4.703125 Z M 12.246094 3.6875 C 12.246094 3.539062 12.375 3.417969 12.53125 3.417969 C 12.691406 3.417969 12.816406 3.539062 12.816406 3.6875 C 12.816406 3.839844 12.691406 3.960938 12.53125 3.960938 C 12.375 3.960938 12.246094 3.839844 12.246094 3.6875 Z M 10.507812 2.792969 C 10.664062 2.792969 10.792969 2.914062 10.792969 3.066406 C 10.792969 3.214844 10.664062 3.335938 10.507812 3.335938 C 10.347656 3.335938 10.222656 3.214844 10.222656 3.066406 C 10.222656 2.914062 10.347656 2.792969 10.507812 2.792969 Z M 9.839844 2.15625 C 9.996094 2.15625 10.125 2.277344 10.125 2.429688 C 10.125 2.578125 9.996094 2.699219 9.839844 2.699219 C 9.683594 2.699219 9.554688 2.578125 9.554688 2.429688 C 9.554688 2.277344 9.683594 2.15625 9.839844 2.15625 Z M 7.484375 10.257812 C 6.664062 11.042969 5.40625 11.054688 5.332031 10.992188 C 5.257812 10.929688 5.152344 9.941406 5.859375 9.207031 C 5.996094 9.0625 5.984375 9.011719 6.128906 8.902344 C 6.128906 8.902344 6.511719 8.839844 6.949219 9.09375 C 7.382812 9.347656 7.46875 9.683594 7.46875 9.683594 C 7.519531 9.90625 7.550781 10.195312 7.484375 10.257812 Z M 7.757812 7.25 C 7.597656 7.25 7.472656 7.128906 7.472656 6.976562 C 7.472656 6.828125 7.597656 6.707031 7.757812 6.707031 C 7.914062 6.707031 8.042969 6.828125 8.042969 6.976562 C 8.042969 7.128906 7.914062 7.25 7.757812 7.25 Z M 7.757812 5.957031 C 7.601562 5.957031 7.476562 5.835938 7.476562 5.6875 C 7.476562 5.535156 7.601562 5.414062 7.757812 5.414062 C 7.917969 5.414062 8.042969 5.535156 8.042969 5.6875 C 8.042969 5.835938 7.917969 5.957031 7.757812 5.957031 Z M 7.785156 4.660156 C 7.628906 4.660156 7.503906 4.535156 7.503906 4.386719 C 7.503906 4.238281 7.628906 4.117188 7.785156 4.117188 C 7.945312 4.117188 8.070312 4.238281 8.070312 4.386719 C 8.070312 4.535156 7.945312 4.660156 7.785156 4.660156 Z M 8.421875 7.882812 C 8.265625 7.882812 8.136719 7.761719 8.136719 7.613281 C 8.136719 7.460938 8.265625 7.339844 8.421875 7.339844 C 8.578125 7.339844 8.707031 7.460938 8.707031 7.613281 C 8.707031 7.761719 8.578125 7.882812 8.421875 7.882812 Z M 8.433594 6.601562 C 8.277344 6.601562 8.148438 6.480469 8.148438 6.332031 C 8.148438 6.179688 8.277344 6.058594 8.433594 6.058594 C 8.59375 6.058594 8.71875 6.179688 8.71875 6.332031 C 8.71875 6.480469 8.59375 6.601562 8.433594 6.601562 Z M 8.453125 5.296875 C 8.296875 5.296875 8.167969 5.171875 8.167969 5.023438 C 8.167969 4.875 8.296875 4.753906 8.453125 4.753906 C 8.613281 4.753906 8.738281 4.875 8.738281 5.023438 C 8.738281 5.171875 8.613281 5.296875 8.453125 5.296875 Z M 8.480469 3.996094 C 8.324219 3.996094 8.195312 3.875 8.195312 3.722656 C 8.195312 3.574219 8.324219 3.453125 8.480469 3.453125 C 8.640625 3.453125 8.765625 3.574219 8.765625 3.722656 C 8.765625 3.875 8.640625 3.996094 8.480469 3.996094 Z M 9.105469 8.515625 C 8.945312 8.515625 8.820312 8.390625 8.820312 8.242188 C 8.820312 8.09375 8.945312 7.972656 9.105469 7.972656 C 9.261719 7.972656 9.386719 8.09375 9.386719 8.242188 C 9.386719 8.390625 9.261719 8.515625 9.105469 8.515625 Z M 8.8125 6.964844 C 8.8125 6.816406 8.941406 6.691406 9.097656 6.691406 C 9.257812 6.691406 9.382812 6.816406 9.382812 6.964844 C 9.382812 7.113281 9.257812 7.234375 9.097656 7.234375 C 8.941406 7.234375 8.8125 7.113281 8.8125 6.964844 Z M 9.128906 5.9375 C 8.972656 5.9375 8.84375 5.816406 8.84375 5.667969 C 8.84375 5.519531 8.972656 5.394531 9.128906 5.394531 C 9.285156 5.394531 9.414062 5.519531 9.414062 5.667969 C 9.414062 5.816406 9.285156 5.9375 9.128906 5.9375 Z M 9.148438 4.632812 C 8.992188 4.632812 8.863281 4.511719 8.863281 4.359375 C 8.863281 4.210938 8.992188 4.089844 9.148438 4.089844 C 9.304688 4.089844 9.433594 4.210938 9.433594 4.359375 C 9.433594 4.511719 9.304688 4.632812 9.148438 4.632812 Z M 9.175781 3.332031 C 9.019531 3.332031 8.890625 3.210938 8.890625 3.0625 C 8.890625 2.910156 9.019531 2.789062 9.175781 2.789062 C 9.332031 2.789062 9.460938 2.910156 9.460938 3.0625 C 9.460938 3.210938 9.332031 3.332031 9.175781 3.332031 Z M 9.769531 9.152344 C 9.613281 9.152344 9.488281 9.027344 9.488281 8.878906 C 9.488281 8.730469 9.613281 8.605469 9.769531 8.605469 C 9.929688 8.605469 10.054688 8.730469 10.054688 8.878906 C 10.054688 9.027344 9.929688 9.152344 9.769531 9.152344 Z M 9.78125 7.867188 C 9.625 7.867188 9.496094 7.746094 9.496094 7.59375 C 9.496094 7.445312 9.625 7.324219 9.78125 7.324219 C 9.9375 7.324219 10.066406 7.445312 10.066406 7.59375 C 10.066406 7.746094 9.9375 7.867188 9.78125 7.867188 Z M 9.792969 6.574219 C 9.636719 6.574219 9.507812 6.453125 9.507812 6.300781 C 9.507812 6.152344 9.636719 6.03125 9.792969 6.03125 C 9.949219 6.03125 10.078125 6.152344 10.078125 6.300781 C 10.078125 6.453125 9.949219 6.574219 9.792969 6.574219 Z M 9.824219 5.277344 C 9.667969 5.277344 9.539062 5.15625 9.539062 5.003906 C 9.539062 4.855469 9.667969 4.734375 9.824219 4.734375 C 9.980469 4.734375 10.109375 4.855469 10.109375 5.003906 C 10.109375 5.15625 9.980469 5.277344 9.824219 5.277344 Z M 9.84375 3.96875 C 9.6875 3.96875 9.558594 3.847656 9.558594 3.699219 C 9.558594 3.546875 9.6875 3.425781 9.84375 3.425781 C 10 3.425781 10.128906 3.546875 10.128906 3.699219 C 10.128906 3.847656 10 3.96875 9.84375 3.96875 Z M 10.449219 8.503906 C 10.292969 8.503906 10.164062 8.382812 10.164062 8.230469 C 10.164062 8.082031 10.292969 7.960938 10.449219 7.960938 C 10.605469 7.960938 10.734375 8.082031 10.734375 8.230469 C 10.734375 8.382812 10.605469 8.503906 10.449219 8.503906 Z M 10.476562 7.203125 C 10.320312 7.203125 10.191406 7.082031 10.191406 6.933594 C 10.191406 6.78125 10.320312 6.660156 10.476562 6.660156 C 10.632812 6.660156 10.761719 6.78125 10.761719 6.933594 C 10.761719 7.082031 10.632812 7.203125 10.476562 7.203125 Z M 10.488281 5.910156 C 10.332031 5.910156 10.203125 5.789062 10.203125 5.640625 C 10.203125 5.488281 10.332031 5.367188 10.488281 5.367188 C 10.644531 5.367188 10.773438 5.488281 10.773438 5.640625 C 10.773438 5.789062 10.644531 5.910156 10.488281 5.910156 Z M 10.519531 4.613281 C 10.363281 4.613281 10.234375 4.492188 10.234375 4.34375 C 10.234375 4.191406 10.363281 4.070312 10.519531 4.070312 C 10.675781 4.070312 10.804688 4.191406 10.804688 4.34375 C 10.804688 4.492188 10.675781 4.613281 10.519531 4.613281 Z M 11.125 9.148438 C 10.96875 9.148438 10.839844 9.027344 10.839844 8.875 C 10.839844 8.726562 10.96875 8.605469 11.125 8.605469 C 11.28125 8.605469 11.410156 8.726562 11.410156 8.875 C 11.410156 9.027344 11.28125 9.148438 11.125 9.148438 Z M 11.144531 7.839844 C 10.988281 7.839844 10.859375 7.71875 10.859375 7.570312 C 10.859375 7.417969 10.988281 7.296875 11.144531 7.296875 C 11.300781 7.296875 11.429688 7.417969 11.429688 7.570312 C 11.429688 7.71875 11.300781 7.839844 11.144531 7.839844 Z M 11.171875 6.542969 C 11.015625 6.542969 10.886719 6.417969 10.886719 6.269531 C 10.886719 6.121094 11.015625 5.996094 11.171875 5.996094 C 11.328125 5.996094 11.457031 6.121094 11.457031 6.269531 C 11.457031 6.417969 11.328125 6.542969 11.171875 6.542969 Z M 11.183594 5.246094 C 11.027344 5.246094 10.898438 5.125 10.898438 4.976562 C 10.898438 4.824219 11.027344 4.703125 11.183594 4.703125 C 11.339844 4.703125 11.46875 4.824219 11.46875 4.976562 C 11.46875 5.125 11.339844 5.246094 11.183594 5.246094 Z M 10.898438 3.710938 C 10.898438 3.558594 11.023438 3.4375 11.183594 3.4375 C 11.339844 3.4375 11.464844 3.558594 11.464844 3.710938 C 11.464844 3.859375 11.339844 3.980469 11.183594 3.980469 C 11.023438 3.980469 10.898438 3.859375 10.898438 3.710938 Z M 11.191406 2.683594 C 11.035156 2.683594 10.910156 2.5625 10.910156 2.410156 C 10.910156 2.261719 11.035156 2.140625 11.191406 2.140625 C 11.351562 2.140625 11.476562 2.261719 11.476562 2.410156 C 11.476562 2.5625 11.351562 2.683594 11.191406 2.683594 Z M 11.820312 8.484375 C 11.660156 8.484375 11.535156 8.363281 11.535156 8.214844 C 11.535156 8.0625 11.660156 7.941406 11.820312 7.941406 C 11.976562 7.941406 12.105469 8.0625 12.105469 8.214844 C 12.105469 8.363281 11.976562 8.484375 11.820312 8.484375 Z M 11.839844 7.179688 C 11.679688 7.179688 11.554688 7.054688 11.554688 6.90625 C 11.554688 6.757812 11.679688 6.632812 11.839844 6.632812 C 11.996094 6.632812 12.125 6.757812 12.125 6.90625 C 12.125 7.054688 11.996094 7.179688 11.839844 7.179688 Z M 11.867188 5.878906 C 11.710938 5.878906 11.582031 5.757812 11.582031 5.605469 C 11.582031 5.457031 11.710938 5.335938 11.867188 5.335938 C 12.023438 5.335938 12.152344 5.457031 12.152344 5.605469 C 12.152344 5.757812 12.023438 5.878906 11.867188 5.878906 Z M 11.5625 4.34375 C 11.5625 4.195312 11.6875 4.070312 11.847656 4.070312 C 12.003906 4.070312 12.128906 4.195312 12.128906 4.34375 C 12.128906 4.492188 12.003906 4.617188 11.847656 4.617188 C 11.6875 4.617188 11.5625 4.492188 11.5625 4.34375 Z M 11.867188 3.328125 C 11.710938 3.328125 11.582031 3.203125 11.582031 3.054688 C 11.582031 2.90625 11.710938 2.785156 11.867188 2.785156 C 12.027344 2.785156 12.152344 2.90625 12.152344 3.054688 C 12.152344 3.203125 12.027344 3.328125 11.867188 3.328125 Z M 12.484375 9.117188 C 12.328125 9.117188 12.199219 8.996094 12.199219 8.847656 C 12.199219 8.695312 12.328125 8.574219 12.484375 8.574219 C 12.640625 8.574219 12.769531 8.695312 12.769531 8.847656 C 12.769531 8.996094 12.640625 9.117188 12.484375 9.117188 Z M 12.515625 7.820312 C 12.355469 7.820312 12.230469 7.699219 12.230469 7.550781 C 12.230469 7.402344 12.355469 7.277344 12.515625 7.277344 C 12.671875 7.277344 12.796875 7.402344 12.796875 7.550781 C 12.796875 7.699219 12.671875 7.820312 12.515625 7.820312 Z M 12.535156 6.515625 C 12.375 6.515625 12.25 6.394531 12.25 6.242188 C 12.25 6.09375 12.375 5.972656 12.535156 5.972656 C 12.691406 5.972656 12.816406 6.09375 12.816406 6.242188 C 12.816406 6.394531 12.691406 6.515625 12.535156 6.515625 Z M 12.578125 2.648438 C 12.421875 2.648438 12.296875 2.527344 12.296875 2.375 C 12.296875 2.226562 12.421875 2.105469 12.578125 2.105469 C 12.738281 2.105469 12.863281 2.226562 12.863281 2.375 C 12.863281 2.527344 12.738281 2.648438 12.578125 2.648438 Z M 13.179688 8.457031 C 13.019531 8.457031 12.894531 8.335938 12.894531 8.183594 C 12.894531 8.035156 13.019531 7.914062 13.179688 7.914062 C 13.335938 7.914062 13.464844 8.035156 13.464844 8.183594 C 13.464844 8.335938 13.335938 8.457031 13.179688 8.457031 Z M 13.207031 7.160156 C 13.050781 7.160156 12.925781 7.039062 12.925781 6.886719 C 12.925781 6.738281 13.050781 6.617188 13.207031 6.617188 C 13.367188 6.617188 13.492188 6.738281 13.492188 6.886719 C 13.492188 7.039062 13.367188 7.160156 13.207031 7.160156 Z M 12.910156 5.609375 C 12.910156 5.460938 13.039062 5.339844 13.195312 5.339844 C 13.351562 5.339844 13.480469 5.460938 13.480469 5.609375 C 13.480469 5.761719 13.351562 5.882812 13.195312 5.882812 C 13.039062 5.882812 12.910156 5.761719 12.910156 5.609375 Z M 13.214844 4.589844 C 13.058594 4.589844 12.929688 4.46875 12.929688 4.320312 C 12.929688 4.167969 13.058594 4.046875 13.214844 4.046875 C 13.371094 4.046875 13.5 4.167969 13.5 4.320312 C 13.5 4.46875 13.371094 4.589844 13.214844 4.589844 Z M 13.246094 3.28125 C 13.085938 3.28125 12.960938 3.160156 12.960938 3.011719 C 12.960938 2.859375 13.085938 2.738281 13.246094 2.738281 C 13.402344 2.738281 13.527344 2.859375 13.527344 3.011719 C 13.527344 3.160156 13.402344 3.28125 13.246094 3.28125 Z M 13.875 7.792969 C 13.714844 7.792969 13.589844 7.671875 13.589844 7.519531 C 13.589844 7.371094 13.714844 7.25 13.875 7.25 C 14.03125 7.25 14.15625 7.371094 14.15625 7.519531 C 14.15625 7.671875 14.03125 7.792969 13.875 7.792969 Z M 13.585938 6.253906 C 13.585938 6.105469 13.714844 5.984375 13.871094 5.984375 C 14.027344 5.984375 14.15625 6.105469 14.15625 6.253906 C 14.15625 6.40625 14.027344 6.527344 13.871094 6.527344 C 13.714844 6.527344 13.585938 6.40625 13.585938 6.253906 Z M 13.882812 5.226562 C 13.726562 5.226562 13.597656 5.105469 13.597656 4.957031 C 13.597656 4.804688 13.726562 4.683594 13.882812 4.683594 C 14.039062 4.683594 14.167969 4.804688 14.167969 4.957031 C 14.167969 5.105469 14.039062 5.226562 13.882812 5.226562 Z M 13.925781 3.914062 C 13.769531 3.914062 13.640625 3.789062 13.640625 3.640625 C 13.640625 3.492188 13.769531 3.371094 13.925781 3.371094 C 14.085938 3.371094 14.210938 3.492188 14.210938 3.640625 C 14.210938 3.789062 14.085938 3.914062 13.925781 3.914062 Z M 14.535156 7.160156 C 14.378906 7.160156 14.25 7.039062 14.25 6.890625 C 14.25 6.738281 14.378906 6.617188 14.535156 6.617188 C 14.691406 6.617188 14.820312 6.738281 14.820312 6.890625 C 14.820312 7.039062 14.691406 7.160156 14.535156 7.160156 Z M 14.558594 5.871094 C 14.402344 5.871094 14.273438 5.75 14.273438 5.601562 C 14.273438 5.449219 14.402344 5.328125 14.558594 5.328125 C 14.714844 5.328125 14.84375 5.449219 14.84375 5.601562 C 14.84375 5.75 14.714844 5.871094 14.558594 5.871094 Z M 14.59375 4.550781 C 14.4375 4.550781 14.308594 4.425781 14.308594 4.277344 C 14.308594 4.128906 14.4375 4.007812 14.59375 4.007812 C 14.75 4.007812 14.878906 4.128906 14.878906 4.277344 C 14.878906 4.425781 14.75 4.550781 14.59375 4.550781 Z M 5.09375 12.132812 C 4.542969 12.617188 1.933594 15.09375 1.808594 15.242188 C 1.675781 15.402344 1.421875 15.976562 1.171875 15.992188 C 0.921875 16.011719 0 15.46875 0 14.875 C 0 14.601562 0.503906 14.476562 0.804688 14.269531 C 0.898438 14.203125 3.628906 11.632812 4.074219 11.210938 C 4.238281 11.464844 4.542969 11.808594 5.09375 12.132812 Z M 14.882812 13.808594 C 14.882812 14.964844 13.925781 15.910156 12.714844 15.949219 C 11.503906 15.988281 10.480469 15.105469 10.398438 13.953125 C 10.316406 12.800781 11.207031 11.792969 12.410156 11.675781 C 12.292969 11.890625 12.039062 12.246094 11.484375 12.761719 C 10.933594 13.269531 10.644531 13.851562 10.675781 14.398438 C 10.695312 14.804688 10.902344 15.183594 11.238281 15.429688 C 11.554688 15.664062 11.984375 15.792969 12.410156 15.792969 C 12.601562 15.792969 12.789062 15.765625 12.972656 15.714844 C 13.441406 15.578125 13.773438 15.285156 13.910156 14.890625 C 13.992188 14.648438 14.070312 14.382812 14.144531 14.125 C 14.285156 13.648438 14.4375 13.125 14.621094 12.800781 C 14.792969 13.109375 14.882812 13.457031 14.882812 13.808594 Z M 12.636719 11.667969 C 13.386719 11.667969 14.082031 12.019531 14.5 12.613281 C 14.277344 12.949219 14.117188 13.5 13.949219 14.074219 C 13.875 14.328125 13.796875 14.59375 13.71875 14.832031 C 13.601562 15.164062 13.316406 15.414062 12.914062 15.53125 C 12.390625 15.683594 11.769531 15.582031 11.363281 15.28125 C 11.070312 15.066406 10.894531 14.738281 10.875 14.386719 C 10.847656 13.898438 11.113281 13.371094 11.621094 12.898438 C 12.273438 12.300781 12.535156 11.898438 12.636719 11.667969 Z M 12.636719 11.667969 "/>
</g>
</g>
</svg>
