<?xml version="1.0" encoding="UTF-8"?>
<svg xmlns="http://www.w3.org/2000/svg" xmlns:xlink="http://www.w3.org/1999/xlink" width="9px" height="11px" viewBox="0 0 9 11" version="1.1">
<g id="surface1">
<path style=" stroke:none;fill-rule:nonzero;fill:rgb(30%,30%,30%);fill-opacity:1;" d="M 7.859375 1.1875 L 6.636719 2.359375 C 6.359375 2.625 6.546875 3.230469 6.605469 3.390625 L 5.960938 4.007812 C 5.640625 1.957031 4.6875 0.167969 4.558594 0.00390625 C 4.574219 0.03125 4.566406 0.257812 4.566406 3.792969 C 4.566406 3.828125 4.535156 3.855469 4.5 3.855469 C 4.851562 3.855469 5.160156 4.152344 5.34375 4.601562 L 3.605469 6.261719 C 3.25 5.167969 3.753906 3.855469 4.5 3.855469 C 4.421875 3.855469 4.433594 3.773438 4.433594 3.730469 C 4.433594 0.4375 4.425781 0.0585938 4.4375 0.0078125 C 4.292969 0.226562 2.519531 3.292969 3.011719 6.828125 L 2.289062 7.519531 C 1.964844 7.417969 1.464844 7.324219 1.222656 7.554688 L 0 8.726562 L 1.140625 9.820312 L 2.363281 8.644531 C 2.636719 8.382812 2.457031 7.792969 2.394531 7.621094 L 3.039062 7.007812 C 3.382812 9.207031 4.355469 10.863281 4.4375 10.996094 C 4.429688 10.972656 4.433594 10.730469 4.433594 7.214844 C 4.433594 7.195312 4.441406 7.179688 4.453125 7.167969 C 4.464844 7.15625 4.480469 7.148438 4.5 7.148438 C 4.148438 7.148438 3.839844 6.855469 3.660156 6.414062 L 5.398438 4.75 C 5.746094 5.859375 5.242188 7.148438 4.5 7.148438 C 4.515625 7.148438 4.535156 7.15625 4.546875 7.167969 C 4.558594 7.179688 4.566406 7.195312 4.566406 7.214844 C 4.566406 10.714844 4.570312 10.96875 4.5625 10.996094 C 4.664062 10.832031 6.082031 8.414062 6.082031 5.503906 C 6.078125 5.0625 6.046875 4.621094 5.988281 4.1875 L 6.71875 3.488281 C 7.042969 3.589844 7.539062 3.679688 7.777344 3.453125 L 9 2.28125 Z M 7.859375 1.1875 "/>
</g>
</svg>
