<?xml version="1.0" encoding="UTF-8" standalone="no"?>
<!-- Created with Inkscape (http://www.inkscape.org/) -->

<svg
   xmlns:dc="http://purl.org/dc/elements/1.1/"
   xmlns:cc="http://creativecommons.org/ns#"
   xmlns:rdf="http://www.w3.org/1999/02/22-rdf-syntax-ns#"
   xmlns:svg="http://www.w3.org/2000/svg"
   xmlns="http://www.w3.org/2000/svg"
   xmlns:xlink="http://www.w3.org/1999/xlink"
   xmlns:sodipodi="http://sodipodi.sourceforge.net/DTD/sodipodi-0.dtd"
   xmlns:inkscape="http://www.inkscape.org/namespaces/inkscape"
   width="30px"
   height="30px"
   version="1.1"
   id="svg8"
   inkscape:version="0.92.4 5da689c313, 2019-01-14"
   sodipodi:docname="container.svg">
  <defs
     id="defs2" />
  <sodipodi:namedview
     id="base"
     pagecolor="#ffffff"
     bordercolor="#666666"
     borderopacity="1.0"
     inkscape:pageopacity="0.0"
     inkscape:pageshadow="2"
     inkscape:zoom="13.049334"
     inkscape:cx="18.679046"
     inkscape:cy="12.165829"
     inkscape:document-units="px"
     inkscape:current-layer="layer1"
     showgrid="false"
     inkscape:snap-page="false"
     units="px"
     inkscape:window-width="1884"
     inkscape:window-height="1061"
     inkscape:window-x="0"
     inkscape:window-y="0"
     inkscape:window-maximized="1"
     fit-margin-top="0"
     fit-margin-left="0"
     fit-margin-right="0"
     fit-margin-bottom="0" />
  <metadata
     id="metadata5">
    <rdf:RDF>
      <cc:Work
         rdf:about="">
        <dc:format>image/svg+xml</dc:format>
        <dc:type
           rdf:resource="http://purl.org/dc/dcmitype/StillImage" />
        <dc:title></dc:title>
      </cc:Work>
    </rdf:RDF>
  </metadata>
    <circle
       style="color:#000000;clip-rule:nonzero;display:inline;overflow:visible;visibility:visible;opacity:1;isolation:auto;mix-blend-mode:normal;color-interpolation:sRGB;color-interpolation-filters:linearRGB;solid-color:#000000;solid-opacity:1;vector-effect:none;fill:#00A757;fill-opacity:1;fill-rule:evenodd;stroke:#ffffff;stroke-width:1;stroke-linecap:butt;stroke-linejoin:miter;stroke-miterlimit:4;stroke-dasharray:none;stroke-dashoffset:0;stroke-opacity:1;marker:none;color-rendering:auto;image-rendering:auto;shape-rendering:auto;text-rendering:auto;enable-background:accumulate"
       id="path815"
       cx="15"
       cy="15"
       r="14.5" />
<g transform="translate(6,7)"><g id="surface1">
<path style=" stroke:none;fill-rule:nonzero;fill:#FFFFFF;fill-opacity:1;" d="M 10.46875 11.703125 C 10.078125 12.132812 9.511719 12.378906 8.917969 12.375 C 8.019531 12.375 7.269531 11.875 6.972656 11.015625 L 6.976562 11.015625 C 6.925781 10.847656 6.898438 10.667969 6.898438 10.492188 C 6.898438 9.449219 7.804688 8.605469 8.917969 8.605469 C 10.035156 8.605469 10.941406 9.449219 10.941406 10.492188 C 10.941406 10.746094 10.882812 11 10.777344 11.234375 C 11.855469 11.234375 12.820312 11.234375 12.851562 11.222656 C 13.128906 11.21875 15.167969 6.472656 16.867188 2.390625 L 16.867188 0.0078125 L 13.136719 8.792969 C 13.101562 8.875 13.003906 8.917969 12.914062 8.886719 C 12.003906 8.582031 7.476562 7.148438 7.476562 7.148438 C 6.792969 6.933594 6.042969 7.335938 5.925781 8.015625 C 5.867188 8.339844 5.890625 8.699219 5.890625 9.101562 L 5.890625 9.410156 C 5.890625 10.035156 6.230469 10.617188 6.789062 10.949219 L 2.640625 9.789062 L 0 10.074219 L 4.375 12.707031 C 3.757812 13.03125 3.40625 13.414062 3.40625 13.824219 C 3.40625 15.023438 6.449219 15.992188 10.203125 15.992188 C 13.957031 15.992188 17 15.023438 17 13.824219 C 17 12.664062 13.945312 12.5625 10.46875 11.703125 Z M 10.347656 13.660156 C 9.882812 13.660156 9.507812 13.550781 9.507812 13.414062 C 9.507812 13.277344 9.882812 13.164062 10.347656 13.164062 C 10.8125 13.164062 11.1875 13.277344 11.1875 13.414062 C 11.1875 13.550781 10.8125 13.660156 10.347656 13.660156 Z M 10.347656 13.660156 "/>
</g>
</g>
</svg>
