<?xml version="1.0" encoding="UTF-8" standalone="no"?>
<!-- Created with Inkscape (http://www.inkscape.org/) -->

<svg
   xmlns:dc="http://purl.org/dc/elements/1.1/"
   xmlns:cc="http://creativecommons.org/ns#"
   xmlns:rdf="http://www.w3.org/1999/02/22-rdf-syntax-ns#"
   xmlns:svg="http://www.w3.org/2000/svg"
   xmlns="http://www.w3.org/2000/svg"
   xmlns:xlink="http://www.w3.org/1999/xlink"
   xmlns:sodipodi="http://sodipodi.sourceforge.net/DTD/sodipodi-0.dtd"
   xmlns:inkscape="http://www.inkscape.org/namespaces/inkscape"
   width="30px"
   height="30px"
   version="1.1"
   id="svg8"
   inkscape:version="0.92.4 5da689c313, 2019-01-14"
   sodipodi:docname="container.svg">
  <defs
     id="defs2" />
  <sodipodi:namedview
     id="base"
     pagecolor="#ffffff"
     bordercolor="#666666"
     borderopacity="1.0"
     inkscape:pageopacity="0.0"
     inkscape:pageshadow="2"
     inkscape:zoom="13.049334"
     inkscape:cx="18.679046"
     inkscape:cy="12.165829"
     inkscape:document-units="px"
     inkscape:current-layer="layer1"
     showgrid="false"
     inkscape:snap-page="false"
     units="px"
     inkscape:window-width="1884"
     inkscape:window-height="1061"
     inkscape:window-x="0"
     inkscape:window-y="0"
     inkscape:window-maximized="1"
     fit-margin-top="0"
     fit-margin-left="0"
     fit-margin-right="0"
     fit-margin-bottom="0" />
  <metadata
     id="metadata5">
    <rdf:RDF>
      <cc:Work
         rdf:about="">
        <dc:format>image/svg+xml</dc:format>
        <dc:type
           rdf:resource="http://purl.org/dc/dcmitype/StillImage" />
        <dc:title></dc:title>
      </cc:Work>
    </rdf:RDF>
  </metadata>
    <circle
       style="color:#000000;clip-rule:nonzero;display:inline;overflow:visible;visibility:visible;opacity:1;isolation:auto;mix-blend-mode:normal;color-interpolation:sRGB;color-interpolation-filters:linearRGB;solid-color:#000000;solid-opacity:1;vector-effect:none;fill:#ffffff;fill-opacity:1;fill-rule:evenodd;stroke:#00A757;stroke-width:1;stroke-linecap:butt;stroke-linejoin:miter;stroke-miterlimit:4;stroke-dasharray:none;stroke-dashoffset:0;stroke-opacity:1;marker:none;color-rendering:auto;image-rendering:auto;shape-rendering:auto;text-rendering:auto;enable-background:accumulate"
       id="path815"
       cx="15"
       cy="15"
       r="14.5" />
<g transform="translate(6,7)"><g id="surface1">
<path style=" stroke:none;fill-rule:nonzero;fill:rgb(30%,30%,30%);fill-opacity:1;" d="M 15.976562 15.097656 L 13.527344 15.097656 C 13.464844 15.097656 13.410156 15.046875 13.410156 14.988281 L 13.410156 12.871094 C 13.410156 12.816406 13.449219 12.769531 13.503906 12.761719 C 13.6875 12.730469 13.871094 12.6875 14.046875 12.632812 C 16.324219 11.941406 19.960938 9.386719 12.683594 0 C 5.425781 9.359375 9.019531 11.925781 11.296875 12.625 C 11.476562 12.679688 11.664062 12.726562 11.851562 12.761719 C 11.90625 12.769531 11.945312 12.816406 11.945312 12.867188 L 11.945312 14.988281 C 11.945312 15.046875 11.894531 15.097656 11.828125 15.097656 L 4.792969 15.097656 C 4.761719 15.097656 4.730469 15.085938 4.710938 15.0625 C 4.6875 15.042969 4.675781 15.015625 4.675781 14.984375 L 4.683594 13.878906 C 4.671875 13.835938 4.683594 13.792969 4.710938 13.757812 C 4.738281 13.722656 4.785156 13.703125 4.832031 13.703125 L 6.09375 13.703125 C 6.910156 13.703125 8.015625 13.226562 8.015625 12.214844 L 8.015625 12.074219 C 8.015625 11.996094 7.949219 11.929688 7.867188 11.929688 L 4.585938 11.929688 C 4.503906 11.929688 4.4375 11.867188 4.4375 11.789062 L 4.4375 10.332031 C 4.4375 10.253906 4.503906 10.191406 4.585938 10.191406 L 5.214844 10.191406 C 5.605469 10.191406 5.921875 9.886719 5.921875 9.515625 C 5.921875 9.4375 5.855469 9.371094 5.773438 9.371094 L 4.320312 9.371094 C 4.28125 9.371094 4.242188 9.355469 4.214844 9.328125 C 4.1875 9.300781 4.171875 9.265625 4.171875 9.226562 L 4.179688 8.1875 C 4.179688 8.046875 4.289062 7.925781 4.433594 7.898438 C 4.582031 7.875 4.726562 7.957031 4.777344 8.089844 C 4.796875 8.148438 4.855469 8.1875 4.917969 8.1875 L 4.925781 8.1875 C 4.976562 8.1875 5.023438 8.164062 5.050781 8.128906 C 5.078125 8.089844 5.085938 8.042969 5.070312 8 C 5.003906 7.820312 4.851562 7.679688 4.664062 7.625 C 4.472656 7.574219 4.265625 7.609375 4.109375 7.726562 C 4.054688 7.769531 3.972656 7.769531 3.917969 7.726562 C 3.761719 7.609375 3.554688 7.574219 3.367188 7.625 C 3.175781 7.679688 3.023438 7.820312 2.957031 8 C 2.941406 8.042969 2.949219 8.089844 2.976562 8.128906 C 3.007812 8.167969 3.050781 8.1875 3.101562 8.1875 L 3.109375 8.1875 C 3.171875 8.1875 3.230469 8.148438 3.25 8.089844 C 3.300781 7.957031 3.445312 7.875 3.59375 7.898438 C 3.738281 7.925781 3.847656 8.042969 3.847656 8.1875 L 3.835938 9.230469 C 3.835938 9.308594 3.769531 9.371094 3.6875 9.371094 L 2.308594 9.371094 C 2.226562 9.371094 2.15625 9.4375 2.15625 9.515625 C 2.15625 9.886719 2.472656 10.191406 2.867188 10.191406 L 3.429688 10.191406 C 3.511719 10.191406 3.578125 10.253906 3.578125 10.332031 L 3.578125 11.789062 C 3.578125 11.867188 3.511719 11.929688 3.429688 11.929688 L 0.152344 11.929688 C 0.0703125 11.929688 0.00390625 11.996094 0.00390625 12.074219 L 0.00390625 12.214844 C 0.00390625 13.226562 1.023438 13.703125 1.929688 13.703125 L 3.277344 13.703125 C 3.324219 13.703125 3.367188 13.722656 3.394531 13.757812 C 3.425781 13.792969 3.433594 13.835938 3.421875 13.878906 L 3.390625 14.988281 C 3.390625 15.050781 3.339844 15.097656 3.277344 15.097656 L 1.15625 15.097656 C 0.894531 15.097656 0.683594 15.296875 0.683594 15.546875 C 0.683594 15.796875 0.894531 16 1.15625 16 L 15.976562 16 C 16.238281 16 16.449219 15.796875 16.449219 15.546875 C 16.449219 15.296875 16.238281 15.097656 15.976562 15.097656 Z M 15.976562 15.097656 "/>
<path style=" stroke:none;fill-rule:nonzero;fill:rgb(30%,30%,30%);fill-opacity:1;" d="M 3.023438 8.472656 C 3.410156 8.964844 3.21875 9.105469 3.097656 9.136719 C 3.039062 9.152344 2.976562 9.152344 2.949219 9.136719 C 2.839844 9.078125 2.636719 8.96875 3.023438 8.472656 Z M 3.023438 8.472656 "/>
<path style=" stroke:none;fill-rule:nonzero;fill:rgb(30%,30%,30%);fill-opacity:1;" d="M 4.980469 8.472656 C 5.371094 8.964844 5.179688 9.105469 5.054688 9.136719 C 5 9.152344 4.9375 9.152344 4.910156 9.136719 C 4.796875 9.078125 4.59375 8.96875 4.980469 8.472656 Z M 4.980469 8.472656 "/>
</g>
</g>
</svg>
