<?xml version="1.0" encoding="UTF-8"?>
<svg xmlns="http://www.w3.org/2000/svg" xmlns:xlink="http://www.w3.org/1999/xlink" width="10px" height="10px" viewBox="0 0 10 10" version="1.1">
<g id="surface1">
<path style=" stroke:none;fill-rule:nonzero;fill:rgb(30%,30%,30%);fill-opacity:1;" d="M 9.386719 7.957031 C 9.371094 7.949219 9.238281 8.078125 8.976562 8.109375 C 9.179688 8.246094 9.226562 8.371094 9.234375 8.5 C 9.257812 8.875 8.738281 9.128906 8.46875 9.128906 L 7.457031 9.128906 C 7.203125 9.128906 6.988281 8.917969 6.972656 8.644531 C 6.972656 8.628906 6.972656 8.617188 6.972656 8.601562 L 6.972656 8.578125 C 6.972656 8.507812 7 8.394531 7.039062 8.269531 L 6.542969 8.269531 C 6.542969 8.269531 6.609375 8.425781 6.609375 8.546875 C 6.605469 8.667969 6.609375 8.558594 6.609375 8.566406 C 6.605469 8.835938 6.390625 9.078125 6.113281 9.125 L 2.867188 9.097656 C 2.363281 8.882812 2.621094 8.472656 2.722656 8.339844 C 2.726562 8.335938 2.726562 8.324219 2.722656 8.316406 C 2.71875 8.304688 2.710938 8.300781 2.703125 8.300781 L 1.695312 8.316406 C 1.695312 8.316406 1.679688 8.53125 1.28125 8.769531 C 0.964844 8.964844 0.613281 9.089844 0.253906 9.148438 C -0.0820312 9.199219 -0.0078125 9.546875 0.0625 9.59375 C 1.078125 10.261719 8.484375 9.910156 8.652344 9.882812 C 8.996094 9.828125 9.363281 9.722656 9.585938 9.585938 C 10.5 9.019531 9.644531 8.09375 9.386719 7.957031 Z M 9.386719 7.957031 "/>
<path style="fill-rule:nonzero;fill:rgb(30%,30%,30%);fill-opacity:1;stroke-width:3.26868;stroke-linecap:butt;stroke-linejoin:miter;stroke:rgb(0%,0%,0%);stroke-opacity:1;stroke-miterlimit:10;" d="M 917.164111 648.287607 C 899.594996 626.509311 867.447254 610.953385 828.944725 606.113763 C 810.254178 603.693953 794.927928 600.928455 782.218356 598.508644 L 776.611192 610.26201 C 776.237381 610.953385 775.86357 611.644759 775.489759 612.336134 C 776.237381 615.101632 776.611192 617.521442 776.237381 620.28694 C 775.115948 629.274809 767.265918 635.842866 758.294455 635.151492 C 749.322992 634.460117 742.220584 627.200685 742.220584 618.212817 C 742.220584 610.953385 746.706315 604.731014 753.061102 602.311204 C 753.434912 601.274142 753.808723 600.23708 754.182534 599.545706 L 757.546833 591.940586 C 750.070614 589.866463 742.594395 586.755277 735.491987 582.952718 C 733.622932 581.915656 731.006255 580.532907 727.641957 578.804471 L 719.418116 593.669022 C 719.044305 594.01471 718.670494 594.706084 717.922872 595.397459 C 718.670494 597.817269 719.044305 600.23708 718.296683 603.002578 C 716.801439 610.953385 710.072842 616.830068 701.47519 617.175755 C 693.251349 617.175755 686.148941 610.953385 684.653697 602.656891 C 683.532264 594.360397 688.391806 586.063903 696.615647 583.644092 C 696.615647 582.60703 696.989458 581.915656 697.73708 581.224282 L 705.960921 566.705417 C 697.363269 561.520108 687.270374 555.643425 677.177478 549.075368 C 676.803667 549.766742 676.429856 550.112429 676.056045 550.803804 L 664.094094 566.35973 C 664.094094 567.051104 664.094094 567.396792 664.094094 568.088166 C 664.094094 577.076035 656.991686 584.681154 648.020223 585.026841 C 639.04876 585.718216 631.19873 579.150158 630.077298 570.16229 C 628.955865 560.828734 635.310651 552.877927 644.282114 551.149491 L 656.244064 535.593565 C 647.272601 529.371195 638.674949 523.148824 630.077298 516.580766 L 618.862969 527.642758 C 617.741536 528.67982 616.620103 529.371195 615.49867 530.062569 C 616.620103 536.976314 613.255805 544.235746 607.274829 548.038306 C 601.293854 551.495178 593.443824 551.149491 587.83666 546.655557 C 582.229495 542.161623 579.98663 534.90219 582.229495 527.988446 C 584.472361 521.074701 590.453336 516.580766 597.555744 516.235079 C 598.303366 513.815268 599.424799 511.741145 600.920043 510.012709 L 610.265317 500.679153 C 603.910531 494.80247 597.929555 489.271474 592.322391 483.394791 C 592.322391 483.394791 592.322391 483.394791 592.322391 483.740478 L 576.24852 499.642091 C 575.874709 500.333466 575.127087 500.679153 574.753276 501.02484 C 574.005654 510.358396 566.155624 517.272141 556.81035 516.926454 C 547.465077 516.580766 540.362668 508.62996 540.362668 499.296404 C 540.736479 490.308536 548.212698 482.703416 557.557972 482.703416 C 557.557972 482.703416 557.931783 482.703416 557.931783 482.703416 C 557.931783 482.357729 558.305594 482.357729 558.679405 482.012042 L 574.753276 465.764741 C 575.127087 465.419054 575.874709 465.073367 576.24852 464.381992 C 572.1366 459.542371 568.024679 454.011375 563.912759 448.480379 C 563.538948 448.826066 563.165137 449.171753 562.791326 449.171753 L 542.979345 460.579433 C 541.857912 461.270807 540.736479 461.616494 539.615047 461.962182 C 539.241236 468.875926 534.007882 475.098297 527.279285 476.826733 C 520.550688 478.900857 513.074469 476.481046 508.962548 470.604363 C 504.850628 465.073367 504.476817 457.468247 508.214926 451.245877 C 511.953036 445.369194 519.055444 442.258008 525.784041 443.640757 C 526.905474 441.566634 528.774529 440.183885 530.643584 438.801136 L 549.334131 428.084831 C 543.726967 419.788337 537.745992 411.146156 532.138827 402.503975 C 531.391206 403.19535 530.269773 403.886724 529.522151 404.578099 L 509.71017 415.985778 C 508.588737 416.677152 507.467304 417.022839 505.972061 417.368527 C 504.476817 424.282272 498.869652 429.46758 491.767244 430.504642 C 485.038647 431.541704 477.936239 428.084831 474.57194 422.208148 C 470.833831 415.985778 471.581453 408.380658 475.693373 402.849662 C 479.805294 397.318666 487.281513 394.898856 494.01011 396.972979 C 494.757732 395.935917 495.879165 394.898856 497.374409 394.207481 L 516.812578 382.799802 C 517.5602 382.454115 518.307822 382.108428 519.055444 381.76274 C 512.700658 371.392123 506.345872 361.021506 500.364896 350.650888 C 499.617274 351.68795 498.495842 352.379324 497.74822 353.070699 L 477.936239 364.478378 C 476.814806 365.169753 475.319562 365.51544 474.198129 365.861127 C 472.702886 372.429185 467.095721 377.614493 459.993313 378.651555 C 453.264716 380.034304 446.162308 376.577432 442.798009 370.700748 C 439.0599 364.478378 439.433711 356.873259 443.919442 351.342263 C 448.031363 345.811267 455.507582 343.391456 462.236179 345.46558 C 462.983801 344.428518 464.105234 343.391456 465.226667 342.700082 L 485.038647 331.292402 C 486.16008 330.601028 487.655324 330.255341 488.776757 329.909653 C 483.543403 320.576098 479.057672 311.588229 474.945751 303.291735 C 474.57194 303.291735 474.198129 303.637423 474.198129 303.637423 L 454.386149 315.045102 C 453.638527 315.390789 453.264716 315.736476 452.517094 315.736476 C 449.900417 324.724345 440.555144 329.563966 431.957492 327.144155 C 425.976516 325.761406 421.490785 321.267472 419.995541 315.390789 C 418.126486 310.20548 419.62173 304.328797 422.986029 299.834863 C 426.724138 295.340929 432.331303 293.266805 437.938467 293.612493 C 439.0599 293.95818 439.807522 293.95818 440.555144 294.303867 C 440.928955 293.95818 441.302765 293.612493 441.676576 293.266805 L 461.488557 281.859126 C 462.60999 281.513439 463.731423 281.167752 464.852856 280.822064 C 461.862368 273.562632 459.993313 267.685949 458.87188 263.192015 C 451.02185 219.981109 454.012338 148.078162 462.60999 64.421848 C 465.974288 30.198811 335.140454 82.397585 232.716253 121.114557 C 216.268571 127.336927 164.308848 122.151618 164.308848 122.151618 C 164.308848 122.151618 187.485127 217.561298 177.018421 290.501307 C 164.308848 378.305868 110.853882 501.02484 107.489583 547.692619 C 103.003852 610.26201 128.049186 633.077368 129.170618 642.065237 C 130.292051 651.053105 135.899216 768.241082 159.823117 775.154827 L 322.057071 773.080703 C 326.168991 772.735016 329.53329 769.623831 329.53329 765.475584 C 329.907101 744.042975 330.654723 683.202019 331.776156 679.745147 C 332.897589 674.905525 338.130942 668.337468 364.67152 671.79434 C 451.02185 681.81927 520.550688 737.474917 565.781813 753.37653 C 611.38675 769.278144 627.834432 769.278144 648.020223 769.278144 C 668.579826 769.278144 835.299512 766.166958 876.418717 755.796341 C 880.904448 754.759279 904.454538 744.388662 918.285543 727.449987 C 931.742738 710.165624 936.60228 671.448653 917.164111 648.287607 Z M 416.257432 82.397585 C 423.35984 81.706211 430.462248 85.50877 433.452735 92.076828 C 436.443223 98.644886 435.32179 106.595692 430.088437 111.781001 C 425.228894 116.620622 417.378864 118.003371 410.650267 114.892186 C 404.295481 111.781001 400.18356 104.867256 400.931182 97.607824 C 402.052615 89.657017 408.407401 83.434647 416.257432 82.397585 Z M 414.762188 135.633421 C 421.864596 134.942046 428.967004 138.744606 431.957492 145.312664 C 434.947979 151.880722 433.826546 159.485841 428.593193 164.67115 C 423.35984 169.856458 415.883621 171.239207 409.155023 168.128022 C 402.800237 165.016837 398.688317 158.103092 399.435939 150.84366 C 400.557371 142.892853 406.912158 136.324795 414.762188 135.633421 Z M 416.257432 190.252006 C 423.35984 189.560631 430.462248 193.363191 433.452735 199.931249 C 436.443223 206.499306 435.32179 214.104426 430.088437 219.289735 C 425.228894 224.475043 417.378864 225.857792 410.650267 222.746607 C 404.295481 219.635422 400.18356 212.721677 400.931182 205.462245 C 402.052615 197.511438 408.407401 190.94338 416.257432 190.252006 Z M 405.790725 256.623957 C 405.043103 249.364525 408.781212 242.45078 415.135999 239.339595 C 421.864596 236.22841 429.714626 237.611159 434.574168 242.45078 C 439.807522 247.636089 441.302765 255.586895 437.938467 262.154953 C 434.947979 268.723011 428.219382 272.525571 420.743163 271.834196 C 412.893133 270.797134 406.538347 264.574764 405.790725 256.623957 Z M 405.790725 256.623957 " transform="matrix(0.0104498,0,0,0.0113,-0.13887,-0.583433)"/>
</g>
</svg>
