<?xml version="1.0" encoding="UTF-8"?>
<svg xmlns="http://www.w3.org/2000/svg" xmlns:xlink="http://www.w3.org/1999/xlink" width="11px" height="8px" viewBox="0 0 11 8" version="1.1">
<g id="surface1">
<path style=" stroke:none;fill-rule:nonzero;fill:rgb(30%,30%,30%);fill-opacity:1;" d="M 10.90625 5.457031 L 10.621094 5.457031 C 10.574219 6.613281 9.671875 7.546875 8.546875 7.597656 L 8.546875 8 L 8.332031 8 L 8.332031 7.59375 C 7.222656 7.53125 6.332031 6.605469 6.285156 5.457031 L 5.976562 5.457031 L 5.976562 5.34375 L 6.285156 5.34375 C 6.289062 4.15625 7.195312 3.1875 8.332031 3.121094 L 8.332031 2.800781 L 8.546875 2.800781 L 8.546875 3.121094 C 9.695312 3.171875 10.617188 4.148438 10.625 5.34375 L 10.90625 5.34375 Z M 8.546875 3.855469 C 9.3125 3.90625 9.90625 4.554688 9.914062 5.34375 L 10.382812 5.34375 C 10.375 4.285156 9.5625 3.421875 8.546875 3.371094 Z M 6.523438 5.34375 L 6.992188 5.34375 C 7 4.566406 7.582031 3.921875 8.332031 3.855469 L 8.332031 3.371094 C 7.328125 3.4375 6.53125 4.296875 6.523438 5.34375 Z M 8.332031 6.859375 C 7.613281 6.796875 7.042969 6.199219 6.996094 5.457031 L 6.527344 5.457031 C 6.574219 6.46875 7.355469 7.285156 8.332031 7.347656 Z M 9.34375 5.359375 C 9.34375 4.851562 8.945312 4.441406 8.453125 4.441406 C 7.964844 4.441406 7.566406 4.851562 7.566406 5.359375 C 7.566406 5.863281 7.964844 6.277344 8.453125 6.277344 C 8.945312 6.277344 9.34375 5.863281 9.34375 5.359375 Z M 10.382812 5.457031 L 9.910156 5.457031 C 9.863281 6.210938 9.28125 6.8125 8.546875 6.863281 L 8.546875 7.347656 C 9.539062 7.296875 10.335938 6.476562 10.382812 5.457031 Z M 8.453125 4.738281 C 8.136719 4.738281 7.878906 5.003906 7.878906 5.332031 C 7.878906 5.660156 8.136719 5.925781 8.453125 5.925781 C 8.773438 5.925781 9.03125 5.660156 9.03125 5.332031 C 9.03125 5.003906 8.773438 4.738281 8.453125 4.738281 Z M 10.96875 0.71875 C 10.96875 0.636719 10.902344 0.570312 10.820312 0.570312 L 10.453125 0.566406 C 10.453125 0.566406 10.449219 0.566406 10.449219 0.566406 L 10.449219 0.203125 C 10.449219 0.101562 10.378906 0.0117188 10.28125 0 C 10.226562 -0.00390625 10.175781 0.015625 10.136719 0.0507812 C 10.097656 0.0859375 10.074219 0.140625 10.074219 0.195312 L 10.074219 0.566406 L 2.964844 0.542969 C 2.894531 0.578125 2.835938 0.605469 2.765625 0.636719 L 2.644531 0.789062 C 2.644531 0.789062 2.378906 1.074219 2.378906 1.074219 C 2.378906 1.074219 1.191406 1.058594 0.652344 1.070312 C 0.503906 1.074219 0.375 1.179688 0.339844 1.328125 L 0.0117188 2.738281 C -0.0117188 2.832031 0.0117188 2.925781 0.0664062 3 C 0.121094 3.074219 0.207031 3.117188 0.300781 3.121094 L 1.839844 3.128906 C 1.875 3.125 1.90625 3.117188 1.9375 3.113281 L 2.90625 2.78125 C 2.929688 2.792969 3.355469 3.011719 3.820312 2.949219 C 4.421875 2.863281 4.367188 2.25 4.398438 2.25 C 4.496094 2.261719 4.648438 2.238281 4.648438 2.238281 L 5.359375 2.226562 C 5.425781 2.226562 5.492188 2.199219 5.539062 2.15625 L 6.0625 1.695312 C 6.0625 1.695312 6.066406 1.695312 6.066406 1.695312 L 10.847656 1.644531 C 10.886719 1.644531 10.925781 1.625 10.957031 1.597656 C 10.984375 1.566406 11 1.523438 10.996094 1.484375 Z M 3.59375 2.632812 C 3.355469 2.632812 3.164062 2.457031 3.160156 2.242188 L 4.03125 2.234375 C 4.03125 2.234375 4.03125 2.238281 4.03125 2.238281 C 4.03125 2.457031 3.835938 2.632812 3.59375 2.632812 Z M 10.703125 1.214844 L 5.988281 1.214844 L 6.152344 0.996094 L 10.703125 1.023438 Z M 10.703125 1.214844 "/>
</g>
</svg>
