<?xml version="1.0" encoding="UTF-8"?>
<svg xmlns="http://www.w3.org/2000/svg" xmlns:xlink="http://www.w3.org/1999/xlink" width="10px" height="10px" viewBox="0 0 10 10" version="1.1">
<g id="surface1">
<path style=" stroke:none;fill-rule:nonzero;fill:rgb(30%,30%,30%);fill-opacity:1;" d="M 9.914062 1.472656 C 9.921875 2.253906 8.871094 2.90625 8.871094 2.90625 C 8.125 3.480469 7.769531 4.042969 7.769531 4.042969 C 7.769531 4.042969 7.4375 3.464844 6.617188 2.90625 C 6.386719 2.695312 5.714844 2.214844 5.707031 1.507812 C 5.699219 0.796875 6.132812 0.441406 6.675781 0.433594 C 7.214844 0.429688 7.761719 0.957031 7.769531 1.511719 C 7.761719 0.957031 8.316406 0.421875 8.855469 0.417969 C 9.394531 0.410156 9.910156 0.917969 9.914062 1.472656 "/>
<path style=" stroke:none;fill-rule:nonzero;fill:rgb(30%,30%,30%);fill-opacity:1;" d="M 3.382812 1.132812 C 2.558594 0.636719 2.273438 0 2.273438 0 C 2.273438 0 2.03125 0.566406 1.28125 1.132812 C 1.28125 1.132812 0.152344 1.773438 0.152344 2.554688 C 0.152344 3.105469 0.664062 3.617188 1.203125 3.617188 C 1.773438 3.617188 2.035156 3.246094 2.183594 3.121094 C 1.984375 3.75 1.496094 4.539062 1.203125 4.539062 C 0.730469 4.539062 3.335938 4.578125 3.324219 4.539062 C 2.886719 4.332031 2.558594 3.828125 2.40625 3.121094 C 2.601562 3.28125 2.933594 3.617188 3.382812 3.617188 C 3.925781 3.617188 4.359375 3.261719 4.359375 2.554688 C 4.359375 1.84375 3.609375 1.347656 3.382812 1.132812 Z M 3.382812 1.132812 "/>
<path style=" stroke:none;fill-rule:nonzero;fill:rgb(30%,30%,30%);fill-opacity:1;" d="M 0.00390625 7.730469 C 0.0625 7.871094 2.070312 6.804688 2.292969 5.601562 C 2.171875 6.253906 4.179688 7.859375 4.4375 7.730469 C 3.234375 8.226562 2.273438 9.585938 2.292969 9.789062 C 2.3125 9.964844 1.957031 8.511719 0.00390625 7.730469 Z M 0.00390625 7.730469 "/>
<path style=" stroke:none;fill-rule:nonzero;fill:rgb(30%,30%,30%);fill-opacity:1;" d="M 8.941406 6.949219 C 8.742188 6.949219 8.523438 7.058594 8.324219 7.199219 C 8.496094 6.957031 8.644531 6.679688 8.644531 6.453125 C 8.644531 5.925781 8.316406 5.460938 7.816406 5.460938 C 7.320312 5.460938 6.917969 5.925781 6.917969 6.453125 C 6.917969 6.695312 7.101562 6.992188 7.304688 7.25 C 7.089844 7.085938 6.84375 6.949219 6.621094 6.949219 C 6.058594 6.949219 5.566406 7.328125 5.5625 7.796875 C 5.5625 8.265625 6.050781 8.578125 6.613281 8.582031 C 6.976562 8.582031 7.40625 8.308594 7.664062 8.09375 C 7.609375 8.8125 7.484375 9.589844 6.691406 10 L 8.871094 10 C 8.441406 9.800781 7.921875 9.179688 7.894531 8.09375 C 8.152344 8.308594 8.585938 8.582031 8.949219 8.582031 C 9.507812 8.578125 10 8.265625 9.996094 7.796875 C 9.996094 7.328125 9.503906 6.949219 8.941406 6.949219 Z M 8.941406 6.949219 "/>
</g>
</svg>
