<?xml version="1.0" encoding="UTF-8" standalone="no"?>
<!-- Created with Inkscape (http://www.inkscape.org/) -->

<svg
   xmlns:dc="http://purl.org/dc/elements/1.1/"
   xmlns:cc="http://creativecommons.org/ns#"
   xmlns:rdf="http://www.w3.org/1999/02/22-rdf-syntax-ns#"
   xmlns:svg="http://www.w3.org/2000/svg"
   xmlns="http://www.w3.org/2000/svg"
   xmlns:xlink="http://www.w3.org/1999/xlink"
   xmlns:sodipodi="http://sodipodi.sourceforge.net/DTD/sodipodi-0.dtd"
   xmlns:inkscape="http://www.inkscape.org/namespaces/inkscape"
   width="30px"
   height="30px"
   version="1.1"
   id="svg8"
   inkscape:version="0.92.4 5da689c313, 2019-01-14"
   sodipodi:docname="container.svg">
  <defs
     id="defs2" />
  <sodipodi:namedview
     id="base"
     pagecolor="#ffffff"
     bordercolor="#666666"
     borderopacity="1.0"
     inkscape:pageopacity="0.0"
     inkscape:pageshadow="2"
     inkscape:zoom="13.049334"
     inkscape:cx="18.679046"
     inkscape:cy="12.165829"
     inkscape:document-units="px"
     inkscape:current-layer="layer1"
     showgrid="false"
     inkscape:snap-page="false"
     units="px"
     inkscape:window-width="1884"
     inkscape:window-height="1061"
     inkscape:window-x="0"
     inkscape:window-y="0"
     inkscape:window-maximized="1"
     fit-margin-top="0"
     fit-margin-left="0"
     fit-margin-right="0"
     fit-margin-bottom="0" />
  <metadata
     id="metadata5">
    <rdf:RDF>
      <cc:Work
         rdf:about="">
        <dc:format>image/svg+xml</dc:format>
        <dc:type
           rdf:resource="http://purl.org/dc/dcmitype/StillImage" />
        <dc:title></dc:title>
      </cc:Work>
    </rdf:RDF>
  </metadata>
    <circle
       style="color:#000000;clip-rule:nonzero;display:inline;overflow:visible;visibility:visible;opacity:1;isolation:auto;mix-blend-mode:normal;color-interpolation:sRGB;color-interpolation-filters:linearRGB;solid-color:#000000;solid-opacity:1;vector-effect:none;fill:#ffffff;fill-opacity:1;fill-rule:evenodd;stroke:#00a19a;stroke-width:1;stroke-linecap:butt;stroke-linejoin:miter;stroke-miterlimit:4;stroke-dasharray:none;stroke-dashoffset:0;stroke-opacity:1;marker:none;color-rendering:auto;image-rendering:auto;shape-rendering:auto;text-rendering:auto;enable-background:accumulate"
       id="path815"
       cx="15"
       cy="15"
       r="14.5" />
<g transform="translate(6,8)"><g id="surface1">
<path style=" stroke:none;fill-rule:nonzero;fill:rgb(30%,30%,30%);fill-opacity:1;" d="M 1.289062 7.355469 C 1.324219 7.269531 1.363281 7.1875 1.40625 7.109375 L 1.25 6.910156 C 1.101562 6.722656 1.042969 6.472656 1.089844 6.234375 C 1.132812 5.996094 1.28125 5.789062 1.492188 5.671875 L 1.824219 5.476562 C 2.03125 5.359375 2.277344 5.332031 2.503906 5.40625 C 2.730469 5.480469 2.914062 5.648438 3.011719 5.871094 L 3.027344 5.914062 L 3.316406 6.429688 C 3.429688 6.488281 3.710938 6.609375 4.34375 6.742188 C 4.699219 6.8125 5.054688 6.847656 5.414062 6.84375 C 5.695312 6.84375 5.976562 6.824219 6.257812 6.792969 L 6.171875 6.5 C 6.09375 6.226562 6.125 5.933594 6.257812 5.683594 L 6.378906 5.449219 C 6.535156 5.15625 6.808594 4.949219 7.128906 4.882812 L 7.875 4.730469 C 7.949219 4.714844 8.023438 4.707031 8.101562 4.707031 C 8.546875 4.703125 8.949219 4.976562 9.121094 5.394531 L 9.160156 5.492188 C 9.265625 5.75 9.265625 6.039062 9.164062 6.300781 L 8.992188 6.742188 C 9.109375 6.867188 9.210938 6.992188 9.3125 7.117188 C 9.441406 7.183594 9.578125 7.25 9.714844 7.320312 C 10.546875 7.738281 11.578125 8.261719 12.257812 8.480469 C 12.628906 8.601562 13.195312 8.699219 13.792969 8.800781 C 14.289062 8.882812 14.804688 8.972656 15.289062 9.085938 C 15.300781 8.902344 15.277344 8.769531 15.21875 8.738281 C 15.578125 7.585938 12.371094 6.574219 11.15625 5.742188 C 10.386719 5.21875 9.316406 4.167969 8.53125 3.4375 C 8.40625 3.136719 8.308594 2.863281 8.101562 2.601562 C 8.09375 2.59375 8.085938 2.589844 8.074219 2.585938 L 8.65625 1.832031 C 8.722656 1.742188 8.753906 1.632812 8.746094 1.519531 L 8.734375 1.414062 C 8.710938 1.199219 8.542969 1.03125 8.328125 1.015625 L 7.570312 0.953125 C 7.4375 0.941406 7.308594 0.992188 7.214844 1.085938 L 7.03125 1.277344 C 6.949219 1.359375 6.90625 1.46875 6.902344 1.582031 L 6.894531 2.625 C 6.203125 2.566406 5.082031 2.414062 4.117188 1.871094 C 2.941406 1.210938 2.855469 0.820312 2.820312 0.824219 L 2.742188 0.160156 C 2.734375 0.109375 2.707031 0.0625 2.664062 0.03125 C 2.621094 0.00390625 2.570312 -0.0078125 2.519531 0.00390625 L 2.144531 0.0976562 C 2.09375 0.109375 2.050781 0.140625 2.027344 0.1875 C 2.003906 0.234375 2 0.289062 2.019531 0.335938 L 2.296875 1.027344 C 2.054688 1.167969 1.785156 1.410156 1.578125 1.8125 C 1.472656 2.011719 1.136719 2.949219 0.882812 3.707031 C 0.882812 3.707031 0.878906 3.707031 0.878906 3.707031 C 0.796875 3.960938 0.71875 4.195312 0.664062 4.375 C 0.660156 4.386719 0.65625 4.398438 0.65625 4.410156 C 0.65625 4.414062 0.652344 4.414062 0.652344 4.414062 C 0.09375 4.320312 -0.171875 6.4375 0.125 6.742188 C 0.171875 6.785156 0.339844 7.039062 0.847656 7.214844 Z M 1.289062 7.355469 "/>
<path style=" stroke:none;fill-rule:nonzero;fill:rgb(30%,30%,30%);fill-opacity:1;" d="M 16.792969 11.433594 C 16.773438 9.535156 13.460938 9.414062 12.058594 8.960938 C 11.171875 8.675781 9.847656 7.972656 8.886719 7.492188 C 8.683594 7.238281 8.515625 7.003906 8.238281 6.8125 C 8.230469 6.808594 8.21875 6.804688 8.210938 6.804688 L 8.554688 5.917969 C 8.59375 5.8125 8.59375 5.695312 8.550781 5.589844 L 8.511719 5.492188 C 8.429688 5.292969 8.21875 5.183594 8.011719 5.226562 L 7.261719 5.382812 C 7.132812 5.40625 7.023438 5.492188 6.960938 5.609375 L 6.835938 5.84375 C 6.785156 5.945312 6.773438 6.0625 6.804688 6.171875 L 7.089844 7.175781 C 6.410156 7.316406 5.296875 7.464844 4.210938 7.238281 C 3.179688 7.023438 2.863281 6.804688 2.765625 6.683594 C 2.582031 6.585938 2.40625 5.984375 2.40625 5.984375 C 2.386719 5.9375 2.347656 5.902344 2.300781 5.886719 C 2.25 5.867188 2.199219 5.875 2.152344 5.898438 L 1.820312 6.09375 C 1.773438 6.117188 1.742188 6.164062 1.730469 6.214844 C 1.722656 6.265625 1.734375 6.320312 1.765625 6.359375 L 2.226562 6.941406 C 2.035156 7.148438 1.84375 7.453125 1.761719 7.898438 C 1.714844 8.121094 1.65625 9.113281 1.625 9.914062 C 1.617188 10.183594 1.609375 10.425781 1.609375 10.613281 L 1.609375 10.617188 C 1.609375 10.628906 1.609375 10.640625 1.609375 10.652344 L 1.609375 10.65625 C 1.042969 10.726562 1.386719 12.484375 1.761719 12.691406 C 1.816406 12.722656 2.050781 12.917969 2.589844 12.941406 L 5.246094 13 C 6.339844 13.011719 6.886719 12.640625 8.417969 12.640625 C 10.183594 12.640625 11.226562 12.964844 12.320312 12.929688 L 15.714844 12.628906 C 15.828125 12.609375 15.941406 12.582031 16.050781 12.546875 C 17.28125 12.214844 17.054688 11.488281 16.792969 11.433594 Z M 16.792969 11.433594 "/>
</g>
</g>
</svg>
