<?xml version="1.0" encoding="UTF-8" standalone="no"?>
<!-- Created with Inkscape (http://www.inkscape.org/) -->

<svg
   xmlns:dc="http://purl.org/dc/elements/1.1/"
   xmlns:cc="http://creativecommons.org/ns#"
   xmlns:rdf="http://www.w3.org/1999/02/22-rdf-syntax-ns#"
   xmlns:svg="http://www.w3.org/2000/svg"
   xmlns="http://www.w3.org/2000/svg"
   xmlns:xlink="http://www.w3.org/1999/xlink"
   xmlns:sodipodi="http://sodipodi.sourceforge.net/DTD/sodipodi-0.dtd"
   xmlns:inkscape="http://www.inkscape.org/namespaces/inkscape"
   width="30px"
   height="30px"
   version="1.1"
   id="svg8"
   inkscape:version="0.92.4 5da689c313, 2019-01-14"
   sodipodi:docname="container.svg">
  <defs
     id="defs2" />
  <sodipodi:namedview
     id="base"
     pagecolor="#ffffff"
     bordercolor="#666666"
     borderopacity="1.0"
     inkscape:pageopacity="0.0"
     inkscape:pageshadow="2"
     inkscape:zoom="13.049334"
     inkscape:cx="18.679046"
     inkscape:cy="12.165829"
     inkscape:document-units="px"
     inkscape:current-layer="layer1"
     showgrid="false"
     inkscape:snap-page="false"
     units="px"
     inkscape:window-width="1884"
     inkscape:window-height="1061"
     inkscape:window-x="0"
     inkscape:window-y="0"
     inkscape:window-maximized="1"
     fit-margin-top="0"
     fit-margin-left="0"
     fit-margin-right="0"
     fit-margin-bottom="0" />
  <metadata
     id="metadata5">
    <rdf:RDF>
      <cc:Work
         rdf:about="">
        <dc:format>image/svg+xml</dc:format>
        <dc:type
           rdf:resource="http://purl.org/dc/dcmitype/StillImage" />
        <dc:title></dc:title>
      </cc:Work>
    </rdf:RDF>
  </metadata>
    <circle
       style="color:#000000;clip-rule:nonzero;display:inline;overflow:visible;visibility:visible;opacity:1;isolation:auto;mix-blend-mode:normal;color-interpolation:sRGB;color-interpolation-filters:linearRGB;solid-color:#000000;solid-opacity:1;vector-effect:none;fill:#00a19a;fill-opacity:1;fill-rule:evenodd;stroke:#ffffff;stroke-width:1;stroke-linecap:butt;stroke-linejoin:miter;stroke-miterlimit:4;stroke-dasharray:none;stroke-dashoffset:0;stroke-opacity:1;marker:none;color-rendering:auto;image-rendering:auto;shape-rendering:auto;text-rendering:auto;enable-background:accumulate"
       id="path815"
       cx="15"
       cy="15"
       r="14.5" />
<g transform="translate(7,7)"><g id="surface1">
<path style=" stroke:none;fill-rule:nonzero;fill:#FFFFFF;fill-opacity:1;" d="M 11.894531 9.886719 C 11.878906 9.769531 11.828125 9.65625 11.75 9.566406 C 11.527344 9.269531 11.117188 9.167969 10.777344 9.324219 L 10.71875 9.351562 C 10.683594 9.367188 10.648438 9.382812 10.617188 9.398438 L 7.785156 10.726562 L 6.273438 8.074219 L 7.292969 8.46875 C 7.542969 8.566406 7.824219 8.449219 7.925781 8.207031 L 8.035156 7.949219 L 8.039062 7.9375 L 8.042969 7.921875 C 8.054688 7.898438 8.0625 7.871094 8.070312 7.84375 L 9.414062 4.054688 C 9.554688 3.660156 9.339844 3.234375 8.9375 3.097656 L 8.910156 3.085938 C 8.503906 2.953125 8.0625 3.160156 7.917969 3.550781 L 6.824219 6.632812 C 6.824219 6.632812 4.390625 5.441406 4.03125 5.632812 L 2.914062 6.230469 C 1.972656 6.824219 2.742188 8.035156 2.742188 8.035156 L 5.015625 12.027344 L 5.011719 12.03125 L 5.4375 12.765625 C 5.632812 13.105469 6.070312 13.238281 6.433594 13.066406 L 10.144531 11.328125 L 9.683594 15.292969 C 9.648438 15.621094 9.894531 15.921875 10.234375 15.957031 L 10.574219 15.996094 C 10.914062 16.035156 11.222656 15.796875 11.261719 15.464844 L 11.863281 10.277344 C 11.910156 10.152344 11.917969 10.015625 11.894531 9.886719 Z M 11.894531 9.886719 "/>
<path style=" stroke:none;fill-rule:nonzero;fill:#FFFFFF;fill-opacity:1;" d="M 3.882812 4.164062 C 3.882812 5.203125 3.015625 6.042969 1.945312 6.042969 C 0.875 6.042969 0.0078125 5.203125 0.0078125 4.164062 C 0.0078125 3.125 0.875 2.285156 1.945312 2.285156 C 3.015625 2.285156 3.882812 3.125 3.882812 4.164062 Z M 3.882812 4.164062 "/>
<path style=" stroke:none;fill-rule:nonzero;fill:#FFFFFF;fill-opacity:1;" d="M 7.914062 3.085938 C 7.769531 3.085938 7.640625 3.011719 7.574219 2.886719 L 6.746094 1.328125 L 5.613281 0.6875 C 5.433594 0.582031 5.371094 0.359375 5.480469 0.183594 C 5.585938 0.0078125 5.820312 -0.0507812 6 0.0507812 L 7.226562 0.746094 C 7.289062 0.785156 7.339844 0.835938 7.371094 0.898438 L 8.25 2.550781 C 8.3125 2.664062 8.304688 2.800781 8.238281 2.910156 C 8.167969 3.019531 8.046875 3.085938 7.914062 3.085938 Z M 7.914062 3.085938 "/>
<path style=" stroke:none;fill-rule:nonzero;fill:#FFFFFF;fill-opacity:1;" d="M 11.054688 8.976562 C 10.925781 8.976562 10.804688 8.910156 10.734375 8.800781 L 8.921875 6.011719 C 8.808594 5.839844 8.863281 5.613281 9.042969 5.503906 C 9.21875 5.398438 9.453125 5.449219 9.566406 5.621094 L 11.378906 8.410156 C 11.453125 8.523438 11.457031 8.667969 11.390625 8.785156 C 11.320312 8.902344 11.195312 8.972656 11.054688 8.976562 Z M 11.054688 8.976562 "/>
<path style=" stroke:none;fill-rule:nonzero;fill:#FFFFFF;fill-opacity:1;" d="M 14.613281 15.746094 C 14.441406 15.746094 14.292969 15.636719 14.246094 15.480469 C 14.152344 15.28125 13.527344 14.160156 13.066406 13.335938 C 12.808594 12.878906 12.566406 12.441406 12.386719 12.113281 C 12.289062 11.9375 12.214844 11.808594 12.167969 11.714844 C 12.066406 11.527344 12.007812 11.414062 12.074219 11.25 C 12.132812 11.105469 12.28125 11.015625 12.441406 11.019531 C 12.601562 11.023438 12.738281 11.125 12.789062 11.273438 L 12.789062 11.277344 C 12.867188 11.4375 13.328125 12.257812 13.734375 12.984375 C 14.03125 13.511719 14.335938 14.058594 14.566406 14.480469 C 14.695312 14.707031 14.785156 14.878906 14.851562 15 C 14.976562 15.238281 15.042969 15.367188 14.949219 15.546875 C 14.886719 15.667969 14.753906 15.746094 14.613281 15.746094 Z M 14.273438 15.210938 C 14.25 15.25 14.238281 15.292969 14.234375 15.335938 C 14.238281 15.292969 14.25 15.25 14.273438 15.210938 Z M 14.273438 15.210938 Z M 14.273438 15.210938 Z M 14.273438 15.210938 "/>
</g>
</g>
</svg>
