<?xml version="1.0" encoding="UTF-8" standalone="no"?>
<!-- Created with Inkscape (http://www.inkscape.org/) -->

<svg
   xmlns:dc="http://purl.org/dc/elements/1.1/"
   xmlns:cc="http://creativecommons.org/ns#"
   xmlns:rdf="http://www.w3.org/1999/02/22-rdf-syntax-ns#"
   xmlns:svg="http://www.w3.org/2000/svg"
   xmlns="http://www.w3.org/2000/svg"
   xmlns:xlink="http://www.w3.org/1999/xlink"
   xmlns:sodipodi="http://sodipodi.sourceforge.net/DTD/sodipodi-0.dtd"
   xmlns:inkscape="http://www.inkscape.org/namespaces/inkscape"
   width="30px"
   height="30px"
   version="1.1"
   id="svg8"
   inkscape:version="0.92.4 5da689c313, 2019-01-14"
   sodipodi:docname="container.svg">
  <defs
     id="defs2" />
  <sodipodi:namedview
     id="base"
     pagecolor="#ffffff"
     bordercolor="#666666"
     borderopacity="1.0"
     inkscape:pageopacity="0.0"
     inkscape:pageshadow="2"
     inkscape:zoom="13.049334"
     inkscape:cx="18.679046"
     inkscape:cy="12.165829"
     inkscape:document-units="px"
     inkscape:current-layer="layer1"
     showgrid="false"
     inkscape:snap-page="false"
     units="px"
     inkscape:window-width="1884"
     inkscape:window-height="1061"
     inkscape:window-x="0"
     inkscape:window-y="0"
     inkscape:window-maximized="1"
     fit-margin-top="0"
     fit-margin-left="0"
     fit-margin-right="0"
     fit-margin-bottom="0" />
  <metadata
     id="metadata5">
    <rdf:RDF>
      <cc:Work
         rdf:about="">
        <dc:format>image/svg+xml</dc:format>
        <dc:type
           rdf:resource="http://purl.org/dc/dcmitype/StillImage" />
        <dc:title></dc:title>
      </cc:Work>
    </rdf:RDF>
  </metadata>
    <circle
       style="color:#000000;clip-rule:nonzero;display:inline;overflow:visible;visibility:visible;opacity:1;isolation:auto;mix-blend-mode:normal;color-interpolation:sRGB;color-interpolation-filters:linearRGB;solid-color:#000000;solid-opacity:1;vector-effect:none;fill:#00a19a;fill-opacity:1;fill-rule:evenodd;stroke:#ffffff;stroke-width:1;stroke-linecap:butt;stroke-linejoin:miter;stroke-miterlimit:4;stroke-dasharray:none;stroke-dashoffset:0;stroke-opacity:1;marker:none;color-rendering:auto;image-rendering:auto;shape-rendering:auto;text-rendering:auto;enable-background:accumulate"
       id="path815"
       cx="15"
       cy="15"
       r="14.5" />
<g transform="translate(6,9)"><g id="surface1">
<path style=" stroke:none;fill-rule:nonzero;fill:#FFFFFF;fill-opacity:1;" d="M 15.835938 0 L 1.164062 0 C 0.523438 0.00390625 0 0.527344 0 1.175781 L 0 10.824219 C 0 11.472656 0.523438 11.996094 1.164062 12 L 15.835938 12 C 16.476562 11.996094 17 11.472656 17 10.824219 L 17 1.175781 C 17 0.527344 16.476562 0.00390625 15.835938 0 Z M 8.148438 7.273438 C 7.589844 7.117188 7.203125 6.605469 7.203125 6.019531 C 7.203125 5.4375 7.589844 4.925781 8.148438 4.769531 Z M 8.902344 4.789062 C 9.429688 4.964844 9.785156 5.460938 9.785156 6.019531 C 9.785156 6.582031 9.429688 7.078125 8.902344 7.253906 Z M 0.75 10.824219 L 0.75 8.792969 C 0.804688 8.800781 0.855469 8.808594 0.910156 8.808594 L 2.339844 8.808594 C 2.839844 8.804688 3.246094 8.398438 3.246094 7.894531 L 3.246094 4.15625 C 3.246094 3.652344 2.839844 3.246094 2.339844 3.242188 L 0.910156 3.242188 C 0.855469 3.246094 0.804688 3.25 0.75 3.257812 L 0.75 1.175781 C 0.75 0.945312 0.9375 0.757812 1.164062 0.757812 L 8.148438 0.757812 L 8.148438 3.996094 C 7.171875 4.164062 6.453125 5.019531 6.453125 6.019531 C 6.453125 7.023438 7.171875 7.878906 8.148438 8.046875 L 8.148438 11.242188 L 1.164062 11.242188 C 0.9375 11.242188 0.75 11.054688 0.75 10.824219 Z M 0.753906 7.894531 L 0.753906 4.15625 C 0.753906 4.070312 0.824219 4 0.910156 4 L 2.339844 4 C 2.425781 4 2.496094 4.070312 2.496094 4.15625 L 2.496094 7.894531 C 2.496094 7.980469 2.425781 8.050781 2.339844 8.050781 L 0.910156 8.050781 C 0.824219 8.050781 0.753906 7.980469 0.753906 7.894531 Z M 15.835938 11.242188 L 8.902344 11.242188 L 8.902344 8.035156 C 9.851562 7.839844 10.539062 7 10.539062 6.019531 C 10.539062 5.042969 9.851562 4.199219 8.902344 4.007812 L 8.902344 0.757812 L 15.835938 0.757812 C 16.0625 0.757812 16.25 0.945312 16.25 1.175781 L 16.25 3.257812 C 16.195312 3.25 16.140625 3.246094 16.089844 3.242188 L 14.65625 3.242188 C 14.15625 3.246094 13.75 3.652344 13.75 4.15625 L 13.75 7.894531 C 13.75 8.398438 14.15625 8.804688 14.65625 8.808594 L 16.089844 8.808594 C 16.140625 8.808594 16.195312 8.800781 16.25 8.792969 L 16.25 10.824219 C 16.25 11.054688 16.0625 11.242188 15.835938 11.242188 Z M 16.242188 4.15625 L 16.242188 7.894531 C 16.242188 7.980469 16.175781 8.050781 16.089844 8.050781 L 14.65625 8.050781 C 14.570312 8.050781 14.5 7.980469 14.5 7.894531 L 14.5 4.15625 C 14.5 4.070312 14.570312 4 14.65625 4 L 16.089844 4 C 16.175781 4 16.242188 4.070312 16.242188 4.15625 Z M 16.242188 4.15625 "/>
</g>
</g>
</svg>
