<?xml version="1.0" encoding="UTF-8"?>
<svg xmlns="http://www.w3.org/2000/svg" xmlns:xlink="http://www.w3.org/1999/xlink" width="10px" height="10px" viewBox="0 0 10 10" version="1.1">
<g id="surface1">
<path style=" stroke:none;fill-rule:nonzero;fill:rgb(30%,30%,30%);fill-opacity:1;" d="M 3.96875 0 L 3.835938 0 C 3.4375 0 3.082031 0.203125 2.835938 0.527344 L 3.328125 1.054688 C 3.449219 0.863281 3.632812 0.742188 3.835938 0.742188 L 3.96875 0.742188 C 4.324219 0.742188 4.628906 1.132812 4.628906 1.601562 L 4.628906 1.980469 L 3.027344 1.980469 L 3.027344 1.601562 C 3.027344 0.71875 2.421875 0 1.679688 0 L 1.546875 0 C 0.800781 0 0.195312 0.71875 0.195312 1.601562 L 0.195312 2.617188 L 0.882812 2.617188 L 0.882812 1.601562 C 0.882812 1.132812 1.1875 0.742188 1.546875 0.742188 L 1.679688 0.742188 C 2.035156 0.742188 2.339844 1.132812 2.339844 1.601562 L 2.339844 4.9375 L 3.027344 4.9375 L 3.027344 4.417969 L 4.628906 4.417969 L 4.628906 4.9375 L 5.316406 4.9375 L 5.316406 1.601562 C 5.316406 0.71875 4.710938 0 3.96875 0 Z M 4.628906 2.507812 L 4.628906 2.957031 L 3.027344 2.957031 L 3.027344 2.507812 Z M 3.027344 3.890625 L 3.027344 3.484375 L 4.628906 3.484375 L 4.628906 3.890625 Z M 3.027344 3.890625 "/>
<path style=" stroke:none;fill-rule:nonzero;fill:rgb(30%,30%,30%);fill-opacity:1;" d="M 8.363281 7.042969 C 7.710938 7.042969 7.335938 6.621094 7.03125 6.28125 C 6.726562 5.9375 6.519531 5.726562 6.160156 5.722656 C 6.15625 5.722656 6.148438 5.722656 6.144531 5.722656 C 5.703125 5.722656 5.511719 5.949219 5.242188 6.265625 C 4.949219 6.613281 4.585938 7.042969 3.839844 7.042969 C 3.109375 7.042969 2.761719 6.613281 2.480469 6.265625 C 2.222656 5.949219 2.039062 5.722656 1.597656 5.722656 C 1.59375 5.722656 1.589844 5.722656 1.582031 5.722656 C 1.128906 5.726562 0.914062 5.96875 0.640625 6.277344 C 0.566406 6.363281 0.484375 6.453125 0.398438 6.539062 L 0 6.070312 C 0.0742188 6 0.140625 5.921875 0.214844 5.839844 C 0.507812 5.507812 0.875 5.09375 1.578125 5.085938 C 1.582031 5.085938 1.589844 5.085938 1.597656 5.085938 C 2.304688 5.085938 2.648438 5.507812 2.925781 5.847656 C 3.179688 6.160156 3.378906 6.40625 3.839844 6.40625 C 4.324219 6.40625 4.539062 6.15625 4.808594 5.839844 C 5.089844 5.503906 5.441406 5.085938 6.144531 5.085938 C 6.152344 5.085938 6.160156 5.085938 6.167969 5.085938 C 6.792969 5.09375 7.144531 5.492188 7.457031 5.839844 C 7.746094 6.164062 7.96875 6.417969 8.386719 6.40625 C 9.199219 6.386719 9.433594 5.738281 9.445312 5.710938 L 10 5.921875 C 9.984375 5.964844 9.632812 7.007812 8.402344 7.042969 C 8.386719 7.042969 8.375 7.042969 8.363281 7.042969 Z M 8.363281 7.042969 "/>
<path style=" stroke:none;fill-rule:nonzero;fill:rgb(30%,30%,30%);fill-opacity:1;" d="M 8.363281 8.46875 C 7.710938 8.46875 7.335938 8.046875 7.03125 7.707031 C 6.726562 7.363281 6.519531 7.152344 6.160156 7.148438 C 5.707031 7.140625 5.511719 7.375 5.242188 7.695312 C 4.949219 8.039062 4.585938 8.46875 3.839844 8.46875 C 3.109375 8.46875 2.761719 8.039062 2.480469 7.695312 C 2.222656 7.378906 2.039062 7.148438 1.597656 7.148438 C 1.59375 7.148438 1.589844 7.148438 1.582031 7.148438 C 1.128906 7.15625 0.914062 7.398438 0.640625 7.707031 C 0.566406 7.792969 0.484375 7.878906 0.398438 7.964844 L 0 7.496094 C 0.0742188 7.425781 0.140625 7.347656 0.214844 7.265625 C 0.507812 6.9375 0.875 6.523438 1.578125 6.515625 C 2.300781 6.507812 2.644531 6.933594 2.925781 7.277344 C 3.179688 7.589844 3.378906 7.835938 3.839844 7.835938 C 4.324219 7.835938 4.539062 7.585938 4.808594 7.265625 C 5.09375 6.929688 5.453125 6.503906 6.167969 6.515625 C 6.792969 6.523438 7.144531 6.917969 7.457031 7.269531 C 7.746094 7.589844 7.96875 7.847656 8.386719 7.835938 C 9.199219 7.8125 9.433594 7.164062 9.445312 7.136719 L 10 7.351562 C 9.984375 7.394531 9.632812 8.4375 8.402344 8.46875 C 8.386719 8.46875 8.375 8.46875 8.363281 8.46875 Z M 8.363281 8.46875 "/>
<path style=" stroke:none;fill-rule:nonzero;fill:rgb(30%,30%,30%);fill-opacity:1;" d="M 8.363281 10 C 7.710938 10 7.335938 9.578125 7.03125 9.238281 C 6.726562 8.894531 6.519531 8.683594 6.160156 8.679688 C 6.15625 8.679688 6.148438 8.679688 6.144531 8.679688 C 5.703125 8.679688 5.511719 8.90625 5.242188 9.222656 C 4.949219 9.570312 4.585938 10 3.839844 10 C 3.109375 10 2.761719 9.570312 2.480469 9.222656 C 2.222656 8.910156 2.039062 8.679688 1.597656 8.679688 C 1.59375 8.679688 1.589844 8.679688 1.582031 8.679688 C 1.128906 8.683594 0.914062 8.925781 0.640625 9.234375 C 0.566406 9.320312 0.484375 9.410156 0.398438 9.496094 L 0 9.027344 C 0.0742188 8.957031 0.140625 8.878906 0.214844 8.796875 C 0.507812 8.464844 0.875 8.054688 1.578125 8.042969 C 2.300781 8.035156 2.644531 8.464844 2.925781 8.808594 C 3.179688 9.117188 3.378906 9.363281 3.839844 9.363281 C 4.324219 9.363281 4.539062 9.113281 4.808594 8.796875 C 5.089844 8.460938 5.441406 8.042969 6.144531 8.042969 C 6.152344 8.042969 6.160156 8.042969 6.167969 8.042969 C 6.792969 8.050781 7.144531 8.449219 7.457031 8.796875 C 7.746094 9.121094 7.96875 9.375 8.386719 9.363281 C 9.199219 9.34375 9.433594 8.695312 9.445312 8.667969 L 10 8.878906 C 9.984375 8.921875 9.632812 9.964844 8.402344 10 C 8.386719 10 8.375 10 8.363281 10 Z M 8.363281 10 "/>
</g>
</svg>
