<?xml version="1.0" encoding="UTF-8" standalone="no"?>
<!-- Created with Inkscape (http://www.inkscape.org/) -->

<svg
   xmlns:dc="http://purl.org/dc/elements/1.1/"
   xmlns:cc="http://creativecommons.org/ns#"
   xmlns:rdf="http://www.w3.org/1999/02/22-rdf-syntax-ns#"
   xmlns:svg="http://www.w3.org/2000/svg"
   xmlns="http://www.w3.org/2000/svg"
   xmlns:xlink="http://www.w3.org/1999/xlink"
   xmlns:sodipodi="http://sodipodi.sourceforge.net/DTD/sodipodi-0.dtd"
   xmlns:inkscape="http://www.inkscape.org/namespaces/inkscape"
   width="30px"
   height="30px"
   version="1.1"
   id="svg8"
   inkscape:version="0.92.4 5da689c313, 2019-01-14"
   sodipodi:docname="container.svg">
  <defs
     id="defs2" />
  <sodipodi:namedview
     id="base"
     pagecolor="#ffffff"
     bordercolor="#666666"
     borderopacity="1.0"
     inkscape:pageopacity="0.0"
     inkscape:pageshadow="2"
     inkscape:zoom="13.049334"
     inkscape:cx="18.679046"
     inkscape:cy="12.165829"
     inkscape:document-units="px"
     inkscape:current-layer="layer1"
     showgrid="false"
     inkscape:snap-page="false"
     units="px"
     inkscape:window-width="1884"
     inkscape:window-height="1061"
     inkscape:window-x="0"
     inkscape:window-y="0"
     inkscape:window-maximized="1"
     fit-margin-top="0"
     fit-margin-left="0"
     fit-margin-right="0"
     fit-margin-bottom="0" />
  <metadata
     id="metadata5">
    <rdf:RDF>
      <cc:Work
         rdf:about="">
        <dc:format>image/svg+xml</dc:format>
        <dc:type
           rdf:resource="http://purl.org/dc/dcmitype/StillImage" />
        <dc:title></dc:title>
      </cc:Work>
    </rdf:RDF>
  </metadata>
    <circle
       style="color:#000000;clip-rule:nonzero;display:inline;overflow:visible;visibility:visible;opacity:1;isolation:auto;mix-blend-mode:normal;color-interpolation:sRGB;color-interpolation-filters:linearRGB;solid-color:#000000;solid-opacity:1;vector-effect:none;fill:#ffffff;fill-opacity:1;fill-rule:evenodd;stroke:#00A757;stroke-width:1;stroke-linecap:butt;stroke-linejoin:miter;stroke-miterlimit:4;stroke-dasharray:none;stroke-dashoffset:0;stroke-opacity:1;marker:none;color-rendering:auto;image-rendering:auto;shape-rendering:auto;text-rendering:auto;enable-background:accumulate"
       id="path815"
       cx="15"
       cy="15"
       r="14.5" />
<g transform="translate(6,7)"><g id="surface1">
<path style=" stroke:none;fill-rule:nonzero;fill:rgb(30%,30%,30%);fill-opacity:1;" d="M 15.957031 12.726562 C 15.929688 12.710938 15.699219 12.917969 15.257812 12.972656 C 15.605469 13.1875 15.679688 13.386719 15.695312 13.597656 C 15.734375 14.195312 14.851562 14.605469 14.394531 14.605469 L 12.675781 14.605469 C 12.246094 14.605469 11.875 14.265625 11.855469 13.828125 C 11.851562 13.804688 11.851562 13.78125 11.851562 13.757812 L 11.851562 13.71875 C 11.851562 13.605469 11.894531 13.425781 11.964844 13.226562 L 11.121094 13.226562 C 11.121094 13.226562 11.234375 13.472656 11.234375 13.667969 C 11.230469 13.863281 11.238281 13.691406 11.238281 13.703125 C 11.226562 14.132812 10.859375 14.519531 10.390625 14.597656 L 4.875 14.550781 C 4.019531 14.207031 4.457031 13.554688 4.628906 13.34375 C 4.636719 13.328125 4.640625 13.3125 4.632812 13.296875 C 4.625 13.285156 4.613281 13.273438 4.597656 13.277344 L 2.882812 13.300781 C 2.882812 13.300781 2.855469 13.644531 2.183594 14.03125 C 1.640625 14.339844 1.046875 14.542969 0.433594 14.632812 C -0.132812 14.714844 -0.0117188 15.273438 0.109375 15.347656 C 1.832031 16.417969 14.421875 15.859375 14.703125 15.816406 C 15.289062 15.726562 15.914062 15.554688 16.292969 15.335938 C 17.84375 14.429688 16.390625 12.949219 15.957031 12.726562 Z M 15.957031 12.726562 "/>
<path style=" stroke:none;fill-rule:nonzero;fill:rgb(30%,30%,30%);fill-opacity:1;" d="M 16.058594 10.773438 C 15.742188 10.382812 15.167969 10.101562 14.488281 10.011719 C 14.15625 9.96875 13.882812 9.921875 13.660156 9.875 L 13.558594 10.089844 C 13.550781 10.105469 13.546875 10.117188 13.535156 10.128906 C 13.550781 10.175781 13.558594 10.222656 13.550781 10.273438 C 13.53125 10.433594 13.390625 10.550781 13.230469 10.539062 C 13.070312 10.53125 12.945312 10.394531 12.945312 10.230469 C 12.945312 10.101562 13.023438 9.988281 13.140625 9.941406 C 13.144531 9.925781 13.152344 9.910156 13.15625 9.894531 L 13.222656 9.757812 C 13.085938 9.714844 12.953125 9.660156 12.824219 9.59375 C 12.792969 9.578125 12.746094 9.550781 12.691406 9.519531 L 12.539062 9.785156 C 12.535156 9.796875 12.527344 9.808594 12.519531 9.816406 C 12.53125 9.863281 12.535156 9.910156 12.527344 9.957031 C 12.5 10.101562 12.375 10.210938 12.226562 10.210938 C 12.078125 10.210938 11.949219 10.101562 11.925781 9.949219 C 11.902344 9.796875 11.992188 9.652344 12.136719 9.605469 C 12.140625 9.589844 12.144531 9.574219 12.15625 9.558594 L 12.304688 9.296875 C 12.148438 9.207031 11.976562 9.101562 11.789062 8.980469 C 11.785156 8.992188 11.78125 9 11.773438 9.011719 L 11.558594 9.296875 C 11.558594 9.304688 11.5625 9.316406 11.5625 9.324219 C 11.5625 9.488281 11.433594 9.625 11.273438 9.632812 C 11.113281 9.644531 10.972656 9.523438 10.957031 9.359375 C 10.9375 9.195312 11.046875 9.046875 11.207031 9.019531 L 11.421875 8.734375 C 11.261719 8.625 11.105469 8.511719 10.953125 8.390625 L 10.753906 8.59375 C 10.738281 8.613281 10.714844 8.625 10.695312 8.636719 C 10.71875 8.765625 10.660156 8.894531 10.550781 8.960938 C 10.445312 9.027344 10.304688 9.015625 10.207031 8.9375 C 10.109375 8.855469 10.066406 8.722656 10.105469 8.597656 C 10.144531 8.476562 10.253906 8.390625 10.382812 8.382812 C 10.390625 8.34375 10.410156 8.304688 10.441406 8.273438 L 10.605469 8.105469 C 10.492188 8 10.382812 7.898438 10.289062 7.792969 C 10.289062 7.792969 10.285156 7.792969 10.285156 7.792969 L 10 8.085938 C 9.992188 8.09375 9.980469 8.101562 9.972656 8.109375 C 9.960938 8.277344 9.820312 8.40625 9.652344 8.398438 C 9.488281 8.390625 9.359375 8.25 9.363281 8.082031 C 9.367188 7.914062 9.503906 7.78125 9.667969 7.78125 C 9.671875 7.78125 9.671875 7.78125 9.675781 7.78125 C 9.679688 7.773438 9.683594 7.769531 9.6875 7.765625 L 9.972656 7.472656 C 9.980469 7.464844 9.992188 7.457031 10 7.449219 C 9.929688 7.359375 9.855469 7.261719 9.78125 7.15625 C 9.773438 7.164062 9.769531 7.167969 9.761719 7.171875 L 9.410156 7.378906 C 9.390625 7.390625 9.371094 7.398438 9.351562 7.402344 C 9.339844 7.53125 9.253906 7.636719 9.132812 7.671875 C 9.011719 7.707031 8.882812 7.664062 8.804688 7.5625 C 8.730469 7.460938 8.722656 7.320312 8.792969 7.210938 C 8.859375 7.101562 8.984375 7.046875 9.105469 7.070312 C 9.125 7.035156 9.15625 7.007812 9.1875 6.988281 L 9.523438 6.789062 C 9.421875 6.640625 9.316406 6.484375 9.214844 6.324219 C 9.203125 6.339844 9.1875 6.351562 9.167969 6.363281 L 8.820312 6.570312 C 8.796875 6.582031 8.777344 6.589844 8.753906 6.59375 C 8.722656 6.71875 8.625 6.8125 8.503906 6.832031 C 8.378906 6.851562 8.257812 6.792969 8.195312 6.683594 C 8.132812 6.574219 8.140625 6.433594 8.214844 6.335938 C 8.289062 6.234375 8.417969 6.191406 8.539062 6.226562 C 8.554688 6.207031 8.574219 6.1875 8.597656 6.175781 L 8.945312 5.96875 C 8.957031 5.964844 8.972656 5.957031 8.984375 5.953125 C 8.871094 5.761719 8.757812 5.570312 8.652344 5.386719 C 8.636719 5.402344 8.621094 5.417969 8.601562 5.429688 L 8.253906 5.632812 C 8.234375 5.648438 8.210938 5.65625 8.1875 5.660156 C 8.160156 5.785156 8.058594 5.878906 7.9375 5.898438 C 7.8125 5.917969 7.691406 5.859375 7.628906 5.75 C 7.566406 5.640625 7.574219 5.5 7.648438 5.402344 C 7.726562 5.300781 7.855469 5.257812 7.972656 5.292969 C 7.988281 5.273438 8.007812 5.253906 8.03125 5.242188 L 8.378906 5.035156 C 8.402344 5.023438 8.421875 5.015625 8.445312 5.011719 C 8.355469 4.839844 8.269531 4.675781 8.199219 4.527344 C 8.195312 4.527344 8.191406 4.53125 8.183594 4.535156 L 7.835938 4.742188 C 7.824219 4.746094 7.816406 4.753906 7.804688 4.757812 C 7.753906 4.914062 7.59375 5.003906 7.4375 4.964844 C 7.332031 4.9375 7.25 4.855469 7.222656 4.75 C 7.195312 4.652344 7.214844 4.542969 7.28125 4.464844 C 7.347656 4.386719 7.445312 4.34375 7.546875 4.355469 C 7.5625 4.355469 7.578125 4.359375 7.59375 4.363281 C 7.597656 4.359375 7.605469 4.355469 7.613281 4.347656 L 7.964844 4.144531 C 7.980469 4.132812 8 4.125 8.019531 4.121094 C 7.96875 3.992188 7.933594 3.882812 7.917969 3.804688 C 7.777344 3.023438 7.832031 1.714844 7.980469 0.199219 C 8.039062 -0.417969 5.71875 0.53125 3.898438 1.230469 C 3.605469 1.34375 2.6875 1.25 2.6875 1.25 C 2.6875 1.25 3.09375 2.972656 2.910156 4.300781 C 2.6875 5.886719 1.738281 8.109375 1.679688 8.957031 C 1.597656 10.089844 2.042969 10.5 2.0625 10.664062 C 2.082031 10.828125 2.183594 12.953125 2.605469 13.074219 L 5.484375 13.035156 C 5.558594 13.035156 5.617188 12.972656 5.617188 12.898438 C 5.625 12.511719 5.640625 11.414062 5.65625 11.34375 C 5.675781 11.261719 5.769531 11.144531 6.242188 11.199219 C 7.777344 11.386719 9.007812 12.394531 9.816406 12.683594 C 10.625 12.972656 10.914062 12.972656 11.277344 12.972656 C 11.640625 12.972656 14.601562 12.910156 15.332031 12.726562 C 15.410156 12.703125 15.828125 12.519531 16.070312 12.210938 C 16.3125 11.902344 16.398438 11.199219 16.058594 10.773438 Z M 7.160156 0.53125 C 7.289062 0.515625 7.410156 0.585938 7.464844 0.703125 C 7.519531 0.824219 7.496094 0.964844 7.40625 1.058594 C 7.316406 1.148438 7.175781 1.175781 7.0625 1.117188 C 6.945312 1.0625 6.875 0.9375 6.890625 0.804688 C 6.902344 0.660156 7.015625 0.542969 7.160156 0.53125 Z M 7.132812 1.492188 C 7.261719 1.476562 7.382812 1.546875 7.4375 1.667969 C 7.492188 1.785156 7.46875 1.925781 7.378906 2.019531 C 7.289062 2.109375 7.148438 2.136719 7.035156 2.078125 C 6.917969 2.023438 6.847656 1.898438 6.863281 1.769531 C 6.878906 1.621094 6.992188 1.507812 7.132812 1.492188 Z M 7.160156 2.480469 C 7.289062 2.464844 7.410156 2.535156 7.464844 2.65625 C 7.519531 2.773438 7.496094 2.914062 7.40625 3.007812 C 7.316406 3.101562 7.175781 3.125 7.0625 3.066406 C 6.945312 3.011719 6.875 2.886719 6.890625 2.757812 C 6.902344 2.609375 7.015625 2.496094 7.160156 2.480469 Z M 6.96875 3.679688 C 6.957031 3.550781 7.027344 3.425781 7.140625 3.367188 C 7.257812 3.3125 7.394531 3.335938 7.488281 3.429688 C 7.578125 3.523438 7.601562 3.664062 7.546875 3.78125 C 7.492188 3.898438 7.367188 3.96875 7.242188 3.957031 C 7.097656 3.941406 6.984375 3.828125 6.96875 3.679688 Z M 6.96875 3.679688 "/>
</g>
</g>
</svg>
