<?xml version="1.0" encoding="UTF-8" standalone="no"?>
<!-- Created with Inkscape (http://www.inkscape.org/) -->

<svg
   xmlns:dc="http://purl.org/dc/elements/1.1/"
   xmlns:cc="http://creativecommons.org/ns#"
   xmlns:rdf="http://www.w3.org/1999/02/22-rdf-syntax-ns#"
   xmlns:svg="http://www.w3.org/2000/svg"
   xmlns="http://www.w3.org/2000/svg"
   xmlns:xlink="http://www.w3.org/1999/xlink"
   xmlns:sodipodi="http://sodipodi.sourceforge.net/DTD/sodipodi-0.dtd"
   xmlns:inkscape="http://www.inkscape.org/namespaces/inkscape"
   width="30px"
   height="30px"
   version="1.1"
   id="svg8"
   inkscape:version="0.92.4 5da689c313, 2019-01-14"
   sodipodi:docname="container.svg">
  <defs
     id="defs2" />
  <sodipodi:namedview
     id="base"
     pagecolor="#ffffff"
     bordercolor="#666666"
     borderopacity="1.0"
     inkscape:pageopacity="0.0"
     inkscape:pageshadow="2"
     inkscape:zoom="13.049334"
     inkscape:cx="18.679046"
     inkscape:cy="12.165829"
     inkscape:document-units="px"
     inkscape:current-layer="layer1"
     showgrid="false"
     inkscape:snap-page="false"
     units="px"
     inkscape:window-width="1884"
     inkscape:window-height="1061"
     inkscape:window-x="0"
     inkscape:window-y="0"
     inkscape:window-maximized="1"
     fit-margin-top="0"
     fit-margin-left="0"
     fit-margin-right="0"
     fit-margin-bottom="0" />
  <metadata
     id="metadata5">
    <rdf:RDF>
      <cc:Work
         rdf:about="">
        <dc:format>image/svg+xml</dc:format>
        <dc:type
           rdf:resource="http://purl.org/dc/dcmitype/StillImage" />
        <dc:title></dc:title>
      </cc:Work>
    </rdf:RDF>
  </metadata>
    <circle
       style="color:#000000;clip-rule:nonzero;display:inline;overflow:visible;visibility:visible;opacity:1;isolation:auto;mix-blend-mode:normal;color-interpolation:sRGB;color-interpolation-filters:linearRGB;solid-color:#000000;solid-opacity:1;vector-effect:none;fill:#00A757;fill-opacity:1;fill-rule:evenodd;stroke:#ffffff;stroke-width:1;stroke-linecap:butt;stroke-linejoin:miter;stroke-miterlimit:4;stroke-dasharray:none;stroke-dashoffset:0;stroke-opacity:1;marker:none;color-rendering:auto;image-rendering:auto;shape-rendering:auto;text-rendering:auto;enable-background:accumulate"
       id="path815"
       cx="15"
       cy="15"
       r="14.5" />
<g transform="translate(7,7)"><g id="surface1">
<path style=" stroke:none;fill-rule:nonzero;fill:#FFFFFF;fill-opacity:1;" d="M 16 14.925781 C 16 14.925781 15.988281 15.664062 15.214844 15.777344 C 14.917969 15.824219 12.824219 15.828125 12.710938 15.828125 C 12.710938 15.828125 12.0625 15.816406 11.355469 15.171875 C 10.882812 14.746094 10.558594 14.21875 10.109375 13.585938 L 1.164062 0.722656 C 1.074219 0.59375 1.058594 0.425781 1.121094 0.277344 C 1.183594 0.132812 1.316406 0.0351562 1.46875 0.015625 C 1.625 0 1.773438 0.0703125 1.863281 0.199219 L 11.042969 13.320312 C 11.269531 13.566406 11.417969 13.757812 11.578125 13.84375 C 11.753906 13.9375 12.039062 14.050781 12.234375 14.050781 L 14.070312 14.023438 C 15.75 13.832031 16 14.226562 16 14.925781 Z M 4.957031 13.304688 C 4.730469 13.550781 4.582031 13.746094 4.421875 13.832031 C 4.246094 13.925781 3.960938 14.039062 3.765625 14.039062 L 1.929688 14.011719 C 0.25 13.820312 0 14.214844 0 14.914062 C 0 14.914062 0.0117188 15.648438 0.785156 15.765625 C 1.082031 15.808594 3.175781 15.816406 3.289062 15.816406 C 3.289062 15.816406 3.9375 15.804688 4.644531 15.160156 C 5.117188 14.730469 5.441406 14.207031 5.890625 13.574219 L 7.6875 10.988281 L 7.136719 10.1875 Z M 14.738281 0.0859375 C 14.546875 -0.0585938 14.277344 -0.0117188 14.136719 0.1875 L 8.398438 8.386719 L 8.949219 9.175781 L 14.835938 0.710938 C 14.972656 0.511719 14.929688 0.230469 14.738281 0.0859375 Z M 8.015625 14.160156 C 7.023438 14.160156 6.214844 14.433594 6.214844 14.773438 C 6.214844 15.109375 7.023438 15.386719 8.015625 15.386719 C 9.011719 15.386719 9.816406 15.109375 9.816406 14.773438 C 9.816406 14.433594 9.011719 14.160156 8.015625 14.160156 Z M 6.203125 15.386719 C 6.203125 15.722656 7.007812 15.996094 8.003906 15.996094 C 8.996094 15.996094 9.804688 15.722656 9.804688 15.386719 L 9.804688 15.035156 C 9.804688 15.375 8.996094 15.648438 8.003906 15.648438 C 7.007812 15.648438 6.203125 15.375 6.203125 15.035156 Z M 6.203125 15.386719 "/>
</g>
</g>
</svg>
