<?xml version="1.0" encoding="UTF-8"?>
<svg xmlns="http://www.w3.org/2000/svg" xmlns:xlink="http://www.w3.org/1999/xlink" width="11px" height="10px" viewBox="0 0 11 10" version="1.1">
<g id="surface1">
<path style=" stroke:none;fill-rule:nonzero;fill:rgb(30%,30%,30%);fill-opacity:1;" d="M 6.773438 7.3125 C 6.519531 7.582031 6.15625 7.734375 5.769531 7.734375 C 5.1875 7.734375 4.703125 7.421875 4.511719 6.882812 L 4.515625 6.886719 C 4.480469 6.777344 4.464844 6.667969 4.464844 6.558594 C 4.464844 5.90625 5.050781 5.378906 5.769531 5.378906 C 6.492188 5.378906 7.078125 5.90625 7.078125 6.558594 C 7.078125 6.714844 7.042969 6.875 6.972656 7.019531 C 7.671875 7.019531 8.292969 7.019531 8.316406 7.015625 C 8.496094 7.011719 9.8125 4.046875 10.914062 1.496094 L 10.914062 0.00390625 L 8.5 5.496094 C 8.476562 5.546875 8.414062 5.574219 8.355469 5.554688 C 7.765625 5.363281 4.839844 4.46875 4.839844 4.46875 C 4.394531 4.332031 3.910156 4.585938 3.832031 5.007812 C 3.796875 5.214844 3.8125 5.4375 3.8125 5.6875 L 3.8125 5.882812 C 3.8125 6.273438 4.03125 6.636719 4.394531 6.84375 L 1.707031 6.117188 L 0 6.296875 L 2.828125 7.941406 C 2.433594 8.144531 2.203125 8.382812 2.203125 8.640625 C 2.203125 9.390625 4.171875 9.996094 6.601562 9.996094 C 9.03125 9.996094 11 9.390625 11 8.640625 C 11 7.914062 9.023438 7.851562 6.773438 7.3125 Z M 6.695312 8.539062 C 6.394531 8.539062 6.152344 8.46875 6.152344 8.382812 C 6.152344 8.296875 6.394531 8.226562 6.695312 8.226562 C 6.996094 8.226562 7.238281 8.296875 7.238281 8.382812 C 7.238281 8.46875 6.996094 8.539062 6.695312 8.539062 Z M 6.695312 8.539062 "/>
</g>
</svg>
