<?xml version="1.0" encoding="UTF-8" standalone="no"?>
<!-- Created with Inkscape (http://www.inkscape.org/) -->

<svg
   xmlns:dc="http://purl.org/dc/elements/1.1/"
   xmlns:cc="http://creativecommons.org/ns#"
   xmlns:rdf="http://www.w3.org/1999/02/22-rdf-syntax-ns#"
   xmlns:svg="http://www.w3.org/2000/svg"
   xmlns="http://www.w3.org/2000/svg"
   xmlns:xlink="http://www.w3.org/1999/xlink"
   xmlns:sodipodi="http://sodipodi.sourceforge.net/DTD/sodipodi-0.dtd"
   xmlns:inkscape="http://www.inkscape.org/namespaces/inkscape"
   width="30px"
   height="30px"
   version="1.1"
   id="svg8"
   inkscape:version="0.92.4 5da689c313, 2019-01-14"
   sodipodi:docname="container.svg">
  <defs
     id="defs2" />
  <sodipodi:namedview
     id="base"
     pagecolor="#ffffff"
     bordercolor="#666666"
     borderopacity="1.0"
     inkscape:pageopacity="0.0"
     inkscape:pageshadow="2"
     inkscape:zoom="13.049334"
     inkscape:cx="18.679046"
     inkscape:cy="12.165829"
     inkscape:document-units="px"
     inkscape:current-layer="layer1"
     showgrid="false"
     inkscape:snap-page="false"
     units="px"
     inkscape:window-width="1884"
     inkscape:window-height="1061"
     inkscape:window-x="0"
     inkscape:window-y="0"
     inkscape:window-maximized="1"
     fit-margin-top="0"
     fit-margin-left="0"
     fit-margin-right="0"
     fit-margin-bottom="0" />
  <metadata
     id="metadata5">
    <rdf:RDF>
      <cc:Work
         rdf:about="">
        <dc:format>image/svg+xml</dc:format>
        <dc:type
           rdf:resource="http://purl.org/dc/dcmitype/StillImage" />
        <dc:title></dc:title>
      </cc:Work>
    </rdf:RDF>
  </metadata>
    <circle
       style="color:#000000;clip-rule:nonzero;display:inline;overflow:visible;visibility:visible;opacity:1;isolation:auto;mix-blend-mode:normal;color-interpolation:sRGB;color-interpolation-filters:linearRGB;solid-color:#000000;solid-opacity:1;vector-effect:none;fill:#ffffff;fill-opacity:1;fill-rule:evenodd;stroke:#00a19a;stroke-width:1;stroke-linecap:butt;stroke-linejoin:miter;stroke-miterlimit:4;stroke-dasharray:none;stroke-dashoffset:0;stroke-opacity:1;marker:none;color-rendering:auto;image-rendering:auto;shape-rendering:auto;text-rendering:auto;enable-background:accumulate"
       id="path815"
       cx="15"
       cy="15"
       r="14.5" />
<g transform="translate(6,11)"><g id="surface1">
<path style=" stroke:none;fill-rule:nonzero;fill:rgb(30%,30%,30%);fill-opacity:1;" d="M 2.5625 4.105469 C 1.773438 4.105469 1.132812 4.753906 1.132812 5.554688 C 1.132812 6.351562 1.773438 7 2.5625 7 C 3.351562 7 3.992188 6.351562 3.992188 5.554688 C 3.992188 4.753906 3.351562 4.105469 2.5625 4.105469 Z M 2.5625 6.421875 C 2.089844 6.421875 1.707031 6.03125 1.707031 5.554688 C 1.707031 5.074219 2.089844 4.683594 2.5625 4.683594 C 3.035156 4.683594 3.421875 5.074219 3.421875 5.554688 C 3.421875 6.03125 3.035156 6.421875 2.5625 6.421875 Z M 2.5625 6.421875 "/>
<path style=" stroke:none;fill-rule:nonzero;fill:rgb(30%,30%,30%);fill-opacity:1;" d="M 10.730469 4.105469 C 9.941406 4.105469 9.304688 4.753906 9.304688 5.554688 C 9.304688 6.351562 9.941406 7 10.730469 7 C 11.519531 7 12.160156 6.351562 12.160156 5.554688 C 12.160156 4.753906 11.519531 4.105469 10.730469 4.105469 Z M 10.730469 6.421875 C 10.257812 6.421875 9.875 6.03125 9.875 5.554688 C 9.875 5.074219 10.257812 4.683594 10.730469 4.683594 C 11.207031 4.683594 11.589844 5.074219 11.589844 5.554688 C 11.589844 6.03125 11.207031 6.421875 10.730469 6.421875 Z M 10.730469 6.421875 "/>
<path style=" stroke:none;fill-rule:nonzero;fill:rgb(30%,30%,30%);fill-opacity:1;" d="M 0.738281 6.597656 L 1.105469 6.597656 C 0.871094 6.261719 0.753906 5.855469 0.78125 5.441406 C 0.792969 5.214844 0.851562 4.988281 0.949219 4.78125 L 0 4.78125 Z M 0.738281 6.597656 "/>
<path style=" stroke:none;fill-rule:nonzero;fill:rgb(30%,30%,30%);fill-opacity:1;" d="M 9.339844 3.964844 C 9.261719 3.898438 9.058594 3.914062 8.796875 3.933594 C 8.539062 3.953125 7.667969 4.089844 7.667969 4.089844 L 6.671875 3.65625 L 8.414062 3.753906 L 8.492188 3.601562 C 8.582031 3.664062 8.726562 3.695312 8.796875 3.621094 L 9.308594 3.101562 L 9.890625 3.457031 L 10.378906 3.773438 L 10.707031 3.746094 C 11.386719 3.734375 12.011719 4.117188 12.320312 4.730469 C 12.632812 5.339844 12.570312 6.078125 12.167969 6.628906 L 17 6.621094 L 16.976562 6.027344 L 15.160156 6.027344 L 14.90625 5.84375 L 16.898438 5.847656 L 16.066406 5.117188 L 14.457031 5.15625 L 14.066406 4.820312 L 15.746094 4.78125 L 10.613281 1.859375 L 10.714844 3.285156 L 9.742188 2.660156 L 10.203125 2.195312 C 10.246094 2.148438 10.269531 2.085938 10.265625 2.023438 C 10.261719 1.960938 10.230469 1.902344 10.179688 1.863281 C 10.09375 1.800781 9.96875 1.808594 9.890625 1.890625 L 9.367188 2.421875 L 9.308594 2.480469 L 9.03125 2.761719 C 8.980469 2.75 8.914062 2.742188 8.871094 2.753906 C 8.792969 2.773438 8.460938 3.035156 8.460938 3.035156 C 8.460938 3.035156 8.402344 3.042969 8.132812 3.03125 C 7.867188 3.015625 5.292969 2.695312 5.078125 2.589844 C 4.949219 2.527344 4.894531 2.449219 4.867188 2.394531 L 5.960938 2.292969 L 5.753906 1.503906 L 5.636719 1.503906 C 5.480469 1.5 5.210938 1.496094 5.164062 1.492188 C 4.511719 1.40625 4.003906 1.164062 4.03125 0.949219 C 4.058594 0.734375 4.609375 0.628906 5.261719 0.710938 C 5.273438 0.714844 5.4375 0.722656 5.449219 0.726562 C 5.269531 0.304688 4.707031 0 4.222656 0 C 3.671875 0 3.195312 0.386719 3.078125 0.933594 C 2.960938 1.476562 3.234375 2.03125 3.734375 2.261719 L 3.722656 2.28125 L 3.503906 2.867188 C 3.503906 2.867188 3.042969 2.113281 2.828125 2.074219 C 2.667969 2.046875 3.046875 3.03125 2.828125 3.101562 C 2.511719 3.207031 1.34375 3.074219 1.332031 3.101562 C 1.222656 3.359375 0.996094 3.847656 0.875 4.089844 C 0.855469 4.128906 0 4.089844 0 4.089844 L 0 4.664062 L 0.949219 4.664062 C 1.234375 4.175781 1.839844 3.753906 2.539062 3.746094 C 3.210938 3.734375 3.832031 4.109375 4.144531 4.714844 C 4.457031 5.320312 4.40625 6.054688 4.011719 6.609375 L 9.292969 6.621094 C 8.734375 5.851562 8.863281 4.777344 9.589844 4.167969 Z M 9.339844 3.964844 "/>
</g>
</g>
</svg>
