<?xml version="1.0" encoding="UTF-8"?>
<svg xmlns="http://www.w3.org/2000/svg" xmlns:xlink="http://www.w3.org/1999/xlink" width="10px" height="8px" viewBox="0 0 10 8" version="1.1">
<g id="surface1">
<path style=" stroke:none;fill-rule:nonzero;fill:rgb(30%,30%,30%);fill-opacity:1;" d="M 0.00390625 5.425781 C 2.980469 6.515625 6.316406 6.960938 9.996094 6.90625 C 9.890625 7.339844 9.847656 7.445312 9.882812 8 L 1.769531 7.953125 C 1.046875 7.21875 0.46875 6.367188 0.00390625 5.425781 Z M 1.121094 5.117188 C 2.308594 5.585938 3.59375 5.835938 4.917969 5.980469 C 4.757812 3.21875 5.207031 1.160156 6.449219 0 C 4.03125 0.929688 2.1875 2.554688 1.121094 5.117188 Z M 6.507812 0.894531 C 5.6875 1.832031 5.351562 3.542969 5.390625 5.855469 C 6.558594 6.359375 7.808594 6.484375 9.128906 6.257812 C 7.039062 4.992188 6.101562 3.539062 6.507812 0.894531 Z M 6.507812 0.894531 "/>
</g>
</svg>
