<?xml version="1.0" encoding="UTF-8" standalone="no"?>
<!-- Created with Inkscape (http://www.inkscape.org/) -->

<svg
   xmlns:dc="http://purl.org/dc/elements/1.1/"
   xmlns:cc="http://creativecommons.org/ns#"
   xmlns:rdf="http://www.w3.org/1999/02/22-rdf-syntax-ns#"
   xmlns:svg="http://www.w3.org/2000/svg"
   xmlns="http://www.w3.org/2000/svg"
   xmlns:xlink="http://www.w3.org/1999/xlink"
   xmlns:sodipodi="http://sodipodi.sourceforge.net/DTD/sodipodi-0.dtd"
   xmlns:inkscape="http://www.inkscape.org/namespaces/inkscape"
   width="30px"
   height="30px"
   version="1.1"
   id="svg8"
   inkscape:version="0.92.4 5da689c313, 2019-01-14"
   sodipodi:docname="container.svg">
  <defs
     id="defs2" />
  <sodipodi:namedview
     id="base"
     pagecolor="#ffffff"
     bordercolor="#666666"
     borderopacity="1.0"
     inkscape:pageopacity="0.0"
     inkscape:pageshadow="2"
     inkscape:zoom="13.049334"
     inkscape:cx="18.679046"
     inkscape:cy="12.165829"
     inkscape:document-units="px"
     inkscape:current-layer="layer1"
     showgrid="false"
     inkscape:snap-page="false"
     units="px"
     inkscape:window-width="1884"
     inkscape:window-height="1061"
     inkscape:window-x="0"
     inkscape:window-y="0"
     inkscape:window-maximized="1"
     fit-margin-top="0"
     fit-margin-left="0"
     fit-margin-right="0"
     fit-margin-bottom="0" />
  <metadata
     id="metadata5">
    <rdf:RDF>
      <cc:Work
         rdf:about="">
        <dc:format>image/svg+xml</dc:format>
        <dc:type
           rdf:resource="http://purl.org/dc/dcmitype/StillImage" />
        <dc:title></dc:title>
      </cc:Work>
    </rdf:RDF>
  </metadata>
    <circle
       style="color:#000000;clip-rule:nonzero;display:inline;overflow:visible;visibility:visible;opacity:1;isolation:auto;mix-blend-mode:normal;color-interpolation:sRGB;color-interpolation-filters:linearRGB;solid-color:#000000;solid-opacity:1;vector-effect:none;fill:#00a19a;fill-opacity:1;fill-rule:evenodd;stroke:#ffffff;stroke-width:1;stroke-linecap:butt;stroke-linejoin:miter;stroke-miterlimit:4;stroke-dasharray:none;stroke-dashoffset:0;stroke-opacity:1;marker:none;color-rendering:auto;image-rendering:auto;shape-rendering:auto;text-rendering:auto;enable-background:accumulate"
       id="path815"
       cx="15"
       cy="15"
       r="14.5" />
<g transform="translate(6,7)"><g id="surface1">
<path style=" stroke:none;fill-rule:nonzero;fill:#FFFFFF;fill-opacity:1;" d="M 10.742188 2.101562 C 10.804688 2.140625 10.871094 2.175781 10.917969 2.203125 C 10.941406 2.21875 10.964844 2.230469 10.980469 2.242188 L 13.398438 2.355469 L 13.53125 2.304688 C 13.617188 2.246094 13.800781 2.105469 13.910156 1.96875 L 13.894531 1.703125 C 12.269531 0.222656 9.617188 0.015625 9.386719 0.00390625 C 9.285156 0.0234375 9.195312 0.0546875 9.152344 0.078125 L 8.960938 0.464844 C 8.941406 0.523438 8.925781 0.578125 8.910156 0.636719 L 10.492188 1.964844 C 10.519531 1.980469 10.632812 2.042969 10.742188 2.101562 Z M 10.742188 2.101562 "/>
<path style=" stroke:none;fill-rule:nonzero;fill:#FFFFFF;fill-opacity:1;" d="M 12.207031 8.058594 L 12.222656 8.058594 L 14.554688 8.125 C 14.714844 7.789062 15.570312 5.972656 15.667969 5.761719 C 15.664062 5.6875 15.652344 5.433594 15.640625 5.300781 C 15.519531 5.105469 13.976562 3 13.734375 2.699219 L 10.941406 2.515625 C 10.816406 2.757812 10.320312 3.765625 10.046875 4.320312 L 10.046875 5.101562 L 12.171875 8.019531 Z M 12.207031 8.058594 "/>
<path style=" stroke:none;fill-rule:nonzero;fill:#FFFFFF;fill-opacity:1;" d="M 1.023438 5.277344 C 1.101562 5.277344 1.261719 5.285156 1.386719 5.308594 C 1.941406 4.941406 2.90625 4.351562 3.304688 4.109375 C 3.371094 4.050781 3.429688 3.984375 3.484375 3.914062 C 3.53125 3.832031 4.113281 2.765625 4.320312 2.039062 C 4.367188 1.878906 4.289062 1.707031 4.09375 1.527344 C 4.074219 1.515625 4.054688 1.503906 4.03125 1.496094 L 3.613281 1.46875 C 3.207031 1.730469 2.476562 2.234375 2 2.746094 C 1.492188 3.292969 0.984375 4.234375 0.773438 4.640625 L 0.898438 5.097656 Z M 1.023438 5.277344 "/>
<path style=" stroke:none;fill-rule:nonzero;fill:#FFFFFF;fill-opacity:1;" d="M 4.59375 1.34375 C 4.671875 1.347656 4.75 1.359375 4.824219 1.371094 C 4.828125 1.371094 4.832031 1.371094 4.832031 1.371094 C 5.160156 1.175781 6.03125 0.839844 6.515625 0.671875 C 6.976562 0.511719 8.269531 0.421875 8.617188 0.425781 C 8.699219 0.375 8.757812 0.199219 8.785156 0.046875 C 8.191406 0.0429688 6.667969 0.0546875 6.078125 0.230469 C 5.105469 0.523438 4.429688 0.917969 4.089844 1.148438 L 4.105469 1.199219 C 4.261719 1.257812 4.425781 1.308594 4.59375 1.34375 Z M 4.59375 1.34375 "/>
<path style=" stroke:none;fill-rule:nonzero;fill:#FFFFFF;fill-opacity:1;" d="M 3.40625 4.378906 C 2.941406 4.71875 1.875 5.371094 1.425781 5.648438 C 1.34375 5.730469 1.253906 5.835938 1.199219 5.894531 C 1.152344 6.050781 1.082031 6.289062 1.015625 6.570312 C 0.847656 7.289062 0.917969 8.253906 0.960938 8.832031 C 0.964844 8.871094 0.96875 8.914062 0.972656 8.949219 C 0.988281 9.042969 1.003906 9.117188 1.011719 9.171875 L 1.285156 9.492188 C 1.519531 9.652344 2.074219 10.144531 2.304688 10.351562 C 2.492188 10.519531 2.683594 10.691406 2.824219 10.824219 C 2.929688 10.921875 2.992188 10.980469 3.027344 11.019531 L 3.5625 11.027344 C 3.644531 10.976562 3.734375 10.917969 3.832031 10.855469 L 5.359375 9.84375 L 5.472656 9.59375 L 5.523438 5.886719 C 5.519531 5.878906 5.511719 5.871094 5.507812 5.863281 L 3.675781 4.414062 C 3.585938 4.394531 3.496094 4.386719 3.40625 4.378906 Z M 3.40625 4.378906 "/>
<path style=" stroke:none;fill-rule:nonzero;fill:#FFFFFF;fill-opacity:1;" d="M 5.992188 5.570312 C 6.015625 5.574219 6.039062 5.574219 6.0625 5.574219 L 9.558594 4.703125 L 10.515625 2.554688 C 10.496094 2.460938 10.464844 2.371094 10.421875 2.28125 L 8.523438 0.777344 L 8.515625 0.777344 C 8.101562 0.808594 7.15625 0.882812 6.863281 0.925781 C 6.675781 0.949219 6.132812 1.152344 5.371094 1.476562 C 5.242188 1.535156 5.144531 1.578125 5.078125 1.605469 L 4.839844 1.707031 L 4.734375 1.933594 C 4.648438 2.246094 4.28125 3.210938 3.867188 3.859375 C 3.921875 4.003906 3.988281 4.179688 4.019531 4.292969 C 4.300781 4.492188 4.570312 4.683594 4.800781 4.855469 C 5.226562 5.164062 5.527344 5.394531 5.714844 5.558594 C 5.808594 5.5625 5.90625 5.566406 5.992188 5.570312 Z M 5.992188 5.570312 "/>
<path style=" stroke:none;fill-rule:nonzero;fill:#FFFFFF;fill-opacity:1;" d="M 14.175781 2.617188 L 14.140625 2.617188 L 14.152344 2.703125 C 14.242188 2.796875 14.324219 2.914062 14.421875 3.046875 C 14.46875 3.109375 14.515625 3.171875 14.570312 3.242188 C 15.003906 3.8125 15.859375 5.042969 15.949219 5.203125 L 16.191406 5.511719 L 16.234375 5.503906 L 16.449219 5.207031 C 16.28125 4.792969 15.96875 4.0625 15.621094 3.527344 C 15.222656 2.910156 14.820312 2.53125 14.542969 2.320312 L 14.105469 2.308594 L 14.140625 2.605469 Z M 14.175781 2.617188 "/>
<path style=" stroke:none;fill-rule:nonzero;fill:#FFFFFF;fill-opacity:1;" d="M 0.546875 9.515625 C 0.609375 9.445312 0.695312 9.351562 0.71875 9.320312 C 0.71875 9.3125 0.71875 9.304688 0.71875 9.300781 C 0.648438 8.914062 0.496094 7.808594 0.597656 7.191406 C 0.597656 7.179688 0.796875 5.96875 0.9375 5.671875 L 0.59375 5.277344 C 0.554688 5.28125 0.515625 5.285156 0.476562 5.292969 C 0.285156 5.722656 -0.0117188 6.550781 0 7.535156 C 0.0117188 8.417969 0.195312 9.433594 0.261719 9.761719 C 0.367188 9.691406 0.464844 9.609375 0.546875 9.515625 Z M 0.546875 9.515625 "/>
<path style=" stroke:none;fill-rule:nonzero;fill:#FFFFFF;fill-opacity:1;" d="M 9.515625 10.945312 L 9.871094 10.613281 L 11.734375 8.277344 L 11.753906 8.105469 L 9.707031 5.132812 L 9.636719 5.09375 L 6.128906 5.972656 C 6.105469 6.007812 6.082031 6.039062 6.058594 6.070312 C 6.019531 6.121094 5.984375 6.167969 5.953125 6.207031 C 5.90625 6.816406 5.824219 8.367188 5.765625 9.664062 L 5.902344 9.789062 Z M 9.515625 10.945312 "/>
<path style=" stroke:none;fill-rule:nonzero;fill:#FFFFFF;fill-opacity:1;" d="M 9.800781 13.992188 C 9.886719 13.863281 10.078125 13.558594 10.179688 13.398438 L 9.636719 11.601562 C 9.535156 11.492188 9.421875 11.28125 9.378906 11.199219 L 5.703125 10.183594 L 5.472656 10.195312 C 5.226562 10.320312 4.691406 10.644531 3.996094 11.078125 L 3.714844 11.265625 L 3.511719 11.636719 C 3.550781 11.789062 3.59375 11.941406 3.636719 12.089844 C 3.964844 12.832031 4.140625 13.425781 4.214844 13.71875 L 4.34375 13.921875 C 4.664062 14.15625 5 14.371094 5.355469 14.5625 C 6 14.828125 6.773438 15.011719 7.527344 15.074219 C 7.527344 15.074219 7.574219 15.074219 7.78125 14.992188 L 9.742188 14.023438 Z M 9.800781 13.992188 "/>
<path style=" stroke:none;fill-rule:nonzero;fill:#FFFFFF;fill-opacity:1;" d="M 15.753906 11.15625 L 15.75 11.160156 C 15.707031 11.234375 15.59375 11.398438 15.269531 11.816406 C 15.164062 11.96875 15.0625 12.113281 14.964844 12.25 C 14.460938 12.953125 14.015625 13.363281 13.726562 13.582031 C 13.566406 13.851562 13.488281 14.066406 13.425781 14.238281 C 13.40625 14.300781 13.382812 14.359375 13.359375 14.417969 C 13.363281 14.441406 13.363281 14.464844 13.367188 14.484375 C 13.550781 14.382812 13.832031 14.191406 14.164062 13.914062 C 14.527344 13.609375 15.203125 12.988281 15.679688 12.222656 C 16.019531 11.667969 16.1875 11.347656 16.269531 11.167969 L 16.253906 11.15625 Z M 15.753906 11.15625 "/>
<path style=" stroke:none;fill-rule:nonzero;fill:#FFFFFF;fill-opacity:1;" d="M 3.820312 13.546875 C 3.648438 13.128906 3.476562 12.574219 3.363281 12.175781 C 3.308594 12.054688 3.253906 11.933594 3.199219 11.820312 C 3.105469 11.628906 2.992188 11.449219 2.859375 11.28125 C 2.386719 10.871094 1.535156 10.125 1.074219 9.6875 C 1.039062 9.671875 0.996094 9.679688 0.953125 9.6875 C 0.929688 9.691406 0.910156 9.695312 0.890625 9.695312 C 0.859375 9.699219 0.738281 9.765625 0.625 9.859375 C 0.542969 9.925781 0.429688 10.070312 0.378906 10.132812 C 0.460938 10.507812 0.757812 11.359375 1.378906 12.328125 C 1.816406 13.003906 2.269531 13.453125 2.574219 13.714844 C 2.714844 13.832031 2.863281 13.945312 3.019531 14.042969 L 3.328125 14.007812 L 3.664062 13.910156 C 3.707031 13.804688 3.773438 13.652344 3.820312 13.546875 Z M 3.820312 13.546875 "/>
<path style=" stroke:none;fill-rule:nonzero;fill:#FFFFFF;fill-opacity:1;" d="M 16.746094 6.019531 C 16.714844 5.949219 16.652344 5.894531 16.574219 5.867188 L 16.175781 5.84375 C 16.15625 5.84375 16.132812 5.851562 16.109375 5.855469 C 15.941406 6.089844 15.792969 6.339844 15.664062 6.597656 C 15.265625 7.429688 15.109375 7.851562 15.085938 7.945312 C 15.148438 8.253906 15.207031 8.488281 15.257812 8.695312 C 15.300781 8.859375 15.332031 9 15.363281 9.144531 C 15.398438 9.257812 15.675781 10.351562 15.734375 10.746094 L 15.808594 10.789062 C 15.910156 10.789062 16.011719 10.785156 16.109375 10.769531 L 16.570312 10.496094 C 16.582031 10.484375 16.589844 10.46875 16.601562 10.457031 C 16.867188 10.101562 16.917969 9.886719 16.960938 9.605469 C 17.019531 8.722656 17.050781 6.601562 16.746094 6.019531 Z M 16.746094 6.019531 "/>
<path style=" stroke:none;fill-rule:nonzero;fill:#FFFFFF;fill-opacity:1;" d="M 15.035156 11.652344 C 15.199219 11.414062 15.332031 11.21875 15.417969 11.085938 L 15.4375 10.855469 C 15.394531 10.757812 15.34375 10.515625 15.246094 10.039062 C 15.164062 9.648438 15.074219 9.203125 15.011719 9.035156 C 14.957031 8.914062 14.890625 8.796875 14.8125 8.683594 C 14.71875 8.601562 14.621094 8.515625 14.550781 8.453125 L 12.210938 8.332031 L 12.195312 8.332031 L 11.859375 8.574219 L 9.910156 11.019531 C 9.886719 11.136719 9.882812 11.257812 9.902344 11.378906 C 9.90625 11.40625 9.910156 11.433594 9.914062 11.457031 L 10.652344 13.53125 L 10.738281 13.605469 L 13.523438 13.351562 Z M 15.035156 11.652344 "/>
<path style=" stroke:none;fill-rule:nonzero;fill:#FFFFFF;fill-opacity:1;" d="M 7.210938 15.414062 C 5.9375 15.195312 5.117188 14.808594 4.652344 14.523438 C 4.519531 14.445312 4.398438 14.359375 4.28125 14.265625 L 3.894531 14.203125 L 3.492188 14.421875 C 3.683594 14.589844 4.046875 14.890625 4.464844 15.136719 C 4.660156 15.246094 4.867188 15.335938 5.082031 15.40625 C 5.789062 15.628906 7.082031 15.828125 7.6875 15.910156 L 7.714844 15.757812 C 7.695312 15.730469 7.675781 15.703125 7.65625 15.675781 C 7.539062 15.601562 7.355469 15.496094 7.210938 15.414062 Z M 7.210938 15.414062 "/>
<path style=" stroke:none;fill-rule:nonzero;fill:#FFFFFF;fill-opacity:1;" d="M 10.492188 13.980469 L 10.300781 14.058594 L 9.851562 14.277344 C 9.285156 14.585938 8.507812 14.988281 8.003906 15.199219 C 7.996094 15.269531 7.988281 15.355469 7.976562 15.433594 C 7.992188 15.496094 8.007812 15.550781 8.027344 15.605469 C 8.046875 15.667969 8.074219 15.730469 8.101562 15.792969 L 8.371094 15.996094 C 9.074219 15.988281 10.808594 15.890625 12.34375 15.195312 C 12.40625 15.167969 12.507812 15.09375 12.652344 14.890625 L 12.824219 14.613281 C 12.878906 14.523438 12.929688 14.421875 12.980469 14.316406 C 13.074219 14.125 13.152344 13.941406 13.207031 13.804688 C 13.1875 13.789062 13.164062 13.773438 13.136719 13.757812 Z M 10.492188 13.980469 "/>
</g>
</g>
</svg>
