<?xml version="1.0" encoding="UTF-8" standalone="no"?>
<!-- Created with Inkscape (http://www.inkscape.org/) -->

<svg
   xmlns:dc="http://purl.org/dc/elements/1.1/"
   xmlns:cc="http://creativecommons.org/ns#"
   xmlns:rdf="http://www.w3.org/1999/02/22-rdf-syntax-ns#"
   xmlns:svg="http://www.w3.org/2000/svg"
   xmlns="http://www.w3.org/2000/svg"
   xmlns:xlink="http://www.w3.org/1999/xlink"
   xmlns:sodipodi="http://sodipodi.sourceforge.net/DTD/sodipodi-0.dtd"
   xmlns:inkscape="http://www.inkscape.org/namespaces/inkscape"
   width="30px"
   height="30px"
   version="1.1"
   id="svg8"
   inkscape:version="0.92.4 5da689c313, 2019-01-14"
   sodipodi:docname="container.svg">
  <defs
     id="defs2" />
  <sodipodi:namedview
     id="base"
     pagecolor="#ffffff"
     bordercolor="#666666"
     borderopacity="1.0"
     inkscape:pageopacity="0.0"
     inkscape:pageshadow="2"
     inkscape:zoom="13.049334"
     inkscape:cx="18.679046"
     inkscape:cy="12.165829"
     inkscape:document-units="px"
     inkscape:current-layer="layer1"
     showgrid="false"
     inkscape:snap-page="false"
     units="px"
     inkscape:window-width="1884"
     inkscape:window-height="1061"
     inkscape:window-x="0"
     inkscape:window-y="0"
     inkscape:window-maximized="1"
     fit-margin-top="0"
     fit-margin-left="0"
     fit-margin-right="0"
     fit-margin-bottom="0" />
  <metadata
     id="metadata5">
    <rdf:RDF>
      <cc:Work
         rdf:about="">
        <dc:format>image/svg+xml</dc:format>
        <dc:type
           rdf:resource="http://purl.org/dc/dcmitype/StillImage" />
        <dc:title></dc:title>
      </cc:Work>
    </rdf:RDF>
  </metadata>
    <circle
       style="color:#000000;clip-rule:nonzero;display:inline;overflow:visible;visibility:visible;opacity:1;isolation:auto;mix-blend-mode:normal;color-interpolation:sRGB;color-interpolation-filters:linearRGB;solid-color:#000000;solid-opacity:1;vector-effect:none;fill:#ffffff;fill-opacity:1;fill-rule:evenodd;stroke:#00A757;stroke-width:1;stroke-linecap:butt;stroke-linejoin:miter;stroke-miterlimit:4;stroke-dasharray:none;stroke-dashoffset:0;stroke-opacity:1;marker:none;color-rendering:auto;image-rendering:auto;shape-rendering:auto;text-rendering:auto;enable-background:accumulate"
       id="path815"
       cx="15"
       cy="15"
       r="14.5" />
<g transform="translate(7,7)"><g id="surface1">
<path style=" stroke:none;fill-rule:nonzero;fill:rgb(30%,30%,30%);fill-opacity:1;" d="M 15.863281 2.355469 C 15.875 3.605469 14.191406 4.652344 14.191406 4.652344 C 13 5.570312 12.429688 6.46875 12.429688 6.46875 C 12.429688 6.46875 11.898438 5.546875 10.585938 4.652344 C 10.222656 4.316406 9.140625 3.542969 9.132812 2.410156 C 9.121094 1.277344 9.816406 0.703125 10.679688 0.695312 C 11.542969 0.6875 12.421875 1.53125 12.429688 2.417969 C 12.421875 1.53125 13.304688 0.675781 14.167969 0.667969 C 15.03125 0.65625 15.855469 1.46875 15.863281 2.355469 "/>
<path style=" stroke:none;fill-rule:nonzero;fill:rgb(30%,30%,30%);fill-opacity:1;" d="M 5.414062 1.816406 C 4.09375 1.019531 3.636719 0 3.636719 0 C 3.636719 0 3.25 0.90625 2.046875 1.816406 C 2.046875 1.816406 0.242188 2.835938 0.242188 4.085938 C 0.246094 4.972656 1.0625 5.789062 1.925781 5.789062 C 2.839844 5.789062 3.253906 5.195312 3.492188 4.992188 C 3.175781 6 2.398438 7.261719 1.925781 7.261719 C 1.167969 7.261719 5.335938 7.328125 5.320312 7.261719 C 4.617188 6.933594 4.09375 6.128906 3.851562 4.992188 C 4.164062 5.25 4.695312 5.789062 5.414062 5.789062 C 6.28125 5.789062 6.976562 5.21875 6.976562 4.085938 C 6.976562 2.949219 5.773438 2.15625 5.414062 1.816406 Z M 5.414062 1.816406 "/>
<path style=" stroke:none;fill-rule:nonzero;fill:rgb(30%,30%,30%);fill-opacity:1;" d="M 0.00390625 12.367188 C 0.101562 12.597656 3.3125 10.886719 3.671875 8.964844 C 3.472656 10.007812 6.6875 12.574219 7.097656 12.367188 C 5.175781 13.164062 3.640625 15.335938 3.671875 15.660156 C 3.699219 15.941406 3.128906 13.617188 0.00390625 12.367188 Z M 0.00390625 12.367188 "/>
<path style=" stroke:none;fill-rule:nonzero;fill:rgb(30%,30%,30%);fill-opacity:1;" d="M 14.308594 11.121094 C 13.988281 11.121094 13.636719 11.296875 13.316406 11.519531 C 13.59375 11.128906 13.832031 10.6875 13.832031 10.328125 C 13.832031 9.480469 13.304688 8.738281 12.507812 8.738281 C 11.710938 8.738281 11.066406 9.480469 11.066406 10.328125 C 11.066406 10.710938 11.363281 11.1875 11.6875 11.597656 C 11.339844 11.335938 10.945312 11.121094 10.589844 11.121094 C 9.695312 11.117188 8.90625 11.722656 8.902344 12.476562 C 8.898438 13.226562 9.683594 13.726562 10.578125 13.730469 C 11.160156 13.730469 11.847656 13.292969 12.261719 12.949219 C 12.171875 14.101562 11.976562 15.34375 10.707031 16 L 14.191406 16 C 13.503906 15.679688 12.675781 14.6875 12.632812 12.949219 C 13.046875 13.289062 13.734375 13.730469 14.320312 13.730469 C 15.214844 13.726562 16 13.226562 15.996094 12.476562 C 15.992188 11.722656 15.203125 11.117188 14.308594 11.121094 Z M 14.308594 11.121094 "/>
</g>
</g>
</svg>
