<?xml version="1.0" encoding="UTF-8"?>
<svg xmlns="http://www.w3.org/2000/svg" xmlns:xlink="http://www.w3.org/1999/xlink" width="10px" height="10px" viewBox="0 0 10 10" version="1.1">
<g id="surface1">
<path style=" stroke:none;fill-rule:nonzero;fill:rgb(30%,30%,30%);fill-opacity:1;" d="M 9.324219 3.539062 C 9.324219 4.304688 8.75 4.921875 8.039062 4.921875 C 7.332031 4.921875 6.757812 4.304688 6.757812 3.539062 C 6.757812 2.773438 7.332031 2.152344 8.039062 2.152344 C 8.75 2.152344 9.324219 2.773438 9.324219 3.539062 Z M 9.324219 3.539062 "/>
<path style=" stroke:none;fill-rule:nonzero;fill:rgb(30%,30%,30%);fill-opacity:1;" d="M 2.585938 6.515625 C 2.585938 6.511719 2.589844 6.511719 2.59375 6.511719 C 2.597656 6.507812 2.601562 6.507812 2.605469 6.503906 C 2.753906 6.417969 2.875 6.300781 3.007812 6.164062 C 3.152344 6.023438 3.316406 5.863281 3.53125 5.742188 C 3.742188 5.605469 4.007812 5.503906 4.371094 5.503906 C 4.378906 5.503906 4.382812 5.503906 4.390625 5.503906 C 4.972656 5.511719 5.308594 5.816406 5.601562 6.097656 C 5.628906 6.121094 5.652344 6.144531 5.675781 6.167969 C 5.765625 6.25 5.851562 6.328125 5.9375 6.398438 C 6.101562 6.519531 6.277344 6.601562 6.527344 6.59375 C 7.171875 6.578125 7.4375 6.210938 7.515625 6.070312 L 7.359375 5.839844 C 7.339844 5.789062 7.316406 5.738281 7.285156 5.691406 L 5.132812 2.398438 L 7.207031 1.292969 C 7.5 1.128906 7.621094 0.675781 7.46875 0.355469 C 7.320312 0.0351562 6.957031 -0.09375 6.660156 0.0703125 L 4.125 1.425781 C 4 1.5 3.902344 1.542969 3.804688 1.617188 C 3.707031 1.691406 3.628906 1.789062 3.582031 1.90625 C 3.488281 2.089844 3.476562 2.316406 3.570312 2.515625 C 3.597656 2.574219 3.632812 2.625 3.671875 2.671875 L 4.421875 3.816406 L 1.359375 6.222656 C 1.566406 6.4375 1.761719 6.59375 2.15625 6.59375 C 2.328125 6.59375 2.464844 6.566406 2.585938 6.515625 Z M 2.585938 6.515625 "/>
<path style=" stroke:none;fill-rule:nonzero;fill:rgb(30%,30%,30%);fill-opacity:1;" d="M 9.96875 6.898438 C 9.671875 6.609375 9.332031 6.28125 8.726562 6.273438 C 8.722656 6.273438 8.714844 6.273438 8.707031 6.273438 C 8.117188 6.273438 7.785156 6.535156 7.527344 6.785156 C 7.527344 6.785156 7.421875 6.890625 7.421875 6.894531 C 7.296875 7.019531 7.1875 7.132812 7.054688 7.214844 C 6.90625 7.289062 6.71875 7.34375 6.476562 7.351562 C 6.125 7.359375 5.914062 7.195312 5.679688 6.976562 C 5.65625 6.953125 5.632812 6.929688 5.609375 6.902344 C 5.421875 6.703125 5.199219 6.46875 4.835938 6.351562 C 4.691406 6.296875 4.53125 6.261719 4.339844 6.261719 C 4.332031 6.261719 4.324219 6.261719 4.320312 6.261719 C 3.824219 6.261719 3.507812 6.445312 3.269531 6.652344 C 3.171875 6.734375 3.082031 6.816406 3.003906 6.894531 C 2.933594 6.960938 2.867188 7.027344 2.796875 7.085938 L 2.804688 7.09375 C 2.628906 7.246094 2.429688 7.351562 2.101562 7.351562 C 1.65625 7.351562 1.464844 7.148438 1.222656 6.890625 C 0.964844 6.617188 0.644531 6.28125 0 6.261719 L 0 7.09375 C 0.382812 7.113281 0.558594 7.292969 0.792969 7.542969 C 1.0625 7.828125 1.398438 8.179688 2.101562 8.179688 C 2.820312 8.179688 3.167969 7.828125 3.453125 7.542969 C 3.515625 7.476562 3.574219 7.417969 3.632812 7.363281 C 3.816406 7.210938 4.007812 7.109375 4.320312 7.105469 C 4.324219 7.105469 4.328125 7.105469 4.332031 7.105469 C 4.4375 7.105469 4.523438 7.117188 4.601562 7.136719 C 4.800781 7.207031 4.960938 7.351562 5.171875 7.550781 C 5.199219 7.582031 5.230469 7.609375 5.261719 7.640625 C 5.519531 7.90625 5.855469 8.195312 6.492188 8.195312 C 6.855469 8.195312 7.121094 8.105469 7.335938 7.976562 C 7.597656 7.84375 7.765625 7.667969 7.875 7.519531 C 8.113281 7.277344 8.300781 7.105469 8.707031 7.105469 C 8.710938 7.105469 8.71875 7.105469 8.722656 7.105469 C 9.070312 7.109375 9.265625 7.28125 9.5625 7.566406 C 9.6875 7.6875 9.828125 7.824219 10 7.9375 L 10 6.925781 C 9.988281 6.914062 9.980469 6.90625 9.96875 6.898438 Z M 9.96875 6.898438 "/>
<path style=" stroke:none;fill-rule:nonzero;fill:rgb(30%,30%,30%);fill-opacity:1;" d="M 9.96875 8.703125 C 9.671875 8.414062 9.332031 8.085938 8.726562 8.078125 C 8.722656 8.078125 8.714844 8.078125 8.707031 8.078125 C 8.117188 8.078125 7.785156 8.339844 7.527344 8.589844 C 7.527344 8.589844 7.421875 8.695312 7.421875 8.699219 C 7.296875 8.824219 7.1875 8.9375 7.054688 9.019531 C 6.90625 9.09375 6.71875 9.148438 6.476562 9.15625 C 6.125 9.164062 5.914062 9 5.679688 8.78125 C 5.65625 8.757812 5.632812 8.734375 5.609375 8.707031 C 5.421875 8.507812 5.199219 8.273438 4.835938 8.15625 C 4.691406 8.101562 4.53125 8.066406 4.339844 8.066406 C 4.332031 8.066406 4.324219 8.066406 4.320312 8.066406 C 3.824219 8.066406 3.507812 8.25 3.269531 8.457031 C 3.171875 8.539062 3.082031 8.621094 3.003906 8.699219 C 2.933594 8.765625 2.867188 8.832031 2.796875 8.890625 L 2.804688 8.898438 C 2.628906 9.050781 2.429688 9.15625 2.101562 9.15625 C 1.65625 9.15625 1.464844 8.953125 1.222656 8.695312 C 0.964844 8.421875 0.644531 8.085938 0 8.066406 L 0 8.898438 C 0.382812 8.917969 0.558594 9.097656 0.792969 9.347656 C 1.0625 9.632812 1.398438 9.984375 2.101562 9.984375 C 2.820312 9.984375 3.167969 9.632812 3.453125 9.347656 C 3.515625 9.28125 3.574219 9.222656 3.632812 9.167969 C 3.816406 9.015625 4.007812 8.914062 4.320312 8.910156 C 4.324219 8.910156 4.328125 8.910156 4.332031 8.910156 C 4.4375 8.910156 4.523438 8.921875 4.601562 8.941406 C 4.800781 9.011719 4.960938 9.15625 5.171875 9.355469 C 5.199219 9.386719 5.230469 9.414062 5.261719 9.445312 C 5.519531 9.710938 5.855469 10 6.492188 10 C 6.855469 10 7.121094 9.910156 7.335938 9.78125 C 7.597656 9.648438 7.765625 9.472656 7.875 9.324219 C 8.113281 9.082031 8.300781 8.910156 8.707031 8.910156 C 8.710938 8.910156 8.71875 8.910156 8.722656 8.910156 C 9.070312 8.914062 9.265625 9.085938 9.5625 9.371094 C 9.6875 9.492188 9.828125 9.628906 10 9.742188 L 10 8.730469 C 9.988281 8.71875 9.980469 8.710938 9.96875 8.703125 Z M 9.96875 8.703125 "/>
</g>
</svg>
