<?xml version="1.0" encoding="UTF-8"?>
<svg xmlns="http://www.w3.org/2000/svg" xmlns:xlink="http://www.w3.org/1999/xlink" width="10px" height="10px" viewBox="0 0 10 10" version="1.1">
<g id="surface1">
<path style=" stroke:none;fill-rule:nonzero;fill:rgb(30%,30%,30%);fill-opacity:1;" d="M 10 2.875 C 10 4.464844 8.625 5.75 6.933594 5.75 C 5.238281 5.75 3.867188 4.464844 3.867188 2.875 C 3.867188 1.289062 5.238281 0.00390625 6.933594 0.00390625 C 8.625 0.00390625 10 1.289062 10 2.875 Z M 10 2.875 "/>
<path style=" stroke:none;fill-rule:nonzero;fill:rgb(30%,30%,30%);fill-opacity:1;" d="M 1.722656 1.5625 C -0.773438 4.726562 0.464844 5.59375 1.246094 5.832031 C 1.554688 5.925781 1.882812 5.925781 2.191406 5.835938 C 2.972656 5.601562 4.226562 4.734375 1.722656 1.5625 Z M 1.722656 1.5625 "/>
<path style=" stroke:none;fill-rule:nonzero;fill:rgb(30%,30%,30%);fill-opacity:1;" d="M 9.28125 7.832031 C 9.28125 9.027344 7.203125 9.996094 4.640625 9.996094 C 2.078125 9.996094 0 9.027344 0 7.832031 C 0 7.210938 0.5625 6.648438 1.460938 6.253906 C 1.492188 6.242188 1.402344 6.984375 1.402344 6.984375 L 2.035156 6.996094 L 1.949219 6.066406 C 1.949219 6.066406 3.0625 5.640625 4.640625 5.667969 C 5.277344 5.675781 5.886719 5.726562 6.4375 5.835938 C 6.441406 5.835938 6.042969 8.214844 6.042969 8.214844 L 7.605469 8.214844 C 7.605469 8.214844 7.351562 6.074219 7.398438 6.089844 C 8.539062 6.484375 9.28125 7.117188 9.28125 7.832031 Z M 9.28125 7.832031 "/>
</g>
</svg>
