<?xml version="1.0" encoding="UTF-8"?>
<svg xmlns="http://www.w3.org/2000/svg" xmlns:xlink="http://www.w3.org/1999/xlink" width="10px" height="6px" viewBox="0 0 10 6" version="1.1">
<g id="surface1">
<path style=" stroke:none;fill-rule:nonzero;fill:rgb(30%,30%,30%);fill-opacity:1;" d="M 7.679688 0 C 7.355469 0 7.09375 0.273438 7.09375 0.605469 L 7.09375 2.230469 L 2.90625 2.230469 L 2.90625 0.605469 C 2.90625 0.273438 2.644531 0 2.320312 0 C 1.996094 0 1.734375 0.273438 1.730469 0.605469 L 1.730469 5.394531 C 1.734375 5.726562 1.996094 6 2.320312 6 C 2.644531 6 2.90625 5.726562 2.90625 5.394531 L 2.90625 3.769531 L 7.09375 3.769531 L 7.09375 5.394531 C 7.09375 5.726562 7.355469 6 7.679688 6 C 8.003906 6 8.269531 5.726562 8.269531 5.394531 L 8.269531 0.605469 C 8.265625 0.273438 8.003906 0 7.679688 0 Z M 7.679688 0 "/>
<path style=" stroke:none;fill-rule:nonzero;fill:rgb(30%,30%,30%);fill-opacity:1;" d="M 1.019531 1 C 1.265625 1 1.460938 1.207031 1.460938 1.460938 L 1.460938 4.539062 C 1.460938 4.792969 1.265625 5 1.019531 5 C 0.773438 5 0.574219 4.792969 0.574219 4.539062 L 0.574219 1.460938 C 0.574219 1.207031 0.773438 1 1.019531 1 Z M 1.019531 1 "/>
<path style=" stroke:none;fill-rule:nonzero;fill:rgb(30%,30%,30%);fill-opacity:1;" d="M 8.980469 1 C 9.226562 1 9.425781 1.207031 9.425781 1.460938 L 9.425781 4.539062 C 9.425781 4.792969 9.226562 5 8.980469 5 C 8.734375 5 8.539062 4.792969 8.539062 4.539062 L 8.539062 1.460938 C 8.539062 1.207031 8.734375 1 8.980469 1 Z M 8.980469 1 "/>
<path style=" stroke:none;fill-rule:nonzero;fill:rgb(30%,30%,30%);fill-opacity:1;" d="M 0.195312 2.476562 C 0.296875 2.476562 0.382812 2.5625 0.382812 2.671875 L 0.382812 3.328125 C 0.382812 3.4375 0.296875 3.523438 0.195312 3.523438 C 0.0898438 3.523438 0.00390625 3.4375 0.00390625 3.328125 L 0.00390625 2.671875 C 0.00390625 2.5625 0.0898438 2.476562 0.195312 2.476562 Z M 0.195312 2.476562 "/>
<path style=" stroke:none;fill-rule:nonzero;fill:rgb(30%,30%,30%);fill-opacity:1;" d="M 9.804688 2.476562 C 9.910156 2.476562 9.996094 2.5625 9.996094 2.671875 L 9.996094 3.328125 C 9.996094 3.4375 9.910156 3.523438 9.804688 3.523438 C 9.703125 3.523438 9.617188 3.4375 9.617188 3.328125 L 9.617188 2.671875 C 9.617188 2.5625 9.703125 2.476562 9.804688 2.476562 Z M 9.804688 2.476562 "/>
</g>
</svg>
