<?xml version="1.0" encoding="UTF-8"?>
<svg xmlns="http://www.w3.org/2000/svg" xmlns:xlink="http://www.w3.org/1999/xlink" width="10px" height="10px" viewBox="0 0 10 10" version="1.1">
<g id="surface1">
<path style=" stroke:none;fill-rule:nonzero;fill:rgb(30%,30%,30%);fill-opacity:1;" d="M 6.773438 2.988281 C 6.683594 2.761719 6.421875 2.648438 6.179688 2.730469 L 5.339844 3.015625 L 4.167969 2.054688 C 4.0625 1.96875 3.921875 1.929688 3.785156 1.945312 C 3.78125 1.945312 3.78125 1.945312 3.78125 1.945312 C 3.667969 1.9375 3.554688 1.957031 3.453125 2.003906 L 1.800781 2.390625 C 1.644531 2.425781 1.515625 2.535156 1.460938 2.679688 C 1.449219 2.703125 1.441406 2.726562 1.433594 2.753906 L 1.125 3.855469 C 1.097656 3.96875 1.113281 4.085938 1.175781 4.183594 C 1.238281 4.28125 1.339844 4.351562 1.460938 4.382812 C 1.496094 4.390625 1.535156 4.394531 1.574219 4.394531 C 1.785156 4.394531 1.96875 4.261719 2.023438 4.070312 L 2.261719 3.210938 L 3.070312 3.023438 L 2.875 5.0625 C 2.867188 5.113281 2.871094 5.164062 2.882812 5.214844 C 2.867188 5.238281 2.855469 5.261719 2.847656 5.285156 L 2.355469 6.664062 L 0.84375 7.046875 C 0.589844 7.113281 0.4375 7.359375 0.507812 7.601562 C 0.578125 7.839844 0.84375 7.984375 1.097656 7.917969 L 2.855469 7.476562 C 2.871094 7.472656 2.890625 7.464844 2.90625 7.460938 C 2.90625 7.460938 2.910156 7.457031 2.910156 7.457031 C 2.914062 7.457031 2.921875 7.453125 2.925781 7.453125 C 2.929688 7.453125 2.929688 7.449219 2.933594 7.449219 C 2.9375 7.449219 2.941406 7.445312 2.949219 7.441406 C 2.953125 7.441406 2.957031 7.4375 2.960938 7.4375 C 2.964844 7.433594 2.96875 7.433594 2.96875 7.433594 C 2.972656 7.429688 2.976562 7.429688 2.980469 7.425781 C 2.984375 7.425781 2.984375 7.425781 2.988281 7.421875 C 2.992188 7.421875 2.996094 7.417969 3 7.414062 C 3 7.414062 3 7.414062 3.003906 7.414062 C 3.011719 7.410156 3.019531 7.402344 3.027344 7.398438 C 3.027344 7.398438 3.027344 7.394531 3.03125 7.394531 C 3.035156 7.394531 3.035156 7.390625 3.039062 7.386719 C 3.042969 7.386719 3.046875 7.382812 3.046875 7.382812 C 3.050781 7.378906 3.054688 7.378906 3.054688 7.375 C 3.058594 7.375 3.0625 7.371094 3.066406 7.367188 C 3.066406 7.367188 3.070312 7.363281 3.070312 7.363281 C 3.109375 7.328125 3.140625 7.289062 3.164062 7.242188 C 3.167969 7.242188 3.167969 7.242188 3.167969 7.242188 C 3.167969 7.238281 3.171875 7.230469 3.175781 7.226562 C 3.175781 7.222656 3.175781 7.222656 3.179688 7.21875 C 3.179688 7.214844 3.179688 7.214844 3.183594 7.210938 C 3.183594 7.207031 3.1875 7.203125 3.1875 7.199219 C 3.1875 7.199219 3.1875 7.195312 3.191406 7.195312 C 3.191406 7.1875 3.191406 7.183594 3.195312 7.179688 L 3.628906 5.964844 L 4.335938 6.480469 L 4.152344 8.113281 C 4.140625 8.230469 4.179688 8.351562 4.257812 8.445312 C 4.339844 8.539062 4.457031 8.597656 4.585938 8.609375 C 4.601562 8.609375 4.617188 8.613281 4.636719 8.613281 C 4.882812 8.613281 5.089844 8.4375 5.117188 8.207031 L 5.332031 6.324219 C 5.332031 6.320312 5.332031 6.316406 5.332031 6.3125 C 5.332031 6.3125 5.332031 6.308594 5.332031 6.304688 C 5.332031 6.300781 5.332031 6.296875 5.332031 6.289062 C 5.332031 6.289062 5.332031 6.285156 5.332031 6.285156 C 5.332031 6.277344 5.332031 6.273438 5.332031 6.265625 C 5.332031 6.257812 5.332031 6.25 5.332031 6.242188 C 5.328125 6.207031 5.320312 6.171875 5.308594 6.136719 C 5.308594 6.128906 5.304688 6.125 5.300781 6.117188 C 5.300781 6.117188 5.300781 6.113281 5.300781 6.113281 C 5.296875 6.109375 5.296875 6.105469 5.292969 6.101562 C 5.292969 6.097656 5.292969 6.09375 5.289062 6.089844 C 5.289062 6.085938 5.285156 6.085938 5.285156 6.082031 C 5.28125 6.078125 5.28125 6.074219 5.277344 6.070312 C 5.277344 6.066406 5.277344 6.066406 5.273438 6.0625 C 5.273438 6.058594 5.269531 6.054688 5.265625 6.050781 C 5.265625 6.046875 5.265625 6.046875 5.265625 6.042969 C 5.261719 6.039062 5.257812 6.035156 5.253906 6.03125 C 5.253906 6.027344 5.253906 6.027344 5.25 6.027344 C 5.25 6.023438 5.246094 6.015625 5.242188 6.011719 C 5.238281 6.011719 5.238281 6.011719 5.238281 6.007812 C 5.234375 6.003906 5.230469 6 5.226562 5.996094 C 5.226562 5.992188 5.226562 5.992188 5.222656 5.992188 C 5.21875 5.988281 5.214844 5.984375 5.210938 5.976562 C 5.210938 5.976562 5.210938 5.976562 5.207031 5.972656 C 5.203125 5.96875 5.199219 5.964844 5.195312 5.964844 C 5.195312 5.960938 5.191406 5.960938 5.191406 5.957031 C 5.1875 5.953125 5.183594 5.953125 5.179688 5.949219 C 5.175781 5.945312 5.175781 5.941406 5.171875 5.941406 C 5.167969 5.9375 5.164062 5.9375 5.164062 5.933594 C 5.160156 5.929688 5.15625 5.925781 5.152344 5.925781 C 5.148438 5.921875 5.148438 5.921875 5.144531 5.921875 L 4.078125 5.144531 L 4.253906 3.328125 L 4.84375 3.8125 C 4.96875 3.945312 5.167969 3.992188 5.347656 3.929688 L 6.496094 3.539062 C 6.613281 3.503906 6.707031 3.421875 6.757812 3.316406 C 6.8125 3.214844 6.816406 3.09375 6.773438 2.988281 Z M 6.773438 2.988281 "/>
<path style=" stroke:none;fill-rule:nonzero;fill:rgb(30%,30%,30%);fill-opacity:1;" d="M 4.839844 0.804688 C 4.839844 1.246094 4.453125 1.605469 3.976562 1.605469 C 3.503906 1.605469 3.117188 1.246094 3.117188 0.804688 C 3.117188 0.359375 3.503906 0 3.976562 0 C 4.453125 0 4.839844 0.359375 4.839844 0.804688 Z M 4.839844 0.804688 "/>
<path style=" stroke:none;fill-rule:nonzero;fill:rgb(30%,30%,30%);fill-opacity:1;" d="M 9.980469 9.3125 C 9.980469 9.273438 9.972656 9.234375 9.960938 9.199219 L 8.488281 4.214844 C 8.476562 4.171875 8.457031 4.132812 8.433594 4.097656 L 8.960938 3.214844 C 9 3.148438 9.011719 3.066406 8.988281 2.992188 C 8.964844 2.917969 8.910156 2.851562 8.835938 2.816406 C 8.683594 2.734375 8.492188 2.785156 8.40625 2.929688 L 7.710938 4.085938 L 6.707031 4.085938 C 6.605469 4.082031 6.507812 4.132812 6.457031 4.214844 C 6.40625 4.300781 6.40625 4.402344 6.457031 4.484375 C 6.507812 4.566406 6.605469 4.617188 6.707031 4.613281 L 7.84375 4.613281 L 9.105469 8.894531 L 0.59375 8.894531 C 0.265625 8.890625 0 9.140625 0 9.445312 C 0 9.75 0.265625 10 0.59375 10 L 9.40625 10 C 9.734375 10 10 9.75 10 9.445312 C 10 9.402344 9.992188 9.355469 9.980469 9.3125 Z M 9.980469 9.3125 "/>
</g>
</svg>
