<?xml version="1.0" encoding="UTF-8"?>
<svg xmlns="http://www.w3.org/2000/svg" xmlns:xlink="http://www.w3.org/1999/xlink" width="9px" height="10px" viewBox="0 0 9 10" version="1.1">
<g id="surface1">
<path style=" stroke:none;fill-rule:nonzero;fill:rgb(30%,30%,30%);fill-opacity:1;" d="M 4.160156 5.226562 C 4.160156 5.871094 3.59375 6.390625 2.894531 6.390625 C 2.195312 6.390625 1.628906 5.871094 1.628906 5.226562 C 1.628906 4.585938 2.195312 4.066406 2.894531 4.066406 C 3.59375 4.066406 4.160156 4.585938 4.160156 5.226562 Z M 4.160156 5.226562 "/>
<path style=" stroke:none;fill-rule:nonzero;fill:rgb(30%,30%,30%);fill-opacity:1;" d="M 8.816406 0.0195312 C 8.667969 -0.0351562 8.503906 0.03125 8.441406 0.164062 L 8.34375 0.386719 C 8.339844 0.390625 8.332031 0.398438 8.332031 0.402344 L 4.765625 8.460938 C 4.742188 8.515625 4.675781 8.542969 4.617188 8.523438 C 4.019531 8.328125 1.046875 7.429688 1.046875 7.429688 C 0.597656 7.292969 0.105469 7.546875 0.0273438 7.972656 C -0.0078125 8.179688 0.0078125 8.402344 0.0078125 8.65625 L 0.0078125 8.851562 C 0.0078125 9.480469 0.566406 9.992188 1.253906 9.992188 C 1.253906 9.992188 4.527344 10.007812 4.578125 9.992188 C 4.84375 9.988281 7.644531 3.445312 8.515625 1.398438 C 8.515625 1.398438 8.515625 1.394531 8.519531 1.394531 L 8.976562 0.363281 C 9.035156 0.226562 8.964844 0.0742188 8.816406 0.0195312 Z M 8.816406 0.0195312 "/>
</g>
</svg>
