<?xml version="1.0" encoding="UTF-8"?>
<svg xmlns="http://www.w3.org/2000/svg" xmlns:xlink="http://www.w3.org/1999/xlink" width="10px" height="11px" viewBox="0 0 10 11" version="1.1">
<g id="surface1">
<path style=" stroke:none;fill-rule:nonzero;fill:rgb(30%,30%,30%);fill-opacity:1;" d="M 6.5 11 L 6.148438 11 C 6.109375 10.984375 6.070312 10.957031 6.03125 10.949219 C 5.773438 10.90625 5.507812 10.890625 5.253906 10.824219 C 4.804688 10.703125 4.351562 10.578125 3.914062 10.414062 C 2.511719 9.882812 1.472656 8.992188 0.960938 7.578125 C 0.742188 6.972656 0.644531 6.351562 0.753906 5.707031 C 0.804688 5.421875 0.878906 5.140625 1.007812 4.875 C 1.023438 4.84375 1.011719 4.800781 1.015625 4.761719 C 0.976562 4.761719 0.9375 4.75 0.90625 4.761719 C 0.726562 4.839844 0.546875 4.925781 0.367188 5.003906 C 0.25 5.058594 0.125 5.101562 0.00390625 5.148438 L 0.00390625 5.125 C 0.015625 5.117188 0.0351562 5.109375 0.0429688 5.097656 C 0.21875 4.800781 0.371094 4.488281 0.578125 4.214844 C 1.160156 3.433594 1.925781 2.84375 2.75 2.324219 C 2.804688 2.289062 2.855469 2.253906 2.929688 2.203125 C 2.582031 2.125 2.273438 2.25 1.957031 2.242188 C 3.238281 1.082031 4.765625 0.804688 6.441406 1.070312 C 6.585938 0.734375 7.359375 0.078125 7.699219 0 C 7.660156 0.214844 7.558594 0.421875 7.605469 0.648438 L 8.074219 0.285156 C 8.074219 0.347656 8.078125 0.363281 8.074219 0.378906 C 7.960938 0.765625 7.996094 1.15625 8.050781 1.542969 C 8.070312 1.679688 8.074219 1.835938 8.152344 1.9375 C 8.710938 2.695312 9.105469 3.53125 9.382812 4.425781 C 9.4375 4.601562 9.515625 4.769531 9.621094 4.925781 C 9.769531 5.152344 9.910156 5.375 9.957031 5.648438 C 9.960938 5.675781 9.980469 5.703125 9.996094 5.734375 L 9.996094 5.878906 C 9.960938 5.996094 9.933594 6.121094 9.894531 6.238281 C 9.847656 6.378906 9.773438 6.507812 9.628906 6.574219 C 9.492188 6.640625 9.347656 6.695312 9.203125 6.738281 C 8.851562 6.835938 8.570312 6.742188 8.375 6.453125 C 8.304688 6.347656 8.273438 6.214844 8.21875 6.101562 C 8.199219 6.0625 8.160156 6.015625 8.125 6.007812 C 7.753906 5.933594 7.421875 5.777344 7.140625 5.539062 C 6.894531 5.332031 6.671875 5.09375 6.441406 4.867188 C 6.394531 4.820312 6.355469 4.773438 6.289062 4.703125 C 6.132812 4.847656 5.96875 4.96875 5.839844 5.121094 C 5.46875 5.5625 5.4375 6.078125 5.539062 6.613281 C 5.65625 7.222656 5.933594 7.769531 6.269531 8.289062 C 6.835938 9.152344 6.808594 10.066406 6.5 11 Z M 7.292969 3.242188 C 7.175781 3.242188 7.078125 3.339844 7.078125 3.460938 C 7.078125 3.578125 7.175781 3.675781 7.292969 3.675781 C 7.410156 3.675781 7.503906 3.578125 7.503906 3.460938 C 7.503906 3.339844 7.410156 3.242188 7.292969 3.242188 Z M 7.292969 3.242188 "/>
</g>
</svg>
