<?xml version="1.0" encoding="UTF-8"?>
<svg xmlns="http://www.w3.org/2000/svg" xmlns:xlink="http://www.w3.org/1999/xlink" width="10px" height="11px" viewBox="0 0 10 11" version="1.1">
<g id="surface1">
<path style=" stroke:none;fill-rule:nonzero;fill:rgb(30%,30%,30%);fill-opacity:1;" d="M 0 9.382812 L 2.496094 4.453125 C 2.496094 4.453125 3.4375 0.78125 5.070312 0.265625 C 6.703125 -0.25 8.074219 0.121094 8.402344 0.265625 C 8.734375 0.410156 9.742188 0.972656 9.839844 1.199219 C 9.980469 1.527344 10.253906 2.496094 9.460938 4.179688 C 8.378906 6.472656 6.84375 8.226562 6.84375 8.226562 L 4.453125 11 L 4.253906 10.484375 C 4.253906 10.484375 5.773438 8.90625 6.714844 7.648438 C 7.652344 6.390625 9.878906 2.847656 9.441406 1.714844 C 9.441406 1.714844 9.121094 0.835938 7.472656 1.980469 C 5.820312 3.121094 3.613281 5.167969 3.613281 5.167969 L 0.445312 10.46875 L 0.296875 10.097656 L 3.332031 4.976562 L 2.785156 4.605469 L 0.179688 9.804688 Z M 0 9.382812 "/>
<path style=" stroke:none;fill-rule:nonzero;fill:rgb(30%,30%,30%);fill-opacity:1;" d="M 5.691406 3.734375 C 5.691406 3.734375 8.5 1.34375 8.988281 1.753906 C 9.21875 1.945312 9.46875 2.398438 8.296875 4.605469 C 7.144531 6.773438 5.128906 9.113281 5.128906 9.113281 L 4.386719 8.613281 L 3.066406 10.773438 L 2.886719 10.402344 C 2.886719 10.402344 4.550781 7.746094 4.980469 6.683594 C 5.410156 5.617188 5.691406 3.734375 5.691406 3.734375 Z M 5.691406 3.734375 "/>
</g>
</svg>
