<?xml version="1.0" encoding="UTF-8" standalone="no"?>
<!-- Created with Inkscape (http://www.inkscape.org/) -->

<svg
   xmlns:dc="http://purl.org/dc/elements/1.1/"
   xmlns:cc="http://creativecommons.org/ns#"
   xmlns:rdf="http://www.w3.org/1999/02/22-rdf-syntax-ns#"
   xmlns:svg="http://www.w3.org/2000/svg"
   xmlns="http://www.w3.org/2000/svg"
   xmlns:xlink="http://www.w3.org/1999/xlink"
   xmlns:sodipodi="http://sodipodi.sourceforge.net/DTD/sodipodi-0.dtd"
   xmlns:inkscape="http://www.inkscape.org/namespaces/inkscape"
   width="30px"
   height="30px"
   version="1.1"
   id="svg8"
   inkscape:version="0.92.4 5da689c313, 2019-01-14"
   sodipodi:docname="container.svg">
  <defs
     id="defs2" />
  <sodipodi:namedview
     id="base"
     pagecolor="#ffffff"
     bordercolor="#666666"
     borderopacity="1.0"
     inkscape:pageopacity="0.0"
     inkscape:pageshadow="2"
     inkscape:zoom="13.049334"
     inkscape:cx="18.679046"
     inkscape:cy="12.165829"
     inkscape:document-units="px"
     inkscape:current-layer="layer1"
     showgrid="false"
     inkscape:snap-page="false"
     units="px"
     inkscape:window-width="1884"
     inkscape:window-height="1061"
     inkscape:window-x="0"
     inkscape:window-y="0"
     inkscape:window-maximized="1"
     fit-margin-top="0"
     fit-margin-left="0"
     fit-margin-right="0"
     fit-margin-bottom="0" />
  <metadata
     id="metadata5">
    <rdf:RDF>
      <cc:Work
         rdf:about="">
        <dc:format>image/svg+xml</dc:format>
        <dc:type
           rdf:resource="http://purl.org/dc/dcmitype/StillImage" />
        <dc:title></dc:title>
      </cc:Work>
    </rdf:RDF>
  </metadata>
    <circle
       style="color:#000000;clip-rule:nonzero;display:inline;overflow:visible;visibility:visible;opacity:1;isolation:auto;mix-blend-mode:normal;color-interpolation:sRGB;color-interpolation-filters:linearRGB;solid-color:#000000;solid-opacity:1;vector-effect:none;fill:#00A757;fill-opacity:1;fill-rule:evenodd;stroke:#ffffff;stroke-width:1;stroke-linecap:butt;stroke-linejoin:miter;stroke-miterlimit:4;stroke-dasharray:none;stroke-dashoffset:0;stroke-opacity:1;marker:none;color-rendering:auto;image-rendering:auto;shape-rendering:auto;text-rendering:auto;enable-background:accumulate"
       id="path815"
       cx="15"
       cy="15"
       r="14.5" />
<g transform="translate(6,7)"><g id="surface1">
<path style=" stroke:none;fill-rule:nonzero;fill:#FFFFFF;fill-opacity:1;" d="M 15.847656 5.660156 C 15.847656 6.882812 14.871094 7.878906 13.667969 7.878906 C 12.464844 7.878906 11.488281 6.882812 11.488281 5.660156 C 11.488281 4.433594 12.464844 3.441406 13.667969 3.441406 C 14.871094 3.441406 15.847656 4.433594 15.847656 5.660156 Z M 15.847656 5.660156 "/>
<path style=" stroke:none;fill-rule:nonzero;fill:#FFFFFF;fill-opacity:1;" d="M 4.394531 10.425781 C 4.398438 10.421875 4.40625 10.417969 4.410156 10.414062 C 4.417969 10.414062 4.421875 10.410156 4.429688 10.40625 C 4.679688 10.269531 4.886719 10.078125 5.113281 9.863281 C 5.359375 9.636719 5.636719 9.382812 6 9.183594 C 6.359375 8.96875 6.8125 8.808594 7.429688 8.808594 C 7.441406 8.808594 7.453125 8.808594 7.464844 8.808594 C 8.453125 8.816406 9.027344 9.304688 9.523438 9.753906 C 9.566406 9.792969 9.609375 9.832031 9.652344 9.867188 C 9.804688 10.003906 9.945312 10.128906 10.09375 10.234375 C 10.371094 10.433594 10.671875 10.558594 11.097656 10.550781 C 12.195312 10.527344 12.644531 9.941406 12.777344 9.714844 L 12.511719 9.34375 C 12.480469 9.257812 12.4375 9.179688 12.386719 9.109375 L 8.726562 3.839844 L 12.25 2.066406 C 12.75 1.808594 12.953125 1.082031 12.699219 0.570312 C 12.445312 0.0585938 11.824219 -0.148438 11.324219 0.113281 L 7.011719 2.28125 C 6.796875 2.402344 6.632812 2.464844 6.464844 2.585938 C 6.300781 2.703125 6.171875 2.863281 6.089844 3.046875 C 5.929688 3.339844 5.910156 3.707031 6.070312 4.027344 C 6.113281 4.121094 6.175781 4.199219 6.246094 4.273438 L 7.515625 6.101562 L 2.3125 9.957031 C 2.664062 10.300781 2.996094 10.550781 3.664062 10.550781 C 3.960938 10.550781 4.191406 10.503906 4.394531 10.425781 Z M 4.394531 10.425781 "/>
<path style=" stroke:none;fill-rule:nonzero;fill:#FFFFFF;fill-opacity:1;" d="M 16.949219 11.035156 C 16.441406 10.574219 15.863281 10.046875 14.835938 10.039062 C 14.828125 10.039062 14.816406 10.039062 14.804688 10.039062 C 13.800781 10.039062 13.234375 10.457031 12.800781 10.859375 C 12.800781 10.859375 12.621094 11.027344 12.613281 11.03125 C 12.40625 11.230469 12.214844 11.410156 11.988281 11.542969 C 11.742188 11.664062 11.421875 11.75 11.007812 11.761719 C 10.410156 11.773438 10.054688 11.515625 9.660156 11.164062 C 9.617188 11.125 9.578125 11.085938 9.539062 11.046875 C 9.214844 10.726562 8.835938 10.351562 8.222656 10.160156 C 7.976562 10.074219 7.699219 10.019531 7.375 10.015625 C 7.367188 10.015625 7.355469 10.015625 7.34375 10.015625 C 6.5 10.015625 5.964844 10.3125 5.554688 10.644531 C 5.390625 10.773438 5.242188 10.90625 5.105469 11.03125 C 4.984375 11.140625 4.871094 11.242188 4.753906 11.335938 L 4.769531 11.351562 C 4.46875 11.59375 4.132812 11.757812 3.574219 11.757812 C 2.816406 11.757812 2.488281 11.433594 2.078125 11.023438 C 1.636719 10.585938 1.09375 10.050781 0 10.019531 L 0 11.351562 C 0.652344 11.378906 0.949219 11.667969 1.347656 12.066406 C 1.808594 12.523438 2.378906 13.089844 3.574219 13.089844 C 4.792969 13.089844 5.386719 12.523438 5.867188 12.066406 C 5.976562 11.960938 6.074219 11.867188 6.175781 11.78125 C 6.484375 11.539062 6.816406 11.375 7.34375 11.371094 C 7.351562 11.371094 7.359375 11.371094 7.367188 11.371094 C 7.542969 11.371094 7.691406 11.386719 7.824219 11.421875 C 8.164062 11.53125 8.4375 11.761719 8.792969 12.082031 C 8.84375 12.128906 8.894531 12.175781 8.945312 12.222656 C 9.382812 12.648438 9.953125 13.113281 11.035156 13.113281 C 11.652344 13.113281 12.109375 12.96875 12.472656 12.765625 C 12.914062 12.546875 13.203125 12.265625 13.386719 12.03125 C 13.792969 11.644531 14.113281 11.371094 14.800781 11.371094 C 14.8125 11.371094 14.820312 11.371094 14.828125 11.371094 C 15.417969 11.375 15.753906 11.652344 16.253906 12.105469 C 16.46875 12.304688 16.710938 12.519531 17 12.703125 L 17 11.078125 C 16.984375 11.0625 16.96875 11.050781 16.949219 11.035156 Z M 16.949219 11.035156 "/>
<path style=" stroke:none;fill-rule:nonzero;fill:#FFFFFF;fill-opacity:1;" d="M 16.949219 13.921875 C 16.441406 13.460938 15.863281 12.9375 14.835938 12.925781 C 14.828125 12.925781 14.816406 12.925781 14.804688 12.925781 C 13.800781 12.925781 13.234375 13.34375 12.800781 13.746094 C 12.800781 13.746094 12.621094 13.914062 12.613281 13.917969 C 12.40625 14.117188 12.214844 14.296875 11.988281 14.429688 C 11.742188 14.550781 11.421875 14.636719 11.007812 14.648438 C 10.410156 14.660156 10.054688 14.402344 9.660156 14.050781 C 9.617188 14.011719 9.578125 13.972656 9.539062 13.933594 C 9.214844 13.613281 8.835938 13.238281 8.222656 13.046875 C 7.976562 12.960938 7.699219 12.90625 7.375 12.902344 C 7.367188 12.902344 7.355469 12.902344 7.34375 12.902344 C 6.5 12.902344 5.964844 13.199219 5.554688 13.535156 C 5.390625 13.660156 5.242188 13.792969 5.105469 13.917969 C 4.984375 14.027344 4.871094 14.128906 4.753906 14.222656 L 4.769531 14.238281 C 4.46875 14.480469 4.132812 14.648438 3.574219 14.648438 C 2.816406 14.648438 2.488281 14.320312 2.078125 13.910156 C 1.636719 13.472656 1.09375 12.9375 0 12.90625 L 0 14.238281 C 0.652344 14.265625 0.949219 14.554688 1.347656 14.953125 C 1.808594 15.410156 2.378906 15.976562 3.574219 15.976562 C 4.792969 15.976562 5.386719 15.410156 5.867188 14.953125 C 5.976562 14.851562 6.074219 14.753906 6.175781 14.667969 C 6.484375 14.425781 6.816406 14.261719 7.34375 14.257812 C 7.351562 14.257812 7.359375 14.257812 7.367188 14.257812 C 7.542969 14.257812 7.691406 14.273438 7.824219 14.308594 C 8.164062 14.417969 8.4375 14.648438 8.792969 14.972656 C 8.84375 15.015625 8.894531 15.0625 8.945312 15.109375 C 9.382812 15.535156 9.953125 16 11.035156 16 C 11.652344 16 12.109375 15.855469 12.472656 15.652344 C 12.914062 15.4375 13.203125 15.152344 13.386719 14.921875 C 13.792969 14.535156 14.113281 14.257812 14.800781 14.257812 C 14.8125 14.257812 14.820312 14.257812 14.828125 14.257812 C 15.417969 14.261719 15.753906 14.539062 16.253906 14.992188 C 16.46875 15.191406 16.710938 15.40625 17 15.589844 L 17 13.96875 C 16.984375 13.953125 16.96875 13.9375 16.949219 13.921875 Z M 16.949219 13.921875 "/>
</g>
</g>
</svg>
