<?xml version="1.0" encoding="UTF-8"?>
<svg xmlns="http://www.w3.org/2000/svg" xmlns:xlink="http://www.w3.org/1999/xlink" width="10px" height="9px" viewBox="0 0 10 9" version="1.1">
<g id="surface1">
<path style=" stroke:none;fill-rule:nonzero;fill:rgb(30%,30%,30%);fill-opacity:1;" d="M 3.898438 1.0625 C 3.898438 1.652344 3.449219 2.125 2.894531 2.125 C 2.335938 2.125 1.886719 1.652344 1.886719 1.0625 C 1.886719 0.476562 2.335938 0 2.894531 0 C 3.449219 0 3.898438 0.476562 3.898438 1.0625 Z M 3.898438 1.0625 "/>
<path style=" stroke:none;fill-rule:nonzero;fill:rgb(30%,30%,30%);fill-opacity:1;" d="M 8.195312 1.0625 C 8.195312 1.652344 7.746094 2.125 7.191406 2.125 C 6.632812 2.125 6.183594 1.652344 6.183594 1.0625 C 6.183594 0.476562 6.632812 0 7.191406 0 C 7.746094 0 8.195312 0.476562 8.195312 1.0625 Z M 8.195312 1.0625 "/>
<path style=" stroke:none;fill-rule:nonzero;fill:rgb(30%,30%,30%);fill-opacity:1;" d="M 10 3.375 L 10 3.296875 C 10 3.109375 9.855469 2.957031 9.675781 2.957031 L 0.324219 2.957031 C 0.144531 2.957031 0 3.109375 0 3.296875 L 0 3.375 C 0 3.5625 0.144531 3.714844 0.324219 3.714844 L 1.910156 3.714844 C 2.085938 3.714844 2.230469 3.867188 2.230469 4.054688 L 2.230469 5.792969 C 2.230469 5.84375 2.222656 5.894531 2.199219 5.941406 L 1.046875 8.511719 C 1 8.617188 1.003906 8.742188 1.0625 8.839844 C 1.125 8.941406 1.226562 9 1.335938 9 L 1.339844 9 C 1.464844 9 1.578125 8.925781 1.628906 8.804688 L 2.882812 6.015625 L 2.921875 6.015625 L 4.203125 8.808594 C 4.253906 8.925781 4.367188 9 4.492188 9 C 4.601562 9 4.707031 8.941406 4.765625 8.839844 C 4.824219 8.742188 4.832031 8.617188 4.78125 8.511719 L 3.667969 6.078125 C 3.648438 6.03125 3.636719 5.980469 3.636719 5.929688 L 3.636719 4.054688 C 3.636719 3.867188 3.78125 3.714844 3.957031 3.714844 L 6.136719 3.714844 C 6.316406 3.714844 6.460938 3.867188 6.460938 4.054688 L 6.460938 5.824219 C 6.460938 5.875 6.449219 5.925781 6.429688 5.972656 L 5.289062 8.511719 C 5.238281 8.617188 5.246094 8.742188 5.304688 8.839844 C 5.367188 8.941406 5.46875 9 5.578125 9 L 5.582031 9 C 5.707031 9 5.820312 8.925781 5.871094 8.804688 L 7.125 6.015625 L 7.171875 6.015625 L 8.445312 8.808594 C 8.496094 8.925781 8.609375 9 8.734375 9 C 8.84375 9 8.949219 8.941406 9.007812 8.839844 C 9.066406 8.742188 9.074219 8.617188 9.023438 8.511719 L 7.898438 6.035156 C 7.875 5.988281 7.863281 5.941406 7.863281 5.886719 L 7.863281 4.054688 C 7.863281 3.867188 8.007812 3.714844 8.1875 3.714844 L 9.675781 3.714844 C 9.855469 3.714844 10 3.5625 10 3.375 Z M 10 3.375 "/>
</g>
</svg>
