<?xml version="1.0" encoding="UTF-8"?>
<svg xmlns="http://www.w3.org/2000/svg" xmlns:xlink="http://www.w3.org/1999/xlink" width="7px" height="11px" viewBox="0 0 7 11" version="1.1">
<g id="surface1">
<path style=" stroke:none;fill-rule:nonzero;fill:rgb(30%,30%,30%);fill-opacity:1;" d="M 5.570312 0.136719 C 6.132812 0.324219 7 1.019531 7 1.964844 C 7 2.910156 6.828125 3.71875 4.101562 5.957031 C 3.898438 6.125 3.257812 6.78125 2.746094 7.515625 C 2.179688 8.335938 1.738281 9.238281 1.609375 9.476562 C 1.375 9.929688 1.375 10.09375 1.515625 10.410156 C 1.632812 10.6875 1.425781 10.972656 1.210938 10.996094 C 0.910156 11.03125 -0.109375 10.71875 0.0078125 10.402344 C 0.113281 10.125 0.476562 9.722656 1.089844 8.503906 C 1.4375 7.816406 1.726562 7.019531 1.871094 6.59375 C 2.21875 5.578125 2.171875 2.929688 2.367188 2.285156 C 2.5625 1.636719 2.910156 0.570312 3.960938 0.167969 C 4.902344 -0.191406 5.570312 0.136719 5.570312 0.136719 Z M 5.570312 0.136719 "/>
</g>
</svg>
