<?xml version="1.0" encoding="UTF-8" standalone="no"?>
<!-- Created with Inkscape (http://www.inkscape.org/) -->

<svg
   xmlns:dc="http://purl.org/dc/elements/1.1/"
   xmlns:cc="http://creativecommons.org/ns#"
   xmlns:rdf="http://www.w3.org/1999/02/22-rdf-syntax-ns#"
   xmlns:svg="http://www.w3.org/2000/svg"
   xmlns="http://www.w3.org/2000/svg"
   xmlns:xlink="http://www.w3.org/1999/xlink"
   xmlns:sodipodi="http://sodipodi.sourceforge.net/DTD/sodipodi-0.dtd"
   xmlns:inkscape="http://www.inkscape.org/namespaces/inkscape"
   width="30px"
   height="30px"
   version="1.1"
   id="svg8"
   inkscape:version="0.92.4 5da689c313, 2019-01-14"
   sodipodi:docname="container.svg">
  <defs
     id="defs2" />
  <sodipodi:namedview
     id="base"
     pagecolor="#ffffff"
     bordercolor="#666666"
     borderopacity="1.0"
     inkscape:pageopacity="0.0"
     inkscape:pageshadow="2"
     inkscape:zoom="13.049334"
     inkscape:cx="18.679046"
     inkscape:cy="12.165829"
     inkscape:document-units="px"
     inkscape:current-layer="layer1"
     showgrid="false"
     inkscape:snap-page="false"
     units="px"
     inkscape:window-width="1884"
     inkscape:window-height="1061"
     inkscape:window-x="0"
     inkscape:window-y="0"
     inkscape:window-maximized="1"
     fit-margin-top="0"
     fit-margin-left="0"
     fit-margin-right="0"
     fit-margin-bottom="0" />
  <metadata
     id="metadata5">
    <rdf:RDF>
      <cc:Work
         rdf:about="">
        <dc:format>image/svg+xml</dc:format>
        <dc:type
           rdf:resource="http://purl.org/dc/dcmitype/StillImage" />
        <dc:title></dc:title>
      </cc:Work>
    </rdf:RDF>
  </metadata>
    <circle
       style="color:#000000;clip-rule:nonzero;display:inline;overflow:visible;visibility:visible;opacity:1;isolation:auto;mix-blend-mode:normal;color-interpolation:sRGB;color-interpolation-filters:linearRGB;solid-color:#000000;solid-opacity:1;vector-effect:none;fill:#ffffff;fill-opacity:1;fill-rule:evenodd;stroke:#00a19a;stroke-width:1;stroke-linecap:butt;stroke-linejoin:miter;stroke-miterlimit:4;stroke-dasharray:none;stroke-dashoffset:0;stroke-opacity:1;marker:none;color-rendering:auto;image-rendering:auto;shape-rendering:auto;text-rendering:auto;enable-background:accumulate"
       id="path815"
       cx="15"
       cy="15"
       r="14.5" />
<g transform="translate(7,7)"><g id="surface1">
<path style=" stroke:none;fill-rule:nonzero;fill:rgb(30%,30%,30%);fill-opacity:1;" d="M 9.75 16 L 9.222656 16 C 9.164062 15.972656 9.105469 15.9375 9.042969 15.925781 C 8.65625 15.863281 8.261719 15.84375 7.882812 15.746094 C 7.207031 15.570312 6.527344 15.386719 5.871094 15.148438 C 3.769531 14.378906 2.210938 13.078125 1.445312 11.023438 C 1.113281 10.140625 0.96875 9.238281 1.132812 8.304688 C 1.203125 7.886719 1.316406 7.476562 1.511719 7.089844 C 1.535156 7.046875 1.519531 6.984375 1.519531 6.925781 C 1.46875 6.925781 1.40625 6.910156 1.359375 6.925781 C 1.089844 7.039062 0.820312 7.164062 0.550781 7.28125 C 0.371094 7.355469 0.1875 7.421875 0.0078125 7.492188 L 0.0078125 7.457031 C 0.0234375 7.441406 0.0507812 7.429688 0.0625 7.414062 C 0.328125 6.984375 0.554688 6.527344 0.863281 6.128906 C 1.742188 4.996094 2.886719 4.136719 4.125 3.382812 C 4.203125 3.332031 4.28125 3.28125 4.394531 3.207031 C 3.871094 3.09375 3.410156 3.273438 2.933594 3.261719 C 4.855469 1.574219 7.148438 1.171875 9.660156 1.558594 C 9.882812 1.070312 11.039062 0.113281 11.550781 0 C 11.488281 0.3125 11.335938 0.613281 11.40625 0.941406 L 12.109375 0.417969 C 12.109375 0.503906 12.117188 0.527344 12.109375 0.550781 C 11.945312 1.113281 11.996094 1.679688 12.074219 2.246094 C 12.105469 2.441406 12.113281 2.667969 12.226562 2.816406 C 13.070312 3.921875 13.660156 5.136719 14.070312 6.4375 C 14.152344 6.695312 14.273438 6.941406 14.429688 7.164062 C 14.65625 7.492188 14.867188 7.820312 14.933594 8.214844 C 14.941406 8.257812 14.972656 8.296875 14.992188 8.339844 L 14.992188 8.550781 C 14.945312 8.722656 14.902344 8.902344 14.84375 9.070312 C 14.769531 9.277344 14.65625 9.464844 14.445312 9.5625 C 14.238281 9.660156 14.023438 9.738281 13.800781 9.800781 C 13.28125 9.941406 12.859375 9.804688 12.5625 9.386719 C 12.453125 9.234375 12.410156 9.042969 12.328125 8.871094 C 12.300781 8.816406 12.242188 8.75 12.1875 8.738281 C 11.632812 8.628906 11.132812 8.402344 10.710938 8.058594 C 10.339844 7.753906 10.007812 7.40625 9.664062 7.078125 C 9.59375 7.011719 9.53125 6.941406 9.433594 6.84375 C 9.199219 7.050781 8.953125 7.226562 8.761719 7.445312 C 8.207031 8.089844 8.15625 8.84375 8.3125 9.621094 C 8.484375 10.503906 8.898438 11.300781 9.40625 12.054688 C 10.253906 13.3125 10.210938 14.640625 9.75 16 Z M 10.9375 4.71875 C 10.761719 4.71875 10.617188 4.859375 10.617188 5.03125 C 10.617188 5.203125 10.761719 5.34375 10.9375 5.34375 C 11.113281 5.34375 11.257812 5.203125 11.257812 5.03125 C 11.257812 4.859375 11.113281 4.71875 10.9375 4.71875 Z M 10.9375 4.71875 "/>
</g>
</g>
</svg>
