<?xml version="1.0" encoding="UTF-8" standalone="no"?>
<!-- Created with Inkscape (http://www.inkscape.org/) -->

<svg
   xmlns:dc="http://purl.org/dc/elements/1.1/"
   xmlns:cc="http://creativecommons.org/ns#"
   xmlns:rdf="http://www.w3.org/1999/02/22-rdf-syntax-ns#"
   xmlns:svg="http://www.w3.org/2000/svg"
   xmlns="http://www.w3.org/2000/svg"
   xmlns:xlink="http://www.w3.org/1999/xlink"
   xmlns:sodipodi="http://sodipodi.sourceforge.net/DTD/sodipodi-0.dtd"
   xmlns:inkscape="http://www.inkscape.org/namespaces/inkscape"
   width="30px"
   height="30px"
   version="1.1"
   id="svg8"
   inkscape:version="0.92.4 5da689c313, 2019-01-14"
   sodipodi:docname="container.svg">
  <defs
     id="defs2" />
  <sodipodi:namedview
     id="base"
     pagecolor="#ffffff"
     bordercolor="#666666"
     borderopacity="1.0"
     inkscape:pageopacity="0.0"
     inkscape:pageshadow="2"
     inkscape:zoom="13.049334"
     inkscape:cx="18.679046"
     inkscape:cy="12.165829"
     inkscape:document-units="px"
     inkscape:current-layer="layer1"
     showgrid="false"
     inkscape:snap-page="false"
     units="px"
     inkscape:window-width="1884"
     inkscape:window-height="1061"
     inkscape:window-x="0"
     inkscape:window-y="0"
     inkscape:window-maximized="1"
     fit-margin-top="0"
     fit-margin-left="0"
     fit-margin-right="0"
     fit-margin-bottom="0" />
  <metadata
     id="metadata5">
    <rdf:RDF>
      <cc:Work
         rdf:about="">
        <dc:format>image/svg+xml</dc:format>
        <dc:type
           rdf:resource="http://purl.org/dc/dcmitype/StillImage" />
        <dc:title></dc:title>
      </cc:Work>
    </rdf:RDF>
  </metadata>
    <circle
       style="color:#000000;clip-rule:nonzero;display:inline;overflow:visible;visibility:visible;opacity:1;isolation:auto;mix-blend-mode:normal;color-interpolation:sRGB;color-interpolation-filters:linearRGB;solid-color:#000000;solid-opacity:1;vector-effect:none;fill:#00a19a;fill-opacity:1;fill-rule:evenodd;stroke:#ffffff;stroke-width:1;stroke-linecap:butt;stroke-linejoin:miter;stroke-miterlimit:4;stroke-dasharray:none;stroke-dashoffset:0;stroke-opacity:1;marker:none;color-rendering:auto;image-rendering:auto;shape-rendering:auto;text-rendering:auto;enable-background:accumulate"
       id="path815"
       cx="15"
       cy="15"
       r="14.5" />
<g transform="translate(6,7)"><g id="surface1">
<path style=" stroke:none;fill-rule:nonzero;fill:#FFFFFF;fill-opacity:1;" d="M 3.546875 15.992188 C 2.257812 15.992188 1.242188 15.738281 0.757812 15.28125 C 0.273438 14.824219 0 13.871094 0 12.652344 C 0 12.046875 0.0664062 11.375 0.210938 10.667969 C 1.003906 11.203125 1.929688 11.90625 2.84375 12.761719 C 4.003906 13.851562 4.898438 14.976562 5.5 15.824219 C 4.855469 15.933594 4.203125 15.988281 3.546875 15.992188 Z M 4.632812 11.078125 C 3.269531 9.800781 1.867188 8.867188 0.9375 8.3125 C 1.589844 6.746094 2.59375 5.15625 4.035156 3.796875 C 5.40625 2.507812 7.003906 1.585938 8.585938 0.976562 C 9.511719 1.519531 10.964844 2.476562 12.371094 3.796875 C 14.359375 5.671875 15.570312 7.628906 15.867188 8.144531 C 15.21875 9.5625 14.273438 10.976562 12.964844 12.203125 C 11.46875 13.613281 9.707031 14.574219 7.980469 15.183594 C 7.523438 14.441406 6.378906 12.726562 4.632812 11.078125 Z M 5.734375 8.171875 C 5.945312 8.171875 6.136719 8.050781 6.21875 7.867188 C 6.300781 7.683594 6.253906 7.46875 6.105469 7.328125 L 5.453125 6.714844 L 6.207031 6.003906 L 6.859375 6.617188 C 7.0625 6.808594 7.394531 6.808594 7.597656 6.617188 C 7.800781 6.425781 7.800781 6.113281 7.597656 5.921875 L 6.945312 5.304688 L 7.699219 4.59375 L 8.351562 5.207031 C 8.554688 5.402344 8.886719 5.402344 9.089844 5.207031 C 9.296875 5.015625 9.296875 4.703125 9.089844 4.511719 L 8.4375 3.894531 L 8.882812 3.480469 C 9.085938 3.285156 9.085938 2.972656 8.882812 2.78125 C 8.675781 2.589844 8.347656 2.589844 8.140625 2.78125 L 7.699219 3.199219 L 7.046875 2.582031 C 6.84375 2.390625 6.511719 2.390625 6.304688 2.582031 C 6.101562 2.773438 6.101562 3.085938 6.304688 3.277344 L 6.960938 3.894531 L 6.207031 4.605469 L 5.554688 3.988281 C 5.347656 3.796875 5.015625 3.796875 4.8125 3.988281 C 4.609375 4.183594 4.609375 4.496094 4.8125 4.6875 L 5.46875 5.304688 L 4.714844 6.015625 L 4.058594 5.398438 C 3.855469 5.207031 3.523438 5.207031 3.320312 5.398438 C 3.117188 5.589844 3.117188 5.902344 3.320312 6.097656 L 3.972656 6.714844 L 3.566406 7.097656 C 3.363281 7.292969 3.363281 7.605469 3.566406 7.796875 C 3.769531 7.988281 4.101562 7.988281 4.304688 7.796875 L 4.714844 7.410156 L 5.367188 8.027344 C 5.464844 8.117188 5.597656 8.171875 5.734375 8.171875 Z M 14.160156 2.117188 C 13.316406 1.324219 12.453125 0.664062 11.699219 0.144531 C 12.277344 0.0546875 12.859375 0.0078125 13.445312 0.0078125 C 14.742188 0.0078125 15.757812 0.261719 16.242188 0.71875 C 16.730469 1.175781 17 2.128906 17 3.347656 C 16.996094 3.960938 16.9375 4.578125 16.820312 5.183594 C 16.214844 4.335938 15.320312 3.210938 14.160156 2.117188 Z M 14.160156 2.117188 "/>
</g>
</g>
</svg>
