<?xml version="1.0" encoding="UTF-8" standalone="no"?>
<!-- Created with Inkscape (http://www.inkscape.org/) -->

<svg
   xmlns:dc="http://purl.org/dc/elements/1.1/"
   xmlns:cc="http://creativecommons.org/ns#"
   xmlns:rdf="http://www.w3.org/1999/02/22-rdf-syntax-ns#"
   xmlns:svg="http://www.w3.org/2000/svg"
   xmlns="http://www.w3.org/2000/svg"
   xmlns:xlink="http://www.w3.org/1999/xlink"
   xmlns:sodipodi="http://sodipodi.sourceforge.net/DTD/sodipodi-0.dtd"
   xmlns:inkscape="http://www.inkscape.org/namespaces/inkscape"
   width="30px"
   height="30px"
   version="1.1"
   id="svg8"
   inkscape:version="0.92.4 5da689c313, 2019-01-14"
   sodipodi:docname="container.svg">
  <defs
     id="defs2" />
  <sodipodi:namedview
     id="base"
     pagecolor="#ffffff"
     bordercolor="#666666"
     borderopacity="1.0"
     inkscape:pageopacity="0.0"
     inkscape:pageshadow="2"
     inkscape:zoom="13.049334"
     inkscape:cx="18.679046"
     inkscape:cy="12.165829"
     inkscape:document-units="px"
     inkscape:current-layer="layer1"
     showgrid="false"
     inkscape:snap-page="false"
     units="px"
     inkscape:window-width="1884"
     inkscape:window-height="1061"
     inkscape:window-x="0"
     inkscape:window-y="0"
     inkscape:window-maximized="1"
     fit-margin-top="0"
     fit-margin-left="0"
     fit-margin-right="0"
     fit-margin-bottom="0" />
  <metadata
     id="metadata5">
    <rdf:RDF>
      <cc:Work
         rdf:about="">
        <dc:format>image/svg+xml</dc:format>
        <dc:type
           rdf:resource="http://purl.org/dc/dcmitype/StillImage" />
        <dc:title></dc:title>
      </cc:Work>
    </rdf:RDF>
  </metadata>
    <circle
       style="color:#000000;clip-rule:nonzero;display:inline;overflow:visible;visibility:visible;opacity:1;isolation:auto;mix-blend-mode:normal;color-interpolation:sRGB;color-interpolation-filters:linearRGB;solid-color:#000000;solid-opacity:1;vector-effect:none;fill:#ffffff;fill-opacity:1;fill-rule:evenodd;stroke:#00a19a;stroke-width:1;stroke-linecap:butt;stroke-linejoin:miter;stroke-miterlimit:4;stroke-dasharray:none;stroke-dashoffset:0;stroke-opacity:1;marker:none;color-rendering:auto;image-rendering:auto;shape-rendering:auto;text-rendering:auto;enable-background:accumulate"
       id="path815"
       cx="15"
       cy="15"
       r="14.5" />
<g transform="translate(8,6)"><g id="surface1">
<path style=" stroke:none;fill-rule:nonzero;fill:rgb(30%,30%,30%);fill-opacity:1;" d="M 13.339844 8.617188 C 13.339844 9.476562 12.621094 10.171875 11.738281 10.171875 C 10.851562 10.171875 10.132812 9.476562 10.132812 8.617188 C 10.132812 7.761719 10.851562 7.066406 11.738281 7.066406 C 12.621094 7.066406 13.339844 7.761719 13.339844 8.617188 Z M 0.328125 1.554688 C 0.875 2.902344 2.191406 4.507812 2.632812 4.847656 C 3.984375 5.882812 5.039062 6.085938 5.601562 6.464844 C 6.230469 6.890625 7.824219 8.046875 7.824219 8.046875 C 7.824219 8.046875 7.964844 9.460938 8.417969 10.222656 C 8.867188 10.984375 10.933594 13.355469 11.527344 12.671875 C 12.117188 11.992188 10.695312 11.695312 9.765625 10.277344 C 9.128906 9.300781 9.105469 8.332031 9.105469 8.332031 C 9.105469 8.332031 9.675781 7.984375 9.832031 7.710938 C 9.984375 7.441406 9.921875 7.132812 9.613281 6.574219 C 9.015625 5.5 6.953125 4.328125 6.222656 4.058594 C 5.488281 3.785156 4.757812 4.34375 4.421875 4.179688 C 4.082031 4.015625 3.058594 3.140625 2.734375 2.695312 C 2.183594 1.949219 1.636719 0.640625 1.234375 0.289062 C 0.347656 -0.480469 -0.0664062 0.410156 0.328125 1.554688 Z M 12.785156 14.0625 C 12.558594 14.054688 12.335938 13.917969 12.082031 13.761719 C 11.703125 13.53125 11.273438 13.265625 10.691406 13.328125 C 10.3125 13.367188 10.039062 13.550781 9.773438 13.722656 C 9.480469 13.917969 9.199219 14.101562 8.753906 14.089844 C 8.507812 14.082031 8.269531 13.949219 7.996094 13.792969 C 7.585938 13.566406 7.125 13.304688 6.488281 13.355469 C 6.121094 13.382812 5.835938 13.550781 5.554688 13.714844 C 5.246094 13.894531 4.953125 14.066406 4.535156 14.066406 C 4.28125 14.066406 4.03125 13.925781 3.738281 13.761719 C 3.367188 13.558594 2.949219 13.324219 2.445312 13.355469 C 2.078125 13.378906 1.726562 13.5625 1.386719 13.742188 C 1.066406 13.910156 0.761719 14.066406 0.488281 14.066406 C 0.328125 14.066406 0.167969 14.035156 0.015625 13.984375 L 0.0195312 14.84375 C 0.171875 14.886719 0.332031 14.90625 0.488281 14.90625 C 0.871094 14.90625 1.242188 14.714844 1.597656 14.527344 C 1.90625 14.367188 2.199219 14.210938 2.472656 14.195312 C 2.847656 14.171875 3.171875 14.351562 3.515625 14.542969 C 3.835938 14.722656 4.167969 14.90625 4.535156 14.90625 C 5.074219 14.90625 5.453125 14.683594 5.789062 14.488281 C 6.042969 14.339844 6.261719 14.214844 6.523438 14.195312 C 7.023438 14.15625 7.402344 14.367188 7.769531 14.574219 C 8.074219 14.746094 8.386719 14.921875 8.742188 14.929688 C 8.761719 14.929688 8.777344 14.929688 8.796875 14.929688 C 9.351562 14.929688 9.714844 14.695312 10.03125 14.484375 C 10.269531 14.328125 10.472656 14.195312 10.738281 14.167969 C 11.167969 14.121094 11.492188 14.320312 11.839844 14.53125 C 12.125 14.707031 12.425781 14.890625 12.769531 14.902344 C 12.792969 14.90625 12.8125 14.90625 12.835938 14.90625 C 13.300781 14.90625 13.71875 14.726562 14 14.570312 L 14 13.648438 C 13.847656 13.757812 13.347656 14.085938 12.785156 14.0625 Z M 12.769531 16.132812 C 12.542969 16.125 12.324219 15.988281 12.066406 15.832031 C 11.6875 15.597656 11.257812 15.335938 10.679688 15.398438 C 10.300781 15.4375 10.027344 15.617188 9.761719 15.792969 C 9.464844 15.988281 9.1875 16.171875 8.738281 16.160156 C 8.496094 16.152344 8.257812 16.019531 7.980469 15.863281 C 7.574219 15.632812 7.109375 15.375 6.472656 15.421875 C 6.109375 15.453125 5.820312 15.621094 5.539062 15.785156 C 5.230469 15.964844 4.941406 16.136719 4.523438 16.136719 C 4.269531 16.136719 4.015625 15.996094 3.722656 15.832031 C 3.355469 15.625 2.9375 15.394531 2.429688 15.425781 C 2.0625 15.449219 1.710938 15.632812 1.371094 15.808594 C 1.050781 15.976562 0.746094 16.136719 0.476562 16.136719 C 0.3125 16.132812 0.152344 16.105469 0 16.050781 L 0.0078125 16.914062 C 0.160156 16.953125 0.316406 16.976562 0.476562 16.976562 C 0.855469 16.976562 1.226562 16.785156 1.582031 16.597656 C 1.894531 16.433594 2.183594 16.28125 2.457031 16.265625 C 2.832031 16.242188 3.15625 16.421875 3.5 16.613281 C 3.820312 16.792969 4.152344 16.976562 4.523438 16.976562 C 5.0625 16.976562 5.441406 16.753906 5.773438 16.558594 C 6.027344 16.410156 6.246094 16.28125 6.507812 16.261719 C 7.007812 16.222656 7.390625 16.4375 7.753906 16.644531 C 8.058594 16.8125 8.371094 16.988281 8.726562 17 C 8.746094 17 8.765625 17 8.78125 17 C 9.339844 17 9.699219 16.761719 10.019531 16.550781 C 10.253906 16.398438 10.457031 16.261719 10.726562 16.234375 C 11.152344 16.191406 11.480469 16.390625 11.824219 16.601562 C 12.113281 16.777344 12.410156 16.960938 12.753906 16.972656 C 12.777344 16.972656 12.800781 16.972656 12.824219 16.972656 C 13.289062 16.972656 13.707031 16.796875 13.984375 16.640625 L 13.984375 15.714844 C 13.835938 15.824219 13.332031 16.152344 12.769531 16.132812 Z M 12.769531 16.132812 "/>
</g>
</g>
</svg>
