<?xml version="1.0" encoding="UTF-8" standalone="no"?>
<!-- Created with Inkscape (http://www.inkscape.org/) -->

<svg
   xmlns:dc="http://purl.org/dc/elements/1.1/"
   xmlns:cc="http://creativecommons.org/ns#"
   xmlns:rdf="http://www.w3.org/1999/02/22-rdf-syntax-ns#"
   xmlns:svg="http://www.w3.org/2000/svg"
   xmlns="http://www.w3.org/2000/svg"
   xmlns:xlink="http://www.w3.org/1999/xlink"
   xmlns:sodipodi="http://sodipodi.sourceforge.net/DTD/sodipodi-0.dtd"
   xmlns:inkscape="http://www.inkscape.org/namespaces/inkscape"
   width="30px"
   height="30px"
   version="1.1"
   id="svg8"
   inkscape:version="0.92.4 5da689c313, 2019-01-14"
   sodipodi:docname="container.svg">
  <defs
     id="defs2" />
  <sodipodi:namedview
     id="base"
     pagecolor="#ffffff"
     bordercolor="#666666"
     borderopacity="1.0"
     inkscape:pageopacity="0.0"
     inkscape:pageshadow="2"
     inkscape:zoom="13.049334"
     inkscape:cx="18.679046"
     inkscape:cy="12.165829"
     inkscape:document-units="px"
     inkscape:current-layer="layer1"
     showgrid="false"
     inkscape:snap-page="false"
     units="px"
     inkscape:window-width="1884"
     inkscape:window-height="1061"
     inkscape:window-x="0"
     inkscape:window-y="0"
     inkscape:window-maximized="1"
     fit-margin-top="0"
     fit-margin-left="0"
     fit-margin-right="0"
     fit-margin-bottom="0" />
  <metadata
     id="metadata5">
    <rdf:RDF>
      <cc:Work
         rdf:about="">
        <dc:format>image/svg+xml</dc:format>
        <dc:type
           rdf:resource="http://purl.org/dc/dcmitype/StillImage" />
        <dc:title></dc:title>
      </cc:Work>
    </rdf:RDF>
  </metadata>
    <circle
       style="color:#000000;clip-rule:nonzero;display:inline;overflow:visible;visibility:visible;opacity:1;isolation:auto;mix-blend-mode:normal;color-interpolation:sRGB;color-interpolation-filters:linearRGB;solid-color:#000000;solid-opacity:1;vector-effect:none;fill:#00A757;fill-opacity:1;fill-rule:evenodd;stroke:#ffffff;stroke-width:1;stroke-linecap:butt;stroke-linejoin:miter;stroke-miterlimit:4;stroke-dasharray:none;stroke-dashoffset:0;stroke-opacity:1;marker:none;color-rendering:auto;image-rendering:auto;shape-rendering:auto;text-rendering:auto;enable-background:accumulate"
       id="path815"
       cx="15"
       cy="15"
       r="14.5" />
<g transform="translate(8,6)"><g id="surface1">
<path style=" stroke:none;fill-rule:nonzero;fill:#FFFFFF;fill-opacity:1;" d="M 13.457031 15.871094 L 8.640625 14.136719 L 13.605469 12.410156 C 13.914062 12.300781 14.074219 11.96875 13.964844 11.667969 C 13.855469 11.363281 13.519531 11.207031 13.210938 11.3125 L 6.894531 13.511719 L 0.796875 11.316406 C 0.488281 11.207031 0.148438 11.359375 0.0351562 11.660156 C -0.078125 11.964844 0.0820312 12.296875 0.386719 12.40625 L 5.144531 14.117188 L 0.433594 15.757812 C 0.125 15.863281 -0.0351562 16.195312 0.0742188 16.5 C 0.183594 16.800781 0.519531 16.960938 0.828125 16.851562 L 6.886719 14.746094 L 13.050781 16.960938 C 13.359375 17.074219 13.699219 16.917969 13.8125 16.617188 C 13.925781 16.316406 13.765625 15.980469 13.457031 15.871094 Z M 13.457031 15.871094 "/>
<path style=" stroke:none;fill-rule:nonzero;fill:#FFFFFF;fill-opacity:1;" d="M 5.34375 11.90625 C 5.050781 12.195312 -1.34375 10.265625 2.835938 4.519531 C 2.835938 4.519531 3.671875 6.980469 4.925781 6.980469 C 5.34375 6.980469 2.628906 3.902344 7.851562 0.00390625 C 8.085938 -0.171875 7.160156 5.820312 9.523438 6.980469 C 10.359375 7.390625 9.523438 4.109375 9.523438 4.109375 C 9.523438 4.109375 12.867188 6.160156 12.03125 8.621094 C 11.195312 11.085938 8.6875 11.90625 8.6875 11.90625 C 8.6875 11.90625 9.34375 9.179688 8.6875 8.210938 C 7.851562 6.980469 6.808594 6.367188 6.808594 6.367188 C 6.808594 6.367188 7.015625 8.621094 5.761719 9.03125 C 4.507812 9.445312 3.671875 7.800781 3.671875 7.800781 C 3.464844 9.238281 5.554688 11.699219 5.34375 11.90625 Z M 5.34375 11.90625 "/>
</g>
</g>
</svg>
