<?xml version="1.0" encoding="UTF-8"?>
<svg xmlns="http://www.w3.org/2000/svg" xmlns:xlink="http://www.w3.org/1999/xlink" width="11px" height="10px" viewBox="0 0 11 10" version="1.1">
<g id="surface1">
<path style=" stroke:none;fill-rule:nonzero;fill:rgb(30%,30%,30%);fill-opacity:1;" d="M 2.296875 9.996094 C 1.460938 9.996094 0.804688 9.835938 0.492188 9.550781 C 0.175781 9.265625 0 8.667969 0 7.910156 C 0 7.53125 0.0429688 7.109375 0.136719 6.667969 C 0.648438 7.003906 1.25 7.441406 1.839844 7.976562 C 2.589844 8.65625 3.167969 9.359375 3.558594 9.890625 C 3.140625 9.957031 2.71875 9.992188 2.296875 9.996094 Z M 2.996094 6.925781 C 2.117188 6.125 1.207031 5.542969 0.605469 5.195312 C 1.027344 4.21875 1.675781 3.222656 2.609375 2.375 C 3.5 1.566406 4.53125 0.992188 5.554688 0.609375 C 6.15625 0.949219 7.09375 1.546875 8.003906 2.375 C 9.292969 3.542969 10.074219 4.769531 10.265625 5.089844 C 9.847656 5.976562 9.234375 6.859375 8.390625 7.625 C 7.421875 8.507812 6.28125 9.109375 5.164062 9.488281 C 4.867188 9.027344 4.128906 7.953125 2.996094 6.925781 Z M 3.710938 5.105469 C 3.847656 5.105469 3.972656 5.03125 4.023438 4.917969 C 4.074219 4.800781 4.046875 4.667969 3.949219 4.582031 L 3.527344 4.195312 L 4.015625 3.75 L 4.4375 4.136719 C 4.570312 4.257812 4.785156 4.257812 4.917969 4.136719 C 5.046875 4.015625 5.046875 3.820312 4.917969 3.699219 L 4.496094 3.316406 L 4.980469 2.871094 L 5.40625 3.253906 C 5.535156 3.375 5.75 3.375 5.882812 3.253906 C 6.015625 3.136719 6.015625 2.941406 5.882812 2.820312 L 5.460938 2.433594 L 5.746094 2.175781 C 5.878906 2.054688 5.878906 1.859375 5.746094 1.738281 C 5.613281 1.617188 5.402344 1.617188 5.269531 1.738281 L 4.980469 2 L 4.558594 1.613281 C 4.425781 1.492188 4.210938 1.492188 4.082031 1.613281 C 3.949219 1.734375 3.949219 1.929688 4.082031 2.050781 L 4.503906 2.433594 L 4.015625 2.878906 L 3.59375 2.492188 C 3.460938 2.375 3.246094 2.375 3.113281 2.492188 C 2.980469 2.613281 2.980469 2.808594 3.113281 2.929688 L 3.539062 3.316406 L 3.050781 3.761719 L 2.625 3.375 C 2.496094 3.253906 2.28125 3.253906 2.148438 3.375 C 2.015625 3.496094 2.015625 3.691406 2.148438 3.808594 L 2.570312 4.195312 L 2.308594 4.4375 C 2.175781 4.558594 2.175781 4.753906 2.308594 4.871094 C 2.441406 4.992188 2.652344 4.992188 2.785156 4.871094 L 3.050781 4.632812 L 3.472656 5.015625 C 3.535156 5.074219 3.621094 5.105469 3.710938 5.105469 Z M 9.164062 1.324219 C 8.617188 0.828125 8.058594 0.414062 7.570312 0.0898438 C 7.945312 0.0351562 8.320312 0.00390625 8.699219 0.00390625 C 9.539062 0.00390625 10.195312 0.164062 10.507812 0.449219 C 10.824219 0.734375 11 1.332031 11 2.089844 C 10.996094 2.476562 10.957031 2.859375 10.882812 3.238281 C 10.492188 2.710938 9.914062 2.007812 9.164062 1.324219 Z M 9.164062 1.324219 "/>
</g>
</svg>
