<?xml version="1.0" encoding="UTF-8" standalone="no"?>
<!-- Created with Inkscape (http://www.inkscape.org/) -->

<svg
   xmlns:dc="http://purl.org/dc/elements/1.1/"
   xmlns:cc="http://creativecommons.org/ns#"
   xmlns:rdf="http://www.w3.org/1999/02/22-rdf-syntax-ns#"
   xmlns:svg="http://www.w3.org/2000/svg"
   xmlns="http://www.w3.org/2000/svg"
   xmlns:xlink="http://www.w3.org/1999/xlink"
   xmlns:sodipodi="http://sodipodi.sourceforge.net/DTD/sodipodi-0.dtd"
   xmlns:inkscape="http://www.inkscape.org/namespaces/inkscape"
   width="30px"
   height="30px"
   version="1.1"
   id="svg8"
   inkscape:version="0.92.4 5da689c313, 2019-01-14"
   sodipodi:docname="container.svg">
  <defs
     id="defs2" />
  <sodipodi:namedview
     id="base"
     pagecolor="#ffffff"
     bordercolor="#666666"
     borderopacity="1.0"
     inkscape:pageopacity="0.0"
     inkscape:pageshadow="2"
     inkscape:zoom="13.049334"
     inkscape:cx="18.679046"
     inkscape:cy="12.165829"
     inkscape:document-units="px"
     inkscape:current-layer="layer1"
     showgrid="false"
     inkscape:snap-page="false"
     units="px"
     inkscape:window-width="1884"
     inkscape:window-height="1061"
     inkscape:window-x="0"
     inkscape:window-y="0"
     inkscape:window-maximized="1"
     fit-margin-top="0"
     fit-margin-left="0"
     fit-margin-right="0"
     fit-margin-bottom="0" />
  <metadata
     id="metadata5">
    <rdf:RDF>
      <cc:Work
         rdf:about="">
        <dc:format>image/svg+xml</dc:format>
        <dc:type
           rdf:resource="http://purl.org/dc/dcmitype/StillImage" />
        <dc:title></dc:title>
      </cc:Work>
    </rdf:RDF>
  </metadata>
    <circle
       style="color:#000000;clip-rule:nonzero;display:inline;overflow:visible;visibility:visible;opacity:1;isolation:auto;mix-blend-mode:normal;color-interpolation:sRGB;color-interpolation-filters:linearRGB;solid-color:#000000;solid-opacity:1;vector-effect:none;fill:#00A757;fill-opacity:1;fill-rule:evenodd;stroke:#ffffff;stroke-width:1;stroke-linecap:butt;stroke-linejoin:miter;stroke-miterlimit:4;stroke-dasharray:none;stroke-dashoffset:0;stroke-opacity:1;marker:none;color-rendering:auto;image-rendering:auto;shape-rendering:auto;text-rendering:auto;enable-background:accumulate"
       id="path815"
       cx="15"
       cy="15"
       r="14.5" />
<g transform="translate(7,7)"><g id="surface1">
<path style=" stroke:none;fill-rule:nonzero;fill:#FFFFFF;fill-opacity:1;" d="M 0 13.648438 L 3.746094 6.476562 C 3.746094 6.476562 5.15625 1.136719 7.605469 0.386719 C 10.054688 -0.363281 12.109375 0.175781 12.605469 0.386719 C 13.101562 0.597656 14.613281 1.417969 14.757812 1.746094 C 14.96875 2.222656 15.378906 3.632812 14.1875 6.078125 C 12.570312 9.414062 10.265625 11.96875 10.265625 11.96875 L 6.679688 15.996094 L 6.382812 15.25 C 6.382812 15.25 8.660156 12.953125 10.070312 11.125 C 11.480469 9.296875 14.820312 4.144531 14.164062 2.496094 C 14.164062 2.496094 13.683594 1.214844 11.207031 2.878906 C 8.734375 4.542969 5.417969 7.515625 5.417969 7.515625 L 0.667969 15.226562 L 0.445312 14.6875 L 4.996094 7.234375 L 4.179688 6.699219 L 0.265625 14.261719 Z M 0 13.648438 "/>
<path style=" stroke:none;fill-rule:nonzero;fill:#FFFFFF;fill-opacity:1;" d="M 8.535156 5.433594 C 8.535156 5.433594 12.75 1.957031 13.484375 2.550781 C 13.832031 2.832031 14.203125 3.488281 12.445312 6.699219 C 10.71875 9.851562 7.695312 13.257812 7.695312 13.257812 L 6.582031 12.53125 L 4.601562 15.671875 L 4.328125 15.132812 C 4.328125 15.132812 6.828125 11.265625 7.472656 9.71875 C 8.113281 8.171875 8.535156 5.433594 8.535156 5.433594 Z M 8.535156 5.433594 "/>
</g>
</g>
</svg>
