<?xml version="1.0" encoding="UTF-8"?>
<svg xmlns="http://www.w3.org/2000/svg" xmlns:xlink="http://www.w3.org/1999/xlink" width="11px" height="10px" viewBox="0 0 11 10" version="1.1">
<g id="surface1">
<path style=" stroke:none;fill-rule:nonzero;fill:rgb(30%,30%,30%);fill-opacity:1;" d="M 6.46875 3.976562 C 6.609375 2.785156 8.507812 0.851562 9.265625 0.125 C 9.433594 -0.0351562 9.710938 -0.0390625 9.882812 0.117188 L 10.859375 0.996094 C 11.039062 1.152344 11.046875 1.417969 10.882812 1.585938 C 10.183594 2.300781 8.359375 4.023438 6.757812 4.269531 C 6.636719 4.289062 9.746094 1.203125 9.671875 1.246094 C 8.789062 1.769531 6.46875 3.976562 6.46875 3.976562 Z M 1.308594 1.277344 C 1.261719 1.210938 4.539062 4.132812 4.519531 4.019531 C 4.242188 2.496094 2.414062 0.78125 1.652344 0.125 C 1.472656 -0.03125 1.195312 -0.0195312 1.03125 0.152344 L 0.117188 1.089844 C -0.046875 1.257812 -0.0390625 1.519531 0.132812 1.675781 C 0.90625 2.386719 2.957031 4.171875 4.210938 4.292969 C 4.210938 4.292969 1.867188 2.113281 1.308594 1.277344 Z M 6.640625 4.410156 L 6.359375 4.144531 L 2.277344 8 L 2.15625 7.898438 L 1.996094 8.070312 L 2.105469 8.164062 L 0.472656 9.707031 L 0.753906 9.972656 L 2.40625 8.414062 L 2.539062 8.527344 L 2.699219 8.355469 L 2.578125 8.25 Z M 4.652344 4.15625 L 4.367188 4.421875 L 5.003906 5.046875 L 5.28125 4.773438 Z M 8.808594 8.230469 L 8.949219 8.082031 L 8.769531 7.925781 L 8.640625 8.066406 L 5.949219 5.433594 L 5.671875 5.703125 L 8.375 8.347656 L 8.265625 8.464844 L 8.445312 8.617188 L 8.542969 8.515625 L 10.207031 10 L 10.464844 9.726562 Z M 8.808594 8.230469 "/>
</g>
</svg>
