<?xml version="1.0" encoding="UTF-8"?>
<svg xmlns="http://www.w3.org/2000/svg" xmlns:xlink="http://www.w3.org/1999/xlink" width="11px" height="10px" viewBox="0 0 11 10" version="1.1">
<g id="surface1">
<path style=" stroke:none;fill-rule:nonzero;fill:rgb(30%,30%,30%);fill-opacity:1;" d="M 11 9.328125 C 11 9.328125 10.992188 9.789062 10.460938 9.863281 C 10.253906 9.890625 8.816406 9.894531 8.738281 9.894531 C 8.738281 9.894531 8.292969 9.886719 7.804688 9.484375 C 7.484375 9.214844 7.257812 8.886719 6.949219 8.492188 L 0.800781 0.453125 C 0.738281 0.371094 0.726562 0.265625 0.769531 0.175781 C 0.8125 0.0820312 0.90625 0.0195312 1.011719 0.0117188 C 1.117188 0 1.21875 0.0429688 1.28125 0.125 L 7.59375 8.324219 C 7.746094 8.476562 7.847656 8.597656 7.960938 8.652344 C 8.082031 8.710938 8.277344 8.78125 8.414062 8.78125 L 9.671875 8.765625 C 10.828125 8.644531 11 8.890625 11 9.328125 Z M 3.40625 8.316406 C 3.253906 8.46875 3.152344 8.589844 3.039062 8.644531 C 2.917969 8.703125 2.722656 8.773438 2.585938 8.773438 L 1.328125 8.757812 C 0.171875 8.636719 0 8.882812 0 9.320312 C 0 9.320312 0.0078125 9.78125 0.539062 9.851562 C 0.746094 9.882812 2.183594 9.886719 2.261719 9.886719 C 2.261719 9.886719 2.707031 9.878906 3.195312 9.476562 C 3.515625 9.207031 3.742188 8.878906 4.050781 8.484375 L 5.285156 6.867188 L 4.90625 6.367188 Z M 10.132812 0.0546875 C 10 -0.0351562 9.816406 -0.0078125 9.71875 0.117188 L 5.773438 5.242188 L 6.152344 5.734375 L 10.199219 0.445312 C 10.292969 0.320312 10.265625 0.144531 10.132812 0.0546875 Z M 5.511719 8.851562 C 4.828125 8.851562 4.273438 9.023438 4.273438 9.234375 C 4.273438 9.445312 4.828125 9.617188 5.511719 9.617188 C 6.195312 9.617188 6.75 9.445312 6.75 9.234375 C 6.75 9.023438 6.195312 8.851562 5.511719 8.851562 Z M 4.265625 9.617188 C 4.265625 9.828125 4.820312 10 5.503906 10 C 6.1875 10 6.738281 9.828125 6.738281 9.617188 L 6.738281 9.398438 C 6.738281 9.609375 6.1875 9.78125 5.503906 9.78125 C 4.820312 9.78125 4.265625 9.609375 4.265625 9.398438 Z M 4.265625 9.617188 "/>
</g>
</svg>
