<?xml version="1.0" encoding="UTF-8" standalone="no"?>
<!-- Created with Inkscape (http://www.inkscape.org/) -->

<svg
   xmlns:dc="http://purl.org/dc/elements/1.1/"
   xmlns:cc="http://creativecommons.org/ns#"
   xmlns:rdf="http://www.w3.org/1999/02/22-rdf-syntax-ns#"
   xmlns:svg="http://www.w3.org/2000/svg"
   xmlns="http://www.w3.org/2000/svg"
   xmlns:xlink="http://www.w3.org/1999/xlink"
   xmlns:sodipodi="http://sodipodi.sourceforge.net/DTD/sodipodi-0.dtd"
   xmlns:inkscape="http://www.inkscape.org/namespaces/inkscape"
   width="30px"
   height="30px"
   version="1.1"
   id="svg8"
   inkscape:version="0.92.4 5da689c313, 2019-01-14"
   sodipodi:docname="container.svg">
  <defs
     id="defs2" />
  <sodipodi:namedview
     id="base"
     pagecolor="#ffffff"
     bordercolor="#666666"
     borderopacity="1.0"
     inkscape:pageopacity="0.0"
     inkscape:pageshadow="2"
     inkscape:zoom="13.049334"
     inkscape:cx="18.679046"
     inkscape:cy="12.165829"
     inkscape:document-units="px"
     inkscape:current-layer="layer1"
     showgrid="false"
     inkscape:snap-page="false"
     units="px"
     inkscape:window-width="1884"
     inkscape:window-height="1061"
     inkscape:window-x="0"
     inkscape:window-y="0"
     inkscape:window-maximized="1"
     fit-margin-top="0"
     fit-margin-left="0"
     fit-margin-right="0"
     fit-margin-bottom="0" />
  <metadata
     id="metadata5">
    <rdf:RDF>
      <cc:Work
         rdf:about="">
        <dc:format>image/svg+xml</dc:format>
        <dc:type
           rdf:resource="http://purl.org/dc/dcmitype/StillImage" />
        <dc:title></dc:title>
      </cc:Work>
    </rdf:RDF>
  </metadata>
    <circle
       style="color:#000000;clip-rule:nonzero;display:inline;overflow:visible;visibility:visible;opacity:1;isolation:auto;mix-blend-mode:normal;color-interpolation:sRGB;color-interpolation-filters:linearRGB;solid-color:#000000;solid-opacity:1;vector-effect:none;fill:#ffffff;fill-opacity:1;fill-rule:evenodd;stroke:#00A757;stroke-width:1;stroke-linecap:butt;stroke-linejoin:miter;stroke-miterlimit:4;stroke-dasharray:none;stroke-dashoffset:0;stroke-opacity:1;marker:none;color-rendering:auto;image-rendering:auto;shape-rendering:auto;text-rendering:auto;enable-background:accumulate"
       id="path815"
       cx="15"
       cy="15"
       r="14.5" />
<g transform="translate(7,6)"><g id="surface1">
<path style=" stroke:none;fill-rule:nonzero;fill:rgb(30%,30%,30%);fill-opacity:1;" d="M 5.601562 7.777344 L 3.101562 7.777344 C 2.9375 7.777344 2.804688 7.644531 2.804688 7.480469 C 2.804688 7.316406 2.9375 7.179688 3.101562 7.179688 L 5.601562 7.179688 C 5.769531 7.179688 5.902344 7.316406 5.902344 7.480469 C 5.902344 7.644531 5.769531 7.777344 5.601562 7.777344 Z M 5.738281 10.132812 C 5.738281 9.96875 5.601562 9.835938 5.4375 9.835938 L 2.003906 9.835938 C 1.835938 9.835938 1.703125 9.96875 1.703125 10.132812 C 1.703125 10.300781 1.835938 10.433594 2.003906 10.433594 L 5.4375 10.433594 C 5.601562 10.433594 5.738281 10.300781 5.738281 10.132812 Z M 5.871094 12.722656 C 5.871094 12.558594 5.734375 12.421875 5.570312 12.421875 L 0.304688 12.421875 C 0.136719 12.421875 0.00390625 12.558594 0.00390625 12.722656 C 0.00390625 12.886719 0.136719 13.023438 0.304688 13.023438 L 5.570312 13.023438 C 5.734375 13.023438 5.871094 12.886719 5.871094 12.722656 Z M 9.070312 6.550781 L 9.070312 5.289062 C 9.070312 5.125 8.933594 4.992188 8.769531 4.992188 C 8.601562 4.992188 8.46875 5.125 8.46875 5.289062 L 8.46875 6.550781 C 8.46875 6.714844 8.601562 6.851562 8.769531 6.851562 C 8.933594 6.851562 9.070312 6.714844 9.070312 6.550781 Z M 9.070312 14.914062 L 9.070312 13.652344 C 9.070312 13.488281 8.933594 13.351562 8.769531 13.351562 C 8.601562 13.351562 8.46875 13.488281 8.46875 13.652344 L 8.46875 14.914062 C 8.46875 15.078125 8.601562 15.210938 8.769531 15.210938 C 8.933594 15.210938 9.070312 15.078125 9.070312 14.914062 Z M 12.351562 10.421875 L 13.617188 10.414062 C 13.785156 10.414062 13.917969 10.28125 13.917969 10.113281 C 13.917969 9.949219 13.785156 9.816406 13.617188 9.816406 L 12.351562 9.820312 C 12.183594 9.820312 12.050781 9.957031 12.050781 10.121094 C 12.050781 10.285156 12.183594 10.421875 12.351562 10.421875 Z M 12.4375 13.703125 C 12.554688 13.585938 12.558594 13.398438 12.441406 13.28125 L 11.558594 12.378906 C 11.480469 12.300781 11.371094 12.269531 11.265625 12.296875 C 11.164062 12.324219 11.082031 12.402344 11.050781 12.507812 C 11.023438 12.609375 11.050781 12.71875 11.128906 12.796875 L 12.011719 13.699219 C 12.128906 13.816406 12.320312 13.820312 12.4375 13.703125 Z M 11.4375 7.785156 L 12.351562 6.910156 C 12.46875 6.796875 12.472656 6.605469 12.359375 6.488281 C 12.242188 6.367188 12.054688 6.363281 11.933594 6.480469 L 11.019531 7.351562 C 10.898438 7.464844 10.894531 7.65625 11.011719 7.773438 C 11.125 7.894531 11.316406 7.898438 11.4375 7.785156 Z M 14.738281 4.9375 C 14.84375 5.046875 15.023438 5.046875 15.132812 4.9375 L 15.914062 4.160156 C 16.023438 4.050781 16.023438 3.875 15.914062 3.765625 L 15.132812 2.984375 C 15.023438 2.878906 14.84375 2.878906 14.738281 2.984375 L 13.953125 3.765625 C 13.84375 3.875 13.84375 4.050781 13.953125 4.160156 L 14.121094 4.328125 L 13.40625 5.074219 C 12.234375 4.007812 10.726562 3.375 9.140625 3.289062 L 9.132812 2.1875 L 9.316406 2.1875 C 9.453125 2.1875 9.566406 2.074219 9.566406 1.9375 L 9.566406 0.25 C 9.566406 0.113281 9.453125 0 9.316406 0 L 8.234375 0 C 8.097656 0 7.984375 0.113281 7.984375 0.25 L 7.984375 1.9375 C 7.984375 2.074219 8.097656 2.1875 8.234375 2.1875 L 8.53125 2.1875 L 8.539062 3.28125 C 6.601562 3.339844 4.78125 4.210938 3.519531 5.679688 C 3.386719 5.835938 3.40625 6.074219 3.5625 6.207031 C 3.71875 6.34375 3.957031 6.324219 4.09375 6.167969 C 5.257812 4.808594 6.964844 4.023438 8.757812 4.023438 C 12.144531 4.023438 14.898438 6.769531 14.898438 10.136719 C 14.898438 13.507812 12.144531 16.25 8.757812 16.25 C 6.828125 16.25 5.046875 15.375 3.875 13.84375 C 3.75 13.679688 3.515625 13.648438 3.347656 13.773438 C 3.183594 13.898438 3.152344 14.132812 3.277344 14.296875 C 4.59375 16.015625 6.59375 17 8.757812 17 C 12.558594 17 15.648438 13.921875 15.648438 10.136719 C 15.652344 8.417969 15 6.761719 13.832031 5.5 L 14.546875 4.75 Z M 10.335938 5.6875 C 10.335938 5.6875 7.953125 9.335938 7.792969 9.835938 C 7.636719 10.332031 7.914062 10.867188 8.414062 11.023438 C 8.917969 11.179688 9.453125 10.90625 9.609375 10.40625 C 9.609375 10.40625 10.335938 5.6875 10.335938 5.6875 Z M 10.335938 5.6875 "/>
</g>
</g>
</svg>
