<?xml version="1.0" encoding="UTF-8"?>
<svg xmlns="http://www.w3.org/2000/svg" xmlns:xlink="http://www.w3.org/1999/xlink" width="11px" height="8px" viewBox="0 0 11 8" version="1.1">
<g id="surface1">
<path style=" stroke:none;fill-rule:nonzero;fill:rgb(30%,30%,30%);fill-opacity:1;" d="M 7.351562 2.011719 C 7.164062 2.441406 7.34375 2.949219 7.753906 3.144531 C 8.160156 3.339844 8.648438 3.152344 8.835938 2.722656 C 9.023438 2.296875 8.84375 1.789062 8.433594 1.589844 C 8.023438 1.394531 7.539062 1.582031 7.351562 2.011719 Z M 7.351562 2.011719 "/>
<path style=" stroke:none;fill-rule:nonzero;fill:rgb(30%,30%,30%);fill-opacity:1;" d="M 10.9375 5.375 C 10.9375 5.375 10.363281 3.453125 9.449219 2.804688 C 8.957031 2.453125 6.761719 5.125 6.761719 5.125 L 6.90625 5.382812 L 3.234375 4.273438 C 3.300781 4.003906 3.328125 3.804688 3.285156 3.75 C 3.132812 3.566406 2.679688 3.226562 2.183594 2.914062 L 2.925781 2.257812 L 4.027344 4.246094 L 4.441406 3.941406 C 4.441406 3.941406 3.511719 0.558594 2.925781 0.660156 C 1.902344 0.839844 0.707031 2.171875 0.566406 2.332031 C 0.355469 2.519531 0.175781 3.070312 0.0976562 3.324219 L 0 3.648438 L 2.511719 4.402344 L 2.265625 5.449219 L 2.105469 5.90625 L 2.613281 6.226562 C 2.613281 6.226562 2.65625 6.105469 2.769531 5.773438 C 2.890625 5.429688 3.039062 4.980469 3.148438 4.59375 L 7.726562 5.964844 C 7.648438 6.410156 7.589844 7.050781 7.550781 7.519531 C 7.523438 7.871094 7.515625 8 7.515625 8 L 8.105469 7.929688 L 8.136719 7.445312 L 8.355469 6.25 L 8.9375 6.328125 L 10.875 6.910156 L 10.910156 6.695312 L 10.9375 6.601562 C 10.941406 6.585938 11.074219 5.734375 10.9375 5.375 Z M 7.890625 5.457031 C 7.855469 5.472656 7.824219 5.542969 7.792969 5.652344 L 7.175781 5.464844 L 8.8125 4.253906 L 9.222656 5.175781 C 8.648438 5.242188 8.101562 5.355469 7.890625 5.457031 Z M 7.890625 5.457031 "/>
<path style=" stroke:none;fill-rule:nonzero;fill:rgb(30%,30%,30%);fill-opacity:1;" d="M 5.148438 0.855469 C 5.148438 1.328125 4.78125 1.710938 4.332031 1.710938 C 3.878906 1.710938 3.511719 1.328125 3.511719 0.855469 C 3.511719 0.382812 3.878906 0 4.332031 0 C 4.78125 0 5.148438 0.382812 5.148438 0.855469 Z M 5.148438 0.855469 "/>
<path style=" stroke:none;fill-rule:nonzero;fill:rgb(30%,30%,30%);fill-opacity:1;" d="M 4.027344 7.675781 L 5.320312 5.917969 L 6.339844 7.675781 Z M 4.027344 7.675781 "/>
</g>
</svg>
