<?xml version="1.0" encoding="UTF-8"?>
<svg xmlns="http://www.w3.org/2000/svg" xmlns:xlink="http://www.w3.org/1999/xlink" width="10px" height="6px" viewBox="0 0 10 6" version="1.1">
<g id="surface1">
<path style=" stroke:none;fill-rule:nonzero;fill:rgb(30%,30%,30%);fill-opacity:1;" d="M 8.269531 0.609375 L 8.269531 5.390625 C 8.269531 5.726562 8.007812 5.996094 7.683594 5.996094 C 7.359375 5.996094 7.09375 5.726562 7.09375 5.390625 L 7.09375 3.769531 L 2.90625 3.769531 L 2.90625 5.390625 C 2.902344 5.726562 2.640625 5.996094 2.316406 5.996094 C 1.992188 5.996094 1.730469 5.726562 1.730469 5.390625 L 1.730469 0.609375 C 1.730469 0.273438 1.992188 0.00390625 2.316406 0.00390625 C 2.640625 0.00390625 2.902344 0.273438 2.90625 0.609375 L 2.90625 2.230469 L 7.09375 2.230469 L 7.09375 0.609375 C 7.09375 0.273438 7.359375 0.00390625 7.683594 0.00390625 C 8.007812 0.00390625 8.269531 0.273438 8.269531 0.609375 Z M 1.460938 4.539062 L 1.460938 1.460938 C 1.460938 1.207031 1.261719 1.003906 1.015625 1 C 0.769531 1.003906 0.570312 1.207031 0.570312 1.460938 L 0.570312 4.539062 C 0.570312 4.792969 0.769531 4.996094 1.015625 5 C 1.261719 4.996094 1.460938 4.792969 1.460938 4.539062 Z M 9.429688 4.539062 L 9.429688 1.460938 C 9.429688 1.207031 9.230469 1.003906 8.984375 1 C 8.738281 1.003906 8.539062 1.207031 8.539062 1.460938 L 8.539062 4.539062 C 8.539062 4.792969 8.738281 4.996094 8.984375 5 C 9.230469 4.996094 9.429688 4.792969 9.429688 4.539062 Z M 0.382812 3.328125 L 0.382812 2.671875 C 0.378906 2.5625 0.296875 2.476562 0.191406 2.476562 C 0.0859375 2.476562 0 2.5625 0 2.671875 L 0 3.328125 C 0 3.4375 0.0859375 3.523438 0.191406 3.523438 C 0.296875 3.523438 0.378906 3.4375 0.382812 3.328125 Z M 10 3.328125 L 10 2.671875 C 10 2.5625 9.914062 2.476562 9.808594 2.476562 C 9.703125 2.476562 9.621094 2.5625 9.617188 2.671875 L 9.617188 3.328125 C 9.621094 3.4375 9.703125 3.523438 9.808594 3.523438 C 9.914062 3.523438 10 3.4375 10 3.328125 Z M 10 3.328125 "/>
</g>
</svg>
