<?xml version="1.0" encoding="UTF-8" standalone="no"?>
<!-- Created with Inkscape (http://www.inkscape.org/) -->

<svg
   xmlns:dc="http://purl.org/dc/elements/1.1/"
   xmlns:cc="http://creativecommons.org/ns#"
   xmlns:rdf="http://www.w3.org/1999/02/22-rdf-syntax-ns#"
   xmlns:svg="http://www.w3.org/2000/svg"
   xmlns="http://www.w3.org/2000/svg"
   xmlns:xlink="http://www.w3.org/1999/xlink"
   xmlns:sodipodi="http://sodipodi.sourceforge.net/DTD/sodipodi-0.dtd"
   xmlns:inkscape="http://www.inkscape.org/namespaces/inkscape"
   width="30px"
   height="30px"
   version="1.1"
   id="svg8"
   inkscape:version="0.92.4 5da689c313, 2019-01-14"
   sodipodi:docname="container.svg">
  <defs
     id="defs2" />
  <sodipodi:namedview
     id="base"
     pagecolor="#ffffff"
     bordercolor="#666666"
     borderopacity="1.0"
     inkscape:pageopacity="0.0"
     inkscape:pageshadow="2"
     inkscape:zoom="13.049334"
     inkscape:cx="18.679046"
     inkscape:cy="12.165829"
     inkscape:document-units="px"
     inkscape:current-layer="layer1"
     showgrid="false"
     inkscape:snap-page="false"
     units="px"
     inkscape:window-width="1884"
     inkscape:window-height="1061"
     inkscape:window-x="0"
     inkscape:window-y="0"
     inkscape:window-maximized="1"
     fit-margin-top="0"
     fit-margin-left="0"
     fit-margin-right="0"
     fit-margin-bottom="0" />
  <metadata
     id="metadata5">
    <rdf:RDF>
      <cc:Work
         rdf:about="">
        <dc:format>image/svg+xml</dc:format>
        <dc:type
           rdf:resource="http://purl.org/dc/dcmitype/StillImage" />
        <dc:title></dc:title>
      </cc:Work>
    </rdf:RDF>
  </metadata>
    <circle
       style="color:#000000;clip-rule:nonzero;display:inline;overflow:visible;visibility:visible;opacity:1;isolation:auto;mix-blend-mode:normal;color-interpolation:sRGB;color-interpolation-filters:linearRGB;solid-color:#000000;solid-opacity:1;vector-effect:none;fill:#00a19a;fill-opacity:1;fill-rule:evenodd;stroke:#ffffff;stroke-width:1;stroke-linecap:butt;stroke-linejoin:miter;stroke-miterlimit:4;stroke-dasharray:none;stroke-dashoffset:0;stroke-opacity:1;marker:none;color-rendering:auto;image-rendering:auto;shape-rendering:auto;text-rendering:auto;enable-background:accumulate"
       id="path815"
       cx="15"
       cy="15"
       r="14.5" />
<g transform="translate(8,7)"><g id="surface1">
<path style=" stroke:none;fill-rule:nonzero;fill:#FFFFFF;fill-opacity:1;" d="M 11.351562 1.726562 L 9.585938 3.433594 C 9.183594 3.820312 9.457031 4.699219 9.542969 4.933594 L 8.613281 5.828125 C 8.148438 2.84375 6.769531 0.242188 6.585938 0.00390625 C 6.609375 0.046875 6.597656 0.375 6.597656 5.515625 C 6.597656 5.570312 6.550781 5.609375 6.5 5.609375 C 7.007812 5.609375 7.457031 6.039062 7.714844 6.691406 L 5.207031 9.105469 C 4.695312 7.515625 5.421875 5.609375 6.5 5.609375 C 6.386719 5.609375 6.402344 5.488281 6.402344 5.425781 C 6.402344 0.636719 6.394531 0.0859375 6.410156 0.0078125 C 6.199219 0.332031 3.640625 4.785156 4.351562 9.933594 L 3.304688 10.941406 C 2.839844 10.789062 2.113281 10.652344 1.765625 10.984375 L 0 12.691406 L 1.644531 14.285156 L 3.414062 12.578125 C 3.808594 12.195312 3.550781 11.335938 3.460938 11.085938 L 4.390625 10.191406 C 4.886719 13.394531 6.292969 15.800781 6.410156 15.996094 C 6.398438 15.960938 6.402344 15.609375 6.402344 10.492188 C 6.402344 10.46875 6.414062 10.445312 6.429688 10.425781 C 6.449219 10.410156 6.472656 10.398438 6.5 10.402344 C 5.992188 10.402344 5.546875 9.972656 5.285156 9.328125 L 7.796875 6.910156 C 8.300781 8.523438 7.570312 10.402344 6.5 10.402344 C 6.523438 10.398438 6.550781 10.410156 6.566406 10.425781 C 6.585938 10.445312 6.597656 10.46875 6.597656 10.492188 C 6.597656 15.585938 6.601562 15.957031 6.589844 15.996094 C 6.734375 15.753906 8.78125 12.242188 8.78125 8.003906 C 8.78125 7.363281 8.738281 6.722656 8.648438 6.089844 L 9.703125 5.074219 C 10.171875 5.222656 10.890625 5.355469 11.234375 5.023438 L 13 3.316406 Z M 11.351562 1.726562 "/>
</g>
</g>
</svg>
