<?xml version="1.0" encoding="UTF-8" standalone="no"?>
<!-- Created with Inkscape (http://www.inkscape.org/) -->

<svg
   xmlns:dc="http://purl.org/dc/elements/1.1/"
   xmlns:cc="http://creativecommons.org/ns#"
   xmlns:rdf="http://www.w3.org/1999/02/22-rdf-syntax-ns#"
   xmlns:svg="http://www.w3.org/2000/svg"
   xmlns="http://www.w3.org/2000/svg"
   xmlns:xlink="http://www.w3.org/1999/xlink"
   xmlns:sodipodi="http://sodipodi.sourceforge.net/DTD/sodipodi-0.dtd"
   xmlns:inkscape="http://www.inkscape.org/namespaces/inkscape"
   width="30px"
   height="30px"
   version="1.1"
   id="svg8"
   inkscape:version="0.92.4 5da689c313, 2019-01-14"
   sodipodi:docname="container.svg">
  <defs
     id="defs2" />
  <sodipodi:namedview
     id="base"
     pagecolor="#ffffff"
     bordercolor="#666666"
     borderopacity="1.0"
     inkscape:pageopacity="0.0"
     inkscape:pageshadow="2"
     inkscape:zoom="13.049334"
     inkscape:cx="18.679046"
     inkscape:cy="12.165829"
     inkscape:document-units="px"
     inkscape:current-layer="layer1"
     showgrid="false"
     inkscape:snap-page="false"
     units="px"
     inkscape:window-width="1884"
     inkscape:window-height="1061"
     inkscape:window-x="0"
     inkscape:window-y="0"
     inkscape:window-maximized="1"
     fit-margin-top="0"
     fit-margin-left="0"
     fit-margin-right="0"
     fit-margin-bottom="0" />
  <metadata
     id="metadata5">
    <rdf:RDF>
      <cc:Work
         rdf:about="">
        <dc:format>image/svg+xml</dc:format>
        <dc:type
           rdf:resource="http://purl.org/dc/dcmitype/StillImage" />
        <dc:title></dc:title>
      </cc:Work>
    </rdf:RDF>
  </metadata>
    <circle
       style="color:#000000;clip-rule:nonzero;display:inline;overflow:visible;visibility:visible;opacity:1;isolation:auto;mix-blend-mode:normal;color-interpolation:sRGB;color-interpolation-filters:linearRGB;solid-color:#000000;solid-opacity:1;vector-effect:none;fill:#00A757;fill-opacity:1;fill-rule:evenodd;stroke:#ffffff;stroke-width:1;stroke-linecap:butt;stroke-linejoin:miter;stroke-miterlimit:4;stroke-dasharray:none;stroke-dashoffset:0;stroke-opacity:1;marker:none;color-rendering:auto;image-rendering:auto;shape-rendering:auto;text-rendering:auto;enable-background:accumulate"
       id="path815"
       cx="15"
       cy="15"
       r="14.5" />
<g transform="translate(7,7)"><g id="surface1">
<path style=" stroke:none;fill-rule:nonzero;fill:#FFFFFF;fill-opacity:1;" d="M 15.722656 10.3125 C 15.722656 11.546875 14.679688 12.546875 13.390625 12.546875 C 12.101562 12.546875 11.058594 11.546875 11.058594 10.3125 C 11.058594 9.074219 12.101562 8.074219 13.390625 8.074219 C 14.679688 8.074219 15.722656 9.074219 15.722656 10.3125 Z M 15.722656 10.3125 "/>
<path style=" stroke:none;fill-rule:nonzero;fill:#FFFFFF;fill-opacity:1;" d="M 10.683594 9.980469 C 10.433594 10.066406 10.175781 10.132812 9.917969 10.183594 C 8.691406 10.40625 7.574219 10.15625 6.777344 9.484375 C 5.980469 8.808594 5.582031 7.777344 5.660156 6.585938 C 5.738281 5.34375 6.3125 4.085938 7.277344 3.035156 C 8.242188 1.984375 9.472656 1.28125 10.746094 1.050781 C 11.03125 0.996094 11.316406 0.96875 11.605469 0.96875 C 12.488281 0.96875 13.277344 1.234375 13.886719 1.75 C 14.683594 2.421875 15.078125 3.453125 15.003906 4.648438 C 14.933594 5.707031 14.503906 6.777344 13.777344 7.722656 C 14.121094 7.769531 14.453125 7.878906 14.753906 8.042969 C 15.480469 7.011719 15.914062 5.855469 15.988281 4.707031 C 16.085938 3.210938 15.570312 1.910156 14.539062 1.039062 C 13.507812 0.167969 12.09375 -0.160156 10.5625 0.117188 C 9.074219 0.390625 7.644531 1.203125 6.539062 2.410156 C 5.429688 3.617188 4.765625 5.078125 4.675781 6.527344 C 4.613281 7.464844 4.953125 8.585938 5.195312 9.058594 C 5.386719 9.429688 4.640625 10.234375 4.632812 10.242188 L 0.199219 14.792969 C -0.078125 15.078125 -0.0625 15.523438 0.230469 15.789062 C 0.527344 16.054688 0.992188 16.039062 1.265625 15.757812 L 5.777344 11.132812 C 5.777344 11.132812 6.5 10.546875 6.773438 10.640625 C 7.5 10.894531 8.21875 11.210938 9.050781 11.210938 C 9.402344 11.210938 9.753906 11.175781 10.101562 11.113281 C 10.320312 11.074219 10.535156 11.019531 10.746094 10.957031 C 10.660156 10.640625 10.636719 10.308594 10.683594 9.980469 Z M 10.683594 9.980469 "/>
</g>
</g>
</svg>
