<?xml version="1.0" encoding="UTF-8" standalone="no"?>
<!-- Created with Inkscape (http://www.inkscape.org/) -->

<svg
   xmlns:dc="http://purl.org/dc/elements/1.1/"
   xmlns:cc="http://creativecommons.org/ns#"
   xmlns:rdf="http://www.w3.org/1999/02/22-rdf-syntax-ns#"
   xmlns:svg="http://www.w3.org/2000/svg"
   xmlns="http://www.w3.org/2000/svg"
   xmlns:xlink="http://www.w3.org/1999/xlink"
   xmlns:sodipodi="http://sodipodi.sourceforge.net/DTD/sodipodi-0.dtd"
   xmlns:inkscape="http://www.inkscape.org/namespaces/inkscape"
   width="30px"
   height="30px"
   version="1.1"
   id="svg8"
   inkscape:version="0.92.4 5da689c313, 2019-01-14"
   sodipodi:docname="container.svg">
  <defs
     id="defs2" />
  <sodipodi:namedview
     id="base"
     pagecolor="#ffffff"
     bordercolor="#666666"
     borderopacity="1.0"
     inkscape:pageopacity="0.0"
     inkscape:pageshadow="2"
     inkscape:zoom="13.049334"
     inkscape:cx="18.679046"
     inkscape:cy="12.165829"
     inkscape:document-units="px"
     inkscape:current-layer="layer1"
     showgrid="false"
     inkscape:snap-page="false"
     units="px"
     inkscape:window-width="1884"
     inkscape:window-height="1061"
     inkscape:window-x="0"
     inkscape:window-y="0"
     inkscape:window-maximized="1"
     fit-margin-top="0"
     fit-margin-left="0"
     fit-margin-right="0"
     fit-margin-bottom="0" />
  <metadata
     id="metadata5">
    <rdf:RDF>
      <cc:Work
         rdf:about="">
        <dc:format>image/svg+xml</dc:format>
        <dc:type
           rdf:resource="http://purl.org/dc/dcmitype/StillImage" />
        <dc:title></dc:title>
      </cc:Work>
    </rdf:RDF>
  </metadata>
    <circle
       style="color:#000000;clip-rule:nonzero;display:inline;overflow:visible;visibility:visible;opacity:1;isolation:auto;mix-blend-mode:normal;color-interpolation:sRGB;color-interpolation-filters:linearRGB;solid-color:#000000;solid-opacity:1;vector-effect:none;fill:#ffffff;fill-opacity:1;fill-rule:evenodd;stroke:#00A757;stroke-width:1;stroke-linecap:butt;stroke-linejoin:miter;stroke-miterlimit:4;stroke-dasharray:none;stroke-dashoffset:0;stroke-opacity:1;marker:none;color-rendering:auto;image-rendering:auto;shape-rendering:auto;text-rendering:auto;enable-background:accumulate"
       id="path815"
       cx="15"
       cy="15"
       r="14.5" />
<g transform="translate(7,7)"><g id="surface1">
<path style=" stroke:none;fill-rule:nonzero;fill:rgb(30%,30%,30%);fill-opacity:1;" d="M 8.765625 15.429688 L 13.132812 6.277344 C 13.140625 6.253906 13.042969 6.21875 13.050781 6.203125 C 12.890625 6.09375 12.734375 5.976562 12.578125 5.851562 L 8.390625 13.054688 C 8.375 13.082031 8.359375 13.105469 8.339844 13.125 C 8.207031 13.320312 7.984375 13.421875 7.761719 13.390625 C 7.539062 13.359375 7.347656 13.203125 7.269531 12.980469 C 7.191406 12.757812 7.234375 12.507812 7.386719 12.332031 C 7.394531 12.316406 7.402344 12.300781 7.410156 12.285156 L 12.277344 5.597656 C 12.113281 5.449219 11.949219 5.292969 11.789062 5.125 L 6.285156 11.503906 C 6.265625 11.523438 6.246094 11.542969 6.222656 11.5625 C 6.058594 11.726562 5.824219 11.78125 5.609375 11.707031 C 5.394531 11.632812 5.234375 11.441406 5.199219 11.207031 C 5.160156 10.976562 5.25 10.738281 5.425781 10.59375 C 5.4375 10.582031 5.449219 10.566406 5.460938 10.554688 L 11.519531 4.835938 C 11.441406 4.746094 11.359375 4.652344 11.285156 4.558594 C 11.191406 4.445312 11.105469 4.332031 11.019531 4.214844 L 4.738281 9.773438 C 4.714844 9.792969 4.691406 9.808594 4.667969 9.824219 C 4.484375 9.964844 4.246094 9.988281 4.042969 9.882812 C 3.839844 9.78125 3.707031 9.566406 3.699219 9.332031 C 3.691406 9.09375 3.808594 8.875 4.003906 8.753906 C 4.015625 8.742188 4.03125 8.730469 4.042969 8.722656 L 10.785156 3.886719 C 10.671875 3.722656 10.566406 3.554688 10.46875 3.386719 L 3.34375 7.269531 C 3.320312 7.28125 3.292969 7.292969 3.265625 7.300781 C 3.058594 7.398438 2.816406 7.363281 2.640625 7.214844 C 2.464844 7.066406 2.378906 6.828125 2.421875 6.597656 C 2.464844 6.363281 2.625 6.175781 2.839844 6.105469 C 2.855469 6.097656 2.871094 6.089844 2.886719 6.082031 L 10.273438 3.035156 C 10.183594 2.859375 10.097656 2.683594 10.023438 2.511719 C 10.007812 2.515625 9.996094 2.398438 9.972656 2.40625 L 0.738281 5.457031 C 0.617188 5.496094 0.511719 5.570312 0.429688 5.671875 C 0.261719 5.890625 -0.0078125 6.285156 0.00390625 6.613281 C 0.0195312 7.085938 0.734375 7.484375 0.84375 7.9375 C 1.0625 8.847656 0.183594 9.167969 0.558594 10.023438 C 0.933594 10.875 1.3125 10.449219 1.679688 11.097656 C 2.046875 11.746094 1.347656 12.03125 1.945312 12.8125 C 2.542969 13.59375 3.191406 13.125 3.757812 13.695312 C 4.207031 14.144531 4.035156 14.679688 4.730469 15.03125 C 5.214844 15.277344 5.707031 14.539062 6.503906 14.96875 C 7.261719 15.382812 7.042969 15.929688 7.542969 15.992188 C 7.875 16.035156 8.277344 15.847656 8.503906 15.71875 C 8.617188 15.652344 8.710938 15.550781 8.765625 15.429688 Z M 8.765625 15.429688 "/>
<path style=" stroke:none;fill-rule:nonzero;fill:rgb(30%,30%,30%);fill-opacity:1;" d="M 13.4375 5.925781 L 14.183594 5.253906 C 13.445312 4.824219 13.042969 4.34375 12.375 3.527344 C 11.773438 2.789062 11.445312 2.273438 11.144531 1.515625 L 10.34375 2.15625 C 10.636719 2.941406 10.980469 3.492188 11.609375 4.261719 C 12.238281 5.035156 12.738281 5.496094 13.4375 5.925781 Z M 13.4375 5.925781 "/>
<path style=" stroke:none;fill-rule:nonzero;fill:rgb(30%,30%,30%);fill-opacity:1;" d="M 15.433594 0.960938 C 14.539062 -0.132812 13.238281 -0.546875 11.648438 1.101562 C 11.945312 1.769531 12.355469 2.4375 12.882812 3.085938 C 13.441406 3.769531 14.0625 4.324219 14.679688 4.742188 C 16.214844 3.492188 16.328125 2.054688 15.433594 0.960938 Z M 15.433594 0.960938 "/>
</g>
</g>
</svg>
