<?xml version="1.0" encoding="UTF-8" standalone="no"?>
<!-- Created with Inkscape (http://www.inkscape.org/) -->

<svg
   xmlns:dc="http://purl.org/dc/elements/1.1/"
   xmlns:cc="http://creativecommons.org/ns#"
   xmlns:rdf="http://www.w3.org/1999/02/22-rdf-syntax-ns#"
   xmlns:svg="http://www.w3.org/2000/svg"
   xmlns="http://www.w3.org/2000/svg"
   xmlns:xlink="http://www.w3.org/1999/xlink"
   xmlns:sodipodi="http://sodipodi.sourceforge.net/DTD/sodipodi-0.dtd"
   xmlns:inkscape="http://www.inkscape.org/namespaces/inkscape"
   width="30px"
   height="30px"
   version="1.1"
   id="svg8"
   inkscape:version="0.92.4 5da689c313, 2019-01-14"
   sodipodi:docname="container.svg">
  <defs
     id="defs2" />
  <sodipodi:namedview
     id="base"
     pagecolor="#ffffff"
     bordercolor="#666666"
     borderopacity="1.0"
     inkscape:pageopacity="0.0"
     inkscape:pageshadow="2"
     inkscape:zoom="13.049334"
     inkscape:cx="18.679046"
     inkscape:cy="12.165829"
     inkscape:document-units="px"
     inkscape:current-layer="layer1"
     showgrid="false"
     inkscape:snap-page="false"
     units="px"
     inkscape:window-width="1884"
     inkscape:window-height="1061"
     inkscape:window-x="0"
     inkscape:window-y="0"
     inkscape:window-maximized="1"
     fit-margin-top="0"
     fit-margin-left="0"
     fit-margin-right="0"
     fit-margin-bottom="0" />
  <metadata
     id="metadata5">
    <rdf:RDF>
      <cc:Work
         rdf:about="">
        <dc:format>image/svg+xml</dc:format>
        <dc:type
           rdf:resource="http://purl.org/dc/dcmitype/StillImage" />
        <dc:title></dc:title>
      </cc:Work>
    </rdf:RDF>
  </metadata>
    <circle
       style="color:#000000;clip-rule:nonzero;display:inline;overflow:visible;visibility:visible;opacity:1;isolation:auto;mix-blend-mode:normal;color-interpolation:sRGB;color-interpolation-filters:linearRGB;solid-color:#000000;solid-opacity:1;vector-effect:none;fill:#ffffff;fill-opacity:1;fill-rule:evenodd;stroke:#00a19a;stroke-width:1;stroke-linecap:butt;stroke-linejoin:miter;stroke-miterlimit:4;stroke-dasharray:none;stroke-dashoffset:0;stroke-opacity:1;marker:none;color-rendering:auto;image-rendering:auto;shape-rendering:auto;text-rendering:auto;enable-background:accumulate"
       id="path815"
       cx="15"
       cy="15"
       r="14.5" />
<g transform="translate(7,6)"><g id="surface1">
<path style=" stroke:none;fill-rule:nonzero;fill:rgb(30%,30%,30%);fill-opacity:1;" d="M 13.386719 1.726562 C 13.386719 2.675781 12.613281 3.449219 11.65625 3.449219 C 10.703125 3.449219 9.929688 2.675781 9.929688 1.726562 C 9.929688 0.773438 10.703125 0.00390625 11.65625 0.00390625 C 12.613281 0.00390625 13.386719 0.773438 13.386719 1.726562 Z M 13.386719 1.726562 "/>
<path style=" stroke:none;fill-rule:nonzero;fill:rgb(30%,30%,30%);fill-opacity:1;" d="M 14.859375 5.085938 C 14.640625 4.828125 14.253906 4.792969 13.992188 5.007812 L 12.144531 6.542969 L 11.359375 4.402344 C 11.324219 4.300781 11.082031 3.714844 10.578125 3.460938 L 10.390625 3.367188 C 10.183594 3.265625 6.59375 2.332031 6.59375 2.332031 C 6.269531 2.238281 5.929688 2.425781 5.832031 2.75 C 5.832031 2.757812 5.832031 2.761719 5.828125 2.769531 L 4.65625 5.738281 C 4.53125 6.050781 4.683594 6.40625 5 6.53125 C 5.316406 6.65625 5.671875 6.5 5.796875 6.1875 L 6.796875 3.664062 L 8.25 4.082031 L 6.035156 8.730469 C 6.007812 8.785156 4.074219 11.914062 4.074219 11.914062 L 0.601562 13.113281 C 0.136719 13.277344 -0.109375 13.78125 0.0507812 14.246094 C 0.210938 14.710938 0.71875 14.953125 1.183594 14.796875 L 5.308594 13.371094 C 5.492188 13.308594 7.003906 10.738281 7.003906 10.738281 C 7.007812 10.742188 7.011719 10.746094 7.015625 10.75 L 9.351562 12.625 L 6.828125 15.527344 C 6.507812 15.898438 6.546875 16.457031 6.917969 16.78125 C 7.289062 17.101562 7.851562 17.0625 8.175781 16.691406 L 11.109375 13.324219 C 11.128906 13.300781 11.148438 13.269531 11.164062 13.242188 C 11.230469 13.195312 11.289062 13.140625 11.339844 13.078125 C 11.648438 12.695312 11.585938 12.136719 11.203125 11.828125 L 9.113281 10.148438 L 10.835938 6.539062 L 11.3125 7.851562 C 11.429688 8.167969 11.78125 8.332031 12.101562 8.21875 C 12.269531 8.15625 14.78125 5.949219 14.78125 5.949219 C 15.039062 5.730469 15.074219 5.347656 14.859375 5.085938 Z M 14.859375 5.085938 "/>
</g>
</g>
</svg>
