<?xml version="1.0" encoding="UTF-8" standalone="no"?>
<!-- Created with Inkscape (http://www.inkscape.org/) -->

<svg
   xmlns:dc="http://purl.org/dc/elements/1.1/"
   xmlns:cc="http://creativecommons.org/ns#"
   xmlns:rdf="http://www.w3.org/1999/02/22-rdf-syntax-ns#"
   xmlns:svg="http://www.w3.org/2000/svg"
   xmlns="http://www.w3.org/2000/svg"
   xmlns:xlink="http://www.w3.org/1999/xlink"
   xmlns:sodipodi="http://sodipodi.sourceforge.net/DTD/sodipodi-0.dtd"
   xmlns:inkscape="http://www.inkscape.org/namespaces/inkscape"
   width="30px"
   height="30px"
   version="1.1"
   id="svg8"
   inkscape:version="0.92.4 5da689c313, 2019-01-14"
   sodipodi:docname="container.svg">
  <defs
     id="defs2" />
  <sodipodi:namedview
     id="base"
     pagecolor="#ffffff"
     bordercolor="#666666"
     borderopacity="1.0"
     inkscape:pageopacity="0.0"
     inkscape:pageshadow="2"
     inkscape:zoom="13.049334"
     inkscape:cx="18.679046"
     inkscape:cy="12.165829"
     inkscape:document-units="px"
     inkscape:current-layer="layer1"
     showgrid="false"
     inkscape:snap-page="false"
     units="px"
     inkscape:window-width="1884"
     inkscape:window-height="1061"
     inkscape:window-x="0"
     inkscape:window-y="0"
     inkscape:window-maximized="1"
     fit-margin-top="0"
     fit-margin-left="0"
     fit-margin-right="0"
     fit-margin-bottom="0" />
  <metadata
     id="metadata5">
    <rdf:RDF>
      <cc:Work
         rdf:about="">
        <dc:format>image/svg+xml</dc:format>
        <dc:type
           rdf:resource="http://purl.org/dc/dcmitype/StillImage" />
        <dc:title></dc:title>
      </cc:Work>
    </rdf:RDF>
  </metadata>
    <circle
       style="color:#000000;clip-rule:nonzero;display:inline;overflow:visible;visibility:visible;opacity:1;isolation:auto;mix-blend-mode:normal;color-interpolation:sRGB;color-interpolation-filters:linearRGB;solid-color:#000000;solid-opacity:1;vector-effect:none;fill:#00A757;fill-opacity:1;fill-rule:evenodd;stroke:#ffffff;stroke-width:1;stroke-linecap:butt;stroke-linejoin:miter;stroke-miterlimit:4;stroke-dasharray:none;stroke-dashoffset:0;stroke-opacity:1;marker:none;color-rendering:auto;image-rendering:auto;shape-rendering:auto;text-rendering:auto;enable-background:accumulate"
       id="path815"
       cx="15"
       cy="15"
       r="14.5" />
<g transform="translate(6,9)"><g id="surface1">
<path style=" stroke:none;fill-rule:nonzero;fill:#FFFFFF;fill-opacity:1;" d="M 16.941406 2.8125 C 16.785156 2.183594 16.351562 1.574219 15.613281 0.945312 C 14.082031 -0.347656 12.554688 -0.3125 11.421875 1.050781 C 10.332031 2.359375 9.816406 4.308594 9.644531 5.085938 C 9.464844 5.894531 9.34375 6.855469 9.4375 7.488281 C 9.375 7.652344 9.3125 7.816406 9.25 7.984375 C 9.234375 7.984375 9.222656 7.992188 9.210938 8.003906 L 9.105469 8.128906 C 9.085938 8.152344 9.089844 8.191406 9.109375 8.210938 L 8.5 8.945312 L 7.890625 8.210938 C 7.910156 8.191406 7.914062 8.152344 7.894531 8.128906 L 7.789062 8.003906 C 7.777344 7.992188 7.765625 7.984375 7.75 7.984375 C 7.6875 7.816406 7.625 7.652344 7.5625 7.488281 C 7.65625 6.855469 7.535156 5.894531 7.355469 5.085938 C 7.183594 4.308594 6.667969 2.359375 5.578125 1.050781 C 4.445312 -0.3125 2.917969 -0.347656 1.386719 0.945312 C 0.648438 1.574219 0.214844 2.183594 0.0585938 2.8125 C -0.125 3.570312 0.113281 4.351562 0.757812 5.128906 C 1.835938 6.421875 3.675781 7.269531 4.417969 7.574219 C 5.058594 7.835938 5.691406 8.035156 6.203125 8.132812 C 6.234375 8.136719 6.257812 8.140625 6.289062 8.144531 L 6.296875 8.152344 L 6.300781 8.148438 C 6.425781 8.167969 6.554688 8.183594 6.679688 8.191406 C 6.683594 8.199219 6.691406 8.207031 6.695312 8.214844 C 6.847656 8.304688 7 8.398438 7.152344 8.488281 C 7.152344 8.503906 7.15625 8.519531 7.164062 8.53125 L 7.269531 8.65625 C 7.289062 8.683594 7.324219 8.6875 7.351562 8.667969 L 8.042969 9.496094 L 7.355469 10.324219 L 7.3125 10.289062 C 7.289062 10.265625 7.25 10.269531 7.230469 10.296875 L 7.164062 10.375 C 7.140625 10.402344 7.144531 10.4375 7.171875 10.460938 L 7.792969 10.984375 C 7.816406 11.007812 7.855469 11.003906 7.875 10.976562 L 7.941406 10.898438 C 7.960938 10.871094 7.957031 10.835938 7.933594 10.8125 L 7.890625 10.777344 L 8.5 10.046875 L 9.109375 10.777344 L 9.066406 10.8125 C 9.042969 10.835938 9.039062 10.871094 9.058594 10.898438 L 9.125 10.976562 C 9.148438 11.003906 9.183594 11.007812 9.207031 10.984375 L 9.828125 10.460938 C 9.855469 10.4375 9.859375 10.402344 9.835938 10.375 L 9.769531 10.296875 C 9.75 10.269531 9.710938 10.265625 9.6875 10.289062 L 9.644531 10.324219 L 8.957031 9.496094 L 9.648438 8.667969 C 9.675781 8.6875 9.710938 8.683594 9.730469 8.65625 L 9.835938 8.53125 C 9.84375 8.519531 9.847656 8.503906 9.847656 8.488281 L 10.304688 8.214844 C 10.308594 8.207031 10.316406 8.199219 10.320312 8.191406 C 10.445312 8.183594 10.574219 8.167969 10.699219 8.148438 L 10.703125 8.152344 L 10.710938 8.144531 C 10.742188 8.140625 10.765625 8.136719 10.796875 8.132812 C 11.308594 8.035156 11.941406 7.835938 12.582031 7.574219 C 13.324219 7.269531 15.164062 6.421875 16.242188 5.128906 C 16.886719 4.351562 17.125 3.570312 16.941406 2.8125 Z M 7.246094 6.351562 L 6.941406 5.742188 L 7.132812 5.582031 C 7.183594 5.863281 7.222656 6.121094 7.246094 6.351562 Z M 7.050781 5.15625 C 7.058594 5.203125 7.066406 5.25 7.078125 5.296875 L 6.828125 5.507812 L 6.410156 4.660156 L 6.828125 4.304688 C 6.910156 4.582031 6.984375 4.863281 7.050781 5.15625 Z M 3.679688 3.902344 L 4.265625 4.605469 L 3.859375 4.953125 L 3.191406 4.3125 Z M 3.007812 4.136719 L 2.339844 3.5 L 2.929688 3 L 3.519531 3.707031 Z M 3.871094 3.738281 L 4.382812 3.304688 L 4.890625 4.078125 L 4.460938 4.441406 Z M 4.429688 4.800781 L 5.015625 5.507812 L 4.707031 5.769531 L 4.042969 5.128906 Z M 4.621094 4.636719 L 5.03125 4.289062 L 5.539062 5.0625 L 5.207031 5.34375 Z M 5.226562 4.125 L 5.679688 3.742188 L 6.097656 4.59375 L 5.734375 4.898438 Z M 5.085938 3.914062 L 4.578125 3.140625 L 5.144531 2.660156 L 5.5625 3.511719 Z M 4.4375 2.929688 L 3.929688 2.15625 L 4.609375 1.578125 L 5.027344 2.425781 Z M 4.242188 3.09375 L 3.710938 3.542969 L 3.125 2.835938 L 3.734375 2.320312 Z M 2.960938 2.644531 L 2.375 1.9375 L 3.085938 1.332031 L 3.597656 2.105469 Z M 2.769531 2.804688 L 2.15625 3.324219 L 1.492188 2.683594 L 2.183594 2.101562 Z M 1.964844 3.488281 L 1.257812 4.085938 L 0.5 3.523438 L 1.296875 2.847656 Z M 2.148438 3.664062 L 2.8125 4.300781 L 2.222656 4.800781 L 1.464844 4.238281 Z M 2.996094 4.476562 L 3.664062 5.117188 L 3.1875 5.519531 L 2.429688 4.957031 Z M 3.847656 5.292969 L 4.511719 5.933594 L 4.152344 6.238281 L 3.394531 5.675781 Z M 4.695312 6.109375 L 5.363281 6.746094 L 5.117188 6.957031 L 4.359375 6.394531 Z M 4.890625 5.945312 L 5.175781 5.699219 L 5.765625 6.40625 L 5.558594 6.582031 Z M 5.371094 5.539062 L 5.679688 5.277344 L 6.1875 6.046875 L 5.957031 6.242188 Z M 5.875 5.113281 L 6.210938 4.824219 L 6.628906 5.675781 L 6.382812 5.882812 Z M 6.75 4.039062 L 6.292969 4.425781 L 5.875 3.574219 L 6.414062 3.121094 C 6.535156 3.414062 6.648438 3.71875 6.75 4.039062 Z M 6.308594 2.878906 L 5.761719 3.34375 L 5.34375 2.492188 L 5.878906 2.039062 C 6.039062 2.308594 6.183594 2.589844 6.308594 2.878906 Z M 5.339844 1.253906 C 5.484375 1.433594 5.621094 1.625 5.746094 1.820312 L 5.226562 2.257812 L 4.808594 1.410156 L 5.1875 1.089844 C 5.238281 1.144531 5.289062 1.195312 5.339844 1.253906 Z M 5.007812 0.914062 L 4.695312 1.175781 L 4.351562 0.480469 C 4.570312 0.574219 4.789062 0.714844 5.007812 0.914062 Z M 4.496094 1.34375 L 3.789062 1.941406 L 3.28125 1.167969 L 4.078125 0.496094 Z M 3.867188 0.34375 L 3.140625 0.957031 L 2.8125 0.457031 C 3.144531 0.34375 3.5 0.289062 3.867188 0.34375 Z M 2.574219 0.554688 L 2.949219 1.121094 L 2.210938 1.742188 L 1.6875 1.109375 C 1.933594 0.914062 2.234375 0.707031 2.574219 0.554688 Z M 1.496094 1.273438 L 2.019531 1.90625 L 1.308594 2.507812 L 0.796875 2.019531 C 0.976562 1.769531 1.210938 1.523438 1.496094 1.273438 Z M 0.652344 2.230469 L 1.113281 2.671875 L 0.316406 3.347656 C 0.3125 2.972656 0.421875 2.601562 0.652344 2.230469 Z M 0.71875 4.539062 C 0.542969 4.265625 0.421875 4 0.359375 3.730469 L 1.058594 4.253906 Z M 1 4.925781 C 0.953125 4.867188 0.90625 4.808594 0.863281 4.75 L 1.269531 4.40625 L 2.023438 4.96875 L 1.484375 5.425781 C 1.3125 5.269531 1.152344 5.101562 1 4.925781 Z M 1.675781 5.597656 L 2.230469 5.125 L 2.988281 5.6875 L 2.425781 6.164062 C 2.164062 5.988281 1.914062 5.800781 1.675781 5.597656 Z M 2.648438 6.308594 L 3.195312 5.84375 L 3.953125 6.40625 L 3.492188 6.796875 C 3.195312 6.640625 2.914062 6.476562 2.648438 6.308594 Z M 4.671875 7.332031 C 4.625 7.3125 4.582031 7.300781 4.535156 7.28125 C 4.261719 7.167969 3.996094 7.042969 3.738281 6.917969 L 4.160156 6.5625 L 4.917969 7.125 Z M 4.941406 7.433594 L 5.125 7.277344 L 5.648438 7.667969 C 5.433594 7.605469 5.195312 7.53125 4.941406 7.433594 Z M 6.28125 7.824219 L 5.324219 7.113281 L 5.546875 6.921875 L 6.527344 7.863281 C 6.449219 7.851562 6.371094 7.839844 6.28125 7.824219 Z M 6.828125 7.886719 C 6.820312 7.886719 6.816406 7.882812 6.808594 7.882812 L 6.859375 7.832031 L 5.742188 6.757812 L 5.925781 6.601562 L 6.917969 7.789062 C 6.886719 7.820312 6.855469 7.851562 6.828125 7.886719 Z M 7.234375 7.542969 C 7.191406 7.570312 7.148438 7.597656 7.109375 7.628906 L 6.121094 6.4375 L 6.328125 6.261719 L 7.179688 7.558594 L 7.238281 7.523438 C 7.234375 7.527344 7.234375 7.539062 7.234375 7.542969 Z M 7.269531 7.238281 L 6.523438 6.097656 L 6.746094 5.910156 L 7.28125 6.996094 C 7.28125 7.082031 7.277344 7.160156 7.269531 7.238281 Z M 16.203125 2.019531 L 15.691406 2.507812 L 14.980469 1.90625 L 15.503906 1.273438 C 15.789062 1.523438 16.023438 1.773438 16.203125 2.019531 Z M 12.378906 4.636719 L 11.792969 5.34375 L 11.460938 5.0625 L 11.96875 4.289062 Z M 12.109375 4.078125 L 12.617188 3.304688 L 13.128906 3.738281 L 12.539062 4.441406 Z M 12.570312 4.800781 L 12.957031 5.128906 L 12.292969 5.769531 L 11.984375 5.507812 Z M 12.734375 4.605469 L 13.320312 3.902344 L 13.808594 4.3125 L 13.140625 4.953125 Z M 13.480469 3.707031 L 14.070312 3 L 14.660156 3.5 L 13.992188 4.136719 Z M 14.230469 2.804688 L 14.816406 2.101562 L 15.507812 2.683594 L 14.84375 3.324219 Z M 14.039062 2.644531 L 13.402344 2.105469 L 13.914062 1.332031 L 14.625 1.9375 Z M 13.875 2.835938 L 13.289062 3.542969 L 12.757812 3.09375 L 13.265625 2.320312 Z M 12.5625 2.925781 L 11.972656 2.425781 L 12.390625 1.578125 L 13.070312 2.15625 Z M 12.421875 3.140625 L 11.914062 3.914062 L 11.4375 3.511719 L 11.855469 2.660156 Z M 11.773438 4.125 L 11.265625 4.898438 L 10.902344 4.59375 L 11.320312 3.742188 Z M 11.125 5.113281 L 10.617188 5.882812 L 10.371094 5.675781 L 10.789062 4.824219 Z M 11.320312 5.277344 L 11.628906 5.539062 L 11.042969 6.242188 L 10.8125 6.046875 Z M 11.824219 5.699219 L 12.109375 5.945312 L 11.441406 6.582031 L 11.234375 6.40625 Z M 12.304688 6.109375 L 12.640625 6.394531 L 11.882812 6.957031 L 11.636719 6.746094 Z M 12.488281 5.933594 L 13.152344 5.292969 L 13.605469 5.675781 L 12.847656 6.238281 Z M 13.335938 5.117188 L 14.003906 4.476562 L 14.570312 4.957031 L 13.8125 5.519531 Z M 14.1875 4.300781 L 14.851562 3.664062 L 15.535156 4.238281 L 14.777344 4.800781 Z M 15.035156 3.488281 L 15.703125 2.847656 L 16.5 3.523438 L 15.742188 4.085938 Z M 15.3125 1.109375 L 14.789062 1.742188 L 14.050781 1.121094 L 14.425781 0.554688 C 14.765625 0.707031 15.066406 0.914062 15.3125 1.109375 Z M 14.1875 0.457031 L 13.859375 0.957031 L 13.132812 0.34375 C 13.5 0.289062 13.855469 0.34375 14.1875 0.457031 Z M 13.71875 1.167969 L 13.210938 1.941406 L 12.503906 1.34375 L 12.921875 0.496094 Z M 12.648438 0.480469 L 12.304688 1.175781 L 11.992188 0.914062 C 12.210938 0.714844 12.429688 0.574219 12.648438 0.480469 Z M 11.660156 1.253906 C 11.710938 1.195312 11.761719 1.144531 11.8125 1.089844 L 12.191406 1.410156 L 11.773438 2.257812 L 11.253906 1.820312 C 11.378906 1.625 11.515625 1.433594 11.660156 1.253906 Z M 11.121094 2.039062 L 11.65625 2.492188 L 11.238281 3.34375 L 10.691406 2.878906 C 10.816406 2.589844 10.960938 2.308594 11.121094 2.039062 Z M 10.585938 3.121094 L 11.125 3.574219 L 10.707031 4.425781 L 10.25 4.039062 C 10.351562 3.71875 10.464844 3.414062 10.585938 3.121094 Z M 9.949219 5.15625 C 10.015625 4.863281 10.089844 4.582031 10.171875 4.304688 L 10.589844 4.660156 L 10.171875 5.507812 L 9.921875 5.296875 C 9.933594 5.25 9.941406 5.203125 9.949219 5.15625 Z M 9.867188 5.582031 L 10.058594 5.742188 L 9.753906 6.351562 C 9.777344 6.121094 9.816406 5.863281 9.867188 5.582031 Z M 9.730469 7.234375 C 9.722656 7.160156 9.71875 7.082031 9.71875 6.996094 L 10.253906 5.910156 L 10.476562 6.097656 Z M 9.765625 7.542969 C 9.765625 7.539062 9.765625 7.527344 9.761719 7.523438 L 9.820312 7.558594 L 10.671875 6.261719 L 10.878906 6.4375 L 9.890625 7.628906 C 9.851562 7.597656 9.808594 7.570312 9.765625 7.542969 Z M 10.140625 7.832031 L 10.191406 7.882812 C 10.183594 7.882812 10.179688 7.886719 10.171875 7.886719 C 10.144531 7.851562 10.113281 7.820312 10.082031 7.789062 L 11.074219 6.601562 L 11.257812 6.757812 Z M 10.71875 7.824219 C 10.628906 7.839844 10.550781 7.851562 10.472656 7.863281 L 11.453125 6.921875 L 11.675781 7.113281 Z M 11.351562 7.667969 L 11.875 7.277344 L 12.058594 7.4375 C 11.804688 7.53125 11.566406 7.605469 11.351562 7.667969 Z M 12.464844 7.28125 C 12.417969 7.300781 12.375 7.3125 12.328125 7.332031 L 12.082031 7.125 L 12.839844 6.5625 L 13.261719 6.917969 C 13.003906 7.042969 12.738281 7.167969 12.464844 7.28125 Z M 13.507812 6.796875 L 13.046875 6.40625 L 13.804688 5.84375 L 14.351562 6.308594 C 14.085938 6.476562 13.804688 6.640625 13.507812 6.796875 Z M 14.574219 6.164062 L 14.011719 5.6875 L 14.769531 5.125 L 15.324219 5.597656 C 15.085938 5.800781 14.835938 5.988281 14.574219 6.164062 Z M 16 4.925781 C 15.847656 5.101562 15.6875 5.269531 15.515625 5.425781 L 14.976562 4.96875 L 15.730469 4.40625 L 16.136719 4.75 C 16.09375 4.808594 16.046875 4.867188 16 4.925781 Z M 16.28125 4.539062 L 15.941406 4.253906 L 16.640625 3.730469 C 16.578125 4 16.457031 4.265625 16.28125 4.539062 Z M 15.886719 2.671875 L 16.347656 2.230469 C 16.578125 2.601562 16.6875 2.972656 16.683594 3.347656 Z M 8.5 2.144531 C 8.835938 2.144531 9.109375 1.867188 9.109375 1.527344 C 9.109375 1.1875 8.835938 0.914062 8.5 0.914062 C 8.164062 0.914062 7.890625 1.1875 7.890625 1.527344 C 7.890625 1.867188 8.164062 2.144531 8.5 2.144531 Z M 8.5 2.144531 "/>
</g>
</g>
</svg>
