<?xml version="1.0" encoding="UTF-8"?>
<svg xmlns="http://www.w3.org/2000/svg" xmlns:xlink="http://www.w3.org/1999/xlink" width="10px" height="10px" viewBox="0 0 10 10" version="1.1">
<g id="surface1">
<path style=" stroke:none;fill-rule:nonzero;fill:rgb(30%,30%,30%);fill-opacity:1;" d="M 4.089844 3.445312 C 4.089844 3.632812 4.140625 3.816406 4.238281 3.972656 L 0 3.972656 L 0 2.570312 L 4.222656 2.570312 C 4.136719 2.71875 4.089844 2.894531 4.089844 3.070312 Z M 10 2.570312 L 7.355469 2.570312 C 7.441406 2.71875 7.488281 2.894531 7.488281 3.070312 L 7.488281 3.445312 C 7.488281 3.632812 7.433594 3.816406 7.339844 3.972656 L 10 3.972656 Z M 7.113281 2.570312 C 6.957031 2.292969 6.679688 2.125 6.382812 2.125 L 5.941406 2.125 C 6.453125 2.046875 6.820312 1.554688 6.78125 0.992188 C 6.746094 0.433594 6.320312 0 5.804688 0 C 5.292969 0 4.863281 0.433594 4.828125 0.992188 C 4.792969 1.554688 5.160156 2.046875 5.671875 2.125 L 5.226562 2.125 C 4.75 2.125 4.363281 2.546875 4.363281 3.070312 L 4.363281 3.445312 C 4.363281 3.839844 4.585938 4.1875 4.921875 4.328125 L 5.179688 7.476562 C 5 7.542969 4.882812 7.722656 4.882812 7.925781 L 4.882812 8.816406 L 6.707031 8.816406 L 6.707031 7.925781 C 6.707031 7.75 6.621094 7.589844 6.476562 7.507812 L 6.726562 4.3125 C 7.042969 4.160156 7.246094 3.820312 7.246094 3.445312 L 7.246094 3.070312 C 7.246094 2.894531 7.199219 2.71875 7.113281 2.570312 Z M 2.632812 8 C 2.125 8 1.714844 8.449219 1.714844 9 C 1.714844 9.550781 2.125 10 2.632812 10 C 3.136719 10 3.546875 9.550781 3.546875 9 C 3.546875 8.449219 3.136719 8 2.632812 8 Z M 2.632812 8 "/>
</g>
</svg>
