<?xml version="1.0" encoding="UTF-8" standalone="no"?>
<!-- Created with Inkscape (http://www.inkscape.org/) -->

<svg
   xmlns:dc="http://purl.org/dc/elements/1.1/"
   xmlns:cc="http://creativecommons.org/ns#"
   xmlns:rdf="http://www.w3.org/1999/02/22-rdf-syntax-ns#"
   xmlns:svg="http://www.w3.org/2000/svg"
   xmlns="http://www.w3.org/2000/svg"
   xmlns:xlink="http://www.w3.org/1999/xlink"
   xmlns:sodipodi="http://sodipodi.sourceforge.net/DTD/sodipodi-0.dtd"
   xmlns:inkscape="http://www.inkscape.org/namespaces/inkscape"
   width="30px"
   height="30px"
   version="1.1"
   id="svg8"
   inkscape:version="0.92.4 5da689c313, 2019-01-14"
   sodipodi:docname="container.svg">
  <defs
     id="defs2" />
  <sodipodi:namedview
     id="base"
     pagecolor="#ffffff"
     bordercolor="#666666"
     borderopacity="1.0"
     inkscape:pageopacity="0.0"
     inkscape:pageshadow="2"
     inkscape:zoom="13.049334"
     inkscape:cx="18.679046"
     inkscape:cy="12.165829"
     inkscape:document-units="px"
     inkscape:current-layer="layer1"
     showgrid="false"
     inkscape:snap-page="false"
     units="px"
     inkscape:window-width="1884"
     inkscape:window-height="1061"
     inkscape:window-x="0"
     inkscape:window-y="0"
     inkscape:window-maximized="1"
     fit-margin-top="0"
     fit-margin-left="0"
     fit-margin-right="0"
     fit-margin-bottom="0" />
  <metadata
     id="metadata5">
    <rdf:RDF>
      <cc:Work
         rdf:about="">
        <dc:format>image/svg+xml</dc:format>
        <dc:type
           rdf:resource="http://purl.org/dc/dcmitype/StillImage" />
        <dc:title></dc:title>
      </cc:Work>
    </rdf:RDF>
  </metadata>
    <circle
       style="color:#000000;clip-rule:nonzero;display:inline;overflow:visible;visibility:visible;opacity:1;isolation:auto;mix-blend-mode:normal;color-interpolation:sRGB;color-interpolation-filters:linearRGB;solid-color:#000000;solid-opacity:1;vector-effect:none;fill:#ffffff;fill-opacity:1;fill-rule:evenodd;stroke:#00a19a;stroke-width:1;stroke-linecap:butt;stroke-linejoin:miter;stroke-miterlimit:4;stroke-dasharray:none;stroke-dashoffset:0;stroke-opacity:1;marker:none;color-rendering:auto;image-rendering:auto;shape-rendering:auto;text-rendering:auto;enable-background:accumulate"
       id="path815"
       cx="15"
       cy="15"
       r="14.5" />
<g transform="translate(8,6)"><g id="surface1">
<path style=" stroke:none;fill-rule:nonzero;fill:rgb(30%,30%,30%);fill-opacity:1;" d="M 6.429688 13.90625 C 6.4375 13.972656 6.390625 14.035156 6.320312 14.046875 L 6.148438 14.066406 C 6.078125 14.074219 6.03125 14.136719 6.039062 14.207031 L 6.121094 14.839844 C 6.128906 14.910156 6.078125 14.972656 6.011719 14.980469 L 5.632812 15.027344 C 5.566406 15.035156 5.515625 15.097656 5.523438 15.167969 L 5.601562 15.777344 C 5.609375 15.84375 5.5625 15.90625 5.492188 15.917969 L 4.773438 16.003906 C 4.703125 16.015625 4.65625 16.078125 4.664062 16.144531 L 4.738281 16.730469 C 4.746094 16.800781 4.699219 16.863281 4.628906 16.871094 L 3.605469 17 C 3.535156 17.007812 3.472656 16.957031 3.464844 16.890625 L 3.386719 16.304688 C 3.378906 16.234375 3.316406 16.1875 3.246094 16.195312 L 2.46875 16.292969 C 2.398438 16.300781 2.335938 16.25 2.328125 16.183594 L 2.25 15.574219 C 2.238281 15.503906 2.175781 15.457031 2.105469 15.464844 L 1.730469 15.511719 C 1.660156 15.519531 1.597656 15.472656 1.585938 15.402344 L 1.507812 14.769531 C 1.496094 14.703125 1.433594 14.652344 1.363281 14.660156 L 1.191406 14.683594 C 1.121094 14.691406 1.058594 14.644531 1.050781 14.574219 L 0.960938 13.882812 C 0.953125 13.8125 1 13.75 1.070312 13.742188 L 2.898438 13.515625 C 2.96875 13.507812 3.019531 13.441406 3.007812 13.375 L 2.203125 7.148438 C 2.195312 7.082031 2.132812 7.03125 2.0625 7.039062 L 0.234375 7.265625 C 0.164062 7.277344 0.101562 7.226562 0.0898438 7.160156 L 0.00390625 6.46875 C -0.0078125 6.398438 0.0429688 6.335938 0.113281 6.328125 L 0.285156 6.304688 C 0.351562 6.296875 0.402344 6.234375 0.394531 6.164062 L 0.3125 5.53125 C 0.304688 5.464844 0.351562 5.402344 0.421875 5.390625 L 0.796875 5.34375 C 0.867188 5.335938 0.917969 5.273438 0.910156 5.203125 L 0.828125 4.597656 C 0.820312 4.527344 0.871094 4.464844 0.941406 4.457031 L 1.714844 4.359375 C 1.785156 4.351562 1.835938 4.289062 1.824219 4.21875 L 1.75 3.632812 C 1.742188 3.566406 1.789062 3.5 1.859375 3.492188 L 2.882812 3.367188 C 2.953125 3.359375 3.015625 3.40625 3.027344 3.476562 L 3.101562 4.0625 C 3.109375 4.128906 3.171875 4.179688 3.242188 4.171875 L 3.964844 4.082031 C 4.03125 4.070312 4.097656 4.121094 4.105469 4.191406 L 4.183594 4.796875 C 4.191406 4.867188 4.257812 4.914062 4.324219 4.90625 L 4.703125 4.859375 C 4.773438 4.851562 4.835938 4.902344 4.84375 4.96875 L 4.925781 5.601562 C 4.933594 5.671875 5 5.71875 5.070312 5.710938 L 5.238281 5.6875 C 5.308594 5.679688 5.375 5.730469 5.382812 5.796875 L 5.472656 6.488281 C 5.480469 6.558594 5.429688 6.621094 5.363281 6.628906 L 3.589844 6.851562 C 3.519531 6.859375 3.472656 6.921875 3.480469 6.992188 L 4.285156 13.214844 C 4.292969 13.285156 4.355469 13.332031 4.425781 13.324219 L 6.199219 13.105469 C 6.269531 13.097656 6.332031 13.144531 6.339844 13.214844 Z M 12.671875 4.15625 C 12.742188 4.171875 12.808594 4.132812 12.828125 4.066406 L 12.996094 3.386719 C 13.011719 3.320312 12.96875 3.253906 12.902344 3.234375 L 12.734375 3.195312 C 12.664062 3.179688 12.625 3.113281 12.640625 3.042969 L 12.792969 2.425781 C 12.808594 2.359375 12.769531 2.289062 12.699219 2.273438 L 12.332031 2.1875 C 12.261719 2.167969 12.222656 2.101562 12.238281 2.035156 L 12.386719 1.4375 C 12.402344 1.371094 12.359375 1.304688 12.292969 1.285156 L 11.585938 1.117188 C 11.519531 1.101562 11.476562 1.035156 11.496094 0.96875 L 11.636719 0.394531 C 11.652344 0.324219 11.609375 0.257812 11.542969 0.242188 L 10.542969 0.00390625 C 10.472656 -0.0117188 10.40625 0.0273438 10.386719 0.0976562 L 10.246094 0.671875 C 10.230469 0.738281 10.160156 0.777344 10.089844 0.761719 L 9.332031 0.582031 C 9.261719 0.566406 9.195312 0.605469 9.175781 0.675781 L 9.03125 1.269531 C 9.011719 1.339844 8.945312 1.378906 8.875 1.363281 L 8.507812 1.277344 C 8.4375 1.261719 8.371094 1.300781 8.355469 1.367188 L 8.199219 1.988281 C 8.183594 2.054688 8.113281 2.097656 8.046875 2.082031 L 7.878906 2.039062 C 7.808594 2.023438 7.742188 2.066406 7.726562 2.132812 L 7.558594 2.8125 C 7.542969 2.878906 7.582031 2.945312 7.652344 2.960938 L 9.441406 3.386719 C 9.511719 3.40625 9.550781 3.472656 9.535156 3.539062 L 8.027344 9.636719 C 8.007812 9.707031 7.941406 9.746094 7.871094 9.730469 L 6.082031 9.304688 C 6.011719 9.289062 5.945312 9.328125 5.925781 9.398438 L 5.757812 10.074219 C 5.742188 10.140625 5.785156 10.210938 5.851562 10.226562 L 6.019531 10.265625 C 6.089844 10.28125 6.128906 10.351562 6.113281 10.417969 L 5.960938 11.035156 C 5.945312 11.105469 5.984375 11.171875 6.054688 11.1875 L 6.421875 11.277344 C 6.492188 11.292969 6.53125 11.359375 6.515625 11.429688 L 6.367188 12.023438 C 6.351562 12.089844 6.394531 12.160156 6.460938 12.175781 L 7.222656 12.355469 C 7.289062 12.371094 7.332031 12.441406 7.316406 12.507812 L 7.171875 13.082031 C 7.15625 13.148438 7.199219 13.21875 7.265625 13.234375 L 8.269531 13.472656 C 8.335938 13.488281 8.40625 13.445312 8.421875 13.378906 L 8.5625 12.804688 C 8.582031 12.738281 8.648438 12.695312 8.71875 12.710938 L 9.421875 12.878906 C 9.492188 12.894531 9.558594 12.855469 9.578125 12.789062 L 9.722656 12.191406 C 9.742188 12.125 9.808594 12.082031 9.878906 12.097656 L 10.246094 12.1875 C 10.316406 12.203125 10.382812 12.160156 10.398438 12.09375 L 10.554688 11.472656 C 10.570312 11.40625 10.640625 11.367188 10.707031 11.382812 L 10.875 11.421875 C 10.945312 11.4375 11.011719 11.394531 11.027344 11.328125 L 11.195312 10.652344 C 11.214844 10.582031 11.171875 10.515625 11.101562 10.5 L 9.367188 10.085938 C 9.300781 10.070312 9.257812 10.003906 9.273438 9.933594 L 10.785156 3.835938 C 10.800781 3.769531 10.871094 3.726562 10.9375 3.746094 Z M 12.671875 4.15625 "/>
</g>
</g>
</svg>
