<?xml version="1.0" encoding="UTF-8"?>
<svg xmlns="http://www.w3.org/2000/svg" xmlns:xlink="http://www.w3.org/1999/xlink" width="10px" height="7px" viewBox="0 0 10 7" version="1.1">
<g id="surface1">
<path style=" stroke:none;fill-rule:nonzero;fill:rgb(30%,30%,30%);fill-opacity:1;" d="M 9.964844 1.789062 C 9.875 1.390625 9.621094 1 9.183594 0.601562 C 8.285156 -0.222656 7.382812 -0.199219 6.71875 0.667969 C 6.078125 1.503906 5.773438 2.742188 5.671875 3.238281 C 5.566406 3.75 5.496094 4.363281 5.550781 4.765625 C 5.515625 4.871094 5.476562 4.976562 5.441406 5.078125 C 5.433594 5.082031 5.425781 5.085938 5.417969 5.09375 L 5.355469 5.171875 C 5.34375 5.1875 5.347656 5.210938 5.359375 5.226562 L 5 5.691406 L 4.640625 5.226562 C 4.652344 5.210938 4.65625 5.1875 4.644531 5.171875 L 4.582031 5.09375 C 4.574219 5.085938 4.566406 5.082031 4.558594 5.078125 C 4.523438 4.976562 4.484375 4.871094 4.449219 4.765625 C 4.503906 4.363281 4.433594 3.75 4.328125 3.238281 C 4.226562 2.742188 3.921875 1.503906 3.28125 0.667969 C 2.617188 -0.199219 1.714844 -0.222656 0.816406 0.601562 C 0.378906 1 0.125 1.390625 0.0351562 1.789062 C -0.0742188 2.273438 0.0664062 2.769531 0.445312 3.265625 C 1.082031 4.085938 2.164062 4.625 2.597656 4.820312 C 2.976562 4.988281 3.347656 5.113281 3.648438 5.175781 C 3.667969 5.179688 3.679688 5.179688 3.699219 5.183594 L 3.703125 5.1875 L 3.707031 5.183594 C 3.78125 5.199219 3.855469 5.207031 3.929688 5.214844 C 3.933594 5.21875 3.933594 5.222656 3.9375 5.226562 C 4.027344 5.285156 4.117188 5.34375 4.207031 5.402344 C 4.207031 5.414062 4.207031 5.421875 4.214844 5.429688 L 4.277344 5.507812 C 4.289062 5.523438 4.308594 5.527344 4.324219 5.515625 L 4.730469 6.042969 L 4.324219 6.570312 L 4.300781 6.546875 C 4.285156 6.535156 4.265625 6.535156 4.253906 6.550781 L 4.214844 6.601562 C 4.203125 6.617188 4.203125 6.640625 4.21875 6.65625 L 4.582031 6.992188 C 4.597656 7.003906 4.621094 7 4.632812 6.984375 L 4.671875 6.933594 C 4.683594 6.917969 4.679688 6.894531 4.667969 6.882812 L 4.640625 6.859375 L 5 6.394531 L 5.359375 6.859375 L 5.332031 6.882812 C 5.320312 6.894531 5.316406 6.917969 5.328125 6.933594 L 5.367188 6.984375 C 5.378906 7 5.402344 7.003906 5.417969 6.992188 L 5.78125 6.65625 C 5.796875 6.640625 5.796875 6.617188 5.785156 6.601562 L 5.746094 6.550781 C 5.734375 6.535156 5.714844 6.535156 5.699219 6.546875 L 5.675781 6.570312 L 5.269531 6.042969 L 5.675781 5.515625 C 5.691406 5.527344 5.710938 5.523438 5.722656 5.507812 L 5.785156 5.429688 C 5.792969 5.421875 5.792969 5.414062 5.792969 5.402344 L 6.0625 5.226562 C 6.066406 5.222656 6.066406 5.21875 6.070312 5.214844 C 6.144531 5.207031 6.21875 5.199219 6.292969 5.183594 L 6.296875 5.1875 L 6.300781 5.183594 C 6.320312 5.179688 6.332031 5.179688 6.351562 5.175781 C 6.652344 5.113281 7.023438 4.988281 7.402344 4.820312 C 7.835938 4.625 8.917969 4.085938 9.554688 3.265625 C 9.933594 2.769531 10.074219 2.273438 9.964844 1.789062 Z M 4.261719 4.042969 L 4.085938 3.652344 L 4.195312 3.550781 C 4.226562 3.730469 4.246094 3.894531 4.261719 4.042969 Z M 4.148438 3.28125 C 4.152344 3.3125 4.15625 3.339844 4.164062 3.371094 L 4.015625 3.503906 L 3.769531 2.964844 L 4.015625 2.738281 C 4.0625 2.914062 4.109375 3.09375 4.148438 3.28125 Z M 2.164062 2.480469 L 2.511719 2.929688 L 2.269531 3.152344 L 1.878906 2.746094 Z M 1.769531 2.632812 L 1.378906 2.226562 L 1.722656 1.910156 L 2.070312 2.359375 Z M 2.277344 2.378906 L 2.578125 2.101562 L 2.878906 2.59375 L 2.625 2.828125 Z M 2.605469 3.054688 L 2.949219 3.503906 L 2.769531 3.671875 L 2.378906 3.265625 Z M 2.71875 2.953125 L 2.960938 2.730469 L 3.257812 3.222656 L 3.0625 3.402344 Z M 3.074219 2.625 L 3.339844 2.382812 L 3.585938 2.921875 L 3.371094 3.117188 Z M 2.992188 2.492188 L 2.691406 2 L 3.027344 1.691406 L 3.273438 2.234375 Z M 2.609375 1.863281 L 2.3125 1.371094 L 2.710938 1.003906 L 2.957031 1.542969 Z M 2.496094 1.96875 L 2.183594 2.253906 L 1.835938 1.804688 L 2.199219 1.476562 Z M 1.742188 1.683594 L 1.398438 1.234375 L 1.816406 0.847656 L 2.113281 1.339844 Z M 1.628906 1.785156 L 1.269531 2.113281 L 0.878906 1.707031 L 1.285156 1.335938 Z M 1.15625 2.21875 L 0.738281 2.597656 L 0.296875 2.242188 L 0.761719 1.8125 Z M 1.261719 2.332031 L 1.65625 2.738281 L 1.308594 3.054688 L 0.863281 2.699219 Z M 1.761719 2.851562 L 2.15625 3.257812 L 1.875 3.511719 L 1.429688 3.15625 Z M 2.261719 3.367188 L 2.65625 3.773438 L 2.441406 3.96875 L 1.996094 3.613281 Z M 2.761719 3.886719 L 3.15625 4.292969 L 3.007812 4.425781 L 2.5625 4.070312 Z M 2.878906 3.78125 L 3.046875 3.628906 L 3.390625 4.078125 L 3.269531 4.1875 Z M 3.160156 3.523438 L 3.339844 3.355469 L 3.640625 3.847656 L 3.503906 3.972656 Z M 3.457031 3.253906 L 3.652344 3.070312 L 3.898438 3.613281 L 3.753906 3.746094 Z M 3.96875 2.570312 L 3.703125 2.816406 L 3.457031 2.277344 L 3.773438 1.988281 C 3.84375 2.171875 3.910156 2.367188 3.96875 2.570312 Z M 3.710938 1.832031 L 3.390625 2.125 L 3.144531 1.585938 L 3.460938 1.296875 C 3.550781 1.46875 3.636719 1.648438 3.710938 1.832031 Z M 3.140625 0.796875 C 3.226562 0.914062 3.304688 1.035156 3.378906 1.160156 L 3.074219 1.4375 L 2.828125 0.898438 L 3.050781 0.695312 C 3.082031 0.726562 3.109375 0.761719 3.140625 0.796875 Z M 2.945312 0.582031 L 2.761719 0.75 L 2.558594 0.304688 C 2.6875 0.367188 2.816406 0.457031 2.945312 0.582031 Z M 2.644531 0.855469 L 2.230469 1.234375 L 1.929688 0.742188 L 2.398438 0.316406 Z M 2.273438 0.21875 L 1.847656 0.609375 L 1.65625 0.292969 C 1.847656 0.21875 2.058594 0.183594 2.273438 0.21875 Z M 1.515625 0.351562 L 1.734375 0.714844 L 1.300781 1.109375 L 0.992188 0.707031 C 1.136719 0.582031 1.316406 0.449219 1.515625 0.351562 Z M 0.878906 0.8125 L 1.1875 1.210938 L 0.769531 1.597656 L 0.46875 1.285156 C 0.574219 1.128906 0.710938 0.96875 0.878906 0.8125 Z M 0.382812 1.417969 L 0.65625 1.699219 L 0.1875 2.128906 C 0.183594 1.890625 0.25 1.65625 0.382812 1.417969 Z M 0.421875 2.890625 C 0.320312 2.714844 0.246094 2.542969 0.210938 2.375 L 0.625 2.707031 Z M 0.589844 3.132812 C 0.558594 3.097656 0.535156 3.058594 0.507812 3.023438 L 0.746094 2.804688 L 1.191406 3.164062 L 0.875 3.453125 C 0.773438 3.351562 0.675781 3.246094 0.589844 3.132812 Z M 0.984375 3.5625 L 1.3125 3.261719 L 1.757812 3.621094 L 1.425781 3.921875 C 1.273438 3.8125 1.125 3.691406 0.984375 3.5625 Z M 1.558594 4.015625 L 1.878906 3.71875 L 2.324219 4.078125 L 2.054688 4.324219 C 1.878906 4.226562 1.714844 4.121094 1.558594 4.015625 Z M 2.75 4.664062 C 2.722656 4.65625 2.695312 4.644531 2.667969 4.632812 C 2.507812 4.5625 2.351562 4.484375 2.199219 4.402344 L 2.449219 4.175781 L 2.894531 4.535156 Z M 2.90625 4.730469 L 3.015625 4.632812 L 3.324219 4.878906 C 3.195312 4.839844 3.054688 4.792969 2.90625 4.730469 Z M 3.695312 4.980469 L 3.132812 4.527344 L 3.261719 4.40625 L 3.839844 5.003906 C 3.792969 4.996094 3.746094 4.988281 3.695312 4.980469 Z M 4.015625 5.019531 C 4.011719 5.019531 4.007812 5.015625 4.003906 5.015625 L 4.035156 4.984375 L 3.375 4.300781 L 3.484375 4.199219 L 4.070312 4.957031 C 4.050781 4.976562 4.03125 4.996094 4.015625 5.019531 Z M 4.253906 4.800781 C 4.230469 4.816406 4.207031 4.835938 4.183594 4.855469 L 3.601562 4.097656 L 3.722656 3.984375 L 4.222656 4.808594 L 4.257812 4.785156 C 4.257812 4.792969 4.257812 4.796875 4.253906 4.800781 Z M 4.277344 4.605469 L 3.835938 3.878906 L 3.96875 3.761719 L 4.28125 4.453125 C 4.28125 4.507812 4.28125 4.558594 4.277344 4.605469 Z M 9.53125 1.285156 L 9.230469 1.597656 L 8.8125 1.210938 L 9.121094 0.8125 C 9.289062 0.96875 9.425781 1.128906 9.53125 1.285156 Z M 7.28125 2.953125 L 6.9375 3.402344 L 6.742188 3.222656 L 7.039062 2.730469 Z M 7.121094 2.59375 L 7.421875 2.101562 L 7.722656 2.378906 L 7.375 2.828125 Z M 7.394531 3.054688 L 7.621094 3.265625 L 7.230469 3.671875 L 7.050781 3.503906 Z M 7.488281 2.929688 L 7.835938 2.480469 L 8.121094 2.746094 L 7.730469 3.152344 Z M 7.929688 2.359375 L 8.277344 1.910156 L 8.621094 2.226562 L 8.230469 2.632812 Z M 8.371094 1.785156 L 8.714844 1.335938 L 9.121094 1.707031 L 8.730469 2.113281 Z M 8.257812 1.683594 L 7.886719 1.339844 L 8.183594 0.847656 L 8.601562 1.234375 Z M 8.164062 1.804688 L 7.816406 2.253906 L 7.503906 1.96875 L 7.800781 1.476562 Z M 7.390625 1.863281 L 7.042969 1.542969 L 7.289062 1.003906 L 7.6875 1.371094 Z M 7.308594 2 L 7.007812 2.492188 L 6.726562 2.234375 L 6.972656 1.691406 Z M 6.925781 2.625 L 6.628906 3.117188 L 6.414062 2.921875 L 6.660156 2.382812 Z M 6.542969 3.253906 L 6.246094 3.746094 L 6.101562 3.613281 L 6.347656 3.070312 Z M 6.660156 3.355469 L 6.839844 3.523438 L 6.496094 3.972656 L 6.359375 3.847656 Z M 6.953125 3.628906 L 7.121094 3.78125 L 6.730469 4.1875 L 6.609375 4.078125 Z M 7.238281 3.886719 L 7.4375 4.070312 L 6.992188 4.425781 L 6.84375 4.292969 Z M 7.34375 3.773438 L 7.738281 3.367188 L 8.003906 3.613281 L 7.558594 3.96875 Z M 7.84375 3.257812 L 8.238281 2.851562 L 8.570312 3.15625 L 8.125 3.511719 Z M 8.34375 2.738281 L 8.738281 2.332031 L 9.136719 2.699219 L 8.691406 3.054688 Z M 8.84375 2.21875 L 9.238281 1.8125 L 9.703125 2.242188 L 9.261719 2.597656 Z M 9.007812 0.707031 L 8.699219 1.109375 L 8.265625 0.714844 L 8.484375 0.351562 C 8.683594 0.449219 8.863281 0.582031 9.007812 0.707031 Z M 8.34375 0.292969 L 8.152344 0.609375 L 7.726562 0.21875 C 7.941406 0.183594 8.152344 0.21875 8.34375 0.292969 Z M 8.070312 0.742188 L 7.769531 1.234375 L 7.355469 0.855469 L 7.601562 0.316406 Z M 7.441406 0.304688 L 7.238281 0.75 L 7.054688 0.582031 C 7.183594 0.457031 7.3125 0.367188 7.441406 0.304688 Z M 6.859375 0.796875 C 6.890625 0.761719 6.917969 0.726562 6.949219 0.695312 L 7.171875 0.898438 L 6.925781 1.4375 L 6.621094 1.160156 C 6.695312 1.035156 6.773438 0.914062 6.859375 0.796875 Z M 6.539062 1.296875 L 6.855469 1.585938 L 6.609375 2.125 L 6.289062 1.832031 C 6.363281 1.648438 6.449219 1.46875 6.539062 1.296875 Z M 6.226562 1.988281 L 6.542969 2.277344 L 6.296875 2.816406 L 6.03125 2.570312 C 6.089844 2.367188 6.15625 2.171875 6.226562 1.988281 Z M 5.851562 3.28125 C 5.890625 3.09375 5.9375 2.914062 5.984375 2.738281 L 6.230469 2.964844 L 5.984375 3.503906 L 5.835938 3.371094 C 5.84375 3.339844 5.847656 3.3125 5.851562 3.28125 Z M 5.804688 3.550781 L 5.914062 3.652344 L 5.738281 4.042969 C 5.753906 3.894531 5.773438 3.730469 5.804688 3.550781 Z M 5.722656 4.605469 C 5.71875 4.558594 5.71875 4.507812 5.71875 4.453125 L 6.03125 3.761719 L 6.164062 3.878906 Z M 5.746094 4.800781 C 5.742188 4.796875 5.742188 4.792969 5.742188 4.785156 L 5.777344 4.808594 L 6.277344 3.984375 L 6.398438 4.097656 L 5.816406 4.855469 C 5.792969 4.835938 5.769531 4.816406 5.746094 4.800781 Z M 5.964844 4.984375 L 5.996094 5.015625 C 5.992188 5.015625 5.988281 5.019531 5.984375 5.019531 C 5.96875 4.996094 5.949219 4.976562 5.929688 4.957031 L 6.515625 4.199219 L 6.625 4.300781 Z M 6.304688 4.980469 C 6.253906 4.988281 6.207031 4.996094 6.160156 5.003906 L 6.738281 4.40625 L 6.867188 4.527344 Z M 6.675781 4.878906 L 6.984375 4.632812 L 7.09375 4.730469 C 6.945312 4.792969 6.804688 4.839844 6.675781 4.878906 Z M 7.332031 4.632812 C 7.304688 4.644531 7.277344 4.65625 7.25 4.664062 L 7.105469 4.535156 L 7.550781 4.175781 L 7.800781 4.402344 C 7.648438 4.484375 7.492188 4.5625 7.332031 4.632812 Z M 7.945312 4.324219 L 7.675781 4.078125 L 8.121094 3.71875 L 8.441406 4.015625 C 8.285156 4.121094 8.121094 4.226562 7.945312 4.324219 Z M 8.574219 3.921875 L 8.242188 3.621094 L 8.6875 3.261719 L 9.015625 3.5625 C 8.875 3.691406 8.726562 3.8125 8.574219 3.921875 Z M 9.410156 3.132812 C 9.324219 3.246094 9.226562 3.351562 9.125 3.453125 L 8.808594 3.164062 L 9.253906 2.804688 L 9.492188 3.023438 C 9.464844 3.058594 9.441406 3.097656 9.410156 3.132812 Z M 9.578125 2.890625 L 9.375 2.707031 L 9.789062 2.375 C 9.753906 2.542969 9.679688 2.714844 9.578125 2.890625 Z M 9.34375 1.699219 L 9.617188 1.417969 C 9.75 1.65625 9.816406 1.890625 9.8125 2.128906 Z M 5 1.363281 C 5.199219 1.363281 5.359375 1.1875 5.359375 0.972656 C 5.359375 0.757812 5.199219 0.582031 5 0.582031 C 4.800781 0.582031 4.640625 0.757812 4.640625 0.972656 C 4.640625 1.1875 4.800781 1.363281 5 1.363281 Z M 5 1.363281 "/>
</g>
</svg>
