<?xml version="1.0" encoding="UTF-8" standalone="no"?>
<!-- Created with Inkscape (http://www.inkscape.org/) -->

<svg
   xmlns:dc="http://purl.org/dc/elements/1.1/"
   xmlns:cc="http://creativecommons.org/ns#"
   xmlns:rdf="http://www.w3.org/1999/02/22-rdf-syntax-ns#"
   xmlns:svg="http://www.w3.org/2000/svg"
   xmlns="http://www.w3.org/2000/svg"
   xmlns:xlink="http://www.w3.org/1999/xlink"
   xmlns:sodipodi="http://sodipodi.sourceforge.net/DTD/sodipodi-0.dtd"
   xmlns:inkscape="http://www.inkscape.org/namespaces/inkscape"
   width="30px"
   height="30px"
   version="1.1"
   id="svg8"
   inkscape:version="0.92.4 5da689c313, 2019-01-14"
   sodipodi:docname="container.svg">
  <defs
     id="defs2" />
  <sodipodi:namedview
     id="base"
     pagecolor="#ffffff"
     bordercolor="#666666"
     borderopacity="1.0"
     inkscape:pageopacity="0.0"
     inkscape:pageshadow="2"
     inkscape:zoom="13.049334"
     inkscape:cx="18.679046"
     inkscape:cy="12.165829"
     inkscape:document-units="px"
     inkscape:current-layer="layer1"
     showgrid="false"
     inkscape:snap-page="false"
     units="px"
     inkscape:window-width="1884"
     inkscape:window-height="1061"
     inkscape:window-x="0"
     inkscape:window-y="0"
     inkscape:window-maximized="1"
     fit-margin-top="0"
     fit-margin-left="0"
     fit-margin-right="0"
     fit-margin-bottom="0" />
  <metadata
     id="metadata5">
    <rdf:RDF>
      <cc:Work
         rdf:about="">
        <dc:format>image/svg+xml</dc:format>
        <dc:type
           rdf:resource="http://purl.org/dc/dcmitype/StillImage" />
        <dc:title></dc:title>
      </cc:Work>
    </rdf:RDF>
  </metadata>
    <circle
       style="color:#000000;clip-rule:nonzero;display:inline;overflow:visible;visibility:visible;opacity:1;isolation:auto;mix-blend-mode:normal;color-interpolation:sRGB;color-interpolation-filters:linearRGB;solid-color:#000000;solid-opacity:1;vector-effect:none;fill:#00A757;fill-opacity:1;fill-rule:evenodd;stroke:#ffffff;stroke-width:1;stroke-linecap:butt;stroke-linejoin:miter;stroke-miterlimit:4;stroke-dasharray:none;stroke-dashoffset:0;stroke-opacity:1;marker:none;color-rendering:auto;image-rendering:auto;shape-rendering:auto;text-rendering:auto;enable-background:accumulate"
       id="path815"
       cx="15"
       cy="15"
       r="14.5" />
<g transform="translate(9,7)"><g id="surface1">
<path style=" stroke:none;fill-rule:nonzero;fill:#FFFFFF;fill-opacity:1;" d="M 2.105469 5.214844 C 2.125 4.671875 1.667969 4.191406 1.085938 4.140625 C 0.507812 4.089844 0.0195312 4.488281 0 5.03125 C -0.0195312 5.574219 0.4375 6.054688 1.015625 6.105469 C 1.597656 6.15625 2.085938 5.753906 2.105469 5.214844 Z M 2.105469 5.214844 "/>
<path style=" stroke:none;fill-rule:nonzero;fill:#FFFFFF;fill-opacity:1;" d="M 7.570312 0.00390625 C 7.511719 0.00390625 7.410156 0.136719 7.296875 0.335938 C 7.296875 0.351562 7.296875 0.371094 7.300781 0.386719 C 7.316406 0.429688 7.34375 0.46875 7.378906 0.5 C 7.390625 0.511719 7.386719 0.53125 7.375 0.539062 C 7.308594 0.597656 7.234375 0.644531 7.167969 0.707031 C 7.101562 0.769531 7.054688 0.847656 7.03125 0.9375 C 7.003906 1.027344 7.035156 1.140625 6.980469 1.222656 C 6.960938 1.253906 6.929688 1.277344 6.910156 1.308594 C 6.890625 1.34375 6.90625 1.371094 6.929688 1.402344 C 6.9375 1.414062 6.9375 1.433594 6.921875 1.441406 C 6.882812 1.480469 6.84375 1.523438 6.808594 1.570312 C 6.769531 1.617188 6.742188 1.667969 6.71875 1.722656 C 6.707031 1.75 6.699219 1.777344 6.691406 1.804688 C 6.6875 1.824219 6.679688 1.84375 6.675781 1.867188 C 6.664062 1.910156 6.664062 1.957031 6.652344 2.003906 C 6.632812 2.101562 6.539062 2.140625 6.46875 2.191406 C 6.457031 2.199219 6.445312 2.210938 6.433594 2.222656 C 6.40625 2.292969 6.378906 2.363281 6.351562 2.429688 C 6.351562 2.457031 6.351562 2.480469 6.355469 2.503906 C 6.367188 2.570312 6.378906 2.632812 6.378906 2.699219 C 6.375 2.753906 6.363281 2.8125 6.34375 2.863281 C 6.308594 2.96875 6.246094 3.058594 6.183594 3.148438 C 6.121094 3.242188 6.054688 3.332031 6.011719 3.441406 C 5.984375 3.492188 5.964844 3.546875 5.953125 3.601562 C 5.945312 3.648438 5.949219 3.695312 5.957031 3.738281 C 5.972656 3.808594 6 3.871094 6.015625 3.941406 C 6.027344 3.996094 6.027344 4.054688 6.019531 4.113281 C 6.011719 4.160156 5.996094 4.207031 5.980469 4.257812 C 5.980469 4.265625 5.976562 4.273438 5.976562 4.28125 C 6.003906 4.28125 6.097656 4.5 6.070312 4.65625 C 6.042969 4.8125 5.882812 4.84375 5.855469 4.996094 C 5.800781 5.308594 5.855469 5.714844 5.882812 5.992188 C 5.882812 6.003906 5.882812 6.015625 5.882812 6.023438 C 5.574219 6.347656 5.085938 6.851562 4.773438 7.148438 C 4.765625 7.15625 4.75 7.160156 4.742188 7.15625 C 4.730469 7.152344 4.722656 7.140625 4.726562 7.128906 C 4.746094 6.949219 4.761719 6.765625 4.777344 6.585938 C 4.777344 6.578125 4.78125 6.574219 4.789062 6.570312 C 4.855469 6.515625 4.914062 6.457031 4.96875 6.394531 C 4.96875 6.390625 4.972656 6.386719 4.972656 6.378906 L 5.175781 3.671875 C 5.175781 3.671875 5.175781 3.667969 5.179688 3.667969 C 5.582031 2.460938 6.273438 0.363281 6.375 0.0585938 C 6.375 0.0507812 6.375 0.0429688 6.371094 0.0351562 C 6.363281 0.0273438 6.355469 0.0234375 6.347656 0.0234375 L 6.332031 0.0234375 C 6.320312 0.0234375 6.308594 0.03125 6.304688 0.0429688 C 6.207031 0.355469 5.601562 2.171875 5.1875 3.386719 C 5.183594 3.394531 5.175781 3.402344 5.164062 3.402344 C 5.152344 3.40625 5.140625 3.398438 5.136719 3.390625 C 5.121094 3.363281 5.105469 3.339844 5.082031 3.320312 C 5.074219 3.316406 5.070312 3.304688 5.074219 3.296875 C 5.34375 1.671875 5.578125 0.253906 5.617188 0.03125 C 5.621094 0.0195312 5.609375 0.00390625 5.59375 0.00390625 C 5.578125 0 5.566406 0.0078125 5.5625 0.0234375 C 5.523438 0.234375 5.285156 1.636719 5.011719 3.253906 C 5.007812 3.265625 4.996094 3.277344 4.980469 3.273438 C 4.964844 3.273438 4.949219 3.273438 4.933594 3.273438 C 4.773438 3.296875 4.542969 3.441406 4.527344 3.605469 C 4.527344 3.605469 4.023438 5.546875 3.996094 6.140625 C 3.996094 6.148438 3.992188 6.15625 3.988281 6.160156 C 3.980469 6.164062 3.972656 6.167969 3.964844 6.167969 C 3.667969 6.132812 2.808594 6.09375 2.558594 6.148438 C 2.558594 6.148438 2.554688 6.148438 2.554688 6.148438 L 1.375 6.507812 C 0.949219 6.601562 0.757812 7.023438 0.859375 7.324219 C 0.859375 7.324219 0.859375 7.324219 0.859375 7.328125 L 2.355469 10.382812 C 2.816406 11.585938 4.1875 12.183594 5.03125 12.628906 C 5.042969 12.632812 5.046875 12.644531 5.046875 12.65625 C 5.042969 12.664062 5.042969 12.671875 5.042969 12.679688 C 5.042969 12.683594 5.042969 12.683594 5.046875 12.683594 L 5.601562 15.644531 C 5.613281 15.832031 5.910156 15.980469 6.121094 15.996094 C 6.332031 16.015625 6.480469 15.878906 6.46875 15.691406 L 6.257812 12.585938 C 6.257812 12.558594 6.25 12.238281 6.160156 12.167969 L 4.742188 11.058594 C 4.734375 11.050781 4.730469 11.042969 4.730469 11.035156 C 4.730469 11.027344 4.738281 11.019531 4.746094 11.015625 C 5.207031 10.777344 5.746094 10.480469 6.105469 10.210938 C 6.117188 10.203125 6.136719 10.203125 6.144531 10.214844 L 7.796875 12.011719 C 7.910156 12.167969 8.246094 12.15625 8.441406 12.074219 C 8.632812 11.992188 8.6875 11.808594 8.574219 11.652344 L 6.695312 9.078125 C 6.582031 8.921875 6.28125 8.890625 6.023438 9.007812 C 5.988281 9.023438 5.953125 9.042969 5.925781 9.070312 C 5.921875 9.070312 5.921875 9.070312 5.917969 9.074219 L 5.113281 9.507812 C 5.046875 9.300781 4.980469 9.09375 4.917969 8.886719 C 4.945312 8.878906 4.972656 8.875 5 8.871094 C 5.039062 8.863281 5.050781 8.824219 5.046875 8.792969 C 5.035156 8.707031 5.015625 8.621094 4.964844 8.546875 C 4.917969 8.480469 4.847656 8.4375 4.773438 8.402344 C 4.765625 8.375 4.757812 8.351562 4.753906 8.324219 C 4.742188 8.285156 4.730469 8.25 4.722656 8.214844 C 4.785156 8.195312 4.835938 8.15625 4.859375 8.101562 C 4.859375 8.097656 4.863281 8.097656 4.863281 8.097656 L 6.105469 6.691406 C 6.132812 6.742188 6.15625 6.796875 6.179688 6.867188 C 6.234375 6.957031 6.152344 7.113281 6.207031 7.269531 C 6.261719 7.425781 6.449219 7.488281 6.53125 7.707031 C 6.578125 7.882812 6.546875 8.0625 6.5625 8.226562 C 6.570312 8.230469 6.574219 8.230469 6.578125 8.234375 C 6.589844 8.242188 6.597656 8.246094 6.605469 8.253906 C 6.613281 8.246094 6.625 8.242188 6.632812 8.246094 C 6.640625 8.25 6.648438 8.257812 6.644531 8.269531 C 6.683594 8.296875 6.71875 8.320312 6.757812 8.34375 C 6.796875 8.371094 6.828125 8.402344 6.855469 8.4375 C 6.898438 8.496094 6.925781 8.589844 6.992188 8.621094 C 7.070312 8.660156 7.160156 8.636719 7.242188 8.628906 C 7.296875 8.625 7.382812 8.792969 7.394531 8.828125 C 7.433594 8.839844 7.472656 8.851562 7.511719 8.867188 C 7.542969 8.851562 7.570312 8.832031 7.601562 8.835938 C 7.675781 8.847656 7.746094 8.875 7.8125 8.910156 C 7.859375 8.933594 7.898438 8.964844 7.933594 9.003906 C 7.9375 9 7.945312 9 7.949219 9.003906 C 7.957031 9.003906 7.957031 9.007812 7.960938 9.015625 C 7.964844 9.027344 7.96875 9.039062 7.972656 9.050781 C 8.019531 9.226562 8.117188 9.390625 8.089844 9.582031 C 8.140625 9.605469 8.175781 9.640625 8.195312 9.6875 C 8.203125 9.710938 8.207031 9.734375 8.207031 9.757812 C 8.203125 9.785156 8.199219 9.808594 8.191406 9.832031 C 8.179688 9.855469 8.175781 9.886719 8.183594 9.910156 C 8.191406 9.933594 8.203125 9.953125 8.21875 9.96875 C 8.246094 10.003906 8.28125 10.027344 8.3125 10.0625 C 8.34375 10.101562 8.355469 10.148438 8.371094 10.199219 C 8.375 10.222656 8.382812 10.246094 8.398438 10.265625 C 8.414062 10.28125 8.4375 10.277344 8.457031 10.277344 C 8.496094 10.273438 8.550781 10.261719 8.582031 10.300781 C 8.597656 10.316406 8.605469 10.339844 8.609375 10.363281 C 8.613281 10.382812 8.613281 10.398438 8.628906 10.414062 C 8.722656 10.503906 8.832031 10.570312 8.925781 10.652344 C 9.027344 10.738281 9.113281 10.839844 9.175781 10.953125 C 9.1875 10.976562 9.203125 11.003906 9.214844 11.03125 C 9.28125 11.136719 9.324219 11.253906 9.34375 11.375 C 9.363281 11.429688 9.378906 11.480469 9.398438 11.53125 C 9.402344 11.511719 9.367188 11.714844 9.363281 11.789062 C 9.375 11.777344 9.421875 12.015625 9.378906 12.109375 C 9.363281 12.140625 9.34375 12.167969 9.324219 12.191406 C 9.316406 12.242188 9.308594 12.292969 9.304688 12.34375 C 9.320312 12.363281 9.332031 12.378906 9.34375 12.398438 C 9.363281 12.441406 9.375 12.484375 9.378906 12.53125 C 9.382812 12.582031 9.382812 12.632812 9.386719 12.683594 C 9.390625 12.726562 9.390625 12.773438 9.40625 12.808594 C 9.421875 12.84375 9.453125 12.871094 9.472656 12.902344 C 9.503906 12.953125 9.523438 13.011719 9.523438 13.074219 C 9.527344 13.144531 9.515625 13.214844 9.519531 13.28125 C 9.527344 13.339844 9.550781 13.394531 9.582031 13.445312 C 9.609375 13.488281 9.632812 13.53125 9.652344 13.578125 C 9.675781 13.640625 9.679688 13.710938 9.6875 13.78125 C 9.703125 13.894531 9.71875 14.007812 9.734375 14.121094 C 9.742188 14.140625 9.777344 14.238281 9.769531 14.257812 C 9.875 14.71875 9.996094 15.070312 10.019531 15.570312 L 11.996094 15.570312 L 12 0.00390625 C 12 0.00390625 9.097656 0 7.570312 0.00390625 Z M 3.578125 6.949219 L 4.386719 6.710938 C 4.394531 6.707031 4.402344 6.707031 4.410156 6.714844 C 4.417969 6.71875 4.421875 6.730469 4.421875 6.738281 C 4.390625 6.921875 4.359375 7.097656 4.332031 7.261719 C 4.332031 7.273438 4.324219 7.277344 4.316406 7.28125 C 4.308594 7.285156 4.300781 7.285156 4.292969 7.28125 C 4.113281 7.195312 3.851562 7.09375 3.714844 7.03125 C 3.707031 7.027344 3.628906 6.996094 3.558594 6.96875 C 3.558594 6.960938 3.566406 6.953125 3.578125 6.949219 Z M 4.378906 8.515625 C 4.363281 8.4375 4.328125 8.367188 4.28125 8.304688 C 4.292969 8.292969 4.265625 8.3125 4.226562 8.335938 C 4.234375 8.292969 4.242188 8.242188 4.25 8.191406 C 4.253906 8.175781 4.265625 8.167969 4.28125 8.167969 C 4.378906 8.179688 4.453125 8.191406 4.46875 8.191406 C 4.441406 8.289062 4.410156 8.398438 4.378906 8.515625 Z M 4.519531 8.203125 C 4.566406 8.214844 4.617188 8.222656 4.667969 8.222656 C 4.679688 8.277344 4.695312 8.335938 4.710938 8.394531 C 4.703125 8.394531 4.691406 8.402344 4.6875 8.410156 C 4.59375 8.507812 4.496094 8.609375 4.40625 8.710938 C 4.40625 8.6875 4.40625 8.664062 4.402344 8.644531 C 4.445312 8.480469 4.484375 8.328125 4.519531 8.203125 Z M 4.191406 9.1875 L 3.886719 8.128906 C 3.945312 8.132812 4.007812 8.132812 4.015625 8.136719 C 4.058594 8.140625 4.105469 8.144531 4.152344 8.152344 C 4.160156 8.152344 4.167969 8.15625 4.171875 8.164062 C 4.175781 8.167969 4.175781 8.175781 4.175781 8.183594 C 4.164062 8.261719 4.148438 8.332031 4.140625 8.394531 C 4.109375 8.414062 4.082031 8.433594 4.066406 8.445312 C 4.0625 8.449219 4.058594 8.453125 4.058594 8.457031 C 4.03125 8.527344 4.058594 8.65625 4.085938 8.730469 C 4.089844 8.738281 4.097656 8.746094 4.105469 8.746094 C 4.171875 8.757812 4.242188 8.765625 4.3125 8.757812 C 4.304688 8.792969 4.292969 8.824219 4.285156 8.855469 C 4.25 8.898438 4.214844 8.945312 4.179688 8.992188 C 4.164062 9.011719 4.167969 9.042969 4.1875 9.0625 C 4.195312 9.074219 4.207031 9.082031 4.222656 9.085938 C 4.210938 9.121094 4.203125 9.15625 4.191406 9.1875 Z M 5.023438 9.402344 C 5.035156 9.445312 5.050781 9.492188 5.066406 9.535156 L 4.425781 9.878906 C 4.417969 9.882812 4.410156 9.882812 4.402344 9.878906 C 4.394531 9.875 4.386719 9.871094 4.386719 9.863281 C 4.378906 9.828125 4.367188 9.792969 4.355469 9.761719 L 4.226562 9.3125 C 4.25 9.234375 4.269531 9.15625 4.289062 9.074219 C 4.480469 9.011719 4.667969 8.941406 4.863281 8.898438 C 4.914062 9.066406 4.96875 9.234375 5.023438 9.402344 Z M 4.84375 8.609375 C 4.875 8.65625 4.894531 8.707031 4.90625 8.761719 C 4.894531 8.761719 4.886719 8.761719 4.878906 8.765625 C 4.863281 8.707031 4.84375 8.648438 4.828125 8.589844 C 4.832031 8.59375 4.839844 8.601562 4.84375 8.609375 Z M 4.75 8.53125 C 4.75 8.53125 4.753906 8.535156 4.753906 8.535156 C 4.757812 8.550781 4.761719 8.566406 4.765625 8.582031 C 4.785156 8.648438 4.804688 8.710938 4.824219 8.777344 C 4.6875 8.808594 4.550781 8.847656 4.421875 8.898438 C 4.523438 8.769531 4.636719 8.652344 4.75 8.53125 Z M 4.65625 7.246094 C 4.65625 7.253906 4.652344 7.261719 4.648438 7.265625 C 4.578125 7.324219 4.527344 7.367188 4.496094 7.382812 C 4.484375 7.390625 4.472656 7.386719 4.464844 7.378906 C 4.449219 7.367188 4.429688 7.355469 4.414062 7.34375 C 4.402344 7.339844 4.398438 7.328125 4.398438 7.320312 C 4.433594 7.121094 4.46875 6.910156 4.503906 6.6875 C 4.507812 6.679688 4.515625 6.671875 4.523438 6.667969 L 4.707031 6.613281 C 4.710938 6.613281 4.71875 6.609375 4.722656 6.605469 C 4.703125 6.820312 4.679688 7.035156 4.65625 7.246094 Z M 4.65625 7.246094 "/>
</g>
</g>
</svg>
