<?xml version="1.0" encoding="UTF-8" standalone="no"?>
<!-- Created with Inkscape (http://www.inkscape.org/) -->

<svg
   xmlns:dc="http://purl.org/dc/elements/1.1/"
   xmlns:cc="http://creativecommons.org/ns#"
   xmlns:rdf="http://www.w3.org/1999/02/22-rdf-syntax-ns#"
   xmlns:svg="http://www.w3.org/2000/svg"
   xmlns="http://www.w3.org/2000/svg"
   xmlns:xlink="http://www.w3.org/1999/xlink"
   xmlns:sodipodi="http://sodipodi.sourceforge.net/DTD/sodipodi-0.dtd"
   xmlns:inkscape="http://www.inkscape.org/namespaces/inkscape"
   width="30px"
   height="30px"
   version="1.1"
   id="svg8"
   inkscape:version="0.92.4 5da689c313, 2019-01-14"
   sodipodi:docname="container.svg">
  <defs
     id="defs2" />
  <sodipodi:namedview
     id="base"
     pagecolor="#ffffff"
     bordercolor="#666666"
     borderopacity="1.0"
     inkscape:pageopacity="0.0"
     inkscape:pageshadow="2"
     inkscape:zoom="13.049334"
     inkscape:cx="18.679046"
     inkscape:cy="12.165829"
     inkscape:document-units="px"
     inkscape:current-layer="layer1"
     showgrid="false"
     inkscape:snap-page="false"
     units="px"
     inkscape:window-width="1884"
     inkscape:window-height="1061"
     inkscape:window-x="0"
     inkscape:window-y="0"
     inkscape:window-maximized="1"
     fit-margin-top="0"
     fit-margin-left="0"
     fit-margin-right="0"
     fit-margin-bottom="0" />
  <metadata
     id="metadata5">
    <rdf:RDF>
      <cc:Work
         rdf:about="">
        <dc:format>image/svg+xml</dc:format>
        <dc:type
           rdf:resource="http://purl.org/dc/dcmitype/StillImage" />
        <dc:title></dc:title>
      </cc:Work>
    </rdf:RDF>
  </metadata>
    <circle
       style="color:#000000;clip-rule:nonzero;display:inline;overflow:visible;visibility:visible;opacity:1;isolation:auto;mix-blend-mode:normal;color-interpolation:sRGB;color-interpolation-filters:linearRGB;solid-color:#000000;solid-opacity:1;vector-effect:none;fill:#00a19a;fill-opacity:1;fill-rule:evenodd;stroke:#ffffff;stroke-width:1;stroke-linecap:butt;stroke-linejoin:miter;stroke-miterlimit:4;stroke-dasharray:none;stroke-dashoffset:0;stroke-opacity:1;marker:none;color-rendering:auto;image-rendering:auto;shape-rendering:auto;text-rendering:auto;enable-background:accumulate"
       id="path815"
       cx="15"
       cy="15"
       r="14.5" />
<g transform="translate(6,7)"><g id="surface1">
<path style=" stroke:none;fill-rule:nonzero;fill:#FFFFFF;fill-opacity:1;" d="M 13.917969 5.445312 C 13.757812 5.523438 14.050781 5.925781 13.933594 6.328125 C 13.816406 6.730469 13.964844 6.847656 14.363281 6.878906 C 16.042969 7.003906 17.109375 5.984375 16.992188 5.761719 C 16.871094 5.535156 15.457031 5.984375 14.988281 5.835938 C 14.511719 5.6875 14.179688 5.328125 13.917969 5.445312 Z M 13.917969 5.445312 "/>
<path style=" stroke:none;fill-rule:nonzero;fill:#FFFFFF;fill-opacity:1;" d="M 12.730469 4.402344 C 12.210938 3.730469 11.574219 2.003906 10.9375 1.257812 C 9.515625 -0.402344 6.820312 -0.21875 4.925781 0.660156 C 3.960938 1.105469 2.625 2.507812 0.5625 2.332031 C 0.5625 2.332031 0.394531 2.324219 0.0742188 2.292969 L 0.0429688 10.980469 C 0.429688 10.945312 1.027344 10.636719 1.660156 10.457031 C 3.910156 9.820312 4.179688 10.117188 4.214844 10.324219 C 4.246094 10.503906 3.488281 10.757812 3.25 10.832031 C 3.011719 10.90625 2.699219 11.203125 2.238281 11.21875 C 1.78125 11.234375 1.882812 11.113281 1.75 11.070312 C 1.617188 11.023438 1.410156 11.261719 1.140625 11.324219 C 0.875 11.382812 0.863281 11.261719 0.769531 11.308594 C 0.59375 11.398438 0.160156 12.210938 0.015625 12.550781 C -0.00390625 12.597656 -0.00390625 12.65625 0.015625 12.707031 C 0.0390625 12.757812 0.0820312 12.796875 0.132812 12.8125 C 0.277344 12.863281 0.605469 12.757812 0.816406 12.738281 C 1.203125 12.710938 1.359375 11.933594 2.386719 11.933594 C 3.054688 11.933594 4.882812 11.234375 4.984375 11.277344 C 5.089844 11.324219 5.289062 11.546875 5.625 11.800781 C 6.484375 12.457031 6.648438 13.558594 6.675781 14.050781 C 6.707031 14.542969 6.765625 14.796875 6.945312 14.976562 C 7.121094 15.15625 7.125 15.265625 7.242188 15.632812 C 7.332031 15.917969 7.648438 15.710938 8.011719 15.839844 C 8.296875 15.945312 8.511719 15.984375 8.652344 16 C 8.703125 16.003906 8.75 15.988281 8.785156 15.957031 C 8.820312 15.921875 8.839844 15.875 8.839844 15.828125 C 8.832031 15.636719 8.824219 15.351562 8.8125 15.304688 C 8.800781 15.230469 7.789062 14.691406 7.242188 13.886719 C 7.082031 13.65625 6.542969 11.378906 6.390625 10.734375 C 6.382812 10.695312 6.394531 10.65625 6.417969 10.628906 C 6.445312 10.601562 6.484375 10.589844 6.523438 10.597656 L 7.0625 10.667969 C 7.40625 10.652344 7.925781 10.25 8.042969 9.429688 C 8.117188 8.914062 8.265625 8.460938 8.429688 8.296875 C 8.753906 7.96875 8.875 7.402344 9.097656 7.445312 C 9.269531 7.480469 9.230469 8.011719 9.246094 8.308594 C 9.257812 8.609375 9.542969 8.816406 9.601562 8.921875 C 9.660156 9.027344 9.585938 9.382812 9.570312 9.996094 C 9.554688 10.605469 9.839844 11.113281 10.089844 11.171875 C 10.34375 11.234375 11.589844 11.46875 11.722656 11.292969 C 11.960938 10.980469 11.753906 10.398438 11.902344 10.054688 C 11.976562 9.875 12.214844 9.097656 12.390625 8.773438 C 12.582031 8.414062 12.835938 8.125 13.445312 7.101562 C 14.171875 5.878906 13.347656 5.199219 12.730469 4.402344 Z M 10.742188 8.207031 C 10.582031 8.175781 10.714844 7.804688 10.714844 7.804688 C 10.714844 7.804688 11.21875 7.699219 11.292969 7.980469 C 11.339844 8.15625 10.90625 8.234375 10.742188 8.207031 Z M 10.550781 6.789062 C 9.8125 6.507812 9.332031 5.761719 9.570312 5.089844 C 9.808594 4.417969 10.980469 4.820312 10.980469 4.820312 C 11.605469 5.132812 11.289062 5.839844 11.589844 6.117188 C 11.988281 6.492188 13.148438 5.96875 13.238281 6.179688 C 13.34375 6.429688 11.914062 7.3125 10.550781 6.789062 Z M 10.550781 6.789062 "/>
</g>
</g>
</svg>
