<?xml version="1.0" encoding="UTF-8"?>
<svg xmlns="http://www.w3.org/2000/svg" xmlns:xlink="http://www.w3.org/1999/xlink" width="10px" height="10px" viewBox="0 0 10 10" version="1.1">
<g id="surface1">
<path style=" stroke:none;fill-rule:nonzero;fill:rgb(30%,30%,30%);fill-opacity:1;" d="M 9.386719 7.953125 C 9.371094 7.945312 9.234375 8.074219 8.972656 8.109375 C 9.179688 8.242188 9.222656 8.367188 9.230469 8.5 C 9.253906 8.871094 8.738281 9.128906 8.46875 9.128906 L 7.457031 9.128906 C 7.203125 9.128906 6.984375 8.917969 6.972656 8.640625 C 6.972656 8.628906 6.972656 8.613281 6.972656 8.597656 L 6.972656 8.574219 C 6.972656 8.503906 6.996094 8.390625 7.039062 8.265625 L 6.542969 8.265625 C 6.542969 8.265625 6.609375 8.421875 6.609375 8.542969 C 6.605469 8.664062 6.609375 8.558594 6.609375 8.566406 C 6.605469 8.832031 6.386719 9.074219 6.109375 9.125 L 2.867188 9.09375 C 2.363281 8.878906 2.621094 8.472656 2.722656 8.339844 C 2.726562 8.332031 2.730469 8.320312 2.726562 8.3125 C 2.722656 8.300781 2.714844 8.296875 2.703125 8.296875 L 1.695312 8.3125 C 1.695312 8.3125 1.679688 8.527344 1.285156 8.769531 C 0.964844 8.960938 0.617188 9.089844 0.253906 9.144531 C -0.078125 9.199219 -0.0078125 9.546875 0.0664062 9.59375 C 1.078125 10.261719 8.484375 9.910156 8.648438 9.882812 C 8.992188 9.828125 9.363281 9.722656 9.582031 9.582031 C 10.496094 9.019531 9.640625 8.09375 9.386719 7.953125 Z M 9.386719 7.953125 "/>
<path style=" stroke:none;fill-rule:nonzero;fill:rgb(30%,30%,30%);fill-opacity:1;" d="M 9.445312 6.734375 C 9.257812 6.488281 8.921875 6.3125 8.523438 6.257812 C 8.328125 6.230469 8.167969 6.203125 8.035156 6.171875 L 7.976562 6.304688 C 7.972656 6.316406 7.96875 6.324219 7.960938 6.332031 C 7.972656 6.359375 7.976562 6.390625 7.972656 6.421875 C 7.957031 6.519531 7.875 6.59375 7.78125 6.589844 C 7.6875 6.582031 7.617188 6.496094 7.617188 6.394531 C 7.617188 6.3125 7.660156 6.242188 7.730469 6.214844 C 7.734375 6.203125 7.734375 6.195312 7.738281 6.183594 L 7.777344 6.097656 C 7.695312 6.074219 7.617188 6.039062 7.542969 5.996094 C 7.527344 5.984375 7.5 5.96875 7.464844 5.949219 L 7.375 6.117188 C 7.371094 6.125 7.367188 6.128906 7.363281 6.136719 C 7.371094 6.164062 7.371094 6.195312 7.367188 6.222656 C 7.351562 6.316406 7.277344 6.382812 7.191406 6.382812 C 7.105469 6.382812 7.027344 6.3125 7.015625 6.21875 C 7.003906 6.125 7.054688 6.03125 7.136719 6.003906 C 7.140625 5.992188 7.144531 5.984375 7.148438 5.976562 L 7.238281 5.8125 C 7.148438 5.753906 7.042969 5.6875 6.9375 5.613281 C 6.933594 5.621094 6.929688 5.625 6.925781 5.632812 L 6.800781 5.808594 C 6.800781 5.816406 6.800781 5.820312 6.800781 5.828125 C 6.800781 5.929688 6.726562 6.015625 6.632812 6.023438 C 6.539062 6.027344 6.453125 5.953125 6.445312 5.851562 C 6.433594 5.746094 6.5 5.65625 6.59375 5.636719 L 6.71875 5.460938 C 6.625 5.390625 6.53125 5.320312 6.441406 5.246094 L 6.328125 5.371094 C 6.316406 5.382812 6.304688 5.390625 6.289062 5.398438 C 6.304688 5.476562 6.269531 5.558594 6.207031 5.597656 C 6.144531 5.640625 6.0625 5.636719 6.003906 5.585938 C 5.945312 5.535156 5.921875 5.449219 5.945312 5.375 C 5.96875 5.296875 6.03125 5.242188 6.105469 5.242188 C 6.113281 5.214844 6.125 5.191406 6.140625 5.171875 L 6.238281 5.066406 C 6.171875 5 6.109375 4.933594 6.050781 4.871094 L 5.882812 5.054688 C 5.878906 5.058594 5.871094 5.066406 5.867188 5.070312 C 5.859375 5.175781 5.777344 5.253906 5.679688 5.25 C 5.582031 5.242188 5.507812 5.15625 5.507812 5.050781 C 5.511719 4.945312 5.589844 4.863281 5.6875 4.863281 C 5.6875 4.863281 5.691406 4.863281 5.691406 4.863281 C 5.691406 4.859375 5.695312 4.855469 5.699219 4.851562 L 5.867188 4.671875 C 5.871094 4.664062 5.878906 4.660156 5.882812 4.65625 C 5.839844 4.597656 5.796875 4.539062 5.753906 4.472656 C 5.75 4.476562 5.746094 4.480469 5.742188 4.484375 L 5.535156 4.613281 C 5.523438 4.617188 5.511719 4.625 5.5 4.625 C 5.496094 4.707031 5.441406 4.773438 5.371094 4.796875 C 5.300781 4.816406 5.222656 4.789062 5.179688 4.726562 C 5.136719 4.660156 5.132812 4.574219 5.171875 4.507812 C 5.210938 4.4375 5.285156 4.402344 5.355469 4.417969 C 5.367188 4.398438 5.386719 4.378906 5.40625 4.367188 L 5.601562 4.242188 C 5.542969 4.148438 5.480469 4.050781 5.421875 3.953125 C 5.414062 3.960938 5.402344 3.96875 5.394531 3.976562 L 5.1875 4.105469 C 5.175781 4.113281 5.164062 4.117188 5.148438 4.121094 C 5.132812 4.199219 5.074219 4.257812 5 4.269531 C 4.929688 4.28125 4.855469 4.246094 4.820312 4.175781 C 4.78125 4.109375 4.789062 4.023438 4.832031 3.960938 C 4.878906 3.894531 4.953125 3.871094 5.023438 3.890625 C 5.03125 3.878906 5.042969 3.867188 5.058594 3.859375 L 5.261719 3.730469 C 5.269531 3.726562 5.277344 3.722656 5.285156 3.71875 C 5.21875 3.601562 5.152344 3.480469 5.089844 3.367188 C 5.082031 3.375 5.070312 3.386719 5.058594 3.394531 L 4.855469 3.523438 C 4.84375 3.527344 4.828125 3.535156 4.816406 3.539062 C 4.800781 3.613281 4.742188 3.671875 4.667969 3.6875 C 4.597656 3.699219 4.523438 3.660156 4.488281 3.59375 C 4.449219 3.523438 4.457031 3.4375 4.5 3.375 C 4.542969 3.3125 4.621094 3.285156 4.691406 3.308594 C 4.699219 3.296875 4.710938 3.285156 4.722656 3.277344 L 4.929688 3.148438 C 4.941406 3.140625 4.957031 3.136719 4.96875 3.132812 C 4.914062 3.023438 4.867188 2.921875 4.824219 2.828125 C 4.820312 2.832031 4.816406 2.832031 4.816406 2.835938 L 4.609375 2.964844 C 4.601562 2.96875 4.597656 2.96875 4.589844 2.972656 C 4.5625 3.070312 4.464844 3.128906 4.375 3.101562 C 4.3125 3.085938 4.265625 3.035156 4.25 2.96875 C 4.230469 2.90625 4.246094 2.839844 4.28125 2.789062 C 4.320312 2.742188 4.378906 2.714844 4.4375 2.722656 C 4.449219 2.722656 4.457031 2.726562 4.464844 2.726562 C 4.46875 2.722656 4.472656 2.722656 4.480469 2.71875 L 4.683594 2.589844 C 4.695312 2.582031 4.707031 2.578125 4.71875 2.574219 C 4.6875 2.496094 4.667969 2.425781 4.65625 2.378906 C 4.574219 1.890625 4.605469 1.074219 4.695312 0.125 C 4.730469 -0.261719 3.363281 0.332031 2.292969 0.769531 C 2.121094 0.839844 1.582031 0.78125 1.582031 0.78125 C 1.582031 0.78125 1.820312 1.859375 1.710938 2.6875 C 1.582031 3.679688 1.023438 5.070312 0.988281 5.597656 C 0.9375 6.304688 1.199219 6.5625 1.210938 6.664062 C 1.226562 6.769531 1.285156 8.09375 1.535156 8.171875 L 3.226562 8.148438 C 3.269531 8.148438 3.304688 8.109375 3.304688 8.0625 C 3.308594 7.820312 3.316406 7.132812 3.328125 7.089844 C 3.339844 7.039062 3.394531 6.964844 3.671875 7 C 4.574219 7.117188 5.300781 7.746094 5.773438 7.925781 C 6.25 8.109375 6.421875 8.109375 6.632812 8.109375 C 6.847656 8.109375 8.589844 8.070312 9.019531 7.953125 C 9.066406 7.941406 9.3125 7.824219 9.453125 7.632812 C 9.597656 7.4375 9.648438 7 9.445312 6.734375 Z M 4.210938 0.332031 C 4.289062 0.324219 4.359375 0.367188 4.390625 0.441406 C 4.425781 0.515625 4.410156 0.601562 4.355469 0.660156 C 4.304688 0.71875 4.222656 0.734375 4.152344 0.699219 C 4.085938 0.664062 4.042969 0.585938 4.050781 0.503906 C 4.0625 0.414062 4.128906 0.339844 4.210938 0.332031 Z M 4.195312 0.933594 C 4.269531 0.921875 4.34375 0.96875 4.375 1.042969 C 4.410156 1.117188 4.394531 1.203125 4.339844 1.261719 C 4.289062 1.320312 4.207031 1.335938 4.136719 1.300781 C 4.070312 1.265625 4.027344 1.1875 4.035156 1.105469 C 4.046875 1.011719 4.113281 0.941406 4.195312 0.933594 Z M 4.210938 1.550781 C 4.289062 1.542969 4.359375 1.585938 4.390625 1.660156 C 4.425781 1.734375 4.410156 1.820312 4.355469 1.878906 C 4.304688 1.9375 4.222656 1.953125 4.152344 1.917969 C 4.085938 1.882812 4.042969 1.804688 4.050781 1.722656 C 4.0625 1.632812 4.128906 1.558594 4.210938 1.550781 Z M 4.101562 2.300781 C 4.09375 2.21875 4.132812 2.140625 4.199219 2.105469 C 4.269531 2.070312 4.351562 2.085938 4.402344 2.144531 C 4.457031 2.203125 4.472656 2.289062 4.4375 2.363281 C 4.40625 2.4375 4.335938 2.480469 4.257812 2.472656 C 4.175781 2.464844 4.109375 2.390625 4.101562 2.300781 Z M 4.101562 2.300781 "/>
</g>
</svg>
