<?xml version="1.0" encoding="UTF-8"?>
<svg xmlns="http://www.w3.org/2000/svg" xmlns:xlink="http://www.w3.org/1999/xlink" width="10px" height="10px" viewBox="0 0 10 10" version="1.1">
<g id="surface1">
<path style=" stroke:none;fill-rule:nonzero;fill:rgb(30%,30%,30%);fill-opacity:1;" d="M 9.007812 0.945312 C 7.683594 -0.3125 5.539062 -0.3125 4.21875 0.945312 C 3.726562 1.410156 3.328125 2.074219 3.085938 2.789062 L 7.082031 6.582031 C 7.828125 6.34375 8.519531 5.960938 9.007812 5.496094 C 10.332031 4.238281 10.332031 2.203125 9.007812 0.945312 Z M 9.007812 0.945312 "/>
<path style=" stroke:none;fill-rule:nonzero;fill:rgb(30%,30%,30%);fill-opacity:1;" d="M 3.125 5.59375 L 0 8.0625 C 0.03125 8.09375 1.484375 9.472656 1.515625 9.503906 L 4.101562 6.550781 C 4.777344 6.882812 5.644531 6.914062 6.492188 6.738281 L 2.933594 3.355469 C 2.765625 4.148438 2.800781 4.953125 3.125 5.59375 Z M 3.125 5.59375 "/>
<path style=" stroke:none;fill-rule:nonzero;fill:rgb(30%,30%,30%);fill-opacity:1;" d="M 4.625 8.460938 C 4.25 8.816406 4.246094 9.390625 4.613281 9.738281 C 4.980469 10.089844 5.582031 10.082031 5.960938 9.726562 C 6.335938 9.367188 6.339844 8.796875 5.972656 8.445312 C 5.605469 8.097656 5.003906 8.101562 4.625 8.460938 Z M 4.625 8.460938 "/>
</g>
</svg>
