<?xml version="1.0" encoding="UTF-8" standalone="no"?>
<!-- Created with Inkscape (http://www.inkscape.org/) -->

<svg
   xmlns:dc="http://purl.org/dc/elements/1.1/"
   xmlns:cc="http://creativecommons.org/ns#"
   xmlns:rdf="http://www.w3.org/1999/02/22-rdf-syntax-ns#"
   xmlns:svg="http://www.w3.org/2000/svg"
   xmlns="http://www.w3.org/2000/svg"
   xmlns:xlink="http://www.w3.org/1999/xlink"
   xmlns:sodipodi="http://sodipodi.sourceforge.net/DTD/sodipodi-0.dtd"
   xmlns:inkscape="http://www.inkscape.org/namespaces/inkscape"
   width="30px"
   height="30px"
   version="1.1"
   id="svg8"
   inkscape:version="0.92.4 5da689c313, 2019-01-14"
   sodipodi:docname="container.svg">
  <defs
     id="defs2" />
  <sodipodi:namedview
     id="base"
     pagecolor="#ffffff"
     bordercolor="#666666"
     borderopacity="1.0"
     inkscape:pageopacity="0.0"
     inkscape:pageshadow="2"
     inkscape:zoom="13.049334"
     inkscape:cx="18.679046"
     inkscape:cy="12.165829"
     inkscape:document-units="px"
     inkscape:current-layer="layer1"
     showgrid="false"
     inkscape:snap-page="false"
     units="px"
     inkscape:window-width="1884"
     inkscape:window-height="1061"
     inkscape:window-x="0"
     inkscape:window-y="0"
     inkscape:window-maximized="1"
     fit-margin-top="0"
     fit-margin-left="0"
     fit-margin-right="0"
     fit-margin-bottom="0" />
  <metadata
     id="metadata5">
    <rdf:RDF>
      <cc:Work
         rdf:about="">
        <dc:format>image/svg+xml</dc:format>
        <dc:type
           rdf:resource="http://purl.org/dc/dcmitype/StillImage" />
        <dc:title></dc:title>
      </cc:Work>
    </rdf:RDF>
  </metadata>
    <circle
       style="color:#000000;clip-rule:nonzero;display:inline;overflow:visible;visibility:visible;opacity:1;isolation:auto;mix-blend-mode:normal;color-interpolation:sRGB;color-interpolation-filters:linearRGB;solid-color:#000000;solid-opacity:1;vector-effect:none;fill:#ffffff;fill-opacity:1;fill-rule:evenodd;stroke:#00A757;stroke-width:1;stroke-linecap:butt;stroke-linejoin:miter;stroke-miterlimit:4;stroke-dasharray:none;stroke-dashoffset:0;stroke-opacity:1;marker:none;color-rendering:auto;image-rendering:auto;shape-rendering:auto;text-rendering:auto;enable-background:accumulate"
       id="path815"
       cx="15"
       cy="15"
       r="14.5" />
<g transform="translate(6,7)"><g id="surface1">
<path style=" stroke:none;fill-rule:evenodd;fill:rgb(30%,30%,30%);fill-opacity:1;" d="M 16.710938 0.613281 C 16.71875 0.488281 16.761719 0.484375 16.710938 0.375 C 16.511719 0.375 16.410156 0.195312 16.210938 0.136719 C 16.015625 0.0820312 15.769531 0.167969 15.632812 0 C 15.570312 0.132812 15.417969 0.164062 15.238281 0.101562 C 15.191406 0.386719 14.824219 0.367188 14.84375 0.71875 C 14.78125 0.714844 14.730469 0.726562 14.699219 0.75 C 14.671875 0.855469 14.796875 0.816406 14.773438 0.921875 C 14.738281 1.015625 14.59375 1.003906 14.59375 1.125 C 14.804688 1.195312 14.816406 1.460938 14.878906 1.671875 C 15.097656 1.75 15.15625 1.980469 15.382812 2.046875 C 15.09375 2.148438 14.855469 2.296875 14.84375 2.660156 C 15.621094 3.027344 15.667969 1.78125 16.496094 1.980469 C 16.660156 1.621094 17.054688 1.304688 16.820312 0.855469 C 16.867188 0.769531 17 0.777344 17 0.648438 C 16.914062 0.628906 16.738281 0.691406 16.710938 0.613281 Z M 4.925781 12.894531 C 4.769531 12.871094 4.777344 13.003906 4.636719 12.996094 C 4.46875 12.941406 4.453125 12.738281 4.386719 12.585938 C 4.238281 12.5625 4.261719 12.695312 4.097656 12.65625 C 3.988281 12.609375 3.949219 12.5 3.882812 12.417969 C 3.550781 12.480469 3.480469 12.296875 3.304688 12.210938 C 3.242188 12.265625 3.230469 12.367188 3.125 12.382812 C 2.785156 12.246094 2.742188 12.675781 2.371094 12.519531 C 2.253906 12.90625 1.9375 13.128906 1.472656 13.097656 C 1.460938 13.304688 1.714844 13.253906 1.761719 13.40625 C 1.824219 13.703125 1.648438 13.773438 1.617188 13.984375 C 1.738281 14.175781 1.824219 14.457031 1.867188 14.804688 C 2.054688 14.796875 2.085938 14.9375 2.15625 15.042969 C 2.347656 15.019531 2.472656 15.0625 2.515625 15.179688 C 2.554688 15.363281 2.441406 15.40625 2.445312 15.554688 C 2.613281 15.476562 2.746094 15.363281 2.984375 15.351562 C 3.140625 15.460938 3.246094 15.621094 3.59375 15.554688 C 3.613281 15.449219 3.679688 15.386719 3.773438 15.351562 C 3.882812 15.394531 3.871094 15.554688 4.027344 15.554688 C 4.144531 15.488281 3.964844 15.167969 4.203125 15.144531 C 4.355469 15.136719 4.316406 15.3125 4.492188 15.28125 C 4.53125 15.125 4.53125 15.0625 4.492188 14.90625 C 4.730469 14.769531 4.78125 15.074219 4.925781 15.007812 C 4.921875 14.863281 4.746094 14.882812 4.746094 14.734375 C 4.90625 14.527344 4.691406 14.125 4.925781 13.953125 C 5.082031 13.875 5.601562 14.054688 5.824219 13.882812 C 5.101562 14.070312 4.527344 13.464844 4.925781 12.894531 Z M 15.203125 3.171875 L 15.203125 3.035156 C 15.003906 2.976562 15.035156 3 14.84375 3.105469 C 14.707031 3.007812 14.613281 3.082031 14.484375 3.003906 C 14.421875 3.148438 14.320312 3.257812 14.054688 3.207031 C 13.925781 3.488281 13.582031 3.695312 13.585938 4.058594 C 13.585938 4.25 13.796875 4.441406 13.65625 4.605469 C 13.0625 4.011719 11.652344 4.636719 10.925781 4.433594 C 11.019531 4.171875 11.15625 3.949219 11.25 3.683594 C 11.382812 3.652344 11.542969 3.503906 11.429688 3.34375 C 10.945312 3.5 10.957031 4.125 10.457031 4.265625 C 10.265625 4.058594 10.046875 4 9.8125 3.785156 C 9.785156 3.285156 9.535156 3.039062 9.34375 2.730469 C 9.265625 2.601562 9.296875 2.421875 9.09375 2.421875 C 9.074219 2.46875 9.035156 2.507812 8.984375 2.523438 C 8.957031 2.722656 9.085938 2.769531 9.058594 2.96875 C 8.6875 3.160156 8.0625 2.914062 7.65625 2.730469 C 7.613281 2.941406 7.738281 2.992188 7.726562 3.171875 C 7.351562 3.355469 7.117188 3.09375 6.757812 3.242188 C 6.558594 3.121094 6.484375 2.886719 6.21875 2.832031 C 5.976562 2.640625 5.945312 2.25 5.644531 2.117188 C 5.632812 2.347656 5.753906 2.375 5.859375 2.523438 C 5.976562 2.695312 6.09375 2.992188 6.21875 3.140625 C 6.382812 3.328125 6.589844 3.394531 6.578125 3.582031 C 6.558594 3.839844 6.242188 3.855469 6.003906 3.992188 C 5.777344 4.9375 4.640625 4.644531 3.84375 4.402344 C 4.308594 4.628906 4.917969 4.726562 5.320312 5.015625 C 5.054688 5.21875 4.804688 5.433594 4.636719 5.730469 C 4.425781 5.714844 4.371094 5.550781 4.097656 5.59375 C 4.066406 5.785156 4.292969 5.730469 4.347656 5.832031 C 3.792969 5.957031 3.5625 5.492188 2.945312 5.59375 C 2.9375 5.546875 2.886719 5.539062 2.875 5.492188 C 2.851562 5.367188 2.953125 5.363281 2.945312 5.253906 C 2.789062 5.140625 2.664062 4.980469 2.695312 4.777344 C 2.441406 4.664062 2.226562 4.519531 2.191406 4.195312 C 2.015625 4.164062 2.09375 4.378906 1.90625 4.332031 C 1.808594 4.050781 1.628906 4.238281 1.367188 4.128906 C 1.324219 4.179688 1.320312 4.269531 1.257812 4.296875 C 0.871094 4.214844 0.867188 4.496094 0.648438 4.570312 C 0.402344 4.484375 0.285156 4.296875 0 4.402344 C 0.0117188 4.585938 0.339844 4.464844 0.394531 4.605469 C 0.265625 4.925781 0.167969 5.277344 0 5.5625 C 0.148438 5.648438 0.234375 5.851562 0.144531 6.070312 C 0.367188 6.265625 0.59375 6.492188 0.683594 6.71875 C 0.8125 6.742188 0.820312 6.644531 0.933594 6.652344 C 1.046875 6.726562 1.15625 6.804688 1.1875 6.960938 C 1.535156 6.78125 1.925781 6.796875 2.300781 6.71875 C 2.359375 6.675781 2.3125 6.527344 2.371094 6.480469 C 2.472656 6.472656 2.566406 6.449219 2.660156 6.414062 C 2.75 6.371094 2.625 6.246094 2.695312 6.242188 C 3.1875 6.304688 3.960938 6.238281 4.347656 6.550781 C 4.460938 6.917969 4.542969 7.28125 4.347656 7.640625 C 4.285156 7.683594 4.109375 7.613281 3.953125 7.640625 C 3.863281 7.613281 3.890625 7.472656 3.773438 7.472656 C 3.144531 7.578125 2.710938 7.875 2.515625 8.390625 C 2.554688 8.570312 2.585938 8.757812 2.585938 8.972656 C 2.757812 9.308594 3.144531 9.445312 3.378906 9.722656 C 3.453125 9.582031 3.722656 9.605469 3.84375 9.6875 C 4.25 9.492188 4.648438 9.289062 4.78125 8.835938 C 5.320312 8.835938 5.335938 9.332031 5.679688 9.515625 C 5.582031 10.027344 5.417969 10.472656 5.285156 10.949219 C 5.546875 10.75 5.648438 10.332031 5.714844 9.859375 C 5.863281 9.816406 5.964844 9.734375 6.109375 9.6875 C 6.199219 9.773438 6.351562 9.796875 6.363281 9.960938 C 6.363281 10.089844 6.230469 10.085938 6.21875 10.199219 C 6.636719 10.15625 7.308594 10.117188 7.261719 10.746094 C 7.464844 10.804688 7.394531 10.601562 7.546875 10.609375 C 7.890625 10.84375 7.964844 11.816406 7.761719 12.144531 C 7.546875 11.890625 7.578125 11.488281 7.152344 11.53125 C 6.730469 11.570312 6.652344 12.148438 6.9375 12.484375 C 7.304688 12.601562 7.632812 12.824219 7.835938 12.417969 C 8.214844 12.734375 7.976562 13.503906 7.621094 13.710938 C 7.472656 13.742188 7.328125 13.777344 7.296875 13.917969 C 7.324219 13.925781 7.335938 13.945312 7.332031 13.984375 C 7.460938 14.054688 7.71875 14.003906 7.90625 14.019531 C 8.003906 14.1875 8.144531 14.316406 8.160156 14.566406 C 8.058594 14.675781 7.753906 14.769531 7.835938 14.941406 C 7.929688 14.765625 8.320312 14.714844 8.519531 14.839844 C 8.53125 14.960938 8.566406 15.066406 8.589844 15.179688 C 8.847656 15.269531 9.054688 15.492188 9.378906 15.417969 C 9.472656 15.523438 9.429688 15.757812 9.558594 15.828125 C 9.769531 15.84375 9.703125 15.601562 9.917969 15.621094 C 10.003906 15.726562 9.882812 16.019531 10.097656 15.996094 C 10.246094 15.953125 10.179688 15.710938 10.277344 15.621094 C 10.578125 15.546875 10.753906 15.628906 11.035156 15.621094 C 11.074219 15.671875 11.078125 15.761719 11.140625 15.792969 C 11.164062 15.730469 11.035156 15.652344 11.140625 15.621094 C 11.292969 15.628906 11.300781 15.765625 11.5 15.726562 C 11.496094 15.578125 11.429688 15.476562 11.5 15.351562 C 12.191406 15.3125 12.257812 14.679688 12.617188 14.328125 C 13.054688 14.25 13.347656 14.496094 13.621094 14.464844 C 13.496094 14.390625 13.289062 14.390625 13.226562 14.257812 C 13.300781 14.167969 13.488281 14.128906 13.40625 13.984375 C 13.175781 13.972656 13.105469 14.109375 12.976562 14.191406 C 12.859375 14.117188 12.632812 14.152344 12.578125 14.019531 C 12.539062 13.765625 12.699219 13.703125 12.796875 13.574219 C 12.765625 13.410156 12.644531 13.332031 12.652344 13.132812 C 12.675781 12.996094 12.914062 13.0625 12.902344 12.894531 C 12.894531 12.753906 12.667969 12.820312 12.578125 12.757812 C 12.535156 12.507812 12.597656 12.480469 12.617188 12.246094 C 12.371094 12.179688 12.15625 12.089844 12.183594 11.769531 C 11.902344 11.730469 11.65625 11.65625 11.679688 11.324219 C 11.617188 11.238281 11.445312 11.253906 11.394531 11.15625 C 11.433594 11.144531 11.515625 11.003906 11.429688 10.984375 C 11.347656 11.191406 10.933594 11.039062 10.816406 10.949219 C 10.679688 10.976562 10.679688 11.136719 10.496094 11.121094 C 10.480469 11.054688 10.417969 11.035156 10.421875 10.949219 C 10.671875 10.789062 11.164062 10.859375 11.429688 10.710938 C 11.425781 10.34375 11.246094 9.984375 11.464844 9.621094 C 11.5 9.621094 11.507812 9.59375 11.535156 9.585938 C 11.59375 9.644531 11.6875 9.671875 11.824219 9.652344 C 12.140625 10.078125 12.691406 10.085938 13.117188 10.371094 C 12.886719 9.972656 11.90625 9.996094 12.039062 9.140625 C 11.804688 9.089844 11.855469 9.449219 11.679688 9.347656 C 11.761719 9.070312 12.078125 9.015625 12.21875 8.800781 C 13.089844 8.5625 13.652344 9.3125 14.484375 9.039062 C 14.726562 8.097656 12.933594 8.292969 12.867188 7.605469 C 12.824219 7.183594 13.230469 7.3125 13.515625 7.199219 C 13.425781 6.925781 13 7.136719 12.867188 6.960938 C 12.851562 6.660156 13.15625 6.667969 13.335938 6.550781 C 13.277344 6.21875 13.554688 6.191406 13.695312 5.96875 C 13.605469 5.792969 13.273438 5.84375 13.226562 5.628906 C 13.421875 5.359375 13.703125 4.78125 14.160156 5.082031 C 14.367188 4.925781 14.507812 5.089844 14.664062 5.21875 C 14.792969 5.066406 14.933594 5.148438 15.132812 5.183594 C 15.371094 4.890625 15.949219 4.664062 15.742188 4.164062 C 15.753906 4.027344 15.890625 4.007812 15.886719 3.855469 C 15.621094 3.660156 15.59375 3.246094 15.203125 3.171875 Z M 9.523438 10.984375 C 9.632812 10.949219 9.859375 10.972656 9.847656 11.15625 C 9.714844 11.238281 9.546875 11.113281 9.523438 10.984375 Z M 11.898438 9.347656 C 12.0625 9.402344 12.0625 9.621094 12.148438 9.757812 C 11.972656 9.714844 11.710938 9.523438 11.898438 9.347656 Z M 11.898438 9.347656 "/>
</g>
</g>
</svg>
