<?xml version="1.0" encoding="UTF-8" standalone="no"?>
<!-- Created with Inkscape (http://www.inkscape.org/) -->

<svg
   xmlns:dc="http://purl.org/dc/elements/1.1/"
   xmlns:cc="http://creativecommons.org/ns#"
   xmlns:rdf="http://www.w3.org/1999/02/22-rdf-syntax-ns#"
   xmlns:svg="http://www.w3.org/2000/svg"
   xmlns="http://www.w3.org/2000/svg"
   xmlns:xlink="http://www.w3.org/1999/xlink"
   xmlns:sodipodi="http://sodipodi.sourceforge.net/DTD/sodipodi-0.dtd"
   xmlns:inkscape="http://www.inkscape.org/namespaces/inkscape"
   width="30px"
   height="30px"
   version="1.1"
   id="svg8"
   inkscape:version="0.92.4 5da689c313, 2019-01-14"
   sodipodi:docname="container.svg">
  <defs
     id="defs2" />
  <sodipodi:namedview
     id="base"
     pagecolor="#ffffff"
     bordercolor="#666666"
     borderopacity="1.0"
     inkscape:pageopacity="0.0"
     inkscape:pageshadow="2"
     inkscape:zoom="13.049334"
     inkscape:cx="18.679046"
     inkscape:cy="12.165829"
     inkscape:document-units="px"
     inkscape:current-layer="layer1"
     showgrid="false"
     inkscape:snap-page="false"
     units="px"
     inkscape:window-width="1884"
     inkscape:window-height="1061"
     inkscape:window-x="0"
     inkscape:window-y="0"
     inkscape:window-maximized="1"
     fit-margin-top="0"
     fit-margin-left="0"
     fit-margin-right="0"
     fit-margin-bottom="0" />
  <metadata
     id="metadata5">
    <rdf:RDF>
      <cc:Work
         rdf:about="">
        <dc:format>image/svg+xml</dc:format>
        <dc:type
           rdf:resource="http://purl.org/dc/dcmitype/StillImage" />
        <dc:title></dc:title>
      </cc:Work>
    </rdf:RDF>
  </metadata>
    <circle
       style="color:#000000;clip-rule:nonzero;display:inline;overflow:visible;visibility:visible;opacity:1;isolation:auto;mix-blend-mode:normal;color-interpolation:sRGB;color-interpolation-filters:linearRGB;solid-color:#000000;solid-opacity:1;vector-effect:none;fill:#00A757;fill-opacity:1;fill-rule:evenodd;stroke:#ffffff;stroke-width:1;stroke-linecap:butt;stroke-linejoin:miter;stroke-miterlimit:4;stroke-dasharray:none;stroke-dashoffset:0;stroke-opacity:1;marker:none;color-rendering:auto;image-rendering:auto;shape-rendering:auto;text-rendering:auto;enable-background:accumulate"
       id="path815"
       cx="15"
       cy="15"
       r="14.5" />
<g transform="translate(7,7)"><g id="surface1">
<path style=" stroke:none;fill-rule:nonzero;fill:#FFFFFF;fill-opacity:1;" d="M 3.980469 1.085938 C 3.980469 1.683594 3.476562 2.167969 2.855469 2.167969 C 2.238281 2.167969 1.734375 1.683594 1.734375 1.085938 C 1.734375 0.484375 2.238281 0 2.855469 0 C 3.476562 0 3.980469 0.484375 3.980469 1.085938 Z M 15.550781 3.160156 L 8.070312 3.160156 L 8.070312 3.570312 L 15.550781 3.570312 Z M 14.605469 14.960938 C 14.347656 14.949219 14.09375 14.785156 13.800781 14.597656 C 13.367188 14.320312 12.878906 14.003906 12.214844 14.078125 C 11.78125 14.125 11.46875 14.34375 11.164062 14.550781 C 10.828125 14.785156 10.507812 15.003906 9.996094 14.992188 C 9.71875 14.984375 9.445312 14.820312 9.128906 14.636719 C 8.664062 14.359375 8.136719 14.050781 7.40625 14.105469 C 6.988281 14.140625 6.660156 14.34375 6.339844 14.539062 C 5.984375 14.753906 5.652344 14.960938 5.175781 14.960938 C 4.882812 14.960938 4.597656 14.792969 4.261719 14.597656 C 3.839844 14.347656 3.363281 14.070312 2.78125 14.105469 C 2.363281 14.132812 1.960938 14.355469 1.570312 14.566406 C 1.203125 14.769531 0.859375 14.960938 0.546875 14.960938 C 0.359375 14.957031 0.175781 14.921875 0.00390625 14.859375 L 0.0117188 15.890625 C 0.183594 15.941406 0.363281 15.96875 0.546875 15.96875 C 0.984375 15.96875 1.40625 15.738281 1.8125 15.511719 C 2.167969 15.316406 2.503906 15.132812 2.8125 15.113281 C 3.242188 15.085938 3.613281 15.304688 4.007812 15.53125 C 4.371094 15.746094 4.75 15.96875 5.175781 15.96875 C 5.789062 15.96875 6.222656 15.703125 6.605469 15.46875 C 6.894531 15.292969 7.144531 15.136719 7.445312 15.113281 C 8.019531 15.066406 8.453125 15.324219 8.871094 15.570312 C 9.21875 15.777344 9.578125 15.988281 9.984375 16 C 10.003906 16 10.023438 16 10.046875 16 C 10.683594 16 11.09375 15.714844 11.460938 15.464844 C 11.730469 15.277344 11.960938 15.117188 12.265625 15.082031 C 12.757812 15.027344 13.128906 15.269531 13.523438 15.523438 C 13.855469 15.734375 14.195312 15.953125 14.585938 15.96875 C 14.613281 15.96875 14.640625 15.96875 14.667969 15.96875 C 15.199219 15.96875 15.675781 15.757812 15.996094 15.570312 L 15.996094 14.460938 C 15.824219 14.59375 15.25 14.984375 14.605469 14.960938 Z M 14.605469 13.054688 C 14.347656 13.042969 14.09375 12.882812 13.800781 12.691406 C 13.367188 12.414062 12.878906 12.097656 12.214844 12.171875 C 11.78125 12.21875 11.46875 12.4375 11.164062 12.644531 C 10.828125 12.878906 10.507812 13.097656 9.996094 13.085938 C 9.71875 13.078125 9.445312 12.917969 9.128906 12.730469 C 9.070312 12.695312 9.003906 12.65625 8.941406 12.621094 C 8.941406 12.621094 14.179688 11.503906 14.261719 11.484375 C 14.726562 11.382812 15.410156 10.664062 15.410156 10.664062 C 15.574219 10.527344 15.746094 10.1875 15.601562 10.03125 L 15.5 9.917969 C 15.359375 9.800781 15.1875 9.757812 14.945312 10.023438 L 14.488281 10.503906 C 14.433594 10.554688 14.339844 10.617188 14.214844 10.695312 C 14.207031 10.703125 14.050781 10.796875 14.039062 10.796875 L 13.601562 10.90625 L 7.820312 12.117188 C 7.820312 12.117188 6.953125 7.691406 6.914062 7.644531 C 6.871094 7.425781 6.78125 7.257812 6.589844 7.152344 L 4.941406 6.230469 C 4.9375 6.1875 4.929688 6.140625 4.917969 6.097656 L 4.3125 3.734375 L 7.101562 3.734375 C 7.464844 3.734375 7.769531 3.449219 7.765625 3.097656 C 7.757812 2.753906 7.46875 2.480469 7.117188 2.480469 L 2.804688 2.480469 C 2.398438 2.566406 2.070312 2.847656 1.929688 3.226562 C 1.9375 3.265625 1.804688 3.554688 1.90625 4.046875 C 1.90625 4.046875 2.5625 6.675781 2.566406 6.6875 C 2.597656 6.914062 2.695312 7.140625 2.914062 7.261719 L 5.613281 8.769531 L 6.507812 12.53125 C 6.449219 12.566406 6.394531 12.597656 6.339844 12.632812 C 5.984375 12.851562 5.652344 13.054688 5.175781 13.054688 C 4.882812 13.054688 4.597656 12.886719 4.261719 12.691406 C 3.839844 12.445312 3.363281 12.164062 2.78125 12.203125 C 2.363281 12.230469 1.960938 12.449219 1.570312 12.664062 C 1.203125 12.863281 0.859375 13.054688 0.546875 13.054688 C 0.359375 13.050781 0.175781 13.015625 0.00390625 12.953125 L 0.0117188 13.988281 C 0.183594 14.035156 0.363281 14.0625 0.546875 14.0625 C 0.984375 14.0625 1.40625 13.832031 1.8125 13.605469 C 2.167969 13.414062 2.503906 13.230469 2.8125 13.207031 C 3.242188 13.179688 3.613281 13.398438 4.007812 13.628906 C 4.371094 13.839844 4.75 14.0625 5.175781 14.0625 C 5.789062 14.0625 6.222656 13.796875 6.605469 13.5625 C 6.894531 13.386719 7.144531 13.234375 7.445312 13.207031 C 8.019531 13.164062 8.453125 13.417969 8.871094 13.664062 C 9.21875 13.871094 9.578125 14.082031 9.984375 14.09375 C 10.003906 14.09375 10.023438 14.09375 10.046875 14.09375 C 10.683594 14.09375 11.09375 13.808594 11.460938 13.558594 C 11.730469 13.371094 11.960938 13.210938 12.265625 13.175781 C 12.757812 13.125 13.128906 13.363281 13.523438 13.617188 C 13.855469 13.828125 14.195312 14.046875 14.585938 14.0625 C 14.613281 14.0625 14.640625 14.0625 14.667969 14.0625 C 15.199219 14.0625 15.675781 13.851562 15.996094 13.664062 L 15.996094 12.554688 C 15.824219 12.6875 15.25 13.082031 14.605469 13.054688 Z M 14.605469 13.054688 "/>
</g>
</g>
</svg>
