<?xml version="1.0" encoding="UTF-8" standalone="no"?>
<!-- Created with Inkscape (http://www.inkscape.org/) -->

<svg
   xmlns:dc="http://purl.org/dc/elements/1.1/"
   xmlns:cc="http://creativecommons.org/ns#"
   xmlns:rdf="http://www.w3.org/1999/02/22-rdf-syntax-ns#"
   xmlns:svg="http://www.w3.org/2000/svg"
   xmlns="http://www.w3.org/2000/svg"
   xmlns:xlink="http://www.w3.org/1999/xlink"
   xmlns:sodipodi="http://sodipodi.sourceforge.net/DTD/sodipodi-0.dtd"
   xmlns:inkscape="http://www.inkscape.org/namespaces/inkscape"
   width="30px"
   height="30px"
   version="1.1"
   id="svg8"
   inkscape:version="0.92.4 5da689c313, 2019-01-14"
   sodipodi:docname="container.svg">
  <defs
     id="defs2" />
  <sodipodi:namedview
     id="base"
     pagecolor="#ffffff"
     bordercolor="#666666"
     borderopacity="1.0"
     inkscape:pageopacity="0.0"
     inkscape:pageshadow="2"
     inkscape:zoom="13.049334"
     inkscape:cx="18.679046"
     inkscape:cy="12.165829"
     inkscape:document-units="px"
     inkscape:current-layer="layer1"
     showgrid="false"
     inkscape:snap-page="false"
     units="px"
     inkscape:window-width="1884"
     inkscape:window-height="1061"
     inkscape:window-x="0"
     inkscape:window-y="0"
     inkscape:window-maximized="1"
     fit-margin-top="0"
     fit-margin-left="0"
     fit-margin-right="0"
     fit-margin-bottom="0" />
  <metadata
     id="metadata5">
    <rdf:RDF>
      <cc:Work
         rdf:about="">
        <dc:format>image/svg+xml</dc:format>
        <dc:type
           rdf:resource="http://purl.org/dc/dcmitype/StillImage" />
        <dc:title></dc:title>
      </cc:Work>
    </rdf:RDF>
  </metadata>
    <circle
       style="color:#000000;clip-rule:nonzero;display:inline;overflow:visible;visibility:visible;opacity:1;isolation:auto;mix-blend-mode:normal;color-interpolation:sRGB;color-interpolation-filters:linearRGB;solid-color:#000000;solid-opacity:1;vector-effect:none;fill:#00A757;fill-opacity:1;fill-rule:evenodd;stroke:#ffffff;stroke-width:1;stroke-linecap:butt;stroke-linejoin:miter;stroke-miterlimit:4;stroke-dasharray:none;stroke-dashoffset:0;stroke-opacity:1;marker:none;color-rendering:auto;image-rendering:auto;shape-rendering:auto;text-rendering:auto;enable-background:accumulate"
       id="path815"
       cx="15"
       cy="15"
       r="14.5" />
<g transform="translate(7,6)"><g id="surface1">
<path style=" stroke:none;fill-rule:nonzero;fill:#FFFFFF;fill-opacity:1;" d="M 16 4.890625 C 16 7.589844 13.804688 9.777344 11.09375 9.777344 C 8.382812 9.777344 6.1875 7.589844 6.1875 4.890625 C 6.1875 2.191406 8.382812 0.00390625 11.09375 0.00390625 C 13.804688 0.00390625 16 2.191406 16 4.890625 Z M 16 4.890625 "/>
<path style=" stroke:none;fill-rule:nonzero;fill:#FFFFFF;fill-opacity:1;" d="M 2.753906 2.65625 C -1.238281 8.035156 0.742188 9.511719 1.992188 9.914062 C 2.484375 10.074219 3.015625 10.074219 3.507812 9.917969 C 4.757812 9.519531 6.761719 8.050781 2.753906 2.65625 Z M 2.753906 2.65625 "/>
<path style=" stroke:none;fill-rule:nonzero;fill:#FFFFFF;fill-opacity:1;" d="M 14.851562 13.3125 C 14.851562 15.347656 11.527344 16.996094 7.425781 16.996094 C 3.324219 16.996094 0 15.347656 0 13.3125 C 0 12.257812 0.898438 11.304688 2.335938 10.632812 C 2.386719 10.609375 2.246094 11.875 2.246094 11.875 L 3.253906 11.894531 L 3.117188 10.316406 C 3.117188 10.316406 4.898438 9.585938 7.425781 9.632812 C 8.445312 9.652344 9.417969 9.734375 10.300781 9.917969 C 10.304688 9.921875 9.671875 13.964844 9.671875 13.964844 L 12.167969 13.964844 C 12.167969 13.964844 11.761719 10.324219 11.835938 10.351562 C 13.664062 11.023438 14.851562 12.101562 14.851562 13.3125 Z M 14.851562 13.3125 "/>
</g>
</g>
</svg>
