<?xml version="1.0" encoding="UTF-8"?>
<svg xmlns="http://www.w3.org/2000/svg" xmlns:xlink="http://www.w3.org/1999/xlink" width="11px" height="10px" viewBox="0 0 11 10" version="1.1">
<g id="surface1">
<path style=" stroke:none;fill-rule:nonzero;fill:rgb(30%,30%,30%);fill-opacity:1;" d="M 9.890625 1.25 C 9.558594 0.898438 7.984375 -0.578125 5.949219 0.253906 C 3.664062 1.179688 3.335938 4.746094 3.25 5.15625 C 3.167969 5.539062 2.992188 6.582031 2.730469 6.914062 C 2.824219 7.066406 3.023438 7.292969 3.40625 7.503906 C 3.914062 7.195312 5.515625 7.023438 6.402344 6.839844 C 8.203125 6.472656 9.878906 6.003906 10.550781 4.882812 C 11.71875 2.941406 10.28125 1.660156 9.890625 1.25 Z M 8.105469 2.9375 C 8.207031 2.9375 8.292969 3.015625 8.292969 3.109375 C 8.292969 3.203125 8.207031 3.277344 8.105469 3.277344 C 8.003906 3.277344 7.921875 3.203125 7.921875 3.109375 C 7.921875 3.015625 8.003906 2.9375 8.105469 2.9375 Z M 7.925781 2.304688 C 7.925781 2.210938 8.007812 2.136719 8.109375 2.136719 C 8.210938 2.136719 8.292969 2.210938 8.292969 2.304688 C 8.292969 2.398438 8.210938 2.476562 8.109375 2.476562 C 8.007812 2.476562 7.925781 2.398438 7.925781 2.304688 Z M 6.796875 1.746094 C 6.898438 1.746094 6.984375 1.824219 6.984375 1.917969 C 6.984375 2.007812 6.898438 2.085938 6.796875 2.085938 C 6.695312 2.085938 6.613281 2.007812 6.613281 1.917969 C 6.613281 1.824219 6.695312 1.746094 6.796875 1.746094 Z M 6.367188 1.347656 C 6.46875 1.347656 6.550781 1.425781 6.550781 1.519531 C 6.550781 1.613281 6.46875 1.6875 6.367188 1.6875 C 6.265625 1.6875 6.183594 1.613281 6.183594 1.519531 C 6.183594 1.425781 6.265625 1.347656 6.367188 1.347656 Z M 4.84375 6.414062 C 4.3125 6.902344 3.5 6.910156 3.449219 6.871094 C 3.402344 6.832031 3.332031 6.210938 3.792969 5.753906 C 3.878906 5.664062 3.871094 5.632812 3.964844 5.5625 C 3.964844 5.5625 4.214844 5.523438 4.496094 5.683594 C 4.777344 5.84375 4.832031 6.054688 4.832031 6.054688 C 4.863281 6.191406 4.886719 6.371094 4.84375 6.414062 Z M 5.019531 4.53125 C 4.917969 4.53125 4.835938 4.453125 4.835938 4.359375 C 4.835938 4.265625 4.917969 4.191406 5.019531 4.191406 C 5.121094 4.191406 5.203125 4.265625 5.203125 4.359375 C 5.203125 4.453125 5.121094 4.53125 5.019531 4.53125 Z M 5.019531 3.722656 C 4.917969 3.722656 4.835938 3.648438 4.835938 3.554688 C 4.835938 3.460938 4.917969 3.382812 5.019531 3.382812 C 5.121094 3.382812 5.203125 3.460938 5.203125 3.554688 C 5.203125 3.648438 5.121094 3.722656 5.019531 3.722656 Z M 5.039062 2.910156 C 4.9375 2.910156 4.855469 2.835938 4.855469 2.742188 C 4.855469 2.648438 4.9375 2.570312 5.039062 2.570312 C 5.140625 2.570312 5.222656 2.648438 5.222656 2.742188 C 5.222656 2.835938 5.140625 2.910156 5.039062 2.910156 Z M 5.449219 4.925781 C 5.347656 4.925781 5.265625 4.851562 5.265625 4.757812 C 5.265625 4.664062 5.347656 4.585938 5.449219 4.585938 C 5.550781 4.585938 5.632812 4.664062 5.632812 4.757812 C 5.632812 4.851562 5.550781 4.925781 5.449219 4.925781 Z M 5.457031 4.125 C 5.355469 4.125 5.273438 4.050781 5.273438 3.957031 C 5.273438 3.863281 5.355469 3.785156 5.457031 3.785156 C 5.558594 3.785156 5.640625 3.863281 5.640625 3.957031 C 5.640625 4.050781 5.558594 4.125 5.457031 4.125 Z M 5.46875 3.308594 C 5.367188 3.308594 5.285156 3.234375 5.285156 3.140625 C 5.285156 3.046875 5.367188 2.96875 5.46875 2.96875 C 5.570312 2.96875 5.65625 3.046875 5.65625 3.140625 C 5.65625 3.234375 5.570312 3.308594 5.46875 3.308594 Z M 5.488281 2.496094 C 5.386719 2.496094 5.304688 2.421875 5.304688 2.328125 C 5.304688 2.234375 5.386719 2.15625 5.488281 2.15625 C 5.589844 2.15625 5.671875 2.234375 5.671875 2.328125 C 5.671875 2.421875 5.589844 2.496094 5.488281 2.496094 Z M 5.890625 5.320312 C 5.789062 5.320312 5.707031 5.246094 5.707031 5.152344 C 5.707031 5.058594 5.789062 4.980469 5.890625 4.980469 C 5.992188 4.980469 6.074219 5.058594 6.074219 5.152344 C 6.074219 5.246094 5.992188 5.320312 5.890625 5.320312 Z M 5.703125 4.351562 C 5.703125 4.257812 5.785156 4.183594 5.886719 4.183594 C 5.988281 4.183594 6.070312 4.257812 6.070312 4.351562 C 6.070312 4.445312 5.988281 4.523438 5.886719 4.523438 C 5.785156 4.523438 5.703125 4.445312 5.703125 4.351562 Z M 5.90625 3.710938 C 5.804688 3.710938 5.722656 3.636719 5.722656 3.542969 C 5.722656 3.449219 5.804688 3.371094 5.90625 3.371094 C 6.007812 3.371094 6.089844 3.449219 6.089844 3.542969 C 6.089844 3.636719 6.007812 3.710938 5.90625 3.710938 Z M 5.921875 2.894531 C 5.816406 2.894531 5.734375 2.820312 5.734375 2.726562 C 5.734375 2.632812 5.816406 2.554688 5.921875 2.554688 C 6.023438 2.554688 6.105469 2.632812 6.105469 2.726562 C 6.105469 2.820312 6.023438 2.894531 5.921875 2.894531 Z M 5.9375 2.082031 C 5.835938 2.082031 5.753906 2.007812 5.753906 1.914062 C 5.753906 1.820312 5.835938 1.742188 5.9375 1.742188 C 6.039062 1.742188 6.121094 1.820312 6.121094 1.914062 C 6.121094 2.007812 6.039062 2.082031 5.9375 2.082031 Z M 6.324219 5.71875 C 6.21875 5.71875 6.136719 5.644531 6.136719 5.550781 C 6.136719 5.457031 6.21875 5.378906 6.324219 5.378906 C 6.425781 5.378906 6.507812 5.457031 6.507812 5.550781 C 6.507812 5.644531 6.425781 5.71875 6.324219 5.71875 Z M 6.328125 4.917969 C 6.226562 4.917969 6.144531 4.839844 6.144531 4.746094 C 6.144531 4.652344 6.226562 4.578125 6.328125 4.578125 C 6.429688 4.578125 6.511719 4.652344 6.511719 4.746094 C 6.511719 4.839844 6.429688 4.917969 6.328125 4.917969 Z M 6.335938 4.109375 C 6.234375 4.109375 6.152344 4.03125 6.152344 3.9375 C 6.152344 3.84375 6.234375 3.769531 6.335938 3.769531 C 6.4375 3.769531 6.519531 3.84375 6.519531 3.9375 C 6.519531 4.03125 6.4375 4.109375 6.335938 4.109375 Z M 6.355469 3.296875 C 6.253906 3.296875 6.171875 3.222656 6.171875 3.128906 C 6.171875 3.035156 6.253906 2.957031 6.355469 2.957031 C 6.457031 2.957031 6.542969 3.035156 6.542969 3.128906 C 6.542969 3.222656 6.457031 3.296875 6.355469 3.296875 Z M 6.371094 2.480469 C 6.269531 2.480469 6.183594 2.40625 6.183594 2.3125 C 6.183594 2.21875 6.269531 2.140625 6.371094 2.140625 C 6.472656 2.140625 6.554688 2.21875 6.554688 2.3125 C 6.554688 2.40625 6.472656 2.480469 6.371094 2.480469 Z M 6.761719 5.316406 C 6.660156 5.316406 6.578125 5.238281 6.578125 5.144531 C 6.578125 5.050781 6.660156 4.976562 6.761719 4.976562 C 6.863281 4.976562 6.945312 5.050781 6.945312 5.144531 C 6.945312 5.238281 6.863281 5.316406 6.761719 5.316406 Z M 6.777344 4.503906 C 6.675781 4.503906 6.59375 4.425781 6.59375 4.332031 C 6.59375 4.238281 6.675781 4.164062 6.777344 4.164062 C 6.878906 4.164062 6.964844 4.238281 6.964844 4.332031 C 6.964844 4.425781 6.878906 4.503906 6.777344 4.503906 Z M 6.785156 3.695312 C 6.683594 3.695312 6.601562 3.617188 6.601562 3.523438 C 6.601562 3.429688 6.683594 3.355469 6.785156 3.355469 C 6.886719 3.355469 6.972656 3.429688 6.972656 3.523438 C 6.972656 3.617188 6.886719 3.695312 6.785156 3.695312 Z M 6.804688 2.882812 C 6.703125 2.882812 6.621094 2.808594 6.621094 2.714844 C 6.621094 2.621094 6.703125 2.542969 6.804688 2.542969 C 6.910156 2.542969 6.992188 2.621094 6.992188 2.714844 C 6.992188 2.808594 6.910156 2.882812 6.804688 2.882812 Z M 7.199219 5.71875 C 7.097656 5.71875 7.015625 5.640625 7.015625 5.546875 C 7.015625 5.453125 7.097656 5.378906 7.199219 5.378906 C 7.300781 5.378906 7.382812 5.453125 7.382812 5.546875 C 7.382812 5.640625 7.300781 5.71875 7.199219 5.71875 Z M 7.210938 4.902344 C 7.109375 4.902344 7.027344 4.824219 7.027344 4.730469 C 7.027344 4.636719 7.109375 4.5625 7.210938 4.5625 C 7.3125 4.5625 7.394531 4.636719 7.394531 4.730469 C 7.394531 4.824219 7.3125 4.902344 7.210938 4.902344 Z M 7.230469 4.089844 C 7.125 4.089844 7.042969 4.011719 7.042969 3.917969 C 7.042969 3.824219 7.125 3.75 7.230469 3.75 C 7.332031 3.75 7.414062 3.824219 7.414062 3.917969 C 7.414062 4.011719 7.332031 4.089844 7.230469 4.089844 Z M 7.238281 3.28125 C 7.132812 3.28125 7.050781 3.203125 7.050781 3.109375 C 7.050781 3.015625 7.132812 2.941406 7.238281 2.941406 C 7.339844 2.941406 7.421875 3.015625 7.421875 3.109375 C 7.421875 3.203125 7.339844 3.28125 7.238281 3.28125 Z M 7.050781 2.320312 C 7.050781 2.226562 7.132812 2.148438 7.234375 2.148438 C 7.335938 2.148438 7.417969 2.226562 7.417969 2.320312 C 7.417969 2.414062 7.335938 2.488281 7.234375 2.488281 C 7.132812 2.488281 7.050781 2.414062 7.050781 2.320312 Z M 7.242188 1.675781 C 7.140625 1.675781 7.058594 1.601562 7.058594 1.507812 C 7.058594 1.414062 7.140625 1.335938 7.242188 1.335938 C 7.34375 1.335938 7.425781 1.414062 7.425781 1.507812 C 7.425781 1.601562 7.34375 1.675781 7.242188 1.675781 Z M 7.648438 5.304688 C 7.546875 5.304688 7.464844 5.226562 7.464844 5.132812 C 7.464844 5.039062 7.546875 4.964844 7.648438 4.964844 C 7.75 4.964844 7.832031 5.039062 7.832031 5.132812 C 7.832031 5.226562 7.75 5.304688 7.648438 5.304688 Z M 7.660156 4.484375 C 7.558594 4.484375 7.476562 4.410156 7.476562 4.316406 C 7.476562 4.222656 7.558594 4.148438 7.660156 4.148438 C 7.761719 4.148438 7.84375 4.222656 7.84375 4.316406 C 7.84375 4.410156 7.761719 4.484375 7.660156 4.484375 Z M 7.679688 3.675781 C 7.578125 3.675781 7.492188 3.597656 7.492188 3.503906 C 7.492188 3.410156 7.578125 3.335938 7.679688 3.335938 C 7.78125 3.335938 7.863281 3.410156 7.863281 3.503906 C 7.863281 3.597656 7.78125 3.675781 7.679688 3.675781 Z M 7.480469 2.714844 C 7.480469 2.621094 7.5625 2.546875 7.664062 2.546875 C 7.765625 2.546875 7.847656 2.621094 7.847656 2.714844 C 7.847656 2.808594 7.765625 2.882812 7.664062 2.882812 C 7.5625 2.882812 7.480469 2.808594 7.480469 2.714844 Z M 7.679688 2.078125 C 7.578125 2.078125 7.496094 2.003906 7.496094 1.910156 C 7.496094 1.816406 7.578125 1.738281 7.679688 1.738281 C 7.78125 1.738281 7.863281 1.816406 7.863281 1.910156 C 7.863281 2.003906 7.78125 2.078125 7.679688 2.078125 Z M 8.078125 5.699219 C 7.976562 5.699219 7.894531 5.625 7.894531 5.53125 C 7.894531 5.4375 7.976562 5.359375 8.078125 5.359375 C 8.179688 5.359375 8.261719 5.4375 8.261719 5.53125 C 8.261719 5.625 8.179688 5.699219 8.078125 5.699219 Z M 8.097656 4.890625 C 7.996094 4.890625 7.914062 4.8125 7.914062 4.71875 C 7.914062 4.625 7.996094 4.550781 8.097656 4.550781 C 8.199219 4.550781 8.28125 4.625 8.28125 4.71875 C 8.28125 4.8125 8.199219 4.890625 8.097656 4.890625 Z M 8.109375 4.070312 C 8.007812 4.070312 7.925781 3.996094 7.925781 3.902344 C 7.925781 3.808594 8.007812 3.730469 8.109375 3.730469 C 8.210938 3.730469 8.292969 3.808594 8.292969 3.902344 C 8.292969 3.996094 8.210938 4.070312 8.109375 4.070312 Z M 8.140625 1.65625 C 8.039062 1.65625 7.957031 1.578125 7.957031 1.484375 C 7.957031 1.390625 8.039062 1.316406 8.140625 1.316406 C 8.242188 1.316406 8.324219 1.390625 8.324219 1.484375 C 8.324219 1.578125 8.242188 1.65625 8.140625 1.65625 Z M 8.527344 5.285156 C 8.425781 5.285156 8.34375 5.207031 8.34375 5.113281 C 8.34375 5.019531 8.425781 4.945312 8.527344 4.945312 C 8.628906 4.945312 8.710938 5.019531 8.710938 5.113281 C 8.710938 5.207031 8.628906 5.285156 8.527344 5.285156 Z M 8.546875 4.472656 C 8.445312 4.472656 8.363281 4.398438 8.363281 4.304688 C 8.363281 4.210938 8.445312 4.136719 8.546875 4.136719 C 8.648438 4.136719 8.730469 4.210938 8.730469 4.304688 C 8.730469 4.398438 8.648438 4.472656 8.546875 4.472656 Z M 8.355469 3.507812 C 8.355469 3.414062 8.4375 3.335938 8.539062 3.335938 C 8.640625 3.335938 8.722656 3.414062 8.722656 3.507812 C 8.722656 3.601562 8.640625 3.675781 8.539062 3.675781 C 8.4375 3.675781 8.355469 3.601562 8.355469 3.507812 Z M 8.550781 2.871094 C 8.449219 2.871094 8.367188 2.792969 8.367188 2.699219 C 8.367188 2.605469 8.449219 2.53125 8.550781 2.53125 C 8.652344 2.53125 8.734375 2.605469 8.734375 2.699219 C 8.734375 2.792969 8.652344 2.871094 8.550781 2.871094 Z M 8.570312 2.050781 C 8.46875 2.050781 8.386719 1.976562 8.386719 1.882812 C 8.386719 1.789062 8.46875 1.710938 8.570312 1.710938 C 8.671875 1.710938 8.753906 1.789062 8.753906 1.882812 C 8.753906 1.976562 8.671875 2.050781 8.570312 2.050781 Z M 8.976562 4.871094 C 8.875 4.871094 8.792969 4.792969 8.792969 4.699219 C 8.792969 4.605469 8.875 4.53125 8.976562 4.53125 C 9.078125 4.53125 9.160156 4.605469 9.160156 4.699219 C 9.160156 4.792969 9.078125 4.871094 8.976562 4.871094 Z M 8.792969 3.910156 C 8.792969 3.816406 8.875 3.738281 8.976562 3.738281 C 9.078125 3.738281 9.160156 3.816406 9.160156 3.910156 C 9.160156 4.003906 9.078125 4.078125 8.976562 4.078125 C 8.875 4.078125 8.792969 4.003906 8.792969 3.910156 Z M 8.984375 3.265625 C 8.882812 3.265625 8.796875 3.191406 8.796875 3.097656 C 8.796875 3.003906 8.882812 2.929688 8.984375 2.929688 C 9.085938 2.929688 9.167969 3.003906 9.167969 3.097656 C 9.167969 3.191406 9.085938 3.265625 8.984375 3.265625 Z M 9.011719 2.445312 C 8.910156 2.445312 8.828125 2.371094 8.828125 2.277344 C 8.828125 2.183594 8.910156 2.105469 9.011719 2.105469 C 9.113281 2.105469 9.195312 2.183594 9.195312 2.277344 C 9.195312 2.371094 9.113281 2.445312 9.011719 2.445312 Z M 9.40625 4.476562 C 9.304688 4.476562 9.222656 4.398438 9.222656 4.304688 C 9.222656 4.210938 9.304688 4.136719 9.40625 4.136719 C 9.507812 4.136719 9.589844 4.210938 9.589844 4.304688 C 9.589844 4.398438 9.507812 4.476562 9.40625 4.476562 Z M 9.417969 3.671875 C 9.316406 3.671875 9.234375 3.59375 9.234375 3.5 C 9.234375 3.40625 9.316406 3.332031 9.417969 3.332031 C 9.523438 3.332031 9.605469 3.40625 9.605469 3.5 C 9.605469 3.59375 9.523438 3.671875 9.417969 3.671875 Z M 9.441406 2.84375 C 9.339844 2.84375 9.257812 2.765625 9.257812 2.671875 C 9.257812 2.578125 9.339844 2.503906 9.441406 2.503906 C 9.546875 2.503906 9.628906 2.578125 9.628906 2.671875 C 9.628906 2.765625 9.546875 2.84375 9.441406 2.84375 Z M 3.296875 7.582031 C 2.941406 7.886719 1.25 9.433594 1.171875 9.527344 C 1.082031 9.625 0.921875 9.988281 0.757812 9.996094 C 0.597656 10.007812 0 9.667969 0 9.296875 C 0 9.125 0.324219 9.046875 0.519531 8.917969 C 0.582031 8.878906 2.347656 7.269531 2.636719 7.007812 C 2.742188 7.167969 2.941406 7.378906 3.296875 7.582031 Z M 9.632812 8.632812 C 9.632812 9.351562 9.011719 9.945312 8.226562 9.96875 C 7.445312 9.992188 6.78125 9.441406 6.726562 8.722656 C 6.675781 8 7.25 7.371094 8.03125 7.296875 C 7.957031 7.433594 7.789062 7.65625 7.429688 7.976562 C 7.074219 8.292969 6.886719 8.65625 6.90625 8.996094 C 6.921875 9.253906 7.054688 9.488281 7.273438 9.644531 C 7.476562 9.789062 7.753906 9.871094 8.03125 9.871094 C 8.152344 9.871094 8.277344 9.855469 8.394531 9.820312 C 8.695312 9.738281 8.910156 9.554688 9 9.304688 C 9.054688 9.15625 9.105469 8.988281 9.152344 8.828125 C 9.242188 8.53125 9.339844 8.203125 9.460938 8 C 9.574219 8.195312 9.632812 8.410156 9.632812 8.632812 Z M 8.179688 7.292969 C 8.660156 7.292969 9.113281 7.511719 9.382812 7.882812 C 9.238281 8.09375 9.136719 8.4375 9.027344 8.796875 C 8.980469 8.957031 8.929688 9.121094 8.875 9.269531 C 8.800781 9.476562 8.617188 9.632812 8.355469 9.707031 C 8.019531 9.800781 7.613281 9.738281 7.351562 9.550781 C 7.164062 9.414062 7.046875 9.210938 7.039062 8.992188 C 7.019531 8.6875 7.191406 8.355469 7.519531 8.0625 C 7.941406 7.6875 8.109375 7.4375 8.179688 7.292969 Z M 8.179688 7.292969 "/>
</g>
</svg>
