<?xml version="1.0" encoding="UTF-8" standalone="no"?>
<!-- Created with Inkscape (http://www.inkscape.org/) -->

<svg
   xmlns:dc="http://purl.org/dc/elements/1.1/"
   xmlns:cc="http://creativecommons.org/ns#"
   xmlns:rdf="http://www.w3.org/1999/02/22-rdf-syntax-ns#"
   xmlns:svg="http://www.w3.org/2000/svg"
   xmlns="http://www.w3.org/2000/svg"
   xmlns:xlink="http://www.w3.org/1999/xlink"
   xmlns:sodipodi="http://sodipodi.sourceforge.net/DTD/sodipodi-0.dtd"
   xmlns:inkscape="http://www.inkscape.org/namespaces/inkscape"
   width="30px"
   height="30px"
   version="1.1"
   id="svg8"
   inkscape:version="0.92.4 5da689c313, 2019-01-14"
   sodipodi:docname="container.svg">
  <defs
     id="defs2" />
  <sodipodi:namedview
     id="base"
     pagecolor="#ffffff"
     bordercolor="#666666"
     borderopacity="1.0"
     inkscape:pageopacity="0.0"
     inkscape:pageshadow="2"
     inkscape:zoom="13.049334"
     inkscape:cx="18.679046"
     inkscape:cy="12.165829"
     inkscape:document-units="px"
     inkscape:current-layer="layer1"
     showgrid="false"
     inkscape:snap-page="false"
     units="px"
     inkscape:window-width="1884"
     inkscape:window-height="1061"
     inkscape:window-x="0"
     inkscape:window-y="0"
     inkscape:window-maximized="1"
     fit-margin-top="0"
     fit-margin-left="0"
     fit-margin-right="0"
     fit-margin-bottom="0" />
  <metadata
     id="metadata5">
    <rdf:RDF>
      <cc:Work
         rdf:about="">
        <dc:format>image/svg+xml</dc:format>
        <dc:type
           rdf:resource="http://purl.org/dc/dcmitype/StillImage" />
        <dc:title></dc:title>
      </cc:Work>
    </rdf:RDF>
  </metadata>
    <circle
       style="color:#000000;clip-rule:nonzero;display:inline;overflow:visible;visibility:visible;opacity:1;isolation:auto;mix-blend-mode:normal;color-interpolation:sRGB;color-interpolation-filters:linearRGB;solid-color:#000000;solid-opacity:1;vector-effect:none;fill:#00a19a;fill-opacity:1;fill-rule:evenodd;stroke:#ffffff;stroke-width:1;stroke-linecap:butt;stroke-linejoin:miter;stroke-miterlimit:4;stroke-dasharray:none;stroke-dashoffset:0;stroke-opacity:1;marker:none;color-rendering:auto;image-rendering:auto;shape-rendering:auto;text-rendering:auto;enable-background:accumulate"
       id="path815"
       cx="15"
       cy="15"
       r="14.5" />
<g transform="translate(6,9)"><g id="surface1">
<path style=" stroke:none;fill-rule:nonzero;fill:#FFFFFF;fill-opacity:1;" d="M 16.855469 8.183594 L 16.417969 8.183594 C 16.34375 9.921875 14.945312 11.320312 13.210938 11.394531 L 13.210938 12 L 12.878906 12 L 12.878906 11.394531 C 11.164062 11.296875 9.789062 9.90625 9.714844 8.183594 L 9.234375 8.183594 L 9.234375 8.015625 L 9.710938 8.015625 C 9.722656 6.238281 11.121094 4.78125 12.878906 4.683594 L 12.878906 4.199219 L 13.210938 4.199219 L 13.210938 4.679688 C 14.988281 4.757812 16.410156 6.222656 16.421875 8.015625 L 16.855469 8.015625 Z M 13.210938 5.78125 C 14.390625 5.859375 15.3125 6.832031 15.324219 8.015625 L 16.046875 8.015625 C 16.035156 6.429688 14.78125 5.128906 13.210938 5.054688 Z M 10.082031 8.015625 L 10.808594 8.015625 C 10.820312 6.847656 11.71875 5.882812 12.878906 5.785156 L 12.878906 5.058594 C 11.328125 5.152344 10.09375 6.441406 10.082031 8.015625 Z M 12.878906 10.289062 C 11.765625 10.199219 10.886719 9.300781 10.8125 8.183594 L 10.085938 8.183594 C 10.160156 9.699219 11.371094 10.925781 12.878906 11.019531 Z M 14.4375 8.039062 C 14.4375 7.277344 13.824219 6.664062 13.066406 6.664062 C 12.308594 6.664062 11.691406 7.277344 11.691406 8.039062 C 11.691406 8.796875 12.308594 9.414062 13.066406 9.414062 C 13.824219 9.414062 14.4375 8.796875 14.4375 8.039062 Z M 16.042969 8.183594 L 15.316406 8.183594 C 15.246094 9.316406 14.34375 10.222656 13.210938 10.292969 L 13.210938 11.019531 C 14.738281 10.949219 15.972656 9.714844 16.042969 8.183594 Z M 13.066406 7.105469 C 12.574219 7.105469 12.175781 7.503906 12.175781 7.996094 C 12.175781 8.488281 12.574219 8.886719 13.066406 8.886719 C 13.558594 8.886719 13.957031 8.488281 13.957031 7.996094 C 13.957031 7.503906 13.558594 7.105469 13.066406 7.105469 Z M 16.953125 1.078125 C 16.949219 0.953125 16.847656 0.851562 16.722656 0.851562 L 16.152344 0.851562 C 16.152344 0.851562 16.152344 0.851562 16.152344 0.847656 L 16.152344 0.308594 C 16.152344 0.152344 16.039062 0.015625 15.890625 0 C 15.808594 -0.0078125 15.726562 0.0195312 15.667969 0.0742188 C 15.605469 0.132812 15.570312 0.210938 15.570312 0.289062 L 15.570312 0.847656 C 15.570312 0.847656 15.570312 0.847656 15.566406 0.847656 L 4.578125 0.816406 C 4.472656 0.863281 4.382812 0.90625 4.273438 0.957031 L 4.085938 1.183594 C 4.085938 1.183594 3.679688 1.609375 3.679688 1.609375 C 3.679688 1.609375 1.839844 1.585938 1.007812 1.605469 C 0.777344 1.609375 0.578125 1.769531 0.527344 1.992188 L 0.015625 4.109375 C -0.015625 4.246094 0.015625 4.390625 0.101562 4.5 C 0.191406 4.613281 0.324219 4.679688 0.464844 4.679688 L 2.84375 4.695312 C 2.894531 4.6875 2.945312 4.679688 2.996094 4.671875 L 4.492188 4.171875 C 4.53125 4.191406 5.1875 4.519531 5.90625 4.421875 C 6.835938 4.296875 6.75 3.371094 6.796875 3.378906 C 6.953125 3.394531 7.183594 3.355469 7.183594 3.355469 L 8.285156 3.339844 C 8.386719 3.339844 8.484375 3.300781 8.5625 3.234375 L 9.371094 2.542969 C 9.371094 2.542969 9.371094 2.542969 9.375 2.542969 L 16.765625 2.464844 C 16.828125 2.464844 16.886719 2.441406 16.929688 2.394531 C 16.972656 2.347656 16.996094 2.289062 16.996094 2.222656 Z M 5.554688 3.949219 C 5.1875 3.949219 4.886719 3.6875 4.882812 3.363281 L 6.230469 3.355469 C 6.230469 3.683594 5.929688 3.949219 5.554688 3.949219 Z M 16.539062 1.824219 L 9.257812 1.824219 L 9.507812 1.492188 L 16.539062 1.53125 Z M 16.539062 1.824219 "/>
</g>
</g>
</svg>
