<?xml version="1.0" encoding="UTF-8" standalone="no"?>
<!-- Created with Inkscape (http://www.inkscape.org/) -->

<svg
   xmlns:dc="http://purl.org/dc/elements/1.1/"
   xmlns:cc="http://creativecommons.org/ns#"
   xmlns:rdf="http://www.w3.org/1999/02/22-rdf-syntax-ns#"
   xmlns:svg="http://www.w3.org/2000/svg"
   xmlns="http://www.w3.org/2000/svg"
   xmlns:xlink="http://www.w3.org/1999/xlink"
   xmlns:sodipodi="http://sodipodi.sourceforge.net/DTD/sodipodi-0.dtd"
   xmlns:inkscape="http://www.inkscape.org/namespaces/inkscape"
   width="30px"
   height="30px"
   version="1.1"
   id="svg8"
   inkscape:version="0.92.4 5da689c313, 2019-01-14"
   sodipodi:docname="container.svg">
  <defs
     id="defs2" />
  <sodipodi:namedview
     id="base"
     pagecolor="#ffffff"
     bordercolor="#666666"
     borderopacity="1.0"
     inkscape:pageopacity="0.0"
     inkscape:pageshadow="2"
     inkscape:zoom="13.049334"
     inkscape:cx="18.679046"
     inkscape:cy="12.165829"
     inkscape:document-units="px"
     inkscape:current-layer="layer1"
     showgrid="false"
     inkscape:snap-page="false"
     units="px"
     inkscape:window-width="1884"
     inkscape:window-height="1061"
     inkscape:window-x="0"
     inkscape:window-y="0"
     inkscape:window-maximized="1"
     fit-margin-top="0"
     fit-margin-left="0"
     fit-margin-right="0"
     fit-margin-bottom="0" />
  <metadata
     id="metadata5">
    <rdf:RDF>
      <cc:Work
         rdf:about="">
        <dc:format>image/svg+xml</dc:format>
        <dc:type
           rdf:resource="http://purl.org/dc/dcmitype/StillImage" />
        <dc:title></dc:title>
      </cc:Work>
    </rdf:RDF>
  </metadata>
    <circle
       style="color:#000000;clip-rule:nonzero;display:inline;overflow:visible;visibility:visible;opacity:1;isolation:auto;mix-blend-mode:normal;color-interpolation:sRGB;color-interpolation-filters:linearRGB;solid-color:#000000;solid-opacity:1;vector-effect:none;fill:#ffffff;fill-opacity:1;fill-rule:evenodd;stroke:#00A757;stroke-width:1;stroke-linecap:butt;stroke-linejoin:miter;stroke-miterlimit:4;stroke-dasharray:none;stroke-dashoffset:0;stroke-opacity:1;marker:none;color-rendering:auto;image-rendering:auto;shape-rendering:auto;text-rendering:auto;enable-background:accumulate"
       id="path815"
       cx="15"
       cy="15"
       r="14.5" />
<g transform="translate(6,6)"><g id="surface1">
<path style=" stroke:none;fill-rule:nonzero;fill:rgb(30%,30%,30%);fill-opacity:1;" d="M 16.59375 4.242188 C 15.515625 2.574219 13.097656 1.402344 13.097656 1.402344 C 3.988281 -3.109375 0.199219 4.707031 0.199219 4.707031 C -0.167969 5.5 -0.0820312 6.226562 0.980469 6.804688 L 4.710938 8.371094 C 5.144531 8.570312 5.617188 8.570312 6.160156 8.484375 L 7.898438 11.992188 C 7.722656 12.03125 7.582031 12.160156 7.519531 12.328125 L 6.214844 15.890625 C 6.164062 16.03125 6.171875 16.183594 6.242188 16.320312 C 6.308594 16.453125 6.429688 16.550781 6.574219 16.59375 L 7.925781 16.980469 C 8.066406 17.019531 8.214844 17 8.34375 16.929688 C 8.46875 16.859375 8.5625 16.738281 8.601562 16.601562 L 9.585938 12.9375 C 9.636719 12.75 9.582031 12.550781 9.4375 12.414062 L 13.136719 9.164062 C 17.003906 10.226562 17.535156 5.703125 16.59375 4.242188 Z M 7.820312 15.925781 L 7.367188 15.804688 L 8.269531 13.039062 L 8.492188 13.101562 Z M 8.816406 11.699219 L 7.117188 8.273438 C 7.3125 8.226562 7.515625 8.171875 7.730469 8.121094 C 7.730469 8.121094 10.113281 7.648438 11.289062 8.339844 C 11.582031 8.515625 11.863281 8.660156 12.128906 8.785156 Z M 5.933594 4.144531 C 4.371094 4.339844 3.308594 4.785156 3.390625 4.632812 C 3.464844 4.5 4.917969 3.664062 5.367188 3.554688 C 6.246094 3.332031 7.179688 3.257812 8.070312 3.429688 C 9.664062 3.742188 10.578125 4.203125 11.773438 5.289062 C 11.820312 5.328125 12.226562 5.773438 12.238281 5.835938 C 12.257812 5.964844 9.152344 3.742188 5.933594 4.144531 Z M 14.40625 3 C 13.089844 2.464844 10.175781 1.171875 6.984375 2.003906 C 4.242188 2.714844 3.15625 3.078125 2.460938 3.519531 C 2.042969 3.785156 3.972656 0.917969 8.824219 0.960938 C 9.632812 0.96875 10.925781 1.089844 11.683594 1.363281 C 13.601562 2.058594 14.546875 3.054688 14.40625 3 Z M 14.40625 3 "/>
</g>
</g>
</svg>
