<?xml version="1.0" encoding="UTF-8"?>
<svg xmlns="http://www.w3.org/2000/svg" xmlns:xlink="http://www.w3.org/1999/xlink" width="11px" height="10px" viewBox="0 0 11 10" version="1.1">
<g id="surface1">
<path style=" stroke:none;fill-rule:nonzero;fill:rgb(30%,30%,30%);fill-opacity:1;" d="M 1.324219 1.769531 C 2.332031 1.34375 4.429688 1.039062 4.53125 1.246094 C 4.53125 1.246094 4.699219 0.203125 4.710938 0.0507812 C 3.851562 0.164062 3.039062 0.457031 2.328125 0.910156 C 1.640625 1.355469 1.253906 1.800781 1.324219 1.769531 Z M 1.324219 1.769531 "/>
<path style=" stroke:none;fill-rule:nonzero;fill:rgb(30%,30%,30%);fill-opacity:1;" d="M 3.683594 4.230469 C 3.683594 4.230469 4.839844 5.480469 4.871094 5.460938 C 6.742188 4.191406 7.457031 1.222656 7.496094 0.335938 C 6.886719 0.121094 6.242188 0.0078125 5.585938 0 C 5.246094 3.078125 3.683594 4.230469 3.683594 4.230469 Z M 3.683594 4.230469 "/>
<path style=" stroke:none;fill-rule:nonzero;fill:rgb(30%,30%,30%);fill-opacity:1;" d="M 5.519531 5.96875 L 6.417969 6.527344 L 7.480469 7.019531 C 7.480469 7.019531 9.875 5.820312 10.183594 2.34375 C 10.183594 2.34375 10.183594 2.339844 10.179688 2.335938 C 10.125 2.257812 10.070312 2.179688 10.007812 2.105469 C 9.941406 2.023438 9.855469 1.921875 9.757812 1.8125 C 9.339844 1.351562 8.835938 0.964844 8.269531 0.667969 C 8.140625 1.710938 7.621094 4.246094 5.519531 5.96875 Z M 5.519531 5.96875 "/>
<path style=" stroke:none;fill-rule:nonzero;fill:rgb(30%,30%,30%);fill-opacity:1;" d="M 10.898438 3.925781 C 10.882812 3.847656 10.859375 3.769531 10.835938 3.691406 C 10.773438 3.792969 10.441406 4.863281 9.894531 5.773438 C 9.414062 6.5625 8.644531 7.238281 8.453125 7.296875 L 10.25 7.558594 C 10.296875 7.488281 10.34375 7.417969 10.382812 7.34375 C 10.65625 6.855469 11.222656 5.574219 10.898438 3.925781 Z M 10.898438 3.925781 "/>
<path style=" stroke:none;fill-rule:nonzero;fill:rgb(30%,30%,30%);fill-opacity:1;" d="M 9.679688 8.246094 C 4.890625 7.738281 2.964844 4.558594 2.964844 4.558594 C 2.964844 4.558594 1.488281 4.886719 1.488281 5.097656 C 1.488281 5.230469 2.539062 7.101562 3.808594 7.9375 C 5.488281 9.042969 7.527344 9.394531 7.996094 9.464844 C 8.199219 9.371094 8.398438 9.265625 8.589844 9.148438 C 8.882812 8.9375 9.242188 8.671875 9.46875 8.484375 C 9.542969 8.410156 9.617188 8.339844 9.6875 8.265625 C 9.691406 8.253906 9.6875 8.25 9.679688 8.246094 Z M 9.679688 8.246094 "/>
<path style=" stroke:none;fill-rule:nonzero;fill:rgb(30%,30%,30%);fill-opacity:1;" d="M 0.839844 5.609375 L 0.261719 6.574219 C 0.261719 6.574219 0.5 7.285156 1.121094 8.039062 C 2.167969 9.277344 3.789062 10.003906 5.503906 10 C 5.859375 10 6.210938 9.96875 6.558594 9.910156 C 6.554688 9.90625 6.550781 9.90625 6.546875 9.902344 C 2.257812 9.035156 0.839844 5.609375 0.839844 5.609375 Z M 0.839844 5.609375 "/>
<path style=" stroke:none;fill-rule:nonzero;fill:rgb(30%,30%,30%);fill-opacity:1;" d="M 0.0273438 5.363281 C 1.253906 3.835938 2.730469 3.835938 2.964844 3.820312 C 3.199219 3.804688 4.40625 1.972656 4.257812 1.96875 C 2.058594 1.855469 0.40625 3.253906 0.289062 3.355469 C 0.253906 3.445312 0.222656 3.535156 0.191406 3.625 C 0.0625 4.207031 -0.0507812 5.457031 0.0273438 5.363281 Z M 0.0273438 5.363281 "/>
</g>
</svg>
