<?xml version="1.0" encoding="UTF-8"?>
<svg xmlns="http://www.w3.org/2000/svg" xmlns:xlink="http://www.w3.org/1999/xlink" width="10px" height="6px" viewBox="0 0 10 6" version="1.1">
<g id="surface1">
<path style=" stroke:none;fill-rule:nonzero;fill:rgb(30%,30%,30%);fill-opacity:1;" d="M 0.753906 2.191406 L 1.550781 2.191406 L 1.550781 3.808594 L 0.753906 3.808594 Z M 0.753906 2.191406 "/>
<path style=" stroke:none;fill-rule:nonzero;fill:rgb(30%,30%,30%);fill-opacity:1;" d="M 8.4375 2.191406 L 9.230469 2.191406 L 9.230469 3.808594 L 8.4375 3.808594 Z M 8.4375 2.191406 "/>
<path style=" stroke:none;fill-rule:nonzero;fill:rgb(30%,30%,30%);fill-opacity:1;" d="M 6.054688 3.007812 C 6.054688 2.410156 5.621094 1.917969 5.074219 1.890625 L 5.074219 0.519531 L 4.902344 0.519531 L 4.902344 1.898438 C 4.382812 1.96875 3.992188 2.453125 4 3.023438 C 4.007812 3.589844 4.40625 4.0625 4.925781 4.121094 L 4.925781 5.449219 L 5.097656 5.449219 L 5.097656 4.121094 C 5.636719 4.078125 6.054688 3.59375 6.054688 3.007812 Z M 5.027344 3.566406 C 4.742188 3.566406 4.511719 3.316406 4.511719 3.007812 C 4.511719 2.699219 4.742188 2.449219 5.027344 2.449219 C 5.308594 2.449219 5.539062 2.699219 5.539062 3.007812 C 5.539062 3.316406 5.308594 3.566406 5.027344 3.566406 Z M 5.027344 3.566406 "/>
<path style=" stroke:none;fill-rule:nonzero;fill:rgb(30%,30%,30%);fill-opacity:1;" d="M 0 0 L 0 6 L 10 6 L 10 0 Z M 0.703125 1.203125 C 1.554688 1.289062 2.203125 2.070312 2.203125 3 C 2.203125 3.929688 1.554688 4.710938 0.703125 4.796875 Z M 0.425781 0.460938 L 0.582031 0.460938 L 0.582031 5.539062 L 0.425781 5.539062 Z M 0.976562 5.539062 C 2.078125 5.316406 2.914062 4.265625 2.914062 3 C 2.914062 1.734375 2.078125 0.683594 0.976562 0.460938 L 8.96875 0.460938 C 7.867188 0.683594 7.03125 1.734375 7.03125 3 C 7.03125 4.265625 7.867188 5.316406 8.96875 5.539062 Z M 9.285156 4.800781 C 8.417969 4.734375 7.746094 3.949219 7.746094 3 C 7.746094 2.050781 8.417969 1.265625 9.285156 1.199219 Z M 9.574219 5.539062 L 9.402344 5.539062 L 9.402344 0.519531 L 9.390625 0.519531 L 9.390625 0.460938 L 9.574219 0.460938 Z M 9.574219 5.539062 "/>
</g>
</svg>
