<?xml version="1.0" encoding="UTF-8"?>
<svg xmlns="http://www.w3.org/2000/svg" xmlns:xlink="http://www.w3.org/1999/xlink" width="6px" height="10px" viewBox="0 0 6 10" version="1.1">
<g id="surface1">
<path style=" stroke:none;fill-rule:nonzero;fill:rgb(30%,30%,30%);fill-opacity:1;" d="M 0 0 L 6 0 L 6 0.480469 L 0 0.480469 Z M 0 0 "/>
<path style=" stroke:none;fill-rule:nonzero;fill:rgb(30%,30%,30%);fill-opacity:1;" d="M 5.683594 4.464844 L 5.683594 0.664062 L 0.375 0.664062 L 0.375 4.464844 L 0.371094 4.464844 L 0.371094 10 L 0.890625 10 L 0.890625 4.949219 L 1.546875 4.949219 L 1.546875 10 L 1.746094 10 L 1.746094 9.542969 L 2.816406 9.542969 L 2.816406 10 L 3.015625 10 L 3.015625 4.949219 L 5.164062 4.949219 L 5.164062 10 L 5.6875 10 L 5.6875 4.464844 Z M 2.816406 9.398438 L 1.746094 9.398438 L 1.746094 8.871094 L 2.816406 8.871094 Z M 2.816406 8.730469 L 1.746094 8.730469 L 1.746094 8.203125 L 2.816406 8.203125 Z M 2.816406 8.058594 L 1.746094 8.058594 L 1.746094 7.53125 L 2.816406 7.53125 Z M 2.816406 7.390625 L 1.746094 7.390625 L 1.746094 6.863281 L 2.816406 6.863281 Z M 2.816406 6.71875 L 1.746094 6.71875 L 1.746094 6.191406 L 2.816406 6.191406 Z M 2.816406 6.050781 L 1.746094 6.050781 L 1.746094 5.523438 L 2.816406 5.523438 Z M 2.816406 5.378906 L 1.746094 5.378906 L 1.746094 4.949219 L 2.816406 4.949219 Z M 0.78125 2.433594 L 0.78125 1.300781 L 5.289062 1.300781 L 5.289062 2.433594 Z M 0.78125 2.433594 "/>
</g>
</svg>
