<?xml version="1.0" encoding="UTF-8"?>
<svg xmlns="http://www.w3.org/2000/svg" xmlns:xlink="http://www.w3.org/1999/xlink" width="10px" height="11px" viewBox="0 0 10 11" version="1.1">
<g id="surface1">
<path style=" stroke:none;fill-rule:nonzero;fill:rgb(30%,30%,30%);fill-opacity:1;" d="M 8.925781 1.117188 C 8.925781 1.730469 8.410156 2.230469 7.773438 2.230469 C 7.136719 2.230469 6.621094 1.730469 6.621094 1.117188 C 6.621094 0.5 7.136719 0 7.773438 0 C 8.410156 0 8.925781 0.5 8.925781 1.117188 Z M 8.925781 1.117188 "/>
<path style=" stroke:none;fill-rule:nonzero;fill:rgb(30%,30%,30%);fill-opacity:1;" d="M 9.90625 3.292969 C 9.761719 3.125 9.503906 3.101562 9.328125 3.242188 L 8.09375 4.234375 L 7.574219 2.847656 C 7.550781 2.78125 7.386719 2.402344 7.054688 2.242188 L 6.925781 2.179688 C 6.789062 2.113281 4.394531 1.507812 4.394531 1.507812 C 4.179688 1.449219 3.953125 1.570312 3.890625 1.78125 C 3.886719 1.785156 3.886719 1.789062 3.886719 1.792969 L 3.101562 3.710938 C 3.019531 3.914062 3.125 4.144531 3.335938 4.226562 C 3.542969 4.304688 3.78125 4.207031 3.863281 4.003906 L 4.53125 2.371094 L 5.5 2.640625 L 4.023438 5.648438 C 4.003906 5.683594 2.714844 7.710938 2.714844 7.710938 L 0.398438 8.484375 C 0.0898438 8.589844 -0.0742188 8.917969 0.03125 9.21875 C 0.140625 9.519531 0.480469 9.675781 0.789062 9.574219 L 3.539062 8.652344 C 3.660156 8.609375 4.667969 6.949219 4.667969 6.949219 C 4.671875 6.949219 4.675781 6.953125 4.679688 6.953125 L 6.234375 8.167969 L 4.550781 10.046875 C 4.335938 10.285156 4.363281 10.648438 4.613281 10.859375 C 4.859375 11.066406 5.234375 11.039062 5.453125 10.800781 L 7.40625 8.621094 C 7.421875 8.605469 7.433594 8.585938 7.441406 8.566406 C 7.488281 8.539062 7.527344 8.503906 7.558594 8.460938 C 7.765625 8.214844 7.726562 7.851562 7.46875 7.652344 L 6.074219 6.566406 L 7.222656 4.230469 L 7.542969 5.082031 C 7.621094 5.285156 7.855469 5.390625 8.066406 5.316406 C 8.179688 5.277344 9.851562 3.847656 9.851562 3.847656 C 10.027344 3.707031 10.050781 3.460938 9.90625 3.292969 Z M 9.90625 3.292969 "/>
</g>
</svg>
