<?xml version="1.0" encoding="UTF-8" standalone="no"?>
<!-- Created with Inkscape (http://www.inkscape.org/) -->

<svg
   xmlns:dc="http://purl.org/dc/elements/1.1/"
   xmlns:cc="http://creativecommons.org/ns#"
   xmlns:rdf="http://www.w3.org/1999/02/22-rdf-syntax-ns#"
   xmlns:svg="http://www.w3.org/2000/svg"
   xmlns="http://www.w3.org/2000/svg"
   xmlns:xlink="http://www.w3.org/1999/xlink"
   xmlns:sodipodi="http://sodipodi.sourceforge.net/DTD/sodipodi-0.dtd"
   xmlns:inkscape="http://www.inkscape.org/namespaces/inkscape"
   width="30px"
   height="30px"
   version="1.1"
   id="svg8"
   inkscape:version="0.92.4 5da689c313, 2019-01-14"
   sodipodi:docname="container.svg">
  <defs
     id="defs2" />
  <sodipodi:namedview
     id="base"
     pagecolor="#ffffff"
     bordercolor="#666666"
     borderopacity="1.0"
     inkscape:pageopacity="0.0"
     inkscape:pageshadow="2"
     inkscape:zoom="13.049334"
     inkscape:cx="18.679046"
     inkscape:cy="12.165829"
     inkscape:document-units="px"
     inkscape:current-layer="layer1"
     showgrid="false"
     inkscape:snap-page="false"
     units="px"
     inkscape:window-width="1884"
     inkscape:window-height="1061"
     inkscape:window-x="0"
     inkscape:window-y="0"
     inkscape:window-maximized="1"
     fit-margin-top="0"
     fit-margin-left="0"
     fit-margin-right="0"
     fit-margin-bottom="0" />
  <metadata
     id="metadata5">
    <rdf:RDF>
      <cc:Work
         rdf:about="">
        <dc:format>image/svg+xml</dc:format>
        <dc:type
           rdf:resource="http://purl.org/dc/dcmitype/StillImage" />
        <dc:title></dc:title>
      </cc:Work>
    </rdf:RDF>
  </metadata>
    <circle
       style="color:#000000;clip-rule:nonzero;display:inline;overflow:visible;visibility:visible;opacity:1;isolation:auto;mix-blend-mode:normal;color-interpolation:sRGB;color-interpolation-filters:linearRGB;solid-color:#000000;solid-opacity:1;vector-effect:none;fill:#00a19a;fill-opacity:1;fill-rule:evenodd;stroke:#ffffff;stroke-width:1;stroke-linecap:butt;stroke-linejoin:miter;stroke-miterlimit:4;stroke-dasharray:none;stroke-dashoffset:0;stroke-opacity:1;marker:none;color-rendering:auto;image-rendering:auto;shape-rendering:auto;text-rendering:auto;enable-background:accumulate"
       id="path815"
       cx="15"
       cy="15"
       r="14.5" />
<g transform="translate(6,7)"><g id="surface1">
<path style=" stroke:none;fill-rule:nonzero;fill:#FFFFFF;fill-opacity:1;" d="M 8.671875 12.539062 C 8.667969 12.539062 8.664062 12.539062 8.660156 12.539062 C 8.554688 12.519531 8.535156 12.496094 8.582031 12.4375 L 8.605469 12.449219 C 8.636719 12.464844 8.65625 12.503906 8.671875 12.539062 Z M 8.605469 12.414062 L 8.53125 12.414062 L 8.582031 12.4375 C 8.589844 12.429688 8.597656 12.421875 8.605469 12.414062 Z M 16.964844 15.917969 C 16.9375 15.957031 16.890625 15.980469 16.84375 15.980469 C 16.828125 15.976562 16.8125 15.976562 16.796875 15.96875 L 11.960938 14.429688 C 11.957031 14.429688 11.953125 14.429688 11.949219 14.433594 L 8.566406 15.984375 C 8.542969 15.992188 8.523438 16 8.5 16 C 8.46875 16 8.4375 15.988281 8.414062 15.972656 C 8.402344 15.964844 8.390625 15.953125 8.382812 15.941406 C 8.378906 15.941406 8.378906 15.9375 8.375 15.9375 L 4.5625 14.425781 C 4.554688 14.421875 4.550781 14.421875 4.546875 14.425781 L 0.207031 15.964844 C 0.191406 15.96875 0.175781 15.972656 0.15625 15.972656 C 0.109375 15.972656 0.0625 15.949219 0.0351562 15.914062 C -0.0078125 15.863281 -0.0117188 15.789062 0.0234375 15.734375 L 1.007812 14.167969 L 1.988281 12.605469 L 2.953125 11.078125 C 2.964844 11.054688 2.988281 11.035156 3.011719 11.023438 L 5.222656 9.90625 C 3.589844 8.136719 3.632812 5.363281 5.347656 3.640625 C 7.117188 1.867188 9.96875 1.878906 11.726562 3.640625 C 13.457031 5.378906 13.484375 8.183594 11.8125 9.957031 L 14.144531 11.039062 C 14.175781 11.054688 14.199219 11.074219 14.214844 11.101562 L 15.121094 12.625 L 16.050781 14.183594 L 16.976562 15.742188 C 17.011719 15.796875 17.007812 15.867188 16.964844 15.917969 Z M 14.875 12.828125 L 11.382812 11.417969 C 11.375 11.414062 11.367188 11.417969 11.363281 11.421875 C 11.359375 11.425781 11.355469 11.433594 11.355469 11.441406 L 11.65625 12.570312 C 11.660156 12.578125 11.664062 12.582031 11.667969 12.585938 L 12.707031 12.953125 L 15.507812 13.949219 C 15.515625 13.953125 15.523438 13.949219 15.527344 13.945312 C 15.535156 13.9375 15.535156 13.929688 15.53125 13.921875 L 14.882812 12.835938 C 14.882812 12.832031 14.878906 12.828125 14.875 12.828125 Z M 13.964844 11.300781 L 11.570312 10.191406 C 11.429688 10.320312 11.277344 10.441406 11.117188 10.554688 L 11.121094 10.558594 L 11.242188 11.011719 C 11.242188 11.019531 11.25 11.023438 11.253906 11.027344 L 14.597656 12.378906 L 14.617188 12.386719 L 13.972656 11.308594 C 13.96875 11.308594 13.96875 11.304688 13.964844 11.300781 Z M 8.699219 12.875 L 8.699219 13.113281 L 8.679688 14.050781 C 8.679688 14.058594 8.683594 14.0625 8.6875 14.066406 C 8.695312 14.070312 8.703125 14.074219 8.707031 14.070312 C 8.707031 14.070312 11.121094 12.796875 11.34375 12.683594 C 11.34375 12.683594 11.054688 11.503906 11.023438 11.417969 L 8.671875 12.746094 C 8.703125 12.863281 8.699219 12.871094 8.699219 12.875 Z M 12.003906 7.003906 L 12.683594 7.003906 C 12.761719 7.003906 12.820312 6.941406 12.820312 6.867188 C 12.820312 6.792969 12.761719 6.730469 12.683594 6.730469 L 12.003906 6.730469 C 11.824219 6.730469 11.824219 7.003906 12.003906 7.003906 Z M 8.1875 3.339844 C 8.1875 3.519531 8.460938 3.519531 8.460938 3.339844 L 8.460938 3.136719 L 8.640625 3.390625 C 8.71875 3.496094 8.886719 3.441406 8.886719 3.308594 L 8.886719 2.714844 C 8.886719 2.535156 8.617188 2.535156 8.617188 2.714844 L 8.617188 2.886719 L 8.433594 2.636719 C 8.398438 2.585938 8.339844 2.566406 8.28125 2.585938 C 8.226562 2.601562 8.1875 2.65625 8.1875 2.714844 Z M 5.484375 6.839844 C 5.484375 8.53125 6.851562 9.90625 8.539062 9.90625 C 10.222656 9.90625 11.59375 8.53125 11.59375 6.839844 C 11.59375 5.152344 10.222656 3.777344 8.539062 3.777344 C 6.851562 3.777344 5.484375 5.152344 5.484375 6.839844 Z M 8.410156 10.308594 L 8.410156 10.96875 C 8.410156 11.148438 8.679688 11.148438 8.679688 10.96875 L 8.679688 10.308594 C 8.679688 10.125 8.410156 10.128906 8.410156 10.308594 Z M 5.253906 6.867188 C 5.253906 6.792969 5.195312 6.730469 5.121094 6.730469 L 4.390625 6.730469 C 4.210938 6.730469 4.210938 7.003906 4.390625 7.003906 L 5.121094 7.003906 C 5.195312 7.003906 5.253906 6.941406 5.253906 6.867188 Z M 2.589844 12.3125 L 5.503906 11.015625 C 5.507812 11.015625 5.511719 11.011719 5.515625 11.003906 L 5.664062 10.578125 L 5.730469 10.382812 C 5.636719 10.308594 5.542969 10.226562 5.453125 10.140625 L 3.199219 11.28125 C 3.195312 11.285156 3.191406 11.285156 3.191406 11.289062 L 2.5625 12.28125 C 2.558594 12.289062 2.558594 12.296875 2.566406 12.304688 C 2.570312 12.3125 2.582031 12.3125 2.589844 12.3125 Z M 1.585938 13.910156 L 4.964844 12.578125 C 4.96875 12.574219 4.972656 12.570312 4.976562 12.566406 L 5.175781 11.992188 L 5.355469 11.464844 C 5.359375 11.457031 5.355469 11.449219 5.351562 11.441406 C 5.34375 11.4375 5.335938 11.4375 5.328125 11.441406 L 2.234375 12.8125 C 2.230469 12.8125 2.230469 12.816406 2.226562 12.820312 L 1.558594 13.882812 C 1.554688 13.890625 1.554688 13.898438 1.5625 13.90625 C 1.566406 13.910156 1.574219 13.914062 1.585938 13.910156 Z M 4.824219 13.003906 C 4.824219 13 4.824219 12.992188 4.816406 12.984375 C 4.8125 12.980469 4.804688 12.976562 4.796875 12.980469 L 2.871094 13.738281 L 1.25 14.378906 C 1.246094 14.378906 1.242188 14.382812 1.242188 14.386719 L 0.5625 15.46875 C 0.554688 15.476562 0.558594 15.484375 0.5625 15.492188 C 0.566406 15.5 0.578125 15.5 0.585938 15.5 L 4.425781 14.136719 C 4.429688 14.132812 4.433594 14.128906 4.4375 14.125 Z M 8.371094 14.371094 C 8.371094 14.363281 8.367188 14.355469 8.359375 14.351562 L 5.207031 12.917969 C 5.203125 12.914062 5.195312 12.914062 5.191406 12.917969 C 5.1875 12.917969 5.183594 12.921875 5.179688 12.929688 L 5.136719 13.054688 L 4.757812 14.148438 C 4.753906 14.15625 4.761719 14.167969 4.769531 14.171875 L 8.320312 15.578125 C 8.328125 15.582031 8.332031 15.582031 8.339844 15.578125 C 8.34375 15.574219 8.347656 15.566406 8.347656 15.5625 L 8.355469 15.238281 Z M 8.425781 12.796875 C 8.425781 12.757812 5.726562 11.367188 5.679688 11.441406 C 5.675781 11.441406 5.667969 11.441406 5.664062 11.441406 C 5.65625 11.445312 5.652344 11.449219 5.652344 11.453125 L 5.609375 11.578125 L 5.230469 12.671875 C 5.226562 12.683594 5.230469 12.695312 5.242188 12.699219 L 8.40625 14.0625 C 8.417969 14.066406 8.425781 12.796875 8.425781 12.796875 Z M 8.613281 12.40625 C 8.636719 12.382812 8.671875 12.355469 8.710938 12.324219 C 8.714844 12.320312 8.714844 12.320312 8.714844 12.320312 L 10.917969 11.074219 C 10.925781 11.070312 10.929688 11.0625 10.929688 11.054688 L 10.84375 10.730469 C 9.347656 11.625 7.445312 11.578125 5.996094 10.578125 L 5.835938 11.039062 C 5.832031 11.046875 5.835938 11.058594 5.84375 11.0625 L 8.53125 12.414062 L 8.578125 12.4375 C 8.582031 12.4375 8.589844 12.4375 8.59375 12.4375 C 8.601562 12.433594 8.605469 12.425781 8.605469 12.421875 C 8.605469 12.414062 8.609375 12.410156 8.613281 12.40625 Z M 11.753906 14.15625 L 11.742188 14.121094 L 11.433594 12.953125 C 11.433594 12.949219 11.429688 12.945312 11.421875 12.941406 C 11.417969 12.9375 11.410156 12.941406 11.40625 12.941406 L 10.289062 13.53125 L 8.691406 14.371094 C 8.683594 14.375 8.679688 14.382812 8.679688 14.390625 L 8.679688 14.625 L 8.660156 15.5625 C 8.660156 15.570312 8.664062 15.578125 8.671875 15.582031 C 8.675781 15.582031 8.683594 15.585938 8.691406 15.582031 L 11.742188 14.179688 C 11.753906 14.175781 11.757812 14.164062 11.753906 14.15625 Z M 16.472656 15.503906 L 15.8125 14.398438 C 15.8125 14.394531 15.808594 14.390625 15.804688 14.390625 L 15.046875 14.121094 L 11.792969 12.960938 C 11.785156 12.957031 11.777344 12.960938 11.773438 12.964844 C 11.765625 12.96875 11.765625 12.976562 11.765625 12.984375 L 12.070312 14.125 C 12.070312 14.132812 12.074219 14.136719 12.082031 14.140625 L 16.449219 15.53125 C 16.457031 15.535156 16.464844 15.53125 16.46875 15.523438 C 16.476562 15.519531 16.476562 15.507812 16.472656 15.503906 Z M 6.644531 1.199219 L 6.644531 0.847656 C 6.644531 0.378906 7.023438 0 7.492188 0 L 9.675781 0 C 10.140625 0 10.519531 0.378906 10.519531 0.847656 L 10.519531 1.199219 C 10.519531 1.667969 10.140625 2.046875 9.675781 2.046875 L 7.492188 2.046875 C 7.023438 2.046875 6.644531 1.667969 6.644531 1.199219 Z M 7.191406 1.199219 C 7.191406 1.363281 7.324219 1.5 7.492188 1.5 L 9.675781 1.5 C 9.839844 1.5 9.972656 1.363281 9.972656 1.199219 L 9.972656 0.847656 C 9.972656 0.683594 9.839844 0.546875 9.675781 0.546875 L 7.492188 0.546875 C 7.324219 0.546875 7.191406 0.683594 7.191406 0.847656 Z M 10.53125 4.921875 C 10.53125 4.929688 9.101562 7.375 9.097656 7.378906 C 9.097656 7.378906 9.097656 7.382812 9.097656 7.382812 C 9.082031 7.40625 6.628906 8.84375 6.621094 8.84375 C 6.605469 8.847656 6.589844 8.847656 6.578125 8.839844 C 6.570312 8.839844 6.566406 8.835938 6.5625 8.835938 C 6.554688 8.828125 6.546875 8.816406 6.542969 8.804688 C 6.539062 8.800781 6.539062 8.792969 6.539062 8.785156 C 6.539062 8.777344 6.539062 8.769531 6.539062 8.765625 C 6.542969 8.761719 6.542969 8.753906 6.546875 8.75 L 6.550781 8.746094 L 7.976562 6.300781 C 7.992188 6.277344 10.441406 4.839844 10.453125 4.839844 C 10.496094 4.8125 10.5625 4.875 10.53125 4.921875 Z M 8.941406 7.335938 L 8.539062 6.933594 L 6.992188 8.480469 Z M 10.082031 5.203125 L 8.136719 6.347656 L 8.539062 6.75 Z M 10.082031 5.203125 "/>
</g>
</g>
</svg>
