<?xml version="1.0" encoding="UTF-8"?>
<svg xmlns="http://www.w3.org/2000/svg" xmlns:xlink="http://www.w3.org/1999/xlink" width="10px" height="11px" viewBox="0 0 10 11" version="1.1">
<g id="surface1">
<path style=" stroke:none;fill-rule:nonzero;fill:rgb(30%,30%,30%);fill-opacity:1;" d="M 7.929688 6.796875 C 7.917969 6.714844 7.886719 6.640625 7.832031 6.574219 C 7.683594 6.371094 7.410156 6.300781 7.183594 6.410156 L 7.144531 6.429688 C 7.121094 6.4375 7.097656 6.449219 7.078125 6.460938 L 5.191406 7.375 L 4.183594 5.550781 L 4.863281 5.824219 C 5.027344 5.890625 5.21875 5.808594 5.285156 5.640625 L 5.355469 5.464844 L 5.359375 5.457031 L 5.363281 5.445312 C 5.371094 5.429688 5.375 5.410156 5.378906 5.390625 L 6.277344 2.785156 C 6.371094 2.515625 6.226562 2.222656 5.957031 2.128906 L 5.9375 2.121094 C 5.667969 2.027344 5.375 2.171875 5.277344 2.441406 L 4.550781 4.5625 C 4.550781 4.5625 2.925781 3.742188 2.6875 3.875 L 1.945312 4.285156 C 1.3125 4.691406 1.828125 5.523438 1.828125 5.523438 L 3.34375 8.269531 L 3.339844 8.269531 L 3.625 8.777344 C 3.757812 9.011719 4.046875 9.101562 4.289062 8.984375 L 6.765625 7.785156 L 6.457031 10.511719 C 6.433594 10.742188 6.597656 10.945312 6.824219 10.972656 L 7.046875 10.996094 C 7.277344 11.023438 7.480469 10.859375 7.507812 10.632812 L 7.910156 7.066406 C 7.9375 6.980469 7.945312 6.886719 7.929688 6.796875 Z M 7.929688 6.796875 "/>
<path style=" stroke:none;fill-rule:nonzero;fill:rgb(30%,30%,30%);fill-opacity:1;" d="M 2.589844 2.863281 C 2.589844 3.578125 2.011719 4.15625 1.296875 4.15625 C 0.582031 4.15625 0.00390625 3.578125 0.00390625 2.863281 C 0.00390625 2.148438 0.582031 1.570312 1.296875 1.570312 C 2.011719 1.570312 2.589844 2.148438 2.589844 2.863281 Z M 2.589844 2.863281 "/>
<path style=" stroke:none;fill-rule:nonzero;fill:rgb(30%,30%,30%);fill-opacity:1;" d="M 5.273438 2.121094 C 5.179688 2.121094 5.09375 2.070312 5.050781 1.984375 L 4.496094 0.914062 L 3.742188 0.472656 C 3.621094 0.402344 3.582031 0.246094 3.652344 0.125 C 3.722656 0.00390625 3.878906 -0.0351562 4 0.0351562 L 4.816406 0.515625 C 4.859375 0.539062 4.890625 0.574219 4.914062 0.617188 L 5.5 1.753906 C 5.539062 1.832031 5.539062 1.925781 5.492188 2 C 5.445312 2.078125 5.363281 2.121094 5.273438 2.121094 Z M 5.273438 2.121094 "/>
<path style=" stroke:none;fill-rule:nonzero;fill:rgb(30%,30%,30%);fill-opacity:1;" d="M 7.371094 6.171875 C 7.285156 6.171875 7.203125 6.125 7.15625 6.050781 L 5.949219 4.132812 C 5.875 4.015625 5.910156 3.859375 6.027344 3.785156 C 6.144531 3.710938 6.304688 3.746094 6.378906 3.863281 L 7.585938 5.78125 C 7.632812 5.859375 7.636719 5.957031 7.59375 6.039062 C 7.546875 6.121094 7.464844 6.171875 7.371094 6.171875 Z M 7.371094 6.171875 "/>
<path style=" stroke:none;fill-rule:nonzero;fill:rgb(30%,30%,30%);fill-opacity:1;" d="M 9.742188 10.824219 C 9.628906 10.824219 9.527344 10.75 9.496094 10.640625 C 9.4375 10.503906 9.019531 9.734375 8.710938 9.167969 C 8.539062 8.851562 8.378906 8.554688 8.257812 8.328125 C 8.191406 8.207031 8.144531 8.117188 8.109375 8.054688 C 8.042969 7.925781 8.003906 7.847656 8.050781 7.734375 C 8.089844 7.636719 8.1875 7.570312 8.292969 7.574219 C 8.398438 7.578125 8.492188 7.648438 8.527344 7.75 C 8.578125 7.863281 8.886719 8.425781 9.15625 8.925781 C 9.355469 9.289062 9.558594 9.667969 9.710938 9.957031 C 9.796875 10.113281 9.859375 10.230469 9.898438 10.3125 C 9.984375 10.476562 10.027344 10.566406 9.96875 10.6875 C 9.925781 10.773438 9.835938 10.824219 9.742188 10.824219 Z M 9.515625 10.457031 C 9.5 10.484375 9.492188 10.511719 9.488281 10.542969 C 9.492188 10.511719 9.5 10.484375 9.515625 10.457031 Z M 9.515625 10.457031 Z M 9.515625 10.457031 Z M 9.515625 10.457031 "/>
</g>
</svg>
