<?xml version="1.0" encoding="UTF-8"?>
<svg xmlns="http://www.w3.org/2000/svg" xmlns:xlink="http://www.w3.org/1999/xlink" width="11px" height="10px" viewBox="0 0 11 10" version="1.1">
<g id="surface1">
<path style=" stroke:none;fill-rule:nonzero;fill:rgb(30%,30%,30%);fill-opacity:1;" d="M 10.550781 4.550781 L 9.851562 4.542969 C 9.761719 4.542969 9.691406 4.472656 9.683594 4.382812 C 9.605469 3.316406 9.0625 2.601562 8.136719 2.195312 L 8.136719 0.421875 C 8.136719 0.191406 7.953125 0.00390625 7.730469 0.00390625 L 3.136719 0.00390625 C 2.914062 0.00390625 2.734375 0.191406 2.734375 0.421875 L 2.734375 2.09375 C 2.472656 2.203125 2.242188 2.351562 2.050781 2.550781 C 1.53125 3.097656 1.230469 3.746094 1.1875 4.390625 C 1.183594 4.484375 1.109375 4.554688 1.019531 4.554688 L 0.449219 4.550781 C 0.199219 4.554688 0 4.761719 0 5.015625 C 0 5.226562 0.0273438 5.464844 0.535156 5.566406 C 0.585938 5.574219 0.628906 5.609375 0.652344 5.660156 C 0.675781 5.710938 0.675781 5.769531 0.652344 5.816406 C 0.511719 6.082031 0.5 6.371094 0.5 6.664062 C 0.5 7.042969 0.625 7.601562 0.898438 7.996094 C 0.921875 8.03125 0.933594 8.078125 0.929688 8.121094 C 0.925781 8.148438 0.925781 8.175781 0.925781 8.203125 L 0.925781 9.140625 C 0.925781 9.613281 1.292969 9.996094 1.75 9.996094 L 1.804688 9.996094 C 2.257812 9.996094 2.628906 9.613281 2.628906 9.140625 L 2.628906 8.773438 C 2.632812 8.773438 2.636719 8.773438 2.640625 8.773438 C 3.363281 8.835938 7.007812 8.839844 8.210938 8.769531 C 8.257812 8.765625 8.300781 8.78125 8.335938 8.816406 C 8.371094 8.847656 8.390625 8.894531 8.390625 8.941406 L 8.390625 9.140625 C 8.390625 9.613281 8.757812 9.996094 9.214844 9.996094 L 9.269531 9.996094 C 9.722656 9.996094 10.09375 9.613281 10.09375 9.140625 L 10.09375 8.203125 C 10.09375 8.183594 10.09375 8.167969 10.09375 8.148438 C 10.089844 8.105469 10.101562 8.066406 10.125 8.03125 C 10.382812 7.664062 10.480469 7.023438 10.480469 6.664062 C 10.480469 6.378906 10.460938 6.066406 10.324219 5.796875 C 10.300781 5.75 10.300781 5.695312 10.320312 5.644531 C 10.339844 5.597656 10.378906 5.5625 10.425781 5.546875 C 10.445312 5.542969 10.460938 5.539062 10.476562 5.53125 C 10.851562 5.414062 11 5.273438 11 5.015625 C 11 4.761719 10.800781 4.554688 10.550781 4.550781 Z M 2.570312 7.949219 C 2.179688 7.949219 1.863281 7.621094 1.863281 7.21875 C 1.863281 6.816406 2.179688 6.488281 2.570312 6.488281 C 2.957031 6.488281 3.273438 6.816406 3.273438 7.21875 C 3.273438 7.621094 2.957031 7.949219 2.570312 7.949219 Z M 1.597656 4.808594 C 1.753906 2.367188 3.035156 2.230469 4.871094 2.222656 L 5.394531 2.222656 C 7.511719 2.222656 9.207031 2.386719 9.253906 4.808594 C 9.273438 5.820312 7.480469 6.074219 5.363281 6.074219 C 3.25 6.074219 1.53125 5.816406 1.597656 4.808594 Z M 8.566406 7.949219 C 8.179688 7.949219 7.863281 7.621094 7.863281 7.21875 C 7.863281 6.816406 8.179688 6.488281 8.566406 6.488281 C 8.957031 6.488281 9.273438 6.816406 9.273438 7.21875 C 9.273438 7.621094 8.957031 7.949219 8.566406 7.949219 Z M 3.480469 0.574219 L 3.050781 0.574219 L 3.050781 0.261719 L 4.28125 0.261719 L 4.28125 0.574219 L 3.84375 0.574219 L 3.84375 1.917969 L 3.480469 1.917969 Z M 4.675781 1.492188 L 4.558594 1.917969 L 4.1875 1.917969 L 4.675781 0.261719 L 5.148438 0.261719 L 5.644531 1.917969 L 5.253906 1.917969 L 5.132812 1.492188 Z M 5.082031 1.214844 L 4.980469 0.859375 C 4.953125 0.761719 4.921875 0.640625 4.898438 0.542969 L 4.894531 0.542969 C 4.871094 0.640625 4.847656 0.765625 4.820312 0.859375 L 4.726562 1.214844 Z M 6.644531 1.917969 L 6.5 1.621094 C 6.441406 1.503906 6.402344 1.417969 6.355469 1.320312 L 6.351562 1.320312 C 6.320312 1.417969 6.277344 1.503906 6.226562 1.621094 L 6.09375 1.917969 L 5.683594 1.917969 L 6.144531 1.082031 L 5.699219 0.261719 L 6.113281 0.261719 L 6.253906 0.5625 C 6.300781 0.664062 6.335938 0.746094 6.375 0.839844 L 6.378906 0.839844 C 6.417969 0.734375 6.449219 0.660156 6.488281 0.5625 L 6.625 0.261719 L 7.039062 0.261719 L 6.585938 1.070312 L 7.0625 1.917969 Z M 7.617188 0.261719 L 7.617188 1.917969 L 7.253906 1.917969 L 7.253906 0.261719 Z M 7.617188 0.261719 "/>
</g>
</svg>
