<?xml version="1.0" encoding="UTF-8"?>
<svg xmlns="http://www.w3.org/2000/svg" xmlns:xlink="http://www.w3.org/1999/xlink" width="6px" height="10px" viewBox="0 0 6 10" version="1.1">
<g id="surface1">
<path style=" stroke:none;fill-rule:nonzero;fill:rgb(30%,30%,30%);fill-opacity:1;" d="M 1.800781 6.5625 C 1.820312 6.527344 1.863281 6.511719 1.90625 6.515625 C 2.125 6.546875 2.351562 6.539062 2.570312 6.496094 C 3.019531 6.429688 3.464844 6.226562 3.871094 5.902344 C 3.941406 5.851562 4.011719 5.800781 4.082031 5.742188 C 4.089844 5.734375 4.316406 5.488281 4.402344 5.386719 C 4.402344 5.386719 4.40625 5.382812 4.410156 5.378906 L 5.984375 3.003906 C 6.015625 2.953125 6 2.890625 5.949219 2.859375 L 5.308594 2.480469 C 5.257812 2.453125 5.242188 2.390625 5.273438 2.339844 L 5.949219 1.324219 C 5.976562 1.285156 5.972656 1.234375 5.9375 1.199219 C 5.929688 1.179688 5.914062 1.164062 5.898438 1.152344 L 5.472656 0.894531 C 5.425781 0.863281 5.359375 0.878906 5.328125 0.925781 L 4.660156 1.953125 C 4.628906 2 4.5625 2.015625 4.515625 1.984375 C 4.511719 1.984375 4.511719 1.984375 4.511719 1.984375 L 3.914062 1.601562 C 3.867188 1.570312 3.851562 1.507812 3.882812 1.460938 L 4.5625 0.417969 C 4.59375 0.371094 4.578125 0.308594 4.527344 0.277344 L 4.105469 0.0195312 C 4.054688 -0.0117188 3.988281 0.00390625 3.957031 0.0507812 L 3.292969 1.074219 C 3.261719 1.121094 3.195312 1.136719 3.144531 1.105469 L 2.519531 0.703125 C 2.46875 0.671875 2.402344 0.683594 2.371094 0.730469 C 2.371094 0.734375 2.371094 0.734375 2.371094 0.734375 L 0.808594 3.117188 C 0.804688 3.121094 0.804688 3.125 0.800781 3.128906 C 0.261719 4.21875 0.332031 5.304688 1.003906 6.011719 C 1.035156 6.042969 1.042969 6.097656 1.015625 6.136719 C 0.417969 7.035156 -0.320312 8.152344 0.148438 9.144531 C 0.3125 9.484375 0.585938 9.753906 0.90625 9.984375 L 2.757812 9.996094 C 2.652344 9.941406 2.542969 9.886719 2.433594 9.832031 C 1.839844 9.542969 1.171875 9.214844 0.964844 8.785156 C 0.699219 8.222656 1.292969 7.324219 1.773438 6.601562 C 1.78125 6.589844 1.789062 6.574219 1.800781 6.5625 Z M 1.800781 6.5625 "/>
</g>
</svg>
