<?xml version="1.0" encoding="UTF-8"?>
<svg xmlns="http://www.w3.org/2000/svg" xmlns:xlink="http://www.w3.org/1999/xlink" width="10px" height="10px" viewBox="0 0 10 10" version="1.1">
<g id="surface1">
<path style=" stroke:none;fill-rule:nonzero;fill:rgb(30%,30%,30%);fill-opacity:1;" d="M 9.777344 1.472656 L 9.777344 1.769531 L 9.027344 2.507812 L 8.652344 2.085938 L 8.238281 2.535156 L 7.863281 2.085938 L 7.488281 2.5625 L 7.09375 2.105469 L 6.539062 2.632812 L 5.902344 2.632812 C 5.523438 3.308594 4.773438 3.632812 4.066406 3.421875 C 3.359375 3.210938 2.871094 2.523438 2.871094 1.738281 C 2.875 0.953125 3.367188 0.265625 4.078125 0.0585938 C 4.785156 -0.144531 5.535156 0.183594 5.90625 0.859375 L 9.183594 0.859375 Z M 3.804688 1.246094 C 3.550781 1.246094 3.347656 1.464844 3.347656 1.734375 C 3.347656 2.003906 3.550781 2.222656 3.804688 2.222656 C 4.054688 2.222656 4.257812 2.003906 4.257812 1.734375 C 4.257812 1.464844 4.054688 1.246094 3.804688 1.246094 Z M 3.804688 1.246094 "/>
<path style=" stroke:none;fill-rule:nonzero;fill:rgb(30%,30%,30%);fill-opacity:1;" d="M 8.027344 5.785156 C 7.644531 5.785156 7.269531 5.90625 6.949219 6.132812 L 6.140625 5.089844 L 6.417969 4.207031 C 6.421875 4.203125 6.421875 4.203125 6.421875 4.203125 L 6.847656 4.203125 C 6.941406 4.203125 7.015625 4.121094 7.015625 4.023438 C 7.015625 3.921875 6.941406 3.839844 6.847656 3.839844 L 5.492188 3.835938 C 5.398438 3.835938 5.320312 3.917969 5.320312 4.019531 C 5.320312 4.117188 5.394531 4.199219 5.488281 4.199219 L 6.011719 4.203125 L 5.832031 4.769531 L 3.195312 4.757812 L 3.183594 4.746094 C 3.179688 4.738281 3.171875 4.726562 3.164062 4.71875 L 3.320312 4.230469 L 3.914062 4.230469 C 4.019531 4.230469 4.105469 4.136719 4.105469 4.023438 C 4.105469 3.90625 4.019531 3.8125 3.914062 3.8125 L 3.039062 3.8125 L 2.648438 5.058594 L 2.398438 5.835938 C 2.261719 5.804688 2.117188 5.785156 1.972656 5.785156 C 0.886719 5.785156 0.00390625 6.730469 0.00390625 7.894531 C 0.00390625 9.054688 0.886719 10 1.972656 10 C 3.058594 10 3.941406 9.054688 3.941406 7.894531 C 3.941406 7.035156 3.460938 6.292969 2.769531 5.964844 L 3.015625 5.199219 L 4.917969 7.953125 C 4.953125 8.007812 5.011719 8.039062 5.074219 8.039062 C 5.078125 8.039062 5.082031 8.039062 5.089844 8.039062 C 5.09375 8.039062 5.09375 8.039062 5.097656 8.039062 L 6.0625 8.039062 C 6.132812 9.132812 6.988281 10 8.027344 10 C 9.113281 10 9.996094 9.054688 9.996094 7.894531 C 9.996094 6.730469 9.113281 5.785156 8.027344 5.785156 Z M 3.554688 7.894531 C 3.554688 8.824219 2.84375 9.582031 1.972656 9.582031 C 1.101562 9.582031 0.390625 8.824219 0.390625 7.894531 C 0.390625 6.960938 1.101562 6.203125 1.972656 6.203125 C 2.074219 6.203125 2.175781 6.210938 2.273438 6.234375 L 1.785156 7.773438 C 1.75 7.878906 1.804688 8 1.90625 8.035156 C 2.007812 8.074219 2.117188 8.015625 2.152344 7.90625 L 2.644531 6.363281 C 3.199219 6.640625 3.550781 7.238281 3.554688 7.894531 Z M 7.597656 7.621094 L 6.46875 7.621094 C 6.519531 7.28125 6.667969 6.964844 6.894531 6.714844 Z M 6.644531 6.394531 C 6.332031 6.722656 6.128906 7.15625 6.074219 7.621094 L 5.34375 7.621094 L 5.996094 5.554688 Z M 5.703125 5.183594 L 5.007812 7.386719 L 3.484375 5.175781 Z M 8.027344 9.582031 C 7.203125 9.582031 6.523438 8.902344 6.453125 8.039062 L 8 8.039062 C 8.078125 8.035156 8.144531 7.988281 8.179688 7.910156 C 8.210938 7.835938 8.199219 7.75 8.152344 7.6875 L 7.199219 6.453125 C 7.449219 6.289062 7.734375 6.203125 8.027344 6.203125 C 8.898438 6.203125 9.609375 6.960938 9.609375 7.894531 C 9.609375 8.824219 8.898438 9.582031 8.027344 9.582031 Z M 8.027344 9.582031 "/>
</g>
</svg>
