<?xml version="1.0" encoding="UTF-8"?>
<svg xmlns="http://www.w3.org/2000/svg" xmlns:xlink="http://www.w3.org/1999/xlink" width="10px" height="11px" viewBox="0 0 10 11" version="1.1">
<g id="surface1">
<path style=" stroke:none;fill-rule:nonzero;fill:rgb(30%,30%,30%);fill-opacity:1;" d="M 7.597656 0 C 6.273438 0 5.199219 2.460938 5.199219 5.5 C 5.199219 5.917969 5.21875 6.335938 5.261719 6.75 C 5.390625 6.664062 5.535156 6.601562 5.6875 6.5625 C 5.859375 6.519531 6.042969 6.519531 6.21875 6.558594 C 6.183594 6.257812 6.167969 5.953125 6.167969 5.648438 C 6.167969 3.703125 6.800781 2.128906 7.582031 2.128906 C 8.363281 2.128906 8.996094 3.703125 8.996094 5.648438 C 8.996094 6.65625 8.824219 7.570312 8.550781 8.210938 L 8.082031 7.847656 L 8.050781 7.894531 C 6.765625 6.902344 6.21875 6.730469 5.722656 6.851562 C 4.917969 7.046875 4.578125 7.941406 4.351562 8.53125 C 4.300781 8.664062 4.257812 8.773438 4.222656 8.847656 C 3.757812 9.769531 3.59375 9.769531 3.152344 9.769531 C 2.980469 9.769531 2.914062 9.71875 2.875 9.679688 C 2.652344 9.449219 2.660156 8.703125 2.6875 7.816406 L 3.097656 7.816406 C 3.269531 7.816406 3.40625 7.675781 3.40625 7.507812 L 3.40625 5.085938 C 4.5 4.628906 5.191406 3.410156 4.808594 2.105469 C 4.585938 1.339844 3.988281 0.738281 3.21875 0.503906 C 1.539062 -0.00390625 0 1.238281 0 2.832031 C 0 3.824219 0.597656 4.679688 1.453125 5.0625 C 1.453125 5.074219 1.449219 5.089844 1.449219 5.101562 L 1.449219 7.503906 C 1.453125 7.675781 1.589844 7.8125 1.761719 7.8125 L 2.019531 7.8125 C 1.984375 8.953125 1.984375 9.714844 2.398438 10.140625 C 2.585938 10.332031 2.839844 10.429688 3.152344 10.429688 C 3.847656 10.429688 4.234375 10.304688 4.820312 9.144531 C 4.871094 9.039062 4.917969 8.914062 4.976562 8.765625 C 5.152344 8.304688 5.417969 7.605469 5.882812 7.496094 C 6.167969 7.425781 6.550781 7.570312 7.636719 8.414062 L 7.566406 8.503906 L 8.105469 8.917969 C 7.945312 9.078125 7.765625 9.167969 7.582031 9.167969 C 7.167969 9.167969 6.796875 8.722656 6.535156 8.011719 C 6.332031 7.933594 6.121094 7.894531 6.011719 7.921875 C 5.875 7.953125 5.65625 8.117188 5.53125 8.28125 C 5.949219 9.90625 6.71875 11 7.601562 11 C 8.925781 11 10 8.539062 10 5.5 C 9.996094 2.460938 8.921875 0 7.597656 0 Z M 2.273438 4.808594 C 1.320312 4.726562 0.554688 3.960938 0.46875 3.015625 C 0.359375 1.78125 1.394531 0.75 2.636719 0.859375 C 3.589844 0.941406 4.359375 1.707031 4.441406 2.652344 C 4.554688 3.886719 3.515625 4.917969 2.273438 4.808594 Z M 2.273438 4.808594 "/>
<path style=" stroke:none;fill-rule:nonzero;fill:rgb(30%,30%,30%);fill-opacity:1;" d="M 2.835938 2.917969 C 2.835938 3.015625 2.796875 3.109375 2.726562 3.179688 C 2.660156 3.246094 2.566406 3.285156 2.46875 3.285156 C 2.429688 3.285156 2.390625 3.277344 2.355469 3.265625 C 2.332031 3.261719 2.3125 3.253906 2.292969 3.238281 C 2.183594 3.179688 2.109375 3.070312 2.101562 2.949219 C 1.859375 2.503906 1.378906 1.582031 1.492188 1.507812 C 1.601562 1.4375 2.226562 2.160156 2.558594 2.566406 C 2.722656 2.605469 2.835938 2.75 2.835938 2.917969 Z M 2.46875 2.71875 C 2.363281 2.71875 2.28125 2.820312 2.28125 2.941406 C 2.28125 3.0625 2.363281 3.164062 2.46875 3.164062 C 2.574219 3.164062 2.65625 3.0625 2.65625 2.941406 C 2.65625 2.820312 2.574219 2.71875 2.46875 2.71875 Z M 2.46875 2.71875 "/>
</g>
</svg>
