<?xml version="1.0" encoding="UTF-8" standalone="no"?>
<!-- Created with Inkscape (http://www.inkscape.org/) -->

<svg
   xmlns:dc="http://purl.org/dc/elements/1.1/"
   xmlns:cc="http://creativecommons.org/ns#"
   xmlns:rdf="http://www.w3.org/1999/02/22-rdf-syntax-ns#"
   xmlns:svg="http://www.w3.org/2000/svg"
   xmlns="http://www.w3.org/2000/svg"
   xmlns:xlink="http://www.w3.org/1999/xlink"
   xmlns:sodipodi="http://sodipodi.sourceforge.net/DTD/sodipodi-0.dtd"
   xmlns:inkscape="http://www.inkscape.org/namespaces/inkscape"
   width="30px"
   height="30px"
   version="1.1"
   id="svg8"
   inkscape:version="0.92.4 5da689c313, 2019-01-14"
   sodipodi:docname="container.svg">
  <defs
     id="defs2" />
  <sodipodi:namedview
     id="base"
     pagecolor="#ffffff"
     bordercolor="#666666"
     borderopacity="1.0"
     inkscape:pageopacity="0.0"
     inkscape:pageshadow="2"
     inkscape:zoom="13.049334"
     inkscape:cx="18.679046"
     inkscape:cy="12.165829"
     inkscape:document-units="px"
     inkscape:current-layer="layer1"
     showgrid="false"
     inkscape:snap-page="false"
     units="px"
     inkscape:window-width="1884"
     inkscape:window-height="1061"
     inkscape:window-x="0"
     inkscape:window-y="0"
     inkscape:window-maximized="1"
     fit-margin-top="0"
     fit-margin-left="0"
     fit-margin-right="0"
     fit-margin-bottom="0" />
  <metadata
     id="metadata5">
    <rdf:RDF>
      <cc:Work
         rdf:about="">
        <dc:format>image/svg+xml</dc:format>
        <dc:type
           rdf:resource="http://purl.org/dc/dcmitype/StillImage" />
        <dc:title></dc:title>
      </cc:Work>
    </rdf:RDF>
  </metadata>
    <circle
       style="color:#000000;clip-rule:nonzero;display:inline;overflow:visible;visibility:visible;opacity:1;isolation:auto;mix-blend-mode:normal;color-interpolation:sRGB;color-interpolation-filters:linearRGB;solid-color:#000000;solid-opacity:1;vector-effect:none;fill:#3772a6;fill-opacity:1;fill-rule:evenodd;stroke:#ffffff;stroke-width:1;stroke-linecap:butt;stroke-linejoin:miter;stroke-miterlimit:4;stroke-dasharray:none;stroke-dashoffset:0;stroke-opacity:1;marker:none;color-rendering:auto;image-rendering:auto;shape-rendering:auto;text-rendering:auto;enable-background:accumulate"
       id="path815"
       cx="15"
       cy="15"
       r="14.5" />
<g transform="translate(7,8)"><g id="surface1">
<path style=" stroke:none;fill-rule:nonzero;fill:#FFFFFF;fill-opacity:1;" d="M 10.128906 6.929688 L 10.128906 8.695312 L 9.367188 8.953125 L 9.367188 7.183594 Z M 10.820312 6.699219 L 10.820312 8.464844 L 11.582031 8.210938 L 11.582031 6.441406 Z M 12.269531 6.207031 L 12.269531 7.972656 L 13.035156 7.71875 L 13.035156 5.949219 Z M 13.722656 5.71875 L 13.722656 7.488281 L 14.488281 7.230469 L 14.488281 5.464844 Z M 16 6.726562 L 15.507812 5.125 L 15.171875 5.238281 L 15.171875 7.003906 Z M 8.679688 7.414062 L 8.679688 9.183594 L 7.917969 9.4375 L 7.867188 13.980469 L 0.0351562 13.996094 L 0.0195312 12.574219 L 0.484375 12.574219 L 0.484375 0.679688 L 0.015625 0.679688 L 0 0.0195312 L 7.921875 0.00390625 L 7.9375 0.667969 L 6.203125 0.671875 L 6.203125 12.566406 L 6.410156 12.5625 L 6.410156 7.859375 C 6.410156 7.421875 6.75 7.066406 7.171875 7.066406 C 7.527344 7.066406 7.835938 7.328125 7.914062 7.691406 L 7.914062 7.671875 Z M 5.519531 1.386719 L 1.144531 1.386719 L 1.144531 6.089844 L 5.519531 6.089844 Z M 5.519531 1.386719 "/>
</g>
</g>
</svg>
