<?xml version="1.0" encoding="UTF-8" standalone="no"?>
<!-- Created with Inkscape (http://www.inkscape.org/) -->

<svg
   xmlns:dc="http://purl.org/dc/elements/1.1/"
   xmlns:cc="http://creativecommons.org/ns#"
   xmlns:rdf="http://www.w3.org/1999/02/22-rdf-syntax-ns#"
   xmlns:svg="http://www.w3.org/2000/svg"
   xmlns="http://www.w3.org/2000/svg"
   xmlns:xlink="http://www.w3.org/1999/xlink"
   xmlns:sodipodi="http://sodipodi.sourceforge.net/DTD/sodipodi-0.dtd"
   xmlns:inkscape="http://www.inkscape.org/namespaces/inkscape"
   width="30px"
   height="30px"
   version="1.1"
   id="svg8"
   inkscape:version="0.92.4 5da689c313, 2019-01-14"
   sodipodi:docname="container.svg">
  <defs
     id="defs2" />
  <sodipodi:namedview
     id="base"
     pagecolor="#ffffff"
     bordercolor="#666666"
     borderopacity="1.0"
     inkscape:pageopacity="0.0"
     inkscape:pageshadow="2"
     inkscape:zoom="13.049334"
     inkscape:cx="18.679046"
     inkscape:cy="12.165829"
     inkscape:document-units="px"
     inkscape:current-layer="layer1"
     showgrid="false"
     inkscape:snap-page="false"
     units="px"
     inkscape:window-width="1884"
     inkscape:window-height="1061"
     inkscape:window-x="0"
     inkscape:window-y="0"
     inkscape:window-maximized="1"
     fit-margin-top="0"
     fit-margin-left="0"
     fit-margin-right="0"
     fit-margin-bottom="0" />
  <metadata
     id="metadata5">
    <rdf:RDF>
      <cc:Work
         rdf:about="">
        <dc:format>image/svg+xml</dc:format>
        <dc:type
           rdf:resource="http://purl.org/dc/dcmitype/StillImage" />
        <dc:title></dc:title>
      </cc:Work>
    </rdf:RDF>
  </metadata>
    <circle
       style="color:#000000;clip-rule:nonzero;display:inline;overflow:visible;visibility:visible;opacity:1;isolation:auto;mix-blend-mode:normal;color-interpolation:sRGB;color-interpolation-filters:linearRGB;solid-color:#000000;solid-opacity:1;vector-effect:none;fill:#ffffff;fill-opacity:1;fill-rule:evenodd;stroke:#008ecf;stroke-width:1;stroke-linecap:butt;stroke-linejoin:miter;stroke-miterlimit:4;stroke-dasharray:none;stroke-dashoffset:0;stroke-opacity:1;marker:none;color-rendering:auto;image-rendering:auto;shape-rendering:auto;text-rendering:auto;enable-background:accumulate"
       id="path815"
       cx="15"
       cy="15"
       r="14.5" />
<g transform="translate(6,7)"><g id="surface1">
<path style=" stroke:none;fill-rule:nonzero;fill:rgb(30%,30%,30%);fill-opacity:1;" d="M 16.308594 6.828125 L 15.222656 6.816406 C 15.089844 6.8125 14.976562 6.707031 14.96875 6.574219 C 14.84375 4.976562 14.007812 3.902344 12.574219 3.289062 L 12.574219 0.632812 C 12.574219 0.285156 12.292969 0.00390625 11.949219 0.00390625 L 4.847656 0.00390625 C 4.503906 0.00390625 4.226562 0.285156 4.222656 0.632812 L 4.222656 3.136719 C 3.824219 3.304688 3.464844 3.527344 3.171875 3.828125 C 2.367188 4.648438 1.902344 5.617188 1.835938 6.585938 C 1.828125 6.726562 1.714844 6.832031 1.574219 6.832031 L 0.691406 6.828125 C 0.308594 6.828125 0 7.140625 0 7.523438 C 0 7.839844 0.0429688 8.199219 0.824219 8.347656 C 0.90625 8.363281 0.972656 8.417969 1.011719 8.492188 C 1.046875 8.566406 1.046875 8.652344 1.007812 8.726562 C 0.792969 9.125 0.773438 9.554688 0.773438 9.996094 C 0.773438 10.5625 0.964844 11.402344 1.390625 11.996094 C 1.425781 12.046875 1.445312 12.113281 1.4375 12.179688 C 1.429688 12.222656 1.429688 12.261719 1.429688 12.304688 L 1.429688 13.710938 C 1.429688 14.417969 2 14.992188 2.707031 14.996094 L 2.789062 14.996094 C 3.492188 14.992188 4.0625 14.417969 4.0625 13.710938 L 4.0625 13.15625 C 4.070312 13.15625 4.074219 13.160156 4.078125 13.160156 C 5.195312 13.25 10.832031 13.257812 12.691406 13.152344 C 12.761719 13.148438 12.832031 13.171875 12.882812 13.222656 C 12.9375 13.273438 12.964844 13.339844 12.964844 13.414062 L 12.964844 13.710938 C 12.96875 14.417969 13.539062 14.992188 14.242188 14.996094 L 14.324219 14.996094 C 15.027344 14.992188 15.597656 14.417969 15.601562 13.710938 L 15.601562 12.304688 C 15.601562 12.277344 15.597656 12.25 15.597656 12.222656 C 15.59375 12.160156 15.609375 12.097656 15.648438 12.046875 C 16.042969 11.496094 16.199219 10.539062 16.199219 9.996094 C 16.199219 9.566406 16.167969 9.101562 15.957031 8.691406 C 15.921875 8.625 15.917969 8.542969 15.949219 8.46875 C 15.980469 8.398438 16.039062 8.34375 16.113281 8.320312 C 16.140625 8.316406 16.164062 8.308594 16.1875 8.300781 C 16.773438 8.117188 17 7.90625 17 7.523438 C 17 7.140625 16.691406 6.828125 16.308594 6.828125 Z M 3.96875 11.925781 C 3.371094 11.925781 2.882812 11.433594 2.882812 10.828125 C 2.882812 10.222656 3.371094 9.730469 3.96875 9.730469 C 4.570312 9.730469 5.058594 10.222656 5.058594 10.828125 C 5.058594 11.433594 4.570312 11.925781 3.96875 11.925781 Z M 2.46875 7.214844 C 2.710938 3.550781 4.691406 3.34375 7.527344 3.335938 L 8.339844 3.335938 C 11.605469 3.335938 14.226562 3.578125 14.300781 7.214844 C 14.332031 8.726562 11.558594 9.109375 8.289062 9.109375 C 5.023438 9.109375 2.367188 8.726562 2.46875 7.214844 Z M 13.242188 11.925781 C 12.640625 11.925781 12.152344 11.433594 12.152344 10.828125 C 12.152344 10.222656 12.640625 9.730469 13.242188 9.730469 C 13.84375 9.730469 14.328125 10.222656 14.328125 10.828125 C 14.328125 11.433594 13.84375 11.925781 13.242188 11.925781 Z M 5.378906 0.863281 L 4.714844 0.863281 L 4.714844 0.390625 L 6.617188 0.390625 L 6.617188 0.863281 L 5.941406 0.863281 L 5.941406 2.878906 L 5.378906 2.878906 Z M 7.222656 2.242188 L 7.046875 2.878906 L 6.46875 2.878906 L 7.222656 0.390625 L 7.957031 0.390625 L 8.722656 2.878906 L 8.121094 2.878906 L 7.933594 2.242188 Z M 7.851562 1.820312 L 7.695312 1.292969 C 7.652344 1.144531 7.609375 0.960938 7.574219 0.8125 L 7.566406 0.8125 C 7.527344 0.960938 7.492188 1.148438 7.453125 1.292969 L 7.304688 1.820312 Z M 10.265625 2.878906 L 10.042969 2.429688 C 9.953125 2.253906 9.894531 2.125 9.824219 1.980469 L 9.816406 1.980469 C 9.765625 2.125 9.703125 2.253906 9.625 2.429688 L 9.421875 2.878906 L 8.78125 2.878906 L 9.496094 1.621094 L 8.808594 0.390625 L 9.449219 0.390625 L 9.667969 0.84375 C 9.738281 0.996094 9.792969 1.117188 9.851562 1.257812 L 9.859375 1.257812 C 9.917969 1.101562 9.964844 0.988281 10.027344 0.84375 L 10.238281 0.390625 L 10.875 0.390625 L 10.179688 1.605469 L 10.914062 2.878906 Z M 11.773438 0.390625 L 11.773438 2.878906 L 11.214844 2.878906 L 11.214844 0.390625 Z M 11.773438 0.390625 "/>
</g>
</g>
</svg>
