<?xml version="1.0" encoding="UTF-8"?>
<svg xmlns="http://www.w3.org/2000/svg" xmlns:xlink="http://www.w3.org/1999/xlink" width="10px" height="10px" viewBox="0 0 10 10" version="1.1">
<g id="surface1">
<path style=" stroke:none;fill-rule:nonzero;fill:rgb(30%,30%,30%);fill-opacity:1;" d="M 2.96875 5.023438 L 2.96875 5.019531 L 4.367188 5.019531 C 4.632812 5.019531 4.851562 4.789062 4.851562 4.5 L 4.851562 0.523438 C 4.851562 0.234375 4.632812 0 4.367188 0 L 1.0625 0 C 0.792969 0 0.578125 0.234375 0.578125 0.523438 L 0.578125 4.5 C 0.578125 4.789062 0.792969 5.019531 1.0625 5.019531 L 2.363281 5.019531 Z M 1.722656 1.085938 C 1.722656 1.070312 1.730469 1.054688 1.742188 1.042969 C 1.75 1.03125 1.765625 1.023438 1.78125 1.023438 L 2.890625 1.023438 C 3.765625 1.023438 3.898438 1.632812 3.898438 1.996094 C 3.898438 2.609375 3.539062 2.949219 2.890625 2.949219 L 2.347656 2.949219 L 2.347656 3.929688 C 2.347656 3.949219 2.339844 3.964844 2.328125 3.976562 C 2.316406 3.988281 2.304688 3.992188 2.289062 3.992188 L 1.78125 3.992188 C 1.765625 3.992188 1.75 3.988281 1.742188 3.976562 C 1.730469 3.964844 1.722656 3.949219 1.722656 3.929688 Z M 1.722656 1.085938 "/>
<path style=" stroke:none;fill-rule:nonzero;fill:rgb(30%,30%,30%);fill-opacity:1;" d="M 3.289062 1.996094 C 3.289062 1.667969 3.097656 1.484375 2.753906 1.484375 L 2.347656 1.484375 L 2.347656 2.492188 L 2.753906 2.492188 C 2.996094 2.488281 3.289062 2.402344 3.289062 1.996094 Z M 3.289062 1.996094 "/>
<path style=" stroke:none;fill-rule:nonzero;fill:rgb(30%,30%,30%);fill-opacity:1;" d="M 8.414062 6.589844 C 8.199219 6.589844 7.988281 6.636719 7.789062 6.726562 L 7.230469 5.789062 L 7.414062 5.796875 L 7.414062 4.742188 C 6.957031 4.742188 6.773438 4.953125 6.699219 5.105469 L 5.515625 4.429688 C 5.414062 4.371094 5.292969 4.410156 5.238281 4.519531 L 5.183594 4.632812 C 5.128906 4.742188 5.167969 4.875 5.265625 4.933594 L 5.890625 5.289062 C 3.675781 5.582031 3.585938 6.339844 3.503906 6.285156 C 3.148438 6.027344 1.574219 6 1.574219 6 L 1.574219 6.386719 C 1.984375 6.324219 2.371094 6.414062 2.683594 6.628906 C 2.679688 6.632812 2.675781 6.636719 2.667969 6.644531 L 2.46875 6.878906 C 1.867188 6.445312 1.070312 6.503906 0.53125 7.023438 C -0.0078125 7.539062 -0.152344 8.386719 0.179688 9.078125 C 0.511719 9.769531 1.234375 10.132812 1.941406 9.957031 C 2.644531 9.78125 3.148438 9.117188 3.167969 8.339844 L 3.507812 8.296875 C 3.570312 8.433594 4.910156 8.695312 6.101562 8.570312 C 6.4375 8.535156 6.53125 8.082031 6.53125 8.082031 L 6.605469 5.925781 L 6.640625 5.792969 L 7.367188 7.015625 C 6.792969 7.558594 6.664062 8.46875 7.058594 9.171875 C 7.453125 9.878906 8.257812 10.179688 8.972656 9.890625 C 9.6875 9.597656 10.109375 8.796875 9.96875 7.988281 C 9.832031 7.179688 9.179688 6.589844 8.414062 6.589844 Z M 2.511719 7.65625 C 2.550781 7.722656 2.585938 7.792969 2.613281 7.867188 L 2.296875 7.910156 Z M 1.585938 9.480469 C 1.125 9.480469 0.710938 9.167969 0.550781 8.703125 C 0.394531 8.234375 0.523438 7.710938 0.875 7.390625 C 1.230469 7.066406 1.730469 7.019531 2.132812 7.269531 L 1.429688 8.085938 C 1.347656 8.179688 1.355469 8.332031 1.441406 8.421875 L 1.503906 8.480469 C 1.566406 8.542969 1.660156 8.5625 1.742188 8.523438 L 2.679688 8.402344 C 2.628906 9.011719 2.15625 9.480469 1.585938 9.480469 Z M 3.101562 7.804688 C 3.046875 7.609375 2.960938 7.425781 2.847656 7.265625 L 3.054688 7.027344 C 3.058594 7.019531 3.066406 7.011719 3.070312 7.003906 C 3.222656 7.210938 3.34375 7.46875 3.421875 7.761719 Z M 8.390625 9.480469 C 7.945312 9.480469 7.542969 9.1875 7.375 8.742188 C 7.207031 8.296875 7.304688 7.78125 7.625 7.445312 L 8.195312 8.402344 C 8.269531 8.527344 8.425781 8.5625 8.542969 8.484375 C 8.65625 8.402344 8.691406 8.238281 8.617188 8.109375 L 8.054688 7.167969 C 8.46875 7.023438 8.921875 7.15625 9.210938 7.503906 C 9.5 7.851562 9.574219 8.351562 9.398438 8.777344 C 9.21875 9.203125 8.828125 9.480469 8.390625 9.480469 Z M 8.390625 9.480469 "/>
</g>
</svg>
