<?xml version="1.0" encoding="UTF-8"?>
<svg xmlns="http://www.w3.org/2000/svg" xmlns:xlink="http://www.w3.org/1999/xlink" width="10px" height="6px" viewBox="0 0 10 6" version="1.1">
<g id="surface1">
<path style=" stroke:none;fill-rule:nonzero;fill:rgb(30%,30%,30%);fill-opacity:1;" d="M 8.027344 1.914062 C 7.644531 1.914062 7.269531 2.027344 6.949219 2.246094 L 6.140625 1.238281 L 6.421875 0.378906 L 6.847656 0.378906 C 6.941406 0.378906 7.019531 0.300781 7.019531 0.203125 C 7.019531 0.105469 6.941406 0.0273438 6.847656 0.0234375 L 5.492188 0.0195312 C 5.398438 0.0195312 5.320312 0.101562 5.320312 0.199219 C 5.320312 0.296875 5.394531 0.375 5.488281 0.375 L 6.011719 0.375 L 5.832031 0.925781 L 3.195312 0.914062 L 3.183594 0.902344 C 3.179688 0.894531 3.171875 0.886719 3.164062 0.878906 L 3.320312 0.402344 L 3.914062 0.402344 C 4.019531 0.402344 4.105469 0.3125 4.105469 0.203125 C 4.105469 0.0898438 4.019531 0 3.914062 0 L 3.039062 0 L 2.648438 1.207031 L 2.398438 1.960938 C 2.257812 1.929688 2.117188 1.914062 1.972656 1.914062 C 0.886719 1.914062 0 2.828125 0 3.957031 C 0 5.082031 0.886719 6 1.972656 6 C 3.058594 6 3.941406 5.082031 3.941406 3.957031 C 3.941406 3.125 3.460938 2.40625 2.769531 2.089844 L 3.015625 1.34375 L 4.917969 4.015625 C 4.953125 4.066406 5.011719 4.097656 5.074219 4.097656 C 5.078125 4.097656 5.082031 4.097656 5.089844 4.097656 C 5.09375 4.097656 5.09375 4.097656 5.097656 4.097656 L 6.0625 4.097656 C 6.132812 5.160156 6.988281 6 8.027344 6 C 9.113281 6 10 5.082031 10 3.957031 C 10 2.828125 9.113281 1.914062 8.027344 1.914062 Z M 3.550781 3.957031 C 3.550781 4.859375 2.84375 5.597656 1.972656 5.597656 C 1.101562 5.597656 0.390625 4.859375 0.390625 3.957031 C 0.390625 3.050781 1.101562 2.316406 1.972656 2.316406 C 2.074219 2.316406 2.175781 2.328125 2.273438 2.347656 L 1.785156 3.839844 C 1.75 3.945312 1.804688 4.058594 1.90625 4.09375 C 2.007812 4.132812 2.117188 4.074219 2.152344 3.96875 L 2.644531 2.472656 C 3.199219 2.742188 3.550781 3.320312 3.550781 3.957031 Z M 7.597656 3.695312 L 6.46875 3.695312 C 6.519531 3.363281 6.667969 3.054688 6.894531 2.8125 Z M 6.648438 2.5 C 6.332031 2.820312 6.132812 3.242188 6.074219 3.695312 L 5.34375 3.695312 L 5.996094 1.6875 Z M 5.703125 1.328125 L 5.007812 3.464844 L 3.480469 1.320312 Z M 8.027344 5.597656 C 7.203125 5.597656 6.523438 4.9375 6.453125 4.097656 L 8 4.097656 C 8.078125 4.09375 8.148438 4.046875 8.179688 3.976562 C 8.210938 3.902344 8.199219 3.816406 8.152344 3.753906 L 7.199219 2.5625 C 7.449219 2.402344 7.734375 2.316406 8.027344 2.316406 C 8.898438 2.316406 9.609375 3.050781 9.609375 3.957031 C 9.609375 4.859375 8.898438 5.597656 8.027344 5.597656 Z M 8.027344 5.597656 "/>
</g>
</svg>
