<?xml version="1.0" encoding="UTF-8"?>
<svg xmlns="http://www.w3.org/2000/svg" xmlns:xlink="http://www.w3.org/1999/xlink" width="11px" height="6px" viewBox="0 0 11 6" version="1.1">
<g id="surface1">
<path style=" stroke:none;fill-rule:nonzero;fill:rgb(30%,30%,30%);fill-opacity:1;" d="M 2.367188 4.042969 C 2.410156 4.03125 2.457031 4.007812 2.5 4.007812 C 2.542969 4.007812 2.621094 4.03125 2.90625 4.339844 C 3.488281 4.96875 4.355469 5.691406 5.644531 6 L 0.628906 5.847656 C 0.367188 5.835938 0.234375 5.691406 0.0898438 5.382812 L 0.00390625 5.195312 Z M 5.226562 3.734375 L 10.566406 5.382812 C 10.796875 5.464844 10.996094 5.65625 10.996094 5.90625 C 10.996094 5.988281 10.972656 6 10.898438 6 L 7.027344 5.785156 Z M 5.050781 3.449219 L 3.511719 1.707031 C 2.476562 0.535156 1.652344 0.238281 1.398438 0.144531 C 1.566406 0.046875 1.75 -0.00390625 1.9375 0 C 3.566406 0 5.707031 3.15625 6.058594 3.769531 Z M 6.785156 5.835938 L 6.664062 5.835938 C 4.882812 5.835938 4.464844 5.550781 1.707031 2.847656 C 1.101562 2.253906 0.488281 1.304688 0.488281 0.878906 C 0.488281 0.488281 0.675781 0.226562 1.046875 0.226562 C 1.324219 0.226562 1.949219 0.414062 3.355469 1.992188 Z M 5.652344 2.3125 L 7.359375 2.015625 L 7.46875 2.207031 L 6.652344 3.09375 C 6.476562 3.046875 6.3125 3.023438 6.136719 3.046875 Z M 8.238281 3.308594 L 7.808594 4.316406 L 6.257812 3.832031 L 7.730469 2.230469 L 7.535156 1.875 L 10.128906 2.75 L 10.535156 3.605469 Z M 8.238281 3.308594 "/>
</g>
</svg>
