<?xml version="1.0" encoding="UTF-8"?>
<svg xmlns="http://www.w3.org/2000/svg" xmlns:xlink="http://www.w3.org/1999/xlink" width="10px" height="9px" viewBox="0 0 10 9" version="1.1">
<g id="surface1">
<path style=" stroke:none;fill-rule:nonzero;fill:rgb(30%,30%,30%);fill-opacity:1;" d="M 6.332031 4.453125 L 6.332031 5.589844 L 5.855469 5.753906 L 5.855469 4.617188 Z M 6.761719 4.304688 L 6.761719 5.441406 L 7.238281 5.277344 L 7.238281 4.140625 Z M 7.667969 3.988281 L 7.667969 5.125 L 8.144531 4.960938 L 8.144531 3.824219 Z M 8.574219 3.675781 L 8.574219 4.8125 L 9.054688 4.648438 L 9.054688 3.511719 Z M 10 4.324219 L 9.691406 3.292969 L 9.484375 3.367188 L 9.484375 4.503906 Z M 5.425781 4.765625 L 5.425781 5.902344 L 4.949219 6.066406 L 4.917969 8.988281 L 0.0195312 8.996094 L 0.0117188 8.082031 L 0.304688 8.082031 L 0.304688 0.4375 L 0.0078125 0.4375 L 0 0.0117188 L 4.953125 0.00390625 L 4.960938 0.429688 L 3.875 0.433594 L 3.875 8.078125 L 4.007812 8.078125 L 4.007812 5.054688 C 4.007812 4.769531 4.21875 4.542969 4.480469 4.542969 C 4.703125 4.542969 4.898438 4.710938 4.945312 4.945312 L 4.945312 4.929688 Z M 3.449219 0.894531 L 0.714844 0.894531 L 0.714844 3.914062 L 3.449219 3.914062 Z M 3.449219 0.894531 "/>
</g>
</svg>
