<?xml version="1.0" encoding="UTF-8"?>
<svg xmlns="http://www.w3.org/2000/svg" xmlns:xlink="http://www.w3.org/1999/xlink" width="11px" height="7px" viewBox="0 0 11 7" version="1.1">
<g id="surface1">
<path style=" stroke:none;fill-rule:nonzero;fill:rgb(30%,30%,30%);fill-opacity:1;" d="M 9.4375 2.546875 L 9.035156 1.191406 L 8.300781 1.191406 L 7.828125 0 L 7.191406 0 L 7.320312 1.191406 L 6.820312 1.191406 L 6.617188 2.136719 L 0.804688 2.136719 L 1.074219 2.863281 L 0 2.863281 L 0.632812 5.203125 C 0.800781 5.175781 0.980469 5.105469 1.164062 5.03125 C 1.421875 4.929688 1.683594 4.828125 1.960938 4.816406 C 2.339844 4.796875 2.65625 4.929688 2.933594 5.046875 C 3.152344 5.136719 3.339844 5.21875 3.53125 5.21875 C 3.84375 5.21875 4.0625 5.121094 4.296875 5.019531 C 4.503906 4.925781 4.722656 4.832031 4.996094 4.816406 C 5.472656 4.789062 5.820312 4.933594 6.125 5.0625 C 6.289062 5.132812 6.4375 5.195312 6.582031 5.21875 L 6.90625 5.21875 C 7.128906 5.191406 7.292969 5.109375 7.460938 5.023438 C 7.660156 4.925781 7.867188 4.824219 8.152344 4.800781 C 8.585938 4.765625 8.910156 4.914062 9.195312 5.046875 C 9.386719 5.136719 9.550781 5.210938 9.722656 5.21875 L 10.824219 2.863281 L 11 2.546875 Z M 9.4375 2.546875 "/>
<path style=" stroke:none;fill-rule:nonzero;fill:rgb(30%,30%,30%);fill-opacity:1;" d="M 9.675781 6.511719 C 9.507812 6.503906 9.339844 6.429688 9.148438 6.339844 C 8.863281 6.207031 8.542969 6.058594 8.105469 6.09375 C 7.824219 6.117188 7.617188 6.21875 7.417969 6.316406 C 7.195312 6.425781 6.984375 6.53125 6.648438 6.523438 C 6.46875 6.519531 6.289062 6.445312 6.082031 6.355469 C 5.773438 6.226562 5.429688 6.082031 4.949219 6.109375 C 4.675781 6.125 4.460938 6.21875 4.25 6.3125 C 4.019531 6.414062 3.796875 6.511719 3.484375 6.511719 C 3.292969 6.511719 3.105469 6.429688 2.886719 6.339844 C 2.609375 6.222656 2.292969 6.089844 1.914062 6.109375 C 1.640625 6.121094 1.375 6.226562 1.121094 6.324219 C 0.878906 6.421875 0.652344 6.511719 0.445312 6.511719 C 0.328125 6.507812 0.207031 6.492188 0.0898438 6.460938 L 0.09375 6.949219 C 0.210938 6.972656 0.328125 6.984375 0.445312 6.984375 C 0.734375 6.984375 1.011719 6.875 1.277344 6.769531 C 1.511719 6.679688 1.730469 6.59375 1.933594 6.582031 C 2.21875 6.570312 2.460938 6.671875 2.71875 6.78125 C 2.957031 6.878906 3.207031 6.984375 3.484375 6.984375 C 3.890625 6.984375 4.171875 6.859375 4.425781 6.75 C 4.613281 6.667969 4.777344 6.59375 4.976562 6.582031 C 5.351562 6.5625 5.636719 6.679688 5.910156 6.796875 C 6.140625 6.894531 6.375 6.992188 6.640625 7 C 6.65625 7 6.667969 7 6.683594 7 C 7.101562 7 7.371094 6.867188 7.609375 6.746094 C 7.785156 6.660156 7.941406 6.582031 8.140625 6.566406 C 8.460938 6.542969 8.707031 6.65625 8.964844 6.773438 C 9.183594 6.875 9.40625 6.976562 9.664062 6.984375 C 9.679688 6.984375 9.699219 6.984375 9.714844 6.984375 C 10.0625 6.984375 10.378906 6.886719 10.585938 6.796875 L 10.585938 6.273438 C 10.476562 6.335938 10.097656 6.523438 9.675781 6.511719 Z M 9.675781 6.511719 "/>
<path style=" stroke:none;fill-rule:nonzero;fill:rgb(30%,30%,30%);fill-opacity:1;" d="M 9.675781 5.613281 C 9.507812 5.605469 9.339844 5.53125 9.148438 5.441406 C 8.863281 5.308594 8.542969 5.160156 8.105469 5.195312 C 7.824219 5.21875 7.617188 5.320312 7.417969 5.417969 C 7.195312 5.53125 6.984375 5.632812 6.648438 5.625 C 6.46875 5.621094 6.289062 5.546875 6.082031 5.460938 C 5.773438 5.328125 5.429688 5.183594 4.949219 5.210938 C 4.675781 5.226562 4.460938 5.320312 4.25 5.414062 C 4.019531 5.515625 3.796875 5.613281 3.484375 5.613281 C 3.292969 5.613281 3.105469 5.53125 2.886719 5.441406 C 2.609375 5.324219 2.292969 5.191406 1.914062 5.210938 C 1.640625 5.222656 1.375 5.328125 1.121094 5.425781 C 0.878906 5.523438 0.652344 5.613281 0.445312 5.613281 C 0.328125 5.609375 0.207031 5.59375 0.0898438 5.5625 L 0.09375 6.050781 C 0.210938 6.074219 0.328125 6.085938 0.445312 6.085938 C 0.734375 6.085938 1.011719 5.976562 1.277344 5.871094 C 1.511719 5.78125 1.730469 5.695312 1.933594 5.683594 C 2.21875 5.671875 2.460938 5.773438 2.71875 5.882812 C 2.957031 5.984375 3.207031 6.085938 3.484375 6.085938 C 3.890625 6.085938 4.171875 5.960938 4.425781 5.851562 C 4.613281 5.769531 4.777344 5.695312 4.976562 5.683594 C 5.351562 5.664062 5.636719 5.785156 5.910156 5.898438 C 6.140625 5.996094 6.375 6.097656 6.640625 6.101562 C 6.65625 6.101562 6.667969 6.101562 6.683594 6.101562 C 7.101562 6.101562 7.371094 5.96875 7.609375 5.847656 C 7.785156 5.761719 7.941406 5.6875 8.140625 5.667969 C 8.460938 5.644531 8.707031 5.757812 8.964844 5.875 C 9.183594 5.976562 9.40625 6.078125 9.664062 6.085938 C 9.679688 6.085938 9.699219 6.085938 9.714844 6.085938 C 10.0625 6.085938 10.378906 5.988281 10.585938 5.898438 L 10.585938 5.378906 C 10.476562 5.4375 10.097656 5.625 9.675781 5.613281 Z M 9.675781 5.613281 "/>
</g>
</svg>
