<?xml version="1.0" encoding="UTF-8"?>
<svg xmlns="http://www.w3.org/2000/svg" xmlns:xlink="http://www.w3.org/1999/xlink" width="11px" height="8px" viewBox="0 0 11 8" version="1.1">
<g id="surface1">
<path style=" stroke:none;fill-rule:nonzero;fill:rgb(30%,30%,30%);fill-opacity:1;" d="M 2.523438 0.0390625 L 3.628906 0.0390625 L 3.394531 7.996094 L 0 7.996094 Z M 10.792969 0.00390625 L 7.449219 0.0195312 C 7.257812 0.0195312 7.171875 0.261719 7.316406 0.386719 L 8.214844 1.171875 C 8.222656 1.179688 8.226562 1.191406 8.226562 1.203125 C 8.222656 1.214844 8.214844 1.222656 8.203125 1.226562 C 7.917969 1.332031 6.601562 1.847656 5.980469 2.71875 L 5.152344 0.0390625 L 3.992188 0.0390625 L 4.265625 7.996094 L 7.621094 7.996094 L 7.269531 6.839844 C 7.054688 5.996094 6.820312 4.894531 6.878906 4.324219 C 7.0625 2.527344 8.574219 2.003906 8.777344 1.9375 C 8.792969 1.933594 8.804688 1.941406 8.808594 1.957031 L 9.269531 3.421875 C 9.328125 3.609375 9.578125 3.621094 9.652344 3.441406 L 10.984375 0.296875 C 11.011719 0.230469 11.003906 0.15625 10.964844 0.0976562 C 10.929688 0.0390625 10.863281 0.00390625 10.792969 0.00390625 Z M 10.792969 0.00390625 "/>
</g>
</svg>
