<?xml version="1.0" encoding="UTF-8"?>
<svg xmlns="http://www.w3.org/2000/svg" xmlns:xlink="http://www.w3.org/1999/xlink" width="8px" height="10px" viewBox="0 0 8 10" version="1.1">
<g id="surface1">
<path style=" stroke:none;fill-rule:nonzero;fill:rgb(30%,30%,30%);fill-opacity:1;" d="M 0 5.769531 L 0 4.617188 C 0 3.847656 0.679688 0.761719 0.679688 0.761719 C 0.742188 0.339844 1.160156 0.00390625 1.601562 0.00390625 L 6.398438 0.00390625 C 6.839844 0.00390625 7.253906 0.339844 7.320312 0.761719 C 7.320312 0.761719 8 3.847656 8 4.617188 L 8 5.769531 C 8 6.539062 7.601562 7.691406 6.398438 7.691406 L 1.601562 7.691406 C 0.398438 7.691406 0 6.921875 0 5.769531 Z M 1.855469 8.074219 L 2.398438 8.074219 C 2.453125 8.074219 2.503906 8.101562 2.535156 8.148438 C 2.5625 8.195312 2.566406 8.253906 2.539062 8.300781 L 1.644531 9.914062 C 1.617188 9.964844 1.5625 9.996094 1.503906 9.996094 L 0.359375 9.996094 C 0.292969 9.996094 0.238281 9.960938 0.210938 9.90625 C 0.183594 9.851562 0.195312 9.785156 0.238281 9.742188 L 1.734375 8.125 C 1.765625 8.09375 1.808594 8.074219 1.855469 8.074219 Z M 7.097656 4.285156 C 7.160156 4.253906 7.191406 4.1875 7.179688 4.121094 L 6.601562 0.878906 C 6.59375 0.835938 6.515625 0.773438 6.46875 0.773438 L 1.550781 0.773438 C 1.503906 0.773438 1.421875 0.835938 1.417969 0.878906 L 0.820312 4.121094 C 0.808594 4.1875 0.839844 4.253906 0.902344 4.285156 C 1.28125 4.476562 2.640625 5.121094 4 5.121094 C 5.359375 5.121094 6.722656 4.476562 7.097656 4.285156 Z M 2.3125 5.726562 L 1.03125 5.109375 C 0.980469 5.085938 0.921875 5.089844 0.875 5.117188 C 0.828125 5.144531 0.800781 5.195312 0.800781 5.25 L 0.800781 6.03125 C 0.800781 6.105469 0.851562 6.164062 0.921875 6.183594 L 2.199219 6.488281 C 2.25 6.5 2.300781 6.492188 2.339844 6.460938 C 2.378906 6.433594 2.398438 6.386719 2.398438 6.339844 L 2.398438 5.863281 C 2.398438 5.804688 2.367188 5.753906 2.3125 5.726562 Z M 5.578125 8.074219 L 6.117188 8.074219 C 6.160156 8.074219 6.203125 8.09375 6.234375 8.125 L 7.757812 9.738281 C 7.800781 9.785156 7.8125 9.851562 7.785156 9.90625 C 7.757812 9.960938 7.703125 9.996094 7.640625 9.996094 L 6.496094 9.996094 C 6.4375 9.996094 6.382812 9.964844 6.355469 9.917969 L 5.4375 8.304688 C 5.410156 8.253906 5.410156 8.195312 5.441406 8.152344 C 5.46875 8.105469 5.519531 8.074219 5.578125 8.074219 Z M 7.199219 6.03125 L 7.199219 5.25 C 7.199219 5.195312 7.171875 5.144531 7.125 5.117188 C 7.078125 5.089844 7.019531 5.085938 6.96875 5.109375 L 5.6875 5.726562 C 5.632812 5.753906 5.601562 5.804688 5.601562 5.863281 L 5.601562 6.339844 C 5.601562 6.386719 5.621094 6.433594 5.660156 6.460938 C 5.699219 6.492188 5.75 6.5 5.800781 6.488281 L 7.078125 6.183594 C 7.148438 6.164062 7.199219 6.105469 7.199219 6.03125 Z M 7.199219 6.03125 "/>
</g>
</svg>
