<?xml version="1.0" encoding="UTF-8" standalone="no"?>
<!-- Created with Inkscape (http://www.inkscape.org/) -->

<svg
   xmlns:dc="http://purl.org/dc/elements/1.1/"
   xmlns:cc="http://creativecommons.org/ns#"
   xmlns:rdf="http://www.w3.org/1999/02/22-rdf-syntax-ns#"
   xmlns:svg="http://www.w3.org/2000/svg"
   xmlns="http://www.w3.org/2000/svg"
   xmlns:xlink="http://www.w3.org/1999/xlink"
   xmlns:sodipodi="http://sodipodi.sourceforge.net/DTD/sodipodi-0.dtd"
   xmlns:inkscape="http://www.inkscape.org/namespaces/inkscape"
   width="30px"
   height="30px"
   version="1.1"
   id="svg8"
   inkscape:version="0.92.4 5da689c313, 2019-01-14"
   sodipodi:docname="container.svg">
  <defs
     id="defs2" />
  <sodipodi:namedview
     id="base"
     pagecolor="#ffffff"
     bordercolor="#666666"
     borderopacity="1.0"
     inkscape:pageopacity="0.0"
     inkscape:pageshadow="2"
     inkscape:zoom="13.049334"
     inkscape:cx="18.679046"
     inkscape:cy="12.165829"
     inkscape:document-units="px"
     inkscape:current-layer="layer1"
     showgrid="false"
     inkscape:snap-page="false"
     units="px"
     inkscape:window-width="1884"
     inkscape:window-height="1061"
     inkscape:window-x="0"
     inkscape:window-y="0"
     inkscape:window-maximized="1"
     fit-margin-top="0"
     fit-margin-left="0"
     fit-margin-right="0"
     fit-margin-bottom="0" />
  <metadata
     id="metadata5">
    <rdf:RDF>
      <cc:Work
         rdf:about="">
        <dc:format>image/svg+xml</dc:format>
        <dc:type
           rdf:resource="http://purl.org/dc/dcmitype/StillImage" />
        <dc:title></dc:title>
      </cc:Work>
    </rdf:RDF>
  </metadata>
    <circle
       style="color:#000000;clip-rule:nonzero;display:inline;overflow:visible;visibility:visible;opacity:1;isolation:auto;mix-blend-mode:normal;color-interpolation:sRGB;color-interpolation-filters:linearRGB;solid-color:#000000;solid-opacity:1;vector-effect:none;fill:#008ecf;fill-opacity:1;fill-rule:evenodd;stroke:#ffffff;stroke-width:1;stroke-linecap:butt;stroke-linejoin:miter;stroke-miterlimit:4;stroke-dasharray:none;stroke-dashoffset:0;stroke-opacity:1;marker:none;color-rendering:auto;image-rendering:auto;shape-rendering:auto;text-rendering:auto;enable-background:accumulate"
       id="path815"
       cx="15"
       cy="15"
       r="14.5" />
<g transform="translate(6,7)"><g id="surface1">
<path style=" stroke:none;fill-rule:nonzero;fill:#FFFFFF;fill-opacity:1;" d="M 16.617188 2.355469 L 16.617188 2.828125 L 15.34375 4.011719 L 14.707031 3.335938 L 14.003906 4.054688 L 13.367188 3.335938 L 12.730469 4.097656 L 12.058594 3.371094 L 11.121094 4.214844 L 10.03125 4.214844 C 9.394531 5.292969 8.117188 5.808594 6.914062 5.472656 C 5.710938 5.140625 4.878906 4.035156 4.882812 2.777344 C 4.886719 1.523438 5.726562 0.421875 6.929688 0.0976562 C 8.136719 -0.230469 9.410156 0.292969 10.039062 1.378906 L 15.613281 1.378906 Z M 6.464844 1.996094 C 6.035156 1.996094 5.6875 2.34375 5.6875 2.777344 C 5.6875 3.207031 6.035156 3.558594 6.464844 3.558594 C 6.894531 3.558594 7.242188 3.207031 7.242188 2.777344 C 7.242188 2.34375 6.894531 1.996094 6.464844 1.996094 Z M 6.464844 1.996094 "/>
<path style=" stroke:none;fill-rule:nonzero;fill:#FFFFFF;fill-opacity:1;" d="M 13.648438 9.257812 C 12.996094 9.257812 12.355469 9.449219 11.8125 9.808594 L 10.441406 8.140625 L 10.914062 6.730469 C 10.914062 6.726562 10.914062 6.726562 10.914062 6.722656 L 11.640625 6.726562 C 11.800781 6.726562 11.929688 6.597656 11.929688 6.4375 C 11.929688 6.273438 11.800781 6.144531 11.640625 6.144531 L 9.335938 6.136719 L 9.332031 6.136719 C 9.175781 6.136719 9.042969 6.269531 9.042969 6.429688 C 9.042969 6.589844 9.171875 6.71875 9.332031 6.71875 L 10.21875 6.722656 L 9.914062 7.628906 L 5.429688 7.613281 L 5.414062 7.59375 C 5.40625 7.578125 5.394531 7.566406 5.382812 7.554688 L 5.644531 6.769531 L 6.652344 6.769531 C 6.835938 6.769531 6.980469 6.617188 6.980469 6.433594 C 6.980469 6.25 6.835938 6.101562 6.652344 6.101562 L 5.167969 6.101562 L 4.5 8.097656 L 4.082031 9.339844 C 3.839844 9.285156 3.597656 9.257812 3.351562 9.257812 C 1.507812 9.257812 0.00390625 10.769531 0.00390625 12.628906 C 0.00390625 14.488281 1.507812 16 3.351562 16 C 5.199219 16 6.703125 14.488281 6.703125 12.628906 C 6.703125 11.253906 5.882812 10.070312 4.707031 9.546875 L 5.125 8.316406 L 8.359375 12.726562 C 8.421875 12.8125 8.519531 12.863281 8.625 12.863281 C 8.632812 12.863281 8.640625 12.863281 8.648438 12.859375 C 8.65625 12.863281 8.664062 12.863281 8.667969 12.863281 L 10.304688 12.863281 C 10.425781 14.613281 11.878906 16 13.648438 16 C 15.492188 16 16.996094 14.488281 16.996094 12.628906 C 16.996094 10.769531 15.492188 9.257812 13.648438 9.257812 Z M 6.039062 12.628906 C 6.039062 14.121094 4.835938 15.335938 3.351562 15.335938 C 1.871094 15.335938 0.664062 14.121094 0.664062 12.628906 C 0.664062 11.136719 1.871094 9.921875 3.351562 9.921875 C 3.523438 9.921875 3.695312 9.941406 3.867188 9.972656 L 3.035156 12.433594 C 2.976562 12.609375 3.066406 12.796875 3.242188 12.859375 C 3.414062 12.917969 3.601562 12.824219 3.660156 12.648438 L 4.496094 10.179688 C 5.4375 10.625 6.039062 11.582031 6.039062 12.628906 Z M 12.917969 12.195312 L 10.996094 12.195312 C 11.082031 11.648438 11.335938 11.140625 11.722656 10.742188 Z M 11.296875 10.230469 C 10.765625 10.757812 10.421875 11.449219 10.324219 12.195312 L 9.085938 12.195312 L 10.191406 8.882812 Z M 9.691406 8.292969 L 8.515625 11.816406 L 5.921875 8.28125 Z M 13.648438 15.335938 C 12.242188 15.335938 11.085938 14.246094 10.96875 12.863281 L 13.601562 12.863281 C 13.730469 12.855469 13.847656 12.777344 13.902344 12.660156 C 13.957031 12.539062 13.941406 12.402344 13.859375 12.296875 L 12.238281 10.328125 C 12.660156 10.0625 13.148438 9.921875 13.648438 9.921875 C 15.128906 9.921875 16.335938 11.136719 16.335938 12.628906 C 16.335938 14.121094 15.128906 15.335938 13.648438 15.335938 Z M 13.648438 15.335938 "/>
</g>
</g>
</svg>
