<?xml version="1.0" encoding="UTF-8" standalone="no"?>
<!-- Created with Inkscape (http://www.inkscape.org/) -->

<svg
   xmlns:dc="http://purl.org/dc/elements/1.1/"
   xmlns:cc="http://creativecommons.org/ns#"
   xmlns:rdf="http://www.w3.org/1999/02/22-rdf-syntax-ns#"
   xmlns:svg="http://www.w3.org/2000/svg"
   xmlns="http://www.w3.org/2000/svg"
   xmlns:xlink="http://www.w3.org/1999/xlink"
   xmlns:sodipodi="http://sodipodi.sourceforge.net/DTD/sodipodi-0.dtd"
   xmlns:inkscape="http://www.inkscape.org/namespaces/inkscape"
   width="30px"
   height="30px"
   version="1.1"
   id="svg8"
   inkscape:version="0.92.4 5da689c313, 2019-01-14"
   sodipodi:docname="container.svg">
  <defs
     id="defs2" />
  <sodipodi:namedview
     id="base"
     pagecolor="#ffffff"
     bordercolor="#666666"
     borderopacity="1.0"
     inkscape:pageopacity="0.0"
     inkscape:pageshadow="2"
     inkscape:zoom="13.049334"
     inkscape:cx="18.679046"
     inkscape:cy="12.165829"
     inkscape:document-units="px"
     inkscape:current-layer="layer1"
     showgrid="false"
     inkscape:snap-page="false"
     units="px"
     inkscape:window-width="1884"
     inkscape:window-height="1061"
     inkscape:window-x="0"
     inkscape:window-y="0"
     inkscape:window-maximized="1"
     fit-margin-top="0"
     fit-margin-left="0"
     fit-margin-right="0"
     fit-margin-bottom="0" />
  <metadata
     id="metadata5">
    <rdf:RDF>
      <cc:Work
         rdf:about="">
        <dc:format>image/svg+xml</dc:format>
        <dc:type
           rdf:resource="http://purl.org/dc/dcmitype/StillImage" />
        <dc:title></dc:title>
      </cc:Work>
    </rdf:RDF>
  </metadata>
    <circle
       style="color:#000000;clip-rule:nonzero;display:inline;overflow:visible;visibility:visible;opacity:1;isolation:auto;mix-blend-mode:normal;color-interpolation:sRGB;color-interpolation-filters:linearRGB;solid-color:#000000;solid-opacity:1;vector-effect:none;fill:#3772a6;fill-opacity:1;fill-rule:evenodd;stroke:#ffffff;stroke-width:1;stroke-linecap:butt;stroke-linejoin:miter;stroke-miterlimit:4;stroke-dasharray:none;stroke-dashoffset:0;stroke-opacity:1;marker:none;color-rendering:auto;image-rendering:auto;shape-rendering:auto;text-rendering:auto;enable-background:accumulate"
       id="path815"
       cx="15"
       cy="15"
       r="14.5" />
<g transform="translate(6,10)"><g id="surface1">
<path style=" stroke:none;fill-rule:nonzero;fill:#FFFFFF;fill-opacity:1;" d="M 13.648438 3.1875 C 12.996094 3.1875 12.359375 3.382812 11.8125 3.746094 L 10.441406 2.0625 L 10.914062 0.632812 C 10.914062 0.632812 10.914062 0.628906 10.914062 0.628906 L 11.640625 0.628906 C 11.800781 0.628906 11.929688 0.5 11.929688 0.335938 C 11.929688 0.175781 11.800781 0.0429688 11.640625 0.0429688 L 9.335938 0.0351562 C 9.175781 0.0351562 9.042969 0.167969 9.042969 0.328125 C 9.042969 0.492188 9.171875 0.625 9.332031 0.625 L 10.21875 0.625 L 9.914062 1.542969 L 5.429688 1.527344 L 5.414062 1.503906 C 5.402344 1.492188 5.390625 1.476562 5.378906 1.464844 L 5.644531 0.671875 L 6.652344 0.671875 C 6.832031 0.671875 6.980469 0.523438 6.980469 0.335938 C 6.980469 0.152344 6.832031 0 6.652344 0 L 5.167969 0 L 4.5 2.015625 L 4.078125 3.269531 C 3.839844 3.214844 3.597656 3.1875 3.351562 3.1875 C 1.503906 3.1875 0 4.714844 0 6.59375 C 0 8.472656 1.503906 10 3.351562 10 C 5.199219 10 6.699219 8.472656 6.699219 6.59375 C 6.699219 5.207031 5.882812 4.011719 4.707031 3.480469 L 5.125 2.238281 L 8.359375 6.691406 C 8.421875 6.777344 8.519531 6.828125 8.625 6.828125 C 8.632812 6.828125 8.640625 6.828125 8.648438 6.828125 C 8.65625 6.828125 8.664062 6.828125 8.667969 6.828125 L 10.308594 6.828125 C 10.425781 8.597656 11.878906 10 13.648438 10 C 15.496094 10 17 8.472656 17 6.59375 C 17 4.714844 15.496094 3.1875 13.648438 3.1875 Z M 6.039062 6.59375 C 6.039062 8.101562 4.832031 9.328125 3.351562 9.328125 C 1.871094 9.328125 0.664062 8.101562 0.664062 6.59375 C 0.664062 5.085938 1.871094 3.859375 3.351562 3.859375 C 3.523438 3.859375 3.695312 3.878906 3.863281 3.910156 L 3.03125 6.398438 C 2.972656 6.574219 3.066406 6.765625 3.238281 6.824219 C 3.410156 6.886719 3.601562 6.792969 3.660156 6.613281 L 4.492188 4.121094 C 5.4375 4.570312 6.039062 5.535156 6.039062 6.59375 Z M 12.917969 6.15625 L 10.996094 6.15625 C 11.082031 5.601562 11.335938 5.089844 11.722656 4.6875 Z M 11.300781 4.167969 C 10.765625 4.703125 10.421875 5.402344 10.328125 6.15625 L 9.085938 6.15625 L 10.195312 2.8125 Z M 9.691406 2.214844 L 8.515625 5.773438 L 5.917969 2.199219 Z M 13.648438 9.328125 C 12.246094 9.328125 11.089844 8.226562 10.96875 6.828125 L 13.601562 6.828125 C 13.734375 6.824219 13.847656 6.746094 13.902344 6.625 C 13.957031 6.503906 13.941406 6.363281 13.859375 6.257812 L 12.238281 4.269531 C 12.664062 4 13.152344 3.859375 13.648438 3.859375 C 15.128906 3.859375 16.335938 5.085938 16.335938 6.59375 C 16.335938 8.101562 15.128906 9.328125 13.648438 9.328125 Z M 13.648438 9.328125 "/>
</g>
</g>
</svg>
