<?xml version="1.0" encoding="UTF-8" standalone="no"?>
<!-- Created with Inkscape (http://www.inkscape.org/) -->

<svg
   xmlns:dc="http://purl.org/dc/elements/1.1/"
   xmlns:cc="http://creativecommons.org/ns#"
   xmlns:rdf="http://www.w3.org/1999/02/22-rdf-syntax-ns#"
   xmlns:svg="http://www.w3.org/2000/svg"
   xmlns="http://www.w3.org/2000/svg"
   xmlns:xlink="http://www.w3.org/1999/xlink"
   xmlns:sodipodi="http://sodipodi.sourceforge.net/DTD/sodipodi-0.dtd"
   xmlns:inkscape="http://www.inkscape.org/namespaces/inkscape"
   width="30px"
   height="30px"
   version="1.1"
   id="svg8"
   inkscape:version="0.92.4 5da689c313, 2019-01-14"
   sodipodi:docname="container.svg">
  <defs
     id="defs2" />
  <sodipodi:namedview
     id="base"
     pagecolor="#ffffff"
     bordercolor="#666666"
     borderopacity="1.0"
     inkscape:pageopacity="0.0"
     inkscape:pageshadow="2"
     inkscape:zoom="13.049334"
     inkscape:cx="18.679046"
     inkscape:cy="12.165829"
     inkscape:document-units="px"
     inkscape:current-layer="layer1"
     showgrid="false"
     inkscape:snap-page="false"
     units="px"
     inkscape:window-width="1884"
     inkscape:window-height="1061"
     inkscape:window-x="0"
     inkscape:window-y="0"
     inkscape:window-maximized="1"
     fit-margin-top="0"
     fit-margin-left="0"
     fit-margin-right="0"
     fit-margin-bottom="0" />
  <metadata
     id="metadata5">
    <rdf:RDF>
      <cc:Work
         rdf:about="">
        <dc:format>image/svg+xml</dc:format>
        <dc:type
           rdf:resource="http://purl.org/dc/dcmitype/StillImage" />
        <dc:title></dc:title>
      </cc:Work>
    </rdf:RDF>
  </metadata>
    <circle
       style="color:#000000;clip-rule:nonzero;display:inline;overflow:visible;visibility:visible;opacity:1;isolation:auto;mix-blend-mode:normal;color-interpolation:sRGB;color-interpolation-filters:linearRGB;solid-color:#000000;solid-opacity:1;vector-effect:none;fill:#ffffff;fill-opacity:1;fill-rule:evenodd;stroke:#3772a6;stroke-width:1;stroke-linecap:butt;stroke-linejoin:miter;stroke-miterlimit:4;stroke-dasharray:none;stroke-dashoffset:0;stroke-opacity:1;marker:none;color-rendering:auto;image-rendering:auto;shape-rendering:auto;text-rendering:auto;enable-background:accumulate"
       id="path815"
       cx="15"
       cy="15"
       r="14.5" />
<g transform="translate(6,10)"><g id="surface1">
<path style=" stroke:none;fill-rule:nonzero;fill:rgb(30%,30%,30%);fill-opacity:1;" d="M 3.660156 6.066406 C 3.726562 6.046875 3.796875 6.011719 3.863281 6.011719 C 3.929688 6.011719 4.050781 6.046875 4.492188 6.511719 C 5.390625 7.453125 6.734375 8.539062 8.71875 9 L 0.972656 8.769531 C 0.566406 8.753906 0.363281 8.539062 0.140625 8.074219 L 0.0078125 7.792969 Z M 8.074219 5.601562 L 16.332031 8.074219 C 16.6875 8.199219 16.992188 8.484375 16.992188 8.855469 C 16.992188 8.980469 16.960938 9 16.839844 9 L 10.859375 8.679688 Z M 7.804688 5.175781 L 5.425781 2.5625 C 3.828125 0.800781 2.554688 0.355469 2.164062 0.214844 C 2.417969 0.0703125 2.707031 -0.00390625 2.996094 0 C 5.511719 0 8.824219 4.734375 9.367188 5.65625 Z M 10.488281 8.753906 L 10.300781 8.753906 C 7.546875 8.753906 6.902344 8.324219 2.640625 4.269531 C 1.703125 3.378906 0.753906 1.957031 0.753906 1.316406 C 0.753906 0.730469 1.042969 0.339844 1.621094 0.339844 C 2.042969 0.339844 3.011719 0.625 5.1875 2.988281 Z M 8.738281 3.46875 L 11.371094 3.023438 L 11.539062 3.308594 L 10.285156 4.640625 C 10.011719 4.570312 9.757812 4.535156 9.484375 4.570312 Z M 12.730469 4.964844 L 12.066406 6.472656 L 9.671875 5.746094 L 11.949219 3.34375 L 11.644531 2.8125 L 15.652344 4.125 L 16.28125 5.410156 Z M 12.730469 4.964844 "/>
</g>
</g>
</svg>
