<?xml version="1.0" encoding="UTF-8" standalone="no"?>
<!-- Created with Inkscape (http://www.inkscape.org/) -->

<svg
   xmlns:dc="http://purl.org/dc/elements/1.1/"
   xmlns:cc="http://creativecommons.org/ns#"
   xmlns:rdf="http://www.w3.org/1999/02/22-rdf-syntax-ns#"
   xmlns:svg="http://www.w3.org/2000/svg"
   xmlns="http://www.w3.org/2000/svg"
   xmlns:xlink="http://www.w3.org/1999/xlink"
   xmlns:sodipodi="http://sodipodi.sourceforge.net/DTD/sodipodi-0.dtd"
   xmlns:inkscape="http://www.inkscape.org/namespaces/inkscape"
   width="30px"
   height="30px"
   version="1.1"
   id="svg8"
   inkscape:version="0.92.4 5da689c313, 2019-01-14"
   sodipodi:docname="container.svg">
  <defs
     id="defs2" />
  <sodipodi:namedview
     id="base"
     pagecolor="#ffffff"
     bordercolor="#666666"
     borderopacity="1.0"
     inkscape:pageopacity="0.0"
     inkscape:pageshadow="2"
     inkscape:zoom="13.049334"
     inkscape:cx="18.679046"
     inkscape:cy="12.165829"
     inkscape:document-units="px"
     inkscape:current-layer="layer1"
     showgrid="false"
     inkscape:snap-page="false"
     units="px"
     inkscape:window-width="1884"
     inkscape:window-height="1061"
     inkscape:window-x="0"
     inkscape:window-y="0"
     inkscape:window-maximized="1"
     fit-margin-top="0"
     fit-margin-left="0"
     fit-margin-right="0"
     fit-margin-bottom="0" />
  <metadata
     id="metadata5">
    <rdf:RDF>
      <cc:Work
         rdf:about="">
        <dc:format>image/svg+xml</dc:format>
        <dc:type
           rdf:resource="http://purl.org/dc/dcmitype/StillImage" />
        <dc:title></dc:title>
      </cc:Work>
    </rdf:RDF>
  </metadata>
    <circle
       style="color:#000000;clip-rule:nonzero;display:inline;overflow:visible;visibility:visible;opacity:1;isolation:auto;mix-blend-mode:normal;color-interpolation:sRGB;color-interpolation-filters:linearRGB;solid-color:#000000;solid-opacity:1;vector-effect:none;fill:#ffffff;fill-opacity:1;fill-rule:evenodd;stroke:#008ecf;stroke-width:1;stroke-linecap:butt;stroke-linejoin:miter;stroke-miterlimit:4;stroke-dasharray:none;stroke-dashoffset:0;stroke-opacity:1;marker:none;color-rendering:auto;image-rendering:auto;shape-rendering:auto;text-rendering:auto;enable-background:accumulate"
       id="path815"
       cx="15"
       cy="15"
       r="14.5" />
<g transform="translate(6,8)"><g id="surface1">
<path style=" stroke:none;fill-rule:nonzero;fill:rgb(30%,30%,30%);fill-opacity:1;" d="M 13.078125 10.171875 L 9.941406 10.171875 L 9.941406 9.039062 L 13.078125 9.039062 Z M 2.09375 9.605469 L 6.800781 9.605469 C 8.371094 9.605469 8.894531 8.476562 8.894531 7.347656 L 8.894531 5.652344 L 8.007812 1.117188 C 7.917969 0.503906 7.375 0.0078125 6.800781 0.0078125 L 2.09375 0.0078125 C 1.515625 0.0078125 0.976562 0.503906 0.886719 1.117188 L 0 5.652344 L 0 7.347656 C 0 8.476562 0.523438 9.605469 2.09375 9.605469 Z M 7.847656 7.628906 L 5.753906 8.195312 L 5.753906 7.347656 L 7.847656 6.21875 Z M 1.855469 1.292969 C 1.863281 1.230469 1.96875 1.136719 2.027344 1.136719 L 6.890625 1.136719 C 6.949219 1.136719 7.054688 1.230469 7.0625 1.296875 L 7.847656 5.089844 C 7.847656 5.089844 6.539062 6.394531 4.445312 6.394531 C 2.355469 6.394531 1.046875 5.089844 1.046875 5.089844 Z M 1.046875 6.21875 L 3.140625 7.347656 L 3.140625 8.195312 L 1.046875 7.628906 Z M 2.335938 10.171875 L 3.480469 10.171875 L 2.09375 12.992188 L 0 12.992188 Z M 6.523438 10.171875 L 8.894531 12.992188 L 6.800781 12.992188 L 5.375 10.171875 Z M 6.523438 10.171875 "/>
<path style=" stroke:none;fill-rule:nonzero;fill:rgb(30%,30%,30%);fill-opacity:1;" d="M 16.492188 6.480469 L 15.699219 6.472656 C 15.597656 6.472656 15.515625 6.390625 15.507812 6.289062 C 15.417969 5.082031 14.847656 4.230469 13.753906 3.8125 C 12.757812 3.316406 10.734375 3.214844 9.238281 3.355469 L 9.335938 3.855469 C 9.566406 3.847656 9.804688 3.84375 10.054688 3.84375 L 10.648438 3.84375 C 13.042969 3.84375 14.964844 4.027344 15.019531 6.773438 C 15.042969 7.914062 13.007812 8.203125 10.613281 8.203125 C 10.289062 8.203125 9.972656 8.199219 9.667969 8.1875 C 9.546875 9.226562 9 10.171875 7.734375 10.382812 L 8.476562 11.296875 C 10.023438 11.328125 12.777344 11.316406 13.839844 11.253906 C 13.890625 11.253906 13.941406 11.273438 13.980469 11.308594 C 14.019531 11.347656 14.039062 11.398438 14.039062 11.453125 L 14.039062 11.675781 C 14.042969 12.210938 14.460938 12.644531 14.976562 12.648438 L 15.039062 12.648438 C 15.554688 12.644531 15.972656 12.210938 15.972656 11.675781 L 15.972656 10.617188 C 15.972656 10.597656 15.972656 10.574219 15.972656 10.554688 C 15.96875 10.507812 15.980469 10.460938 16.007812 10.421875 C 16.296875 10.003906 16.414062 9.28125 16.414062 8.871094 C 16.414062 8.550781 16.390625 8.195312 16.234375 7.890625 C 16.207031 7.835938 16.207031 7.773438 16.230469 7.71875 C 16.25 7.667969 16.296875 7.625 16.351562 7.609375 C 16.371094 7.605469 16.386719 7.597656 16.40625 7.59375 C 16.832031 7.457031 17 7.296875 17 7.007812 C 17 6.71875 16.773438 6.484375 16.492188 6.480469 Z M 14.242188 10.328125 C 13.800781 10.328125 13.445312 9.957031 13.445312 9.5 C 13.445312 9.042969 13.800781 8.671875 14.242188 8.671875 C 14.683594 8.671875 15.042969 9.042969 15.042969 9.5 C 15.042969 9.957031 14.683594 10.328125 14.242188 10.328125 Z M 14.242188 10.328125 "/>
</g>
</g>
</svg>
