<?xml version="1.0" encoding="UTF-8" standalone="no"?>
<!-- Created with Inkscape (http://www.inkscape.org/) -->

<svg
   xmlns:dc="http://purl.org/dc/elements/1.1/"
   xmlns:cc="http://creativecommons.org/ns#"
   xmlns:rdf="http://www.w3.org/1999/02/22-rdf-syntax-ns#"
   xmlns:svg="http://www.w3.org/2000/svg"
   xmlns="http://www.w3.org/2000/svg"
   xmlns:xlink="http://www.w3.org/1999/xlink"
   xmlns:sodipodi="http://sodipodi.sourceforge.net/DTD/sodipodi-0.dtd"
   xmlns:inkscape="http://www.inkscape.org/namespaces/inkscape"
   width="30px"
   height="30px"
   version="1.1"
   id="svg8"
   inkscape:version="0.92.4 5da689c313, 2019-01-14"
   sodipodi:docname="container.svg">
  <defs
     id="defs2" />
  <sodipodi:namedview
     id="base"
     pagecolor="#ffffff"
     bordercolor="#666666"
     borderopacity="1.0"
     inkscape:pageopacity="0.0"
     inkscape:pageshadow="2"
     inkscape:zoom="13.049334"
     inkscape:cx="18.679046"
     inkscape:cy="12.165829"
     inkscape:document-units="px"
     inkscape:current-layer="layer1"
     showgrid="false"
     inkscape:snap-page="false"
     units="px"
     inkscape:window-width="1884"
     inkscape:window-height="1061"
     inkscape:window-x="0"
     inkscape:window-y="0"
     inkscape:window-maximized="1"
     fit-margin-top="0"
     fit-margin-left="0"
     fit-margin-right="0"
     fit-margin-bottom="0" />
  <metadata
     id="metadata5">
    <rdf:RDF>
      <cc:Work
         rdf:about="">
        <dc:format>image/svg+xml</dc:format>
        <dc:type
           rdf:resource="http://purl.org/dc/dcmitype/StillImage" />
        <dc:title></dc:title>
      </cc:Work>
    </rdf:RDF>
  </metadata>
    <circle
       style="color:#000000;clip-rule:nonzero;display:inline;overflow:visible;visibility:visible;opacity:1;isolation:auto;mix-blend-mode:normal;color-interpolation:sRGB;color-interpolation-filters:linearRGB;solid-color:#000000;solid-opacity:1;vector-effect:none;fill:#3772a6;fill-opacity:1;fill-rule:evenodd;stroke:#ffffff;stroke-width:1;stroke-linecap:butt;stroke-linejoin:miter;stroke-miterlimit:4;stroke-dasharray:none;stroke-dashoffset:0;stroke-opacity:1;marker:none;color-rendering:auto;image-rendering:auto;shape-rendering:auto;text-rendering:auto;enable-background:accumulate"
       id="path815"
       cx="15"
       cy="15"
       r="14.5" />
<g transform="translate(7,8)"><g id="surface1">
<path style=" stroke:none;fill-rule:nonzero;fill:#FFFFFF;fill-opacity:1;" d="M 15.347656 4.921875 L 14.097656 4.90625 C 14.015625 2.074219 11.378906 0.015625 7.789062 0 C 5.898438 -0.00390625 4.148438 0.707031 2.984375 1.957031 C 2.164062 2.835938 1.71875 3.890625 1.71875 4.929688 L 0.652344 4.921875 C 0.292969 4.925781 0 5.230469 0 5.613281 C 0 5.972656 0.0546875 6.386719 1.164062 6.476562 C 0.757812 6.957031 0.726562 7.496094 0.726562 8.054688 C 0.726562 8.640625 0.925781 9.527344 1.367188 10.117188 C 1.351562 10.191406 1.34375 10.265625 1.34375 10.339844 L 1.34375 11.988281 C 1.347656 12.542969 1.773438 12.996094 2.300781 13 L 2.867188 13 C 3.394531 12.996094 3.824219 12.542969 3.824219 11.988281 L 3.824219 11.179688 C 3.828125 11.179688 3.835938 11.179688 3.839844 11.183594 C 4.949219 11.277344 10.804688 11.28125 12.203125 11.15625 L 12.203125 11.988281 C 12.203125 12.542969 12.632812 12.996094 13.160156 13 L 13.726562 13 C 14.253906 12.996094 14.679688 12.542969 14.683594 11.988281 L 14.683594 10.339844 C 14.683594 10.28125 14.679688 10.222656 14.667969 10.164062 C 15.085938 9.636719 15.246094 8.617188 15.246094 8.054688 C 15.246094 7.53125 15.203125 6.949219 14.84375 6.492188 C 14.984375 6.453125 15.121094 6.414062 15.234375 6.378906 C 15.785156 6.199219 16 5.988281 16 5.613281 C 16 5.230469 15.707031 4.925781 15.347656 4.921875 Z M 3.394531 2.382812 C 4.445312 1.253906 6.03125 0.609375 7.757812 0.609375 C 7.769531 0.609375 7.777344 0.609375 7.785156 0.609375 C 11.089844 0.625 13.503906 2.472656 13.527344 5.007812 C 13.53125 5.277344 13.496094 5.542969 13.433594 5.804688 C 13.351562 5.875 13.246094 5.957031 13.121094 6.042969 C 12.847656 5.441406 12.34375 4.988281 11.734375 4.800781 C 12.113281 4.484375 12.257812 3.945312 12.09375 3.464844 C 11.929688 2.984375 11.496094 2.671875 11.011719 2.683594 C 10.53125 2.695312 10.109375 3.035156 9.96875 3.523438 C 9.828125 4.011719 10 4.539062 10.390625 4.835938 C 10.125 4.933594 9.875 5.085938 9.660156 5.28125 C 9.535156 4.546875 8.960938 3.957031 8.21875 3.789062 C 8.503906 3.574219 8.621094 3.1875 8.511719 2.839844 C 8.402344 2.488281 8.089844 2.253906 7.742188 2.257812 C 7.390625 2.265625 7.085938 2.511719 6.988281 2.863281 C 6.886719 3.21875 7.019531 3.597656 7.308594 3.804688 C 6.582031 3.996094 6.027344 4.597656 5.925781 5.335938 C 5.710938 5.128906 5.464844 4.964844 5.191406 4.855469 C 5.59375 4.574219 5.78125 4.050781 5.652344 3.554688 C 5.527344 3.0625 5.113281 2.710938 4.632812 2.683594 C 4.148438 2.660156 3.703125 2.960938 3.527344 3.4375 C 3.351562 3.914062 3.484375 4.453125 3.855469 4.78125 C 3.289062 4.9375 2.800781 5.324219 2.503906 5.859375 C 2.453125 5.800781 2.414062 5.753906 2.378906 5.707031 C 2.328125 5.46875 2.300781 5.222656 2.296875 4.976562 C 2.277344 4.082031 2.667969 3.160156 3.394531 2.382812 Z M 2.875 6.21875 C 3.265625 5.414062 4.152344 5.027344 4.964844 5.3125 C 5.773438 5.601562 6.265625 6.472656 6.117188 7.367188 C 4.40625 7.191406 3.421875 6.664062 2.875 6.21875 Z M 9.386719 7.058594 C 9.386719 6.195312 9.957031 5.449219 10.753906 5.269531 C 11.550781 5.085938 12.359375 5.523438 12.695312 6.308594 C 12.03125 6.679688 10.984375 7.089844 9.402344 7.292969 C 9.390625 7.214844 9.386719 7.136719 9.386719 7.058594 Z M 9.339844 5.644531 C 9.050781 6.050781 8.894531 6.546875 8.894531 7.058594 C 8.894531 7.15625 8.898438 7.253906 8.910156 7.347656 C 8.570312 7.382812 8.203125 7.40625 7.816406 7.417969 C 7.382812 7.433594 6.980469 7.425781 6.613281 7.40625 C 6.628906 7.289062 6.636719 7.175781 6.636719 7.058594 C 6.636719 6.59375 6.503906 6.140625 6.261719 5.753906 C 6.253906 5.699219 6.25 5.640625 6.25 5.585938 C 6.25 4.769531 6.945312 4.105469 7.796875 4.105469 C 8.648438 4.105469 9.34375 4.769531 9.34375 5.585938 C 9.34375 5.605469 9.339844 5.625 9.339844 5.644531 Z M 9.339844 5.644531 "/>
</g>
</g>
</svg>
