<?xml version="1.0" encoding="UTF-8"?>
<svg xmlns="http://www.w3.org/2000/svg" xmlns:xlink="http://www.w3.org/1999/xlink" width="7px" height="10px" viewBox="0 0 7 10" version="1.1">
<g id="surface1">
<path style=" stroke:none;fill-rule:nonzero;fill:rgb(30%,30%,30%);fill-opacity:1;" d="M 5.28125 7.808594 L 1.710938 7.808594 C 1.007812 7.808594 0.441406 7.269531 0.441406 6.605469 L 0.441406 2.925781 C 0.441406 1.75 1.445312 0.796875 2.6875 0.796875 L 4.304688 0.796875 C 5.546875 0.796875 6.550781 1.75 6.550781 2.925781 L 6.550781 6.605469 C 6.550781 7.269531 5.984375 7.808594 5.28125 7.808594 Z M 1.78125 6.097656 C 1.488281 6.097656 1.246094 6.324219 1.246094 6.601562 C 1.246094 6.878906 1.488281 7.105469 1.78125 7.105469 C 2.074219 7.105469 2.316406 6.878906 2.316406 6.601562 C 2.316406 6.324219 2.074219 6.097656 1.78125 6.097656 Z M 5.21875 6.097656 C 4.921875 6.097656 4.683594 6.324219 4.683594 6.601562 C 4.683594 6.878906 4.921875 7.105469 5.21875 7.105469 C 5.511719 7.105469 5.75 6.878906 5.75 6.601562 C 5.75 6.324219 5.511719 6.097656 5.21875 6.097656 Z M 4.664062 1.488281 C 4.664062 1.277344 4.480469 1.105469 4.257812 1.105469 L 2.765625 1.105469 C 2.539062 1.105469 2.359375 1.277344 2.359375 1.488281 C 2.359375 1.703125 2.539062 1.871094 2.765625 1.875 L 4.257812 1.875 C 4.480469 1.871094 4.664062 1.703125 4.664062 1.488281 Z M 5.828125 3.839844 L 5.828125 2.765625 C 5.828125 2.414062 5.527344 2.128906 5.15625 2.128906 L 1.886719 2.128906 C 1.515625 2.128906 1.214844 2.414062 1.214844 2.765625 L 1.214844 3.839844 C 1.214844 4.191406 1.515625 4.476562 1.886719 4.476562 L 5.15625 4.476562 C 5.527344 4.476562 5.828125 4.191406 5.828125 3.839844 Z M 5.828125 3.839844 "/>
<path style=" stroke:none;fill-rule:nonzero;fill:rgb(30%,30%,30%);fill-opacity:1;" d="M 3.367188 0.359375 C 3.367188 0.554688 3.203125 0.714844 2.996094 0.714844 C 2.789062 0.714844 2.621094 0.554688 2.621094 0.359375 C 2.621094 0.164062 2.789062 0.0078125 2.996094 0.0078125 C 3.203125 0.0078125 3.367188 0.164062 3.367188 0.359375 Z M 3.367188 0.359375 "/>
<path style=" stroke:none;fill-rule:nonzero;fill:rgb(30%,30%,30%);fill-opacity:1;" d="M 4.371094 0.359375 C 4.371094 0.554688 4.203125 0.714844 4 0.714844 C 3.792969 0.714844 3.625 0.554688 3.625 0.359375 C 3.625 0.164062 3.792969 0.0078125 4 0.0078125 C 4.203125 0.0078125 4.371094 0.164062 4.371094 0.359375 Z M 4.371094 0.359375 "/>
<path style=" stroke:none;fill-rule:nonzero;fill:rgb(30%,30%,30%);fill-opacity:1;" d="M 2.046875 8.375 L 1.171875 8.375 L 0 9.992188 L 0.875 9.992188 Z M 2.046875 8.375 "/>
<path style=" stroke:none;fill-rule:nonzero;fill:rgb(30%,30%,30%);fill-opacity:1;" d="M 5.933594 8.375 L 5.058594 8.375 L 6.125 9.992188 L 7 9.992188 Z M 5.933594 8.375 "/>
</g>
</svg>
