<?xml version="1.0" encoding="UTF-8"?>
<svg xmlns="http://www.w3.org/2000/svg" xmlns:xlink="http://www.w3.org/1999/xlink" width="10px" height="8px" viewBox="0 0 10 8" version="1.1">
<g id="surface1">
<path style=" stroke:none;fill-rule:nonzero;fill:rgb(30%,30%,30%);fill-opacity:1;" d="M 7.691406 6.257812 L 5.847656 6.257812 L 5.847656 5.5625 L 7.691406 5.5625 Z M 1.230469 5.910156 L 4 5.910156 C 4.921875 5.910156 5.230469 5.214844 5.230469 4.519531 L 5.230469 3.480469 L 4.710938 0.6875 C 4.65625 0.308594 4.339844 0.00390625 4 0.00390625 L 1.230469 0.00390625 C 0.890625 0.00390625 0.574219 0.308594 0.523438 0.6875 L 0 3.480469 L 0 4.519531 C 0 5.214844 0.308594 5.910156 1.230469 5.910156 Z M 4.617188 4.695312 L 3.386719 5.042969 L 3.386719 4.519531 L 4.617188 3.828125 Z M 1.089844 0.796875 C 1.097656 0.757812 1.15625 0.699219 1.191406 0.699219 L 4.054688 0.699219 C 4.089844 0.699219 4.148438 0.757812 4.15625 0.796875 L 4.617188 3.132812 C 4.617188 3.132812 3.847656 3.933594 2.617188 3.933594 C 1.386719 3.933594 0.617188 3.132812 0.617188 3.132812 Z M 0.617188 3.828125 L 1.847656 4.519531 L 1.847656 5.042969 L 0.617188 4.695312 Z M 1.375 6.257812 L 2.046875 6.257812 L 1.230469 7.996094 L 0 7.996094 Z M 3.835938 6.257812 L 5.230469 7.996094 L 4 7.996094 L 3.160156 6.257812 Z M 3.835938 6.257812 "/>
<path style=" stroke:none;fill-rule:nonzero;fill:rgb(30%,30%,30%);fill-opacity:1;" d="M 9.703125 3.988281 L 9.234375 3.984375 C 9.175781 3.980469 9.128906 3.933594 9.121094 3.871094 C 9.070312 3.128906 8.734375 2.601562 8.089844 2.34375 C 7.503906 2.042969 6.316406 1.980469 5.433594 2.0625 L 5.492188 2.375 C 5.628906 2.367188 5.769531 2.367188 5.914062 2.367188 L 6.261719 2.367188 C 7.671875 2.367188 8.804688 2.480469 8.835938 4.167969 C 8.847656 4.871094 7.652344 5.046875 6.242188 5.046875 C 6.050781 5.046875 5.867188 5.042969 5.6875 5.039062 C 5.617188 5.679688 5.292969 6.257812 4.550781 6.386719 L 4.988281 6.953125 C 5.898438 6.972656 7.515625 6.964844 8.140625 6.925781 C 8.171875 6.925781 8.203125 6.9375 8.222656 6.960938 C 8.246094 6.980469 8.257812 7.015625 8.257812 7.046875 L 8.257812 7.1875 C 8.261719 7.515625 8.507812 7.78125 8.808594 7.78125 L 8.84375 7.78125 C 9.148438 7.78125 9.394531 7.515625 9.394531 7.1875 L 9.394531 6.535156 C 9.394531 6.519531 9.394531 6.507812 9.394531 6.496094 C 9.394531 6.464844 9.402344 6.4375 9.417969 6.414062 C 9.585938 6.15625 9.65625 5.710938 9.65625 5.460938 C 9.65625 5.261719 9.640625 5.042969 9.550781 4.855469 C 9.535156 4.824219 9.535156 4.785156 9.546875 4.75 C 9.558594 4.71875 9.585938 4.691406 9.617188 4.683594 C 9.628906 4.679688 9.640625 4.675781 9.648438 4.671875 C 9.902344 4.589844 10 4.488281 10 4.3125 C 10 4.132812 9.867188 3.988281 9.703125 3.988281 Z M 8.378906 6.355469 C 8.117188 6.355469 7.910156 6.128906 7.910156 5.847656 C 7.910156 5.566406 8.117188 5.335938 8.378906 5.335938 C 8.636719 5.335938 8.847656 5.566406 8.847656 5.847656 C 8.847656 6.128906 8.636719 6.355469 8.378906 6.355469 Z M 8.378906 6.355469 "/>
</g>
</svg>
