<?xml version="1.0" encoding="UTF-8"?>
<svg xmlns="http://www.w3.org/2000/svg" xmlns:xlink="http://www.w3.org/1999/xlink" width="10px" height="11px" viewBox="0 0 10 11" version="1.1">
<g id="surface1">
<path style=" stroke:none;fill-rule:nonzero;fill:rgb(30%,30%,30%);fill-opacity:1;" d="M 7.890625 0 L 2.109375 0 C 0.945312 0 0.00390625 0.898438 0.00390625 2.011719 L 0.00390625 8.828125 C 0.00390625 9.21875 0.335938 9.535156 0.746094 9.535156 L 0.773438 9.535156 L 0.773438 10.4375 C 0.773438 10.75 1.035156 11 1.359375 11 L 1.722656 11 C 2.046875 11 2.308594 10.75 2.308594 10.4375 L 2.308594 9.535156 L 7.695312 9.535156 C 7.691406 9.550781 7.691406 9.570312 7.691406 9.589844 L 7.691406 10.457031 C 7.691406 10.753906 7.945312 11 8.261719 11 L 8.65625 11 C 8.972656 11 9.226562 10.753906 9.226562 10.457031 L 9.226562 9.589844 C 9.226562 9.570312 9.226562 9.550781 9.222656 9.535156 L 9.253906 9.535156 C 9.664062 9.535156 9.996094 9.21875 9.996094 8.828125 L 9.996094 2.011719 C 9.996094 0.898438 9.054688 0 7.890625 0 Z M 2.375 1.101562 L 7.625 1.101562 C 7.730469 1.101562 7.820312 1.183594 7.820312 1.285156 C 7.820312 1.382812 7.730469 1.464844 7.625 1.464844 L 2.375 1.464844 C 2.269531 1.464844 2.179688 1.382812 2.179688 1.285156 C 2.179688 1.183594 2.269531 1.101562 2.375 1.101562 Z M 1.539062 8.800781 C 1.117188 8.800781 0.773438 8.472656 0.773438 8.066406 C 0.773438 7.660156 1.117188 7.332031 1.539062 7.332031 C 1.964844 7.332031 2.308594 7.660156 2.308594 8.066406 C 2.308594 8.472656 1.964844 8.800781 1.539062 8.800781 Z M 8.460938 8.800781 C 8.035156 8.800781 7.691406 8.472656 7.691406 8.066406 C 7.691406 7.660156 8.035156 7.332031 8.460938 7.332031 C 8.882812 7.332031 9.226562 7.660156 9.226562 8.066406 C 9.226562 8.472656 8.882812 8.800781 8.460938 8.800781 Z M 9.226562 5.585938 C 9.226562 5.742188 9.097656 5.867188 8.933594 5.867188 L 1.066406 5.867188 C 0.902344 5.867188 0.773438 5.742188 0.773438 5.585938 L 0.773438 2.480469 C 0.773438 2.324219 0.902344 2.199219 1.066406 2.199219 L 8.933594 2.199219 C 9.097656 2.199219 9.226562 2.324219 9.226562 2.480469 Z M 9.226562 5.585938 "/>
</g>
</svg>
