<?xml version="1.0" encoding="UTF-8"?>
<svg xmlns="http://www.w3.org/2000/svg" xmlns:xlink="http://www.w3.org/1999/xlink" width="11px" height="11px" viewBox="0 0 11 11" version="1.1">
<g id="surface1">
<path style=" stroke:none;fill-rule:nonzero;fill:rgb(30%,30%,30%);fill-opacity:1;" d="M 8.832031 6.789062 C 8.410156 6.789062 7.996094 6.90625 7.644531 7.132812 L 6.757812 6.089844 L 7.207031 5.0625 C 7.207031 5.058594 7.382812 5.058594 7.382812 5.058594 L 8.941406 5.058594 C 9.242188 5.058594 9.484375 4.820312 9.484375 4.53125 L 9.484375 0.527344 C 9.484375 0.234375 9.242188 0 8.941406 0 L 5.253906 0 C 4.953125 0 4.710938 0.234375 4.710938 0.527344 L 4.710938 4.53125 C 4.710938 4.820312 4.953125 5.058594 5.253906 5.058594 L 6.707031 5.058594 L 6.414062 5.769531 L 3.511719 5.761719 L 3.503906 5.746094 C 3.496094 5.738281 3.488281 5.730469 3.480469 5.722656 L 3.652344 5.234375 L 4.304688 5.234375 C 4.421875 5.234375 4.515625 5.140625 4.515625 5.023438 C 4.515625 4.910156 4.421875 4.816406 4.304688 4.816406 L 3.34375 4.816406 L 2.910156 6.0625 L 2.640625 6.839844 C 2.484375 6.804688 2.328125 6.789062 2.167969 6.789062 C 0.972656 6.789062 0 7.734375 0 8.894531 C 0 10.054688 0.972656 11 2.167969 11 C 3.363281 11 4.335938 10.054688 4.335938 8.894531 C 4.335938 8.035156 3.804688 7.296875 3.046875 6.96875 L 3.316406 6.199219 L 5.410156 8.957031 C 5.449219 9.007812 5.511719 9.039062 5.582031 9.039062 C 5.585938 9.039062 5.59375 9.039062 5.597656 9.039062 C 5.601562 9.039062 5.605469 9.039062 5.609375 9.039062 L 6.667969 9.039062 C 6.746094 10.132812 7.6875 11 8.832031 11 C 10.027344 11 11 10.054688 11 8.894531 C 11 7.734375 10.027344 6.789062 8.832031 6.789062 Z M 5.992188 1.097656 C 5.992188 1.0625 6.019531 1.03125 6.058594 1.03125 L 7.292969 1.03125 C 8.273438 1.03125 8.421875 1.644531 8.421875 2.011719 C 8.421875 2.632812 8.019531 2.972656 7.292969 2.972656 L 6.6875 2.972656 L 6.6875 3.960938 C 6.6875 3.996094 6.65625 4.023438 6.621094 4.023438 L 6.058594 4.023438 C 6.019531 4.023438 5.992188 3.996094 5.992188 3.960938 Z M 3.90625 8.894531 C 3.90625 9.824219 3.128906 10.585938 2.167969 10.585938 C 1.207031 10.585938 0.429688 9.824219 0.429688 8.894531 C 0.429688 7.960938 1.207031 7.203125 2.167969 7.203125 C 2.28125 7.203125 2.390625 7.214844 2.5 7.234375 L 1.960938 8.773438 C 1.921875 8.882812 1.984375 9 2.09375 9.035156 C 2.207031 9.074219 2.328125 9.015625 2.367188 8.90625 L 2.90625 7.363281 C 3.515625 7.644531 3.90625 8.238281 3.90625 8.894531 Z M 8.359375 8.625 L 7.113281 8.625 C 7.171875 8.28125 7.335938 7.964844 7.585938 7.714844 Z M 5.507812 8.386719 L 3.828125 6.175781 L 6.273438 6.1875 Z M 5.878906 8.625 L 6.597656 6.554688 L 7.3125 7.394531 C 6.964844 7.722656 6.746094 8.15625 6.683594 8.625 Z M 8.832031 10.585938 C 7.921875 10.585938 7.175781 9.902344 7.097656 9.039062 L 8.804688 9.039062 C 8.886719 9.035156 8.960938 8.988281 8.996094 8.914062 C 9.03125 8.839844 9.023438 8.75 8.96875 8.6875 L 7.917969 7.457031 C 8.195312 7.289062 8.507812 7.203125 8.832031 7.203125 C 9.792969 7.203125 10.570312 7.960938 10.570312 8.894531 C 10.570312 9.824219 9.792969 10.585938 8.832031 10.585938 Z M 8.832031 10.585938 "/>
<path style=" stroke:none;fill-rule:nonzero;fill:rgb(30%,30%,30%);fill-opacity:1;" d="M 7.738281 2.011719 C 7.738281 1.679688 7.527344 1.496094 7.140625 1.496094 L 6.6875 1.496094 L 6.6875 2.507812 L 7.140625 2.507812 C 7.414062 2.507812 7.738281 2.421875 7.738281 2.011719 Z M 7.738281 2.011719 "/>
</g>
</svg>
