<?xml version="1.0" encoding="UTF-8"?>
<svg xmlns="http://www.w3.org/2000/svg" xmlns:xlink="http://www.w3.org/1999/xlink" width="8px" height="10px" viewBox="0 0 8 10" version="1.1">
<g id="surface1">
<path style=" stroke:none;fill-rule:nonzero;fill:rgb(30%,30%,30%);fill-opacity:1;" d="M 0 5.769531 L 0 4.617188 C 0 3.847656 0.679688 0.757812 0.679688 0.757812 C 0.746094 0.339844 1.160156 0 1.601562 0 L 6.398438 0 C 6.839844 0 7.253906 0.339844 7.320312 0.757812 C 7.320312 0.757812 8 3.847656 8 4.617188 L 8 5.769531 C 8 6.539062 7.597656 7.691406 6.398438 7.691406 L 1.601562 7.691406 C 0.402344 7.691406 0 6.921875 0 5.769531 Z M 1.855469 8.078125 L 2.398438 8.078125 C 2.453125 8.078125 2.507812 8.105469 2.535156 8.152344 C 2.5625 8.199219 2.566406 8.253906 2.539062 8.304688 L 1.644531 9.917969 C 1.617188 9.96875 1.5625 10 1.503906 10 L 0.359375 10 C 0.296875 10 0.238281 9.964844 0.214844 9.910156 C 0.1875 9.855469 0.199219 9.789062 0.238281 9.742188 L 1.738281 8.128906 C 1.765625 8.09375 1.8125 8.078125 1.855469 8.078125 Z M 7.097656 4.285156 C 7.15625 4.253906 7.191406 4.1875 7.179688 4.121094 L 6.597656 0.875 C 6.589844 0.835938 6.515625 0.769531 6.464844 0.769531 L 1.554688 0.769531 C 1.503906 0.769531 1.425781 0.835938 1.421875 0.875 L 0.820312 4.121094 C 0.808594 4.1875 0.84375 4.253906 0.902344 4.285156 C 1.28125 4.476562 2.640625 5.121094 4 5.121094 C 5.359375 5.121094 6.71875 4.476562 7.097656 4.285156 Z M 2.3125 5.726562 L 1.035156 5.113281 C 0.984375 5.085938 0.925781 5.089844 0.878906 5.117188 C 0.832031 5.144531 0.800781 5.195312 0.800781 5.25 L 0.800781 6.035156 C 0.800781 6.105469 0.851562 6.164062 0.921875 6.183594 L 2.203125 6.492188 C 2.25 6.503906 2.300781 6.492188 2.339844 6.460938 C 2.378906 6.433594 2.402344 6.386719 2.402344 6.339844 L 2.402344 5.863281 C 2.402344 5.804688 2.367188 5.753906 2.3125 5.726562 Z M 5.578125 8.078125 L 6.117188 8.078125 C 6.160156 8.078125 6.203125 8.09375 6.234375 8.128906 L 7.753906 9.742188 C 7.796875 9.789062 7.808594 9.851562 7.785156 9.910156 C 7.757812 9.964844 7.699219 10 7.636719 10 L 6.492188 10 C 6.433594 10 6.382812 9.96875 6.351562 9.917969 L 5.4375 8.304688 C 5.410156 8.257812 5.410156 8.199219 5.4375 8.152344 C 5.46875 8.105469 5.519531 8.078125 5.578125 8.078125 Z M 7.199219 6.035156 L 7.199219 5.25 C 7.199219 5.195312 7.167969 5.144531 7.121094 5.117188 C 7.074219 5.089844 7.015625 5.085938 6.964844 5.113281 L 5.6875 5.726562 C 5.632812 5.753906 5.597656 5.804688 5.597656 5.863281 L 5.597656 6.339844 C 5.597656 6.386719 5.621094 6.433594 5.660156 6.460938 C 5.699219 6.492188 5.75 6.503906 5.796875 6.492188 L 7.078125 6.183594 C 7.148438 6.164062 7.199219 6.105469 7.199219 6.035156 Z M 7.199219 6.035156 "/>
</g>
</svg>
