<?xml version="1.0" encoding="UTF-8"?>
<svg xmlns="http://www.w3.org/2000/svg" xmlns:xlink="http://www.w3.org/1999/xlink" width="10px" height="8px" viewBox="0 0 10 8" version="1.1">
<g id="surface1">
<path style=" stroke:none;fill-rule:nonzero;fill:rgb(30%,30%,30%);fill-opacity:1;" d="M 9.59375 3.03125 L 8.8125 3.019531 C 8.757812 1.277344 7.113281 0.0117188 4.867188 0 C 3.6875 -0.00390625 2.59375 0.433594 1.867188 1.203125 C 1.351562 1.746094 1.074219 2.394531 1.074219 3.035156 L 0.40625 3.03125 C 0.183594 3.03125 0 3.21875 0 3.453125 C 0 3.675781 0.03125 3.929688 0.726562 3.988281 C 0.472656 4.28125 0.453125 4.613281 0.453125 4.957031 C 0.453125 5.316406 0.578125 5.863281 0.855469 6.226562 C 0.84375 6.269531 0.839844 6.316406 0.839844 6.363281 L 0.839844 7.375 C 0.839844 7.71875 1.109375 7.996094 1.4375 8 L 1.792969 8 C 2.121094 7.996094 2.390625 7.71875 2.390625 7.375 L 2.390625 6.878906 C 2.394531 6.878906 2.398438 6.882812 2.398438 6.882812 C 3.09375 6.941406 6.753906 6.941406 7.625 6.863281 L 7.625 7.375 C 7.628906 7.71875 7.894531 7.996094 8.222656 8 L 8.578125 8 C 8.910156 7.996094 9.175781 7.71875 9.175781 7.375 L 9.175781 6.363281 C 9.175781 6.328125 9.171875 6.289062 9.167969 6.253906 C 9.425781 5.929688 9.527344 5.304688 9.527344 4.957031 C 9.527344 4.636719 9.503906 4.277344 9.277344 3.996094 C 9.367188 3.972656 9.449219 3.949219 9.523438 3.925781 C 9.867188 3.816406 10 3.6875 10 3.453125 C 10 3.21875 9.816406 3.03125 9.59375 3.03125 Z M 2.121094 1.464844 C 2.777344 0.773438 3.769531 0.375 4.847656 0.375 C 4.855469 0.375 4.859375 0.375 4.867188 0.375 C 6.929688 0.382812 8.4375 1.523438 8.453125 3.082031 C 8.457031 3.246094 8.4375 3.410156 8.394531 3.570312 C 8.34375 3.613281 8.28125 3.664062 8.199219 3.71875 C 8.027344 3.347656 7.714844 3.070312 7.335938 2.953125 C 7.570312 2.757812 7.660156 2.429688 7.558594 2.132812 C 7.457031 1.835938 7.183594 1.644531 6.882812 1.652344 C 6.582031 1.660156 6.320312 1.867188 6.230469 2.167969 C 6.144531 2.46875 6.25 2.792969 6.496094 2.976562 C 6.328125 3.035156 6.171875 3.128906 6.039062 3.25 C 5.960938 2.796875 5.601562 2.433594 5.136719 2.332031 C 5.316406 2.199219 5.386719 1.960938 5.320312 1.746094 C 5.25 1.53125 5.054688 1.386719 4.835938 1.390625 C 4.621094 1.394531 4.429688 1.542969 4.367188 1.761719 C 4.304688 1.980469 4.386719 2.214844 4.566406 2.339844 C 4.113281 2.457031 3.765625 2.828125 3.703125 3.285156 C 3.570312 3.15625 3.414062 3.054688 3.246094 2.988281 C 3.496094 2.8125 3.613281 2.492188 3.535156 2.1875 C 3.453125 1.886719 3.195312 1.667969 2.894531 1.652344 C 2.59375 1.636719 2.316406 1.820312 2.207031 2.113281 C 2.09375 2.40625 2.179688 2.742188 2.410156 2.941406 C 2.054688 3.039062 1.75 3.277344 1.5625 3.605469 C 1.53125 3.570312 1.507812 3.539062 1.488281 3.511719 C 1.457031 3.363281 1.4375 3.214844 1.433594 3.0625 C 1.425781 2.511719 1.667969 1.945312 2.121094 1.464844 Z M 1.796875 3.828125 C 2.039062 3.332031 2.59375 3.09375 3.101562 3.269531 C 3.609375 3.445312 3.917969 3.984375 3.824219 4.53125 C 2.753906 4.425781 2.136719 4.101562 1.796875 3.828125 Z M 5.867188 4.34375 C 5.867188 3.8125 6.222656 3.351562 6.722656 3.242188 C 7.21875 3.128906 7.726562 3.398438 7.933594 3.882812 C 7.519531 4.109375 6.863281 4.363281 5.875 4.488281 C 5.871094 4.441406 5.867188 4.390625 5.867188 4.34375 Z M 5.839844 3.472656 C 5.65625 3.722656 5.558594 4.03125 5.558594 4.34375 C 5.558594 4.402344 5.5625 4.464844 5.570312 4.523438 C 5.355469 4.542969 5.128906 4.558594 4.882812 4.566406 C 4.613281 4.574219 4.363281 4.570312 4.132812 4.558594 C 4.140625 4.484375 4.148438 4.414062 4.148438 4.34375 C 4.148438 4.058594 4.066406 3.777344 3.914062 3.539062 C 3.910156 3.507812 3.90625 3.472656 3.90625 3.4375 C 3.90625 2.9375 4.339844 2.527344 4.871094 2.527344 C 5.40625 2.527344 5.839844 2.9375 5.839844 3.4375 C 5.839844 3.449219 5.839844 3.460938 5.839844 3.472656 Z M 5.839844 3.472656 "/>
</g>
</svg>
