<?xml version="1.0" encoding="UTF-8" standalone="no"?>
<!-- Created with Inkscape (http://www.inkscape.org/) -->

<svg
   xmlns:dc="http://purl.org/dc/elements/1.1/"
   xmlns:cc="http://creativecommons.org/ns#"
   xmlns:rdf="http://www.w3.org/1999/02/22-rdf-syntax-ns#"
   xmlns:svg="http://www.w3.org/2000/svg"
   xmlns="http://www.w3.org/2000/svg"
   xmlns:xlink="http://www.w3.org/1999/xlink"
   xmlns:sodipodi="http://sodipodi.sourceforge.net/DTD/sodipodi-0.dtd"
   xmlns:inkscape="http://www.inkscape.org/namespaces/inkscape"
   width="30px"
   height="30px"
   version="1.1"
   id="svg8"
   inkscape:version="0.92.4 5da689c313, 2019-01-14"
   sodipodi:docname="container.svg">
  <defs
     id="defs2" />
  <sodipodi:namedview
     id="base"
     pagecolor="#ffffff"
     bordercolor="#666666"
     borderopacity="1.0"
     inkscape:pageopacity="0.0"
     inkscape:pageshadow="2"
     inkscape:zoom="13.049334"
     inkscape:cx="18.679046"
     inkscape:cy="12.165829"
     inkscape:document-units="px"
     inkscape:current-layer="layer1"
     showgrid="false"
     inkscape:snap-page="false"
     units="px"
     inkscape:window-width="1884"
     inkscape:window-height="1061"
     inkscape:window-x="0"
     inkscape:window-y="0"
     inkscape:window-maximized="1"
     fit-margin-top="0"
     fit-margin-left="0"
     fit-margin-right="0"
     fit-margin-bottom="0" />
  <metadata
     id="metadata5">
    <rdf:RDF>
      <cc:Work
         rdf:about="">
        <dc:format>image/svg+xml</dc:format>
        <dc:type
           rdf:resource="http://purl.org/dc/dcmitype/StillImage" />
        <dc:title></dc:title>
      </cc:Work>
    </rdf:RDF>
  </metadata>
    <circle
       style="color:#000000;clip-rule:nonzero;display:inline;overflow:visible;visibility:visible;opacity:1;isolation:auto;mix-blend-mode:normal;color-interpolation:sRGB;color-interpolation-filters:linearRGB;solid-color:#000000;solid-opacity:1;vector-effect:none;fill:#ffffff;fill-opacity:1;fill-rule:evenodd;stroke:#008ecf;stroke-width:1;stroke-linecap:butt;stroke-linejoin:miter;stroke-miterlimit:4;stroke-dasharray:none;stroke-dashoffset:0;stroke-opacity:1;marker:none;color-rendering:auto;image-rendering:auto;shape-rendering:auto;text-rendering:auto;enable-background:accumulate"
       id="path815"
       cx="15"
       cy="15"
       r="14.5" />
<g transform="translate(7,6)"><g id="surface1">
<path style=" stroke:none;fill-rule:nonzero;fill:rgb(30%,30%,30%);fill-opacity:1;" d="M 11.835938 0 L 3.164062 0 C 1.421875 0 0.00390625 1.390625 0.00390625 3.105469 L 0.00390625 13.640625 C 0.00390625 14.246094 0.503906 14.734375 1.117188 14.734375 L 1.160156 14.734375 L 1.160156 16.132812 C 1.160156 16.609375 1.554688 17 2.042969 17 L 2.582031 17 C 3.070312 17 3.464844 16.609375 3.464844 16.132812 L 3.464844 14.734375 L 11.542969 14.734375 C 11.539062 14.761719 11.535156 14.789062 11.535156 14.820312 L 11.535156 16.15625 C 11.535156 16.621094 11.917969 17 12.390625 17 L 12.984375 17 C 13.457031 17 13.839844 16.621094 13.839844 16.15625 L 13.839844 14.820312 C 13.839844 14.789062 13.835938 14.761719 13.832031 14.734375 L 13.882812 14.734375 C 14.496094 14.734375 14.996094 14.246094 14.996094 13.640625 L 14.996094 3.105469 C 14.996094 1.390625 13.578125 0 11.835938 0 Z M 3.5625 1.699219 L 11.4375 1.699219 C 11.597656 1.699219 11.726562 1.828125 11.726562 1.984375 C 11.726562 2.140625 11.597656 2.265625 11.4375 2.265625 L 3.5625 2.265625 C 3.402344 2.265625 3.273438 2.140625 3.273438 1.984375 C 3.273438 1.828125 3.402344 1.699219 3.5625 1.699219 Z M 2.3125 13.601562 C 1.675781 13.601562 1.160156 13.09375 1.160156 12.464844 C 1.160156 11.839844 1.675781 11.332031 2.3125 11.332031 C 2.949219 11.332031 3.464844 11.839844 3.464844 12.464844 C 3.464844 13.09375 2.949219 13.601562 2.3125 13.601562 Z M 12.6875 13.601562 C 12.050781 13.601562 11.535156 13.09375 11.535156 12.464844 C 11.535156 11.839844 12.050781 11.332031 12.6875 11.332031 C 13.324219 11.332031 13.839844 11.839844 13.839844 12.464844 C 13.839844 13.09375 13.324219 13.601562 12.6875 13.601562 Z M 13.839844 8.636719 C 13.839844 8.875 13.644531 9.066406 13.402344 9.066406 L 1.597656 9.066406 C 1.355469 9.066406 1.160156 8.875 1.160156 8.636719 L 1.160156 3.832031 C 1.160156 3.59375 1.355469 3.398438 1.597656 3.398438 L 13.402344 3.398438 C 13.644531 3.398438 13.839844 3.59375 13.839844 3.832031 Z M 13.839844 8.636719 "/>
</g>
</g>
</svg>
