<?xml version="1.0" encoding="UTF-8" standalone="no"?>
<!-- Created with Inkscape (http://www.inkscape.org/) -->

<svg
   xmlns:dc="http://purl.org/dc/elements/1.1/"
   xmlns:cc="http://creativecommons.org/ns#"
   xmlns:rdf="http://www.w3.org/1999/02/22-rdf-syntax-ns#"
   xmlns:svg="http://www.w3.org/2000/svg"
   xmlns="http://www.w3.org/2000/svg"
   xmlns:xlink="http://www.w3.org/1999/xlink"
   xmlns:sodipodi="http://sodipodi.sourceforge.net/DTD/sodipodi-0.dtd"
   xmlns:inkscape="http://www.inkscape.org/namespaces/inkscape"
   width="30px"
   height="30px"
   version="1.1"
   id="svg8"
   inkscape:version="0.92.4 5da689c313, 2019-01-14"
   sodipodi:docname="container.svg">
  <defs
     id="defs2" />
  <sodipodi:namedview
     id="base"
     pagecolor="#ffffff"
     bordercolor="#666666"
     borderopacity="1.0"
     inkscape:pageopacity="0.0"
     inkscape:pageshadow="2"
     inkscape:zoom="13.049334"
     inkscape:cx="18.679046"
     inkscape:cy="12.165829"
     inkscape:document-units="px"
     inkscape:current-layer="layer1"
     showgrid="false"
     inkscape:snap-page="false"
     units="px"
     inkscape:window-width="1884"
     inkscape:window-height="1061"
     inkscape:window-x="0"
     inkscape:window-y="0"
     inkscape:window-maximized="1"
     fit-margin-top="0"
     fit-margin-left="0"
     fit-margin-right="0"
     fit-margin-bottom="0" />
  <metadata
     id="metadata5">
    <rdf:RDF>
      <cc:Work
         rdf:about="">
        <dc:format>image/svg+xml</dc:format>
        <dc:type
           rdf:resource="http://purl.org/dc/dcmitype/StillImage" />
        <dc:title></dc:title>
      </cc:Work>
    </rdf:RDF>
  </metadata>
    <circle
       style="color:#000000;clip-rule:nonzero;display:inline;overflow:visible;visibility:visible;opacity:1;isolation:auto;mix-blend-mode:normal;color-interpolation:sRGB;color-interpolation-filters:linearRGB;solid-color:#000000;solid-opacity:1;vector-effect:none;fill:#ffffff;fill-opacity:1;fill-rule:evenodd;stroke:#3772a6;stroke-width:1;stroke-linecap:butt;stroke-linejoin:miter;stroke-miterlimit:4;stroke-dasharray:none;stroke-dashoffset:0;stroke-opacity:1;marker:none;color-rendering:auto;image-rendering:auto;shape-rendering:auto;text-rendering:auto;enable-background:accumulate"
       id="path815"
       cx="15"
       cy="15"
       r="14.5" />
<g transform="translate(7,10)"><g id="surface1">
<path style=" stroke:none;fill-rule:nonzero;fill:rgb(30%,30%,30%);fill-opacity:1;" d="M 13.726562 3.640625 L 13.140625 1.699219 L 12.074219 1.699219 L 11.386719 0 L 10.460938 0 L 10.648438 1.699219 L 9.917969 1.699219 L 9.625 3.050781 L 1.167969 3.050781 L 1.5625 4.089844 L 0 4.089844 L 0.921875 7.433594 C 1.164062 7.394531 1.425781 7.292969 1.695312 7.1875 C 2.066406 7.046875 2.449219 6.898438 2.851562 6.878906 C 3.402344 6.851562 3.859375 7.042969 4.265625 7.207031 C 4.582031 7.339844 4.859375 7.453125 5.136719 7.453125 C 5.589844 7.453125 5.910156 7.316406 6.246094 7.167969 C 6.550781 7.035156 6.867188 6.902344 7.265625 6.878906 C 7.960938 6.839844 8.464844 7.050781 8.910156 7.234375 C 9.148438 7.332031 9.363281 7.421875 9.570312 7.457031 L 10.046875 7.457031 C 10.367188 7.414062 10.605469 7.296875 10.855469 7.175781 C 11.144531 7.035156 11.445312 6.890625 11.859375 6.859375 C 12.488281 6.808594 12.957031 7.023438 13.371094 7.210938 C 13.652344 7.335938 13.894531 7.445312 14.140625 7.453125 C 14.140625 7.453125 14.144531 7.453125 14.144531 7.453125 L 15.742188 4.089844 L 16 3.640625 Z M 13.726562 3.640625 "/>
<path style=" stroke:none;fill-rule:nonzero;fill:rgb(30%,30%,30%);fill-opacity:1;" d="M 14.074219 9.300781 C 13.828125 9.292969 13.585938 9.183594 13.304688 9.058594 C 12.890625 8.871094 12.421875 8.65625 11.792969 8.707031 C 11.378906 8.738281 11.078125 8.882812 10.789062 9.023438 C 10.464844 9.183594 10.160156 9.328125 9.671875 9.320312 C 9.40625 9.316406 9.148438 9.207031 8.84375 9.082031 C 8.398438 8.898438 7.894531 8.6875 7.199219 8.726562 C 6.800781 8.75 6.484375 8.882812 6.179688 9.015625 C 5.84375 9.160156 5.523438 9.300781 5.070312 9.300781 C 4.792969 9.300781 4.515625 9.1875 4.199219 9.054688 C 3.792969 8.890625 3.335938 8.699219 2.785156 8.726562 C 2.382812 8.742188 2 8.890625 1.628906 9.035156 C 1.277344 9.171875 0.949219 9.300781 0.652344 9.300781 C 0.476562 9.296875 0.300781 9.277344 0.132812 9.230469 L 0.140625 9.925781 C 0.308594 9.960938 0.480469 9.976562 0.652344 9.980469 C 1.066406 9.980469 1.46875 9.824219 1.859375 9.671875 C 2.199219 9.542969 2.519531 9.417969 2.816406 9.402344 C 3.226562 9.386719 3.578125 9.53125 3.953125 9.683594 C 4.304688 9.828125 4.664062 9.980469 5.070312 9.980469 C 5.65625 9.980469 6.070312 9.800781 6.4375 9.640625 C 6.710938 9.523438 6.949219 9.417969 7.238281 9.402344 C 7.785156 9.371094 8.199219 9.546875 8.597656 9.710938 C 8.929688 9.847656 9.273438 9.992188 9.660156 10 C 9.679688 10 9.699219 10 9.71875 10 C 10.328125 10 10.722656 9.808594 11.070312 9.640625 C 11.328125 9.511719 11.546875 9.40625 11.839844 9.382812 C 12.308594 9.347656 12.664062 9.507812 13.042969 9.679688 C 13.355469 9.820312 13.679688 9.96875 14.054688 9.980469 C 14.082031 9.980469 14.105469 9.980469 14.132812 9.980469 C 14.640625 9.980469 15.097656 9.835938 15.402344 9.710938 L 15.402344 8.964844 C 15.234375 9.054688 14.6875 9.316406 14.074219 9.300781 Z M 14.074219 9.300781 "/>
<path style=" stroke:none;fill-rule:nonzero;fill:rgb(30%,30%,30%);fill-opacity:1;" d="M 14.074219 8.015625 C 13.828125 8.011719 13.585938 7.902344 13.304688 7.773438 C 12.890625 7.585938 12.421875 7.375 11.792969 7.421875 C 11.378906 7.453125 11.078125 7.601562 10.789062 7.742188 C 10.464844 7.898438 10.160156 8.046875 9.671875 8.039062 C 9.40625 8.03125 9.148438 7.925781 8.84375 7.796875 C 8.398438 7.613281 7.894531 7.402344 7.199219 7.441406 C 6.800781 7.464844 6.484375 7.601562 6.179688 7.734375 C 5.84375 7.878906 5.523438 8.015625 5.070312 8.015625 C 4.792969 8.015625 4.515625 7.902344 4.199219 7.773438 C 3.792969 7.605469 3.335938 7.417969 2.785156 7.441406 C 2.382812 7.460938 2 7.609375 1.628906 7.753906 C 1.277344 7.890625 0.949219 8.015625 0.652344 8.015625 C 0.476562 8.015625 0.300781 7.992188 0.132812 7.949219 L 0.140625 8.644531 C 0.308594 8.679688 0.480469 8.695312 0.652344 8.695312 C 1.066406 8.695312 1.46875 8.539062 1.859375 8.390625 C 2.199219 8.257812 2.519531 8.132812 2.816406 8.121094 C 3.226562 8.101562 3.578125 8.25 3.953125 8.402344 C 4.304688 8.546875 4.664062 8.695312 5.070312 8.695312 C 5.65625 8.695312 6.070312 8.515625 6.4375 8.359375 C 6.710938 8.238281 6.949219 8.136719 7.238281 8.121094 C 7.785156 8.089844 8.199219 8.261719 8.597656 8.429688 C 8.929688 8.566406 9.273438 8.707031 9.660156 8.714844 C 9.679688 8.71875 9.699219 8.71875 9.71875 8.71875 C 10.328125 8.71875 10.722656 8.527344 11.070312 8.355469 C 11.328125 8.230469 11.546875 8.121094 11.839844 8.101562 C 12.308594 8.0625 12.664062 8.226562 13.042969 8.394531 C 13.355469 8.539062 13.679688 8.683594 14.054688 8.695312 C 14.082031 8.695312 14.105469 8.695312 14.132812 8.695312 C 14.640625 8.695312 15.097656 8.554688 15.402344 8.425781 L 15.402344 7.679688 C 15.234375 7.769531 14.6875 8.035156 14.074219 8.015625 Z M 14.074219 8.015625 "/>
</g>
</g>
</svg>
