<?xml version="1.0" encoding="UTF-8" standalone="no"?>
<!-- Created with Inkscape (http://www.inkscape.org/) -->

<svg
   xmlns:dc="http://purl.org/dc/elements/1.1/"
   xmlns:cc="http://creativecommons.org/ns#"
   xmlns:rdf="http://www.w3.org/1999/02/22-rdf-syntax-ns#"
   xmlns:svg="http://www.w3.org/2000/svg"
   xmlns="http://www.w3.org/2000/svg"
   xmlns:xlink="http://www.w3.org/1999/xlink"
   xmlns:sodipodi="http://sodipodi.sourceforge.net/DTD/sodipodi-0.dtd"
   xmlns:inkscape="http://www.inkscape.org/namespaces/inkscape"
   width="30px"
   height="30px"
   version="1.1"
   id="svg8"
   inkscape:version="0.92.4 5da689c313, 2019-01-14"
   sodipodi:docname="container.svg">
  <defs
     id="defs2" />
  <sodipodi:namedview
     id="base"
     pagecolor="#ffffff"
     bordercolor="#666666"
     borderopacity="1.0"
     inkscape:pageopacity="0.0"
     inkscape:pageshadow="2"
     inkscape:zoom="13.049334"
     inkscape:cx="18.679046"
     inkscape:cy="12.165829"
     inkscape:document-units="px"
     inkscape:current-layer="layer1"
     showgrid="false"
     inkscape:snap-page="false"
     units="px"
     inkscape:window-width="1884"
     inkscape:window-height="1061"
     inkscape:window-x="0"
     inkscape:window-y="0"
     inkscape:window-maximized="1"
     fit-margin-top="0"
     fit-margin-left="0"
     fit-margin-right="0"
     fit-margin-bottom="0" />
  <metadata
     id="metadata5">
    <rdf:RDF>
      <cc:Work
         rdf:about="">
        <dc:format>image/svg+xml</dc:format>
        <dc:type
           rdf:resource="http://purl.org/dc/dcmitype/StillImage" />
        <dc:title></dc:title>
      </cc:Work>
    </rdf:RDF>
  </metadata>
    <circle
       style="color:#000000;clip-rule:nonzero;display:inline;overflow:visible;visibility:visible;opacity:1;isolation:auto;mix-blend-mode:normal;color-interpolation:sRGB;color-interpolation-filters:linearRGB;solid-color:#000000;solid-opacity:1;vector-effect:none;fill:#ffffff;fill-opacity:1;fill-rule:evenodd;stroke:#008ecf;stroke-width:1;stroke-linecap:butt;stroke-linejoin:miter;stroke-miterlimit:4;stroke-dasharray:none;stroke-dashoffset:0;stroke-opacity:1;marker:none;color-rendering:auto;image-rendering:auto;shape-rendering:auto;text-rendering:auto;enable-background:accumulate"
       id="path815"
       cx="15"
       cy="15"
       r="14.5" />
<g transform="translate(9,7)"><g id="surface1">
<path style=" stroke:none;fill-rule:nonzero;fill:rgb(30%,30%,30%);fill-opacity:1;" d="M 8.300781 12.496094 L 2.6875 12.496094 C 1.585938 12.496094 0.691406 11.632812 0.691406 10.570312 L 0.691406 4.679688 C 0.691406 2.800781 2.273438 1.273438 4.226562 1.273438 L 6.761719 1.273438 C 8.714844 1.273438 10.296875 2.800781 10.296875 4.679688 L 10.296875 10.570312 C 10.296875 11.632812 9.402344 12.496094 8.300781 12.496094 Z M 2.800781 9.753906 C 2.335938 9.753906 1.960938 10.117188 1.960938 10.5625 C 1.960938 11.007812 2.335938 11.371094 2.800781 11.371094 C 3.261719 11.371094 3.636719 11.007812 3.636719 10.5625 C 3.636719 10.117188 3.261719 9.753906 2.800781 9.753906 Z M 8.199219 9.753906 C 7.734375 9.753906 7.359375 10.117188 7.359375 10.5625 C 7.359375 11.007812 7.734375 11.371094 8.199219 11.371094 C 8.660156 11.371094 9.039062 11.007812 9.039062 10.5625 C 9.039062 10.117188 8.660156 9.753906 8.199219 9.753906 Z M 7.328125 2.382812 C 7.328125 2.042969 7.042969 1.769531 6.691406 1.769531 L 4.34375 1.769531 C 3.992188 1.769531 3.707031 2.042969 3.707031 2.382812 C 3.707031 2.722656 3.992188 2.996094 4.34375 2.996094 L 6.691406 2.996094 C 7.042969 2.996094 7.328125 2.722656 7.328125 2.382812 Z M 9.15625 6.144531 L 9.15625 4.421875 C 9.15625 3.863281 8.683594 3.410156 8.105469 3.410156 L 2.960938 3.410156 C 2.382812 3.410156 1.910156 3.863281 1.910156 4.421875 L 1.910156 6.144531 C 1.910156 6.707031 2.382812 7.160156 2.960938 7.160156 L 8.105469 7.160156 C 8.683594 7.160156 9.15625 6.707031 9.15625 6.144531 Z M 9.15625 6.144531 "/>
<path style=" stroke:none;fill-rule:nonzero;fill:rgb(30%,30%,30%);fill-opacity:1;" d="M 5.292969 0.578125 C 5.292969 0.890625 5.03125 1.144531 4.707031 1.144531 C 4.382812 1.144531 4.121094 0.890625 4.121094 0.578125 C 4.121094 0.265625 4.382812 0.0117188 4.707031 0.0117188 C 5.03125 0.0117188 5.292969 0.265625 5.292969 0.578125 Z M 5.292969 0.578125 "/>
<path style=" stroke:none;fill-rule:nonzero;fill:rgb(30%,30%,30%);fill-opacity:1;" d="M 6.871094 0.578125 C 6.871094 0.890625 6.609375 1.144531 6.285156 1.144531 C 5.960938 1.144531 5.695312 0.890625 5.695312 0.578125 C 5.695312 0.265625 5.960938 0.0117188 6.285156 0.0117188 C 6.609375 0.0117188 6.871094 0.265625 6.871094 0.578125 Z M 6.871094 0.578125 "/>
<path style=" stroke:none;fill-rule:nonzero;fill:rgb(30%,30%,30%);fill-opacity:1;" d="M 3.21875 13.402344 L 1.84375 13.402344 L 0 15.988281 L 1.375 15.988281 Z M 3.21875 13.402344 "/>
<path style=" stroke:none;fill-rule:nonzero;fill:rgb(30%,30%,30%);fill-opacity:1;" d="M 9.324219 13.402344 L 7.949219 13.402344 L 9.625 15.988281 L 11 15.988281 Z M 9.324219 13.402344 "/>
</g>
</g>
</svg>
