<?xml version="1.0" encoding="UTF-8" standalone="no"?>
<!-- Created with Inkscape (http://www.inkscape.org/) -->

<svg
   xmlns:dc="http://purl.org/dc/elements/1.1/"
   xmlns:cc="http://creativecommons.org/ns#"
   xmlns:rdf="http://www.w3.org/1999/02/22-rdf-syntax-ns#"
   xmlns:svg="http://www.w3.org/2000/svg"
   xmlns="http://www.w3.org/2000/svg"
   xmlns:xlink="http://www.w3.org/1999/xlink"
   xmlns:sodipodi="http://sodipodi.sourceforge.net/DTD/sodipodi-0.dtd"
   xmlns:inkscape="http://www.inkscape.org/namespaces/inkscape"
   width="30px"
   height="30px"
   version="1.1"
   id="svg8"
   inkscape:version="0.92.4 5da689c313, 2019-01-14"
   sodipodi:docname="container.svg">
  <defs
     id="defs2" />
  <sodipodi:namedview
     id="base"
     pagecolor="#ffffff"
     bordercolor="#666666"
     borderopacity="1.0"
     inkscape:pageopacity="0.0"
     inkscape:pageshadow="2"
     inkscape:zoom="13.049334"
     inkscape:cx="18.679046"
     inkscape:cy="12.165829"
     inkscape:document-units="px"
     inkscape:current-layer="layer1"
     showgrid="false"
     inkscape:snap-page="false"
     units="px"
     inkscape:window-width="1884"
     inkscape:window-height="1061"
     inkscape:window-x="0"
     inkscape:window-y="0"
     inkscape:window-maximized="1"
     fit-margin-top="0"
     fit-margin-left="0"
     fit-margin-right="0"
     fit-margin-bottom="0" />
  <metadata
     id="metadata5">
    <rdf:RDF>
      <cc:Work
         rdf:about="">
        <dc:format>image/svg+xml</dc:format>
        <dc:type
           rdf:resource="http://purl.org/dc/dcmitype/StillImage" />
        <dc:title></dc:title>
      </cc:Work>
    </rdf:RDF>
  </metadata>
    <circle
       style="color:#000000;clip-rule:nonzero;display:inline;overflow:visible;visibility:visible;opacity:1;isolation:auto;mix-blend-mode:normal;color-interpolation:sRGB;color-interpolation-filters:linearRGB;solid-color:#000000;solid-opacity:1;vector-effect:none;fill:#ffffff;fill-opacity:1;fill-rule:evenodd;stroke:#3772a6;stroke-width:1;stroke-linecap:butt;stroke-linejoin:miter;stroke-miterlimit:4;stroke-dasharray:none;stroke-dashoffset:0;stroke-opacity:1;marker:none;color-rendering:auto;image-rendering:auto;shape-rendering:auto;text-rendering:auto;enable-background:accumulate"
       id="path815"
       cx="15"
       cy="15"
       r="14.5" />
<g transform="translate(10,6)"><g id="surface1">
<path style=" stroke:none;fill-rule:nonzero;fill:rgb(30%,30%,30%);fill-opacity:1;" d="M 3 11.15625 C 3.035156 11.097656 3.105469 11.066406 3.175781 11.078125 C 3.542969 11.128906 3.917969 11.117188 4.285156 11.046875 C 5.03125 10.929688 5.773438 10.582031 6.453125 10.035156 C 6.566406 9.949219 6.683594 9.859375 6.804688 9.761719 C 6.816406 9.75 7.191406 9.332031 7.335938 9.160156 C 7.339844 9.152344 7.34375 9.148438 7.347656 9.140625 L 9.972656 5.105469 C 10.023438 5.023438 10 4.914062 9.917969 4.863281 C 9.917969 4.863281 9.914062 4.863281 9.914062 4.859375 L 8.847656 4.21875 C 8.761719 4.167969 8.734375 4.0625 8.785156 3.980469 C 8.789062 3.976562 8.789062 3.976562 8.789062 3.976562 L 9.917969 2.253906 C 9.960938 2.183594 9.953125 2.097656 9.898438 2.039062 C 9.882812 2.003906 9.859375 1.976562 9.828125 1.957031 L 9.125 1.523438 C 9.039062 1.46875 8.929688 1.496094 8.878906 1.578125 L 7.769531 3.316406 C 7.714844 3.398438 7.605469 3.425781 7.523438 3.375 C 7.523438 3.371094 7.519531 3.371094 7.519531 3.371094 L 6.527344 2.71875 C 6.445312 2.667969 6.421875 2.5625 6.472656 2.480469 L 7.601562 0.710938 C 7.652344 0.628906 7.628906 0.523438 7.546875 0.46875 L 6.839844 0.0351562 C 6.757812 -0.015625 6.648438 0.0078125 6.597656 0.0898438 L 5.488281 1.824219 C 5.4375 1.90625 5.328125 1.933594 5.242188 1.878906 C 5.242188 1.878906 5.242188 1.878906 5.238281 1.878906 L 4.199219 1.195312 C 4.117188 1.140625 4.007812 1.164062 3.953125 1.246094 C 3.949219 1.246094 3.949219 1.246094 3.949219 1.246094 L 1.347656 5.296875 C 1.339844 5.304688 1.339844 5.308594 1.335938 5.316406 C 0.4375 7.171875 0.554688 9.019531 1.671875 10.21875 C 1.726562 10.277344 1.738281 10.363281 1.691406 10.429688 C 0.699219 11.957031 -0.535156 13.863281 0.25 15.546875 C 0.519531 16.125 0.976562 16.585938 1.511719 16.972656 L 4.597656 16.992188 C 4.421875 16.902344 4.238281 16.808594 4.054688 16.714844 C 3.066406 16.222656 1.953125 15.664062 1.609375 14.933594 C 1.164062 13.976562 2.15625 12.453125 2.953125 11.226562 C 2.96875 11.203125 2.984375 11.179688 3 11.15625 Z M 3 11.15625 "/>
</g>
</g>
</svg>
