<?xml version="1.0" encoding="UTF-8" standalone="no"?>
<!-- Created with Inkscape (http://www.inkscape.org/) -->

<svg
   xmlns:dc="http://purl.org/dc/elements/1.1/"
   xmlns:cc="http://creativecommons.org/ns#"
   xmlns:rdf="http://www.w3.org/1999/02/22-rdf-syntax-ns#"
   xmlns:svg="http://www.w3.org/2000/svg"
   xmlns="http://www.w3.org/2000/svg"
   xmlns:xlink="http://www.w3.org/1999/xlink"
   xmlns:sodipodi="http://sodipodi.sourceforge.net/DTD/sodipodi-0.dtd"
   xmlns:inkscape="http://www.inkscape.org/namespaces/inkscape"
   width="30px"
   height="30px"
   version="1.1"
   id="svg8"
   inkscape:version="0.92.4 5da689c313, 2019-01-14"
   sodipodi:docname="container.svg">
  <defs
     id="defs2" />
  <sodipodi:namedview
     id="base"
     pagecolor="#ffffff"
     bordercolor="#666666"
     borderopacity="1.0"
     inkscape:pageopacity="0.0"
     inkscape:pageshadow="2"
     inkscape:zoom="13.049334"
     inkscape:cx="18.679046"
     inkscape:cy="12.165829"
     inkscape:document-units="px"
     inkscape:current-layer="layer1"
     showgrid="false"
     inkscape:snap-page="false"
     units="px"
     inkscape:window-width="1884"
     inkscape:window-height="1061"
     inkscape:window-x="0"
     inkscape:window-y="0"
     inkscape:window-maximized="1"
     fit-margin-top="0"
     fit-margin-left="0"
     fit-margin-right="0"
     fit-margin-bottom="0" />
  <metadata
     id="metadata5">
    <rdf:RDF>
      <cc:Work
         rdf:about="">
        <dc:format>image/svg+xml</dc:format>
        <dc:type
           rdf:resource="http://purl.org/dc/dcmitype/StillImage" />
        <dc:title></dc:title>
      </cc:Work>
    </rdf:RDF>
  </metadata>
    <circle
       style="color:#000000;clip-rule:nonzero;display:inline;overflow:visible;visibility:visible;opacity:1;isolation:auto;mix-blend-mode:normal;color-interpolation:sRGB;color-interpolation-filters:linearRGB;solid-color:#000000;solid-opacity:1;vector-effect:none;fill:#3772a6;fill-opacity:1;fill-rule:evenodd;stroke:#ffffff;stroke-width:1;stroke-linecap:butt;stroke-linejoin:miter;stroke-miterlimit:4;stroke-dasharray:none;stroke-dashoffset:0;stroke-opacity:1;marker:none;color-rendering:auto;image-rendering:auto;shape-rendering:auto;text-rendering:auto;enable-background:accumulate"
       id="path815"
       cx="15"
       cy="15"
       r="14.5" />
<g transform="translate(6,7)"><g id="surface1">
<path style=" stroke:none;fill-rule:nonzero;fill:#FFFFFF;fill-opacity:1;" d="M 5.050781 8.039062 L 5.050781 8.035156 L 7.421875 8.035156 C 7.878906 8.035156 8.246094 7.660156 8.246094 7.199219 L 8.246094 0.835938 C 8.246094 0.375 7.878906 0 7.421875 0 L 1.804688 0 C 1.351562 0 0.980469 0.375 0.980469 0.835938 L 0.980469 7.199219 C 0.980469 7.660156 1.351562 8.035156 1.804688 8.035156 L 4.015625 8.035156 Z M 2.929688 1.738281 C 2.929688 1.710938 2.941406 1.683594 2.957031 1.667969 C 2.976562 1.648438 3.003906 1.636719 3.027344 1.636719 L 4.910156 1.636719 C 6.402344 1.636719 6.628906 2.613281 6.628906 3.191406 C 6.628906 4.175781 6.019531 4.71875 4.910156 4.71875 L 3.988281 4.71875 L 3.988281 6.289062 C 3.988281 6.316406 3.976562 6.34375 3.957031 6.359375 C 3.941406 6.378906 3.914062 6.390625 3.890625 6.390625 L 3.027344 6.390625 C 3.003906 6.390625 2.976562 6.378906 2.957031 6.359375 C 2.941406 6.34375 2.929688 6.316406 2.929688 6.289062 Z M 2.929688 1.738281 "/>
<path style=" stroke:none;fill-rule:nonzero;fill:#FFFFFF;fill-opacity:1;" d="M 5.589844 3.195312 C 5.589844 2.667969 5.269531 2.375 4.683594 2.375 L 3.988281 2.375 L 3.988281 3.984375 L 4.683594 3.984375 C 5.09375 3.980469 5.589844 3.84375 5.589844 3.195312 Z M 5.589844 3.195312 "/>
<path style=" stroke:none;fill-rule:nonzero;fill:#FFFFFF;fill-opacity:1;" d="M 14.300781 10.542969 C 13.9375 10.542969 13.578125 10.617188 13.246094 10.761719 L 12.292969 9.261719 L 12.605469 9.273438 L 12.605469 7.589844 C 11.824219 7.589844 11.511719 7.925781 11.390625 8.167969 L 9.375 7.085938 C 9.207031 6.992188 8.996094 7.058594 8.902344 7.230469 L 8.808594 7.414062 C 8.71875 7.585938 8.785156 7.800781 8.953125 7.890625 L 10.011719 8.464844 C 6.246094 8.929688 6.09375 10.144531 5.957031 10.054688 C 5.351562 9.644531 2.675781 9.601562 2.675781 9.601562 L 2.675781 10.21875 C 3.375 10.117188 4.027344 10.261719 4.5625 10.609375 C 4.554688 10.617188 4.546875 10.621094 4.539062 10.628906 L 4.195312 11.007812 C 3.175781 10.3125 1.820312 10.40625 0.902344 11.234375 C -0.0117188 12.066406 -0.257812 13.417969 0.304688 14.523438 C 0.867188 15.628906 2.101562 16.210938 3.296875 15.929688 C 4.496094 15.652344 5.355469 14.585938 5.386719 13.34375 L 5.964844 13.273438 C 6.070312 13.496094 8.351562 13.910156 10.375 13.710938 C 10.945312 13.652344 11.105469 12.929688 11.105469 12.929688 L 11.226562 9.480469 L 11.285156 9.269531 L 12.527344 11.226562 C 11.550781 12.09375 11.328125 13.546875 12 14.675781 C 12.667969 15.804688 14.039062 16.289062 15.253906 15.824219 C 16.46875 15.355469 17.183594 14.078125 16.949219 12.78125 C 16.714844 11.484375 15.601562 10.542969 14.300781 10.542969 Z M 4.269531 12.25 C 4.339844 12.355469 4.394531 12.46875 4.441406 12.589844 L 3.902344 12.652344 Z M 2.699219 15.167969 C 1.910156 15.167969 1.207031 14.671875 0.9375 13.921875 C 0.667969 13.175781 0.890625 12.335938 1.492188 11.824219 C 2.089844 11.308594 2.945312 11.230469 3.625 11.628906 L 2.433594 12.933594 C 2.292969 13.089844 2.300781 13.332031 2.453125 13.472656 L 2.554688 13.570312 C 2.664062 13.671875 2.824219 13.699219 2.960938 13.636719 L 4.558594 13.441406 C 4.472656 14.417969 3.664062 15.167969 2.699219 15.167969 Z M 5.273438 12.488281 C 5.183594 12.175781 5.035156 11.882812 4.84375 11.625 L 5.191406 11.242188 C 5.199219 11.230469 5.210938 11.21875 5.21875 11.207031 C 5.480469 11.539062 5.683594 11.949219 5.816406 12.421875 Z M 14.265625 15.167969 C 13.507812 15.167969 12.820312 14.699219 12.535156 13.988281 C 12.25 13.273438 12.417969 12.453125 12.964844 11.914062 L 13.933594 13.445312 C 14.058594 13.644531 14.324219 13.703125 14.519531 13.574219 C 14.71875 13.445312 14.773438 13.179688 14.648438 12.976562 L 13.691406 11.46875 C 14.394531 11.238281 15.164062 11.449219 15.65625 12.003906 C 16.152344 12.5625 16.277344 13.359375 15.976562 14.042969 C 15.675781 14.726562 15.003906 15.167969 14.265625 15.167969 Z M 14.265625 15.167969 "/>
</g>
</g>
</svg>
