<?xml version="1.0" encoding="UTF-8"?>
<svg xmlns="http://www.w3.org/2000/svg" xmlns:xlink="http://www.w3.org/1999/xlink" width="9px" height="11px" viewBox="0 0 9 11" version="1.1">
<g id="surface1">
<path style=" stroke:none;fill-rule:nonzero;fill:rgb(30%,30%,30%);fill-opacity:1;" d="M 0 0.230469 C 0 0.171875 0.0273438 0.109375 0.0703125 0.0664062 C 0.117188 0.0234375 0.175781 0 0.242188 0 L 4.820312 0 C 8.449219 0 9 2.257812 9 3.597656 C 9 5.871094 7.515625 7.128906 4.820312 7.128906 L 2.574219 7.128906 L 2.574219 10.769531 C 2.574219 10.828125 2.550781 10.890625 2.503906 10.933594 C 2.457031 10.976562 2.398438 11 2.335938 11 L 0.242188 11 C 0.175781 11 0.117188 10.976562 0.0703125 10.933594 C 0.0273438 10.890625 0 10.828125 0 10.769531 Z M 6.46875 3.605469 C 6.46875 2.382812 5.6875 1.710938 4.265625 1.710938 L 2.574219 1.710938 L 2.574219 5.433594 L 4.265625 5.433594 C 5.269531 5.425781 6.46875 5.109375 6.46875 3.605469 Z M 6.46875 3.605469 "/>
</g>
</svg>
