<?xml version="1.0" encoding="UTF-8" standalone="no"?>
<!-- Created with Inkscape (http://www.inkscape.org/) -->

<svg
   xmlns:dc="http://purl.org/dc/elements/1.1/"
   xmlns:cc="http://creativecommons.org/ns#"
   xmlns:rdf="http://www.w3.org/1999/02/22-rdf-syntax-ns#"
   xmlns:svg="http://www.w3.org/2000/svg"
   xmlns="http://www.w3.org/2000/svg"
   xmlns:xlink="http://www.w3.org/1999/xlink"
   xmlns:sodipodi="http://sodipodi.sourceforge.net/DTD/sodipodi-0.dtd"
   xmlns:inkscape="http://www.inkscape.org/namespaces/inkscape"
   width="30px"
   height="30px"
   version="1.1"
   id="svg8"
   inkscape:version="0.92.4 5da689c313, 2019-01-14"
   sodipodi:docname="container.svg">
  <defs
     id="defs2" />
  <sodipodi:namedview
     id="base"
     pagecolor="#ffffff"
     bordercolor="#666666"
     borderopacity="1.0"
     inkscape:pageopacity="0.0"
     inkscape:pageshadow="2"
     inkscape:zoom="13.049334"
     inkscape:cx="18.679046"
     inkscape:cy="12.165829"
     inkscape:document-units="px"
     inkscape:current-layer="layer1"
     showgrid="false"
     inkscape:snap-page="false"
     units="px"
     inkscape:window-width="1884"
     inkscape:window-height="1061"
     inkscape:window-x="0"
     inkscape:window-y="0"
     inkscape:window-maximized="1"
     fit-margin-top="0"
     fit-margin-left="0"
     fit-margin-right="0"
     fit-margin-bottom="0" />
  <metadata
     id="metadata5">
    <rdf:RDF>
      <cc:Work
         rdf:about="">
        <dc:format>image/svg+xml</dc:format>
        <dc:type
           rdf:resource="http://purl.org/dc/dcmitype/StillImage" />
        <dc:title></dc:title>
      </cc:Work>
    </rdf:RDF>
  </metadata>
    <circle
       style="color:#000000;clip-rule:nonzero;display:inline;overflow:visible;visibility:visible;opacity:1;isolation:auto;mix-blend-mode:normal;color-interpolation:sRGB;color-interpolation-filters:linearRGB;solid-color:#000000;solid-opacity:1;vector-effect:none;fill:#ffffff;fill-opacity:1;fill-rule:evenodd;stroke:#008ecf;stroke-width:1;stroke-linecap:butt;stroke-linejoin:miter;stroke-miterlimit:4;stroke-dasharray:none;stroke-dashoffset:0;stroke-opacity:1;marker:none;color-rendering:auto;image-rendering:auto;shape-rendering:auto;text-rendering:auto;enable-background:accumulate"
       id="path815"
       cx="15"
       cy="15"
       r="14.5" />
<g transform="translate(6,6)"><g id="surface1">
<path style=" stroke:none;fill-rule:nonzero;fill:rgb(30%,30%,30%);fill-opacity:1;" d="M 13.648438 10.492188 C 12.996094 10.488281 12.359375 10.675781 11.8125 11.023438 L 10.441406 9.414062 L 11.136719 7.820312 C 11.136719 7.820312 11.410156 7.820312 11.410156 7.816406 L 13.820312 7.816406 C 14.28125 7.816406 14.65625 7.453125 14.65625 7.003906 L 14.65625 0.8125 C 14.65625 0.363281 14.28125 0 13.820312 0 L 8.121094 0 C 7.65625 0 7.28125 0.363281 7.28125 0.8125 L 7.28125 7.003906 C 7.28125 7.453125 7.65625 7.816406 8.121094 7.816406 L 10.363281 7.816406 L 9.914062 8.917969 L 5.429688 8.902344 L 5.414062 8.882812 C 5.402344 8.867188 5.390625 8.855469 5.378906 8.84375 L 5.644531 8.085938 L 6.652344 8.085938 C 6.832031 8.085938 6.980469 7.941406 6.980469 7.765625 C 6.980469 7.585938 6.832031 7.445312 6.652344 7.445312 L 5.167969 7.445312 L 4.5 9.367188 L 4.078125 10.566406 C 3.839844 10.515625 3.59375 10.492188 3.351562 10.492188 C 1.503906 10.492188 0 11.949219 0 13.746094 C 0 15.539062 1.503906 17 3.351562 17 C 5.199219 17 6.699219 15.539062 6.699219 13.746094 C 6.699219 12.417969 5.878906 11.277344 4.707031 10.769531 L 5.121094 9.582031 L 8.359375 13.839844 C 8.421875 13.921875 8.519531 13.96875 8.625 13.96875 C 8.632812 13.96875 8.640625 13.96875 8.648438 13.96875 C 8.65625 13.96875 8.664062 13.96875 8.667969 13.96875 L 10.308594 13.96875 C 10.425781 15.660156 11.878906 17 13.648438 17 C 15.496094 17 17 15.539062 17 13.746094 C 17 11.949219 15.496094 10.492188 13.648438 10.492188 Z M 9.261719 1.695312 C 9.261719 1.640625 9.304688 1.597656 9.359375 1.597656 L 11.273438 1.597656 C 12.785156 1.597656 13.011719 2.542969 13.011719 3.109375 C 13.011719 4.066406 12.394531 4.59375 11.273438 4.59375 L 10.332031 4.59375 L 10.332031 6.125 C 10.332031 6.175781 10.289062 6.222656 10.230469 6.222656 L 9.359375 6.222656 C 9.304688 6.222656 9.261719 6.175781 9.261719 6.125 Z M 6.039062 13.746094 C 6.039062 15.183594 4.832031 16.355469 3.351562 16.355469 C 1.867188 16.355469 0.660156 15.183594 0.660156 13.746094 C 0.660156 12.304688 1.867188 11.132812 3.351562 11.132812 C 3.523438 11.132812 3.695312 11.148438 3.863281 11.179688 L 3.03125 13.558594 C 2.972656 13.726562 3.066406 13.910156 3.238281 13.964844 C 3.410156 14.023438 3.597656 13.933594 3.65625 13.765625 L 4.492188 11.382812 C 5.4375 11.8125 6.039062 12.734375 6.039062 13.746094 Z M 12.917969 13.328125 L 10.996094 13.328125 C 11.085938 12.796875 11.339844 12.308594 11.722656 11.925781 Z M 8.515625 12.960938 L 5.917969 9.546875 L 9.691406 9.558594 Z M 9.085938 13.328125 L 10.195312 10.128906 L 11.300781 11.425781 C 10.765625 11.9375 10.421875 12.605469 10.328125 13.328125 Z M 13.648438 16.355469 C 12.246094 16.355469 11.089844 15.304688 10.972656 13.96875 L 13.605469 13.96875 C 13.734375 13.964844 13.851562 13.890625 13.90625 13.773438 C 13.960938 13.660156 13.941406 13.523438 13.863281 13.425781 L 12.238281 11.523438 C 12.664062 11.269531 13.152344 11.132812 13.648438 11.132812 C 15.132812 11.132812 16.339844 12.304688 16.339844 13.746094 C 16.339844 15.183594 15.132812 16.355469 13.648438 16.355469 Z M 13.648438 16.355469 "/>
<path style=" stroke:none;fill-rule:nonzero;fill:rgb(30%,30%,30%);fill-opacity:1;" d="M 11.957031 3.109375 C 11.957031 2.59375 11.628906 2.3125 11.035156 2.3125 L 10.332031 2.3125 L 10.332031 3.875 L 11.035156 3.875 C 11.457031 3.875 11.957031 3.742188 11.957031 3.109375 Z M 11.957031 3.109375 "/>
</g>
</g>
</svg>
