<?xml version="1.0" encoding="UTF-8" standalone="no"?>
<!-- Created with Inkscape (http://www.inkscape.org/) -->

<svg
   xmlns:dc="http://purl.org/dc/elements/1.1/"
   xmlns:cc="http://creativecommons.org/ns#"
   xmlns:rdf="http://www.w3.org/1999/02/22-rdf-syntax-ns#"
   xmlns:svg="http://www.w3.org/2000/svg"
   xmlns="http://www.w3.org/2000/svg"
   xmlns:xlink="http://www.w3.org/1999/xlink"
   xmlns:sodipodi="http://sodipodi.sourceforge.net/DTD/sodipodi-0.dtd"
   xmlns:inkscape="http://www.inkscape.org/namespaces/inkscape"
   width="30px"
   height="30px"
   version="1.1"
   id="svg8"
   inkscape:version="0.92.4 5da689c313, 2019-01-14"
   sodipodi:docname="container.svg">
  <defs
     id="defs2" />
  <sodipodi:namedview
     id="base"
     pagecolor="#ffffff"
     bordercolor="#666666"
     borderopacity="1.0"
     inkscape:pageopacity="0.0"
     inkscape:pageshadow="2"
     inkscape:zoom="13.049334"
     inkscape:cx="18.679046"
     inkscape:cy="12.165829"
     inkscape:document-units="px"
     inkscape:current-layer="layer1"
     showgrid="false"
     inkscape:snap-page="false"
     units="px"
     inkscape:window-width="1884"
     inkscape:window-height="1061"
     inkscape:window-x="0"
     inkscape:window-y="0"
     inkscape:window-maximized="1"
     fit-margin-top="0"
     fit-margin-left="0"
     fit-margin-right="0"
     fit-margin-bottom="0" />
  <metadata
     id="metadata5">
    <rdf:RDF>
      <cc:Work
         rdf:about="">
        <dc:format>image/svg+xml</dc:format>
        <dc:type
           rdf:resource="http://purl.org/dc/dcmitype/StillImage" />
        <dc:title></dc:title>
      </cc:Work>
    </rdf:RDF>
  </metadata>
    <circle
       style="color:#000000;clip-rule:nonzero;display:inline;overflow:visible;visibility:visible;opacity:1;isolation:auto;mix-blend-mode:normal;color-interpolation:sRGB;color-interpolation-filters:linearRGB;solid-color:#000000;solid-opacity:1;vector-effect:none;fill:#008ecf;fill-opacity:1;fill-rule:evenodd;stroke:#ffffff;stroke-width:1;stroke-linecap:butt;stroke-linejoin:miter;stroke-miterlimit:4;stroke-dasharray:none;stroke-dashoffset:0;stroke-opacity:1;marker:none;color-rendering:auto;image-rendering:auto;shape-rendering:auto;text-rendering:auto;enable-background:accumulate"
       id="path815"
       cx="15"
       cy="15"
       r="14.5" />
<g transform="translate(8,7)"><g id="surface1">
<path style=" stroke:none;fill-rule:nonzero;fill:#FFFFFF;fill-opacity:1;" d="M 0.00390625 9.230469 L 0.00390625 7.382812 C 0.00390625 6.152344 1.109375 1.210938 1.109375 1.210938 C 1.210938 0.542969 1.886719 0 2.601562 0 L 10.398438 0 C 11.113281 0 11.789062 0.542969 11.890625 1.210938 C 11.890625 1.210938 12.996094 6.152344 12.996094 7.382812 L 12.996094 9.230469 C 12.996094 10.460938 12.347656 12.308594 10.398438 12.308594 L 2.601562 12.308594 C 0.652344 12.308594 0.00390625 11.078125 0.00390625 9.230469 Z M 3.015625 12.921875 L 3.898438 12.921875 C 3.988281 12.921875 4.074219 12.96875 4.121094 13.042969 C 4.167969 13.117188 4.167969 13.207031 4.125 13.285156 L 2.675781 15.871094 C 2.628906 15.949219 2.542969 16 2.445312 16 L 0.582031 16 C 0.480469 16 0.386719 15.941406 0.347656 15.855469 C 0.304688 15.765625 0.320312 15.660156 0.390625 15.589844 L 2.824219 13.003906 C 2.871094 12.953125 2.941406 12.921875 3.015625 12.921875 Z M 11.53125 6.855469 C 11.632812 6.804688 11.683594 6.699219 11.664062 6.597656 L 10.722656 1.402344 C 10.710938 1.335938 10.585938 1.230469 10.507812 1.230469 L 2.523438 1.230469 C 2.445312 1.230469 2.316406 1.335938 2.308594 1.402344 L 1.335938 6.59375 C 1.316406 6.699219 1.371094 6.804688 1.46875 6.855469 C 2.082031 7.164062 4.289062 8.191406 6.5 8.191406 C 8.710938 8.191406 10.921875 7.164062 11.53125 6.855469 Z M 3.757812 9.164062 L 1.679688 8.179688 C 1.597656 8.140625 1.503906 8.144531 1.425781 8.1875 C 1.347656 8.234375 1.300781 8.3125 1.300781 8.398438 L 1.300781 9.652344 C 1.300781 9.765625 1.382812 9.867188 1.5 9.894531 L 3.578125 10.386719 C 3.65625 10.402344 3.738281 10.386719 3.800781 10.339844 C 3.863281 10.292969 3.902344 10.222656 3.902344 10.144531 L 3.902344 9.382812 C 3.902344 9.289062 3.847656 9.203125 3.757812 9.164062 Z M 9.0625 12.921875 L 9.9375 12.921875 C 10.011719 12.921875 10.082031 12.953125 10.128906 13.003906 L 12.601562 15.589844 C 12.671875 15.660156 12.691406 15.765625 12.648438 15.851562 C 12.605469 15.941406 12.511719 16 12.410156 16 L 10.550781 16 C 10.457031 16 10.371094 15.949219 10.324219 15.871094 L 8.835938 13.289062 C 8.789062 13.210938 8.792969 13.117188 8.839844 13.042969 C 8.886719 12.96875 8.972656 12.921875 9.0625 12.921875 Z M 11.699219 9.652344 L 11.699219 8.398438 C 11.699219 8.3125 11.652344 8.234375 11.574219 8.1875 C 11.496094 8.144531 11.402344 8.140625 11.320312 8.179688 L 9.242188 9.164062 C 9.152344 9.203125 9.097656 9.289062 9.097656 9.382812 L 9.097656 10.144531 C 9.097656 10.222656 9.136719 10.292969 9.199219 10.339844 C 9.261719 10.386719 9.34375 10.402344 9.421875 10.386719 L 11.5 9.894531 C 11.617188 9.867188 11.699219 9.765625 11.699219 9.652344 Z M 11.699219 9.652344 "/>
</g>
</g>
</svg>
