<?xml version="1.0" encoding="UTF-8"?>
<svg xmlns="http://www.w3.org/2000/svg" xmlns:xlink="http://www.w3.org/1999/xlink" width="7px" height="11px" viewBox="0 0 7 11" version="1.1">
<g id="surface1">
<path style=" stroke:none;fill-rule:nonzero;fill:rgb(30%,30%,30%);fill-opacity:1;" d="M 5.9375 1.71875 L 1.039062 1.714844 L 1.027344 9.25 L 5.929688 9.257812 Z M 3.429688 6.804688 L 1.855469 5.292969 L 3.429688 3.792969 L 5.003906 5.304688 Z M 3.429688 6.804688 "/>
<path style=" stroke:none;fill-rule:nonzero;fill:rgb(30%,30%,30%);fill-opacity:1;" d="M 7 10.234375 L 7 0.152344 C 7 0.148438 7 0.144531 6.996094 0.136719 C 6.996094 0.0585938 6.949219 0.0078125 6.890625 0.0078125 L 6.882812 0.0078125 C 6.824219 0.0078125 6.78125 0.0585938 6.78125 0.136719 L 6.792969 0.664062 L 6.367188 0.664062 L 6.359375 0.15625 C 6.355469 0.0820312 6.308594 0.015625 6.253906 0.0195312 C 6.195312 0.0195312 6.152344 0.0859375 6.152344 0.160156 L 6.15625 0.664062 L 5.808594 0.664062 L 5.800781 0.160156 C 5.796875 0.0859375 5.75 0.015625 5.695312 0.0195312 L 5.691406 0.0195312 C 5.636719 0.0195312 5.59375 0.0898438 5.59375 0.164062 L 5.597656 0.664062 L 5.25 0.664062 L 5.238281 0.164062 C 5.238281 0.0898438 5.191406 0.015625 5.136719 0.0195312 L 5.132812 0.0195312 C 5.078125 0.0195312 5.035156 0.09375 5.035156 0.167969 L 5.039062 0.664062 L 4.691406 0.664062 L 4.679688 0.167969 C 4.679688 0.0898438 4.632812 0.015625 4.578125 0.0195312 L 4.574219 0.0195312 C 4.519531 0.0195312 4.476562 0.0976562 4.476562 0.171875 L 4.480469 0.664062 L 4.128906 0.664062 L 4.121094 0.171875 C 4.121094 0.09375 4.074219 0.015625 4.015625 0.0195312 C 3.960938 0.0195312 3.914062 0.101562 3.914062 0.175781 L 3.917969 0.664062 L 3.570312 0.664062 L 3.5625 0.175781 C 3.558594 0.0976562 3.511719 0.015625 3.457031 0.0195312 L 3.453125 0.0195312 C 3.398438 0.0195312 3.355469 0.105469 3.355469 0.179688 L 3.359375 0.664062 L 3.011719 0.664062 L 3.003906 0.179688 C 3 0.101562 2.953125 0.015625 2.898438 0.0195312 L 2.894531 0.0195312 C 2.839844 0.0195312 2.796875 0.105469 2.796875 0.183594 L 2.800781 0.664062 L 2.453125 0.664062 L 2.441406 0.183594 C 2.441406 0.105469 2.394531 0.015625 2.339844 0.0195312 L 2.335938 0.0195312 C 2.28125 0.0195312 2.238281 0.109375 2.238281 0.1875 L 2.242188 0.664062 L 1.894531 0.664062 L 1.882812 0.1875 C 1.882812 0.109375 1.835938 0.015625 1.78125 0.0195312 L 1.777344 0.0195312 C 1.722656 0.0195312 1.675781 0.113281 1.679688 0.191406 L 1.679688 0.664062 L 1.332031 0.664062 L 1.324219 0.191406 C 1.324219 0.113281 1.277344 0.015625 1.21875 0.0195312 C 1.160156 0.0195312 1.117188 0.117188 1.117188 0.195312 L 1.121094 0.664062 L 0.773438 0.664062 L 0.765625 0.195312 C 0.761719 0.117188 0.714844 0.015625 0.660156 0.0195312 L 0.65625 0.0195312 C 0.601562 0.0195312 0.558594 0.121094 0.558594 0.199219 L 0.5625 0.664062 L 0.214844 0.664062 L 0.203125 0.195312 C 0.203125 0.121094 0.15625 0.015625 0.101562 0.0195312 L 0.0976562 0.0195312 C 0.0429688 0.0195312 0 0.125 0 0.199219 L 0 10.859375 C 0 10.867188 0 10.871094 0.00390625 10.878906 C 0.0117188 10.949219 0.0546875 10.992188 0.109375 10.992188 L 0.117188 10.992188 C 0.175781 10.992188 0.21875 10.941406 0.214844 10.863281 L 0.207031 10.289062 L 0.628906 10.285156 L 0.632812 10.859375 C 0.632812 10.9375 0.679688 10.988281 0.738281 10.984375 L 0.746094 10.984375 C 0.804688 10.984375 0.847656 10.933594 0.847656 10.859375 L 0.835938 10.285156 L 1.1875 10.285156 L 1.191406 10.859375 C 1.195312 10.9375 1.242188 10.988281 1.296875 10.984375 L 1.308594 10.984375 C 1.363281 10.984375 1.40625 10.933594 1.40625 10.859375 L 1.394531 10.285156 L 1.75 10.285156 L 1.753906 10.859375 C 1.753906 10.9375 1.800781 10.988281 1.855469 10.984375 L 1.867188 10.984375 C 1.921875 10.984375 1.964844 10.933594 1.964844 10.859375 L 1.953125 10.285156 L 2.308594 10.285156 L 2.3125 10.859375 C 2.3125 10.9375 2.359375 10.988281 2.414062 10.984375 L 2.425781 10.984375 C 2.480469 10.984375 2.527344 10.933594 2.523438 10.859375 L 2.515625 10.285156 L 2.867188 10.285156 L 2.871094 10.859375 C 2.871094 10.9375 2.917969 10.988281 2.976562 10.984375 L 2.984375 10.984375 C 3.042969 10.984375 3.085938 10.933594 3.082031 10.859375 L 3.074219 10.285156 L 3.425781 10.285156 L 3.429688 10.859375 C 3.429688 10.9375 3.476562 10.988281 3.535156 10.984375 L 3.542969 10.984375 C 3.601562 10.984375 3.644531 10.933594 3.644531 10.859375 L 3.632812 10.285156 L 3.988281 10.285156 L 3.988281 10.859375 C 3.992188 10.9375 4.039062 10.988281 4.09375 10.984375 L 4.105469 10.984375 C 4.160156 10.984375 4.203125 10.933594 4.203125 10.859375 L 4.191406 10.285156 L 4.546875 10.285156 L 4.550781 10.859375 C 4.550781 10.9375 4.597656 10.988281 4.652344 10.984375 L 4.664062 10.984375 C 4.71875 10.984375 4.761719 10.933594 4.761719 10.859375 L 4.75 10.285156 L 5.105469 10.285156 L 5.109375 10.859375 C 5.109375 10.9375 5.15625 10.988281 5.214844 10.984375 L 5.222656 10.984375 C 5.277344 10.984375 5.324219 10.933594 5.320312 10.859375 L 5.3125 10.285156 L 5.664062 10.285156 L 5.667969 10.859375 C 5.667969 10.9375 5.714844 10.988281 5.773438 10.984375 L 5.78125 10.984375 C 5.839844 10.984375 5.882812 10.933594 5.882812 10.859375 L 5.871094 10.285156 L 6.222656 10.285156 L 6.226562 10.859375 C 6.226562 10.9375 6.273438 10.988281 6.332031 10.984375 L 6.34375 10.984375 C 6.398438 10.984375 6.441406 10.933594 6.441406 10.859375 L 6.429688 10.285156 L 6.785156 10.285156 L 6.789062 10.859375 C 6.789062 10.9375 6.835938 10.988281 6.890625 10.984375 L 6.902344 10.984375 C 6.957031 10.984375 7 10.933594 7 10.859375 L 7 10.253906 C 7 10.246094 7 10.242188 7 10.234375 Z M 6.222656 9.539062 L 0.734375 9.53125 L 0.746094 1.433594 L 6.230469 1.441406 Z M 6.222656 9.539062 "/>
</g>
</svg>
