<?xml version="1.0" encoding="UTF-8" standalone="no"?>
<!-- Created with Inkscape (http://www.inkscape.org/) -->

<svg
   xmlns:dc="http://purl.org/dc/elements/1.1/"
   xmlns:cc="http://creativecommons.org/ns#"
   xmlns:rdf="http://www.w3.org/1999/02/22-rdf-syntax-ns#"
   xmlns:svg="http://www.w3.org/2000/svg"
   xmlns="http://www.w3.org/2000/svg"
   xmlns:xlink="http://www.w3.org/1999/xlink"
   xmlns:sodipodi="http://sodipodi.sourceforge.net/DTD/sodipodi-0.dtd"
   xmlns:inkscape="http://www.inkscape.org/namespaces/inkscape"
   width="30px"
   height="30px"
   version="1.1"
   id="svg8"
   inkscape:version="0.92.4 5da689c313, 2019-01-14"
   sodipodi:docname="container.svg">
  <defs
     id="defs2" />
  <sodipodi:namedview
     id="base"
     pagecolor="#ffffff"
     bordercolor="#666666"
     borderopacity="1.0"
     inkscape:pageopacity="0.0"
     inkscape:pageshadow="2"
     inkscape:zoom="13.049334"
     inkscape:cx="18.679046"
     inkscape:cy="12.165829"
     inkscape:document-units="px"
     inkscape:current-layer="layer1"
     showgrid="false"
     inkscape:snap-page="false"
     units="px"
     inkscape:window-width="1884"
     inkscape:window-height="1061"
     inkscape:window-x="0"
     inkscape:window-y="0"
     inkscape:window-maximized="1"
     fit-margin-top="0"
     fit-margin-left="0"
     fit-margin-right="0"
     fit-margin-bottom="0" />
  <metadata
     id="metadata5">
    <rdf:RDF>
      <cc:Work
         rdf:about="">
        <dc:format>image/svg+xml</dc:format>
        <dc:type
           rdf:resource="http://purl.org/dc/dcmitype/StillImage" />
        <dc:title></dc:title>
      </cc:Work>
    </rdf:RDF>
  </metadata>
    <circle
       style="color:#000000;clip-rule:nonzero;display:inline;overflow:visible;visibility:visible;opacity:1;isolation:auto;mix-blend-mode:normal;color-interpolation:sRGB;color-interpolation-filters:linearRGB;solid-color:#000000;solid-opacity:1;vector-effect:none;fill:#F25C05;fill-opacity:1;fill-rule:evenodd;stroke:#ffffff;stroke-width:1;stroke-linecap:butt;stroke-linejoin:miter;stroke-miterlimit:4;stroke-dasharray:none;stroke-dashoffset:0;stroke-opacity:1;marker:none;color-rendering:auto;image-rendering:auto;shape-rendering:auto;text-rendering:auto;enable-background:accumulate"
       id="path815"
       cx="15"
       cy="15"
       r="14.5" />
<g transform="translate(7,7)"><g id="surface1">
<path style=" stroke:none;fill-rule:nonzero;fill:#FFFFFF;fill-opacity:1;" d="M 15.996094 7.867188 C 15.902344 9.382812 15.4375 10.847656 14.644531 12.121094 C 14.625 12.019531 14.597656 11.921875 14.566406 11.828125 C 14.230469 10.804688 12.730469 9.226562 11.359375 7.988281 C 10.976562 7.640625 10.476562 7.554688 10.292969 7.8125 C 9.914062 8.359375 11.316406 9.910156 11.316406 9.910156 C 11.316406 9.910156 9.917969 9.136719 8.703125 8.617188 C 7.5625 8.128906 6.878906 7.769531 6.628906 8.480469 C 6.527344 8.769531 6.960938 9.027344 7.578125 9.367188 C 8.199219 9.703125 9.03125 10.019531 9.347656 10.238281 C 9.480469 10.328125 9.445312 10.605469 9.089844 10.46875 C 8.847656 10.375 8.523438 10.234375 7.472656 9.796875 C 5.898438 9.140625 5.082031 8.828125 4.898438 9.417969 C 4.671875 10.136719 6.324219 10.628906 6.917969 10.859375 C 7.992188 11.273438 8.65625 11.605469 8.757812 11.664062 C 8.980469 11.796875 8.847656 12.171875 8.53125 12.050781 C 8.25 11.941406 7.832031 11.761719 7.65625 11.710938 C 7.207031 11.585938 5.300781 10.328125 5.019531 11.121094 C 4.609375 12.285156 8.613281 12.839844 8.378906 13.503906 C 8.207031 13.996094 6.769531 13 6.066406 12.894531 C 5.875 12.867188 5.777344 12.953125 5.726562 13.09375 C 5.507812 13.71875 8.015625 14.921875 9.546875 15.324219 C 9.878906 15.410156 10.210938 15.480469 10.535156 15.535156 C 9.707031 15.847656 8.835938 16.003906 7.957031 16 C 3.640625 15.976562 0.320312 12.488281 0.00390625 7.855469 C -0.015625 7.554688 0.1875 7.296875 0.441406 7.296875 L 15.546875 7.296875 C 15.808594 7.296875 16.015625 7.558594 15.996094 7.867188 Z M 8.679688 6.164062 L 8.679688 0.601562 C 8.679688 0.269531 8.421875 0 8.105469 0 L 7.945312 0 C 7.625 0 7.371094 0.269531 7.367188 0.601562 L 7.367188 6.164062 C 7.371094 6.496094 7.625 6.765625 7.945312 6.769531 L 8.105469 6.769531 C 8.421875 6.765625 8.679688 6.496094 8.679688 6.164062 Z M 8.679688 6.164062 "/>
</g>
</g>
</svg>
