<?xml version="1.0" encoding="UTF-8"?>
<svg xmlns="http://www.w3.org/2000/svg" xmlns:xlink="http://www.w3.org/1999/xlink" width="7px" height="11px" viewBox="0 0 7 11" version="1.1">
<g id="surface1">
<path style=" stroke:none;fill-rule:nonzero;fill:rgb(30%,30%,30%);fill-opacity:1;" d="M 6.226562 6.402344 C 6.691406 5.902344 7 5.070312 7 4.121094 C 7 2.40625 6.171875 1.339844 5.1875 1.339844 C 5.035156 1.339844 4.882812 1.371094 4.746094 1.433594 C 4.863281 1.378906 4.988281 1.347656 5.117188 1.335938 L 4.140625 1.382812 C 4.03125 1.382812 3.925781 1.398438 3.824219 1.425781 L 3.804688 0.0585938 C 3.804688 0.0234375 3.597656 0 3.339844 0 C 3.082031 0 2.875 0.0234375 2.875 0.0585938 L 2.898438 1.984375 C 2.414062 2.476562 2.0625 3.238281 2.0625 4.105469 C 2.0625 4.949219 2.292969 5.617188 2.664062 6.0625 C 1.144531 6.125 0 6.40625 0 6.742188 L 0.0585938 9.820312 C 0.0585938 10.203125 1.488281 11 3.328125 11 C 5.167969 11 6.546875 10.183594 6.546875 9.796875 L 6.65625 6.742188 C 6.65625 6.621094 6.496094 6.5 6.226562 6.402344 Z M 3.847656 3.335938 C 3.925781 2.957031 4.058594 2.613281 4.242188 2.328125 C 4.515625 1.902344 4.863281 1.667969 5.222656 1.667969 C 5.488281 1.667969 5.875 1.769531 6.207031 2.261719 C 6.515625 2.71875 6.679688 3.359375 6.675781 4.121094 C 6.675781 5.054688 6.351562 5.882812 5.882812 6.296875 C 5.695312 6.441406 5.707031 6.425781 5.613281 6.484375 C 5.492188 6.542969 5.359375 6.578125 5.222656 6.578125 C 5.011719 6.578125 4.804688 6.496094 4.613281 6.34375 C 4.519531 6.265625 4.433594 6.179688 4.359375 6.082031 C 4.320312 6.03125 4.28125 5.976562 4.242188 5.917969 C 4.074219 5.65625 3.949219 5.34375 3.867188 5.003906 C 3.800781 4.714844 3.765625 4.417969 3.769531 4.121094 C 3.769531 3.859375 3.792969 3.59375 3.847656 3.335938 Z M 5.480469 7.03125 C 4.886719 7.140625 4.125 7.199219 3.328125 7.199219 C 2.53125 7.199219 1.769531 7.140625 1.175781 7.03125 C 0.613281 6.925781 0.363281 6.808594 0.277344 6.742188 C 0.363281 6.679688 0.613281 6.558594 1.175781 6.457031 C 1.660156 6.367188 2.257812 6.3125 2.890625 6.292969 C 2.914062 6.3125 2.933594 6.328125 2.953125 6.34375 L 2.957031 6.664062 C 2.957031 6.695312 3.167969 6.71875 3.421875 6.71875 C 3.636719 6.71875 3.816406 6.703125 3.871094 6.679688 L 4.878906 6.832031 C 4.898438 6.835938 4.921875 6.84375 4.941406 6.847656 C 4.949219 6.851562 4.957031 6.851562 4.964844 6.855469 C 4.984375 6.859375 5.003906 6.863281 5.023438 6.867188 C 5.035156 6.867188 5.042969 6.871094 5.054688 6.871094 C 5.074219 6.875 5.09375 6.875 5.113281 6.878906 C 5.121094 6.878906 5.128906 6.878906 5.136719 6.878906 C 5.164062 6.882812 5.195312 6.882812 5.222656 6.882812 C 5.511719 6.882812 5.78125 6.777344 6.023438 6.585938 C 6.199219 6.644531 6.332031 6.710938 6.378906 6.742188 C 6.296875 6.808594 6.042969 6.925781 5.480469 7.03125 Z M 5.480469 7.03125 "/>
<path style=" stroke:none;fill-rule:nonzero;fill:rgb(30%,30%,30%);fill-opacity:1;" d="M 5.953125 4.171875 C 5.953125 4.4375 5.792969 4.648438 5.59375 4.648438 C 5.394531 4.648438 5.234375 4.4375 5.234375 4.171875 C 5.234375 3.910156 5.394531 3.695312 5.59375 3.695312 C 5.792969 3.695312 5.953125 3.910156 5.953125 4.171875 Z M 5.953125 4.171875 "/>
</g>
</svg>
