<?xml version="1.0" encoding="UTF-8" standalone="no"?>
<!-- Created with Inkscape (http://www.inkscape.org/) -->

<svg
   xmlns:dc="http://purl.org/dc/elements/1.1/"
   xmlns:cc="http://creativecommons.org/ns#"
   xmlns:rdf="http://www.w3.org/1999/02/22-rdf-syntax-ns#"
   xmlns:svg="http://www.w3.org/2000/svg"
   xmlns="http://www.w3.org/2000/svg"
   xmlns:xlink="http://www.w3.org/1999/xlink"
   xmlns:sodipodi="http://sodipodi.sourceforge.net/DTD/sodipodi-0.dtd"
   xmlns:inkscape="http://www.inkscape.org/namespaces/inkscape"
   width="30px"
   height="30px"
   version="1.1"
   id="svg8"
   inkscape:version="0.92.4 5da689c313, 2019-01-14"
   sodipodi:docname="container.svg">
  <defs
     id="defs2" />
  <sodipodi:namedview
     id="base"
     pagecolor="#ffffff"
     bordercolor="#666666"
     borderopacity="1.0"
     inkscape:pageopacity="0.0"
     inkscape:pageshadow="2"
     inkscape:zoom="13.049334"
     inkscape:cx="18.679046"
     inkscape:cy="12.165829"
     inkscape:document-units="px"
     inkscape:current-layer="layer1"
     showgrid="false"
     inkscape:snap-page="false"
     units="px"
     inkscape:window-width="1884"
     inkscape:window-height="1061"
     inkscape:window-x="0"
     inkscape:window-y="0"
     inkscape:window-maximized="1"
     fit-margin-top="0"
     fit-margin-left="0"
     fit-margin-right="0"
     fit-margin-bottom="0" />
  <metadata
     id="metadata5">
    <rdf:RDF>
      <cc:Work
         rdf:about="">
        <dc:format>image/svg+xml</dc:format>
        <dc:type
           rdf:resource="http://purl.org/dc/dcmitype/StillImage" />
        <dc:title></dc:title>
      </cc:Work>
    </rdf:RDF>
  </metadata>
    <circle
       style="color:#000000;clip-rule:nonzero;display:inline;overflow:visible;visibility:visible;opacity:1;isolation:auto;mix-blend-mode:normal;color-interpolation:sRGB;color-interpolation-filters:linearRGB;solid-color:#000000;solid-opacity:1;vector-effect:none;fill:#F25C05;fill-opacity:1;fill-rule:evenodd;stroke:#ffffff;stroke-width:1;stroke-linecap:butt;stroke-linejoin:miter;stroke-miterlimit:4;stroke-dasharray:none;stroke-dashoffset:0;stroke-opacity:1;marker:none;color-rendering:auto;image-rendering:auto;shape-rendering:auto;text-rendering:auto;enable-background:accumulate"
       id="path815"
       cx="15"
       cy="15"
       r="14.5" />
<g transform="translate(9,6)"><g id="surface1">
<path style=" stroke:none;fill-rule:nonzero;fill:#FFFFFF;fill-opacity:1;" d="M 7.039062 9.472656 L 7.039062 9.363281 C 7.039062 8.867188 6.621094 8.46875 6.105469 8.464844 L 3.792969 8.464844 C 3.277344 8.46875 2.863281 8.867188 2.859375 9.363281 L 2.859375 9.472656 C 2.859375 9.683594 2.929688 9.835938 3.019531 10.179688 L 6.824219 10.179688 C 6.96875 9.835938 7.039062 9.683594 7.039062 9.472656 Z M 9.679688 12.484375 C 9.691406 13.117188 8.636719 16.996094 8.636719 16.996094 L 1.539062 16.996094 C 1.574219 17.003906 0 13.75 0 12.484375 C 0 11.003906 2.945312 10.378906 2.859375 10.367188 L 6.820312 10.367188 C 8.300781 10.5 9.664062 11.671875 9.679688 12.484375 Z M 0.824219 12.457031 C 0.824219 12.457031 0.878906 12.058594 1.539062 11.636719 C 1.941406 11.382812 2.363281 11.160156 2.804688 10.976562 C 0.441406 11.636719 0.441406 12.484375 0.441406 12.484375 Z M 4.949219 11.847656 C 4.28125 11.847656 3.738281 12.367188 3.738281 13.011719 C 3.738281 13.652344 4.28125 14.175781 4.949219 14.175781 C 5.617188 14.175781 6.160156 13.652344 6.160156 13.011719 C 6.160156 12.367188 5.617188 11.847656 4.949219 11.847656 Z M 6.105469 8.253906 C 6.152344 8.257812 6.195312 8.261719 6.238281 8.265625 L 5.835938 2.015625 L 3.960938 2.015625 C 3.960938 3.601562 3.75 6.980469 3.664062 8.265625 C 3.707031 8.261719 3.75 8.257812 3.792969 8.253906 Z M 6.160156 0.0117188 C 5.691406 0.0742188 4.078125 0.015625 3.964844 1.804688 L 5.8125 1.804688 C 5.785156 1.6875 5.804688 1.171875 6.488281 1.171875 C 6.585938 1.171875 6.714844 1.179688 6.867188 1.195312 L 6.996094 0.0625 C 6.621094 0.0117188 6.320312 -0.0117188 6.160156 0.0117188 Z M 7.214844 0.09375 L 7.085938 1.214844 C 8.398438 1.359375 10.890625 1.808594 10.890625 1.808594 L 11 0.855469 C 11 0.855469 8.683594 0.3125 7.214844 0.09375 Z M 7.214844 0.09375 "/>
<path style=" stroke:none;fill-rule:nonzero;fill:#FFFFFF;fill-opacity:1;" d="M 5.582031 13.035156 C 5.582031 13.355469 5.3125 13.617188 4.976562 13.617188 C 4.644531 13.617188 4.371094 13.355469 4.371094 13.035156 C 4.371094 12.714844 4.644531 12.453125 4.976562 12.453125 C 5.3125 12.453125 5.582031 12.714844 5.582031 13.035156 Z M 5.582031 13.035156 "/>
</g>
</g>
</svg>
