<?xml version="1.0" encoding="UTF-8" standalone="no"?>
<!-- Created with Inkscape (http://www.inkscape.org/) -->

<svg
   xmlns:dc="http://purl.org/dc/elements/1.1/"
   xmlns:cc="http://creativecommons.org/ns#"
   xmlns:rdf="http://www.w3.org/1999/02/22-rdf-syntax-ns#"
   xmlns:svg="http://www.w3.org/2000/svg"
   xmlns="http://www.w3.org/2000/svg"
   xmlns:xlink="http://www.w3.org/1999/xlink"
   xmlns:sodipodi="http://sodipodi.sourceforge.net/DTD/sodipodi-0.dtd"
   xmlns:inkscape="http://www.inkscape.org/namespaces/inkscape"
   width="30px"
   height="30px"
   version="1.1"
   id="svg8"
   inkscape:version="0.92.4 5da689c313, 2019-01-14"
   sodipodi:docname="container.svg">
  <defs
     id="defs2" />
  <sodipodi:namedview
     id="base"
     pagecolor="#ffffff"
     bordercolor="#666666"
     borderopacity="1.0"
     inkscape:pageopacity="0.0"
     inkscape:pageshadow="2"
     inkscape:zoom="13.049334"
     inkscape:cx="18.679046"
     inkscape:cy="12.165829"
     inkscape:document-units="px"
     inkscape:current-layer="layer1"
     showgrid="false"
     inkscape:snap-page="false"
     units="px"
     inkscape:window-width="1884"
     inkscape:window-height="1061"
     inkscape:window-x="0"
     inkscape:window-y="0"
     inkscape:window-maximized="1"
     fit-margin-top="0"
     fit-margin-left="0"
     fit-margin-right="0"
     fit-margin-bottom="0" />
  <metadata
     id="metadata5">
    <rdf:RDF>
      <cc:Work
         rdf:about="">
        <dc:format>image/svg+xml</dc:format>
        <dc:type
           rdf:resource="http://purl.org/dc/dcmitype/StillImage" />
        <dc:title></dc:title>
      </cc:Work>
    </rdf:RDF>
  </metadata>
    <circle
       style="color:#000000;clip-rule:nonzero;display:inline;overflow:visible;visibility:visible;opacity:1;isolation:auto;mix-blend-mode:normal;color-interpolation:sRGB;color-interpolation-filters:linearRGB;solid-color:#000000;solid-opacity:1;vector-effect:none;fill:#F25C05;fill-opacity:1;fill-rule:evenodd;stroke:#ffffff;stroke-width:1;stroke-linecap:butt;stroke-linejoin:miter;stroke-miterlimit:4;stroke-dasharray:none;stroke-dashoffset:0;stroke-opacity:1;marker:none;color-rendering:auto;image-rendering:auto;shape-rendering:auto;text-rendering:auto;enable-background:accumulate"
       id="path815"
       cx="15"
       cy="15"
       r="14.5" />
<g transform="translate(7,6)"><g id="surface1">
<path style=" stroke:none;fill-rule:nonzero;fill:#FFFFFF;fill-opacity:1;" d="M 14.941406 8.019531 C 14.898438 7.863281 14.785156 7.757812 14.652344 7.726562 C 14.59375 3.386719 11.46875 0.00390625 7.488281 0.00390625 C 3.539062 0.00390625 0.429688 3.335938 0.328125 7.628906 C 0.199219 7.648438 0.0859375 7.738281 0.03125 7.878906 C -0.0507812 8.089844 0.0351562 8.339844 0.230469 8.433594 C 1.332031 8.96875 4.339844 9.214844 7.382812 9.214844 C 10.371094 9.214844 13.394531 8.976562 14.683594 8.546875 C 14.886719 8.480469 15.003906 8.242188 14.941406 8.019531 Z M 1.089844 7.851562 C 1.089844 7.851562 1.089844 7.847656 1.089844 7.847656 C 1.089844 3.925781 3.902344 0.851562 7.488281 0.851562 C 11.074219 0.851562 13.886719 3.925781 13.886719 7.847656 C 13.886719 7.859375 13.890625 7.871094 13.890625 7.886719 C 11.078125 8.480469 3.683594 8.546875 1.089844 7.851562 Z M 14.886719 11.710938 C 14.886719 11.714844 14.886719 11.71875 14.886719 11.722656 C 14.886719 11.71875 14.886719 11.714844 14.886719 11.710938 Z M 0.238281 12.40625 C 0.554688 13.761719 1.222656 14.96875 2.050781 15.960938 C 2.304688 16.265625 2.585938 16.554688 2.882812 16.820312 C 4.207031 16.9375 5.78125 16.996094 7.367188 16.996094 C 9.058594 16.996094 10.757812 16.929688 12.175781 16.808594 C 12.472656 16.542969 12.753906 16.253906 13.007812 15.945312 C 13.855469 14.925781 14.5 13.816406 14.804688 12.417969 L 14.628906 12.382812 C 14.554688 12.382812 14.582031 12.402344 14.503906 12.402344 C 13.863281 12.402344 13.347656 12.386719 13.347656 12.054688 C 13.34375 11.707031 13.863281 11.707031 14.503906 11.707031 C 14.636719 11.707031 14.765625 11.707031 14.886719 11.710938 C 15.023438 10.84375 15.035156 9.957031 14.925781 9.085938 C 13.527344 9.457031 10.480469 9.660156 7.472656 9.660156 C 4.386719 9.660156 1.335938 9.445312 0.132812 8.980469 C 0.0742188 9.410156 0.046875 9.839844 0.046875 10.273438 C 0.046875 10.753906 0.0859375 11.234375 0.160156 11.710938 L 0.246094 11.714844 C 0.433594 11.710938 0.617188 11.707031 0.789062 11.707031 C 1.425781 11.707031 1.949219 11.722656 1.945312 12.054688 C 1.941406 12.386719 1.425781 12.402344 0.789062 12.402344 C 0.667969 12.402344 0.472656 12.398438 0.316406 12.394531 Z M 12.789062 10.042969 C 13.429688 10.042969 13.949219 10.058594 13.945312 10.390625 C 13.945312 10.722656 13.429688 10.738281 12.789062 10.738281 C 12.148438 10.738281 11.632812 10.722656 11.632812 10.390625 C 11.628906 10.042969 12.148438 10.042969 12.789062 10.042969 Z M 9.359375 10.042969 C 10 10.042969 10.519531 10.058594 10.515625 10.390625 C 10.515625 10.722656 10 10.738281 9.359375 10.738281 C 8.71875 10.738281 8.207031 10.722656 8.203125 10.390625 C 8.199219 10.042969 8.71875 10.042969 9.359375 10.042969 Z M 7.644531 11.707031 C 8.285156 11.707031 8.804688 11.722656 8.804688 12.054688 C 8.800781 12.386719 8.285156 12.402344 7.644531 12.402344 C 7.007812 12.402344 6.492188 12.386719 6.488281 12.054688 C 6.484375 11.707031 7.007812 11.707031 7.644531 11.707031 Z M 11.042969 11.707031 C 11.679688 11.707031 12.203125 11.722656 12.199219 12.054688 C 12.195312 12.386719 11.679688 12.402344 11.042969 12.402344 C 10.402344 12.402344 9.886719 12.386719 9.882812 12.054688 C 9.878906 11.707031 10.402344 11.707031 11.042969 11.707031 Z M 5.929688 10.042969 C 6.570312 10.042969 7.089844 10.058594 7.089844 10.390625 C 7.085938 10.722656 6.570312 10.738281 5.929688 10.738281 C 5.292969 10.738281 4.777344 10.722656 4.773438 10.390625 C 4.769531 10.042969 5.292969 10.042969 5.929688 10.042969 Z M 5.375 12.054688 C 5.371094 12.386719 4.855469 12.402344 4.214844 12.402344 C 3.578125 12.402344 3.0625 12.386719 3.058594 12.054688 C 3.054688 11.707031 3.578125 11.707031 4.214844 11.707031 C 4.855469 11.707031 5.378906 11.722656 5.375 12.054688 Z M 2.5 10.042969 C 3.140625 10.042969 3.664062 10.058594 3.660156 10.390625 C 3.65625 10.722656 3.140625 10.738281 2.5 10.738281 C 1.863281 10.738281 1.347656 10.722656 1.34375 10.390625 C 1.339844 10.042969 1.863281 10.042969 2.5 10.042969 Z M 2.5 14.203125 C 1.863281 14.203125 1.347656 14.1875 1.34375 13.855469 C 1.339844 13.507812 1.863281 13.507812 2.5 13.507812 C 3.140625 13.507812 3.664062 13.523438 3.660156 13.855469 C 3.65625 14.1875 3.140625 14.203125 2.5 14.203125 Z M 4.214844 15.867188 C 3.578125 15.867188 3.0625 15.851562 3.058594 15.519531 C 3.054688 15.171875 3.578125 15.171875 4.214844 15.171875 C 4.855469 15.171875 5.378906 15.1875 5.375 15.519531 C 5.371094 15.851562 4.855469 15.867188 4.214844 15.867188 Z M 4.773438 13.855469 C 4.769531 13.507812 5.292969 13.507812 5.929688 13.507812 C 6.570312 13.507812 7.089844 13.523438 7.089844 13.855469 C 7.085938 14.1875 6.570312 14.203125 5.929688 14.203125 C 5.292969 14.203125 4.777344 14.1875 4.773438 13.855469 Z M 7.644531 15.867188 C 7.007812 15.867188 6.492188 15.851562 6.488281 15.519531 C 6.484375 15.171875 7.007812 15.171875 7.644531 15.171875 C 8.285156 15.171875 8.804688 15.1875 8.804688 15.519531 C 8.800781 15.851562 8.285156 15.867188 7.644531 15.867188 Z M 11.183594 15.867188 C 10.542969 15.867188 10.027344 15.851562 10.023438 15.519531 C 10.023438 15.171875 10.542969 15.171875 11.183594 15.171875 C 11.820312 15.171875 12.34375 15.1875 12.339844 15.519531 C 12.335938 15.851562 11.820312 15.867188 11.183594 15.867188 Z M 8.203125 13.855469 C 8.199219 13.507812 8.71875 13.507812 9.359375 13.507812 C 10 13.507812 10.519531 13.523438 10.515625 13.855469 C 10.515625 14.1875 10 14.203125 9.359375 14.203125 C 8.71875 14.203125 8.207031 14.1875 8.203125 13.855469 Z M 12.789062 14.203125 C 12.148438 14.203125 11.632812 14.1875 11.632812 13.855469 C 11.628906 13.507812 12.148438 13.507812 12.789062 13.507812 C 13.429688 13.507812 13.949219 13.523438 13.945312 13.855469 C 13.945312 14.1875 13.429688 14.203125 12.789062 14.203125 Z M 12.789062 14.203125 "/>
</g>
</g>
</svg>
