<?xml version="1.0" encoding="UTF-8" standalone="no"?>
<!-- Created with Inkscape (http://www.inkscape.org/) -->

<svg
   xmlns:dc="http://purl.org/dc/elements/1.1/"
   xmlns:cc="http://creativecommons.org/ns#"
   xmlns:rdf="http://www.w3.org/1999/02/22-rdf-syntax-ns#"
   xmlns:svg="http://www.w3.org/2000/svg"
   xmlns="http://www.w3.org/2000/svg"
   xmlns:xlink="http://www.w3.org/1999/xlink"
   xmlns:sodipodi="http://sodipodi.sourceforge.net/DTD/sodipodi-0.dtd"
   xmlns:inkscape="http://www.inkscape.org/namespaces/inkscape"
   width="30px"
   height="30px"
   version="1.1"
   id="svg8"
   inkscape:version="0.92.4 5da689c313, 2019-01-14"
   sodipodi:docname="container.svg">
  <defs
     id="defs2" />
  <sodipodi:namedview
     id="base"
     pagecolor="#ffffff"
     bordercolor="#666666"
     borderopacity="1.0"
     inkscape:pageopacity="0.0"
     inkscape:pageshadow="2"
     inkscape:zoom="13.049334"
     inkscape:cx="18.679046"
     inkscape:cy="12.165829"
     inkscape:document-units="px"
     inkscape:current-layer="layer1"
     showgrid="false"
     inkscape:snap-page="false"
     units="px"
     inkscape:window-width="1884"
     inkscape:window-height="1061"
     inkscape:window-x="0"
     inkscape:window-y="0"
     inkscape:window-maximized="1"
     fit-margin-top="0"
     fit-margin-left="0"
     fit-margin-right="0"
     fit-margin-bottom="0" />
  <metadata
     id="metadata5">
    <rdf:RDF>
      <cc:Work
         rdf:about="">
        <dc:format>image/svg+xml</dc:format>
        <dc:type
           rdf:resource="http://purl.org/dc/dcmitype/StillImage" />
        <dc:title></dc:title>
      </cc:Work>
    </rdf:RDF>
  </metadata>
    <circle
       style="color:#000000;clip-rule:nonzero;display:inline;overflow:visible;visibility:visible;opacity:1;isolation:auto;mix-blend-mode:normal;color-interpolation:sRGB;color-interpolation-filters:linearRGB;solid-color:#000000;solid-opacity:1;vector-effect:none;fill:#ffffff;fill-opacity:1;fill-rule:evenodd;stroke:#F25C05;stroke-width:1;stroke-linecap:butt;stroke-linejoin:miter;stroke-miterlimit:4;stroke-dasharray:none;stroke-dashoffset:0;stroke-opacity:1;marker:none;color-rendering:auto;image-rendering:auto;shape-rendering:auto;text-rendering:auto;enable-background:accumulate"
       id="path815"
       cx="15"
       cy="15"
       r="14.5" />
<g transform="translate(7,9)"><g id="surface1">
<path style=" stroke:none;fill-rule:nonzero;fill:rgb(30%,30%,30%);fill-opacity:1;" d="M 15.832031 6.003906 C 15.261719 5.59375 13.679688 7.179688 13.679688 7.179688 C 13.679688 7.179688 14.453125 5.613281 14.96875 4.253906 C 15.449219 2.980469 15.808594 2.210938 15.070312 1.949219 C 14.769531 1.839844 14.507812 2.328125 14.171875 3.023438 C 13.832031 3.714844 13.523438 4.648438 13.300781 5.003906 C 13.210938 5.148438 12.921875 5.117188 13.058594 4.71875 C 13.152344 4.445312 13.289062 4.082031 13.722656 2.910156 C 14.371094 1.148438 14.679688 0.238281 14.0625 0.0429688 C 13.316406 -0.191406 12.835938 1.648438 12.609375 2.316406 C 12.203125 3.515625 11.871094 4.261719 11.8125 4.375 C 11.679688 4.625 11.289062 4.484375 11.410156 4.128906 C 11.515625 3.816406 11.695312 3.347656 11.742188 3.152344 C 11.863281 2.648438 13.128906 0.507812 12.304688 0.214844 C 11.085938 -0.21875 10.59375 4.238281 9.898438 3.992188 C 9.386719 3.808594 10.390625 2.191406 10.484375 1.410156 C 10.511719 1.195312 10.421875 1.089844 10.273438 1.035156 C 9.621094 0.804688 8.421875 3.613281 8.035156 5.320312 C 8.023438 5.371094 8.011719 5.425781 8 5.480469 C 7.992188 5.433594 7.980469 5.386719 7.972656 5.339844 C 7.597656 3.632812 6.417969 0.8125 5.765625 1.039062 C 5.617188 1.089844 5.527344 1.199219 5.550781 1.410156 C 5.640625 2.195312 6.628906 3.820312 6.117188 3.996094 C 5.421875 4.238281 4.960938 -0.222656 3.742188 0.203125 C 2.914062 0.492188 4.164062 2.640625 4.28125 3.144531 C 4.328125 3.339844 4.503906 3.808594 4.605469 4.125 C 4.726562 4.480469 4.332031 4.617188 4.199219 4.367188 C 4.140625 4.253906 3.820312 3.503906 3.417969 2.300781 C 3.199219 1.632812 2.730469 -0.210938 1.980469 0.0195312 C 1.363281 0.210938 1.667969 1.121094 2.304688 2.890625 C 2.726562 4.066406 2.863281 4.429688 2.953125 4.699219 C 3.085938 5.101562 2.796875 5.128906 2.707031 4.984375 C 2.488281 4.625 2.183594 3.691406 1.851562 2.996094 C 1.519531 2.300781 1.265625 1.808594 0.960938 1.914062 C 0.21875 2.171875 0.574219 2.945312 1.046875 4.21875 C 1.550781 5.585938 2.3125 7.160156 2.3125 7.160156 C 2.3125 7.160156 0.746094 5.558594 0.167969 5.964844 C -0.105469 6.160156 -0.0273438 6.71875 0.320312 7.15625 C 1.566406 8.710938 3.15625 10.417969 4.207031 10.820312 C 5.332031 11.253906 7.277344 10.9375 7.992188 9.503906 C 8.707031 10.925781 10.636719 11.25 11.757812 10.828125 C 12.8125 10.433594 14.417969 8.738281 15.671875 7.191406 C 16.023438 6.757812 16.105469 6.203125 15.832031 6.003906 Z M 15.832031 6.003906 "/>
</g>
</g>
</svg>
