<?xml version="1.0" encoding="UTF-8"?>
<svg xmlns="http://www.w3.org/2000/svg" xmlns:xlink="http://www.w3.org/1999/xlink" width="11px" height="10px" viewBox="0 0 11 10" version="1.1">
<g id="surface1">
<path style=" stroke:none;fill-rule:nonzero;fill:rgb(30%,30%,30%);fill-opacity:1;" d="M 10.734375 7.609375 C 10.574219 7.59375 10.417969 7.582031 10.269531 7.574219 C 9.355469 7.511719 8.972656 7.460938 8.753906 6.84375 C 8.605469 6.421875 8.773438 6.164062 9.03125 5.769531 C 9.382812 5.226562 9.863281 4.480469 9.488281 3.039062 C 9.457031 2.929688 9.402344 2.800781 9.320312 2.664062 C 10.046875 2.035156 10.5 1.632812 10.488281 1.625 C 10.878906 1.25 10.878906 0.648438 10.488281 0.277344 C 10.09375 -0.09375 9.449219 -0.09375 9.007812 0.277344 L 0.0195312 9.742188 C -0.0625 9.878906 0.128906 10.078125 0.289062 9.96875 C 2.191406 8.683594 6.535156 5.054688 8.894531 3.03125 C 8.914062 3.074219 8.933594 3.117188 8.945312 3.160156 C 9.265625 4.394531 8.886719 4.980469 8.554688 5.496094 C 8.28125 5.921875 7.996094 6.359375 8.226562 7.011719 C 8.570312 7.980469 9.339844 8.035156 10.230469 8.097656 C 10.375 8.105469 10.53125 8.117188 10.691406 8.132812 C 10.703125 8.132812 10.710938 8.132812 10.722656 8.132812 C 10.796875 8.132812 10.867188 8.105469 10.921875 8.054688 C 10.972656 8.003906 11.003906 7.933594 11 7.863281 C 10.996094 7.730469 10.875 7.621094 10.734375 7.609375 Z M 7.320312 3.519531 C 7 3.75 6.71875 3.589844 6.984375 3.308594 L 9.238281 0.75 C 9.433594 0.566406 9.753906 0.566406 9.953125 0.75 C 10.148438 0.9375 10.148438 1.238281 9.953125 1.425781 C 9.953125 1.425781 9.585938 1.75 9.011719 2.21875 C 8.929688 2.121094 8.84375 2.023438 8.753906 1.929688 C 8.710938 1.886719 8.296875 2.234375 8.335938 2.277344 C 8.429688 2.375 8.511719 2.46875 8.585938 2.558594 C 8.210938 2.855469 7.777344 3.1875 7.320312 3.519531 Z M 7.320312 3.519531 "/>
<path style=" stroke:none;fill-rule:nonzero;fill:rgb(30%,30%,30%);fill-opacity:1;" d="M 7.324219 1.457031 C 6.453125 0.929688 5.074219 0.496094 3.453125 1.433594 C 3.320312 1.511719 3.152344 1.472656 3.070312 1.347656 C 2.988281 1.226562 3.03125 1.0625 3.160156 0.988281 C 5.03125 -0.0898438 6.648438 0.390625 7.65625 1 C 7.6875 1.019531 7.347656 1.472656 7.324219 1.457031 Z M 7.324219 1.457031 "/>
</g>
</svg>
