<?xml version="1.0" encoding="UTF-8"?>
<svg xmlns="http://www.w3.org/2000/svg" xmlns:xlink="http://www.w3.org/1999/xlink" width="11px" height="11px" viewBox="0 0 11 11" version="1.1">
<g id="surface1">
<path style=" stroke:none;fill-rule:nonzero;fill:rgb(30%,30%,30%);fill-opacity:1;" d="M 5.96875 6.136719 L 5.359375 6.136719 L 5.355469 5.832031 C 5.386719 5.824219 5.414062 5.8125 5.441406 5.804688 C 5.796875 5.664062 6.046875 5.308594 6.109375 4.847656 C 6.144531 4.589844 6.117188 4.324219 6.03125 4.078125 C 5.9375 3.808594 5.777344 3.585938 5.566406 3.4375 C 5.300781 3.242188 4.832031 3.074219 4.117188 3.351562 C 3.988281 3.242188 3.742188 3.089844 3.429688 3.132812 C 3.253906 3.15625 3.082031 3.195312 2.917969 3.253906 C 2.835938 3.203125 2.742188 3.164062 2.648438 3.136719 C 2.339844 3.054688 1.960938 3.089844 1.527344 3.242188 C 1.089844 3.394531 0.878906 3.691406 0.78125 3.917969 C 0.730469 4.039062 0.695312 4.164062 0.683594 4.296875 C 0.507812 4.480469 -0.0429688 5.140625 0.00390625 5.898438 C 0.046875 6.570312 0.414062 6.988281 0.597656 7.15625 L 0.578125 10.078125 C 0.578125 10.488281 0.921875 10.820312 1.34375 10.820312 L 4.636719 10.820312 C 5.058594 10.820312 5.402344 10.488281 5.402344 10.078125 L 5.421875 9.757812 L 5.960938 9.75 C 6.382812 9.75 6.726562 9.414062 6.726562 9.003906 L 6.726562 6.875 C 6.726562 6.46875 6.386719 6.136719 5.96875 6.136719 Z M 4.972656 5.566406 C 4.734375 5.613281 4.4375 5.652344 4.175781 5.679688 C 4.148438 5.683594 4.121094 5.683594 4.09375 5.6875 L 4.089844 5.6875 C 4.0625 5.691406 4.035156 5.691406 4.011719 5.695312 L 4.007812 5.695312 C 3.996094 5.695312 3.984375 5.699219 3.972656 5.699219 L 3.96875 5.699219 C 3.957031 5.699219 3.945312 5.703125 3.933594 5.703125 L 3.929688 5.703125 C 3.917969 5.703125 3.910156 5.703125 3.898438 5.707031 L 3.894531 5.707031 C 3.882812 5.707031 3.875 5.707031 3.863281 5.707031 L 3.859375 5.710938 L 3.824219 5.710938 L 3.796875 5.714844 L 3.792969 5.714844 C 3.785156 5.714844 3.773438 5.714844 3.765625 5.714844 L 3.761719 5.71875 L 3.734375 5.71875 C 3.71875 5.71875 3.699219 5.722656 3.683594 5.722656 C 3.589844 5.730469 3.515625 5.800781 3.507812 5.890625 C 3.507812 5.894531 3.460938 6.351562 3.246094 6.375 C 3.226562 6.351562 3.183594 6.277344 3.148438 6.109375 C 3.128906 6.023438 3.113281 5.933594 3.105469 5.847656 L 3.105469 5.839844 C 3.097656 5.738281 3.007812 5.664062 2.90625 5.671875 C 2.800781 5.679688 2.726562 5.765625 2.730469 5.867188 C 2.730469 5.867188 2.734375 5.875 2.734375 5.882812 C 2.777344 6.417969 2.75 7.253906 2.554688 7.460938 C 2.53125 7.488281 2.515625 7.488281 2.503906 7.488281 C 2.496094 7.488281 2.492188 7.488281 2.476562 7.46875 C 2.4375 7.429688 2.324219 7.238281 2.355469 6.519531 C 2.367188 6.203125 2.40625 5.914062 2.421875 5.792969 C 2.421875 5.789062 2.421875 5.785156 2.421875 5.78125 C 2.394531 5.554688 2.265625 5.527344 1.992188 5.628906 C 1.695312 5.742188 2.019531 7.949219 1.605469 8.011719 C 1.574219 8.019531 1.527344 7.992188 1.480469 7.957031 L 1.480469 7.964844 C 1.46875 7.960938 1.457031 7.957031 1.445312 7.949219 C 1.347656 7.894531 1.230469 7.746094 1.128906 7.539062 C 1.035156 7.359375 0.988281 7.203125 0.980469 7.148438 C 0.996094 7.082031 0.964844 7.007812 0.90625 6.96875 L 0.902344 6.964844 C 0.902344 6.964844 0.898438 6.960938 0.894531 6.960938 L 0.894531 6.957031 C 0.890625 6.957031 0.886719 6.953125 0.886719 6.953125 L 0.882812 6.949219 C 0.765625 6.851562 0.664062 6.730469 0.582031 6.601562 C 0.453125 6.386719 0.375 6.144531 0.359375 5.894531 C 0.316406 5.179688 0.972656 4.527344 0.980469 4.519531 C 1.015625 4.488281 1.035156 4.441406 1.035156 4.390625 C 1.035156 4.386719 1.042969 3.8125 1.636719 3.605469 C 2.0625 3.457031 2.339844 3.464844 2.5 3.5 C 2.644531 3.535156 2.714844 3.59375 2.726562 3.605469 C 2.78125 3.671875 2.871094 3.6875 2.949219 3.648438 C 2.953125 3.648438 3.140625 3.558594 3.464844 3.511719 C 3.714844 3.476562 3.910156 3.699219 3.914062 3.703125 C 3.96875 3.765625 4.058594 3.785156 4.136719 3.75 C 4.625 3.539062 5.035156 3.539062 5.324219 3.746094 C 5.621094 3.960938 5.777344 4.390625 5.71875 4.820312 C 5.675781 5.144531 5.511719 5.394531 5.285156 5.484375 C 5.207031 5.511719 5.097656 5.542969 4.972656 5.566406 Z M 6.324219 9.023438 C 6.324219 9.222656 6.160156 9.382812 5.960938 9.382812 L 5.359375 9.382812 L 5.359375 6.546875 L 5.960938 6.546875 C 6.160156 6.546875 6.324219 6.707031 6.324219 6.902344 Z M 10.921875 4.757812 C 10.605469 4.527344 9.542969 5.261719 9.179688 5.988281 C 8.800781 5.28125 7.855469 4.488281 7.570312 4.667969 C 7.085938 4.992188 8.148438 7.515625 9.15625 6.855469 C 9.167969 6.84375 9.183594 6.832031 9.199219 6.824219 C 9.230469 6.859375 9.265625 6.890625 9.304688 6.921875 C 10.050781 7.472656 11.324219 5.066406 10.921875 4.757812 Z M 10.921875 4.757812 "/>
<path style=" stroke:none;fill-rule:nonzero;fill:rgb(30%,30%,30%);fill-opacity:1;" d="M 9.128906 7.800781 C 8.765625 7.089844 7.789062 6.261719 7.5 6.441406 C 7.039062 6.75 7.964844 9.015625 8.917969 8.710938 L 8.871094 10.808594 C 8.871094 10.910156 8.957031 10.996094 9.0625 11 C 9.167969 11 9.253906 10.917969 9.257812 10.816406 L 9.300781 8.796875 C 10.1875 9.117188 11.339844 6.894531 10.800781 6.574219 C 10.492188 6.347656 9.519531 7.097656 9.128906 7.800781 Z M 9.359375 0 C 9.253906 -0.00390625 9.164062 0.0820312 9.164062 0.183594 L 9.144531 1.15625 C 8.605469 1.386719 8.375 2.542969 8.597656 3.285156 C 8.390625 3.089844 8.175781 2.933594 8 2.847656 L 8.019531 1.929688 C 8.019531 1.824219 7.933594 1.738281 7.828125 1.738281 C 7.722656 1.734375 7.632812 1.816406 7.632812 1.921875 L 7.613281 2.839844 C 7.234375 3.273438 8.234375 5.570312 9.199219 5.011719 C 9.25 5.078125 9.335938 5.121094 9.460938 5.136719 C 10.40625 5.253906 10.949219 3.6875 10.910156 3.160156 L 10.929688 2.09375 C 10.933594 1.992188 10.847656 1.90625 10.742188 1.902344 C 10.632812 1.902344 10.546875 1.984375 10.542969 2.085938 L 10.523438 3.03125 C 10.347656 3.101562 10.152344 3.242188 9.960938 3.421875 C 10.242188 2.726562 10.011719 1.535156 9.527344 1.207031 L 9.550781 0.191406 C 9.550781 0.0898438 9.46875 0.00390625 9.359375 0 Z M 9.128906 3.90625 C 9.179688 3.917969 9.234375 3.925781 9.289062 3.925781 C 9.375 3.925781 9.464844 3.910156 9.546875 3.875 C 9.460938 3.988281 9.382812 4.109375 9.3125 4.230469 C 9.261719 4.117188 9.199219 4.007812 9.128906 3.90625 Z M 9.128906 3.90625 "/>
</g>
</svg>
