<?xml version="1.0" encoding="UTF-8" standalone="no"?>
<!-- Created with Inkscape (http://www.inkscape.org/) -->

<svg
   xmlns:dc="http://purl.org/dc/elements/1.1/"
   xmlns:cc="http://creativecommons.org/ns#"
   xmlns:rdf="http://www.w3.org/1999/02/22-rdf-syntax-ns#"
   xmlns:svg="http://www.w3.org/2000/svg"
   xmlns="http://www.w3.org/2000/svg"
   xmlns:xlink="http://www.w3.org/1999/xlink"
   xmlns:sodipodi="http://sodipodi.sourceforge.net/DTD/sodipodi-0.dtd"
   xmlns:inkscape="http://www.inkscape.org/namespaces/inkscape"
   width="30px"
   height="30px"
   version="1.1"
   id="svg8"
   inkscape:version="0.92.4 5da689c313, 2019-01-14"
   sodipodi:docname="container.svg">
  <defs
     id="defs2" />
  <sodipodi:namedview
     id="base"
     pagecolor="#ffffff"
     bordercolor="#666666"
     borderopacity="1.0"
     inkscape:pageopacity="0.0"
     inkscape:pageshadow="2"
     inkscape:zoom="13.049334"
     inkscape:cx="18.679046"
     inkscape:cy="12.165829"
     inkscape:document-units="px"
     inkscape:current-layer="layer1"
     showgrid="false"
     inkscape:snap-page="false"
     units="px"
     inkscape:window-width="1884"
     inkscape:window-height="1061"
     inkscape:window-x="0"
     inkscape:window-y="0"
     inkscape:window-maximized="1"
     fit-margin-top="0"
     fit-margin-left="0"
     fit-margin-right="0"
     fit-margin-bottom="0" />
  <metadata
     id="metadata5">
    <rdf:RDF>
      <cc:Work
         rdf:about="">
        <dc:format>image/svg+xml</dc:format>
        <dc:type
           rdf:resource="http://purl.org/dc/dcmitype/StillImage" />
        <dc:title></dc:title>
      </cc:Work>
    </rdf:RDF>
  </metadata>
    <circle
       style="color:#000000;clip-rule:nonzero;display:inline;overflow:visible;visibility:visible;opacity:1;isolation:auto;mix-blend-mode:normal;color-interpolation:sRGB;color-interpolation-filters:linearRGB;solid-color:#000000;solid-opacity:1;vector-effect:none;fill:#ffffff;fill-opacity:1;fill-rule:evenodd;stroke:#F25C05;stroke-width:1;stroke-linecap:butt;stroke-linejoin:miter;stroke-miterlimit:4;stroke-dasharray:none;stroke-dashoffset:0;stroke-opacity:1;marker:none;color-rendering:auto;image-rendering:auto;shape-rendering:auto;text-rendering:auto;enable-background:accumulate"
       id="path815"
       cx="15"
       cy="15"
       r="14.5" />
<g transform="translate(7,7)"><g id="surface1">
<path style=" stroke:none;fill-rule:nonzero;fill:rgb(30%,30%,30%);fill-opacity:1;" d="M 14.8125 14.980469 C 11.660156 17.738281 8.238281 14.054688 8.25 13.890625 C 8.261719 13.730469 8.027344 12.996094 7.792969 12.757812 C 7.722656 12.6875 7.648438 12.625 7.566406 12.566406 C 7.492188 12.515625 7.25 12.390625 6.828125 12.203125 L 6.890625 12.144531 C 7.347656 12.308594 7.90625 12.351562 8.203125 12.085938 C 8.683594 11.652344 8.554688 10.777344 7.917969 10.128906 C 7.28125 9.480469 6.398438 9.210938 5.921875 9.640625 C 5.765625 9.78125 5.601562 10.046875 5.539062 10.101562 C 5.398438 10.230469 5.8125 9.226562 5.511719 8.980469 C 4.273438 7.976562 4.722656 6.742188 5.222656 6.066406 L 2.265625 2.933594 L 2.203125 2.988281 L 1.726562 2.789062 C 1.640625 2.753906 1.570312 2.691406 1.523438 2.613281 L 1.375 2.359375 L 1.09375 2.617188 C 1.175781 2.738281 1.191406 2.871094 1.117188 2.9375 C 1.03125 3.015625 0.851562 2.96875 0.722656 2.835938 C 0.589844 2.703125 0.554688 2.53125 0.640625 2.449219 C 0.714844 2.382812 0.851562 2.40625 0.972656 2.496094 L 1.289062 2.210938 L 0.894531 1.535156 L 0.546875 1.851562 C 0.589844 1.945312 0.585938 2.042969 0.53125 2.09375 C 0.441406 2.171875 0.265625 2.128906 0.132812 1.996094 C 0 1.859375 -0.0351562 1.6875 0.0507812 1.609375 C 0.140625 1.53125 0.316406 1.574219 0.449219 1.710938 L 0.804688 1.386719 L 0.761719 1.3125 L 0.605469 1.453125 L 0.0859375 0.320312 L 0.441406 0 L 1.554688 0.597656 L 1.363281 0.765625 L 1.441406 0.8125 L 1.839844 0.453125 C 1.707031 0.316406 1.671875 0.144531 1.757812 0.0664062 C 1.847656 -0.0117188 2.023438 0.03125 2.15625 0.167969 C 2.289062 0.300781 2.324219 0.472656 2.238281 0.550781 C 2.179688 0.605469 2.078125 0.601562 1.980469 0.554688 L 1.597656 0.898438 L 2.292969 1.300781 L 2.691406 0.941406 C 2.605469 0.820312 2.589844 0.6875 2.664062 0.621094 C 2.753906 0.542969 2.929688 0.589844 3.0625 0.722656 C 3.191406 0.855469 3.230469 1.027344 3.140625 1.109375 C 3.066406 1.175781 2.929688 1.152344 2.808594 1.0625 L 2.449219 1.390625 L 2.707031 1.535156 C 2.765625 1.570312 2.808594 1.625 2.828125 1.6875 L 2.996094 2.277344 L 2.953125 2.3125 L 6.023438 5.320312 C 6.449219 5.039062 6.890625 4.957031 7.722656 5.097656 C 8 5.144531 8.6875 5.59375 8.929688 5.839844 C 9.167969 6.082031 10.097656 5.8125 10.09375 5.929688 C 10.089844 6.046875 9.863281 6.136719 9.714844 6.273438 C 9.234375 6.707031 9.507812 7.523438 10.148438 8.171875 C 10.785156 8.820312 11.601562 9.050781 12.0625 8.597656 C 12.386719 8.277344 12.402344 7.796875 12.199219 7.34375 L 12.265625 7.289062 C 12.609375 8.003906 13.808594 8.5625 14.1875 8.636719 C 14.570312 8.714844 17.636719 12.507812 14.8125 14.980469 Z M 10.5 12.921875 C 10.5 12.714844 10.398438 12.171875 9.445312 11.65625 C 9.371094 11.617188 9.339844 11.566406 9.34375 11.492188 C 9.347656 11.371094 9.4375 11.234375 9.53125 11.164062 C 9.53125 11.222656 9.519531 11.304688 9.496094 11.335938 C 9.425781 11.398438 9.421875 11.503906 9.488281 11.570312 C 9.554688 11.636719 9.664062 11.640625 9.734375 11.578125 C 9.886719 11.4375 9.925781 11.085938 9.808594 10.917969 C 9.722656 10.800781 9.578125 10.765625 9.433594 10.828125 C 9.234375 10.917969 9.007812 11.191406 8.996094 11.476562 C 8.988281 11.679688 9.085938 11.84375 9.273438 11.945312 C 10.089844 12.386719 10.152344 12.804688 10.152344 12.921875 C 10.152344 13.023438 10.113281 13.082031 10.089844 13.09375 C 10.058594 13.113281 10.019531 13.125 9.984375 13.128906 C 9.992188 13.0625 9.953125 12.992188 9.886719 12.960938 C 9.824219 12.929688 9.746094 12.941406 9.691406 12.988281 C 9.601562 13.070312 9.597656 13.214844 9.679688 13.328125 C 9.773438 13.449219 9.980469 13.535156 10.261719 13.382812 C 10.289062 13.367188 10.3125 13.351562 10.335938 13.328125 C 10.4375 13.238281 10.5 13.089844 10.5 12.921875 Z M 13.367188 10.574219 C 13.542969 10.316406 13.464844 10.113281 13.34375 10.019531 C 13.234375 9.929688 13.082031 9.925781 12.992188 10.007812 C 12.9375 10.054688 12.921875 10.132812 12.949219 10.195312 C 12.980469 10.257812 13.046875 10.300781 13.121094 10.296875 C 13.113281 10.332031 13.097656 10.367188 13.074219 10.394531 C 13.058594 10.421875 13.007812 10.449219 12.929688 10.449219 C 12.820312 10.445312 12.425781 10.375 11.921875 9.535156 C 11.816406 9.355469 11.636719 9.257812 11.421875 9.261719 C 11.160156 9.261719 10.875 9.425781 10.757812 9.632812 C 10.683594 9.769531 10.707031 9.910156 10.824219 9.996094 C 10.996094 10.121094 11.363281 10.105469 11.515625 9.964844 C 11.585938 9.902344 11.589844 9.796875 11.523438 9.730469 C 11.492188 9.699219 11.449219 9.679688 11.40625 9.675781 C 11.359375 9.675781 11.3125 9.691406 11.28125 9.722656 C 11.25 9.742188 11.160156 9.753906 11.097656 9.746094 C 11.167969 9.667969 11.304688 9.59375 11.429688 9.59375 C 11.515625 9.59375 11.578125 9.625 11.621094 9.703125 C 12.179688 10.628906 12.675781 10.777344 12.921875 10.78125 C 13.070312 10.785156 13.207031 10.738281 13.300781 10.652344 C 13.328125 10.628906 13.347656 10.605469 13.367188 10.574219 Z M 13.367188 10.574219 "/>
</g>
</g>
</svg>
