<?xml version="1.0" encoding="UTF-8"?>
<svg xmlns="http://www.w3.org/2000/svg" xmlns:xlink="http://www.w3.org/1999/xlink" width="10px" height="7px" viewBox="0 0 10 7" version="1.1">
<g id="surface1">
<path style=" stroke:none;fill-rule:nonzero;fill:rgb(30%,30%,30%);fill-opacity:1;" d="M 9.894531 3.820312 C 9.539062 3.558594 8.550781 4.570312 8.550781 4.570312 C 8.550781 4.570312 9.035156 3.570312 9.355469 2.707031 C 9.65625 1.894531 9.882812 1.40625 9.417969 1.238281 C 9.230469 1.171875 9.066406 1.480469 8.855469 1.921875 C 8.644531 2.363281 8.453125 2.957031 8.3125 3.183594 C 8.257812 3.277344 8.078125 3.257812 8.160156 3.003906 C 8.21875 2.828125 8.308594 2.597656 8.578125 1.851562 C 8.980469 0.730469 9.175781 0.152344 8.789062 0.0273438 C 8.324219 -0.121094 8.023438 1.050781 7.882812 1.472656 C 7.625 2.238281 7.421875 2.710938 7.382812 2.78125 C 7.300781 2.941406 7.054688 2.855469 7.132812 2.628906 C 7.199219 2.429688 7.308594 2.128906 7.339844 2.007812 C 7.414062 1.683594 8.203125 0.324219 7.6875 0.136719 C 6.929688 -0.140625 6.621094 2.695312 6.1875 2.539062 C 5.867188 2.421875 6.496094 1.394531 6.554688 0.898438 C 6.570312 0.761719 6.511719 0.691406 6.417969 0.660156 C 6.011719 0.511719 5.261719 2.300781 5.023438 3.386719 C 5.015625 3.417969 5.007812 3.453125 5 3.488281 C 4.996094 3.457031 4.988281 3.429688 4.980469 3.398438 C 4.75 2.3125 4.011719 0.515625 3.605469 0.660156 C 3.511719 0.695312 3.453125 0.761719 3.46875 0.898438 C 3.523438 1.398438 4.144531 2.429688 3.824219 2.542969 C 3.386719 2.699219 3.101562 -0.140625 2.339844 0.128906 C 1.820312 0.3125 2.601562 1.679688 2.675781 2 C 2.703125 2.125 2.8125 2.425781 2.878906 2.625 C 2.953125 2.851562 2.707031 2.9375 2.625 2.777344 C 2.589844 2.707031 2.386719 2.230469 2.136719 1.464844 C 2 1.039062 1.707031 -0.132812 1.238281 0.0117188 C 0.851562 0.132812 1.042969 0.714844 1.441406 1.839844 C 1.703125 2.585938 1.789062 2.820312 1.84375 2.992188 C 1.929688 3.246094 1.75 3.265625 1.691406 3.171875 C 1.554688 2.945312 1.367188 2.347656 1.160156 1.90625 C 0.949219 1.464844 0.789062 1.152344 0.601562 1.21875 C 0.136719 1.382812 0.359375 1.875 0.652344 2.6875 C 0.96875 3.554688 1.445312 4.554688 1.445312 4.554688 C 1.445312 4.554688 0.464844 3.535156 0.105469 3.796875 C -0.0664062 3.921875 -0.015625 4.277344 0.199219 4.554688 C 0.976562 5.542969 1.972656 6.628906 2.628906 6.886719 C 3.332031 7.160156 4.546875 6.960938 4.996094 6.046875 C 5.441406 6.953125 6.648438 7.160156 7.347656 6.890625 C 8.007812 6.640625 9.011719 5.558594 9.796875 4.578125 C 10.015625 4.300781 10.066406 3.945312 9.894531 3.820312 Z M 9.894531 3.820312 "/>
</g>
</svg>
