<?xml version="1.0" encoding="UTF-8"?>
<svg xmlns="http://www.w3.org/2000/svg" xmlns:xlink="http://www.w3.org/1999/xlink" width="6px" height="11px" viewBox="0 0 6 11" version="1.1">
<g id="surface1">
<path style=" stroke:none;fill-rule:nonzero;fill:rgb(30%,30%,30%);fill-opacity:1;" d="M 5.808594 1.792969 L 4.113281 1.785156 L 4.105469 0 L 0 0 L 0 11 L 6 11 L 6 1.792969 Z M 2.285156 0.359375 L 3.722656 0.359375 L 3.722656 0.5625 L 2.496094 0.5625 L 2.496094 1.800781 L 2.285156 1.800781 Z M 2.285156 2.160156 L 3.730469 2.15625 L 3.730469 2.378906 L 2.496094 2.378906 L 2.496094 3.417969 L 2.285156 3.417969 Z M 0.382812 0.359375 L 1.902344 0.359375 L 1.902344 0.5625 L 0.550781 0.5625 L 0.550781 1.804688 L 0.382812 1.808594 Z M 0.382812 2.164062 L 1.902344 2.160156 L 1.902344 2.378906 L 0.550781 2.378906 L 0.550781 3.40625 L 0.382812 3.40625 Z M 1.902344 4.0625 L 0.550781 4.0625 L 0.550781 5.207031 L 0.382812 5.207031 L 0.382812 3.765625 L 1.902344 3.773438 Z M 3.730469 4.0625 L 2.496094 4.0625 L 2.496094 5.203125 L 2.285156 5.203125 L 2.285156 3.777344 L 3.730469 3.785156 Z M 5.617188 4.0625 L 4.34375 4.0625 L 4.34375 5.199219 L 4.117188 5.199219 L 4.117188 3.785156 L 5.617188 3.792969 Z M 5.617188 2.402344 L 4.34375 2.402344 L 4.34375 3.429688 L 4.117188 3.425781 L 4.117188 2.15625 L 5.617188 2.152344 Z M 5.617188 2.402344 "/>
</g>
</svg>
