<?xml version="1.0" encoding="UTF-8"?>
<svg xmlns="http://www.w3.org/2000/svg" xmlns:xlink="http://www.w3.org/1999/xlink" width="10px" height="11px" viewBox="0 0 10 11" version="1.1">
<g id="surface1">
<path style=" stroke:none;fill-rule:nonzero;fill:rgb(30%,30%,30%);fill-opacity:1;" d="M 4.109375 0 L 6.019531 0 C 6.019531 0 6.28125 1.683594 7.355469 1.734375 C 8.425781 1.785156 8.820312 1.328125 8.820312 1.328125 L 9.839844 2.730469 C 9.839844 2.730469 8.21875 3.367188 8.191406 5.511719 C 8.164062 7.476562 9.996094 8.089844 9.996094 8.089844 L 9.027344 9.75 C 9.027344 9.75 7.785156 9.191406 6.675781 9.648438 C 5.679688 10.054688 5.078125 11 5.078125 11 C 5.078125 11 4.582031 9.980469 3.507812 9.621094 C 2.4375 9.265625 1.128906 9.722656 1.128906 9.722656 L 0.00390625 8.089844 C 0.00390625 8.089844 1.835938 7.375 1.914062 5.488281 C 2.015625 3.34375 0.316406 2.808594 0.316406 2.808594 L 1.234375 1.300781 C 1.234375 1.300781 2.121094 1.914062 2.828125 1.660156 C 4.1875 1.351562 4.109375 0 4.109375 0 Z M 5.125 10.324219 C 5.125 10.324219 5.078125 10.25 4.988281 10.140625 L 4.800781 10.28125 C 4.882812 10.382812 4.925781 10.449219 4.925781 10.449219 Z M 5.414062 10.128906 L 5.242188 9.96875 C 5.179688 10.03125 5.125 10.089844 5.078125 10.140625 L 5.257812 10.292969 C 5.300781 10.246094 5.351562 10.1875 5.414062 10.128906 Z M 4.867188 10.003906 C 4.816406 9.941406 4.757812 9.882812 4.703125 9.828125 L 4.535156 9.992188 C 4.59375 10.046875 4.644531 10.101562 4.691406 10.15625 Z M 5.707031 9.859375 L 5.554688 9.683594 C 5.488281 9.738281 5.429688 9.789062 5.375 9.84375 L 5.535156 10.007812 C 5.589844 9.960938 5.644531 9.910156 5.707031 9.859375 Z M 4.570312 9.707031 C 4.507812 9.652344 4.445312 9.601562 4.382812 9.554688 L 4.238281 9.734375 C 4.296875 9.78125 4.355469 9.828125 4.410156 9.878906 Z M 6.023438 9.621094 L 5.890625 9.433594 C 5.824219 9.476562 5.757812 9.523438 5.695312 9.570312 L 5.839844 9.753906 C 5.898438 9.710938 5.960938 9.664062 6.023438 9.621094 Z M 4.203125 9.425781 C 4.132812 9.382812 4.0625 9.339844 3.992188 9.300781 L 3.878906 9.5 C 3.941406 9.535156 4.007812 9.574219 4.070312 9.617188 Z M 6.398438 9.410156 L 6.292969 9.203125 C 6.21875 9.238281 6.148438 9.277344 6.078125 9.316406 L 6.199219 9.515625 C 6.261719 9.476562 6.332031 9.441406 6.398438 9.410156 Z M 3.828125 9.21875 C 3.753906 9.183594 3.679688 9.152344 3.601562 9.125 L 3.519531 9.339844 C 3.589844 9.363281 3.660156 9.394531 3.726562 9.425781 Z M 1.710938 9.296875 L 1.660156 9.070312 C 1.5625 9.09375 1.480469 9.113281 1.425781 9.128906 L 1.488281 9.347656 C 1.542969 9.335938 1.617188 9.316406 1.710938 9.296875 Z M 6.761719 9.265625 L 6.691406 9.042969 C 6.613281 9.070312 6.535156 9.097656 6.457031 9.128906 L 6.550781 9.339844 C 6.621094 9.3125 6.691406 9.285156 6.761719 9.265625 Z M 3.425781 9.066406 C 3.347656 9.046875 3.265625 9.027344 3.183594 9.015625 L 3.140625 9.242188 C 3.21875 9.253906 3.292969 9.269531 3.363281 9.289062 Z M 8.878906 9.074219 C 8.878906 9.074219 8.738281 9.035156 8.632812 9.011719 L 8.585938 9.238281 C 8.679688 9.257812 8.734375 9.273438 8.820312 9.28125 Z M 2.140625 9.226562 L 2.113281 8.996094 C 2.03125 9.007812 1.949219 9.019531 1.875 9.03125 L 1.914062 9.257812 C 1.984375 9.246094 2.0625 9.234375 2.140625 9.226562 Z M 1.386719 9.082031 L 1.277344 8.882812 L 1.070312 8.996094 L 1.179688 9.191406 Z M 7.148438 9.179688 L 7.113281 8.953125 C 7.03125 8.964844 6.949219 8.980469 6.871094 8.996094 L 6.925781 9.222656 C 6.996094 9.207031 7.070312 9.191406 7.148438 9.179688 Z M 2.964844 8.984375 C 2.886719 8.976562 2.804688 8.972656 2.71875 8.96875 L 2.714844 9.199219 C 2.792969 9.203125 2.867188 9.207031 2.941406 9.214844 Z M 2.542969 9.199219 L 2.539062 8.96875 C 2.453125 8.96875 2.375 8.972656 2.296875 8.980469 L 2.3125 9.210938 C 2.386719 9.203125 2.464844 9.199219 2.542969 9.199219 Z M 8.417969 8.976562 C 8.347656 8.964844 8.265625 8.953125 8.179688 8.945312 L 8.152344 9.171875 C 8.234375 9.179688 8.3125 9.191406 8.382812 9.203125 Z M 7.578125 9.144531 L 7.574219 8.914062 C 7.496094 8.917969 7.414062 8.921875 7.332031 8.929688 L 7.351562 9.15625 C 7.429688 9.152344 7.503906 9.148438 7.578125 9.144531 Z M 8 8.925781 C 7.921875 8.921875 7.839844 8.917969 7.757812 8.914062 L 7.75 9.144531 C 7.832031 9.148438 7.90625 9.152344 7.980469 9.15625 Z M 9.113281 8.808594 L 8.910156 8.695312 L 8.792969 8.894531 L 8.996094 9.007812 Z M 1.1875 8.742188 L 1.054688 8.539062 L 0.847656 8.652344 L 0.980469 8.851562 Z M 9.324219 8.460938 L 9.117188 8.347656 L 9 8.546875 L 9.203125 8.660156 Z M 0.921875 8.367188 L 0.785156 8.175781 L 0.582031 8.289062 L 0.714844 8.480469 Z M 9.46875 8.164062 C 9.335938 8.117188 9.273438 8.070312 9.238281 8.035156 L 9.097656 8.203125 C 9.136719 8.242188 9.195312 8.300781 9.332031 8.351562 Z M 1.191406 8.117188 L 1.042969 7.933594 C 0.984375 7.980469 0.921875 8.023438 0.859375 8.066406 L 0.992188 8.257812 C 1.054688 8.214844 1.125 8.167969 1.191406 8.117188 Z M 9.058594 7.890625 C 9.003906 7.84375 8.949219 7.792969 8.890625 7.734375 L 8.722656 7.898438 C 8.785156 7.957031 8.84375 8.011719 8.898438 8.0625 Z M 1.511719 7.84375 L 1.347656 7.679688 C 1.289062 7.734375 1.230469 7.785156 1.179688 7.828125 L 1.332031 8.003906 C 1.390625 7.957031 1.449219 7.902344 1.511719 7.84375 Z M 8.769531 7.613281 C 8.722656 7.5625 8.671875 7.503906 8.621094 7.445312 L 8.4375 7.589844 C 8.492188 7.65625 8.546875 7.714844 8.597656 7.769531 Z M 1.824219 7.507812 L 1.640625 7.367188 C 1.589844 7.425781 1.539062 7.480469 1.488281 7.535156 L 1.664062 7.691406 C 1.71875 7.632812 1.773438 7.570312 1.824219 7.507812 Z M 8.492188 7.285156 C 8.449219 7.226562 8.402344 7.167969 8.359375 7.101562 L 8.164062 7.230469 C 8.210938 7.296875 8.257812 7.363281 8.304688 7.425781 Z M 2.070312 7.167969 L 1.867188 7.046875 C 1.828125 7.109375 1.785156 7.171875 1.742188 7.234375 L 1.933594 7.367188 C 1.980469 7.304688 2.027344 7.234375 2.070312 7.167969 Z M 8.269531 6.960938 C 8.230469 6.898438 8.195312 6.832031 8.160156 6.765625 L 7.949219 6.871094 C 7.984375 6.941406 8.027344 7.011719 8.066406 7.078125 Z M 2.269531 6.800781 L 2.054688 6.707031 C 2.023438 6.773438 1.992188 6.839844 1.953125 6.902344 L 2.160156 7.015625 C 2.199219 6.945312 2.238281 6.875 2.269531 6.800781 Z M 8.085938 6.617188 C 8.054688 6.546875 8.023438 6.480469 8 6.410156 L 7.777344 6.488281 C 7.804688 6.5625 7.835938 6.636719 7.871094 6.710938 Z M 2.429688 6.375 L 2.203125 6.3125 C 2.183594 6.382812 2.160156 6.453125 2.132812 6.523438 L 2.355469 6.601562 C 2.382812 6.527344 2.410156 6.449219 2.429688 6.375 Z M 7.933594 6.222656 C 7.914062 6.148438 7.894531 6.078125 7.878906 6.007812 L 7.648438 6.054688 C 7.664062 6.132812 7.683594 6.210938 7.707031 6.285156 Z M 2.519531 5.964844 L 2.289062 5.933594 C 2.277344 6.007812 2.261719 6.078125 2.246094 6.152344 L 2.476562 6.203125 C 2.496094 6.125 2.507812 6.046875 2.519531 5.964844 Z M 7.847656 5.84375 C 7.835938 5.769531 7.828125 5.699219 7.820312 5.625 L 7.585938 5.640625 C 7.589844 5.722656 7.601562 5.800781 7.613281 5.878906 Z M 2.554688 5.59375 L 2.554688 5.554688 L 2.320312 5.542969 L 2.316406 5.585938 C 2.316406 5.648438 2.3125 5.707031 2.308594 5.769531 L 2.542969 5.789062 C 2.546875 5.722656 2.550781 5.660156 2.554688 5.59375 Z M 7.8125 5.457031 L 7.8125 5.410156 C 7.8125 5.351562 7.8125 5.292969 7.816406 5.234375 L 7.582031 5.226562 C 7.578125 5.285156 7.578125 5.347656 7.578125 5.410156 L 7.578125 5.460938 Z M 2.558594 5.339844 C 2.558594 5.257812 2.554688 5.179688 2.546875 5.101562 L 2.3125 5.121094 C 2.316406 5.191406 2.320312 5.265625 2.324219 5.34375 Z M 7.859375 4.8125 L 7.625 4.777344 C 7.613281 4.851562 7.601562 4.933594 7.59375 5.011719 L 7.828125 5.035156 C 7.835938 4.957031 7.847656 4.882812 7.859375 4.8125 Z M 2.527344 4.925781 C 2.515625 4.847656 2.503906 4.769531 2.488281 4.691406 L 2.257812 4.734375 C 2.273438 4.808594 2.285156 4.882812 2.292969 4.953125 Z M 7.941406 4.433594 L 7.714844 4.371094 C 7.691406 4.445312 7.671875 4.523438 7.65625 4.601562 L 7.886719 4.648438 C 7.902344 4.574219 7.921875 4.503906 7.941406 4.433594 Z M 2.449219 4.515625 C 2.425781 4.441406 2.40625 4.363281 2.378906 4.289062 L 2.15625 4.359375 C 2.179688 4.429688 2.199219 4.503906 2.21875 4.574219 Z M 8.070312 4.066406 L 7.855469 3.976562 C 7.824219 4.050781 7.792969 4.125 7.765625 4.199219 L 7.992188 4.273438 C 8.015625 4.203125 8.042969 4.132812 8.070312 4.066406 Z M 2.300781 4.085938 C 2.273438 4.011719 2.238281 3.941406 2.203125 3.867188 L 1.992188 3.972656 C 2.023438 4.039062 2.054688 4.105469 2.082031 4.171875 Z M 8.273438 3.699219 L 8.074219 3.574219 C 8.027344 3.640625 7.988281 3.710938 7.949219 3.78125 L 8.160156 3.886719 C 8.195312 3.824219 8.230469 3.757812 8.273438 3.699219 Z M 2.117188 3.710938 C 2.078125 3.640625 2.035156 3.574219 1.988281 3.507812 L 1.792969 3.636719 C 1.832031 3.695312 1.875 3.761719 1.910156 3.824219 Z M 8.507812 3.390625 L 8.332031 3.238281 C 8.277344 3.296875 8.226562 3.359375 8.175781 3.425781 L 8.367188 3.5625 C 8.410156 3.5 8.457031 3.445312 8.507812 3.390625 Z M 1.882812 3.359375 C 1.835938 3.296875 1.785156 3.234375 1.730469 3.175781 L 1.550781 3.324219 C 1.601562 3.378906 1.648438 3.4375 1.695312 3.5 Z M 8.789062 3.121094 L 8.640625 2.945312 C 8.578125 2.996094 8.515625 3.050781 8.457031 3.105469 L 8.625 3.269531 C 8.675781 3.21875 8.734375 3.167969 8.789062 3.121094 Z M 1.582031 3.015625 C 1.527344 2.960938 1.46875 2.902344 1.40625 2.851562 L 1.25 3.023438 C 1.304688 3.070312 1.359375 3.125 1.414062 3.175781 Z M 9.140625 2.886719 L 9.027344 2.683594 C 8.957031 2.722656 8.886719 2.765625 8.816406 2.8125 L 8.953125 3.003906 C 9.015625 2.960938 9.078125 2.921875 9.140625 2.886719 Z M 1.269531 2.734375 C 1.203125 2.683594 1.136719 2.632812 1.070312 2.589844 L 0.9375 2.78125 C 0.996094 2.820312 1.058594 2.867188 1.121094 2.914062 Z M 9.421875 2.65625 L 9.261719 2.460938 L 9.09375 2.570312 L 9.261719 2.765625 Z M 1.019531 2.472656 L 0.859375 2.367188 L 0.710938 2.585938 L 0.894531 2.683594 Z M 9.191406 2.300781 L 9.046875 2.085938 L 8.851562 2.21875 L 8.996094 2.433594 Z M 1.296875 2.128906 L 1.144531 2.015625 L 1.007812 2.207031 L 1.164062 2.320312 Z M 7.78125 2.261719 L 7.757812 2.03125 C 7.695312 2.039062 7.628906 2.039062 7.566406 2.039062 L 7.535156 2.039062 L 7.53125 2.269531 L 7.566406 2.269531 C 7.636719 2.269531 7.710938 2.269531 7.78125 2.261719 Z M 7.367188 2.03125 C 7.292969 2.023438 7.21875 2.015625 7.148438 2 L 7.101562 2.226562 C 7.183594 2.242188 7.265625 2.253906 7.347656 2.261719 Z M 8.242188 2.171875 L 8.175781 1.953125 C 8.105469 1.972656 8.03125 1.992188 7.957031 2.003906 L 8.003906 2.230469 C 8.082031 2.214844 8.164062 2.195312 8.242188 2.171875 Z M 2.898438 2.203125 L 2.851562 1.976562 C 2.78125 1.988281 2.710938 1.996094 2.636719 2 L 2.644531 2.230469 C 2.730469 2.226562 2.816406 2.21875 2.898438 2.203125 Z M 2.46875 2 C 2.398438 1.996094 2.324219 1.988281 2.246094 1.976562 L 2.214844 2.207031 C 2.296875 2.21875 2.378906 2.226562 2.457031 2.230469 Z M 6.996094 1.957031 C 6.929688 1.933594 6.863281 1.902344 6.800781 1.867188 L 6.679688 2.066406 C 6.753906 2.109375 6.832031 2.144531 6.914062 2.175781 Z M 2.042969 1.945312 C 1.964844 1.929688 1.886719 1.910156 1.820312 1.894531 L 1.757812 2.117188 C 1.832031 2.136719 1.910156 2.152344 1.996094 2.171875 Z M 3.3125 2.085938 L 3.230469 1.871094 C 3.164062 1.894531 3.089844 1.914062 3.019531 1.929688 L 3.074219 2.15625 C 3.152344 2.136719 3.234375 2.113281 3.3125 2.085938 Z M 8.917969 1.871094 L 8.808594 1.695312 L 8.617188 1.824219 L 8.726562 2.003906 Z M 8.648438 2.011719 L 8.535156 1.808594 C 8.46875 1.84375 8.402344 1.871094 8.332031 1.898438 L 8.417969 2.113281 C 8.496094 2.082031 8.574219 2.050781 8.648438 2.011719 Z M 1.617188 1.851562 C 1.515625 1.832031 1.457031 1.765625 1.40625 1.734375 L 1.285156 1.910156 C 1.351562 1.957031 1.386719 1.972656 1.488281 2.023438 Z M 3.738281 1.878906 L 3.605469 1.6875 C 3.542969 1.726562 3.480469 1.761719 3.414062 1.792969 L 3.519531 2 C 3.59375 1.964844 3.667969 1.925781 3.738281 1.878906 Z M 6.640625 1.757812 C 6.585938 1.714844 6.53125 1.664062 6.480469 1.613281 L 6.308594 1.769531 C 6.367188 1.832031 6.429688 1.886719 6.492188 1.9375 Z M 4.070312 1.601562 L 3.902344 1.445312 C 3.851562 1.496094 3.796875 1.546875 3.738281 1.589844 L 3.886719 1.769531 C 3.953125 1.71875 4.015625 1.664062 4.070312 1.601562 Z M 6.371094 1.488281 C 6.324219 1.433594 6.28125 1.375 6.234375 1.3125 L 6.039062 1.441406 C 6.085938 1.507812 6.136719 1.574219 6.1875 1.632812 Z M 4.339844 1.265625 L 4.136719 1.144531 C 4.097656 1.207031 4.054688 1.265625 4.011719 1.320312 L 4.195312 1.464844 C 4.246094 1.402344 4.292969 1.335938 4.339844 1.265625 Z M 6.144531 1.171875 C 6.105469 1.109375 6.070312 1.042969 6.035156 0.976562 L 5.824219 1.078125 C 5.863281 1.152344 5.902344 1.222656 5.941406 1.289062 Z M 4.546875 0.855469 L 4.328125 0.773438 C 4.300781 0.839844 4.269531 0.90625 4.238281 0.972656 L 4.449219 1.074219 C 4.484375 1.003906 4.519531 0.929688 4.546875 0.855469 Z M 5.957031 0.828125 C 5.90625 0.703125 5.878906 0.632812 5.867188 0.621094 L 5.644531 0.699219 C 5.65625 0.710938 5.6875 0.789062 5.742188 0.921875 Z M 5.605469 0.464844 L 5.371094 0.464844 L 5.371094 0.695312 L 5.605469 0.695312 Z M 5.195312 0.464844 L 4.957031 0.464844 L 4.957031 0.695312 L 5.195312 0.695312 Z M 4.746094 0.464844 L 4.507812 0.464844 L 4.507812 0.695312 L 4.746094 0.695312 Z M 4.746094 0.464844 "/>
</g>
</svg>
