<?xml version="1.0" encoding="UTF-8"?>
<svg xmlns="http://www.w3.org/2000/svg" xmlns:xlink="http://www.w3.org/1999/xlink" width="8px" height="11px" viewBox="0 0 8 11" version="1.1">
<g id="surface1">
<path style=" stroke:none;fill-rule:nonzero;fill:rgb(30%,30%,30%);fill-opacity:1;" d="M 7.21875 0.875 C 7.21875 0.394531 6.820312 0 6.328125 0 L 1.648438 0 C 1.15625 0 0.757812 0.394531 0.757812 0.875 L 0.757812 1.554688 L 7.21875 1.554688 Z M 7.21875 0.875 "/>
<path style=" stroke:none;fill-rule:nonzero;fill:rgb(30%,30%,30%);fill-opacity:1;" d="M 6.417969 2.390625 L 1.582031 2.390625 C 1.492188 3.460938 0.597656 3.617188 0.691406 3.59375 C 0.269531 3.773438 0 4.152344 0 4.632812 L 0 8.53125 C 0 9.886719 1.128906 11 2.511719 11 L 5.488281 11 C 6.871094 11 8 9.886719 8 8.53125 L 8 4.632812 C 8 4.238281 7.851562 3.988281 7.554688 3.703125 C 7.265625 3.441406 6.574219 3.570312 6.417969 2.390625 Z M 6.375 7.910156 L 1.582031 7.910156 L 1.582031 5.5 L 6.375 5.5 Z M 6.375 7.910156 "/>
</g>
</svg>
