<?xml version="1.0" encoding="UTF-8" standalone="no"?>
<!-- Created with Inkscape (http://www.inkscape.org/) -->

<svg
   xmlns:dc="http://purl.org/dc/elements/1.1/"
   xmlns:cc="http://creativecommons.org/ns#"
   xmlns:rdf="http://www.w3.org/1999/02/22-rdf-syntax-ns#"
   xmlns:svg="http://www.w3.org/2000/svg"
   xmlns="http://www.w3.org/2000/svg"
   xmlns:xlink="http://www.w3.org/1999/xlink"
   xmlns:sodipodi="http://sodipodi.sourceforge.net/DTD/sodipodi-0.dtd"
   xmlns:inkscape="http://www.inkscape.org/namespaces/inkscape"
   width="30px"
   height="30px"
   version="1.1"
   id="svg8"
   inkscape:version="0.92.4 5da689c313, 2019-01-14"
   sodipodi:docname="container.svg">
  <defs
     id="defs2" />
  <sodipodi:namedview
     id="base"
     pagecolor="#ffffff"
     bordercolor="#666666"
     borderopacity="1.0"
     inkscape:pageopacity="0.0"
     inkscape:pageshadow="2"
     inkscape:zoom="13.049334"
     inkscape:cx="18.679046"
     inkscape:cy="12.165829"
     inkscape:document-units="px"
     inkscape:current-layer="layer1"
     showgrid="false"
     inkscape:snap-page="false"
     units="px"
     inkscape:window-width="1884"
     inkscape:window-height="1061"
     inkscape:window-x="0"
     inkscape:window-y="0"
     inkscape:window-maximized="1"
     fit-margin-top="0"
     fit-margin-left="0"
     fit-margin-right="0"
     fit-margin-bottom="0" />
  <metadata
     id="metadata5">
    <rdf:RDF>
      <cc:Work
         rdf:about="">
        <dc:format>image/svg+xml</dc:format>
        <dc:type
           rdf:resource="http://purl.org/dc/dcmitype/StillImage" />
        <dc:title></dc:title>
      </cc:Work>
    </rdf:RDF>
  </metadata>
    <circle
       style="color:#000000;clip-rule:nonzero;display:inline;overflow:visible;visibility:visible;opacity:1;isolation:auto;mix-blend-mode:normal;color-interpolation:sRGB;color-interpolation-filters:linearRGB;solid-color:#000000;solid-opacity:1;vector-effect:none;fill:#F25C05;fill-opacity:1;fill-rule:evenodd;stroke:#ffffff;stroke-width:1;stroke-linecap:butt;stroke-linejoin:miter;stroke-miterlimit:4;stroke-dasharray:none;stroke-dashoffset:0;stroke-opacity:1;marker:none;color-rendering:auto;image-rendering:auto;shape-rendering:auto;text-rendering:auto;enable-background:accumulate"
       id="path815"
       cx="15"
       cy="15"
       r="14.5" />
<g transform="translate(7,7)"><g id="surface1">
<path style=" stroke:none;fill-rule:nonzero;fill:#FFFFFF;fill-opacity:1;" d="M 15.828125 10.628906 L 15.140625 10.628906 C 15.042969 9.144531 14.742188 8.058594 14.378906 8.058594 C 14.375 8.058594 14.367188 8.058594 14.359375 8.058594 C 14.367188 8.058594 14.375 8.058594 14.378906 8.058594 L 12.191406 8.058594 C 11.832031 8.058594 11.527344 9.144531 11.429688 10.628906 L 11.117188 10.628906 L 11.171875 5.207031 L 14.828125 2.535156 L 14.820312 2.535156 C 14.824219 2.53125 14.828125 2.527344 14.828125 2.523438 L 14.828125 0.265625 C 14.828125 0.121094 12.617188 0.00390625 9.886719 0.00390625 C 7.15625 0.00390625 4.941406 0.121094 4.941406 0.265625 L 4.941406 2.523438 C 4.941406 2.527344 4.945312 2.53125 4.949219 2.535156 L 4.941406 2.535156 L 8.570312 5.207031 L 8.582031 10.628906 L 7.65625 10.628906 L 7.65625 8.582031 L 8.429688 6.445312 L 1.230469 6.472656 L 0 8.800781 L 0 15.996094 L 7.65625 15.996094 L 7.65625 12.589844 L 8.585938 12.589844 L 8.59375 15.925781 C 8.59375 15.960938 9.144531 15.996094 9.828125 15.996094 C 10.511719 15.996094 11.0625 15.960938 11.0625 15.925781 L 11.097656 12.597656 L 11.429688 12.597656 C 11.523438 14.089844 11.832031 15.179688 12.191406 15.179688 L 14.378906 15.179688 C 14.375 15.179688 14.367188 15.179688 14.359375 15.179688 C 14.367188 15.179688 14.375 15.179688 14.378906 15.179688 C 14.742188 15.179688 15.046875 14.09375 15.140625 12.609375 L 15.828125 12.609375 C 15.921875 12.609375 16 12.167969 16 11.621094 C 16 11.070312 15.921875 10.628906 15.828125 10.628906 Z M 14.542969 9.449219 C 14.613281 9.839844 14.65625 10.234375 14.683594 10.628906 L 14.078125 10.628906 C 14.101562 10.234375 14.148438 9.839844 14.214844 9.449219 C 14.269531 9.144531 14.328125 8.929688 14.378906 8.777344 C 14.429688 8.929688 14.488281 9.144531 14.542969 9.449219 Z M 14.355469 8.0625 C 14.351562 8.0625 14.347656 8.0625 14.339844 8.0625 C 14.347656 8.0625 14.351562 8.0625 14.355469 8.0625 Z M 14.335938 8.066406 C 14.332031 8.066406 14.328125 8.066406 14.324219 8.066406 C 14.328125 8.066406 14.332031 8.066406 14.335938 8.066406 Z M 14.316406 8.070312 C 14.3125 8.070312 14.308594 8.074219 14.300781 8.074219 C 14.308594 8.074219 14.3125 8.070312 14.316406 8.070312 Z M 14.296875 8.078125 C 14.292969 8.082031 14.285156 8.082031 14.277344 8.085938 C 14.285156 8.082031 14.292969 8.082031 14.296875 8.078125 Z M 14.277344 8.089844 C 14.269531 8.09375 14.265625 8.09375 14.261719 8.097656 C 14.265625 8.09375 14.269531 8.09375 14.277344 8.089844 Z M 14.253906 8.101562 C 14.25 8.105469 14.246094 8.109375 14.242188 8.113281 C 14.246094 8.109375 14.25 8.105469 14.253906 8.101562 Z M 14.234375 8.117188 C 14.230469 8.121094 14.226562 8.125 14.222656 8.128906 C 14.226562 8.125 14.230469 8.121094 14.234375 8.117188 Z M 14.21875 8.132812 C 14.214844 8.136719 14.207031 8.140625 14.203125 8.144531 C 14.207031 8.140625 14.214844 8.136719 14.21875 8.132812 Z M 13.617188 10.625 L 13.617188 10.628906 Z M 14.199219 8.152344 C 14.195312 8.15625 14.1875 8.164062 14.183594 8.171875 C 14.1875 8.164062 14.195312 8.15625 14.199219 8.152344 Z M 14.175781 8.175781 C 14.171875 8.179688 14.167969 8.1875 14.164062 8.191406 C 14.167969 8.1875 14.171875 8.179688 14.175781 8.175781 Z M 14.160156 8.199219 C 14.15625 8.203125 14.152344 8.210938 14.148438 8.214844 C 14.152344 8.210938 14.15625 8.203125 14.160156 8.199219 Z M 14.140625 8.222656 C 14.136719 8.230469 14.132812 8.234375 14.128906 8.238281 C 14.132812 8.234375 14.136719 8.230469 14.140625 8.222656 Z M 14.125 8.25 C 14.117188 8.253906 14.113281 8.261719 14.109375 8.269531 C 14.113281 8.261719 14.117188 8.253906 14.125 8.25 Z M 14.105469 8.277344 C 14.101562 8.285156 14.097656 8.292969 14.089844 8.304688 C 14.097656 8.292969 14.101562 8.285156 14.105469 8.277344 Z M 14.085938 8.3125 C 14.082031 8.320312 14.078125 8.328125 14.074219 8.332031 C 14.078125 8.328125 14.082031 8.320312 14.085938 8.3125 Z M 14.066406 8.347656 C 14.0625 8.351562 14.0625 8.359375 14.058594 8.367188 C 14.0625 8.359375 14.0625 8.351562 14.066406 8.347656 Z M 14.050781 8.378906 C 14.046875 8.386719 14.042969 8.394531 14.039062 8.398438 C 14.042969 8.394531 14.046875 8.386719 14.050781 8.378906 Z M 14.035156 8.414062 C 14.03125 8.421875 14.023438 8.433594 14.019531 8.445312 C 14.023438 8.433594 14.03125 8.421875 14.035156 8.414062 Z M 14.015625 8.457031 C 14.011719 8.464844 14.007812 8.476562 14.003906 8.484375 C 14.007812 8.476562 14.011719 8.464844 14.015625 8.457031 Z M 13.996094 8.5 C 13.996094 8.507812 13.992188 8.515625 13.988281 8.523438 C 13.992188 8.515625 13.996094 8.507812 13.996094 8.5 Z M 13.980469 8.539062 C 13.980469 8.546875 13.976562 8.554688 13.972656 8.5625 C 13.976562 8.554688 13.980469 8.546875 13.980469 8.539062 Z M 13.964844 8.582031 C 13.964844 8.589844 13.960938 8.597656 13.957031 8.605469 C 13.960938 8.597656 13.964844 8.589844 13.964844 8.582031 Z M 13.953125 8.625 C 13.945312 8.636719 13.941406 8.648438 13.9375 8.664062 C 13.941406 8.648438 13.945312 8.636719 13.953125 8.625 Z M 13.929688 8.683594 C 13.929688 8.691406 13.925781 8.699219 13.921875 8.707031 C 13.925781 8.699219 13.929688 8.691406 13.929688 8.683594 Z M 13.917969 8.730469 C 13.914062 8.738281 13.910156 8.746094 13.910156 8.753906 C 13.910156 8.746094 13.914062 8.738281 13.917969 8.730469 Z M 13.902344 8.777344 C 13.898438 8.785156 13.898438 8.792969 13.894531 8.800781 C 13.898438 8.792969 13.898438 8.785156 13.902344 8.777344 Z M 13.886719 8.828125 C 13.886719 8.835938 13.882812 8.84375 13.882812 8.847656 C 13.882812 8.84375 13.886719 8.835938 13.886719 8.828125 Z M 13.867188 8.898438 C 13.867188 8.90625 13.863281 8.914062 13.863281 8.921875 C 13.863281 8.914062 13.867188 8.90625 13.867188 8.898438 Z M 13.855469 8.949219 C 13.851562 8.957031 13.851562 8.964844 13.851562 8.972656 C 13.851562 8.964844 13.851562 8.957031 13.855469 8.949219 Z M 13.84375 9.003906 C 13.839844 9.011719 13.839844 9.015625 13.835938 9.023438 C 13.839844 9.015625 13.839844 9.011719 13.84375 9.003906 Z M 13.828125 9.054688 C 13.828125 9.0625 13.828125 9.070312 13.824219 9.078125 C 13.828125 9.070312 13.828125 9.0625 13.828125 9.054688 Z M 13.816406 9.109375 C 13.816406 9.117188 13.816406 9.121094 13.8125 9.128906 C 13.816406 9.121094 13.816406 9.117188 13.816406 9.109375 Z M 13.796875 9.199219 C 13.796875 9.207031 13.796875 9.210938 13.796875 9.214844 C 13.796875 9.210938 13.796875 9.207031 13.796875 9.199219 Z M 13.789062 9.253906 C 13.785156 9.257812 13.785156 9.265625 13.785156 9.273438 C 13.785156 9.265625 13.785156 9.257812 13.789062 9.253906 Z M 13.777344 9.308594 C 13.773438 9.316406 13.773438 9.324219 13.773438 9.332031 C 13.773438 9.324219 13.773438 9.316406 13.777344 9.308594 Z M 13.765625 9.371094 C 13.765625 9.375 13.761719 9.382812 13.761719 9.390625 C 13.761719 9.382812 13.765625 9.375 13.765625 9.371094 Z M 13.738281 9.53125 C 13.738281 9.535156 13.738281 9.539062 13.734375 9.546875 C 13.738281 9.539062 13.738281 9.535156 13.738281 9.53125 Z M 13.730469 9.585938 C 13.726562 9.59375 13.726562 9.601562 13.726562 9.609375 C 13.726562 9.601562 13.726562 9.59375 13.730469 9.585938 Z M 13.71875 9.652344 C 13.71875 9.65625 13.71875 9.664062 13.714844 9.671875 C 13.71875 9.664062 13.71875 9.65625 13.71875 9.652344 Z M 13.710938 9.714844 C 13.710938 9.722656 13.707031 9.726562 13.707031 9.730469 C 13.707031 9.726562 13.710938 9.722656 13.710938 9.714844 Z M 13.6875 9.890625 C 13.6875 9.894531 13.6875 9.898438 13.683594 9.90625 C 13.6875 9.898438 13.6875 9.894531 13.6875 9.890625 Z M 13.679688 9.953125 C 13.679688 9.960938 13.679688 9.964844 13.675781 9.972656 C 13.679688 9.964844 13.679688 9.960938 13.679688 9.953125 Z M 13.671875 10.019531 C 13.671875 10.027344 13.671875 10.035156 13.667969 10.039062 C 13.671875 10.035156 13.671875 10.027344 13.671875 10.019531 Z M 13.664062 10.089844 C 13.664062 10.09375 13.664062 10.09375 13.664062 10.097656 C 13.664062 10.09375 13.664062 10.09375 13.664062 10.089844 Z M 13.644531 10.277344 C 13.644531 10.28125 13.644531 10.289062 13.644531 10.292969 C 13.644531 10.289062 13.644531 10.28125 13.644531 10.277344 Z M 13.640625 10.34375 C 13.640625 10.351562 13.636719 10.359375 13.636719 10.363281 C 13.636719 10.359375 13.640625 10.351562 13.640625 10.34375 Z M 13.632812 10.417969 C 13.632812 10.421875 13.632812 10.429688 13.632812 10.433594 C 13.632812 10.429688 13.632812 10.421875 13.632812 10.417969 Z M 13.617188 12.605469 C 13.617188 12.605469 13.617188 12.609375 13.617188 12.613281 C 13.617188 12.609375 13.617188 12.605469 13.617188 12.605469 Z M 14.203125 15.09375 C 14.207031 15.097656 14.214844 15.101562 14.21875 15.105469 C 14.214844 15.101562 14.207031 15.097656 14.203125 15.09375 Z M 13.625 12.722656 C 13.625 12.730469 13.628906 12.738281 13.628906 12.746094 C 13.628906 12.738281 13.625 12.730469 13.625 12.722656 Z M 13.632812 12.792969 C 13.632812 12.800781 13.632812 12.8125 13.632812 12.820312 C 13.632812 12.8125 13.632812 12.800781 13.632812 12.792969 Z M 13.636719 12.867188 C 13.636719 12.875 13.640625 12.886719 13.640625 12.894531 C 13.640625 12.886719 13.636719 12.875 13.636719 12.867188 Z M 13.644531 12.941406 C 13.644531 12.949219 13.644531 12.957031 13.644531 12.964844 C 13.644531 12.957031 13.644531 12.949219 13.644531 12.941406 Z M 13.660156 13.121094 C 13.664062 13.128906 13.664062 13.140625 13.664062 13.148438 C 13.664062 13.140625 13.664062 13.128906 13.660156 13.121094 Z M 13.667969 13.191406 C 13.667969 13.199219 13.671875 13.207031 13.671875 13.21875 C 13.671875 13.207031 13.667969 13.199219 13.667969 13.191406 Z M 13.675781 13.261719 C 13.675781 13.269531 13.679688 13.277344 13.679688 13.285156 C 13.679688 13.277344 13.675781 13.269531 13.675781 13.261719 Z M 13.683594 13.328125 C 13.683594 13.335938 13.6875 13.34375 13.6875 13.351562 C 13.6875 13.34375 13.683594 13.335938 13.683594 13.328125 Z M 13.699219 13.441406 C 13.699219 13.445312 13.699219 13.449219 13.699219 13.457031 C 13.699219 13.449219 13.699219 13.445312 13.699219 13.441406 Z M 13.707031 13.496094 C 13.707031 13.503906 13.707031 13.515625 13.710938 13.523438 C 13.707031 13.515625 13.707031 13.503906 13.707031 13.496094 Z M 13.714844 13.5625 C 13.71875 13.570312 13.71875 13.578125 13.71875 13.589844 C 13.71875 13.578125 13.71875 13.570312 13.714844 13.5625 Z M 13.726562 13.625 C 13.726562 13.636719 13.726562 13.644531 13.730469 13.652344 C 13.726562 13.644531 13.726562 13.636719 13.726562 13.625 Z M 13.734375 13.691406 C 13.738281 13.699219 13.738281 13.707031 13.738281 13.714844 C 13.738281 13.707031 13.738281 13.699219 13.734375 13.691406 Z M 13.75 13.78125 C 13.75 13.792969 13.753906 13.800781 13.753906 13.808594 C 13.753906 13.800781 13.75 13.792969 13.75 13.78125 Z M 13.761719 13.84375 C 13.761719 13.851562 13.765625 13.859375 13.765625 13.871094 C 13.765625 13.859375 13.761719 13.851562 13.761719 13.84375 Z M 13.773438 13.902344 C 13.773438 13.910156 13.773438 13.921875 13.777344 13.929688 C 13.773438 13.921875 13.773438 13.910156 13.773438 13.902344 Z M 13.78125 13.960938 C 13.785156 13.96875 13.785156 13.980469 13.789062 13.988281 C 13.785156 13.980469 13.785156 13.96875 13.78125 13.960938 Z M 13.792969 14.019531 C 13.796875 14.03125 13.800781 14.039062 13.800781 14.050781 C 13.800781 14.039062 13.796875 14.03125 13.792969 14.019531 Z M 13.8125 14.101562 C 13.8125 14.109375 13.816406 14.117188 13.816406 14.128906 C 13.816406 14.117188 13.8125 14.109375 13.8125 14.101562 Z M 13.824219 14.15625 C 13.824219 14.164062 13.828125 14.175781 13.828125 14.183594 C 13.828125 14.175781 13.824219 14.164062 13.824219 14.15625 Z M 13.835938 14.210938 C 13.839844 14.21875 13.839844 14.226562 13.84375 14.238281 C 13.839844 14.226562 13.839844 14.21875 13.835938 14.210938 Z M 13.847656 14.261719 C 13.851562 14.273438 13.855469 14.28125 13.855469 14.292969 C 13.855469 14.28125 13.851562 14.273438 13.847656 14.261719 Z M 13.863281 14.316406 C 13.867188 14.332031 13.871094 14.347656 13.875 14.363281 C 13.871094 14.347656 13.867188 14.332031 13.863281 14.316406 Z M 13.878906 14.386719 C 13.882812 14.394531 13.886719 14.402344 13.886719 14.410156 C 13.886719 14.402344 13.882812 14.394531 13.878906 14.386719 Z M 13.894531 14.433594 C 13.898438 14.445312 13.898438 14.453125 13.902344 14.460938 C 13.898438 14.453125 13.898438 14.445312 13.894531 14.433594 Z M 13.910156 14.484375 C 13.910156 14.492188 13.914062 14.5 13.917969 14.507812 C 13.914062 14.5 13.910156 14.492188 13.910156 14.484375 Z M 13.921875 14.527344 C 13.925781 14.539062 13.929688 14.546875 13.933594 14.558594 C 13.929688 14.546875 13.925781 14.539062 13.921875 14.527344 Z M 13.9375 14.574219 C 13.941406 14.585938 13.945312 14.601562 13.953125 14.613281 C 13.945312 14.601562 13.941406 14.585938 13.9375 14.574219 Z M 13.957031 14.632812 C 13.960938 14.640625 13.964844 14.648438 13.964844 14.65625 C 13.964844 14.648438 13.960938 14.640625 13.957031 14.632812 Z M 13.972656 14.675781 C 13.976562 14.683594 13.980469 14.691406 13.980469 14.699219 C 13.980469 14.691406 13.976562 14.683594 13.972656 14.675781 Z M 13.988281 14.714844 C 13.992188 14.722656 13.996094 14.730469 13.996094 14.738281 C 13.996094 14.730469 13.992188 14.722656 13.988281 14.714844 Z M 14.003906 14.753906 C 14.007812 14.765625 14.011719 14.773438 14.015625 14.785156 C 14.011719 14.773438 14.007812 14.765625 14.003906 14.753906 Z M 14.019531 14.796875 C 14.027344 14.804688 14.03125 14.816406 14.035156 14.824219 C 14.03125 14.816406 14.027344 14.804688 14.019531 14.796875 Z M 14.039062 14.839844 C 14.042969 14.84375 14.046875 14.851562 14.050781 14.859375 C 14.046875 14.851562 14.042969 14.84375 14.039062 14.839844 Z M 14.058594 14.871094 C 14.058594 14.878906 14.0625 14.886719 14.066406 14.890625 C 14.0625 14.886719 14.058594 14.878906 14.058594 14.871094 Z M 14.074219 14.90625 C 14.078125 14.910156 14.082031 14.917969 14.085938 14.925781 C 14.082031 14.917969 14.078125 14.910156 14.074219 14.90625 Z M 14.089844 14.933594 C 14.09375 14.945312 14.101562 14.953125 14.105469 14.960938 C 14.101562 14.953125 14.09375 14.945312 14.089844 14.933594 Z M 14.109375 14.96875 C 14.113281 14.976562 14.117188 14.984375 14.125 14.988281 C 14.117188 14.984375 14.113281 14.976562 14.109375 14.96875 Z M 14.128906 15 C 14.132812 15.003906 14.136719 15.007812 14.140625 15.015625 C 14.136719 15.007812 14.132812 15.003906 14.128906 15 Z M 14.148438 15.023438 C 14.152344 15.027344 14.15625 15.035156 14.160156 15.039062 C 14.15625 15.035156 14.152344 15.027344 14.148438 15.023438 Z M 14.164062 15.046875 C 14.167969 15.050781 14.171875 15.058594 14.175781 15.0625 C 14.171875 15.058594 14.167969 15.050781 14.164062 15.046875 Z M 14.183594 15.070312 C 14.1875 15.074219 14.195312 15.082031 14.199219 15.085938 C 14.195312 15.082031 14.1875 15.074219 14.183594 15.070312 Z M 14.339844 15.175781 C 14.347656 15.175781 14.351562 15.175781 14.355469 15.175781 C 14.351562 15.175781 14.347656 15.175781 14.339844 15.175781 Z M 14.222656 15.109375 C 14.226562 15.113281 14.230469 15.117188 14.234375 15.121094 C 14.230469 15.117188 14.226562 15.113281 14.222656 15.109375 Z M 14.242188 15.125 C 14.246094 15.128906 14.25 15.132812 14.253906 15.136719 C 14.25 15.132812 14.246094 15.128906 14.242188 15.125 Z M 14.261719 15.140625 C 14.265625 15.144531 14.269531 15.144531 14.277344 15.148438 C 14.269531 15.144531 14.265625 15.144531 14.261719 15.140625 Z M 14.277344 15.152344 C 14.285156 15.15625 14.292969 15.15625 14.296875 15.160156 C 14.292969 15.15625 14.285156 15.15625 14.277344 15.152344 Z M 14.300781 15.164062 C 14.308594 15.164062 14.3125 15.167969 14.316406 15.167969 C 14.3125 15.167969 14.308594 15.164062 14.300781 15.164062 Z M 14.324219 15.171875 C 14.328125 15.171875 14.332031 15.171875 14.335938 15.175781 C 14.332031 15.171875 14.328125 15.171875 14.324219 15.171875 Z M 14.542969 13.792969 C 14.488281 14.09375 14.429688 14.308594 14.378906 14.460938 C 14.328125 14.308594 14.269531 14.09375 14.214844 13.792969 C 14.148438 13.398438 14.101562 13.003906 14.078125 12.605469 L 14.683594 12.605469 C 14.65625 13.003906 14.613281 13.398438 14.542969 13.792969 Z M 14.542969 13.792969 "/>
</g>
</g>
</svg>
