<?xml version="1.0" encoding="UTF-8" standalone="no"?>
<!-- Created with Inkscape (http://www.inkscape.org/) -->

<svg
   xmlns:dc="http://purl.org/dc/elements/1.1/"
   xmlns:cc="http://creativecommons.org/ns#"
   xmlns:rdf="http://www.w3.org/1999/02/22-rdf-syntax-ns#"
   xmlns:svg="http://www.w3.org/2000/svg"
   xmlns="http://www.w3.org/2000/svg"
   xmlns:xlink="http://www.w3.org/1999/xlink"
   xmlns:sodipodi="http://sodipodi.sourceforge.net/DTD/sodipodi-0.dtd"
   xmlns:inkscape="http://www.inkscape.org/namespaces/inkscape"
   width="30px"
   height="30px"
   version="1.1"
   id="svg8"
   inkscape:version="0.92.4 5da689c313, 2019-01-14"
   sodipodi:docname="container.svg">
  <defs
     id="defs2" />
  <sodipodi:namedview
     id="base"
     pagecolor="#ffffff"
     bordercolor="#666666"
     borderopacity="1.0"
     inkscape:pageopacity="0.0"
     inkscape:pageshadow="2"
     inkscape:zoom="13.049334"
     inkscape:cx="18.679046"
     inkscape:cy="12.165829"
     inkscape:document-units="px"
     inkscape:current-layer="layer1"
     showgrid="false"
     inkscape:snap-page="false"
     units="px"
     inkscape:window-width="1884"
     inkscape:window-height="1061"
     inkscape:window-x="0"
     inkscape:window-y="0"
     inkscape:window-maximized="1"
     fit-margin-top="0"
     fit-margin-left="0"
     fit-margin-right="0"
     fit-margin-bottom="0" />
  <metadata
     id="metadata5">
    <rdf:RDF>
      <cc:Work
         rdf:about="">
        <dc:format>image/svg+xml</dc:format>
        <dc:type
           rdf:resource="http://purl.org/dc/dcmitype/StillImage" />
        <dc:title></dc:title>
      </cc:Work>
    </rdf:RDF>
  </metadata>
    <circle
       style="color:#000000;clip-rule:nonzero;display:inline;overflow:visible;visibility:visible;opacity:1;isolation:auto;mix-blend-mode:normal;color-interpolation:sRGB;color-interpolation-filters:linearRGB;solid-color:#000000;solid-opacity:1;vector-effect:none;fill:#ffffff;fill-opacity:1;fill-rule:evenodd;stroke:#F25C05;stroke-width:1;stroke-linecap:butt;stroke-linejoin:miter;stroke-miterlimit:4;stroke-dasharray:none;stroke-dashoffset:0;stroke-opacity:1;marker:none;color-rendering:auto;image-rendering:auto;shape-rendering:auto;text-rendering:auto;enable-background:accumulate"
       id="path815"
       cx="15"
       cy="15"
       r="14.5" />
<g transform="translate(7,7)"><g id="surface1">
<path style=" stroke:none;fill-rule:nonzero;fill:rgb(30%,30%,30%);fill-opacity:1;" d="M 8.941406 14.042969 L 8.941406 11.441406 L 12.996094 11.441406 C 13.609375 11.441406 14.101562 10.917969 14.101562 10.269531 C 14.101562 9.882812 13.804688 9.566406 13.4375 9.566406 L 3.054688 9.566406 C 2.6875 9.566406 2.390625 9.882812 2.390625 10.269531 C 2.390625 10.917969 2.882812 11.441406 3.496094 11.441406 L 7.320312 11.441406 L 7.320312 14.042969 L 0 14.042969 L 0 15.996094 L 16 15.996094 L 16 14.042969 Z M 8.941406 14.042969 "/>
<path style=" stroke:none;fill-rule:nonzero;fill:rgb(30%,30%,30%);fill-opacity:1;" d="M 10.847656 0.898438 C 11.109375 0.835938 11.34375 0.742188 11.34375 0.59375 C 11.34375 0.410156 10.90625 0.261719 10.007812 0.144531 C 9.347656 0.0585938 8.542969 0.00390625 7.957031 0.00390625 C 7.371094 0.00390625 6.566406 0.0585938 5.910156 0.144531 C 5.007812 0.261719 4.574219 0.410156 4.574219 0.59375 C 4.574219 0.734375 4.792969 0.832031 5.046875 0.894531 C 6.933594 3.511719 3.042969 3.019531 3.042969 4.652344 C 3.042969 7.332031 5.296875 9.53125 8.113281 9.53125 C 10.925781 9.53125 13.234375 7.332031 13.234375 4.652344 C 13.234375 2.984375 9.105469 3.507812 10.847656 0.898438 Z M 6.175781 0.367188 C 6.792969 0.292969 7.53125 0.246094 8.0625 0.246094 C 8.589844 0.246094 9.332031 0.292969 9.945312 0.367188 C 10.75 0.464844 11.007812 0.5625 11.042969 0.597656 C 11.03125 0.621094 10.882812 0.695312 10.308594 0.757812 C 9.761719 0.816406 8.992188 0.847656 8.089844 0.847656 C 7.191406 0.847656 6.394531 0.816406 5.839844 0.757812 C 5.238281 0.695312 5.09375 0.617188 5.078125 0.59375 C 5.117188 0.5625 5.375 0.464844 6.175781 0.367188 Z M 9.859375 1.03125 C 9.769531 1.039062 9.671875 1.046875 9.578125 1.050781 C 9.675781 1.046875 9.769531 1.039062 9.859375 1.03125 Z M 9.859375 1.03125 "/>
</g>
</g>
</svg>
