<?xml version="1.0" encoding="UTF-8" standalone="no"?>
<!-- Created with Inkscape (http://www.inkscape.org/) -->

<svg
   xmlns:dc="http://purl.org/dc/elements/1.1/"
   xmlns:cc="http://creativecommons.org/ns#"
   xmlns:rdf="http://www.w3.org/1999/02/22-rdf-syntax-ns#"
   xmlns:svg="http://www.w3.org/2000/svg"
   xmlns="http://www.w3.org/2000/svg"
   xmlns:xlink="http://www.w3.org/1999/xlink"
   xmlns:sodipodi="http://sodipodi.sourceforge.net/DTD/sodipodi-0.dtd"
   xmlns:inkscape="http://www.inkscape.org/namespaces/inkscape"
   width="30px"
   height="30px"
   version="1.1"
   id="svg8"
   inkscape:version="0.92.4 5da689c313, 2019-01-14"
   sodipodi:docname="container.svg">
  <defs
     id="defs2" />
  <sodipodi:namedview
     id="base"
     pagecolor="#ffffff"
     bordercolor="#666666"
     borderopacity="1.0"
     inkscape:pageopacity="0.0"
     inkscape:pageshadow="2"
     inkscape:zoom="13.049334"
     inkscape:cx="18.679046"
     inkscape:cy="12.165829"
     inkscape:document-units="px"
     inkscape:current-layer="layer1"
     showgrid="false"
     inkscape:snap-page="false"
     units="px"
     inkscape:window-width="1884"
     inkscape:window-height="1061"
     inkscape:window-x="0"
     inkscape:window-y="0"
     inkscape:window-maximized="1"
     fit-margin-top="0"
     fit-margin-left="0"
     fit-margin-right="0"
     fit-margin-bottom="0" />
  <metadata
     id="metadata5">
    <rdf:RDF>
      <cc:Work
         rdf:about="">
        <dc:format>image/svg+xml</dc:format>
        <dc:type
           rdf:resource="http://purl.org/dc/dcmitype/StillImage" />
        <dc:title></dc:title>
      </cc:Work>
    </rdf:RDF>
  </metadata>
    <circle
       style="color:#000000;clip-rule:nonzero;display:inline;overflow:visible;visibility:visible;opacity:1;isolation:auto;mix-blend-mode:normal;color-interpolation:sRGB;color-interpolation-filters:linearRGB;solid-color:#000000;solid-opacity:1;vector-effect:none;fill:#F25C05;fill-opacity:1;fill-rule:evenodd;stroke:#ffffff;stroke-width:1;stroke-linecap:butt;stroke-linejoin:miter;stroke-miterlimit:4;stroke-dasharray:none;stroke-dashoffset:0;stroke-opacity:1;marker:none;color-rendering:auto;image-rendering:auto;shape-rendering:auto;text-rendering:auto;enable-background:accumulate"
       id="path815"
       cx="15"
       cy="15"
       r="14.5" />
<g transform="translate(11,6)"><g id="surface1">
<path style=" stroke:none;fill-rule:nonzero;fill:#FFFFFF;fill-opacity:1;" d="M 3.046875 16.851562 C 3.46875 16.863281 3.71875 17 3.460938 17 L 0.226562 17 C -0.0351562 17 0.152344 16.863281 0.570312 16.851562 C 0.988281 16.835938 1.492188 16.675781 1.492188 15.664062 C 1.492188 14.652344 1.464844 14.320312 1.464844 13.640625 C 1.464844 12.960938 1.082031 13.019531 0.585938 12.527344 C 0.0898438 12.035156 -0.0898438 11.484375 0.0429688 10.5 C 0.132812 9.855469 0.226562 9.332031 0.28125 9.042969 C 0.308594 8.90625 0.433594 8.808594 0.574219 8.808594 L 3.109375 8.808594 C 3.253906 8.808594 3.375 8.90625 3.402344 9.042969 C 3.457031 9.328125 3.550781 9.855469 3.640625 10.5 C 3.777344 11.484375 3.59375 12.035156 3.101562 12.527344 C 2.605469 13.019531 2.222656 12.960938 2.222656 13.640625 C 2.222656 14.320312 2.195312 14.652344 2.195312 15.664062 C 2.195312 16.675781 2.628906 16.835938 3.046875 16.851562 Z M 8 16.523438 C 7.996094 16.777344 7.785156 16.984375 7.519531 16.984375 L 4.710938 16.984375 C 4.449219 16.984375 4.234375 16.777344 4.234375 16.523438 L 4.234375 6.289062 C 4.234375 6.035156 4.375 5.671875 4.546875 5.480469 L 5.308594 4.636719 C 5.414062 4.519531 5.472656 4.367188 5.472656 4.207031 L 5.472656 1.042969 C 5.472656 1.019531 5.453125 1.003906 5.429688 1.003906 C 5.40625 1.003906 5.386719 0.984375 5.386719 0.960938 L 5.386719 0.285156 C 5.386719 0.128906 5.519531 0 5.683594 0 L 6.546875 0 C 6.710938 0 6.84375 0.128906 6.84375 0.285156 L 6.84375 0.960938 C 6.84375 0.984375 6.824219 1.003906 6.800781 1.003906 C 6.773438 1.003906 6.753906 1.019531 6.753906 1.042969 L 6.753906 4.207031 C 6.753906 4.367188 6.816406 4.519531 6.921875 4.636719 L 7.683594 5.480469 C 7.855469 5.671875 8 6.035156 8 6.289062 Z M 8 16.523438 "/>
</g>
</g>
</svg>
