<?xml version="1.0" encoding="UTF-8"?>
<svg xmlns="http://www.w3.org/2000/svg" xmlns:xlink="http://www.w3.org/1999/xlink" width="11px" height="10px" viewBox="0 0 11 10" version="1.1">
<g id="surface1">
<path style=" stroke:none;fill-rule:nonzero;fill:rgb(30%,30%,30%);fill-opacity:1;" d="M 6.667969 2.652344 L 6.347656 4.179688 C 6.347656 4.179688 8.019531 4.871094 8.335938 4.972656 C 8.585938 5.050781 9.210938 5.234375 10.308594 5.285156 C 10.445312 5.292969 10.574219 5.21875 10.613281 5.085938 L 11 3.832031 C 11 3.832031 7.878906 2.714844 7.402344 2.671875 C 6.789062 2.621094 6.667969 2.652344 6.667969 2.652344 Z M 6.667969 2.652344 "/>
<path style=" stroke:none;fill-rule:nonzero;fill:rgb(30%,30%,30%);fill-opacity:1;" d="M 7.660156 5.175781 C 7.660156 5.175781 8.117188 5.398438 8.21875 5.417969 C 8.316406 5.441406 8.636719 5.417969 8.636719 5.417969 L 7.421875 9.957031 C 7.421875 9.957031 6.945312 10.039062 6.847656 9.976562 C 6.746094 9.914062 6.488281 9.671875 6.488281 9.671875 Z M 7.660156 5.175781 "/>
<path style=" stroke:none;fill-rule:nonzero;fill:rgb(30%,30%,30%);fill-opacity:1;" d="M 3.683594 5.722656 L 5.847656 4.664062 C 5.847656 4.664062 6.066406 4.746094 6.226562 4.644531 C 6.296875 4.597656 6.265625 4.09375 6.007812 3.789062 C 5.792969 3.535156 5.550781 3.644531 5.589844 3.828125 C 5.621094 3.96875 3.324219 4.929688 3.324219 4.929688 L 2.828125 5.742188 Z M 3.683594 5.722656 "/>
<path style=" stroke:none;fill-rule:nonzero;fill:rgb(30%,30%,30%);fill-opacity:1;" d="M 5.074219 9.257812 L 4.34375 9.257812 C 4.34375 9.257812 5.191406 7.652344 4.777344 6.289062 C 4.769531 6.164062 4.691406 5.957031 4.59375 5.738281 C 4.308594 5.855469 3.976562 5.996094 3.921875 6.007812 C 3.820312 6.027344 2.429688 6.046875 2.429688 6.046875 L 3.363281 4.582031 L 4.085938 4.261719 C 4.097656 4.105469 4.125 3.933594 4.183594 3.773438 C 4.230469 3.632812 4.304688 3.527344 4.410156 3.488281 C 4.640625 3.40625 4.90625 3.023438 5.003906 2.609375 C 5.105469 2.199219 4.992188 1.648438 4.980469 1.347656 C 4.957031 0.742188 3.570312 0.550781 3.570312 0.550781 L 3.546875 0.0273438 L 2.109375 0 L 1.90625 0.136719 L 1.90625 0.578125 C 1.90625 0.578125 1.722656 0.769531 1.085938 1.015625 C 0.449219 1.265625 0.0507812 1.808594 0.0507812 1.808594 C 0.0507812 1.808594 -0.0546875 3.546875 0.0390625 3.902344 C 0.152344 4.34375 0.8125 4.148438 0.8125 4.148438 L 0.972656 5.109375 C 0.972656 5.109375 0.660156 6.050781 0.492188 7.195312 C 0.382812 7.960938 1.039062 9.257812 1.039062 9.257812 L 0.113281 9.257812 L 0.113281 9.75 L 5.074219 9.75 Z M 5.074219 9.257812 "/>
</g>
</svg>
