<?xml version="1.0" encoding="UTF-8"?>
<svg xmlns="http://www.w3.org/2000/svg" xmlns:xlink="http://www.w3.org/1999/xlink" width="9px" height="10px" viewBox="0 0 9 10" version="1.1">
<g id="surface1">
<path style=" stroke:none;fill-rule:nonzero;fill:rgb(30%,30%,30%);fill-opacity:1;" d="M 8.964844 4.714844 C 8.941406 4.625 8.871094 4.5625 8.789062 4.546875 C 8.757812 1.992188 6.882812 0.00390625 4.492188 0.00390625 C 2.121094 0.00390625 0.257812 1.960938 0.195312 4.488281 C 0.121094 4.5 0.0507812 4.550781 0.0195312 4.632812 C -0.03125 4.761719 0.0234375 4.90625 0.136719 4.960938 C 0.800781 5.277344 2.601562 5.417969 4.429688 5.417969 C 6.222656 5.417969 8.035156 5.28125 8.8125 5.027344 C 8.933594 4.988281 9 4.847656 8.964844 4.714844 Z M 0.652344 4.621094 C 0.652344 4.617188 0.652344 4.617188 0.652344 4.617188 C 0.652344 2.308594 2.339844 0.5 4.492188 0.5 C 6.644531 0.5 8.332031 2.308594 8.332031 4.617188 C 8.332031 4.625 8.332031 4.632812 8.335938 4.636719 C 6.644531 4.988281 2.210938 5.027344 0.652344 4.621094 Z M 8.933594 6.890625 C 8.933594 6.890625 8.933594 6.894531 8.929688 6.898438 C 8.929688 6.894531 8.933594 6.890625 8.933594 6.890625 Z M 0.144531 7.300781 C 0.332031 8.09375 0.734375 8.804688 1.230469 9.386719 C 1.382812 9.570312 1.550781 9.738281 1.730469 9.894531 C 2.523438 9.964844 3.46875 9.996094 4.421875 9.996094 C 5.433594 9.996094 6.457031 9.960938 7.304688 9.886719 C 7.484375 9.730469 7.652344 9.5625 7.804688 9.378906 C 8.3125 8.777344 8.699219 8.128906 8.882812 7.304688 L 8.777344 7.285156 C 8.730469 7.285156 8.75 7.292969 8.703125 7.292969 C 8.320312 7.292969 8.007812 7.285156 8.007812 7.089844 C 8.003906 6.886719 8.320312 6.886719 8.703125 6.886719 C 8.78125 6.886719 8.859375 6.886719 8.933594 6.890625 C 9.015625 6.378906 9.023438 5.859375 8.953125 5.34375 C 8.117188 5.5625 6.289062 5.683594 4.484375 5.683594 C 2.632812 5.683594 0.800781 5.554688 0.0820312 5.285156 C 0.046875 5.535156 0.0273438 5.789062 0.0273438 6.042969 C 0.0273438 6.328125 0.0507812 6.609375 0.0976562 6.886719 L 0.148438 6.890625 C 0.261719 6.886719 0.371094 6.886719 0.472656 6.886719 C 0.855469 6.886719 1.167969 6.894531 1.167969 7.089844 C 1.164062 7.285156 0.855469 7.292969 0.472656 7.292969 C 0.402344 7.292969 0.285156 7.292969 0.191406 7.292969 Z M 7.671875 5.90625 C 8.058594 5.90625 8.371094 5.917969 8.367188 6.113281 C 8.367188 6.308594 8.058594 6.316406 7.671875 6.316406 C 7.289062 6.316406 6.980469 6.308594 6.980469 6.113281 C 6.976562 5.90625 7.289062 5.90625 7.671875 5.90625 Z M 5.617188 5.90625 C 6 5.90625 6.3125 5.917969 6.308594 6.113281 C 6.308594 6.308594 6 6.316406 5.617188 6.316406 C 5.230469 6.316406 4.921875 6.308594 4.921875 6.113281 C 4.917969 5.90625 5.230469 5.90625 5.617188 5.90625 Z M 4.585938 6.886719 C 4.972656 6.886719 5.285156 6.894531 5.28125 7.089844 C 5.28125 7.285156 4.972656 7.292969 4.585938 7.292969 C 4.203125 7.292969 3.894531 7.285156 3.894531 7.089844 C 3.890625 6.886719 4.203125 6.886719 4.585938 6.886719 Z M 6.625 6.886719 C 7.007812 6.886719 7.320312 6.894531 7.320312 7.089844 C 7.316406 7.285156 7.007812 7.292969 6.625 7.292969 C 6.242188 7.292969 5.933594 7.285156 5.929688 7.089844 C 5.929688 6.886719 6.242188 6.886719 6.625 6.886719 Z M 3.558594 5.90625 C 3.941406 5.90625 4.253906 5.917969 4.253906 6.113281 C 4.25 6.308594 3.941406 6.316406 3.558594 6.316406 C 3.175781 6.316406 2.867188 6.308594 2.863281 6.113281 C 2.863281 5.90625 3.175781 5.90625 3.558594 5.90625 Z M 3.222656 7.089844 C 3.222656 7.285156 2.914062 7.292969 2.53125 7.292969 C 2.144531 7.292969 1.835938 7.285156 1.835938 7.089844 C 1.832031 6.886719 2.144531 6.886719 2.53125 6.886719 C 2.914062 6.886719 3.226562 6.894531 3.222656 7.089844 Z M 1.5 5.90625 C 1.882812 5.90625 2.199219 5.917969 2.195312 6.113281 C 2.195312 6.308594 1.882812 6.316406 1.5 6.316406 C 1.117188 6.316406 0.808594 6.308594 0.804688 6.113281 C 0.804688 5.90625 1.117188 5.90625 1.5 5.90625 Z M 1.5 8.355469 C 1.117188 8.355469 0.808594 8.34375 0.804688 8.148438 C 0.804688 7.945312 1.117188 7.945312 1.5 7.945312 C 1.882812 7.945312 2.199219 7.953125 2.195312 8.148438 C 2.195312 8.34375 1.882812 8.355469 1.5 8.355469 Z M 2.53125 9.332031 C 2.144531 9.332031 1.835938 9.324219 1.835938 9.128906 C 1.832031 8.925781 2.144531 8.925781 2.53125 8.925781 C 2.914062 8.925781 3.226562 8.933594 3.222656 9.128906 C 3.222656 9.324219 2.914062 9.332031 2.53125 9.332031 Z M 2.863281 8.148438 C 2.863281 7.945312 3.175781 7.945312 3.558594 7.945312 C 3.941406 7.945312 4.253906 7.953125 4.253906 8.148438 C 4.25 8.34375 3.941406 8.355469 3.558594 8.355469 C 3.175781 8.355469 2.867188 8.34375 2.863281 8.148438 Z M 4.585938 9.332031 C 4.203125 9.332031 3.894531 9.324219 3.894531 9.128906 C 3.890625 8.925781 4.203125 8.925781 4.585938 8.925781 C 4.972656 8.925781 5.285156 8.933594 5.28125 9.128906 C 5.28125 9.324219 4.972656 9.332031 4.585938 9.332031 Z M 6.710938 9.332031 C 6.324219 9.332031 6.015625 9.324219 6.015625 9.128906 C 6.011719 8.925781 6.324219 8.925781 6.710938 8.925781 C 7.09375 8.925781 7.40625 8.933594 7.402344 9.128906 C 7.402344 9.324219 7.09375 9.332031 6.710938 9.332031 Z M 4.921875 8.148438 C 4.917969 7.945312 5.230469 7.945312 5.617188 7.945312 C 6 7.945312 6.3125 7.953125 6.308594 8.148438 C 6.308594 8.34375 6 8.355469 5.617188 8.355469 C 5.230469 8.355469 4.921875 8.34375 4.921875 8.148438 Z M 7.671875 8.355469 C 7.289062 8.355469 6.980469 8.34375 6.980469 8.148438 C 6.976562 7.945312 7.289062 7.945312 7.671875 7.945312 C 8.058594 7.945312 8.371094 7.953125 8.367188 8.148438 C 8.367188 8.34375 8.058594 8.355469 7.671875 8.355469 Z M 7.671875 8.355469 "/>
</g>
</svg>
