<?xml version="1.0" encoding="UTF-8" standalone="no"?>
<!-- Created with Inkscape (http://www.inkscape.org/) -->

<svg
   xmlns:dc="http://purl.org/dc/elements/1.1/"
   xmlns:cc="http://creativecommons.org/ns#"
   xmlns:rdf="http://www.w3.org/1999/02/22-rdf-syntax-ns#"
   xmlns:svg="http://www.w3.org/2000/svg"
   xmlns="http://www.w3.org/2000/svg"
   xmlns:xlink="http://www.w3.org/1999/xlink"
   xmlns:sodipodi="http://sodipodi.sourceforge.net/DTD/sodipodi-0.dtd"
   xmlns:inkscape="http://www.inkscape.org/namespaces/inkscape"
   width="30px"
   height="30px"
   version="1.1"
   id="svg8"
   inkscape:version="0.92.4 5da689c313, 2019-01-14"
   sodipodi:docname="container.svg">
  <defs
     id="defs2" />
  <sodipodi:namedview
     id="base"
     pagecolor="#ffffff"
     bordercolor="#666666"
     borderopacity="1.0"
     inkscape:pageopacity="0.0"
     inkscape:pageshadow="2"
     inkscape:zoom="13.049334"
     inkscape:cx="18.679046"
     inkscape:cy="12.165829"
     inkscape:document-units="px"
     inkscape:current-layer="layer1"
     showgrid="false"
     inkscape:snap-page="false"
     units="px"
     inkscape:window-width="1884"
     inkscape:window-height="1061"
     inkscape:window-x="0"
     inkscape:window-y="0"
     inkscape:window-maximized="1"
     fit-margin-top="0"
     fit-margin-left="0"
     fit-margin-right="0"
     fit-margin-bottom="0" />
  <metadata
     id="metadata5">
    <rdf:RDF>
      <cc:Work
         rdf:about="">
        <dc:format>image/svg+xml</dc:format>
        <dc:type
           rdf:resource="http://purl.org/dc/dcmitype/StillImage" />
        <dc:title></dc:title>
      </cc:Work>
    </rdf:RDF>
  </metadata>
    <circle
       style="color:#000000;clip-rule:nonzero;display:inline;overflow:visible;visibility:visible;opacity:1;isolation:auto;mix-blend-mode:normal;color-interpolation:sRGB;color-interpolation-filters:linearRGB;solid-color:#000000;solid-opacity:1;vector-effect:none;fill:#F25C05;fill-opacity:1;fill-rule:evenodd;stroke:#ffffff;stroke-width:1;stroke-linecap:butt;stroke-linejoin:miter;stroke-miterlimit:4;stroke-dasharray:none;stroke-dashoffset:0;stroke-opacity:1;marker:none;color-rendering:auto;image-rendering:auto;shape-rendering:auto;text-rendering:auto;enable-background:accumulate"
       id="path815"
       cx="15"
       cy="15"
       r="14.5" />
<g transform="translate(7,7)"><g id="surface1">
<path style=" stroke:none;fill-rule:nonzero;fill:#FFFFFF;fill-opacity:1;" d="M 9.699219 3.976562 L 9.234375 6.265625 C 9.234375 6.265625 11.664062 7.304688 12.125 7.457031 C 12.488281 7.578125 13.398438 7.855469 14.992188 7.929688 C 15.191406 7.9375 15.378906 7.832031 15.4375 7.628906 L 16 5.75 C 16 5.75 11.460938 4.070312 10.769531 4.007812 C 9.871094 3.929688 9.699219 3.976562 9.699219 3.976562 Z M 9.699219 3.976562 "/>
<path style=" stroke:none;fill-rule:nonzero;fill:#FFFFFF;fill-opacity:1;" d="M 11.144531 7.761719 C 11.144531 7.761719 11.808594 8.097656 11.953125 8.128906 C 12.097656 8.160156 12.558594 8.128906 12.558594 8.128906 L 10.796875 14.933594 C 10.796875 14.933594 10.101562 15.054688 9.957031 14.964844 C 9.8125 14.875 9.4375 14.507812 9.4375 14.507812 Z M 11.144531 7.761719 "/>
<path style=" stroke:none;fill-rule:nonzero;fill:#FFFFFF;fill-opacity:1;" d="M 5.355469 8.582031 L 8.507812 6.996094 C 8.507812 6.996094 8.824219 7.117188 9.054688 6.964844 C 9.160156 6.894531 9.113281 6.140625 8.738281 5.683594 C 8.425781 5.304688 8.074219 5.46875 8.128906 5.742188 C 8.175781 5.953125 4.835938 7.390625 4.835938 7.390625 L 4.113281 8.613281 Z M 5.355469 8.582031 "/>
<path style=" stroke:none;fill-rule:nonzero;fill:#FFFFFF;fill-opacity:1;" d="M 7.378906 13.886719 L 6.316406 13.886719 C 6.316406 13.886719 7.550781 11.480469 6.949219 9.4375 C 6.9375 9.246094 6.824219 8.9375 6.679688 8.605469 C 6.269531 8.785156 5.78125 8.992188 5.703125 9.007812 C 5.558594 9.039062 3.535156 9.070312 3.535156 9.070312 L 4.894531 6.871094 L 5.945312 6.390625 C 5.960938 6.15625 6 5.898438 6.082031 5.660156 C 6.15625 5.453125 6.261719 5.292969 6.417969 5.234375 C 6.75 5.109375 7.132812 4.53125 7.28125 3.914062 C 7.425781 3.296875 7.261719 2.472656 7.246094 2.019531 C 7.214844 1.113281 5.191406 0.824219 5.191406 0.824219 L 5.15625 0.0429688 L 3.070312 0 L 2.773438 0.207031 L 2.773438 0.867188 C 2.773438 0.867188 2.507812 1.15625 1.578125 1.527344 C 0.652344 1.894531 0.0742188 2.710938 0.0742188 2.710938 C 0.0742188 2.710938 -0.078125 5.320312 0.0546875 5.855469 C 0.222656 6.511719 1.179688 6.222656 1.179688 6.222656 L 1.414062 7.664062 C 1.414062 7.664062 0.957031 9.078125 0.71875 10.796875 C 0.558594 11.9375 1.511719 13.886719 1.511719 13.886719 L 0.164062 13.886719 L 0.164062 14.625 L 7.378906 14.625 Z M 7.378906 13.886719 "/>
</g>
</g>
</svg>
