<?xml version="1.0" encoding="UTF-8"?>
<svg xmlns="http://www.w3.org/2000/svg" xmlns:xlink="http://www.w3.org/1999/xlink" width="5px" height="11px" viewBox="0 0 5 11" version="1.1">
<g id="surface1">
<path style=" stroke:none;fill-rule:nonzero;fill:rgb(30%,30%,30%);fill-opacity:1;" d="M 1.90625 10.902344 C 2.167969 10.914062 2.324219 11 2.164062 11 L 0.140625 11 C -0.0234375 11 0.09375 10.914062 0.355469 10.902344 C 0.617188 10.894531 0.933594 10.789062 0.933594 10.136719 C 0.933594 9.480469 0.914062 9.265625 0.914062 8.824219 C 0.914062 8.386719 0.675781 8.421875 0.367188 8.105469 C 0.0546875 7.789062 -0.0546875 7.429688 0.0273438 6.796875 C 0.0820312 6.378906 0.140625 6.039062 0.175781 5.851562 C 0.191406 5.765625 0.269531 5.699219 0.359375 5.699219 L 1.945312 5.699219 C 2.03125 5.699219 2.109375 5.765625 2.125 5.851562 C 2.160156 6.035156 2.21875 6.378906 2.273438 6.796875 C 2.359375 7.429688 2.246094 7.789062 1.9375 8.105469 C 1.628906 8.421875 1.390625 8.386719 1.390625 8.824219 C 1.390625 9.265625 1.371094 9.480469 1.371094 10.136719 C 1.371094 10.789062 1.640625 10.894531 1.90625 10.902344 Z M 5 10.691406 C 5 10.855469 4.867188 10.988281 4.699219 10.988281 L 2.945312 10.988281 C 2.78125 10.988281 2.644531 10.855469 2.644531 10.691406 L 2.644531 4.070312 C 2.644531 3.90625 2.734375 3.671875 2.839844 3.546875 L 3.316406 3 C 3.382812 2.925781 3.421875 2.824219 3.421875 2.722656 L 3.421875 0.675781 C 3.421875 0.660156 3.410156 0.648438 3.394531 0.648438 C 3.378906 0.648438 3.367188 0.636719 3.367188 0.621094 L 3.367188 0.1875 C 3.367188 0.0820312 3.449219 0 3.550781 0 L 4.089844 0 C 4.195312 0 4.277344 0.0820312 4.277344 0.1875 L 4.277344 0.621094 C 4.277344 0.636719 4.265625 0.648438 4.25 0.648438 C 4.234375 0.648438 4.222656 0.660156 4.222656 0.675781 L 4.222656 2.722656 C 4.222656 2.824219 4.257812 2.921875 4.328125 3 L 4.804688 3.546875 C 4.910156 3.671875 5 3.90625 5 4.070312 Z M 5 10.691406 "/>
</g>
</svg>
