<?xml version="1.0" encoding="UTF-8"?>
<svg xmlns="http://www.w3.org/2000/svg" xmlns:xlink="http://www.w3.org/1999/xlink" width="11px" height="11px" viewBox="0 0 11 11" version="1.1">
<g id="surface1">
<path style=" stroke:none;fill-rule:nonzero;fill:rgb(30%,30%,30%);fill-opacity:1;" d="M 10.882812 7.308594 L 10.410156 7.308594 C 10.34375 6.285156 10.132812 5.539062 9.886719 5.539062 C 9.882812 5.539062 9.878906 5.539062 9.871094 5.542969 C 9.878906 5.539062 9.882812 5.539062 9.886719 5.539062 L 8.382812 5.539062 C 8.132812 5.539062 7.925781 6.285156 7.859375 7.308594 L 7.644531 7.308594 L 7.679688 3.578125 L 10.195312 1.742188 L 10.191406 1.742188 C 10.191406 1.742188 10.195312 1.738281 10.195312 1.734375 L 10.195312 0.183594 C 10.195312 0.0820312 8.671875 0.00390625 6.796875 0.00390625 C 4.917969 0.00390625 3.398438 0.0820312 3.398438 0.183594 L 3.398438 1.734375 C 3.398438 1.738281 3.398438 1.742188 3.402344 1.742188 L 3.398438 1.742188 L 5.894531 3.578125 L 5.898438 7.308594 L 5.265625 7.308594 L 5.265625 5.902344 L 5.792969 4.429688 L 0.84375 4.449219 L 0 6.050781 L 0 10.996094 L 5.265625 10.996094 L 5.265625 8.65625 L 5.902344 8.65625 L 5.90625 10.949219 C 5.90625 10.972656 6.289062 10.996094 6.757812 10.996094 C 7.226562 10.996094 7.605469 10.972656 7.605469 10.949219 L 7.628906 8.660156 L 7.859375 8.660156 C 7.921875 9.6875 8.132812 10.4375 8.382812 10.4375 L 9.886719 10.4375 C 9.882812 10.4375 9.878906 10.4375 9.871094 10.433594 C 9.878906 10.4375 9.882812 10.4375 9.886719 10.4375 C 10.132812 10.4375 10.34375 9.6875 10.410156 8.667969 L 10.882812 8.667969 C 10.945312 8.667969 11 8.363281 11 7.988281 C 11 7.613281 10.945312 7.308594 10.882812 7.308594 Z M 10 6.496094 C 10.046875 6.765625 10.078125 7.035156 10.09375 7.308594 L 9.679688 7.308594 C 9.695312 7.035156 9.726562 6.765625 9.773438 6.496094 C 9.8125 6.285156 9.851562 6.136719 9.886719 6.035156 C 9.921875 6.136719 9.960938 6.285156 10 6.496094 Z M 9.867188 5.542969 C 9.867188 5.542969 9.863281 5.542969 9.859375 5.542969 C 9.863281 5.542969 9.867188 5.542969 9.867188 5.542969 Z M 9.855469 5.542969 C 9.851562 5.546875 9.847656 5.546875 9.847656 5.546875 C 9.847656 5.546875 9.851562 5.546875 9.855469 5.542969 Z M 9.84375 5.546875 C 9.839844 5.550781 9.835938 5.550781 9.832031 5.550781 C 9.835938 5.550781 9.839844 5.550781 9.84375 5.546875 Z M 9.828125 5.554688 C 9.824219 5.554688 9.820312 5.558594 9.816406 5.558594 C 9.820312 5.558594 9.824219 5.554688 9.828125 5.554688 Z M 9.816406 5.5625 C 9.8125 5.5625 9.808594 5.566406 9.804688 5.566406 C 9.808594 5.566406 9.8125 5.5625 9.816406 5.5625 Z M 9.800781 5.570312 C 9.796875 5.574219 9.792969 5.574219 9.792969 5.578125 C 9.792969 5.574219 9.796875 5.574219 9.800781 5.570312 Z M 9.785156 5.582031 C 9.785156 5.582031 9.78125 5.585938 9.777344 5.585938 C 9.78125 5.585938 9.785156 5.582031 9.785156 5.582031 Z M 9.773438 5.589844 C 9.773438 5.59375 9.769531 5.597656 9.765625 5.601562 C 9.769531 5.597656 9.773438 5.59375 9.773438 5.589844 Z M 9.363281 7.304688 L 9.363281 7.308594 Z M 9.761719 5.605469 C 9.757812 5.609375 9.753906 5.613281 9.75 5.617188 C 9.753906 5.613281 9.757812 5.609375 9.761719 5.605469 Z M 9.746094 5.621094 C 9.742188 5.625 9.742188 5.628906 9.738281 5.632812 C 9.742188 5.628906 9.742188 5.625 9.746094 5.621094 Z M 9.734375 5.636719 C 9.730469 5.640625 9.730469 5.644531 9.726562 5.648438 C 9.730469 5.644531 9.730469 5.640625 9.734375 5.636719 Z M 9.722656 5.652344 C 9.71875 5.65625 9.714844 5.660156 9.714844 5.664062 C 9.714844 5.660156 9.71875 5.65625 9.722656 5.652344 Z M 9.710938 5.671875 C 9.707031 5.675781 9.703125 5.679688 9.699219 5.6875 C 9.703125 5.679688 9.707031 5.675781 9.710938 5.671875 Z M 9.699219 5.691406 C 9.695312 5.695312 9.691406 5.703125 9.6875 5.707031 C 9.691406 5.703125 9.695312 5.695312 9.699219 5.691406 Z M 9.683594 5.714844 C 9.679688 5.71875 9.679688 5.726562 9.675781 5.730469 C 9.679688 5.726562 9.679688 5.71875 9.683594 5.714844 Z M 9.671875 5.738281 C 9.667969 5.742188 9.667969 5.746094 9.664062 5.75 C 9.667969 5.746094 9.667969 5.742188 9.671875 5.738281 Z M 9.660156 5.761719 C 9.65625 5.765625 9.65625 5.769531 9.652344 5.773438 C 9.65625 5.769531 9.65625 5.765625 9.660156 5.761719 Z M 9.648438 5.785156 C 9.644531 5.792969 9.640625 5.796875 9.640625 5.804688 C 9.640625 5.796875 9.644531 5.792969 9.648438 5.785156 Z M 9.636719 5.816406 C 9.632812 5.820312 9.628906 5.828125 9.628906 5.832031 C 9.628906 5.828125 9.632812 5.820312 9.636719 5.816406 Z M 9.621094 5.84375 C 9.621094 5.847656 9.617188 5.855469 9.617188 5.859375 C 9.617188 5.855469 9.621094 5.847656 9.621094 5.84375 Z M 9.613281 5.871094 C 9.609375 5.875 9.609375 5.882812 9.605469 5.886719 C 9.609375 5.882812 9.609375 5.875 9.613281 5.871094 Z M 9.601562 5.898438 C 9.601562 5.90625 9.597656 5.910156 9.597656 5.914062 C 9.597656 5.910156 9.601562 5.90625 9.601562 5.898438 Z M 9.589844 5.929688 C 9.589844 5.9375 9.585938 5.945312 9.582031 5.957031 C 9.585938 5.945312 9.589844 5.9375 9.589844 5.929688 Z M 9.578125 5.96875 C 9.574219 5.976562 9.574219 5.980469 9.574219 5.988281 C 9.574219 5.980469 9.574219 5.976562 9.578125 5.96875 Z M 9.566406 6.003906 C 9.566406 6.007812 9.5625 6.011719 9.5625 6.019531 C 9.5625 6.011719 9.566406 6.007812 9.566406 6.003906 Z M 9.558594 6.035156 C 9.554688 6.039062 9.554688 6.046875 9.554688 6.050781 C 9.554688 6.046875 9.554688 6.039062 9.558594 6.035156 Z M 9.546875 6.066406 C 9.546875 6.074219 9.546875 6.078125 9.542969 6.085938 C 9.546875 6.078125 9.546875 6.074219 9.546875 6.066406 Z M 9.535156 6.117188 C 9.535156 6.121094 9.53125 6.128906 9.53125 6.132812 C 9.53125 6.128906 9.535156 6.121094 9.535156 6.117188 Z M 9.527344 6.152344 C 9.523438 6.160156 9.523438 6.164062 9.523438 6.167969 C 9.523438 6.164062 9.523438 6.160156 9.527344 6.152344 Z M 9.515625 6.1875 C 9.515625 6.195312 9.515625 6.199219 9.511719 6.203125 C 9.515625 6.199219 9.515625 6.195312 9.515625 6.1875 Z M 9.507812 6.226562 C 9.507812 6.230469 9.503906 6.234375 9.503906 6.242188 C 9.503906 6.234375 9.507812 6.230469 9.507812 6.226562 Z M 9.5 6.261719 C 9.5 6.269531 9.496094 6.273438 9.496094 6.277344 C 9.496094 6.273438 9.5 6.269531 9.5 6.261719 Z M 9.484375 6.324219 C 9.484375 6.328125 9.484375 6.332031 9.484375 6.335938 C 9.484375 6.332031 9.484375 6.328125 9.484375 6.324219 Z M 9.480469 6.359375 C 9.476562 6.367188 9.476562 6.371094 9.476562 6.375 C 9.476562 6.371094 9.476562 6.367188 9.480469 6.359375 Z M 9.472656 6.402344 C 9.46875 6.40625 9.46875 6.410156 9.46875 6.414062 C 9.46875 6.410156 9.46875 6.40625 9.472656 6.402344 Z M 9.464844 6.441406 C 9.464844 6.445312 9.460938 6.449219 9.460938 6.457031 C 9.460938 6.449219 9.464844 6.445312 9.464844 6.441406 Z M 9.445312 6.550781 C 9.445312 6.554688 9.445312 6.558594 9.441406 6.5625 C 9.445312 6.558594 9.445312 6.554688 9.445312 6.550781 Z M 9.4375 6.589844 C 9.4375 6.597656 9.4375 6.601562 9.4375 6.605469 C 9.4375 6.601562 9.4375 6.597656 9.4375 6.589844 Z M 9.433594 6.636719 C 9.429688 6.640625 9.429688 6.644531 9.429688 6.648438 C 9.429688 6.644531 9.429688 6.640625 9.433594 6.636719 Z M 9.425781 6.679688 C 9.425781 6.683594 9.425781 6.6875 9.425781 6.691406 C 9.425781 6.6875 9.425781 6.683594 9.425781 6.679688 Z M 9.410156 6.800781 C 9.410156 6.804688 9.410156 6.804688 9.410156 6.808594 C 9.410156 6.804688 9.410156 6.804688 9.410156 6.800781 Z M 9.40625 6.84375 C 9.402344 6.847656 9.402344 6.851562 9.402344 6.855469 C 9.402344 6.851562 9.402344 6.847656 9.40625 6.84375 Z M 9.398438 6.890625 C 9.398438 6.894531 9.398438 6.898438 9.398438 6.902344 C 9.398438 6.898438 9.398438 6.894531 9.398438 6.890625 Z M 9.394531 6.9375 C 9.394531 6.9375 9.394531 6.941406 9.394531 6.941406 C 9.394531 6.941406 9.394531 6.9375 9.394531 6.9375 Z M 9.382812 7.066406 C 9.382812 7.070312 9.378906 7.074219 9.378906 7.078125 C 9.378906 7.074219 9.382812 7.070312 9.382812 7.066406 Z M 9.378906 7.113281 C 9.375 7.117188 9.375 7.121094 9.375 7.125 C 9.375 7.121094 9.375 7.117188 9.378906 7.113281 Z M 9.375 7.160156 C 9.371094 7.164062 9.371094 7.167969 9.371094 7.171875 C 9.371094 7.167969 9.371094 7.164062 9.375 7.160156 Z M 9.363281 8.664062 C 9.363281 8.667969 9.363281 8.667969 9.363281 8.671875 C 9.363281 8.667969 9.363281 8.667969 9.363281 8.664062 Z M 9.765625 10.375 C 9.769531 10.378906 9.773438 10.382812 9.773438 10.382812 C 9.773438 10.382812 9.769531 10.378906 9.765625 10.375 Z M 9.367188 8.746094 C 9.367188 8.75 9.367188 8.757812 9.371094 8.761719 C 9.367188 8.757812 9.367188 8.75 9.367188 8.746094 Z M 9.371094 8.792969 C 9.371094 8.800781 9.371094 8.808594 9.375 8.816406 C 9.371094 8.808594 9.371094 8.800781 9.371094 8.792969 Z M 9.375 8.84375 C 9.375 8.851562 9.375 8.859375 9.378906 8.867188 C 9.375 8.859375 9.375 8.851562 9.375 8.84375 Z M 9.378906 8.894531 C 9.378906 8.902344 9.382812 8.90625 9.382812 8.914062 C 9.382812 8.90625 9.378906 8.902344 9.378906 8.894531 Z M 9.390625 9.019531 C 9.394531 9.027344 9.394531 9.03125 9.394531 9.039062 C 9.394531 9.03125 9.394531 9.027344 9.390625 9.019531 Z M 9.398438 9.066406 C 9.398438 9.074219 9.398438 9.082031 9.398438 9.085938 C 9.398438 9.082031 9.398438 9.074219 9.398438 9.066406 Z M 9.402344 9.117188 C 9.402344 9.121094 9.402344 9.128906 9.40625 9.132812 C 9.402344 9.128906 9.402344 9.121094 9.402344 9.117188 Z M 9.40625 9.164062 C 9.410156 9.167969 9.410156 9.175781 9.410156 9.179688 C 9.410156 9.175781 9.410156 9.167969 9.40625 9.164062 Z M 9.417969 9.238281 C 9.417969 9.242188 9.417969 9.246094 9.417969 9.25 C 9.417969 9.246094 9.417969 9.242188 9.417969 9.238281 Z M 9.421875 9.277344 C 9.425781 9.285156 9.425781 9.289062 9.425781 9.296875 C 9.425781 9.289062 9.425781 9.285156 9.421875 9.277344 Z M 9.429688 9.324219 C 9.429688 9.328125 9.429688 9.335938 9.433594 9.34375 C 9.429688 9.335938 9.429688 9.328125 9.429688 9.324219 Z M 9.4375 9.367188 C 9.4375 9.375 9.4375 9.378906 9.4375 9.386719 C 9.4375 9.378906 9.4375 9.375 9.4375 9.367188 Z M 9.441406 9.410156 C 9.445312 9.417969 9.445312 9.421875 9.445312 9.429688 C 9.445312 9.421875 9.445312 9.417969 9.441406 9.410156 Z M 9.453125 9.476562 C 9.453125 9.480469 9.457031 9.488281 9.457031 9.492188 C 9.457031 9.488281 9.453125 9.480469 9.453125 9.476562 Z M 9.460938 9.515625 C 9.460938 9.523438 9.460938 9.527344 9.464844 9.535156 C 9.460938 9.527344 9.460938 9.523438 9.460938 9.515625 Z M 9.46875 9.558594 C 9.46875 9.5625 9.46875 9.570312 9.472656 9.578125 C 9.46875 9.570312 9.46875 9.5625 9.46875 9.558594 Z M 9.476562 9.597656 C 9.476562 9.605469 9.476562 9.609375 9.480469 9.617188 C 9.476562 9.609375 9.476562 9.605469 9.476562 9.597656 Z M 9.484375 9.636719 C 9.484375 9.644531 9.488281 9.652344 9.488281 9.660156 C 9.488281 9.652344 9.484375 9.644531 9.484375 9.636719 Z M 9.496094 9.695312 C 9.496094 9.699219 9.5 9.707031 9.5 9.710938 C 9.5 9.707031 9.496094 9.699219 9.496094 9.695312 Z M 9.503906 9.734375 C 9.503906 9.738281 9.507812 9.746094 9.507812 9.75 C 9.507812 9.746094 9.503906 9.738281 9.503906 9.734375 Z M 9.511719 9.769531 C 9.515625 9.777344 9.515625 9.78125 9.515625 9.789062 C 9.515625 9.78125 9.515625 9.777344 9.511719 9.769531 Z M 9.519531 9.804688 C 9.523438 9.8125 9.523438 9.820312 9.527344 9.824219 C 9.523438 9.820312 9.523438 9.8125 9.519531 9.804688 Z M 9.53125 9.839844 C 9.53125 9.851562 9.535156 9.863281 9.539062 9.875 C 9.535156 9.863281 9.53125 9.851562 9.53125 9.839844 Z M 9.542969 9.890625 C 9.542969 9.894531 9.546875 9.902344 9.546875 9.910156 C 9.546875 9.902344 9.542969 9.894531 9.542969 9.890625 Z M 9.550781 9.925781 C 9.554688 9.929688 9.554688 9.9375 9.558594 9.941406 C 9.554688 9.9375 9.554688 9.929688 9.550781 9.925781 Z M 9.5625 9.957031 C 9.5625 9.960938 9.566406 9.96875 9.566406 9.972656 C 9.566406 9.96875 9.5625 9.960938 9.5625 9.957031 Z M 9.570312 9.988281 C 9.574219 9.996094 9.578125 10 9.578125 10.007812 C 9.578125 10 9.574219 9.996094 9.570312 9.988281 Z M 9.582031 10.019531 C 9.585938 10.027344 9.589844 10.039062 9.589844 10.046875 C 9.589844 10.039062 9.585938 10.027344 9.582031 10.019531 Z M 9.59375 10.058594 C 9.597656 10.066406 9.601562 10.070312 9.601562 10.078125 C 9.601562 10.070312 9.597656 10.066406 9.59375 10.058594 Z M 9.605469 10.089844 C 9.609375 10.09375 9.609375 10.097656 9.613281 10.105469 C 9.609375 10.097656 9.609375 10.09375 9.605469 10.089844 Z M 9.617188 10.117188 C 9.617188 10.121094 9.621094 10.128906 9.625 10.132812 C 9.621094 10.128906 9.617188 10.121094 9.617188 10.117188 Z M 9.628906 10.144531 C 9.628906 10.152344 9.632812 10.15625 9.636719 10.164062 C 9.632812 10.15625 9.628906 10.152344 9.628906 10.144531 Z M 9.640625 10.171875 C 9.644531 10.179688 9.644531 10.183594 9.648438 10.191406 C 9.644531 10.183594 9.640625 10.179688 9.640625 10.171875 Z M 9.652344 10.199219 C 9.65625 10.207031 9.65625 10.210938 9.660156 10.214844 C 9.65625 10.210938 9.65625 10.207031 9.652344 10.199219 Z M 9.664062 10.226562 C 9.667969 10.230469 9.667969 10.234375 9.671875 10.238281 C 9.667969 10.234375 9.667969 10.230469 9.664062 10.226562 Z M 9.675781 10.246094 C 9.679688 10.25 9.679688 10.257812 9.683594 10.261719 C 9.679688 10.257812 9.679688 10.25 9.675781 10.246094 Z M 9.6875 10.269531 C 9.691406 10.273438 9.695312 10.28125 9.699219 10.285156 C 9.695312 10.28125 9.691406 10.273438 9.6875 10.269531 Z M 9.699219 10.292969 C 9.703125 10.296875 9.707031 10.300781 9.710938 10.304688 C 9.707031 10.300781 9.703125 10.296875 9.699219 10.292969 Z M 9.714844 10.3125 C 9.714844 10.316406 9.71875 10.320312 9.722656 10.324219 C 9.71875 10.320312 9.714844 10.316406 9.714844 10.3125 Z M 9.726562 10.328125 C 9.730469 10.332031 9.730469 10.335938 9.734375 10.339844 C 9.730469 10.335938 9.730469 10.332031 9.726562 10.328125 Z M 9.738281 10.34375 C 9.742188 10.347656 9.746094 10.351562 9.746094 10.355469 C 9.746094 10.351562 9.742188 10.347656 9.738281 10.34375 Z M 9.75 10.359375 C 9.753906 10.363281 9.757812 10.367188 9.761719 10.371094 C 9.757812 10.367188 9.753906 10.363281 9.75 10.359375 Z M 9.859375 10.433594 C 9.863281 10.433594 9.867188 10.433594 9.867188 10.433594 C 9.867188 10.433594 9.863281 10.433594 9.859375 10.433594 Z M 9.777344 10.390625 C 9.78125 10.390625 9.785156 10.394531 9.785156 10.394531 C 9.785156 10.394531 9.78125 10.390625 9.777344 10.390625 Z M 9.792969 10.398438 C 9.792969 10.402344 9.796875 10.402344 9.800781 10.40625 C 9.796875 10.402344 9.792969 10.402344 9.792969 10.398438 Z M 9.804688 10.410156 C 9.808594 10.410156 9.8125 10.414062 9.816406 10.414062 C 9.8125 10.414062 9.808594 10.410156 9.804688 10.410156 Z M 9.816406 10.417969 C 9.820312 10.417969 9.824219 10.421875 9.828125 10.421875 C 9.824219 10.421875 9.820312 10.417969 9.816406 10.417969 Z M 9.832031 10.425781 C 9.835938 10.425781 9.839844 10.425781 9.84375 10.429688 C 9.839844 10.425781 9.835938 10.425781 9.832031 10.425781 Z M 9.847656 10.429688 C 9.847656 10.429688 9.851562 10.429688 9.855469 10.433594 C 9.851562 10.429688 9.847656 10.429688 9.847656 10.429688 Z M 10 9.480469 C 9.960938 9.691406 9.921875 9.835938 9.886719 9.941406 C 9.851562 9.835938 9.8125 9.691406 9.773438 9.480469 C 9.726562 9.210938 9.695312 8.9375 9.675781 8.667969 L 10.09375 8.667969 C 10.078125 8.941406 10.046875 9.210938 10 9.480469 Z M 10 9.480469 "/>
</g>
</svg>
