<?xml version="1.0" encoding="UTF-8"?>
<svg xmlns="http://www.w3.org/2000/svg" xmlns:xlink="http://www.w3.org/1999/xlink" width="10px" height="10px" viewBox="0 0 10 10" version="1.1">
<g id="surface1">
<path style=" stroke:none;fill-rule:nonzero;fill:rgb(30%,30%,30%);fill-opacity:1;" d="M 5.589844 8.777344 L 5.589844 7.148438 L 8.121094 7.148438 C 8.503906 7.148438 8.816406 6.824219 8.816406 6.417969 C 8.816406 6.175781 8.628906 5.980469 8.398438 5.980469 L 1.910156 5.980469 C 1.679688 5.980469 1.492188 6.175781 1.492188 6.417969 C 1.492188 6.824219 1.804688 7.148438 2.183594 7.148438 L 4.574219 7.148438 L 4.574219 8.777344 L 0 8.777344 L 0 10 L 10 10 L 10 8.777344 Z M 5.589844 8.777344 "/>
<path style=" stroke:none;fill-rule:nonzero;fill:rgb(30%,30%,30%);fill-opacity:1;" d="M 6.78125 0.5625 C 6.941406 0.523438 7.089844 0.464844 7.089844 0.371094 C 7.089844 0.257812 6.816406 0.164062 6.253906 0.0898438 C 5.84375 0.0351562 5.339844 0 4.972656 0 C 4.605469 0 4.101562 0.0351562 3.691406 0.0898438 C 3.128906 0.164062 2.859375 0.257812 2.859375 0.371094 C 2.859375 0.460938 2.996094 0.519531 3.15625 0.558594 C 4.332031 2.195312 1.902344 1.886719 1.902344 2.910156 C 1.902344 4.582031 3.3125 5.957031 5.070312 5.957031 C 6.828125 5.957031 8.269531 4.582031 8.269531 2.910156 C 8.269531 1.867188 5.691406 2.191406 6.78125 0.5625 Z M 3.859375 0.230469 C 4.246094 0.183594 4.707031 0.152344 5.039062 0.152344 C 5.371094 0.152344 5.832031 0.183594 6.214844 0.230469 C 6.71875 0.289062 6.878906 0.351562 6.902344 0.371094 C 6.894531 0.390625 6.800781 0.433594 6.441406 0.472656 C 6.101562 0.511719 5.621094 0.53125 5.054688 0.53125 C 4.496094 0.53125 3.996094 0.511719 3.652344 0.472656 C 3.273438 0.433594 3.183594 0.386719 3.175781 0.371094 C 3.199219 0.351562 3.359375 0.289062 3.859375 0.230469 Z M 6.164062 0.644531 C 6.105469 0.648438 6.046875 0.652344 5.984375 0.65625 C 6.046875 0.652344 6.105469 0.648438 6.164062 0.644531 Z M 6.164062 0.644531 "/>
</g>
</svg>
