<?xml version="1.0" encoding="UTF-8" standalone="no"?>
<!-- Created with Inkscape (http://www.inkscape.org/) -->

<svg
   xmlns:dc="http://purl.org/dc/elements/1.1/"
   xmlns:cc="http://creativecommons.org/ns#"
   xmlns:rdf="http://www.w3.org/1999/02/22-rdf-syntax-ns#"
   xmlns:svg="http://www.w3.org/2000/svg"
   xmlns="http://www.w3.org/2000/svg"
   xmlns:xlink="http://www.w3.org/1999/xlink"
   xmlns:sodipodi="http://sodipodi.sourceforge.net/DTD/sodipodi-0.dtd"
   xmlns:inkscape="http://www.inkscape.org/namespaces/inkscape"
   width="30px"
   height="30px"
   version="1.1"
   id="svg8"
   inkscape:version="0.92.4 5da689c313, 2019-01-14"
   sodipodi:docname="container.svg">
  <defs
     id="defs2" />
  <sodipodi:namedview
     id="base"
     pagecolor="#ffffff"
     bordercolor="#666666"
     borderopacity="1.0"
     inkscape:pageopacity="0.0"
     inkscape:pageshadow="2"
     inkscape:zoom="13.049334"
     inkscape:cx="18.679046"
     inkscape:cy="12.165829"
     inkscape:document-units="px"
     inkscape:current-layer="layer1"
     showgrid="false"
     inkscape:snap-page="false"
     units="px"
     inkscape:window-width="1884"
     inkscape:window-height="1061"
     inkscape:window-x="0"
     inkscape:window-y="0"
     inkscape:window-maximized="1"
     fit-margin-top="0"
     fit-margin-left="0"
     fit-margin-right="0"
     fit-margin-bottom="0" />
  <metadata
     id="metadata5">
    <rdf:RDF>
      <cc:Work
         rdf:about="">
        <dc:format>image/svg+xml</dc:format>
        <dc:type
           rdf:resource="http://purl.org/dc/dcmitype/StillImage" />
        <dc:title></dc:title>
      </cc:Work>
    </rdf:RDF>
  </metadata>
    <circle
       style="color:#000000;clip-rule:nonzero;display:inline;overflow:visible;visibility:visible;opacity:1;isolation:auto;mix-blend-mode:normal;color-interpolation:sRGB;color-interpolation-filters:linearRGB;solid-color:#000000;solid-opacity:1;vector-effect:none;fill:#ffffff;fill-opacity:1;fill-rule:evenodd;stroke:#F25C05;stroke-width:1;stroke-linecap:butt;stroke-linejoin:miter;stroke-miterlimit:4;stroke-dasharray:none;stroke-dashoffset:0;stroke-opacity:1;marker:none;color-rendering:auto;image-rendering:auto;shape-rendering:auto;text-rendering:auto;enable-background:accumulate"
       id="path815"
       cx="15"
       cy="15"
       r="14.5" />
<g transform="translate(7,6)"><g id="surface1">
<path style=" stroke:none;fill-rule:nonzero;fill:rgb(30%,30%,30%);fill-opacity:1;" d="M 14.613281 4.714844 L 11.03125 4.714844 C 11.164062 5.65625 11.25 6.59375 11.25 7.429688 L 11.25 7.609375 C 11.597656 7.714844 11.8125 8.050781 11.757812 8.398438 C 11.699219 8.746094 11.390625 9.003906 11.03125 9.003906 C 10.667969 9.003906 10.359375 8.746094 10.300781 8.398438 C 10.246094 8.050781 10.460938 7.714844 10.808594 7.609375 L 10.808594 7.429688 C 10.808594 6.597656 10.71875 5.660156 10.585938 4.714844 L 7.71875 4.714844 L 7.71875 12.140625 L 10.480469 12.140625 C 10.601562 11.085938 10.703125 10 10.761719 8.996094 L 11.199219 9.019531 C 11.144531 10.019531 11.042969 11.09375 10.921875 12.140625 L 14.65625 12.140625 C 14.882812 10.980469 15 9.730469 15 8.429688 C 15 7.179688 14.871094 5.9375 14.613281 4.714844 Z M 14.613281 4.714844 "/>
<path style=" stroke:none;fill-rule:nonzero;fill:rgb(30%,30%,30%);fill-opacity:1;" d="M 7.28125 4.714844 L 4.117188 4.714844 C 3.898438 7.070312 3.914062 9.699219 4.175781 12.140625 L 7.28125 12.140625 Z M 7.28125 4.714844 "/>
<path style=" stroke:none;fill-rule:nonzero;fill:rgb(30%,30%,30%);fill-opacity:1;" d="M 3.6875 4.714844 L 0.386719 4.714844 C 0.128906 5.9375 0 7.179688 0 8.429688 C 0 9.730469 0.0742188 10.980469 0.25 12.140625 L 3.738281 12.140625 C 3.488281 9.699219 3.46875 7.074219 3.6875 4.714844 Z M 3.6875 4.714844 "/>
<path style=" stroke:none;fill-rule:nonzero;fill:rgb(30%,30%,30%);fill-opacity:1;" d="M 0.402344 12.996094 C 0.722656 14.566406 1.25 15.9375 2.058594 16.996094 L 4.671875 16.996094 C 4.304688 15.820312 4.027344 14.457031 3.835938 12.996094 Z M 0.402344 12.996094 "/>
<path style=" stroke:none;fill-rule:nonzero;fill:rgb(30%,30%,30%);fill-opacity:1;" d="M 7.71875 12.996094 L 7.71875 16.996094 L 9.796875 16.996094 C 9.949219 16.082031 10.175781 14.613281 10.378906 12.996094 Z M 7.71875 12.996094 "/>
<path style=" stroke:none;fill-rule:nonzero;fill:rgb(30%,30%,30%);fill-opacity:1;" d="M 12.648438 16.996094 C 13.457031 15.9375 14.066406 14.566406 14.460938 12.996094 L 10.820312 12.996094 C 10.621094 14.601562 10.398438 16.0625 10.246094 16.996094 Z M 12.648438 16.996094 "/>
<path style=" stroke:none;fill-rule:nonzero;fill:rgb(30%,30%,30%);fill-opacity:1;" d="M 4.273438 12.996094 C 4.46875 14.460938 4.753906 15.828125 5.132812 16.996094 L 7.28125 16.996094 L 7.28125 12.996094 Z M 4.273438 12.996094 "/>
<path style=" stroke:none;fill-rule:nonzero;fill:rgb(30%,30%,30%);fill-opacity:1;" d="M 14.40625 3.859375 C 14.007812 2.398438 13.425781 1.089844 12.707031 0.00390625 L 10.085938 0.00390625 C 10.324219 0.960938 10.652344 2.375 10.898438 3.859375 Z M 14.40625 3.859375 "/>
<path style=" stroke:none;fill-rule:nonzero;fill:rgb(30%,30%,30%);fill-opacity:1;" d="M 10.453125 3.859375 C 10.199219 2.363281 9.867188 0.9375 9.632812 0.00390625 L 7.71875 0.00390625 L 7.71875 3.859375 Z M 10.453125 3.859375 "/>
<path style=" stroke:none;fill-rule:nonzero;fill:rgb(30%,30%,30%);fill-opacity:1;" d="M 7.28125 3.859375 L 7.28125 0.00390625 L 5.035156 0.00390625 C 4.664062 1.0625 4.386719 2.390625 4.207031 3.859375 Z M 7.28125 3.859375 "/>
<path style=" stroke:none;fill-rule:nonzero;fill:rgb(30%,30%,30%);fill-opacity:1;" d="M 2.292969 0.00390625 C 1.574219 1.089844 0.992188 2.398438 0.59375 3.859375 L 3.777344 3.859375 C 3.949219 2.402344 4.21875 1.078125 4.574219 0.00390625 Z M 2.292969 0.00390625 "/>
<path style="fill-rule:nonzero;fill:rgb(30%,30%,30%);fill-opacity:1;stroke-width:15;stroke-linecap:butt;stroke-linejoin:miter;stroke:rgb(100%,100%,100%);stroke-opacity:1;stroke-miterlimit:10;" d="M 598.054688 434.143612 C 598.054688 454.868107 581.320312 471.488741 560.601562 471.488741 C 539.882812 471.488741 523.148438 454.868107 523.148438 434.143612 C 523.148438 413.419118 539.882812 396.59329 560.601562 396.59329 C 581.320312 396.59329 598.054688 413.419118 598.054688 434.143612 Z M 598.054688 434.143612 " transform="matrix(0.0196078,0,0,0.019037,0,0.00475924)"/>
</g>
</g>
</svg>
