<?xml version="1.0" encoding="UTF-8"?>
<svg xmlns="http://www.w3.org/2000/svg" xmlns:xlink="http://www.w3.org/1999/xlink" width="9px" height="10px" viewBox="0 0 9 10" version="1.1">
<g id="surface1">
<path style=" stroke:none;fill-rule:nonzero;fill:rgb(30%,30%,30%);fill-opacity:1;" d="M 8.765625 2.773438 L 6.617188 2.773438 C 6.699219 3.328125 6.75 3.878906 6.75 4.371094 L 6.75 4.476562 C 6.957031 4.539062 7.085938 4.734375 7.054688 4.941406 C 7.019531 5.144531 6.835938 5.296875 6.617188 5.296875 C 6.398438 5.296875 6.214844 5.144531 6.179688 4.941406 C 6.148438 4.734375 6.277344 4.539062 6.484375 4.476562 L 6.484375 4.371094 C 6.484375 3.878906 6.433594 3.328125 6.351562 2.773438 L 4.632812 2.773438 L 4.632812 7.140625 L 6.289062 7.140625 C 6.359375 6.519531 6.421875 5.882812 6.457031 5.289062 L 6.71875 5.304688 C 6.6875 5.894531 6.625 6.527344 6.554688 7.140625 L 8.792969 7.140625 C 8.929688 6.457031 9 5.722656 9 4.957031 C 9 4.222656 8.921875 3.492188 8.765625 2.773438 Z M 8.765625 2.773438 "/>
<path style=" stroke:none;fill-rule:nonzero;fill:rgb(30%,30%,30%);fill-opacity:1;" d="M 4.367188 2.773438 L 2.46875 2.773438 C 2.339844 4.15625 2.347656 5.707031 2.503906 7.140625 L 4.367188 7.140625 Z M 4.367188 2.773438 "/>
<path style=" stroke:none;fill-rule:nonzero;fill:rgb(30%,30%,30%);fill-opacity:1;" d="M 2.210938 2.773438 L 0.234375 2.773438 C 0.078125 3.492188 0 4.222656 0 4.957031 C 0 5.722656 0.046875 6.457031 0.148438 7.140625 L 2.242188 7.140625 C 2.09375 5.707031 2.082031 4.160156 2.210938 2.773438 Z M 2.210938 2.773438 "/>
<path style=" stroke:none;fill-rule:nonzero;fill:rgb(30%,30%,30%);fill-opacity:1;" d="M 0.242188 7.644531 C 0.433594 8.566406 0.75 9.375 1.234375 9.996094 L 2.804688 9.996094 C 2.582031 9.304688 2.414062 8.503906 2.300781 7.644531 Z M 0.242188 7.644531 "/>
<path style=" stroke:none;fill-rule:nonzero;fill:rgb(30%,30%,30%);fill-opacity:1;" d="M 4.632812 7.644531 L 4.632812 9.996094 L 5.878906 9.996094 C 5.96875 9.460938 6.105469 8.597656 6.226562 7.644531 Z M 4.632812 7.644531 "/>
<path style=" stroke:none;fill-rule:nonzero;fill:rgb(30%,30%,30%);fill-opacity:1;" d="M 7.589844 9.996094 C 8.074219 9.375 8.4375 8.566406 8.675781 7.644531 L 6.492188 7.644531 C 6.375 8.589844 6.238281 9.449219 6.148438 9.996094 Z M 7.589844 9.996094 "/>
<path style=" stroke:none;fill-rule:nonzero;fill:rgb(30%,30%,30%);fill-opacity:1;" d="M 2.566406 7.644531 C 2.679688 8.507812 2.851562 9.3125 3.078125 9.996094 L 4.367188 9.996094 L 4.367188 7.644531 Z M 2.566406 7.644531 "/>
<path style=" stroke:none;fill-rule:nonzero;fill:rgb(30%,30%,30%);fill-opacity:1;" d="M 8.644531 2.269531 C 8.40625 1.410156 8.054688 0.640625 7.625 0.00390625 L 6.050781 0.00390625 C 6.195312 0.5625 6.390625 1.398438 6.539062 2.269531 Z M 8.644531 2.269531 "/>
<path style=" stroke:none;fill-rule:nonzero;fill:rgb(30%,30%,30%);fill-opacity:1;" d="M 6.273438 2.269531 C 6.121094 1.390625 5.921875 0.550781 5.78125 0.00390625 L 4.632812 0.00390625 L 4.632812 2.269531 Z M 6.273438 2.269531 "/>
<path style=" stroke:none;fill-rule:nonzero;fill:rgb(30%,30%,30%);fill-opacity:1;" d="M 4.367188 2.269531 L 4.367188 0.00390625 L 3.019531 0.00390625 C 2.796875 0.625 2.632812 1.40625 2.523438 2.269531 Z M 4.367188 2.269531 "/>
<path style=" stroke:none;fill-rule:nonzero;fill:rgb(30%,30%,30%);fill-opacity:1;" d="M 1.375 0.00390625 C 0.945312 0.640625 0.59375 1.410156 0.355469 2.269531 L 2.265625 2.269531 C 2.371094 1.414062 2.53125 0.636719 2.746094 0.00390625 Z M 1.375 0.00390625 "/>
<path style="fill-rule:nonzero;fill:rgb(30%,30%,30%);fill-opacity:1;stroke-width:15;stroke-linecap:butt;stroke-linejoin:miter;stroke:rgb(100%,100%,100%);stroke-opacity:1;stroke-miterlimit:10;" d="M 597.988281 434.041016 C 597.988281 454.621875 581.386719 471.714453 560.46875 471.714453 C 539.882812 471.714453 523.28125 454.621875 523.28125 434.041016 C 523.28125 413.460156 539.882812 396.716406 560.46875 396.716406 C 581.386719 396.716406 597.988281 413.460156 597.988281 434.041016 Z M 597.988281 434.041016 " transform="matrix(0.0117647,0,0,0.0111982,0,0.00279955)"/>
</g>
</svg>
