<?xml version="1.0" encoding="UTF-8"?>
<svg xmlns="http://www.w3.org/2000/svg" xmlns:xlink="http://www.w3.org/1999/xlink" width="11px" height="11px" viewBox="0 0 11 11" version="1.1">
<g id="surface1">
<path style=" stroke:none;fill-rule:nonzero;fill:rgb(30%,30%,30%);fill-opacity:1;" d="M 0.296875 5.449219 L 3.558594 5.449219 L 5.019531 10.996094 Z M 5.566406 10.886719 L 7.074219 5.449219 L 4.199219 5.449219 Z M 6.367188 10.996094 L 10.953125 5.449219 L 7.757812 5.449219 Z M 11 4.878906 L 9.152344 2.699219 L 8.054688 4.878906 Z M 7.507812 4.59375 L 8.625 2.414062 L 6.09375 2.414062 Z M 3.855469 4.59375 L 5.25 2.414062 L 2.714844 2.414062 Z M 0.320312 4.878906 L 3.308594 4.878906 L 2.078125 2.699219 Z M 4.382812 4.878906 L 7.007812 4.878906 L 5.566406 2.964844 Z M 2.054688 1.519531 L 2.671875 0.839844 L 1.738281 0.78125 L 1.261719 0.00390625 L 0.914062 0.839844 L 0 1.039062 L 0.71875 1.617188 L 0.632812 2.515625 L 1.421875 2.035156 L 2.28125 2.390625 Z M 2.054688 1.519531 "/>
</g>
</svg>
