<?xml version="1.0" encoding="UTF-8"?>
<svg xmlns="http://www.w3.org/2000/svg" xmlns:xlink="http://www.w3.org/1999/xlink" width="8px" height="11px" viewBox="0 0 8 11" version="1.1">
<g id="surface1">
<path style=" stroke:none;fill-rule:nonzero;fill:rgb(30%,30%,30%);fill-opacity:1;" d="M 6.15625 2.605469 L 1.820312 2.605469 C 1.691406 2.605469 1.589844 2.507812 1.589844 2.386719 L 1.589844 2.328125 C 1.589844 2.207031 1.691406 2.109375 1.820312 2.109375 L 6.15625 2.109375 C 6.285156 2.109375 6.386719 2.207031 6.386719 2.328125 L 6.386719 2.386719 C 6.386719 2.507812 6.285156 2.605469 6.15625 2.605469 Z M 6.15625 2.605469 "/>
<path style=" stroke:none;fill-rule:nonzero;fill:rgb(30%,30%,30%);fill-opacity:1;" d="M 6.796875 3.363281 L 1.242188 3.363281 C 1.097656 3.363281 0.984375 3.253906 0.980469 3.117188 L 0.980469 3.113281 C 0.984375 2.976562 1.097656 2.867188 1.242188 2.867188 L 6.796875 2.867188 C 6.941406 2.867188 7.058594 2.976562 7.058594 3.113281 L 7.058594 3.117188 C 7.058594 3.253906 6.941406 3.363281 6.796875 3.363281 Z M 6.796875 3.363281 "/>
<path style=" stroke:none;fill-rule:nonzero;fill:rgb(30%,30%,30%);fill-opacity:1;" d="M 7.113281 4.140625 L 0.902344 4.140625 C 0.757812 4.140625 0.640625 4.027344 0.640625 3.890625 C 0.640625 3.753906 0.757812 3.644531 0.902344 3.644531 L 7.113281 3.644531 C 7.261719 3.644531 7.378906 3.753906 7.378906 3.890625 C 7.378906 4.027344 7.261719 4.140625 7.113281 4.140625 Z M 7.113281 4.140625 "/>
<path style=" stroke:none;fill-rule:nonzero;fill:rgb(30%,30%,30%);fill-opacity:1;" d="M 7.105469 8.699219 L 0.890625 8.699219 C 0.742188 8.699219 0.625 8.585938 0.625 8.449219 C 0.625 8.3125 0.742188 8.203125 0.890625 8.203125 L 7.105469 8.203125 C 7.25 8.203125 7.367188 8.3125 7.367188 8.449219 C 7.367188 8.585938 7.25 8.699219 7.105469 8.699219 Z M 7.105469 8.699219 "/>
<path style=" stroke:none;fill-rule:nonzero;fill:rgb(30%,30%,30%);fill-opacity:1;" d="M 6.792969 9.472656 L 1.234375 9.472656 C 1.09375 9.472656 0.976562 9.363281 0.976562 9.230469 L 0.976562 9.222656 C 0.976562 9.085938 1.09375 8.976562 1.234375 8.976562 L 6.792969 8.976562 C 6.933594 8.976562 7.050781 9.085938 7.050781 9.222656 L 7.050781 9.230469 C 7.050781 9.363281 6.933594 9.472656 6.792969 9.472656 Z M 6.792969 9.472656 "/>
<path style=" stroke:none;fill-rule:nonzero;fill:rgb(30%,30%,30%);fill-opacity:1;" d="M 6.15625 10.234375 L 1.820312 10.234375 C 1.691406 10.234375 1.589844 10.136719 1.589844 10.015625 L 1.589844 9.957031 C 1.589844 9.835938 1.691406 9.738281 1.820312 9.738281 L 6.15625 9.738281 C 6.285156 9.738281 6.386719 9.835938 6.386719 9.957031 L 6.386719 10.015625 C 6.386719 10.136719 6.285156 10.234375 6.15625 10.234375 Z M 6.15625 10.234375 "/>
<path style=" stroke:none;fill-rule:nonzero;fill:rgb(30%,30%,30%);fill-opacity:1;" d="M 5.746094 10.996094 L 2.277344 10.996094 C 2.160156 10.996094 2.066406 10.90625 2.066406 10.800781 L 2.066406 10.695312 C 2.066406 10.585938 2.160156 10.5 2.277344 10.5 L 5.746094 10.5 C 5.863281 10.5 5.957031 10.585938 5.957031 10.695312 L 5.957031 10.800781 C 5.957031 10.90625 5.863281 10.996094 5.746094 10.996094 Z M 5.746094 10.996094 "/>
<path style=" stroke:none;fill-rule:nonzero;fill:rgb(30%,30%,30%);fill-opacity:1;" d="M 5.746094 1.914062 L 2.277344 1.914062 C 2.160156 1.914062 2.066406 1.824219 2.066406 1.71875 C 2.117188 1.179688 3.761719 1.367188 3.824219 0.257812 L 3.847656 0.128906 C 3.859375 0.0585938 3.925781 0.00390625 4 0.00390625 C 4.078125 0.00390625 4.144531 0.0585938 4.15625 0.128906 L 4.171875 0.234375 C 4.152344 1.339844 5.953125 1.167969 5.957031 1.71875 C 5.957031 1.824219 5.863281 1.914062 5.746094 1.914062 Z M 5.746094 1.914062 "/>
<path style=" stroke:none;fill-rule:nonzero;fill:rgb(30%,30%,30%);fill-opacity:1;" d="M 0.601562 4.902344 L 7.421875 4.902344 C 7.566406 4.902344 7.683594 4.789062 7.683594 4.652344 C 7.683594 4.515625 7.566406 4.40625 7.421875 4.40625 L 0.601562 4.40625 C 0.453125 4.40625 0.335938 4.515625 0.335938 4.652344 C 0.335938 4.789062 0.453125 4.902344 0.601562 4.902344 Z M 0.601562 4.902344 "/>
<path style=" stroke:none;fill-rule:nonzero;fill:rgb(30%,30%,30%);fill-opacity:1;" d="M 1.808594 5.160156 C 2.050781 5.160156 2.265625 5.347656 2.410156 5.640625 L 7.625 5.640625 C 7.773438 5.640625 7.890625 5.53125 7.890625 5.390625 C 7.890625 5.253906 7.773438 5.144531 7.625 5.144531 L 0.414062 5.144531 C 0.269531 5.144531 0.148438 5.253906 0.148438 5.390625 C 0.148438 5.53125 0.269531 5.640625 0.414062 5.640625 L 1.207031 5.640625 C 1.351562 5.347656 1.570312 5.160156 1.808594 5.160156 Z M 1.808594 5.160156 "/>
<path style=" stroke:none;fill-rule:nonzero;fill:rgb(30%,30%,30%);fill-opacity:1;" d="M 0.265625 5.902344 C 0.117188 5.902344 0 6.015625 0 6.152344 C 0 6.289062 0.117188 6.398438 0.265625 6.398438 L 1.023438 6.398438 C 1.03125 6.230469 1.058594 6.066406 1.105469 5.902344 Z M 0.265625 5.902344 "/>
<path style=" stroke:none;fill-rule:nonzero;fill:rgb(30%,30%,30%);fill-opacity:1;" d="M 8 6.152344 C 8 6.015625 7.882812 5.902344 7.734375 5.902344 L 2.511719 5.902344 C 2.558594 6.066406 2.585938 6.230469 2.59375 6.398438 L 7.734375 6.398438 C 7.878906 6.398438 8 6.289062 8 6.152344 Z M 8 6.152344 "/>
<path style=" stroke:none;fill-rule:nonzero;fill:rgb(30%,30%,30%);fill-opacity:1;" d="M 7.625 7.175781 C 7.769531 7.175781 7.886719 7.066406 7.886719 6.929688 C 7.886719 6.789062 7.769531 6.679688 7.625 6.679688 L 2.589844 6.679688 C 2.582031 6.847656 2.546875 7.015625 2.496094 7.175781 Z M 7.625 7.175781 "/>
<path style=" stroke:none;fill-rule:nonzero;fill:rgb(30%,30%,30%);fill-opacity:1;" d="M 0.378906 6.679688 C 0.234375 6.679688 0.113281 6.789062 0.113281 6.929688 C 0.113281 7.066406 0.234375 7.175781 0.378906 7.175781 L 1.121094 7.175781 C 1.070312 7.015625 1.039062 6.847656 1.027344 6.679688 Z M 0.378906 6.679688 "/>
<path style=" stroke:none;fill-rule:nonzero;fill:rgb(30%,30%,30%);fill-opacity:1;" d="M 1.808594 7.867188 C 1.582031 7.867188 1.378906 7.703125 1.234375 7.441406 L 0.554688 7.441406 C 0.410156 7.441406 0.292969 7.550781 0.292969 7.6875 C 0.292969 7.824219 0.410156 7.9375 0.554688 7.9375 L 7.417969 7.9375 C 7.566406 7.9375 7.683594 7.824219 7.683594 7.6875 C 7.683594 7.550781 7.566406 7.441406 7.417969 7.441406 L 2.382812 7.441406 C 2.238281 7.703125 2.035156 7.867188 1.808594 7.867188 Z M 1.808594 7.867188 "/>
</g>
</svg>
