<?xml version="1.0" encoding="UTF-8" standalone="no"?>
<!-- Created with Inkscape (http://www.inkscape.org/) -->

<svg
   xmlns:dc="http://purl.org/dc/elements/1.1/"
   xmlns:cc="http://creativecommons.org/ns#"
   xmlns:rdf="http://www.w3.org/1999/02/22-rdf-syntax-ns#"
   xmlns:svg="http://www.w3.org/2000/svg"
   xmlns="http://www.w3.org/2000/svg"
   xmlns:xlink="http://www.w3.org/1999/xlink"
   xmlns:sodipodi="http://sodipodi.sourceforge.net/DTD/sodipodi-0.dtd"
   xmlns:inkscape="http://www.inkscape.org/namespaces/inkscape"
   width="30px"
   height="30px"
   version="1.1"
   id="svg8"
   inkscape:version="0.92.4 5da689c313, 2019-01-14"
   sodipodi:docname="container.svg">
  <defs
     id="defs2" />
  <sodipodi:namedview
     id="base"
     pagecolor="#ffffff"
     bordercolor="#666666"
     borderopacity="1.0"
     inkscape:pageopacity="0.0"
     inkscape:pageshadow="2"
     inkscape:zoom="13.049334"
     inkscape:cx="18.679046"
     inkscape:cy="12.165829"
     inkscape:document-units="px"
     inkscape:current-layer="layer1"
     showgrid="false"
     inkscape:snap-page="false"
     units="px"
     inkscape:window-width="1884"
     inkscape:window-height="1061"
     inkscape:window-x="0"
     inkscape:window-y="0"
     inkscape:window-maximized="1"
     fit-margin-top="0"
     fit-margin-left="0"
     fit-margin-right="0"
     fit-margin-bottom="0" />
  <metadata
     id="metadata5">
    <rdf:RDF>
      <cc:Work
         rdf:about="">
        <dc:format>image/svg+xml</dc:format>
        <dc:type
           rdf:resource="http://purl.org/dc/dcmitype/StillImage" />
        <dc:title></dc:title>
      </cc:Work>
    </rdf:RDF>
  </metadata>
    <circle
       style="color:#000000;clip-rule:nonzero;display:inline;overflow:visible;visibility:visible;opacity:1;isolation:auto;mix-blend-mode:normal;color-interpolation:sRGB;color-interpolation-filters:linearRGB;solid-color:#000000;solid-opacity:1;vector-effect:none;fill:#ffffff;fill-opacity:1;fill-rule:evenodd;stroke:#F25C05;stroke-width:1;stroke-linecap:butt;stroke-linejoin:miter;stroke-miterlimit:4;stroke-dasharray:none;stroke-dashoffset:0;stroke-opacity:1;marker:none;color-rendering:auto;image-rendering:auto;shape-rendering:auto;text-rendering:auto;enable-background:accumulate"
       id="path815"
       cx="15"
       cy="15"
       r="14.5" />
<g transform="translate(6,6)"><g id="surface1">
<path style=" stroke:none;fill-rule:nonzero;fill:rgb(30%,30%,30%);fill-opacity:1;" d="M 14.632812 2.671875 C 12.992188 0.945312 10.722656 -0.0195312 8.382812 0.00390625 C 6.066406 0.03125 3.820312 1.054688 2.226562 2.808594 C 0.660156 4.53125 -0.132812 6.804688 0.0195312 9.085938 C 0.0195312 9.089844 0.0195312 9.089844 0.0195312 9.09375 C 0.0546875 10.433594 2.035156 16.167969 2.253906 16.929688 C 2.265625 16.972656 2.304688 17 2.347656 17 L 14.511719 17 C 14.554688 17 14.59375 16.972656 14.605469 16.933594 C 14.835938 16.195312 16.9375 10.28125 16.988281 9.265625 C 17.109375 6.960938 16.234375 4.351562 14.632812 2.671875 Z M 15.550781 9.050781 L 14.96875 9.050781 C 14.9375 9.050781 14.90625 9.035156 14.886719 9.007812 C 14.867188 8.980469 14.867188 8.945312 14.878906 8.914062 C 14.976562 8.695312 15.042969 8.503906 15.0625 8.390625 C 15.117188 8.058594 15.203125 7.148438 14.613281 6.515625 C 14.097656 5.957031 13.28125 5.707031 12.859375 5.652344 C 12.71875 5.636719 12.5 5.535156 12.429688 5.410156 C 12.429688 5.40625 12.425781 5.402344 12.425781 5.398438 C 12.804688 5.039062 13.625 4.242188 13.691406 4.03125 C 13.722656 3.925781 13.617188 3.839844 13.492188 3.753906 C 13.046875 3.453125 12.992188 3.425781 12.921875 4.011719 C 12.90625 4.171875 12.847656 4.328125 12.796875 4.417969 C 12.660156 4.640625 12.539062 4.867188 12.425781 5.101562 C 12.414062 5.132812 12.378906 5.15625 12.34375 5.15625 C 12.308594 5.15625 12.273438 5.140625 12.257812 5.109375 C 12.09375 4.859375 11.875 4.625 11.5625 4.667969 C 11.144531 4.722656 8.484375 5.492188 8.597656 7.480469 C 8.628906 8.0625 8.910156 8.515625 9.285156 8.875 C 9.316406 8.902344 9.324219 8.945312 9.308594 8.980469 C 9.292969 9.015625 9.257812 9.039062 9.21875 9.039062 L 8.460938 9.039062 C 8.433594 9.039062 8.410156 9.027344 8.390625 9.007812 C 8.371094 8.992188 8.363281 8.964844 8.363281 8.941406 C 8.375 8.464844 8.277344 7.984375 8.011719 7.5625 C 7.589844 6.902344 6.621094 6.496094 6.527344 6.402344 C 6.433594 6.3125 6.34375 5.839844 6.238281 5.582031 C 6.226562 5.550781 6.195312 5.527344 6.15625 5.523438 C 6.121094 5.519531 6.085938 5.539062 6.066406 5.570312 C 5.835938 5.941406 5.113281 6.964844 3.582031 7.6875 C 3.375 7.785156 2.972656 7.96875 2.542969 7.980469 C 2.445312 7.980469 2.34375 7.96875 2.261719 7.917969 C 2.089844 7.8125 2.023438 7.757812 1.980469 7.632812 C 2.277344 8.03125 3.390625 7.746094 4.476562 6.992188 C 5.566406 6.238281 6.21875 5.292969 5.925781 4.886719 C 5.636719 4.480469 4.519531 4.765625 3.425781 5.519531 C 3.03125 5.796875 2.664062 6.117188 2.359375 6.488281 C 2.148438 6.75 1.925781 7.0625 1.910156 7.40625 C 1.898438 7.648438 1.988281 7.835938 2.171875 8 C 2.414062 8.21875 2.847656 8.167969 2.863281 8.601562 C 2.867188 8.757812 2.882812 8.898438 2.898438 9.03125 L 1.457031 9.027344 C 1.40625 9.027344 1.359375 8.988281 1.359375 8.933594 C 1.25 7.03125 1.921875 5.136719 3.230469 3.695312 C 4.574219 2.21875 6.457031 1.355469 8.402344 1.328125 C 10.351562 1.304688 12.265625 2.125 13.652344 3.578125 C 14.945312 4.9375 15.660156 7.0625 15.652344 8.953125 C 15.648438 9.007812 15.605469 9.050781 15.550781 9.050781 Z M 15.550781 9.050781 "/>
</g>
</g>
</svg>
