<?xml version="1.0" encoding="UTF-8"?>
<svg xmlns="http://www.w3.org/2000/svg" xmlns:xlink="http://www.w3.org/1999/xlink" width="8px" height="11px" viewBox="0 0 8 11" version="1.1">
<g id="surface1">
<path style=" stroke:none;fill-rule:nonzero;fill:rgb(30%,30%,30%);fill-opacity:1;" d="M 2.460938 0.714844 C 3.335938 0.714844 2.828125 3.015625 2.875 3.503906 C 2.890625 3.691406 2.875 4.164062 2.875 4.476562 C 2.875 4.832031 3.289062 4.832031 3.335938 4.566406 C 3.355469 4.445312 3.429688 3.679688 3.429688 2.484375 C 3.429688 1.820312 3.289062 0.03125 4.074219 0.00390625 C 4.71875 -0.015625 4.71875 0.890625 4.671875 2.660156 C 4.640625 3.839844 4.628906 4.207031 4.628906 4.476562 C 4.628906 4.875 4.910156 4.8125 4.949219 4.652344 C 5.046875 4.265625 5.039062 3.339844 5.132812 2.617188 C 5.230469 1.894531 5.320312 1.378906 5.640625 1.378906 C 6.425781 1.378906 6.332031 2.175781 6.289062 3.457031 C 6.238281 4.832031 6.011719 6.46875 6.011719 6.46875 C 6.011719 6.46875 6.996094 4.558594 7.671875 4.742188 C 7.992188 4.832031 8.097656 5.351562 7.902344 5.847656 C 7.210938 7.621094 6.238281 9.636719 5.363281 10.320312 C 4.351562 11.117188 2.136719 11.425781 1.074219 10.011719 C 0.691406 9.5 0.226562 8.085938 0.0625 6.601562 C -0.125 4.964844 0.105469 2.085938 0.800781 2.085938 C 0.957031 2.085938 1.078125 2.152344 1.121094 2.351562 C 1.285156 3.078125 0.855469 4.832031 1.398438 4.832031 C 2.136719 4.832031 1.167969 0.714844 2.460938 0.714844 Z M 2.460938 0.714844 "/>
</g>
</svg>
