<?xml version="1.0" encoding="UTF-8" standalone="no"?>
<!-- Created with Inkscape (http://www.inkscape.org/) -->

<svg
   xmlns:dc="http://purl.org/dc/elements/1.1/"
   xmlns:cc="http://creativecommons.org/ns#"
   xmlns:rdf="http://www.w3.org/1999/02/22-rdf-syntax-ns#"
   xmlns:svg="http://www.w3.org/2000/svg"
   xmlns="http://www.w3.org/2000/svg"
   xmlns:xlink="http://www.w3.org/1999/xlink"
   xmlns:sodipodi="http://sodipodi.sourceforge.net/DTD/sodipodi-0.dtd"
   xmlns:inkscape="http://www.inkscape.org/namespaces/inkscape"
   width="30px"
   height="30px"
   version="1.1"
   id="svg8"
   inkscape:version="0.92.4 5da689c313, 2019-01-14"
   sodipodi:docname="container.svg">
  <defs
     id="defs2" />
  <sodipodi:namedview
     id="base"
     pagecolor="#ffffff"
     bordercolor="#666666"
     borderopacity="1.0"
     inkscape:pageopacity="0.0"
     inkscape:pageshadow="2"
     inkscape:zoom="13.049334"
     inkscape:cx="18.679046"
     inkscape:cy="12.165829"
     inkscape:document-units="px"
     inkscape:current-layer="layer1"
     showgrid="false"
     inkscape:snap-page="false"
     units="px"
     inkscape:window-width="1884"
     inkscape:window-height="1061"
     inkscape:window-x="0"
     inkscape:window-y="0"
     inkscape:window-maximized="1"
     fit-margin-top="0"
     fit-margin-left="0"
     fit-margin-right="0"
     fit-margin-bottom="0" />
  <metadata
     id="metadata5">
    <rdf:RDF>
      <cc:Work
         rdf:about="">
        <dc:format>image/svg+xml</dc:format>
        <dc:type
           rdf:resource="http://purl.org/dc/dcmitype/StillImage" />
        <dc:title></dc:title>
      </cc:Work>
    </rdf:RDF>
  </metadata>
    <circle
       style="color:#000000;clip-rule:nonzero;display:inline;overflow:visible;visibility:visible;opacity:1;isolation:auto;mix-blend-mode:normal;color-interpolation:sRGB;color-interpolation-filters:linearRGB;solid-color:#000000;solid-opacity:1;vector-effect:none;fill:#ffffff;fill-opacity:1;fill-rule:evenodd;stroke:#F25C05;stroke-width:1;stroke-linecap:butt;stroke-linejoin:miter;stroke-miterlimit:4;stroke-dasharray:none;stroke-dashoffset:0;stroke-opacity:1;marker:none;color-rendering:auto;image-rendering:auto;shape-rendering:auto;text-rendering:auto;enable-background:accumulate"
       id="path815"
       cx="15"
       cy="15"
       r="14.5" />
<g transform="translate(7,7)"><g id="surface1">
<path style=" stroke:none;fill-rule:nonzero;fill:rgb(30%,30%,30%);fill-opacity:1;" d="M 6.164062 0 L 9.03125 0 C 9.03125 0 9.421875 2.449219 11.03125 2.523438 C 12.640625 2.597656 13.230469 1.929688 13.230469 1.929688 L 14.761719 3.972656 C 14.761719 3.972656 12.332031 4.898438 12.289062 8.019531 C 12.25 10.878906 14.996094 11.769531 14.996094 11.769531 L 13.542969 14.179688 C 13.542969 14.179688 11.675781 13.371094 10.011719 14.03125 C 8.519531 14.625 7.617188 16 7.617188 16 C 7.617188 16 6.871094 14.515625 5.261719 13.996094 C 3.652344 13.476562 1.691406 14.144531 1.691406 14.144531 L 0.00390625 11.769531 C 0.00390625 11.769531 2.75 10.730469 2.871094 7.980469 C 3.027344 4.863281 0.476562 4.082031 0.476562 4.082031 L 1.847656 1.894531 C 1.847656 1.894531 3.183594 2.785156 4.242188 2.414062 C 6.285156 1.96875 6.164062 0 6.164062 0 Z M 7.6875 15.019531 C 7.6875 15.015625 7.613281 14.910156 7.480469 14.746094 L 7.203125 14.957031 C 7.324219 15.101562 7.390625 15.199219 7.390625 15.199219 Z M 8.121094 14.730469 L 7.867188 14.496094 C 7.769531 14.589844 7.6875 14.675781 7.621094 14.75 L 7.886719 14.972656 C 7.949219 14.902344 8.027344 14.820312 8.121094 14.730469 Z M 7.304688 14.546875 C 7.222656 14.460938 7.140625 14.378906 7.050781 14.296875 L 6.804688 14.535156 C 6.890625 14.617188 6.96875 14.695312 7.039062 14.769531 Z M 8.558594 14.339844 L 8.332031 14.085938 C 8.234375 14.164062 8.144531 14.242188 8.058594 14.316406 L 8.304688 14.558594 C 8.382812 14.488281 8.46875 14.414062 8.558594 14.339844 Z M 6.851562 14.117188 C 6.761719 14.039062 6.667969 13.964844 6.570312 13.894531 L 6.355469 14.160156 C 6.441406 14.226562 6.53125 14.292969 6.617188 14.367188 Z M 9.039062 13.996094 L 8.835938 13.71875 C 8.734375 13.785156 8.636719 13.855469 8.542969 13.921875 L 8.761719 14.1875 C 8.847656 14.121094 8.941406 14.058594 9.039062 13.996094 Z M 6.304688 13.710938 C 6.203125 13.644531 6.097656 13.582031 5.992188 13.527344 L 5.816406 13.820312 C 5.914062 13.871094 6.011719 13.929688 6.105469 13.988281 Z M 9.597656 13.683594 L 9.4375 13.386719 C 9.332031 13.4375 9.222656 13.492188 9.117188 13.550781 L 9.296875 13.839844 C 9.394531 13.785156 9.496094 13.730469 9.597656 13.683594 Z M 5.746094 13.40625 C 5.632812 13.355469 5.519531 13.308594 5.402344 13.269531 L 5.28125 13.585938 C 5.386719 13.621094 5.488281 13.664062 5.59375 13.710938 Z M 2.566406 13.523438 L 2.492188 13.195312 C 2.34375 13.226562 2.222656 13.253906 2.136719 13.277344 L 2.230469 13.597656 C 2.3125 13.578125 2.425781 13.550781 2.566406 13.523438 Z M 10.144531 13.476562 L 10.039062 13.15625 C 9.917969 13.191406 9.800781 13.230469 9.6875 13.277344 L 9.828125 13.582031 C 9.929688 13.542969 10.035156 13.507812 10.144531 13.476562 Z M 5.136719 13.1875 C 5.023438 13.160156 4.902344 13.132812 4.777344 13.109375 L 4.714844 13.441406 C 4.828125 13.460938 4.9375 13.484375 5.042969 13.511719 Z M 13.316406 13.199219 C 13.316406 13.199219 13.105469 13.140625 12.949219 13.109375 L 12.878906 13.4375 C 13.019531 13.464844 13.101562 13.488281 13.234375 13.503906 Z M 3.214844 13.417969 L 3.171875 13.085938 C 3.042969 13.101562 2.925781 13.117188 2.8125 13.136719 L 2.871094 13.464844 C 2.976562 13.449219 3.09375 13.433594 3.214844 13.417969 Z M 2.082031 13.207031 L 1.917969 12.921875 L 1.609375 13.082031 L 1.769531 13.371094 Z M 10.722656 13.355469 L 10.667969 13.023438 C 10.546875 13.039062 10.421875 13.0625 10.308594 13.089844 L 10.386719 13.414062 C 10.496094 13.390625 10.605469 13.371094 10.722656 13.355469 Z M 4.449219 13.066406 C 4.328125 13.058594 4.207031 13.050781 4.082031 13.046875 L 4.070312 13.378906 C 4.1875 13.382812 4.300781 13.390625 4.410156 13.402344 Z M 3.8125 13.378906 L 3.808594 13.042969 C 3.683594 13.046875 3.5625 13.054688 3.441406 13.0625 L 3.46875 13.394531 C 3.582031 13.386719 3.695312 13.382812 3.8125 13.378906 Z M 12.628906 13.054688 C 12.519531 13.039062 12.398438 13.023438 12.269531 13.007812 L 12.230469 13.339844 C 12.351562 13.355469 12.46875 13.371094 12.570312 13.386719 Z M 11.367188 13.304688 L 11.359375 12.96875 C 11.242188 12.972656 11.121094 12.976562 10.996094 12.988281 L 11.027344 13.320312 C 11.140625 13.3125 11.257812 13.304688 11.367188 13.304688 Z M 11.996094 12.984375 C 11.882812 12.976562 11.757812 12.972656 11.632812 12.96875 L 11.625 13.304688 C 11.746094 13.304688 11.859375 13.3125 11.972656 13.320312 Z M 13.671875 12.816406 L 13.367188 12.648438 L 13.1875 12.9375 L 13.492188 13.105469 Z M 1.78125 12.714844 L 1.582031 12.421875 L 1.269531 12.585938 L 1.472656 12.878906 Z M 13.984375 12.308594 L 13.679688 12.140625 L 13.5 12.429688 L 13.804688 12.597656 Z M 1.382812 12.171875 L 1.179688 11.894531 L 0.871094 12.054688 L 1.070312 12.335938 Z M 14.199219 11.878906 C 14.003906 11.804688 13.910156 11.738281 13.859375 11.683594 L 13.644531 11.929688 C 13.703125 11.992188 13.796875 12.074219 13.996094 12.148438 Z M 1.785156 11.804688 L 1.566406 11.542969 C 1.472656 11.609375 1.382812 11.671875 1.289062 11.730469 L 1.484375 12.007812 C 1.585938 11.949219 1.683594 11.878906 1.785156 11.804688 Z M 13.585938 11.476562 C 13.507812 11.410156 13.421875 11.335938 13.335938 11.253906 L 13.085938 11.488281 C 13.175781 11.578125 13.265625 11.65625 13.347656 11.726562 Z M 2.265625 11.410156 L 2.019531 11.167969 C 1.933594 11.25 1.847656 11.320312 1.765625 11.386719 L 1.996094 11.640625 C 2.082031 11.570312 2.175781 11.496094 2.265625 11.410156 Z M 13.15625 11.074219 C 13.082031 11 13.007812 10.917969 12.929688 10.828125 L 12.65625 11.042969 C 12.738281 11.132812 12.816406 11.222656 12.894531 11.300781 Z M 2.734375 10.921875 L 2.457031 10.714844 C 2.382812 10.800781 2.308594 10.882812 2.234375 10.960938 L 2.496094 11.1875 C 2.578125 11.101562 2.660156 11.011719 2.734375 10.921875 Z M 12.738281 10.597656 C 12.671875 10.511719 12.605469 10.425781 12.539062 10.332031 L 12.246094 10.515625 C 12.3125 10.613281 12.382812 10.707031 12.453125 10.796875 Z M 3.105469 10.429688 L 2.804688 10.25 C 2.746094 10.34375 2.679688 10.433594 2.613281 10.519531 L 2.902344 10.714844 C 2.972656 10.621094 3.039062 10.523438 3.105469 10.429688 Z M 12.402344 10.125 C 12.347656 10.035156 12.292969 9.941406 12.238281 9.84375 L 11.921875 9.996094 C 11.980469 10.097656 12.039062 10.199219 12.101562 10.296875 Z M 3.40625 9.890625 L 3.085938 9.753906 C 3.039062 9.851562 2.984375 9.949219 2.933594 10.042969 L 3.242188 10.203125 C 3.300781 10.101562 3.355469 9.996094 3.40625 9.890625 Z M 12.125 9.625 C 12.078125 9.523438 12.035156 9.425781 11.996094 9.324219 L 11.664062 9.441406 C 11.707031 9.546875 11.753906 9.65625 11.804688 9.761719 Z M 3.648438 9.273438 L 3.308594 9.179688 C 3.277344 9.28125 3.238281 9.386719 3.199219 9.484375 L 3.53125 9.601562 C 3.574219 9.492188 3.613281 9.382812 3.648438 9.273438 Z M 11.902344 9.046875 C 11.867188 8.945312 11.839844 8.839844 11.816406 8.738281 L 11.46875 8.808594 C 11.496094 8.917969 11.527344 9.03125 11.5625 9.144531 Z M 3.78125 8.679688 L 3.429688 8.628906 C 3.414062 8.738281 3.394531 8.84375 3.371094 8.945312 L 3.714844 9.019531 C 3.742188 8.90625 3.765625 8.792969 3.78125 8.679688 Z M 11.769531 8.5 C 11.753906 8.394531 11.738281 8.289062 11.730469 8.179688 L 11.378906 8.207031 C 11.386719 8.320312 11.402344 8.4375 11.421875 8.550781 Z M 3.832031 8.136719 L 3.832031 8.078125 L 3.480469 8.066406 L 3.476562 8.125 C 3.472656 8.214844 3.46875 8.304688 3.460938 8.390625 L 3.8125 8.417969 C 3.824219 8.328125 3.828125 8.230469 3.832031 8.136719 Z M 11.71875 7.9375 L 11.71875 7.871094 C 11.71875 7.78125 11.722656 7.699219 11.722656 7.613281 L 11.371094 7.601562 C 11.367188 7.6875 11.363281 7.777344 11.363281 7.871094 L 11.367188 7.945312 Z M 3.835938 7.765625 C 3.835938 7.648438 3.828125 7.535156 3.820312 7.421875 L 3.46875 7.449219 C 3.476562 7.554688 3.480469 7.660156 3.484375 7.773438 Z M 11.785156 7 L 11.4375 6.949219 C 11.417969 7.058594 11.402344 7.171875 11.390625 7.292969 L 11.746094 7.320312 C 11.753906 7.210938 11.769531 7.105469 11.785156 7 Z M 3.792969 7.164062 C 3.777344 7.050781 3.757812 6.933594 3.734375 6.824219 L 3.386719 6.886719 C 3.40625 6.992188 3.425781 7.101562 3.441406 7.207031 Z M 11.910156 6.449219 L 11.570312 6.359375 C 11.539062 6.46875 11.507812 6.582031 11.484375 6.695312 L 11.832031 6.761719 C 11.855469 6.65625 11.882812 6.550781 11.910156 6.449219 Z M 3.671875 6.570312 C 3.640625 6.457031 3.605469 6.347656 3.566406 6.238281 L 3.230469 6.34375 C 3.269531 6.445312 3.300781 6.546875 3.328125 6.652344 Z M 12.109375 5.917969 L 11.78125 5.785156 C 11.734375 5.890625 11.691406 6 11.652344 6.109375 L 11.988281 6.214844 C 12.023438 6.113281 12.0625 6.011719 12.109375 5.917969 Z M 3.453125 5.945312 C 3.40625 5.835938 3.355469 5.730469 3.304688 5.628906 L 2.984375 5.777344 C 3.035156 5.871094 3.082031 5.972656 3.125 6.070312 Z M 12.40625 5.378906 L 12.109375 5.199219 C 12.042969 5.296875 11.980469 5.398438 11.925781 5.5 L 12.238281 5.65625 C 12.289062 5.5625 12.347656 5.46875 12.40625 5.378906 Z M 3.175781 5.398438 C 3.113281 5.296875 3.050781 5.199219 2.984375 5.101562 L 2.6875 5.285156 C 2.75 5.375 2.8125 5.46875 2.867188 5.5625 Z M 12.761719 4.929688 L 12.496094 4.710938 C 12.414062 4.796875 12.335938 4.886719 12.265625 4.980469 L 12.550781 5.179688 C 12.617188 5.09375 12.6875 5.007812 12.761719 4.929688 Z M 2.824219 4.890625 C 2.753906 4.796875 2.675781 4.707031 2.597656 4.617188 L 2.328125 4.835938 C 2.402344 4.917969 2.472656 5.003906 2.539062 5.089844 Z M 13.1875 4.539062 L 12.960938 4.28125 C 12.867188 4.355469 12.773438 4.4375 12.6875 4.519531 L 12.9375 4.753906 C 13.015625 4.679688 13.097656 4.609375 13.1875 4.539062 Z M 2.375 4.386719 C 2.289062 4.304688 2.203125 4.222656 2.109375 4.148438 L 1.875 4.394531 C 1.957031 4.46875 2.042969 4.542969 2.121094 4.621094 Z M 13.714844 4.199219 L 13.542969 3.90625 C 13.4375 3.960938 13.328125 4.023438 13.226562 4.09375 L 13.429688 4.367188 C 13.523438 4.304688 13.617188 4.25 13.714844 4.199219 Z M 1.902344 3.976562 C 1.800781 3.902344 1.703125 3.832031 1.605469 3.769531 L 1.40625 4.046875 C 1.496094 4.101562 1.585938 4.167969 1.679688 4.238281 Z M 14.132812 3.863281 L 13.894531 3.582031 L 13.640625 3.738281 L 13.890625 4.023438 Z M 1.527344 3.59375 L 1.289062 3.441406 L 1.066406 3.761719 L 1.34375 3.90625 Z M 13.785156 3.347656 L 13.570312 3.035156 L 13.277344 3.226562 L 13.496094 3.539062 Z M 1.945312 3.09375 L 1.714844 2.933594 L 1.515625 3.210938 L 1.746094 3.375 Z M 11.671875 3.289062 L 11.640625 2.957031 C 11.542969 2.964844 11.445312 2.96875 11.351562 2.96875 L 11.304688 2.96875 L 11.296875 3.304688 L 11.351562 3.304688 C 11.457031 3.304688 11.566406 3.296875 11.671875 3.289062 Z M 11.054688 2.957031 C 10.941406 2.945312 10.832031 2.929688 10.71875 2.910156 L 10.652344 3.238281 C 10.773438 3.261719 10.894531 3.277344 11.019531 3.289062 Z M 12.367188 3.160156 L 12.261719 2.839844 C 12.15625 2.871094 12.046875 2.894531 11.9375 2.917969 L 12.003906 3.246094 C 12.125 3.222656 12.246094 3.195312 12.367188 3.160156 Z M 4.347656 3.203125 L 4.277344 2.875 C 4.171875 2.894531 4.0625 2.90625 3.953125 2.910156 L 3.96875 3.242188 C 4.097656 3.238281 4.222656 3.226562 4.347656 3.203125 Z M 3.703125 2.90625 C 3.597656 2.902344 3.484375 2.890625 3.367188 2.878906 L 3.320312 3.210938 C 3.445312 3.226562 3.570312 3.238281 3.6875 3.242188 Z M 10.492188 2.847656 C 10.390625 2.8125 10.296875 2.769531 10.203125 2.71875 L 10.023438 3.003906 C 10.132812 3.066406 10.25 3.121094 10.371094 3.164062 Z M 3.066406 2.828125 C 2.945312 2.804688 2.832031 2.78125 2.730469 2.753906 L 2.640625 3.078125 C 2.746094 3.105469 2.867188 3.132812 2.996094 3.15625 Z M 4.96875 3.035156 L 4.847656 2.71875 C 4.742188 2.753906 4.636719 2.785156 4.527344 2.808594 L 4.609375 3.136719 C 4.730469 3.109375 4.851562 3.074219 4.96875 3.035156 Z M 13.378906 2.722656 L 13.214844 2.464844 L 12.925781 2.65625 L 13.089844 2.914062 Z M 12.96875 2.925781 L 12.804688 2.628906 C 12.703125 2.679688 12.605469 2.722656 12.5 2.761719 L 12.628906 3.074219 C 12.746094 3.03125 12.859375 2.980469 12.96875 2.925781 Z M 2.425781 2.691406 C 2.269531 2.667969 2.1875 2.570312 2.113281 2.519531 L 1.925781 2.777344 C 2.027344 2.847656 2.078125 2.867188 2.234375 2.941406 Z M 5.605469 2.734375 L 5.410156 2.453125 C 5.316406 2.511719 5.222656 2.5625 5.121094 2.609375 L 5.277344 2.910156 C 5.390625 2.859375 5.5 2.796875 5.605469 2.734375 Z M 9.964844 2.558594 C 9.878906 2.492188 9.796875 2.421875 9.722656 2.34375 L 9.464844 2.574219 C 9.550781 2.664062 9.644531 2.742188 9.742188 2.816406 Z M 6.109375 2.332031 L 5.851562 2.101562 C 5.777344 2.175781 5.695312 2.25 5.609375 2.3125 L 5.832031 2.574219 C 5.929688 2.5 6.023438 2.417969 6.109375 2.332031 Z M 9.554688 2.164062 C 9.488281 2.085938 9.417969 2 9.355469 1.910156 L 9.058594 2.09375 C 9.132812 2.195312 9.207031 2.289062 9.28125 2.378906 Z M 6.507812 1.84375 L 6.207031 1.664062 C 6.148438 1.753906 6.085938 1.839844 6.015625 1.921875 L 6.292969 2.132812 C 6.371094 2.039062 6.441406 1.941406 6.507812 1.84375 Z M 9.21875 1.703125 C 9.160156 1.613281 9.105469 1.519531 9.054688 1.417969 L 8.738281 1.570312 C 8.792969 1.675781 8.851562 1.777344 8.914062 1.875 Z M 6.820312 1.242188 L 6.488281 1.125 C 6.449219 1.222656 6.40625 1.320312 6.355469 1.414062 L 6.671875 1.566406 C 6.726562 1.460938 6.777344 1.351562 6.820312 1.242188 Z M 8.9375 1.207031 C 8.859375 1.023438 8.820312 0.917969 8.800781 0.90625 L 8.46875 1.015625 C 8.488281 1.035156 8.53125 1.148438 8.613281 1.339844 Z M 8.410156 0.675781 L 8.054688 0.675781 L 8.054688 1.011719 L 8.410156 1.011719 Z M 7.789062 0.675781 L 7.4375 0.675781 L 7.4375 1.011719 L 7.789062 1.011719 Z M 7.117188 0.675781 L 6.765625 0.675781 L 6.765625 1.011719 L 7.117188 1.011719 Z M 7.117188 0.675781 "/>
</g>
</g>
</svg>
