<?xml version="1.0" encoding="UTF-8"?>
<svg xmlns="http://www.w3.org/2000/svg" xmlns:xlink="http://www.w3.org/1999/xlink" width="7px" height="11px" viewBox="0 0 7 11" version="1.1">
<g id="surface1">
<path style=" stroke:none;fill-rule:nonzero;fill:rgb(30%,30%,30%);fill-opacity:1;" d="M 4.480469 6.128906 L 4.480469 6.058594 C 4.480469 5.738281 4.214844 5.480469 3.886719 5.476562 L 2.414062 5.476562 C 2.085938 5.480469 1.820312 5.738281 1.820312 6.058594 L 1.820312 6.128906 C 1.820312 6.265625 1.863281 6.363281 1.921875 6.585938 L 4.34375 6.585938 C 4.433594 6.363281 4.480469 6.265625 4.480469 6.128906 Z M 6.160156 8.078125 C 6.167969 8.488281 5.496094 11 5.496094 11 L 0.980469 11 C 1.003906 11.003906 0 8.898438 0 8.078125 C 0 7.121094 1.875 6.714844 1.820312 6.710938 L 4.339844 6.710938 C 5.28125 6.796875 6.148438 7.554688 6.160156 8.078125 Z M 0.523438 8.058594 C 0.523438 8.058594 0.558594 7.804688 0.980469 7.53125 C 1.234375 7.363281 1.503906 7.222656 1.785156 7.101562 C 0.28125 7.53125 0.28125 8.078125 0.28125 8.078125 Z M 3.148438 7.667969 C 2.726562 7.667969 2.378906 8.003906 2.378906 8.417969 C 2.378906 8.835938 2.726562 9.171875 3.148438 9.171875 C 3.574219 9.171875 3.921875 8.835938 3.921875 8.417969 C 3.921875 8.003906 3.574219 7.667969 3.148438 7.667969 Z M 3.886719 5.339844 C 3.914062 5.34375 3.941406 5.34375 3.96875 5.347656 L 3.714844 1.304688 L 2.519531 1.304688 C 2.519531 2.332031 2.386719 4.515625 2.332031 5.347656 C 2.359375 5.34375 2.386719 5.34375 2.414062 5.339844 Z M 3.921875 0.0078125 C 3.621094 0.046875 2.59375 0.0117188 2.523438 1.167969 L 3.699219 1.167969 C 3.683594 1.089844 3.691406 0.757812 4.128906 0.757812 C 4.191406 0.757812 4.273438 0.765625 4.367188 0.773438 L 4.453125 0.0390625 C 4.214844 0.0078125 4.019531 -0.0078125 3.921875 0.0078125 Z M 4.589844 0.0625 L 4.507812 0.785156 C 5.34375 0.878906 6.929688 1.167969 6.929688 1.167969 L 7 0.554688 C 7 0.554688 5.523438 0.203125 4.589844 0.0625 Z M 4.589844 0.0625 "/>
<path style=" stroke:none;fill-rule:nonzero;fill:rgb(30%,30%,30%);fill-opacity:1;" d="M 3.550781 8.433594 C 3.550781 8.640625 3.378906 8.808594 3.167969 8.808594 C 2.953125 8.808594 2.78125 8.640625 2.78125 8.433594 C 2.78125 8.226562 2.953125 8.058594 3.167969 8.058594 C 3.378906 8.058594 3.550781 8.226562 3.550781 8.433594 Z M 3.550781 8.433594 "/>
</g>
</svg>
