<?xml version="1.0" encoding="UTF-8"?>
<svg xmlns="http://www.w3.org/2000/svg" xmlns:xlink="http://www.w3.org/1999/xlink" width="11px" height="11px" viewBox="0 0 11 11" version="1.1">
<g id="surface1">
<path style=" stroke:none;fill-rule:nonzero;fill:rgb(30%,30%,30%);fill-opacity:1;" d="M 10.183594 10.296875 C 8.015625 12.195312 5.664062 9.660156 5.671875 9.550781 C 5.679688 9.4375 5.519531 8.9375 5.355469 8.773438 C 5.308594 8.722656 5.257812 8.679688 5.203125 8.640625 C 5.152344 8.605469 4.984375 8.519531 4.691406 8.386719 L 4.738281 8.347656 C 5.050781 8.464844 5.4375 8.492188 5.640625 8.308594 C 5.96875 8.011719 5.882812 7.410156 5.441406 6.964844 C 5.003906 6.519531 4.398438 6.332031 4.070312 6.628906 C 3.964844 6.726562 3.851562 6.90625 3.808594 6.945312 C 3.710938 7.035156 3.996094 6.34375 3.789062 6.175781 C 2.9375 5.484375 3.246094 4.636719 3.589844 4.167969 L 1.558594 2.015625 L 1.515625 2.054688 L 1.1875 1.917969 C 1.128906 1.894531 1.078125 1.851562 1.046875 1.796875 L 0.945312 1.621094 L 0.75 1.796875 C 0.808594 1.882812 0.820312 1.972656 0.769531 2.019531 C 0.707031 2.074219 0.585938 2.042969 0.496094 1.949219 C 0.40625 1.859375 0.382812 1.738281 0.441406 1.683594 C 0.492188 1.640625 0.585938 1.65625 0.667969 1.714844 L 0.886719 1.519531 L 0.613281 1.054688 L 0.375 1.273438 C 0.40625 1.339844 0.402344 1.402344 0.363281 1.441406 C 0.304688 1.492188 0.183594 1.464844 0.0898438 1.371094 C 0 1.28125 -0.0234375 1.160156 0.0351562 1.105469 C 0.0976562 1.050781 0.21875 1.082031 0.308594 1.175781 L 0.554688 0.953125 L 0.523438 0.902344 L 0.417969 1 L 0.0585938 0.21875 L 0.300781 0 L 1.070312 0.410156 L 0.9375 0.527344 L 0.992188 0.558594 L 1.265625 0.3125 C 1.175781 0.21875 1.148438 0.101562 1.210938 0.046875 C 1.269531 -0.0078125 1.390625 0.0234375 1.480469 0.113281 C 1.574219 0.207031 1.597656 0.324219 1.539062 0.378906 C 1.496094 0.414062 1.429688 0.414062 1.363281 0.378906 L 1.097656 0.617188 L 1.578125 0.894531 L 1.851562 0.648438 C 1.792969 0.566406 1.78125 0.472656 1.832031 0.429688 C 1.890625 0.375 2.015625 0.40625 2.105469 0.496094 C 2.195312 0.589844 2.21875 0.707031 2.160156 0.761719 C 2.109375 0.808594 2.015625 0.792969 1.933594 0.730469 L 1.683594 0.957031 L 1.859375 1.054688 C 1.902344 1.078125 1.929688 1.117188 1.945312 1.160156 L 2.058594 1.5625 L 2.03125 1.589844 L 4.140625 3.65625 C 4.433594 3.464844 4.738281 3.40625 5.308594 3.503906 C 5.5 3.535156 5.972656 3.847656 6.136719 4.011719 C 6.300781 4.179688 6.941406 3.996094 6.9375 4.078125 C 6.9375 4.15625 6.78125 4.21875 6.679688 4.3125 C 6.347656 4.609375 6.539062 5.171875 6.976562 5.617188 C 7.414062 6.0625 7.976562 6.222656 8.292969 5.910156 C 8.515625 5.691406 8.527344 5.363281 8.386719 5.050781 L 8.429688 5.011719 C 8.667969 5.503906 9.492188 5.886719 9.753906 5.9375 C 10.015625 5.992188 12.125 8.597656 10.183594 10.296875 Z M 7.21875 8.882812 C 7.21875 8.742188 7.148438 8.367188 6.492188 8.015625 C 6.441406 7.988281 6.421875 7.953125 6.425781 7.898438 C 6.425781 7.816406 6.488281 7.722656 6.550781 7.675781 C 6.554688 7.714844 6.542969 7.773438 6.527344 7.792969 C 6.480469 7.835938 6.480469 7.910156 6.523438 7.953125 C 6.570312 8 6.644531 8.003906 6.691406 7.957031 C 6.796875 7.863281 6.824219 7.621094 6.742188 7.503906 C 6.683594 7.425781 6.585938 7.402344 6.484375 7.445312 C 6.347656 7.507812 6.191406 7.695312 6.183594 7.890625 C 6.179688 8.027344 6.246094 8.144531 6.375 8.214844 C 6.9375 8.515625 6.980469 8.804688 6.980469 8.882812 C 6.980469 8.953125 6.953125 8.992188 6.9375 9 C 6.914062 9.015625 6.890625 9.023438 6.863281 9.027344 C 6.871094 8.980469 6.84375 8.933594 6.796875 8.910156 C 6.753906 8.890625 6.699219 8.898438 6.664062 8.929688 C 6.601562 8.988281 6.597656 9.085938 6.65625 9.164062 C 6.71875 9.246094 6.863281 9.304688 7.054688 9.203125 C 7.074219 9.191406 7.089844 9.179688 7.105469 9.164062 C 7.175781 9.101562 7.21875 9 7.21875 8.882812 Z M 9.191406 7.269531 C 9.308594 7.09375 9.257812 6.953125 9.171875 6.886719 C 9.097656 6.828125 8.992188 6.824219 8.929688 6.878906 C 8.894531 6.914062 8.882812 6.964844 8.902344 7.007812 C 8.921875 7.054688 8.96875 7.082031 9.019531 7.078125 C 9.015625 7.101562 9.003906 7.125 8.988281 7.148438 C 8.976562 7.164062 8.945312 7.183594 8.886719 7.183594 C 8.8125 7.183594 8.542969 7.132812 8.199219 6.554688 C 8.121094 6.433594 8 6.363281 7.851562 6.367188 C 7.671875 6.367188 7.476562 6.480469 7.394531 6.625 C 7.34375 6.714844 7.363281 6.8125 7.441406 6.871094 C 7.558594 6.957031 7.8125 6.945312 7.917969 6.851562 C 7.964844 6.808594 7.96875 6.734375 7.921875 6.6875 C 7.902344 6.667969 7.871094 6.652344 7.839844 6.652344 C 7.808594 6.652344 7.777344 6.664062 7.753906 6.683594 C 7.734375 6.699219 7.671875 6.703125 7.628906 6.699219 C 7.679688 6.648438 7.773438 6.597656 7.855469 6.59375 C 7.917969 6.59375 7.960938 6.617188 7.992188 6.671875 C 8.371094 7.308594 8.714844 7.410156 8.882812 7.414062 C 8.984375 7.414062 9.078125 7.382812 9.144531 7.324219 C 9.164062 7.308594 9.175781 7.289062 9.191406 7.269531 Z M 9.191406 7.269531 "/>
</g>
</svg>
