<?xml version="1.0" encoding="UTF-8"?>
<svg xmlns="http://www.w3.org/2000/svg" xmlns:xlink="http://www.w3.org/1999/xlink" width="11px" height="10px" viewBox="0 0 11 10" version="1.1">
<g id="surface1">
<path style=" stroke:none;fill-rule:nonzero;fill:rgb(30%,30%,30%);fill-opacity:1;" d="M 10.6875 4.558594 L 0.304688 4.558594 C 0.128906 4.558594 -0.0117188 4.722656 0.00390625 4.910156 C 0.222656 7.804688 2.503906 9.984375 5.472656 10 C 6.074219 10.003906 6.671875 9.902344 7.242188 9.710938 C 7.019531 9.675781 6.789062 9.632812 6.5625 9.578125 C 5.511719 9.328125 3.785156 8.574219 3.9375 8.183594 C 3.972656 8.09375 4.039062 8.042969 4.171875 8.058594 C 4.65625 8.125 5.644531 8.746094 5.761719 8.441406 C 5.921875 8.023438 3.171875 7.679688 3.453125 6.949219 C 3.644531 6.457031 4.953125 7.242188 5.265625 7.320312 C 5.386719 7.351562 5.671875 7.464844 5.867188 7.53125 C 6.082031 7.609375 6.175781 7.375 6.019531 7.289062 C 5.953125 7.253906 5.496094 7.046875 4.757812 6.789062 C 4.347656 6.644531 3.210938 6.335938 3.367188 5.886719 C 3.496094 5.515625 4.054688 5.714844 5.136719 6.125 C 5.859375 6.394531 6.082031 6.484375 6.246094 6.542969 C 6.492188 6.628906 6.515625 6.457031 6.429688 6.398438 C 6.210938 6.261719 5.636719 6.066406 5.210938 5.855469 C 4.785156 5.644531 4.488281 5.480469 4.558594 5.300781 C 4.726562 4.855469 5.199219 5.082031 5.980469 5.386719 C 6.820312 5.710938 7.78125 6.195312 7.78125 6.195312 C 7.78125 6.195312 6.816406 5.222656 7.078125 4.882812 C 7.203125 4.71875 7.546875 4.777344 7.808594 4.992188 C 8.753906 5.765625 9.785156 6.753906 10.015625 7.390625 C 10.039062 7.453125 10.054688 7.511719 10.066406 7.574219 C 10.613281 6.78125 10.933594 5.863281 10.996094 4.917969 C 11.011719 4.722656 10.867188 4.558594 10.6875 4.558594 Z M 10.6875 4.558594 "/>
<path style=" stroke:none;fill-rule:nonzero;fill:rgb(30%,30%,30%);fill-opacity:1;" d="M 5.460938 0 L 5.574219 0 C 5.789062 0 5.96875 0.167969 5.96875 0.375 L 5.96875 3.851562 C 5.96875 4.0625 5.789062 4.230469 5.574219 4.230469 L 5.460938 4.230469 C 5.242188 4.230469 5.066406 4.0625 5.066406 3.851562 L 5.066406 0.375 C 5.066406 0.167969 5.242188 0 5.460938 0 Z M 5.460938 0 "/>
</g>
</svg>
