<?xml version="1.0" encoding="UTF-8" standalone="no"?>
<!-- Created with Inkscape (http://www.inkscape.org/) -->

<svg
   xmlns:dc="http://purl.org/dc/elements/1.1/"
   xmlns:cc="http://creativecommons.org/ns#"
   xmlns:rdf="http://www.w3.org/1999/02/22-rdf-syntax-ns#"
   xmlns:svg="http://www.w3.org/2000/svg"
   xmlns="http://www.w3.org/2000/svg"
   xmlns:xlink="http://www.w3.org/1999/xlink"
   xmlns:sodipodi="http://sodipodi.sourceforge.net/DTD/sodipodi-0.dtd"
   xmlns:inkscape="http://www.inkscape.org/namespaces/inkscape"
   width="30px"
   height="30px"
   version="1.1"
   id="svg8"
   inkscape:version="0.92.4 5da689c313, 2019-01-14"
   sodipodi:docname="container.svg">
  <defs
     id="defs2" />
  <sodipodi:namedview
     id="base"
     pagecolor="#ffffff"
     bordercolor="#666666"
     borderopacity="1.0"
     inkscape:pageopacity="0.0"
     inkscape:pageshadow="2"
     inkscape:zoom="13.049334"
     inkscape:cx="18.679046"
     inkscape:cy="12.165829"
     inkscape:document-units="px"
     inkscape:current-layer="layer1"
     showgrid="false"
     inkscape:snap-page="false"
     units="px"
     inkscape:window-width="1884"
     inkscape:window-height="1061"
     inkscape:window-x="0"
     inkscape:window-y="0"
     inkscape:window-maximized="1"
     fit-margin-top="0"
     fit-margin-left="0"
     fit-margin-right="0"
     fit-margin-bottom="0" />
  <metadata
     id="metadata5">
    <rdf:RDF>
      <cc:Work
         rdf:about="">
        <dc:format>image/svg+xml</dc:format>
        <dc:type
           rdf:resource="http://purl.org/dc/dcmitype/StillImage" />
        <dc:title></dc:title>
      </cc:Work>
    </rdf:RDF>
  </metadata>
    <circle
       style="color:#000000;clip-rule:nonzero;display:inline;overflow:visible;visibility:visible;opacity:1;isolation:auto;mix-blend-mode:normal;color-interpolation:sRGB;color-interpolation-filters:linearRGB;solid-color:#000000;solid-opacity:1;vector-effect:none;fill:#F25C05;fill-opacity:1;fill-rule:evenodd;stroke:#ffffff;stroke-width:1;stroke-linecap:butt;stroke-linejoin:miter;stroke-miterlimit:4;stroke-dasharray:none;stroke-dashoffset:0;stroke-opacity:1;marker:none;color-rendering:auto;image-rendering:auto;shape-rendering:auto;text-rendering:auto;enable-background:accumulate"
       id="path815"
       cx="15"
       cy="15"
       r="14.5" />
<g transform="translate(6,6)"><g id="surface1">
<path style=" stroke:none;fill-rule:nonzero;fill:#FFFFFF;fill-opacity:1;" d="M 9.226562 9.484375 L 8.285156 9.484375 L 8.277344 9.015625 C 8.324219 9 8.367188 8.984375 8.410156 8.96875 C 8.960938 8.753906 9.347656 8.203125 9.441406 7.492188 C 9.496094 7.089844 9.457031 6.683594 9.320312 6.300781 C 9.175781 5.886719 8.925781 5.542969 8.605469 5.308594 C 8.191406 5.007812 7.46875 4.753906 6.363281 5.179688 C 6.160156 5.011719 5.78125 4.773438 5.296875 4.839844 C 5.027344 4.878906 4.765625 4.941406 4.507812 5.03125 C 4.378906 4.949219 4.238281 4.886719 4.09375 4.851562 C 3.617188 4.722656 3.03125 4.777344 2.359375 5.011719 C 1.683594 5.246094 1.359375 5.707031 1.210938 6.054688 C 1.128906 6.238281 1.074219 6.4375 1.054688 6.636719 C 0.785156 6.925781 -0.0703125 7.941406 0.0078125 9.113281 C 0.0742188 10.152344 0.636719 10.796875 0.921875 11.0625 L 0.894531 15.574219 C 0.894531 16.207031 1.425781 16.722656 2.078125 16.722656 L 7.164062 16.722656 C 7.820312 16.722656 8.347656 16.207031 8.347656 15.574219 L 8.375 15.082031 L 9.210938 15.070312 C 9.863281 15.066406 10.394531 14.550781 10.394531 13.914062 L 10.394531 10.625 C 10.394531 9.996094 9.871094 9.484375 9.226562 9.484375 Z M 7.683594 8.601562 C 7.316406 8.675781 6.855469 8.734375 6.457031 8.777344 L 6.453125 8.777344 C 6.410156 8.78125 6.367188 8.785156 6.324219 8.789062 L 6.320312 8.789062 C 6.28125 8.792969 6.238281 8.796875 6.199219 8.800781 L 6.195312 8.804688 C 6.175781 8.804688 6.15625 8.804688 6.136719 8.808594 C 6.117188 8.808594 6.097656 8.8125 6.082031 8.8125 L 6.074219 8.8125 C 6.058594 8.816406 6.039062 8.816406 6.023438 8.816406 L 6.015625 8.820312 C 6 8.820312 5.984375 8.820312 5.972656 8.824219 L 5.964844 8.824219 L 5.917969 8.828125 L 5.910156 8.828125 L 5.867188 8.832031 L 5.863281 8.832031 C 5.847656 8.832031 5.835938 8.832031 5.820312 8.835938 L 5.8125 8.835938 L 5.773438 8.839844 C 5.746094 8.839844 5.71875 8.84375 5.691406 8.84375 C 5.550781 8.851562 5.433594 8.964844 5.421875 9.105469 C 5.421875 9.113281 5.351562 9.816406 5.019531 9.855469 C 4.988281 9.816406 4.917969 9.699219 4.863281 9.441406 C 4.835938 9.308594 4.8125 9.171875 4.800781 9.039062 L 4.800781 9.023438 C 4.789062 8.871094 4.648438 8.753906 4.488281 8.765625 C 4.332031 8.777344 4.210938 8.914062 4.222656 9.066406 C 4.222656 9.070312 4.222656 9.078125 4.222656 9.09375 C 4.292969 9.921875 4.253906 11.210938 3.949219 11.527344 C 3.910156 11.570312 3.886719 11.570312 3.871094 11.570312 C 3.859375 11.570312 3.851562 11.570312 3.824219 11.542969 C 3.769531 11.480469 3.589844 11.1875 3.640625 10.074219 C 3.660156 9.589844 3.71875 9.140625 3.742188 8.949219 C 3.742188 8.945312 3.742188 8.941406 3.742188 8.933594 C 3.703125 8.582031 3.5 8.542969 3.082031 8.699219 C 2.617188 8.871094 3.121094 12.285156 2.480469 12.382812 C 2.429688 12.390625 2.359375 12.351562 2.289062 12.296875 L 2.285156 12.308594 C 2.269531 12.304688 2.25 12.296875 2.234375 12.285156 C 2.082031 12.199219 1.902344 11.96875 1.742188 11.652344 C 1.601562 11.371094 1.527344 11.132812 1.515625 11.050781 C 1.535156 10.941406 1.492188 10.832031 1.402344 10.769531 L 1.398438 10.765625 L 1.394531 10.765625 C 1.390625 10.761719 1.386719 10.757812 1.386719 10.757812 L 1.378906 10.753906 C 1.375 10.75 1.375 10.746094 1.371094 10.742188 L 1.367188 10.742188 C 1.183594 10.585938 1.027344 10.402344 0.902344 10.199219 C 0.699219 9.867188 0.582031 9.492188 0.558594 9.109375 C 0.488281 8.007812 1.503906 6.996094 1.515625 6.988281 C 1.570312 6.933594 1.601562 6.863281 1.601562 6.785156 C 1.601562 6.777344 1.609375 5.890625 2.527344 5.570312 C 3.191406 5.339844 3.617188 5.359375 3.863281 5.410156 C 4.089844 5.460938 4.195312 5.550781 4.210938 5.570312 C 4.296875 5.675781 4.4375 5.699219 4.558594 5.636719 C 4.5625 5.636719 4.855469 5.5 5.351562 5.429688 C 5.738281 5.375 6.042969 5.714844 6.050781 5.722656 C 6.132812 5.816406 6.273438 5.847656 6.390625 5.796875 C 7.144531 5.46875 7.78125 5.46875 8.230469 5.792969 C 8.683594 6.121094 8.929688 6.785156 8.839844 7.445312 C 8.773438 7.953125 8.519531 8.335938 8.167969 8.472656 C 8.046875 8.519531 7.878906 8.5625 7.683594 8.601562 Z M 9.773438 13.949219 C 9.773438 14.25 9.523438 14.5 9.210938 14.5 L 8.285156 14.5 L 8.285156 10.117188 L 9.210938 10.117188 C 9.523438 10.117188 9.773438 10.363281 9.773438 10.667969 Z M 16.878906 7.351562 C 16.390625 6.996094 14.75 8.132812 14.1875 9.253906 C 13.601562 8.164062 12.144531 6.9375 11.703125 7.210938 C 10.949219 7.714844 12.59375 11.613281 14.148438 10.59375 C 14.171875 10.578125 14.191406 10.5625 14.214844 10.542969 C 14.265625 10.601562 14.320312 10.652344 14.378906 10.695312 C 15.535156 11.550781 17.5 7.832031 16.878906 7.351562 Z M 16.878906 7.351562 "/>
<path style=" stroke:none;fill-rule:nonzero;fill:#FFFFFF;fill-opacity:1;" d="M 14.109375 12.058594 C 13.546875 10.953125 12.039062 9.675781 11.589844 9.957031 C 10.882812 10.429688 12.308594 13.933594 13.78125 13.460938 L 13.710938 16.703125 C 13.710938 16.863281 13.839844 16.992188 14.003906 16.996094 C 14.167969 17 14.304688 16.875 14.308594 16.714844 L 14.375 13.59375 C 15.742188 14.089844 17.523438 10.652344 16.691406 10.160156 C 16.214844 9.8125 14.710938 10.96875 14.109375 12.058594 Z M 14.46875 0 C 14.300781 -0.00390625 14.164062 0.125 14.160156 0.285156 L 14.128906 1.789062 C 13.300781 2.140625 12.941406 3.929688 13.285156 5.078125 C 12.964844 4.777344 12.636719 4.535156 12.359375 4.398438 L 12.390625 2.980469 C 12.394531 2.820312 12.261719 2.6875 12.097656 2.683594 C 11.933594 2.683594 11.796875 2.808594 11.792969 2.96875 L 11.761719 4.386719 C 11.183594 5.058594 12.726562 8.605469 14.214844 7.746094 C 14.296875 7.847656 14.429688 7.914062 14.625 7.9375 C 16.078125 8.121094 16.921875 5.699219 16.859375 4.882812 L 16.894531 3.238281 C 16.894531 3.078125 16.765625 2.945312 16.601562 2.941406 C 16.433594 2.9375 16.300781 3.066406 16.296875 3.226562 L 16.265625 4.683594 C 15.992188 4.792969 15.6875 5.011719 15.394531 5.285156 C 15.828125 4.214844 15.472656 2.371094 14.726562 1.863281 L 14.757812 0.296875 C 14.761719 0.136719 14.632812 0.00390625 14.46875 0 Z M 14.105469 6.035156 C 14.1875 6.054688 14.269531 6.066406 14.351562 6.066406 C 14.492188 6.066406 14.628906 6.042969 14.753906 5.992188 C 14.621094 6.164062 14.5 6.347656 14.394531 6.539062 C 14.3125 6.363281 14.214844 6.195312 14.105469 6.035156 Z M 14.105469 6.035156 "/>
</g>
</g>
</svg>
