<?xml version="1.0" encoding="UTF-8"?>
<svg xmlns="http://www.w3.org/2000/svg" xmlns:xlink="http://www.w3.org/1999/xlink" width="11px" height="11px" viewBox="0 0 11 11" version="1.1">
<g id="surface1">
<path style=" stroke:none;fill-rule:nonzero;fill:rgb(30%,30%,30%);fill-opacity:1;" d="M 9.46875 1.726562 C 8.40625 0.609375 6.9375 -0.0117188 5.425781 0 C 3.925781 0.0195312 2.472656 0.683594 1.441406 1.816406 C 0.429688 2.933594 -0.0859375 4.402344 0.0117188 5.878906 C 0.0117188 5.882812 0.0117188 5.882812 0.0117188 5.882812 C 0.0351562 6.75 1.316406 10.460938 1.457031 10.953125 C 1.464844 10.980469 1.492188 11 1.519531 11 L 9.390625 11 C 9.417969 11 9.441406 10.980469 9.453125 10.957031 C 9.597656 10.480469 10.957031 6.652344 10.992188 5.996094 C 11.070312 4.503906 10.503906 2.816406 9.46875 1.726562 Z M 10.0625 5.855469 L 9.6875 5.855469 C 9.664062 5.855469 9.644531 5.84375 9.632812 5.828125 C 9.621094 5.808594 9.617188 5.789062 9.628906 5.769531 C 9.691406 5.628906 9.734375 5.503906 9.746094 5.429688 C 9.78125 5.214844 9.835938 4.625 9.457031 4.214844 C 9.121094 3.855469 8.59375 3.695312 8.320312 3.660156 C 8.230469 3.644531 8.085938 3.582031 8.042969 3.5 C 8.042969 3.5 8.039062 3.496094 8.039062 3.492188 C 8.285156 3.261719 8.816406 2.746094 8.859375 2.609375 C 8.878906 2.539062 8.8125 2.484375 8.730469 2.429688 C 8.441406 2.234375 8.40625 2.214844 8.363281 2.597656 C 8.351562 2.699219 8.3125 2.800781 8.277344 2.859375 C 8.191406 3 8.113281 3.148438 8.042969 3.300781 C 8.03125 3.320312 8.011719 3.335938 7.988281 3.335938 C 7.964844 3.335938 7.941406 3.324219 7.929688 3.304688 C 7.824219 3.144531 7.683594 2.992188 7.484375 3.019531 C 7.210938 3.054688 5.492188 3.554688 5.5625 4.839844 C 5.585938 5.214844 5.765625 5.511719 6.007812 5.742188 C 6.027344 5.761719 6.03125 5.785156 6.023438 5.8125 C 6.011719 5.835938 5.992188 5.851562 5.964844 5.847656 L 5.472656 5.847656 C 5.457031 5.847656 5.441406 5.84375 5.429688 5.828125 C 5.417969 5.816406 5.410156 5.800781 5.410156 5.785156 C 5.417969 5.476562 5.355469 5.167969 5.183594 4.894531 C 4.910156 4.464844 4.285156 4.203125 4.222656 4.144531 C 4.164062 4.085938 4.105469 3.777344 4.035156 3.613281 C 4.027344 3.589844 4.007812 3.574219 3.984375 3.574219 C 3.960938 3.570312 3.9375 3.582031 3.925781 3.601562 C 3.773438 3.84375 3.308594 4.507812 2.316406 4.972656 C 2.183594 5.039062 1.921875 5.15625 1.644531 5.164062 C 1.582031 5.164062 1.515625 5.15625 1.464844 5.125 C 1.351562 5.054688 1.308594 5.019531 1.28125 4.9375 C 1.472656 5.195312 2.195312 5.011719 2.898438 4.523438 C 3.601562 4.035156 4.023438 3.425781 3.835938 3.164062 C 3.648438 2.898438 2.921875 3.082031 2.21875 3.574219 C 1.960938 3.75 1.722656 3.957031 1.527344 4.199219 C 1.390625 4.367188 1.246094 4.570312 1.234375 4.792969 C 1.226562 4.949219 1.285156 5.070312 1.40625 5.175781 C 1.5625 5.316406 1.84375 5.285156 1.851562 5.566406 C 1.855469 5.667969 1.863281 5.757812 1.875 5.84375 L 0.945312 5.839844 C 0.910156 5.839844 0.878906 5.816406 0.878906 5.78125 C 0.808594 4.550781 1.242188 3.324219 2.089844 2.390625 C 2.960938 1.433594 4.179688 0.875 5.4375 0.859375 C 6.695312 0.84375 7.9375 1.375 8.835938 2.316406 C 9.671875 3.195312 10.132812 4.570312 10.128906 5.792969 C 10.125 5.828125 10.097656 5.855469 10.0625 5.855469 Z M 10.0625 5.855469 "/>
</g>
</svg>
