<?xml version="1.0" encoding="UTF-8" standalone="no"?>
<!-- Created with Inkscape (http://www.inkscape.org/) -->

<svg
   xmlns:dc="http://purl.org/dc/elements/1.1/"
   xmlns:cc="http://creativecommons.org/ns#"
   xmlns:rdf="http://www.w3.org/1999/02/22-rdf-syntax-ns#"
   xmlns:svg="http://www.w3.org/2000/svg"
   xmlns="http://www.w3.org/2000/svg"
   xmlns:xlink="http://www.w3.org/1999/xlink"
   xmlns:sodipodi="http://sodipodi.sourceforge.net/DTD/sodipodi-0.dtd"
   xmlns:inkscape="http://www.inkscape.org/namespaces/inkscape"
   width="30px"
   height="30px"
   version="1.1"
   id="svg8"
   inkscape:version="0.92.4 5da689c313, 2019-01-14"
   sodipodi:docname="container.svg">
  <defs
     id="defs2" />
  <sodipodi:namedview
     id="base"
     pagecolor="#ffffff"
     bordercolor="#666666"
     borderopacity="1.0"
     inkscape:pageopacity="0.0"
     inkscape:pageshadow="2"
     inkscape:zoom="13.049334"
     inkscape:cx="18.679046"
     inkscape:cy="12.165829"
     inkscape:document-units="px"
     inkscape:current-layer="layer1"
     showgrid="false"
     inkscape:snap-page="false"
     units="px"
     inkscape:window-width="1884"
     inkscape:window-height="1061"
     inkscape:window-x="0"
     inkscape:window-y="0"
     inkscape:window-maximized="1"
     fit-margin-top="0"
     fit-margin-left="0"
     fit-margin-right="0"
     fit-margin-bottom="0" />
  <metadata
     id="metadata5">
    <rdf:RDF>
      <cc:Work
         rdf:about="">
        <dc:format>image/svg+xml</dc:format>
        <dc:type
           rdf:resource="http://purl.org/dc/dcmitype/StillImage" />
        <dc:title></dc:title>
      </cc:Work>
    </rdf:RDF>
  </metadata>
    <circle
       style="color:#000000;clip-rule:nonzero;display:inline;overflow:visible;visibility:visible;opacity:1;isolation:auto;mix-blend-mode:normal;color-interpolation:sRGB;color-interpolation-filters:linearRGB;solid-color:#000000;solid-opacity:1;vector-effect:none;fill:#ffffff;fill-opacity:1;fill-rule:evenodd;stroke:#F25C05;stroke-width:1;stroke-linecap:butt;stroke-linejoin:miter;stroke-miterlimit:4;stroke-dasharray:none;stroke-dashoffset:0;stroke-opacity:1;marker:none;color-rendering:auto;image-rendering:auto;shape-rendering:auto;text-rendering:auto;enable-background:accumulate"
       id="path815"
       cx="15"
       cy="15"
       r="14.5" />
<g transform="translate(10,7)"><g id="surface1">
<path style=" stroke:none;fill-rule:nonzero;fill:rgb(30%,30%,30%);fill-opacity:1;" d="M 8.484375 2.503906 L 1.480469 2.492188 L 1.46875 13.457031 L 8.46875 13.464844 Z M 4.902344 9.898438 L 2.652344 7.699219 L 4.898438 5.519531 L 7.148438 7.71875 Z M 4.902344 9.898438 "/>
<path style=" stroke:none;fill-rule:nonzero;fill:rgb(30%,30%,30%);fill-opacity:1;" d="M 10 14.890625 L 10 1.023438 C 10 1.023438 10 1.023438 10 1.019531 L 10 0.222656 C 10 0.214844 10 0.207031 9.992188 0.199219 L 9.992188 0.195312 C 9.992188 0.0820312 9.925781 0.0078125 9.84375 0.0117188 L 9.832031 0.0117188 C 9.75 0.0117188 9.6875 0.0859375 9.691406 0.195312 L 9.703125 0.964844 L 9.097656 0.964844 L 9.082031 0.230469 C 9.082031 0.117188 9.015625 0.0234375 8.933594 0.0273438 L 8.929688 0.0273438 C 8.851562 0.03125 8.789062 0.125 8.789062 0.234375 L 8.796875 0.964844 L 8.296875 0.964844 L 8.285156 0.234375 C 8.28125 0.121094 8.214844 0.0234375 8.136719 0.0273438 L 8.132812 0.0273438 C 8.054688 0.03125 7.992188 0.128906 7.992188 0.238281 L 7.996094 0.964844 L 7.5 0.964844 L 7.484375 0.238281 C 7.484375 0.128906 7.417969 0.0234375 7.335938 0.0273438 L 7.332031 0.0273438 C 7.253906 0.03125 7.191406 0.136719 7.191406 0.246094 L 7.195312 0.964844 L 6.699219 0.964844 L 6.6875 0.246094 C 6.683594 0.132812 6.617188 0.0234375 6.539062 0.0273438 L 6.535156 0.0273438 C 6.457031 0.03125 6.394531 0.140625 6.394531 0.25 L 6.398438 0.964844 L 5.902344 0.964844 L 5.886719 0.25 C 5.886719 0.136719 5.820312 0.0234375 5.738281 0.0273438 L 5.734375 0.0273438 C 5.65625 0.03125 5.59375 0.144531 5.59375 0.253906 L 5.597656 0.964844 L 5.101562 0.964844 L 5.089844 0.253906 C 5.085938 0.144531 5.019531 0.0234375 4.9375 0.0273438 C 4.855469 0.03125 4.792969 0.152344 4.796875 0.261719 L 4.800781 0.964844 L 4.300781 0.964844 L 4.289062 0.261719 C 4.285156 0.148438 4.21875 0.0234375 4.140625 0.0273438 L 4.136719 0.0273438 C 4.058594 0.03125 3.996094 0.15625 3.996094 0.265625 L 4 0.964844 L 3.503906 0.964844 L 3.488281 0.265625 C 3.488281 0.152344 3.421875 0.0234375 3.339844 0.0273438 L 3.335938 0.0273438 C 3.257812 0.03125 3.195312 0.160156 3.195312 0.269531 L 3.203125 0.964844 L 2.703125 0.964844 L 2.691406 0.269531 C 2.6875 0.160156 2.621094 0.0234375 2.542969 0.0273438 L 2.539062 0.0273438 C 2.460938 0.03125 2.398438 0.167969 2.398438 0.277344 L 2.402344 0.964844 L 1.90625 0.964844 L 1.890625 0.277344 C 1.890625 0.164062 1.824219 0.0234375 1.742188 0.0273438 L 1.738281 0.0273438 C 1.660156 0.03125 1.597656 0.171875 1.597656 0.28125 L 1.601562 0.964844 L 1.105469 0.964844 L 1.09375 0.28125 C 1.089844 0.171875 1.023438 0.0234375 0.945312 0.0273438 L 0.941406 0.0273438 C 0.859375 0.03125 0.796875 0.175781 0.800781 0.285156 L 0.804688 0.964844 L 0.304688 0.964844 L 0.292969 0.285156 C 0.289062 0.175781 0.222656 0.0234375 0.144531 0.0273438 L 0.140625 0.0273438 C 0.0625 0.03125 0 0.183594 0 0.292969 L 0 15.792969 C 0 15.804688 0 15.816406 0.0078125 15.824219 C 0.015625 15.925781 0.078125 15.992188 0.15625 15.988281 L 0.167969 15.988281 C 0.25 15.988281 0.3125 15.914062 0.308594 15.804688 L 0.296875 14.964844 L 0.898438 14.960938 L 0.90625 15.792969 C 0.90625 15.90625 0.972656 15.980469 1.054688 15.980469 L 1.066406 15.980469 C 1.148438 15.976562 1.210938 15.90625 1.207031 15.792969 L 1.195312 14.960938 L 1.699219 14.960938 L 1.703125 15.792969 C 1.707031 15.90625 1.773438 15.980469 1.851562 15.980469 L 1.867188 15.980469 C 1.945312 15.976562 2.011719 15.90625 2.007812 15.792969 L 1.992188 14.960938 L 2.5 14.960938 L 2.503906 15.792969 C 2.503906 15.90625 2.570312 15.980469 2.652344 15.980469 L 2.667969 15.980469 C 2.746094 15.976562 2.808594 15.90625 2.808594 15.792969 L 2.792969 14.960938 L 3.296875 14.960938 L 3.300781 15.792969 C 3.304688 15.90625 3.371094 15.980469 3.453125 15.980469 L 3.464844 15.980469 C 3.546875 15.976562 3.609375 15.90625 3.605469 15.792969 L 3.589844 14.960938 L 4.097656 14.960938 L 4.101562 15.792969 C 4.101562 15.90625 4.167969 15.980469 4.25 15.980469 L 4.265625 15.980469 C 4.34375 15.976562 4.40625 15.90625 4.40625 15.792969 L 4.390625 14.960938 L 4.894531 14.960938 L 4.902344 15.792969 C 4.902344 15.90625 4.96875 15.980469 5.050781 15.980469 L 5.0625 15.980469 C 5.144531 15.976562 5.207031 15.90625 5.203125 15.792969 L 5.191406 14.960938 L 5.695312 14.960938 L 5.699219 15.792969 C 5.699219 15.90625 5.769531 15.980469 5.847656 15.980469 L 5.863281 15.980469 C 5.941406 15.976562 6.007812 15.90625 6.003906 15.792969 L 5.988281 14.960938 L 6.496094 14.960938 L 6.5 15.792969 C 6.5 15.90625 6.566406 15.980469 6.648438 15.980469 L 6.664062 15.980469 C 6.742188 15.976562 6.804688 15.90625 6.804688 15.792969 L 6.789062 14.960938 L 7.292969 14.960938 L 7.296875 15.792969 C 7.300781 15.90625 7.367188 15.980469 7.445312 15.980469 L 7.460938 15.980469 C 7.542969 15.976562 7.605469 15.90625 7.601562 15.792969 L 7.585938 14.960938 L 8.09375 14.960938 L 8.097656 15.792969 C 8.097656 15.90625 8.164062 15.980469 8.246094 15.980469 L 8.261719 15.980469 C 8.339844 15.976562 8.402344 15.90625 8.402344 15.792969 L 8.386719 14.960938 L 8.890625 14.960938 L 8.898438 15.792969 C 8.898438 15.90625 8.964844 15.980469 9.046875 15.980469 L 9.058594 15.980469 C 9.140625 15.976562 9.203125 15.90625 9.199219 15.792969 L 9.183594 14.960938 L 9.691406 14.960938 L 9.695312 15.792969 C 9.695312 15.90625 9.765625 15.980469 9.84375 15.980469 L 9.859375 15.980469 C 9.9375 15.976562 10 15.90625 10 15.792969 L 10 14.914062 C 10 14.90625 10 14.898438 10 14.890625 Z M 8.886719 13.871094 L 1.046875 13.863281 L 1.0625 2.085938 L 8.902344 2.09375 Z M 8.886719 13.871094 "/>
</g>
</g>
</svg>
