<?xml version="1.0" encoding="UTF-8" standalone="no"?>
<!-- Created with Inkscape (http://www.inkscape.org/) -->

<svg
   xmlns:dc="http://purl.org/dc/elements/1.1/"
   xmlns:cc="http://creativecommons.org/ns#"
   xmlns:rdf="http://www.w3.org/1999/02/22-rdf-syntax-ns#"
   xmlns:svg="http://www.w3.org/2000/svg"
   xmlns="http://www.w3.org/2000/svg"
   xmlns:xlink="http://www.w3.org/1999/xlink"
   xmlns:sodipodi="http://sodipodi.sourceforge.net/DTD/sodipodi-0.dtd"
   xmlns:inkscape="http://www.inkscape.org/namespaces/inkscape"
   width="30px"
   height="30px"
   version="1.1"
   id="svg8"
   inkscape:version="0.92.4 5da689c313, 2019-01-14"
   sodipodi:docname="container.svg">
  <defs
     id="defs2" />
  <sodipodi:namedview
     id="base"
     pagecolor="#ffffff"
     bordercolor="#666666"
     borderopacity="1.0"
     inkscape:pageopacity="0.0"
     inkscape:pageshadow="2"
     inkscape:zoom="13.049334"
     inkscape:cx="18.679046"
     inkscape:cy="12.165829"
     inkscape:document-units="px"
     inkscape:current-layer="layer1"
     showgrid="false"
     inkscape:snap-page="false"
     units="px"
     inkscape:window-width="1884"
     inkscape:window-height="1061"
     inkscape:window-x="0"
     inkscape:window-y="0"
     inkscape:window-maximized="1"
     fit-margin-top="0"
     fit-margin-left="0"
     fit-margin-right="0"
     fit-margin-bottom="0" />
  <metadata
     id="metadata5">
    <rdf:RDF>
      <cc:Work
         rdf:about="">
        <dc:format>image/svg+xml</dc:format>
        <dc:type
           rdf:resource="http://purl.org/dc/dcmitype/StillImage" />
        <dc:title></dc:title>
      </cc:Work>
    </rdf:RDF>
  </metadata>
    <circle
       style="color:#000000;clip-rule:nonzero;display:inline;overflow:visible;visibility:visible;opacity:1;isolation:auto;mix-blend-mode:normal;color-interpolation:sRGB;color-interpolation-filters:linearRGB;solid-color:#000000;solid-opacity:1;vector-effect:none;fill:#F25C05;fill-opacity:1;fill-rule:evenodd;stroke:#ffffff;stroke-width:1;stroke-linecap:butt;stroke-linejoin:miter;stroke-miterlimit:4;stroke-dasharray:none;stroke-dashoffset:0;stroke-opacity:1;marker:none;color-rendering:auto;image-rendering:auto;shape-rendering:auto;text-rendering:auto;enable-background:accumulate"
       id="path815"
       cx="15"
       cy="15"
       r="14.5" />
<g transform="translate(10,7)"><g id="surface1">
<path style=" stroke:none;fill-rule:nonzero;fill:#FFFFFF;fill-opacity:1;" d="M 8.894531 9.308594 C 9.5625 8.585938 10 7.371094 10 5.996094 C 10.003906 3.5 8.816406 1.945312 7.414062 1.945312 C 7.195312 1.945312 6.976562 1.992188 6.777344 2.082031 C 6.945312 2.007812 7.125 1.960938 7.3125 1.941406 L 5.914062 2.011719 C 5.761719 2.011719 5.609375 2.03125 5.460938 2.070312 L 5.4375 0.0820312 C 5.4375 0.0351562 5.136719 0 4.769531 0 C 4.402344 0 4.105469 0.0351562 4.105469 0.0820312 L 4.140625 2.886719 C 3.449219 3.605469 2.949219 4.707031 2.949219 5.972656 C 2.949219 7.199219 3.277344 8.171875 3.804688 8.816406 C 1.632812 8.910156 0 9.320312 0 9.808594 L 0.0859375 14.285156 C 0.0859375 14.84375 2.128906 16 4.753906 16 C 7.378906 16 9.355469 14.808594 9.355469 14.25 L 9.507812 9.808594 C 9.507812 9.628906 9.28125 9.457031 8.894531 9.308594 Z M 5.496094 4.855469 C 5.605469 4.304688 5.796875 3.800781 6.058594 3.386719 C 6.453125 2.765625 6.949219 2.421875 7.460938 2.421875 C 7.839844 2.421875 8.390625 2.574219 8.867188 3.292969 C 9.308594 3.953125 9.539062 4.886719 9.539062 5.996094 C 9.539062 7.351562 9.070312 8.558594 8.40625 9.160156 C 8.136719 9.367188 8.152344 9.34375 8.019531 9.429688 C 7.847656 9.519531 7.65625 9.566406 7.460938 9.570312 C 7.160156 9.570312 6.863281 9.449219 6.589844 9.226562 C 6.457031 9.113281 6.335938 8.984375 6.230469 8.847656 C 6.171875 8.773438 6.113281 8.691406 6.058594 8.605469 C 5.820312 8.226562 5.640625 7.773438 5.523438 7.277344 C 5.429688 6.855469 5.382812 6.425781 5.382812 5.996094 C 5.382812 5.613281 5.417969 5.230469 5.496094 4.855469 Z M 7.828125 10.226562 C 6.984375 10.386719 5.890625 10.472656 4.753906 10.472656 C 3.617188 10.472656 2.527344 10.386719 1.679688 10.226562 C 0.875 10.074219 0.515625 9.902344 0.394531 9.808594 C 0.515625 9.714844 0.875 9.542969 1.679688 9.390625 C 2.371094 9.261719 3.222656 9.179688 4.132812 9.152344 C 4.160156 9.179688 4.191406 9.203125 4.21875 9.226562 L 4.226562 9.691406 C 4.226562 9.734375 4.523438 9.773438 4.890625 9.773438 C 5.195312 9.773438 5.449219 9.746094 5.527344 9.714844 L 6.96875 9.9375 C 7 9.945312 7.03125 9.953125 7.058594 9.960938 C 7.070312 9.964844 7.082031 9.96875 7.09375 9.96875 C 7.121094 9.976562 7.152344 9.980469 7.179688 9.988281 C 7.191406 9.988281 7.203125 9.992188 7.21875 9.992188 C 7.246094 9.996094 7.273438 10 7.304688 10.003906 C 7.316406 10.003906 7.328125 10.007812 7.339844 10.007812 C 7.378906 10.011719 7.421875 10.011719 7.460938 10.011719 C 7.871094 10.011719 8.261719 9.855469 8.605469 9.582031 C 8.855469 9.664062 9.046875 9.757812 9.113281 9.808594 C 8.992188 9.902344 8.636719 10.074219 7.828125 10.226562 Z M 8.503906 6.070312 C 8.503906 6.453125 8.273438 6.761719 7.992188 6.761719 C 7.710938 6.761719 7.480469 6.453125 7.480469 6.070312 C 7.480469 5.6875 7.710938 5.378906 7.992188 5.378906 C 8.273438 5.378906 8.503906 5.6875 8.503906 6.070312 Z M 8.503906 6.070312 "/>
</g>
</g>
</svg>
