<?xml version="1.0" encoding="UTF-8" standalone="no"?>
<!-- Created with Inkscape (http://www.inkscape.org/) -->

<svg
   xmlns:dc="http://purl.org/dc/elements/1.1/"
   xmlns:cc="http://creativecommons.org/ns#"
   xmlns:rdf="http://www.w3.org/1999/02/22-rdf-syntax-ns#"
   xmlns:svg="http://www.w3.org/2000/svg"
   xmlns="http://www.w3.org/2000/svg"
   xmlns:xlink="http://www.w3.org/1999/xlink"
   xmlns:sodipodi="http://sodipodi.sourceforge.net/DTD/sodipodi-0.dtd"
   xmlns:inkscape="http://www.inkscape.org/namespaces/inkscape"
   width="30px"
   height="30px"
   version="1.1"
   id="svg8"
   inkscape:version="0.92.4 5da689c313, 2019-01-14"
   sodipodi:docname="container.svg">
  <defs
     id="defs2" />
  <sodipodi:namedview
     id="base"
     pagecolor="#ffffff"
     bordercolor="#666666"
     borderopacity="1.0"
     inkscape:pageopacity="0.0"
     inkscape:pageshadow="2"
     inkscape:zoom="13.049334"
     inkscape:cx="18.679046"
     inkscape:cy="12.165829"
     inkscape:document-units="px"
     inkscape:current-layer="layer1"
     showgrid="false"
     inkscape:snap-page="false"
     units="px"
     inkscape:window-width="1884"
     inkscape:window-height="1061"
     inkscape:window-x="0"
     inkscape:window-y="0"
     inkscape:window-maximized="1"
     fit-margin-top="0"
     fit-margin-left="0"
     fit-margin-right="0"
     fit-margin-bottom="0" />
  <metadata
     id="metadata5">
    <rdf:RDF>
      <cc:Work
         rdf:about="">
        <dc:format>image/svg+xml</dc:format>
        <dc:type
           rdf:resource="http://purl.org/dc/dcmitype/StillImage" />
        <dc:title></dc:title>
      </cc:Work>
    </rdf:RDF>
  </metadata>
    <circle
       style="color:#000000;clip-rule:nonzero;display:inline;overflow:visible;visibility:visible;opacity:1;isolation:auto;mix-blend-mode:normal;color-interpolation:sRGB;color-interpolation-filters:linearRGB;solid-color:#000000;solid-opacity:1;vector-effect:none;fill:#F25C05;fill-opacity:1;fill-rule:evenodd;stroke:#ffffff;stroke-width:1;stroke-linecap:butt;stroke-linejoin:miter;stroke-miterlimit:4;stroke-dasharray:none;stroke-dashoffset:0;stroke-opacity:1;marker:none;color-rendering:auto;image-rendering:auto;shape-rendering:auto;text-rendering:auto;enable-background:accumulate"
       id="path815"
       cx="15"
       cy="15"
       r="14.5" />
<g transform="translate(9,6)"><g id="surface1">
<path style=" stroke:none;fill-rule:nonzero;fill:#FFFFFF;fill-opacity:1;" d="M 9.234375 4.027344 L 2.730469 4.027344 C 2.539062 4.023438 2.382812 3.875 2.382812 3.6875 L 2.382812 3.59375 C 2.382812 3.410156 2.539062 3.257812 2.730469 3.257812 L 9.234375 3.257812 C 9.425781 3.257812 9.582031 3.410156 9.582031 3.59375 L 9.582031 3.6875 C 9.582031 3.875 9.425781 4.023438 9.234375 4.027344 Z M 9.234375 4.027344 "/>
<path style=" stroke:none;fill-rule:nonzero;fill:#FFFFFF;fill-opacity:1;" d="M 10.199219 5.199219 L 1.863281 5.199219 C 1.648438 5.199219 1.472656 5.03125 1.472656 4.820312 L 1.472656 4.8125 C 1.472656 4.601562 1.648438 4.433594 1.863281 4.433594 L 10.199219 4.433594 C 10.414062 4.433594 10.589844 4.601562 10.589844 4.8125 L 10.589844 4.820312 C 10.589844 5.03125 10.414062 5.199219 10.199219 5.199219 Z M 10.199219 5.199219 "/>
<path style=" stroke:none;fill-rule:nonzero;fill:#FFFFFF;fill-opacity:1;" d="M 10.671875 6.398438 L 1.355469 6.398438 C 1.136719 6.398438 0.960938 6.226562 0.960938 6.015625 C 0.960938 5.804688 1.136719 5.632812 1.355469 5.632812 L 10.671875 5.632812 C 10.890625 5.632812 11.066406 5.804688 11.070312 6.015625 C 11.066406 6.226562 10.890625 6.398438 10.671875 6.398438 Z M 10.671875 6.398438 "/>
<path style=" stroke:none;fill-rule:nonzero;fill:#FFFFFF;fill-opacity:1;" d="M 10.65625 13.441406 L 1.335938 13.441406 C 1.117188 13.441406 0.9375 13.269531 0.9375 13.058594 C 0.9375 12.847656 1.117188 12.675781 1.335938 12.675781 L 10.65625 12.675781 C 10.875 12.675781 11.050781 12.847656 11.054688 13.058594 C 11.050781 13.269531 10.875 13.441406 10.65625 13.441406 Z M 10.65625 13.441406 "/>
<path style=" stroke:none;fill-rule:nonzero;fill:#FFFFFF;fill-opacity:1;" d="M 10.1875 14.640625 L 1.855469 14.640625 C 1.636719 14.640625 1.464844 14.472656 1.460938 14.261719 L 1.460938 14.253906 C 1.464844 14.042969 1.636719 13.875 1.855469 13.875 L 10.1875 13.875 C 10.402344 13.875 10.578125 14.042969 10.578125 14.253906 L 10.578125 14.261719 C 10.578125 14.472656 10.402344 14.640625 10.1875 14.640625 Z M 10.1875 14.640625 "/>
<path style=" stroke:none;fill-rule:nonzero;fill:#FFFFFF;fill-opacity:1;" d="M 9.234375 15.816406 L 2.730469 15.816406 C 2.539062 15.816406 2.382812 15.664062 2.382812 15.476562 L 2.382812 15.386719 C 2.382812 15.199219 2.539062 15.050781 2.730469 15.046875 L 9.234375 15.046875 C 9.425781 15.050781 9.582031 15.199219 9.582031 15.386719 L 9.582031 15.476562 C 9.582031 15.664062 9.425781 15.816406 9.234375 15.816406 Z M 9.234375 15.816406 "/>
<path style=" stroke:none;fill-rule:nonzero;fill:#FFFFFF;fill-opacity:1;" d="M 8.621094 16.992188 L 3.414062 16.992188 C 3.242188 16.992188 3.101562 16.859375 3.101562 16.691406 L 3.101562 16.53125 C 3.101562 16.363281 3.242188 16.226562 3.414062 16.226562 L 8.621094 16.226562 C 8.792969 16.226562 8.933594 16.363281 8.933594 16.53125 L 8.933594 16.691406 C 8.933594 16.859375 8.792969 16.992188 8.621094 16.992188 Z M 8.621094 16.992188 "/>
<path style=" stroke:none;fill-rule:nonzero;fill:#FFFFFF;fill-opacity:1;" d="M 8.621094 2.957031 L 3.414062 2.957031 C 3.242188 2.957031 3.101562 2.820312 3.101562 2.652344 C 3.175781 1.824219 5.644531 2.113281 5.738281 0.394531 L 5.773438 0.199219 C 5.789062 0.0859375 5.886719 0.0078125 6.003906 0.0078125 C 6.121094 0.0078125 6.21875 0.0898438 6.234375 0.203125 L 6.257812 0.363281 C 6.226562 2.070312 8.929688 1.804688 8.933594 2.652344 C 8.933594 2.820312 8.792969 2.957031 8.621094 2.957031 Z M 8.621094 2.957031 "/>
<path style=" stroke:none;fill-rule:nonzero;fill:#FFFFFF;fill-opacity:1;" d="M 0.902344 7.574219 L 11.132812 7.574219 C 11.351562 7.574219 11.527344 7.402344 11.527344 7.191406 C 11.527344 6.980469 11.351562 6.808594 11.132812 6.808594 L 0.902344 6.808594 C 0.683594 6.808594 0.503906 6.980469 0.503906 7.191406 C 0.503906 7.402344 0.683594 7.574219 0.902344 7.574219 Z M 0.902344 7.574219 "/>
<path style=" stroke:none;fill-rule:nonzero;fill:#FFFFFF;fill-opacity:1;" d="M 2.714844 7.976562 C 3.074219 7.976562 3.398438 8.265625 3.617188 8.71875 L 11.4375 8.71875 C 11.65625 8.71875 11.835938 8.546875 11.835938 8.332031 C 11.835938 8.121094 11.65625 7.949219 11.4375 7.949219 L 0.621094 7.949219 C 0.402344 7.949219 0.222656 8.121094 0.222656 8.332031 C 0.222656 8.546875 0.402344 8.71875 0.621094 8.71875 L 1.8125 8.71875 C 2.027344 8.265625 2.351562 7.976562 2.714844 7.976562 Z M 2.714844 7.976562 "/>
<path style=" stroke:none;fill-rule:nonzero;fill:#FFFFFF;fill-opacity:1;" d="M 0.394531 9.125 C 0.175781 9.125 0 9.296875 0 9.507812 C 0 9.71875 0.175781 9.890625 0.394531 9.890625 L 1.535156 9.890625 C 1.546875 9.632812 1.585938 9.375 1.65625 9.125 Z M 0.394531 9.125 "/>
<path style=" stroke:none;fill-rule:nonzero;fill:#FFFFFF;fill-opacity:1;" d="M 12 9.507812 C 12 9.296875 11.824219 9.125 11.605469 9.125 L 3.769531 9.125 C 3.839844 9.375 3.878906 9.632812 3.890625 9.890625 L 11.601562 9.890625 C 11.820312 9.890625 12 9.71875 12 9.507812 Z M 12 9.507812 "/>
<path style=" stroke:none;fill-rule:nonzero;fill:#FFFFFF;fill-opacity:1;" d="M 11.4375 11.089844 C 11.65625 11.089844 11.832031 10.917969 11.832031 10.707031 C 11.832031 10.496094 11.65625 10.324219 11.4375 10.324219 L 3.886719 10.324219 C 3.871094 10.582031 3.824219 10.839844 3.746094 11.089844 Z M 11.4375 11.089844 "/>
<path style=" stroke:none;fill-rule:nonzero;fill:#FFFFFF;fill-opacity:1;" d="M 0.566406 10.324219 C 0.347656 10.324219 0.171875 10.496094 0.171875 10.707031 C 0.171875 10.917969 0.347656 11.089844 0.566406 11.089844 L 1.683594 11.089844 C 1.605469 10.839844 1.558594 10.582031 1.539062 10.324219 Z M 0.566406 10.324219 "/>
<path style=" stroke:none;fill-rule:nonzero;fill:#FFFFFF;fill-opacity:1;" d="M 2.714844 12.160156 C 2.375 12.160156 2.066406 11.90625 1.851562 11.5 L 0.832031 11.5 C 0.613281 11.5 0.4375 11.671875 0.4375 11.882812 C 0.4375 12.09375 0.613281 12.265625 0.832031 12.265625 L 11.128906 12.265625 C 11.347656 12.265625 11.527344 12.09375 11.527344 11.882812 C 11.527344 11.671875 11.347656 11.5 11.128906 11.5 L 3.574219 11.5 C 3.359375 11.902344 3.054688 12.160156 2.714844 12.160156 Z M 2.714844 12.160156 "/>
</g>
</g>
</svg>
