<?xml version="1.0" encoding="UTF-8" standalone="no"?>
<!-- Created with Inkscape (http://www.inkscape.org/) -->

<svg
   xmlns:dc="http://purl.org/dc/elements/1.1/"
   xmlns:cc="http://creativecommons.org/ns#"
   xmlns:rdf="http://www.w3.org/1999/02/22-rdf-syntax-ns#"
   xmlns:svg="http://www.w3.org/2000/svg"
   xmlns="http://www.w3.org/2000/svg"
   xmlns:xlink="http://www.w3.org/1999/xlink"
   xmlns:sodipodi="http://sodipodi.sourceforge.net/DTD/sodipodi-0.dtd"
   xmlns:inkscape="http://www.inkscape.org/namespaces/inkscape"
   width="30px"
   height="30px"
   version="1.1"
   id="svg8"
   inkscape:version="0.92.4 5da689c313, 2019-01-14"
   sodipodi:docname="container.svg">
  <defs
     id="defs2" />
  <sodipodi:namedview
     id="base"
     pagecolor="#ffffff"
     bordercolor="#666666"
     borderopacity="1.0"
     inkscape:pageopacity="0.0"
     inkscape:pageshadow="2"
     inkscape:zoom="13.049334"
     inkscape:cx="18.679046"
     inkscape:cy="12.165829"
     inkscape:document-units="px"
     inkscape:current-layer="layer1"
     showgrid="false"
     inkscape:snap-page="false"
     units="px"
     inkscape:window-width="1884"
     inkscape:window-height="1061"
     inkscape:window-x="0"
     inkscape:window-y="0"
     inkscape:window-maximized="1"
     fit-margin-top="0"
     fit-margin-left="0"
     fit-margin-right="0"
     fit-margin-bottom="0" />
  <metadata
     id="metadata5">
    <rdf:RDF>
      <cc:Work
         rdf:about="">
        <dc:format>image/svg+xml</dc:format>
        <dc:type
           rdf:resource="http://purl.org/dc/dcmitype/StillImage" />
        <dc:title></dc:title>
      </cc:Work>
    </rdf:RDF>
  </metadata>
    <circle
       style="color:#000000;clip-rule:nonzero;display:inline;overflow:visible;visibility:visible;opacity:1;isolation:auto;mix-blend-mode:normal;color-interpolation:sRGB;color-interpolation-filters:linearRGB;solid-color:#000000;solid-opacity:1;vector-effect:none;fill:#ffffff;fill-opacity:1;fill-rule:evenodd;stroke:#F25C05;stroke-width:1;stroke-linecap:butt;stroke-linejoin:miter;stroke-miterlimit:4;stroke-dasharray:none;stroke-dashoffset:0;stroke-opacity:1;marker:none;color-rendering:auto;image-rendering:auto;shape-rendering:auto;text-rendering:auto;enable-background:accumulate"
       id="path815"
       cx="15"
       cy="15"
       r="14.5" />
<g transform="translate(9,6)"><g id="surface1">
<path style=" stroke:none;fill-rule:nonzero;fill:rgb(30%,30%,30%);fill-opacity:1;" d="M 3.6875 1.101562 C 5.003906 1.101562 4.242188 4.660156 4.3125 5.414062 C 4.339844 5.707031 4.3125 6.433594 4.3125 6.917969 C 4.3125 7.464844 4.933594 7.464844 5.003906 7.054688 C 5.035156 6.871094 5.140625 5.6875 5.140625 3.839844 C 5.140625 2.8125 4.933594 0.0507812 6.109375 0.0078125 C 7.078125 -0.0273438 7.078125 1.375 7.011719 4.113281 C 6.964844 5.933594 6.941406 6.5 6.941406 6.917969 C 6.941406 7.535156 7.367188 7.4375 7.425781 7.191406 C 7.566406 6.59375 7.558594 5.160156 7.703125 4.042969 C 7.847656 2.929688 7.976562 2.128906 8.460938 2.128906 C 9.640625 2.128906 9.5 3.359375 9.429688 5.34375 C 9.355469 7.464844 9.015625 9.996094 9.015625 9.996094 C 9.015625 9.996094 10.492188 7.042969 11.507812 7.328125 C 11.992188 7.464844 12.144531 8.273438 11.851562 9.039062 C 10.816406 11.777344 9.355469 14.890625 8.046875 15.949219 C 6.527344 17.179688 3.203125 17.660156 1.613281 15.46875 C 1.039062 14.679688 0.34375 12.5 0.0898438 10.203125 C -0.183594 7.671875 0.160156 3.222656 1.199219 3.222656 C 1.433594 3.222656 1.617188 3.328125 1.683594 3.632812 C 1.929688 4.757812 1.28125 7.464844 2.097656 7.464844 C 3.203125 7.464844 1.75 1.101562 3.6875 1.101562 Z M 3.6875 1.101562 "/>
</g>
</g>
</svg>
