<?xml version="1.0" encoding="UTF-8" standalone="no"?>
<!-- Created with Inkscape (http://www.inkscape.org/) -->

<svg
   xmlns:dc="http://purl.org/dc/elements/1.1/"
   xmlns:cc="http://creativecommons.org/ns#"
   xmlns:rdf="http://www.w3.org/1999/02/22-rdf-syntax-ns#"
   xmlns:svg="http://www.w3.org/2000/svg"
   xmlns="http://www.w3.org/2000/svg"
   xmlns:xlink="http://www.w3.org/1999/xlink"
   xmlns:sodipodi="http://sodipodi.sourceforge.net/DTD/sodipodi-0.dtd"
   xmlns:inkscape="http://www.inkscape.org/namespaces/inkscape"
   width="30px"
   height="30px"
   version="1.1"
   id="svg8"
   inkscape:version="0.92.4 5da689c313, 2019-01-14"
   sodipodi:docname="container.svg">
  <defs
     id="defs2" />
  <sodipodi:namedview
     id="base"
     pagecolor="#ffffff"
     bordercolor="#666666"
     borderopacity="1.0"
     inkscape:pageopacity="0.0"
     inkscape:pageshadow="2"
     inkscape:zoom="13.049334"
     inkscape:cx="18.679046"
     inkscape:cy="12.165829"
     inkscape:document-units="px"
     inkscape:current-layer="layer1"
     showgrid="false"
     inkscape:snap-page="false"
     units="px"
     inkscape:window-width="1884"
     inkscape:window-height="1061"
     inkscape:window-x="0"
     inkscape:window-y="0"
     inkscape:window-maximized="1"
     fit-margin-top="0"
     fit-margin-left="0"
     fit-margin-right="0"
     fit-margin-bottom="0" />
  <metadata
     id="metadata5">
    <rdf:RDF>
      <cc:Work
         rdf:about="">
        <dc:format>image/svg+xml</dc:format>
        <dc:type
           rdf:resource="http://purl.org/dc/dcmitype/StillImage" />
        <dc:title></dc:title>
      </cc:Work>
    </rdf:RDF>
  </metadata>
    <circle
       style="color:#000000;clip-rule:nonzero;display:inline;overflow:visible;visibility:visible;opacity:1;isolation:auto;mix-blend-mode:normal;color-interpolation:sRGB;color-interpolation-filters:linearRGB;solid-color:#000000;solid-opacity:1;vector-effect:none;fill:#4D308C;fill-opacity:1;fill-rule:evenodd;stroke:#ffffff;stroke-width:1;stroke-linecap:butt;stroke-linejoin:miter;stroke-miterlimit:4;stroke-dasharray:none;stroke-dashoffset:0;stroke-opacity:1;marker:none;color-rendering:auto;image-rendering:auto;shape-rendering:auto;text-rendering:auto;enable-background:accumulate"
       id="path815"
       cx="15"
       cy="15"
       r="14.5" />
<g transform="translate(7,7)"><g id="surface1">
<path style=" stroke:none;fill-rule:nonzero;fill:#FFFFFF;fill-opacity:1;" d="M 3.867188 14.957031 L 0 13.601562 L 0.03125 8.5 L 3.855469 9.871094 Z M 2.390625 12.675781 L 2.589844 13.328125 L 3.179688 13.527344 L 2.167969 10.449219 L 1.675781 10.269531 L 0.664062 12.601562 L 1.222656 12.816406 L 1.453125 12.324219 Z M 1.648438 11.851562 L 1.921875 11.1875 L 2.195312 12.039062 Z M 1.648438 11.851562 "/>
<path style=" stroke:none;fill-rule:nonzero;fill:#FFFFFF;fill-opacity:1;" d="M 7.941406 13.558594 L 4.183594 14.945312 L 4.183594 9.886719 L 7.960938 8.539062 Z M 5.0625 13.578125 C 5.0625 13.578125 7.160156 13.125 7.285156 12.25 C 7.378906 11.585938 6.761719 11.597656 6.761719 11.597656 C 7.234375 11.34375 7.261719 10.566406 6.761719 10.429688 C 6.472656 10.347656 5.042969 10.839844 5.042969 10.839844 Z M 5.703125 11.164062 C 5.703125 11.164062 6.429688 10.894531 6.46875 11.164062 C 6.523438 11.59375 5.703125 11.742188 5.703125 11.742188 Z M 5.703125 12.25 C 5.703125 12.25 6.597656 11.84375 6.632812 12.210938 C 6.675781 12.65625 5.703125 12.835938 5.703125 12.835938 Z M 5.703125 12.25 "/>
<path style=" stroke:none;fill-rule:nonzero;fill:#FFFFFF;fill-opacity:1;" d="M 4 6.945312 L 7.785156 8.308594 L 3.984375 9.628906 L 0.257812 8.269531 Z M 5.203125 8.03125 C 5.226562 8.296875 5.074219 8.507812 4.78125 8.582031 C 3.976562 8.777344 3.183594 8.484375 3.183594 8.066406 C 3.183594 7.644531 4.101562 7.625 4.335938 7.632812 L 4.25 7.230469 C 3.746094 7.238281 2.394531 7.402344 2.394531 8.105469 C 2.394531 8.695312 3.761719 9.335938 5.058594 8.949219 C 5.546875 8.804688 5.945312 8.554688 5.886719 8.03125 Z M 5.203125 8.03125 "/>
<path style=" stroke:none;fill-rule:nonzero;fill:#FFFFFF;fill-opacity:1;" d="M 11.996094 15 L 8.257812 13.589844 L 8.285156 8.542969 L 11.964844 9.886719 Z M 10.46875 12.746094 L 10.667969 13.398438 L 11.257812 13.597656 L 10.246094 10.527344 L 9.75 10.34375 L 8.738281 12.675781 L 9.292969 12.890625 L 9.523438 12.402344 Z M 9.722656 11.921875 L 9.996094 11.257812 L 10.269531 12.109375 Z M 9.722656 11.921875 "/>
<path style=" stroke:none;fill-rule:nonzero;fill:#FFFFFF;fill-opacity:1;" d="M 15.980469 13.640625 L 12.308594 14.996094 L 12.28125 9.910156 L 16 8.589844 Z M 13.136719 13.640625 C 13.136719 13.640625 15.238281 13.183594 15.359375 12.3125 C 15.453125 11.648438 14.835938 11.660156 14.835938 11.660156 C 15.308594 11.40625 15.328125 10.628906 14.835938 10.488281 C 14.546875 10.410156 13.117188 10.902344 13.117188 10.902344 Z M 13.773438 11.226562 C 13.773438 11.226562 14.503906 10.957031 14.539062 11.226562 C 14.59375 11.65625 13.773438 11.800781 13.773438 11.800781 Z M 13.773438 12.3125 C 13.773438 12.3125 14.667969 11.90625 14.703125 12.273438 C 14.746094 12.71875 13.773438 12.898438 13.773438 12.898438 Z M 13.773438 12.3125 "/>
<path style=" stroke:none;fill-rule:nonzero;fill:#FFFFFF;fill-opacity:1;" d="M 12.160156 6.917969 L 15.882812 8.328125 L 12.148438 9.675781 L 8.46875 8.289062 Z M 13.277344 8.097656 C 13.300781 8.367188 13.148438 8.578125 12.855469 8.648438 C 12.050781 8.847656 11.257812 8.554688 11.257812 8.132812 C 11.257812 7.714844 12.175781 7.695312 12.410156 7.703125 L 12.328125 7.300781 C 11.820312 7.308594 10.46875 7.46875 10.46875 8.175781 C 10.46875 8.765625 11.835938 9.40625 13.132812 9.019531 C 13.625 8.871094 14.019531 8.625 13.960938 8.097656 Z M 13.277344 8.097656 "/>
<path style=" stroke:none;fill-rule:nonzero;fill:#FFFFFF;fill-opacity:1;" d="M 7.945312 8.070312 L 4.140625 6.667969 L 4.167969 1.679688 L 7.941406 2.992188 Z M 6.382812 5.824219 L 6.582031 6.476562 L 7.171875 6.675781 L 6.160156 3.609375 L 5.667969 3.425781 L 4.65625 5.757812 L 5.210938 5.972656 L 5.441406 5.484375 Z M 5.636719 5.011719 L 5.910156 4.347656 L 6.183594 5.199219 Z M 5.636719 5.011719 "/>
<path style=" stroke:none;fill-rule:nonzero;fill:#FFFFFF;fill-opacity:1;" d="M 8.25 8.070312 L 8.238281 2.996094 L 12.011719 1.675781 L 11.976562 6.675781 M 9.050781 6.730469 C 9.050781 6.730469 11.152344 6.273438 11.273438 5.40625 C 11.367188 4.742188 10.753906 4.75 10.753906 4.75 C 11.226562 4.496094 11.25 3.71875 10.753906 3.582031 C 10.464844 3.503906 9.03125 3.996094 9.03125 3.996094 Z M 9.691406 4.316406 C 9.691406 4.316406 10.417969 4.046875 10.453125 4.316406 C 10.511719 4.75 9.691406 4.894531 9.691406 4.894531 Z M 9.75 5.511719 C 9.75 5.511719 10.644531 5.101562 10.679688 5.46875 C 10.71875 5.914062 9.75 6.097656 9.75 6.097656 Z M 9.75 5.511719 "/>
<path style=" stroke:none;fill-rule:nonzero;fill:#FFFFFF;fill-opacity:1;" d="M 8.074219 0 L 11.898438 1.375 L 8.042969 2.722656 L 4.3125 1.414062 Z M 9.191406 1.179688 C 9.214844 1.449219 9.0625 1.660156 8.769531 1.730469 C 7.960938 1.929688 7.167969 1.636719 7.167969 1.214844 C 7.167969 0.796875 8.089844 0.777344 8.324219 0.785156 L 8.246094 0.382812 C 7.742188 0.390625 6.386719 0.550781 6.386719 1.257812 C 6.386719 1.847656 7.757812 2.488281 9.050781 2.101562 C 9.542969 1.953125 9.941406 1.703125 9.882812 1.179688 Z M 9.191406 1.179688 "/>
</g>
</g>
</svg>
