<?xml version="1.0" encoding="UTF-8" standalone="no"?>
<!-- Created with Inkscape (http://www.inkscape.org/) -->

<svg
   xmlns:dc="http://purl.org/dc/elements/1.1/"
   xmlns:cc="http://creativecommons.org/ns#"
   xmlns:rdf="http://www.w3.org/1999/02/22-rdf-syntax-ns#"
   xmlns:svg="http://www.w3.org/2000/svg"
   xmlns="http://www.w3.org/2000/svg"
   xmlns:xlink="http://www.w3.org/1999/xlink"
   xmlns:sodipodi="http://sodipodi.sourceforge.net/DTD/sodipodi-0.dtd"
   xmlns:inkscape="http://www.inkscape.org/namespaces/inkscape"
   width="30px"
   height="30px"
   version="1.1"
   id="svg8"
   inkscape:version="0.92.4 5da689c313, 2019-01-14"
   sodipodi:docname="container.svg">
  <defs
     id="defs2" />
  <sodipodi:namedview
     id="base"
     pagecolor="#ffffff"
     bordercolor="#666666"
     borderopacity="1.0"
     inkscape:pageopacity="0.0"
     inkscape:pageshadow="2"
     inkscape:zoom="13.049334"
     inkscape:cx="18.679046"
     inkscape:cy="12.165829"
     inkscape:document-units="px"
     inkscape:current-layer="layer1"
     showgrid="false"
     inkscape:snap-page="false"
     units="px"
     inkscape:window-width="1884"
     inkscape:window-height="1061"
     inkscape:window-x="0"
     inkscape:window-y="0"
     inkscape:window-maximized="1"
     fit-margin-top="0"
     fit-margin-left="0"
     fit-margin-right="0"
     fit-margin-bottom="0" />
  <metadata
     id="metadata5">
    <rdf:RDF>
      <cc:Work
         rdf:about="">
        <dc:format>image/svg+xml</dc:format>
        <dc:type
           rdf:resource="http://purl.org/dc/dcmitype/StillImage" />
        <dc:title></dc:title>
      </cc:Work>
    </rdf:RDF>
  </metadata>
    <circle
       style="color:#000000;clip-rule:nonzero;display:inline;overflow:visible;visibility:visible;opacity:1;isolation:auto;mix-blend-mode:normal;color-interpolation:sRGB;color-interpolation-filters:linearRGB;solid-color:#000000;solid-opacity:1;vector-effect:none;fill:#ffffff;fill-opacity:1;fill-rule:evenodd;stroke:#4D308C;stroke-width:1;stroke-linecap:butt;stroke-linejoin:miter;stroke-miterlimit:4;stroke-dasharray:none;stroke-dashoffset:0;stroke-opacity:1;marker:none;color-rendering:auto;image-rendering:auto;shape-rendering:auto;text-rendering:auto;enable-background:accumulate"
       id="path815"
       cx="15"
       cy="15"
       r="14.5" />
<g transform="translate(7,9)"><g id="surface1">
<path style=" stroke:none;fill-rule:nonzero;fill:rgb(30%,30%,30%);fill-opacity:1;" d="M 0.367188 7.265625 L 7.652344 4.488281 L 8.03125 5.5625 L 0.746094 8.339844 C 0.457031 8.449219 0.140625 8.296875 0.0351562 8 C -0.0664062 7.703125 0.078125 7.375 0.367188 7.265625 Z M 0.367188 7.265625 "/>
<path style=" stroke:none;fill-rule:nonzero;fill:rgb(30%,30%,30%);fill-opacity:1;" d="M 14.179688 5.640625 L 14.148438 5.554688 C 14.046875 5.285156 13.753906 5.148438 13.492188 5.25 L 13.449219 5.265625 L 11.90625 1.082031 C 12.140625 0.964844 12.253906 0.679688 12.160156 0.425781 L 12.128906 0.339844 C 12.03125 0.0703125 11.738281 -0.0664062 11.472656 0.0351562 L 6.933594 1.804688 C 6.671875 1.910156 6.539062 2.210938 6.636719 2.484375 L 6.667969 2.566406 C 6.765625 2.839844 7.058594 2.976562 7.324219 2.875 L 7.421875 2.835938 L 8.964844 7.015625 L 8.953125 7.023438 C 8.6875 7.125 8.558594 7.429688 8.65625 7.699219 L 8.6875 7.785156 C 8.785156 8.054688 9.078125 8.191406 9.339844 8.089844 L 13.882812 6.316406 C 14.144531 6.214844 14.277344 5.914062 14.179688 5.640625 Z M 14.179688 5.640625 "/>
<path style=" stroke:none;fill-rule:nonzero;fill:rgb(30%,30%,30%);fill-opacity:1;" d="M 7.765625 9.875 L 15.453125 9.875 C 15.753906 9.875 15.996094 10.128906 15.996094 10.4375 C 15.996094 10.75 15.753906 11 15.453125 11 L 7.765625 11 C 7.464844 11 7.222656 10.75 7.222656 10.4375 C 7.222656 10.128906 7.464844 9.875 7.765625 9.875 Z M 7.765625 9.875 "/>
</g>
</g>
</svg>
