<?xml version="1.0" encoding="UTF-8" standalone="no"?>
<!-- Created with Inkscape (http://www.inkscape.org/) -->

<svg
   xmlns:dc="http://purl.org/dc/elements/1.1/"
   xmlns:cc="http://creativecommons.org/ns#"
   xmlns:rdf="http://www.w3.org/1999/02/22-rdf-syntax-ns#"
   xmlns:svg="http://www.w3.org/2000/svg"
   xmlns="http://www.w3.org/2000/svg"
   xmlns:xlink="http://www.w3.org/1999/xlink"
   xmlns:sodipodi="http://sodipodi.sourceforge.net/DTD/sodipodi-0.dtd"
   xmlns:inkscape="http://www.inkscape.org/namespaces/inkscape"
   width="30px"
   height="30px"
   version="1.1"
   id="svg8"
   inkscape:version="0.92.4 5da689c313, 2019-01-14"
   sodipodi:docname="container.svg">
  <defs
     id="defs2" />
  <sodipodi:namedview
     id="base"
     pagecolor="#ffffff"
     bordercolor="#666666"
     borderopacity="1.0"
     inkscape:pageopacity="0.0"
     inkscape:pageshadow="2"
     inkscape:zoom="13.049334"
     inkscape:cx="18.679046"
     inkscape:cy="12.165829"
     inkscape:document-units="px"
     inkscape:current-layer="layer1"
     showgrid="false"
     inkscape:snap-page="false"
     units="px"
     inkscape:window-width="1884"
     inkscape:window-height="1061"
     inkscape:window-x="0"
     inkscape:window-y="0"
     inkscape:window-maximized="1"
     fit-margin-top="0"
     fit-margin-left="0"
     fit-margin-right="0"
     fit-margin-bottom="0" />
  <metadata
     id="metadata5">
    <rdf:RDF>
      <cc:Work
         rdf:about="">
        <dc:format>image/svg+xml</dc:format>
        <dc:type
           rdf:resource="http://purl.org/dc/dcmitype/StillImage" />
        <dc:title></dc:title>
      </cc:Work>
    </rdf:RDF>
  </metadata>
    <circle
       style="color:#000000;clip-rule:nonzero;display:inline;overflow:visible;visibility:visible;opacity:1;isolation:auto;mix-blend-mode:normal;color-interpolation:sRGB;color-interpolation-filters:linearRGB;solid-color:#000000;solid-opacity:1;vector-effect:none;fill:#ffffff;fill-opacity:1;fill-rule:evenodd;stroke:#4D308C;stroke-width:1;stroke-linecap:butt;stroke-linejoin:miter;stroke-miterlimit:4;stroke-dasharray:none;stroke-dashoffset:0;stroke-opacity:1;marker:none;color-rendering:auto;image-rendering:auto;shape-rendering:auto;text-rendering:auto;enable-background:accumulate"
       id="path815"
       cx="15"
       cy="15"
       r="14.5" />
<g transform="translate(6,6)"><g id="surface1">
<path style=" stroke:none;fill-rule:nonzero;fill:rgb(30%,30%,30%);fill-opacity:1;" d="M 6.320312 10.414062 C 6.359375 10.078125 6.648438 9.675781 6.992188 9.675781 L 11.390625 9.6875 L 11.140625 4.066406 L 8.703125 4.066406 C 8.492188 1.457031 7.460938 0.0234375 5.75 0 C 5.144531 -0.0078125 4.605469 0.207031 4.15625 0.644531 C 3.449219 1.328125 3.003906 2.523438 2.867188 4.066406 L 0.425781 4.066406 L 0.00390625 14.398438 C 0 14.507812 0.0390625 14.617188 0.117188 14.695312 C 0.195312 14.773438 0.300781 14.816406 0.410156 14.816406 L 5.773438 14.804688 Z M 8.15625 5.117188 C 8.15625 5.265625 8.265625 5.398438 8.417969 5.414062 C 8.5 5.421875 8.582031 5.394531 8.644531 5.339844 C 8.707031 5.285156 8.746094 5.207031 8.746094 5.125 C 8.746094 4.917969 8.742188 4.71875 8.730469 4.527344 C 9.042969 4.660156 9.210938 4.992188 9.140625 5.316406 C 9.070312 5.644531 8.777344 5.875 8.441406 5.878906 C 8.101562 5.878906 7.808594 5.644531 7.738281 5.320312 C 7.664062 4.992188 7.835938 4.664062 8.144531 4.527344 C 8.152344 4.714844 8.15625 4.910156 8.15625 5.117188 Z M 4.566406 1.054688 C 4.902344 0.734375 5.296875 0.574219 5.742188 0.578125 C 6.730469 0.59375 7.886719 1.238281 8.117188 4.066406 L 3.460938 4.066406 C 3.589844 2.695312 3.976562 1.628906 4.566406 1.054688 Z M 3.09375 5.875 C 2.765625 5.851562 2.496094 5.617188 2.4375 5.300781 C 2.378906 4.984375 2.542969 4.667969 2.835938 4.53125 C 2.828125 4.722656 2.824219 4.917969 2.824219 5.117188 C 2.824219 5.265625 2.933594 5.398438 3.085938 5.414062 C 3.167969 5.421875 3.25 5.394531 3.3125 5.339844 C 3.375 5.285156 3.410156 5.207031 3.410156 5.125 C 3.410156 4.917969 3.417969 4.71875 3.425781 4.519531 C 3.75 4.65625 3.925781 5 3.84375 5.335938 C 3.761719 5.671875 3.441406 5.898438 3.09375 5.875 Z M 3.09375 5.875 "/>
<path style=" stroke:none;fill-rule:nonzero;fill:rgb(30%,30%,30%);fill-opacity:1;" d="M 16.066406 17 L 6.957031 17 C 6.691406 17 6.4375 16.886719 6.261719 16.691406 C 6.082031 16.496094 6 16.234375 6.03125 15.972656 L 6.660156 10.914062 C 6.71875 10.453125 7.117188 10.109375 7.585938 10.109375 L 7.589844 10.109375 L 15.394531 10.132812 C 15.859375 10.136719 16.253906 10.476562 16.316406 10.929688 L 16.988281 15.964844 C 17.023438 16.226562 16.941406 16.488281 16.765625 16.6875 C 16.589844 16.886719 16.332031 17 16.066406 17 Z M 7.585938 10.609375 C 7.375 10.613281 7.195312 10.765625 7.167969 10.976562 L 6.539062 16.035156 C 6.523438 16.152344 6.5625 16.269531 6.640625 16.359375 C 6.722656 16.445312 6.835938 16.496094 6.957031 16.496094 L 16.066406 16.496094 C 16.1875 16.496094 16.300781 16.445312 16.382812 16.355469 C 16.460938 16.265625 16.5 16.148438 16.484375 16.03125 L 15.808594 10.996094 C 15.78125 10.789062 15.601562 10.636719 15.394531 10.636719 L 7.589844 10.609375 Z M 7.585938 10.609375 "/>
<path style=" stroke:none;fill-rule:nonzero;fill:rgb(30%,30%,30%);fill-opacity:1;" d="M 13.769531 11.472656 C 13.769531 11.175781 13.554688 10.921875 13.253906 10.871094 C 12.953125 10.816406 12.660156 10.984375 12.558594 11.265625 C 12.457031 11.546875 12.574219 11.859375 12.839844 12.007812 C 12.773438 12.441406 12.625 12.832031 12.40625 13.136719 C 12.152344 13.492188 11.832031 13.6875 11.5 13.6875 C 10.882812 13.6875 10.328125 12.96875 10.167969 12.023438 C 10.433594 11.890625 10.566406 11.59375 10.488281 11.3125 C 10.410156 11.03125 10.140625 10.84375 9.847656 10.863281 C 9.550781 10.878906 9.308594 11.101562 9.269531 11.390625 C 9.226562 11.675781 9.398438 11.953125 9.675781 12.050781 C 9.753906 12.566406 9.933594 13.039062 10.195312 13.410156 C 10.546875 13.902344 11.007812 14.171875 11.5 14.171875 C 11.996094 14.171875 12.460938 13.902344 12.808594 13.414062 C 13.074219 13.042969 13.25 12.574219 13.328125 12.0625 C 13.589844 11.984375 13.769531 11.746094 13.769531 11.472656 Z M 9.433594 11.472656 C 9.433594 11.261719 9.585938 11.078125 9.796875 11.035156 C 10.007812 10.992188 10.21875 11.105469 10.304688 11.300781 C 10.390625 11.496094 10.320312 11.722656 10.144531 11.839844 C 10.136719 11.78125 10.132812 11.71875 10.128906 11.660156 C 10.121094 11.527344 10.007812 11.421875 9.871094 11.429688 C 9.734375 11.4375 9.632812 11.550781 9.636719 11.683594 C 9.640625 11.742188 9.644531 11.800781 9.652344 11.855469 C 9.515625 11.773438 9.433594 11.628906 9.433594 11.472656 Z M 13.351562 11.875 C 13.355469 11.808594 13.363281 11.746094 13.363281 11.683594 C 13.371094 11.550781 13.265625 11.4375 13.128906 11.433594 C 12.996094 11.425781 12.878906 11.527344 12.875 11.660156 C 12.871094 11.714844 12.867188 11.769531 12.863281 11.820312 C 12.703125 11.695312 12.648438 11.484375 12.726562 11.304688 C 12.804688 11.121094 12.996094 11.007812 13.195312 11.03125 C 13.394531 11.050781 13.558594 11.199219 13.59375 11.394531 C 13.628906 11.589844 13.53125 11.785156 13.351562 11.875 Z M 13.351562 11.875 "/>
</g>
</g>
</svg>
