<?xml version="1.0" encoding="UTF-8"?>
<svg xmlns="http://www.w3.org/2000/svg" xmlns:xlink="http://www.w3.org/1999/xlink" width="11px" height="10px" viewBox="0 0 11 10" version="1.1">
<g id="surface1">
<path style=" stroke:none;fill-rule:nonzero;fill:rgb(30%,30%,30%);fill-opacity:1;" d="M 10.644531 5.023438 C 10.566406 5.085938 10.484375 5.148438 10.402344 5.203125 L 10.386719 5.21875 C 10.085938 5.402344 9.769531 5.554688 9.4375 5.679688 L 9.429688 5.679688 L 9.417969 5.683594 C 9.238281 5.742188 9.054688 5.789062 8.867188 5.820312 L 8.832031 5.824219 L 8.800781 5.824219 C 8.71875 5.824219 8.285156 5.828125 7.496094 5.832031 C 7.414062 5.832031 7.34375 5.882812 7.324219 5.957031 C 7.226562 6.460938 6.734375 6.84375 6.148438 6.84375 L 4.792969 6.84375 C 4.207031 6.84375 3.714844 6.460938 3.617188 5.960938 C 3.601562 5.886719 3.527344 5.835938 3.445312 5.835938 C 2.664062 5.832031 2.226562 5.832031 2.144531 5.828125 L 2.109375 5.828125 L 2.078125 5.824219 C 1.890625 5.792969 1.703125 5.746094 1.523438 5.6875 L 1.515625 5.683594 L 1.507812 5.683594 C 1.175781 5.558594 0.859375 5.402344 0.558594 5.21875 L 0.550781 5.210938 L 0.542969 5.207031 C 0.457031 5.148438 0.378906 5.089844 0.300781 5.023438 C 0.234375 4.964844 0 4.785156 0 4.785156 L 0 8.769531 C 0 9.988281 1.152344 9.996094 2.574219 9.996094 L 8.367188 9.996094 C 9.789062 9.996094 11 9.988281 11 8.769531 L 11 4.785156 C 11.003906 4.785156 10.710938 4.964844 10.644531 5.023438 Z M 10.644531 5.023438 "/>
<path style=" stroke:none;fill-rule:nonzero;fill:rgb(30%,30%,30%);fill-opacity:1;" d="M 0.828125 4.691406 C 1.097656 4.859375 1.386719 5 1.6875 5.109375 C 1.835938 5.160156 1.992188 5.199219 2.144531 5.226562 C 2.15625 5.226562 2.167969 5.230469 2.179688 5.230469 C 2.261719 5.230469 2.578125 5.234375 3.683594 5.238281 L 3.882812 5.238281 C 3.972656 5.234375 4.050781 5.300781 4.054688 5.386719 L 4.054688 5.578125 C 4.070312 5.953125 4.394531 6.25 4.792969 6.242188 L 6.039062 6.242188 C 6.433594 6.25 6.761719 5.957031 6.777344 5.582031 L 6.78125 5.394531 C 6.789062 5.308594 6.867188 5.242188 6.957031 5.246094 L 7.300781 5.246094 C 7.300781 5.246094 7.472656 5.253906 7.71875 5.253906 C 8.144531 5.257812 8.570312 5.234375 8.992188 5.179688 L 9.015625 5.175781 C 9.136719 5.144531 9.257812 5.105469 9.375 5.0625 L 9.394531 5.058594 C 9.792969 4.875 10.078125 4.710938 10.238281 4.570312 C 10.238281 4.570312 11 4.082031 11 3.855469 L 11 2.773438 C 11 1.640625 9.808594 1.753906 8.484375 1.753906 L 7.480469 1.753906 L 7.480469 0.953125 C 7.480469 0.429688 7.03125 0.00390625 6.480469 0.00390625 L 4.429688 0.00390625 C 3.875 0.00390625 3.429688 0.429688 3.425781 0.953125 L 3.425781 1.757812 L 2.285156 1.757812 C 0.957031 1.757812 0.00390625 1.640625 0.00390625 2.773438 L 0.00390625 3.855469 C 0.109375 4.285156 0.449219 4.429688 0.828125 4.691406 Z M 4.113281 0.953125 C 4.113281 0.789062 4.253906 0.652344 4.429688 0.652344 L 6.480469 0.652344 C 6.652344 0.652344 6.796875 0.789062 6.796875 0.953125 L 6.796875 1.757812 L 4.113281 1.757812 Z M 4.113281 0.953125 "/>
</g>
</svg>
