<?xml version="1.0" encoding="UTF-8"?>
<svg xmlns="http://www.w3.org/2000/svg" xmlns:xlink="http://www.w3.org/1999/xlink" width="9px" height="11px" viewBox="0 0 9 11" version="1.1">
<g id="surface1">
<path style=" stroke:none;fill-rule:nonzero;fill:rgb(30%,30%,30%);fill-opacity:1;" d="M 0 0.00390625 L 0.542969 0.00390625 L 0.542969 10.996094 L 0 10.996094 Z M 0 0.00390625 "/>
<path style=" stroke:none;fill-rule:nonzero;fill:rgb(30%,30%,30%);fill-opacity:1;" d="M 8.457031 0.00390625 L 9 0.00390625 L 9 10.996094 L 8.457031 10.996094 Z M 8.457031 0.00390625 "/>
<path style=" stroke:none;fill-rule:nonzero;fill:rgb(30%,30%,30%);fill-opacity:1;" d="M 6.34375 0.00390625 L 6.34375 3.273438 L 4.769531 3.273438 L 4.769531 0.00390625 L 4.230469 0.00390625 L 4.230469 3.273438 L 2.65625 3.273438 L 2.65625 0.00390625 L 2.113281 0.00390625 L 2.113281 10.996094 L 2.65625 10.996094 L 2.65625 7.785156 L 4.230469 7.785156 L 4.230469 10.996094 L 4.769531 10.996094 L 4.769531 7.785156 L 6.34375 7.785156 L 6.34375 10.996094 L 6.886719 10.996094 L 6.886719 0.00390625 Z M 3.773438 7.027344 L 4.230469 4.984375 C 3.957031 4.882812 3.800781 4.601562 3.855469 4.316406 C 3.910156 4.035156 4.164062 3.832031 4.457031 3.835938 C 4.75 3.839844 5 4.050781 5.046875 4.335938 C 5.09375 4.621094 4.925781 4.894531 4.648438 4.992188 L 5.101562 7.011719 Z M 3.773438 7.027344 "/>
</g>
</svg>
