<?xml version="1.0" encoding="UTF-8" standalone="no"?>
<!-- Created with Inkscape (http://www.inkscape.org/) -->

<svg
   xmlns:dc="http://purl.org/dc/elements/1.1/"
   xmlns:cc="http://creativecommons.org/ns#"
   xmlns:rdf="http://www.w3.org/1999/02/22-rdf-syntax-ns#"
   xmlns:svg="http://www.w3.org/2000/svg"
   xmlns="http://www.w3.org/2000/svg"
   xmlns:xlink="http://www.w3.org/1999/xlink"
   xmlns:sodipodi="http://sodipodi.sourceforge.net/DTD/sodipodi-0.dtd"
   xmlns:inkscape="http://www.inkscape.org/namespaces/inkscape"
   width="30px"
   height="30px"
   version="1.1"
   id="svg8"
   inkscape:version="0.92.4 5da689c313, 2019-01-14"
   sodipodi:docname="container.svg">
  <defs
     id="defs2" />
  <sodipodi:namedview
     id="base"
     pagecolor="#ffffff"
     bordercolor="#666666"
     borderopacity="1.0"
     inkscape:pageopacity="0.0"
     inkscape:pageshadow="2"
     inkscape:zoom="13.049334"
     inkscape:cx="18.679046"
     inkscape:cy="12.165829"
     inkscape:document-units="px"
     inkscape:current-layer="layer1"
     showgrid="false"
     inkscape:snap-page="false"
     units="px"
     inkscape:window-width="1884"
     inkscape:window-height="1061"
     inkscape:window-x="0"
     inkscape:window-y="0"
     inkscape:window-maximized="1"
     fit-margin-top="0"
     fit-margin-left="0"
     fit-margin-right="0"
     fit-margin-bottom="0" />
  <metadata
     id="metadata5">
    <rdf:RDF>
      <cc:Work
         rdf:about="">
        <dc:format>image/svg+xml</dc:format>
        <dc:type
           rdf:resource="http://purl.org/dc/dcmitype/StillImage" />
        <dc:title></dc:title>
      </cc:Work>
    </rdf:RDF>
  </metadata>
    <circle
       style="color:#000000;clip-rule:nonzero;display:inline;overflow:visible;visibility:visible;opacity:1;isolation:auto;mix-blend-mode:normal;color-interpolation:sRGB;color-interpolation-filters:linearRGB;solid-color:#000000;solid-opacity:1;vector-effect:none;fill:#1D1D1B;fill-opacity:1;fill-rule:evenodd;stroke:#ffffff;stroke-width:1;stroke-linecap:butt;stroke-linejoin:miter;stroke-miterlimit:4;stroke-dasharray:none;stroke-dashoffset:0;stroke-opacity:1;marker:none;color-rendering:auto;image-rendering:auto;shape-rendering:auto;text-rendering:auto;enable-background:accumulate"
       id="path815"
       cx="15"
       cy="15"
       r="14.5" />
<g transform="translate(7,7)"><g id="surface1">
<path style=" stroke:none;fill-rule:nonzero;fill:#FFFFFF;fill-opacity:1;" d="M 15.480469 8.035156 C 15.367188 8.140625 15.253906 8.238281 15.132812 8.328125 L 15.117188 8.335938 L 15.105469 8.347656 C 14.667969 8.640625 14.207031 8.890625 13.726562 9.085938 L 13.714844 9.085938 L 13.699219 9.09375 C 13.441406 9.1875 13.171875 9.261719 12.898438 9.308594 L 12.847656 9.320312 L 12.796875 9.320312 C 12.683594 9.320312 12.050781 9.328125 10.90625 9.332031 C 10.785156 9.328125 10.683594 9.414062 10.65625 9.535156 C 10.511719 10.339844 9.796875 10.949219 8.941406 10.949219 L 6.972656 10.949219 C 6.121094 10.949219 5.40625 10.339844 5.261719 9.539062 C 5.238281 9.421875 5.132812 9.335938 5.015625 9.339844 C 3.875 9.332031 3.238281 9.328125 3.121094 9.324219 L 3.070312 9.324219 L 3.019531 9.316406 C 2.746094 9.265625 2.480469 9.195312 2.21875 9.097656 L 2.207031 9.09375 L 2.195312 9.09375 C 1.710938 8.894531 1.25 8.644531 0.8125 8.347656 L 0.800781 8.339844 L 0.789062 8.328125 C 0.667969 8.238281 0.550781 8.140625 0.4375 8.039062 C 0.339844 7.945312 0 7.660156 0 7.660156 L 0 14.03125 C 0 15.976562 1.675781 15.992188 3.742188 15.992188 L 12.171875 15.992188 C 14.238281 15.992188 16 15.976562 16 14.03125 L 16 7.65625 C 16.003906 7.65625 15.578125 7.945312 15.480469 8.035156 Z M 15.480469 8.035156 "/>
<path style=" stroke:none;fill-rule:nonzero;fill:#FFFFFF;fill-opacity:1;" d="M 1.203125 7.507812 C 1.597656 7.773438 2.019531 7.996094 2.457031 8.179688 C 2.671875 8.257812 2.894531 8.316406 3.121094 8.363281 C 3.136719 8.363281 3.152344 8.367188 3.167969 8.367188 C 3.289062 8.367188 3.75 8.375 5.359375 8.378906 L 5.644531 8.378906 C 5.777344 8.375 5.890625 8.480469 5.898438 8.617188 L 5.898438 8.921875 C 5.917969 9.523438 6.394531 10 6.96875 9.988281 L 8.785156 9.988281 C 9.355469 10 9.832031 9.53125 9.855469 8.933594 L 9.863281 8.628906 C 9.875 8.492188 9.988281 8.390625 10.117188 8.394531 L 10.617188 8.394531 C 10.617188 8.394531 10.867188 8.402344 11.226562 8.402344 C 11.847656 8.410156 12.464844 8.371094 13.078125 8.289062 L 13.113281 8.28125 C 13.292969 8.230469 13.464844 8.171875 13.636719 8.101562 L 13.664062 8.089844 C 14.246094 7.800781 14.660156 7.539062 14.894531 7.3125 C 14.894531 7.3125 16 6.527344 16 6.171875 L 16 4.433594 C 16 2.621094 14.265625 2.808594 12.339844 2.808594 L 10.882812 2.808594 L 10.882812 1.527344 C 10.878906 0.6875 10.230469 0.0078125 9.425781 0.0078125 L 6.441406 0.0078125 C 5.636719 0.0078125 4.988281 0.6875 4.984375 1.527344 L 4.984375 2.8125 L 3.320312 2.8125 C 1.394531 2.8125 0.00390625 2.625 0.00390625 4.4375 L 0.00390625 6.167969 C 0.160156 6.855469 0.652344 7.089844 1.203125 7.507812 Z M 5.980469 1.527344 C 5.980469 1.261719 6.1875 1.046875 6.441406 1.046875 L 9.425781 1.046875 C 9.679688 1.046875 9.882812 1.261719 9.882812 1.527344 L 9.882812 2.8125 L 5.980469 2.8125 Z M 5.980469 1.527344 "/>
</g>
</g>
</svg>
