<?xml version="1.0" encoding="UTF-8"?>
<svg xmlns="http://www.w3.org/2000/svg" xmlns:xlink="http://www.w3.org/1999/xlink" width="9px" height="11px" viewBox="0 0 9 11" version="1.1">
<g id="surface1">
<path style=" stroke:none;fill-rule:nonzero;fill:rgb(30%,30%,30%);fill-opacity:1;" d="M 8.992188 4.523438 C 8.886719 6.917969 4.671875 11.121094 4.5625 10.996094 C 2.753906 8.960938 -0.0976562 6.550781 0.0078125 4.15625 C 0.109375 1.761719 2.207031 -0.0976562 4.691406 0.00390625 C 7.171875 0.105469 9.097656 2.128906 8.992188 4.523438 Z M 4.652344 0.707031 L 1.894531 3.367188 L 7.40625 3.367188 Z M 1.894531 4.003906 L 1.894531 7.714844 L 3.589844 7.714844 L 3.589844 6.648438 C 3.589844 6.027344 4.113281 5.523438 4.753906 5.523438 C 5.394531 5.523438 5.917969 6.027344 5.917969 6.648438 L 5.917969 7.714844 L 7.40625 7.714844 L 7.40625 4.003906 Z M 1.894531 4.003906 "/>
</g>
</svg>
