<?xml version="1.0" encoding="UTF-8" standalone="no"?>
<!-- Created with Inkscape (http://www.inkscape.org/) -->

<svg
   xmlns:dc="http://purl.org/dc/elements/1.1/"
   xmlns:cc="http://creativecommons.org/ns#"
   xmlns:rdf="http://www.w3.org/1999/02/22-rdf-syntax-ns#"
   xmlns:svg="http://www.w3.org/2000/svg"
   xmlns="http://www.w3.org/2000/svg"
   xmlns:xlink="http://www.w3.org/1999/xlink"
   xmlns:sodipodi="http://sodipodi.sourceforge.net/DTD/sodipodi-0.dtd"
   xmlns:inkscape="http://www.inkscape.org/namespaces/inkscape"
   width="30px"
   height="30px"
   version="1.1"
   id="svg8"
   inkscape:version="0.92.4 5da689c313, 2019-01-14"
   sodipodi:docname="container.svg">
  <defs
     id="defs2" />
  <sodipodi:namedview
     id="base"
     pagecolor="#ffffff"
     bordercolor="#666666"
     borderopacity="1.0"
     inkscape:pageopacity="0.0"
     inkscape:pageshadow="2"
     inkscape:zoom="13.049334"
     inkscape:cx="18.679046"
     inkscape:cy="12.165829"
     inkscape:document-units="px"
     inkscape:current-layer="layer1"
     showgrid="false"
     inkscape:snap-page="false"
     units="px"
     inkscape:window-width="1884"
     inkscape:window-height="1061"
     inkscape:window-x="0"
     inkscape:window-y="0"
     inkscape:window-maximized="1"
     fit-margin-top="0"
     fit-margin-left="0"
     fit-margin-right="0"
     fit-margin-bottom="0" />
  <metadata
     id="metadata5">
    <rdf:RDF>
      <cc:Work
         rdf:about="">
        <dc:format>image/svg+xml</dc:format>
        <dc:type
           rdf:resource="http://purl.org/dc/dcmitype/StillImage" />
        <dc:title></dc:title>
      </cc:Work>
    </rdf:RDF>
  </metadata>
    <circle
       style="color:#000000;clip-rule:nonzero;display:inline;overflow:visible;visibility:visible;opacity:1;isolation:auto;mix-blend-mode:normal;color-interpolation:sRGB;color-interpolation-filters:linearRGB;solid-color:#000000;solid-opacity:1;vector-effect:none;fill:#1D1D1B;fill-opacity:1;fill-rule:evenodd;stroke:#ffffff;stroke-width:1;stroke-linecap:butt;stroke-linejoin:miter;stroke-miterlimit:4;stroke-dasharray:none;stroke-dashoffset:0;stroke-opacity:1;marker:none;color-rendering:auto;image-rendering:auto;shape-rendering:auto;text-rendering:auto;enable-background:accumulate"
       id="path815"
       cx="15"
       cy="15"
       r="14.5" />
<g transform="translate(9,7)"><g id="surface1">
<path style=" stroke:none;fill-rule:nonzero;fill:#FFFFFF;fill-opacity:1;" d="M 11.667969 5.160156 C 11.667969 4.238281 11.011719 3.546875 10.25 3.1875 L 10.742188 0.984375 C 10.839844 0.550781 10.558594 0.117188 10.109375 0.0234375 C 9.664062 -0.0742188 9.222656 0.203125 9.125 0.640625 L 8.617188 2.90625 L 8.175781 2.90625 L 8.175781 1.707031 C 8.175781 1.179688 7.734375 0.75 7.195312 0.75 L 4.582031 0.75 C 4.039062 0.75 3.597656 1.179688 3.597656 1.707031 L 3.597656 2.90625 L 3.257812 2.90625 L 2.613281 0.679688 C 2.488281 0.25 2.03125 0 1.589844 0.121094 C 1.148438 0.242188 0.894531 0.6875 1.015625 1.117188 L 1.628906 3.234375 C 0.914062 3.597656 0.3125 4.257812 0.3125 5.136719 L 0.324219 6 C 0.324219 6.640625 0.699219 7.148438 1.1875 7.503906 C 1.464844 7.6875 1.765625 7.84375 2.078125 7.96875 C 2.238281 8.023438 2.402344 8.070312 2.570312 8.097656 C 2.617188 8.101562 2.898438 8.105469 4.148438 8.109375 L 4.53125 8.109375 L 4.535156 8.484375 C 4.539062 8.890625 4.878906 9.21875 5.296875 9.222656 L 6.589844 9.222656 C 7.007812 9.21875 7.34375 8.894531 7.355469 8.492188 L 7.359375 8.117188 L 7.890625 8.117188 L 7.898438 8.121094 C 7.898438 8.121094 8.078125 8.125 8.332031 8.125 C 8.71875 8.125 9.257812 8.109375 9.664062 8.042969 C 9.800781 8.007812 9.929688 7.964844 10.058594 7.914062 C 10.480469 7.714844 10.914062 7.355469 11.078125 7.199219 L 11.394531 6.898438 C 11.574219 6.628906 11.667969 6.316406 11.667969 6 Z M 7.65625 2.90625 L 4.117188 2.90625 L 4.117188 1.707031 C 4.117188 1.457031 4.324219 1.253906 4.582031 1.253906 L 7.195312 1.253906 C 7.449219 1.253906 7.65625 1.457031 7.65625 1.707031 Z M 7.65625 2.90625 "/>
<path style=" stroke:none;fill-rule:nonzero;fill:#FFFFFF;fill-opacity:1;" d="M 7.882812 8.496094 C 7.882812 8.496094 7.832031 8.496094 7.742188 8.496094 C 7.730469 9.109375 7.21875 9.597656 6.589844 9.601562 L 5.296875 9.601562 C 4.667969 9.597656 4.15625 9.101562 4.148438 8.488281 C 3.28125 8.484375 2.59375 8.480469 2.542969 8.476562 C 2.402344 8.46875 2.226562 8.421875 2.035156 8.355469 C 2.03125 8.410156 2.027344 8.460938 2.027344 8.515625 L 2.027344 11.714844 C 2.027344 12.789062 2.921875 13.664062 4.027344 13.664062 L 7.84375 13.664062 C 8.945312 13.664062 9.839844 12.789062 9.839844 11.714844 L 9.839844 8.515625 C 9.839844 8.476562 9.839844 8.4375 9.835938 8.394531 C 9.808594 8.402344 9.78125 8.410156 9.757812 8.414062 C 9.023438 8.539062 7.882812 8.496094 7.882812 8.496094 Z M 7.882812 8.496094 "/>
<path style=" stroke:none;fill-rule:nonzero;fill:#FFFFFF;fill-opacity:1;" d="M 11.351562 7.46875 C 11.351562 7.46875 10.878906 7.917969 10.335938 8.203125 C 10.351562 8.304688 10.359375 8.410156 10.359375 8.515625 L 10.359375 11.714844 C 10.359375 13.0625 9.226562 14.167969 7.84375 14.167969 L 4.027344 14.167969 C 2.640625 14.167969 1.507812 13.0625 1.507812 11.714844 L 1.507812 8.515625 C 1.507812 8.390625 1.519531 8.265625 1.539062 8.144531 C 0.988281 7.871094 0.476562 7.503906 0.476562 7.300781 C 0.476562 7.300781 -0.0234375 10.199219 0 11.144531 C 0.0234375 11.984375 0.597656 15.496094 0.734375 15.660156 C 0.804688 15.742188 0.886719 15.816406 0.976562 15.875 C 1.09375 15.957031 1.234375 15.996094 1.378906 15.996094 L 10.523438 15.976562 C 10.625 15.976562 10.726562 15.949219 10.8125 15.894531 C 10.925781 15.824219 11.074219 15.710938 11.113281 15.578125 C 11.1875 15.3125 11.890625 12.40625 11.996094 11.1875 C 12.054688 10.535156 11.351562 7.46875 11.351562 7.46875 Z M 11.351562 7.46875 "/>
</g>
</g>
</svg>
