<?xml version="1.0" encoding="UTF-8"?>
<svg xmlns="http://www.w3.org/2000/svg" xmlns:xlink="http://www.w3.org/1999/xlink" width="11px" height="10px" viewBox="0 0 11 10" version="1.1">
<g id="surface1">
<path style=" stroke:none;fill-rule:nonzero;fill:rgb(30%,30%,30%);fill-opacity:1;" d="M 2.660156 9.972656 L 0 9.070312 L 0.0195312 5.667969 L 2.648438 6.582031 Z M 1.644531 8.449219 L 1.78125 8.886719 L 2.1875 9.015625 L 1.492188 6.964844 L 1.152344 6.847656 L 0.457031 8.402344 L 0.839844 8.542969 L 1 8.21875 Z M 1.132812 7.902344 L 1.320312 7.460938 L 1.507812 8.027344 Z M 1.132812 7.902344 "/>
<path style=" stroke:none;fill-rule:nonzero;fill:rgb(30%,30%,30%);fill-opacity:1;" d="M 5.457031 9.039062 L 2.875 9.964844 L 2.875 6.589844 L 5.472656 5.691406 Z M 3.480469 9.050781 C 3.480469 9.050781 4.921875 8.75 5.007812 8.167969 C 5.074219 7.726562 4.648438 7.730469 4.648438 7.730469 C 4.972656 7.5625 4.992188 7.042969 4.648438 6.953125 C 4.453125 6.898438 3.464844 7.226562 3.464844 7.226562 Z M 3.921875 7.441406 C 3.921875 7.441406 4.421875 7.261719 4.445312 7.441406 C 4.484375 7.730469 3.921875 7.828125 3.921875 7.828125 Z M 3.921875 8.167969 C 3.921875 8.167969 4.535156 7.898438 4.558594 8.140625 C 4.589844 8.4375 3.921875 8.558594 3.921875 8.558594 Z M 3.921875 8.167969 "/>
<path style=" stroke:none;fill-rule:nonzero;fill:rgb(30%,30%,30%);fill-opacity:1;" d="M 2.75 4.628906 L 5.351562 5.539062 L 2.742188 6.421875 L 0.175781 5.515625 Z M 3.578125 5.351562 C 3.59375 5.53125 3.488281 5.671875 3.285156 5.71875 C 2.734375 5.851562 2.1875 5.65625 2.1875 5.375 C 2.1875 5.097656 2.820312 5.082031 2.980469 5.089844 L 2.921875 4.820312 C 2.574219 4.824219 1.644531 4.933594 1.644531 5.40625 C 1.644531 5.796875 2.585938 6.226562 3.476562 5.964844 C 3.816406 5.867188 4.085938 5.703125 4.046875 5.351562 Z M 3.578125 5.351562 "/>
<path style=" stroke:none;fill-rule:nonzero;fill:rgb(30%,30%,30%);fill-opacity:1;" d="M 8.25 10 L 5.675781 9.058594 L 5.695312 5.695312 L 8.226562 6.589844 Z M 7.199219 8.496094 L 7.335938 8.933594 L 7.742188 9.066406 L 7.042969 7.015625 L 6.703125 6.898438 L 6.007812 8.453125 L 6.386719 8.59375 L 6.546875 8.269531 Z M 6.683594 7.945312 L 6.875 7.503906 L 7.0625 8.074219 Z M 6.683594 7.945312 "/>
<path style=" stroke:none;fill-rule:nonzero;fill:rgb(30%,30%,30%);fill-opacity:1;" d="M 10.988281 9.09375 L 8.460938 9.996094 L 8.445312 6.609375 L 11 5.726562 Z M 9.03125 9.09375 C 9.03125 9.09375 10.476562 8.789062 10.558594 8.210938 C 10.625 7.765625 10.199219 7.773438 10.199219 7.773438 C 10.527344 7.601562 10.539062 7.085938 10.199219 6.992188 C 10.003906 6.941406 9.015625 7.269531 9.015625 7.269531 Z M 9.46875 7.484375 C 9.46875 7.484375 9.96875 7.304688 9.996094 7.484375 C 10.035156 7.773438 9.46875 7.867188 9.46875 7.867188 Z M 9.46875 8.210938 C 9.46875 8.210938 10.085938 7.9375 10.109375 8.179688 C 10.136719 8.480469 9.46875 8.597656 9.46875 8.597656 Z M 9.46875 8.210938 "/>
<path style=" stroke:none;fill-rule:nonzero;fill:rgb(30%,30%,30%);fill-opacity:1;" d="M 8.359375 4.613281 L 10.917969 5.550781 L 8.351562 6.449219 L 5.820312 5.527344 Z M 9.128906 5.398438 C 9.144531 5.578125 9.039062 5.71875 8.835938 5.765625 C 8.285156 5.898438 7.738281 5.703125 7.738281 5.421875 C 7.738281 5.144531 8.371094 5.128906 8.53125 5.136719 L 8.472656 4.867188 C 8.128906 4.871094 7.195312 4.980469 7.195312 5.449219 C 7.195312 5.84375 8.136719 6.269531 9.027344 6.011719 C 9.367188 5.914062 9.636719 5.75 9.597656 5.398438 Z M 9.128906 5.398438 "/>
<path style=" stroke:none;fill-rule:nonzero;fill:rgb(30%,30%,30%);fill-opacity:1;" d="M 5.460938 5.378906 L 2.847656 4.445312 L 2.867188 1.121094 L 5.457031 1.996094 Z M 4.386719 3.882812 L 4.523438 4.320312 L 4.929688 4.449219 L 4.234375 2.40625 L 3.894531 2.285156 L 3.199219 3.839844 L 3.582031 3.980469 L 3.742188 3.65625 Z M 3.875 3.339844 L 4.0625 2.898438 L 4.25 3.464844 Z M 3.875 3.339844 "/>
<path style=" stroke:none;fill-rule:nonzero;fill:rgb(30%,30%,30%);fill-opacity:1;" d="M 5.671875 5.378906 L 5.664062 2 L 8.257812 1.117188 L 8.234375 4.449219 M 6.222656 4.488281 C 6.222656 4.488281 7.667969 4.183594 7.75 3.601562 C 7.816406 3.160156 7.390625 3.167969 7.390625 3.167969 C 7.71875 2.996094 7.734375 2.480469 7.390625 2.386719 C 7.195312 2.335938 6.210938 2.664062 6.210938 2.664062 Z M 6.660156 2.878906 C 6.660156 2.878906 7.164062 2.699219 7.1875 2.878906 C 7.226562 3.164062 6.660156 3.261719 6.660156 3.261719 Z M 6.703125 3.675781 C 6.703125 3.675781 7.320312 3.402344 7.339844 3.644531 C 7.371094 3.941406 6.703125 4.0625 6.703125 4.0625 Z M 6.703125 3.675781 "/>
<path style=" stroke:none;fill-rule:nonzero;fill:rgb(30%,30%,30%);fill-opacity:1;" d="M 5.550781 0 L 8.179688 0.914062 L 5.53125 1.816406 L 2.964844 0.941406 Z M 6.320312 0.789062 C 6.335938 0.964844 6.230469 1.105469 6.027344 1.15625 C 5.472656 1.285156 4.929688 1.089844 4.929688 0.808594 C 4.929688 0.53125 5.5625 0.515625 5.722656 0.523438 L 5.667969 0.253906 C 5.324219 0.261719 4.390625 0.367188 4.390625 0.839844 C 4.390625 1.230469 5.332031 1.660156 6.222656 1.402344 C 6.5625 1.304688 6.832031 1.136719 6.792969 0.789062 Z M 6.320312 0.789062 "/>
</g>
</svg>
