<?xml version="1.0" encoding="UTF-8"?>
<svg xmlns="http://www.w3.org/2000/svg" xmlns:xlink="http://www.w3.org/1999/xlink" width="10px" height="7px" viewBox="0 0 10 7" version="1.1">
<g id="surface1">
<path style=" stroke:none;fill-rule:nonzero;fill:rgb(30%,30%,30%);fill-opacity:1;" d="M 0.226562 4.625 L 4.78125 2.855469 L 5.019531 3.539062 L 0.464844 5.308594 C 0.285156 5.375 0.0898438 5.28125 0.0234375 5.089844 C -0.0429688 4.902344 0.0507812 4.695312 0.226562 4.625 Z M 0.226562 4.625 "/>
<path style=" stroke:none;fill-rule:nonzero;fill:rgb(30%,30%,30%);fill-opacity:1;" d="M 8.863281 3.589844 L 8.84375 3.535156 C 8.78125 3.363281 8.597656 3.277344 8.433594 3.339844 L 8.40625 3.351562 L 7.441406 0.6875 C 7.589844 0.613281 7.65625 0.429688 7.601562 0.269531 L 7.582031 0.214844 C 7.519531 0.0429688 7.335938 -0.0429688 7.171875 0.0195312 L 4.332031 1.148438 C 4.167969 1.214844 4.085938 1.40625 4.148438 1.582031 L 4.167969 1.632812 C 4.230469 1.804688 4.414062 1.894531 4.578125 1.828125 L 4.640625 1.804688 L 5.601562 4.464844 L 5.59375 4.46875 C 5.429688 4.535156 5.347656 4.726562 5.410156 4.898438 L 5.429688 4.953125 C 5.492188 5.125 5.675781 5.214844 5.839844 5.148438 L 8.675781 4.019531 C 8.839844 3.953125 8.921875 3.761719 8.863281 3.589844 Z M 8.863281 3.589844 "/>
<path style=" stroke:none;fill-rule:nonzero;fill:rgb(30%,30%,30%);fill-opacity:1;" d="M 4.855469 6.285156 L 9.660156 6.285156 C 9.847656 6.285156 10 6.445312 10 6.640625 C 10 6.839844 9.847656 7 9.660156 7 L 4.855469 7 C 4.667969 7 4.515625 6.839844 4.515625 6.640625 C 4.515625 6.445312 4.667969 6.285156 4.855469 6.285156 Z M 4.855469 6.285156 "/>
</g>
</svg>
