<?xml version="1.0" encoding="UTF-8"?>
<svg xmlns="http://www.w3.org/2000/svg" xmlns:xlink="http://www.w3.org/1999/xlink" width="11px" height="10px" viewBox="0 0 11 10" version="1.1">
<g id="surface1">
<path style=" stroke:none;fill-rule:nonzero;fill:rgb(30%,30%,30%);fill-opacity:1;" d="M 5.570312 10 L 4.582031 10 L 0 8.4375 L 0.0546875 0.886719 L 0.867188 1.210938 L 0.839844 7.546875 C 3.035156 7.617188 4.707031 9.117188 4.707031 9.117188 L 5.183594 9.117188 L 10.183594 7.792969 L 10.183594 1.207031 L 11 0.886719 L 11 8.453125 Z M 5.570312 10 "/>
<path style=" stroke:none;fill-rule:nonzero;fill:rgb(30%,30%,30%);fill-opacity:1;" d="M 9.464844 0.121094 C 9.464844 0.121094 7.324219 -0.230469 5.128906 1.832031 C 5.074219 1.886719 5.15625 8.746094 5.183594 8.773438 C 6.652344 7.09375 9.464844 6.820312 9.464844 6.820312 Z M 9.464844 0.121094 "/>
<path style=" stroke:none;fill-rule:nonzero;fill:rgb(30%,30%,30%);fill-opacity:1;" d="M 1.492188 0.0117188 L 1.492188 6.738281 C 3.761719 6.328125 4.648438 8.871094 4.648438 8.871094 L 4.640625 1.992188 C 4.640625 1.992188 3.375 -0.175781 1.492188 0.0117188 Z M 1.492188 0.0117188 "/>
</g>
</svg>
