<?xml version="1.0" encoding="UTF-8"?>
<svg xmlns="http://www.w3.org/2000/svg" xmlns:xlink="http://www.w3.org/1999/xlink" width="8px" height="10px" viewBox="0 0 8 10" version="1.1">
<g id="surface1">
<path style=" stroke:none;fill-rule:nonzero;fill:rgb(30%,30%,30%);fill-opacity:1;" d="M 7.777344 3.222656 C 7.777344 2.648438 7.34375 2.214844 6.832031 1.992188 L 7.164062 0.617188 C 7.226562 0.34375 7.039062 0.0742188 6.742188 0.015625 C 6.441406 -0.046875 6.148438 0.128906 6.082031 0.398438 L 5.742188 1.816406 L 5.449219 1.816406 L 5.449219 1.066406 C 5.449219 0.738281 5.15625 0.46875 4.796875 0.46875 L 3.054688 0.46875 C 2.691406 0.46875 2.398438 0.738281 2.398438 1.066406 L 2.398438 1.816406 L 2.171875 1.816406 L 1.742188 0.425781 C 1.660156 0.15625 1.351562 0 1.058594 0.0742188 C 0.765625 0.152344 0.59375 0.429688 0.679688 0.699219 L 1.085938 2.019531 C 0.609375 2.25 0.207031 2.660156 0.207031 3.210938 L 0.214844 3.75 C 0.214844 4.152344 0.464844 4.46875 0.789062 4.691406 C 0.976562 4.804688 1.175781 4.902344 1.386719 4.980469 C 1.492188 5.015625 1.601562 5.042969 1.710938 5.0625 C 1.746094 5.0625 1.933594 5.066406 2.765625 5.066406 L 3.019531 5.070312 L 3.023438 5.300781 C 3.027344 5.558594 3.253906 5.761719 3.53125 5.761719 L 4.394531 5.761719 C 4.671875 5.761719 4.894531 5.558594 4.902344 5.308594 L 4.90625 5.074219 L 5.265625 5.074219 C 5.265625 5.074219 5.386719 5.078125 5.554688 5.078125 C 5.8125 5.078125 6.171875 5.070312 6.445312 5.027344 C 6.53125 5.003906 6.621094 4.976562 6.707031 4.945312 C 6.984375 4.820312 7.277344 4.597656 7.386719 4.5 L 7.597656 4.3125 C 7.714844 4.144531 7.777344 3.949219 7.777344 3.75 Z M 5.105469 1.816406 L 2.746094 1.816406 L 2.746094 1.066406 C 2.746094 0.910156 2.882812 0.785156 3.054688 0.785156 L 4.796875 0.785156 C 4.964844 0.785156 5.105469 0.910156 5.105469 1.066406 Z M 5.105469 1.816406 "/>
<path style=" stroke:none;fill-rule:nonzero;fill:rgb(30%,30%,30%);fill-opacity:1;" d="M 5.253906 5.3125 C 5.253906 5.3125 5.222656 5.3125 5.160156 5.3125 C 5.152344 5.691406 4.8125 6 4.394531 6 L 3.53125 6 C 3.113281 6 2.769531 5.6875 2.765625 5.304688 C 2.1875 5.300781 1.730469 5.300781 1.695312 5.296875 C 1.601562 5.292969 1.484375 5.265625 1.355469 5.222656 C 1.355469 5.253906 1.351562 5.289062 1.351562 5.324219 L 1.351562 7.320312 C 1.351562 7.992188 1.949219 8.539062 2.683594 8.539062 L 5.226562 8.539062 C 5.964844 8.539062 6.558594 7.992188 6.5625 7.320312 L 6.5625 5.324219 C 6.5625 5.296875 6.558594 5.273438 6.558594 5.246094 C 6.539062 5.25 6.523438 5.257812 6.503906 5.257812 C 6.015625 5.335938 5.253906 5.3125 5.253906 5.3125 Z M 5.253906 5.3125 "/>
<path style=" stroke:none;fill-rule:nonzero;fill:rgb(30%,30%,30%);fill-opacity:1;" d="M 7.566406 4.667969 C 7.566406 4.667969 7.253906 4.949219 6.890625 5.125 C 6.902344 5.191406 6.90625 5.257812 6.90625 5.324219 L 6.90625 7.320312 C 6.90625 8.164062 6.152344 8.855469 5.226562 8.855469 L 2.683594 8.855469 C 1.761719 8.855469 1.003906 8.164062 1.003906 7.320312 L 1.003906 5.324219 C 1.007812 5.246094 1.011719 5.167969 1.027344 5.089844 C 0.660156 4.921875 0.316406 4.6875 0.316406 4.5625 C 0.316406 4.5625 -0.015625 6.375 0 6.964844 C 0.015625 7.492188 0.398438 9.683594 0.488281 9.789062 C 0.535156 9.839844 0.589844 9.882812 0.652344 9.921875 C 0.730469 9.972656 0.824219 10 0.917969 9.996094 L 7.015625 9.984375 C 7.082031 9.984375 7.148438 9.96875 7.207031 9.933594 C 7.285156 9.890625 7.382812 9.820312 7.410156 9.734375 C 7.457031 9.570312 7.925781 7.753906 7.996094 6.992188 C 8.035156 6.585938 7.566406 4.667969 7.566406 4.667969 Z M 7.566406 4.667969 "/>
</g>
</svg>
