<?xml version="1.0" encoding="UTF-8"?>
<svg xmlns="http://www.w3.org/2000/svg" xmlns:xlink="http://www.w3.org/1999/xlink" width="11px" height="11px" viewBox="0 0 11 11" version="1.1">
<g id="surface1">
<path style=" stroke:none;fill-rule:nonzero;fill:rgb(30%,30%,30%);fill-opacity:1;" d="M 4.089844 6.738281 C 4.117188 6.523438 4.304688 6.261719 4.523438 6.261719 L 7.371094 6.269531 L 7.210938 2.632812 L 5.632812 2.632812 C 5.496094 0.941406 4.828125 0.015625 3.722656 0 C 3.328125 -0.00390625 2.980469 0.136719 2.6875 0.417969 C 2.230469 0.859375 1.945312 1.632812 1.855469 2.632812 L 0.277344 2.632812 L 0.00390625 9.316406 C 0 9.386719 0.0273438 9.457031 0.0742188 9.507812 C 0.125 9.558594 0.195312 9.585938 0.265625 9.585938 L 3.734375 9.582031 Z M 5.277344 3.3125 C 5.277344 3.40625 5.347656 3.492188 5.445312 3.503906 C 5.5 3.507812 5.554688 3.492188 5.59375 3.457031 C 5.636719 3.421875 5.660156 3.371094 5.660156 3.316406 C 5.660156 3.183594 5.65625 3.054688 5.648438 2.929688 C 5.851562 3.015625 5.960938 3.230469 5.914062 3.441406 C 5.871094 3.652344 5.679688 3.800781 5.460938 3.804688 C 5.242188 3.804688 5.050781 3.652344 5.007812 3.441406 C 4.960938 3.230469 5.070312 3.015625 5.269531 2.929688 C 5.273438 3.050781 5.277344 3.179688 5.277344 3.3125 Z M 2.957031 0.683594 C 3.171875 0.472656 3.429688 0.371094 3.714844 0.375 C 4.355469 0.382812 5.105469 0.800781 5.25 2.632812 L 2.238281 2.632812 C 2.324219 1.746094 2.574219 1.054688 2.957031 0.683594 Z M 2 3.800781 C 1.789062 3.785156 1.617188 3.632812 1.578125 3.429688 C 1.539062 3.226562 1.644531 3.019531 1.835938 2.933594 C 1.828125 3.054688 1.828125 3.183594 1.828125 3.3125 C 1.828125 3.40625 1.898438 3.492188 1.996094 3.503906 C 2.050781 3.507812 2.105469 3.492188 2.144531 3.457031 C 2.183594 3.421875 2.207031 3.371094 2.207031 3.316406 C 2.207031 3.183594 2.210938 3.050781 2.21875 2.925781 C 2.425781 3.011719 2.539062 3.238281 2.488281 3.453125 C 2.433594 3.671875 2.226562 3.816406 2 3.800781 Z M 2 3.800781 "/>
<path style=" stroke:none;fill-rule:nonzero;fill:rgb(30%,30%,30%);fill-opacity:1;" d="M 10.394531 11 L 4.503906 11 C 4.328125 11 4.164062 10.925781 4.050781 10.800781 C 3.9375 10.671875 3.882812 10.503906 3.902344 10.335938 L 4.308594 7.0625 C 4.347656 6.765625 4.605469 6.542969 4.910156 6.542969 L 9.960938 6.558594 C 10.261719 6.558594 10.515625 6.777344 10.558594 7.074219 L 10.992188 10.328125 C 11.015625 10.5 10.964844 10.667969 10.847656 10.796875 C 10.734375 10.925781 10.570312 11 10.394531 11 Z M 4.910156 6.867188 C 4.769531 6.867188 4.65625 6.96875 4.636719 7.101562 L 4.230469 10.375 C 4.222656 10.449219 4.246094 10.527344 4.296875 10.585938 C 4.351562 10.640625 4.425781 10.675781 4.503906 10.675781 L 10.394531 10.675781 C 10.472656 10.675781 10.546875 10.640625 10.601562 10.582031 C 10.652344 10.527344 10.675781 10.449219 10.664062 10.371094 L 10.230469 7.113281 C 10.210938 6.980469 10.097656 6.882812 9.960938 6.882812 Z M 4.910156 6.867188 "/>
<path style=" stroke:none;fill-rule:nonzero;fill:rgb(30%,30%,30%);fill-opacity:1;" d="M 8.910156 7.425781 C 8.910156 7.230469 8.769531 7.066406 8.578125 7.03125 C 8.382812 7 8.191406 7.109375 8.125 7.289062 C 8.058594 7.472656 8.136719 7.675781 8.308594 7.769531 C 8.265625 8.050781 8.167969 8.304688 8.027344 8.5 C 7.863281 8.730469 7.65625 8.855469 7.441406 8.855469 C 7.039062 8.855469 6.683594 8.390625 6.582031 7.777344 C 6.75 7.691406 6.835938 7.5 6.785156 7.320312 C 6.734375 7.136719 6.5625 7.015625 6.371094 7.027344 C 6.179688 7.039062 6.023438 7.183594 5.996094 7.371094 C 5.96875 7.554688 6.082031 7.734375 6.261719 7.796875 C 6.3125 8.128906 6.425781 8.4375 6.597656 8.675781 C 6.824219 8.996094 7.125 9.171875 7.441406 9.171875 C 7.761719 9.171875 8.0625 8.996094 8.289062 8.679688 C 8.460938 8.441406 8.574219 8.136719 8.625 7.804688 C 8.792969 7.753906 8.910156 7.601562 8.910156 7.425781 Z M 6.101562 7.425781 C 6.101562 7.289062 6.203125 7.167969 6.339844 7.140625 C 6.476562 7.113281 6.613281 7.183594 6.667969 7.3125 C 6.722656 7.4375 6.679688 7.585938 6.5625 7.664062 C 6.558594 7.625 6.554688 7.582031 6.554688 7.542969 C 6.550781 7.457031 6.476562 7.390625 6.386719 7.394531 C 6.300781 7.402344 6.230469 7.472656 6.238281 7.558594 C 6.238281 7.597656 6.242188 7.632812 6.246094 7.671875 C 6.15625 7.621094 6.105469 7.527344 6.101562 7.425781 Z M 8.636719 7.683594 C 8.640625 7.640625 8.644531 7.601562 8.648438 7.558594 C 8.652344 7.472656 8.582031 7.402344 8.496094 7.398438 C 8.410156 7.394531 8.335938 7.460938 8.328125 7.546875 C 8.328125 7.578125 8.324219 7.613281 8.320312 7.648438 C 8.222656 7.570312 8.183594 7.433594 8.234375 7.3125 C 8.285156 7.195312 8.410156 7.125 8.539062 7.136719 C 8.667969 7.152344 8.773438 7.246094 8.796875 7.371094 C 8.820312 7.5 8.753906 7.625 8.636719 7.683594 Z M 8.636719 7.683594 "/>
</g>
</svg>
