<?xml version="1.0" encoding="UTF-8"?>
<svg xmlns="http://www.w3.org/2000/svg" xmlns:xlink="http://www.w3.org/1999/xlink" width="9px" height="11px" viewBox="0 0 9 11" version="1.1">
<g id="surface1">
<path style=" stroke:none;fill-rule:nonzero;fill:rgb(30%,30%,30%);fill-opacity:1;" d="M 0.660156 0.5625 L 0.660156 10.492188 C 0.660156 10.800781 0.511719 10.996094 0.332031 10.996094 C 0.148438 10.996094 0 10.828125 0 10.519531 C 0 10.511719 0 10.5 0 10.492188 L 0 0.5625 C 0 0.253906 0.148438 0.00390625 0.332031 0.00390625 C 0.511719 0.00390625 0.660156 0.253906 0.660156 0.5625 Z M 9 0.449219 L 9 6.253906 C 8.433594 6.054688 7.957031 5.976562 7.542969 5.976562 C 6.085938 5.976562 5.34375 6.921875 3.90625 6.921875 C 2.050781 6.921875 1.125 6.253906 1.125 6.253906 L 1.125 0.449219 C 1.125 0.449219 2.050781 1.121094 3.90625 1.121094 C 5.34375 1.121094 6.085938 0.175781 7.542969 0.175781 C 7.957031 0.175781 8.433594 0.253906 9 0.449219 Z M 9 0.449219 "/>
</g>
</svg>
