<?xml version="1.0" encoding="UTF-8"?>
<svg xmlns="http://www.w3.org/2000/svg" xmlns:xlink="http://www.w3.org/1999/xlink" width="11px" height="11px" viewBox="0 0 11 11" version="1.1">
<g id="surface1">
<path style=" stroke:none;fill-rule:nonzero;fill:rgb(30%,30%,30%);fill-opacity:1;" d="M 8.054688 4.058594 L 7.976562 6.238281 C 7.972656 6.269531 7.953125 6.296875 7.921875 6.3125 C 7.890625 6.324219 7.851562 6.316406 7.828125 6.292969 L 5.449219 4.058594 C 5.394531 4.007812 5.308594 3.988281 5.300781 4.058594 L 5.097656 6.203125 C 5.09375 6.238281 5.070312 6.265625 5.039062 6.273438 C 5.007812 6.285156 4.972656 6.28125 4.949219 6.257812 L 2.550781 4.058594 C 2.496094 4.007812 2.40625 3.984375 2.40625 4.058594 L 2.40625 6.175781 C 2.40625 6.222656 2.367188 6.257812 2.320312 6.257812 L 1.964844 6.257812 C 1.914062 6.257812 1.878906 6.222656 1.878906 6.175781 L 1.878906 0.0859375 C 1.878906 0.0546875 1.855469 0.0234375 1.820312 0.0078125 C 1.789062 -0.00390625 1.75 0.0078125 1.726562 0.03125 L 0.0234375 1.894531 C 0.0078125 1.910156 0 1.929688 0 1.949219 L 0.046875 10.914062 C 0.046875 10.957031 0.0859375 10.996094 0.132812 10.996094 L 10.914062 10.996094 C 10.960938 10.996094 11 10.957031 11 10.914062 L 11 6.507812 C 11 6.484375 10.988281 6.460938 10.96875 6.441406 L 8.199219 4.058594 C 8.144531 4.011719 8.058594 3.988281 8.054688 4.058594 Z M 8.054688 4.058594 "/>
</g>
</svg>
