<?xml version="1.0" encoding="UTF-8"?>
<svg xmlns="http://www.w3.org/2000/svg" xmlns:xlink="http://www.w3.org/1999/xlink" width="11px" height="6px" viewBox="0 0 11 6" version="1.1">
<g id="surface1">
<path style=" stroke:none;fill-rule:nonzero;fill:rgb(30%,30%,30%);fill-opacity:1;" d="M 0.0078125 6 C 0.0078125 6 0.0078125 4.039062 1.808594 2.101562 C 3.855469 -0.0976562 5.496094 0 5.496094 0 C 5.496094 0 6.597656 0 8.222656 1.195312 C 9.488281 2.125 10.386719 3.757812 10.496094 4.058594 C 10.609375 4.359375 11.050781 5.339844 10.988281 6 L 10.300781 6 C 10.300781 6 10.054688 4.097656 8.667969 2.726562 C 7.234375 1.308594 6.355469 0.863281 5.46875 0.863281 C 4.671875 0.863281 3.378906 1.71875 2.4375 2.585938 C 1.085938 3.828125 0.773438 5.804688 0.773438 6 Z M 0.0078125 6 "/>
<path style=" stroke:none;fill-rule:nonzero;fill:rgb(30%,30%,30%);fill-opacity:1;" d="M 2.382812 6 L 8.695312 6 C 8.695312 6 8.296875 4.601562 7.484375 3.757812 C 6.671875 2.910156 6.058594 2.566406 5.441406 2.585938 C 5.070312 2.597656 4.15625 2.757812 3.164062 4.167969 C 2.292969 5.410156 2.382812 6 2.382812 6 Z M 2.382812 6 "/>
</g>
</svg>
