<?xml version="1.0" encoding="UTF-8"?>
<svg xmlns="http://www.w3.org/2000/svg" xmlns:xlink="http://www.w3.org/1999/xlink" width="8px" height="10px" viewBox="0 0 8 10" version="1.1">
<g id="surface1">
<path style=" stroke:none;fill-rule:nonzero;fill:rgb(30%,30%,30%);fill-opacity:1;" d="M 7.617188 8.21875 C 7.617188 8.21875 7.414062 7.878906 7.375 7.945312 C 6.863281 8.785156 5.617188 9.214844 5.007812 9.402344 C 4.339844 9.613281 4.003906 10 4.003906 10 L 4 9.824219 L 3.996094 10 C 3.996094 10 3.660156 9.613281 2.992188 9.402344 C 2.382812 9.214844 1.136719 8.785156 0.625 7.945312 C 0.585938 7.878906 0.382812 8.21875 0.382812 8.21875 C -0.40625 7.125 0.265625 5.589844 0.265625 5.589844 C 0.265625 5.589844 0.777344 6.761719 1.617188 7.359375 L 1.246094 7.402344 C 1.246094 7.402344 1.582031 7.976562 2.535156 8.132812 C 3.117188 8.226562 3.308594 8.214844 3.449219 7.972656 C 3.453125 7.960938 3.457031 7.949219 3.457031 7.9375 L 3.457031 4.089844 C 3.457031 3.972656 3.355469 3.875 3.226562 3.875 L 1.964844 3.875 C 1.914062 3.875 1.867188 3.898438 1.839844 3.9375 C 1.660156 4.183594 1.328125 4.289062 1.023438 4.207031 C 0.71875 4.121094 0.507812 3.863281 0.5 3.570312 C 0.496094 3.273438 0.695312 3.011719 0.996094 2.914062 C 1.300781 2.820312 1.632812 2.917969 1.824219 3.152344 C 1.851562 3.1875 1.898438 3.210938 1.945312 3.210938 L 3.347656 3.210938 C 3.472656 3.210938 3.578125 3.113281 3.578125 2.996094 L 3.578125 2.460938 C 2.921875 2.265625 2.527344 1.648438 2.652344 1.027344 C 2.78125 0.402344 3.394531 -0.0390625 4.082031 0.00390625 C 4.746094 0.0429688 5.292969 0.53125 5.351562 1.144531 C 5.410156 1.730469 5.019531 2.277344 4.414062 2.457031 L 4.414062 2.996094 C 4.414062 3.113281 4.515625 3.210938 4.644531 3.210938 L 6.046875 3.210938 C 6.09375 3.210938 6.140625 3.1875 6.167969 3.152344 C 6.359375 2.917969 6.691406 2.820312 6.992188 2.917969 C 7.292969 3.011719 7.496094 3.277344 7.488281 3.570312 C 7.480469 3.863281 7.269531 4.121094 6.964844 4.203125 C 6.660156 4.289062 6.332031 4.183594 6.152344 3.941406 C 6.125 3.902344 6.078125 3.875 6.027344 3.875 L 4.785156 3.875 C 4.660156 3.875 4.558594 3.972656 4.558594 4.089844 L 4.558594 7.960938 C 4.558594 7.972656 4.5625 7.984375 4.566406 7.996094 C 4.707031 8.214844 4.90625 8.222656 5.464844 8.132812 C 6.417969 7.976562 6.753906 7.402344 6.753906 7.402344 L 6.382812 7.359375 C 7.222656 6.761719 7.734375 5.589844 7.734375 5.589844 C 7.734375 5.589844 8.40625 7.125 7.617188 8.21875 Z M 4.015625 0.707031 C 3.675781 0.707031 3.402344 0.960938 3.402344 1.269531 C 3.402344 1.582031 3.675781 1.835938 4.015625 1.835938 C 4.351562 1.835938 4.625 1.582031 4.625 1.269531 C 4.625 0.960938 4.351562 0.707031 4.015625 0.707031 Z M 4.015625 0.707031 "/>
</g>
</svg>
