<?xml version="1.0" encoding="UTF-8"?>
<svg xmlns="http://www.w3.org/2000/svg" xmlns:xlink="http://www.w3.org/1999/xlink" width="11px" height="11px" viewBox="0 0 11 11" version="1.1">
<g id="surface1">
<path style=" stroke:none;fill-rule:nonzero;fill:rgb(30%,30%,30%);fill-opacity:1;" d="M 11 2.003906 L 11 0.636719 L 6.742188 1.722656 Z M 11 2.003906 "/>
<path style=" stroke:none;fill-rule:nonzero;fill:rgb(30%,30%,30%);fill-opacity:1;" d="M 0 0.613281 L 0 1.984375 L 4.257812 1.703125 Z M 0 0.613281 "/>
<path style=" stroke:none;fill-rule:nonzero;fill:rgb(30%,30%,30%);fill-opacity:1;" d="M 10.808594 9.460938 C 10.804688 9.476562 10.664062 9.832031 10.183594 9.84375 C 9.933594 9.851562 9.800781 9.710938 9.628906 9.535156 C 9.445312 9.34375 9.234375 9.125 8.863281 9.121094 C 8.4375 9.113281 8.226562 9.347656 8.054688 9.535156 C 7.894531 9.707031 7.769531 9.84375 7.480469 9.84375 C 7.339844 9.84375 7.347656 9.851562 7.265625 9.796875 L 7.113281 8.628906 L 3.855469 8.628906 L 3.734375 9.230469 C 3.628906 9.179688 3.574219 9.125 3.429688 9.121094 C 3.003906 9.113281 2.792969 9.347656 2.621094 9.535156 C 2.460938 9.707031 2.335938 9.84375 2.046875 9.84375 C 1.773438 9.84375 1.65625 9.710938 1.503906 9.539062 C 1.339844 9.351562 1.132812 9.117188 0.703125 9.121094 C 0.496094 9.125 0.339844 9.179688 0.210938 9.261719 L 0.214844 9.703125 C 0.351562 9.570312 0.476562 9.472656 0.707031 9.46875 C 0.710938 9.46875 0.714844 9.46875 0.714844 9.46875 C 0.976562 9.46875 1.089844 9.59375 1.242188 9.769531 C 1.40625 9.957031 1.613281 10.191406 2.046875 10.191406 C 2.492188 10.191406 2.707031 9.957031 2.882812 9.769531 C 3.042969 9.59375 3.15625 9.464844 3.425781 9.46875 C 3.640625 9.472656 3.761719 9.585938 3.941406 9.773438 C 4.121094 9.960938 4.347656 10.191406 4.734375 10.191406 C 4.742188 10.191406 4.75 10.191406 4.757812 10.191406 C 5.265625 10.179688 5.523438 9.898438 5.632812 9.71875 C 5.773438 9.578125 5.902344 9.472656 6.140625 9.46875 C 6.144531 9.46875 6.148438 9.46875 6.148438 9.46875 C 6.410156 9.46875 6.523438 9.59375 6.675781 9.769531 C 6.839844 9.957031 7.046875 10.191406 7.480469 10.191406 C 7.925781 10.191406 8.140625 9.957031 8.316406 9.769531 C 8.476562 9.59375 8.589844 9.464844 8.859375 9.46875 C 9.074219 9.472656 9.195312 9.585938 9.375 9.773438 C 9.558594 9.960938 9.78125 10.191406 10.167969 10.191406 C 10.175781 10.191406 10.183594 10.191406 10.191406 10.191406 C 10.480469 10.1875 10.6875 10.09375 10.832031 9.980469 L 10.832031 9.46875 Z M 10.808594 9.460938 "/>
<path style=" stroke:none;fill-rule:nonzero;fill:rgb(30%,30%,30%);fill-opacity:1;" d="M 10.808594 10.269531 C 10.804688 10.28125 10.664062 10.636719 10.183594 10.648438 C 9.933594 10.65625 9.800781 10.515625 9.628906 10.339844 C 9.445312 10.148438 9.234375 9.929688 8.863281 9.925781 C 8.4375 9.917969 8.226562 10.152344 8.054688 10.339844 C 7.894531 10.511719 7.769531 10.648438 7.480469 10.648438 C 7.207031 10.648438 7.089844 10.515625 6.9375 10.34375 C 6.773438 10.15625 6.566406 9.921875 6.136719 9.925781 C 5.769531 9.929688 5.589844 10.113281 5.425781 10.28125 L 5.214844 10.480469 C 5.121094 10.566406 4.96875 10.644531 4.746094 10.648438 C 4.5 10.65625 4.367188 10.515625 4.195312 10.339844 C 4.011719 10.148438 3.800781 9.929688 3.429688 9.925781 C 3.003906 9.917969 2.792969 10.152344 2.621094 10.339844 C 2.460938 10.511719 2.335938 10.648438 2.046875 10.648438 C 1.773438 10.648438 1.65625 10.515625 1.503906 10.34375 C 1.339844 10.15625 1.132812 9.921875 0.703125 9.925781 C 0.5 9.929688 0.347656 9.984375 0.222656 10.058594 L 0.226562 10.5 C 0.355469 10.371094 0.484375 10.277344 0.707031 10.273438 C 0.710938 10.273438 0.714844 10.273438 0.714844 10.273438 C 0.976562 10.273438 1.089844 10.398438 1.242188 10.574219 C 1.40625 10.761719 1.613281 11 2.046875 11 C 2.492188 11 2.707031 10.761719 2.882812 10.574219 C 3.042969 10.398438 3.15625 10.269531 3.425781 10.273438 C 3.640625 10.277344 3.761719 10.390625 3.941406 10.582031 C 4.121094 10.765625 4.347656 11 4.734375 11 C 4.742188 11 4.75 11 4.757812 11 C 5.265625 10.984375 5.523438 10.703125 5.632812 10.523438 C 5.773438 10.382812 5.902344 10.277344 6.140625 10.273438 C 6.144531 10.273438 6.148438 10.273438 6.148438 10.273438 C 6.410156 10.273438 6.523438 10.398438 6.675781 10.574219 C 6.839844 10.761719 7.046875 11 7.480469 11 C 7.925781 11 8.140625 10.761719 8.316406 10.574219 C 8.476562 10.398438 8.589844 10.269531 8.859375 10.273438 C 9.074219 10.277344 9.195312 10.390625 9.375 10.582031 C 9.558594 10.765625 9.78125 11 10.167969 11 C 10.175781 11 10.183594 11 10.191406 11 C 10.480469 10.992188 10.6875 10.898438 10.832031 10.785156 L 10.832031 10.277344 Z M 10.808594 10.269531 "/>
<path style=" stroke:none;fill-rule:nonzero;fill:rgb(30%,30%,30%);fill-opacity:1;" d="M 6.625 4 L 4.347656 4 L 4.269531 4.832031 L 6.707031 4.867188 Z M 6.625 4 "/>
<path style=" stroke:none;fill-rule:nonzero;fill:rgb(30%,30%,30%);fill-opacity:1;" d="M 6.789062 5.542969 L 4.183594 5.542969 L 4.101562 6.410156 L 6.871094 6.410156 Z M 6.789062 5.542969 "/>
<path style=" stroke:none;fill-rule:nonzero;fill:rgb(30%,30%,30%);fill-opacity:1;" d="M 6.953125 7.085938 L 4.019531 7.085938 L 3.9375 7.953125 L 7.035156 7.953125 Z M 6.953125 7.085938 "/>
<path style=" stroke:none;fill-rule:nonzero;fill:rgb(30%,30%,30%);fill-opacity:1;" d="M 6.550781 1.070312 L 6.746094 1.070312 L 6.746094 0.632812 L 5.449219 0 L 4.164062 0.632812 L 4.164062 1.070312 L 4.410156 1.070312 L 4.410156 2.277344 L 4.164062 2.277344 L 4.164062 2.855469 L 4.5 2.855469 L 4.425781 3.628906 L 6.542969 3.628906 L 6.511719 3.273438 L 6.464844 2.855469 L 6.792969 2.855469 L 6.792969 2.277344 L 6.550781 2.277344 Z M 6.175781 2.277344 L 4.777344 2.277344 L 4.777344 1.070312 L 6.175781 1.070312 Z M 6.175781 2.277344 "/>
</g>
</svg>
