<?xml version="1.0" encoding="UTF-8"?>
<svg xmlns="http://www.w3.org/2000/svg" xmlns:xlink="http://www.w3.org/1999/xlink" width="11px" height="10px" viewBox="0 0 11 10" version="1.1">
<g id="surface1">
<path style=" stroke:none;fill-rule:nonzero;fill:rgb(30%,30%,30%);fill-opacity:1;" d="M 11 1.605469 C 11 1.605469 8.574219 2.195312 7.601562 3.371094 C 7.117188 3.960938 7.441406 4.84375 8.25 4.992188 C 9.253906 5.175781 10.675781 4.84375 10.675781 4.84375 C 10.191406 4.992188 9.765625 5.75 9.632812 6.199219 C 9.460938 6.773438 9.707031 7.789062 9.707031 7.789062 C 9.582031 7.816406 7.601562 6.023438 6.308594 7.054688 C 5.050781 8.050781 6.308594 10 6.308594 10 C 0.644531 7.644531 0.480469 3.960938 0.480469 3.960938 C 4.851562 -0.015625 11 1.605469 11 1.605469 Z M 2.125 3.789062 C 1.769531 3.789062 1.476562 4.054688 1.476562 4.378906 C 1.476562 4.703125 1.769531 4.96875 2.125 4.96875 C 2.484375 4.96875 2.773438 4.703125 2.773438 4.378906 C 2.773438 4.054688 2.484375 3.789062 2.125 3.789062 Z M 0.226562 3 C 0.351562 3 0.457031 3.09375 0.457031 3.207031 C 0.457031 3.320312 0.351562 3.414062 0.226562 3.414062 C 0.101562 3.414062 0 3.324219 0 3.207031 C 0 3.089844 0.101562 3 0.226562 3 Z M 1.167969 1.835938 C 1.316406 1.835938 1.4375 1.945312 1.4375 2.082031 C 1.4375 2.214844 1.316406 2.328125 1.167969 2.328125 C 1.019531 2.328125 0.898438 2.214844 0.898438 2.082031 C 0.898438 1.945312 1.019531 1.835938 1.167969 1.835938 Z M 2.535156 0.75 C 2.714844 0.75 2.859375 0.878906 2.859375 1.042969 C 2.859375 1.207031 2.714844 1.339844 2.535156 1.339844 C 2.355469 1.339844 2.210938 1.207031 2.210938 1.042969 C 2.210938 0.878906 2.355469 0.75 2.535156 0.75 Z M 4.199219 0 C 4.425781 0 4.605469 0.164062 4.605469 0.371094 C 4.605469 0.574219 4.425781 0.738281 4.199219 0.738281 C 3.976562 0.738281 3.792969 0.574219 3.792969 0.371094 C 3.792969 0.164062 3.976562 0 4.199219 0 Z M 4.199219 0 "/>
</g>
</svg>
