<?xml version="1.0" encoding="UTF-8" standalone="no"?>
<!-- Created with Inkscape (http://www.inkscape.org/) -->

<svg
   xmlns:dc="http://purl.org/dc/elements/1.1/"
   xmlns:cc="http://creativecommons.org/ns#"
   xmlns:rdf="http://www.w3.org/1999/02/22-rdf-syntax-ns#"
   xmlns:svg="http://www.w3.org/2000/svg"
   xmlns="http://www.w3.org/2000/svg"
   xmlns:xlink="http://www.w3.org/1999/xlink"
   xmlns:sodipodi="http://sodipodi.sourceforge.net/DTD/sodipodi-0.dtd"
   xmlns:inkscape="http://www.inkscape.org/namespaces/inkscape"
   width="30px"
   height="30px"
   version="1.1"
   id="svg8"
   inkscape:version="0.92.4 5da689c313, 2019-01-14"
   sodipodi:docname="container.svg">
  <defs
     id="defs2" />
  <sodipodi:namedview
     id="base"
     pagecolor="#ffffff"
     bordercolor="#666666"
     borderopacity="1.0"
     inkscape:pageopacity="0.0"
     inkscape:pageshadow="2"
     inkscape:zoom="13.049334"
     inkscape:cx="18.679046"
     inkscape:cy="12.165829"
     inkscape:document-units="px"
     inkscape:current-layer="layer1"
     showgrid="false"
     inkscape:snap-page="false"
     units="px"
     inkscape:window-width="1884"
     inkscape:window-height="1061"
     inkscape:window-x="0"
     inkscape:window-y="0"
     inkscape:window-maximized="1"
     fit-margin-top="0"
     fit-margin-left="0"
     fit-margin-right="0"
     fit-margin-bottom="0" />
  <metadata
     id="metadata5">
    <rdf:RDF>
      <cc:Work
         rdf:about="">
        <dc:format>image/svg+xml</dc:format>
        <dc:type
           rdf:resource="http://purl.org/dc/dcmitype/StillImage" />
        <dc:title></dc:title>
      </cc:Work>
    </rdf:RDF>
  </metadata>
    <circle
       style="color:#000000;clip-rule:nonzero;display:inline;overflow:visible;visibility:visible;opacity:1;isolation:auto;mix-blend-mode:normal;color-interpolation:sRGB;color-interpolation-filters:linearRGB;solid-color:#000000;solid-opacity:1;vector-effect:none;fill:#ffffff;fill-opacity:1;fill-rule:evenodd;stroke:#e50980;stroke-width:1;stroke-linecap:butt;stroke-linejoin:miter;stroke-miterlimit:4;stroke-dasharray:none;stroke-dashoffset:0;stroke-opacity:1;marker:none;color-rendering:auto;image-rendering:auto;shape-rendering:auto;text-rendering:auto;enable-background:accumulate"
       id="path815"
       cx="15"
       cy="15"
       r="14.5" />
<g transform="translate(7,7)"><g id="surface1">
<path style=" stroke:none;fill-rule:nonzero;fill:rgb(30%,30%,30%);fill-opacity:1;" d="M 14.160156 8.871094 C 14.226562 7.722656 14.214844 4.480469 14.160156 4.214844 C 13.972656 3.273438 13.988281 1.832031 11.367188 0.566406 C 9.828125 -0.175781 7.335938 0.0234375 7.335938 0.0234375 L 0.015625 0.0351562 C 0.00390625 0.0507812 0.0351562 2.496094 0.0351562 2.496094 C 0.0351562 2.496094 2.546875 2.269531 3.261719 3.007812 C 3.632812 3.394531 3.945312 3.597656 3.890625 5.574219 C 3.847656 7.230469 3.710938 8.765625 4.601562 10.03125 C 5.628906 11.496094 7.09375 11.421875 7.09375 11.421875 C 7.09375 11.421875 6.375 10.023438 6.441406 8.871094 C 6.507812 7.722656 6.539062 4.46875 6.441406 4.214844 C 6.164062 3.523438 5.699219 2.921875 5.09375 2.464844 C 5.855469 2.488281 6.773438 2.609375 7.160156 3.007812 C 7.535156 3.394531 7.84375 3.597656 7.789062 5.574219 C 7.746094 7.230469 7.609375 8.765625 8.5 10.03125 C 9.53125 11.496094 10.992188 11.421875 10.992188 11.421875 C 10.992188 11.421875 10.273438 10.023438 10.339844 8.871094 C 10.40625 7.722656 10.449219 4.472656 10.382812 4.132812 C 10.3125 3.769531 9.777344 3.058594 8.941406 2.464844 C 9.695312 2.492188 10.597656 2.613281 10.980469 3.007812 C 11.355469 3.394531 11.664062 3.597656 11.613281 5.574219 C 11.566406 7.230469 11.429688 8.765625 12.320312 10.03125 C 13.351562 11.496094 14.8125 11.421875 14.8125 11.421875 C 14.8125 11.421875 14.09375 10.023438 14.160156 8.871094 Z M 14.160156 8.871094 "/>
<path style=" stroke:none;fill-rule:nonzero;fill:rgb(30%,30%,30%);fill-opacity:1;" d="M 15.910156 12.9375 C 15.496094 12.613281 14.984375 12.210938 13.914062 12.21875 C 13 12.226562 12.554688 12.542969 12.140625 12.828125 L 11.621094 13.175781 C 11.378906 13.320312 11.007812 13.457031 10.453125 13.464844 C 9.832031 13.476562 9.5 13.234375 9.078125 12.929688 C 8.617188 12.601562 8.09375 12.226562 7.164062 12.21875 C 6.109375 12.207031 5.578125 12.609375 5.152344 12.929688 C 4.753906 13.226562 4.441406 13.464844 3.722656 13.464844 C 3.039062 13.464844 2.742188 13.234375 2.367188 12.9375 C 2.0625 12.699219 1.703125 12.414062 1.097656 12.289062 L 1.097656 14.851562 C 1.355469 14.941406 1.546875 15.089844 1.773438 15.269531 C 2.1875 15.59375 2.703125 16 3.785156 16 C 4.890625 16 5.429688 15.59375 5.863281 15.269531 C 6.261719 14.96875 6.546875 14.746094 7.21875 14.753906 C 7.75 14.757812 8.054688 14.957031 8.507812 15.28125 C 8.957031 15.601562 9.511719 16 10.476562 16 C 10.496094 16 10.515625 16 10.535156 16 C 11.808594 15.976562 12.445312 15.492188 12.722656 15.1875 C 13.070312 14.941406 13.390625 14.757812 13.988281 14.753906 C 13.996094 14.753906 14 14.753906 14.007812 14.753906 C 14.660156 14.753906 14.9375 14.972656 15.316406 15.269531 C 15.503906 15.417969 15.714844 15.582031 15.988281 15.714844 L 15.988281 13 C 15.960938 12.980469 15.9375 12.960938 15.910156 12.9375 Z M 15.910156 12.9375 "/>
</g>
</g>
</svg>
