<?xml version="1.0" encoding="UTF-8"?>
<svg xmlns="http://www.w3.org/2000/svg" xmlns:xlink="http://www.w3.org/1999/xlink" width="11px" height="11px" viewBox="0 0 11 11" version="1.1">
<g id="surface1">
<path style=" stroke:none;fill-rule:nonzero;fill:rgb(30%,30%,30%);fill-opacity:1;" d="M 8.34375 5.113281 C 8.363281 5.242188 8.371094 5.375 8.371094 5.507812 C 8.371094 6.242188 8.070312 6.945312 7.535156 7.460938 C 7.5 7.496094 7.464844 7.527344 7.429688 7.558594 C 7.625 7.476562 7.839844 7.433594 8.050781 7.433594 C 8.074219 7.433594 8.09375 7.433594 8.117188 7.433594 C 8.550781 6.886719 8.789062 6.214844 8.792969 5.523438 C 8.613281 5.417969 8.460938 5.277344 8.34375 5.113281 Z M 8.34375 5.113281 "/>
<path style=" stroke:none;fill-rule:nonzero;fill:rgb(30%,30%,30%);fill-opacity:1;" d="M 5.96875 2.78125 C 6.863281 2.921875 7.640625 3.464844 8.054688 4.246094 C 8.054688 4.242188 8.054688 4.242188 8.054688 4.238281 C 8.054688 4.039062 8.09375 3.84375 8.175781 3.660156 C 7.765625 3.109375 7.1875 2.703125 6.519531 2.492188 C 6.359375 2.625 6.171875 2.722656 5.96875 2.78125 Z M 5.96875 2.78125 "/>
<path style=" stroke:none;fill-rule:nonzero;fill:rgb(30%,30%,30%);fill-opacity:1;" d="M 3.488281 7.460938 C 2.953125 6.945312 2.652344 6.242188 2.652344 5.507812 C 2.652344 5.355469 2.664062 5.207031 2.691406 5.054688 C 2.570312 5.230469 2.414062 5.382812 2.230469 5.5 C 2.230469 5.503906 2.230469 5.507812 2.230469 5.507812 C 2.230469 6.203125 2.464844 6.875 2.902344 7.425781 C 2.910156 7.425781 2.921875 7.425781 2.929688 7.425781 C 3.171875 7.425781 3.40625 7.480469 3.621094 7.582031 C 3.578125 7.542969 3.53125 7.503906 3.488281 7.460938 Z M 3.488281 7.460938 "/>
<path style=" stroke:none;fill-rule:nonzero;fill:rgb(30%,30%,30%);fill-opacity:1;" d="M 2.945312 4.230469 C 2.945312 4.25 2.945312 4.273438 2.941406 4.292969 C 3.351562 3.484375 4.144531 2.921875 5.0625 2.78125 C 4.859375 2.722656 4.671875 2.625 4.507812 2.492188 C 3.835938 2.703125 3.246094 3.117188 2.835938 3.675781 C 2.910156 3.851562 2.945312 4.039062 2.945312 4.230469 Z M 2.945312 4.230469 "/>
<path style=" stroke:none;fill-rule:nonzero;fill:rgb(30%,30%,30%);fill-opacity:1;" d="M 7.226562 11 L 6.050781 8.640625 C 6.050781 8.640625 6.046875 8.636719 6.046875 8.636719 C 6.214844 8.609375 6.382812 8.570312 6.546875 8.515625 C 6.613281 8.296875 6.734375 8.097656 6.890625 7.929688 C 6.007812 8.402344 4.929688 8.386719 4.058594 7.890625 C 4.230469 8.0625 4.359375 8.273438 4.433594 8.503906 C 4.613281 8.5625 4.796875 8.609375 4.984375 8.636719 L 3.628906 11 Z M 7.226562 11 "/>
<path style=" stroke:none;fill-rule:nonzero;fill:rgb(30%,30%,30%);fill-opacity:1;" d="M 8.050781 10.042969 C 7.496094 10.042969 7.023438 9.648438 6.9375 9.117188 L 9.140625 9.234375 C 9.007812 9.710938 8.5625 10.042969 8.050781 10.042969 Z M 2.929688 10.035156 C 2.527344 10.035156 2.15625 9.828125 1.953125 9.488281 L 4.054688 8.851562 C 4.058594 8.882812 4.058594 8.914062 4.058594 8.945312 C 4.058594 9.546875 3.554688 10.035156 2.929688 10.035156 Z M 5.503906 6.226562 C 5.375 6.226562 5.246094 6.195312 5.136719 6.132812 L 5.074219 6.097656 L 5.019531 6.054688 C 4.859375 5.917969 4.765625 5.722656 4.765625 5.515625 C 4.765625 5.46875 4.769531 5.421875 4.777344 5.375 L 4.792969 5.308594 L 4.820312 5.246094 C 4.921875 5 5.15625 4.828125 5.429688 4.804688 L 5.5 4.796875 L 5.570312 4.804688 C 5.847656 4.828125 6.085938 4.996094 6.1875 5.246094 L 6.214844 5.308594 L 6.226562 5.375 C 6.28125 5.628906 6.1875 5.890625 5.984375 6.058594 L 5.929688 6.101562 L 5.867188 6.136719 C 5.757812 6.195312 5.632812 6.226562 5.503906 6.226562 Z M 9.625 5.328125 C 9.222656 5.328125 8.851562 5.117188 8.648438 4.78125 L 10.75 4.140625 C 10.753906 4.175781 10.753906 4.207031 10.753906 4.238281 C 10.753906 4.839844 10.25 5.328125 9.625 5.328125 Z M 1.375 5.320312 C 0.75 5.316406 0.246094 4.832031 0.246094 4.230469 C 0.246094 4.195312 0.246094 4.164062 0.25 4.128906 L 2.363281 4.746094 C 2.167969 5.097656 1.785156 5.316406 1.375 5.320312 Z M 5.460938 2.414062 C 4.949219 2.390625 4.519531 2.039062 4.414062 1.554688 L 6.621094 1.554688 C 6.511719 2.046875 6.066406 2.402344 5.546875 2.417969 L 5.503906 2.417969 Z M 5.460938 2.414062 "/>
<path style=" stroke:none;fill-rule:nonzero;fill:rgb(30%,30%,30%);fill-opacity:1;" d="M 6.257812 1.792969 C 6.226562 1.839844 6.1875 1.882812 6.148438 1.921875 C 5.988281 2.082031 5.769531 2.175781 5.539062 2.179688 L 5.472656 2.179688 C 5.246094 2.167969 5.035156 2.074219 4.878906 1.914062 C 4.839844 1.878906 4.804688 1.835938 4.777344 1.792969 L 6.257812 1.792969 M 0.523438 4.457031 L 1.949219 4.875 C 1.925781 4.890625 1.902344 4.910156 1.878906 4.925781 C 1.730469 5.027344 1.554688 5.082031 1.375 5.082031 C 0.976562 5.082031 0.628906 4.828125 0.523438 4.457031 M 10.476562 4.472656 C 10.367188 4.839844 10.019531 5.089844 9.625 5.09375 C 9.445312 5.09375 9.265625 5.039062 9.117188 4.9375 C 9.101562 4.925781 9.085938 4.914062 9.070312 4.902344 L 10.476562 4.472656 M 5.5 5.035156 L 5.546875 5.039062 C 5.734375 5.054688 5.890625 5.167969 5.960938 5.335938 L 5.980469 5.375 L 5.988281 5.421875 C 5.996094 5.449219 5.996094 5.484375 5.996094 5.515625 C 5.996094 5.652344 5.933594 5.785156 5.824219 5.878906 L 5.789062 5.90625 L 5.746094 5.929688 C 5.59375 6.011719 5.410156 6.011719 5.257812 5.925781 L 5.21875 5.90625 L 5.179688 5.875 C 5.074219 5.785156 5.011719 5.652344 5.011719 5.515625 C 5.011719 5.484375 5.011719 5.453125 5.019531 5.421875 L 5.027344 5.378906 L 5.046875 5.335938 C 5.113281 5.171875 5.273438 5.058594 5.453125 5.039062 L 5.5 5.035156 M 3.777344 9.183594 C 3.695312 9.457031 3.476562 9.675781 3.195312 9.757812 C 2.914062 9.84375 2.605469 9.789062 2.378906 9.609375 L 3.777344 9.183594 M 7.285156 9.371094 L 8.765625 9.453125 C 8.589844 9.6875 8.304688 9.820312 8.003906 9.804688 C 7.703125 9.789062 7.433594 9.625 7.285156 9.371094 M 5.515625 0 C 4.773438 0 4.164062 0.574219 4.144531 1.292969 C 4.125 2.011719 4.703125 2.617188 5.445312 2.652344 L 5.40625 4.566406 C 5.042969 4.601562 4.730469 4.832031 4.589844 5.15625 L 2.691406 4.601562 C 2.902344 3.90625 2.5 3.179688 1.785156 2.960938 C 1.070312 2.742188 0.308594 3.117188 0.0703125 3.804688 C -0.171875 4.488281 0.203125 5.234375 0.910156 5.476562 C 1.613281 5.722656 2.390625 5.375 2.65625 4.699219 L 4.539062 5.332031 C 4.46875 5.664062 4.59375 6.011719 4.859375 6.234375 L 3.699219 7.847656 C 3.078125 7.4375 2.230469 7.585938 1.796875 8.179688 C 1.367188 8.773438 1.503906 9.59375 2.109375 10.023438 C 2.714844 10.453125 3.5625 10.335938 4.019531 9.757812 C 4.476562 9.183594 4.371094 8.359375 3.785156 7.90625 L 5.011719 6.339844 C 5.316406 6.503906 5.683594 6.507812 5.988281 6.339844 L 7.210938 7.90625 C 6.621094 8.347656 6.507812 9.164062 6.953125 9.742188 C 7.402344 10.320312 8.242188 10.445312 8.851562 10.027344 C 9.457031 9.605469 9.605469 8.796875 9.183594 8.199219 C 8.761719 7.605469 7.921875 7.445312 7.300781 7.84375 L 6.140625 6.238281 C 6.414062 6.015625 6.539062 5.664062 6.46875 5.328125 L 8.339844 4.699219 C 8.597656 5.371094 9.363281 5.71875 10.066406 5.484375 C 10.765625 5.246094 11.140625 4.511719 10.910156 3.832031 C 10.675781 3.148438 9.925781 2.773438 9.214844 2.984375 C 8.507812 3.195312 8.101562 3.914062 8.304688 4.601562 L 6.414062 5.15625 C 6.277344 4.828125 5.957031 4.601562 5.59375 4.566406 L 5.550781 2.652344 C 6.304688 2.632812 6.898438 2.035156 6.890625 1.308594 C 6.878906 0.582031 6.269531 0 5.515625 0 Z M 4.351562 1.316406 C 4.359375 0.699219 4.878906 0.203125 5.515625 0.203125 C 6.15625 0.203125 6.675781 0.699219 6.679688 1.316406 Z M 2.492188 4.535156 L 0.265625 3.886719 C 0.457031 3.304688 1.101562 2.976562 1.707031 3.152344 C 2.316406 3.332031 2.664062 3.945312 2.492188 4.535156 Z M 8.515625 4.570312 C 8.324219 3.980469 8.667969 3.351562 9.277344 3.167969 C 9.890625 2.980469 10.542969 3.308594 10.734375 3.898438 Z M 1.820312 9.28125 C 1.628906 8.691406 1.96875 8.058594 2.582031 7.875 C 3.195312 7.6875 3.847656 8.015625 4.039062 8.609375 Z M 9.214844 9 L 6.890625 8.878906 C 6.933594 8.273438 7.464844 7.808594 8.089844 7.828125 C 8.71875 7.847656 9.214844 8.347656 9.214844 8.953125 C 9.214844 8.96875 9.214844 8.984375 9.214844 9 Z M 9.214844 9 "/>
</g>
</svg>
