<?xml version="1.0" encoding="UTF-8" standalone="no"?>
<!-- Created with Inkscape (http://www.inkscape.org/) -->

<svg
   xmlns:dc="http://purl.org/dc/elements/1.1/"
   xmlns:cc="http://creativecommons.org/ns#"
   xmlns:rdf="http://www.w3.org/1999/02/22-rdf-syntax-ns#"
   xmlns:svg="http://www.w3.org/2000/svg"
   xmlns="http://www.w3.org/2000/svg"
   xmlns:xlink="http://www.w3.org/1999/xlink"
   xmlns:sodipodi="http://sodipodi.sourceforge.net/DTD/sodipodi-0.dtd"
   xmlns:inkscape="http://www.inkscape.org/namespaces/inkscape"
   width="30px"
   height="30px"
   version="1.1"
   id="svg8"
   inkscape:version="0.92.4 5da689c313, 2019-01-14"
   sodipodi:docname="container.svg">
  <defs
     id="defs2" />
  <sodipodi:namedview
     id="base"
     pagecolor="#ffffff"
     bordercolor="#666666"
     borderopacity="1.0"
     inkscape:pageopacity="0.0"
     inkscape:pageshadow="2"
     inkscape:zoom="13.049334"
     inkscape:cx="18.679046"
     inkscape:cy="12.165829"
     inkscape:document-units="px"
     inkscape:current-layer="layer1"
     showgrid="false"
     inkscape:snap-page="false"
     units="px"
     inkscape:window-width="1884"
     inkscape:window-height="1061"
     inkscape:window-x="0"
     inkscape:window-y="0"
     inkscape:window-maximized="1"
     fit-margin-top="0"
     fit-margin-left="0"
     fit-margin-right="0"
     fit-margin-bottom="0" />
  <metadata
     id="metadata5">
    <rdf:RDF>
      <cc:Work
         rdf:about="">
        <dc:format>image/svg+xml</dc:format>
        <dc:type
           rdf:resource="http://purl.org/dc/dcmitype/StillImage" />
        <dc:title></dc:title>
      </cc:Work>
    </rdf:RDF>
  </metadata>
    <circle
       style="color:#000000;clip-rule:nonzero;display:inline;overflow:visible;visibility:visible;opacity:1;isolation:auto;mix-blend-mode:normal;color-interpolation:sRGB;color-interpolation-filters:linearRGB;solid-color:#000000;solid-opacity:1;vector-effect:none;fill:#ffffff;fill-opacity:1;fill-rule:evenodd;stroke:#e50980;stroke-width:1;stroke-linecap:butt;stroke-linejoin:miter;stroke-miterlimit:4;stroke-dasharray:none;stroke-dashoffset:0;stroke-opacity:1;marker:none;color-rendering:auto;image-rendering:auto;shape-rendering:auto;text-rendering:auto;enable-background:accumulate"
       id="path815"
       cx="15"
       cy="15"
       r="14.5" />
<g transform="translate(6,7)"><g id="surface1">
<path style=" stroke:none;fill-rule:nonzero;fill:rgb(30%,30%,30%);fill-opacity:1;" d="M 17 2.566406 C 17 2.566406 13.25 3.511719 11.75 5.394531 C 10.996094 6.339844 11.5 7.753906 12.75 7.988281 C 14.300781 8.28125 16.5 7.753906 16.5 7.753906 C 15.75 7.988281 15.09375 9.203125 14.886719 9.921875 C 14.621094 10.835938 15 12.464844 15 12.464844 C 14.808594 12.507812 11.75 9.636719 9.746094 11.285156 C 7.808594 12.882812 9.746094 16 9.746094 16 C 0.996094 12.230469 0.746094 6.339844 0.746094 6.339844 C 7.496094 -0.0234375 17 2.566406 17 2.566406 Z M 3.285156 6.066406 C 2.734375 6.066406 2.285156 6.488281 2.285156 7.007812 C 2.285156 7.527344 2.734375 7.949219 3.285156 7.949219 C 3.835938 7.949219 4.285156 7.527344 4.285156 7.007812 C 4.285156 6.488281 3.835938 6.066406 3.285156 6.066406 Z M 0.351562 4.800781 C 0.546875 4.800781 0.703125 4.949219 0.703125 5.132812 C 0.703125 5.316406 0.546875 5.464844 0.351562 5.464844 C 0.15625 5.464844 0 5.316406 0 5.132812 C 0 4.945312 0.15625 4.800781 0.351562 4.800781 Z M 1.804688 2.933594 C 2.035156 2.933594 2.222656 3.113281 2.222656 3.328125 C 2.222656 3.546875 2.035156 3.722656 1.804688 3.722656 C 1.574219 3.722656 1.386719 3.546875 1.386719 3.328125 C 1.386719 3.113281 1.574219 2.933594 1.804688 2.933594 Z M 3.917969 1.195312 C 4.195312 1.195312 4.417969 1.410156 4.417969 1.671875 C 4.417969 1.933594 4.195312 2.144531 3.917969 2.144531 C 3.640625 2.144531 3.414062 1.933594 3.414062 1.671875 C 3.414062 1.410156 3.640625 1.195312 3.917969 1.195312 Z M 6.492188 0 C 6.839844 0 7.121094 0.265625 7.121094 0.59375 C 7.121094 0.921875 6.839844 1.183594 6.492188 1.183594 C 6.144531 1.183594 5.863281 0.921875 5.863281 0.59375 C 5.863281 0.265625 6.144531 0 6.492188 0 Z M 6.492188 0 "/>
</g>
</g>
</svg>
