<?xml version="1.0" encoding="UTF-8"?>
<svg xmlns="http://www.w3.org/2000/svg" xmlns:xlink="http://www.w3.org/1999/xlink" width="11px" height="10px" viewBox="0 0 11 10" version="1.1">
<g id="surface1">
<path style=" stroke:none;fill-rule:nonzero;fill:rgb(30%,30%,30%);fill-opacity:1;" d="M 10.757812 7.984375 C 10.613281 7.847656 10.480469 7.722656 10.246094 7.71875 C 10.246094 7.71875 10.242188 7.71875 10.238281 7.71875 C 10.117188 7.71875 10.015625 7.746094 9.921875 7.800781 C 9.84375 7.847656 9.777344 7.910156 9.710938 7.980469 C 9.640625 8.050781 9.570312 8.121094 9.472656 8.175781 C 9.367188 8.238281 9.246094 8.269531 9.105469 8.269531 C 8.964844 8.269531 8.847656 8.238281 8.746094 8.179688 C 8.65625 8.121094 8.585938 8.050781 8.519531 7.980469 L 8.523438 7.976562 L 8.511719 7.964844 C 8.359375 7.824219 8.226562 7.699219 8.007812 7.695312 C 8.003906 7.695312 8.003906 7.695312 8 7.695312 C 7.875 7.695312 7.777344 7.722656 7.683594 7.777344 C 7.605469 7.824219 7.539062 7.886719 7.472656 7.957031 C 7.453125 7.972656 7.4375 7.992188 7.417969 8.007812 C 7.398438 8.027344 7.375 8.046875 7.355469 8.066406 C 7.316406 8.097656 7.277344 8.128906 7.234375 8.152344 C 7.125 8.214844 7.003906 8.246094 6.863281 8.246094 C 6.855469 8.246094 6.84375 8.246094 6.835938 8.246094 C 6.714844 8.230469 6.574219 8.179688 6.457031 8.121094 C 6.386719 8.070312 6.332031 8.015625 6.277344 7.957031 C 6.148438 7.824219 6.027344 7.695312 5.757812 7.695312 L 5.75 7.695312 C 5.566406 7.699219 5.449219 7.765625 5.355469 7.851562 C 5.304688 7.890625 5.257812 7.9375 5.210938 7.984375 C 5.140625 8.054688 5.066406 8.125 4.972656 8.179688 C 4.863281 8.242188 4.742188 8.273438 4.601562 8.273438 C 4.464844 8.273438 4.347656 8.242188 4.246094 8.183594 C 4.152344 8.128906 4.082031 8.054688 4.015625 7.984375 L 4.019531 7.980469 L 4.007812 7.972656 C 3.855469 7.828125 3.726562 7.703125 3.507812 7.699219 C 3.503906 7.699219 3.5 7.699219 3.496094 7.699219 C 3.375 7.699219 3.273438 7.726562 3.179688 7.78125 C 3.101562 7.828125 3.039062 7.894531 2.96875 7.960938 C 2.953125 7.980469 2.933594 7.996094 2.914062 8.015625 C 2.894531 8.035156 2.875 8.050781 2.851562 8.070312 C 2.816406 8.105469 2.773438 8.132812 2.730469 8.15625 C 2.625 8.21875 2.503906 8.25 2.363281 8.25 C 2.222656 8.25 2.109375 8.21875 2.003906 8.160156 C 1.914062 8.105469 1.84375 8.03125 1.777344 7.960938 C 1.671875 7.855469 1.574219 7.753906 1.402344 7.714844 C 1.351562 7.699219 1.300781 7.695312 1.25 7.691406 C 1.246094 7.691406 1.246094 7.691406 1.242188 7.691406 C 1.121094 7.691406 1.023438 7.71875 0.933594 7.773438 C 0.886719 7.800781 0.847656 7.832031 0.804688 7.871094 C 0.769531 7.898438 0.738281 7.929688 0.703125 7.964844 C 0.667969 8 0.628906 8.035156 0.589844 8.066406 L 0.59375 8.070312 C 0.5625 8.097656 0.53125 8.117188 0.496094 8.140625 C 0.390625 8.199219 0.273438 8.226562 0.136719 8.226562 C 0.0898438 8.226562 0.046875 8.222656 0 8.21875 L 0 8.429688 C 0.046875 8.433594 0.0898438 8.4375 0.136719 8.4375 C 0.421875 8.4375 0.605469 8.335938 0.742188 8.226562 C 0.753906 8.214844 0.765625 8.207031 0.777344 8.195312 C 0.789062 8.1875 0.796875 8.179688 0.804688 8.175781 C 0.824219 8.152344 0.847656 8.132812 0.867188 8.113281 C 0.996094 7.992188 1.074219 7.917969 1.25 7.914062 L 1.257812 7.914062 C 1.304688 7.914062 1.34375 7.921875 1.378906 7.929688 C 1.4375 7.960938 1.5 8.011719 1.589844 8.097656 C 1.621094 8.125 1.65625 8.160156 1.691406 8.191406 C 1.832031 8.324219 2.023438 8.464844 2.363281 8.464844 C 2.652344 8.464844 2.84375 8.363281 2.980469 8.25 C 2.988281 8.242188 2.996094 8.238281 3.003906 8.230469 C 3.03125 8.207031 3.054688 8.1875 3.078125 8.164062 C 3.085938 8.15625 3.097656 8.148438 3.105469 8.136719 C 3.238281 8.015625 3.316406 7.941406 3.492188 7.9375 L 3.496094 7.9375 C 3.664062 7.9375 3.722656 8.003906 3.847656 8.128906 C 3.992188 8.28125 4.191406 8.488281 4.601562 8.488281 C 5.019531 8.488281 5.226562 8.28125 5.375 8.132812 C 5.378906 8.128906 5.378906 8.128906 5.382812 8.125 L 5.382812 8.128906 C 5.402344 8.113281 5.417969 8.097656 5.433594 8.082031 C 5.457031 8.054688 5.480469 8.03125 5.503906 8.011719 C 5.570312 7.964844 5.632812 7.9375 5.738281 7.9375 C 5.738281 7.9375 5.738281 7.9375 5.742188 7.9375 C 5.871094 7.941406 5.941406 7.996094 6.09375 8.140625 C 6.148438 8.191406 6.222656 8.261719 6.320312 8.3125 C 6.4375 8.398438 6.601562 8.449219 6.820312 8.457031 C 6.898438 8.464844 6.957031 8.460938 7.003906 8.453125 L 7.003906 8.449219 C 7.21875 8.425781 7.367188 8.339844 7.484375 8.246094 C 7.492188 8.238281 7.5 8.234375 7.507812 8.226562 C 7.53125 8.203125 7.558594 8.183594 7.578125 8.160156 C 7.589844 8.152344 7.597656 8.140625 7.609375 8.132812 C 7.738281 8.011719 7.816406 7.9375 7.992188 7.933594 L 8 7.933594 C 8.164062 7.933594 8.226562 7.996094 8.347656 8.125 C 8.492188 8.277344 8.691406 8.484375 9.105469 8.484375 C 9.519531 8.484375 9.726562 8.277344 9.878906 8.125 C 10.003906 8.003906 10.070312 7.933594 10.238281 7.933594 C 10.242188 7.933594 10.242188 7.933594 10.242188 7.933594 L 10.246094 7.933594 C 10.371094 7.933594 10.445312 7.992188 10.59375 8.132812 C 10.695312 8.230469 10.820312 8.347656 11 8.421875 L 11 8.179688 C 10.90625 8.125 10.828125 8.050781 10.757812 7.984375 Z M 10.757812 7.984375 "/>
<path style=" stroke:none;fill-rule:nonzero;fill:rgb(30%,30%,30%);fill-opacity:1;" d="M 10.757812 8.738281 C 10.613281 8.605469 10.480469 8.480469 10.246094 8.476562 C 10.246094 8.476562 10.242188 8.476562 10.238281 8.476562 C 10.117188 8.476562 10.015625 8.5 9.921875 8.558594 C 9.84375 8.605469 9.777344 8.667969 9.710938 8.734375 C 9.640625 8.804688 9.570312 8.878906 9.472656 8.933594 C 9.367188 8.996094 9.246094 9.023438 9.105469 9.023438 C 8.964844 9.023438 8.847656 8.996094 8.746094 8.933594 C 8.65625 8.878906 8.585938 8.808594 8.519531 8.738281 L 8.523438 8.734375 L 8.511719 8.722656 C 8.359375 8.578125 8.226562 8.453125 8.007812 8.453125 C 8.003906 8.453125 8.003906 8.453125 8 8.453125 C 7.875 8.453125 7.777344 8.476562 7.683594 8.53125 C 7.605469 8.582031 7.539062 8.644531 7.472656 8.710938 C 7.453125 8.730469 7.4375 8.75 7.417969 8.765625 C 7.398438 8.785156 7.375 8.804688 7.355469 8.824219 C 7.316406 8.855469 7.277344 8.882812 7.234375 8.910156 C 7.125 8.972656 7.003906 9 6.863281 9 C 6.855469 9 6.84375 9 6.835938 9 C 6.714844 8.988281 6.574219 8.9375 6.457031 8.878906 C 6.386719 8.828125 6.332031 8.769531 6.277344 8.714844 C 6.148438 8.578125 6.027344 8.453125 5.757812 8.453125 L 5.75 8.453125 C 5.566406 8.453125 5.449219 8.523438 5.355469 8.605469 C 5.304688 8.644531 5.257812 8.691406 5.210938 8.742188 C 5.140625 8.8125 5.066406 8.882812 4.972656 8.9375 C 4.863281 9 4.742188 9.03125 4.601562 9.03125 C 4.464844 9.03125 4.347656 9 4.246094 8.9375 C 4.152344 8.882812 4.082031 8.8125 4.015625 8.742188 L 4.019531 8.738281 L 4.007812 8.726562 C 3.855469 8.582031 3.726562 8.460938 3.507812 8.457031 C 3.503906 8.457031 3.5 8.457031 3.496094 8.457031 C 3.375 8.457031 3.273438 8.484375 3.179688 8.539062 C 3.101562 8.585938 3.039062 8.648438 2.96875 8.71875 C 2.953125 8.734375 2.933594 8.753906 2.914062 8.769531 C 2.894531 8.789062 2.875 8.808594 2.851562 8.828125 C 2.816406 8.859375 2.773438 8.890625 2.730469 8.914062 C 2.625 8.976562 2.503906 9.007812 2.363281 9.007812 C 2.222656 9.007812 2.109375 8.976562 2.003906 8.914062 C 1.914062 8.859375 1.84375 8.789062 1.777344 8.71875 C 1.671875 8.613281 1.574219 8.507812 1.402344 8.472656 C 1.351562 8.457031 1.300781 8.449219 1.25 8.449219 C 1.246094 8.449219 1.246094 8.449219 1.242188 8.449219 C 1.121094 8.449219 1.023438 8.472656 0.933594 8.527344 C 0.886719 8.554688 0.847656 8.589844 0.804688 8.628906 C 0.769531 8.65625 0.738281 8.6875 0.703125 8.71875 C 0.667969 8.753906 0.628906 8.789062 0.589844 8.824219 L 0.59375 8.828125 C 0.5625 8.851562 0.53125 8.875 0.496094 8.894531 C 0.390625 8.957031 0.273438 8.984375 0.136719 8.984375 C 0.0898438 8.984375 0.046875 8.980469 0 8.972656 L 0 9.183594 C 0.046875 9.191406 0.0898438 9.191406 0.136719 9.191406 C 0.421875 9.191406 0.605469 9.09375 0.742188 8.984375 C 0.753906 8.972656 0.765625 8.960938 0.777344 8.953125 C 0.789062 8.945312 0.796875 8.9375 0.804688 8.929688 C 0.824219 8.910156 0.847656 8.890625 0.867188 8.871094 C 0.996094 8.746094 1.074219 8.671875 1.25 8.671875 L 1.257812 8.671875 C 1.304688 8.671875 1.34375 8.675781 1.378906 8.6875 C 1.4375 8.714844 1.5 8.769531 1.589844 8.851562 C 1.621094 8.882812 1.65625 8.914062 1.691406 8.949219 C 1.832031 9.082031 2.023438 9.21875 2.363281 9.21875 C 2.652344 9.21875 2.84375 9.117188 2.980469 9.007812 C 2.988281 9 2.996094 8.992188 3.003906 8.988281 C 3.03125 8.964844 3.054688 8.941406 3.078125 8.921875 C 3.085938 8.914062 3.097656 8.902344 3.105469 8.894531 C 3.238281 8.769531 3.316406 8.695312 3.492188 8.695312 L 3.496094 8.695312 C 3.664062 8.695312 3.722656 8.757812 3.847656 8.886719 C 3.992188 9.035156 4.191406 9.242188 4.601562 9.242188 C 5.019531 9.242188 5.226562 9.039062 5.375 8.886719 C 5.378906 8.886719 5.378906 8.882812 5.382812 8.882812 C 5.402344 8.867188 5.417969 8.851562 5.433594 8.835938 C 5.457031 8.8125 5.480469 8.789062 5.503906 8.769531 C 5.570312 8.71875 5.632812 8.695312 5.738281 8.695312 C 5.738281 8.695312 5.738281 8.695312 5.742188 8.695312 C 5.871094 8.695312 5.941406 8.753906 6.09375 8.894531 C 6.148438 8.949219 6.222656 9.019531 6.320312 9.070312 C 6.4375 9.152344 6.601562 9.207031 6.820312 9.214844 C 6.898438 9.222656 6.957031 9.21875 7.003906 9.207031 C 7.21875 9.179688 7.367188 9.09375 7.484375 9.003906 C 7.492188 8.996094 7.5 8.988281 7.507812 8.984375 C 7.53125 8.960938 7.558594 8.9375 7.578125 8.917969 C 7.589844 8.90625 7.597656 8.898438 7.609375 8.890625 C 7.738281 8.765625 7.816406 8.691406 7.992188 8.691406 L 8 8.691406 C 8.164062 8.691406 8.226562 8.753906 8.347656 8.882812 C 8.492188 9.03125 8.691406 9.238281 9.105469 9.238281 C 9.519531 9.238281 9.726562 9.03125 9.878906 8.882812 C 10.003906 8.757812 10.070312 8.691406 10.238281 8.691406 C 10.242188 8.691406 10.242188 8.691406 10.242188 8.691406 L 10.246094 8.691406 C 10.371094 8.691406 10.445312 8.75 10.59375 8.890625 C 10.695312 8.988281 10.820312 9.105469 11 9.175781 L 11 8.9375 C 10.90625 8.878906 10.828125 8.808594 10.757812 8.738281 Z M 10.757812 8.738281 "/>
<path style=" stroke:none;fill-rule:nonzero;fill:rgb(30%,30%,30%);fill-opacity:1;" d="M 10.757812 9.496094 C 10.613281 9.363281 10.480469 9.234375 10.246094 9.234375 C 10.246094 9.234375 10.242188 9.234375 10.238281 9.234375 C 10.117188 9.234375 10.015625 9.257812 9.921875 9.3125 C 9.84375 9.359375 9.777344 9.425781 9.710938 9.492188 C 9.640625 9.5625 9.570312 9.632812 9.472656 9.691406 C 9.367188 9.75 9.246094 9.78125 9.105469 9.78125 C 8.964844 9.78125 8.847656 9.75 8.746094 9.691406 C 8.65625 9.636719 8.585938 9.5625 8.519531 9.496094 C 8.519531 9.496094 8.519531 9.496094 8.519531 9.492188 L 8.523438 9.492188 L 8.511719 9.480469 C 8.359375 9.335938 8.226562 9.210938 8.007812 9.207031 C 8.003906 9.207031 8.003906 9.207031 8 9.207031 C 7.875 9.207031 7.777344 9.234375 7.683594 9.289062 C 7.605469 9.335938 7.539062 9.402344 7.472656 9.46875 C 7.453125 9.488281 7.4375 9.503906 7.417969 9.523438 C 7.398438 9.542969 7.375 9.558594 7.355469 9.578125 C 7.316406 9.613281 7.277344 9.640625 7.234375 9.667969 C 7.125 9.726562 7.003906 9.757812 6.863281 9.757812 C 6.855469 9.757812 6.84375 9.757812 6.835938 9.757812 C 6.714844 9.742188 6.574219 9.695312 6.457031 9.632812 C 6.386719 9.585938 6.332031 9.527344 6.277344 9.472656 C 6.148438 9.335938 6.027344 9.207031 5.757812 9.207031 L 5.75 9.207031 C 5.566406 9.210938 5.449219 9.28125 5.355469 9.363281 C 5.304688 9.402344 5.257812 9.449219 5.210938 9.496094 C 5.140625 9.566406 5.066406 9.640625 4.972656 9.695312 C 4.863281 9.757812 4.742188 9.785156 4.601562 9.785156 C 4.464844 9.785156 4.347656 9.757812 4.246094 9.695312 C 4.152344 9.640625 4.082031 9.570312 4.015625 9.5 L 4.019531 9.496094 L 4.007812 9.484375 C 3.855469 9.339844 3.726562 9.214844 3.507812 9.214844 C 3.503906 9.214844 3.5 9.214844 3.496094 9.214844 C 3.375 9.214844 3.273438 9.238281 3.179688 9.292969 C 3.101562 9.339844 3.039062 9.40625 2.96875 9.472656 C 2.953125 9.492188 2.933594 9.507812 2.914062 9.527344 C 2.894531 9.546875 2.875 9.566406 2.851562 9.582031 C 2.816406 9.617188 2.773438 9.644531 2.730469 9.671875 C 2.625 9.730469 2.503906 9.761719 2.363281 9.761719 C 2.222656 9.761719 2.109375 9.734375 2.003906 9.671875 C 1.914062 9.617188 1.84375 9.546875 1.777344 9.476562 C 1.671875 9.367188 1.574219 9.265625 1.402344 9.226562 C 1.351562 9.214844 1.300781 9.207031 1.25 9.207031 C 1.246094 9.207031 1.246094 9.207031 1.242188 9.207031 C 1.121094 9.207031 1.023438 9.230469 0.933594 9.285156 C 0.886719 9.3125 0.847656 9.347656 0.804688 9.382812 C 0.769531 9.414062 0.738281 9.445312 0.703125 9.476562 C 0.667969 9.511719 0.628906 9.546875 0.589844 9.578125 L 0.59375 9.582031 C 0.5625 9.609375 0.53125 9.632812 0.496094 9.652344 C 0.390625 9.710938 0.273438 9.742188 0.136719 9.742188 C 0.0898438 9.742188 0.046875 9.738281 0 9.730469 L 0 9.941406 C 0.046875 9.945312 0.0898438 9.949219 0.136719 9.949219 C 0.421875 9.949219 0.605469 9.851562 0.742188 9.738281 C 0.753906 9.730469 0.765625 9.71875 0.777344 9.707031 C 0.789062 9.703125 0.796875 9.695312 0.804688 9.6875 C 0.824219 9.667969 0.847656 9.648438 0.867188 9.628906 L 0.867188 9.625 C 0.996094 9.503906 1.074219 9.429688 1.25 9.429688 L 1.257812 9.429688 C 1.304688 9.429688 1.34375 9.433594 1.378906 9.441406 C 1.4375 9.472656 1.5 9.527344 1.589844 9.609375 C 1.621094 9.640625 1.65625 9.671875 1.691406 9.703125 C 1.832031 9.835938 2.023438 9.976562 2.363281 9.976562 C 2.652344 9.976562 2.84375 9.875 2.980469 9.761719 C 2.988281 9.757812 2.996094 9.75 3.003906 9.742188 C 3.03125 9.722656 3.054688 9.699219 3.078125 9.679688 C 3.085938 9.667969 3.097656 9.660156 3.105469 9.652344 L 3.105469 9.648438 C 3.238281 9.527344 3.316406 9.453125 3.492188 9.453125 L 3.496094 9.453125 C 3.664062 9.453125 3.722656 9.515625 3.847656 9.640625 C 3.992188 9.792969 4.191406 10 4.601562 10 C 5.019531 10 5.226562 9.792969 5.375 9.644531 C 5.378906 9.640625 5.378906 9.640625 5.382812 9.636719 L 5.382812 9.640625 C 5.402344 9.625 5.417969 9.609375 5.433594 9.59375 C 5.457031 9.566406 5.480469 9.546875 5.503906 9.523438 C 5.570312 9.476562 5.632812 9.453125 5.738281 9.453125 C 5.738281 9.453125 5.738281 9.453125 5.742188 9.453125 C 5.871094 9.453125 5.941406 9.511719 6.09375 9.652344 C 6.148438 9.707031 6.222656 9.777344 6.320312 9.828125 C 6.4375 9.910156 6.601562 9.960938 6.820312 9.972656 C 6.898438 9.976562 6.957031 9.972656 7.003906 9.964844 C 7.21875 9.9375 7.367188 9.851562 7.484375 9.757812 C 7.492188 9.753906 7.5 9.746094 7.507812 9.738281 C 7.53125 9.71875 7.558594 9.695312 7.578125 9.671875 C 7.589844 9.664062 7.597656 9.65625 7.609375 9.644531 C 7.738281 9.523438 7.816406 9.449219 7.992188 9.445312 L 8 9.445312 C 8.164062 9.445312 8.226562 9.511719 8.347656 9.636719 C 8.492188 9.789062 8.691406 9.996094 9.105469 9.996094 C 9.519531 9.996094 9.726562 9.789062 9.878906 9.640625 C 10.003906 9.515625 10.070312 9.445312 10.238281 9.445312 C 10.242188 9.445312 10.242188 9.445312 10.242188 9.445312 L 10.246094 9.445312 C 10.371094 9.449219 10.445312 9.503906 10.59375 9.648438 C 10.695312 9.742188 10.820312 9.863281 11 9.933594 L 11 9.691406 C 10.90625 9.636719 10.828125 9.5625 10.757812 9.496094 Z M 10.757812 9.496094 "/>
<path style=" stroke:none;fill-rule:nonzero;fill:rgb(30%,30%,30%);fill-opacity:1;" d="M 5.308594 7.222656 C 5.308594 7.652344 5.003906 8 4.625 8 C 4.246094 8 3.941406 7.652344 3.941406 7.222656 C 3.941406 6.796875 4.246094 6.449219 4.625 6.449219 C 5.003906 6.449219 5.308594 6.796875 5.308594 7.222656 Z M 5.308594 7.222656 "/>
<path style=" stroke:none;fill-rule:nonzero;fill:rgb(30%,30%,30%);fill-opacity:1;" d="M 9.226562 4.5 C 9.6875 4.917969 8.890625 5.1875 8.890625 5.1875 C 8.890625 5.1875 10.140625 5.054688 10.101562 4.300781 C 10.070312 3.71875 9.710938 3.164062 7.941406 2.664062 L 7.917969 3.933594 C 8.328125 3.992188 8.90625 4.210938 9.226562 4.5 Z M 9.226562 4.5 "/>
<path style=" stroke:none;fill-rule:nonzero;fill:rgb(30%,30%,30%);fill-opacity:1;" d="M 10.898438 1.292969 L 10.878906 0 C 10.878906 0 8.773438 0 6.636719 0.0507812 C 6.433594 0.0625 6.234375 0.0742188 6.035156 0.0898438 C 5.757812 0.113281 5.484375 0.140625 5.222656 0.171875 C 5.140625 0.179688 5.0625 0.191406 4.984375 0.203125 C 3.808594 0.363281 2.828125 0.640625 2.515625 1.109375 C 2.0625 1.796875 2.816406 2.597656 2.816406 2.597656 C 2.871094 1.664062 4.367188 1.5625 5.980469 1.382812 C 7.230469 1.277344 10.898438 1.292969 10.898438 1.292969 Z M 10.898438 1.292969 "/>
<path style=" stroke:none;fill-rule:nonzero;fill:rgb(30%,30%,30%);fill-opacity:1;" d="M 6.898438 1.589844 L 6.875 2.414062 C 5.15625 2.109375 4.9375 1.832031 4.917969 1.832031 C 3.347656 1.929688 3.082031 2.804688 3.082031 2.804688 C 3.910156 3.195312 5.777344 3.585938 6.898438 3.800781 L 6.898438 5.792969 L 4.726562 6.25 C 4.726562 6.25 4.730469 6.25 4.734375 6.253906 C 4.769531 6.25 4.804688 6.25 4.839844 6.25 C 5.203125 6.269531 5.691406 6.699219 5.585938 7.304688 C 5.550781 7.484375 5.445312 7.804688 5.296875 7.902344 C 5.613281 7.839844 6.136719 7.726562 6.96875 7.578125 C 7.230469 7.527344 7.511719 7.472656 7.746094 7.425781 C 8.132812 7.351562 8.472656 7.285156 8.714844 7.226562 C 9.960938 6.9375 10.839844 6.304688 10.941406 5.261719 C 11.121094 4.386719 9.859375 3.554688 9.859375 3.554688 C 10.070312 3.738281 10.871094 4.675781 9.542969 5.1875 C 9.179688 5.328125 8.652344 5.546875 8 5.65625 L 7.96875 1.613281 C 7.460938 1.519531 7.011719 1.582031 6.898438 1.589844 Z M 6.898438 1.589844 "/>
</g>
</svg>
