<?xml version="1.0" encoding="UTF-8" standalone="no"?>
<!-- Created with Inkscape (http://www.inkscape.org/) -->

<svg
   xmlns:dc="http://purl.org/dc/elements/1.1/"
   xmlns:cc="http://creativecommons.org/ns#"
   xmlns:rdf="http://www.w3.org/1999/02/22-rdf-syntax-ns#"
   xmlns:svg="http://www.w3.org/2000/svg"
   xmlns="http://www.w3.org/2000/svg"
   xmlns:xlink="http://www.w3.org/1999/xlink"
   xmlns:sodipodi="http://sodipodi.sourceforge.net/DTD/sodipodi-0.dtd"
   xmlns:inkscape="http://www.inkscape.org/namespaces/inkscape"
   width="30px"
   height="30px"
   version="1.1"
   id="svg8"
   inkscape:version="0.92.4 5da689c313, 2019-01-14"
   sodipodi:docname="container.svg">
  <defs
     id="defs2" />
  <sodipodi:namedview
     id="base"
     pagecolor="#ffffff"
     bordercolor="#666666"
     borderopacity="1.0"
     inkscape:pageopacity="0.0"
     inkscape:pageshadow="2"
     inkscape:zoom="13.049334"
     inkscape:cx="18.679046"
     inkscape:cy="12.165829"
     inkscape:document-units="px"
     inkscape:current-layer="layer1"
     showgrid="false"
     inkscape:snap-page="false"
     units="px"
     inkscape:window-width="1884"
     inkscape:window-height="1061"
     inkscape:window-x="0"
     inkscape:window-y="0"
     inkscape:window-maximized="1"
     fit-margin-top="0"
     fit-margin-left="0"
     fit-margin-right="0"
     fit-margin-bottom="0" />
  <metadata
     id="metadata5">
    <rdf:RDF>
      <cc:Work
         rdf:about="">
        <dc:format>image/svg+xml</dc:format>
        <dc:type
           rdf:resource="http://purl.org/dc/dcmitype/StillImage" />
        <dc:title></dc:title>
      </cc:Work>
    </rdf:RDF>
  </metadata>
    <circle
       style="color:#000000;clip-rule:nonzero;display:inline;overflow:visible;visibility:visible;opacity:1;isolation:auto;mix-blend-mode:normal;color-interpolation:sRGB;color-interpolation-filters:linearRGB;solid-color:#000000;solid-opacity:1;vector-effect:none;fill:#ffffff;fill-opacity:1;fill-rule:evenodd;stroke:#e50980;stroke-width:1;stroke-linecap:butt;stroke-linejoin:miter;stroke-miterlimit:4;stroke-dasharray:none;stroke-dashoffset:0;stroke-opacity:1;marker:none;color-rendering:auto;image-rendering:auto;shape-rendering:auto;text-rendering:auto;enable-background:accumulate"
       id="path815"
       cx="15"
       cy="15"
       r="14.5" />
<g transform="translate(6,6)"><g id="surface1">
<path style=" stroke:none;fill-rule:nonzero;fill:rgb(30%,30%,30%);fill-opacity:1;" d="M 3.804688 3.832031 C 3.949219 4.15625 4.011719 4.496094 4.011719 4.84375 C 4.015625 5.945312 4.011719 7.046875 4.011719 8.144531 C 4.011719 8.652344 4.078125 9.148438 4.25 9.628906 C 4.640625 10.695312 5.34375 11.460938 6.417969 11.863281 C 6.667969 11.957031 6.929688 12 7.203125 12.007812 C 7.160156 11.898438 7.117188 11.796875 7.082031 11.691406 C 6.730469 10.675781 6.589844 9.621094 6.578125 8.550781 C 6.558594 7.382812 6.570312 6.210938 6.570312 5.039062 C 6.570312 4.910156 6.5625 4.785156 6.546875 4.65625 C 6.484375 4.214844 6.28125 3.84375 6 3.507812 C 5.792969 3.265625 5.5625 3.054688 5.355469 2.816406 C 5.339844 2.792969 5.308594 2.777344 5.308594 2.746094 C 5.417969 2.746094 5.523438 2.742188 5.628906 2.746094 C 5.910156 2.757812 6.191406 2.792969 6.464844 2.871094 C 7.042969 3.03125 7.472656 3.367188 7.683594 3.941406 C 7.8125 4.285156 7.847656 4.640625 7.847656 5.003906 C 7.847656 6.046875 7.847656 7.082031 7.847656 8.125 C 7.847656 8.332031 7.855469 8.539062 7.882812 8.742188 C 7.972656 9.480469 8.226562 10.152344 8.695312 10.734375 C 9.179688 11.34375 9.789062 11.761719 10.554688 11.945312 C 10.710938 11.980469 10.867188 12 11.023438 12.003906 C 11.035156 11.976562 11.027344 11.964844 11.019531 11.953125 C 10.859375 11.574219 10.75 11.179688 10.660156 10.78125 C 10.550781 10.265625 10.480469 9.742188 10.441406 9.214844 C 10.414062 8.832031 10.394531 8.449219 10.40625 8.066406 C 10.425781 7.53125 10.449219 7 10.472656 6.46875 C 10.488281 6.097656 10.507812 5.730469 10.519531 5.359375 C 10.527344 5.089844 10.554688 4.820312 10.5 4.550781 C 10.425781 4.175781 10.230469 3.867188 9.980469 3.589844 C 9.753906 3.34375 9.5 3.132812 9.269531 2.894531 C 9.226562 2.847656 9.1875 2.800781 9.144531 2.753906 C 9.15625 2.746094 9.160156 2.738281 9.164062 2.738281 C 9.523438 2.746094 9.878906 2.761719 10.230469 2.851562 C 10.691406 2.96875 11.085938 3.1875 11.347656 3.601562 C 11.589844 3.972656 11.675781 4.394531 11.679688 4.832031 C 11.683594 5.898438 11.683594 6.964844 11.683594 8.03125 C 11.683594 8.246094 11.691406 8.464844 11.714844 8.683594 C 11.78125 9.335938 11.980469 9.945312 12.351562 10.492188 C 12.847656 11.222656 13.511719 11.730469 14.378906 11.945312 C 14.539062 11.984375 14.703125 12.003906 14.871094 12.007812 C 14.820312 11.867188 14.765625 11.734375 14.71875 11.597656 C 14.40625 10.636719 14.265625 9.644531 14.25 8.636719 C 14.230469 7.460938 14.246094 6.289062 14.242188 5.117188 C 14.242188 4.847656 14.230469 4.582031 14.199219 4.3125 C 14.097656 3.527344 13.820312 2.8125 13.324219 2.183594 C 12.847656 1.578125 12.242188 1.128906 11.550781 0.800781 C 10.710938 0.40625 9.828125 0.179688 8.890625 0.183594 C 6.140625 0.1875 3.390625 0.183594 0.644531 0.183594 C 0.488281 0.183594 0.335938 0.183594 0.179688 0.183594 C 0.179688 1.035156 0.179688 1.882812 0.179688 2.734375 C 0.582031 2.734375 0.984375 2.734375 1.386719 2.738281 C 1.777344 2.746094 2.171875 2.757812 2.554688 2.855469 C 3.117188 2.996094 3.5625 3.289062 3.804688 3.832031 Z M 3.804688 3.832031 "/>
<path style=" stroke:none;fill-rule:nonzero;fill:rgb(30%,30%,30%);fill-opacity:1;" d="M 16.464844 14.171875 C 16.121094 14.035156 15.800781 13.847656 15.476562 13.671875 C 15.085938 13.457031 14.695312 13.238281 14.277344 13.074219 C 13.917969 12.9375 13.570312 12.933594 13.21875 13.09375 C 13 13.191406 12.789062 13.296875 12.578125 13.410156 C 12.152344 13.640625 11.738281 13.882812 11.296875 14.082031 C 10.878906 14.273438 10.472656 14.285156 10.054688 14.070312 C 9.777344 13.929688 9.496094 13.785156 9.222656 13.636719 C 8.84375 13.433594 8.46875 13.222656 8.0625 13.066406 C 7.753906 12.949219 7.449219 12.941406 7.136719 13.0625 C 6.773438 13.203125 6.433594 13.386719 6.09375 13.570312 C 5.71875 13.773438 5.34375 13.984375 4.949219 14.148438 C 4.660156 14.269531 4.375 14.265625 4.085938 14.144531 C 3.671875 13.976562 3.289062 13.75 2.898438 13.539062 C 2.542969 13.34375 2.1875 13.140625 1.792969 13.023438 C 1.6875 12.996094 1.578125 12.964844 1.460938 12.980469 C 1.460938 13.832031 1.460938 14.675781 1.460938 15.527344 C 1.542969 15.527344 1.617188 15.539062 1.691406 15.558594 C 2.023438 15.640625 2.316406 15.808594 2.617188 15.964844 C 3.199219 16.273438 3.746094 16.660156 4.40625 16.804688 C 4.457031 16.804688 4.511719 16.804688 4.5625 16.804688 C 4.949219 16.757812 5.28125 16.574219 5.613281 16.398438 C 6.0625 16.164062 6.496094 15.898438 6.960938 15.695312 C 7.066406 15.648438 7.175781 15.613281 7.285156 15.578125 C 7.515625 15.503906 7.738281 15.523438 7.964844 15.597656 C 8.351562 15.730469 8.707031 15.929688 9.0625 16.125 C 9.445312 16.332031 9.824219 16.554688 10.230469 16.710938 C 10.335938 16.75 10.449219 16.773438 10.558594 16.804688 C 10.644531 16.804688 10.730469 16.804688 10.816406 16.804688 C 10.851562 16.765625 10.902344 16.773438 10.945312 16.761719 C 11.3125 16.65625 11.648438 16.46875 11.980469 16.289062 C 12.386719 16.074219 12.777344 15.839844 13.199219 15.664062 C 13.265625 15.632812 13.332031 15.613281 13.402344 15.585938 C 13.621094 15.507812 13.839844 15.515625 14.058594 15.589844 C 14.460938 15.730469 14.832031 15.945312 15.203125 16.148438 C 15.574219 16.347656 15.941406 16.5625 16.34375 16.710938 C 16.472656 16.757812 16.605469 16.789062 16.742188 16.808594 C 16.757812 16.808594 16.777344 16.808594 16.792969 16.808594 C 16.792969 15.957031 16.792969 15.109375 16.792969 14.257812 C 16.679688 14.230469 16.570312 14.210938 16.464844 14.171875 Z M 16.464844 14.171875 "/>
</g>
</g>
</svg>
