<?xml version="1.0" encoding="UTF-8" standalone="no"?>
<!-- Created with Inkscape (http://www.inkscape.org/) -->

<svg
   xmlns:dc="http://purl.org/dc/elements/1.1/"
   xmlns:cc="http://creativecommons.org/ns#"
   xmlns:rdf="http://www.w3.org/1999/02/22-rdf-syntax-ns#"
   xmlns:svg="http://www.w3.org/2000/svg"
   xmlns="http://www.w3.org/2000/svg"
   xmlns:xlink="http://www.w3.org/1999/xlink"
   xmlns:sodipodi="http://sodipodi.sourceforge.net/DTD/sodipodi-0.dtd"
   xmlns:inkscape="http://www.inkscape.org/namespaces/inkscape"
   width="30px"
   height="30px"
   version="1.1"
   id="svg8"
   inkscape:version="0.92.4 5da689c313, 2019-01-14"
   sodipodi:docname="container.svg">
  <defs
     id="defs2" />
  <sodipodi:namedview
     id="base"
     pagecolor="#ffffff"
     bordercolor="#666666"
     borderopacity="1.0"
     inkscape:pageopacity="0.0"
     inkscape:pageshadow="2"
     inkscape:zoom="13.049334"
     inkscape:cx="18.679046"
     inkscape:cy="12.165829"
     inkscape:document-units="px"
     inkscape:current-layer="layer1"
     showgrid="false"
     inkscape:snap-page="false"
     units="px"
     inkscape:window-width="1884"
     inkscape:window-height="1061"
     inkscape:window-x="0"
     inkscape:window-y="0"
     inkscape:window-maximized="1"
     fit-margin-top="0"
     fit-margin-left="0"
     fit-margin-right="0"
     fit-margin-bottom="0" />
  <metadata
     id="metadata5">
    <rdf:RDF>
      <cc:Work
         rdf:about="">
        <dc:format>image/svg+xml</dc:format>
        <dc:type
           rdf:resource="http://purl.org/dc/dcmitype/StillImage" />
        <dc:title></dc:title>
      </cc:Work>
    </rdf:RDF>
  </metadata>
    <circle
       style="color:#000000;clip-rule:nonzero;display:inline;overflow:visible;visibility:visible;opacity:1;isolation:auto;mix-blend-mode:normal;color-interpolation:sRGB;color-interpolation-filters:linearRGB;solid-color:#000000;solid-opacity:1;vector-effect:none;fill:#e50980;fill-opacity:1;fill-rule:evenodd;stroke:#ffffff;stroke-width:1;stroke-linecap:butt;stroke-linejoin:miter;stroke-miterlimit:4;stroke-dasharray:none;stroke-dashoffset:0;stroke-opacity:1;marker:none;color-rendering:auto;image-rendering:auto;shape-rendering:auto;text-rendering:auto;enable-background:accumulate"
       id="path815"
       cx="15"
       cy="15"
       r="14.5" />
<g transform="translate(7,7)"><g id="surface1">
<path style=" stroke:none;fill-rule:nonzero;fill:#FFFFFF;fill-opacity:1;" d="M 12.117188 7.890625 C 12.042969 7.761719 11.925781 7.550781 11.855469 7.421875 C 11.855469 7.421875 10.019531 4.007812 9.523438 3.78125 C 9.394531 3.71875 10.34375 3.382812 10.652344 2.289062 C 10.875 1.496094 10.789062 1.539062 10.652344 1.492188 C 10.34375 1.394531 9.820312 1.902344 9.820312 1.902344 C 9.714844 2.003906 9.507812 2.117188 9.359375 2.148438 C 9.359375 2.148438 8.53125 2.234375 8.449219 2.289062 C 8.363281 2.34375 8.1875 2.328125 8.058594 2.257812 L 8.042969 2.25 C 7.914062 2.175781 7.769531 2.066406 7.726562 2.003906 C 7.679688 1.941406 7.78125 1.691406 7.855469 1.585938 C 7.925781 1.480469 8.023438 1.347656 8.066406 1.289062 C 8.109375 1.230469 8.253906 1.128906 8.386719 1.058594 C 8.386719 1.058594 8.703125 0.894531 8.703125 0.597656 C 8.703125 0.269531 8.40625 0 8.039062 0 C 7.671875 0 7.371094 0.269531 7.371094 0.597656 L 7.371094 0.652344 C 7.386719 0.710938 7.304688 0.835938 7.195312 0.933594 L 6.652344 1.414062 C 6.601562 1.460938 6.53125 1.484375 6.460938 1.476562 C 6.390625 1.472656 6.328125 1.4375 6.285156 1.378906 C 6.285156 1.378906 6.03125 1.046875 5.425781 1.195312 C 4.605469 1.394531 4.09375 2.585938 3.476562 2.886719 C 3.019531 3.105469 0.402344 3.78125 0.0976562 4.476562 C -0.210938 5.171875 0.300781 5.269531 0.503906 5.269531 C 0.710938 5.269531 1.023438 5.710938 1.324219 5.769531 C 1.839844 5.867188 2.246094 5.667969 2.65625 5.667969 C 3.066406 5.667969 4.195312 5.96875 5.117188 5.96875 C 6.148438 5.96875 6.722656 5.917969 7.167969 6.167969 C 7.882812 6.5625 10.371094 15.160156 10.371094 15.160156 C 10.425781 15.328125 10.488281 15.492188 10.566406 15.648438 C 10.566406 15.648438 10.855469 16.210938 14.441406 15.910156 C 15.507812 15.824219 15.949219 15.046875 15.949219 15.046875 C 16.023438 14.921875 16.015625 14.71875 15.933594 14.597656 Z M 5.730469 3.78125 C 5.375 3.699219 5.050781 3.449219 5.117188 3.183594 C 5.183594 2.914062 5.375 2.800781 5.730469 2.886719 C 6.089844 2.96875 6.550781 3.183594 6.550781 3.382812 C 6.550781 3.65625 6.089844 3.863281 5.730469 3.78125 Z M 13.765625 12.023438 C 13.839844 12.152344 13.785156 12.296875 13.648438 12.347656 L 13.335938 12.460938 C 13.195312 12.511719 12.980469 12.484375 12.859375 12.398438 L 11.457031 11.414062 C 11.335938 11.328125 11.304688 11.164062 11.386719 11.039062 L 11.496094 10.882812 C 11.578125 10.761719 11.769531 10.679688 11.917969 10.699219 L 12.8125 10.824219 C 12.960938 10.84375 13.140625 10.964844 13.214844 11.089844 Z M 12.449219 9.519531 C 12.507812 9.6875 12.554688 9.855469 12.582031 10.03125 L 12.609375 10.203125 C 12.628906 10.347656 12.527344 10.4375 12.378906 10.410156 L 11.476562 10.222656 C 11.332031 10.191406 11.140625 10.066406 11.054688 9.949219 L 10.445312 9.089844 C 10.359375 8.96875 10.371094 8.785156 10.46875 8.675781 L 10.828125 8.277344 C 10.925781 8.167969 11.128906 8.089844 11.277344 8.105469 L 11.660156 8.148438 C 11.808594 8.164062 11.972656 8.289062 12.023438 8.425781 Z M 11.441406 7.375 C 11.519531 7.5 11.460938 7.59375 11.3125 7.585938 L 11.023438 7.570312 C 10.875 7.566406 10.6875 7.460938 10.601562 7.339844 L 10.085938 6.585938 C 10 6.464844 10.035156 6.300781 10.160156 6.21875 L 10.320312 6.113281 C 10.382812 6.074219 10.453125 6.0625 10.523438 6.078125 C 10.59375 6.089844 10.652344 6.132812 10.691406 6.191406 Z M 9.453125 4.679688 C 9.546875 4.566406 9.703125 4.570312 9.796875 4.683594 L 10.277344 5.265625 C 10.371094 5.378906 10.351562 5.546875 10.238281 5.640625 L 9.933594 5.894531 C 9.820312 5.988281 9.664062 5.964844 9.589844 5.839844 L 9.253906 5.300781 C 9.175781 5.175781 9.191406 4.980469 9.289062 4.871094 Z M 9.722656 6.761719 C 9.851562 6.753906 10.425781 7.636719 10.445312 7.957031 C 10.453125 8.046875 9.714844 8.765625 9.714844 8.765625 C 9.609375 8.867188 9.453125 8.851562 9.367188 8.734375 L 8.859375 8.015625 C 8.773438 7.894531 8.785156 7.707031 8.882812 7.597656 C 8.882812 7.597656 9.613281 6.773438 9.722656 6.761719 Z M 8.9375 9.878906 C 8.867188 9.75 8.925781 9.628906 9.074219 9.605469 L 9.726562 9.503906 C 9.875 9.480469 10.074219 9.554688 10.167969 9.667969 L 10.738281 10.359375 C 10.832031 10.472656 10.828125 10.652344 10.730469 10.761719 L 10.113281 11.4375 C 10.015625 11.546875 9.875 11.53125 9.800781 11.402344 Z M 10.355469 12.460938 C 10.3125 12.410156 10.289062 12.339844 10.292969 12.269531 C 10.300781 12.199219 10.335938 12.136719 10.390625 12.089844 L 10.585938 11.933594 C 10.703125 11.839844 10.890625 11.835938 11.007812 11.929688 L 12.699219 13.234375 C 12.816406 13.324219 12.808594 13.464844 12.683594 13.542969 L 12.015625 13.953125 C 11.882812 14.03125 11.710938 14.007812 11.609375 13.894531 Z M 14.214844 14.488281 C 14.070312 14.449219 13.917969 14.300781 13.871094 14.164062 L 13.574219 13.066406 C 13.507812 12.9375 13.558594 12.777344 13.691406 12.703125 L 13.988281 12.539062 C 14.046875 12.503906 14.117188 12.496094 14.183594 12.515625 C 14.25 12.539062 14.304688 12.585938 14.328125 12.652344 L 15.15625 14.527344 C 15.207031 14.664062 15.128906 14.746094 14.984375 14.703125 Z M 14.214844 14.488281 "/>
</g>
</g>
</svg>
