<?xml version="1.0" encoding="UTF-8"?>
<svg xmlns="http://www.w3.org/2000/svg" xmlns:xlink="http://www.w3.org/1999/xlink" width="10px" height="7px" viewBox="0 0 10 7" version="1.1">
<g id="surface1">
<path style=" stroke:none;fill-rule:nonzero;fill:rgb(30%,30%,30%);fill-opacity:1;" d="M 0.84375 1.707031 L 0.507812 1.457031 C 0.617188 1.28125 0.738281 1.113281 0.875 0.964844 C 1.277344 0.523438 1.78125 0.214844 2.332031 0.078125 L 2.421875 0.515625 C 1.945312 0.632812 1.507812 0.898438 1.164062 1.28125 C 1.046875 1.410156 0.9375 1.554688 0.84375 1.707031 Z M 0.40625 3.71875 L 0.40625 3.28125 C 0.40625 2.890625 0.480469 2.503906 0.625 2.144531 L 0.257812 1.945312 C 0.0859375 2.367188 0 2.820312 0 3.28125 L 0 3.71875 C 0 4.15625 0.078125 4.585938 0.234375 4.988281 L 0.601562 4.796875 C 0.472656 4.453125 0.40625 4.089844 0.40625 3.71875 Z M 2.984375 0.449219 L 4.753906 0.449219 L 4.734375 0 L 2.984375 0 C 2.949219 0 2.914062 0 2.875 0.00390625 L 2.914062 0.449219 C 2.9375 0.449219 2.960938 0.449219 2.984375 0.449219 Z M 8.835938 5.71875 C 8.464844 6.128906 7.988281 6.40625 7.46875 6.507812 L 7.566406 6.941406 C 8.15625 6.820312 8.699219 6.503906 9.125 6.035156 C 9.261719 5.882812 9.386719 5.71875 9.496094 5.539062 L 9.148438 5.304688 C 9.054688 5.453125 8.949219 5.59375 8.835938 5.71875 Z M 5.273438 6.550781 L 5.308594 7 L 7.015625 7 C 7.023438 7 7.035156 7 7.042969 7 L 7 6.550781 Z M 6.949219 0.449219 L 6.980469 0 L 5.304688 0 L 5.273438 0.449219 Z M 2.996094 6.550781 L 2.960938 7 C 2.96875 7 2.976562 7 2.984375 7 L 4.734375 7 L 4.753906 6.550781 Z M 1.164062 5.71875 C 1.039062 5.582031 0.929688 5.433594 0.832031 5.273438 L 0.488281 5.515625 C 0.601562 5.703125 0.730469 5.878906 0.875 6.035156 C 1.300781 6.503906 1.839844 6.820312 2.429688 6.941406 L 2.515625 6.503906 C 2.003906 6.398438 1.53125 6.125 1.164062 5.71875 Z M 9.59375 3.28125 L 9.59375 3.71875 C 9.59375 4.101562 9.523438 4.480469 9.386719 4.832031 L 9.757812 5.011719 C 9.917969 4.601562 10 4.164062 10 3.71875 L 10 3.28125 C 10 2.804688 9.90625 2.335938 9.726562 1.90625 L 9.363281 2.117188 C 9.515625 2.484375 9.59375 2.878906 9.59375 3.28125 Z M 8.835938 1.28125 C 8.945312 1.398438 9.042969 1.53125 9.132812 1.667969 L 9.464844 1.410156 C 9.363281 1.25 9.25 1.101562 9.125 0.964844 C 8.691406 0.488281 8.140625 0.167969 7.539062 0.0507812 L 7.457031 0.488281 C 7.980469 0.589844 8.460938 0.867188 8.835938 1.28125 Z M 8.050781 5.085938 C 7.824219 5.273438 7.546875 5.414062 7.246094 5.496094 L 7.339844 5.933594 C 7.699219 5.832031 8.027344 5.667969 8.296875 5.445312 C 8.449219 5.320312 8.585938 5.175781 8.707031 5.007812 L 8.351562 4.773438 C 8.265625 4.890625 8.164062 4.996094 8.050781 5.085938 Z M 8.730469 3.558594 L 8.730469 3.578125 C 8.730469 3.886719 8.671875 4.175781 8.558594 4.425781 L 8.933594 4.609375 C 9.066406 4.300781 9.136719 3.953125 9.136719 3.578125 L 9.136719 3.558594 C 9.136719 3.125 9.042969 2.734375 8.882812 2.398438 L 8.523438 2.609375 C 8.652344 2.886719 8.730469 3.203125 8.730469 3.558594 Z M 8.335938 2.292969 L 8.667969 2.03125 C 8.339844 1.5625 7.867188 1.234375 7.351562 1.066406 L 7.269531 1.503906 C 7.6875 1.648438 8.066406 1.917969 8.335938 2.292969 Z M 1.972656 1.960938 C 2.171875 1.785156 2.398438 1.648438 2.640625 1.550781 L 2.546875 1.113281 C 2.25 1.226562 1.96875 1.394531 1.71875 1.609375 C 1.570312 1.742188 1.433594 1.890625 1.316406 2.054688 L 1.65625 2.304688 C 1.75 2.179688 1.855469 2.0625 1.972656 1.960938 Z M 3.496094 5.59375 C 3.355469 5.59375 3.214844 5.582031 3.074219 5.558594 L 3.039062 6.003906 C 3.191406 6.027344 3.34375 6.039062 3.496094 6.039062 L 4.777344 6.039062 L 4.796875 5.59375 Z M 3.496094 1.382812 L 4.796875 1.382812 L 4.777344 0.9375 L 3.496094 0.9375 C 3.316406 0.9375 3.136719 0.953125 2.960938 0.992188 L 3 1.441406 C 3.164062 1.402344 3.332031 1.382812 3.496094 1.382812 Z M 6.550781 1.382812 C 6.664062 1.382812 6.777344 1.394531 6.890625 1.410156 L 6.917969 0.964844 C 6.796875 0.945312 6.671875 0.9375 6.550781 0.9375 L 5.234375 0.9375 L 5.203125 1.382812 Z M 1.261719 3.550781 C 1.261719 3.175781 1.347656 2.863281 1.472656 2.609375 L 1.109375 2.410156 C 0.9375 2.761719 0.851562 3.152344 0.851562 3.550781 C 0.851562 3.917969 0.921875 4.253906 1.054688 4.558594 L 1.421875 4.367188 C 1.324219 4.144531 1.261719 3.871094 1.261719 3.550781 Z M 6.550781 5.59375 L 5.199219 5.59375 L 5.234375 6.039062 L 6.550781 6.039062 C 6.683594 6.039062 6.8125 6.03125 6.945312 6.015625 L 6.898438 5.570312 C 6.78125 5.585938 6.667969 5.59375 6.550781 5.59375 Z M 1.964844 5.074219 C 1.835938 4.96875 1.722656 4.847656 1.621094 4.710938 L 1.277344 4.957031 C 1.40625 5.136719 1.554688 5.296875 1.726562 5.433594 C 1.988281 5.644531 2.296875 5.808594 2.632812 5.910156 L 2.722656 5.472656 C 2.441406 5.382812 2.183594 5.246094 1.964844 5.074219 Z M 2.476562 4.410156 C 2.410156 4.363281 2.347656 4.300781 2.296875 4.234375 L 1.953125 4.476562 C 2.035156 4.597656 2.136719 4.699219 2.25 4.78125 C 2.402344 4.894531 2.585938 4.984375 2.804688 5.050781 L 2.894531 4.613281 C 2.726562 4.558594 2.589844 4.492188 2.476562 4.410156 Z M 7.550781 2.605469 C 7.609375 2.65625 7.664062 2.714844 7.710938 2.78125 L 8.042969 2.519531 C 7.972656 2.417969 7.890625 2.328125 7.796875 2.25 C 7.632812 2.109375 7.429688 2.003906 7.191406 1.929688 L 7.109375 2.371094 C 7.285156 2.429688 7.433594 2.507812 7.550781 2.605469 Z M 6.238281 2.25 C 6.4375 2.25 6.636719 2.269531 6.835938 2.300781 L 6.863281 1.851562 C 6.65625 1.820312 6.449219 1.804688 6.242188 1.804688 L 5.171875 1.804688 L 5.136719 2.25 Z M 6.238281 4.742188 L 5.136719 4.742188 L 5.171875 5.191406 L 6.246094 5.191406 C 6.449219 5.1875 6.652344 5.171875 6.855469 5.140625 L 6.808594 4.695312 C 6.621094 4.722656 6.429688 4.738281 6.238281 4.742188 Z M 7.917969 3.542969 L 7.917969 3.554688 C 7.917969 3.734375 7.902344 3.914062 7.832031 4.074219 L 8.203125 4.253906 C 8.285156 4.054688 8.328125 3.820312 8.328125 3.554688 L 8.328125 3.542969 C 8.328125 3.261719 8.28125 3.015625 8.195312 2.800781 L 7.835938 3.011719 C 7.890625 3.164062 7.917969 3.339844 7.917969 3.542969 Z M 3.828125 4.742188 C 3.570312 4.734375 3.339844 4.710938 3.144531 4.675781 L 3.109375 5.121094 C 3.34375 5.164062 3.582031 5.183594 3.820312 5.191406 L 4.8125 5.191406 L 4.832031 4.742188 Z M 3.828125 2.25 L 4.832031 2.25 L 4.8125 1.804688 L 3.824219 1.804688 C 3.53125 1.808594 3.269531 1.835938 3.039062 1.886719 L 3.078125 2.335938 C 3.292969 2.28125 3.542969 2.253906 3.828125 2.25 Z M 2.101562 3.539062 C 2.105469 3.335938 2.136719 3.160156 2.199219 3.007812 L 1.832031 2.808594 C 1.746094 3.015625 1.699219 3.257812 1.695312 3.53125 L 1.695312 3.535156 C 1.695312 3.773438 1.730469 3.984375 1.796875 4.171875 L 2.164062 3.980469 C 2.125 3.851562 2.101562 3.707031 2.101562 3.539062 Z M 2.488281 2.605469 C 2.589844 2.523438 2.703125 2.460938 2.820312 2.414062 L 2.726562 1.976562 C 2.542969 2.042969 2.382812 2.132812 2.246094 2.246094 C 2.144531 2.328125 2.050781 2.429688 1.972656 2.542969 L 2.3125 2.792969 C 2.363281 2.722656 2.421875 2.65625 2.488281 2.605469 Z M 7.054688 4.648438 L 7.152344 5.082031 C 7.410156 5.015625 7.621094 4.921875 7.789062 4.792969 C 7.878906 4.726562 7.960938 4.648438 8.03125 4.558594 L 7.675781 4.320312 C 7.542969 4.457031 7.347656 4.570312 7.054688 4.648438 Z M 7.054688 4.648438 "/>
</g>
</svg>
