<?xml version="1.0" encoding="UTF-8"?>
<svg xmlns="http://www.w3.org/2000/svg" xmlns:xlink="http://www.w3.org/1999/xlink" width="10px" height="7px" viewBox="0 0 10 7" version="1.1">
<g id="surface1">
<path style=" stroke:none;fill-rule:nonzero;fill:rgb(30%,30%,30%);fill-opacity:1;" d="M 7.023438 0.972656 C 7.023438 0.972656 6.6875 1.710938 6.25 2.667969 L 5.011719 0 L 3.785156 2.636719 L 3.003906 0.972656 C 3.003906 0.972656 0.078125 6.855469 0 7 L 8.265625 7 L 10 6.96875 Z M 3.578125 3.617188 L 3.015625 4.3125 L 2.363281 3.601562 L 1.761719 4 L 2.988281 1.558594 L 4.175781 3.855469 Z M 5.050781 2.601562 L 4.570312 2 L 4.097656 2.328125 L 5.011719 0.542969 L 5.902344 2.285156 L 5.484375 2.070312 Z M 7.597656 3.589844 L 7.035156 4.285156 L 6.382812 3.570312 L 5.785156 3.972656 L 7.011719 1.527344 L 8.199219 3.828125 Z M 7.597656 3.589844 "/>
</g>
</svg>
