<?xml version="1.0" encoding="UTF-8" standalone="no"?>
<!-- Created with Inkscape (http://www.inkscape.org/) -->

<svg
   xmlns:dc="http://purl.org/dc/elements/1.1/"
   xmlns:cc="http://creativecommons.org/ns#"
   xmlns:rdf="http://www.w3.org/1999/02/22-rdf-syntax-ns#"
   xmlns:svg="http://www.w3.org/2000/svg"
   xmlns="http://www.w3.org/2000/svg"
   xmlns:xlink="http://www.w3.org/1999/xlink"
   xmlns:sodipodi="http://sodipodi.sourceforge.net/DTD/sodipodi-0.dtd"
   xmlns:inkscape="http://www.inkscape.org/namespaces/inkscape"
   width="30px"
   height="30px"
   version="1.1"
   id="svg8"
   inkscape:version="0.92.4 5da689c313, 2019-01-14"
   sodipodi:docname="container.svg">
  <defs
     id="defs2" />
  <sodipodi:namedview
     id="base"
     pagecolor="#ffffff"
     bordercolor="#666666"
     borderopacity="1.0"
     inkscape:pageopacity="0.0"
     inkscape:pageshadow="2"
     inkscape:zoom="13.049334"
     inkscape:cx="18.679046"
     inkscape:cy="12.165829"
     inkscape:document-units="px"
     inkscape:current-layer="layer1"
     showgrid="false"
     inkscape:snap-page="false"
     units="px"
     inkscape:window-width="1884"
     inkscape:window-height="1061"
     inkscape:window-x="0"
     inkscape:window-y="0"
     inkscape:window-maximized="1"
     fit-margin-top="0"
     fit-margin-left="0"
     fit-margin-right="0"
     fit-margin-bottom="0" />
  <metadata
     id="metadata5">
    <rdf:RDF>
      <cc:Work
         rdf:about="">
        <dc:format>image/svg+xml</dc:format>
        <dc:type
           rdf:resource="http://purl.org/dc/dcmitype/StillImage" />
        <dc:title></dc:title>
      </cc:Work>
    </rdf:RDF>
  </metadata>
    <circle
       style="color:#000000;clip-rule:nonzero;display:inline;overflow:visible;visibility:visible;opacity:1;isolation:auto;mix-blend-mode:normal;color-interpolation:sRGB;color-interpolation-filters:linearRGB;solid-color:#000000;solid-opacity:1;vector-effect:none;fill:#e50980;fill-opacity:1;fill-rule:evenodd;stroke:#ffffff;stroke-width:1;stroke-linecap:butt;stroke-linejoin:miter;stroke-miterlimit:4;stroke-dasharray:none;stroke-dashoffset:0;stroke-opacity:1;marker:none;color-rendering:auto;image-rendering:auto;shape-rendering:auto;text-rendering:auto;enable-background:accumulate"
       id="path815"
       cx="15"
       cy="15"
       r="14.5" />
<g transform="translate(8,6)"><g id="surface1">
<path style=" stroke:none;fill-rule:nonzero;fill:#FFFFFF;fill-opacity:1;" d="M 12.375 13.972656 C 12.375 13.972656 12.050781 13.394531 11.988281 13.503906 C 11.152344 14.933594 9.128906 15.664062 8.140625 15.984375 C 7.050781 16.339844 6.507812 17 6.507812 17 L 6.5 16.703125 L 6.492188 17 C 6.492188 17 5.949219 16.339844 4.859375 15.984375 C 3.871094 15.664062 1.847656 14.933594 1.011719 13.503906 C 0.949219 13.394531 0.625 13.972656 0.625 13.972656 C -0.65625 12.113281 0.429688 9.503906 0.429688 9.503906 C 0.429688 9.503906 1.265625 11.496094 2.625 12.507812 L 2.023438 12.585938 C 2.023438 12.585938 2.566406 13.5625 4.121094 13.824219 C 5.066406 13.984375 5.375 13.964844 5.601562 13.550781 C 5.613281 13.535156 5.617188 13.511719 5.617188 13.492188 L 5.617188 6.949219 C 5.617188 6.75 5.449219 6.589844 5.246094 6.589844 L 3.195312 6.589844 C 3.113281 6.589844 3.035156 6.628906 2.988281 6.695312 C 2.695312 7.109375 2.160156 7.292969 1.664062 7.148438 C 1.167969 7.007812 0.824219 6.570312 0.8125 6.070312 C 0.804688 5.566406 1.128906 5.117188 1.621094 4.957031 C 2.109375 4.792969 2.652344 4.957031 2.960938 5.359375 C 3.007812 5.421875 3.082031 5.457031 3.160156 5.457031 L 5.4375 5.457031 C 5.644531 5.457031 5.8125 5.296875 5.8125 5.097656 L 5.8125 4.179688 C 4.746094 3.851562 4.105469 2.804688 4.3125 1.742188 C 4.523438 0.679688 5.515625 -0.0625 6.632812 0.00390625 C 7.710938 0.0703125 8.597656 0.902344 8.695312 1.945312 C 8.789062 2.941406 8.15625 3.871094 7.171875 4.179688 L 7.171875 5.097656 C 7.171875 5.296875 7.339844 5.457031 7.542969 5.457031 L 9.824219 5.457031 C 9.90625 5.457031 9.980469 5.417969 10.023438 5.359375 C 10.335938 4.957031 10.875 4.796875 11.363281 4.957031 C 11.855469 5.121094 12.179688 5.570312 12.167969 6.070312 C 12.15625 6.566406 11.816406 7.003906 11.320312 7.148438 C 10.824219 7.292969 10.289062 7.109375 10 6.699219 C 9.953125 6.628906 9.875 6.589844 9.792969 6.589844 L 7.777344 6.589844 C 7.570312 6.589844 7.40625 6.75 7.40625 6.949219 L 7.40625 13.53125 C 7.40625 13.550781 7.410156 13.574219 7.421875 13.59375 C 7.648438 13.964844 7.96875 13.976562 8.878906 13.824219 C 10.433594 13.5625 10.976562 12.585938 10.976562 12.585938 L 10.375 12.507812 C 11.734375 11.496094 12.570312 9.503906 12.570312 9.503906 C 12.570312 9.503906 13.65625 12.113281 12.375 13.972656 Z M 6.523438 1.203125 C 5.976562 1.203125 5.53125 1.628906 5.53125 2.160156 C 5.53125 2.6875 5.976562 3.117188 6.523438 3.117188 C 7.070312 3.117188 7.511719 2.6875 7.511719 2.160156 C 7.511719 1.628906 7.070312 1.203125 6.523438 1.203125 Z M 6.523438 1.203125 "/>
</g>
</g>
</svg>
