<?xml version="1.0" encoding="UTF-8" standalone="no"?>
<!-- Created with Inkscape (http://www.inkscape.org/) -->

<svg
   xmlns:dc="http://purl.org/dc/elements/1.1/"
   xmlns:cc="http://creativecommons.org/ns#"
   xmlns:rdf="http://www.w3.org/1999/02/22-rdf-syntax-ns#"
   xmlns:svg="http://www.w3.org/2000/svg"
   xmlns="http://www.w3.org/2000/svg"
   xmlns:xlink="http://www.w3.org/1999/xlink"
   xmlns:sodipodi="http://sodipodi.sourceforge.net/DTD/sodipodi-0.dtd"
   xmlns:inkscape="http://www.inkscape.org/namespaces/inkscape"
   width="30px"
   height="30px"
   version="1.1"
   id="svg8"
   inkscape:version="0.92.4 5da689c313, 2019-01-14"
   sodipodi:docname="container.svg">
  <defs
     id="defs2" />
  <sodipodi:namedview
     id="base"
     pagecolor="#ffffff"
     bordercolor="#666666"
     borderopacity="1.0"
     inkscape:pageopacity="0.0"
     inkscape:pageshadow="2"
     inkscape:zoom="13.049334"
     inkscape:cx="18.679046"
     inkscape:cy="12.165829"
     inkscape:document-units="px"
     inkscape:current-layer="layer1"
     showgrid="false"
     inkscape:snap-page="false"
     units="px"
     inkscape:window-width="1884"
     inkscape:window-height="1061"
     inkscape:window-x="0"
     inkscape:window-y="0"
     inkscape:window-maximized="1"
     fit-margin-top="0"
     fit-margin-left="0"
     fit-margin-right="0"
     fit-margin-bottom="0" />
  <metadata
     id="metadata5">
    <rdf:RDF>
      <cc:Work
         rdf:about="">
        <dc:format>image/svg+xml</dc:format>
        <dc:type
           rdf:resource="http://purl.org/dc/dcmitype/StillImage" />
        <dc:title></dc:title>
      </cc:Work>
    </rdf:RDF>
  </metadata>
    <circle
       style="color:#000000;clip-rule:nonzero;display:inline;overflow:visible;visibility:visible;opacity:1;isolation:auto;mix-blend-mode:normal;color-interpolation:sRGB;color-interpolation-filters:linearRGB;solid-color:#000000;solid-opacity:1;vector-effect:none;fill:#e50980;fill-opacity:1;fill-rule:evenodd;stroke:#ffffff;stroke-width:1;stroke-linecap:butt;stroke-linejoin:miter;stroke-miterlimit:4;stroke-dasharray:none;stroke-dashoffset:0;stroke-opacity:1;marker:none;color-rendering:auto;image-rendering:auto;shape-rendering:auto;text-rendering:auto;enable-background:accumulate"
       id="path815"
       cx="15"
       cy="15"
       r="14.5" />
<g transform="translate(7,8)"><g id="surface1">
<path style=" stroke:none;fill-rule:nonzero;fill:#FFFFFF;fill-opacity:1;" d="M 12.46875 1.9375 C 12.46875 2.910156 11.71875 3.703125 10.792969 3.703125 C 9.863281 3.703125 9.113281 2.910156 9.113281 1.9375 C 9.113281 0.960938 9.863281 0.167969 10.792969 0.167969 C 11.71875 0.167969 12.46875 0.960938 12.46875 1.9375 Z M 3.601562 1.777344 C 4.863281 1.589844 6.308594 2.648438 6.308594 2.648438 L 1.910156 4.796875 C 1.941406 4.796875 1.972656 4.796875 2.007812 4.796875 C 2.886719 4.808594 3.382812 5.355469 3.824219 5.835938 C 4.226562 6.28125 4.542969 6.632812 5.132812 6.617188 C 5.65625 6.601562 6.011719 6.40625 6.242188 6.191406 L 6.65625 5.667969 C 7.046875 5.25 7.550781 4.808594 8.421875 4.796875 C 9.441406 4.785156 9.925781 5.375 10.320312 5.847656 C 10.675781 6.277344 10.957031 6.617188 11.609375 6.617188 C 12.289062 6.617188 12.589844 6.269531 12.96875 5.832031 C 13.371094 5.367188 13.875 4.78125 14.878906 4.796875 C 15.21875 4.796875 15.550781 4.890625 15.84375 5.070312 C 15.847656 5.054688 15.851562 5.042969 15.851562 5.03125 C 15.898438 4.722656 15.46875 3.871094 14.660156 4.207031 C 14.082031 4.449219 13 5.484375 10.867188 4.917969 C 9.167969 4.464844 8.867188 2.65625 7.546875 1.40625 C 6.03125 -0.0273438 4.148438 -0.289062 2.285156 0.277344 C 0.449219 0.835938 -0.109375 1.65625 0.4375 2.355469 C 1.15625 3.273438 1.644531 2.066406 3.601562 1.777344 Z M 14.863281 6.011719 C 13.855469 5.996094 13.351562 6.582031 12.949219 7.046875 C 12.570312 7.484375 12.273438 7.832031 11.589844 7.832031 C 10.9375 7.832031 10.65625 7.492188 10.300781 7.0625 C 9.910156 6.589844 9.421875 6 8.402344 6.011719 C 7.535156 6.023438 7.03125 6.464844 6.640625 6.882812 L 6.222656 7.410156 C 5.992188 7.621094 5.640625 7.816406 5.113281 7.832031 C 4.523438 7.847656 4.210938 7.496094 3.804688 7.050781 C 3.367188 6.570312 2.871094 6.023438 1.988281 6.011719 C 0.984375 5.996094 0.480469 6.582031 0.0742188 7.046875 C 0.0507812 7.078125 0.0273438 7.105469 0.00390625 7.132812 L 0.00390625 8.308594 C 0.285156 8.105469 0.496094 7.859375 0.6875 7.636719 C 1.070312 7.199219 1.34375 6.875 1.980469 6.886719 C 2.484375 6.894531 2.777344 7.183594 3.207031 7.65625 C 3.632812 8.125 4.160156 8.707031 5.078125 8.707031 C 5.09375 8.707031 5.113281 8.707031 5.132812 8.707031 C 6.34375 8.675781 6.949219 7.964844 7.210938 7.515625 C 7.542969 7.160156 7.847656 6.894531 8.414062 6.886719 C 8.421875 6.886719 8.429688 6.886719 8.433594 6.886719 C 9.054688 6.886719 9.316406 7.203125 9.675781 7.636719 C 10.070312 8.113281 10.5625 8.707031 11.589844 8.707031 C 12.640625 8.707031 13.152344 8.113281 13.5625 7.636719 C 13.941406 7.199219 14.214844 6.875 14.851562 6.886719 C 15.328125 6.890625 15.609375 7.144531 15.996094 7.566406 L 15.996094 6.398438 C 15.695312 6.175781 15.332031 6.019531 14.863281 6.011719 Z M 14.933594 8.09375 C 13.929688 8.078125 13.425781 8.664062 13.019531 9.128906 C 12.644531 9.566406 12.34375 9.914062 11.664062 9.914062 C 11.011719 9.914062 10.730469 9.574219 10.375 9.144531 C 9.980469 8.671875 9.492188 8.082031 8.476562 8.09375 C 7.605469 8.105469 7.101562 8.546875 6.710938 8.964844 L 6.292969 9.488281 C 6.0625 9.703125 5.710938 9.898438 5.183594 9.914062 C 4.597656 9.929688 4.28125 9.578125 3.875 9.132812 C 3.4375 8.652344 2.941406 8.105469 2.058594 8.09375 C 1.054688 8.078125 0.550781 8.664062 0.148438 9.128906 C 0.0976562 9.1875 0.0507812 9.242188 0.00390625 9.292969 L 0.00390625 10.4375 C 0.320312 10.230469 0.554688 9.960938 0.761719 9.71875 C 1.140625 9.277344 1.414062 8.953125 2.050781 8.96875 C 2.558594 8.972656 2.847656 9.265625 3.277344 9.738281 C 3.703125 10.207031 4.234375 10.789062 5.148438 10.789062 C 5.167969 10.789062 5.1875 10.789062 5.203125 10.789062 C 6.414062 10.757812 7.019531 10.042969 7.285156 9.597656 C 7.613281 9.242188 7.917969 8.976562 8.484375 8.96875 C 8.492188 8.96875 8.5 8.96875 8.507812 8.96875 C 9.125 8.96875 9.386719 9.285156 9.746094 9.71875 C 10.140625 10.195312 10.632812 10.789062 11.664062 10.789062 C 12.710938 10.789062 13.222656 10.195312 13.632812 9.71875 C 14.015625 9.277344 14.289062 8.953125 14.925781 8.96875 C 15.367188 8.972656 15.644531 9.195312 15.996094 9.570312 L 15.996094 8.429688 C 15.679688 8.210938 15.3125 8.09375 14.933594 8.09375 Z M 14.988281 10.304688 C 13.980469 10.289062 13.476562 10.875 13.074219 11.34375 C 12.695312 11.78125 12.398438 12.125 11.714844 12.125 C 11.0625 12.125 10.78125 11.785156 10.425781 11.355469 C 10.035156 10.882812 9.546875 10.292969 8.53125 10.304688 C 7.660156 10.316406 7.15625 10.761719 6.765625 11.179688 L 6.347656 11.703125 C 6.117188 11.914062 5.765625 12.113281 5.238281 12.125 C 4.648438 12.140625 4.335938 11.789062 3.929688 11.34375 C 3.492188 10.863281 2.996094 10.316406 2.113281 10.304688 C 1.109375 10.289062 0.605469 10.875 0.199219 11.34375 C 0.132812 11.421875 0.0703125 11.496094 0.00390625 11.566406 L 0.00390625 12.683594 C 0.347656 12.472656 0.59375 12.183594 0.816406 11.929688 C 1.195312 11.492188 1.46875 11.167969 2.105469 11.179688 C 2.613281 11.1875 2.902344 11.476562 3.332031 11.949219 C 3.757812 12.417969 4.285156 13 5.203125 13 C 5.21875 13 5.238281 13 5.257812 13 C 6.46875 12.96875 7.074219 12.257812 7.335938 11.808594 C 7.667969 11.453125 7.972656 11.1875 8.539062 11.179688 C 8.546875 11.179688 8.554688 11.179688 8.558594 11.179688 C 9.179688 11.179688 9.441406 11.496094 9.800781 11.929688 C 10.195312 12.40625 10.6875 13 11.714844 13 C 12.765625 13 13.277344 12.40625 13.6875 11.929688 C 14.066406 11.492188 14.339844 11.167969 14.976562 11.179688 C 15.398438 11.1875 15.671875 11.386719 15.996094 11.726562 L 15.996094 10.605469 C 15.691406 10.410156 15.34375 10.308594 14.988281 10.304688 Z M 14.988281 10.304688 "/>
</g>
</g>
</svg>
