<?xml version="1.0" encoding="UTF-8" standalone="no"?>
<!-- Created with Inkscape (http://www.inkscape.org/) -->

<svg
   xmlns:dc="http://purl.org/dc/elements/1.1/"
   xmlns:cc="http://creativecommons.org/ns#"
   xmlns:rdf="http://www.w3.org/1999/02/22-rdf-syntax-ns#"
   xmlns:svg="http://www.w3.org/2000/svg"
   xmlns="http://www.w3.org/2000/svg"
   xmlns:xlink="http://www.w3.org/1999/xlink"
   xmlns:sodipodi="http://sodipodi.sourceforge.net/DTD/sodipodi-0.dtd"
   xmlns:inkscape="http://www.inkscape.org/namespaces/inkscape"
   width="30px"
   height="30px"
   version="1.1"
   id="svg8"
   inkscape:version="0.92.4 5da689c313, 2019-01-14"
   sodipodi:docname="container.svg">
  <defs
     id="defs2" />
  <sodipodi:namedview
     id="base"
     pagecolor="#ffffff"
     bordercolor="#666666"
     borderopacity="1.0"
     inkscape:pageopacity="0.0"
     inkscape:pageshadow="2"
     inkscape:zoom="13.049334"
     inkscape:cx="18.679046"
     inkscape:cy="12.165829"
     inkscape:document-units="px"
     inkscape:current-layer="layer1"
     showgrid="false"
     inkscape:snap-page="false"
     units="px"
     inkscape:window-width="1884"
     inkscape:window-height="1061"
     inkscape:window-x="0"
     inkscape:window-y="0"
     inkscape:window-maximized="1"
     fit-margin-top="0"
     fit-margin-left="0"
     fit-margin-right="0"
     fit-margin-bottom="0" />
  <metadata
     id="metadata5">
    <rdf:RDF>
      <cc:Work
         rdf:about="">
        <dc:format>image/svg+xml</dc:format>
        <dc:type
           rdf:resource="http://purl.org/dc/dcmitype/StillImage" />
        <dc:title></dc:title>
      </cc:Work>
    </rdf:RDF>
  </metadata>
    <circle
       style="color:#000000;clip-rule:nonzero;display:inline;overflow:visible;visibility:visible;opacity:1;isolation:auto;mix-blend-mode:normal;color-interpolation:sRGB;color-interpolation-filters:linearRGB;solid-color:#000000;solid-opacity:1;vector-effect:none;fill:#ffffff;fill-opacity:1;fill-rule:evenodd;stroke:#e50980;stroke-width:1;stroke-linecap:butt;stroke-linejoin:miter;stroke-miterlimit:4;stroke-dasharray:none;stroke-dashoffset:0;stroke-opacity:1;marker:none;color-rendering:auto;image-rendering:auto;shape-rendering:auto;text-rendering:auto;enable-background:accumulate"
       id="path815"
       cx="15"
       cy="15"
       r="14.5" />
<g transform="translate(6,7)"><g id="surface1">
<path style=" stroke:none;fill-rule:nonzero;fill:rgb(30%,30%,30%);fill-opacity:1;" d="M 16.914062 2.898438 C 15.089844 1.058594 12.4375 0 9.640625 0 C 9.597656 0 9.558594 0 9.515625 0 C 8.582031 0.0117188 7.65625 0.140625 6.761719 0.382812 C 6.628906 0.300781 6.464844 0.277344 6.316406 0.328125 C 6.167969 0.375 6.050781 0.484375 5.996094 0.625 C 5.140625 0.929688 4.328125 1.347656 3.589844 1.863281 C 2.859375 2.375 2.214844 2.984375 1.667969 3.671875 C 0.558594 5.089844 -0.0195312 6.746094 0 8.464844 C 0.00390625 8.515625 0.00390625 8.566406 0.0078125 8.617188 L 0.0117188 8.679688 C 0.015625 8.800781 0.09375 8.90625 0.210938 8.945312 C 0.328125 8.988281 0.460938 8.960938 0.546875 8.871094 C 1.351562 8.050781 2.554688 7.578125 3.847656 7.578125 C 4.429688 7.574219 5.003906 7.675781 5.550781 7.867188 C 5.558594 7.871094 5.566406 7.875 5.578125 7.878906 L 5.582031 7.898438 L 5.59375 7.882812 C 5.738281 7.910156 5.882812 7.839844 5.941406 7.710938 C 6.296875 6.949219 6.976562 6.316406 7.871094 5.917969 L 11.554688 15.675781 C 11.652344 15.929688 11.945312 16.0625 12.214844 15.96875 C 12.480469 15.878906 12.617188 15.59375 12.523438 15.339844 L 8.84375 5.605469 C 9.773438 5.410156 10.738281 5.476562 11.628906 5.800781 C 11.742188 5.84375 11.875 5.816406 11.960938 5.730469 L 11.980469 5.738281 L 11.96875 5.722656 C 11.992188 5.699219 12.011719 5.667969 12.023438 5.636719 C 12.617188 4.273438 14.214844 3.359375 16 3.359375 C 16.214844 3.359375 16.433594 3.371094 16.648438 3.398438 C 16.777344 3.414062 16.90625 3.351562 16.964844 3.238281 C 17.023438 3.128906 17.003906 2.992188 16.914062 2.898438 Z M 5.746094 7.628906 C 5.742188 7.640625 5.734375 7.652344 5.722656 7.660156 C 5.738281 7.632812 5.753906 7.609375 5.769531 7.582031 C 5.761719 7.597656 5.753906 7.613281 5.746094 7.628906 Z M 8.605469 5.246094 C 8.464844 5.28125 8.335938 5.324219 8.214844 5.363281 C 8.070312 5.417969 7.941406 5.464844 7.824219 5.511719 C 7.003906 5.835938 6.347656 6.269531 5.664062 7.355469 C 5.328125 5.984375 5.191406 4.582031 5.277344 3.382812 C 5.367188 2.171875 5.683594 1.257812 6.144531 0.871094 C 6.230469 0.800781 6.328125 0.742188 6.433594 0.707031 C 6.550781 0.667969 6.671875 0.648438 6.792969 0.648438 C 6.804688 0.648438 6.8125 0.648438 6.824219 0.648438 C 7.179688 0.648438 7.578125 0.796875 8.003906 1.09375 C 8.394531 1.363281 8.820312 1.761719 9.269531 2.28125 C 10.085938 3.222656 10.851562 4.390625 11.472656 5.34375 C 10.273438 4.972656 9.261719 5.082031 8.605469 5.246094 Z M 8.605469 5.246094 "/>
</g>
</g>
</svg>
