<?xml version="1.0" encoding="UTF-8" standalone="no"?>
<!-- Created with Inkscape (http://www.inkscape.org/) -->

<svg
   xmlns:dc="http://purl.org/dc/elements/1.1/"
   xmlns:cc="http://creativecommons.org/ns#"
   xmlns:rdf="http://www.w3.org/1999/02/22-rdf-syntax-ns#"
   xmlns:svg="http://www.w3.org/2000/svg"
   xmlns="http://www.w3.org/2000/svg"
   xmlns:xlink="http://www.w3.org/1999/xlink"
   xmlns:sodipodi="http://sodipodi.sourceforge.net/DTD/sodipodi-0.dtd"
   xmlns:inkscape="http://www.inkscape.org/namespaces/inkscape"
   width="30px"
   height="30px"
   version="1.1"
   id="svg8"
   inkscape:version="0.92.4 5da689c313, 2019-01-14"
   sodipodi:docname="container.svg">
  <defs
     id="defs2" />
  <sodipodi:namedview
     id="base"
     pagecolor="#ffffff"
     bordercolor="#666666"
     borderopacity="1.0"
     inkscape:pageopacity="0.0"
     inkscape:pageshadow="2"
     inkscape:zoom="13.049334"
     inkscape:cx="18.679046"
     inkscape:cy="12.165829"
     inkscape:document-units="px"
     inkscape:current-layer="layer1"
     showgrid="false"
     inkscape:snap-page="false"
     units="px"
     inkscape:window-width="1884"
     inkscape:window-height="1061"
     inkscape:window-x="0"
     inkscape:window-y="0"
     inkscape:window-maximized="1"
     fit-margin-top="0"
     fit-margin-left="0"
     fit-margin-right="0"
     fit-margin-bottom="0" />
  <metadata
     id="metadata5">
    <rdf:RDF>
      <cc:Work
         rdf:about="">
        <dc:format>image/svg+xml</dc:format>
        <dc:type
           rdf:resource="http://purl.org/dc/dcmitype/StillImage" />
        <dc:title></dc:title>
      </cc:Work>
    </rdf:RDF>
  </metadata>
    <circle
       style="color:#000000;clip-rule:nonzero;display:inline;overflow:visible;visibility:visible;opacity:1;isolation:auto;mix-blend-mode:normal;color-interpolation:sRGB;color-interpolation-filters:linearRGB;solid-color:#000000;solid-opacity:1;vector-effect:none;fill:#e50980;fill-opacity:1;fill-rule:evenodd;stroke:#ffffff;stroke-width:1;stroke-linecap:butt;stroke-linejoin:miter;stroke-miterlimit:4;stroke-dasharray:none;stroke-dashoffset:0;stroke-opacity:1;marker:none;color-rendering:auto;image-rendering:auto;shape-rendering:auto;text-rendering:auto;enable-background:accumulate"
       id="path815"
       cx="15"
       cy="15"
       r="14.5" />
<g transform="translate(7,7)"><g id="surface1">
<path style=" stroke:none;fill-rule:nonzero;fill:#FFFFFF;fill-opacity:1;" d="M 12.132812 7.4375 C 12.160156 7.628906 12.175781 7.820312 12.175781 8.011719 C 12.179688 9.078125 11.738281 10.101562 10.957031 10.855469 C 10.910156 10.902344 10.859375 10.949219 10.808594 10.992188 C 11.09375 10.875 11.402344 10.8125 11.710938 10.8125 C 11.742188 10.8125 11.773438 10.8125 11.804688 10.816406 C 12.4375 10.015625 12.785156 9.039062 12.789062 8.035156 C 12.53125 7.878906 12.308594 7.675781 12.132812 7.4375 Z M 12.132812 7.4375 "/>
<path style=" stroke:none;fill-rule:nonzero;fill:#FFFFFF;fill-opacity:1;" d="M 8.679688 4.046875 C 9.984375 4.25 11.109375 5.039062 11.71875 6.175781 C 11.71875 6.171875 11.714844 6.167969 11.714844 6.164062 C 11.714844 5.875 11.773438 5.589844 11.890625 5.324219 C 11.296875 4.523438 10.453125 3.929688 9.484375 3.628906 C 9.25 3.816406 8.972656 3.960938 8.679688 4.046875 Z M 8.679688 4.046875 "/>
<path style=" stroke:none;fill-rule:nonzero;fill:#FFFFFF;fill-opacity:1;" d="M 5.078125 10.855469 C 4.296875 10.101562 3.855469 9.078125 3.859375 8.011719 C 3.859375 7.792969 3.875 7.570312 3.914062 7.351562 C 3.742188 7.609375 3.511719 7.832031 3.246094 8 C 3.246094 8.003906 3.246094 8.007812 3.246094 8.011719 C 3.246094 9.023438 3.585938 10.003906 4.21875 10.804688 C 4.234375 10.804688 4.25 10.804688 4.261719 10.804688 C 4.609375 10.800781 4.953125 10.878906 5.265625 11.027344 C 5.203125 10.972656 5.136719 10.914062 5.078125 10.855469 Z M 5.078125 10.855469 "/>
<path style=" stroke:none;fill-rule:nonzero;fill:#FFFFFF;fill-opacity:1;" d="M 4.285156 6.152344 C 4.285156 6.183594 4.28125 6.214844 4.28125 6.246094 C 4.875 5.070312 6.027344 4.25 7.363281 4.042969 C 7.070312 3.957031 6.796875 3.816406 6.558594 3.625 C 5.578125 3.929688 4.722656 4.535156 4.125 5.347656 C 4.230469 5.601562 4.285156 5.875 4.285156 6.152344 Z M 4.285156 6.152344 "/>
<path style=" stroke:none;fill-rule:nonzero;fill:#FFFFFF;fill-opacity:1;" d="M 10.511719 16 L 8.800781 12.566406 C 8.800781 12.566406 8.796875 12.5625 8.792969 12.5625 C 9.039062 12.523438 9.285156 12.464844 9.523438 12.386719 C 9.621094 12.070312 9.792969 11.777344 10.023438 11.535156 C 8.738281 12.21875 7.167969 12.199219 5.902344 11.476562 C 6.15625 11.726562 6.34375 12.03125 6.449219 12.367188 C 6.710938 12.453125 6.980469 12.519531 7.253906 12.5625 L 5.277344 16 Z M 10.511719 16 "/>
<path style=" stroke:none;fill-rule:nonzero;fill:#FFFFFF;fill-opacity:1;" d="M 11.710938 14.605469 C 10.902344 14.605469 10.214844 14.035156 10.089844 13.261719 L 13.296875 13.433594 C 13.105469 14.125 12.453125 14.605469 11.710938 14.605469 Z M 4.261719 14.597656 C 3.675781 14.597656 3.136719 14.292969 2.84375 13.804688 L 5.898438 12.875 C 5.902344 12.921875 5.902344 12.964844 5.902344 13.011719 C 5.902344 13.886719 5.167969 14.59375 4.261719 14.597656 Z M 8.003906 9.058594 C 7.816406 9.058594 7.632812 9.011719 7.46875 8.921875 L 7.382812 8.871094 L 7.304688 8.804688 C 7.066406 8.609375 6.929688 8.324219 6.929688 8.019531 C 6.929688 7.953125 6.9375 7.886719 6.953125 7.820312 L 6.972656 7.722656 L 7.007812 7.632812 C 7.160156 7.273438 7.5 7.023438 7.898438 6.988281 L 8 6.976562 L 8.101562 6.988281 C 8.503906 7.019531 8.851562 7.269531 9 7.628906 L 9.039062 7.722656 L 9.058594 7.816406 C 9.136719 8.1875 9 8.566406 8.703125 8.8125 L 8.625 8.875 L 8.535156 8.925781 C 8.371094 9.011719 8.191406 9.058594 8.003906 9.058594 Z M 14.003906 7.75 C 13.414062 7.75 12.871094 7.445312 12.578125 6.953125 L 15.636719 6.027344 C 15.640625 6.070312 15.644531 6.117188 15.644531 6.164062 C 15.640625 7.039062 14.910156 7.75 14.003906 7.75 Z M 1.996094 7.734375 C 1.089844 7.734375 0.359375 7.027344 0.355469 6.152344 C 0.355469 6.101562 0.359375 6.054688 0.363281 6.007812 L 3.441406 6.90625 C 3.152344 7.414062 2.597656 7.734375 1.996094 7.734375 Z M 7.941406 3.511719 C 7.199219 3.476562 6.574219 2.964844 6.417969 2.261719 L 9.628906 2.261719 C 9.46875 2.976562 8.824219 3.492188 8.066406 3.515625 L 8.003906 3.515625 Z M 7.941406 3.511719 "/>
<path style=" stroke:none;fill-rule:nonzero;fill:#FFFFFF;fill-opacity:1;" d="M 9.101562 2.605469 C 9.054688 2.671875 9 2.738281 8.941406 2.796875 C 8.710938 3.027344 8.390625 3.164062 8.058594 3.171875 L 8.007812 3.171875 L 7.957031 3.167969 C 7.628906 3.152344 7.320312 3.015625 7.09375 2.785156 C 7.039062 2.730469 6.992188 2.667969 6.945312 2.605469 L 9.101562 2.605469 M 0.761719 6.484375 L 2.835938 7.089844 C 2.804688 7.117188 2.769531 7.140625 2.734375 7.167969 C 2.519531 7.3125 2.261719 7.390625 1.996094 7.390625 C 1.421875 7.390625 0.914062 7.019531 0.761719 6.484375 M 15.238281 6.507812 C 15.078125 7.039062 14.574219 7.40625 14.003906 7.40625 C 13.738281 7.40625 13.480469 7.328125 13.261719 7.179688 C 13.238281 7.164062 13.214844 7.144531 13.191406 7.128906 L 15.238281 6.507812 M 8 7.324219 L 8.070312 7.328125 C 8.339844 7.351562 8.570312 7.519531 8.671875 7.757812 L 8.695312 7.820312 L 8.710938 7.882812 C 8.71875 7.929688 8.722656 7.976562 8.722656 8.019531 C 8.722656 8.222656 8.632812 8.417969 8.46875 8.546875 L 8.417969 8.589844 L 8.359375 8.625 C 8.136719 8.746094 7.867188 8.742188 7.648438 8.621094 L 7.589844 8.589844 L 7.535156 8.546875 C 7.378906 8.414062 7.289062 8.222656 7.289062 8.019531 C 7.289062 7.976562 7.292969 7.929688 7.300781 7.886719 L 7.3125 7.820312 L 7.339844 7.761719 C 7.4375 7.519531 7.667969 7.355469 7.933594 7.332031 L 8 7.324219 M 5.496094 13.359375 C 5.375 13.757812 5.058594 14.070312 4.648438 14.195312 C 4.238281 14.320312 3.792969 14.238281 3.457031 13.976562 L 5.496094 13.359375 M 10.59375 13.632812 L 12.753906 13.75 C 12.496094 14.089844 12.078125 14.285156 11.640625 14.261719 C 11.203125 14.238281 10.8125 14 10.59375 13.632812 M 8.023438 0 C 6.941406 0 6.054688 0.835938 6.027344 1.882812 C 6 2.929688 6.839844 3.804688 7.921875 3.859375 L 7.863281 6.644531 C 7.335938 6.695312 6.878906 7.027344 6.679688 7.503906 L 3.914062 6.695312 C 4.222656 5.683594 3.636719 4.621094 2.597656 4.304688 C 1.558594 3.988281 0.449219 4.535156 0.101562 5.53125 C -0.246094 6.53125 0.296875 7.613281 1.320312 7.96875 C 2.347656 8.320312 3.476562 7.820312 3.863281 6.835938 L 6.601562 7.753906 C 6.503906 8.242188 6.679688 8.742188 7.070312 9.066406 L 5.378906 11.414062 C 4.476562 10.820312 3.246094 11.035156 2.617188 11.898438 C 1.984375 12.761719 2.1875 13.953125 3.066406 14.578125 C 3.945312 15.203125 5.183594 15.03125 5.847656 14.195312 C 6.511719 13.355469 6.359375 12.15625 5.503906 11.5 L 7.292969 9.21875 C 7.730469 9.460938 8.269531 9.464844 8.710938 9.222656 L 10.488281 11.496094 C 9.632812 12.140625 9.464844 13.332031 10.113281 14.171875 C 10.765625 15.011719 11.992188 15.195312 12.875 14.585938 C 13.757812 13.972656 13.972656 12.792969 13.355469 11.925781 C 12.742188 11.0625 11.523438 10.832031 10.617188 11.410156 L 8.933594 9.074219 C 9.328125 8.746094 9.511719 8.242188 9.410156 7.75 L 12.128906 6.835938 C 12.507812 7.8125 13.621094 8.320312 14.640625 7.972656 C 15.65625 7.628906 16.203125 6.5625 15.867188 5.570312 C 15.53125 4.582031 14.433594 4.035156 13.402344 4.339844 C 12.375 4.644531 11.785156 5.691406 12.082031 6.695312 L 9.332031 7.5 C 9.128906 7.019531 8.667969 6.691406 8.132812 6.644531 L 8.078125 3.859375 C 9.167969 3.832031 10.035156 2.960938 10.019531 1.90625 C 10.007812 0.847656 9.117188 0 8.023438 0 Z M 6.332031 1.917969 C 6.339844 1.019531 7.09375 0.296875 8.023438 0.296875 C 8.953125 0.296875 9.707031 1.019531 9.714844 1.917969 Z M 3.625 6.597656 L 0.386719 5.65625 C 0.664062 4.804688 1.601562 4.328125 2.484375 4.585938 C 3.371094 4.84375 3.878906 5.738281 3.625 6.597656 Z M 12.386719 6.648438 C 12.109375 5.789062 12.605469 4.875 13.496094 4.605469 C 14.386719 4.335938 15.332031 4.8125 15.613281 5.671875 Z M 2.648438 13.5 C 2.367188 12.640625 2.863281 11.722656 3.757812 11.453125 C 4.648438 11.179688 5.597656 11.660156 5.878906 12.523438 Z M 13.402344 13.09375 L 10.023438 12.914062 C 10.085938 12.03125 10.859375 11.359375 11.769531 11.386719 C 12.679688 11.417969 13.40625 12.140625 13.40625 13.019531 C 13.40625 13.046875 13.402344 13.070312 13.402344 13.09375 Z M 13.402344 13.09375 "/>
</g>
</g>
</svg>
