<?xml version="1.0" encoding="UTF-8" standalone="no"?>
<!-- Created with Inkscape (http://www.inkscape.org/) -->

<svg
   xmlns:dc="http://purl.org/dc/elements/1.1/"
   xmlns:cc="http://creativecommons.org/ns#"
   xmlns:rdf="http://www.w3.org/1999/02/22-rdf-syntax-ns#"
   xmlns:svg="http://www.w3.org/2000/svg"
   xmlns="http://www.w3.org/2000/svg"
   xmlns:xlink="http://www.w3.org/1999/xlink"
   xmlns:sodipodi="http://sodipodi.sourceforge.net/DTD/sodipodi-0.dtd"
   xmlns:inkscape="http://www.inkscape.org/namespaces/inkscape"
   width="30px"
   height="30px"
   version="1.1"
   id="svg8"
   inkscape:version="0.92.4 5da689c313, 2019-01-14"
   sodipodi:docname="container.svg">
  <defs
     id="defs2" />
  <sodipodi:namedview
     id="base"
     pagecolor="#ffffff"
     bordercolor="#666666"
     borderopacity="1.0"
     inkscape:pageopacity="0.0"
     inkscape:pageshadow="2"
     inkscape:zoom="13.049334"
     inkscape:cx="18.679046"
     inkscape:cy="12.165829"
     inkscape:document-units="px"
     inkscape:current-layer="layer1"
     showgrid="false"
     inkscape:snap-page="false"
     units="px"
     inkscape:window-width="1884"
     inkscape:window-height="1061"
     inkscape:window-x="0"
     inkscape:window-y="0"
     inkscape:window-maximized="1"
     fit-margin-top="0"
     fit-margin-left="0"
     fit-margin-right="0"
     fit-margin-bottom="0" />
  <metadata
     id="metadata5">
    <rdf:RDF>
      <cc:Work
         rdf:about="">
        <dc:format>image/svg+xml</dc:format>
        <dc:type
           rdf:resource="http://purl.org/dc/dcmitype/StillImage" />
        <dc:title></dc:title>
      </cc:Work>
    </rdf:RDF>
  </metadata>
    <circle
       style="color:#000000;clip-rule:nonzero;display:inline;overflow:visible;visibility:visible;opacity:1;isolation:auto;mix-blend-mode:normal;color-interpolation:sRGB;color-interpolation-filters:linearRGB;solid-color:#000000;solid-opacity:1;vector-effect:none;fill:#ffffff;fill-opacity:1;fill-rule:evenodd;stroke:#e50980;stroke-width:1;stroke-linecap:butt;stroke-linejoin:miter;stroke-miterlimit:4;stroke-dasharray:none;stroke-dashoffset:0;stroke-opacity:1;marker:none;color-rendering:auto;image-rendering:auto;shape-rendering:auto;text-rendering:auto;enable-background:accumulate"
       id="path815"
       cx="15"
       cy="15"
       r="14.5" />
<g transform="translate(7,8)"><g id="surface1">
<path style="fill-rule:nonzero;fill:rgb(30%,30%,30%);fill-opacity:1;stroke-width:0.32968;stroke-linecap:butt;stroke-linejoin:miter;stroke:rgb(0.392157%,0.392157%,0.392157%);stroke-opacity:1;stroke-miterlimit:10;" d="M 226.618835 322.655838 C 304.368157 311.866065 393.948898 373.849865 393.948898 373.849865 L 121.826271 500.113163 C 123.757931 500.113163 125.931048 500.113163 127.862709 500.113163 C 182.432109 500.801871 213.097214 532.71205 240.140456 561.178684 C 265.252039 587.120053 284.810098 607.78132 321.028726 606.863041 C 353.625492 606.174332 375.356669 594.466281 389.602662 582.069521 L 415.438617 551.30719 C 439.584369 526.74324 470.73239 500.801871 524.577417 500.113163 C 587.59783 499.424454 617.780021 534.089468 641.925773 561.867393 C 663.898407 586.890483 681.283349 606.863041 721.606755 606.863041 C 763.861821 606.863041 782.212593 586.660914 805.633973 560.949115 C 830.504097 533.630329 861.893575 498.965314 923.948158 500.113163 C 944.954963 500.113163 965.478852 505.622834 983.588166 516.183037 C 983.829624 515.264758 984.071081 514.576049 984.071081 513.657771 C 986.968572 495.75134 960.408244 445.70516 910.426537 465.448148 C 874.449366 479.681465 807.565633 540.517418 675.729826 507.229821 C 570.695804 480.599744 552.103575 374.309005 470.490932 301.076292 C 376.805414 216.594668 260.422888 201.443072 145.24765 234.730669 C 31.762615 267.559126 -3.007268 315.768749 30.796785 356.861713 C 75.224969 410.581006 105.407159 339.64399 226.618835 322.655838 Z M 226.618835 322.655838 " transform="matrix(0.0161778,0,0,0.0170155,-0.0646303,-3.708912)"/>
<path style=" stroke:none;fill-rule:nonzero;fill:rgb(30%,30%,30%);fill-opacity:1;" d="M 14.863281 6.015625 C 13.859375 5.996094 13.355469 6.582031 12.953125 7.050781 C 12.574219 7.488281 12.273438 7.832031 11.59375 7.832031 C 10.941406 7.832031 10.660156 7.492188 10.304688 7.0625 C 9.910156 6.589844 9.421875 6.003906 8.40625 6.015625 C 7.53125 6.023438 7.03125 6.46875 6.636719 6.886719 L 6.222656 7.410156 C 5.992188 7.621094 5.640625 7.816406 5.113281 7.832031 C 4.523438 7.847656 4.207031 7.496094 3.804688 7.050781 C 3.363281 6.570312 2.867188 6.023438 1.984375 6.015625 C 0.980469 5.996094 0.476562 6.582031 0.0703125 7.050781 C 0.046875 7.078125 0.0234375 7.105469 0 7.132812 L 0 8.308594 C 0.28125 8.105469 0.496094 7.859375 0.6875 7.636719 C 1.066406 7.199219 1.339844 6.875 1.976562 6.886719 C 2.484375 6.894531 2.773438 7.183594 3.203125 7.65625 C 3.628906 8.125 4.160156 8.707031 5.074219 8.707031 C 5.09375 8.707031 5.113281 8.707031 5.132812 8.703125 C 6.34375 8.671875 6.949219 7.964844 7.210938 7.515625 C 7.542969 7.160156 7.847656 6.894531 8.414062 6.886719 C 8.421875 6.886719 8.429688 6.886719 8.433594 6.886719 C 9.054688 6.886719 9.316406 7.203125 9.675781 7.636719 C 10.070312 8.113281 10.5625 8.707031 11.59375 8.707031 C 12.640625 8.707031 13.152344 8.113281 13.566406 7.636719 C 13.945312 7.199219 14.21875 6.875 14.855469 6.886719 C 15.328125 6.894531 15.613281 7.148438 16 7.566406 L 16 6.398438 C 15.699219 6.179688 15.335938 6.019531 14.863281 6.015625 Z M 14.863281 6.015625 "/>
<path style=" stroke:none;fill-rule:nonzero;fill:rgb(30%,30%,30%);fill-opacity:1;" d="M 12.46875 1.941406 C 12.46875 2.914062 11.71875 3.707031 10.792969 3.707031 C 9.867188 3.707031 9.113281 2.914062 9.113281 1.941406 C 9.113281 0.964844 9.867188 0.175781 10.792969 0.175781 C 11.71875 0.175781 12.46875 0.964844 12.46875 1.941406 Z M 12.46875 1.941406 "/>
<path style=" stroke:none;fill-rule:nonzero;fill:rgb(30%,30%,30%);fill-opacity:1;" d="M 14.9375 8.09375 C 13.929688 8.078125 13.425781 8.664062 13.023438 9.128906 C 12.644531 9.566406 12.347656 9.910156 11.664062 9.910156 C 11.011719 9.910156 10.730469 9.574219 10.375 9.144531 C 9.980469 8.671875 9.492188 8.082031 8.476562 8.09375 C 7.605469 8.105469 7.101562 8.546875 6.710938 8.964844 L 6.292969 9.488281 C 6.0625 9.699219 5.710938 9.898438 5.183594 9.910156 C 4.59375 9.925781 4.28125 9.574219 3.875 9.132812 C 3.4375 8.652344 2.9375 8.105469 2.058594 8.09375 C 1.050781 8.078125 0.546875 8.664062 0.144531 9.128906 C 0.09375 9.1875 0.046875 9.242188 0 9.292969 L 0 10.4375 C 0.316406 10.226562 0.550781 9.957031 0.757812 9.71875 C 1.136719 9.277344 1.410156 8.953125 2.046875 8.96875 C 2.554688 8.972656 2.84375 9.265625 3.273438 9.734375 C 3.703125 10.203125 4.230469 10.785156 5.148438 10.785156 C 5.164062 10.785156 5.183594 10.785156 5.203125 10.785156 C 6.414062 10.753906 7.019531 10.042969 7.285156 9.597656 C 7.613281 9.238281 7.917969 8.972656 8.484375 8.96875 C 8.492188 8.96875 8.5 8.96875 8.507812 8.96875 C 9.125 8.96875 9.386719 9.285156 9.75 9.71875 C 10.144531 10.195312 10.632812 10.785156 11.664062 10.785156 C 12.710938 10.785156 13.226562 10.191406 13.636719 9.71875 C 14.015625 9.277344 14.289062 8.953125 14.925781 8.96875 C 15.371094 8.972656 15.648438 9.195312 16 9.570312 L 16 8.429688 C 15.683594 8.210938 15.3125 8.09375 14.9375 8.09375 Z M 14.9375 8.09375 "/>
<path style=" stroke:none;fill-rule:nonzero;fill:rgb(30%,30%,30%);fill-opacity:1;" d="M 14.988281 10.304688 C 13.984375 10.285156 13.480469 10.875 13.078125 11.339844 C 12.699219 11.777344 12.398438 12.121094 11.71875 12.121094 C 11.066406 12.121094 10.785156 11.78125 10.429688 11.355469 C 10.035156 10.882812 9.546875 10.292969 8.53125 10.304688 C 7.660156 10.316406 7.15625 10.757812 6.761719 11.175781 L 6.347656 11.699219 C 6.117188 11.910156 5.765625 12.109375 5.238281 12.121094 C 4.648438 12.136719 4.332031 11.785156 3.929688 11.34375 C 3.488281 10.859375 2.992188 10.316406 2.109375 10.304688 C 1.105469 10.285156 0.601562 10.875 0.199219 11.339844 C 0.128906 11.417969 0.0664062 11.492188 0 11.5625 L 0 12.679688 C 0.34375 12.46875 0.589844 12.179688 0.8125 11.925781 C 1.191406 11.488281 1.464844 11.164062 2.101562 11.179688 C 2.609375 11.183594 2.898438 11.472656 3.328125 11.945312 C 3.753906 12.414062 4.285156 12.996094 5.199219 12.996094 C 5.21875 12.996094 5.238281 12.996094 5.257812 12.996094 C 6.46875 12.964844 7.074219 12.253906 7.335938 11.808594 C 7.667969 11.449219 7.972656 11.183594 8.539062 11.179688 C 8.546875 11.179688 8.554688 11.179688 8.558594 11.179688 C 9.179688 11.179688 9.441406 11.492188 9.800781 11.929688 C 10.195312 12.402344 10.6875 12.996094 11.71875 12.996094 C 12.765625 12.996094 13.277344 12.402344 13.691406 11.925781 C 14.070312 11.488281 14.34375 11.164062 14.980469 11.179688 C 15.402344 11.183594 15.671875 11.382812 16 11.722656 L 16 10.605469 C 15.695312 10.410156 15.347656 10.304688 14.988281 10.304688 Z M 14.988281 10.304688 "/>
</g>
</g>
</svg>
