<?xml version="1.0" encoding="UTF-8" standalone="no"?>
<!-- Created with Inkscape (http://www.inkscape.org/) -->

<svg
   xmlns:dc="http://purl.org/dc/elements/1.1/"
   xmlns:cc="http://creativecommons.org/ns#"
   xmlns:rdf="http://www.w3.org/1999/02/22-rdf-syntax-ns#"
   xmlns:svg="http://www.w3.org/2000/svg"
   xmlns="http://www.w3.org/2000/svg"
   xmlns:xlink="http://www.w3.org/1999/xlink"
   xmlns:sodipodi="http://sodipodi.sourceforge.net/DTD/sodipodi-0.dtd"
   xmlns:inkscape="http://www.inkscape.org/namespaces/inkscape"
   width="30px"
   height="30px"
   version="1.1"
   id="svg8"
   inkscape:version="0.92.4 5da689c313, 2019-01-14"
   sodipodi:docname="container.svg">
  <defs
     id="defs2" />
  <sodipodi:namedview
     id="base"
     pagecolor="#ffffff"
     bordercolor="#666666"
     borderopacity="1.0"
     inkscape:pageopacity="0.0"
     inkscape:pageshadow="2"
     inkscape:zoom="13.049334"
     inkscape:cx="18.679046"
     inkscape:cy="12.165829"
     inkscape:document-units="px"
     inkscape:current-layer="layer1"
     showgrid="false"
     inkscape:snap-page="false"
     units="px"
     inkscape:window-width="1884"
     inkscape:window-height="1061"
     inkscape:window-x="0"
     inkscape:window-y="0"
     inkscape:window-maximized="1"
     fit-margin-top="0"
     fit-margin-left="0"
     fit-margin-right="0"
     fit-margin-bottom="0" />
  <metadata
     id="metadata5">
    <rdf:RDF>
      <cc:Work
         rdf:about="">
        <dc:format>image/svg+xml</dc:format>
        <dc:type
           rdf:resource="http://purl.org/dc/dcmitype/StillImage" />
        <dc:title></dc:title>
      </cc:Work>
    </rdf:RDF>
  </metadata>
    <circle
       style="color:#000000;clip-rule:nonzero;display:inline;overflow:visible;visibility:visible;opacity:1;isolation:auto;mix-blend-mode:normal;color-interpolation:sRGB;color-interpolation-filters:linearRGB;solid-color:#000000;solid-opacity:1;vector-effect:none;fill:#e50980;fill-opacity:1;fill-rule:evenodd;stroke:#ffffff;stroke-width:1;stroke-linecap:butt;stroke-linejoin:miter;stroke-miterlimit:4;stroke-dasharray:none;stroke-dashoffset:0;stroke-opacity:1;marker:none;color-rendering:auto;image-rendering:auto;shape-rendering:auto;text-rendering:auto;enable-background:accumulate"
       id="path815"
       cx="15"
       cy="15"
       r="14.5" />
<g transform="translate(6,6)"><g id="surface1">
<path style=" stroke:none;fill-rule:nonzero;fill:#FFFFFF;fill-opacity:1;" d="M 10.417969 2.664062 L 17 0.984375 L 17 3.101562 Z M 0 0.949219 L 0 3.066406 L 6.582031 2.628906 Z M 16.703125 14.625 C 16.695312 14.648438 16.480469 15.195312 15.734375 15.214844 C 15.351562 15.226562 15.144531 15.007812 14.882812 14.734375 C 14.597656 14.4375 14.273438 14.101562 13.695312 14.097656 C 13.042969 14.085938 12.710938 14.445312 12.449219 14.734375 C 12.203125 15.003906 12.007812 15.214844 11.5625 15.214844 C 11.34375 15.214844 11.359375 15.226562 11.226562 15.140625 L 10.996094 13.335938 L 5.960938 13.335938 L 5.773438 14.269531 C 5.609375 14.183594 5.527344 14.097656 5.300781 14.097656 C 4.644531 14.085938 4.316406 14.445312 4.050781 14.734375 C 3.804688 15.003906 3.609375 15.214844 3.164062 15.214844 C 2.742188 15.214844 2.558594 15.007812 2.324219 14.742188 C 2.070312 14.453125 1.75 14.089844 1.085938 14.097656 C 0.765625 14.101562 0.523438 14.1875 0.324219 14.3125 L 0.335938 14.996094 C 0.542969 14.789062 0.738281 14.636719 1.09375 14.632812 C 1.097656 14.632812 1.101562 14.632812 1.105469 14.632812 C 1.511719 14.632812 1.683594 14.828125 1.917969 15.097656 C 2.175781 15.386719 2.496094 15.753906 3.164062 15.753906 C 3.847656 15.753906 4.183594 15.386719 4.453125 15.09375 C 4.699219 14.824219 4.878906 14.625 5.292969 14.632812 C 5.625 14.636719 5.8125 14.816406 6.09375 15.105469 C 6.371094 15.394531 6.714844 15.753906 7.3125 15.753906 C 7.328125 15.753906 7.339844 15.753906 7.351562 15.753906 C 8.140625 15.734375 8.535156 15.296875 8.707031 15.023438 C 8.921875 14.800781 9.121094 14.636719 9.492188 14.632812 C 9.496094 14.632812 9.5 14.632812 9.503906 14.632812 C 9.910156 14.632812 10.078125 14.828125 10.316406 15.097656 C 10.570312 15.386719 10.890625 15.753906 11.5625 15.753906 C 12.246094 15.753906 12.582031 15.386719 12.851562 15.09375 C 13.097656 14.824219 13.277344 14.625 13.691406 14.632812 C 14.023438 14.636719 14.210938 14.816406 14.492188 15.105469 C 14.769531 15.394531 15.113281 15.753906 15.710938 15.753906 C 15.722656 15.753906 15.734375 15.753906 15.75 15.753906 C 16.195312 15.742188 16.515625 15.597656 16.742188 15.421875 L 16.742188 14.636719 Z M 16.703125 15.867188 C 16.695312 15.890625 16.480469 16.441406 15.734375 16.460938 C 15.351562 16.46875 15.144531 16.253906 14.882812 15.980469 C 14.597656 15.683594 14.273438 15.347656 13.695312 15.339844 C 13.042969 15.332031 12.710938 15.691406 12.449219 15.976562 C 12.203125 16.246094 12.007812 16.460938 11.5625 16.460938 C 11.136719 16.460938 10.953125 16.25 10.722656 15.988281 C 10.464844 15.695312 10.148438 15.332031 9.484375 15.339844 C 8.917969 15.347656 8.640625 15.628906 8.386719 15.886719 L 8.0625 16.199219 C 7.910156 16.328125 7.679688 16.453125 7.335938 16.460938 C 6.953125 16.46875 6.75 16.253906 6.484375 15.980469 C 6.199219 15.683594 5.875 15.347656 5.300781 15.339844 C 4.644531 15.332031 4.316406 15.691406 4.050781 15.976562 C 3.804688 16.246094 3.609375 16.460938 3.164062 16.460938 C 2.742188 16.460938 2.558594 16.25 2.324219 15.988281 C 2.070312 15.695312 1.75 15.332031 1.085938 15.339844 C 0.777344 15.34375 0.535156 15.429688 0.34375 15.546875 L 0.351562 16.222656 C 0.550781 16.027344 0.746094 15.882812 1.09375 15.878906 C 1.097656 15.878906 1.101562 15.878906 1.105469 15.878906 C 1.511719 15.878906 1.683594 16.074219 1.917969 16.339844 C 2.175781 16.632812 2.496094 16.996094 3.164062 16.996094 C 3.847656 16.996094 4.183594 16.632812 4.453125 16.339844 C 4.699219 16.070312 4.878906 15.871094 5.292969 15.878906 C 5.625 15.882812 5.8125 16.0625 6.09375 16.351562 C 6.371094 16.640625 6.714844 16.996094 7.3125 16.996094 C 7.328125 16.996094 7.339844 16.996094 7.351562 16.996094 C 8.140625 16.976562 8.535156 16.539062 8.707031 16.265625 C 8.921875 16.046875 9.121094 15.882812 9.492188 15.878906 C 9.496094 15.878906 9.5 15.878906 9.503906 15.878906 C 9.910156 15.878906 10.078125 16.074219 10.316406 16.339844 C 10.570312 16.632812 10.890625 16.996094 11.5625 16.996094 C 12.246094 16.996094 12.582031 16.632812 12.851562 16.339844 C 13.097656 16.070312 13.277344 15.871094 13.691406 15.878906 C 14.023438 15.882812 14.210938 16.0625 14.492188 16.351562 C 14.769531 16.640625 15.113281 16.996094 15.710938 16.996094 C 15.722656 16.996094 15.734375 16.996094 15.75 16.996094 C 16.195312 16.984375 16.515625 16.839844 16.742188 16.667969 L 16.742188 15.882812 Z M 10.238281 6.179688 L 6.71875 6.179688 L 6.597656 7.46875 L 10.367188 7.523438 Z M 10.492188 8.566406 L 6.464844 8.566406 L 6.339844 9.910156 L 10.617188 9.910156 Z M 10.742188 10.949219 L 6.214844 10.949219 L 6.085938 12.292969 L 10.871094 12.292969 Z M 10.125 3.519531 L 10.5 3.519531 L 10.5 4.414062 L 9.988281 4.414062 L 10.0625 5.0625 L 10.113281 5.609375 L 6.84375 5.609375 L 6.953125 4.414062 L 6.4375 4.414062 L 6.4375 3.519531 L 6.8125 3.519531 L 6.8125 1.652344 L 6.4375 1.652344 L 6.4375 0.980469 L 8.421875 0.00390625 L 10.425781 0.980469 L 10.425781 1.652344 L 10.125 1.652344 Z M 9.542969 1.652344 L 7.386719 1.652344 L 7.386719 3.519531 L 9.542969 3.519531 Z M 9.542969 1.652344 "/>
</g>
</g>
</svg>
