<?xml version="1.0" encoding="UTF-8"?>
<svg xmlns="http://www.w3.org/2000/svg" xmlns:xlink="http://www.w3.org/1999/xlink" width="11px" height="10px" viewBox="0 0 11 10" version="1.1">
<g id="surface1">
<path style=" stroke:none;fill-rule:nonzero;fill:rgb(30%,30%,30%);fill-opacity:1;" d="M 5.523438 3.484375 L 6.007812 4.890625 L 7.511719 4.890625 L 6.320312 5.710938 L 6.78125 7.132812 L 5.523438 6.273438 L 4.277344 7.144531 L 4.738281 5.710938 L 3.542969 4.890625 L 5.035156 4.890625 Z M 5.523438 3.484375 "/>
<path style=" stroke:none;fill-rule:nonzero;fill:rgb(30%,30%,30%);fill-opacity:1;" d="M 2.113281 9.996094 L 3.414062 6.183594 L 0 3.824219 L 4.226562 3.824219 L 5.519531 0.00390625 L 6.839844 3.824219 L 11 3.824219 L 7.632812 6.183594 L 8.910156 9.996094 L 5.519531 7.632812 Z M 4.683594 4.457031 L 2.09375 4.457031 L 4.164062 5.886719 L 3.363281 8.375 L 5.523438 6.859375 L 7.714844 8.347656 L 6.910156 5.886719 L 8.984375 4.457031 L 6.367188 4.457031 L 5.523438 2.019531 Z M 4.683594 4.457031 "/>
</g>
</svg>
