<?xml version="1.0" encoding="UTF-8" standalone="no"?>
<!-- Created with Inkscape (http://www.inkscape.org/) -->

<svg
   xmlns:dc="http://purl.org/dc/elements/1.1/"
   xmlns:cc="http://creativecommons.org/ns#"
   xmlns:rdf="http://www.w3.org/1999/02/22-rdf-syntax-ns#"
   xmlns:svg="http://www.w3.org/2000/svg"
   xmlns="http://www.w3.org/2000/svg"
   xmlns:xlink="http://www.w3.org/1999/xlink"
   xmlns:sodipodi="http://sodipodi.sourceforge.net/DTD/sodipodi-0.dtd"
   xmlns:inkscape="http://www.inkscape.org/namespaces/inkscape"
   width="30px"
   height="30px"
   version="1.1"
   id="svg8"
   inkscape:version="0.92.4 5da689c313, 2019-01-14"
   sodipodi:docname="container.svg">
  <defs
     id="defs2" />
  <sodipodi:namedview
     id="base"
     pagecolor="#ffffff"
     bordercolor="#666666"
     borderopacity="1.0"
     inkscape:pageopacity="0.0"
     inkscape:pageshadow="2"
     inkscape:zoom="13.049334"
     inkscape:cx="18.679046"
     inkscape:cy="12.165829"
     inkscape:document-units="px"
     inkscape:current-layer="layer1"
     showgrid="false"
     inkscape:snap-page="false"
     units="px"
     inkscape:window-width="1884"
     inkscape:window-height="1061"
     inkscape:window-x="0"
     inkscape:window-y="0"
     inkscape:window-maximized="1"
     fit-margin-top="0"
     fit-margin-left="0"
     fit-margin-right="0"
     fit-margin-bottom="0" />
  <metadata
     id="metadata5">
    <rdf:RDF>
      <cc:Work
         rdf:about="">
        <dc:format>image/svg+xml</dc:format>
        <dc:type
           rdf:resource="http://purl.org/dc/dcmitype/StillImage" />
        <dc:title></dc:title>
      </cc:Work>
    </rdf:RDF>
  </metadata>
    <circle
       style="color:#000000;clip-rule:nonzero;display:inline;overflow:visible;visibility:visible;opacity:1;isolation:auto;mix-blend-mode:normal;color-interpolation:sRGB;color-interpolation-filters:linearRGB;solid-color:#000000;solid-opacity:1;vector-effect:none;fill:#e50980;fill-opacity:1;fill-rule:evenodd;stroke:#ffffff;stroke-width:1;stroke-linecap:butt;stroke-linejoin:miter;stroke-miterlimit:4;stroke-dasharray:none;stroke-dashoffset:0;stroke-opacity:1;marker:none;color-rendering:auto;image-rendering:auto;shape-rendering:auto;text-rendering:auto;enable-background:accumulate"
       id="path815"
       cx="15"
       cy="15"
       r="14.5" />
<g transform="translate(6,7)"><g id="surface1">
<path style=" stroke:none;fill-rule:nonzero;fill:#FFFFFF;fill-opacity:1;" d="M 12.519531 0.242188 L 12.746094 0.367188 C 13.699219 0.902344 13.878906 2.230469 13.105469 3.011719 L 9.269531 6.882812 C 9.214844 6.9375 9.128906 6.949219 9.0625 6.914062 C 8.996094 6.875 8.960938 6.792969 8.976562 6.71875 L 10.15625 1.335938 C 10.390625 0.257812 11.570312 -0.289062 12.519531 0.242188 Z M 12.519531 0.242188 "/>
<path style=" stroke:none;fill-rule:nonzero;fill:#FFFFFF;fill-opacity:1;" d="M 16.996094 7.730469 L 17 7.996094 C 17.015625 9.109375 15.980469 9.925781 14.933594 9.625 L 9.753906 8.121094 C 9.679688 8.101562 9.628906 8.03125 9.628906 7.953125 C 9.628906 7.871094 9.679688 7.800781 9.75 7.777344 L 14.898438 6.167969 C 15.929688 5.84375 16.976562 6.625 16.996094 7.730469 Z M 16.996094 7.730469 "/>
<path style=" stroke:none;fill-rule:nonzero;fill:#FFFFFF;fill-opacity:1;" d="M 13.253906 15.164062 L 13.039062 15.3125 C 12.136719 15.9375 10.902344 15.496094 10.578125 14.433594 L 8.96875 9.167969 C 8.945312 9.09375 8.972656 9.011719 9.039062 8.964844 C 9.101562 8.921875 9.1875 8.925781 9.246094 8.976562 L 13.378906 12.507812 C 14.210938 13.214844 14.144531 14.542969 13.253906 15.164062 Z M 13.253906 15.164062 "/>
<path style=" stroke:none;fill-rule:nonzero;fill:#FFFFFF;fill-opacity:1;" d="M 4.707031 15.828125 L 4.472656 15.710938 C 3.496094 15.214844 3.261719 13.898438 4.003906 13.082031 L 7.671875 9.046875 C 7.722656 8.988281 7.808594 8.972656 7.875 9.007812 C 7.945312 9.042969 7.984375 9.121094 7.96875 9.199219 L 7.019531 14.628906 C 6.832031 15.71875 5.675781 16.316406 4.707031 15.828125 Z M 4.707031 15.828125 "/>
<path style=" stroke:none;fill-rule:nonzero;fill:#FFFFFF;fill-opacity:1;" d="M 0 7.957031 L 0 7.691406 C 0.00390625 6.578125 1.054688 5.78125 2.097656 6.105469 L 7.246094 7.707031 C 7.320312 7.730469 7.371094 7.800781 7.371094 7.882812 C 7.371094 7.960938 7.316406 8.03125 7.242188 8.050781 L 2.066406 9.5625 C 1.027344 9.863281 -0.00390625 9.0625 0 7.957031 Z M 0 7.957031 "/>
<path style=" stroke:none;fill-rule:nonzero;fill:#FFFFFF;fill-opacity:1;" d="M 4.28125 0.347656 L 4.507812 0.21875 C 5.453125 -0.332031 6.648438 0.210938 6.890625 1.300781 L 8.074219 6.679688 C 8.09375 6.757812 8.058594 6.835938 7.992188 6.875 C 7.921875 6.914062 7.839844 6.902344 7.785156 6.847656 L 3.945312 2.984375 C 3.171875 2.207031 3.339844 0.890625 4.28125 0.347656 Z M 4.28125 0.347656 "/>
</g>
</g>
</svg>
