<?xml version="1.0" encoding="UTF-8"?>
<svg xmlns="http://www.w3.org/2000/svg" xmlns:xlink="http://www.w3.org/1999/xlink" width="11px" height="10px" viewBox="0 0 11 10" version="1.1">
<g id="surface1">
<path style=" stroke:none;fill-rule:nonzero;fill:rgb(30%,30%,30%);fill-opacity:1;" d="M 10.945312 1.8125 C 9.761719 0.660156 8.046875 0 6.238281 0 C 6.210938 0 6.183594 0 6.15625 0 C 5.554688 0.0078125 4.953125 0.0859375 4.375 0.238281 C 4.289062 0.1875 4.183594 0.175781 4.089844 0.203125 C 3.992188 0.234375 3.914062 0.300781 3.878906 0.390625 C 3.324219 0.582031 2.800781 0.839844 2.324219 1.164062 C 1.851562 1.484375 1.433594 1.863281 1.082031 2.296875 C 0.359375 3.183594 -0.0117188 4.21875 0 5.289062 C 0 5.320312 0.00390625 5.355469 0.00390625 5.386719 L 0.0078125 5.425781 C 0.0117188 5.5 0.0625 5.566406 0.136719 5.59375 C 0.214844 5.617188 0.296875 5.597656 0.355469 5.542969 C 0.875 5.03125 1.652344 4.734375 2.488281 4.734375 C 2.867188 4.734375 3.238281 4.796875 3.589844 4.917969 C 3.597656 4.921875 3.601562 4.921875 3.609375 4.921875 L 3.613281 4.9375 L 3.617188 4.925781 C 3.710938 4.945312 3.804688 4.898438 3.84375 4.820312 C 4.074219 4.34375 4.515625 3.945312 5.09375 3.699219 L 7.476562 9.796875 C 7.539062 9.957031 7.730469 10.039062 7.902344 9.980469 C 8.074219 9.921875 8.164062 9.746094 8.101562 9.585938 L 5.722656 3.503906 C 6.324219 3.382812 6.949219 3.421875 7.523438 3.625 C 7.597656 3.652344 7.683594 3.636719 7.738281 3.582031 L 7.753906 3.585938 L 7.746094 3.578125 C 7.761719 3.5625 7.773438 3.542969 7.78125 3.523438 C 8.164062 2.671875 9.195312 2.097656 10.351562 2.097656 C 10.492188 2.097656 10.632812 2.109375 10.773438 2.125 C 10.855469 2.136719 10.9375 2.09375 10.976562 2.023438 C 11.015625 1.953125 11.003906 1.871094 10.945312 1.8125 Z M 3.71875 4.765625 C 3.714844 4.777344 3.710938 4.78125 3.703125 4.789062 C 3.710938 4.773438 3.722656 4.753906 3.734375 4.738281 C 3.726562 4.75 3.722656 4.757812 3.71875 4.765625 Z M 5.570312 3.28125 C 5.476562 3.300781 5.394531 3.328125 5.316406 3.351562 C 5.222656 3.386719 5.136719 3.414062 5.0625 3.445312 C 4.53125 3.648438 4.109375 3.917969 3.664062 4.597656 C 3.449219 3.742188 3.359375 2.863281 3.414062 2.113281 C 3.472656 1.355469 3.675781 0.785156 3.976562 0.546875 C 4.03125 0.5 4.09375 0.464844 4.164062 0.441406 C 4.238281 0.417969 4.316406 0.40625 4.394531 0.40625 C 4.402344 0.402344 4.410156 0.402344 4.414062 0.402344 C 4.644531 0.402344 4.902344 0.5 5.179688 0.683594 C 5.433594 0.851562 5.707031 1.101562 6 1.425781 C 6.527344 2.015625 7.023438 2.746094 7.421875 3.339844 C 6.644531 3.109375 5.992188 3.175781 5.570312 3.28125 Z M 5.570312 3.28125 "/>
</g>
</svg>
