<?xml version="1.0" encoding="UTF-8" standalone="no"?>
<!-- Created with Inkscape (http://www.inkscape.org/) -->

<svg
   xmlns:dc="http://purl.org/dc/elements/1.1/"
   xmlns:cc="http://creativecommons.org/ns#"
   xmlns:rdf="http://www.w3.org/1999/02/22-rdf-syntax-ns#"
   xmlns:svg="http://www.w3.org/2000/svg"
   xmlns="http://www.w3.org/2000/svg"
   xmlns:xlink="http://www.w3.org/1999/xlink"
   xmlns:sodipodi="http://sodipodi.sourceforge.net/DTD/sodipodi-0.dtd"
   xmlns:inkscape="http://www.inkscape.org/namespaces/inkscape"
   width="30px"
   height="30px"
   version="1.1"
   id="svg8"
   inkscape:version="0.92.4 5da689c313, 2019-01-14"
   sodipodi:docname="container.svg">
  <defs
     id="defs2" />
  <sodipodi:namedview
     id="base"
     pagecolor="#ffffff"
     bordercolor="#666666"
     borderopacity="1.0"
     inkscape:pageopacity="0.0"
     inkscape:pageshadow="2"
     inkscape:zoom="13.049334"
     inkscape:cx="18.679046"
     inkscape:cy="12.165829"
     inkscape:document-units="px"
     inkscape:current-layer="layer1"
     showgrid="false"
     inkscape:snap-page="false"
     units="px"
     inkscape:window-width="1884"
     inkscape:window-height="1061"
     inkscape:window-x="0"
     inkscape:window-y="0"
     inkscape:window-maximized="1"
     fit-margin-top="0"
     fit-margin-left="0"
     fit-margin-right="0"
     fit-margin-bottom="0" />
  <metadata
     id="metadata5">
    <rdf:RDF>
      <cc:Work
         rdf:about="">
        <dc:format>image/svg+xml</dc:format>
        <dc:type
           rdf:resource="http://purl.org/dc/dcmitype/StillImage" />
        <dc:title></dc:title>
      </cc:Work>
    </rdf:RDF>
  </metadata>
    <circle
       style="color:#000000;clip-rule:nonzero;display:inline;overflow:visible;visibility:visible;opacity:1;isolation:auto;mix-blend-mode:normal;color-interpolation:sRGB;color-interpolation-filters:linearRGB;solid-color:#000000;solid-opacity:1;vector-effect:none;fill:#ffffff;fill-opacity:1;fill-rule:evenodd;stroke:#e50980;stroke-width:1;stroke-linecap:butt;stroke-linejoin:miter;stroke-miterlimit:4;stroke-dasharray:none;stroke-dashoffset:0;stroke-opacity:1;marker:none;color-rendering:auto;image-rendering:auto;shape-rendering:auto;text-rendering:auto;enable-background:accumulate"
       id="path815"
       cx="15"
       cy="15"
       r="14.5" />
<g transform="translate(6,7)"><g id="surface1">
<path style=" stroke:none;fill-rule:nonzero;fill:rgb(30%,30%,30%);fill-opacity:1;" d="M 16.625 12.773438 C 16.40625 12.558594 16.199219 12.355469 15.835938 12.351562 C 15.832031 12.351562 15.828125 12.351562 15.824219 12.351562 C 15.632812 12.351562 15.476562 12.390625 15.335938 12.480469 C 15.210938 12.554688 15.113281 12.660156 15.007812 12.765625 C 14.898438 12.878906 14.789062 12.996094 14.640625 13.082031 C 14.476562 13.179688 14.289062 13.230469 14.070312 13.230469 C 13.855469 13.230469 13.675781 13.183594 13.515625 13.085938 C 13.375 12.996094 13.269531 12.882812 13.164062 12.769531 L 13.171875 12.765625 L 13.152344 12.746094 C 12.917969 12.515625 12.714844 12.316406 12.375 12.3125 C 12.371094 12.3125 12.367188 12.3125 12.363281 12.3125 C 12.171875 12.3125 12.015625 12.355469 11.875 12.441406 C 11.75 12.519531 11.652344 12.621094 11.546875 12.730469 C 11.519531 12.757812 11.492188 12.785156 11.464844 12.816406 C 11.429688 12.847656 11.398438 12.875 11.367188 12.90625 C 11.308594 12.957031 11.246094 13.003906 11.179688 13.046875 C 11.011719 13.144531 10.828125 13.191406 10.609375 13.191406 C 10.59375 13.191406 10.578125 13.191406 10.566406 13.191406 C 10.378906 13.167969 10.160156 13.089844 9.976562 12.992188 C 9.875 12.914062 9.789062 12.824219 9.703125 12.734375 C 9.503906 12.515625 9.3125 12.3125 8.902344 12.3125 L 8.886719 12.3125 C 8.601562 12.316406 8.425781 12.425781 8.277344 12.558594 C 8.195312 12.625 8.125 12.699219 8.050781 12.773438 C 7.941406 12.886719 7.832031 13.003906 7.683594 13.089844 C 7.515625 13.1875 7.332031 13.238281 7.113281 13.238281 C 6.898438 13.238281 6.71875 13.191406 6.558594 13.09375 C 6.417969 13.003906 6.3125 12.890625 6.207031 12.777344 L 6.214844 12.773438 L 6.195312 12.753906 C 5.960938 12.523438 5.757812 12.324219 5.417969 12.320312 C 5.414062 12.320312 5.410156 12.320312 5.40625 12.320312 C 5.214844 12.320312 5.058594 12.363281 4.917969 12.449219 C 4.792969 12.527344 4.695312 12.628906 4.589844 12.738281 C 4.5625 12.765625 4.535156 12.792969 4.503906 12.824219 C 4.472656 12.851562 4.441406 12.882812 4.410156 12.914062 C 4.351562 12.964844 4.289062 13.011719 4.222656 13.054688 C 4.054688 13.152344 3.871094 13.199219 3.652344 13.199219 C 3.4375 13.199219 3.257812 13.152344 3.097656 13.054688 C 2.957031 12.964844 2.851562 12.851562 2.746094 12.742188 C 2.585938 12.566406 2.433594 12.402344 2.167969 12.34375 C 2.089844 12.320312 2.011719 12.308594 1.933594 12.308594 C 1.929688 12.308594 1.925781 12.308594 1.917969 12.308594 C 1.734375 12.308594 1.582031 12.347656 1.445312 12.433594 C 1.371094 12.480469 1.308594 12.535156 1.246094 12.59375 C 1.191406 12.640625 1.140625 12.691406 1.089844 12.742188 L 1.085938 12.742188 C 1.03125 12.796875 0.972656 12.855469 0.914062 12.90625 L 0.917969 12.914062 C 0.871094 12.953125 0.820312 12.988281 0.765625 13.023438 C 0.605469 13.117188 0.421875 13.164062 0.210938 13.164062 C 0.140625 13.164062 0.0703125 13.160156 0 13.148438 L 0 13.484375 C 0.0703125 13.496094 0.140625 13.5 0.210938 13.5 C 0.652344 13.5 0.9375 13.339844 1.148438 13.164062 C 1.167969 13.148438 1.183594 13.128906 1.203125 13.113281 C 1.214844 13.101562 1.230469 13.089844 1.242188 13.078125 C 1.273438 13.046875 1.308594 13.015625 1.339844 12.984375 L 1.339844 12.980469 C 1.539062 12.785156 1.660156 12.667969 1.933594 12.664062 L 1.945312 12.664062 C 2.015625 12.664062 2.074219 12.671875 2.128906 12.6875 C 2.222656 12.734375 2.320312 12.820312 2.457031 12.957031 C 2.503906 13.003906 2.558594 13.054688 2.613281 13.105469 C 2.828125 13.320312 3.128906 13.542969 3.652344 13.542969 C 4.101562 13.542969 4.394531 13.378906 4.609375 13.199219 C 4.621094 13.191406 4.632812 13.179688 4.644531 13.167969 C 4.683594 13.132812 4.722656 13.097656 4.757812 13.0625 C 4.769531 13.050781 4.785156 13.035156 4.800781 13.019531 C 5 12.824219 5.121094 12.703125 5.394531 12.703125 L 5.40625 12.703125 C 5.660156 12.703125 5.753906 12.804688 5.945312 13.007812 C 6.167969 13.25 6.476562 13.578125 7.113281 13.578125 C 7.757812 13.578125 8.074219 13.25 8.308594 13.007812 C 8.3125 13.007812 8.3125 13.003906 8.316406 13 L 8.320312 13.003906 C 8.347656 12.980469 8.371094 12.953125 8.398438 12.929688 C 8.4375 12.886719 8.472656 12.851562 8.507812 12.820312 C 8.605469 12.742188 8.707031 12.703125 8.867188 12.703125 C 8.867188 12.703125 8.871094 12.703125 8.875 12.703125 C 9.070312 12.703125 9.183594 12.796875 9.414062 13.023438 C 9.503906 13.109375 9.621094 13.222656 9.769531 13.300781 C 9.953125 13.433594 10.203125 13.519531 10.539062 13.53125 C 10.660156 13.542969 10.753906 13.535156 10.824219 13.523438 L 10.824219 13.519531 C 11.15625 13.480469 11.386719 13.34375 11.566406 13.191406 C 11.578125 13.183594 11.589844 13.171875 11.601562 13.160156 C 11.640625 13.125 11.679688 13.089844 11.714844 13.054688 C 11.730469 13.042969 11.742188 13.027344 11.757812 13.011719 C 11.960938 12.816406 12.078125 12.695312 12.351562 12.695312 L 12.363281 12.695312 C 12.617188 12.695312 12.714844 12.796875 12.902344 13 C 13.125 13.242188 13.433594 13.570312 14.070312 13.570312 C 14.714844 13.570312 15.03125 13.242188 15.265625 13 C 15.457031 12.804688 15.5625 12.695312 15.824219 12.695312 C 15.824219 12.695312 15.828125 12.695312 15.832031 12.695312 C 16.027344 12.695312 16.140625 12.789062 16.371094 13.015625 C 16.53125 13.167969 16.722656 13.359375 17 13.472656 L 17 13.085938 C 16.855469 13 16.734375 12.882812 16.625 12.773438 Z M 16.625 12.773438 "/>
<path style=" stroke:none;fill-rule:nonzero;fill:rgb(30%,30%,30%);fill-opacity:1;" d="M 16.625 13.984375 C 16.40625 13.769531 16.199219 13.566406 15.835938 13.5625 C 15.832031 13.5625 15.828125 13.5625 15.824219 13.5625 C 15.632812 13.5625 15.476562 13.601562 15.335938 13.691406 C 15.210938 13.765625 15.113281 13.867188 15.007812 13.976562 C 14.898438 14.089844 14.789062 14.203125 14.640625 14.292969 C 14.476562 14.390625 14.289062 14.441406 14.070312 14.441406 C 13.855469 14.441406 13.675781 14.390625 13.515625 14.292969 C 13.375 14.207031 13.269531 14.09375 13.164062 13.980469 L 13.171875 13.972656 L 13.152344 13.957031 C 12.917969 13.726562 12.714844 13.527344 12.375 13.523438 C 12.371094 13.523438 12.367188 13.523438 12.363281 13.523438 C 12.171875 13.523438 12.015625 13.566406 11.875 13.652344 C 11.75 13.730469 11.652344 13.832031 11.546875 13.941406 C 11.519531 13.96875 11.492188 13.996094 11.464844 14.027344 C 11.429688 14.054688 11.398438 14.085938 11.367188 14.117188 C 11.308594 14.167969 11.246094 14.214844 11.179688 14.253906 C 11.011719 14.355469 10.828125 14.402344 10.609375 14.402344 C 10.59375 14.402344 10.578125 14.402344 10.566406 14.402344 C 10.378906 14.378906 10.160156 14.300781 9.976562 14.203125 C 9.875 14.125 9.789062 14.03125 9.703125 13.941406 C 9.503906 13.726562 9.3125 13.523438 8.902344 13.523438 L 8.886719 13.523438 C 8.601562 13.527344 8.425781 13.636719 8.277344 13.769531 C 8.195312 13.835938 8.125 13.90625 8.050781 13.984375 C 7.941406 14.097656 7.832031 14.210938 7.683594 14.300781 C 7.515625 14.398438 7.332031 14.445312 7.113281 14.445312 C 6.898438 14.445312 6.71875 14.398438 6.558594 14.300781 C 6.417969 14.214844 6.3125 14.101562 6.207031 13.988281 L 6.214844 13.980469 L 6.195312 13.964844 C 5.960938 13.734375 5.757812 13.535156 5.417969 13.53125 C 5.414062 13.53125 5.410156 13.53125 5.40625 13.53125 C 5.214844 13.53125 5.058594 13.574219 4.917969 13.660156 C 4.792969 13.738281 4.695312 13.839844 4.589844 13.949219 C 4.5625 13.976562 4.535156 14.003906 4.503906 14.035156 C 4.472656 14.0625 4.441406 14.09375 4.410156 14.125 C 4.351562 14.175781 4.289062 14.222656 4.222656 14.261719 C 4.054688 14.363281 3.871094 14.410156 3.652344 14.410156 C 3.4375 14.410156 3.257812 14.363281 3.097656 14.265625 C 2.957031 14.175781 2.851562 14.0625 2.746094 13.949219 C 2.585938 13.777344 2.433594 13.613281 2.167969 13.554688 C 2.089844 13.53125 2.011719 13.519531 1.933594 13.519531 C 1.929688 13.519531 1.925781 13.519531 1.917969 13.519531 C 1.734375 13.519531 1.582031 13.558594 1.445312 13.644531 C 1.371094 13.691406 1.308594 13.742188 1.246094 13.804688 C 1.191406 13.851562 1.140625 13.902344 1.089844 13.953125 L 1.085938 13.953125 C 1.03125 14.007812 0.972656 14.066406 0.914062 14.117188 L 0.917969 14.125 C 0.871094 14.164062 0.820312 14.199219 0.765625 14.230469 C 0.605469 14.328125 0.421875 14.375 0.210938 14.375 C 0.140625 14.375 0.0703125 14.371094 0 14.355469 L 0 14.695312 C 0.0703125 14.703125 0.140625 14.710938 0.210938 14.707031 C 0.652344 14.707031 0.9375 14.550781 1.148438 14.375 C 1.167969 14.355469 1.183594 14.339844 1.203125 14.324219 C 1.214844 14.3125 1.230469 14.300781 1.242188 14.289062 C 1.273438 14.257812 1.308594 14.226562 1.339844 14.195312 L 1.339844 14.191406 C 1.539062 13.996094 1.660156 13.878906 1.933594 13.875 L 1.945312 13.875 C 2.015625 13.875 2.074219 13.882812 2.128906 13.898438 C 2.222656 13.945312 2.320312 14.03125 2.457031 14.164062 C 2.503906 14.214844 2.558594 14.265625 2.613281 14.316406 C 2.828125 14.53125 3.128906 14.753906 3.652344 14.753906 C 4.101562 14.753906 4.394531 14.589844 4.609375 14.410156 C 4.621094 14.402344 4.632812 14.390625 4.644531 14.378906 C 4.683594 14.34375 4.722656 14.308594 4.757812 14.273438 C 4.769531 14.261719 4.785156 14.246094 4.800781 14.230469 C 5 14.035156 5.121094 13.914062 5.394531 13.910156 L 5.40625 13.910156 C 5.660156 13.910156 5.753906 14.015625 5.945312 14.21875 C 6.167969 14.460938 6.476562 14.789062 7.113281 14.789062 C 7.757812 14.789062 8.074219 14.460938 8.308594 14.21875 C 8.3125 14.21875 8.3125 14.214844 8.316406 14.210938 L 8.320312 14.214844 C 8.347656 14.1875 8.371094 14.164062 8.398438 14.140625 C 8.4375 14.097656 8.472656 14.0625 8.507812 14.03125 C 8.605469 13.953125 8.707031 13.910156 8.867188 13.910156 C 8.867188 13.910156 8.871094 13.910156 8.875 13.910156 C 9.070312 13.914062 9.183594 14.007812 9.414062 14.230469 C 9.503906 14.316406 9.621094 14.429688 9.769531 14.511719 C 9.953125 14.644531 10.203125 14.730469 10.539062 14.742188 C 10.660156 14.753906 10.753906 14.746094 10.824219 14.734375 L 10.824219 14.730469 C 11.15625 14.691406 11.386719 14.550781 11.566406 14.402344 C 11.578125 14.394531 11.589844 14.382812 11.601562 14.371094 C 11.640625 14.335938 11.679688 14.300781 11.714844 14.265625 C 11.730469 14.253906 11.742188 14.238281 11.757812 14.222656 C 11.960938 14.027344 12.078125 13.90625 12.351562 13.90625 L 12.363281 13.902344 C 12.617188 13.90625 12.714844 14.007812 12.902344 14.210938 C 13.125 14.453125 13.433594 14.78125 14.070312 14.78125 C 14.714844 14.78125 15.03125 14.453125 15.265625 14.210938 C 15.457031 14.011719 15.5625 13.902344 15.824219 13.902344 C 15.824219 13.902344 15.828125 13.902344 15.832031 13.902344 L 15.832031 13.90625 C 16.027344 13.90625 16.140625 14 16.371094 14.222656 C 16.53125 14.378906 16.722656 14.570312 17 14.683594 L 17 14.296875 C 16.855469 14.210938 16.734375 14.09375 16.625 13.984375 Z M 16.625 13.984375 "/>
<path style=" stroke:none;fill-rule:nonzero;fill:rgb(30%,30%,30%);fill-opacity:1;" d="M 16.625 15.195312 C 16.40625 14.980469 16.199219 14.777344 15.835938 14.773438 C 15.832031 14.773438 15.828125 14.773438 15.824219 14.773438 C 15.632812 14.773438 15.476562 14.8125 15.335938 14.902344 C 15.210938 14.976562 15.113281 15.078125 15.007812 15.1875 C 14.898438 15.300781 14.789062 15.414062 14.640625 15.503906 C 14.476562 15.601562 14.289062 15.648438 14.070312 15.648438 C 13.855469 15.648438 13.675781 15.601562 13.515625 15.503906 C 13.375 15.417969 13.269531 15.300781 13.164062 15.191406 L 13.171875 15.183594 L 13.152344 15.167969 C 12.917969 14.9375 12.714844 14.738281 12.375 14.734375 C 12.371094 14.734375 12.367188 14.734375 12.363281 14.734375 C 12.171875 14.734375 12.015625 14.773438 11.875 14.863281 C 11.75 14.9375 11.652344 15.042969 11.546875 15.148438 C 11.519531 15.179688 11.492188 15.207031 11.464844 15.234375 C 11.429688 15.265625 11.398438 15.296875 11.367188 15.328125 C 11.308594 15.378906 11.246094 15.425781 11.179688 15.464844 C 11.011719 15.5625 10.828125 15.613281 10.609375 15.613281 C 10.59375 15.613281 10.578125 15.613281 10.566406 15.613281 C 10.378906 15.589844 10.160156 15.511719 9.976562 15.414062 C 9.875 15.335938 9.789062 15.242188 9.703125 15.152344 C 9.503906 14.9375 9.3125 14.734375 8.902344 14.734375 L 8.886719 14.734375 C 8.601562 14.738281 8.425781 14.847656 8.277344 14.980469 C 8.195312 15.042969 8.125 15.117188 8.050781 15.195312 C 7.941406 15.308594 7.832031 15.421875 7.683594 15.511719 C 7.515625 15.609375 7.332031 15.65625 7.113281 15.65625 C 6.898438 15.65625 6.71875 15.609375 6.558594 15.511719 C 6.417969 15.425781 6.3125 15.308594 6.207031 15.199219 L 6.214844 15.191406 L 6.195312 15.171875 C 5.960938 14.945312 5.757812 14.746094 5.417969 14.742188 C 5.414062 14.742188 5.410156 14.742188 5.40625 14.742188 C 5.214844 14.742188 5.058594 14.78125 4.917969 14.871094 C 4.792969 14.945312 4.695312 15.050781 4.589844 15.15625 C 4.5625 15.1875 4.535156 15.214844 4.503906 15.242188 C 4.472656 15.273438 4.441406 15.304688 4.410156 15.335938 C 4.351562 15.386719 4.289062 15.433594 4.222656 15.472656 C 4.054688 15.570312 3.871094 15.621094 3.652344 15.621094 C 3.4375 15.621094 3.257812 15.574219 3.097656 15.476562 C 2.957031 15.386719 2.851562 15.273438 2.746094 15.160156 C 2.585938 14.988281 2.433594 14.824219 2.167969 14.765625 C 2.089844 14.742188 2.011719 14.730469 1.933594 14.730469 C 1.929688 14.730469 1.925781 14.730469 1.917969 14.730469 C 1.734375 14.730469 1.582031 14.769531 1.445312 14.855469 C 1.371094 14.898438 1.308594 14.953125 1.246094 15.011719 C 1.191406 15.0625 1.140625 15.109375 1.089844 15.160156 L 1.085938 15.164062 C 1.03125 15.21875 0.972656 15.273438 0.914062 15.328125 L 0.917969 15.332031 C 0.871094 15.375 0.820312 15.410156 0.765625 15.441406 C 0.605469 15.539062 0.421875 15.585938 0.210938 15.585938 C 0.140625 15.585938 0.0703125 15.578125 0 15.566406 L 0 15.90625 C 0.0703125 15.914062 0.140625 15.917969 0.210938 15.917969 C 0.652344 15.917969 0.9375 15.757812 1.148438 15.582031 C 1.167969 15.566406 1.183594 15.550781 1.203125 15.535156 C 1.214844 15.523438 1.230469 15.511719 1.242188 15.5 C 1.273438 15.46875 1.308594 15.433594 1.339844 15.402344 C 1.539062 15.207031 1.660156 15.085938 1.933594 15.085938 L 1.945312 15.085938 C 2.015625 15.085938 2.074219 15.09375 2.128906 15.109375 C 2.222656 15.15625 2.320312 15.242188 2.457031 15.375 C 2.503906 15.421875 2.558594 15.476562 2.613281 15.527344 C 2.828125 15.738281 3.128906 15.960938 3.652344 15.960938 C 4.101562 15.960938 4.394531 15.800781 4.609375 15.621094 C 4.621094 15.609375 4.632812 15.601562 4.644531 15.589844 C 4.683594 15.554688 4.722656 15.519531 4.757812 15.484375 C 4.769531 15.46875 4.785156 15.457031 4.800781 15.441406 C 5 15.242188 5.121094 15.125 5.394531 15.121094 L 5.40625 15.121094 C 5.660156 15.121094 5.753906 15.222656 5.945312 15.429688 C 6.167969 15.667969 6.476562 16 7.113281 16 C 7.757812 16 8.074219 15.671875 8.308594 15.429688 C 8.3125 15.425781 8.3125 15.425781 8.316406 15.421875 L 8.320312 15.425781 C 8.347656 15.398438 8.371094 15.375 8.398438 15.347656 C 8.4375 15.308594 8.472656 15.273438 8.507812 15.242188 C 8.605469 15.164062 8.707031 15.121094 8.867188 15.121094 C 8.867188 15.121094 8.871094 15.121094 8.875 15.121094 C 9.070312 15.125 9.183594 15.214844 9.414062 15.441406 C 9.503906 15.527344 9.621094 15.640625 9.769531 15.722656 C 9.953125 15.855469 10.203125 15.941406 10.539062 15.953125 C 10.660156 15.964844 10.753906 15.957031 10.824219 15.945312 L 10.824219 15.941406 C 11.15625 15.898438 11.386719 15.761719 11.566406 15.613281 C 11.578125 15.601562 11.589844 15.59375 11.601562 15.582031 C 11.640625 15.546875 11.679688 15.511719 11.714844 15.476562 C 11.730469 15.460938 11.742188 15.449219 11.757812 15.433594 C 11.960938 15.234375 12.078125 15.117188 12.351562 15.113281 L 12.363281 15.113281 C 12.617188 15.113281 12.714844 15.21875 12.902344 15.421875 C 13.125 15.660156 13.433594 15.992188 14.070312 15.992188 C 14.714844 15.992188 15.03125 15.664062 15.265625 15.421875 C 15.457031 15.222656 15.5625 15.113281 15.824219 15.113281 C 15.824219 15.113281 15.828125 15.113281 15.832031 15.113281 C 16.027344 15.117188 16.140625 15.207031 16.371094 15.433594 C 16.53125 15.589844 16.722656 15.78125 17 15.894531 L 17 15.507812 C 16.855469 15.417969 16.734375 15.304688 16.625 15.195312 Z M 16.625 15.195312 "/>
<path style=" stroke:none;fill-rule:nonzero;fill:rgb(30%,30%,30%);fill-opacity:1;" d="M 8.203125 11.558594 C 8.203125 12.246094 7.730469 12.800781 7.148438 12.800781 C 6.5625 12.800781 6.089844 12.246094 6.089844 11.558594 C 6.089844 10.875 6.5625 10.316406 7.148438 10.316406 C 7.730469 10.316406 8.203125 10.875 8.203125 11.558594 Z M 8.203125 11.558594 "/>
<path style=" stroke:none;fill-rule:nonzero;fill:rgb(30%,30%,30%);fill-opacity:1;" d="M 14.257812 7.203125 C 14.96875 7.871094 13.738281 8.300781 13.738281 8.300781 C 13.738281 8.300781 15.667969 8.085938 15.609375 6.878906 C 15.566406 5.949219 15.011719 5.0625 12.273438 4.261719 L 12.238281 6.292969 C 12.871094 6.386719 13.761719 6.738281 14.257812 7.203125 Z M 14.257812 7.203125 "/>
<path style=" stroke:none;fill-rule:nonzero;fill:rgb(30%,30%,30%);fill-opacity:1;" d="M 16.84375 2.066406 L 16.808594 0 C 16.808594 0 13.558594 0 10.257812 0.078125 C 9.945312 0.0976562 9.636719 0.121094 9.328125 0.144531 C 8.902344 0.179688 8.480469 0.222656 8.070312 0.273438 C 7.945312 0.289062 7.824219 0.304688 7.703125 0.324219 C 5.882812 0.578125 4.371094 1.023438 3.890625 1.777344 C 3.1875 2.875 4.351562 4.152344 4.351562 4.152344 C 4.4375 2.664062 6.746094 2.5 9.242188 2.210938 C 11.175781 2.042969 16.84375 2.066406 16.84375 2.066406 Z M 16.84375 2.066406 "/>
<path style=" stroke:none;fill-rule:nonzero;fill:rgb(30%,30%,30%);fill-opacity:1;" d="M 10.660156 2.542969 L 10.625 3.863281 C 7.96875 3.375 7.628906 2.929688 7.601562 2.929688 C 5.171875 3.089844 4.761719 4.484375 4.761719 4.484375 C 6.042969 5.109375 8.925781 5.734375 10.660156 6.078125 L 10.664062 9.269531 L 7.304688 10 C 7.304688 10 7.308594 10.003906 7.320312 10.003906 C 7.371094 10 7.425781 10 7.480469 10 C 8.042969 10.035156 8.796875 10.722656 8.628906 11.6875 C 8.582031 11.972656 8.417969 12.488281 8.1875 12.644531 C 8.675781 12.546875 9.484375 12.359375 10.769531 12.121094 C 11.175781 12.046875 11.609375 11.953125 11.96875 11.882812 C 12.570312 11.765625 13.089844 11.65625 13.46875 11.566406 C 15.390625 11.101562 16.753906 10.085938 16.910156 8.417969 C 17.1875 7.019531 15.234375 5.6875 15.234375 5.6875 C 15.5625 5.980469 16.800781 7.484375 14.746094 8.304688 C 14.1875 8.527344 13.371094 8.875 12.363281 9.054688 L 12.3125 2.578125 C 11.53125 2.429688 10.839844 2.53125 10.660156 2.542969 Z M 10.660156 2.542969 "/>
</g>
</g>
</svg>
