<?xml version="1.0" encoding="UTF-8"?>
<svg xmlns="http://www.w3.org/2000/svg" xmlns:xlink="http://www.w3.org/1999/xlink" width="11px" height="11px" viewBox="0 0 11 11" version="1.1">
<g id="surface1">
<path style=" stroke:none;fill-rule:nonzero;fill:rgb(30%,30%,30%);fill-opacity:1;" d="M 2.464844 2.480469 C 2.554688 2.6875 2.59375 2.910156 2.59375 3.132812 C 2.597656 3.847656 2.59375 4.558594 2.597656 5.269531 C 2.597656 5.597656 2.640625 5.921875 2.75 6.230469 C 3 6.921875 3.457031 7.417969 4.152344 7.675781 C 4.3125 7.734375 4.484375 7.765625 4.660156 7.769531 C 4.632812 7.699219 4.605469 7.632812 4.582031 7.566406 C 4.355469 6.90625 4.265625 6.226562 4.253906 5.535156 C 4.246094 4.777344 4.25 4.019531 4.25 3.261719 C 4.25 3.179688 4.246094 3.09375 4.234375 3.011719 C 4.195312 2.726562 4.066406 2.484375 3.882812 2.269531 C 3.75 2.113281 3.597656 1.976562 3.464844 1.820312 C 3.453125 1.808594 3.4375 1.796875 3.4375 1.777344 C 3.507812 1.777344 3.574219 1.773438 3.640625 1.777344 C 3.824219 1.785156 4.003906 1.808594 4.183594 1.855469 C 4.554688 1.960938 4.835938 2.175781 4.972656 2.550781 C 5.054688 2.773438 5.078125 3.003906 5.078125 3.238281 C 5.078125 3.910156 5.078125 4.582031 5.078125 5.257812 C 5.078125 5.390625 5.085938 5.523438 5.101562 5.65625 C 5.160156 6.136719 5.320312 6.570312 5.625 6.945312 C 5.941406 7.339844 6.335938 7.609375 6.828125 7.730469 C 6.929688 7.753906 7.03125 7.765625 7.132812 7.765625 C 7.140625 7.75 7.132812 7.742188 7.128906 7.734375 C 7.027344 7.488281 6.957031 7.234375 6.898438 6.976562 C 6.824219 6.640625 6.78125 6.304688 6.757812 5.964844 C 6.738281 5.714844 6.726562 5.46875 6.734375 5.21875 C 6.746094 4.875 6.761719 4.527344 6.777344 4.1875 C 6.785156 3.945312 6.800781 3.707031 6.804688 3.46875 C 6.8125 3.292969 6.828125 3.117188 6.796875 2.945312 C 6.746094 2.703125 6.621094 2.503906 6.457031 2.324219 C 6.3125 2.164062 6.144531 2.027344 5.996094 1.871094 C 5.96875 1.84375 5.945312 1.8125 5.914062 1.78125 C 5.925781 1.777344 5.929688 1.773438 5.929688 1.773438 C 6.160156 1.777344 6.394531 1.789062 6.621094 1.847656 C 6.917969 1.921875 7.171875 2.0625 7.34375 2.328125 C 7.5 2.570312 7.554688 2.84375 7.554688 3.125 C 7.5625 3.816406 7.558594 4.507812 7.558594 5.195312 C 7.558594 5.335938 7.566406 5.476562 7.578125 5.617188 C 7.621094 6.042969 7.753906 6.4375 7.992188 6.789062 C 8.3125 7.261719 8.742188 7.589844 9.304688 7.730469 C 9.410156 7.753906 9.515625 7.765625 9.625 7.769531 C 9.589844 7.675781 9.554688 7.59375 9.523438 7.503906 C 9.320312 6.882812 9.230469 6.242188 9.222656 5.589844 C 9.210938 4.828125 9.21875 4.070312 9.214844 3.308594 C 9.214844 3.136719 9.207031 2.964844 9.1875 2.792969 C 9.121094 2.28125 8.941406 1.820312 8.621094 1.414062 C 8.3125 1.019531 7.921875 0.730469 7.472656 0.519531 C 6.929688 0.261719 6.359375 0.117188 5.753906 0.117188 C 3.972656 0.121094 2.195312 0.117188 0.417969 0.117188 C 0.316406 0.117188 0.214844 0.117188 0.117188 0.117188 C 0.117188 0.667969 0.117188 1.21875 0.117188 1.769531 C 0.375 1.769531 0.636719 1.769531 0.898438 1.773438 C 1.152344 1.777344 1.40625 1.785156 1.652344 1.847656 C 2.015625 1.9375 2.304688 2.128906 2.464844 2.480469 Z M 2.464844 2.480469 "/>
<path style=" stroke:none;fill-rule:nonzero;fill:rgb(30%,30%,30%);fill-opacity:1;" d="M 10.65625 9.167969 C 10.429688 9.082031 10.226562 8.960938 10.015625 8.847656 C 9.761719 8.707031 9.507812 8.566406 9.238281 8.460938 C 9.007812 8.371094 8.78125 8.367188 8.550781 8.472656 C 8.410156 8.535156 8.273438 8.605469 8.136719 8.679688 C 7.863281 8.828125 7.59375 8.984375 7.308594 9.113281 C 7.039062 9.238281 6.777344 9.242188 6.507812 9.105469 C 6.324219 9.011719 6.144531 8.921875 5.96875 8.824219 C 5.722656 8.691406 5.480469 8.558594 5.21875 8.457031 C 5.015625 8.378906 4.820312 8.375 4.617188 8.453125 C 4.382812 8.542969 4.164062 8.664062 3.941406 8.78125 C 3.699219 8.910156 3.457031 9.046875 3.203125 9.15625 C 3.015625 9.234375 2.832031 9.230469 2.644531 9.152344 C 2.375 9.042969 2.128906 8.898438 1.875 8.757812 C 1.644531 8.632812 1.417969 8.503906 1.160156 8.429688 C 1.089844 8.40625 1.019531 8.386719 0.945312 8.398438 C 0.945312 8.949219 0.945312 9.496094 0.945312 10.046875 C 1 10.046875 1.046875 10.054688 1.09375 10.066406 C 1.308594 10.121094 1.5 10.226562 1.691406 10.332031 C 2.070312 10.53125 2.425781 10.777344 2.851562 10.875 C 2.886719 10.875 2.917969 10.875 2.953125 10.875 C 3.203125 10.84375 3.417969 10.722656 3.632812 10.609375 C 3.921875 10.457031 4.203125 10.285156 4.503906 10.15625 C 4.574219 10.125 4.644531 10.101562 4.714844 10.078125 C 4.863281 10.03125 5.007812 10.042969 5.152344 10.09375 C 5.40625 10.179688 5.632812 10.308594 5.863281 10.433594 C 6.113281 10.566406 6.355469 10.710938 6.621094 10.8125 C 6.6875 10.839844 6.761719 10.851562 6.832031 10.875 C 6.886719 10.875 6.945312 10.875 7 10.875 C 7.019531 10.847656 7.054688 10.851562 7.082031 10.84375 C 7.320312 10.777344 7.535156 10.65625 7.753906 10.539062 C 8.015625 10.402344 8.265625 10.25 8.539062 10.136719 C 8.582031 10.117188 8.628906 10.101562 8.671875 10.085938 C 8.8125 10.035156 8.953125 10.039062 9.097656 10.089844 C 9.359375 10.179688 9.597656 10.316406 9.835938 10.449219 C 10.078125 10.578125 10.316406 10.714844 10.574219 10.8125 C 10.660156 10.84375 10.746094 10.863281 10.832031 10.875 C 10.84375 10.875 10.855469 10.875 10.867188 10.875 C 10.867188 10.324219 10.867188 9.777344 10.867188 9.226562 C 10.792969 9.207031 10.722656 9.195312 10.65625 9.167969 Z M 10.65625 9.167969 "/>
</g>
</svg>
