<?xml version="1.0" encoding="UTF-8"?>
<svg xmlns="http://www.w3.org/2000/svg" xmlns:xlink="http://www.w3.org/1999/xlink" width="10px" height="8px" viewBox="0 0 10 8" version="1.1">
<g id="surface1">
<path style="fill-rule:nonzero;fill:rgb(30%,30%,30%);fill-opacity:1;stroke-width:0.32968;stroke-linecap:butt;stroke-linejoin:miter;stroke:rgb(0.392157%,0.392157%,0.392157%);stroke-opacity:1;stroke-miterlimit:10;" d="M 226.522252 322.799319 C 304.561323 311.607799 393.804023 373.907258 393.804023 373.907258 L 121.826271 499.998378 C 123.757931 499.998378 125.689591 499.998378 128.007583 499.998378 C 182.4804 500.744479 213.000631 532.826835 240.043873 561.178684 C 265.155456 587.29223 284.858389 607.810016 321.173601 607.063915 C 353.625492 605.944763 375.646418 594.380192 389.554371 582.069521 L 415.438617 551.106317 C 439.777535 526.858025 470.684098 500.744479 524.770583 499.998378 C 587.356373 499.252276 617.876604 533.945987 641.82919 561.924786 C 663.850116 586.919179 681.235057 607.063915 721.799921 607.063915 C 763.910113 607.063915 782.454051 586.546129 805.633973 560.805634 C 830.745555 533.572936 861.652118 498.879226 923.851575 499.998378 C 944.713505 499.998378 965.575435 505.594138 983.733041 516.039556 C 983.733041 515.293454 984.119373 514.547353 984.119373 513.801252 C 986.823697 495.894821 960.553119 445.532983 910.329954 465.677718 C 874.401075 479.853643 807.565633 540.287848 675.826409 507.08634 C 570.744095 480.599744 552.200158 374.280309 470.684098 300.78933 C 376.805414 216.852934 260.133139 201.557857 145.006193 234.759365 C 31.810906 267.587822 -2.958977 315.711356 30.65191 356.746928 C 75.080094 410.839272 105.600325 339.586598 226.522252 322.799319 Z M 226.522252 322.799319 " transform="matrix(0.0101111,0,0,0.0104711,-0.0403939,-2.282407)"/>
<path style=" stroke:none;fill-rule:nonzero;fill:rgb(30%,30%,30%);fill-opacity:1;" d="M 9.289062 3.703125 C 8.660156 3.691406 8.347656 4.050781 8.09375 4.339844 C 7.859375 4.605469 7.671875 4.820312 7.246094 4.820312 C 6.835938 4.820312 6.660156 4.609375 6.4375 4.347656 C 6.195312 4.054688 5.890625 3.695312 5.253906 3.703125 C 4.707031 3.707031 4.394531 3.980469 4.148438 4.238281 L 3.886719 4.558594 C 3.746094 4.691406 3.523438 4.8125 3.195312 4.820312 C 2.828125 4.828125 2.628906 4.613281 2.378906 4.339844 C 2.101562 4.042969 1.792969 3.707031 1.242188 3.703125 C 0.613281 3.691406 0.296875 4.050781 0.046875 4.339844 C 0.03125 4.355469 0.015625 4.371094 0 4.390625 L 0 5.113281 C 0.175781 4.988281 0.308594 4.835938 0.429688 4.699219 C 0.667969 4.429688 0.835938 4.230469 1.234375 4.238281 C 1.550781 4.242188 1.734375 4.421875 2.003906 4.710938 C 2.269531 5 2.597656 5.355469 3.171875 5.355469 C 3.183594 5.355469 3.195312 5.355469 3.207031 5.355469 C 3.964844 5.335938 4.34375 4.898438 4.507812 4.625 C 4.714844 4.40625 4.902344 4.242188 5.257812 4.238281 C 5.261719 4.238281 5.265625 4.238281 5.273438 4.238281 C 5.660156 4.238281 5.824219 4.433594 6.046875 4.699219 C 6.292969 4.992188 6.601562 5.355469 7.246094 5.355469 C 7.902344 5.355469 8.222656 4.992188 8.476562 4.699219 C 8.714844 4.429688 8.886719 4.230469 9.285156 4.238281 C 9.582031 4.242188 9.757812 4.398438 10 4.65625 L 10 3.9375 C 9.8125 3.800781 9.585938 3.703125 9.289062 3.703125 Z M 9.289062 3.703125 "/>
<path style=" stroke:none;fill-rule:nonzero;fill:rgb(30%,30%,30%);fill-opacity:1;" d="M 7.792969 1.195312 C 7.792969 1.792969 7.324219 2.28125 6.746094 2.28125 C 6.167969 2.28125 5.695312 1.792969 5.695312 1.195312 C 5.695312 0.59375 6.167969 0.109375 6.746094 0.109375 C 7.324219 0.109375 7.792969 0.59375 7.792969 1.195312 Z M 7.792969 1.195312 "/>
<path style=" stroke:none;fill-rule:nonzero;fill:rgb(30%,30%,30%);fill-opacity:1;" d="M 9.335938 4.980469 C 8.707031 4.96875 8.390625 5.332031 8.140625 5.617188 C 7.902344 5.886719 7.714844 6.097656 7.289062 6.097656 C 6.882812 6.097656 6.707031 5.890625 6.484375 5.625 C 6.238281 5.335938 5.933594 4.972656 5.296875 4.980469 C 4.753906 4.988281 4.4375 5.261719 4.195312 5.515625 L 3.933594 5.839844 C 3.789062 5.96875 3.570312 6.089844 3.238281 6.097656 C 2.871094 6.109375 2.675781 5.894531 2.421875 5.621094 C 2.148438 5.324219 1.835938 4.988281 1.285156 4.980469 C 0.65625 4.96875 0.34375 5.332031 0.0898438 5.617188 C 0.0585938 5.652344 0.03125 5.6875 0 5.71875 L 0 6.421875 C 0.199219 6.292969 0.34375 6.128906 0.472656 5.980469 C 0.710938 5.710938 0.882812 5.511719 1.28125 5.519531 C 1.597656 5.523438 1.777344 5.699219 2.046875 5.992188 C 2.3125 6.28125 2.644531 6.636719 3.21875 6.636719 C 3.230469 6.636719 3.242188 6.636719 3.253906 6.636719 C 4.007812 6.617188 4.386719 6.179688 4.550781 5.90625 C 4.757812 5.6875 4.949219 5.523438 5.304688 5.519531 C 5.308594 5.519531 5.3125 5.519531 5.316406 5.519531 C 5.703125 5.519531 5.867188 5.710938 6.09375 5.980469 C 6.339844 6.273438 6.644531 6.636719 7.289062 6.636719 C 7.945312 6.636719 8.265625 6.273438 8.523438 5.980469 C 8.761719 5.710938 8.929688 5.511719 9.328125 5.519531 C 9.605469 5.523438 9.78125 5.660156 10 5.886719 L 10 5.1875 C 9.800781 5.054688 9.570312 4.980469 9.335938 4.980469 Z M 9.335938 4.980469 "/>
<path style=" stroke:none;fill-rule:nonzero;fill:rgb(30%,30%,30%);fill-opacity:1;" d="M 9.367188 6.339844 C 8.742188 6.332031 8.425781 6.691406 8.171875 6.976562 C 7.9375 7.246094 7.75 7.460938 7.324219 7.460938 C 6.914062 7.460938 6.738281 7.25 6.515625 6.988281 C 6.273438 6.695312 5.96875 6.332031 5.332031 6.339844 C 4.785156 6.347656 4.472656 6.621094 4.226562 6.878906 L 3.96875 7.199219 C 3.824219 7.328125 3.601562 7.453125 3.273438 7.460938 C 2.90625 7.46875 2.707031 7.253906 2.457031 6.980469 C 2.179688 6.683594 1.871094 6.347656 1.320312 6.339844 C 0.691406 6.332031 0.375 6.691406 0.125 6.976562 C 0.0820312 7.027344 0.0390625 7.070312 0 7.117188 L 0 7.804688 C 0.214844 7.671875 0.371094 7.496094 0.507812 7.339844 C 0.746094 7.070312 0.914062 6.871094 1.3125 6.878906 C 1.628906 6.882812 1.8125 7.0625 2.082031 7.351562 C 2.347656 7.640625 2.679688 7.996094 3.25 7.996094 C 3.261719 7.996094 3.273438 7.996094 3.285156 7.996094 C 4.042969 7.976562 4.421875 7.539062 4.585938 7.265625 C 4.792969 7.046875 4.980469 6.882812 5.335938 6.878906 C 5.339844 6.878906 5.347656 6.878906 5.351562 6.878906 C 5.738281 6.878906 5.902344 7.074219 6.125 7.339844 C 6.375 7.632812 6.679688 7.996094 7.324219 7.996094 C 7.980469 7.996094 8.300781 7.632812 8.558594 7.339844 C 8.792969 7.070312 8.964844 6.871094 9.363281 6.878906 C 9.625 6.882812 9.796875 7.003906 10 7.214844 L 10 6.523438 C 9.808594 6.40625 9.589844 6.339844 9.367188 6.339844 Z M 9.367188 6.339844 "/>
</g>
</svg>
