<?xml version="1.0" encoding="UTF-8"?>
<svg xmlns="http://www.w3.org/2000/svg" xmlns:xlink="http://www.w3.org/1999/xlink" width="11px" height="10px" viewBox="0 0 11 10" version="1.1">
<g id="surface1">
<path style=" stroke:none;fill-rule:nonzero;fill:rgb(30%,30%,30%);fill-opacity:1;" d="M 8.394531 4.125 C 8.394531 4.125 7.949219 3.675781 7.800781 3.824219 C 7.609375 4.015625 8.023438 4.957031 8.765625 4.957031 C 9.511719 4.957031 9.742188 4.429688 9.808594 4.203125 C 9.945312 3.757812 9.585938 1.714844 9.585938 1.714844 C 9.585938 1.714844 8.234375 0.308594 9.363281 0.0546875 C 10.582031 -0.21875 10.171875 0.582031 10.09375 1.0625 C 10.089844 1.089844 9.980469 1.4375 10 1.703125 C 10.019531 1.988281 10.339844 3.453125 10.257812 4.203125 C 10.148438 5.207031 9.347656 5.488281 8.765625 5.484375 C 8.394531 5.480469 7.65625 5.285156 7.351562 4.429688 C 6.980469 3.371094 8.097656 2.167969 8.097656 2.167969 C 7.800781 2.84375 8.394531 4.125 8.394531 4.125 Z M 9.71875 1.34375 C 9.71875 1.34375 9.894531 0.730469 9.851562 0.496094 C 9.8125 0.289062 9.347656 0.382812 9.3125 0.496094 C 9.195312 0.839844 9.71875 1.34375 9.71875 1.34375 Z M 9.71875 1.34375 "/>
<path style=" stroke:none;fill-rule:nonzero;fill:rgb(30%,30%,30%);fill-opacity:1;" d="M 9.058594 7.421875 C 9.058594 7.261719 9.1875 7.128906 9.347656 7.128906 C 9.507812 7.128906 9.636719 7.261719 9.636719 7.421875 C 9.636719 7.582031 9.507812 7.714844 9.347656 7.714844 C 9.269531 7.714844 9.199219 7.683594 9.144531 7.628906 C 9.089844 7.574219 9.058594 7.5 9.058594 7.421875 Z M 7.742188 9.839844 C 7.320312 8.585938 7.320312 7.230469 7.742188 5.976562 C 7.320312 5.878906 6.875 5.816406 6.414062 5.816406 C 4.886719 5.816406 3.519531 6.46875 2.609375 7.046875 C 2.421875 7.167969 2.179688 7.167969 1.988281 7.046875 C 1.472656 6.71875 0.808594 6.367188 0.046875 6.125 C 0.0351562 6.121094 0.0195312 6.125 0.0117188 6.136719 C 0.00390625 6.144531 0 6.160156 0.0078125 6.175781 C 0.183594 6.484375 0.34375 6.808594 0.484375 7.136719 C 0.699219 7.628906 0.699219 8.1875 0.484375 8.675781 C 0.34375 9.007812 0.183594 9.328125 0.0078125 9.640625 C 0 9.652344 0.00390625 9.667969 0.0117188 9.679688 C 0.0195312 9.691406 0.0351562 9.695312 0.046875 9.691406 C 0.8125 9.449219 1.480469 9.09375 1.996094 8.765625 C 2.183594 8.648438 2.417969 8.648438 2.601562 8.765625 C 3.511719 9.34375 4.878906 10 6.414062 10 C 6.875 10 7.320312 9.9375 7.742188 9.839844 Z M 10.742188 8.410156 C 10.902344 8.292969 10.996094 8.105469 10.996094 7.90625 C 10.996094 7.707031 10.902344 7.519531 10.742188 7.402344 C 10.152344 6.972656 9.183594 6.375 8.023438 6.050781 C 7.609375 7.253906 7.609375 8.5625 8.023438 9.765625 C 9.183594 9.441406 10.152344 8.84375 10.742188 8.410156 Z M 10.742188 8.410156 "/>
</g>
</svg>
