<?xml version="1.0" encoding="UTF-8"?>
<svg xmlns="http://www.w3.org/2000/svg" xmlns:xlink="http://www.w3.org/1999/xlink" width="10px" height="10px" viewBox="0 0 10 10" version="1.1">
<g id="surface1">
<path style=" stroke:none;fill-rule:nonzero;fill:rgb(30%,30%,30%);fill-opacity:1;" d="M 7.363281 0.152344 L 7.496094 0.230469 C 8.058594 0.566406 8.164062 1.394531 7.707031 1.882812 L 5.453125 4.300781 C 5.421875 4.335938 5.371094 4.34375 5.332031 4.320312 C 5.289062 4.296875 5.269531 4.246094 5.28125 4.199219 L 5.972656 0.835938 C 6.113281 0.160156 6.808594 -0.183594 7.363281 0.152344 Z M 7.363281 0.152344 "/>
<path style=" stroke:none;fill-rule:nonzero;fill:rgb(30%,30%,30%);fill-opacity:1;" d="M 9.996094 4.832031 L 10 4.996094 C 10.011719 5.695312 9.402344 6.203125 8.785156 6.015625 L 5.738281 5.078125 C 5.695312 5.0625 5.664062 5.019531 5.664062 4.96875 C 5.664062 4.921875 5.691406 4.875 5.738281 4.863281 L 8.761719 3.855469 C 9.371094 3.652344 9.988281 4.140625 9.996094 4.832031 Z M 9.996094 4.832031 "/>
<path style=" stroke:none;fill-rule:nonzero;fill:rgb(30%,30%,30%);fill-opacity:1;" d="M 7.796875 9.476562 L 7.667969 9.570312 C 7.140625 9.960938 6.414062 9.683594 6.222656 9.019531 L 5.273438 5.730469 C 5.261719 5.683594 5.277344 5.632812 5.316406 5.605469 C 5.355469 5.578125 5.402344 5.578125 5.4375 5.609375 L 7.871094 7.816406 C 8.359375 8.257812 8.320312 9.089844 7.796875 9.476562 Z M 7.796875 9.476562 "/>
<path style=" stroke:none;fill-rule:nonzero;fill:rgb(30%,30%,30%);fill-opacity:1;" d="M 2.769531 9.890625 L 2.632812 9.820312 C 2.058594 9.511719 1.917969 8.6875 2.355469 8.175781 L 4.511719 5.652344 C 4.542969 5.617188 4.59375 5.609375 4.632812 5.628906 C 4.675781 5.652344 4.695312 5.699219 4.6875 5.75 L 4.128906 9.140625 C 4.019531 9.824219 3.339844 10.199219 2.769531 9.890625 Z M 2.769531 9.890625 "/>
<path style=" stroke:none;fill-rule:nonzero;fill:rgb(30%,30%,30%);fill-opacity:1;" d="M 0 4.972656 L 0 4.808594 C 0.00390625 4.109375 0.621094 3.613281 1.234375 3.816406 L 4.261719 4.816406 C 4.304688 4.832031 4.335938 4.875 4.335938 4.925781 C 4.335938 4.976562 4.304688 5.019531 4.261719 5.03125 L 1.214844 5.976562 C 0.605469 6.164062 0 5.664062 0 4.972656 Z M 0 4.972656 "/>
<path style=" stroke:none;fill-rule:nonzero;fill:rgb(30%,30%,30%);fill-opacity:1;" d="M 2.519531 0.21875 L 2.652344 0.136719 C 3.207031 -0.207031 3.910156 0.132812 4.050781 0.8125 L 4.75 4.175781 C 4.761719 4.222656 4.738281 4.273438 4.699219 4.296875 C 4.660156 4.320312 4.609375 4.3125 4.578125 4.277344 L 2.320312 1.863281 C 1.867188 1.378906 1.964844 0.558594 2.519531 0.21875 Z M 2.519531 0.21875 "/>
</g>
</svg>
