<?xml version="1.0" encoding="UTF-8"?>
<svg xmlns="http://www.w3.org/2000/svg" xmlns:xlink="http://www.w3.org/1999/xlink" width="11px" height="11px" viewBox="0 0 11 11" version="1.1">
<g id="surface1">
<path style=" stroke:none;fill-rule:nonzero;fill:rgb(30%,30%,30%);fill-opacity:1;" d="M 8.328125 5.421875 C 8.28125 5.335938 8.199219 5.191406 8.152344 5.105469 C 8.152344 5.105469 6.890625 2.757812 6.546875 2.597656 C 6.457031 2.558594 7.109375 2.324219 7.324219 1.574219 C 7.476562 1.027344 7.417969 1.058594 7.324219 1.027344 C 7.109375 0.957031 6.75 1.308594 6.75 1.308594 C 6.675781 1.378906 6.535156 1.453125 6.4375 1.476562 C 6.4375 1.476562 5.867188 1.535156 5.808594 1.574219 C 5.75 1.609375 5.628906 1.601562 5.539062 1.550781 L 5.527344 1.546875 C 5.441406 1.496094 5.339844 1.421875 5.3125 1.378906 C 5.28125 1.335938 5.351562 1.160156 5.398438 1.089844 C 5.449219 1.015625 5.515625 0.925781 5.546875 0.886719 C 5.578125 0.847656 5.675781 0.777344 5.765625 0.730469 C 5.765625 0.730469 5.984375 0.613281 5.984375 0.410156 C 5.984375 0.183594 5.777344 0 5.527344 0 C 5.273438 0 5.066406 0.183594 5.066406 0.410156 L 5.066406 0.449219 C 5.078125 0.488281 5.023438 0.574219 4.945312 0.640625 L 4.574219 0.972656 C 4.539062 1.003906 4.488281 1.019531 4.441406 1.015625 C 4.394531 1.011719 4.351562 0.988281 4.320312 0.949219 C 4.320312 0.949219 4.144531 0.71875 3.730469 0.820312 C 3.164062 0.957031 2.8125 1.777344 2.390625 1.984375 C 2.074219 2.136719 0.277344 2.597656 0.0664062 3.078125 C -0.144531 3.554688 0.207031 3.625 0.347656 3.625 C 0.488281 3.625 0.703125 3.925781 0.910156 3.964844 C 1.261719 4.035156 1.546875 3.898438 1.828125 3.898438 C 2.109375 3.898438 2.882812 4.101562 3.519531 4.101562 C 4.226562 4.101562 4.621094 4.070312 4.925781 4.238281 C 5.421875 4.511719 7.132812 10.421875 7.132812 10.421875 C 7.167969 10.539062 7.210938 10.652344 7.265625 10.757812 C 7.265625 10.757812 7.464844 11.144531 9.929688 10.9375 C 10.664062 10.878906 10.964844 10.347656 10.964844 10.347656 C 11.015625 10.257812 11.011719 10.117188 10.953125 10.035156 Z M 3.941406 2.597656 C 3.695312 2.542969 3.472656 2.371094 3.519531 2.1875 C 3.5625 2.003906 3.695312 1.925781 3.941406 1.984375 C 4.1875 2.039062 4.503906 2.1875 4.503906 2.324219 C 4.503906 2.515625 4.1875 2.65625 3.941406 2.597656 Z M 9.464844 8.265625 C 9.515625 8.355469 9.476562 8.453125 9.382812 8.488281 L 9.167969 8.566406 C 9.074219 8.601562 8.925781 8.582031 8.84375 8.523438 L 7.878906 7.847656 C 7.792969 7.789062 7.773438 7.675781 7.828125 7.589844 L 7.902344 7.480469 C 7.960938 7.398438 8.089844 7.34375 8.191406 7.355469 L 8.808594 7.441406 C 8.910156 7.457031 9.035156 7.539062 9.085938 7.625 Z M 8.558594 6.546875 C 8.597656 6.660156 8.628906 6.777344 8.648438 6.894531 L 8.667969 7.015625 C 8.683594 7.113281 8.613281 7.175781 8.511719 7.15625 L 7.890625 7.027344 C 7.789062 7.007812 7.660156 6.921875 7.601562 6.839844 L 7.179688 6.25 C 7.121094 6.167969 7.128906 6.039062 7.195312 5.964844 L 7.445312 5.691406 C 7.511719 5.613281 7.652344 5.5625 7.753906 5.574219 L 8.015625 5.601562 C 8.117188 5.613281 8.230469 5.699219 8.265625 5.792969 Z M 7.867188 5.070312 C 7.917969 5.15625 7.878906 5.222656 7.777344 5.214844 L 7.578125 5.207031 C 7.476562 5.199219 7.347656 5.128906 7.289062 5.046875 L 6.933594 4.527344 C 6.875 4.445312 6.898438 4.332031 6.984375 4.273438 L 7.097656 4.203125 C 7.136719 4.175781 7.1875 4.167969 7.234375 4.175781 C 7.28125 4.1875 7.324219 4.214844 7.351562 4.257812 Z M 6.5 3.214844 C 6.5625 3.140625 6.671875 3.140625 6.734375 3.21875 L 7.066406 3.617188 C 7.128906 3.699219 7.117188 3.8125 7.039062 3.878906 L 6.832031 4.054688 C 6.753906 4.117188 6.644531 4.101562 6.59375 4.015625 L 6.363281 3.644531 C 6.308594 3.558594 6.320312 3.425781 6.386719 3.347656 Z M 6.683594 4.648438 C 6.773438 4.640625 7.167969 5.25 7.183594 5.46875 C 7.1875 5.535156 6.679688 6.023438 6.679688 6.023438 C 6.605469 6.097656 6.496094 6.085938 6.441406 6.003906 L 6.089844 5.511719 C 6.03125 5.429688 6.039062 5.296875 6.105469 5.222656 C 6.105469 5.222656 6.609375 4.65625 6.683594 4.648438 Z M 6.144531 6.792969 C 6.09375 6.703125 6.136719 6.617188 6.238281 6.601562 L 6.6875 6.53125 C 6.789062 6.515625 6.925781 6.566406 6.988281 6.644531 L 7.382812 7.121094 C 7.449219 7.199219 7.445312 7.324219 7.375 7.398438 L 6.953125 7.863281 C 6.886719 7.9375 6.789062 7.929688 6.738281 7.839844 Z M 7.121094 8.566406 C 7.089844 8.53125 7.074219 8.484375 7.078125 8.4375 C 7.082031 8.386719 7.105469 8.34375 7.144531 8.3125 L 7.277344 8.203125 C 7.359375 8.140625 7.488281 8.136719 7.570312 8.199219 L 8.730469 9.097656 C 8.8125 9.160156 8.804688 9.257812 8.71875 9.308594 L 8.261719 9.59375 C 8.167969 9.644531 8.050781 9.628906 7.980469 9.550781 Z M 9.773438 9.960938 C 9.671875 9.933594 9.566406 9.832031 9.539062 9.738281 L 9.332031 8.984375 C 9.285156 8.894531 9.320312 8.785156 9.410156 8.730469 L 9.617188 8.621094 C 9.65625 8.59375 9.707031 8.589844 9.75 8.605469 C 9.796875 8.621094 9.832031 8.652344 9.851562 8.699219 L 10.421875 9.988281 C 10.453125 10.082031 10.402344 10.136719 10.300781 10.109375 Z M 9.773438 9.960938 "/>
</g>
</svg>
