<?xml version="1.0" encoding="UTF-8"?>
<svg xmlns="http://www.w3.org/2000/svg" xmlns:xlink="http://www.w3.org/1999/xlink" width="10px" height="8px" viewBox="0 0 10 8" version="1.1">
<g id="surface1">
<path style=" stroke:none;fill-rule:nonzero;fill:rgb(30%,30%,30%);fill-opacity:1;" d="M 7.792969 1.191406 C 7.792969 1.792969 7.324219 2.277344 6.746094 2.277344 C 6.164062 2.277344 5.695312 1.792969 5.695312 1.191406 C 5.695312 0.589844 6.164062 0.105469 6.746094 0.105469 C 7.324219 0.105469 7.792969 0.589844 7.792969 1.191406 Z M 2.25 1.09375 C 3.039062 0.980469 3.941406 1.628906 3.941406 1.628906 L 1.195312 2.953125 C 1.214844 2.953125 1.234375 2.953125 1.253906 2.953125 C 1.804688 2.957031 2.117188 3.296875 2.390625 3.589844 C 2.640625 3.863281 2.839844 4.082031 3.207031 4.070312 C 3.535156 4.0625 3.757812 3.941406 3.898438 3.8125 L 4.160156 3.488281 C 4.40625 3.230469 4.71875 2.957031 5.265625 2.953125 C 5.898438 2.945312 6.203125 3.308594 6.449219 3.597656 C 6.671875 3.863281 6.847656 4.070312 7.253906 4.070312 C 7.679688 4.070312 7.867188 3.859375 8.105469 3.589844 C 8.355469 3.304688 8.671875 2.941406 9.300781 2.953125 C 9.511719 2.953125 9.71875 3.011719 9.902344 3.121094 C 9.90625 3.113281 9.90625 3.105469 9.90625 3.09375 C 9.9375 2.90625 9.667969 2.382812 9.164062 2.589844 C 8.800781 2.738281 8.125 3.375 6.792969 3.027344 C 5.730469 2.75 5.542969 1.632812 4.71875 0.867188 C 3.769531 -0.0195312 2.59375 -0.175781 1.429688 0.171875 C 0.28125 0.515625 -0.0703125 1.019531 0.273438 1.449219 C 0.722656 2.015625 1.027344 1.273438 2.25 1.09375 Z M 9.289062 3.699219 C 8.660156 3.6875 8.34375 4.050781 8.09375 4.335938 C 7.855469 4.605469 7.671875 4.820312 7.246094 4.820312 C 6.835938 4.820312 6.660156 4.609375 6.4375 4.347656 C 6.195312 4.054688 5.886719 3.691406 5.253906 3.699219 C 4.707031 3.707031 4.394531 3.980469 4.148438 4.238281 L 3.890625 4.558594 C 3.746094 4.691406 3.523438 4.8125 3.195312 4.820312 C 2.828125 4.828125 2.632812 4.613281 2.378906 4.339844 C 2.105469 4.042969 1.792969 3.707031 1.242188 3.699219 C 0.613281 3.6875 0.300781 4.050781 0.046875 4.335938 C 0.03125 4.355469 0.015625 4.371094 0.00390625 4.386719 L 0.00390625 5.113281 C 0.175781 4.988281 0.3125 4.835938 0.429688 4.699219 C 0.667969 4.429688 0.839844 4.230469 1.238281 4.238281 C 1.554688 4.242188 1.734375 4.421875 2.003906 4.710938 C 2.269531 5 2.601562 5.359375 3.171875 5.359375 C 3.183594 5.359375 3.195312 5.359375 3.207031 5.355469 C 3.964844 5.339844 4.34375 4.898438 4.507812 4.625 C 4.714844 4.40625 4.902344 4.242188 5.257812 4.238281 C 5.261719 4.238281 5.265625 4.238281 5.273438 4.238281 C 5.660156 4.238281 5.824219 4.433594 6.046875 4.699219 C 6.292969 4.992188 6.601562 5.355469 7.246094 5.355469 C 7.898438 5.355469 8.21875 4.992188 8.476562 4.699219 C 8.714844 4.429688 8.886719 4.230469 9.28125 4.238281 C 9.578125 4.242188 9.757812 4.398438 9.996094 4.65625 L 9.996094 3.9375 C 9.808594 3.800781 9.582031 3.703125 9.289062 3.699219 Z M 9.332031 4.980469 C 8.707031 4.96875 8.390625 5.332031 8.136719 5.617188 C 7.902344 5.886719 7.714844 6.101562 7.289062 6.101562 C 6.882812 6.101562 6.707031 5.890625 6.484375 5.628906 C 6.238281 5.335938 5.933594 4.972656 5.296875 4.980469 C 4.753906 4.988281 4.4375 5.261719 4.195312 5.519531 L 3.933594 5.839844 C 3.789062 5.972656 3.570312 6.09375 3.242188 6.101562 C 2.871094 6.109375 2.675781 5.894531 2.421875 5.621094 C 2.148438 5.324219 1.839844 4.988281 1.289062 4.980469 C 0.660156 4.96875 0.34375 5.332031 0.09375 5.617188 C 0.0625 5.652344 0.03125 5.6875 0.00390625 5.71875 L 0.00390625 6.421875 C 0.199219 6.296875 0.34375 6.128906 0.476562 5.980469 C 0.714844 5.710938 0.882812 5.511719 1.28125 5.519531 C 1.597656 5.523438 1.78125 5.703125 2.046875 5.992188 C 2.316406 6.28125 2.644531 6.640625 3.21875 6.640625 C 3.230469 6.640625 3.242188 6.640625 3.253906 6.636719 C 4.007812 6.617188 4.386719 6.179688 4.550781 5.90625 C 4.757812 5.6875 4.949219 5.523438 5.304688 5.519531 C 5.308594 5.519531 5.3125 5.519531 5.316406 5.519531 C 5.703125 5.519531 5.867188 5.714844 6.09375 5.980469 C 6.339844 6.273438 6.644531 6.636719 7.289062 6.636719 C 7.945312 6.636719 8.265625 6.273438 8.523438 5.980469 C 8.757812 5.710938 8.929688 5.511719 9.328125 5.519531 C 9.605469 5.523438 9.777344 5.660156 9.996094 5.890625 L 9.996094 5.1875 C 9.800781 5.054688 9.570312 4.980469 9.332031 4.980469 Z M 9.367188 6.34375 C 8.738281 6.332031 8.421875 6.691406 8.171875 6.980469 C 7.933594 7.25 7.75 7.460938 7.324219 7.460938 C 6.914062 7.460938 6.738281 7.253906 6.515625 6.988281 C 6.273438 6.699219 5.96875 6.335938 5.332031 6.34375 C 4.785156 6.347656 4.472656 6.621094 4.226562 6.878906 L 3.96875 7.203125 C 3.824219 7.332031 3.601562 7.453125 3.273438 7.460938 C 2.90625 7.472656 2.710938 7.253906 2.457031 6.980469 C 2.183594 6.683594 1.871094 6.347656 1.320312 6.34375 C 0.691406 6.332031 0.378906 6.691406 0.125 6.980469 C 0.0820312 7.027344 0.0429688 7.074219 0.00390625 7.117188 L 0.00390625 7.804688 C 0.214844 7.675781 0.371094 7.5 0.507812 7.34375 C 0.746094 7.070312 0.917969 6.871094 1.316406 6.878906 C 1.632812 6.882812 1.8125 7.0625 2.082031 7.355469 C 2.347656 7.640625 2.679688 8 3.25 8 C 3.261719 8 3.273438 8 3.285156 8 C 4.042969 7.980469 4.421875 7.542969 4.585938 7.269531 C 4.792969 7.046875 4.980469 6.882812 5.335938 6.878906 C 5.339844 6.878906 5.34375 6.878906 5.351562 6.878906 C 5.738281 6.878906 5.902344 7.074219 6.125 7.34375 C 6.371094 7.636719 6.679688 8 7.324219 8 C 7.976562 8 8.296875 7.636719 8.554688 7.34375 C 8.792969 7.070312 8.964844 6.871094 9.363281 6.878906 C 9.625 6.882812 9.792969 7.007812 9.996094 7.214844 L 9.996094 6.527344 C 9.808594 6.40625 9.589844 6.34375 9.367188 6.34375 Z M 9.367188 6.34375 "/>
</g>
</svg>
