<?xml version="1.0" encoding="UTF-8"?>
<svg xmlns="http://www.w3.org/2000/svg" xmlns:xlink="http://www.w3.org/1999/xlink" width="11px" height="11px" viewBox="0 0 11 11" version="1.1">
<g id="surface1">
<path style=" stroke:none;fill-rule:nonzero;fill:rgb(30%,30%,30%);fill-opacity:1;" d="M 9.734375 6.101562 C 9.78125 5.308594 9.773438 3.082031 9.734375 2.898438 C 9.605469 2.25 9.617188 1.257812 7.816406 0.390625 C 6.757812 -0.121094 5.042969 0.015625 5.042969 0.015625 L 0.0117188 0.0234375 C 0.00390625 0.0351562 0.0234375 1.71875 0.0234375 1.71875 C 0.0234375 1.71875 1.75 1.5625 2.242188 2.066406 C 2.5 2.332031 2.710938 2.472656 2.675781 3.832031 C 2.644531 4.972656 2.550781 6.027344 3.164062 6.898438 C 3.871094 7.90625 4.875 7.851562 4.875 7.851562 C 4.875 7.851562 4.382812 6.890625 4.429688 6.101562 C 4.472656 5.308594 4.496094 3.074219 4.429688 2.898438 C 4.238281 2.421875 3.917969 2.007812 3.503906 1.695312 C 4.023438 1.710938 4.65625 1.792969 4.921875 2.066406 C 5.179688 2.332031 5.390625 2.472656 5.355469 3.832031 C 5.324219 4.972656 5.230469 6.027344 5.84375 6.898438 C 6.550781 7.90625 7.558594 7.851562 7.558594 7.851562 C 7.558594 7.851562 7.0625 6.890625 7.109375 6.101562 C 7.152344 5.308594 7.183594 3.074219 7.136719 2.839844 C 7.089844 2.59375 6.722656 2.101562 6.148438 1.695312 C 6.664062 1.710938 7.285156 1.796875 7.550781 2.066406 C 7.808594 2.332031 8.019531 2.472656 7.984375 3.832031 C 7.953125 4.972656 7.859375 6.027344 8.46875 6.898438 C 9.179688 7.90625 10.183594 7.851562 10.183594 7.851562 C 10.183594 7.851562 9.691406 6.890625 9.734375 6.101562 Z M 9.734375 6.101562 "/>
<path style=" stroke:none;fill-rule:nonzero;fill:rgb(30%,30%,30%);fill-opacity:1;" d="M 10.9375 8.894531 C 10.65625 8.671875 10.300781 8.394531 9.566406 8.402344 C 8.9375 8.40625 8.628906 8.621094 8.347656 8.820312 L 7.988281 9.058594 C 7.820312 9.15625 7.566406 9.25 7.1875 9.257812 C 6.761719 9.265625 6.53125 9.097656 6.238281 8.890625 C 5.921875 8.664062 5.5625 8.40625 4.925781 8.402344 C 4.199219 8.394531 3.835938 8.667969 3.542969 8.886719 C 3.269531 9.09375 3.054688 9.257812 2.558594 9.257812 C 2.089844 9.257812 1.886719 9.097656 1.628906 8.894531 C 1.417969 8.730469 1.167969 8.535156 0.753906 8.449219 L 0.753906 10.210938 C 0.933594 10.273438 1.0625 10.375 1.21875 10.496094 C 1.503906 10.722656 1.859375 11 2.605469 11 C 3.363281 11 3.730469 10.722656 4.03125 10.496094 C 4.304688 10.289062 4.5 10.136719 4.960938 10.144531 C 5.328125 10.148438 5.539062 10.285156 5.851562 10.507812 C 6.15625 10.726562 6.539062 11 7.203125 11 C 7.214844 11 7.230469 11 7.242188 11 C 8.117188 10.984375 8.558594 10.648438 8.746094 10.441406 C 8.988281 10.273438 9.207031 10.148438 9.617188 10.144531 C 9.621094 10.144531 9.625 10.144531 9.632812 10.144531 C 10.078125 10.144531 10.269531 10.292969 10.527344 10.496094 C 10.660156 10.597656 10.804688 10.710938 10.992188 10.804688 L 10.992188 8.9375 C 10.972656 8.921875 10.957031 8.910156 10.9375 8.894531 Z M 10.9375 8.894531 "/>
</g>
</svg>
