<?xml version="1.0" encoding="UTF-8" standalone="no"?>
<!-- Created with Inkscape (http://www.inkscape.org/) -->

<svg
   xmlns:dc="http://purl.org/dc/elements/1.1/"
   xmlns:cc="http://creativecommons.org/ns#"
   xmlns:rdf="http://www.w3.org/1999/02/22-rdf-syntax-ns#"
   xmlns:svg="http://www.w3.org/2000/svg"
   xmlns="http://www.w3.org/2000/svg"
   xmlns:xlink="http://www.w3.org/1999/xlink"
   xmlns:sodipodi="http://sodipodi.sourceforge.net/DTD/sodipodi-0.dtd"
   xmlns:inkscape="http://www.inkscape.org/namespaces/inkscape"
   width="30px"
   height="30px"
   version="1.1"
   id="svg8"
   inkscape:version="0.92.4 5da689c313, 2019-01-14"
   sodipodi:docname="container.svg">
  <defs
     id="defs2" />
  <sodipodi:namedview
     id="base"
     pagecolor="#ffffff"
     bordercolor="#666666"
     borderopacity="1.0"
     inkscape:pageopacity="0.0"
     inkscape:pageshadow="2"
     inkscape:zoom="13.049334"
     inkscape:cx="18.679046"
     inkscape:cy="12.165829"
     inkscape:document-units="px"
     inkscape:current-layer="layer1"
     showgrid="false"
     inkscape:snap-page="false"
     units="px"
     inkscape:window-width="1884"
     inkscape:window-height="1061"
     inkscape:window-x="0"
     inkscape:window-y="0"
     inkscape:window-maximized="1"
     fit-margin-top="0"
     fit-margin-left="0"
     fit-margin-right="0"
     fit-margin-bottom="0" />
  <metadata
     id="metadata5">
    <rdf:RDF>
      <cc:Work
         rdf:about="">
        <dc:format>image/svg+xml</dc:format>
        <dc:type
           rdf:resource="http://purl.org/dc/dcmitype/StillImage" />
        <dc:title></dc:title>
      </cc:Work>
    </rdf:RDF>
  </metadata>
    <circle
       style="color:#000000;clip-rule:nonzero;display:inline;overflow:visible;visibility:visible;opacity:1;isolation:auto;mix-blend-mode:normal;color-interpolation:sRGB;color-interpolation-filters:linearRGB;solid-color:#000000;solid-opacity:1;vector-effect:none;fill:#ffffff;fill-opacity:1;fill-rule:evenodd;stroke:#e50980;stroke-width:1;stroke-linecap:butt;stroke-linejoin:miter;stroke-miterlimit:4;stroke-dasharray:none;stroke-dashoffset:0;stroke-opacity:1;marker:none;color-rendering:auto;image-rendering:auto;shape-rendering:auto;text-rendering:auto;enable-background:accumulate"
       id="path815"
       cx="15"
       cy="15"
       r="14.5" />
<g transform="translate(6,9)"><g id="surface1">
<path style=" stroke:none;fill-rule:nonzero;fill:rgb(30%,30%,30%);fill-opacity:1;" d="M 1.4375 2.683594 L 0.863281 2.289062 C 1.046875 2.011719 1.257812 1.75 1.492188 1.515625 C 2.167969 0.820312 3.027344 0.339844 3.964844 0.125 L 4.121094 0.8125 C 3.308594 0.996094 2.566406 1.414062 1.980469 2.011719 C 1.777344 2.21875 1.597656 2.441406 1.4375 2.683594 Z M 0.691406 5.84375 L 0.691406 5.15625 C 0.691406 4.542969 0.816406 3.933594 1.0625 3.371094 L 0.441406 3.058594 C 0.148438 3.71875 0 4.433594 0 5.15625 L 0 5.84375 C 0 6.527344 0.132812 7.207031 0.394531 7.839844 L 1.023438 7.535156 C 0.804688 7 0.691406 6.425781 0.691406 5.84375 Z M 5.074219 0.703125 L 8.082031 0.703125 L 8.050781 0 L 5.074219 0 C 5.011719 0 4.953125 0.00390625 4.890625 0.00390625 L 4.957031 0.707031 C 4.996094 0.707031 5.035156 0.703125 5.074219 0.703125 Z M 15.019531 8.988281 C 14.390625 9.632812 13.578125 10.0625 12.699219 10.226562 L 12.867188 10.910156 C 13.867188 10.71875 14.789062 10.21875 15.507812 9.484375 C 15.746094 9.246094 15.957031 8.984375 16.144531 8.703125 L 15.550781 8.335938 C 15.394531 8.570312 15.214844 8.789062 15.019531 8.988281 Z M 8.964844 10.296875 L 9.023438 11 L 11.925781 11 C 11.941406 11 11.957031 11 11.972656 11 L 11.898438 10.296875 Z M 11.816406 0.703125 L 11.863281 0 L 9.019531 0 L 8.964844 0.703125 Z M 5.09375 10.296875 L 5.035156 11 C 5.050781 11 5.0625 11 5.074219 11 L 8.050781 11 L 8.082031 10.296875 Z M 1.980469 8.988281 C 1.769531 8.773438 1.582031 8.539062 1.414062 8.285156 L 0.832031 8.667969 C 1.023438 8.960938 1.246094 9.234375 1.492188 9.484375 C 2.207031 10.21875 3.128906 10.714844 4.128906 10.910156 L 4.277344 10.222656 C 3.40625 10.054688 2.605469 9.625 1.980469 8.988281 Z M 16.308594 5.15625 L 16.308594 5.84375 C 16.308594 6.445312 16.1875 7.039062 15.953125 7.589844 L 16.589844 7.875 C 16.859375 7.234375 17 6.542969 17 5.84375 L 17 5.15625 C 17 4.410156 16.839844 3.671875 16.53125 2.996094 L 15.917969 3.328125 C 16.175781 3.902344 16.308594 4.523438 16.308594 5.15625 Z M 15.019531 2.011719 C 15.203125 2.199219 15.375 2.40625 15.523438 2.621094 L 16.085938 2.214844 C 15.914062 1.964844 15.722656 1.730469 15.507812 1.515625 C 14.777344 0.765625 13.835938 0.265625 12.8125 0.0820312 L 12.675781 0.769531 C 13.566406 0.929688 14.382812 1.363281 15.019531 2.011719 Z M 13.6875 7.992188 C 13.300781 8.285156 12.828125 8.503906 12.316406 8.640625 L 12.480469 9.320312 C 13.085938 9.164062 13.644531 8.90625 14.101562 8.558594 C 14.363281 8.363281 14.597656 8.132812 14.796875 7.871094 L 14.199219 7.5 C 14.050781 7.6875 13.878906 7.851562 13.6875 7.992188 Z M 14.839844 5.59375 L 14.839844 5.621094 C 14.839844 6.109375 14.738281 6.558594 14.546875 6.957031 L 15.183594 7.242188 C 15.414062 6.757812 15.53125 6.214844 15.53125 5.621094 L 15.53125 5.59375 C 15.53125 4.910156 15.375 4.296875 15.101562 3.769531 L 14.488281 4.101562 C 14.710938 4.535156 14.839844 5.035156 14.839844 5.59375 Z M 14.171875 3.601562 L 14.738281 3.191406 C 14.179688 2.457031 13.375 1.9375 12.496094 1.671875 L 12.359375 2.367188 C 13.070312 2.59375 13.714844 3.011719 14.171875 3.601562 Z M 3.351562 3.082031 C 3.695312 2.808594 4.078125 2.589844 4.488281 2.441406 L 4.332031 1.75 C 3.820312 1.925781 3.34375 2.191406 2.921875 2.53125 C 2.667969 2.734375 2.4375 2.96875 2.238281 3.230469 L 2.8125 3.625 C 2.972656 3.421875 3.152344 3.242188 3.351562 3.082031 Z M 5.945312 8.789062 C 5.703125 8.789062 5.464844 8.769531 5.226562 8.734375 L 5.167969 9.433594 C 5.425781 9.472656 5.683594 9.492188 5.945312 9.492188 L 8.121094 9.492188 L 8.152344 8.789062 Z M 5.945312 2.175781 L 8.152344 2.175781 L 8.117188 1.46875 L 5.945312 1.46875 C 5.640625 1.472656 5.335938 1.5 5.035156 1.558594 L 5.101562 2.261719 C 5.378906 2.203125 5.660156 2.175781 5.945312 2.175781 Z M 11.136719 2.175781 C 11.328125 2.175781 11.523438 2.1875 11.714844 2.21875 L 11.761719 1.511719 C 11.554688 1.484375 11.34375 1.46875 11.136719 1.46875 L 8.902344 1.46875 L 8.84375 2.175781 Z M 2.144531 5.578125 C 2.144531 4.988281 2.289062 4.5 2.5 4.101562 L 1.882812 3.789062 C 1.597656 4.339844 1.449219 4.953125 1.449219 5.578125 C 1.449219 6.15625 1.566406 6.6875 1.792969 7.167969 L 2.421875 6.863281 C 2.253906 6.511719 2.144531 6.085938 2.144531 5.578125 Z M 11.136719 8.789062 L 8.839844 8.789062 L 8.898438 9.492188 L 11.136719 9.492188 C 11.359375 9.492188 11.582031 9.476562 11.804688 9.449219 L 11.726562 8.75 C 11.53125 8.777344 11.332031 8.789062 11.136719 8.789062 Z M 3.34375 7.972656 C 3.125 7.808594 2.925781 7.617188 2.757812 7.40625 L 2.171875 7.789062 C 2.390625 8.074219 2.644531 8.324219 2.933594 8.539062 C 3.375 8.871094 3.90625 9.125 4.480469 9.289062 L 4.625 8.597656 C 4.152344 8.460938 3.710938 8.246094 3.34375 7.972656 Z M 4.210938 6.929688 C 4.097656 6.855469 3.992188 6.761719 3.902344 6.652344 L 3.320312 7.035156 C 3.460938 7.222656 3.632812 7.386719 3.824219 7.515625 C 4.082031 7.691406 4.394531 7.832031 4.769531 7.933594 L 4.917969 7.246094 C 4.636719 7.167969 4.402344 7.0625 4.210938 6.929688 Z M 12.835938 4.09375 C 12.9375 4.175781 13.03125 4.265625 13.109375 4.367188 L 13.675781 3.960938 C 13.554688 3.800781 13.414062 3.65625 13.253906 3.535156 C 12.972656 3.316406 12.632812 3.148438 12.226562 3.035156 L 12.089844 3.726562 C 12.386719 3.816406 12.636719 3.941406 12.835938 4.09375 Z M 10.605469 3.539062 C 10.945312 3.535156 11.285156 3.5625 11.617188 3.617188 L 11.667969 2.914062 C 11.316406 2.859375 10.964844 2.832031 10.609375 2.832031 L 8.789062 2.832031 L 8.730469 3.539062 Z M 10.605469 7.453125 L 8.730469 7.453125 L 8.789062 8.15625 L 10.617188 8.15625 C 10.960938 8.152344 11.308594 8.125 11.652344 8.078125 L 11.578125 7.378906 C 11.253906 7.421875 10.929688 7.449219 10.605469 7.453125 Z M 13.464844 5.566406 L 13.464844 5.582031 C 13.464844 5.871094 13.429688 6.148438 13.316406 6.402344 L 13.945312 6.683594 C 14.085938 6.367188 14.15625 6 14.15625 5.582031 L 14.15625 5.566406 C 14.15625 5.128906 14.082031 4.738281 13.933594 4.398438 L 13.316406 4.730469 C 13.414062 4.96875 13.464844 5.246094 13.464844 5.566406 Z M 6.511719 7.453125 C 6.066406 7.441406 5.679688 7.40625 5.34375 7.34375 L 5.285156 8.046875 C 5.6875 8.113281 6.089844 8.148438 6.496094 8.15625 L 8.183594 8.15625 L 8.214844 7.453125 Z M 6.507812 3.539062 L 8.214844 3.539062 L 8.183594 2.832031 L 6.503906 2.832031 C 6.003906 2.839844 5.558594 2.882812 5.167969 2.960938 L 5.234375 3.667969 C 5.597656 3.585938 6.023438 3.542969 6.507812 3.539062 Z M 3.574219 5.558594 C 3.582031 5.242188 3.636719 4.964844 3.734375 4.726562 L 3.113281 4.414062 C 2.96875 4.742188 2.890625 5.121094 2.882812 5.546875 L 2.882812 5.554688 C 2.882812 5.929688 2.9375 6.261719 3.054688 6.558594 L 3.679688 6.253906 C 3.609375 6.054688 3.574219 5.824219 3.574219 5.558594 Z M 4.230469 4.09375 C 4.402344 3.964844 4.59375 3.867188 4.792969 3.796875 L 4.636719 3.105469 C 4.324219 3.214844 4.050781 3.351562 3.820312 3.527344 C 3.644531 3.660156 3.484375 3.816406 3.355469 3.996094 L 3.929688 4.390625 C 4.015625 4.277344 4.117188 4.175781 4.230469 4.09375 Z M 11.992188 7.300781 L 12.15625 7.984375 C 12.59375 7.882812 12.953125 7.730469 13.242188 7.535156 C 13.394531 7.429688 13.53125 7.304688 13.652344 7.160156 L 13.046875 6.789062 C 12.824219 7.007812 12.492188 7.183594 11.992188 7.300781 Z M 11.992188 7.300781 "/>
</g>
</g>
</svg>
