<?xml version="1.0" encoding="UTF-8"?>
<svg xmlns="http://www.w3.org/2000/svg" xmlns:xlink="http://www.w3.org/1999/xlink" width="11px" height="10px" viewBox="0 0 11 10" version="1.1">
<g id="surface1">
<path style=" stroke:none;fill-rule:nonzero;fill:rgb(30%,30%,30%);fill-opacity:1;" d="M 3.785156 6.078125 L 3.058594 5.746094 C 2.875 6.046875 2.699219 6.339844 2.523438 6.632812 C 2.375 6.878906 2.203125 7.109375 2.082031 7.367188 C 1.855469 7.851562 1.789062 8.355469 1.972656 8.875 L 1.933594 8.894531 C 1.796875 8.714844 1.640625 8.539062 1.523438 8.347656 C 1.054688 7.585938 0.601562 6.816406 0.136719 6.054688 C -0.0234375 5.792969 -0.00390625 5.550781 0.167969 5.300781 C 0.367188 5.019531 0.546875 4.726562 0.742188 4.425781 C 0.492188 4.285156 0.246094 4.144531 0.00390625 4.007812 L 0.00390625 3.980469 C 0.132812 3.96875 0.261719 3.949219 0.390625 3.941406 C 1.082031 3.882812 1.769531 3.828125 2.460938 3.769531 C 2.566406 3.761719 2.621094 3.785156 2.667969 3.878906 C 3.019531 4.574219 3.378906 5.273438 3.734375 5.96875 C 3.75 5.996094 3.761719 6.027344 3.785156 6.078125 Z M 7.570312 9.128906 L 7.570312 9.964844 L 7.535156 10 C 7.519531 9.96875 7.507812 9.933594 7.484375 9.90625 C 6.996094 9.320312 6.507812 8.734375 6.019531 8.148438 C 5.972656 8.09375 5.960938 8.054688 6.003906 7.988281 C 6.464844 7.3125 6.925781 6.636719 7.382812 5.957031 C 7.390625 5.945312 7.402344 5.933594 7.425781 5.90625 L 7.515625 6.644531 C 7.796875 6.628906 8.070312 6.613281 8.339844 6.597656 C 8.710938 6.582031 9.085938 6.589844 9.453125 6.542969 C 10.039062 6.46875 10.554688 6.242188 10.945312 5.8125 L 10.980469 5.832031 C 10.910156 6 10.855469 6.179688 10.765625 6.339844 C 10.339844 7.089844 9.902344 7.835938 9.46875 8.582031 C 9.433594 8.644531 9.394531 8.707031 9.359375 8.773438 C 9.222656 9.023438 8.996094 9.132812 8.695312 9.132812 C 8.324219 9.128906 7.953125 9.128906 7.570312 9.128906 Z M 8.378906 1.453125 L 9.1875 1.078125 C 9.160156 1.140625 9.148438 1.179688 9.128906 1.210938 C 8.773438 1.867188 8.414062 2.523438 8.054688 3.183594 C 8.019531 3.25 7.980469 3.265625 7.90625 3.257812 C 7.070312 3.167969 6.238281 3.082031 5.402344 2.992188 C 5.359375 2.988281 5.320312 2.980469 5.257812 2.96875 L 5.945312 2.578125 C 5.902344 2.503906 5.859375 2.441406 5.824219 2.375 C 5.628906 2.039062 5.4375 1.703125 5.246094 1.367188 C 4.898438 0.753906 4.417969 0.277344 3.671875 0.046875 C 3.796875 0.03125 3.925781 0 4.050781 0 C 4.367188 0.00390625 4.683594 0.0273438 5 0.0390625 C 5.730469 0.0664062 6.460938 0.09375 7.191406 0.117188 C 7.519531 0.128906 7.738281 0.265625 7.878906 0.542969 C 8.03125 0.847656 8.207031 1.144531 8.378906 1.453125 Z M 8.378906 1.453125 "/>
<path style=" stroke:none;fill-rule:nonzero;fill:rgb(30%,30%,30%);fill-opacity:1;" d="M 5.117188 9.171875 C 4.820312 9.171875 4.542969 9.171875 4.265625 9.171875 C 3.6875 9.164062 3.105469 9.160156 2.527344 9.148438 C 2.269531 9.144531 2.1875 9.085938 2.101562 8.859375 C 1.917969 8.367188 1.984375 7.886719 2.191406 7.417969 C 2.277344 7.230469 2.398438 7.050781 2.511719 6.871094 C 2.535156 6.835938 2.597656 6.800781 2.644531 6.800781 C 3.457031 6.804688 4.273438 6.816406 5.085938 6.824219 C 5.097656 6.824219 5.109375 6.828125 5.117188 6.832031 Z M 1.710938 2.382812 C 2.1875 1.6875 2.652344 1.007812 3.121094 0.332031 C 3.21875 0.191406 3.359375 0.132812 3.554688 0.171875 C 4.175781 0.300781 4.613281 0.65625 4.957031 1.132812 C 5.277344 1.578125 5.273438 1.582031 4.964844 2.03125 C 4.621094 2.527344 4.28125 3.023438 3.941406 3.519531 C 3.914062 3.554688 3.886719 3.589844 3.855469 3.636719 Z M 7.382812 4.445312 L 9.519531 3.203125 C 9.714844 3.480469 9.90625 3.746094 10.089844 4.015625 C 10.363281 4.414062 10.636719 4.8125 10.902344 5.214844 C 11.042969 5.433594 11.027344 5.539062 10.851562 5.734375 C 10.472656 6.15625 9.96875 6.355469 9.398438 6.433594 C 9.210938 6.457031 9.019531 6.457031 8.832031 6.460938 C 8.789062 6.460938 8.726562 6.433594 8.707031 6.402344 C 8.265625 5.753906 7.828125 5.105469 7.382812 4.445312 Z M 7.382812 4.445312 "/>
</g>
</svg>
