<?xml version="1.0" encoding="UTF-8" standalone="no"?>
<!-- Created with Inkscape (http://www.inkscape.org/) -->

<svg
   xmlns:dc="http://purl.org/dc/elements/1.1/"
   xmlns:cc="http://creativecommons.org/ns#"
   xmlns:rdf="http://www.w3.org/1999/02/22-rdf-syntax-ns#"
   xmlns:svg="http://www.w3.org/2000/svg"
   xmlns="http://www.w3.org/2000/svg"
   xmlns:xlink="http://www.w3.org/1999/xlink"
   xmlns:sodipodi="http://sodipodi.sourceforge.net/DTD/sodipodi-0.dtd"
   xmlns:inkscape="http://www.inkscape.org/namespaces/inkscape"
   width="30px"
   height="30px"
   version="1.1"
   id="svg8"
   inkscape:version="0.92.4 5da689c313, 2019-01-14"
   sodipodi:docname="container.svg">
  <defs
     id="defs2" />
  <sodipodi:namedview
     id="base"
     pagecolor="#ffffff"
     bordercolor="#666666"
     borderopacity="1.0"
     inkscape:pageopacity="0.0"
     inkscape:pageshadow="2"
     inkscape:zoom="13.049334"
     inkscape:cx="18.679046"
     inkscape:cy="12.165829"
     inkscape:document-units="px"
     inkscape:current-layer="layer1"
     showgrid="false"
     inkscape:snap-page="false"
     units="px"
     inkscape:window-width="1884"
     inkscape:window-height="1061"
     inkscape:window-x="0"
     inkscape:window-y="0"
     inkscape:window-maximized="1"
     fit-margin-top="0"
     fit-margin-left="0"
     fit-margin-right="0"
     fit-margin-bottom="0" />
  <metadata
     id="metadata5">
    <rdf:RDF>
      <cc:Work
         rdf:about="">
        <dc:format>image/svg+xml</dc:format>
        <dc:type
           rdf:resource="http://purl.org/dc/dcmitype/StillImage" />
        <dc:title></dc:title>
      </cc:Work>
    </rdf:RDF>
  </metadata>
    <circle
       style="color:#000000;clip-rule:nonzero;display:inline;overflow:visible;visibility:visible;opacity:1;isolation:auto;mix-blend-mode:normal;color-interpolation:sRGB;color-interpolation-filters:linearRGB;solid-color:#000000;solid-opacity:1;vector-effect:none;fill:#ffffff;fill-opacity:1;fill-rule:evenodd;stroke:rgba(255, 255, 255, 1);stroke-width:1;stroke-linecap:butt;stroke-linejoin:miter;stroke-miterlimit:4;stroke-dasharray:none;stroke-dashoffset:0;stroke-opacity:1;marker:none;color-rendering:auto;image-rendering:auto;shape-rendering:auto;text-rendering:auto;enable-background:accumulate"
       id="path815"
       cx="15"
       cy="15"
       r="14.5" />
<g transform="translate(6,7)"><g id="surface1">
<path style=" stroke:none;fill-rule:nonzero;fill:rgb(30%,30%,30%);fill-opacity:1;" d="M 5.847656 9.726562 L 4.726562 9.191406 C 4.445312 9.675781 4.175781 10.144531 3.898438 10.613281 C 3.671875 11.003906 3.40625 11.378906 3.21875 11.785156 C 2.867188 12.5625 2.761719 13.371094 3.046875 14.199219 L 2.984375 14.230469 C 2.773438 13.941406 2.539062 13.664062 2.355469 13.355469 C 1.632812 12.136719 0.929688 10.910156 0.210938 9.6875 C -0.0351562 9.269531 -0.0078125 8.882812 0.261719 8.480469 C 0.566406 8.03125 0.847656 7.566406 1.148438 7.085938 C 0.761719 6.855469 0.382812 6.632812 0.00390625 6.410156 L 0.0078125 6.371094 C 0.207031 6.347656 0.40625 6.320312 0.605469 6.304688 C 1.671875 6.210938 2.738281 6.125 3.804688 6.03125 C 3.964844 6.015625 4.046875 6.054688 4.121094 6.203125 C 4.664062 7.320312 5.222656 8.433594 5.773438 9.550781 C 5.796875 9.597656 5.8125 9.644531 5.847656 9.726562 Z M 11.703125 14.609375 L 11.703125 15.945312 L 11.644531 16 C 11.621094 15.949219 11.601562 15.894531 11.566406 15.847656 C 10.8125 14.910156 10.058594 13.972656 9.300781 13.035156 C 9.230469 12.949219 9.210938 12.886719 9.277344 12.785156 C 9.992188 11.703125 10.703125 10.617188 11.410156 9.53125 C 11.421875 9.511719 11.441406 9.492188 11.476562 9.449219 L 11.613281 10.628906 C 12.050781 10.605469 12.46875 10.582031 12.890625 10.558594 C 13.464844 10.53125 14.042969 10.542969 14.609375 10.464844 C 15.515625 10.347656 16.308594 9.988281 16.914062 9.300781 L 16.972656 9.332031 C 16.863281 9.601562 16.777344 9.886719 16.636719 10.144531 C 15.980469 11.34375 15.304688 12.535156 14.636719 13.730469 C 14.578125 13.832031 14.519531 13.933594 14.464844 14.035156 C 14.25 14.4375 13.90625 14.613281 13.4375 14.609375 C 12.863281 14.605469 12.289062 14.609375 11.703125 14.609375 Z M 12.949219 2.328125 L 14.199219 1.726562 C 14.15625 1.828125 14.136719 1.886719 14.109375 1.9375 C 13.554688 2.988281 13 4.039062 12.449219 5.09375 C 12.394531 5.199219 12.335938 5.226562 12.21875 5.214844 C 10.929688 5.070312 9.640625 4.929688 8.351562 4.789062 C 8.285156 4.78125 8.21875 4.769531 8.125 4.753906 L 9.1875 4.125 C 9.121094 4.007812 9.058594 3.902344 9 3.796875 C 8.703125 3.261719 8.40625 2.722656 8.109375 2.183594 C 7.570312 1.207031 6.828125 0.441406 5.671875 0.0742188 C 5.871094 0.046875 6.066406 -0.00390625 6.261719 0 C 6.75 0.0078125 7.238281 0.0429688 7.726562 0.0625 C 8.855469 0.105469 9.984375 0.148438 11.113281 0.1875 C 11.621094 0.203125 11.960938 0.425781 12.175781 0.871094 C 12.410156 1.359375 12.683594 1.828125 12.949219 2.328125 Z M 12.949219 2.328125 "/>
<path style=" stroke:none;fill-rule:nonzero;fill:rgb(30%,30%,30%);fill-opacity:1;" d="M 7.910156 14.671875 C 7.445312 14.671875 7.019531 14.675781 6.59375 14.671875 C 5.695312 14.664062 4.800781 14.65625 3.902344 14.640625 C 3.507812 14.632812 3.378906 14.535156 3.246094 14.175781 C 2.964844 13.390625 3.066406 12.621094 3.386719 11.871094 C 3.519531 11.566406 3.707031 11.28125 3.882812 10.996094 C 3.917969 10.9375 4.015625 10.882812 4.085938 10.882812 C 5.34375 10.890625 6.601562 10.90625 7.859375 10.917969 C 7.875 10.921875 7.894531 10.925781 7.910156 10.933594 Z M 2.648438 3.808594 C 3.382812 2.703125 4.097656 1.617188 4.820312 0.53125 C 4.976562 0.304688 5.191406 0.214844 5.492188 0.277344 C 6.457031 0.480469 7.128906 1.050781 7.65625 1.8125 C 8.15625 2.527344 8.148438 2.53125 7.671875 3.25 C 7.144531 4.042969 6.617188 4.835938 6.089844 5.628906 C 6.050781 5.6875 6.007812 5.746094 5.957031 5.820312 Z M 11.40625 7.109375 L 14.714844 5.128906 C 15.011719 5.566406 15.308594 5.992188 15.59375 6.425781 C 16.019531 7.0625 16.441406 7.699219 16.847656 8.347656 C 17.070312 8.695312 17.039062 8.863281 16.769531 9.175781 C 16.183594 9.847656 15.40625 10.167969 14.527344 10.289062 C 14.238281 10.332031 13.941406 10.332031 13.648438 10.335938 C 13.582031 10.335938 13.488281 10.292969 13.457031 10.242188 C 12.773438 9.207031 12.097656 8.171875 11.40625 7.109375 Z M 11.40625 7.109375 "/>
</g>
</g>
</svg>
