<?xml version="1.0" encoding="UTF-8"?>
<svg xmlns="http://www.w3.org/2000/svg" xmlns:xlink="http://www.w3.org/1999/xlink" width="10px" height="11px" viewBox="0 0 10 11" version="1.1">
<g id="surface1">
<path style=" stroke:none;fill-rule:nonzero;fill:rgb(30%,30%,30%);fill-opacity:1;" d="M 5.636719 3.632812 L 8.128906 1.179688 C 8.117188 1.09375 8.117188 1.003906 8.128906 0.921875 C 8.128906 0.410156 8.546875 0 9.0625 0 C 9.578125 0 9.996094 0.414062 9.996094 0.921875 C 9.996094 1.429688 9.578125 1.839844 9.0625 1.84375 L 8.925781 1.84375 L 7.503906 3.636719 L 5.636719 3.636719 M 9.972656 5.878906 L 8.9375 7.929688 L 9.972656 9.980469 L 9.972656 11 L 0.00390625 11 L 0.00390625 9.980469 L 1.050781 7.929688 L 0.0859375 6.042969 C 0.03125 5.9375 0.00390625 5.816406 0.00390625 5.695312 L 0.00390625 4.859375 L 9.972656 4.859375 L 9.972656 5.878906 M 7.503906 7.316406 L 5.636719 7.316406 L 5.636719 5.472656 L 4.390625 5.472656 L 4.390625 7.316406 L 2.519531 7.316406 L 2.519531 8.542969 L 4.390625 8.542969 L 4.390625 10.382812 L 5.636719 10.382812 L 5.636719 8.542969 L 7.503906 8.542969 L 7.503906 7.316406 "/>
</g>
</svg>
