<?xml version="1.0" encoding="UTF-8" standalone="no"?>
<!-- Created with Inkscape (http://www.inkscape.org/) -->

<svg
   xmlns:dc="http://purl.org/dc/elements/1.1/"
   xmlns:cc="http://creativecommons.org/ns#"
   xmlns:rdf="http://www.w3.org/1999/02/22-rdf-syntax-ns#"
   xmlns:svg="http://www.w3.org/2000/svg"
   xmlns="http://www.w3.org/2000/svg"
   xmlns:xlink="http://www.w3.org/1999/xlink"
   xmlns:sodipodi="http://sodipodi.sourceforge.net/DTD/sodipodi-0.dtd"
   xmlns:inkscape="http://www.inkscape.org/namespaces/inkscape"
   width="30px"
   height="30px"
   version="1.1"
   id="svg8"
   inkscape:version="0.92.4 5da689c313, 2019-01-14"
   sodipodi:docname="container.svg">
  <defs
     id="defs2" />
  <sodipodi:namedview
     id="base"
     pagecolor="#ffffff"
     bordercolor="#666666"
     borderopacity="1.0"
     inkscape:pageopacity="0.0"
     inkscape:pageshadow="2"
     inkscape:zoom="13.049334"
     inkscape:cx="18.679046"
     inkscape:cy="12.165829"
     inkscape:document-units="px"
     inkscape:current-layer="layer1"
     showgrid="false"
     inkscape:snap-page="false"
     units="px"
     inkscape:window-width="1884"
     inkscape:window-height="1061"
     inkscape:window-x="0"
     inkscape:window-y="0"
     inkscape:window-maximized="1"
     fit-margin-top="0"
     fit-margin-left="0"
     fit-margin-right="0"
     fit-margin-bottom="0" />
  <metadata
     id="metadata5">
    <rdf:RDF>
      <cc:Work
         rdf:about="">
        <dc:format>image/svg+xml</dc:format>
        <dc:type
           rdf:resource="http://purl.org/dc/dcmitype/StillImage" />
        <dc:title></dc:title>
      </cc:Work>
    </rdf:RDF>
  </metadata>
    <circle
       style="color:#000000;clip-rule:nonzero;display:inline;overflow:visible;visibility:visible;opacity:1;isolation:auto;mix-blend-mode:normal;color-interpolation:sRGB;color-interpolation-filters:linearRGB;solid-color:#000000;solid-opacity:1;vector-effect:none;fill:#e42224;fill-opacity:1;fill-rule:evenodd;stroke:#ffffff;stroke-width:1;stroke-linecap:butt;stroke-linejoin:miter;stroke-miterlimit:4;stroke-dasharray:none;stroke-dashoffset:0;stroke-opacity:1;marker:none;color-rendering:auto;image-rendering:auto;shape-rendering:auto;text-rendering:auto;enable-background:accumulate"
       id="path815"
       cx="15"
       cy="15"
       r="14.5" />
<g transform="translate(6,6)"><g id="surface1">
<path style=" stroke:none;fill-rule:nonzero;fill:#FFFFFF;fill-opacity:1;" d="M 16.085938 5.421875 C 15.554688 4.609375 14.824219 3.945312 13.960938 3.5 L 14.113281 3.351562 C 14.1875 3.277344 14.1875 3.15625 14.113281 3.082031 C 14.039062 3.003906 13.917969 3.003906 13.84375 3.078125 L 13.703125 3.214844 C 12.769531 1.246094 10.773438 -0.0078125 8.585938 0 C 6.398438 0.0078125 4.414062 1.277344 3.496094 3.257812 L 3.324219 3.085938 C 3.25 3.011719 3.128906 3.011719 3.054688 3.085938 C 2.980469 3.160156 2.980469 3.28125 3.054688 3.355469 L 3.210938 3.511719 C 1.265625 4.4375 0.0195312 6.386719 0.00390625 8.535156 C -0.0117188 10.683594 1.203125 12.65625 3.132812 13.609375 L 2.96875 13.773438 C 2.890625 13.847656 2.890625 13.96875 2.964844 14.042969 C 3.039062 14.117188 3.160156 14.121094 3.234375 14.046875 L 3.40625 13.878906 C 4.363281 15.804688 6.335938 17.015625 8.492188 17 C 10.644531 16.984375 12.601562 15.746094 13.53125 13.8125 C 13.542969 13.800781 13.550781 13.792969 13.5625 13.785156 L 13.847656 14.070312 C 13.921875 14.144531 14.042969 14.144531 14.121094 14.066406 C 14.195312 13.992188 14.195312 13.871094 14.117188 13.796875 L 13.84375 13.527344 C 15.292969 12.816406 16.363281 11.523438 16.792969 9.976562 C 17.222656 8.425781 16.964844 6.765625 16.085938 5.421875 Z M 12.289062 10.433594 C 12.332031 10.347656 12.375 10.257812 12.414062 10.164062 C 12.917969 8.976562 12.832031 7.621094 12.1875 6.507812 L 14.667969 5.421875 C 14.75 5.582031 14.828125 5.746094 14.902344 5.914062 C 15.71875 7.84375 15.601562 10.042969 14.574219 11.875 Z M 8.613281 12.292969 C 6.546875 12.292969 4.871094 10.625 4.871094 8.5625 C 4.871094 6.503906 6.546875 4.832031 8.613281 4.832031 C 10.679688 4.832031 12.355469 6.503906 12.355469 8.5625 C 12.355469 10.625 10.679688 12.292969 8.613281 12.292969 Z M 11.726562 14.617188 C 11.578125 14.695312 11.425781 14.765625 11.269531 14.832031 C 9.332031 15.648438 7.121094 15.527344 5.285156 14.503906 L 6.546875 12.125 C 7.667969 12.769531 9.027344 12.851562 10.21875 12.351562 C 10.328125 12.304688 10.4375 12.253906 10.542969 12.199219 Z M 2.546875 11.679688 C 2.46875 11.527344 2.394531 11.371094 2.324219 11.210938 C 1.609375 9.515625 1.609375 7.609375 2.324219 5.914062 C 2.414062 5.707031 2.511719 5.503906 2.621094 5.304688 L 5.03125 6.523438 C 4.394531 7.636719 4.3125 8.980469 4.8125 10.164062 C 4.855469 10.269531 4.90625 10.371094 4.957031 10.472656 Z M 5.410156 2.554688 C 5.589844 2.460938 5.769531 2.375 5.957031 2.296875 C 7.878906 1.484375 10.070312 1.597656 11.902344 2.601562 L 10.507812 4.910156 C 10.414062 4.859375 10.316406 4.816406 10.21875 4.773438 C 9.042969 4.277344 7.703125 4.351562 6.589844 4.976562 Z M 5.652344 1.292969 C 6.855469 0.472656 8.347656 0.191406 9.769531 0.511719 C 11.1875 0.832031 12.414062 1.726562 13.148438 2.980469 C 10.5 0.84375 6.710938 0.847656 4.066406 2.988281 C 4.460938 2.3125 5.003906 1.730469 5.652344 1.292969 Z M 0.386719 8.578125 C 0.386719 6.710938 1.386719 4.984375 3.007812 4.046875 C 0.855469 6.703125 0.875 10.503906 3.058594 13.136719 C 1.40625 12.210938 0.386719 10.46875 0.386719 8.578125 Z M 11.390625 15.722656 C 10.183594 16.535156 8.691406 16.8125 7.269531 16.484375 C 5.851562 16.15625 4.628906 15.257812 3.902344 14 C 6.375 16.128906 9.972656 16.332031 12.671875 14.5 C 12.316406 14.976562 11.882812 15.390625 11.390625 15.722656 Z M 15.714844 11.414062 C 15.390625 11.886719 14.996094 12.304688 14.539062 12.652344 C 16.335938 10.0625 16.234375 6.613281 14.289062 4.136719 C 15.449219 4.910156 16.25 6.113281 16.515625 7.480469 C 16.785156 8.84375 16.496094 10.261719 15.714844 11.414062 Z M 15.714844 11.414062 "/>
</g>
</g>
</svg>
