<?xml version="1.0" encoding="UTF-8"?>
<svg xmlns="http://www.w3.org/2000/svg" xmlns:xlink="http://www.w3.org/1999/xlink" width="8px" height="11px" viewBox="0 0 8 11" version="1.1">
<g id="surface1">
<path style=" stroke:none;fill-rule:nonzero;fill:rgb(30%,30%,30%);fill-opacity:1;" d="M 7.039062 3.757812 C 6.566406 2.914062 6.472656 1.320312 6.472656 1.320312 C 4.589844 2.070312 5.15625 3.945312 4.777344 3.664062 C 4.402344 3.382812 3.273438 1.789062 4.023438 0.0078125 C 1.671875 -0.179688 -0.964844 5.441406 0.351562 7.972656 C 1.4375 10.058594 2.519531 10.597656 3.175781 10.878906 C 3.308594 10.929688 3.441406 10.96875 3.578125 10.996094 C 3.222656 10.65625 2.777344 10.023438 2.425781 9.097656 C 1.671875 7.128906 2.90625 4.488281 4.214844 4.597656 C 3.792969 5.640625 3.921875 8.03125 4.871094 8.347656 C 5.15625 8.441406 5.8125 6.847656 5.8125 6.847656 C 7.25 8.53125 5.949219 10.367188 5.402344 10.925781 C 5.59375 10.867188 5.769531 10.789062 5.90625 10.691406 C 6.566406 10.222656 9.484375 8.140625 7.039062 3.757812 Z M 7.039062 3.757812 "/>
</g>
</svg>
