<?xml version="1.0" encoding="UTF-8"?>
<svg xmlns="http://www.w3.org/2000/svg" xmlns:xlink="http://www.w3.org/1999/xlink" width="11px" height="11px" viewBox="0 0 11 11" version="1.1">
<g id="surface1">
<path style=" stroke:none;fill-rule:nonzero;fill:rgb(30%,30%,30%);fill-opacity:1;" d="M 2.203125 3.121094 C 2.585938 3.902344 2.453125 4.75 1.90625 5.019531 C 1.359375 5.289062 0.605469 4.871094 0.222656 4.09375 C -0.160156 3.3125 -0.0273438 2.460938 0.519531 2.195312 C 1.066406 1.925781 1.820312 2.339844 2.203125 3.121094 Z M 2.203125 3.121094 "/>
<path style=" stroke:none;fill-rule:nonzero;fill:rgb(30%,30%,30%);fill-opacity:1;" d="M 10.382812 2.144531 C 10.949219 2.359375 11.164062 3.191406 10.855469 4.003906 C 10.550781 4.816406 9.839844 5.300781 9.269531 5.085938 C 8.699219 4.871094 8.488281 4.039062 8.792969 3.226562 C 9.101562 2.414062 9.8125 1.929688 10.382812 2.144531 Z M 10.382812 2.144531 "/>
<path style=" stroke:none;fill-rule:nonzero;fill:rgb(30%,30%,30%);fill-opacity:1;" d="M 7.675781 0.0195312 C 8.335938 0.152344 8.714844 1.003906 8.53125 1.925781 C 8.34375 2.847656 7.65625 3.484375 7 3.351562 C 6.34375 3.21875 5.960938 2.363281 6.148438 1.441406 C 6.335938 0.523438 7.019531 -0.117188 7.675781 0.0195312 Z M 7.675781 0.0195312 "/>
<path style=" stroke:none;fill-rule:nonzero;fill:rgb(30%,30%,30%);fill-opacity:1;" d="M 4.914062 1.5 C 5.089844 2.433594 4.707031 3.289062 4.054688 3.410156 C 3.40625 3.535156 2.738281 2.875 2.5625 1.945312 C 2.382812 1.011719 2.769531 0.15625 3.417969 0.0351562 C 4.070312 -0.0898438 4.738281 0.566406 4.914062 1.5 Z M 4.914062 1.5 "/>
<path style=" stroke:none;fill-rule:nonzero;fill:rgb(30%,30%,30%);fill-opacity:1;" d="M 5.476562 11 C 3.476562 11 1.855469 9.378906 1.855469 7.382812 C 1.855469 5.382812 3.476562 3.761719 5.476562 3.761719 C 7.476562 3.761719 9.097656 5.382812 9.097656 7.382812 C 9.097656 9.378906 7.476562 11 5.476562 11 Z M 7.566406 6.792969 L 6.0625 6.792969 L 6.0625 5.292969 C 6.0625 5.25 6.027344 5.214844 5.984375 5.214844 L 4.980469 5.214844 C 4.933594 5.214844 4.898438 5.25 4.898438 5.292969 L 4.898438 6.792969 L 3.398438 6.792969 C 3.355469 6.792969 3.316406 6.828125 3.316406 6.875 L 3.316406 7.875 C 3.316406 7.921875 3.355469 7.957031 3.398438 7.957031 L 4.898438 7.957031 L 4.898438 9.457031 C 4.898438 9.5 4.933594 9.535156 4.980469 9.535156 L 5.984375 9.535156 C 6.027344 9.535156 6.0625 9.5 6.0625 9.457031 L 6.0625 7.957031 L 7.566406 7.957031 C 7.609375 7.957031 7.644531 7.921875 7.644531 7.875 L 7.644531 6.875 C 7.644531 6.828125 7.609375 6.792969 7.566406 6.792969 Z M 7.566406 6.792969 "/>
</g>
</svg>
