<?xml version="1.0" encoding="UTF-8" standalone="no"?>
<!-- Created with Inkscape (http://www.inkscape.org/) -->

<svg
   xmlns:dc="http://purl.org/dc/elements/1.1/"
   xmlns:cc="http://creativecommons.org/ns#"
   xmlns:rdf="http://www.w3.org/1999/02/22-rdf-syntax-ns#"
   xmlns:svg="http://www.w3.org/2000/svg"
   xmlns="http://www.w3.org/2000/svg"
   xmlns:xlink="http://www.w3.org/1999/xlink"
   xmlns:sodipodi="http://sodipodi.sourceforge.net/DTD/sodipodi-0.dtd"
   xmlns:inkscape="http://www.inkscape.org/namespaces/inkscape"
   width="30px"
   height="30px"
   version="1.1"
   id="svg8"
   inkscape:version="0.92.4 5da689c313, 2019-01-14"
   sodipodi:docname="container.svg">
  <defs
     id="defs2" />
  <sodipodi:namedview
     id="base"
     pagecolor="#ffffff"
     bordercolor="#666666"
     borderopacity="1.0"
     inkscape:pageopacity="0.0"
     inkscape:pageshadow="2"
     inkscape:zoom="13.049334"
     inkscape:cx="18.679046"
     inkscape:cy="12.165829"
     inkscape:document-units="px"
     inkscape:current-layer="layer1"
     showgrid="false"
     inkscape:snap-page="false"
     units="px"
     inkscape:window-width="1884"
     inkscape:window-height="1061"
     inkscape:window-x="0"
     inkscape:window-y="0"
     inkscape:window-maximized="1"
     fit-margin-top="0"
     fit-margin-left="0"
     fit-margin-right="0"
     fit-margin-bottom="0" />
  <metadata
     id="metadata5">
    <rdf:RDF>
      <cc:Work
         rdf:about="">
        <dc:format>image/svg+xml</dc:format>
        <dc:type
           rdf:resource="http://purl.org/dc/dcmitype/StillImage" />
        <dc:title></dc:title>
      </cc:Work>
    </rdf:RDF>
  </metadata>
    <circle
       style="color:#000000;clip-rule:nonzero;display:inline;overflow:visible;visibility:visible;opacity:1;isolation:auto;mix-blend-mode:normal;color-interpolation:sRGB;color-interpolation-filters:linearRGB;solid-color:#000000;solid-opacity:1;vector-effect:none;fill:#ffffff;fill-opacity:1;fill-rule:evenodd;stroke:#e42224;stroke-width:1;stroke-linecap:butt;stroke-linejoin:miter;stroke-miterlimit:4;stroke-dasharray:none;stroke-dashoffset:0;stroke-opacity:1;marker:none;color-rendering:auto;image-rendering:auto;shape-rendering:auto;text-rendering:auto;enable-background:accumulate"
       id="path815"
       cx="15"
       cy="15"
       r="14.5" />
<g transform="translate(8,6)"><g id="surface1">
<path style=" stroke:none;fill-rule:nonzero;fill:rgb(30%,30%,30%);fill-opacity:1;" d="M 10.355469 0.0078125 C 8.128906 -0.0742188 8.324219 0.90625 6.5 0.933594 C 4.679688 0.90625 4.871094 -0.0742188 2.640625 0.0078125 C -1.332031 0.15625 0.226562 4.933594 0.699219 6.167969 C 2.074219 9.734375 2.085938 10.625 2.035156 12.277344 C 1.878906 16.996094 2.605469 16.996094 3.753906 16.996094 C 4.558594 16.996094 4.691406 12.988281 4.761719 11.535156 C 4.878906 9.175781 8.300781 9.46875 8.238281 11.535156 C 8.195312 12.988281 8.445312 16.996094 9.25 16.996094 C 10.398438 16.996094 11.121094 16.996094 10.96875 12.277344 C 10.914062 10.625 10.921875 9.734375 12.300781 6.167969 C 12.773438 4.933594 14.332031 0.15625 10.355469 0.0078125 Z M 9.085938 1.894531 C 8.558594 1.988281 8.070312 2.21875 7.664062 2.5625 C 7.53125 2.671875 7.40625 2.789062 7.292969 2.914062 C 7.835938 3.210938 8.34375 3.554688 8.78125 3.960938 C 9.101562 4.257812 8.613281 4.730469 8.292969 4.433594 C 7.0625 3.285156 5.191406 2.6875 3.601562 2.234375 C 3.175781 2.113281 3.355469 1.46875 3.785156 1.589844 C 4.714844 1.855469 5.726562 2.171875 6.667969 2.605469 C 7.21875 1.925781 8.027344 1.410156 8.902344 1.25 C 9.339844 1.171875 9.523438 1.820312 9.085938 1.894531 Z M 9.085938 1.894531 "/>
</g>
</g>
</svg>
