<?xml version="1.0" encoding="UTF-8"?>
<svg xmlns="http://www.w3.org/2000/svg" xmlns:xlink="http://www.w3.org/1999/xlink" width="11px" height="10px" viewBox="0 0 11 10" version="1.1">
<g id="surface1">
<path style=" stroke:none;fill-rule:nonzero;fill:rgb(30%,30%,30%);fill-opacity:1;" d="M 6.621094 0 L 4.945312 3.394531 L 3.882812 1.25 C 3.882812 1.25 0.113281 9.792969 0.00390625 9.976562 L 10.996094 10 Z M 3.425781 3.4375 L 2.976562 3.699219 L 3.910156 1.726562 L 4.871094 3.617188 L 4.359375 3.421875 L 3.875 3.988281 Z M 7.167969 7.492188 L 6.15625 7.492188 L 6.15625 8.539062 L 4.886719 8.539062 L 4.886719 7.492188 L 3.851562 7.492188 L 3.851562 6.179688 L 4.886719 6.179688 L 4.886719 5.109375 L 6.15625 5.109375 L 6.15625 6.179688 L 7.167969 6.179688 Z M 7.011719 1.953125 L 6.671875 2.4375 L 6.1875 1.867188 L 5.714844 2.179688 L 6.632812 0.484375 L 7.414062 2.207031 Z M 7.011719 1.953125 "/>
</g>
</svg>
