<?xml version="1.0" encoding="UTF-8"?>
<svg xmlns="http://www.w3.org/2000/svg" xmlns:xlink="http://www.w3.org/1999/xlink" width="11px" height="10px" viewBox="0 0 11 10" version="1.1">
<g id="surface1">
<path style=" stroke:none;fill-rule:nonzero;fill:rgb(30%,30%,30%);fill-opacity:1;" d="M 10.015625 0.988281 L 10.015625 0 L 9.175781 0 L 9.175781 0.988281 L 8.191406 0.988281 L 8.191406 1.832031 L 9.175781 1.832031 L 9.175781 2.816406 L 10.015625 2.816406 L 10.015625 1.832031 L 11 1.832031 L 11 0.988281 Z M 10.015625 0.988281 "/>
<path style=" stroke:none;fill-rule:nonzero;fill:rgb(30%,30%,30%);fill-opacity:1;" d="M 9.175781 4.726562 C 9.175781 7.289062 4.589844 10 4.589844 10 C 4.589844 10 0 7.289062 0 4.726562 L 0.00390625 4.726562 C 0.00390625 3.441406 1.027344 2.402344 2.296875 2.402344 C 3.5625 2.402344 4.589844 3.441406 4.589844 4.726562 C 4.589844 3.441406 5.617188 2.402344 6.882812 2.402344 C 8.148438 2.402344 9.175781 3.441406 9.175781 4.726562 Z M 5.046875 6.957031 L 4.316406 9.070312 L 6.476562 6.296875 L 5.3125 6.273438 L 6.1875 4.15625 L 3.734375 6.933594 Z M 5.046875 6.957031 "/>
</g>
</svg>
