<?xml version="1.0" encoding="UTF-8" standalone="no"?>
<!-- Created with Inkscape (http://www.inkscape.org/) -->

<svg
   xmlns:dc="http://purl.org/dc/elements/1.1/"
   xmlns:cc="http://creativecommons.org/ns#"
   xmlns:rdf="http://www.w3.org/1999/02/22-rdf-syntax-ns#"
   xmlns:svg="http://www.w3.org/2000/svg"
   xmlns="http://www.w3.org/2000/svg"
   xmlns:xlink="http://www.w3.org/1999/xlink"
   xmlns:sodipodi="http://sodipodi.sourceforge.net/DTD/sodipodi-0.dtd"
   xmlns:inkscape="http://www.inkscape.org/namespaces/inkscape"
   width="30px"
   height="30px"
   version="1.1"
   id="svg8"
   inkscape:version="0.92.4 5da689c313, 2019-01-14"
   sodipodi:docname="container.svg">
  <defs
     id="defs2" />
  <sodipodi:namedview
     id="base"
     pagecolor="#ffffff"
     bordercolor="#666666"
     borderopacity="1.0"
     inkscape:pageopacity="0.0"
     inkscape:pageshadow="2"
     inkscape:zoom="13.049334"
     inkscape:cx="18.679046"
     inkscape:cy="12.165829"
     inkscape:document-units="px"
     inkscape:current-layer="layer1"
     showgrid="false"
     inkscape:snap-page="false"
     units="px"
     inkscape:window-width="1884"
     inkscape:window-height="1061"
     inkscape:window-x="0"
     inkscape:window-y="0"
     inkscape:window-maximized="1"
     fit-margin-top="0"
     fit-margin-left="0"
     fit-margin-right="0"
     fit-margin-bottom="0" />
  <metadata
     id="metadata5">
    <rdf:RDF>
      <cc:Work
         rdf:about="">
        <dc:format>image/svg+xml</dc:format>
        <dc:type
           rdf:resource="http://purl.org/dc/dcmitype/StillImage" />
        <dc:title></dc:title>
      </cc:Work>
    </rdf:RDF>
  </metadata>
    <circle
       style="color:#000000;clip-rule:nonzero;display:inline;overflow:visible;visibility:visible;opacity:1;isolation:auto;mix-blend-mode:normal;color-interpolation:sRGB;color-interpolation-filters:linearRGB;solid-color:#000000;solid-opacity:1;vector-effect:none;fill:#e42224;fill-opacity:1;fill-rule:evenodd;stroke:#ffffff;stroke-width:1;stroke-linecap:butt;stroke-linejoin:miter;stroke-miterlimit:4;stroke-dasharray:none;stroke-dashoffset:0;stroke-opacity:1;marker:none;color-rendering:auto;image-rendering:auto;shape-rendering:auto;text-rendering:auto;enable-background:accumulate"
       id="path815"
       cx="15"
       cy="15"
       r="14.5" />
<g transform="translate(7,7)"><g id="surface1">
<path style=" stroke:none;fill-rule:nonzero;fill:#FFFFFF;fill-opacity:1;" d="M 8.453125 5.285156 L 12.191406 1.714844 C 12.171875 1.589844 12.171875 1.464844 12.191406 1.339844 C 12.191406 0.597656 12.820312 0 13.59375 0 C 14.367188 0 14.996094 0.601562 14.996094 1.339844 C 14.996094 2.078125 14.367188 2.679688 13.59375 2.679688 L 13.386719 2.679688 L 11.257812 5.289062 L 8.453125 5.289062 M 14.957031 8.554688 L 13.40625 11.535156 L 14.957031 14.515625 L 14.957031 16 L 0.00390625 16 L 0.00390625 14.515625 L 1.574219 11.535156 L 0.128906 8.792969 C 0.046875 8.632812 0.00390625 8.460938 0.00390625 8.285156 L 0.00390625 7.070312 L 14.957031 7.070312 L 14.957031 8.554688 M 11.257812 10.640625 L 8.453125 10.640625 L 8.453125 7.960938 L 6.585938 7.960938 L 6.585938 10.640625 L 3.78125 10.640625 L 3.78125 12.425781 L 6.585938 12.425781 L 6.585938 15.105469 L 8.453125 15.105469 L 8.453125 12.425781 L 11.257812 12.425781 L 11.257812 10.640625 "/>
</g>
</g>
</svg>
