<?xml version="1.0" encoding="UTF-8" standalone="no"?>
<!-- Created with Inkscape (http://www.inkscape.org/) -->

<svg
   xmlns:dc="http://purl.org/dc/elements/1.1/"
   xmlns:cc="http://creativecommons.org/ns#"
   xmlns:rdf="http://www.w3.org/1999/02/22-rdf-syntax-ns#"
   xmlns:svg="http://www.w3.org/2000/svg"
   xmlns="http://www.w3.org/2000/svg"
   xmlns:xlink="http://www.w3.org/1999/xlink"
   xmlns:sodipodi="http://sodipodi.sourceforge.net/DTD/sodipodi-0.dtd"
   xmlns:inkscape="http://www.inkscape.org/namespaces/inkscape"
   width="30px"
   height="30px"
   version="1.1"
   id="svg8"
   inkscape:version="0.92.4 5da689c313, 2019-01-14"
   sodipodi:docname="container.svg">
  <defs
     id="defs2" />
  <sodipodi:namedview
     id="base"
     pagecolor="#ffffff"
     bordercolor="#666666"
     borderopacity="1.0"
     inkscape:pageopacity="0.0"
     inkscape:pageshadow="2"
     inkscape:zoom="13.049334"
     inkscape:cx="18.679046"
     inkscape:cy="12.165829"
     inkscape:document-units="px"
     inkscape:current-layer="layer1"
     showgrid="false"
     inkscape:snap-page="false"
     units="px"
     inkscape:window-width="1884"
     inkscape:window-height="1061"
     inkscape:window-x="0"
     inkscape:window-y="0"
     inkscape:window-maximized="1"
     fit-margin-top="0"
     fit-margin-left="0"
     fit-margin-right="0"
     fit-margin-bottom="0" />
  <metadata
     id="metadata5">
    <rdf:RDF>
      <cc:Work
         rdf:about="">
        <dc:format>image/svg+xml</dc:format>
        <dc:type
           rdf:resource="http://purl.org/dc/dcmitype/StillImage" />
        <dc:title></dc:title>
      </cc:Work>
    </rdf:RDF>
  </metadata>
    <circle
       style="color:#000000;clip-rule:nonzero;display:inline;overflow:visible;visibility:visible;opacity:1;isolation:auto;mix-blend-mode:normal;color-interpolation:sRGB;color-interpolation-filters:linearRGB;solid-color:#000000;solid-opacity:1;vector-effect:none;fill:#e42224;fill-opacity:1;fill-rule:evenodd;stroke:#ffffff;stroke-width:1;stroke-linecap:butt;stroke-linejoin:miter;stroke-miterlimit:4;stroke-dasharray:none;stroke-dashoffset:0;stroke-opacity:1;marker:none;color-rendering:auto;image-rendering:auto;shape-rendering:auto;text-rendering:auto;enable-background:accumulate"
       id="path815"
       cx="15"
       cy="15"
       r="14.5" />
<g transform="translate(7,7)"><g id="surface1">
<path style=" stroke:none;fill-rule:nonzero;fill:#FFFFFF;fill-opacity:1;" d="M 9.183594 0 L 6.816406 0 C 5.558594 0 4.539062 1.078125 4.535156 2.40625 L 4.535156 2.738281 L 5.816406 2.738281 L 5.816406 2.40625 C 5.820312 1.824219 6.265625 1.351562 6.816406 1.351562 L 9.183594 1.351562 C 9.734375 1.351562 10.179688 1.824219 10.183594 2.40625 L 10.183594 2.738281 L 11.464844 2.738281 L 11.464844 2.40625 C 11.460938 1.078125 10.441406 0 9.183594 0 Z M 9.183594 0 "/>
<path style=" stroke:none;fill-rule:nonzero;fill:#FFFFFF;fill-opacity:1;" d="M 13.800781 3.125 L 2.199219 3.125 C 0.988281 3.125 0.00390625 4.164062 0.00390625 5.445312 L 0.00390625 13.683594 C 0.00390625 14.960938 0.988281 16 2.199219 16 L 13.800781 16 C 15.011719 16 15.996094 14.960938 15.996094 13.683594 L 15.996094 5.445312 C 15.996094 4.164062 15.011719 3.125 13.800781 3.125 Z M 8 13.449219 C 5.964844 13.449219 4.316406 11.710938 4.316406 9.5625 C 4.316406 7.417969 5.964844 5.675781 8 5.675781 C 10.035156 5.675781 11.683594 7.417969 11.683594 9.5625 C 11.683594 11.710938 10.035156 13.449219 8 13.449219 Z M 8 13.449219 "/>
<path style=" stroke:none;fill-rule:nonzero;fill:#FFFFFF;fill-opacity:1;" d="M 10.117188 8.9375 L 8.59375 8.9375 L 8.59375 7.328125 C 8.59375 7.28125 8.554688 7.242188 8.511719 7.242188 L 7.488281 7.242188 C 7.445312 7.242188 7.40625 7.28125 7.40625 7.328125 L 7.40625 8.9375 L 5.878906 8.9375 C 5.835938 8.9375 5.800781 8.976562 5.800781 9.023438 L 5.800781 10.101562 C 5.800781 10.148438 5.835938 10.1875 5.878906 10.1875 L 7.40625 10.1875 L 7.40625 11.796875 C 7.40625 11.820312 7.414062 11.84375 7.429688 11.859375 C 7.445312 11.875 7.464844 11.882812 7.488281 11.882812 L 8.511719 11.882812 C 8.535156 11.882812 8.554688 11.875 8.570312 11.859375 C 8.585938 11.84375 8.59375 11.820312 8.59375 11.796875 L 8.59375 10.1875 L 10.117188 10.1875 C 10.140625 10.1875 10.160156 10.179688 10.175781 10.164062 C 10.191406 10.148438 10.199219 10.125 10.199219 10.101562 L 10.199219 9.023438 C 10.199219 8.976562 10.164062 8.9375 10.117188 8.9375 Z M 10.117188 8.9375 "/>
</g>
</g>
</svg>
