<?xml version="1.0" encoding="UTF-8" standalone="no"?>
<!-- Created with Inkscape (http://www.inkscape.org/) -->

<svg
   xmlns:dc="http://purl.org/dc/elements/1.1/"
   xmlns:cc="http://creativecommons.org/ns#"
   xmlns:rdf="http://www.w3.org/1999/02/22-rdf-syntax-ns#"
   xmlns:svg="http://www.w3.org/2000/svg"
   xmlns="http://www.w3.org/2000/svg"
   xmlns:xlink="http://www.w3.org/1999/xlink"
   xmlns:sodipodi="http://sodipodi.sourceforge.net/DTD/sodipodi-0.dtd"
   xmlns:inkscape="http://www.inkscape.org/namespaces/inkscape"
   width="30px"
   height="30px"
   version="1.1"
   id="svg8"
   inkscape:version="0.92.4 5da689c313, 2019-01-14"
   sodipodi:docname="container.svg">
  <defs
     id="defs2" />
  <sodipodi:namedview
     id="base"
     pagecolor="#ffffff"
     bordercolor="#666666"
     borderopacity="1.0"
     inkscape:pageopacity="0.0"
     inkscape:pageshadow="2"
     inkscape:zoom="13.049334"
     inkscape:cx="18.679046"
     inkscape:cy="12.165829"
     inkscape:document-units="px"
     inkscape:current-layer="layer1"
     showgrid="false"
     inkscape:snap-page="false"
     units="px"
     inkscape:window-width="1884"
     inkscape:window-height="1061"
     inkscape:window-x="0"
     inkscape:window-y="0"
     inkscape:window-maximized="1"
     fit-margin-top="0"
     fit-margin-left="0"
     fit-margin-right="0"
     fit-margin-bottom="0" />
  <metadata
     id="metadata5">
    <rdf:RDF>
      <cc:Work
         rdf:about="">
        <dc:format>image/svg+xml</dc:format>
        <dc:type
           rdf:resource="http://purl.org/dc/dcmitype/StillImage" />
        <dc:title></dc:title>
      </cc:Work>
    </rdf:RDF>
  </metadata>
    <circle
       style="color:#000000;clip-rule:nonzero;display:inline;overflow:visible;visibility:visible;opacity:1;isolation:auto;mix-blend-mode:normal;color-interpolation:sRGB;color-interpolation-filters:linearRGB;solid-color:#000000;solid-opacity:1;vector-effect:none;fill:#e42224;fill-opacity:1;fill-rule:evenodd;stroke:#ffffff;stroke-width:1;stroke-linecap:butt;stroke-linejoin:miter;stroke-miterlimit:4;stroke-dasharray:none;stroke-dashoffset:0;stroke-opacity:1;marker:none;color-rendering:auto;image-rendering:auto;shape-rendering:auto;text-rendering:auto;enable-background:accumulate"
       id="path815"
       cx="15"
       cy="15"
       r="14.5" />
<g transform="translate(6,6)"><g id="surface1">
<path style=" stroke:none;fill-rule:nonzero;fill:#FFFFFF;fill-opacity:1;" d="M 16.351562 5.253906 C 15.035156 2.078125 11.9375 0.0078125 8.5 0.0078125 C 5.0625 0.0078125 1.960938 2.078125 0.648438 5.253906 C -0.429688 7.863281 -0.140625 10.839844 1.421875 13.191406 C 2.984375 15.546875 5.613281 16.96875 8.441406 16.992188 C 8.460938 16.992188 8.480469 16.992188 8.5 16.992188 C 11.339844 16.992188 13.992188 15.578125 15.570312 13.21875 C 17.144531 10.859375 17.4375 7.871094 16.351562 5.253906 Z M 14.347656 2.578125 C 15.140625 3.355469 15.765625 4.289062 16.191406 5.316406 L 13.433594 6.457031 C 12.886719 5.136719 11.863281 4.113281 10.546875 3.570312 L 11.6875 0.816406 C 12.679688 1.226562 13.582031 1.824219 14.347656 2.578125 Z M 10.480469 13.273438 C 7.839844 14.367188 4.816406 13.113281 3.722656 10.480469 C 3.191406 9.199219 3.191406 7.792969 3.722656 6.527344 C 4.246094 5.257812 5.253906 4.25 6.519531 3.726562 C 7.789062 3.203125 9.210938 3.203125 10.480469 3.730469 C 11.753906 4.253906 12.746094 5.246094 13.273438 6.527344 C 13.804688 7.800781 13.808594 9.207031 13.277344 10.480469 C 12.753906 11.746094 11.746094 12.753906 10.480469 13.273438 Z M 2.566406 2.660156 C 3.351562 1.867188 4.285156 1.242188 5.3125 0.816406 L 6.457031 3.570312 C 5.144531 4.109375 4.105469 5.148438 3.5625 6.460938 L 0.808594 5.320312 C 1.214844 4.328125 1.8125 3.425781 2.566406 2.660156 Z M 2.65625 14.425781 C 1.863281 13.644531 1.234375 12.710938 0.808594 11.683594 L 0.808594 11.679688 L 3.5625 10.542969 C 4.109375 11.863281 5.136719 12.890625 6.453125 13.433594 L 5.3125 16.183594 C 4.324219 15.777344 3.417969 15.179688 2.65625 14.425781 Z M 14.433594 14.339844 C 13.652344 15.132812 12.71875 15.757812 11.6875 16.183594 L 11.683594 16.183594 L 10.542969 13.433594 L 10.546875 13.433594 C 11.855469 12.894531 12.898438 11.855469 13.4375 10.546875 L 16.191406 11.683594 C 15.785156 12.675781 15.1875 13.574219 14.433594 14.339844 Z M 14.433594 14.339844 "/>
</g>
</g>
</svg>
