<?xml version="1.0" encoding="UTF-8" standalone="no"?>
<!-- Created with Inkscape (http://www.inkscape.org/) -->

<svg
   xmlns:dc="http://purl.org/dc/elements/1.1/"
   xmlns:cc="http://creativecommons.org/ns#"
   xmlns:rdf="http://www.w3.org/1999/02/22-rdf-syntax-ns#"
   xmlns:svg="http://www.w3.org/2000/svg"
   xmlns="http://www.w3.org/2000/svg"
   xmlns:xlink="http://www.w3.org/1999/xlink"
   xmlns:sodipodi="http://sodipodi.sourceforge.net/DTD/sodipodi-0.dtd"
   xmlns:inkscape="http://www.inkscape.org/namespaces/inkscape"
   width="30px"
   height="30px"
   version="1.1"
   id="svg8"
   inkscape:version="0.92.4 5da689c313, 2019-01-14"
   sodipodi:docname="container.svg">
  <defs
     id="defs2" />
  <sodipodi:namedview
     id="base"
     pagecolor="#ffffff"
     bordercolor="#666666"
     borderopacity="1.0"
     inkscape:pageopacity="0.0"
     inkscape:pageshadow="2"
     inkscape:zoom="13.049334"
     inkscape:cx="18.679046"
     inkscape:cy="12.165829"
     inkscape:document-units="px"
     inkscape:current-layer="layer1"
     showgrid="false"
     inkscape:snap-page="false"
     units="px"
     inkscape:window-width="1884"
     inkscape:window-height="1061"
     inkscape:window-x="0"
     inkscape:window-y="0"
     inkscape:window-maximized="1"
     fit-margin-top="0"
     fit-margin-left="0"
     fit-margin-right="0"
     fit-margin-bottom="0" />
  <metadata
     id="metadata5">
    <rdf:RDF>
      <cc:Work
         rdf:about="">
        <dc:format>image/svg+xml</dc:format>
        <dc:type
           rdf:resource="http://purl.org/dc/dcmitype/StillImage" />
        <dc:title></dc:title>
      </cc:Work>
    </rdf:RDF>
  </metadata>
    <circle
       style="color:#000000;clip-rule:nonzero;display:inline;overflow:visible;visibility:visible;opacity:1;isolation:auto;mix-blend-mode:normal;color-interpolation:sRGB;color-interpolation-filters:linearRGB;solid-color:#000000;solid-opacity:1;vector-effect:none;fill:#ffffff;fill-opacity:1;fill-rule:evenodd;stroke:#e42224;stroke-width:1;stroke-linecap:butt;stroke-linejoin:miter;stroke-miterlimit:4;stroke-dasharray:none;stroke-dashoffset:0;stroke-opacity:1;marker:none;color-rendering:auto;image-rendering:auto;shape-rendering:auto;text-rendering:auto;enable-background:accumulate"
       id="path815"
       cx="15"
       cy="15"
       r="14.5" />
<g transform="translate(6,7)"><g id="surface1">
<path style=" stroke:none;fill-rule:nonzero;fill:rgb(30%,30%,30%);fill-opacity:1;" d="M 8.757812 0.101562 C 8.601562 -0.0351562 8.347656 -0.0351562 8.191406 0.101562 L 0.0976562 7.164062 C -0.0585938 7.300781 -0.015625 7.414062 0.1875 7.414062 L 2.054688 7.414062 C 2.261719 7.414062 2.429688 7.582031 2.429688 7.789062 L 2.429688 14.625 C 2.429688 14.832031 2.597656 15 2.804688 15 L 14.140625 15 C 14.347656 15 14.515625 14.832031 14.515625 14.625 L 14.515625 7.789062 C 14.515625 7.582031 14.683594 7.414062 14.890625 7.414062 L 16.8125 7.414062 C 17.019531 7.414062 17.058594 7.300781 16.902344 7.167969 Z M 12.558594 9.988281 C 12.554688 10.195312 12.386719 10.363281 12.179688 10.363281 L 10.0625 10.363281 C 9.855469 10.363281 9.6875 10.53125 9.6875 10.738281 L 9.6875 12.859375 C 9.6875 13.066406 9.519531 13.234375 9.3125 13.234375 L 7.597656 13.234375 C 7.390625 13.234375 7.222656 13.066406 7.222656 12.859375 L 7.222656 10.738281 C 7.222656 10.53125 7.054688 10.363281 6.847656 10.363281 L 4.730469 10.363281 C 4.523438 10.363281 4.355469 10.195312 4.351562 9.988281 L 4.351562 8.273438 C 4.355469 8.066406 4.523438 7.898438 4.730469 7.898438 L 6.847656 7.898438 C 7.054688 7.898438 7.222656 7.726562 7.222656 7.519531 L 7.222656 5.398438 C 7.222656 5.191406 7.390625 5.023438 7.597656 5.023438 L 9.3125 5.023438 C 9.519531 5.023438 9.6875 5.191406 9.6875 5.398438 L 9.6875 7.519531 C 9.6875 7.726562 9.855469 7.898438 10.0625 7.898438 L 12.179688 7.898438 C 12.386719 7.898438 12.554688 8.066406 12.558594 8.273438 Z M 12.558594 9.988281 "/>
</g>
</g>
</svg>
