<?xml version="1.0" encoding="UTF-8"?>
<svg xmlns="http://www.w3.org/2000/svg" xmlns:xlink="http://www.w3.org/1999/xlink" width="10px" height="10px" viewBox="0 0 10 10" version="1.1">
<g id="surface1">
<path style=" stroke:none;fill-rule:nonzero;fill:rgb(30%,30%,30%);fill-opacity:1;" d="M 5.738281 0 L 4.261719 0 C 3.472656 0 2.835938 0.671875 2.835938 1.503906 L 2.835938 1.710938 L 3.636719 1.710938 L 3.636719 1.503906 C 3.636719 1.140625 3.914062 0.84375 4.261719 0.84375 L 5.738281 0.84375 C 6.085938 0.84375 6.363281 1.140625 6.363281 1.503906 L 6.363281 1.710938 L 7.164062 1.710938 L 7.164062 1.503906 C 7.164062 0.671875 6.527344 0 5.738281 0 Z M 5.738281 0 "/>
<path style=" stroke:none;fill-rule:nonzero;fill:rgb(30%,30%,30%);fill-opacity:1;" d="M 8.625 1.953125 L 1.375 1.953125 C 0.617188 1.953125 0.00390625 2.601562 0.00390625 3.402344 L 0.00390625 8.550781 C 0.00390625 9.351562 0.617188 10 1.375 10 L 8.625 10 C 9.382812 10 9.996094 9.351562 9.996094 8.550781 L 9.996094 3.402344 C 9.996094 2.601562 9.382812 1.953125 8.625 1.953125 Z M 5 8.40625 C 3.726562 8.40625 2.695312 7.316406 2.695312 5.976562 C 2.695312 4.636719 3.726562 3.546875 5 3.546875 C 6.273438 3.546875 7.304688 4.636719 7.304688 5.976562 C 7.304688 7.320312 6.273438 8.40625 5 8.40625 Z M 5 8.40625 "/>
<path style=" stroke:none;fill-rule:nonzero;fill:rgb(30%,30%,30%);fill-opacity:1;" d="M 6.324219 5.585938 L 5.371094 5.585938 L 5.371094 4.582031 C 5.371094 4.550781 5.347656 4.527344 5.320312 4.527344 L 4.679688 4.527344 C 4.652344 4.527344 4.628906 4.550781 4.628906 4.582031 L 4.628906 5.585938 L 3.675781 5.585938 C 3.648438 5.585938 3.625 5.609375 3.625 5.640625 L 3.625 6.316406 C 3.625 6.34375 3.648438 6.367188 3.675781 6.367188 L 4.628906 6.367188 L 4.628906 7.375 C 4.628906 7.386719 4.636719 7.402344 4.644531 7.410156 C 4.652344 7.421875 4.667969 7.425781 4.679688 7.425781 L 5.320312 7.425781 C 5.332031 7.425781 5.347656 7.421875 5.355469 7.410156 C 5.363281 7.402344 5.371094 7.386719 5.371094 7.375 L 5.371094 6.367188 L 6.324219 6.367188 C 6.335938 6.367188 6.351562 6.363281 6.359375 6.351562 C 6.371094 6.34375 6.375 6.328125 6.375 6.316406 L 6.375 5.640625 C 6.375 5.609375 6.351562 5.585938 6.324219 5.585938 Z M 6.324219 5.585938 "/>
</g>
</svg>
