<?xml version="1.0" encoding="UTF-8"?>
<svg xmlns="http://www.w3.org/2000/svg" xmlns:xlink="http://www.w3.org/1999/xlink" width="8px" height="10px" viewBox="0 0 8 10" version="1.1">
<g id="surface1">
<path style=" stroke:none;fill-rule:nonzero;fill:rgb(30%,30%,30%);fill-opacity:1;" d="M 6.375 0.00390625 C 5 -0.0429688 5.121094 0.535156 4 0.550781 C 2.878906 0.535156 2.996094 -0.0429688 1.625 0.00390625 C -0.820312 0.09375 0.140625 2.902344 0.429688 3.628906 C 1.277344 5.726562 1.28125 6.25 1.25 7.222656 C 1.15625 10 1.601562 10 2.308594 10 C 2.804688 10 2.886719 7.640625 2.929688 6.785156 C 3.003906 5.398438 5.105469 5.570312 5.070312 6.785156 C 5.042969 7.640625 5.195312 10 5.691406 10 C 6.398438 10 6.84375 10 6.75 7.222656 C 6.71875 6.25 6.722656 5.726562 7.570312 3.628906 C 7.859375 2.902344 8.820312 0.09375 6.375 0.00390625 Z M 5.59375 1.117188 C 5.269531 1.171875 4.964844 1.304688 4.714844 1.507812 C 4.636719 1.570312 4.558594 1.640625 4.488281 1.714844 C 4.824219 1.890625 5.136719 2.089844 5.402344 2.328125 C 5.601562 2.503906 5.300781 2.785156 5.105469 2.609375 C 4.347656 1.929688 3.195312 1.578125 2.214844 1.3125 C 1.957031 1.242188 2.066406 0.863281 2.328125 0.933594 C 2.902344 1.089844 3.523438 1.277344 4.101562 1.53125 C 4.441406 1.132812 4.941406 0.828125 5.476562 0.734375 C 5.746094 0.691406 5.859375 1.070312 5.59375 1.117188 Z M 5.59375 1.117188 "/>
</g>
</svg>
