<?xml version="1.0" encoding="UTF-8"?>
<svg xmlns="http://www.w3.org/2000/svg" xmlns:xlink="http://www.w3.org/1999/xlink" width="11px" height="11px" viewBox="0 0 11 11" version="1.1">
<g id="surface1">
<path style=" stroke:none;fill-rule:nonzero;fill:rgb(30%,30%,30%);fill-opacity:1;" d="M 10.40625 3.507812 C 10.066406 2.980469 9.589844 2.554688 9.035156 2.265625 L 9.132812 2.167969 C 9.179688 2.121094 9.179688 2.042969 9.132812 1.992188 C 9.085938 1.945312 9.007812 1.945312 8.957031 1.992188 L 8.867188 2.082031 C 8.261719 0.804688 6.972656 -0.00390625 5.554688 0 C 4.140625 0.00390625 2.855469 0.828125 2.261719 2.109375 L 2.152344 1.996094 C 2.101562 1.949219 2.023438 1.949219 1.976562 1.996094 C 1.925781 2.046875 1.925781 2.125 1.976562 2.171875 L 2.078125 2.273438 C 0.816406 2.871094 0.0117188 4.132812 0.00390625 5.523438 C -0.0078125 6.914062 0.777344 8.1875 2.027344 8.804688 L 1.917969 8.914062 C 1.871094 8.960938 1.871094 9.039062 1.917969 9.085938 C 1.964844 9.136719 2.046875 9.136719 2.09375 9.089844 L 2.203125 8.980469 C 2.824219 10.226562 4.101562 11.007812 5.492188 11 C 6.886719 10.992188 8.152344 10.191406 8.757812 8.9375 C 8.761719 8.929688 8.769531 8.925781 8.777344 8.917969 L 8.960938 9.101562 C 9.007812 9.152344 9.085938 9.152344 9.136719 9.101562 C 9.183594 9.054688 9.183594 8.976562 9.136719 8.929688 L 8.957031 8.75 C 9.894531 8.292969 10.589844 7.457031 10.867188 6.453125 C 11.144531 5.453125 10.976562 4.378906 10.40625 3.507812 Z M 7.949219 6.753906 C 7.980469 6.695312 8.007812 6.636719 8.03125 6.578125 C 8.359375 5.808594 8.304688 4.933594 7.886719 4.210938 L 9.492188 3.507812 C 9.546875 3.613281 9.59375 3.71875 9.640625 3.828125 C 10.171875 5.078125 10.09375 6.5 9.429688 7.683594 Z M 5.574219 7.953125 C 4.234375 7.953125 3.152344 6.875 3.152344 5.539062 C 3.152344 4.207031 4.234375 3.125 5.574219 3.125 C 6.910156 3.125 7.996094 4.207031 7.996094 5.539062 C 7.996094 6.875 6.910156 7.953125 5.574219 7.953125 Z M 7.585938 9.457031 C 7.492188 9.507812 7.390625 9.554688 7.292969 9.597656 C 6.039062 10.125 4.609375 10.046875 3.417969 9.382812 L 4.234375 7.84375 C 4.960938 8.261719 5.839844 8.316406 6.613281 7.992188 C 6.683594 7.960938 6.753906 7.929688 6.820312 7.894531 Z M 1.648438 7.558594 C 1.597656 7.457031 1.546875 7.355469 1.503906 7.253906 C 1.042969 6.160156 1.042969 4.921875 1.503906 3.828125 C 1.5625 3.691406 1.625 3.5625 1.695312 3.433594 L 3.253906 4.21875 C 2.84375 4.941406 2.789062 5.8125 3.113281 6.578125 C 3.140625 6.644531 3.175781 6.710938 3.207031 6.777344 Z M 3.5 1.652344 C 3.617188 1.59375 3.734375 1.535156 3.855469 1.484375 C 5.097656 0.960938 6.515625 1.03125 7.699219 1.683594 L 6.800781 3.175781 C 6.738281 3.144531 6.675781 3.117188 6.613281 3.089844 C 5.851562 2.769531 4.984375 2.816406 4.261719 3.222656 Z M 3.65625 0.835938 C 4.4375 0.304688 5.402344 0.125 6.320312 0.332031 C 7.238281 0.539062 8.03125 1.117188 8.507812 1.929688 C 6.792969 0.546875 4.34375 0.546875 2.632812 1.933594 C 2.886719 1.496094 3.238281 1.121094 3.65625 0.835938 Z M 0.25 5.550781 C 0.25 4.34375 0.898438 3.222656 1.945312 2.617188 C 0.550781 4.335938 0.566406 6.796875 1.980469 8.5 C 0.910156 7.902344 0.25 6.773438 0.25 5.550781 Z M 7.371094 10.171875 C 6.589844 10.699219 5.625 10.878906 4.703125 10.667969 C 3.785156 10.453125 2.996094 9.871094 2.523438 9.058594 C 4.125 10.4375 6.453125 10.570312 8.199219 9.382812 C 7.96875 9.691406 7.691406 9.957031 7.371094 10.171875 Z M 10.167969 7.386719 C 9.960938 7.691406 9.703125 7.960938 9.40625 8.1875 C 10.570312 6.511719 10.503906 4.28125 9.246094 2.675781 C 9.996094 3.179688 10.515625 3.957031 10.6875 4.839844 C 10.859375 5.722656 10.671875 6.640625 10.167969 7.386719 Z M 10.167969 7.386719 "/>
</g>
</svg>
