<?xml version="1.0" encoding="UTF-8"?>
<svg xmlns="http://www.w3.org/2000/svg" xmlns:xlink="http://www.w3.org/1999/xlink" width="8px" height="10px" viewBox="0 0 8 10" version="1.1">
<g id="surface1">
<path style=" stroke:none;fill-rule:nonzero;fill:rgb(30%,30%,30%);fill-opacity:1;" d="M 2.804688 7.226562 C 2.582031 7.226562 2.398438 7.058594 2.394531 6.847656 C 2.390625 6.636719 2.585938 6.460938 2.816406 6.460938 L 3.742188 6.460938 L 3.742188 5.792969 L 2.816406 5.792969 C 2.585938 5.792969 2.390625 5.617188 2.394531 5.402344 C 2.398438 5.195312 2.582031 5.027344 2.804688 5.023438 L 3.742188 5.023438 L 3.742188 2.894531 C 3.023438 2.761719 2.480469 2.171875 2.480469 1.46875 L 2.480469 0.00390625 L 1.371094 0.00390625 L 1.371094 3.246094 C 1.371094 3.847656 0.839844 4.335938 0.195312 4.335938 C 0.128906 4.335938 0.0664062 4.332031 0 4.320312 L 0 9.285156 C 0 9.679688 0.34375 9.996094 0.765625 9.996094 L 3.742188 9.996094 L 3.742188 7.226562 Z M 2.804688 7.226562 "/>
<path style=" stroke:none;fill-rule:nonzero;fill:rgb(30%,30%,30%);fill-opacity:1;" d="M 5.195312 7.226562 C 5.417969 7.226562 5.601562 7.058594 5.605469 6.847656 C 5.609375 6.636719 5.414062 6.460938 5.183594 6.460938 L 4.257812 6.460938 L 4.257812 5.792969 L 5.183594 5.792969 C 5.414062 5.792969 5.609375 5.617188 5.605469 5.402344 C 5.601562 5.195312 5.417969 5.027344 5.195312 5.023438 L 4.257812 5.023438 L 4.257812 2.894531 C 4.976562 2.761719 5.519531 2.171875 5.519531 1.46875 L 5.519531 0.00390625 L 6.628906 0.00390625 L 6.628906 3.246094 C 6.628906 3.847656 7.160156 4.335938 7.804688 4.335938 C 7.871094 4.335938 7.933594 4.332031 8 4.320312 L 8 9.285156 C 8 9.679688 7.65625 9.996094 7.234375 9.996094 L 4.257812 9.996094 L 4.257812 7.226562 Z M 5.195312 7.226562 "/>
</g>
</svg>
