<?xml version="1.0" encoding="UTF-8"?>
<svg xmlns="http://www.w3.org/2000/svg" xmlns:xlink="http://www.w3.org/1999/xlink" width="11px" height="10px" viewBox="0 0 11 10" version="1.1">
<g id="surface1">
<path style=" stroke:none;fill-rule:nonzero;fill:rgb(30%,30%,30%);fill-opacity:1;" d="M 5.667969 0.0664062 C 5.566406 -0.0234375 5.402344 -0.0234375 5.300781 0.0664062 L 0.0625 4.777344 C -0.0390625 4.867188 -0.0117188 4.941406 0.121094 4.941406 L 1.328125 4.941406 C 1.464844 4.941406 1.570312 5.054688 1.570312 5.191406 L 1.570312 9.75 C 1.574219 9.886719 1.679688 10 1.816406 10 L 9.148438 10 C 9.28125 10 9.390625 9.886719 9.390625 9.75 L 9.390625 5.191406 C 9.390625 5.054688 9.5 4.941406 9.636719 4.941406 L 10.878906 4.941406 C 11.011719 4.941406 11.039062 4.867188 10.9375 4.777344 Z M 8.125 6.65625 C 8.125 6.796875 8.015625 6.910156 7.882812 6.910156 L 6.511719 6.910156 C 6.378906 6.910156 6.269531 7.019531 6.269531 7.160156 L 6.269531 8.574219 C 6.265625 8.710938 6.160156 8.824219 6.023438 8.824219 L 4.917969 8.824219 C 4.78125 8.824219 4.675781 8.710938 4.675781 8.574219 L 4.675781 7.160156 C 4.671875 7.019531 4.566406 6.910156 4.429688 6.910156 L 3.058594 6.910156 C 2.925781 6.910156 2.816406 6.796875 2.816406 6.65625 L 2.816406 5.515625 C 2.816406 5.378906 2.925781 5.265625 3.058594 5.265625 L 4.429688 5.265625 C 4.566406 5.265625 4.671875 5.152344 4.675781 5.015625 L 4.675781 3.601562 C 4.675781 3.460938 4.78125 3.351562 4.917969 3.347656 L 6.023438 3.347656 C 6.160156 3.351562 6.265625 3.460938 6.269531 3.601562 L 6.269531 5.015625 C 6.269531 5.152344 6.378906 5.265625 6.511719 5.265625 L 7.882812 5.265625 C 8.015625 5.265625 8.125 5.378906 8.125 5.515625 Z M 8.125 6.65625 "/>
</g>
</svg>
