<?xml version="1.0" encoding="UTF-8" standalone="no"?>
<!-- Created with Inkscape (http://www.inkscape.org/) -->

<svg
   xmlns:dc="http://purl.org/dc/elements/1.1/"
   xmlns:cc="http://creativecommons.org/ns#"
   xmlns:rdf="http://www.w3.org/1999/02/22-rdf-syntax-ns#"
   xmlns:svg="http://www.w3.org/2000/svg"
   xmlns="http://www.w3.org/2000/svg"
   xmlns:xlink="http://www.w3.org/1999/xlink"
   xmlns:sodipodi="http://sodipodi.sourceforge.net/DTD/sodipodi-0.dtd"
   xmlns:inkscape="http://www.inkscape.org/namespaces/inkscape"
   width="30px"
   height="30px"
   version="1.1"
   id="svg8"
   inkscape:version="0.92.4 5da689c313, 2019-01-14"
   sodipodi:docname="container.svg">
  <defs
     id="defs2" />
  <sodipodi:namedview
     id="base"
     pagecolor="#ffffff"
     bordercolor="#666666"
     borderopacity="1.0"
     inkscape:pageopacity="0.0"
     inkscape:pageshadow="2"
     inkscape:zoom="13.049334"
     inkscape:cx="18.679046"
     inkscape:cy="12.165829"
     inkscape:document-units="px"
     inkscape:current-layer="layer1"
     showgrid="false"
     inkscape:snap-page="false"
     units="px"
     inkscape:window-width="1884"
     inkscape:window-height="1061"
     inkscape:window-x="0"
     inkscape:window-y="0"
     inkscape:window-maximized="1"
     fit-margin-top="0"
     fit-margin-left="0"
     fit-margin-right="0"
     fit-margin-bottom="0" />
  <metadata
     id="metadata5">
    <rdf:RDF>
      <cc:Work
         rdf:about="">
        <dc:format>image/svg+xml</dc:format>
        <dc:type
           rdf:resource="http://purl.org/dc/dcmitype/StillImage" />
        <dc:title></dc:title>
      </cc:Work>
    </rdf:RDF>
  </metadata>
    <circle
       style="color:#000000;clip-rule:nonzero;display:inline;overflow:visible;visibility:visible;opacity:1;isolation:auto;mix-blend-mode:normal;color-interpolation:sRGB;color-interpolation-filters:linearRGB;solid-color:#000000;solid-opacity:1;vector-effect:none;fill:#ffffff;fill-opacity:1;fill-rule:evenodd;stroke:#e42224;stroke-width:1;stroke-linecap:butt;stroke-linejoin:miter;stroke-miterlimit:4;stroke-dasharray:none;stroke-dashoffset:0;stroke-opacity:1;marker:none;color-rendering:auto;image-rendering:auto;shape-rendering:auto;text-rendering:auto;enable-background:accumulate"
       id="path815"
       cx="15"
       cy="15"
       r="14.5" />
<g transform="translate(6,6)"><g id="surface1">
<path style=" stroke:none;fill-rule:nonzero;fill:rgb(30%,30%,30%);fill-opacity:1;" d="M 3.40625 4.824219 C 4 6.027344 3.792969 7.339844 2.949219 7.757812 C 2.101562 8.171875 0.9375 7.53125 0.34375 6.324219 C -0.25 5.121094 -0.0429688 3.804688 0.800781 3.390625 C 1.648438 2.976562 2.8125 3.617188 3.40625 4.824219 Z M 3.40625 4.824219 "/>
<path style=" stroke:none;fill-rule:nonzero;fill:rgb(30%,30%,30%);fill-opacity:1;" d="M 16.042969 3.3125 C 16.925781 3.644531 17.253906 4.933594 16.777344 6.191406 C 16.304688 7.445312 15.203125 8.195312 14.324219 7.863281 C 13.445312 7.53125 13.117188 6.242188 13.589844 4.988281 C 14.066406 3.730469 15.164062 2.980469 16.042969 3.3125 Z M 16.042969 3.3125 "/>
<path style=" stroke:none;fill-rule:nonzero;fill:rgb(30%,30%,30%);fill-opacity:1;" d="M 11.863281 0.0273438 C 12.882812 0.234375 13.472656 1.554688 13.183594 2.976562 C 12.894531 4.398438 11.835938 5.386719 10.816406 5.179688 C 9.800781 4.972656 9.210938 3.652344 9.5 2.230469 C 9.789062 0.808594 10.847656 -0.179688 11.863281 0.0273438 Z M 11.863281 0.0273438 "/>
<path style=" stroke:none;fill-rule:nonzero;fill:rgb(30%,30%,30%);fill-opacity:1;" d="M 7.59375 2.320312 C 7.867188 3.761719 7.273438 5.082031 6.269531 5.273438 C 5.265625 5.460938 4.230469 4.445312 3.957031 3.003906 C 3.683594 1.5625 4.277344 0.242188 5.285156 0.0507812 C 6.289062 -0.136719 7.324219 0.878906 7.59375 2.320312 Z M 7.59375 2.320312 "/>
<path style=" stroke:none;fill-rule:nonzero;fill:rgb(30%,30%,30%);fill-opacity:1;" d="M 8.464844 17 C 5.371094 17 2.867188 14.496094 2.867188 11.410156 C 2.867188 8.320312 5.371094 5.816406 8.464844 5.816406 C 11.554688 5.816406 14.0625 8.320312 14.0625 11.410156 C 14.0625 14.496094 11.554688 17 8.464844 17 Z M 11.691406 10.5 L 9.367188 10.5 L 9.367188 8.179688 C 9.367188 8.113281 9.3125 8.058594 9.246094 8.058594 L 7.695312 8.058594 C 7.628906 8.058594 7.574219 8.113281 7.574219 8.179688 L 7.574219 10.5 L 5.25 10.5 C 5.183594 10.5 5.128906 10.554688 5.128906 10.621094 L 5.128906 12.171875 C 5.128906 12.238281 5.183594 12.292969 5.25 12.292969 L 7.574219 12.292969 L 7.574219 14.613281 C 7.574219 14.679688 7.628906 14.734375 7.695312 14.734375 L 9.246094 14.734375 C 9.3125 14.734375 9.367188 14.679688 9.367188 14.613281 L 9.367188 12.292969 L 11.691406 12.292969 C 11.757812 12.292969 11.8125 12.238281 11.8125 12.171875 L 11.8125 10.621094 C 11.8125 10.554688 11.757812 10.5 11.691406 10.5 Z M 11.691406 10.5 "/>
</g>
</g>
</svg>
