<?xml version="1.0" encoding="UTF-8"?>
<svg xmlns="http://www.w3.org/2000/svg" xmlns:xlink="http://www.w3.org/1999/xlink" width="11px" height="10px" viewBox="0 0 11 10" version="1.1">
<g id="surface1">
<path style=" stroke:none;fill-rule:nonzero;fill:rgb(30%,30%,30%);fill-opacity:1;" d="M 7.394531 3.316406 L 3.816406 3.316406 C 3.910156 2.359375 4.679688 1.632812 5.605469 1.632812 C 6.527344 1.632812 7.300781 2.359375 7.394531 3.316406 Z M 4.714844 9.074219 L 4.714844 7.421875 L 3.132812 7.421875 L 3.132812 5.773438 L 4.714844 5.773438 L 4.714844 4.125 L 6.300781 4.125 L 6.300781 5.773438 L 7.882812 5.773438 L 7.882812 7.421875 L 6.300781 7.421875 L 6.300781 9.074219 Z M 9.167969 3.371094 L 8.707031 3.371094 C 8.707031 3.363281 8.707031 3.351562 8.707031 3.34375 C 8.707031 1.5 7.269531 0.00390625 5.5 0.00390625 C 3.730469 0.00390625 2.292969 1.5 2.292969 3.34375 C 2.292969 3.351562 2.292969 3.363281 2.292969 3.371094 L 1.832031 3.371094 C 0.824219 3.371094 0 4.230469 0 5.277344 L 0 9.996094 L 11 9.996094 L 11 5.277344 C 11 4.230469 10.175781 3.371094 9.167969 3.371094 Z M 9.167969 3.371094 "/>
</g>
</svg>
