<?xml version="1.0" encoding="UTF-8"?>
<svg xmlns="http://www.w3.org/2000/svg" xmlns:xlink="http://www.w3.org/1999/xlink" width="11px" height="10px" viewBox="0 0 11 10" version="1.1">
<g id="surface1">
<path style=" stroke:none;fill-rule:nonzero;fill:rgb(30%,30%,30%);fill-opacity:1;" d="M 5.597656 1.453125 C 5.597656 2.253906 4.976562 2.90625 4.210938 2.90625 C 3.445312 2.90625 2.824219 2.253906 2.824219 1.453125 C 2.824219 0.652344 3.445312 0 4.210938 0 C 4.976562 0 5.597656 0.652344 5.597656 1.453125 Z M 5.597656 1.453125 "/>
<path style=" stroke:none;fill-rule:nonzero;fill:rgb(30%,30%,30%);fill-opacity:1;" d="M 10.097656 6.832031 C 10.097656 7.632812 9.476562 8.285156 8.710938 8.285156 C 7.945312 8.285156 7.324219 7.632812 7.324219 6.832031 C 7.324219 6.03125 7.945312 5.378906 8.710938 5.378906 C 9.476562 5.378906 10.097656 6.03125 10.097656 6.832031 Z M 10.097656 6.832031 "/>
<path style=" stroke:none;fill-rule:nonzero;fill:rgb(30%,30%,30%);fill-opacity:1;" d="M 10.363281 8.714844 L 8.023438 8.714844 C 8.023438 8.714844 8.675781 8.984375 8.023438 8.714844 C 7.371094 8.445312 6.921875 6.722656 5.871094 6.832031 L 0.507812 6.832031 C 0.226562 6.832031 0 7.070312 0 7.363281 L 0 8.703125 C 0 8.996094 0.226562 9.234375 0.507812 9.234375 L 6.65625 9.234375 C 6.683594 9.234375 6.710938 9.246094 6.730469 9.265625 L 7.191406 9.714844 C 7.199219 9.71875 7.203125 9.722656 7.207031 9.726562 C 7.324219 9.898438 7.511719 10 7.714844 10 L 10.386719 10 C 10.554688 10 10.71875 9.925781 10.832031 9.796875 C 10.949219 9.667969 11.007812 9.496094 11 9.316406 C 10.980469 8.976562 10.691406 8.714844 10.363281 8.714844 Z M 10.363281 8.714844 "/>
<path style=" stroke:none;fill-rule:nonzero;fill:rgb(30%,30%,30%);fill-opacity:1;" d="M 7.003906 5.257812 L 5.933594 4.804688 C 5.8125 4.746094 5.496094 4.585938 5.496094 4.585938 C 5.496094 4.585938 3.941406 3.027344 3.625 2.992188 L 3.199219 2.945312 C 3.027344 2.921875 2.671875 2.890625 2.574219 2.914062 C 2.398438 2.9375 2.242188 3.058594 2.179688 3.234375 L 1.421875 5.242188 L 1.359375 5.398438 L 1.363281 5.398438 L 0.976562 6.464844 L 3.253906 6.464844 L 4.320312 5.121094 C 4.359375 5.074219 4.429688 5.066406 4.480469 5.105469 L 5.066406 5.597656 C 5.089844 5.617188 5.117188 5.636719 5.148438 5.648438 L 6.394531 6.144531 L 6.382812 6.125 L 6.527344 6.179688 C 6.789062 6.300781 7.152344 6.25 7.269531 5.976562 C 7.382812 5.699219 7.261719 5.378906 7.003906 5.257812 Z M 7.003906 5.257812 "/>
<path style=" stroke:none;fill-rule:nonzero;fill:rgb(30%,30%,30%);fill-opacity:1;" d="M 0.195312 9.625 L 6.683594 9.625 C 6.78125 9.625 6.859375 9.707031 6.859375 9.808594 C 6.859375 9.910156 6.78125 9.992188 6.683594 9.992188 L 0.195312 9.992188 C 0.0976562 9.992188 0.0195312 9.910156 0.0195312 9.808594 C 0.0195312 9.707031 0.0976562 9.625 0.195312 9.625 Z M 0.195312 9.625 "/>
</g>
</svg>
