<?xml version="1.0" encoding="UTF-8"?>
<svg xmlns="http://www.w3.org/2000/svg" xmlns:xlink="http://www.w3.org/1999/xlink" width="11px" height="11px" viewBox="0 0 11 11" version="1.1">
<g id="surface1">
<path style=" stroke:none;fill-rule:nonzero;fill:rgb(30%,30%,30%);fill-opacity:1;" d="M 10.578125 3.398438 C 9.730469 1.34375 7.722656 0.00390625 5.5 0.00390625 C 3.273438 0.00390625 1.269531 1.34375 0.417969 3.398438 C -0.277344 5.085938 -0.09375 7.011719 0.917969 8.535156 C 1.929688 10.058594 3.632812 10.980469 5.460938 10.996094 C 5.476562 10.996094 5.488281 10.996094 5.5 10.996094 C 7.339844 10.996094 9.054688 10.078125 10.074219 8.554688 C 11.09375 7.027344 11.285156 5.09375 10.578125 3.398438 Z M 9.285156 1.667969 C 9.796875 2.171875 10.203125 2.777344 10.476562 3.441406 L 8.691406 4.179688 C 8.339844 3.324219 7.675781 2.660156 6.824219 2.308594 L 7.5625 0.527344 C 8.203125 0.792969 8.789062 1.179688 9.285156 1.667969 Z M 6.78125 8.589844 C 5.074219 9.296875 3.117188 8.484375 2.410156 6.78125 C 2.066406 5.953125 2.066406 5.042969 2.410156 4.222656 C 2.746094 3.402344 3.398438 2.75 4.21875 2.410156 C 5.039062 2.074219 5.960938 2.074219 6.78125 2.414062 C 7.605469 2.753906 8.246094 3.394531 8.589844 4.222656 C 8.933594 5.046875 8.933594 5.957031 8.589844 6.78125 C 8.253906 7.601562 7.601562 8.25 6.78125 8.589844 Z M 1.660156 1.722656 C 2.167969 1.210938 2.773438 0.804688 3.4375 0.527344 L 4.175781 2.308594 C 3.328125 2.660156 2.65625 3.332031 2.304688 4.179688 L 0.523438 3.441406 C 0.785156 2.800781 1.175781 2.214844 1.660156 1.722656 Z M 1.71875 9.335938 C 1.207031 8.828125 0.796875 8.226562 0.523438 7.558594 L 2.304688 6.824219 C 2.660156 7.675781 3.324219 8.339844 4.175781 8.691406 L 3.4375 10.472656 C 2.796875 10.207031 2.210938 9.820312 1.71875 9.335938 Z M 9.339844 9.277344 C 8.832031 9.789062 8.230469 10.195312 7.5625 10.46875 L 7.558594 10.472656 L 6.820312 8.691406 L 6.824219 8.691406 C 7.671875 8.34375 8.34375 7.671875 8.695312 6.824219 L 10.476562 7.558594 C 10.214844 8.199219 9.828125 8.785156 9.339844 9.277344 Z M 9.339844 9.277344 "/>
</g>
</svg>
