<?xml version="1.0" encoding="UTF-8" standalone="no"?>
<!-- Created with Inkscape (http://www.inkscape.org/) -->

<svg
   xmlns:dc="http://purl.org/dc/elements/1.1/"
   xmlns:cc="http://creativecommons.org/ns#"
   xmlns:rdf="http://www.w3.org/1999/02/22-rdf-syntax-ns#"
   xmlns:svg="http://www.w3.org/2000/svg"
   xmlns="http://www.w3.org/2000/svg"
   xmlns:xlink="http://www.w3.org/1999/xlink"
   xmlns:sodipodi="http://sodipodi.sourceforge.net/DTD/sodipodi-0.dtd"
   xmlns:inkscape="http://www.inkscape.org/namespaces/inkscape"
   width="30px"
   height="30px"
   version="1.1"
   id="svg8"
   inkscape:version="0.92.4 5da689c313, 2019-01-14"
   sodipodi:docname="container.svg">
  <defs
     id="defs2" />
  <sodipodi:namedview
     id="base"
     pagecolor="#ffffff"
     bordercolor="#666666"
     borderopacity="1.0"
     inkscape:pageopacity="0.0"
     inkscape:pageshadow="2"
     inkscape:zoom="13.049334"
     inkscape:cx="18.679046"
     inkscape:cy="12.165829"
     inkscape:document-units="px"
     inkscape:current-layer="layer1"
     showgrid="false"
     inkscape:snap-page="false"
     units="px"
     inkscape:window-width="1884"
     inkscape:window-height="1061"
     inkscape:window-x="0"
     inkscape:window-y="0"
     inkscape:window-maximized="1"
     fit-margin-top="0"
     fit-margin-left="0"
     fit-margin-right="0"
     fit-margin-bottom="0" />
  <metadata
     id="metadata5">
    <rdf:RDF>
      <cc:Work
         rdf:about="">
        <dc:format>image/svg+xml</dc:format>
        <dc:type
           rdf:resource="http://purl.org/dc/dcmitype/StillImage" />
        <dc:title></dc:title>
      </cc:Work>
    </rdf:RDF>
  </metadata>
    <circle
       style="color:#000000;clip-rule:nonzero;display:inline;overflow:visible;visibility:visible;opacity:1;isolation:auto;mix-blend-mode:normal;color-interpolation:sRGB;color-interpolation-filters:linearRGB;solid-color:#000000;solid-opacity:1;vector-effect:none;fill:#e42224;fill-opacity:1;fill-rule:evenodd;stroke:#ffffff;stroke-width:1;stroke-linecap:butt;stroke-linejoin:miter;stroke-miterlimit:4;stroke-dasharray:none;stroke-dashoffset:0;stroke-opacity:1;marker:none;color-rendering:auto;image-rendering:auto;shape-rendering:auto;text-rendering:auto;enable-background:accumulate"
       id="path815"
       cx="15"
       cy="15"
       r="14.5" />
<g transform="translate(8,6)"><g id="surface1">
<path style=" stroke:none;fill-rule:nonzero;fill:#FFFFFF;fill-opacity:1;" d="M 4.5625 12.289062 C 4.195312 12.285156 3.894531 12 3.890625 11.644531 C 3.882812 11.28125 4.199219 10.980469 4.574219 10.980469 L 6.078125 10.980469 L 6.078125 9.847656 L 4.574219 9.847656 C 4.199219 9.847656 3.882812 9.550781 3.890625 9.1875 C 3.894531 8.828125 4.195312 8.542969 4.5625 8.542969 L 6.078125 8.542969 L 6.078125 4.921875 C 4.914062 4.695312 4.03125 3.691406 4.03125 2.496094 L 4.03125 0.00390625 L 2.226562 0.00390625 L 2.226562 5.519531 C 2.226562 6.539062 1.367188 7.375 0.316406 7.375 C 0.210938 7.371094 0.105469 7.363281 0 7.34375 L 0 15.785156 C 0 16.453125 0.554688 16.996094 1.242188 16.996094 L 6.078125 16.996094 L 6.078125 12.289062 Z M 4.5625 12.289062 "/>
<path style=" stroke:none;fill-rule:nonzero;fill:#FFFFFF;fill-opacity:1;" d="M 8.4375 12.289062 C 8.804688 12.285156 9.105469 12 9.109375 11.644531 C 9.117188 11.28125 8.800781 10.980469 8.425781 10.980469 L 6.921875 10.980469 L 6.921875 9.847656 L 8.425781 9.847656 C 8.800781 9.847656 9.117188 9.550781 9.109375 9.1875 C 9.105469 8.828125 8.804688 8.542969 8.4375 8.542969 L 6.921875 8.542969 L 6.921875 4.921875 C 8.085938 4.695312 8.96875 3.691406 8.96875 2.496094 L 8.96875 0.00390625 L 10.773438 0.00390625 L 10.773438 5.519531 C 10.773438 6.539062 11.632812 7.375 12.683594 7.375 C 12.789062 7.371094 12.894531 7.363281 13 7.34375 L 13 15.785156 C 13 16.453125 12.445312 16.996094 11.757812 16.996094 L 6.921875 16.996094 L 6.921875 12.289062 Z M 8.4375 12.289062 "/>
</g>
</g>
</svg>
