<?xml version="1.0" encoding="UTF-8"?>
<svg xmlns="http://www.w3.org/2000/svg" xmlns:xlink="http://www.w3.org/1999/xlink" width="10px" height="9px" viewBox="0 0 10 9" version="1.1">
<g id="surface1">
<path style=" stroke:none;fill-rule:nonzero;fill:rgb(30%,30%,30%);fill-opacity:1;" d="M 10 1.496094 L 10 9 L 0 9 L 0 1.496094 L 1.441406 1.496094 L 1.441406 0 L 3.558594 0 L 3.558594 1.496094 L 6.449219 1.496094 L 6.449219 0 L 8.566406 0 L 8.566406 1.496094 Z M 5.019531 4.503906 L 3.605469 4.503906 L 3.605469 3.019531 L 2.417969 3.019531 L 2.417969 4.503906 L 0.929688 4.503906 L 0.929688 5.714844 L 2.417969 5.714844 L 2.417969 7.320312 L 3.605469 7.320312 L 3.605469 5.714844 L 5.019531 5.714844 Z M 9.285156 4.503906 L 6.394531 4.503906 L 6.394531 5.714844 L 9.285156 5.714844 Z M 9.285156 4.503906 "/>
</g>
</svg>
