<?xml version="1.0" encoding="UTF-8" standalone="no"?>
<!-- Created with Inkscape (http://www.inkscape.org/) -->

<svg
   xmlns:dc="http://purl.org/dc/elements/1.1/"
   xmlns:cc="http://creativecommons.org/ns#"
   xmlns:rdf="http://www.w3.org/1999/02/22-rdf-syntax-ns#"
   xmlns:svg="http://www.w3.org/2000/svg"
   xmlns="http://www.w3.org/2000/svg"
   xmlns:xlink="http://www.w3.org/1999/xlink"
   xmlns:sodipodi="http://sodipodi.sourceforge.net/DTD/sodipodi-0.dtd"
   xmlns:inkscape="http://www.inkscape.org/namespaces/inkscape"
   width="30px"
   height="30px"
   version="1.1"
   id="svg8"
   inkscape:version="0.92.4 5da689c313, 2019-01-14"
   sodipodi:docname="container.svg">
  <defs
     id="defs2" />
  <sodipodi:namedview
     id="base"
     pagecolor="#ffffff"
     bordercolor="#666666"
     borderopacity="1.0"
     inkscape:pageopacity="0.0"
     inkscape:pageshadow="2"
     inkscape:zoom="13.049334"
     inkscape:cx="18.679046"
     inkscape:cy="12.165829"
     inkscape:document-units="px"
     inkscape:current-layer="layer1"
     showgrid="false"
     inkscape:snap-page="false"
     units="px"
     inkscape:window-width="1884"
     inkscape:window-height="1061"
     inkscape:window-x="0"
     inkscape:window-y="0"
     inkscape:window-maximized="1"
     fit-margin-top="0"
     fit-margin-left="0"
     fit-margin-right="0"
     fit-margin-bottom="0" />
  <metadata
     id="metadata5">
    <rdf:RDF>
      <cc:Work
         rdf:about="">
        <dc:format>image/svg+xml</dc:format>
        <dc:type
           rdf:resource="http://purl.org/dc/dcmitype/StillImage" />
        <dc:title></dc:title>
      </cc:Work>
    </rdf:RDF>
  </metadata>
    <circle
       style="color:#000000;clip-rule:nonzero;display:inline;overflow:visible;visibility:visible;opacity:1;isolation:auto;mix-blend-mode:normal;color-interpolation:sRGB;color-interpolation-filters:linearRGB;solid-color:#000000;solid-opacity:1;vector-effect:none;fill:#2d4a9a;fill-opacity:1;fill-rule:evenodd;stroke:#ffffff;stroke-width:1;stroke-linecap:butt;stroke-linejoin:miter;stroke-miterlimit:4;stroke-dasharray:none;stroke-dashoffset:0;stroke-opacity:1;marker:none;color-rendering:auto;image-rendering:auto;shape-rendering:auto;text-rendering:auto;enable-background:accumulate"
       id="path815"
       cx="15"
       cy="15"
       r="14.5" />
<g transform="translate(9,7)"><g id="surface1">
<path style=" stroke:none;fill-rule:nonzero;fill:#FFFFFF;fill-opacity:1;" d="M 11.230469 6.132812 C 10.898438 4.957031 11.238281 4.03125 11.460938 3.417969 C 11.546875 3.1875 11.628906 3.007812 11.632812 2.847656 C 11.632812 2.488281 10.03125 0.929688 10.03125 0.929688 L 9.675781 1.246094 L 10.230469 1.824219 C 10.023438 2.269531 9.996094 2.800781 10.164062 3.308594 C 10.25 3.570312 10.382812 3.816406 10.5625 4.03125 C 10.410156 4.640625 10.332031 5.410156 10.582031 6.300781 C 11.136719 8.261719 11.742188 12.460938 10.929688 13.488281 C 10.828125 13.617188 10.71875 13.675781 10.570312 13.675781 C 10.160156 13.675781 9.851562 13.550781 9.632812 13.289062 C 9.15625 12.726562 9.1875 11.636719 9.277344 11.199219 C 9.292969 11.132812 9.355469 10.960938 9.425781 10.777344 C 9.8125 9.734375 10.707031 7.320312 9.390625 5.816406 C 9.394531 5.777344 9.398438 5.734375 9.398438 5.691406 L 9.398438 1.335938 C 9.394531 0.597656 8.777344 0.00390625 8.015625 0 L 2.285156 0 C 1.523438 0.00390625 0.902344 0.597656 0.902344 1.335938 L 0.902344 5.691406 C 0.902344 6.425781 1.523438 7.023438 2.285156 7.027344 L 2.355469 7.027344 L 2.355469 15.242188 L 0.398438 15.242188 C 0.183594 15.242188 0.0078125 15.414062 0.0078125 15.621094 C 0.0078125 15.832031 0.183594 16 0.398438 16 L 9.902344 16 C 10.117188 16 10.292969 15.832031 10.292969 15.621094 C 10.292969 15.414062 10.117188 15.242188 9.902344 15.242188 L 7.945312 15.242188 L 7.945312 7.027344 L 8.015625 7.027344 C 8.433594 7.027344 8.828125 6.84375 9.089844 6.523438 C 9.832031 7.761719 9.140625 9.621094 8.792969 10.558594 C 8.703125 10.796875 8.644531 10.957031 8.621094 11.070312 C 8.617188 11.089844 8.289062 12.730469 9.113281 13.699219 C 9.464844 14.113281 9.953125 14.324219 10.570312 14.324219 C 10.925781 14.324219 11.234375 14.171875 11.464844 13.882812 C 12.652344 12.378906 11.503906 7.105469 11.230469 6.132812 Z M 10.484375 3.210938 C 10.378906 2.890625 10.363281 2.550781 10.445312 2.222656 C 10.683594 2.449219 10.90625 2.703125 10.957031 2.8125 C 10.9375 2.902344 10.886719 3.046875 10.828125 3.199219 C 10.785156 3.328125 10.730469 3.472656 10.679688 3.628906 C 10.597656 3.5 10.53125 3.359375 10.484375 3.210938 Z M 8.230469 5.089844 C 8.226562 5.625 7.78125 6.058594 7.226562 6.0625 L 3.074219 6.0625 C 2.519531 6.058594 2.070312 5.625 2.070312 5.089844 L 2.070312 1.9375 C 2.070312 1.402344 2.519531 0.96875 3.074219 0.964844 L 7.226562 0.964844 C 7.78125 0.96875 8.226562 1.402344 8.230469 1.9375 Z M 8.230469 5.089844 "/>
</g>
</g>
</svg>
