<?xml version="1.0" encoding="UTF-8"?>
<svg xmlns="http://www.w3.org/2000/svg" xmlns:xlink="http://www.w3.org/1999/xlink" width="11px" height="10px" viewBox="0 0 11 10" version="1.1">
<g id="surface1">
<path style=" stroke:none;fill-rule:nonzero;fill:rgb(30%,30%,30%);fill-opacity:1;" d="M 7.644531 9.480469 C 8.40625 10.171875 9.636719 10.171875 10.398438 9.480469 C 11.152344 8.789062 11.152344 7.660156 10.398438 6.96875 C 10.03125 6.632812 9.535156 6.449219 9.023438 6.449219 C 8.800781 6.449219 8.582031 6.484375 8.375 6.546875 L 6.632812 4.957031 L 5.933594 5.597656 L 6.160156 5.800781 C 6.28125 5.917969 6.355469 6.070312 6.355469 6.222656 C 6.355469 6.367188 6.292969 6.503906 6.183594 6.601562 L 6.117188 6.664062 L 7.1875 7.636719 C 6.9375 8.28125 7.117188 9 7.644531 9.480469 Z M 8.082031 8.226562 C 8.082031 7.996094 8.183594 7.78125 8.359375 7.621094 C 8.726562 7.289062 9.3125 7.289062 9.679688 7.621094 C 9.972656 7.894531 10.03125 8.320312 9.820312 8.652344 C 9.609375 8.988281 9.179688 9.148438 8.773438 9.050781 C 8.367188 8.949219 8.085938 8.613281 8.082031 8.226562 Z M 4.84375 6.867188 C 4.726562 6.996094 4.78125 7.21875 4.78125 7.21875 L 4.78125 7.226562 C 4.800781 7.433594 4.699219 7.527344 4.644531 7.578125 L 2.097656 9.902344 C 2.058594 9.9375 2.007812 9.960938 1.953125 9.96875 C 1.890625 9.988281 1.824219 10 1.753906 10 C 1.429688 10 0.996094 9.785156 0.621094 9.445312 C 0.140625 9.007812 -0.09375 8.503906 0.0390625 8.21875 C 0.046875 8.167969 0.0703125 8.121094 0.109375 8.085938 L 2.65625 5.761719 C 2.726562 5.699219 2.816406 5.636719 2.976562 5.636719 C 2.992188 5.636719 3.011719 5.636719 3.03125 5.636719 C 3.039062 5.636719 3.042969 5.640625 3.050781 5.640625 C 3.09375 5.644531 3.132812 5.648438 3.171875 5.648438 C 3.25 5.648438 3.355469 5.636719 3.433594 5.582031 C 3.558594 5.488281 3.535156 5.3125 3.511719 5.214844 C 3.488281 5.113281 3.480469 5.007812 3.570312 4.929688 L 3.957031 4.570312 C 4.003906 4.527344 4.070312 4.503906 4.140625 4.507812 C 4.222656 4.507812 4.304688 4.539062 4.363281 4.59375 L 5.144531 5.304688 L 5.925781 6.019531 C 6.039062 6.125 6.054688 6.292969 5.945312 6.390625 L 5.558594 6.742188 C 5.511719 6.789062 5.449219 6.808594 5.375 6.808594 C 5.332031 6.808594 5.285156 6.804688 5.242188 6.792969 C 5.191406 6.78125 5.140625 6.777344 5.089844 6.777344 C 4.976562 6.777344 4.894531 6.808594 4.84375 6.867188 Z M 11 0.519531 L 10.171875 1.808594 L 10.136719 1.8125 C 10.101562 1.8125 9.984375 1.855469 9.863281 1.898438 C 9.703125 1.957031 9.507812 2.027344 9.316406 2.078125 L 5.761719 5.320312 L 5.4375 5.027344 C 5.417969 5.007812 5.289062 4.890625 5.203125 4.8125 L 5.15625 4.769531 L 8.742188 1.496094 L 8.75 1.480469 C 8.871094 1.085938 8.964844 0.796875 9.089844 0.707031 L 9.101562 0.703125 L 10.558594 0 Z M 2.195312 1.992188 C 2.597656 1.621094 2.660156 1.375 2.398438 1.136719 L 1.28125 0.121094 L 1.390625 0.0898438 C 1.578125 0.0351562 1.773438 0.0078125 1.96875 0.0078125 C 2.484375 0.0078125 2.976562 0.195312 3.34375 0.53125 C 3.871094 1.011719 4.046875 1.726562 3.800781 2.371094 L 5.554688 3.972656 L 4.855469 4.613281 L 4.597656 4.375 C 4.476562 4.265625 4.3125 4.203125 4.140625 4.203125 C 3.984375 4.199219 3.832031 4.257812 3.722656 4.355469 L 3.65625 4.417969 L 2.609375 3.460938 C 1.90625 3.683594 1.125 3.523438 0.59375 3.042969 C 0.0820312 2.578125 -0.105469 1.886719 0.109375 1.257812 L 0.140625 1.160156 L 1.257812 2.179688 C 1.363281 2.273438 1.46875 2.320312 1.582031 2.320312 C 1.753906 2.320312 1.949219 2.214844 2.195312 1.992188 Z M 2.195312 1.992188 "/>
</g>
</svg>
