<?xml version="1.0" encoding="UTF-8"?>
<svg xmlns="http://www.w3.org/2000/svg" xmlns:xlink="http://www.w3.org/1999/xlink" width="9px" height="11px" viewBox="0 0 9 11" version="1.1">
<g id="surface1">
<path style=" stroke:none;fill-rule:nonzero;fill:rgb(30%,30%,30%);fill-opacity:1;" d="M 5.03125 6.632812 C 4.214844 6.1875 4.222656 6.710938 3.753906 6.648438 C 3.367188 6.597656 3.273438 6.359375 2.925781 6.472656 C 2.570312 6.59375 2.398438 6.703125 2.390625 6.71875 C 2.355469 6.835938 2.367188 6.9375 2.367188 7.046875 C 2.367188 8.214844 3.335938 9.164062 4.527344 9.164062 C 5.671875 9.164062 6.6875 8.167969 6.6875 7.046875 C 6.6875 6.929688 6.671875 6.703125 6.660156 6.699219 C 6.386719 6.558594 6.191406 6.464844 6.019531 6.457031 C 5.683594 6.4375 5.339844 6.800781 5.03125 6.632812 Z M 5.03125 6.632812 "/>
<path style=" stroke:none;fill-rule:nonzero;fill:rgb(30%,30%,30%);fill-opacity:1;" d="M 0 3.066406 L 0 10.417969 C 0 10.738281 0.265625 11 0.59375 11 L 8.40625 11 C 8.734375 11 9 10.738281 9 10.417969 L 9 3.066406 Z M 4.527344 9.894531 C 2.921875 9.894531 1.617188 8.617188 1.617188 7.046875 C 1.617188 5.480469 2.921875 4.203125 4.527344 4.203125 C 6.132812 4.203125 7.4375 5.480469 7.4375 7.046875 C 7.4375 8.617188 6.132812 9.894531 4.527344 9.894531 Z M 4.527344 9.894531 "/>
<path style=" stroke:none;fill-rule:nonzero;fill:rgb(30%,30%,30%);fill-opacity:1;" d="M 4.527344 9.628906 C 3.074219 9.628906 1.890625 8.472656 1.890625 7.046875 C 1.890625 5.625 3.074219 4.46875 4.527344 4.46875 C 5.980469 4.46875 7.164062 5.625 7.164062 7.046875 C 7.164062 8.472656 5.980469 9.628906 4.527344 9.628906 Z M 4.527344 4.789062 C 3.253906 4.789062 2.21875 5.800781 2.21875 7.046875 C 2.21875 8.292969 3.253906 9.308594 4.527344 9.308594 C 5.800781 9.308594 6.835938 8.292969 6.835938 7.046875 C 6.835938 5.800781 5.800781 4.789062 4.527344 4.789062 Z M 4.527344 4.789062 "/>
<path style=" stroke:none;fill-rule:nonzero;fill:rgb(30%,30%,30%);fill-opacity:1;" d="M 9 2.765625 L 0 2.765625 L 0 0.582031 C 0 0.261719 0.265625 0 0.59375 0 L 8.40625 0 C 8.734375 0 9 0.261719 9 0.582031 Z M 0.882812 0.925781 C 0.683594 0.925781 0.523438 1.085938 0.523438 1.28125 C 0.523438 1.476562 0.683594 1.636719 0.882812 1.636719 C 1.085938 1.636719 1.246094 1.476562 1.246094 1.28125 C 1.246094 1.085938 1.085938 0.925781 0.882812 0.925781 Z M 1.929688 0.925781 C 1.730469 0.925781 1.570312 1.085938 1.570312 1.28125 C 1.570312 1.476562 1.730469 1.636719 1.929688 1.636719 C 2.132812 1.636719 2.292969 1.476562 2.292969 1.28125 C 2.292969 1.085938 2.132812 0.925781 1.929688 0.925781 Z M 2.980469 0.925781 C 2.78125 0.925781 2.621094 1.085938 2.621094 1.28125 C 2.621094 1.476562 2.78125 1.636719 2.980469 1.636719 C 3.183594 1.636719 3.34375 1.476562 3.34375 1.28125 C 3.34375 1.085938 3.183594 0.925781 2.980469 0.925781 Z M 7.859375 0.734375 C 7.550781 0.734375 7.300781 0.980469 7.300781 1.28125 C 7.300781 1.582031 7.550781 1.828125 7.859375 1.828125 C 8.167969 1.828125 8.417969 1.582031 8.417969 1.28125 C 8.417969 0.980469 8.167969 0.734375 7.859375 0.734375 Z M 6.59375 1.386719 L 6.59375 1.152344 C 6.59375 1.019531 6.480469 0.910156 6.34375 0.910156 L 4.761719 0.910156 C 4.625 0.910156 4.511719 1.019531 4.511719 1.152344 L 4.511719 1.386719 C 4.511719 1.523438 4.625 1.628906 4.761719 1.628906 L 6.34375 1.628906 C 6.480469 1.628906 6.59375 1.523438 6.59375 1.386719 Z M 6.59375 1.386719 "/>
</g>
</svg>
