<?xml version="1.0" encoding="UTF-8"?>
<svg xmlns="http://www.w3.org/2000/svg" xmlns:xlink="http://www.w3.org/1999/xlink" width="11px" height="11px" viewBox="0 0 11 11" version="1.1">
<g id="surface1">
<path style=" stroke:none;fill-rule:nonzero;fill:rgb(30%,30%,30%);fill-opacity:1;" d="M 8.652344 2.347656 L 9.445312 2.347656 L 9.445312 8.488281 C 9.445312 8.992188 9.03125 9.402344 8.527344 9.402344 L 2.511719 9.402344 C 2.003906 9.402344 1.59375 8.992188 1.59375 8.488281 L 1.59375 2.347656 L 2.367188 2.347656 L 2.40625 7.042969 C 3.152344 7.035156 3.917969 7.71875 3.957031 8.585938 L 7.097656 8.59375 C 7.097656 7.652344 7.925781 7.054688 8.652344 7.054688 Z M 2.511719 10.289062 C 2.15625 10.289062 1.859375 10.113281 1.710938 9.8125 C 1.703125 9.792969 1.683594 9.785156 1.667969 9.789062 C 1.652344 9.792969 1.636719 9.808594 1.636719 9.828125 L 1.636719 10.117188 C 1.636719 10.601562 2.007812 11 2.460938 11 L 8.578125 11 C 9.03125 11 9.398438 10.601562 9.398438 10.117188 L 9.398438 9.898438 C 9.398438 9.878906 9.386719 9.867188 9.371094 9.859375 C 9.355469 9.855469 9.339844 9.863281 9.328125 9.878906 C 9.164062 10.148438 8.859375 10.289062 8.527344 10.289062 Z M 7.738281 4.703125 C 7.738281 3.863281 6.746094 3.183594 5.519531 3.183594 C 4.292969 3.183594 3.300781 3.863281 3.300781 4.703125 C 3.300781 5.542969 4.292969 6.222656 5.519531 6.222656 C 6.746094 6.222656 7.738281 5.542969 7.738281 4.703125 Z M 0.96875 0 C 0.433594 0.00390625 0 0.433594 0 0.96875 L 0 2.289062 C 0 2.75 0.332031 3.148438 0.785156 3.238281 L 0.796875 3.148438 L 0.816406 1.5625 L 10.242188 1.5625 L 10.242188 3.230469 C 10.683594 3.132812 11 2.738281 11 2.289062 L 11 0.96875 C 11 0.433594 10.566406 0.00390625 10.03125 0 Z M 0.96875 0 "/>
</g>
</svg>
