<?xml version="1.0" encoding="UTF-8" standalone="no"?>
<!-- Created with Inkscape (http://www.inkscape.org/) -->

<svg
   xmlns:dc="http://purl.org/dc/elements/1.1/"
   xmlns:cc="http://creativecommons.org/ns#"
   xmlns:rdf="http://www.w3.org/1999/02/22-rdf-syntax-ns#"
   xmlns:svg="http://www.w3.org/2000/svg"
   xmlns="http://www.w3.org/2000/svg"
   xmlns:xlink="http://www.w3.org/1999/xlink"
   xmlns:sodipodi="http://sodipodi.sourceforge.net/DTD/sodipodi-0.dtd"
   xmlns:inkscape="http://www.inkscape.org/namespaces/inkscape"
   width="30px"
   height="30px"
   version="1.1"
   id="svg8"
   inkscape:version="0.92.4 5da689c313, 2019-01-14"
   sodipodi:docname="container.svg">
  <defs
     id="defs2" />
  <sodipodi:namedview
     id="base"
     pagecolor="#ffffff"
     bordercolor="#666666"
     borderopacity="1.0"
     inkscape:pageopacity="0.0"
     inkscape:pageshadow="2"
     inkscape:zoom="13.049334"
     inkscape:cx="18.679046"
     inkscape:cy="12.165829"
     inkscape:document-units="px"
     inkscape:current-layer="layer1"
     showgrid="false"
     inkscape:snap-page="false"
     units="px"
     inkscape:window-width="1884"
     inkscape:window-height="1061"
     inkscape:window-x="0"
     inkscape:window-y="0"
     inkscape:window-maximized="1"
     fit-margin-top="0"
     fit-margin-left="0"
     fit-margin-right="0"
     fit-margin-bottom="0" />
  <metadata
     id="metadata5">
    <rdf:RDF>
      <cc:Work
         rdf:about="">
        <dc:format>image/svg+xml</dc:format>
        <dc:type
           rdf:resource="http://purl.org/dc/dcmitype/StillImage" />
        <dc:title></dc:title>
      </cc:Work>
    </rdf:RDF>
  </metadata>
    <circle
       style="color:#000000;clip-rule:nonzero;display:inline;overflow:visible;visibility:visible;opacity:1;isolation:auto;mix-blend-mode:normal;color-interpolation:sRGB;color-interpolation-filters:linearRGB;solid-color:#000000;solid-opacity:1;vector-effect:none;fill:#ffffff;fill-opacity:1;fill-rule:evenodd;stroke:#2d4a9a;stroke-width:1;stroke-linecap:butt;stroke-linejoin:miter;stroke-miterlimit:4;stroke-dasharray:none;stroke-dashoffset:0;stroke-opacity:1;marker:none;color-rendering:auto;image-rendering:auto;shape-rendering:auto;text-rendering:auto;enable-background:accumulate"
       id="path815"
       cx="15"
       cy="15"
       r="14.5" />
<g transform="translate(9,6)"><g id="surface1">
<path style=" stroke:none;fill-rule:nonzero;fill:rgb(30%,30%,30%);fill-opacity:1;" d="M 6.929688 0.00390625 C 4.15625 -0.113281 2.019531 2.394531 2.597656 5.070312 C 2.773438 5.679688 2.488281 5.035156 4.300781 9.117188 C 4.804688 10.246094 5.464844 11.734375 6.34375 13.714844 C 7.957031 10.78125 8.953125 8.972656 9.582031 7.828125 C 10.816406 5.585938 10.621094 5.917969 10.816406 5.414062 C 11.621094 2.769531 9.683594 0.121094 6.929688 0.00390625 Z M 9.730469 4.390625 C 9.660156 6.015625 8.269531 7.28125 6.621094 7.210938 C 4.976562 7.144531 3.695312 5.769531 3.765625 4.140625 C 3.835938 2.511719 5.226562 1.25 6.875 1.320312 C 8.519531 1.386719 9.796875 2.761719 9.730469 4.390625 Z M 9.730469 4.390625 "/>
<path style=" stroke:none;fill-rule:nonzero;fill:rgb(30%,30%,30%);fill-opacity:1;" d="M 10.335938 7.199219 C 10.242188 7.480469 10.265625 7.390625 9.929688 8.066406 L 9.933594 15.535156 C 9.933594 15.890625 9.699219 16.207031 9.355469 16.316406 C 8.601562 16.554688 9.144531 16.355469 1.480469 16.355469 C 1.023438 16.355469 0.65625 15.992188 0.652344 15.539062 L 0.648438 8 C 0.652344 7.550781 1.019531 7.1875 1.476562 7.183594 L 2.917969 7.183594 C 2.828125 6.917969 2.785156 6.804688 2.742188 6.542969 L 1.476562 6.542969 C 0.660156 6.542969 0 7.195312 0 8 L 0.00390625 15.542969 C 0.00390625 16.347656 0.664062 17 1.480469 17 L 9.105469 16.996094 C 9.921875 16.996094 10.582031 16.34375 10.582031 15.535156 L 10.578125 7.996094 C 10.578125 7.714844 10.496094 7.4375 10.335938 7.199219 Z M 10.335938 7.199219 "/>
</g>
</g>
</svg>
