<?xml version="1.0" encoding="UTF-8"?>
<svg xmlns="http://www.w3.org/2000/svg" xmlns:xlink="http://www.w3.org/1999/xlink" width="9px" height="10px" viewBox="0 0 9 10" version="1.1">
<g id="surface1">
<path style=" stroke:none;fill-rule:nonzero;fill:rgb(30%,30%,30%);fill-opacity:1;" d="M 4.570312 2.144531 L 4.570312 1.429688 L 6.460938 1.429688 L 5.46875 0.71875 L 6.410156 0.0117188 C 5.746094 0.0078125 5.082031 0.00390625 4.417969 0 L 4.417969 2.144531 L 0 4.34375 L 0 4.980469 L 8.988281 4.980469 L 8.988281 4.34375 Z M 4.570312 2.144531 "/>
<path style=" stroke:none;fill-rule:nonzero;fill:rgb(30%,30%,30%);fill-opacity:1;" d="M 8.988281 5.253906 L 9 6.457031 L 8.289062 6.457031 L 8.289062 9.246094 L 9 9.246094 L 9 10 C 8.820312 9.984375 0.183594 10 0.0078125 10 L 0.0078125 9.238281 L 0.6875 9.238281 L 0.6875 6.457031 L 0.0117188 6.457031 L 0 5.28125 C 1.402344 5.28125 2.769531 5.285156 4.132812 5.28125 C 5.753906 5.277344 7.371094 5.261719 8.988281 5.253906 Z M 2.488281 6.414062 L 1.519531 6.414062 L 1.519531 9.210938 L 2.488281 9.210938 Z M 4.226562 6.414062 L 3.257812 6.414062 L 3.257812 9.210938 L 4.226562 9.210938 Z M 5.964844 6.414062 L 4.996094 6.414062 L 4.996094 9.210938 L 5.964844 9.210938 Z M 7.703125 6.414062 L 6.734375 6.414062 L 6.734375 9.210938 L 7.703125 9.210938 Z M 7.703125 6.414062 "/>
</g>
</svg>
