<?xml version="1.0" encoding="UTF-8"?>
<svg xmlns="http://www.w3.org/2000/svg" xmlns:xlink="http://www.w3.org/1999/xlink" width="11px" height="8px" viewBox="0 0 11 8" version="1.1">
<g id="surface1">
<path style=" stroke:none;fill-rule:nonzero;fill:rgb(30%,30%,30%);fill-opacity:1;" d="M 11 6.933594 L 11 6.949219 C 11 7.53125 10.535156 8 9.960938 8 L 1.039062 8 C 0.464844 8 0 7.53125 0 6.949219 L 0 6.933594 C 0 6.835938 0.0429688 6.742188 0.113281 6.679688 C 0.292969 7.03125 0.648438 7.25 1.039062 7.25 L 9.960938 7.25 C 10.351562 7.25 10.707031 7.03125 10.886719 6.679688 C 10.957031 6.742188 11 6.835938 11 6.933594 Z M 10.210938 4.046875 L 10.210938 2.40625 C 9.378906 2.40625 8.699219 1.722656 8.699219 0.878906 L 2.363281 0.878906 C 2.363281 1.722656 1.6875 2.40625 0.851562 2.40625 L 0.851562 4.046875 C 1.6875 4.046875 2.363281 4.734375 2.363281 5.578125 L 8.699219 5.578125 C 8.699219 4.734375 9.378906 4.046875 10.210938 4.046875 Z M 10.15625 6.40625 L 0.878906 6.40625 C 0.429688 6.40625 0.0625 6.039062 0.0625 5.585938 L 0.0625 0 L 10.96875 0 L 10.96875 5.585938 C 10.96875 6.039062 10.605469 6.40625 10.15625 6.40625 Z M 5.53125 1.644531 C 4.261719 1.644531 3.234375 2.355469 3.234375 3.234375 C 3.234375 4.117188 4.261719 4.828125 5.53125 4.828125 C 6.800781 4.828125 7.832031 4.117188 7.832031 3.234375 C 7.832031 2.355469 6.800781 1.644531 5.53125 1.644531 Z M 5.53125 1.644531 "/>
</g>
</svg>
