<?xml version="1.0" encoding="UTF-8" standalone="no"?>
<!-- Created with Inkscape (http://www.inkscape.org/) -->

<svg
   xmlns:dc="http://purl.org/dc/elements/1.1/"
   xmlns:cc="http://creativecommons.org/ns#"
   xmlns:rdf="http://www.w3.org/1999/02/22-rdf-syntax-ns#"
   xmlns:svg="http://www.w3.org/2000/svg"
   xmlns="http://www.w3.org/2000/svg"
   xmlns:xlink="http://www.w3.org/1999/xlink"
   xmlns:sodipodi="http://sodipodi.sourceforge.net/DTD/sodipodi-0.dtd"
   xmlns:inkscape="http://www.inkscape.org/namespaces/inkscape"
   width="30px"
   height="30px"
   version="1.1"
   id="svg8"
   inkscape:version="0.92.4 5da689c313, 2019-01-14"
   sodipodi:docname="container.svg">
  <defs
     id="defs2" />
  <sodipodi:namedview
     id="base"
     pagecolor="#ffffff"
     bordercolor="#666666"
     borderopacity="1.0"
     inkscape:pageopacity="0.0"
     inkscape:pageshadow="2"
     inkscape:zoom="13.049334"
     inkscape:cx="18.679046"
     inkscape:cy="12.165829"
     inkscape:document-units="px"
     inkscape:current-layer="layer1"
     showgrid="false"
     inkscape:snap-page="false"
     units="px"
     inkscape:window-width="1884"
     inkscape:window-height="1061"
     inkscape:window-x="0"
     inkscape:window-y="0"
     inkscape:window-maximized="1"
     fit-margin-top="0"
     fit-margin-left="0"
     fit-margin-right="0"
     fit-margin-bottom="0" />
  <metadata
     id="metadata5">
    <rdf:RDF>
      <cc:Work
         rdf:about="">
        <dc:format>image/svg+xml</dc:format>
        <dc:type
           rdf:resource="http://purl.org/dc/dcmitype/StillImage" />
        <dc:title></dc:title>
      </cc:Work>
    </rdf:RDF>
  </metadata>
    <circle
       style="color:#000000;clip-rule:nonzero;display:inline;overflow:visible;visibility:visible;opacity:1;isolation:auto;mix-blend-mode:normal;color-interpolation:sRGB;color-interpolation-filters:linearRGB;solid-color:#000000;solid-opacity:1;vector-effect:none;fill:#2d4a9a;fill-opacity:1;fill-rule:evenodd;stroke:#ffffff;stroke-width:1;stroke-linecap:butt;stroke-linejoin:miter;stroke-miterlimit:4;stroke-dasharray:none;stroke-dashoffset:0;stroke-opacity:1;marker:none;color-rendering:auto;image-rendering:auto;shape-rendering:auto;text-rendering:auto;enable-background:accumulate"
       id="path815"
       cx="15"
       cy="15"
       r="14.5" />
<g transform="translate(6,7)"><g id="surface1">
<path style=" stroke:none;fill-rule:nonzero;fill:#FFFFFF;fill-opacity:1;" d="M 8.648438 2.179688 C 8.648438 3.382812 7.691406 4.359375 6.507812 4.359375 C 5.324219 4.359375 4.363281 3.382812 4.363281 2.179688 C 4.363281 0.976562 5.324219 0 6.507812 0 C 7.691406 0 8.648438 0.976562 8.648438 2.179688 Z M 8.648438 2.179688 "/>
<path style=" stroke:none;fill-rule:nonzero;fill:#FFFFFF;fill-opacity:1;" d="M 15.605469 10.25 C 15.605469 11.453125 14.644531 12.425781 13.460938 12.425781 C 12.277344 12.425781 11.320312 11.453125 11.320312 10.25 C 11.320312 9.046875 12.277344 8.070312 13.460938 8.070312 C 14.644531 8.070312 15.605469 9.046875 15.605469 10.25 Z M 15.605469 10.25 "/>
<path style=" stroke:none;fill-rule:nonzero;fill:#FFFFFF;fill-opacity:1;" d="M 16.015625 13.074219 L 12.402344 13.074219 C 12.398438 13.074219 13.40625 13.476562 12.398438 13.070312 C 11.390625 12.667969 10.695312 10.085938 9.070312 10.246094 L 0.785156 10.246094 C 0.351562 10.246094 0 10.605469 0 11.046875 L 0 13.054688 C 0 13.496094 0.351562 13.851562 0.785156 13.851562 L 10.289062 13.851562 C 10.328125 13.851562 10.371094 13.867188 10.398438 13.898438 L 11.117188 14.570312 C 11.125 14.578125 11.132812 14.582031 11.136719 14.589844 C 11.3125 14.835938 11.652344 14.992188 11.921875 15 L 16.050781 15 C 16.3125 15 16.5625 14.890625 16.742188 14.695312 C 16.921875 14.503906 17.015625 14.242188 17 13.976562 C 16.96875 13.460938 16.523438 13.074219 16.015625 13.074219 Z M 16.015625 13.074219 "/>
<path style=" stroke:none;fill-rule:nonzero;fill:#FFFFFF;fill-opacity:1;" d="M 10.820312 7.890625 L 9.171875 7.203125 C 8.980469 7.121094 8.496094 6.878906 8.496094 6.878906 C 8.496094 6.878906 6.09375 4.539062 5.601562 4.488281 L 4.941406 4.417969 C 4.675781 4.386719 4.128906 4.335938 3.980469 4.371094 C 3.703125 4.40625 3.46875 4.589844 3.367188 4.851562 L 2.199219 7.863281 L 2.101562 8.097656 L 2.109375 8.097656 L 1.507812 9.699219 L 5.027344 9.699219 L 6.675781 7.683594 C 6.738281 7.609375 6.847656 7.597656 6.921875 7.660156 L 7.828125 8.394531 C 7.867188 8.425781 7.910156 8.453125 7.957031 8.46875 L 10.085938 9.269531 C 10.488281 9.449219 11.054688 9.371094 11.234375 8.960938 C 11.410156 8.550781 11.226562 8.070312 10.820312 7.890625 Z M 10.820312 7.890625 "/>
</g>
</g>
</svg>
