<?xml version="1.0" encoding="UTF-8" standalone="no"?>
<!-- Created with Inkscape (http://www.inkscape.org/) -->

<svg
   xmlns:dc="http://purl.org/dc/elements/1.1/"
   xmlns:cc="http://creativecommons.org/ns#"
   xmlns:rdf="http://www.w3.org/1999/02/22-rdf-syntax-ns#"
   xmlns:svg="http://www.w3.org/2000/svg"
   xmlns="http://www.w3.org/2000/svg"
   xmlns:xlink="http://www.w3.org/1999/xlink"
   xmlns:sodipodi="http://sodipodi.sourceforge.net/DTD/sodipodi-0.dtd"
   xmlns:inkscape="http://www.inkscape.org/namespaces/inkscape"
   width="30px"
   height="30px"
   version="1.1"
   id="svg8"
   inkscape:version="0.92.4 5da689c313, 2019-01-14"
   sodipodi:docname="container.svg">
  <defs
     id="defs2" />
  <sodipodi:namedview
     id="base"
     pagecolor="#ffffff"
     bordercolor="#666666"
     borderopacity="1.0"
     inkscape:pageopacity="0.0"
     inkscape:pageshadow="2"
     inkscape:zoom="13.049334"
     inkscape:cx="18.679046"
     inkscape:cy="12.165829"
     inkscape:document-units="px"
     inkscape:current-layer="layer1"
     showgrid="false"
     inkscape:snap-page="false"
     units="px"
     inkscape:window-width="1884"
     inkscape:window-height="1061"
     inkscape:window-x="0"
     inkscape:window-y="0"
     inkscape:window-maximized="1"
     fit-margin-top="0"
     fit-margin-left="0"
     fit-margin-right="0"
     fit-margin-bottom="0" />
  <metadata
     id="metadata5">
    <rdf:RDF>
      <cc:Work
         rdf:about="">
        <dc:format>image/svg+xml</dc:format>
        <dc:type
           rdf:resource="http://purl.org/dc/dcmitype/StillImage" />
        <dc:title></dc:title>
      </cc:Work>
    </rdf:RDF>
  </metadata>
    <circle
       style="color:#000000;clip-rule:nonzero;display:inline;overflow:visible;visibility:visible;opacity:1;isolation:auto;mix-blend-mode:normal;color-interpolation:sRGB;color-interpolation-filters:linearRGB;solid-color:#000000;solid-opacity:1;vector-effect:none;fill:#2a62ac;fill-opacity:1;fill-rule:evenodd;stroke:#ffffff;stroke-width:1;stroke-linecap:butt;stroke-linejoin:miter;stroke-miterlimit:4;stroke-dasharray:none;stroke-dashoffset:0;stroke-opacity:1;marker:none;color-rendering:auto;image-rendering:auto;shape-rendering:auto;text-rendering:auto;enable-background:accumulate"
       id="path815"
       cx="15"
       cy="15"
       r="14.5" />
<g transform="translate(7,7)"><g id="surface1">
<path style=" stroke:none;fill-rule:nonzero;fill:#FFFFFF;fill-opacity:1;" d="M 14.542969 7.445312 C 14.019531 6.433594 11.960938 5.675781 11.960938 5.757812 C 11.960938 6.316406 12.132812 8.101562 11.390625 9.066406 C 11.335938 9.136719 9.75 8.070312 9.75 8.070312 C 9.75 8.070312 11.117188 5.539062 11.21875 5.363281 C 11.328125 5.179688 11.792969 4.765625 11.144531 4.457031 C 10.589844 4.191406 9.632812 3.984375 8.382812 3.933594 L 8.386719 2.617188 C 9.0625 2.464844 9.539062 1.761719 9.351562 0.984375 C 9.25 0.558594 8.941406 0.214844 8.539062 0.0703125 C 7.804688 -0.183594 7.074219 0.265625 6.890625 0.984375 C 6.851562 1.132812 6.933594 1.289062 7.078125 1.335938 C 7.21875 1.382812 7.371094 1.304688 7.421875 1.15625 C 7.496094 0.941406 7.613281 0.738281 7.8125 0.648438 C 8.445312 0.367188 9.054688 1.011719 8.757812 1.671875 C 8.640625 1.929688 8.375 2.046875 8.101562 2.066406 C 7.953125 2.082031 7.835938 2.210938 7.832031 2.367188 L 7.824219 3.925781 C 6.472656 3.960938 5.441406 4.179688 4.855469 4.457031 C 4.207031 4.765625 4.671875 5.179688 4.78125 5.363281 C 4.882812 5.539062 6.25 8.070312 6.25 8.070312 C 6.25 8.070312 4.664062 9.136719 4.609375 9.066406 C 3.867188 8.101562 4.039062 6.316406 4.039062 5.757812 C 4.039062 5.675781 1.980469 6.433594 1.457031 7.445312 C 0.605469 9.085938 0 15 0 15 L 2.847656 15 C 2.847656 15 3.15625 12.945312 3.382812 12.554688 C 3.511719 12.328125 3.574219 12.683594 3.578125 12.917969 C 3.582031 13.332031 3.527344 15 3.527344 15 L 7.59375 15 L 7.539062 7.867188 L 5.988281 5.316406 C 5.945312 5.25 5.992188 5.132812 6.0625 5.09375 C 6.613281 4.808594 7.417969 4.765625 7.824219 4.761719 L 8.382812 4.765625 C 8.816406 4.785156 9.46875 4.851562 9.9375 5.09375 C 10.007812 5.132812 10.054688 5.25 10.011719 5.316406 L 8.460938 7.867188 L 8.40625 15 L 12.472656 15 C 12.472656 15 12.417969 13.332031 12.421875 12.917969 C 12.425781 12.683594 12.488281 12.328125 12.617188 12.554688 C 12.84375 12.945312 13.152344 15 13.152344 15 L 16 15 C 16 15 15.394531 9.085938 14.542969 7.445312 Z M 14.542969 7.445312 "/>
</g>
</g>
</svg>
