<?xml version="1.0" encoding="UTF-8" standalone="no"?>
<!-- Created with Inkscape (http://www.inkscape.org/) -->

<svg
   xmlns:dc="http://purl.org/dc/elements/1.1/"
   xmlns:cc="http://creativecommons.org/ns#"
   xmlns:rdf="http://www.w3.org/1999/02/22-rdf-syntax-ns#"
   xmlns:svg="http://www.w3.org/2000/svg"
   xmlns="http://www.w3.org/2000/svg"
   xmlns:xlink="http://www.w3.org/1999/xlink"
   xmlns:sodipodi="http://sodipodi.sourceforge.net/DTD/sodipodi-0.dtd"
   xmlns:inkscape="http://www.inkscape.org/namespaces/inkscape"
   width="30px"
   height="30px"
   version="1.1"
   id="svg8"
   inkscape:version="0.92.4 5da689c313, 2019-01-14"
   sodipodi:docname="container.svg">
  <defs
     id="defs2" />
  <sodipodi:namedview
     id="base"
     pagecolor="#ffffff"
     bordercolor="#666666"
     borderopacity="1.0"
     inkscape:pageopacity="0.0"
     inkscape:pageshadow="2"
     inkscape:zoom="13.049334"
     inkscape:cx="18.679046"
     inkscape:cy="12.165829"
     inkscape:document-units="px"
     inkscape:current-layer="layer1"
     showgrid="false"
     inkscape:snap-page="false"
     units="px"
     inkscape:window-width="1884"
     inkscape:window-height="1061"
     inkscape:window-x="0"
     inkscape:window-y="0"
     inkscape:window-maximized="1"
     fit-margin-top="0"
     fit-margin-left="0"
     fit-margin-right="0"
     fit-margin-bottom="0" />
  <metadata
     id="metadata5">
    <rdf:RDF>
      <cc:Work
         rdf:about="">
        <dc:format>image/svg+xml</dc:format>
        <dc:type
           rdf:resource="http://purl.org/dc/dcmitype/StillImage" />
        <dc:title></dc:title>
      </cc:Work>
    </rdf:RDF>
  </metadata>
    <circle
       style="color:#000000;clip-rule:nonzero;display:inline;overflow:visible;visibility:visible;opacity:1;isolation:auto;mix-blend-mode:normal;color-interpolation:sRGB;color-interpolation-filters:linearRGB;solid-color:#000000;solid-opacity:1;vector-effect:none;fill:#ffffff;fill-opacity:1;fill-rule:evenodd;stroke:#2a62ac;stroke-width:1;stroke-linecap:butt;stroke-linejoin:miter;stroke-miterlimit:4;stroke-dasharray:none;stroke-dashoffset:0;stroke-opacity:1;marker:none;color-rendering:auto;image-rendering:auto;shape-rendering:auto;text-rendering:auto;enable-background:accumulate"
       id="path815"
       cx="15"
       cy="15"
       r="14.5" />
<g transform="translate(8,6)"><g id="surface1">
<path style=" stroke:none;fill-rule:nonzero;fill:rgb(30%,30%,30%);fill-opacity:1;" d="M 8.867188 17 L 0.894531 17 C 0.402344 17 0.0078125 16.601562 0.00390625 16.113281 L 0.00390625 4.109375 C 0.0078125 3.664062 0.367188 3.300781 0.816406 3.300781 L 8.867188 3.300781 C 9.359375 3.300781 9.753906 3.695312 9.757812 4.1875 L 9.757812 16.113281 C 9.753906 16.601562 9.359375 17 8.867188 17 Z M 0.816406 4.011719 C 0.761719 4.011719 0.71875 4.054688 0.71875 4.109375 L 0.71875 16.113281 C 0.71875 16.210938 0.796875 16.289062 0.894531 16.289062 L 8.867188 16.289062 C 8.964844 16.289062 9.042969 16.210938 9.042969 16.113281 L 9.042969 4.1875 C 9.042969 4.089844 8.964844 4.011719 8.867188 4.011719 Z M 0.816406 4.011719 "/>
<path style=" stroke:none;fill-rule:nonzero;fill:rgb(30%,30%,30%);fill-opacity:1;" d="M 10.398438 15.402344 L 9.9375 15.402344 L 9.9375 14.691406 L 10.398438 14.691406 C 10.496094 14.691406 10.574219 14.613281 10.574219 14.519531 L 10.574219 2.589844 C 10.574219 2.492188 10.496094 2.414062 10.398438 2.414062 L 2.347656 2.414062 C 2.292969 2.414062 2.246094 2.457031 2.246094 2.511719 L 2.246094 2.988281 L 1.535156 2.988281 L 1.535156 2.511719 C 1.535156 2.066406 1.898438 1.703125 2.347656 1.703125 L 10.398438 1.703125 C 10.886719 1.703125 11.285156 2.101562 11.285156 2.589844 L 11.285156 14.519531 C 11.285156 15.007812 10.886719 15.402344 10.398438 15.402344 Z M 10.398438 15.402344 "/>
<path style=" stroke:none;fill-rule:nonzero;fill:rgb(30%,30%,30%);fill-opacity:1;" d="M 12.105469 13.699219 L 11.609375 13.699219 L 11.609375 12.988281 L 12.105469 12.988281 C 12.203125 12.988281 12.28125 12.910156 12.28125 12.8125 L 12.28125 0.886719 C 12.28125 0.789062 12.203125 0.710938 12.105469 0.710938 L 4.054688 0.710938 C 4 0.710938 3.957031 0.753906 3.957031 0.808594 L 3.957031 1.386719 L 3.242188 1.386719 L 3.242188 0.808594 C 3.246094 0.363281 3.605469 0 4.054688 0 L 12.105469 0 C 12.597656 0 12.992188 0.398438 12.996094 0.886719 L 12.996094 12.8125 C 12.992188 13.304688 12.597656 13.699219 12.105469 13.699219 Z M 12.105469 13.699219 "/>
<path style=" stroke:none;fill-rule:nonzero;fill:rgb(30%,30%,30%);fill-opacity:1;" d="M 7.871094 8.800781 L 1.679688 8.800781 C 1.519531 8.800781 1.394531 8.675781 1.394531 8.519531 C 1.394531 8.359375 1.519531 8.234375 1.679688 8.234375 L 7.871094 8.234375 C 8.027344 8.234375 8.15625 8.359375 8.15625 8.519531 C 8.15625 8.675781 8.027344 8.800781 7.871094 8.800781 Z M 7.871094 8.800781 "/>
<path style=" stroke:none;fill-rule:nonzero;fill:rgb(30%,30%,30%);fill-opacity:1;" d="M 7.871094 7.167969 L 1.679688 7.167969 C 1.519531 7.167969 1.394531 7.042969 1.394531 6.886719 C 1.394531 6.726562 1.519531 6.601562 1.679688 6.601562 L 7.871094 6.601562 C 8.027344 6.601562 8.15625 6.726562 8.15625 6.886719 C 8.15625 7.042969 8.027344 7.167969 7.871094 7.167969 Z M 7.871094 7.167969 "/>
<path style=" stroke:none;fill-rule:nonzero;fill:rgb(30%,30%,30%);fill-opacity:1;" d="M 7.871094 10.433594 L 1.679688 10.433594 C 1.519531 10.433594 1.394531 10.308594 1.394531 10.148438 C 1.394531 9.992188 1.519531 9.867188 1.679688 9.867188 L 7.871094 9.867188 C 8.027344 9.867188 8.15625 9.992188 8.15625 10.148438 C 8.15625 10.308594 8.027344 10.433594 7.871094 10.433594 Z M 7.871094 10.433594 "/>
<path style=" stroke:none;fill-rule:nonzero;fill:rgb(30%,30%,30%);fill-opacity:1;" d="M 7.871094 12.066406 L 1.679688 12.066406 C 1.519531 12.066406 1.394531 11.941406 1.394531 11.78125 C 1.394531 11.625 1.519531 11.5 1.679688 11.5 L 7.871094 11.5 C 8.027344 11.5 8.15625 11.625 8.15625 11.78125 C 8.15625 11.941406 8.027344 12.066406 7.871094 12.066406 Z M 7.871094 12.066406 "/>
<path style=" stroke:none;fill-rule:nonzero;fill:rgb(30%,30%,30%);fill-opacity:1;" d="M 7.871094 13.699219 L 1.679688 13.699219 C 1.519531 13.699219 1.394531 13.570312 1.394531 13.414062 C 1.394531 13.257812 1.519531 13.132812 1.679688 13.132812 L 7.871094 13.132812 C 8.027344 13.132812 8.15625 13.257812 8.15625 13.414062 C 8.15625 13.570312 8.027344 13.699219 7.871094 13.699219 Z M 7.871094 13.699219 "/>
</g>
</g>
</svg>
