<?xml version="1.0" encoding="UTF-8" standalone="no"?>
<!-- Created with Inkscape (http://www.inkscape.org/) -->

<svg
   xmlns:dc="http://purl.org/dc/elements/1.1/"
   xmlns:cc="http://creativecommons.org/ns#"
   xmlns:rdf="http://www.w3.org/1999/02/22-rdf-syntax-ns#"
   xmlns:svg="http://www.w3.org/2000/svg"
   xmlns="http://www.w3.org/2000/svg"
   xmlns:xlink="http://www.w3.org/1999/xlink"
   xmlns:sodipodi="http://sodipodi.sourceforge.net/DTD/sodipodi-0.dtd"
   xmlns:inkscape="http://www.inkscape.org/namespaces/inkscape"
   width="30px"
   height="30px"
   version="1.1"
   id="svg8"
   inkscape:version="0.92.4 5da689c313, 2019-01-14"
   sodipodi:docname="container.svg">
  <defs
     id="defs2" />
  <sodipodi:namedview
     id="base"
     pagecolor="#ffffff"
     bordercolor="#666666"
     borderopacity="1.0"
     inkscape:pageopacity="0.0"
     inkscape:pageshadow="2"
     inkscape:zoom="13.049334"
     inkscape:cx="18.679046"
     inkscape:cy="12.165829"
     inkscape:document-units="px"
     inkscape:current-layer="layer1"
     showgrid="false"
     inkscape:snap-page="false"
     units="px"
     inkscape:window-width="1884"
     inkscape:window-height="1061"
     inkscape:window-x="0"
     inkscape:window-y="0"
     inkscape:window-maximized="1"
     fit-margin-top="0"
     fit-margin-left="0"
     fit-margin-right="0"
     fit-margin-bottom="0" />
  <metadata
     id="metadata5">
    <rdf:RDF>
      <cc:Work
         rdf:about="">
        <dc:format>image/svg+xml</dc:format>
        <dc:type
           rdf:resource="http://purl.org/dc/dcmitype/StillImage" />
        <dc:title></dc:title>
      </cc:Work>
    </rdf:RDF>
  </metadata>
    <circle
       style="color:#000000;clip-rule:nonzero;display:inline;overflow:visible;visibility:visible;opacity:1;isolation:auto;mix-blend-mode:normal;color-interpolation:sRGB;color-interpolation-filters:linearRGB;solid-color:#000000;solid-opacity:1;vector-effect:none;fill:#2d4a9a;fill-opacity:1;fill-rule:evenodd;stroke:#ffffff;stroke-width:1;stroke-linecap:butt;stroke-linejoin:miter;stroke-miterlimit:4;stroke-dasharray:none;stroke-dashoffset:0;stroke-opacity:1;marker:none;color-rendering:auto;image-rendering:auto;shape-rendering:auto;text-rendering:auto;enable-background:accumulate"
       id="path815"
       cx="15"
       cy="15"
       r="14.5" />
<g transform="translate(8,7)"><g id="surface1">
<path style=" stroke:none;fill-rule:nonzero;fill:#FFFFFF;fill-opacity:1;" d="M 7.105469 3.433594 L 7.105469 2.285156 L 10.050781 2.285156 L 8.507812 1.152344 L 9.972656 0.0195312 C 8.941406 0.015625 7.90625 0.0078125 6.875 0.00390625 L 6.875 3.433594 L 0 6.949219 L 0 7.96875 L 13.980469 7.96875 L 13.980469 6.949219 Z M 7.105469 3.433594 "/>
<path style=" stroke:none;fill-rule:nonzero;fill:#FFFFFF;fill-opacity:1;" d="M 13.980469 8.40625 L 14 10.328125 L 12.890625 10.328125 L 12.890625 14.796875 L 14 14.796875 L 14 15.996094 C 13.71875 15.976562 0.289062 15.996094 0.0078125 15.996094 L 0.0078125 14.78125 L 1.070312 14.78125 L 1.070312 10.328125 L 0.0195312 10.328125 L 0 8.453125 C 2.179688 8.453125 4.304688 8.457031 6.429688 8.449219 C 8.949219 8.441406 11.464844 8.421875 13.980469 8.40625 Z M 3.867188 10.265625 L 2.359375 10.265625 L 2.359375 14.738281 L 3.867188 14.738281 Z M 6.574219 10.265625 L 5.066406 10.265625 L 5.066406 14.738281 L 6.574219 14.738281 Z M 9.277344 10.265625 L 7.769531 10.265625 L 7.769531 14.738281 L 9.277344 14.738281 Z M 11.980469 10.265625 L 10.472656 10.265625 L 10.472656 14.738281 L 11.980469 14.738281 Z M 11.980469 10.265625 "/>
</g>
</g>
</svg>
