<?xml version="1.0" encoding="UTF-8"?>
<svg xmlns="http://www.w3.org/2000/svg" xmlns:xlink="http://www.w3.org/1999/xlink" width="7px" height="10px" viewBox="0 0 7 10" version="1.1">
<g id="surface1">
<path style=" stroke:none;fill-rule:nonzero;fill:rgb(30%,30%,30%);fill-opacity:1;" d="M 4.410156 0.00390625 C 2.644531 -0.0664062 1.285156 1.410156 1.652344 2.984375 C 1.765625 3.34375 1.582031 2.964844 2.738281 5.363281 C 3.058594 6.027344 3.480469 6.902344 4.035156 8.066406 C 5.0625 6.34375 5.699219 5.277344 6.097656 4.605469 C 6.882812 3.285156 6.757812 3.480469 6.882812 3.183594 C 7.394531 1.628906 6.164062 0.0703125 4.410156 0.00390625 Z M 6.191406 2.582031 C 6.148438 3.539062 5.261719 4.28125 4.214844 4.242188 C 3.167969 4.203125 2.351562 3.394531 2.398438 2.4375 C 2.441406 1.476562 3.328125 0.734375 4.375 0.777344 C 5.421875 0.816406 6.234375 1.625 6.191406 2.582031 Z M 6.191406 2.582031 "/>
<path style=" stroke:none;fill-rule:nonzero;fill:rgb(30%,30%,30%);fill-opacity:1;" d="M 6.578125 4.234375 C 6.519531 4.398438 6.53125 4.347656 6.320312 4.746094 L 6.320312 9.140625 C 6.320312 9.347656 6.171875 9.535156 5.953125 9.597656 C 5.472656 9.738281 5.820312 9.621094 0.941406 9.621094 C 0.652344 9.621094 0.417969 9.40625 0.414062 9.140625 L 0.414062 4.707031 C 0.414062 4.441406 0.648438 4.226562 0.9375 4.226562 L 1.855469 4.226562 C 1.800781 4.070312 1.769531 4.003906 1.746094 3.847656 L 0.9375 3.847656 C 0.421875 3.847656 0 4.234375 0 4.707031 L 0 9.140625 C 0.00390625 9.617188 0.421875 10 0.941406 10 L 5.796875 10 C 6.3125 9.996094 6.734375 9.613281 6.734375 9.140625 L 6.730469 4.703125 C 6.730469 4.539062 6.679688 4.375 6.578125 4.234375 Z M 6.578125 4.234375 "/>
</g>
</svg>
