<?xml version="1.0" encoding="UTF-8" standalone="no"?>
<!-- Created with Inkscape (http://www.inkscape.org/) -->

<svg
   xmlns:dc="http://purl.org/dc/elements/1.1/"
   xmlns:cc="http://creativecommons.org/ns#"
   xmlns:rdf="http://www.w3.org/1999/02/22-rdf-syntax-ns#"
   xmlns:svg="http://www.w3.org/2000/svg"
   xmlns="http://www.w3.org/2000/svg"
   xmlns:xlink="http://www.w3.org/1999/xlink"
   xmlns:sodipodi="http://sodipodi.sourceforge.net/DTD/sodipodi-0.dtd"
   xmlns:inkscape="http://www.inkscape.org/namespaces/inkscape"
   width="30px"
   height="30px"
   version="1.1"
   id="svg8"
   inkscape:version="0.92.4 5da689c313, 2019-01-14"
   sodipodi:docname="container.svg">
  <defs
     id="defs2" />
  <sodipodi:namedview
     id="base"
     pagecolor="#ffffff"
     bordercolor="#666666"
     borderopacity="1.0"
     inkscape:pageopacity="0.0"
     inkscape:pageshadow="2"
     inkscape:zoom="13.049334"
     inkscape:cx="18.679046"
     inkscape:cy="12.165829"
     inkscape:document-units="px"
     inkscape:current-layer="layer1"
     showgrid="false"
     inkscape:snap-page="false"
     units="px"
     inkscape:window-width="1884"
     inkscape:window-height="1061"
     inkscape:window-x="0"
     inkscape:window-y="0"
     inkscape:window-maximized="1"
     fit-margin-top="0"
     fit-margin-left="0"
     fit-margin-right="0"
     fit-margin-bottom="0" />
  <metadata
     id="metadata5">
    <rdf:RDF>
      <cc:Work
         rdf:about="">
        <dc:format>image/svg+xml</dc:format>
        <dc:type
           rdf:resource="http://purl.org/dc/dcmitype/StillImage" />
        <dc:title></dc:title>
      </cc:Work>
    </rdf:RDF>
  </metadata>
    <circle
       style="color:#000000;clip-rule:nonzero;display:inline;overflow:visible;visibility:visible;opacity:1;isolation:auto;mix-blend-mode:normal;color-interpolation:sRGB;color-interpolation-filters:linearRGB;solid-color:#000000;solid-opacity:1;vector-effect:none;fill:#2d4a9a;fill-opacity:1;fill-rule:evenodd;stroke:#ffffff;stroke-width:1;stroke-linecap:butt;stroke-linejoin:miter;stroke-miterlimit:4;stroke-dasharray:none;stroke-dashoffset:0;stroke-opacity:1;marker:none;color-rendering:auto;image-rendering:auto;shape-rendering:auto;text-rendering:auto;enable-background:accumulate"
       id="path815"
       cx="15"
       cy="15"
       r="14.5" />
<g transform="translate(7,9)"><g id="surface1">
<path style=" stroke:none;fill-rule:nonzero;fill:#FFFFFF;fill-opacity:1;" d="M 16 10.398438 L 16 10.425781 C 16 11.292969 15.324219 12 14.488281 12 L 1.511719 12 C 0.675781 12 0 11.292969 0 10.425781 L 0 10.398438 C 0 10.253906 0.0625 10.117188 0.167969 10.023438 C 0.425781 10.546875 0.945312 10.878906 1.511719 10.878906 L 14.488281 10.878906 C 15.054688 10.878906 15.574219 10.546875 15.832031 10.023438 C 15.9375 10.117188 16 10.253906 16 10.398438 Z M 14.855469 6.074219 L 14.855469 3.609375 C 13.640625 3.609375 12.65625 2.582031 12.65625 1.316406 L 3.4375 1.316406 C 3.4375 2.582031 2.453125 3.609375 1.238281 3.609375 L 1.238281 6.074219 C 2.453125 6.074219 3.4375 7.097656 3.4375 8.367188 L 12.65625 8.367188 C 12.65625 7.097656 13.640625 6.074219 14.855469 6.074219 Z M 14.769531 9.609375 L 1.277344 9.609375 C 0.621094 9.609375 0.09375 9.058594 0.09375 8.375 L 0.09375 0 L 15.953125 0 L 15.953125 8.375 C 15.953125 9.058594 15.421875 9.609375 14.769531 9.609375 Z M 8.046875 2.464844 C 6.199219 2.464844 4.703125 3.535156 4.703125 4.855469 C 4.703125 6.171875 6.199219 7.242188 8.046875 7.242188 C 9.894531 7.242188 11.390625 6.171875 11.390625 4.855469 C 11.390625 3.535156 9.894531 2.464844 8.046875 2.464844 Z M 8.046875 2.464844 "/>
</g>
</g>
</svg>
