<?xml version="1.0" encoding="UTF-8"?>
<svg xmlns="http://www.w3.org/2000/svg" xmlns:xlink="http://www.w3.org/1999/xlink" width="11px" height="10px" viewBox="0 0 11 10" version="1.1">
<g id="surface1">
<path style=" stroke:none;fill-rule:nonzero;fill:rgb(30%,30%,30%);fill-opacity:1;" d="M 10 4.964844 C 9.636719 4.289062 8.222656 3.785156 8.222656 3.839844 C 8.222656 4.210938 8.339844 5.402344 7.832031 6.046875 C 7.792969 6.09375 6.703125 5.382812 6.703125 5.382812 C 6.703125 5.382812 7.640625 3.695312 7.714844 3.578125 C 7.789062 3.453125 8.109375 3.175781 7.660156 2.96875 C 7.28125 2.796875 6.621094 2.65625 5.765625 2.621094 L 5.765625 1.742188 C 6.230469 1.644531 6.558594 1.175781 6.429688 0.65625 C 6.359375 0.371094 6.148438 0.140625 5.871094 0.046875 C 5.363281 -0.121094 4.863281 0.179688 4.738281 0.65625 C 4.710938 0.757812 4.765625 0.859375 4.867188 0.890625 C 4.964844 0.921875 5.066406 0.867188 5.101562 0.773438 C 5.15625 0.628906 5.234375 0.492188 5.371094 0.433594 C 5.808594 0.246094 6.222656 0.675781 6.019531 1.113281 C 5.941406 1.285156 5.757812 1.363281 5.570312 1.378906 C 5.46875 1.390625 5.386719 1.472656 5.382812 1.578125 L 5.378906 2.617188 C 4.449219 2.640625 3.742188 2.785156 3.339844 2.96875 C 2.890625 3.175781 3.210938 3.453125 3.285156 3.578125 C 3.359375 3.695312 4.296875 5.382812 4.296875 5.382812 C 4.296875 5.382812 3.207031 6.09375 3.167969 6.046875 C 2.660156 5.402344 2.777344 4.210938 2.777344 3.839844 C 2.777344 3.785156 1.363281 4.289062 1 4.964844 C 0.414062 6.054688 0 10 0 10 L 1.957031 10 C 1.957031 10 2.167969 8.628906 2.324219 8.371094 C 2.414062 8.21875 2.457031 8.457031 2.457031 8.613281 C 2.460938 8.890625 2.425781 10 2.425781 10 L 5.222656 10 L 5.183594 5.246094 L 4.117188 3.542969 C 4.089844 3.5 4.121094 3.421875 4.167969 3.398438 C 4.546875 3.207031 5.101562 3.175781 5.378906 3.171875 L 5.761719 3.175781 C 6.058594 3.191406 6.511719 3.234375 6.832031 3.398438 C 6.878906 3.421875 6.910156 3.5 6.882812 3.542969 L 5.816406 5.246094 L 5.777344 10 L 8.574219 10 C 8.574219 10 8.539062 8.890625 8.542969 8.613281 C 8.542969 8.457031 8.585938 8.21875 8.675781 8.371094 C 8.832031 8.628906 9.042969 10 9.042969 10 L 11 10 C 11 10 10.585938 6.054688 10 4.964844 Z M 10 4.964844 "/>
</g>
</svg>
