<?xml version="1.0" encoding="UTF-8" standalone="no"?>
<!-- Created with Inkscape (http://www.inkscape.org/) -->

<svg
   xmlns:dc="http://purl.org/dc/elements/1.1/"
   xmlns:cc="http://creativecommons.org/ns#"
   xmlns:rdf="http://www.w3.org/1999/02/22-rdf-syntax-ns#"
   xmlns:svg="http://www.w3.org/2000/svg"
   xmlns="http://www.w3.org/2000/svg"
   xmlns:xlink="http://www.w3.org/1999/xlink"
   xmlns:sodipodi="http://sodipodi.sourceforge.net/DTD/sodipodi-0.dtd"
   xmlns:inkscape="http://www.inkscape.org/namespaces/inkscape"
   width="30px"
   height="30px"
   version="1.1"
   id="svg8"
   inkscape:version="0.92.4 5da689c313, 2019-01-14"
   sodipodi:docname="container.svg">
  <defs
     id="defs2" />
  <sodipodi:namedview
     id="base"
     pagecolor="#ffffff"
     bordercolor="#666666"
     borderopacity="1.0"
     inkscape:pageopacity="0.0"
     inkscape:pageshadow="2"
     inkscape:zoom="13.049334"
     inkscape:cx="18.679046"
     inkscape:cy="12.165829"
     inkscape:document-units="px"
     inkscape:current-layer="layer1"
     showgrid="false"
     inkscape:snap-page="false"
     units="px"
     inkscape:window-width="1884"
     inkscape:window-height="1061"
     inkscape:window-x="0"
     inkscape:window-y="0"
     inkscape:window-maximized="1"
     fit-margin-top="0"
     fit-margin-left="0"
     fit-margin-right="0"
     fit-margin-bottom="0" />
  <metadata
     id="metadata5">
    <rdf:RDF>
      <cc:Work
         rdf:about="">
        <dc:format>image/svg+xml</dc:format>
        <dc:type
           rdf:resource="http://purl.org/dc/dcmitype/StillImage" />
        <dc:title></dc:title>
      </cc:Work>
    </rdf:RDF>
  </metadata>
    <circle
       style="color:#000000;clip-rule:nonzero;display:inline;overflow:visible;visibility:visible;opacity:1;isolation:auto;mix-blend-mode:normal;color-interpolation:sRGB;color-interpolation-filters:linearRGB;solid-color:#000000;solid-opacity:1;vector-effect:none;fill:#ffffff;fill-opacity:1;fill-rule:evenodd;stroke:#2a62ac;stroke-width:1;stroke-linecap:butt;stroke-linejoin:miter;stroke-miterlimit:4;stroke-dasharray:none;stroke-dashoffset:0;stroke-opacity:1;marker:none;color-rendering:auto;image-rendering:auto;shape-rendering:auto;text-rendering:auto;enable-background:accumulate"
       id="path815"
       cx="15"
       cy="15"
       r="14.5" />
<g transform="translate(6,6)"><g id="surface1">
<path style=" stroke:none;fill-rule:nonzero;fill:rgb(30%,30%,30%);fill-opacity:1;" d="M 13.371094 3.625 L 14.59375 3.625 L 14.59375 13.117188 C 14.59375 13.898438 13.960938 14.53125 13.175781 14.53125 L 3.882812 14.53125 C 3.097656 14.53125 2.464844 13.898438 2.464844 13.117188 L 2.464844 3.625 L 3.65625 3.625 L 3.71875 10.886719 C 4.871094 10.875 6.054688 11.925781 6.117188 13.269531 L 10.96875 13.28125 C 10.96875 11.828125 12.246094 10.902344 13.371094 10.902344 Z M 3.882812 15.902344 C 3.328125 15.902344 2.871094 15.632812 2.644531 15.164062 C 2.632812 15.136719 2.605469 15.125 2.578125 15.128906 C 2.550781 15.136719 2.53125 15.160156 2.53125 15.1875 L 2.53125 15.636719 C 2.53125 16.386719 3.101562 16.996094 3.800781 16.996094 L 13.257812 16.996094 C 13.957031 16.996094 14.527344 16.386719 14.527344 15.636719 L 14.527344 15.296875 C 14.527344 15.269531 14.507812 15.246094 14.484375 15.238281 C 14.457031 15.234375 14.429688 15.242188 14.417969 15.265625 C 14.164062 15.683594 13.691406 15.902344 13.175781 15.902344 Z M 11.960938 7.269531 C 11.960938 5.972656 10.425781 4.921875 8.53125 4.921875 C 6.636719 4.921875 5.101562 5.972656 5.101562 7.269531 C 5.101562 8.566406 6.636719 9.617188 8.53125 9.617188 C 10.425781 9.617188 11.960938 8.566406 11.960938 7.269531 Z M 1.496094 0.00390625 C 0.671875 0.00390625 0.00390625 0.671875 0 1.5 L 0 3.535156 C 0.00390625 4.25 0.511719 4.867188 1.214844 5.003906 L 1.230469 4.867188 L 1.257812 2.414062 L 15.832031 2.414062 L 15.832031 4.996094 C 16.511719 4.839844 16.996094 4.234375 17 3.535156 L 17 1.5 C 16.996094 0.671875 16.328125 0.00390625 15.503906 0.00390625 Z M 1.496094 0.00390625 "/>
</g>
</g>
</svg>
