<?xml version="1.0" encoding="UTF-8"?>
<svg xmlns="http://www.w3.org/2000/svg" xmlns:xlink="http://www.w3.org/1999/xlink" width="11px" height="10px" viewBox="0 0 11 10" version="1.1">
<g id="surface1">
<path style=" stroke:none;fill-rule:nonzero;fill:rgb(30%,30%,30%);fill-opacity:1;" d="M 2.949219 5.914062 C 2.742188 5.570312 2.4375 5.328125 1.894531 5.339844 C 2.09375 4.925781 2.539062 4.742188 3.113281 4.679688 C 2.703125 4.359375 2.152344 4.28125 1.625 4.820312 C 1.542969 4.535156 1.875 3.808594 2.128906 3.140625 C 1.472656 3.320312 1.140625 4 1.144531 5.195312 C 0.839844 4.859375 0.707031 4.339844 0.726562 3.65625 C 0.316406 4.472656 0.347656 5.1875 0.851562 5.796875 C 0.421875 5.957031 0.140625 6.464844 0 6.878906 C 0.230469 6.683594 0.5625 6.3125 0.882812 6.4375 C 0.832031 6.960938 0.960938 7.429688 1.242188 7.757812 C 1.140625 7.394531 1.15625 7.011719 1.234375 6.625 C 1.4375 7.464844 1.886719 7.902344 2.453125 8.144531 C 1.957031 7.65625 1.484375 6.789062 1.570312 5.835938 C 1.960938 5.582031 2.566406 5.761719 2.949219 5.914062 Z M 2.949219 5.914062 "/>
<path style=" stroke:none;fill-rule:nonzero;fill:rgb(30%,30%,30%);fill-opacity:1;" d="M 8.550781 1.4375 C 9.46875 1.234375 10.308594 1.308594 11 1.949219 C 10.449219 1.019531 9.613281 0.453125 8.078125 0.789062 C 8.140625 0.421875 8.355469 0.183594 8.757812 0.105469 C 8.210938 -0.148438 7.710938 0.0703125 7.257812 0.660156 C 6.753906 0.242188 6.054688 0.242188 5.226562 0.515625 C 5.796875 0.5625 6.28125 0.800781 6.660156 1.285156 C 5.621094 1.273438 4.953125 2.023438 4.527344 3.28125 C 5.382812 2.617188 6.335938 2.25 7.398438 2.210938 C 7.878906 2.917969 7.753906 3.769531 7.339844 4.695312 C 8.148438 4.511719 8.726562 4.023438 8.617188 2.609375 C 9.40625 2.511719 9.925781 2.917969 10.257812 3.675781 C 10.3125 2.554688 9.707031 1.828125 8.550781 1.4375 Z M 8.550781 1.4375 "/>
<path style=" stroke:none;fill-rule:nonzero;fill:rgb(30%,30%,30%);fill-opacity:1;" d="M 7.09375 7.390625 C 7.105469 7.386719 7.113281 7.382812 7.125 7.375 C 7.171875 7.335938 7.152344 7.261719 7.097656 7.234375 C 6.839844 7.128906 6.59375 7.128906 6.335938 7.234375 C 6.28125 7.257812 6.261719 7.335938 6.308594 7.375 C 6.320312 7.382812 6.328125 7.386719 6.339844 7.390625 C 6.359375 7.394531 6.378906 7.394531 6.394531 7.386719 C 6.769531 7.238281 6.988281 7.382812 7.0625 7.390625 C 7.074219 7.394531 7.082031 7.394531 7.09375 7.390625 Z M 7.09375 7.390625 "/>
<path style=" stroke:none;fill-rule:nonzero;fill:rgb(30%,30%,30%);fill-opacity:1;" d="M 7.347656 2.234375 C 5.625 3.640625 4.460938 5.75 4.039062 8.109375 C 3.5 7.078125 2.664062 6.292969 1.621094 5.898438 C 2.859375 6.589844 3.65625 7.769531 3.898438 9.183594 C 3.875 9.449219 3.863281 9.71875 3.859375 9.988281 C 3.894531 9.984375 3.933594 9.980469 3.96875 9.980469 C 3.96875 9.984375 3.96875 9.984375 3.96875 9.988281 C 4.011719 9.980469 4.050781 9.976562 4.09375 9.976562 C 4.113281 9.976562 4.132812 9.976562 4.152344 9.976562 C 4.308594 9.976562 4.472656 10.003906 4.632812 9.988281 C 4.691406 9.988281 4.75 9.988281 4.808594 9.988281 C 4.5 7.160156 5.429688 4.238281 7.347656 2.234375 Z M 7.347656 2.234375 "/>
<path style=" stroke:none;fill-rule:nonzero;fill:rgb(30%,30%,30%);fill-opacity:1;" d="M 8.300781 7.53125 L 5.09375 7.53125 C 5.003906 7.53125 4.933594 7.609375 4.933594 7.703125 L 4.933594 9.824219 C 4.933594 9.914062 4.992188 10 5.113281 10 L 8.300781 10 C 8.390625 10 8.464844 9.921875 8.464844 9.824219 L 8.464844 7.703125 C 8.464844 7.609375 8.390625 7.53125 8.300781 7.53125 Z M 8.300781 7.53125 "/>
</g>
</svg>
