<?xml version="1.0" encoding="UTF-8"?>
<svg xmlns="http://www.w3.org/2000/svg" xmlns:xlink="http://www.w3.org/1999/xlink" width="8px" height="11px" viewBox="0 0 8 11" version="1.1">
<g id="surface1">
<path style=" stroke:none;fill-rule:nonzero;fill:rgb(30%,30%,30%);fill-opacity:1;" d="M 7.488281 4.214844 C 7.265625 3.40625 7.492188 2.769531 7.640625 2.351562 C 7.699219 2.191406 7.753906 2.066406 7.753906 1.957031 C 7.753906 1.710938 6.6875 0.640625 6.6875 0.640625 L 6.449219 0.855469 L 6.820312 1.253906 C 6.683594 1.5625 6.664062 1.925781 6.773438 2.273438 C 6.832031 2.457031 6.921875 2.625 7.042969 2.773438 C 6.941406 3.191406 6.886719 3.71875 7.054688 4.332031 C 7.425781 5.679688 7.828125 8.566406 7.285156 9.273438 C 7.21875 9.363281 7.144531 9.402344 7.046875 9.402344 C 6.773438 9.402344 6.566406 9.316406 6.421875 9.136719 C 6.101562 8.75 6.125 8 6.1875 7.699219 C 6.195312 7.652344 6.238281 7.535156 6.28125 7.410156 C 6.542969 6.691406 7.140625 5.03125 6.261719 4 C 6.261719 3.96875 6.265625 3.941406 6.265625 3.910156 L 6.265625 0.917969 C 6.261719 0.414062 5.851562 0 5.34375 0 L 1.523438 0 C 1.015625 0 0.601562 0.414062 0.601562 0.917969 L 0.601562 3.910156 C 0.601562 4.417969 1.015625 4.828125 1.523438 4.832031 L 1.570312 4.832031 L 1.570312 10.480469 L 0.265625 10.480469 C 0.121094 10.480469 0.00390625 10.597656 0.00390625 10.738281 C 0.00390625 10.882812 0.121094 11 0.265625 11 L 6.601562 11 C 6.746094 11 6.859375 10.882812 6.859375 10.738281 C 6.859375 10.597656 6.746094 10.480469 6.601562 10.480469 L 5.296875 10.480469 L 5.296875 4.832031 L 5.34375 4.832031 C 5.621094 4.832031 5.886719 4.703125 6.0625 4.484375 C 6.554688 5.335938 6.09375 6.613281 5.863281 7.257812 C 5.800781 7.425781 5.761719 7.53125 5.746094 7.613281 C 5.746094 7.621094 5.527344 8.753906 6.074219 9.417969 C 6.308594 9.703125 6.636719 9.847656 7.046875 9.847656 C 7.285156 9.847656 7.488281 9.742188 7.640625 9.542969 C 8.433594 8.507812 7.671875 4.886719 7.488281 4.214844 Z M 6.988281 2.207031 C 6.917969 1.988281 6.910156 1.753906 6.960938 1.527344 C 7.121094 1.683594 7.269531 1.859375 7.304688 1.933594 C 7.292969 1.996094 7.257812 2.09375 7.21875 2.199219 C 7.1875 2.289062 7.152344 2.386719 7.121094 2.496094 C 7.066406 2.40625 7.019531 2.308594 6.988281 2.207031 Z M 5.484375 3.5 C 5.484375 3.867188 5.1875 4.164062 4.816406 4.167969 L 2.046875 4.167969 C 1.679688 4.164062 1.382812 3.867188 1.378906 3.5 L 1.378906 1.332031 C 1.382812 0.964844 1.679688 0.664062 2.046875 0.664062 L 4.816406 0.664062 C 5.1875 0.664062 5.484375 0.964844 5.484375 1.332031 Z M 5.484375 3.5 "/>
</g>
</svg>
