<?xml version="1.0" encoding="UTF-8"?>
<svg xmlns="http://www.w3.org/2000/svg" xmlns:xlink="http://www.w3.org/1999/xlink" width="8px" height="10px" viewBox="0 0 8 10" version="1.1">
<g id="surface1">
<path style=" stroke:none;fill-rule:nonzero;fill:rgb(30%,30%,30%);fill-opacity:1;" d="M 5.457031 10 L 0.550781 10 C 0.25 10 0.00390625 9.765625 0.00390625 9.480469 L 0.00390625 2.417969 C 0.00390625 2.15625 0.226562 1.941406 0.503906 1.941406 L 5.457031 1.941406 C 5.757812 1.941406 6.003906 2.175781 6.003906 2.460938 L 6.003906 9.480469 C 6.003906 9.765625 5.757812 10 5.457031 10 Z M 0.503906 2.359375 C 0.46875 2.359375 0.441406 2.386719 0.441406 2.417969 L 0.441406 9.480469 C 0.441406 9.535156 0.488281 9.582031 0.550781 9.582031 L 5.457031 9.582031 C 5.515625 9.582031 5.566406 9.535156 5.566406 9.480469 L 5.566406 2.460938 C 5.566406 2.40625 5.515625 2.359375 5.457031 2.359375 Z M 0.503906 2.359375 "/>
<path style=" stroke:none;fill-rule:nonzero;fill:rgb(30%,30%,30%);fill-opacity:1;" d="M 6.398438 9.058594 L 6.113281 9.058594 L 6.113281 8.644531 L 6.398438 8.644531 C 6.457031 8.644531 6.507812 8.597656 6.507812 8.539062 L 6.507812 1.523438 C 6.507812 1.464844 6.457031 1.417969 6.398438 1.417969 L 1.445312 1.417969 C 1.410156 1.417969 1.382812 1.445312 1.382812 1.476562 L 1.382812 1.757812 L 0.945312 1.757812 L 0.945312 1.476562 C 0.945312 1.214844 1.167969 1.003906 1.445312 1.003906 L 6.398438 1.003906 C 6.699219 1.003906 6.945312 1.234375 6.945312 1.523438 L 6.945312 8.539062 C 6.945312 8.828125 6.699219 9.058594 6.398438 9.058594 Z M 6.398438 9.058594 "/>
<path style=" stroke:none;fill-rule:nonzero;fill:rgb(30%,30%,30%);fill-opacity:1;" d="M 7.449219 8.058594 L 7.144531 8.058594 L 7.144531 7.640625 L 7.449219 7.640625 C 7.511719 7.640625 7.558594 7.59375 7.558594 7.539062 L 7.558594 0.519531 C 7.558594 0.464844 7.511719 0.417969 7.449219 0.417969 L 2.496094 0.417969 C 2.460938 0.417969 2.433594 0.445312 2.433594 0.476562 L 2.433594 0.816406 L 1.996094 0.816406 L 1.996094 0.476562 C 1.996094 0.214844 2.21875 0 2.496094 0 L 7.449219 0 C 7.75 0 7.996094 0.234375 7.996094 0.519531 L 7.996094 7.539062 C 7.996094 7.824219 7.75 8.058594 7.449219 8.058594 Z M 7.449219 8.058594 "/>
<path style=" stroke:none;fill-rule:nonzero;fill:rgb(30%,30%,30%);fill-opacity:1;" d="M 4.84375 5.175781 L 1.03125 5.175781 C 0.9375 5.175781 0.859375 5.101562 0.859375 5.011719 C 0.859375 4.917969 0.9375 4.84375 1.03125 4.84375 L 4.84375 4.84375 C 4.941406 4.84375 5.019531 4.917969 5.019531 5.011719 C 5.019531 5.101562 4.941406 5.175781 4.84375 5.175781 Z M 4.84375 5.175781 "/>
<path style=" stroke:none;fill-rule:nonzero;fill:rgb(30%,30%,30%);fill-opacity:1;" d="M 4.84375 4.21875 L 1.03125 4.21875 C 0.9375 4.21875 0.859375 4.140625 0.859375 4.050781 C 0.859375 3.957031 0.9375 3.882812 1.03125 3.882812 L 4.84375 3.882812 C 4.941406 3.882812 5.019531 3.957031 5.019531 4.050781 C 5.019531 4.140625 4.941406 4.21875 4.84375 4.21875 Z M 4.84375 4.21875 "/>
<path style=" stroke:none;fill-rule:nonzero;fill:rgb(30%,30%,30%);fill-opacity:1;" d="M 4.84375 6.136719 L 1.03125 6.136719 C 0.9375 6.136719 0.859375 6.0625 0.859375 5.972656 C 0.859375 5.878906 0.9375 5.804688 1.03125 5.804688 L 4.84375 5.804688 C 4.941406 5.804688 5.019531 5.878906 5.019531 5.972656 C 5.019531 6.0625 4.941406 6.136719 4.84375 6.136719 Z M 4.84375 6.136719 "/>
<path style=" stroke:none;fill-rule:nonzero;fill:rgb(30%,30%,30%);fill-opacity:1;" d="M 4.84375 7.097656 L 1.03125 7.097656 C 0.9375 7.097656 0.859375 7.023438 0.859375 6.929688 C 0.859375 6.839844 0.9375 6.765625 1.03125 6.765625 L 4.84375 6.765625 C 4.941406 6.765625 5.019531 6.839844 5.019531 6.929688 C 5.019531 7.023438 4.941406 7.097656 4.84375 7.097656 Z M 4.84375 7.097656 "/>
<path style=" stroke:none;fill-rule:nonzero;fill:rgb(30%,30%,30%);fill-opacity:1;" d="M 4.84375 8.058594 L 1.03125 8.058594 C 0.9375 8.058594 0.859375 7.984375 0.859375 7.890625 C 0.859375 7.800781 0.9375 7.722656 1.03125 7.722656 L 4.84375 7.722656 C 4.941406 7.722656 5.019531 7.800781 5.019531 7.890625 C 5.019531 7.984375 4.941406 8.058594 4.84375 8.058594 Z M 4.84375 8.058594 "/>
</g>
</svg>
