<?xml version="1.0" encoding="UTF-8"?>
<svg xmlns="http://www.w3.org/2000/svg" xmlns:xlink="http://www.w3.org/1999/xlink" width="11px" height="11px" viewBox="0 0 11 11" version="1.1">
<g id="surface1">
<path style=" stroke:none;fill-rule:nonzero;fill:rgb(30%,30%,30%);fill-opacity:1;" d="M 5.671875 3.847656 L 3.753906 2.738281 L 3.023438 4.003906 L 3.925781 4.003906 C 4.097656 4.003906 4.234375 4.144531 4.234375 4.3125 C 4.234375 4.484375 4.097656 4.621094 3.925781 4.621094 L 2.667969 4.621094 L 2.207031 5.421875 L 4.765625 5.421875 Z M 5.671875 3.847656 "/>
<path style=" stroke:none;fill-rule:nonzero;fill:rgb(30%,30%,30%);fill-opacity:1;" d="M 3.75 0.00390625 L 8.015625 2.464844 L 7.023438 4.183594 L 2.757812 1.722656 Z M 3.75 0.00390625 "/>
<path style=" stroke:none;fill-rule:nonzero;fill:rgb(30%,30%,30%);fill-opacity:1;" d="M 1.339844 8.75 C 1.339844 8.578125 1.476562 8.441406 1.648438 8.441406 L 3.023438 8.441406 L 3.589844 7.453125 L 1.03125 7.453125 L 0 9.242188 L 1.917969 10.351562 L 2.667969 9.054688 L 1.648438 9.054688 C 1.476562 9.054688 1.339844 8.917969 1.339844 8.75 Z M 1.339844 8.75 "/>
<path style=" stroke:none;fill-rule:nonzero;fill:rgb(30%,30%,30%);fill-opacity:1;" d="M 4.410156 6.039062 L 1.851562 6.039062 L 1.386719 6.839844 L 3.945312 6.839844 Z M 4.410156 6.039062 "/>
<path style=" stroke:none;fill-rule:nonzero;fill:rgb(30%,30%,30%);fill-opacity:1;" d="M 9.558594 6.003906 L 6.675781 6.003906 L 5.230469 8.5 L 6.675781 10.996094 L 9.558594 10.996094 L 11 8.5 Z M 8.117188 9.660156 C 7.441406 9.660156 6.898438 9.113281 6.898438 8.441406 C 6.898438 7.765625 7.441406 7.21875 8.117188 7.21875 C 8.789062 7.21875 9.335938 7.765625 9.335938 8.441406 C 9.335938 9.113281 8.789062 9.660156 8.117188 9.660156 Z M 8.117188 9.660156 "/>
</g>
</svg>
