<?xml version="1.0" encoding="UTF-8"?>
<svg xmlns="http://www.w3.org/2000/svg" xmlns:xlink="http://www.w3.org/1999/xlink" width="11px" height="11px" viewBox="0 0 11 11" version="1.1">
<g id="surface1">
<path style=" stroke:none;fill-rule:nonzero;fill:rgb(30%,30%,30%);fill-opacity:1;" d="M 0.230469 10.441406 C 0.230469 10.746094 0.484375 10.996094 0.796875 10.996094 L 4.375 10.996094 L 4.375 5.480469 L 0.230469 5.480469 Z M 0.230469 10.441406 "/>
<path style=" stroke:none;fill-rule:nonzero;fill:rgb(30%,30%,30%);fill-opacity:1;" d="M 6.644531 10.996094 L 10.203125 10.996094 C 10.515625 10.996094 10.769531 10.746094 10.769531 10.441406 L 10.769531 5.480469 L 6.644531 5.480469 Z M 6.644531 10.996094 "/>
<path style=" stroke:none;fill-rule:nonzero;fill:rgb(30%,30%,30%);fill-opacity:1;" d="M 10.765625 2.9375 L 9.710938 2.9375 L 9.710938 1.628906 L 9.710938 1.632812 L 9.710938 1.628906 L 8.0625 0.0078125 L 8.0625 0.00390625 L 6.734375 0.00390625 L 6.734375 1.695312 L 4.277344 1.695312 L 4.277344 0.00390625 L 2.949219 0.00390625 L 2.949219 0.0078125 L 1.300781 1.628906 L 1.300781 1.632812 L 1.300781 1.628906 L 1.300781 2.9375 L 0.234375 2.9375 C 0.105469 2.9375 0 3.035156 0 3.15625 L 0 4.917969 C 0 4.976562 0.046875 5.019531 0.105469 5.019531 L 4.375 5.019531 L 4.375 2.9375 L 6.644531 2.9375 L 6.644531 5.019531 L 10.894531 5.019531 C 10.953125 5.019531 11 4.976562 11 4.917969 L 11 3.15625 C 11 3.035156 10.894531 2.9375 10.765625 2.9375 Z M 2.378906 2.105469 L 3.433594 1.070312 L 4.277344 2.9375 Z M 6.734375 2.9375 L 7.578125 1.070312 L 8.632812 2.105469 Z M 6.734375 2.9375 "/>
</g>
</svg>
