<?xml version="1.0" encoding="UTF-8" standalone="no"?>
<!-- Created with Inkscape (http://www.inkscape.org/) -->

<svg
   xmlns:dc="http://purl.org/dc/elements/1.1/"
   xmlns:cc="http://creativecommons.org/ns#"
   xmlns:rdf="http://www.w3.org/1999/02/22-rdf-syntax-ns#"
   xmlns:svg="http://www.w3.org/2000/svg"
   xmlns="http://www.w3.org/2000/svg"
   xmlns:xlink="http://www.w3.org/1999/xlink"
   xmlns:sodipodi="http://sodipodi.sourceforge.net/DTD/sodipodi-0.dtd"
   xmlns:inkscape="http://www.inkscape.org/namespaces/inkscape"
   width="30px"
   height="30px"
   version="1.1"
   id="svg8"
   inkscape:version="0.92.4 5da689c313, 2019-01-14"
   sodipodi:docname="container.svg">
  <defs
     id="defs2" />
  <sodipodi:namedview
     id="base"
     pagecolor="#ffffff"
     bordercolor="#666666"
     borderopacity="1.0"
     inkscape:pageopacity="0.0"
     inkscape:pageshadow="2"
     inkscape:zoom="13.049334"
     inkscape:cx="18.679046"
     inkscape:cy="12.165829"
     inkscape:document-units="px"
     inkscape:current-layer="layer1"
     showgrid="false"
     inkscape:snap-page="false"
     units="px"
     inkscape:window-width="1884"
     inkscape:window-height="1061"
     inkscape:window-x="0"
     inkscape:window-y="0"
     inkscape:window-maximized="1"
     fit-margin-top="0"
     fit-margin-left="0"
     fit-margin-right="0"
     fit-margin-bottom="0" />
  <metadata
     id="metadata5">
    <rdf:RDF>
      <cc:Work
         rdf:about="">
        <dc:format>image/svg+xml</dc:format>
        <dc:type
           rdf:resource="http://purl.org/dc/dcmitype/StillImage" />
        <dc:title></dc:title>
      </cc:Work>
    </rdf:RDF>
  </metadata>
    <circle
       style="color:#000000;clip-rule:nonzero;display:inline;overflow:visible;visibility:visible;opacity:1;isolation:auto;mix-blend-mode:normal;color-interpolation:sRGB;color-interpolation-filters:linearRGB;solid-color:#000000;solid-opacity:1;vector-effect:none;fill:#808080;fill-opacity:1;fill-rule:evenodd;stroke:#ffffff;stroke-width:1;stroke-linecap:butt;stroke-linejoin:miter;stroke-miterlimit:4;stroke-dasharray:none;stroke-dashoffset:0;stroke-opacity:1;marker:none;color-rendering:auto;image-rendering:auto;shape-rendering:auto;text-rendering:auto;enable-background:accumulate"
       id="path815"
       cx="15"
       cy="15"
       r="14.5" />
<g transform="translate(7,9)"><g id="surface1">
<path style=" stroke:none;fill-rule:nonzero;fill:#FFFFFF;fill-opacity:1;" d="M 0.246094 8.777344 C 0.0859375 9.046875 -0.0078125 9.347656 0.00390625 9.664062 C 1.769531 10.910156 7.238281 10.632812 9.484375 10.421875 C 9.488281 10.554688 9.5 10.738281 9.496094 10.980469 C 10.242188 11.082031 14.804688 10.757812 15.757812 10.464844 C 15.777344 10.136719 15.714844 8.925781 15.707031 8.632812 C 14.246094 8.65625 11.300781 8.332031 9.726562 9.390625 C 7.515625 9.59375 2.265625 9.855469 0.246094 8.777344 Z M 0.246094 8.777344 "/>
<path style=" stroke:none;fill-rule:nonzero;fill:#FFFFFF;fill-opacity:1;" d="M 15.964844 5.988281 C 15.863281 4.957031 15.476562 3.878906 14.65625 3.320312 C 14.65625 2.617188 14.585938 1.386719 14.585938 0.683594 C 13.285156 0.667969 11.828125 0.660156 10.566406 0.667969 C 10.128906 0.378906 9.5 -0.03125 9.210938 0 C 9.183594 0.00390625 9.15625 0.0117188 9.128906 0.0195312 C 8.707031 0.152344 8.210938 1.007812 7.816406 1.695312 C 7.667969 1.957031 7.46875 2.554688 7.46875 2.554688 L 7.46875 2.558594 C 7.460938 2.625 7.460938 2.691406 7.464844 2.757812 C 7.261719 2.9375 7.066406 3.128906 6.882812 3.332031 L 7.289062 3.792969 L 8.417969 4.117188 C 8.644531 4.183594 8.824219 4.375 8.832031 4.550781 C 8.832031 4.671875 8.757812 4.753906 8.628906 4.773438 C 8.566406 4.78125 8.5 4.773438 8.433594 4.753906 L 8.023438 4.636719 C 8.136719 4.785156 8.179688 4.980469 8.117188 5.089844 C 8.09375 5.128906 8.058594 5.15625 8.015625 5.164062 C 7.9375 5.175781 7.839844 5.125 7.757812 5.03125 L 7.207031 4.402344 L 6.335938 4.152344 C 6.335938 4.152344 6.332031 4.148438 6.328125 4.148438 C 6.175781 4.378906 5.988281 4.601562 5.769531 4.8125 L 5.882812 5.011719 L 6.886719 5.191406 C 7.070312 5.226562 7.226562 5.394531 7.234375 5.570312 C 7.238281 5.710938 7.152344 5.816406 7.019531 5.835938 C 6.984375 5.839844 6.949219 5.839844 6.914062 5.832031 L 6.292969 5.71875 L 6.347656 5.816406 C 6.421875 5.949219 6.429688 6.132812 6.363281 6.222656 C 6.34375 6.25 6.316406 6.265625 6.285156 6.273438 C 6.21875 6.28125 6.148438 6.230469 6.097656 6.140625 L 5.804688 5.632812 L 5.195312 5.523438 C 5.136719 5.511719 5.078125 5.484375 5.027344 5.449219 C 4.859375 5.574219 4.683594 5.691406 4.511719 5.804688 L 4.589844 6.015625 L 5.183594 6.203125 C 5.328125 6.25 5.445312 6.429688 5.441406 6.605469 C 5.441406 6.734375 5.378906 6.832031 5.277344 6.847656 C 5.242188 6.851562 5.210938 6.847656 5.179688 6.835938 L 4.859375 6.734375 L 4.890625 6.820312 C 4.945312 6.964844 4.929688 7.148438 4.851562 7.230469 C 4.835938 7.253906 4.808594 7.265625 4.785156 7.269531 C 4.71875 7.28125 4.652344 7.21875 4.613281 7.117188 L 4.414062 6.59375 L 3.84375 6.410156 C 3.777344 6.386719 3.722656 6.34375 3.679688 6.289062 C 3.257812 6.515625 2.859375 6.6875 2.558594 6.792969 C 1.765625 7.066406 0.203125 7.066406 0.253906 8.199219 C 1.988281 9.445312 5.988281 9.550781 9.574219 8.957031 C 11.683594 7.679688 14.679688 8.46875 15.71875 8.148438 C 15.941406 7.679688 16.054688 6.851562 15.964844 5.988281 Z M 7.605469 2.726562 C 7.597656 2.652344 7.613281 2.582031 7.652344 2.519531 C 7.753906 2.363281 7.867188 2.164062 7.988281 1.957031 C 8.351562 1.328125 8.847656 0.460938 9.222656 0.34375 L 9.230469 0.34375 C 9.25 0.335938 9.265625 0.332031 9.285156 0.332031 C 9.300781 0.328125 9.316406 0.328125 9.332031 0.328125 C 9.566406 0.328125 9.953125 0.472656 10.300781 0.667969 C 10.277344 0.667969 10.730469 0.96875 10.882812 1.128906 C 10.925781 1.167969 10.960938 1.214844 10.992188 1.265625 C 10.996094 1.28125 11 1.292969 11.003906 1.308594 L 11.003906 1.316406 C 11.0625 1.945312 10.601562 2.394531 10.207031 2.664062 C 9.648438 3.039062 8.972656 3.226562 8.527344 3.277344 L 8.515625 3.277344 C 8.429688 3.289062 8.34375 3.292969 8.257812 3.292969 C 8.160156 3.296875 8.0625 3.285156 7.96875 3.261719 C 7.820312 3.226562 7.730469 3.140625 7.671875 3.039062 C 7.640625 2.960938 7.617188 2.824219 7.605469 2.726562 Z M 7.605469 2.726562 "/>
</g>
</g>
</svg>
