<?xml version="1.0" encoding="UTF-8"?>
<svg xmlns="http://www.w3.org/2000/svg" xmlns:xlink="http://www.w3.org/1999/xlink" width="10px" height="6px" viewBox="0 0 10 6" version="1.1">
<g id="surface1">
<path style=" stroke:none;fill-rule:nonzero;fill:rgb(30%,30%,30%);fill-opacity:1;" d="M 10 5.484375 C 10 5.769531 9.730469 6 9.394531 6 L 8.453125 6 C 6.859375 6 7.558594 3.996094 5.394531 3.996094 L 4.605469 3.996094 C 2.457031 3.996094 3.128906 6 1.546875 6 L 0.605469 6 C 0.269531 6 0 5.769531 0 5.484375 L 0.683594 1.800781 C 0.910156 0.507812 1.558594 0 2.722656 0 C 3.621094 0 3.589844 0.699219 5.066406 0.699219 C 6.386719 0.699219 6.375 0 7.277344 0 C 8.441406 0 9.089844 0.507812 9.316406 1.800781 Z M 7.566406 0.535156 C 6.710938 0.535156 6.015625 1.289062 6.015625 2.21875 C 6.015625 3.144531 6.710938 3.898438 7.566406 3.898438 C 8.421875 3.898438 9.117188 3.144531 9.117188 2.21875 C 9.117188 1.289062 8.421875 0.535156 7.566406 0.535156 Z M 2.433594 0.621094 C 1.578125 0.621094 0.882812 1.375 0.882812 2.304688 C 0.886719 3.230469 1.578125 3.984375 2.433594 3.984375 C 3.289062 3.984375 3.984375 3.230469 3.984375 2.304688 C 3.984375 1.375 3.289062 0.621094 2.433594 0.621094 Z M 2.433594 0.621094 "/>
<path style=" stroke:none;fill-rule:nonzero;fill:rgb(30%,30%,30%);fill-opacity:1;" d="M 7.792969 1.507812 C 7.414062 1.671875 7.113281 2 6.960938 2.410156 C 6.894531 2.589844 6.722656 2.695312 6.546875 2.671875 C 6.371094 2.644531 6.230469 2.496094 6.207031 2.304688 C 6.1875 2.113281 6.285156 1.929688 6.449219 1.855469 C 6.828125 1.691406 7.128906 1.363281 7.28125 0.953125 C 7.351562 0.773438 7.519531 0.667969 7.695312 0.691406 C 7.871094 0.714844 8.011719 0.867188 8.035156 1.058594 C 8.058594 1.25 7.957031 1.433594 7.792969 1.507812 Z M 7.644531 0.757812 C 7.464844 0.757812 7.320312 0.917969 7.320312 1.113281 C 7.320312 1.308594 7.464844 1.464844 7.644531 1.464844 C 7.824219 1.464844 7.972656 1.308594 7.972656 1.113281 C 7.972656 0.917969 7.824219 0.757812 7.644531 0.757812 Z M 6.589844 1.894531 C 6.410156 1.894531 6.265625 2.054688 6.265625 2.25 C 6.265625 2.445312 6.410156 2.605469 6.589844 2.605469 C 6.769531 2.605469 6.917969 2.445312 6.917969 2.25 C 6.917969 2.054688 6.769531 1.894531 6.589844 1.894531 Z M 6.589844 1.894531 "/>
<path style=" stroke:none;fill-rule:nonzero;fill:rgb(30%,30%,30%);fill-opacity:1;" d="M 8.707031 2.5 C 8.328125 2.664062 8.027344 2.992188 7.875 3.402344 C 7.808594 3.582031 7.640625 3.6875 7.460938 3.664062 C 7.285156 3.640625 7.148438 3.488281 7.125 3.296875 C 7.101562 3.105469 7.199219 2.921875 7.367188 2.851562 L 7.367188 2.847656 C 7.746094 2.683594 8.046875 2.355469 8.199219 1.945312 C 8.265625 1.769531 8.433594 1.660156 8.613281 1.683594 C 8.789062 1.710938 8.925781 1.859375 8.949219 2.050781 C 8.972656 2.242188 8.875 2.425781 8.707031 2.5 Z M 8.5625 1.753906 C 8.382812 1.753906 8.234375 1.910156 8.234375 2.105469 C 8.234375 2.300781 8.382812 2.460938 8.5625 2.460938 C 8.742188 2.460938 8.886719 2.300781 8.886719 2.105469 C 8.886719 1.910156 8.742188 1.753906 8.5625 1.753906 Z M 7.507812 2.890625 C 7.324219 2.890625 7.179688 3.046875 7.179688 3.242188 C 7.179688 3.4375 7.324219 3.597656 7.507812 3.597656 C 7.6875 3.597656 7.832031 3.4375 7.832031 3.242188 C 7.832031 3.046875 7.6875 2.890625 7.507812 2.890625 Z M 7.507812 2.890625 "/>
<path style=" stroke:none;fill-rule:nonzero;fill:rgb(30%,30%,30%);fill-opacity:1;" d="M 3.386719 1.796875 L 2.792969 1.796875 L 2.792969 1.152344 C 2.792969 1 2.632812 0.875 2.433594 0.875 C 2.238281 0.875 2.078125 1 2.078125 1.152344 L 2.078125 1.796875 L 1.484375 1.796875 C 1.34375 1.796875 1.230469 1.96875 1.230469 2.183594 C 1.230469 2.398438 1.34375 2.570312 1.484375 2.570312 L 2.078125 2.570312 L 2.078125 3.214844 C 2.078125 3.367188 2.238281 3.492188 2.433594 3.492188 C 2.632812 3.492188 2.792969 3.367188 2.792969 3.214844 L 2.792969 2.570312 L 3.386719 2.570312 C 3.527344 2.570312 3.640625 2.398438 3.640625 2.183594 C 3.640625 1.96875 3.527344 1.796875 3.386719 1.796875 Z M 3.386719 1.796875 "/>
</g>
</svg>
