<?xml version="1.0" encoding="UTF-8" standalone="no"?>
<!-- Created with Inkscape (http://www.inkscape.org/) -->

<svg
   xmlns:dc="http://purl.org/dc/elements/1.1/"
   xmlns:cc="http://creativecommons.org/ns#"
   xmlns:rdf="http://www.w3.org/1999/02/22-rdf-syntax-ns#"
   xmlns:svg="http://www.w3.org/2000/svg"
   xmlns="http://www.w3.org/2000/svg"
   xmlns:xlink="http://www.w3.org/1999/xlink"
   xmlns:sodipodi="http://sodipodi.sourceforge.net/DTD/sodipodi-0.dtd"
   xmlns:inkscape="http://www.inkscape.org/namespaces/inkscape"
   width="30px"
   height="30px"
   version="1.1"
   id="svg8"
   inkscape:version="0.92.4 5da689c313, 2019-01-14"
   sodipodi:docname="container.svg">
  <defs
     id="defs2" />
  <sodipodi:namedview
     id="base"
     pagecolor="#ffffff"
     bordercolor="#666666"
     borderopacity="1.0"
     inkscape:pageopacity="0.0"
     inkscape:pageshadow="2"
     inkscape:zoom="13.049334"
     inkscape:cx="18.679046"
     inkscape:cy="12.165829"
     inkscape:document-units="px"
     inkscape:current-layer="layer1"
     showgrid="false"
     inkscape:snap-page="false"
     units="px"
     inkscape:window-width="1884"
     inkscape:window-height="1061"
     inkscape:window-x="0"
     inkscape:window-y="0"
     inkscape:window-maximized="1"
     fit-margin-top="0"
     fit-margin-left="0"
     fit-margin-right="0"
     fit-margin-bottom="0" />
  <metadata
     id="metadata5">
    <rdf:RDF>
      <cc:Work
         rdf:about="">
        <dc:format>image/svg+xml</dc:format>
        <dc:type
           rdf:resource="http://purl.org/dc/dcmitype/StillImage" />
        <dc:title></dc:title>
      </cc:Work>
    </rdf:RDF>
  </metadata>
    <circle
       style="color:#000000;clip-rule:nonzero;display:inline;overflow:visible;visibility:visible;opacity:1;isolation:auto;mix-blend-mode:normal;color-interpolation:sRGB;color-interpolation-filters:linearRGB;solid-color:#000000;solid-opacity:1;vector-effect:none;fill:#808080;fill-opacity:1;fill-rule:evenodd;stroke:#ffffff;stroke-width:1;stroke-linecap:butt;stroke-linejoin:miter;stroke-miterlimit:4;stroke-dasharray:none;stroke-dashoffset:0;stroke-opacity:1;marker:none;color-rendering:auto;image-rendering:auto;shape-rendering:auto;text-rendering:auto;enable-background:accumulate"
       id="path815"
       cx="15"
       cy="15"
       r="14.5" />
<g transform="translate(6,10)"><g id="surface1">
<path style=" stroke:none;fill-rule:nonzero;fill:#FFFFFF;fill-opacity:1;" d="M 14.300781 3.519531 C 13.9375 3.515625 13.578125 3.59375 13.242188 3.738281 L 12.292969 2.230469 L 12.605469 2.242188 L 12.605469 0.546875 C 11.824219 0.546875 11.511719 0.886719 11.386719 1.128906 L 9.375 0.0429688 C 9.207031 -0.0507812 8.996094 0.015625 8.902344 0.1875 L 8.808594 0.371094 C 8.71875 0.542969 8.785156 0.761719 8.953125 0.851562 L 10.011719 1.425781 C 6.246094 1.894531 6.09375 3.117188 5.960938 3.027344 C 5.351562 2.613281 2.675781 2.570312 2.675781 2.570312 L 2.675781 3.191406 C 3.378906 3.089844 4.027344 3.230469 4.566406 3.582031 C 4.554688 3.589844 4.546875 3.59375 4.539062 3.605469 L 4.195312 3.980469 C 3.175781 3.285156 1.824219 3.378906 0.90625 4.210938 C -0.0117188 5.046875 -0.257812 6.40625 0.304688 7.515625 C 0.871094 8.628906 2.101562 9.210938 3.300781 8.929688 C 4.496094 8.652344 5.355469 7.582031 5.386719 6.328125 L 5.964844 6.257812 C 6.070312 6.484375 8.351562 6.902344 10.375 6.699219 C 10.945312 6.640625 11.105469 5.914062 11.105469 5.914062 L 11.226562 2.449219 L 11.285156 2.238281 L 12.523438 4.203125 C 11.550781 5.078125 11.328125 6.535156 11.996094 7.671875 C 12.667969 8.804688 14.035156 9.289062 15.253906 8.820312 C 16.46875 8.355469 17.183594 7.066406 16.949219 5.765625 C 16.714844 4.464844 15.601562 3.515625 14.300781 3.519531 Z M 4.269531 5.234375 C 4.339844 5.339844 4.394531 5.453125 4.441406 5.570312 L 3.902344 5.636719 Z M 2.699219 8.164062 C 1.914062 8.164062 1.210938 7.664062 0.941406 6.914062 C 0.671875 6.160156 0.890625 5.316406 1.492188 4.800781 C 2.09375 4.285156 2.945312 4.207031 3.628906 4.609375 L 2.433594 5.921875 C 2.292969 6.074219 2.304688 6.316406 2.453125 6.460938 L 2.554688 6.554688 C 2.664062 6.660156 2.824219 6.6875 2.960938 6.625 L 4.558594 6.429688 C 4.472656 7.410156 3.664062 8.164062 2.699219 8.164062 Z M 5.273438 5.46875 C 5.183594 5.15625 5.035156 4.863281 4.84375 4.605469 L 5.191406 4.21875 C 5.203125 4.207031 5.210938 4.195312 5.21875 4.183594 C 5.480469 4.519531 5.6875 4.929688 5.816406 5.402344 Z M 14.265625 8.164062 C 13.503906 8.164062 12.820312 7.695312 12.535156 6.976562 C 12.246094 6.257812 12.417969 5.4375 12.960938 4.894531 L 13.929688 6.433594 C 14.058594 6.632812 14.320312 6.691406 14.519531 6.5625 C 14.714844 6.433594 14.773438 6.164062 14.648438 5.964844 L 13.691406 4.445312 C 14.394531 4.214844 15.164062 4.425781 15.65625 4.984375 C 16.148438 5.546875 16.273438 6.347656 15.972656 7.035156 C 15.671875 7.722656 15.003906 8.164062 14.265625 8.164062 Z M 14.265625 8.164062 "/>
</g>
</g>
</svg>
