<?xml version="1.0" encoding="UTF-8"?>
<svg xmlns="http://www.w3.org/2000/svg" xmlns:xlink="http://www.w3.org/1999/xlink" width="11px" height="10px" viewBox="0 0 11 10" version="1.1">
<g id="surface1">
<path style=" stroke:none;fill-rule:evenodd;fill:rgb(30%,30%,30%);fill-opacity:1;" d="M 2.335938 0.953125 L 2.394531 1.152344 C 2.363281 1.253906 2.363281 1.328125 2.394531 1.371094 C 2.421875 1.414062 2.488281 1.445312 2.59375 1.460938 L 2.757812 1.601562 L 3.421875 2.617188 L 3.707031 2.457031 L 6.492188 6.730469 L 6.128906 7.65625 L 5.089844 8.226562 L 4.007812 8.097656 L 1.222656 3.824219 L 1.503906 3.671875 L 0.84375 2.65625 L 0.789062 2.457031 C 0.820312 2.363281 0.824219 2.296875 0.796875 2.25 C 0.765625 2.207031 0.695312 2.171875 0.582031 2.148438 L 0.421875 2.007812 L 0.0429688 1.429688 L 0.015625 1.339844 L 0 0.707031 L 0.09375 0.554688 L 1.097656 0 L 1.289062 0 L 1.886719 0.308594 L 1.957031 0.371094 Z M 6.40625 7.976562 L 5.425781 8.519531 C 6.066406 9.292969 7.378906 10.5 8.875 9.777344 C 10.21875 9.132812 9.644531 7.480469 9.105469 5.929688 C 8.785156 5.011719 8.484375 4.144531 8.660156 3.925781 C 8.996094 3.519531 10.425781 4.628906 11 5.101562 L 11 3.765625 C 9.992188 3.101562 8.503906 2.378906 7.75 3.296875 C 7.21875 3.945312 7.609375 5.066406 8.019531 6.246094 C 8.414062 7.390625 8.839844 8.609375 8.347656 8.847656 C 7.617188 9.199219 6.855469 8.515625 6.40625 7.976562 Z M 1.996094 4.085938 L 4.28125 7.589844 L 4.640625 7.394531 L 2.355469 3.886719 Z M 1.832031 3.492188 L 3.09375 2.796875 L 2.492188 1.875 L 1.230469 2.570312 Z M 2.15625 1.652344 C 2.082031 1.589844 2.03125 1.507812 2.007812 1.421875 L 1.023438 1.960938 C 1.097656 2.023438 1.152344 2.101562 1.175781 2.191406 Z M 0.382812 0.804688 L 0.394531 1.285156 L 0.6875 1.738281 L 1.949219 1.042969 L 1.65625 0.589844 L 1.199219 0.355469 Z M 0.382812 0.804688 "/>
</g>
</svg>
