<?xml version="1.0" encoding="UTF-8"?>
<svg xmlns="http://www.w3.org/2000/svg" xmlns:xlink="http://www.w3.org/1999/xlink" width="11px" height="10px" viewBox="0 0 11 10" version="1.1">
<g id="surface1">
<path style=" stroke:none;fill-rule:nonzero;fill:rgb(30%,30%,30%);fill-opacity:1;" d="M 0.980469 6.632812 C 0.789062 5.882812 1.746094 5.386719 2.875 5.371094 C 3.238281 5.367188 3.714844 5.652344 3.824219 5.773438 C 3.882812 5.835938 3.8125 6.105469 3.769531 6.066406 C 3.660156 5.960938 3.242188 5.601562 2.863281 5.597656 C 2.554688 5.625 2.3125 5.867188 2.09375 6.277344 C 1.257812 6.191406 1.0625 6.292969 0.980469 6.632812 Z M 8.472656 5.371094 C 8.105469 5.363281 7.632812 5.652344 7.519531 5.773438 C 7.460938 5.835938 7.535156 6.105469 7.574219 6.066406 C 7.683594 5.957031 8.105469 5.601562 8.480469 5.597656 C 8.789062 5.625 9.035156 5.863281 9.25 6.277344 C 10.070312 6.195312 10.28125 6.28125 10.367188 6.632812 C 10.558594 5.882812 9.597656 5.386719 8.472656 5.371094 Z M 10.140625 8.546875 C 9.824219 9.296875 9.359375 9.542969 8.957031 9.738281 C 8.582031 9.917969 7.558594 10.105469 7.152344 9.929688 C 6.507812 9.65625 6.292969 9.066406 6.066406 8.699219 C 5.980469 8.5625 5.941406 8.492188 5.730469 8.484375 C 5.640625 8.484375 5.480469 8.476562 5.386719 8.550781 C 5.171875 8.734375 4.980469 9.597656 4.195312 9.929688 C 3.789062 10.105469 2.765625 9.917969 2.390625 9.738281 C 1.929688 9.515625 1.503906 9.257812 1.207031 8.546875 C 1.050781 8.171875 0.851562 6.828125 1.160156 6.5625 C 1.339844 6.410156 1.808594 6.457031 2.097656 6.484375 C 3.214844 6.601562 4.035156 6.953125 5.007812 7.488281 C 5.398438 7.703125 5.988281 7.679688 6.339844 7.488281 C 7.246094 6.988281 8.121094 6.597656 9.207031 6.488281 C 9.46875 6.464844 9.992188 6.398438 10.1875 6.5625 C 10.492188 6.824219 10.296875 8.167969 10.140625 8.546875 Z M 6.179688 3.332031 Z M 10.558594 5.441406 C 10.511719 5.519531 10.433594 5.574219 10.335938 5.53125 L 3.675781 2.507812 C 3.613281 2.480469 3.574219 2.425781 3.582031 2.359375 C 3.589844 2.296875 3.636719 2.234375 3.667969 2.179688 C 4.597656 0.472656 6.824219 -0.269531 8.726562 0.527344 C 8.632812 0.429688 8.609375 0.292969 8.667969 0.175781 C 8.75 0.0195312 8.953125 -0.0429688 9.125 0.03125 C 9.292969 0.109375 9.359375 0.296875 9.277344 0.449219 C 9.214844 0.566406 9.082031 0.636719 8.941406 0.625 C 10.832031 1.550781 11.539062 3.722656 10.558594 5.441406 Z M 8.09375 4.199219 C 8.332031 3.75 8.867188 2.496094 8.917969 1.570312 C 9.003906 -0.0351562 7.621094 1.175781 6.6875 2.527344 C 6.507812 2.789062 6.347656 3.058594 6.179688 3.332031 Z M 6.179688 3.332031 Z M 6.039062 3.8125 C 5.921875 3.894531 5.789062 3.96875 5.660156 4.035156 C 4.21875 4.773438 2.816406 4.714844 1.464844 3.988281 C 0.8125 3.636719 0.257812 3.164062 0 2.878906 C 0.0117188 2.882812 0.015625 2.882812 0 2.878906 C 1.136719 3.03125 2.265625 2.964844 3.367188 2.664062 C 3.386719 2.65625 3.441406 2.632812 3.457031 2.640625 Z M 0.0429688 2.886719 C 0.0390625 2.886719 0.03125 2.882812 0.0273438 2.882812 C 0.0351562 2.882812 0.0390625 2.886719 0.0429688 2.886719 Z M 0.0703125 2.890625 C 0.0664062 2.890625 0.0625 2.886719 0.0585938 2.886719 C 0.0625 2.886719 0.0664062 2.890625 0.0703125 2.890625 Z M 0.0976562 2.894531 C 0.09375 2.890625 0.0859375 2.890625 0.0820312 2.890625 C 0.0859375 2.890625 0.09375 2.890625 0.0976562 2.894531 Z M 0.175781 2.902344 C 0.167969 2.902344 0.160156 2.902344 0.152344 2.902344 C 0.160156 2.902344 0.167969 2.902344 0.175781 2.902344 Z M 0.226562 2.910156 C 0.214844 2.910156 0.207031 2.90625 0.199219 2.90625 C 0.207031 2.90625 0.214844 2.910156 0.226562 2.910156 Z M 0.292969 2.917969 C 0.300781 2.921875 0.304688 2.921875 0.3125 2.921875 C 0.304688 2.921875 0.300781 2.921875 0.292969 2.917969 Z M 0.398438 2.933594 C 0.382812 2.929688 0.363281 2.929688 0.34375 2.925781 C 0.363281 2.929688 0.382812 2.929688 0.398438 2.933594 Z M 0.429688 2.9375 C 0.421875 2.9375 0.414062 2.9375 0.402344 2.933594 C 0.414062 2.933594 0.421875 2.9375 0.429688 2.9375 Z M 0.480469 2.945312 C 0.472656 2.941406 0.460938 2.941406 0.453125 2.941406 C 0.460938 2.941406 0.472656 2.941406 0.480469 2.945312 Z M 0.507812 2.949219 C 0.507812 2.949219 0.503906 2.949219 0.5 2.945312 C 0.503906 2.949219 0.507812 2.949219 0.507812 2.949219 Z M 0.523438 2.949219 Z M 0.523438 2.949219 "/>
</g>
</svg>
