<?xml version="1.0" encoding="UTF-8"?>
<svg xmlns="http://www.w3.org/2000/svg" xmlns:xlink="http://www.w3.org/1999/xlink" width="11px" height="10px" viewBox="0 0 11 10" version="1.1">
<g id="surface1">
<path style=" stroke:none;fill-rule:nonzero;fill:rgb(30%,30%,30%);fill-opacity:1;" d="M 9.183594 4.542969 C 9.328125 4.578125 9.476562 4.496094 9.515625 4.355469 C 9.550781 4.21875 9.464844 4.074219 9.316406 4.039062 L 8.152344 3.757812 L 9.304688 3.09375 C 9.4375 3.019531 9.476562 2.859375 9.398438 2.738281 C 9.320312 2.613281 9.152344 2.574219 9.023438 2.648438 L 7.84375 3.328125 L 8.125 2.195312 C 8.160156 2.054688 8.070312 1.914062 7.921875 1.882812 C 7.773438 1.847656 7.628906 1.933594 7.59375 2.074219 L 7.1875 3.707031 L 5.730469 4.542969 L 5.730469 2.808594 L 6.976562 1.644531 C 7.085938 1.542969 7.085938 1.378906 6.980469 1.277344 C 6.875 1.175781 6.703125 1.171875 6.59375 1.273438 L 5.730469 2.082031 L 5.730469 0.84375 C 5.730469 0.75 5.679688 0.664062 5.59375 0.617188 C 5.507812 0.570312 5.402344 0.570312 5.320312 0.617188 C 5.234375 0.664062 5.183594 0.75 5.183594 0.84375 L 5.183594 2.074219 L 4.3125 1.265625 C 4.207031 1.164062 4.03125 1.164062 3.925781 1.265625 C 3.820312 1.371094 3.824219 1.535156 3.929688 1.632812 L 5.183594 2.804688 L 5.183594 4.585938 L 3.59375 3.648438 L 3.207031 2.03125 C 3.175781 1.890625 3.03125 1.800781 2.882812 1.832031 C 2.734375 1.863281 2.640625 2.003906 2.675781 2.144531 L 2.941406 3.265625 L 1.832031 2.613281 C 1.707031 2.539062 1.535156 2.574219 1.457031 2.699219 C 1.378906 2.820312 1.417969 2.980469 1.546875 3.054688 L 2.648438 3.703125 L 1.464844 3.976562 C 1.316406 4.011719 1.226562 4.152344 1.261719 4.292969 C 1.296875 4.429688 1.445312 4.515625 1.59375 4.484375 L 3.300781 4.089844 L 4.890625 5.027344 L 3.296875 5.941406 L 1.601562 5.53125 C 1.457031 5.496094 1.308594 5.582031 1.269531 5.71875 C 1.234375 5.859375 1.320312 6 1.46875 6.035156 L 2.640625 6.320312 L 1.527344 6.960938 C 1.398438 7.035156 1.355469 7.195312 1.433594 7.316406 C 1.511719 7.441406 1.679688 7.480469 1.808594 7.40625 L 2.921875 6.765625 L 2.640625 7.894531 C 2.605469 8.03125 2.695312 8.171875 2.84375 8.203125 C 2.988281 8.238281 3.136719 8.152344 3.171875 8.011719 L 3.574219 6.390625 L 5.183594 5.464844 L 5.183594 7.152344 L 3.941406 8.3125 C 3.835938 8.414062 3.832031 8.578125 3.9375 8.679688 C 4.042969 8.78125 4.21875 8.78125 4.324219 8.683594 L 5.183594 7.882812 L 5.183594 9.164062 C 5.183594 9.257812 5.234375 9.34375 5.320312 9.390625 C 5.402344 9.4375 5.507812 9.4375 5.59375 9.390625 C 5.679688 9.34375 5.730469 9.257812 5.730469 9.164062 L 5.730469 7.855469 L 6.605469 8.671875 C 6.65625 8.71875 6.726562 8.746094 6.796875 8.746094 C 6.796875 8.746094 6.800781 8.746094 6.800781 8.746094 C 6.910156 8.746094 7.007812 8.679688 7.050781 8.582031 C 7.09375 8.484375 7.066406 8.375 6.988281 8.300781 L 5.730469 7.128906 L 5.730469 5.519531 L 7.195312 6.382812 L 7.574219 7.992188 C 7.609375 8.132812 7.753906 8.222656 7.902344 8.191406 C 8.050781 8.15625 8.140625 8.019531 8.109375 7.878906 L 7.84375 6.765625 L 8.992188 7.441406 C 9.121094 7.515625 9.289062 7.480469 9.371094 7.355469 C 9.449219 7.234375 9.410156 7.074219 9.28125 7 L 8.109375 6.308594 L 9.300781 6.035156 C 9.449219 6 9.539062 5.859375 9.503906 5.71875 C 9.46875 5.582031 9.320312 5.496094 9.171875 5.527344 L 7.457031 5.925781 L 5.9375 5.03125 L 7.496094 4.136719 Z M 9.183594 4.542969 "/>
<path style=" stroke:none;fill-rule:nonzero;fill:rgb(30%,30%,30%);fill-opacity:1;" d="M 7.664062 0.421875 C 8.050781 0.421875 8.429688 0.492188 8.785156 0.636719 C 9.476562 0.917969 10.027344 1.441406 10.324219 2.097656 C 10.476562 2.433594 10.550781 2.796875 10.550781 3.160156 L 10.550781 6.839844 C 10.550781 7.203125 10.476562 7.566406 10.324219 7.902344 C 10.027344 8.558594 9.476562 9.082031 8.785156 9.363281 C 8.429688 9.507812 8.050781 9.578125 7.664062 9.578125 L 3.335938 9.578125 C 2.949219 9.578125 2.570312 9.507812 2.214844 9.363281 C 1.523438 9.082031 0.972656 8.558594 0.675781 7.902344 C 0.523438 7.566406 0.449219 7.203125 0.449219 6.839844 L 0.449219 3.160156 C 0.449219 2.796875 0.523438 2.433594 0.675781 2.097656 C 0.972656 1.441406 1.523438 0.917969 2.214844 0.636719 C 2.570312 0.492188 2.949219 0.421875 3.335938 0.421875 L 7.664062 0.421875 M 7.664062 0 L 3.335938 0 C 1.503906 0 0.00390625 1.421875 0.00390625 3.160156 L 0.00390625 6.839844 C 0.00390625 8.578125 1.503906 10 3.335938 10 L 7.664062 10 C 9.496094 10 10.996094 8.578125 10.996094 6.839844 L 10.996094 3.160156 C 10.996094 1.421875 9.496094 0 7.664062 0 Z M 7.664062 0 "/>
</g>
</svg>
