<?xml version="1.0" encoding="UTF-8"?>
<svg xmlns="http://www.w3.org/2000/svg" xmlns:xlink="http://www.w3.org/1999/xlink" width="10px" height="7px" viewBox="0 0 10 7" version="1.1">
<g id="surface1">
<path style=" stroke:none;fill-rule:nonzero;fill:rgb(30%,30%,30%);fill-opacity:1;" d="M 0.152344 5.585938 C 0.0546875 5.757812 -0.00390625 5.949219 0.00390625 6.152344 C 1.105469 6.941406 4.523438 6.765625 5.925781 6.632812 C 5.929688 6.71875 5.9375 6.832031 5.9375 6.988281 C 6.402344 7.050781 9.253906 6.847656 9.851562 6.660156 C 9.859375 6.449219 9.820312 5.679688 9.816406 5.492188 C 8.902344 5.507812 7.0625 5.304688 6.078125 5.976562 C 4.699219 6.105469 1.414062 6.269531 0.152344 5.585938 Z M 0.152344 5.585938 "/>
<path style=" stroke:none;fill-rule:nonzero;fill:rgb(30%,30%,30%);fill-opacity:1;" d="M 9.980469 3.808594 C 9.914062 3.15625 9.671875 2.46875 9.160156 2.113281 C 9.160156 1.664062 9.117188 0.882812 9.117188 0.433594 C 8.304688 0.425781 7.394531 0.417969 6.605469 0.425781 C 6.332031 0.242188 5.9375 -0.0195312 5.757812 0 C 5.738281 0.00390625 5.722656 0.0078125 5.707031 0.0117188 C 5.441406 0.0976562 5.132812 0.640625 4.886719 1.078125 C 4.792969 1.246094 4.667969 1.625 4.667969 1.625 L 4.667969 1.628906 C 4.664062 1.671875 4.664062 1.714844 4.667969 1.753906 C 4.539062 1.867188 4.417969 1.992188 4.300781 2.121094 L 4.554688 2.414062 L 5.261719 2.621094 C 5.402344 2.664062 5.515625 2.785156 5.519531 2.898438 C 5.519531 2.972656 5.472656 3.023438 5.394531 3.035156 C 5.351562 3.042969 5.3125 3.039062 5.273438 3.027344 L 5.015625 2.949219 C 5.085938 3.042969 5.113281 3.171875 5.074219 3.238281 C 5.058594 3.265625 5.035156 3.28125 5.007812 3.285156 C 4.960938 3.292969 4.898438 3.261719 4.847656 3.203125 L 4.503906 2.800781 L 3.960938 2.640625 C 3.957031 2.640625 3.957031 2.640625 3.957031 2.640625 C 3.859375 2.785156 3.742188 2.929688 3.605469 3.0625 L 3.675781 3.1875 L 4.304688 3.304688 C 4.417969 3.324219 4.515625 3.433594 4.519531 3.546875 C 4.523438 3.632812 4.46875 3.699219 4.386719 3.714844 C 4.367188 3.714844 4.34375 3.714844 4.320312 3.710938 L 3.933594 3.640625 L 3.964844 3.699219 C 4.015625 3.785156 4.019531 3.902344 3.976562 3.960938 C 3.964844 3.976562 3.945312 3.988281 3.929688 3.992188 C 3.886719 3.996094 3.84375 3.964844 3.808594 3.910156 L 3.625 3.585938 L 3.25 3.515625 C 3.210938 3.507812 3.171875 3.492188 3.140625 3.464844 C 3.035156 3.546875 2.929688 3.621094 2.820312 3.695312 L 2.867188 3.828125 L 3.238281 3.949219 C 3.328125 3.976562 3.402344 4.089844 3.402344 4.203125 C 3.402344 4.285156 3.359375 4.347656 3.296875 4.355469 C 3.277344 4.359375 3.257812 4.359375 3.238281 4.351562 L 3.039062 4.285156 L 3.058594 4.339844 C 3.09375 4.433594 3.082031 4.550781 3.03125 4.601562 C 3.019531 4.617188 3.007812 4.625 2.992188 4.625 C 2.949219 4.632812 2.90625 4.59375 2.882812 4.53125 L 2.757812 4.195312 L 2.402344 4.078125 C 2.363281 4.0625 2.328125 4.039062 2.300781 4.003906 C 2.035156 4.144531 1.789062 4.253906 1.597656 4.324219 C 1.101562 4.496094 0.128906 4.496094 0.160156 5.21875 C 1.242188 6.011719 3.742188 6.078125 5.984375 5.699219 C 7.304688 4.886719 9.171875 5.390625 9.824219 5.183594 C 9.964844 4.886719 10.03125 4.359375 9.980469 3.808594 Z M 4.753906 1.734375 C 4.75 1.6875 4.757812 1.640625 4.78125 1.605469 C 4.84375 1.503906 4.917969 1.378906 4.992188 1.246094 C 5.21875 0.84375 5.53125 0.292969 5.765625 0.21875 L 5.769531 0.21875 C 5.78125 0.214844 5.792969 0.210938 5.800781 0.210938 C 5.8125 0.210938 5.820312 0.207031 5.832031 0.207031 C 5.976562 0.207031 6.21875 0.300781 6.4375 0.425781 C 6.425781 0.425781 6.707031 0.617188 6.800781 0.71875 C 6.828125 0.746094 6.851562 0.773438 6.871094 0.804688 C 6.875 0.8125 6.875 0.824219 6.875 0.832031 L 6.875 0.839844 C 6.914062 1.238281 6.625 1.523438 6.378906 1.695312 C 6.03125 1.933594 5.609375 2.054688 5.328125 2.085938 L 5.324219 2.085938 C 5.269531 2.09375 5.214844 2.097656 5.164062 2.097656 C 5.101562 2.097656 5.039062 2.089844 4.980469 2.078125 C 4.886719 2.050781 4.832031 1.996094 4.796875 1.933594 C 4.777344 1.882812 4.761719 1.796875 4.753906 1.734375 Z M 4.753906 1.734375 "/>
</g>
</svg>
