<?xml version="1.0" encoding="UTF-8"?>
<svg xmlns="http://www.w3.org/2000/svg" xmlns:xlink="http://www.w3.org/1999/xlink" width="11px" height="4px" viewBox="0 0 11 4" version="1.1">
<g id="surface1">
<path style=" stroke:none;fill-rule:nonzero;fill:rgb(30%,30%,30%);fill-opacity:1;" d="M 11 1.523438 L 10.183594 1.523438 C 9.964844 0.621094 9.167969 -0.0078125 8.253906 0.00390625 C 7.34375 0.015625 6.558594 0.664062 6.363281 1.566406 C 6.148438 1.320312 5.804688 1.21875 5.480469 1.21875 C 5.148438 1.21875 4.8125 1.359375 4.609375 1.621094 C 4.4375 0.699219 3.65625 0.0273438 2.734375 0.00390625 C 1.8125 -0.0195312 1 0.613281 0.777344 1.523438 L 0 1.523438 L 0 1.941406 L 0.722656 1.941406 C 0.722656 1.960938 0.722656 1.980469 0.722656 2 C 0.722656 3.101562 1.601562 3.996094 2.683594 3.996094 C 3.726562 3.996094 4.574219 3.171875 4.640625 2.132812 C 4.773438 1.800781 5.140625 1.636719 5.484375 1.636719 C 5.8125 1.636719 6.160156 1.761719 6.316406 2.066406 C 6.351562 3.15625 7.238281 4.015625 8.3125 3.996094 C 9.382812 3.976562 10.242188 3.089844 10.242188 2 C 10.242188 1.980469 10.238281 1.960938 10.238281 1.941406 L 11 1.941406 Z M 2.683594 3.527344 C 1.855469 3.527344 1.183594 2.84375 1.183594 2 C 1.183594 1.15625 1.855469 0.472656 2.683594 0.472656 C 3.511719 0.472656 4.1875 1.15625 4.1875 2 C 4.1875 2.84375 3.511719 3.527344 2.683594 3.527344 Z M 4.644531 2.058594 L 4.660156 2.058594 L 4.644531 2.113281 C 4.644531 2.09375 4.644531 2.074219 4.644531 2.058594 Z M 8.277344 3.527344 C 7.449219 3.527344 6.777344 2.84375 6.777344 2 C 6.777344 1.15625 7.449219 0.472656 8.277344 0.472656 C 9.109375 0.472656 9.78125 1.15625 9.78125 2 C 9.78125 2.84375 9.109375 3.527344 8.277344 3.527344 Z M 8.277344 3.527344 "/>
</g>
</svg>
