<?xml version="1.0" encoding="UTF-8" standalone="no"?>
<!-- Created with Inkscape (http://www.inkscape.org/) -->

<svg
   xmlns:dc="http://purl.org/dc/elements/1.1/"
   xmlns:cc="http://creativecommons.org/ns#"
   xmlns:rdf="http://www.w3.org/1999/02/22-rdf-syntax-ns#"
   xmlns:svg="http://www.w3.org/2000/svg"
   xmlns="http://www.w3.org/2000/svg"
   xmlns:xlink="http://www.w3.org/1999/xlink"
   xmlns:sodipodi="http://sodipodi.sourceforge.net/DTD/sodipodi-0.dtd"
   xmlns:inkscape="http://www.inkscape.org/namespaces/inkscape"
   width="30px"
   height="30px"
   version="1.1"
   id="svg8"
   inkscape:version="0.92.4 5da689c313, 2019-01-14"
   sodipodi:docname="container.svg">
  <defs
     id="defs2" />
  <sodipodi:namedview
     id="base"
     pagecolor="#ffffff"
     bordercolor="#666666"
     borderopacity="1.0"
     inkscape:pageopacity="0.0"
     inkscape:pageshadow="2"
     inkscape:zoom="13.049334"
     inkscape:cx="18.679046"
     inkscape:cy="12.165829"
     inkscape:document-units="px"
     inkscape:current-layer="layer1"
     showgrid="false"
     inkscape:snap-page="false"
     units="px"
     inkscape:window-width="1884"
     inkscape:window-height="1061"
     inkscape:window-x="0"
     inkscape:window-y="0"
     inkscape:window-maximized="1"
     fit-margin-top="0"
     fit-margin-left="0"
     fit-margin-right="0"
     fit-margin-bottom="0" />
  <metadata
     id="metadata5">
    <rdf:RDF>
      <cc:Work
         rdf:about="">
        <dc:format>image/svg+xml</dc:format>
        <dc:type
           rdf:resource="http://purl.org/dc/dcmitype/StillImage" />
        <dc:title></dc:title>
      </cc:Work>
    </rdf:RDF>
  </metadata>
    <circle
       style="color:#000000;clip-rule:nonzero;display:inline;overflow:visible;visibility:visible;opacity:1;isolation:auto;mix-blend-mode:normal;color-interpolation:sRGB;color-interpolation-filters:linearRGB;solid-color:#000000;solid-opacity:1;vector-effect:none;fill:#ffffff;fill-opacity:1;fill-rule:evenodd;stroke:#808080;stroke-width:1;stroke-linecap:butt;stroke-linejoin:miter;stroke-miterlimit:4;stroke-dasharray:none;stroke-dashoffset:0;stroke-opacity:1;marker:none;color-rendering:auto;image-rendering:auto;shape-rendering:auto;text-rendering:auto;enable-background:accumulate"
       id="path815"
       cx="15"
       cy="15"
       r="14.5" />
<g transform="translate(8,6)"><g id="surface1">
<path style=" stroke:none;fill-rule:nonzero;fill:rgb(30%,30%,30%);fill-opacity:1;" d="M 2.410156 4.941406 L 3.875 2.761719 L 9.816406 4.355469 L 9.46875 5.023438 Z M 7.488281 3.183594 L 7.488281 3.433594 L 10.332031 4.1875 L 9.902344 5.023438 L 11.878906 5.023438 L 11.449219 2.34375 Z M 5.855469 1.003906 L 6.800781 3.183594 L 9.902344 2.175781 L 8.953125 0 Z M 0.0859375 2.175781 L 1.207031 5.023438 L 1.894531 5.023438 L 3.617188 2.261719 L 6.285156 3.015625 L 5.25 0.503906 Z M 13 17 L 0 16.832031 L 0.601562 5.359375 L 12.398438 5.359375 Z M 9.640625 6.742188 C 9.644531 6.386719 9.375 6.085938 9.015625 6.035156 C 8.65625 5.984375 8.3125 6.199219 8.210938 6.539062 C 8.105469 6.878906 8.273438 7.238281 8.605469 7.386719 C 8.589844 7.433594 8.585938 7.484375 8.597656 7.53125 C 8.640625 7.726562 8.664062 7.925781 8.664062 8.125 C 8.664062 9.445312 7.691406 10.519531 6.5 10.519531 C 5.308594 10.519531 4.335938 9.445312 4.335938 8.125 C 4.335938 7.929688 4.359375 7.734375 4.402344 7.542969 C 4.410156 7.503906 4.410156 7.460938 4.398438 7.417969 C 4.734375 7.316406 4.945312 6.996094 4.902344 6.660156 C 4.863281 6.320312 4.582031 6.054688 4.234375 6.03125 C 3.882812 6.003906 3.566406 6.222656 3.46875 6.550781 C 3.375 6.878906 3.535156 7.222656 3.847656 7.378906 C 3.839844 7.390625 3.835938 7.40625 3.832031 7.425781 C 3.78125 7.652344 3.753906 7.886719 3.753906 8.125 C 3.753906 9.757812 4.988281 11.085938 6.5 11.085938 C 8.011719 11.085938 9.246094 9.757812 9.246094 8.125 C 9.246094 7.882812 9.21875 7.644531 9.164062 7.410156 C 9.453125 7.304688 9.640625 7.039062 9.640625 6.742188 Z M 9.640625 6.742188 "/>
</g>
</g>
</svg>
