<?xml version="1.0" encoding="UTF-8"?>
<svg xmlns="http://www.w3.org/2000/svg" xmlns:xlink="http://www.w3.org/1999/xlink" width="11px" height="11px" viewBox="0 0 11 11" version="1.1">
<g id="surface1">
<path style=" stroke:none;fill-rule:nonzero;fill:rgb(30%,30%,30%);fill-opacity:1;" d="M 5.277344 8.296875 L 2.109375 1.644531 C 1.976562 1.363281 1.769531 1.136719 1.53125 1.015625 C 1.257812 0.875 0.960938 0.871094 0.675781 1.003906 C 0.136719 1.257812 -0.125 1.863281 0.0585938 2.417969 C 0.0703125 2.453125 0.0976562 2.480469 0.128906 2.496094 C 0.164062 2.507812 0.203125 2.507812 0.234375 2.492188 L 0.351562 2.4375 C 0.40625 2.410156 0.4375 2.347656 0.417969 2.285156 C 0.300781 1.914062 0.480469 1.511719 0.839844 1.347656 C 1.015625 1.265625 1.191406 1.265625 1.355469 1.351562 C 1.519531 1.433594 1.664062 1.597656 1.765625 1.804688 L 4.867188 8.324219 C 4.96875 8.300781 5.070312 8.289062 5.171875 8.289062 C 5.207031 8.289062 5.242188 8.292969 5.277344 8.296875 Z M 5.277344 8.296875 "/>
<path style=" stroke:none;fill-rule:nonzero;fill:rgb(30%,30%,30%);fill-opacity:1;" d="M 11 7.210938 L 10.839844 6.871094 L 6.34375 8.902344 C 6.414062 9.003906 6.472656 9.117188 6.511719 9.238281 Z M 11 7.210938 "/>
<path style=" stroke:none;fill-rule:nonzero;fill:rgb(30%,30%,30%);fill-opacity:1;" d="M 5.171875 10.996094 C 4.441406 10.996094 3.847656 10.410156 3.847656 9.6875 C 3.847656 8.964844 4.441406 8.378906 5.171875 8.378906 C 5.90625 8.378906 6.5 8.964844 6.5 9.6875 C 6.496094 10.410156 5.90625 10.996094 5.171875 10.996094 Z M 5.171875 8.695312 C 4.617188 8.695312 4.164062 9.140625 4.164062 9.6875 C 4.164062 10.238281 4.617188 10.683594 5.171875 10.683594 C 5.730469 10.683594 6.179688 10.238281 6.179688 9.6875 C 6.179688 9.140625 5.730469 8.695312 5.171875 8.695312 Z M 5.171875 8.695312 "/>
<path style=" stroke:none;fill-rule:nonzero;fill:rgb(30%,30%,30%);fill-opacity:1;" d="M 8.214844 2.386719 L 4.027344 4.226562 L 5.894531 8.355469 L 10.078125 6.515625 Z M 7.746094 7.050781 L 7.222656 6.011719 L 6.722656 6.234375 L 6.8125 4.730469 L 8.007812 5.640625 L 7.609375 5.839844 L 8.09375 6.894531 Z M 7.746094 7.050781 "/>
<path style=" stroke:none;fill-rule:nonzero;fill:rgb(30%,30%,30%);fill-opacity:1;" d="M 5.261719 0.00390625 L 2.535156 1.203125 L 3.75 3.890625 L 6.476562 2.695312 Z M 4.949219 3.082031 L 4.53125 2.25 L 4.128906 2.429688 L 4.203125 1.226562 L 5.15625 1.953125 L 4.839844 2.113281 L 5.226562 2.957031 Z M 4.949219 3.082031 "/>
</g>
</svg>
