<?xml version="1.0" encoding="UTF-8"?>
<svg xmlns="http://www.w3.org/2000/svg" xmlns:xlink="http://www.w3.org/1999/xlink" width="10px" height="10px" viewBox="0 0 10 10" version="1.1">
<g id="surface1">
<path style=" stroke:none;fill-rule:nonzero;fill:rgb(30%,30%,30%);fill-opacity:1;" d="M 1.230469 9.476562 L 1.230469 9.828125 L 1.585938 9.828125 L 1.585938 9.476562 Z M 1.230469 9.476562 "/>
<path style=" stroke:none;fill-rule:nonzero;fill:rgb(30%,30%,30%);fill-opacity:1;" d="M 3.019531 1.921875 C 3.875 3.316406 4.585938 6.265625 5.1875 7.046875 C 5.363281 7.273438 5.621094 7.480469 5.96875 7.679688 C 3.84375 7.289062 3.714844 3.59375 3.019531 1.921875 M 1.9375 0.00390625 C 1.929688 0.00390625 1.925781 0.0078125 1.921875 0.0078125 C 2.207031 0.570312 2.8125 1.789062 2.984375 2.296875 C 3.378906 3.484375 3.753906 6.050781 4.628906 7.019531 C 5.140625 7.59375 5.832031 7.996094 6.609375 7.820312 C 6.074219 7.589844 5.597656 7.308594 5.328125 6.957031 C 4.859375 6.351562 4.046875 3.628906 3.550781 2.535156 C 3.242188 1.859375 1.9375 0.00390625 1.9375 0.00390625 Z M 1.9375 0.00390625 "/>
<path style=" stroke:none;fill-rule:nonzero;fill:rgb(30%,30%,30%);fill-opacity:1;" d="M 9.484375 8.761719 C 9.105469 8.554688 7.726562 8.296875 6.609375 7.820312 C 6.175781 7.917969 5.421875 7.902344 4.628906 7.019531 C 3.753906 6.050781 3.378906 3.484375 2.984375 2.296875 C 2.8125 1.789062 2.207031 0.570312 1.921875 0.0078125 C 0.757812 0.441406 -0.0351562 1.714844 0 2.265625 C 0.0078125 2.382812 0.136719 2.59375 0.179688 2.703125 C 1.027344 4.863281 1.1875 4.417969 1.242188 9.390625 L 1.542969 9.390625 C 1.558594 8.789062 1.628906 4.617188 2.269531 4.609375 C 2.570312 4.609375 2.644531 5.367188 2.742188 5.628906 C 3.09375 6.5625 3.074219 8.761719 3.84375 9.449219 C 4.699219 10.210938 8.503906 10.144531 9.730469 9.46875 C 9.824219 9.417969 10.011719 9.257812 10 9.15625 C 9.984375 9.003906 9.628906 8.839844 9.484375 8.761719 Z M 9.484375 8.761719 "/>
</g>
</svg>
