<?xml version="1.0" encoding="UTF-8" standalone="no"?>
<!-- Created with Inkscape (http://www.inkscape.org/) -->

<svg
   xmlns:dc="http://purl.org/dc/elements/1.1/"
   xmlns:cc="http://creativecommons.org/ns#"
   xmlns:rdf="http://www.w3.org/1999/02/22-rdf-syntax-ns#"
   xmlns:svg="http://www.w3.org/2000/svg"
   xmlns="http://www.w3.org/2000/svg"
   xmlns:xlink="http://www.w3.org/1999/xlink"
   xmlns:sodipodi="http://sodipodi.sourceforge.net/DTD/sodipodi-0.dtd"
   xmlns:inkscape="http://www.inkscape.org/namespaces/inkscape"
   width="30px"
   height="30px"
   version="1.1"
   id="svg8"
   inkscape:version="0.92.4 5da689c313, 2019-01-14"
   sodipodi:docname="container.svg">
  <defs
     id="defs2" />
  <sodipodi:namedview
     id="base"
     pagecolor="#ffffff"
     bordercolor="#666666"
     borderopacity="1.0"
     inkscape:pageopacity="0.0"
     inkscape:pageshadow="2"
     inkscape:zoom="13.049334"
     inkscape:cx="18.679046"
     inkscape:cy="12.165829"
     inkscape:document-units="px"
     inkscape:current-layer="layer1"
     showgrid="false"
     inkscape:snap-page="false"
     units="px"
     inkscape:window-width="1884"
     inkscape:window-height="1061"
     inkscape:window-x="0"
     inkscape:window-y="0"
     inkscape:window-maximized="1"
     fit-margin-top="0"
     fit-margin-left="0"
     fit-margin-right="0"
     fit-margin-bottom="0" />
  <metadata
     id="metadata5">
    <rdf:RDF>
      <cc:Work
         rdf:about="">
        <dc:format>image/svg+xml</dc:format>
        <dc:type
           rdf:resource="http://purl.org/dc/dcmitype/StillImage" />
        <dc:title></dc:title>
      </cc:Work>
    </rdf:RDF>
  </metadata>
    <circle
       style="color:#000000;clip-rule:nonzero;display:inline;overflow:visible;visibility:visible;opacity:1;isolation:auto;mix-blend-mode:normal;color-interpolation:sRGB;color-interpolation-filters:linearRGB;solid-color:#000000;solid-opacity:1;vector-effect:none;fill:#808080;fill-opacity:1;fill-rule:evenodd;stroke:#ffffff;stroke-width:1;stroke-linecap:butt;stroke-linejoin:miter;stroke-miterlimit:4;stroke-dasharray:none;stroke-dashoffset:0;stroke-opacity:1;marker:none;color-rendering:auto;image-rendering:auto;shape-rendering:auto;text-rendering:auto;enable-background:accumulate"
       id="path815"
       cx="15"
       cy="15"
       r="14.5" />
<g transform="translate(6,9)"><g id="surface1">
<path style=" stroke:none;fill-rule:nonzero;fill:#FFFFFF;fill-opacity:1;" d="M 16.832031 6.578125 L 0.167969 6.578125 C 0.0742188 6.578125 0 6.652344 0 6.75 L 0 10.824219 C 0 10.917969 0.0742188 10.996094 0.167969 10.996094 L 0.683594 10.996094 C 0.777344 10.996094 0.855469 10.917969 0.855469 10.824219 L 0.855469 10.222656 C 0.855469 10.128906 0.929688 10.054688 1.023438 10.054688 L 16.269531 10.054688 C 16.363281 10.054688 16.4375 10.128906 16.4375 10.222656 L 16.4375 10.824219 C 16.4375 10.917969 16.515625 10.996094 16.609375 10.996094 L 16.832031 10.996094 C 16.925781 10.996094 17 10.917969 17 10.824219 L 17 6.75 C 17 6.652344 16.925781 6.578125 16.832031 6.578125 Z M 16.269531 9.398438 L 1.023438 9.398438 C 0.929688 9.398438 0.855469 9.320312 0.855469 9.226562 L 0.855469 7.691406 C 0.855469 7.597656 0.929688 7.519531 1.023438 7.519531 L 16.269531 7.519531 C 16.363281 7.519531 16.4375 7.597656 16.4375 7.691406 L 16.4375 9.226562 C 16.4375 9.320312 16.363281 9.398438 16.269531 9.398438 Z M 16.269531 9.398438 "/>
<path style=" stroke:none;fill-rule:nonzero;fill:#FFFFFF;fill-opacity:1;" d="M 15.75 5.871094 L 14.125 3.941406 C 14.097656 3.914062 14.085938 3.871094 14.085938 3.832031 L 14.085938 0.175781 C 14.085938 0.0820312 14.007812 0.00390625 13.917969 0.00390625 L 3.097656 0.00390625 C 3.003906 0.00390625 2.929688 0.0820312 2.929688 0.175781 L 2.929688 3.933594 L 2.960938 3.933594 L 1.65625 5.828125 C 1.621094 5.878906 1.613281 5.949219 1.644531 6.003906 C 1.671875 6.0625 1.730469 6.097656 1.792969 6.097656 L 15.621094 6.152344 C 15.6875 6.152344 15.75 6.113281 15.777344 6.050781 C 15.804688 5.992188 15.792969 5.921875 15.75 5.871094 Z M 13.523438 3.707031 L 12.886719 3.707031 C 13.046875 3.542969 13.09375 3.300781 13.007812 3.089844 C 12.925781 2.878906 12.722656 2.742188 12.496094 2.742188 L 9.824219 2.742188 C 9.597656 2.742188 9.394531 2.878906 9.308594 3.089844 C 9.222656 3.300781 9.273438 3.542969 9.429688 3.707031 L 7.964844 3.707031 C 8.125 3.542969 8.171875 3.300781 8.085938 3.089844 C 8 2.878906 7.796875 2.742188 7.574219 2.742188 L 4.898438 2.742188 C 4.675781 2.742188 4.472656 2.878906 4.386719 3.089844 C 4.300781 3.300781 4.347656 3.542969 4.507812 3.707031 L 3.714844 3.707031 L 3.714844 0.746094 L 13.523438 0.746094 Z M 13.523438 3.707031 "/>
</g>
</g>
</svg>
