<?xml version="1.0" encoding="UTF-8" standalone="no"?>
<!-- Created with Inkscape (http://www.inkscape.org/) -->

<svg
   xmlns:dc="http://purl.org/dc/elements/1.1/"
   xmlns:cc="http://creativecommons.org/ns#"
   xmlns:rdf="http://www.w3.org/1999/02/22-rdf-syntax-ns#"
   xmlns:svg="http://www.w3.org/2000/svg"
   xmlns="http://www.w3.org/2000/svg"
   xmlns:xlink="http://www.w3.org/1999/xlink"
   xmlns:sodipodi="http://sodipodi.sourceforge.net/DTD/sodipodi-0.dtd"
   xmlns:inkscape="http://www.inkscape.org/namespaces/inkscape"
   width="30px"
   height="30px"
   version="1.1"
   id="svg8"
   inkscape:version="0.92.4 5da689c313, 2019-01-14"
   sodipodi:docname="container.svg">
  <defs
     id="defs2" />
  <sodipodi:namedview
     id="base"
     pagecolor="#ffffff"
     bordercolor="#666666"
     borderopacity="1.0"
     inkscape:pageopacity="0.0"
     inkscape:pageshadow="2"
     inkscape:zoom="13.049334"
     inkscape:cx="18.679046"
     inkscape:cy="12.165829"
     inkscape:document-units="px"
     inkscape:current-layer="layer1"
     showgrid="false"
     inkscape:snap-page="false"
     units="px"
     inkscape:window-width="1884"
     inkscape:window-height="1061"
     inkscape:window-x="0"
     inkscape:window-y="0"
     inkscape:window-maximized="1"
     fit-margin-top="0"
     fit-margin-left="0"
     fit-margin-right="0"
     fit-margin-bottom="0" />
  <metadata
     id="metadata5">
    <rdf:RDF>
      <cc:Work
         rdf:about="">
        <dc:format>image/svg+xml</dc:format>
        <dc:type
           rdf:resource="http://purl.org/dc/dcmitype/StillImage" />
        <dc:title></dc:title>
      </cc:Work>
    </rdf:RDF>
  </metadata>
    <circle
       style="color:#000000;clip-rule:nonzero;display:inline;overflow:visible;visibility:visible;opacity:1;isolation:auto;mix-blend-mode:normal;color-interpolation:sRGB;color-interpolation-filters:linearRGB;solid-color:#000000;solid-opacity:1;vector-effect:none;fill:#808080;fill-opacity:1;fill-rule:evenodd;stroke:#ffffff;stroke-width:1;stroke-linecap:butt;stroke-linejoin:miter;stroke-miterlimit:4;stroke-dasharray:none;stroke-dashoffset:0;stroke-opacity:1;marker:none;color-rendering:auto;image-rendering:auto;shape-rendering:auto;text-rendering:auto;enable-background:accumulate"
       id="path815"
       cx="15"
       cy="15"
       r="14.5" />
<g transform="translate(7,7)"><g id="surface1">
<path style=" stroke:none;fill-rule:nonzero;fill:#FFFFFF;fill-opacity:1;" d="M 5.035156 6.121094 C 5.035156 6.121094 3.285156 3.300781 4.585938 2.128906 C 5.527344 1.28125 6.214844 1.984375 6.816406 1.960938 C 7.414062 1.9375 8.140625 -0.0351562 10.269531 0 C 13.097656 0.046875 12.699219 1.984375 12.949219 1.984375 C 13.449219 1.984375 13.464844 1.621094 14.101562 1.792969 C 16.238281 2.378906 13.898438 5.835938 13.699219 5.980469 C 13.519531 6.109375 14.699219 5.882812 14.726562 7.246094 C 14.746094 8.253906 13.625 8.371094 13.625 8.371094 C 13.625 8.371094 13.300781 9.066406 13.449219 9.496094 C 13.628906 10.003906 13.699219 10.761719 13.347656 11.21875 C 13 11.671875 13.140625 11.742188 13.148438 12.292969 C 13.171875 13.917969 13.574219 14.324219 13.574219 14.324219 L 13.074219 14.398438 C 13.074219 14.398438 12.421875 13.464844 12.398438 13.011719 C 12.371094 12.554688 12.421875 12.339844 12.421875 12.339844 C 12.421875 12.339844 11.945312 12.988281 11.796875 13.011719 C 11.644531 13.035156 11.945312 13.488281 11.695312 14.230469 C 11.445312 14.972656 11.421875 15.042969 11.621094 15.425781 C 11.820312 15.808594 12.097656 16 12.097656 16 L 11.371094 16 C 11.371094 16 10.558594 14.871094 10.496094 14.46875 C 10.417969 13.992188 10.519531 13.152344 10.519531 13.152344 L 5.613281 12.9375 C 5.613281 12.9375 5.363281 13.34375 5.210938 13.632812 C 5.0625 13.917969 5.160156 14.253906 5.160156 14.253906 L 4.535156 14.253906 C 4.535156 14.253906 4.648438 13.214844 4.960938 12.914062 C 4.988281 12.890625 2.660156 12.578125 2.660156 12.578125 C 2.660156 12.578125 2.832031 13.75 2.632812 14.398438 C 2.433594 15.042969 1.855469 15.785156 1.855469 15.785156 L 1.207031 15.785156 C 1.207031 15.785156 1.78125 15.257812 1.78125 15.066406 C 1.78125 14.46875 1.355469 13.371094 1.457031 12.796875 C 1.484375 12.621094 1.503906 12.445312 1.507812 12.269531 C 1.507812 12.269531 0.796875 11.800781 0.90625 11.242188 C 1.082031 10.355469 1.480469 9.6875 1.480469 8.515625 C 1.496094 8.636719 0.0351562 9.082031 0.00390625 7.511719 C -0.0195312 6.3125 1.457031 6.265625 1.457031 6.265625 C 1.457031 6.265625 2.582031 6.171875 4.410156 6.074219 C 4.671875 6.0625 5.035156 6.121094 5.035156 6.121094 Z M 5.035156 6.121094 "/>
</g>
</g>
</svg>
