<?xml version="1.0" encoding="UTF-8" standalone="no"?>
<!-- Created with Inkscape (http://www.inkscape.org/) -->

<svg
   xmlns:dc="http://purl.org/dc/elements/1.1/"
   xmlns:cc="http://creativecommons.org/ns#"
   xmlns:rdf="http://www.w3.org/1999/02/22-rdf-syntax-ns#"
   xmlns:svg="http://www.w3.org/2000/svg"
   xmlns="http://www.w3.org/2000/svg"
   xmlns:xlink="http://www.w3.org/1999/xlink"
   xmlns:sodipodi="http://sodipodi.sourceforge.net/DTD/sodipodi-0.dtd"
   xmlns:inkscape="http://www.inkscape.org/namespaces/inkscape"
   width="30px"
   height="30px"
   version="1.1"
   id="svg8"
   inkscape:version="0.92.4 5da689c313, 2019-01-14"
   sodipodi:docname="container.svg">
  <defs
     id="defs2" />
  <sodipodi:namedview
     id="base"
     pagecolor="#ffffff"
     bordercolor="#666666"
     borderopacity="1.0"
     inkscape:pageopacity="0.0"
     inkscape:pageshadow="2"
     inkscape:zoom="13.049334"
     inkscape:cx="18.679046"
     inkscape:cy="12.165829"
     inkscape:document-units="px"
     inkscape:current-layer="layer1"
     showgrid="false"
     inkscape:snap-page="false"
     units="px"
     inkscape:window-width="1884"
     inkscape:window-height="1061"
     inkscape:window-x="0"
     inkscape:window-y="0"
     inkscape:window-maximized="1"
     fit-margin-top="0"
     fit-margin-left="0"
     fit-margin-right="0"
     fit-margin-bottom="0" />
  <metadata
     id="metadata5">
    <rdf:RDF>
      <cc:Work
         rdf:about="">
        <dc:format>image/svg+xml</dc:format>
        <dc:type
           rdf:resource="http://purl.org/dc/dcmitype/StillImage" />
        <dc:title></dc:title>
      </cc:Work>
    </rdf:RDF>
  </metadata>
    <circle
       style="color:#000000;clip-rule:nonzero;display:inline;overflow:visible;visibility:visible;opacity:1;isolation:auto;mix-blend-mode:normal;color-interpolation:sRGB;color-interpolation-filters:linearRGB;solid-color:#000000;solid-opacity:1;vector-effect:none;fill:#808080;fill-opacity:1;fill-rule:evenodd;stroke:#ffffff;stroke-width:1;stroke-linecap:butt;stroke-linejoin:miter;stroke-miterlimit:4;stroke-dasharray:none;stroke-dashoffset:0;stroke-opacity:1;marker:none;color-rendering:auto;image-rendering:auto;shape-rendering:auto;text-rendering:auto;enable-background:accumulate"
       id="path815"
       cx="15"
       cy="15"
       r="14.5" />
<g transform="translate(6,9)"><g id="surface1">
<path style=" stroke:none;fill-rule:nonzero;fill:#FFFFFF;fill-opacity:1;" d="M 12.429688 6.492188 C 12.417969 6.488281 12.40625 6.488281 12.394531 6.484375 C 11.957031 6.414062 11.511719 6.414062 11.074219 6.488281 C 11.066406 6.488281 11.0625 6.492188 11.054688 6.492188 C 10.324219 6.621094 9.675781 6.945312 9.199219 7.40625 L 9.199219 2.507812 L 5.320312 2.507812 L 5.320312 1.535156 L 6.917969 1.535156 L 6.917969 0 L 2.289062 0 L 2.289062 1.535156 L 3.820312 1.535156 L 3.820312 2.507812 L 0.00390625 2.507812 L 0.00390625 11.972656 L 9.199219 11.972656 L 9.199219 11.214844 C 9.558594 11.5625 10.015625 11.832031 10.535156 12 L 12.949219 12 C 14.230469 11.585938 15.136719 10.539062 15.136719 9.308594 C 15.136719 7.921875 13.976562 6.761719 12.429688 6.492188 Z M 7.011719 8.664062 L 2.195312 8.664062 L 2.195312 5.464844 L 7.011719 5.464844 Z M 13.285156 10.277344 L 10.335938 10.277344 L 10.335938 8.320312 L 13.285156 8.320312 Z M 13.285156 10.277344 "/>
<path style=" stroke:none;fill-rule:nonzero;fill:#FFFFFF;fill-opacity:1;" d="M 15.328125 4.027344 C 14.484375 4.027344 13.789062 4.4375 13.675781 4.976562 L 12.40625 4.976562 L 12.40625 4.113281 L 11.074219 4.113281 L 11.074219 4.976562 L 10.640625 4.976562 L 10.640625 5.277344 L 11.074219 5.277344 C 11.074219 5.277344 11.066406 6.171875 11.074219 6.1875 C 11.292969 6.148438 11.519531 6.128906 11.742188 6.132812 C 11.960938 6.128906 12.183594 6.148438 12.402344 6.183594 L 12.402344 5.277344 L 13.675781 5.277344 C 13.789062 5.8125 14.484375 6.226562 15.328125 6.226562 C 16.25 6.226562 16.996094 5.734375 16.996094 5.125 C 16.996094 4.519531 16.25 4.027344 15.328125 4.027344 Z M 15.328125 4.027344 "/>
</g>
</g>
</svg>
