<?xml version="1.0" encoding="UTF-8"?>
<svg xmlns="http://www.w3.org/2000/svg" xmlns:xlink="http://www.w3.org/1999/xlink" width="10px" height="11px" viewBox="0 0 10 11" version="1.1">
<g id="surface1">
<path style=" stroke:none;fill-rule:nonzero;fill:rgb(30%,30%,30%);fill-opacity:1;" d="M 4.5625 5.191406 C 5.539062 5.171875 6.308594 4 6.28125 2.566406 C 6.257812 1.132812 5.449219 -0.015625 4.472656 0 C 3.5 0.015625 2.726562 1.191406 2.753906 2.625 C 2.777344 4.058594 3.585938 5.207031 4.5625 5.191406 Z M 4.292969 2.554688 C 4.589844 1.351562 4.472656 0.3125 4.492188 0.277344 C 4.503906 0.324219 5.046875 1.339844 4.742188 2.632812 C 4.445312 3.839844 4.5625 4.878906 4.546875 4.914062 C 4.53125 4.867188 3.988281 3.847656 4.292969 2.554688 Z M 4.292969 2.554688 "/>
<path style=" stroke:none;fill-rule:nonzero;fill:rgb(30%,30%,30%);fill-opacity:1;" d="M 9.570312 4.507812 C 8.800781 3.777344 7.242188 4.109375 6.097656 5.246094 C 4.949219 6.382812 4.648438 7.894531 5.421875 8.621094 C 6.195312 9.351562 7.75 9.019531 8.894531 7.882812 C 10.042969 6.746094 10.34375 5.234375 9.570312 4.507812 Z M 7.636719 6.765625 C 6.425781 7.480469 5.671875 8.378906 5.632812 8.390625 C 5.660156 8.347656 6.0625 7.140625 7.351562 6.363281 C 8.5625 5.652344 9.320312 4.75 9.359375 4.738281 C 9.332031 4.785156 8.929688 5.988281 7.636719 6.765625 Z M 7.636719 6.765625 "/>
<path style=" stroke:none;fill-rule:nonzero;fill:rgb(30%,30%,30%);fill-opacity:1;" d="M 1.050781 4.996094 C -0.0546875 5.480469 -0.332031 7.1875 0.429688 8.808594 C 1.191406 10.433594 2.703125 11.355469 3.804688 10.871094 C 4.910156 10.386719 5.1875 8.679688 4.425781 7.058594 C 3.664062 5.433594 2.152344 4.511719 1.050781 4.996094 Z M 2.152344 7.996094 C 1.875 6.480469 1.210938 5.351562 1.214844 5.304688 C 1.25 5.351562 2.390625 6.25 2.703125 7.871094 C 2.980469 9.386719 3.644531 10.515625 3.644531 10.5625 C 3.605469 10.515625 2.464844 9.617188 2.152344 7.996094 Z M 2.152344 7.996094 "/>
</g>
</svg>
