<?xml version="1.0" encoding="UTF-8"?>
<svg xmlns="http://www.w3.org/2000/svg" xmlns:xlink="http://www.w3.org/1999/xlink" width="10px" height="10px" viewBox="0 0 10 10" version="1.1">
<g id="surface1">
<path style=" stroke:none;fill-rule:nonzero;fill:rgb(30%,30%,30%);fill-opacity:1;" d="M 1.683594 2.664062 L 2.421875 2.664062 C 2.515625 2.664062 2.589844 2.632812 2.589844 2.597656 L 2.589844 2.019531 C 2.589844 1.980469 2.515625 1.953125 2.421875 1.953125 L 1.683594 1.953125 C 1.589844 1.953125 1.515625 1.980469 1.515625 2.019531 L 1.515625 2.597656 C 1.515625 2.632812 1.589844 2.664062 1.683594 2.664062 Z M 1.683594 2.664062 "/>
<path style=" stroke:none;fill-rule:nonzero;fill:rgb(30%,30%,30%);fill-opacity:1;" d="M 10 9.726562 C 10 9.875 9.871094 9.996094 9.710938 9.996094 L 8 9.996094 C 7.839844 9.996094 7.710938 9.875 7.710938 9.726562 L 7.710938 3.703125 C 7.710938 3.554688 7.796875 3.339844 7.902344 3.226562 L 8.464844 2.625 L 8.464844 0.59375 L 8.414062 0.59375 L 8.414062 0.00390625 L 9.296875 0.00390625 L 9.296875 0.59375 L 9.246094 0.59375 L 9.246094 2.625 L 9.808594 3.226562 C 9.914062 3.339844 10 3.554688 10 3.703125 Z M 10 9.726562 "/>
<path style=" stroke:none;fill-rule:nonzero;fill:rgb(30%,30%,30%);fill-opacity:1;" d="M 6.957031 3.351562 L 6.332031 3.09375 C 6.171875 3.03125 6.046875 2.847656 6.046875 2.6875 L 6.046875 1.632812 C 6.046875 1.472656 6.128906 1.34375 6.230469 1.34375 C 6.332031 1.34375 6.417969 1.210938 6.417969 1.050781 L 6.417969 0.476562 C 6.417969 0.316406 6.277344 0.1875 6.105469 0.1875 L 4.605469 0.1875 C 4.433594 0.1875 4.292969 0.316406 4.292969 0.476562 L 4.292969 1.050781 C 4.292969 1.210938 4.378906 1.34375 4.480469 1.34375 C 4.582031 1.34375 4.664062 1.472656 4.664062 1.632812 L 4.664062 2.6875 C 4.664062 2.847656 4.535156 3.03125 4.378906 3.09375 L 3.753906 3.351562 C 3.597656 3.414062 3.46875 3.597656 3.46875 3.757812 L 3.46875 5.523438 C 3.226562 5.421875 2.9375 5.367188 2.628906 5.347656 L 2.628906 3.484375 L 2.660156 3.484375 C 2.792969 3.484375 2.914062 3.417969 2.980469 3.3125 C 3.046875 3.203125 3.042969 3.074219 2.976562 2.964844 C 2.910156 2.859375 2.789062 2.792969 2.65625 2.796875 L 1.445312 2.796875 C 1.242188 2.796875 1.074219 2.949219 1.074219 3.140625 C 1.074219 3.3125 1.210938 3.484375 1.476562 3.484375 L 1.476562 5.347656 C 0.503906 5.40625 0 5.804688 0 6.394531 L 0 9.5625 C 0 9.789062 0.199219 9.972656 0.441406 9.972656 L 3.660156 9.972656 C 3.683594 9.972656 3.707031 9.972656 3.730469 9.96875 C 3.746094 9.972656 3.761719 9.972656 3.78125 9.972656 L 6.929688 9.972656 C 7.101562 9.972656 7.242188 9.84375 7.242188 9.683594 L 7.242188 3.757812 C 7.242188 3.597656 7.113281 3.414062 6.957031 3.351562 Z M 1.425781 8.296875 L 1.425781 7.046875 C 1.425781 6.710938 1.71875 6.4375 2.082031 6.4375 L 3.46875 6.4375 L 3.46875 6.679688 L 2.082031 6.679688 C 1.863281 6.679688 1.6875 6.84375 1.6875 7.046875 L 1.6875 8.296875 C 1.6875 8.496094 1.863281 8.660156 2.082031 8.660156 L 3.46875 8.660156 L 3.46875 8.90625 L 2.082031 8.90625 C 1.71875 8.90625 1.425781 8.632812 1.425781 8.296875 Z M 1.425781 8.296875 "/>
</g>
</svg>
