<?xml version="1.0" encoding="UTF-8"?>
<svg xmlns="http://www.w3.org/2000/svg" xmlns:xlink="http://www.w3.org/1999/xlink" width="10px" height="7px" viewBox="0 0 10 7" version="1.1">
<g id="surface1">
<path style=" stroke:none;fill-rule:nonzero;fill:rgb(30%,30%,30%);fill-opacity:1;" d="M 9.902344 4.1875 L 0.0976562 4.1875 C 0.0429688 4.1875 0 4.234375 0 4.292969 L 0 6.886719 C 0 6.949219 0.0429688 6.996094 0.0976562 6.996094 L 0.402344 6.996094 C 0.457031 6.996094 0.503906 6.949219 0.503906 6.886719 L 0.503906 6.507812 C 0.503906 6.445312 0.546875 6.398438 0.601562 6.398438 L 9.570312 6.398438 C 9.625 6.398438 9.671875 6.445312 9.671875 6.507812 L 9.671875 6.886719 C 9.671875 6.949219 9.714844 6.996094 9.769531 6.996094 L 9.902344 6.996094 C 9.957031 6.996094 10 6.949219 10 6.886719 L 10 4.292969 C 10 4.234375 9.957031 4.1875 9.902344 4.1875 Z M 9.570312 5.980469 L 0.601562 5.980469 C 0.546875 5.980469 0.503906 5.933594 0.503906 5.871094 L 0.503906 4.894531 C 0.503906 4.835938 0.546875 4.785156 0.601562 4.785156 L 9.570312 4.785156 C 9.625 4.785156 9.671875 4.835938 9.671875 4.894531 L 9.671875 5.871094 C 9.671875 5.933594 9.625 5.980469 9.570312 5.980469 Z M 9.570312 5.980469 "/>
<path style=" stroke:none;fill-rule:nonzero;fill:rgb(30%,30%,30%);fill-opacity:1;" d="M 9.265625 3.734375 L 8.308594 2.507812 C 8.292969 2.488281 8.285156 2.464844 8.285156 2.4375 L 8.285156 0.113281 C 8.285156 0.0507812 8.242188 0.00390625 8.1875 0.00390625 L 1.820312 0.00390625 C 1.765625 0.00390625 1.722656 0.0507812 1.722656 0.113281 L 1.722656 2.503906 L 1.742188 2.503906 L 0.972656 3.707031 C 0.953125 3.742188 0.949219 3.785156 0.96875 3.820312 C 0.984375 3.859375 1.019531 3.878906 1.054688 3.878906 L 9.191406 3.914062 C 9.226562 3.914062 9.265625 3.890625 9.28125 3.851562 C 9.296875 3.8125 9.289062 3.765625 9.265625 3.734375 Z M 7.957031 2.359375 L 7.582031 2.359375 C 7.675781 2.253906 7.703125 2.101562 7.652344 1.96875 C 7.601562 1.832031 7.484375 1.746094 7.351562 1.746094 L 5.777344 1.746094 C 5.644531 1.746094 5.527344 1.832031 5.476562 1.96875 C 5.425781 2.101562 5.453125 2.253906 5.546875 2.359375 L 4.683594 2.359375 C 4.777344 2.253906 4.808594 2.101562 4.757812 1.96875 C 4.707031 1.832031 4.585938 1.746094 4.453125 1.746094 L 2.882812 1.746094 C 2.75 1.746094 2.628906 1.832031 2.578125 1.96875 C 2.53125 2.101562 2.558594 2.253906 2.652344 2.359375 L 2.183594 2.359375 L 2.183594 0.472656 L 7.957031 0.472656 Z M 7.957031 2.359375 "/>
</g>
</svg>
