<?xml version="1.0" encoding="UTF-8" standalone="no"?>
<!-- Created with Inkscape (http://www.inkscape.org/) -->

<svg
   xmlns:dc="http://purl.org/dc/elements/1.1/"
   xmlns:cc="http://creativecommons.org/ns#"
   xmlns:rdf="http://www.w3.org/1999/02/22-rdf-syntax-ns#"
   xmlns:svg="http://www.w3.org/2000/svg"
   xmlns="http://www.w3.org/2000/svg"
   xmlns:xlink="http://www.w3.org/1999/xlink"
   xmlns:sodipodi="http://sodipodi.sourceforge.net/DTD/sodipodi-0.dtd"
   xmlns:inkscape="http://www.inkscape.org/namespaces/inkscape"
   width="30px"
   height="30px"
   version="1.1"
   id="svg8"
   inkscape:version="0.92.4 5da689c313, 2019-01-14"
   sodipodi:docname="container.svg">
  <defs
     id="defs2" />
  <sodipodi:namedview
     id="base"
     pagecolor="#ffffff"
     bordercolor="#666666"
     borderopacity="1.0"
     inkscape:pageopacity="0.0"
     inkscape:pageshadow="2"
     inkscape:zoom="13.049334"
     inkscape:cx="18.679046"
     inkscape:cy="12.165829"
     inkscape:document-units="px"
     inkscape:current-layer="layer1"
     showgrid="false"
     inkscape:snap-page="false"
     units="px"
     inkscape:window-width="1884"
     inkscape:window-height="1061"
     inkscape:window-x="0"
     inkscape:window-y="0"
     inkscape:window-maximized="1"
     fit-margin-top="0"
     fit-margin-left="0"
     fit-margin-right="0"
     fit-margin-bottom="0" />
  <metadata
     id="metadata5">
    <rdf:RDF>
      <cc:Work
         rdf:about="">
        <dc:format>image/svg+xml</dc:format>
        <dc:type
           rdf:resource="http://purl.org/dc/dcmitype/StillImage" />
        <dc:title></dc:title>
      </cc:Work>
    </rdf:RDF>
  </metadata>
    <circle
       style="color:#000000;clip-rule:nonzero;display:inline;overflow:visible;visibility:visible;opacity:1;isolation:auto;mix-blend-mode:normal;color-interpolation:sRGB;color-interpolation-filters:linearRGB;solid-color:#000000;solid-opacity:1;vector-effect:none;fill:#808080;fill-opacity:1;fill-rule:evenodd;stroke:#ffffff;stroke-width:1;stroke-linecap:butt;stroke-linejoin:miter;stroke-miterlimit:4;stroke-dasharray:none;stroke-dashoffset:0;stroke-opacity:1;marker:none;color-rendering:auto;image-rendering:auto;shape-rendering:auto;text-rendering:auto;enable-background:accumulate"
       id="path815"
       cx="15"
       cy="15"
       r="14.5" />
<g transform="translate(9,6)"><g id="surface1">
<path style=" stroke:none;fill-rule:nonzero;fill:#FFFFFF;fill-opacity:1;" d="M 9.292969 5.320312 L 10.050781 5.253906 L 12 15.492188 L 8.101562 16.992188 Z M 7.714844 5.054688 L 8.882812 5.304688 L 7.691406 16.976562 L 0 14.515625 L 1.839844 3.804688 L 3.066406 4.066406 L 3.066406 2.839844 C 3.066406 1.574219 4.109375 0.542969 5.390625 0.542969 C 5.46875 0.542969 5.546875 0.546875 5.621094 0.554688 C 6.039062 0.199219 6.574219 0.0078125 7.125 0.0078125 C 8.40625 0.0078125 9.449219 1.039062 9.449219 2.304688 L 9.476562 4.863281 L 8.316406 4.597656 L 8.316406 2.304688 C 8.320312 1.964844 8.167969 1.636719 7.90625 1.414062 C 7.644531 1.1875 7.296875 1.089844 6.953125 1.140625 C 7.4375 1.574219 7.714844 2.195312 7.714844 2.839844 Z M 4.199219 4.164062 L 6.582031 4.671875 L 6.582031 2.839844 C 6.582031 2.4375 6.371094 2.0625 6.027344 1.847656 C 5.964844 1.992188 5.933594 2.148438 5.933594 2.304688 L 5.902344 3.953125 L 4.773438 3.703125 L 4.800781 2.304688 C 4.800781 2.132812 4.820312 1.957031 4.859375 1.789062 C 4.457031 1.988281 4.199219 2.394531 4.199219 2.839844 Z M 2.980469 5.402344 C 2.980469 5.667969 3.199219 5.882812 3.464844 5.882812 C 3.734375 5.882812 3.953125 5.667969 3.953125 5.402344 C 3.953125 5.136719 3.734375 4.921875 3.464844 4.921875 C 3.199219 4.921875 2.980469 5.136719 2.980469 5.402344 Z M 6.398438 9.226562 L 2.699219 8.363281 L 2.277344 10.882812 L 6.011719 11.78125 Z M 7.300781 6.1875 C 7.300781 5.921875 7.082031 5.707031 6.816406 5.707031 C 6.546875 5.707031 6.328125 5.921875 6.328125 6.1875 C 6.328125 6.453125 6.546875 6.664062 6.816406 6.664062 C 7.082031 6.664062 7.300781 6.453125 7.300781 6.1875 Z M 7.300781 6.1875 "/>
</g>
</g>
</svg>
