<?xml version="1.0" encoding="UTF-8" standalone="no"?>
<!-- Created with Inkscape (http://www.inkscape.org/) -->

<svg
   xmlns:dc="http://purl.org/dc/elements/1.1/"
   xmlns:cc="http://creativecommons.org/ns#"
   xmlns:rdf="http://www.w3.org/1999/02/22-rdf-syntax-ns#"
   xmlns:svg="http://www.w3.org/2000/svg"
   xmlns="http://www.w3.org/2000/svg"
   xmlns:xlink="http://www.w3.org/1999/xlink"
   xmlns:sodipodi="http://sodipodi.sourceforge.net/DTD/sodipodi-0.dtd"
   xmlns:inkscape="http://www.inkscape.org/namespaces/inkscape"
   width="30px"
   height="30px"
   version="1.1"
   id="svg8"
   inkscape:version="0.92.4 5da689c313, 2019-01-14"
   sodipodi:docname="container.svg">
  <defs
     id="defs2" />
  <sodipodi:namedview
     id="base"
     pagecolor="#ffffff"
     bordercolor="#666666"
     borderopacity="1.0"
     inkscape:pageopacity="0.0"
     inkscape:pageshadow="2"
     inkscape:zoom="13.049334"
     inkscape:cx="18.679046"
     inkscape:cy="12.165829"
     inkscape:document-units="px"
     inkscape:current-layer="layer1"
     showgrid="false"
     inkscape:snap-page="false"
     units="px"
     inkscape:window-width="1884"
     inkscape:window-height="1061"
     inkscape:window-x="0"
     inkscape:window-y="0"
     inkscape:window-maximized="1"
     fit-margin-top="0"
     fit-margin-left="0"
     fit-margin-right="0"
     fit-margin-bottom="0" />
  <metadata
     id="metadata5">
    <rdf:RDF>
      <cc:Work
         rdf:about="">
        <dc:format>image/svg+xml</dc:format>
        <dc:type
           rdf:resource="http://purl.org/dc/dcmitype/StillImage" />
        <dc:title></dc:title>
      </cc:Work>
    </rdf:RDF>
  </metadata>
    <circle
       style="color:#000000;clip-rule:nonzero;display:inline;overflow:visible;visibility:visible;opacity:1;isolation:auto;mix-blend-mode:normal;color-interpolation:sRGB;color-interpolation-filters:linearRGB;solid-color:#000000;solid-opacity:1;vector-effect:none;fill:#ffffff;fill-opacity:1;fill-rule:evenodd;stroke:#808080;stroke-width:1;stroke-linecap:butt;stroke-linejoin:miter;stroke-miterlimit:4;stroke-dasharray:none;stroke-dashoffset:0;stroke-opacity:1;marker:none;color-rendering:auto;image-rendering:auto;shape-rendering:auto;text-rendering:auto;enable-background:accumulate"
       id="path815"
       cx="15"
       cy="15"
       r="14.5" />
<g transform="translate(7,12)"><g id="surface1">
<path style=" stroke:none;fill-rule:nonzero;fill:rgb(30%,30%,30%);fill-opacity:1;" d="M 16 2.285156 L 14.8125 2.285156 C 14.496094 0.933594 13.332031 -0.0117188 12.007812 0.00390625 C 10.679688 0.0195312 9.539062 0.992188 9.253906 2.351562 C 8.945312 1.984375 8.445312 1.824219 7.972656 1.824219 C 7.488281 1.824219 7 2.039062 6.707031 2.429688 C 6.453125 1.050781 5.316406 0.0390625 3.976562 0.00390625 C 2.636719 -0.03125 1.453125 0.917969 1.132812 2.285156 L 0 2.285156 L 0 2.914062 L 1.050781 2.914062 C 1.050781 2.941406 1.050781 2.972656 1.050781 3 C 1.050781 4.652344 2.328125 5.996094 3.90625 5.996094 C 5.417969 5.996094 6.65625 4.757812 6.753906 3.195312 C 6.945312 2.703125 7.476562 2.453125 7.976562 2.453125 C 8.453125 2.453125 8.960938 2.640625 9.1875 3.101562 C 9.238281 4.734375 10.53125 6.023438 12.089844 5.996094 C 13.648438 5.96875 14.894531 4.632812 14.894531 3 C 14.894531 2.972656 14.894531 2.941406 14.894531 2.914062 L 16 2.914062 Z M 3.90625 5.292969 C 2.699219 5.292969 1.71875 4.265625 1.71875 3 C 1.71875 1.734375 2.699219 0.707031 3.90625 0.707031 C 5.109375 0.707031 6.089844 1.734375 6.089844 3 C 6.089844 4.265625 5.109375 5.292969 3.90625 5.292969 Z M 6.757812 3.085938 L 6.777344 3.085938 L 6.753906 3.167969 C 6.753906 3.140625 6.757812 3.113281 6.757812 3.085938 Z M 12.039062 5.292969 C 10.835938 5.292969 9.855469 4.265625 9.855469 3 C 9.855469 1.734375 10.835938 0.707031 12.039062 0.707031 C 13.246094 0.707031 14.226562 1.734375 14.226562 3 C 14.226562 4.265625 13.246094 5.292969 12.039062 5.292969 Z M 12.039062 5.292969 "/>
</g>
</g>
</svg>
