<?xml version="1.0" encoding="UTF-8" standalone="no"?>
<!-- Created with Inkscape (http://www.inkscape.org/) -->

<svg
   xmlns:dc="http://purl.org/dc/elements/1.1/"
   xmlns:cc="http://creativecommons.org/ns#"
   xmlns:rdf="http://www.w3.org/1999/02/22-rdf-syntax-ns#"
   xmlns:svg="http://www.w3.org/2000/svg"
   xmlns="http://www.w3.org/2000/svg"
   xmlns:xlink="http://www.w3.org/1999/xlink"
   xmlns:sodipodi="http://sodipodi.sourceforge.net/DTD/sodipodi-0.dtd"
   xmlns:inkscape="http://www.inkscape.org/namespaces/inkscape"
   width="30px"
   height="30px"
   version="1.1"
   id="svg8"
   inkscape:version="0.92.4 5da689c313, 2019-01-14"
   sodipodi:docname="container.svg">
  <defs
     id="defs2" />
  <sodipodi:namedview
     id="base"
     pagecolor="#ffffff"
     bordercolor="#666666"
     borderopacity="1.0"
     inkscape:pageopacity="0.0"
     inkscape:pageshadow="2"
     inkscape:zoom="13.049334"
     inkscape:cx="18.679046"
     inkscape:cy="12.165829"
     inkscape:document-units="px"
     inkscape:current-layer="layer1"
     showgrid="false"
     inkscape:snap-page="false"
     units="px"
     inkscape:window-width="1884"
     inkscape:window-height="1061"
     inkscape:window-x="0"
     inkscape:window-y="0"
     inkscape:window-maximized="1"
     fit-margin-top="0"
     fit-margin-left="0"
     fit-margin-right="0"
     fit-margin-bottom="0" />
  <metadata
     id="metadata5">
    <rdf:RDF>
      <cc:Work
         rdf:about="">
        <dc:format>image/svg+xml</dc:format>
        <dc:type
           rdf:resource="http://purl.org/dc/dcmitype/StillImage" />
        <dc:title></dc:title>
      </cc:Work>
    </rdf:RDF>
  </metadata>
    <circle
       style="color:#000000;clip-rule:nonzero;display:inline;overflow:visible;visibility:visible;opacity:1;isolation:auto;mix-blend-mode:normal;color-interpolation:sRGB;color-interpolation-filters:linearRGB;solid-color:#000000;solid-opacity:1;vector-effect:none;fill:#ffffff;fill-opacity:1;fill-rule:evenodd;stroke:#808080;stroke-width:1;stroke-linecap:butt;stroke-linejoin:miter;stroke-miterlimit:4;stroke-dasharray:none;stroke-dashoffset:0;stroke-opacity:1;marker:none;color-rendering:auto;image-rendering:auto;shape-rendering:auto;text-rendering:auto;enable-background:accumulate"
       id="path815"
       cx="15"
       cy="15"
       r="14.5" />
<g transform="translate(6,7)"><g id="surface1">
<path style=" stroke:none;fill-rule:nonzero;fill:rgb(30%,30%,30%);fill-opacity:1;" d="M 12.980469 1.953125 C 12.976562 1.953125 12.976562 1.953125 12.976562 1.957031 L 7.84375 13.871094 C 7.421875 14.824219 6.722656 15.371094 5.921875 15.371094 L 2.546875 15.371094 C 1.617188 15.371094 0.820312 14.632812 0.832031 13.730469 C 0.847656 12.808594 1.621094 12.140625 2.679688 12.140625 L 5.953125 12.140625 C 6.246094 12.140625 6.511719 12.347656 6.539062 12.632812 C 6.550781 12.785156 6.5 12.933594 6.394531 13.046875 C 6.289062 13.160156 6.136719 13.222656 5.980469 13.222656 L 2.679688 13.222656 C 2.242188 13.222656 1.957031 13.425781 1.949219 13.742188 C 1.945312 14.042969 2.21875 14.285156 2.527344 14.285156 L 5.921875 14.285156 C 6.246094 14.285156 6.929688 13.757812 7.160156 13.230469 L 12.417969 1.300781 C 12.496094 0.804688 12.433594 0.0429688 12.210938 0 L 6.382812 0 C 6.378906 0 6.378906 0 6.378906 0.00390625 C 6.378906 0.00390625 0.226562 11.929688 0.117188 12.578125 C 0.00390625 13.230469 0.00390625 13.878906 0.00390625 13.878906 C 0.0429688 14.421875 0.226562 16.023438 2.058594 16 L 11.34375 16 C 11.347656 16 11.347656 16 11.351562 15.996094 L 16.996094 1.9375 C 16.996094 1.933594 16.996094 1.933594 16.996094 1.933594 C 16.992188 1.929688 16.992188 1.929688 16.988281 1.929688 Z M 13.144531 4.988281 C 12.929688 4.988281 12.753906 4.816406 12.753906 4.609375 C 12.753906 4.398438 12.929688 4.230469 13.144531 4.230469 C 13.359375 4.230469 13.535156 4.398438 13.535156 4.609375 C 13.535156 4.816406 13.359375 4.988281 13.144531 4.988281 Z M 13.703125 3.578125 C 13.488281 3.578125 13.3125 3.410156 13.3125 3.199219 C 13.3125 2.988281 13.488281 2.820312 13.703125 2.820312 C 13.917969 2.820312 14.09375 2.988281 14.09375 3.199219 C 14.09375 3.410156 13.917969 3.578125 13.703125 3.578125 Z M 14.820312 4.664062 C 14.605469 4.664062 14.429688 4.492188 14.429688 4.285156 C 14.429688 4.074219 14.605469 3.902344 14.820312 3.902344 C 15.039062 3.902344 15.214844 4.074219 15.214844 4.285156 C 15.214844 4.492188 15.039062 4.664062 14.820312 4.664062 Z M 12.585938 6.398438 C 12.371094 6.398438 12.195312 6.226562 12.195312 6.019531 C 12.195312 5.808594 12.371094 5.640625 12.585938 5.640625 C 12.800781 5.640625 12.976562 5.808594 12.976562 6.019531 C 12.976562 6.226562 12.800781 6.398438 12.585938 6.398438 Z M 14.261719 6.074219 C 14.046875 6.074219 13.871094 5.902344 13.871094 5.691406 C 13.871094 5.484375 14.046875 5.3125 14.261719 5.3125 C 14.480469 5.3125 14.652344 5.484375 14.652344 5.691406 C 14.652344 5.902344 14.480469 6.074219 14.261719 6.074219 Z M 11.914062 8.023438 C 11.699219 8.023438 11.523438 7.855469 11.523438 7.644531 C 11.523438 7.433594 11.699219 7.265625 11.914062 7.265625 C 12.128906 7.265625 12.304688 7.433594 12.304688 7.644531 C 12.304688 7.855469 12.128906 8.023438 11.914062 8.023438 Z M 13.59375 7.699219 C 13.375 7.699219 13.199219 7.527344 13.199219 7.320312 C 13.199219 7.109375 13.375 6.941406 13.59375 6.941406 C 13.808594 6.941406 13.984375 7.109375 13.984375 7.320312 C 13.984375 7.527344 13.808594 7.699219 13.59375 7.699219 Z M 11.355469 9.757812 C 11.140625 9.757812 10.964844 9.589844 10.964844 9.378906 C 10.964844 9.171875 11.140625 9 11.355469 9 C 11.570312 9 11.746094 9.171875 11.746094 9.378906 C 11.746094 9.589844 11.570312 9.757812 11.355469 9.757812 Z M 13.03125 9.433594 C 12.816406 9.433594 12.640625 9.265625 12.640625 9.054688 C 12.640625 8.84375 12.816406 8.675781 13.03125 8.675781 C 13.25 8.675781 13.425781 8.84375 13.425781 9.054688 C 13.425781 9.265625 13.25 9.433594 13.03125 9.433594 Z M 10.347656 11.496094 C 10.132812 11.496094 9.957031 11.324219 9.957031 11.113281 C 9.957031 10.90625 10.132812 10.734375 10.347656 10.734375 C 10.566406 10.734375 10.738281 10.90625 10.738281 11.113281 C 10.738281 11.324219 10.566406 11.496094 10.347656 11.496094 Z M 12.027344 11.167969 C 11.808594 11.167969 11.636719 11 11.636719 10.789062 C 11.636719 10.578125 11.808594 10.410156 12.027344 10.410156 C 12.242188 10.410156 12.417969 10.578125 12.417969 10.789062 C 12.417969 11 12.242188 11.167969 12.027344 11.167969 Z M 9.679688 13.121094 C 9.460938 13.121094 9.285156 12.949219 9.285156 12.742188 C 9.285156 12.53125 9.460938 12.363281 9.679688 12.363281 C 9.894531 12.363281 10.070312 12.53125 10.070312 12.742188 C 10.070312 12.949219 9.894531 13.121094 9.679688 13.121094 Z M 11.355469 12.796875 C 11.140625 12.796875 10.964844 12.625 10.964844 12.417969 C 10.964844 12.207031 11.140625 12.035156 11.355469 12.035156 C 11.570312 12.035156 11.746094 12.207031 11.746094 12.417969 C 11.746094 12.625 11.570312 12.796875 11.355469 12.796875 Z M 8.894531 15.074219 C 8.679688 15.074219 8.503906 14.902344 8.503906 14.691406 C 8.503906 14.484375 8.679688 14.3125 8.894531 14.3125 C 9.109375 14.3125 9.285156 14.484375 9.285156 14.691406 C 9.285156 14.902344 9.109375 15.074219 8.894531 15.074219 Z M 10.574219 14.746094 C 10.355469 14.746094 10.179688 14.578125 10.179688 14.367188 C 10.179688 14.160156 10.355469 13.988281 10.574219 13.988281 C 10.789062 13.988281 10.964844 14.160156 10.964844 14.367188 C 10.964844 14.578125 10.789062 14.746094 10.574219 14.746094 Z M 15.382812 3.363281 C 15.164062 3.363281 14.988281 3.191406 14.988281 2.980469 C 14.988281 2.773438 15.164062 2.601562 15.382812 2.601562 C 15.597656 2.601562 15.773438 2.773438 15.773438 2.980469 C 15.773438 3.191406 15.597656 3.363281 15.382812 3.363281 Z M 15.382812 3.363281 "/>
</g>
</g>
</svg>
