<?xml version="1.0" encoding="UTF-8"?>
<svg xmlns="http://www.w3.org/2000/svg" xmlns:xlink="http://www.w3.org/1999/xlink" width="9px" height="10px" viewBox="0 0 9 10" version="1.1">
<g id="surface1">
<path style=" stroke:none;fill-rule:nonzero;fill:rgb(30%,30%,30%);fill-opacity:1;" d="M 6.703125 0 L 8.480469 5.15625 C 5.15625 8.699219 0.00390625 9.902344 0.00390625 9.902344 L 1.425781 3.03125 C 5.476562 2.15625 6.703125 0 6.703125 0 Z M 1.992188 3.589844 L 1.496094 6.0625 C 3.546875 5.503906 5.53125 4.824219 7.09375 3.425781 L 6.472656 1.398438 C 6.472656 1.398438 4.980469 2.816406 1.992188 3.589844 Z M 8.730469 6.9375 L 8.304688 6.0625 C 6.882812 7.480469 3.074219 9.335938 3.203125 9.257812 C 3.203125 9.257812 7.324219 8.089844 8.730469 6.9375 Z M 8.996094 8.632812 L 8.570312 7.527344 C 6.882812 8.632812 2.882812 9.671875 2.882812 9.671875 C 3.367188 9.863281 8.902344 8.867188 8.996094 8.632812 Z M 8.996094 9.867188 L 8.765625 9.226562 C 7.164062 9.4375 5.941406 9.753906 2.882812 10 Z M 8.996094 9.867188 "/>
</g>
</svg>
