<?xml version="1.0" encoding="UTF-8" standalone="no"?>
<!-- Created with Inkscape (http://www.inkscape.org/) -->

<svg
   xmlns:dc="http://purl.org/dc/elements/1.1/"
   xmlns:cc="http://creativecommons.org/ns#"
   xmlns:rdf="http://www.w3.org/1999/02/22-rdf-syntax-ns#"
   xmlns:svg="http://www.w3.org/2000/svg"
   xmlns="http://www.w3.org/2000/svg"
   xmlns:xlink="http://www.w3.org/1999/xlink"
   xmlns:sodipodi="http://sodipodi.sourceforge.net/DTD/sodipodi-0.dtd"
   xmlns:inkscape="http://www.inkscape.org/namespaces/inkscape"
   width="30px"
   height="30px"
   version="1.1"
   id="svg8"
   inkscape:version="0.92.4 5da689c313, 2019-01-14"
   sodipodi:docname="container.svg">
  <defs
     id="defs2" />
  <sodipodi:namedview
     id="base"
     pagecolor="#ffffff"
     bordercolor="#666666"
     borderopacity="1.0"
     inkscape:pageopacity="0.0"
     inkscape:pageshadow="2"
     inkscape:zoom="13.049334"
     inkscape:cx="18.679046"
     inkscape:cy="12.165829"
     inkscape:document-units="px"
     inkscape:current-layer="layer1"
     showgrid="false"
     inkscape:snap-page="false"
     units="px"
     inkscape:window-width="1884"
     inkscape:window-height="1061"
     inkscape:window-x="0"
     inkscape:window-y="0"
     inkscape:window-maximized="1"
     fit-margin-top="0"
     fit-margin-left="0"
     fit-margin-right="0"
     fit-margin-bottom="0" />
  <metadata
     id="metadata5">
    <rdf:RDF>
      <cc:Work
         rdf:about="">
        <dc:format>image/svg+xml</dc:format>
        <dc:type
           rdf:resource="http://purl.org/dc/dcmitype/StillImage" />
        <dc:title></dc:title>
      </cc:Work>
    </rdf:RDF>
  </metadata>
    <circle
       style="color:#000000;clip-rule:nonzero;display:inline;overflow:visible;visibility:visible;opacity:1;isolation:auto;mix-blend-mode:normal;color-interpolation:sRGB;color-interpolation-filters:linearRGB;solid-color:#000000;solid-opacity:1;vector-effect:none;fill:#808080;fill-opacity:1;fill-rule:evenodd;stroke:#ffffff;stroke-width:1;stroke-linecap:butt;stroke-linejoin:miter;stroke-miterlimit:4;stroke-dasharray:none;stroke-dashoffset:0;stroke-opacity:1;marker:none;color-rendering:auto;image-rendering:auto;shape-rendering:auto;text-rendering:auto;enable-background:accumulate"
       id="path815"
       cx="15"
       cy="15"
       r="14.5" />
<g transform="translate(6,8)"><g id="surface1">
<path style=" stroke:none;fill-rule:nonzero;fill:#FFFFFF;fill-opacity:1;" d="M 0.015625 10.339844 L 2.023438 4.5625 C 2.070312 4.417969 2 4.257812 1.859375 4.207031 C 1.558594 4.089844 1.359375 3.796875 1.359375 3.46875 L 1.359375 1.074219 C 1.359375 0.484375 1.824219 0.0078125 2.402344 0.0078125 L 14.945312 0.0078125 C 16.078125 0.0078125 15.90625 0.0078125 15.90625 0.714844 L 16.335938 0.714844 L 16.335938 2.128906 L 15.929688 2.128906 C 15.90625 2.839844 15.90625 2.839844 14.945312 2.839844 L 9.175781 2.839844 C 9.09375 2.839844 9.015625 2.875 8.960938 2.941406 L 7.855469 4.316406 C 7.800781 4.390625 7.679688 4.785156 7.765625 5.140625 C 7.851562 5.492188 8.199219 6.113281 8.199219 6.113281 C 8.199219 6.113281 7.523438 5.992188 7.214844 5.355469 C 7.179688 5.28125 7.15625 5.199219 7.144531 5.117188 L 7.066406 4.464844 C 6.996094 4.355469 6.855469 4.3125 6.738281 4.363281 C 6.660156 4.398438 6.597656 4.464844 6.574219 4.546875 L 5.96875 6.484375 C 6.792969 6.511719 8.179688 6.550781 8.5625 6.554688 C 8.71875 6.34375 8.980469 5.453125 9.175781 4.601562 L 8.632812 4.609375 L 9.324219 3.546875 L 15.558594 3.546875 L 15.386719 4.519531 L 9.710938 4.59375 C 9.167969 7.085938 8.808594 7.085938 8.632812 7.085938 C 8.367188 7.085938 6.65625 7.039062 5.804688 7.011719 L 4.710938 10.519531 C 4.671875 10.636719 4.566406 10.714844 4.445312 10.714844 L 0.273438 10.714844 C 0.1875 10.714844 0.101562 10.671875 0.0507812 10.597656 C 0 10.523438 -0.015625 10.425781 0.015625 10.339844 Z M 17 10.085938 L 16.558594 10.085938 C 16.484375 11.863281 15.082031 13.296875 13.34375 13.375 L 13.34375 13.992188 L 13.011719 13.992188 L 13.011719 13.371094 C 11.289062 13.273438 9.90625 11.851562 9.835938 10.085938 L 9.351562 10.085938 L 9.351562 9.914062 L 9.832031 9.914062 C 9.84375 8.089844 11.246094 6.601562 13.011719 6.5 L 13.011719 6.007812 L 13.34375 6.007812 L 13.34375 6.5 C 15.125 6.578125 16.550781 8.078125 16.5625 9.914062 L 17 9.914062 Z M 13.34375 7.625 C 14.527344 7.703125 15.449219 8.703125 15.460938 9.914062 L 16.1875 9.914062 C 16.179688 8.289062 14.917969 6.960938 13.34375 6.882812 Z M 10.203125 9.914062 L 10.933594 9.914062 C 10.941406 8.71875 11.84375 7.726562 13.011719 7.628906 L 13.011719 6.882812 C 11.453125 6.984375 10.214844 8.300781 10.203125 9.914062 Z M 13.011719 12.242188 C 11.890625 12.148438 11.007812 11.230469 10.9375 10.085938 L 10.207031 10.085938 C 10.28125 11.640625 11.496094 12.890625 13.011719 12.988281 Z M 14.574219 9.9375 C 14.574219 9.160156 13.957031 8.527344 13.195312 8.527344 C 12.4375 8.527344 11.820312 9.160156 11.820312 9.9375 C 11.820312 10.714844 12.4375 11.34375 13.195312 11.34375 C 13.957031 11.34375 14.574219 10.714844 14.574219 9.9375 Z M 16.1875 10.085938 L 15.457031 10.085938 C 15.382812 11.246094 14.480469 12.171875 13.34375 12.246094 L 13.34375 12.992188 C 14.878906 12.914062 16.113281 11.652344 16.1875 10.085938 Z M 13.195312 8.980469 C 12.703125 8.980469 12.304688 9.390625 12.304688 9.894531 C 12.304688 10.398438 12.703125 10.808594 13.195312 10.808594 C 13.691406 10.808594 14.089844 10.398438 14.089844 9.894531 C 14.089844 9.390625 13.691406 8.980469 13.195312 8.980469 Z M 13.195312 8.980469 "/>
</g>
</g>
</svg>
