<?xml version="1.0" encoding="UTF-8"?>
<svg xmlns="http://www.w3.org/2000/svg" xmlns:xlink="http://www.w3.org/1999/xlink" width="10px" height="11px" viewBox="0 0 10 11" version="1.1">
<g id="surface1">
<path style=" stroke:none;fill-rule:nonzero;fill:rgb(30%,30%,30%);fill-opacity:1;" d="M 10 3.574219 C 9.972656 3.4375 9.429688 1.144531 9.316406 0.707031 C 9.203125 0.273438 8.519531 0.109375 8.148438 0.109375 C 7.777344 0.109375 6.640625 0.00390625 6.640625 0.00390625 C 6.640625 0.00390625 6.636719 0 6.523438 0.21875 C 6.410156 0.433594 6.011719 0.679688 5.46875 0.789062 C 4.929688 0.898438 4.414062 0.652344 4.21875 0.488281 C 4.015625 0.324219 3.761719 0.00390625 3.761719 0.00390625 C 3.761719 0.00390625 2.535156 0.0820312 2.25 0.109375 C 1.964844 0.136719 1.625 0.246094 1.28125 0.433594 C 0.941406 0.625 0.742188 0.816406 0.65625 1.0625 C 0.570312 1.308594 0.113281 2.699219 0 3.464844 C 0.480469 3.65625 1.59375 3.683594 1.59375 3.683594 L 1.691406 3.578125 C 1.691406 3.578125 1.820312 4.394531 1.964844 4.828125 C 2.046875 5.070312 2.421875 6.085938 2.421875 6.328125 C 2.421875 6.574219 2.222656 7.558594 2.109375 7.886719 C 1.996094 8.210938 1.765625 8.8125 1.707031 9.195312 C 1.652344 9.578125 1.511719 10.996094 1.511719 10.996094 C 1.511719 10.996094 8.488281 10.941406 8.519531 10.832031 C 8.546875 10.449219 8.558594 8.941406 8.035156 7.695312 C 7.828125 7.203125 7.832031 5.894531 7.777344 5.484375 C 7.71875 5.074219 8.089844 4.554688 8.203125 4.367188 C 8.320312 4.171875 8.375 3.875 8.375 3.875 L 8.601562 3.957031 C 8.601562 3.957031 10.027344 3.710938 10 3.574219 Z M 4.992188 6.925781 C 4.992188 6.925781 2.796875 5.984375 2.796875 4.824219 C 2.796875 4.824219 2.796875 4.820312 2.796875 4.816406 C 2.796875 4.238281 3.289062 3.773438 3.894531 3.773438 C 4.5 3.773438 4.992188 4.238281 4.992188 4.816406 C 4.996094 4.238281 5.484375 3.773438 6.09375 3.773438 C 6.699219 3.773438 7.1875 4.238281 7.191406 4.816406 C 7.191406 4.820312 7.191406 4.824219 7.191406 4.824219 C 7.191406 5.984375 4.992188 6.925781 4.992188 6.925781 Z M 4.992188 6.925781 "/>
</g>
</svg>
