<?xml version="1.0" encoding="UTF-8" standalone="no"?>
<!-- Created with Inkscape (http://www.inkscape.org/) -->

<svg
   xmlns:dc="http://purl.org/dc/elements/1.1/"
   xmlns:cc="http://creativecommons.org/ns#"
   xmlns:rdf="http://www.w3.org/1999/02/22-rdf-syntax-ns#"
   xmlns:svg="http://www.w3.org/2000/svg"
   xmlns="http://www.w3.org/2000/svg"
   xmlns:xlink="http://www.w3.org/1999/xlink"
   xmlns:sodipodi="http://sodipodi.sourceforge.net/DTD/sodipodi-0.dtd"
   xmlns:inkscape="http://www.inkscape.org/namespaces/inkscape"
   width="30px"
   height="30px"
   version="1.1"
   id="svg8"
   inkscape:version="0.92.4 5da689c313, 2019-01-14"
   sodipodi:docname="container.svg">
  <defs
     id="defs2" />
  <sodipodi:namedview
     id="base"
     pagecolor="#ffffff"
     bordercolor="#666666"
     borderopacity="1.0"
     inkscape:pageopacity="0.0"
     inkscape:pageshadow="2"
     inkscape:zoom="13.049334"
     inkscape:cx="18.679046"
     inkscape:cy="12.165829"
     inkscape:document-units="px"
     inkscape:current-layer="layer1"
     showgrid="false"
     inkscape:snap-page="false"
     units="px"
     inkscape:window-width="1884"
     inkscape:window-height="1061"
     inkscape:window-x="0"
     inkscape:window-y="0"
     inkscape:window-maximized="1"
     fit-margin-top="0"
     fit-margin-left="0"
     fit-margin-right="0"
     fit-margin-bottom="0" />
  <metadata
     id="metadata5">
    <rdf:RDF>
      <cc:Work
         rdf:about="">
        <dc:format>image/svg+xml</dc:format>
        <dc:type
           rdf:resource="http://purl.org/dc/dcmitype/StillImage" />
        <dc:title></dc:title>
      </cc:Work>
    </rdf:RDF>
  </metadata>
    <circle
       style="color:#000000;clip-rule:nonzero;display:inline;overflow:visible;visibility:visible;opacity:1;isolation:auto;mix-blend-mode:normal;color-interpolation:sRGB;color-interpolation-filters:linearRGB;solid-color:#000000;solid-opacity:1;vector-effect:none;fill:#ffffff;fill-opacity:1;fill-rule:evenodd;stroke:#808080;stroke-width:1;stroke-linecap:butt;stroke-linejoin:miter;stroke-miterlimit:4;stroke-dasharray:none;stroke-dashoffset:0;stroke-opacity:1;marker:none;color-rendering:auto;image-rendering:auto;shape-rendering:auto;text-rendering:auto;enable-background:accumulate"
       id="path815"
       cx="15"
       cy="15"
       r="14.5" />
<g transform="translate(7,6)"><g id="surface1">
<path style=" stroke:none;fill-rule:nonzero;fill:rgb(30%,30%,30%);fill-opacity:1;" d="M 2.691406 4.527344 L 3.875 4.527344 C 4.023438 4.527344 4.140625 4.476562 4.140625 4.414062 L 4.140625 3.433594 C 4.140625 3.367188 4.023438 3.316406 3.875 3.316406 L 2.691406 3.316406 C 2.542969 3.316406 2.425781 3.367188 2.425781 3.433594 L 2.425781 4.414062 C 2.425781 4.476562 2.542969 4.527344 2.691406 4.527344 Z M 2.691406 4.527344 "/>
<path style=" stroke:none;fill-rule:nonzero;fill:rgb(30%,30%,30%);fill-opacity:1;" d="M 16 16.535156 C 16 16.789062 15.792969 16.992188 15.535156 16.996094 L 12.800781 16.996094 C 12.542969 16.992188 12.339844 16.789062 12.335938 16.535156 L 12.335938 6.292969 C 12.335938 6.042969 12.472656 5.679688 12.640625 5.488281 L 13.542969 4.460938 L 13.542969 1.007812 L 13.460938 1.007812 L 13.460938 0.00390625 L 14.875 0.00390625 L 14.875 1.007812 L 14.792969 1.007812 L 14.792969 4.460938 L 15.695312 5.488281 C 15.863281 5.679688 16 6.042969 16 6.292969 Z M 16 16.535156 "/>
<path style=" stroke:none;fill-rule:nonzero;fill:rgb(30%,30%,30%);fill-opacity:1;" d="M 11.128906 5.695312 L 10.128906 5.257812 C 9.878906 5.152344 9.671875 4.839844 9.671875 4.566406 L 9.671875 2.777344 C 9.671875 2.503906 9.804688 2.285156 9.96875 2.285156 C 10.132812 2.285156 10.265625 2.0625 10.265625 1.789062 L 10.265625 0.8125 C 10.265625 0.539062 10.042969 0.320312 9.769531 0.320312 L 7.367188 0.320312 C 7.09375 0.320312 6.871094 0.539062 6.871094 0.8125 L 6.871094 1.789062 C 6.871094 2.0625 7.003906 2.285156 7.167969 2.285156 C 7.328125 2.285156 7.464844 2.503906 7.464844 2.777344 L 7.464844 4.566406 C 7.464844 4.839844 7.257812 5.152344 7.007812 5.257812 L 6.007812 5.695312 C 5.753906 5.804688 5.550781 6.117188 5.550781 6.390625 L 5.550781 9.394531 C 5.164062 9.214844 4.699219 9.121094 4.203125 9.089844 L 4.203125 5.921875 L 4.253906 5.921875 C 4.46875 5.921875 4.664062 5.808594 4.765625 5.628906 C 4.871094 5.445312 4.871094 5.222656 4.765625 5.042969 C 4.660156 4.863281 4.460938 4.75 4.25 4.753906 L 2.3125 4.753906 C 1.984375 4.753906 1.722656 5.015625 1.71875 5.335938 C 1.71875 5.632812 1.9375 5.921875 2.363281 5.921875 L 2.363281 9.089844 C 0.808594 9.191406 0 9.871094 0 10.871094 L 0 16.253906 C 0 16.640625 0.316406 16.957031 0.707031 16.957031 L 5.859375 16.957031 C 5.894531 16.953125 5.929688 16.953125 5.964844 16.945312 C 5.992188 16.949219 6.019531 16.953125 6.046875 16.953125 L 11.089844 16.953125 C 11.363281 16.953125 11.585938 16.730469 11.585938 16.460938 L 11.585938 6.390625 C 11.585938 6.117188 11.382812 5.804688 11.128906 5.695312 Z M 2.28125 14.101562 L 2.28125 11.980469 C 2.285156 11.40625 2.753906 10.941406 3.328125 10.941406 L 5.550781 10.941406 L 5.550781 11.355469 L 3.328125 11.355469 C 2.984375 11.355469 2.703125 11.636719 2.703125 11.980469 L 2.703125 14.101562 C 2.703125 14.445312 2.984375 14.726562 3.328125 14.726562 L 5.550781 14.726562 L 5.550781 15.140625 L 3.328125 15.140625 C 2.753906 15.140625 2.285156 14.675781 2.28125 14.101562 Z M 2.28125 14.101562 "/>
</g>
</g>
</svg>
