<?xml version="1.0" encoding="UTF-8" standalone="no"?>
<!-- Created with Inkscape (http://www.inkscape.org/) -->

<svg
   xmlns:dc="http://purl.org/dc/elements/1.1/"
   xmlns:cc="http://creativecommons.org/ns#"
   xmlns:rdf="http://www.w3.org/1999/02/22-rdf-syntax-ns#"
   xmlns:svg="http://www.w3.org/2000/svg"
   xmlns="http://www.w3.org/2000/svg"
   xmlns:xlink="http://www.w3.org/1999/xlink"
   xmlns:sodipodi="http://sodipodi.sourceforge.net/DTD/sodipodi-0.dtd"
   xmlns:inkscape="http://www.inkscape.org/namespaces/inkscape"
   width="30px"
   height="30px"
   version="1.1"
   id="svg8"
   inkscape:version="0.92.4 5da689c313, 2019-01-14"
   sodipodi:docname="container.svg">
  <defs
     id="defs2" />
  <sodipodi:namedview
     id="base"
     pagecolor="#ffffff"
     bordercolor="#666666"
     borderopacity="1.0"
     inkscape:pageopacity="0.0"
     inkscape:pageshadow="2"
     inkscape:zoom="13.049334"
     inkscape:cx="18.679046"
     inkscape:cy="12.165829"
     inkscape:document-units="px"
     inkscape:current-layer="layer1"
     showgrid="false"
     inkscape:snap-page="false"
     units="px"
     inkscape:window-width="1884"
     inkscape:window-height="1061"
     inkscape:window-x="0"
     inkscape:window-y="0"
     inkscape:window-maximized="1"
     fit-margin-top="0"
     fit-margin-left="0"
     fit-margin-right="0"
     fit-margin-bottom="0" />
  <metadata
     id="metadata5">
    <rdf:RDF>
      <cc:Work
         rdf:about="">
        <dc:format>image/svg+xml</dc:format>
        <dc:type
           rdf:resource="http://purl.org/dc/dcmitype/StillImage" />
        <dc:title></dc:title>
      </cc:Work>
    </rdf:RDF>
  </metadata>
    <circle
       style="color:#000000;clip-rule:nonzero;display:inline;overflow:visible;visibility:visible;opacity:1;isolation:auto;mix-blend-mode:normal;color-interpolation:sRGB;color-interpolation-filters:linearRGB;solid-color:#000000;solid-opacity:1;vector-effect:none;fill:#808080;fill-opacity:1;fill-rule:evenodd;stroke:#ffffff;stroke-width:1;stroke-linecap:butt;stroke-linejoin:miter;stroke-miterlimit:4;stroke-dasharray:none;stroke-dashoffset:0;stroke-opacity:1;marker:none;color-rendering:auto;image-rendering:auto;shape-rendering:auto;text-rendering:auto;enable-background:accumulate"
       id="path815"
       cx="15"
       cy="15"
       r="14.5" />
<g transform="translate(7,6)"><g id="surface1">
<path style=" stroke:none;fill-rule:nonzero;fill:#FFFFFF;fill-opacity:1;" d="M 15 5.523438 C 14.957031 5.3125 14.144531 1.769531 13.972656 1.09375 C 13.804688 0.417969 12.777344 0.167969 12.222656 0.167969 C 11.664062 0.167969 9.960938 0.00390625 9.960938 0.00390625 C 9.960938 0.00390625 9.957031 0 9.785156 0.335938 C 9.613281 0.671875 9.015625 1.050781 8.203125 1.21875 C 7.394531 1.390625 6.625 1.011719 6.324219 0.757812 C 6.023438 0.503906 5.640625 0.00390625 5.640625 0.00390625 C 5.640625 0.00390625 3.804688 0.125 3.375 0.167969 C 2.949219 0.207031 2.4375 0.378906 1.921875 0.671875 C 1.410156 0.96875 1.113281 1.261719 0.980469 1.640625 C 0.855469 2.023438 0.171875 4.171875 0 5.355469 C 0.71875 5.648438 2.390625 5.691406 2.390625 5.691406 L 2.535156 5.53125 C 2.535156 5.53125 2.730469 6.789062 2.949219 7.460938 C 3.066406 7.832031 3.632812 9.402344 3.632812 9.78125 C 3.632812 10.160156 3.332031 11.679688 3.160156 12.1875 C 2.992188 12.691406 2.652344 13.621094 2.5625 14.210938 C 2.480469 14.800781 2.265625 16.996094 2.265625 16.996094 C 2.265625 16.996094 12.734375 16.910156 12.777344 16.742188 C 12.820312 16.148438 12.835938 13.816406 12.050781 11.890625 C 11.742188 11.132812 11.75 9.109375 11.664062 8.476562 C 11.578125 7.84375 12.136719 7.039062 12.304688 6.746094 C 12.476562 6.449219 12.566406 5.988281 12.566406 5.988281 L 12.90625 6.113281 C 12.90625 6.113281 15.042969 5.734375 15 5.523438 Z M 7.488281 10.699219 C 7.488281 10.699219 4.195312 9.25 4.195312 7.457031 C 4.195312 7.453125 4.195312 7.449219 4.195312 7.445312 C 4.195312 6.550781 4.933594 5.828125 5.84375 5.828125 C 6.75 5.828125 7.488281 6.550781 7.488281 7.445312 C 7.492188 6.550781 8.230469 5.828125 9.136719 5.828125 C 10.046875 5.828125 10.785156 6.550781 10.785156 7.445312 C 10.785156 7.449219 10.785156 7.453125 10.785156 7.457031 C 10.785156 9.25 7.488281 10.699219 7.488281 10.699219 Z M 7.488281 10.699219 "/>
</g>
</g>
</svg>
