<?xml version="1.0" encoding="UTF-8"?>
<svg xmlns="http://www.w3.org/2000/svg" xmlns:xlink="http://www.w3.org/1999/xlink" width="8px" height="10px" viewBox="0 0 8 10" version="1.1">
<g id="surface1">
<path style=" stroke:none;fill-rule:nonzero;fill:rgb(30%,30%,30%);fill-opacity:1;" d="M 7.691406 2.746094 L 6.007812 2.746094 C 5.859375 0.984375 5.152344 0.0195312 3.96875 0.00390625 C 3.550781 -0.00390625 3.175781 0.144531 2.867188 0.4375 C 2.378906 0.898438 2.074219 1.703125 1.980469 2.746094 L 0.292969 2.746094 L 0 9.714844 C -0.00390625 9.789062 0.0273438 9.859375 0.078125 9.914062 C 0.132812 9.96875 0.207031 9.996094 0.28125 9.996094 L 7.71875 9.980469 C 7.796875 9.980469 7.867188 9.953125 7.921875 9.898438 C 7.976562 9.84375 8.003906 9.773438 8 9.699219 Z M 3.152344 0.714844 C 3.382812 0.496094 3.65625 0.390625 3.964844 0.394531 C 4.644531 0.402344 5.445312 0.839844 5.601562 2.746094 L 2.386719 2.746094 C 2.476562 1.820312 2.746094 1.101562 3.152344 0.714844 Z M 2.132812 3.964844 C 1.910156 3.949219 1.722656 3.789062 1.679688 3.578125 C 1.640625 3.367188 1.753906 3.152344 1.957031 3.058594 C 1.949219 3.1875 1.949219 3.320312 1.949219 3.453125 C 1.949219 3.554688 2.023438 3.644531 2.128906 3.652344 C 2.183594 3.660156 2.242188 3.644531 2.285156 3.605469 C 2.328125 3.570312 2.355469 3.515625 2.355469 3.460938 C 2.355469 3.320312 2.355469 3.183594 2.363281 3.050781 C 2.585938 3.144531 2.707031 3.375 2.652344 3.601562 C 2.59375 3.828125 2.375 3.984375 2.132812 3.964844 Z M 5.789062 3.964844 C 5.5625 3.949219 5.375 3.789062 5.335938 3.574219 C 5.296875 3.359375 5.414062 3.144531 5.621094 3.054688 C 5.625 3.183594 5.628906 3.316406 5.628906 3.453125 C 5.628906 3.554688 5.707031 3.644531 5.808594 3.652344 C 5.867188 3.660156 5.925781 3.644531 5.96875 3.605469 C 6.011719 3.570312 6.035156 3.515625 6.035156 3.460938 C 6.035156 3.320312 6.035156 3.1875 6.027344 3.054688 C 6.246094 3.148438 6.363281 3.382812 6.304688 3.605469 C 6.246094 3.832031 6.03125 3.980469 5.789062 3.964844 Z M 5.789062 3.964844 "/>
</g>
</svg>
