<?xml version="1.0" encoding="UTF-8" standalone="no"?>
<!-- Created with Inkscape (http://www.inkscape.org/) -->

<svg
   xmlns:dc="http://purl.org/dc/elements/1.1/"
   xmlns:cc="http://creativecommons.org/ns#"
   xmlns:rdf="http://www.w3.org/1999/02/22-rdf-syntax-ns#"
   xmlns:svg="http://www.w3.org/2000/svg"
   xmlns="http://www.w3.org/2000/svg"
   xmlns:xlink="http://www.w3.org/1999/xlink"
   xmlns:sodipodi="http://sodipodi.sourceforge.net/DTD/sodipodi-0.dtd"
   xmlns:inkscape="http://www.inkscape.org/namespaces/inkscape"
   width="30px"
   height="30px"
   version="1.1"
   id="svg8"
   inkscape:version="0.92.4 5da689c313, 2019-01-14"
   sodipodi:docname="container.svg">
  <defs
     id="defs2" />
  <sodipodi:namedview
     id="base"
     pagecolor="#ffffff"
     bordercolor="#666666"
     borderopacity="1.0"
     inkscape:pageopacity="0.0"
     inkscape:pageshadow="2"
     inkscape:zoom="13.049334"
     inkscape:cx="18.679046"
     inkscape:cy="12.165829"
     inkscape:document-units="px"
     inkscape:current-layer="layer1"
     showgrid="false"
     inkscape:snap-page="false"
     units="px"
     inkscape:window-width="1884"
     inkscape:window-height="1061"
     inkscape:window-x="0"
     inkscape:window-y="0"
     inkscape:window-maximized="1"
     fit-margin-top="0"
     fit-margin-left="0"
     fit-margin-right="0"
     fit-margin-bottom="0" />
  <metadata
     id="metadata5">
    <rdf:RDF>
      <cc:Work
         rdf:about="">
        <dc:format>image/svg+xml</dc:format>
        <dc:type
           rdf:resource="http://purl.org/dc/dcmitype/StillImage" />
        <dc:title></dc:title>
      </cc:Work>
    </rdf:RDF>
  </metadata>
    <circle
       style="color:#000000;clip-rule:nonzero;display:inline;overflow:visible;visibility:visible;opacity:1;isolation:auto;mix-blend-mode:normal;color-interpolation:sRGB;color-interpolation-filters:linearRGB;solid-color:#000000;solid-opacity:1;vector-effect:none;fill:#808080;fill-opacity:1;fill-rule:evenodd;stroke:#ffffff;stroke-width:1;stroke-linecap:butt;stroke-linejoin:miter;stroke-miterlimit:4;stroke-dasharray:none;stroke-dashoffset:0;stroke-opacity:1;marker:none;color-rendering:auto;image-rendering:auto;shape-rendering:auto;text-rendering:auto;enable-background:accumulate"
       id="path815"
       cx="15"
       cy="15"
       r="14.5" />
<g transform="translate(7,7)"><g id="surface1">
<path style=" stroke:none;fill-rule:nonzero;fill:#FFFFFF;fill-opacity:1;" d="M 7.355469 2.535156 C 7.632812 4.121094 7.03125 5.5625 6.011719 5.757812 C 4.996094 5.957031 3.945312 4.828125 3.667969 3.246094 C 3.390625 1.660156 3.992188 0.21875 5.011719 0.0234375 C 6.03125 -0.171875 7.078125 0.953125 7.355469 2.535156 Z M 7.355469 2.535156 "/>
<path style=" stroke:none;fill-rule:nonzero;fill:#FFFFFF;fill-opacity:1;" d="M 3.621094 5.816406 C 4.226562 7.089844 3.980469 8.507812 3.070312 8.984375 C 2.164062 9.457031 0.9375 8.808594 0.332031 7.535156 C -0.273438 6.257812 -0.0234375 4.84375 0.882812 4.367188 C 1.792969 3.894531 3.019531 4.542969 3.621094 5.816406 Z M 3.621094 5.816406 "/>
<path style=" stroke:none;fill-rule:nonzero;fill:#FFFFFF;fill-opacity:1;" d="M 14.824219 4.304688 C 15.792969 4.617188 16.253906 5.976562 15.855469 7.335938 C 15.453125 8.695312 14.34375 9.542969 13.371094 9.226562 C 12.402344 8.914062 11.941406 7.554688 12.34375 6.195312 C 12.746094 4.835938 13.855469 3.988281 14.824219 4.304688 Z M 14.824219 4.304688 "/>
<path style=" stroke:none;fill-rule:nonzero;fill:#FFFFFF;fill-opacity:1;" d="M 11.070312 0.0234375 C 12.089844 0.21875 12.6875 1.664062 12.410156 3.246094 C 12.132812 4.832031 11.082031 5.957031 10.0625 5.757812 C 9.046875 5.5625 8.445312 4.121094 8.722656 2.535156 C 9 0.949219 10.050781 -0.175781 11.070312 0.0234375 Z M 11.070312 0.0234375 "/>
<path style=" stroke:none;fill-rule:nonzero;fill:#FFFFFF;fill-opacity:1;" d="M 2.746094 11.644531 C 2.746094 11.644531 3.976562 10.003906 4.558594 9.371094 C 5.136719 8.738281 5.914062 7.253906 5.914062 7.253906 C 7.054688 5.667969 9.332031 5.6875 10.449219 7.292969 C 10.449219 7.292969 11.128906 8.839844 11.632812 9.488281 C 12.140625 10.136719 13.464844 11.632812 13.464844 11.632812 C 14.679688 13.546875 13.46875 16.082031 11.410156 15.996094 C 11.359375 15.996094 11.3125 15.984375 11.265625 15.96875 C 10.875 15.832031 8.898438 15.203125 8.039062 15.203125 C 7.089844 15.207031 5.167969 15.832031 4.824219 15.933594 C 4.789062 15.941406 4.753906 15.949219 4.71875 15.945312 C 2.644531 15.890625 1.488281 13.390625 2.746094 11.644531 Z M 2.746094 11.644531 "/>
</g>
</g>
</svg>
