<?xml version="1.0" encoding="UTF-8"?>
<svg xmlns="http://www.w3.org/2000/svg" xmlns:xlink="http://www.w3.org/1999/xlink" width="10px" height="10px" viewBox="0 0 10 10" version="1.1">
<g id="surface1">
<path style=" stroke:none;fill-rule:nonzero;fill:rgb(30%,30%,30%);fill-opacity:1;" d="M 5.730469 5.910156 C 5.730469 6.613281 5.101562 7.1875 4.328125 7.1875 C 3.554688 7.1875 2.925781 6.613281 2.925781 5.910156 C 2.925781 5.203125 3.554688 4.632812 4.328125 4.632812 C 5.101562 4.632812 5.730469 5.203125 5.730469 5.910156 Z M 5.730469 5.910156 "/>
<path style=" stroke:none;fill-rule:nonzero;fill:rgb(30%,30%,30%);fill-opacity:1;" d="M 6.441406 5.773438 C 6.242188 5.773438 6.074219 5.632812 6.058594 5.453125 C 6.039062 5.273438 6.171875 5.109375 6.367188 5.074219 L 9.542969 4.519531 C 9.75 4.484375 9.953125 4.609375 9.992188 4.800781 C 10.03125 4.992188 9.894531 5.175781 9.6875 5.210938 L 6.515625 5.765625 C 6.488281 5.769531 6.464844 5.773438 6.441406 5.773438 Z M 6.441406 5.773438 "/>
<path style=" stroke:none;fill-rule:nonzero;fill:rgb(30%,30%,30%);fill-opacity:1;" d="M 9.359375 7.902344 C 9.316406 7.902344 9.273438 7.898438 9.234375 7.886719 L 6.382812 7.007812 C 6.179688 6.949219 6.070312 6.75 6.140625 6.5625 C 6.207031 6.378906 6.425781 6.28125 6.628906 6.34375 L 9.480469 7.21875 C 9.660156 7.273438 9.769531 7.4375 9.738281 7.609375 C 9.707031 7.777344 9.546875 7.902344 9.359375 7.902344 Z M 9.359375 7.902344 "/>
<path style=" stroke:none;fill-rule:nonzero;fill:rgb(30%,30%,30%);fill-opacity:1;" d="M 5.894531 4.808594 C 5.738281 4.808594 5.597656 4.722656 5.539062 4.585938 C 5.480469 4.453125 5.515625 4.300781 5.632812 4.203125 L 8.035156 2.128906 C 8.191406 1.996094 8.433594 2.003906 8.582031 2.144531 C 8.726562 2.285156 8.71875 2.507812 8.566406 2.640625 L 6.160156 4.710938 C 6.089844 4.773438 5.996094 4.808594 5.894531 4.808594 Z M 5.894531 4.808594 "/>
<path style=" stroke:none;fill-rule:nonzero;fill:rgb(30%,30%,30%);fill-opacity:1;" d="M 3.59375 10 C 3.476562 10 3.363281 9.992188 3.246094 9.976562 C 2.59375 9.902344 2.121094 9.578125 1.84375 9.015625 C 1.621094 8.574219 1.550781 8.035156 1.484375 7.558594 C 1.429688 7.128906 1.367188 6.679688 1.210938 6.480469 C 0.53125 5.621094 0.132812 4.777344 0.0273438 3.980469 C -0.0664062 3.261719 0.0742188 2.589844 0.441406 1.980469 C 0.917969 1.195312 1.644531 0.722656 2.175781 0.464844 C 2.84375 0.140625 3.570312 -0.0273438 4.171875 0.00390625 C 5.433594 0.0742188 6.019531 0.652344 6.285156 1.125 C 6.570312 1.621094 6.558594 2.089844 6.554688 2.144531 C 6.546875 2.332031 6.375 2.476562 6.167969 2.472656 C 5.960938 2.464844 5.800781 2.304688 5.804688 2.117188 C 5.804688 2.105469 5.8125 1.757812 5.609375 1.414062 C 5.34375 0.96875 4.847656 0.726562 4.128906 0.6875 C 3.667969 0.660156 3.070312 0.804688 2.527344 1.066406 C 1.90625 1.371094 1.398438 1.8125 1.097656 2.3125 C 0.457031 3.367188 0.707031 4.671875 1.820312 6.082031 C 2.089844 6.425781 2.15625 6.933594 2.230469 7.476562 C 2.289062 7.921875 2.351562 8.386719 2.527344 8.734375 C 2.699219 9.082031 2.949219 9.253906 3.34375 9.300781 C 3.742188 9.347656 4.0625 9.285156 4.292969 9.113281 C 4.6875 8.8125 4.738281 8.277344 4.738281 8.269531 C 4.75 8.082031 4.929688 7.941406 5.136719 7.953125 C 5.34375 7.964844 5.5 8.128906 5.484375 8.316406 C 5.484375 8.351562 5.417969 9.152344 4.769531 9.640625 C 4.449219 9.878906 4.054688 10 3.59375 10 Z M 3.59375 10 "/>
</g>
</svg>
