<?xml version="1.0" encoding="UTF-8" standalone="no"?>
<!-- Created with Inkscape (http://www.inkscape.org/) -->

<svg
   xmlns:dc="http://purl.org/dc/elements/1.1/"
   xmlns:cc="http://creativecommons.org/ns#"
   xmlns:rdf="http://www.w3.org/1999/02/22-rdf-syntax-ns#"
   xmlns:svg="http://www.w3.org/2000/svg"
   xmlns="http://www.w3.org/2000/svg"
   xmlns:xlink="http://www.w3.org/1999/xlink"
   xmlns:sodipodi="http://sodipodi.sourceforge.net/DTD/sodipodi-0.dtd"
   xmlns:inkscape="http://www.inkscape.org/namespaces/inkscape"
   width="30px"
   height="30px"
   version="1.1"
   id="svg8"
   inkscape:version="0.92.4 5da689c313, 2019-01-14"
   sodipodi:docname="container.svg">
  <defs
     id="defs2" />
  <sodipodi:namedview
     id="base"
     pagecolor="#ffffff"
     bordercolor="#666666"
     borderopacity="1.0"
     inkscape:pageopacity="0.0"
     inkscape:pageshadow="2"
     inkscape:zoom="13.049334"
     inkscape:cx="18.679046"
     inkscape:cy="12.165829"
     inkscape:document-units="px"
     inkscape:current-layer="layer1"
     showgrid="false"
     inkscape:snap-page="false"
     units="px"
     inkscape:window-width="1884"
     inkscape:window-height="1061"
     inkscape:window-x="0"
     inkscape:window-y="0"
     inkscape:window-maximized="1"
     fit-margin-top="0"
     fit-margin-left="0"
     fit-margin-right="0"
     fit-margin-bottom="0" />
  <metadata
     id="metadata5">
    <rdf:RDF>
      <cc:Work
         rdf:about="">
        <dc:format>image/svg+xml</dc:format>
        <dc:type
           rdf:resource="http://purl.org/dc/dcmitype/StillImage" />
        <dc:title></dc:title>
      </cc:Work>
    </rdf:RDF>
  </metadata>
    <circle
       style="color:#000000;clip-rule:nonzero;display:inline;overflow:visible;visibility:visible;opacity:1;isolation:auto;mix-blend-mode:normal;color-interpolation:sRGB;color-interpolation-filters:linearRGB;solid-color:#000000;solid-opacity:1;vector-effect:none;fill:#808080;fill-opacity:1;fill-rule:evenodd;stroke:#ffffff;stroke-width:1;stroke-linecap:butt;stroke-linejoin:miter;stroke-miterlimit:4;stroke-dasharray:none;stroke-dashoffset:0;stroke-opacity:1;marker:none;color-rendering:auto;image-rendering:auto;shape-rendering:auto;text-rendering:auto;enable-background:accumulate"
       id="path815"
       cx="15"
       cy="15"
       r="14.5" />
<g transform="translate(6,6)"><g id="surface1">
<path style=" stroke:none;fill-rule:nonzero;fill:#FFFFFF;fill-opacity:1;" d="M 10.792969 6.246094 C 8.878906 4.339844 6.3125 3.796875 5.066406 5.035156 C 3.824219 6.273438 4.371094 8.828125 6.28125 10.734375 C 8.195312 12.640625 10.765625 13.183594 12.007812 11.945312 C 13.25 10.707031 12.703125 8.148438 10.792969 6.246094 Z M 10.792969 6.246094 "/>
<path style=" stroke:none;fill-rule:nonzero;fill:#FFFFFF;fill-opacity:1;" d="M 14.632812 13.507812 L 12.394531 12.378906 L 13.609375 14.507812 C 13.675781 14.625 13.644531 14.773438 13.539062 14.855469 C 13.433594 14.933594 13.28125 14.925781 13.1875 14.828125 C 13.167969 14.8125 13.152344 14.792969 13.144531 14.773438 L 12.132812 13.007812 L 12.167969 17 C 12.40625 16.921875 12.628906 16.910156 12.828125 16.902344 C 13.160156 16.886719 13.382812 16.875 13.644531 16.613281 C 13.90625 16.351562 13.914062 16.132812 13.933594 15.804688 C 13.953125 15.421875 13.976562 14.945312 14.457031 14.46875 C 14.9375 13.988281 15.417969 13.960938 15.800781 13.945312 C 16.132812 13.925781 16.351562 13.917969 16.613281 13.65625 C 16.875 13.394531 16.886719 13.175781 16.902344 12.847656 C 16.914062 12.648438 16.921875 12.421875 17 12.1875 L 13.136719 12.15625 L 14.875 13.03125 C 15.007812 13.097656 15.058594 13.257812 14.992188 13.390625 C 14.925781 13.523438 14.765625 13.574219 14.632812 13.507812 Z M 14.632812 13.507812 "/>
<path style=" stroke:none;fill-rule:nonzero;fill:#FFFFFF;fill-opacity:1;" d="M 3.816406 2.183594 C 3.953125 2.121094 4.113281 2.179688 4.175781 2.3125 L 4.863281 3.757812 L 4.832031 0 C 4.59375 0.078125 4.371094 0.0898438 4.171875 0.101562 C 3.839844 0.117188 3.621094 0.128906 3.359375 0.390625 C 3.097656 0.648438 3.085938 0.867188 3.070312 1.199219 C 3.050781 1.578125 3.023438 2.054688 2.542969 2.53125 C 2.0625 3.011719 1.585938 3.035156 1.203125 3.054688 C 0.871094 3.074219 0.652344 3.085938 0.390625 3.34375 C 0.128906 3.609375 0.117188 3.824219 0.0976562 4.15625 C 0.0898438 4.355469 0.078125 4.578125 0 4.816406 L 3.945312 4.847656 L 2.425781 4.03125 C 2.40625 4.019531 2.382812 4.003906 2.367188 3.988281 C 2.269531 3.894531 2.257812 3.746094 2.339844 3.636719 C 2.417969 3.53125 2.566406 3.5 2.683594 3.5625 L 4.6875 4.636719 L 3.691406 2.539062 C 3.625 2.40625 3.683594 2.246094 3.816406 2.183594 Z M 3.816406 2.183594 "/>
</g>
</g>
</svg>
