<?xml version="1.0" encoding="UTF-8" standalone="no"?>
<!-- Created with Inkscape (http://www.inkscape.org/) -->

<svg
   xmlns:dc="http://purl.org/dc/elements/1.1/"
   xmlns:cc="http://creativecommons.org/ns#"
   xmlns:rdf="http://www.w3.org/1999/02/22-rdf-syntax-ns#"
   xmlns:svg="http://www.w3.org/2000/svg"
   xmlns="http://www.w3.org/2000/svg"
   xmlns:xlink="http://www.w3.org/1999/xlink"
   xmlns:sodipodi="http://sodipodi.sourceforge.net/DTD/sodipodi-0.dtd"
   xmlns:inkscape="http://www.inkscape.org/namespaces/inkscape"
   width="30px"
   height="30px"
   version="1.1"
   id="svg8"
   inkscape:version="0.92.4 5da689c313, 2019-01-14"
   sodipodi:docname="container.svg">
  <defs
     id="defs2" />
  <sodipodi:namedview
     id="base"
     pagecolor="#ffffff"
     bordercolor="#666666"
     borderopacity="1.0"
     inkscape:pageopacity="0.0"
     inkscape:pageshadow="2"
     inkscape:zoom="13.049334"
     inkscape:cx="18.679046"
     inkscape:cy="12.165829"
     inkscape:document-units="px"
     inkscape:current-layer="layer1"
     showgrid="false"
     inkscape:snap-page="false"
     units="px"
     inkscape:window-width="1884"
     inkscape:window-height="1061"
     inkscape:window-x="0"
     inkscape:window-y="0"
     inkscape:window-maximized="1"
     fit-margin-top="0"
     fit-margin-left="0"
     fit-margin-right="0"
     fit-margin-bottom="0" />
  <metadata
     id="metadata5">
    <rdf:RDF>
      <cc:Work
         rdf:about="">
        <dc:format>image/svg+xml</dc:format>
        <dc:type
           rdf:resource="http://purl.org/dc/dcmitype/StillImage" />
        <dc:title></dc:title>
      </cc:Work>
    </rdf:RDF>
  </metadata>
    <circle
       style="color:#000000;clip-rule:nonzero;display:inline;overflow:visible;visibility:visible;opacity:1;isolation:auto;mix-blend-mode:normal;color-interpolation:sRGB;color-interpolation-filters:linearRGB;solid-color:#000000;solid-opacity:1;vector-effect:none;fill:#ffffff;fill-opacity:1;fill-rule:evenodd;stroke:#808080;stroke-width:1;stroke-linecap:butt;stroke-linejoin:miter;stroke-miterlimit:4;stroke-dasharray:none;stroke-dashoffset:0;stroke-opacity:1;marker:none;color-rendering:auto;image-rendering:auto;shape-rendering:auto;text-rendering:auto;enable-background:accumulate"
       id="path815"
       cx="15"
       cy="15"
       r="14.5" />
<g transform="translate(6,7)"><g id="surface1">
<path style=" stroke:none;fill-rule:nonzero;fill:rgb(30%,30%,30%);fill-opacity:1;" d="M 1.515625 10.613281 C 1.21875 9.414062 2.699219 8.617188 4.441406 8.59375 C 5.003906 8.585938 5.738281 9.042969 5.914062 9.238281 C 6.003906 9.335938 5.890625 9.769531 5.828125 9.707031 C 5.660156 9.535156 5.011719 8.964844 4.425781 8.953125 C 3.949219 9 3.574219 9.386719 3.238281 10.042969 C 1.945312 9.90625 1.644531 10.070312 1.515625 10.613281 Z M 13.09375 8.59375 C 12.53125 8.582031 11.796875 9.042969 11.621094 9.234375 C 11.53125 9.335938 11.644531 9.765625 11.707031 9.703125 C 11.875 9.535156 12.523438 8.964844 13.109375 8.953125 C 13.585938 8.996094 13.964844 9.382812 14.296875 10.042969 C 15.5625 9.910156 15.886719 10.050781 16.019531 10.613281 C 16.316406 9.410156 14.835938 8.617188 13.09375 8.59375 Z M 15.667969 13.671875 C 15.183594 14.875 14.460938 15.273438 13.84375 15.578125 C 13.261719 15.867188 11.679688 16.164062 11.050781 15.890625 C 10.054688 15.449219 9.722656 14.503906 9.375 13.917969 C 9.246094 13.703125 9.183594 13.589844 8.855469 13.574219 C 8.714844 13.574219 8.46875 13.5625 8.328125 13.683594 C 7.992188 13.972656 7.699219 15.355469 6.484375 15.890625 C 5.855469 16.167969 4.273438 15.867188 3.691406 15.578125 C 2.980469 15.226562 2.324219 14.808594 1.863281 13.671875 C 1.625 13.078125 1.316406 10.925781 1.792969 10.5 C 2.070312 10.253906 2.792969 10.328125 3.242188 10.375 C 4.972656 10.566406 6.234375 11.125 7.738281 11.980469 C 8.34375 12.324219 9.257812 12.285156 9.796875 11.980469 C 11.203125 11.179688 12.550781 10.558594 14.230469 10.382812 C 14.632812 10.339844 15.445312 10.234375 15.742188 10.5 C 16.214844 10.921875 15.914062 13.066406 15.667969 13.671875 Z M 9.554688 5.328125 Z M 16.316406 8.707031 C 16.246094 8.832031 16.125 8.921875 15.972656 8.851562 L 5.679688 4.011719 C 5.585938 3.96875 5.523438 3.878906 5.535156 3.777344 C 5.550781 3.675781 5.621094 3.574219 5.667969 3.488281 C 7.101562 0.757812 10.546875 -0.429688 13.484375 0.839844 C 13.339844 0.6875 13.304688 0.464844 13.398438 0.28125 C 13.523438 0.03125 13.839844 -0.0703125 14.097656 0.0507812 C 14.359375 0.171875 14.464844 0.472656 14.339844 0.722656 C 14.242188 0.90625 14.035156 1.015625 13.820312 1 C 16.742188 2.480469 17.832031 5.957031 16.316406 8.707031 Z M 12.507812 6.71875 C 12.875 6 13.707031 3.992188 13.78125 2.511719 C 13.914062 -0.0546875 11.777344 1.882812 10.335938 4.042969 C 10.054688 4.460938 9.808594 4.894531 9.550781 5.332031 Z M 9.550781 5.332031 C 9.550781 5.328125 9.554688 5.328125 9.554688 5.328125 Z M 9.335938 6.097656 C 9.148438 6.230469 8.949219 6.347656 8.746094 6.453125 C 6.519531 7.640625 4.351562 7.542969 2.265625 6.382812 C 1.253906 5.820312 0.394531 5.0625 0 4.609375 C 0.0195312 4.609375 0.0234375 4.613281 0 4.609375 C 1.753906 4.851562 3.503906 4.746094 5.207031 4.261719 C 5.234375 4.25 5.316406 4.210938 5.34375 4.222656 Z M 0.0664062 4.617188 C 0.0585938 4.617188 0.0507812 4.617188 0.0429688 4.613281 C 0.0507812 4.617188 0.0585938 4.617188 0.0664062 4.617188 Z M 0.109375 4.621094 C 0.101562 4.621094 0.0976562 4.621094 0.0898438 4.621094 C 0.0976562 4.621094 0.101562 4.621094 0.109375 4.621094 Z M 0.152344 4.628906 C 0.140625 4.628906 0.132812 4.625 0.125 4.625 C 0.132812 4.625 0.144531 4.628906 0.152344 4.628906 Z M 0.273438 4.644531 C 0.261719 4.644531 0.25 4.644531 0.234375 4.640625 C 0.25 4.644531 0.261719 4.644531 0.273438 4.644531 Z M 0.347656 4.65625 C 0.335938 4.65625 0.320312 4.652344 0.304688 4.652344 C 0.320312 4.652344 0.335938 4.65625 0.347656 4.65625 Z M 0.453125 4.671875 C 0.460938 4.671875 0.472656 4.671875 0.480469 4.675781 C 0.472656 4.671875 0.460938 4.671875 0.453125 4.671875 Z M 0.617188 4.695312 C 0.589844 4.691406 0.5625 4.6875 0.53125 4.683594 C 0.5625 4.6875 0.589844 4.691406 0.617188 4.695312 Z M 0.664062 4.699219 C 0.652344 4.699219 0.636719 4.695312 0.625 4.695312 C 0.640625 4.695312 0.652344 4.699219 0.664062 4.699219 Z M 0.742188 4.710938 C 0.726562 4.710938 0.714844 4.707031 0.699219 4.703125 C 0.714844 4.707031 0.730469 4.710938 0.742188 4.710938 Z M 0.785156 4.714844 C 0.78125 4.714844 0.777344 4.714844 0.773438 4.714844 C 0.777344 4.714844 0.78125 4.714844 0.785156 4.714844 Z M 0.8125 4.71875 L 0.808594 4.71875 Z M 0.8125 4.71875 "/>
</g>
</g>
</svg>
