<?xml version="1.0" encoding="UTF-8" standalone="no"?>
<!-- Created with Inkscape (http://www.inkscape.org/) -->

<svg
   xmlns:dc="http://purl.org/dc/elements/1.1/"
   xmlns:cc="http://creativecommons.org/ns#"
   xmlns:rdf="http://www.w3.org/1999/02/22-rdf-syntax-ns#"
   xmlns:svg="http://www.w3.org/2000/svg"
   xmlns="http://www.w3.org/2000/svg"
   xmlns:xlink="http://www.w3.org/1999/xlink"
   xmlns:sodipodi="http://sodipodi.sourceforge.net/DTD/sodipodi-0.dtd"
   xmlns:inkscape="http://www.inkscape.org/namespaces/inkscape"
   width="30px"
   height="30px"
   version="1.1"
   id="svg8"
   inkscape:version="0.92.4 5da689c313, 2019-01-14"
   sodipodi:docname="container.svg">
  <defs
     id="defs2" />
  <sodipodi:namedview
     id="base"
     pagecolor="#ffffff"
     bordercolor="#666666"
     borderopacity="1.0"
     inkscape:pageopacity="0.0"
     inkscape:pageshadow="2"
     inkscape:zoom="13.049334"
     inkscape:cx="18.679046"
     inkscape:cy="12.165829"
     inkscape:document-units="px"
     inkscape:current-layer="layer1"
     showgrid="false"
     inkscape:snap-page="false"
     units="px"
     inkscape:window-width="1884"
     inkscape:window-height="1061"
     inkscape:window-x="0"
     inkscape:window-y="0"
     inkscape:window-maximized="1"
     fit-margin-top="0"
     fit-margin-left="0"
     fit-margin-right="0"
     fit-margin-bottom="0" />
  <metadata
     id="metadata5">
    <rdf:RDF>
      <cc:Work
         rdf:about="">
        <dc:format>image/svg+xml</dc:format>
        <dc:type
           rdf:resource="http://purl.org/dc/dcmitype/StillImage" />
        <dc:title></dc:title>
      </cc:Work>
    </rdf:RDF>
  </metadata>
    <circle
       style="color:#000000;clip-rule:nonzero;display:inline;overflow:visible;visibility:visible;opacity:1;isolation:auto;mix-blend-mode:normal;color-interpolation:sRGB;color-interpolation-filters:linearRGB;solid-color:#000000;solid-opacity:1;vector-effect:none;fill:#808080;fill-opacity:1;fill-rule:evenodd;stroke:#ffffff;stroke-width:1;stroke-linecap:butt;stroke-linejoin:miter;stroke-miterlimit:4;stroke-dasharray:none;stroke-dashoffset:0;stroke-opacity:1;marker:none;color-rendering:auto;image-rendering:auto;shape-rendering:auto;text-rendering:auto;enable-background:accumulate"
       id="path815"
       cx="15"
       cy="15"
       r="14.5" />
<g transform="translate(6,7)"><g id="surface1">
<path style=" stroke:none;fill-rule:nonzero;fill:#FFFFFF;fill-opacity:1;" d="M 14.445312 14.808594 L 14.445312 5.445312 L 11.851562 5.445312 L 11.851562 14.808594 C 11.851562 15.414062 12.339844 15.902344 12.945312 15.902344 L 13.355469 15.902344 C 13.957031 15.902344 14.445312 15.414062 14.445312 14.808594 Z M 13.1875 0 C 12.394531 0 11.617188 0.203125 10.925781 0.585938 C 10.300781 0.933594 9.761719 1.414062 9.34375 2 L 10.667969 3.625 L 11.851562 5.085938 L 12.671875 5.070312 L 12.316406 2.542969 L 12.6875 2.5 L 13.046875 5.066406 L 13.199219 5.0625 L 13.175781 1.519531 L 13.597656 1.515625 L 13.621094 5.058594 L 14.488281 5.039062 L 17 1.960938 C 16.128906 0.769531 14.746094 0 13.1875 0 Z M 5.496094 9.566406 C 8.53125 9.566406 10.992188 9.246094 10.992188 8.855469 L 10.992188 6.527344 L 10.9375 6.527344 C 10.554688 6.183594 8.265625 5.917969 5.496094 5.917969 C 2.726562 5.917969 0.4375 6.183594 0.0546875 6.527344 L 0.00390625 6.527344 L 0.00390625 6.609375 C 0 6.621094 0 6.636719 0.00390625 6.648438 L 0.00390625 8.875 C 0.0859375 9.257812 2.511719 9.566406 5.496094 9.566406 Z M 5.496094 10.335938 C 2.492188 10.335938 0.0507812 10.023438 0.00390625 9.636719 L 0.00390625 15.289062 L 0 15.289062 C 0 15.679688 2.460938 16 5.496094 16 C 8.484375 16 10.914062 15.691406 10.992188 15.304688 L 10.992188 9.636719 C 10.941406 10.023438 8.5 10.335938 5.496094 10.335938 Z M 8.203125 11.800781 L 8.203125 13.710938 C 7.40625 13.769531 6.480469 13.800781 5.496094 13.800781 C 4.464844 13.800781 3.496094 13.765625 2.667969 13.699219 L 2.667969 11.789062 C 3.496094 11.855469 4.464844 11.890625 5.496094 11.890625 C 6.480469 11.890625 7.40625 11.859375 8.203125 11.800781 Z M 8.203125 11.800781 "/>
</g>
</g>
</svg>
