<?xml version="1.0" encoding="UTF-8"?>
<svg xmlns="http://www.w3.org/2000/svg" xmlns:xlink="http://www.w3.org/1999/xlink" width="10px" height="10px" viewBox="0 0 10 10" version="1.1">
<g id="surface1">
<path style=" stroke:none;fill-rule:nonzero;fill:rgb(30%,30%,30%);fill-opacity:1;" d="M 4.597656 1.585938 C 4.769531 2.574219 4.394531 3.476562 3.757812 3.601562 C 3.121094 3.722656 2.464844 3.019531 2.292969 2.027344 C 2.121094 1.039062 2.496094 0.136719 3.132812 0.015625 C 3.769531 -0.109375 4.425781 0.59375 4.597656 1.585938 Z M 4.597656 1.585938 "/>
<path style=" stroke:none;fill-rule:nonzero;fill:rgb(30%,30%,30%);fill-opacity:1;" d="M 2.265625 3.636719 C 2.640625 4.433594 2.488281 5.316406 1.917969 5.613281 C 1.351562 5.910156 0.585938 5.503906 0.207031 4.707031 C -0.167969 3.910156 -0.015625 3.027344 0.550781 2.730469 C 1.121094 2.433594 1.886719 2.839844 2.265625 3.636719 Z M 2.265625 3.636719 "/>
<path style=" stroke:none;fill-rule:nonzero;fill:rgb(30%,30%,30%);fill-opacity:1;" d="M 9.265625 2.691406 C 9.871094 2.886719 10.160156 3.734375 9.910156 4.585938 C 9.65625 5.433594 8.964844 5.964844 8.359375 5.765625 C 7.753906 5.570312 7.464844 4.722656 7.714844 3.871094 C 7.964844 3.023438 8.660156 2.492188 9.265625 2.691406 Z M 9.265625 2.691406 "/>
<path style=" stroke:none;fill-rule:nonzero;fill:rgb(30%,30%,30%);fill-opacity:1;" d="M 6.917969 0.015625 C 7.554688 0.136719 7.929688 1.039062 7.757812 2.027344 C 7.582031 3.019531 6.925781 3.722656 6.289062 3.597656 C 5.652344 3.476562 5.277344 2.574219 5.453125 1.585938 C 5.625 0.59375 6.28125 -0.109375 6.917969 0.015625 Z M 6.917969 0.015625 "/>
<path style=" stroke:none;fill-rule:nonzero;fill:rgb(30%,30%,30%);fill-opacity:1;" d="M 1.71875 7.277344 C 1.71875 7.277344 2.484375 6.253906 2.847656 5.859375 C 3.210938 5.460938 3.695312 4.53125 3.695312 4.53125 C 4.410156 3.542969 5.832031 3.554688 6.53125 4.558594 C 6.53125 4.558594 6.957031 5.527344 7.273438 5.929688 C 7.585938 6.335938 8.417969 7.269531 8.417969 7.269531 C 9.175781 8.46875 8.417969 10.050781 7.128906 10 C 7.101562 9.996094 7.070312 9.992188 7.042969 9.980469 C 6.796875 9.894531 5.5625 9.503906 5.023438 9.503906 C 4.429688 9.503906 3.230469 9.894531 3.015625 9.957031 C 2.992188 9.964844 2.96875 9.96875 2.949219 9.964844 C 1.652344 9.929688 0.929688 8.367188 1.71875 7.277344 Z M 1.71875 7.277344 "/>
</g>
</svg>
