<?xml version="1.0" encoding="UTF-8" standalone="no"?>
<!-- Created with Inkscape (http://www.inkscape.org/) -->

<svg
   xmlns:dc="http://purl.org/dc/elements/1.1/"
   xmlns:cc="http://creativecommons.org/ns#"
   xmlns:rdf="http://www.w3.org/1999/02/22-rdf-syntax-ns#"
   xmlns:svg="http://www.w3.org/2000/svg"
   xmlns="http://www.w3.org/2000/svg"
   xmlns:xlink="http://www.w3.org/1999/xlink"
   xmlns:sodipodi="http://sodipodi.sourceforge.net/DTD/sodipodi-0.dtd"
   xmlns:inkscape="http://www.inkscape.org/namespaces/inkscape"
   width="30px"
   height="30px"
   version="1.1"
   id="svg8"
   inkscape:version="0.92.4 5da689c313, 2019-01-14"
   sodipodi:docname="container.svg">
  <defs
     id="defs2" />
  <sodipodi:namedview
     id="base"
     pagecolor="#ffffff"
     bordercolor="#666666"
     borderopacity="1.0"
     inkscape:pageopacity="0.0"
     inkscape:pageshadow="2"
     inkscape:zoom="13.049334"
     inkscape:cx="18.679046"
     inkscape:cy="12.165829"
     inkscape:document-units="px"
     inkscape:current-layer="layer1"
     showgrid="false"
     inkscape:snap-page="false"
     units="px"
     inkscape:window-width="1884"
     inkscape:window-height="1061"
     inkscape:window-x="0"
     inkscape:window-y="0"
     inkscape:window-maximized="1"
     fit-margin-top="0"
     fit-margin-left="0"
     fit-margin-right="0"
     fit-margin-bottom="0" />
  <metadata
     id="metadata5">
    <rdf:RDF>
      <cc:Work
         rdf:about="">
        <dc:format>image/svg+xml</dc:format>
        <dc:type
           rdf:resource="http://purl.org/dc/dcmitype/StillImage" />
        <dc:title></dc:title>
      </cc:Work>
    </rdf:RDF>
  </metadata>
    <circle
       style="color:#000000;clip-rule:nonzero;display:inline;overflow:visible;visibility:visible;opacity:1;isolation:auto;mix-blend-mode:normal;color-interpolation:sRGB;color-interpolation-filters:linearRGB;solid-color:#000000;solid-opacity:1;vector-effect:none;fill:#808080;fill-opacity:1;fill-rule:evenodd;stroke:#ffffff;stroke-width:1;stroke-linecap:butt;stroke-linejoin:miter;stroke-miterlimit:4;stroke-dasharray:none;stroke-dashoffset:0;stroke-opacity:1;marker:none;color-rendering:auto;image-rendering:auto;shape-rendering:auto;text-rendering:auto;enable-background:accumulate"
       id="path815"
       cx="15"
       cy="15"
       r="14.5" />
<g transform="translate(7,7)"><g id="surface1">
<path style=" stroke:none;fill-rule:nonzero;fill:#FFFFFF;fill-opacity:1;" d="M 7.5 0 C 7.492188 0 0.00390625 4.554688 0.00390625 4.554688 L 0.00390625 16 L 14.996094 16 L 14.996094 4.554688 C 14.996094 4.554688 7.507812 0 7.5 0 Z M 7.53125 1.695312 C 8.289062 1.695312 8.902344 2.28125 8.902344 3.007812 C 8.902344 3.734375 8.289062 4.320312 7.53125 4.320312 C 6.773438 4.320312 6.160156 3.734375 6.160156 3.007812 C 6.160156 2.28125 6.773438 1.695312 7.53125 1.695312 Z M 7.542969 14.191406 C 7.542969 14.191406 1.789062 11.71875 1.789062 8.664062 C 1.789062 8.65625 1.789062 8.648438 1.789062 8.640625 C 1.792969 7.121094 3.078125 5.890625 4.664062 5.890625 C 6.25 5.890625 7.539062 7.121094 7.542969 8.640625 C 7.550781 7.121094 8.835938 5.890625 10.421875 5.890625 C 12.007812 5.890625 13.296875 7.121094 13.300781 8.640625 C 13.300781 8.648438 13.300781 8.65625 13.300781 8.664062 C 13.300781 11.71875 7.542969 14.191406 7.542969 14.191406 Z M 7.542969 14.191406 "/>
</g>
</g>
</svg>
