<?xml version="1.0" encoding="UTF-8" standalone="no"?>
<!-- Created with Inkscape (http://www.inkscape.org/) -->

<svg
   xmlns:dc="http://purl.org/dc/elements/1.1/"
   xmlns:cc="http://creativecommons.org/ns#"
   xmlns:rdf="http://www.w3.org/1999/02/22-rdf-syntax-ns#"
   xmlns:svg="http://www.w3.org/2000/svg"
   xmlns="http://www.w3.org/2000/svg"
   xmlns:xlink="http://www.w3.org/1999/xlink"
   xmlns:sodipodi="http://sodipodi.sourceforge.net/DTD/sodipodi-0.dtd"
   xmlns:inkscape="http://www.inkscape.org/namespaces/inkscape"
   width="30px"
   height="30px"
   version="1.1"
   id="svg8"
   inkscape:version="0.92.4 5da689c313, 2019-01-14"
   sodipodi:docname="container.svg">
  <defs
     id="defs2" />
  <sodipodi:namedview
     id="base"
     pagecolor="#ffffff"
     bordercolor="#666666"
     borderopacity="1.0"
     inkscape:pageopacity="0.0"
     inkscape:pageshadow="2"
     inkscape:zoom="13.049334"
     inkscape:cx="18.679046"
     inkscape:cy="12.165829"
     inkscape:document-units="px"
     inkscape:current-layer="layer1"
     showgrid="false"
     inkscape:snap-page="false"
     units="px"
     inkscape:window-width="1884"
     inkscape:window-height="1061"
     inkscape:window-x="0"
     inkscape:window-y="0"
     inkscape:window-maximized="1"
     fit-margin-top="0"
     fit-margin-left="0"
     fit-margin-right="0"
     fit-margin-bottom="0" />
  <metadata
     id="metadata5">
    <rdf:RDF>
      <cc:Work
         rdf:about="">
        <dc:format>image/svg+xml</dc:format>
        <dc:type
           rdf:resource="http://purl.org/dc/dcmitype/StillImage" />
        <dc:title></dc:title>
      </cc:Work>
    </rdf:RDF>
  </metadata>
    <circle
       style="color:#000000;clip-rule:nonzero;display:inline;overflow:visible;visibility:visible;opacity:1;isolation:auto;mix-blend-mode:normal;color-interpolation:sRGB;color-interpolation-filters:linearRGB;solid-color:#000000;solid-opacity:1;vector-effect:none;fill:#808080;fill-opacity:1;fill-rule:evenodd;stroke:#ffffff;stroke-width:1;stroke-linecap:butt;stroke-linejoin:miter;stroke-miterlimit:4;stroke-dasharray:none;stroke-dashoffset:0;stroke-opacity:1;marker:none;color-rendering:auto;image-rendering:auto;shape-rendering:auto;text-rendering:auto;enable-background:accumulate"
       id="path815"
       cx="15"
       cy="15"
       r="14.5" />
<g transform="translate(6,9)"><g id="surface1">
<path style=" stroke:none;fill-rule:nonzero;fill:#FFFFFF;fill-opacity:1;" d="M 16.679688 6.910156 C 15.316406 6.570312 14.519531 5.429688 13.878906 4.292969 C 13.3125 4.15625 12.988281 4.097656 12.78125 4.148438 C 12.84375 4.421875 13.050781 4.820312 13.421875 5.507812 C 13.019531 4.828125 12.785156 4.441406 12.585938 4.253906 C 12.476562 4.359375 12.40625 4.539062 12.316406 4.796875 C 12.371094 4.476562 12.398438 4.273438 12.316406 4.113281 C 12.15625 4.09375 11.976562 4.171875 11.710938 4.300781 C 11.914062 4.152344 12.054688 4.042969 12.132812 3.921875 C 11.90625 3.769531 11.480469 3.636719 10.730469 3.417969 C 11.496094 3.609375 11.929688 3.714844 12.199219 3.695312 C 12.207031 3.421875 11.992188 3.011719 11.542969 2.171875 C 12.050781 3.039062 12.292969 3.425781 12.539062 3.539062 C 12.628906 3.429688 12.691406 3.261719 12.773438 3.03125 C 12.734375 3.261719 12.710938 3.433594 12.730469 3.570312 C 12.871094 3.5625 13.03125 3.488281 13.253906 3.382812 C 13.039062 3.539062 12.890625 3.648438 12.816406 3.78125 C 12.953125 3.953125 13.257812 4.074219 13.863281 4.261719 C 13.136719 2.972656 12.609375 1.699219 11.679688 1.621094 C 11.464844 1.566406 11.238281 1.5625 11.019531 1.605469 C 10.222656 1.765625 9.585938 2.210938 9.078125 2.570312 C 8.675781 2.851562 8.296875 3.121094 8.082031 3.054688 C 7.976562 3.023438 7.753906 2.867188 7.464844 2.179688 C 6.90625 0.847656 6.410156 0.207031 5.804688 0.0390625 C 5.140625 -0.140625 4.546875 0.316406 4.019531 0.722656 C 2.992188 1.519531 0.433594 2.046875 0.410156 2.054688 L 0.00390625 2.136719 L 0.0976562 2.550781 C 0.101562 2.566406 0.105469 2.582031 0.109375 2.601562 C 0.113281 2.613281 0.117188 2.625 0.117188 2.636719 C 1.105469 6.890625 2.785156 9.515625 5.339844 10.515625 C 5.582031 10.609375 6.144531 10.828125 6.398438 10.894531 C 6.9375 11.027344 7.304688 10.996094 7.894531 10.996094 C 9.082031 10.996094 10.371094 10.722656 11.746094 10.171875 C 13.101562 9.636719 14.511719 8.84375 15.941406 7.816406 C 16.144531 7.667969 16.28125 7.5625 16.328125 7.527344 C 16.347656 7.511719 16.359375 7.503906 16.359375 7.503906 L 16.996094 6.996094 Z M 5.59375 0.328125 C 5.835938 0.289062 6.753906 2.34375 6.882812 2.355469 L 6.835938 2.410156 C 6.582031 2.609375 5.628906 0.636719 5.339844 0.8125 C 5.050781 0.984375 4.304688 0.933594 4.304688 0.933594 C 4.648438 0.859375 5.222656 0.390625 5.59375 0.328125 Z M 12.007812 5.78125 C 10.933594 5.570312 9.140625 7.503906 7.203125 7.34375 C 5.828125 7.230469 4.207031 4.707031 3.417969 4.019531 C 2.921875 3.589844 1.441406 2.9375 0.402344 2.511719 C 0.472656 2.496094 0.0976562 2.25 0.175781 2.230469 C 1.492188 2.636719 4 3.605469 4.542969 4.425781 C 5.335938 5.617188 6.957031 7.890625 10.050781 5.738281 C 11.441406 4.773438 13.269531 5.597656 14.644531 6.355469 C 14.984375 6.773438 16.070312 6.917969 16.539062 7.203125 C 14.699219 6.96875 12.824219 5.9375 12.007812 5.78125 Z M 12.007812 5.78125 "/>
</g>
</g>
</svg>
