<?xml version="1.0" encoding="UTF-8"?>
<svg xmlns="http://www.w3.org/2000/svg" xmlns:xlink="http://www.w3.org/1999/xlink" width="8px" height="10px" viewBox="0 0 8 10" version="1.1">
<g id="surface1">
<path style=" stroke:none;fill-rule:nonzero;fill:rgb(30%,30%,30%);fill-opacity:1;" d="M 5.429688 2.792969 L 6.167969 1.949219 L 4.042969 0 L 1.914062 1.960938 L 2.632812 2.773438 C 1.097656 3.292969 0 4.667969 0 6.273438 C 0 8.328125 1.792969 10 4 10 C 6.207031 10 8 8.328125 8 6.273438 C 8 4.6875 6.929688 3.328125 5.429688 2.792969 Z M 4.753906 1.296875 L 6.074219 1.960938 L 4.542969 1.515625 L 4.039062 0.152344 Z M 3.269531 1.3125 L 4.011719 0.152344 L 3.519531 1.519531 L 2.023438 1.949219 Z M 4 9.351562 C 2.179688 9.351562 0.699219 7.96875 0.699219 6.273438 C 0.699219 4.863281 1.71875 3.675781 3.109375 3.3125 L 4.039062 3.765625 L 4.957031 3.328125 C 6.3125 3.714844 7.300781 4.886719 7.300781 6.273438 C 7.300781 7.96875 5.820312 9.351562 4 9.351562 Z M 4 9.351562 "/>
</g>
</svg>
