<?xml version="1.0" encoding="UTF-8"?>
<svg xmlns="http://www.w3.org/2000/svg" xmlns:xlink="http://www.w3.org/1999/xlink" width="6px" height="10px" viewBox="0 0 6 10" version="1.1">
<g id="surface1">
<path style=" stroke:none;fill-rule:nonzero;fill:rgb(30%,30%,30%);fill-opacity:1;" d="M 5.132812 9.996094 L 0.867188 9.996094 C 0.386719 9.996094 0 9.636719 0 9.191406 L 0 0.808594 C 0 0.363281 0.386719 0.00390625 0.867188 0.00390625 L 5.132812 0.00390625 C 5.613281 0.00390625 6 0.363281 6 0.808594 L 6 9.191406 C 6 9.636719 5.613281 9.996094 5.132812 9.996094 Z M 3.710938 1.140625 L 3.710938 0.902344 C 3.710938 0.867188 3.679688 0.839844 3.644531 0.839844 L 2.355469 0.839844 C 2.320312 0.839844 2.289062 0.867188 2.289062 0.902344 L 2.289062 1.140625 C 2.289062 1.171875 2.320312 1.199219 2.355469 1.199219 L 3.644531 1.199219 C 3.679688 1.199219 3.710938 1.171875 3.710938 1.140625 Z M 5.453125 8.023438 L 5.453125 1.917969 C 5.453125 1.886719 5.421875 1.859375 5.386719 1.859375 L 0.613281 1.859375 C 0.578125 1.859375 0.546875 1.886719 0.546875 1.917969 L 0.546875 8.023438 C 0.546875 8.054688 0.578125 8.082031 0.613281 8.082031 L 5.386719 8.082031 C 5.421875 8.082031 5.453125 8.054688 5.453125 8.023438 Z M 3 8.558594 C 2.695312 8.558594 2.453125 8.789062 2.453125 9.070312 C 2.453125 9.351562 2.695312 9.578125 3 9.578125 C 3.304688 9.578125 3.546875 9.351562 3.546875 9.070312 C 3.546875 8.789062 3.304688 8.558594 3 8.558594 Z M 3 8.558594 "/>
</g>
</svg>
