<?xml version="1.0" encoding="UTF-8"?>
<svg xmlns="http://www.w3.org/2000/svg" xmlns:xlink="http://www.w3.org/1999/xlink" width="4px" height="10px" viewBox="0 0 4 10" version="1.1">
<g id="surface1">
<path style=" stroke:none;fill-rule:nonzero;fill:rgb(30%,30%,30%);fill-opacity:1;" d="M 3.5625 2.847656 C 3.785156 2.441406 3.996094 2.015625 4 1.140625 C 4 0.742188 3.789062 0.0117188 3.457031 0 C 2.710938 -0.0234375 2.261719 1.210938 2.222656 1.507812 C 2.179688 1.804688 2.234375 3.0625 2.234375 3.0625 C 1.152344 3.625 0.878906 3.757812 0.335938 4.484375 C -0.390625 5.46875 -0.00390625 7.679688 2.207031 7.742188 L 2.222656 9 C 2.238281 9.257812 1.964844 9.855469 1.347656 9.742188 C 0.96875 9.671875 0.785156 9.558594 0.703125 9.421875 C 0.90625 9.425781 1.09375 9.324219 1.195312 9.160156 C 1.296875 8.996094 1.296875 8.792969 1.195312 8.628906 C 1.09375 8.464844 0.90625 8.363281 0.703125 8.363281 C 0.390625 8.363281 0.121094 8.648438 0.121094 8.941406 C 0.121094 8.941406 -0.00390625 9.484375 0.621094 9.8125 C 1.476562 10.257812 2.375 9.871094 2.429688 9.097656 C 2.445312 8.863281 2.449219 8.367188 2.453125 7.738281 C 4.296875 7.609375 4.289062 4.902344 2.46875 4.820312 C 2.46875 4.480469 2.46875 4.148438 2.472656 3.839844 C 2.914062 3.609375 3.277344 3.371094 3.5625 2.847656 Z M 3.5 0.710938 C 3.925781 0.683594 3.78125 1.753906 3.417969 2.195312 C 3.246094 2.402344 3.03125 2.625 2.472656 2.9375 C 2.472656 2.511719 2.472656 2.183594 2.472656 1.996094 C 2.59375 1.15625 3.273438 0.726562 3.5 0.710938 Z M 3.273438 6.65625 C 3.234375 7.046875 2.933594 7.398438 2.457031 7.492188 C 2.460938 6.921875 2.464844 6.261719 2.46875 5.601562 C 2.96875 5.65625 3.34375 5.996094 3.273438 6.65625 Z M 2.222656 4.824219 C 1.265625 4.910156 0.898438 5.890625 1.203125 6.5625 C 1.367188 6.929688 1.765625 7.011719 1.765625 7.011719 C 1.4375 6.554688 1.265625 5.644531 2.21875 5.601562 L 2.210938 7.519531 C 1.902344 7.527344 1.539062 7.445312 1.128906 7.207031 C 0.121094 6.621094 0.253906 5.246094 1.058594 4.652344 C 1.492188 4.332031 1.882812 4.136719 2.230469 3.964844 Z M 2.222656 4.824219 "/>
</g>
</svg>
