<?xml version="1.0" encoding="UTF-8"?>
<svg xmlns="http://www.w3.org/2000/svg" xmlns:xlink="http://www.w3.org/1999/xlink" width="11px" height="8px" viewBox="0 0 11 8" version="1.1">
<g id="surface1">
<path style=" stroke:none;fill-rule:nonzero;fill:rgb(30%,30%,30%);fill-opacity:1;" d="M 8.042969 4.328125 C 8.035156 4.328125 8.027344 4.324219 8.019531 4.324219 C 7.738281 4.277344 7.449219 4.277344 7.164062 4.324219 C 7.160156 4.328125 7.15625 4.328125 7.152344 4.328125 C 6.679688 4.414062 6.261719 4.632812 5.953125 4.9375 L 5.953125 1.671875 L 3.441406 1.671875 L 3.441406 1.023438 L 4.476562 1.023438 L 4.476562 0 L 1.480469 0 L 1.480469 1.023438 L 2.472656 1.023438 L 2.472656 1.671875 L 0 1.671875 L 0 7.984375 L 5.953125 7.984375 L 5.953125 7.476562 C 6.183594 7.707031 6.480469 7.886719 6.816406 8 L 8.378906 8 C 9.207031 7.726562 9.796875 7.027344 9.796875 6.207031 C 9.796875 5.28125 9.042969 4.507812 8.042969 4.328125 Z M 4.539062 5.773438 L 1.421875 5.773438 L 1.421875 3.644531 L 4.539062 3.644531 Z M 8.597656 6.851562 L 6.6875 6.851562 L 6.6875 5.546875 L 8.597656 5.546875 Z M 8.597656 6.851562 "/>
<path style=" stroke:none;fill-rule:nonzero;fill:rgb(30%,30%,30%);fill-opacity:1;" d="M 9.917969 2.683594 C 9.375 2.683594 8.921875 2.960938 8.851562 3.316406 L 8.027344 3.316406 L 8.027344 2.742188 L 7.164062 2.742188 L 7.164062 3.316406 L 6.882812 3.316406 L 6.882812 3.519531 L 7.164062 3.519531 C 7.164062 3.519531 7.160156 4.117188 7.164062 4.125 C 7.308594 4.101562 7.453125 4.085938 7.597656 4.085938 C 7.742188 4.085938 7.882812 4.097656 8.023438 4.121094 L 8.023438 3.519531 L 8.851562 3.519531 C 8.921875 3.875 9.375 4.152344 9.917969 4.152344 C 10.515625 4.152344 11 3.824219 11 3.417969 C 11 3.011719 10.515625 2.683594 9.917969 2.683594 Z M 9.917969 2.683594 "/>
</g>
</svg>
