<?xml version="1.0" encoding="UTF-8" standalone="no"?>
<!-- Created with Inkscape (http://www.inkscape.org/) -->

<svg
   xmlns:dc="http://purl.org/dc/elements/1.1/"
   xmlns:cc="http://creativecommons.org/ns#"
   xmlns:rdf="http://www.w3.org/1999/02/22-rdf-syntax-ns#"
   xmlns:svg="http://www.w3.org/2000/svg"
   xmlns="http://www.w3.org/2000/svg"
   xmlns:xlink="http://www.w3.org/1999/xlink"
   xmlns:sodipodi="http://sodipodi.sourceforge.net/DTD/sodipodi-0.dtd"
   xmlns:inkscape="http://www.inkscape.org/namespaces/inkscape"
   width="30px"
   height="30px"
   version="1.1"
   id="svg8"
   inkscape:version="0.92.4 5da689c313, 2019-01-14"
   sodipodi:docname="container.svg">
  <defs
     id="defs2" />
  <sodipodi:namedview
     id="base"
     pagecolor="#ffffff"
     bordercolor="#666666"
     borderopacity="1.0"
     inkscape:pageopacity="0.0"
     inkscape:pageshadow="2"
     inkscape:zoom="13.049334"
     inkscape:cx="18.679046"
     inkscape:cy="12.165829"
     inkscape:document-units="px"
     inkscape:current-layer="layer1"
     showgrid="false"
     inkscape:snap-page="false"
     units="px"
     inkscape:window-width="1884"
     inkscape:window-height="1061"
     inkscape:window-x="0"
     inkscape:window-y="0"
     inkscape:window-maximized="1"
     fit-margin-top="0"
     fit-margin-left="0"
     fit-margin-right="0"
     fit-margin-bottom="0" />
  <metadata
     id="metadata5">
    <rdf:RDF>
      <cc:Work
         rdf:about="">
        <dc:format>image/svg+xml</dc:format>
        <dc:type
           rdf:resource="http://purl.org/dc/dcmitype/StillImage" />
        <dc:title></dc:title>
      </cc:Work>
    </rdf:RDF>
  </metadata>
    <circle
       style="color:#000000;clip-rule:nonzero;display:inline;overflow:visible;visibility:visible;opacity:1;isolation:auto;mix-blend-mode:normal;color-interpolation:sRGB;color-interpolation-filters:linearRGB;solid-color:#000000;solid-opacity:1;vector-effect:none;fill:#808080;fill-opacity:1;fill-rule:evenodd;stroke:#ffffff;stroke-width:1;stroke-linecap:butt;stroke-linejoin:miter;stroke-miterlimit:4;stroke-dasharray:none;stroke-dashoffset:0;stroke-opacity:1;marker:none;color-rendering:auto;image-rendering:auto;shape-rendering:auto;text-rendering:auto;enable-background:accumulate"
       id="path815"
       cx="15"
       cy="15"
       r="14.5" />
<g transform="translate(7,7)"><g id="surface1">
<path style=" stroke:none;fill-rule:nonzero;fill:#FFFFFF;fill-opacity:1;" d="M 8.597656 9.453125 C 8.597656 10.582031 7.65625 11.5 6.492188 11.5 C 5.332031 11.5 4.390625 10.582031 4.390625 9.453125 C 4.390625 8.324219 5.332031 7.410156 6.492188 7.410156 C 7.65625 7.410156 8.597656 8.324219 8.597656 9.453125 Z M 8.597656 9.453125 "/>
<path style=" stroke:none;fill-rule:nonzero;fill:#FFFFFF;fill-opacity:1;" d="M 9.660156 9.234375 C 9.363281 9.234375 9.113281 9.015625 9.085938 8.726562 C 9.058594 8.4375 9.261719 8.175781 9.550781 8.121094 L 14.3125 7.234375 C 14.625 7.175781 14.929688 7.375 14.988281 7.679688 C 15.050781 7.984375 14.84375 8.277344 14.53125 8.335938 L 9.769531 9.226562 C 9.734375 9.230469 9.699219 9.234375 9.660156 9.234375 Z M 9.660156 9.234375 "/>
<path style=" stroke:none;fill-rule:nonzero;fill:#FFFFFF;fill-opacity:1;" d="M 14.035156 12.644531 C 13.972656 12.644531 13.910156 12.636719 13.851562 12.617188 L 9.574219 11.214844 C 9.269531 11.117188 9.109375 10.796875 9.210938 10.503906 C 9.3125 10.207031 9.640625 10.050781 9.941406 10.148438 L 14.222656 11.550781 C 14.488281 11.640625 14.652344 11.902344 14.609375 12.175781 C 14.5625 12.445312 14.320312 12.644531 14.035156 12.644531 Z M 14.035156 12.644531 "/>
<path style=" stroke:none;fill-rule:nonzero;fill:#FFFFFF;fill-opacity:1;" d="M 8.84375 7.695312 C 8.605469 7.695312 8.394531 7.554688 8.308594 7.339844 C 8.21875 7.125 8.273438 6.882812 8.445312 6.722656 L 12.050781 3.40625 C 12.285156 3.195312 12.652344 3.203125 12.871094 3.429688 C 13.089844 3.65625 13.078125 4.011719 12.847656 4.222656 L 9.242188 7.539062 C 9.132812 7.640625 8.992188 7.695312 8.84375 7.695312 Z M 8.84375 7.695312 "/>
<path style=" stroke:none;fill-rule:nonzero;fill:#FFFFFF;fill-opacity:1;" d="M 5.386719 16 C 5.214844 16 5.042969 15.988281 4.871094 15.964844 C 3.890625 15.84375 3.183594 15.324219 2.765625 14.429688 C 2.433594 13.714844 2.324219 12.855469 2.230469 12.09375 C 2.140625 11.402344 2.050781 10.691406 1.816406 10.371094 C 0.796875 8.992188 0.199219 7.644531 0.0429688 6.367188 C -0.0976562 5.21875 0.109375 4.144531 0.660156 3.171875 C 1.375 1.914062 2.46875 1.15625 3.261719 0.746094 C 4.265625 0.222656 5.355469 -0.0429688 6.257812 0.0078125 C 8.152344 0.117188 9.027344 1.042969 9.429688 1.796875 C 9.851562 2.59375 9.835938 3.347656 9.832031 3.429688 C 9.820312 3.730469 9.558594 3.964844 9.25 3.953125 C 8.941406 3.941406 8.699219 3.691406 8.710938 3.390625 C 8.710938 3.371094 8.71875 2.816406 8.410156 2.265625 C 8.015625 1.554688 7.269531 1.160156 6.191406 1.097656 C 5.5 1.058594 4.605469 1.285156 3.792969 1.707031 C 2.863281 2.191406 2.097656 2.898438 1.644531 3.699219 C 0.6875 5.390625 1.0625 7.476562 2.730469 9.734375 C 3.132812 10.28125 3.238281 11.097656 3.34375 11.960938 C 3.433594 12.675781 3.527344 13.417969 3.789062 13.976562 C 4.046875 14.527344 4.425781 14.808594 5.015625 14.882812 C 5.613281 14.957031 6.09375 14.855469 6.4375 14.578125 C 7.03125 14.101562 7.105469 13.242188 7.105469 13.234375 C 7.128906 12.933594 7.394531 12.703125 7.707031 12.722656 C 8.015625 12.742188 8.25 13.003906 8.230469 13.304688 C 8.226562 13.359375 8.128906 14.640625 7.152344 15.421875 C 6.671875 15.804688 6.082031 16 5.386719 16 Z M 5.386719 16 "/>
</g>
</g>
</svg>
