<?xml version="1.0" encoding="UTF-8"?>
<svg xmlns="http://www.w3.org/2000/svg" xmlns:xlink="http://www.w3.org/1999/xlink" width="11px" height="8px" viewBox="0 0 11 8" version="1.1">
<g id="surface1">
<path style=" stroke:none;fill-rule:nonzero;fill:rgb(30%,30%,30%);fill-opacity:1;" d="M 2.464844 7.695312 C 2.464844 7.898438 2.359375 8 2.160156 8 L 1.554688 8 C 1.355469 8 1.253906 7.898438 1.253906 7.695312 L 1.253906 6.777344 L 0.410156 5.257812 C 0.160156 5.027344 0 4.695312 0 4.335938 C 0 3.628906 0.53125 3.054688 1.230469 3.054688 C 1.929688 3.054688 2.464844 3.628906 2.464844 4.335938 Z M 7.902344 5.558594 L 7.902344 7.390625 L 3.066406 7.390625 L 3.066406 5.28125 C 3.671875 4.617188 4.609375 4.273438 5.515625 4.273438 C 6.421875 4.273438 7.25 4.617188 7.929688 5.234375 Z M 7.902344 4.335938 L 7.902344 4.808594 L 7.832031 4.714844 C 7.171875 4.117188 6.34375 3.785156 5.46875 3.785156 C 4.59375 3.785156 3.789062 4.117188 3.128906 4.714844 L 3.066406 4.808594 L 3.066406 4.335938 C 3.066406 3.652344 2.636719 3.023438 2.015625 2.730469 L 1.953125 2.710938 L 1.960938 2.660156 C 2.421875 1.09375 3.871094 0 5.488281 0 C 7.105469 0 8.554688 1.09375 9.019531 2.660156 L 9.03125 2.710938 L 8.953125 2.730469 C 8.332031 3.023438 7.902344 3.652344 7.902344 4.335938 Z M 10.585938 5.273438 L 9.742188 6.808594 L 9.714844 7.160156 L 9.714844 7.695312 C 9.714844 7.898438 9.613281 8 9.414062 8 L 8.808594 8 C 8.609375 8 8.507812 7.898438 8.507812 7.695312 L 8.507812 4.335938 C 8.507812 3.628906 9.046875 3.054688 9.746094 3.054688 C 10.445312 3.054688 11 3.628906 11 4.335938 C 11 4.695312 10.847656 5.027344 10.585938 5.273438 Z M 10.585938 5.273438 "/>
</g>
</svg>
