<?xml version="1.0" encoding="UTF-8"?>
<svg xmlns="http://www.w3.org/2000/svg" xmlns:xlink="http://www.w3.org/1999/xlink" width="10px" height="10px" viewBox="0 0 10 10" version="1.1">
<g id="surface1">
<path style=" stroke:none;fill-rule:nonzero;fill:rgb(30%,30%,30%);fill-opacity:1;" d="M 9.339844 4.242188 C 9.125 3.507812 7.582031 2.917969 5.621094 2.816406 C 3.921875 2.726562 1.003906 3.089844 0.664062 4.242188 C 0.847656 4.195312 9.066406 4.167969 9.339844 4.242188 Z M 9.339844 4.242188 "/>
<path style=" stroke:none;fill-rule:nonzero;fill:rgb(30%,30%,30%);fill-opacity:1;" d="M 0.933594 6.386719 C 0.945312 6.675781 1.195312 6.90625 1.503906 6.90625 L 8.503906 6.90625 C 8.808594 6.90625 9.0625 6.675781 9.070312 6.386719 Z M 0.933594 6.386719 "/>
<path style=" stroke:none;fill-rule:nonzero;fill:rgb(30%,30%,30%);fill-opacity:1;" d="M 1.765625 7.097656 C 1.730469 7.433594 2.015625 7.710938 2.359375 7.710938 L 7.644531 7.710938 C 7.988281 7.710938 8.273438 7.433594 8.238281 7.097656 Z M 1.765625 7.097656 "/>
<path style=" stroke:none;fill-rule:nonzero;fill:rgb(30%,30%,30%);fill-opacity:1;" d="M 5.503906 2.664062 C 5.71875 1.878906 5.917969 1.082031 5.917969 0.855469 C 5.917969 -0.285156 4.085938 -0.289062 4.085938 0.855469 C 4.085938 1.082031 4.289062 1.878906 4.503906 2.664062 C 4.832031 2.652344 5.164062 2.648438 5.503906 2.664062 Z M 5.503906 2.664062 "/>
<path style=" stroke:none;fill-rule:nonzero;fill:rgb(30%,30%,30%);fill-opacity:1;" d="M 9.066406 4.425781 C 0.285156 4.425781 0.800781 4.382812 0.496094 4.535156 C -0.359375 4.96875 -0.0390625 6.195312 0.953125 6.195312 C 9.644531 6.195312 9.089844 6.203125 9.207031 6.183594 C 10.347656 6.023438 10.21875 4.425781 9.066406 4.425781 Z M 9.066406 4.425781 "/>
<path style=" stroke:none;fill-rule:nonzero;fill:rgb(30%,30%,30%);fill-opacity:1;" d="M 5.003906 10 C 5.011719 9.960938 5.011719 9.964844 5.128906 9.34375 L 4.882812 9.34375 C 4.96875 9.816406 4.96875 9.816406 5.003906 10 Z M 5.003906 10 "/>
<path style=" stroke:none;fill-rule:nonzero;fill:rgb(30%,30%,30%);fill-opacity:1;" d="M 3.664062 8.601562 C 3.613281 8.902344 3.867188 9.179688 4.195312 9.179688 L 5.808594 9.179688 C 6.140625 9.179688 6.390625 8.902344 6.34375 8.601562 Z M 3.664062 8.601562 "/>
<path style=" stroke:none;fill-rule:nonzero;fill:rgb(30%,30%,30%);fill-opacity:1;" d="M 2.820312 7.898438 C 2.789062 8.167969 3.015625 8.410156 3.308594 8.410156 L 6.695312 8.410156 C 6.992188 8.410156 7.214844 8.167969 7.183594 7.898438 Z M 2.820312 7.898438 "/>
</g>
</svg>
