<?xml version="1.0" encoding="UTF-8" standalone="no"?>
<!-- Created with Inkscape (http://www.inkscape.org/) -->

<svg
   xmlns:dc="http://purl.org/dc/elements/1.1/"
   xmlns:cc="http://creativecommons.org/ns#"
   xmlns:rdf="http://www.w3.org/1999/02/22-rdf-syntax-ns#"
   xmlns:svg="http://www.w3.org/2000/svg"
   xmlns="http://www.w3.org/2000/svg"
   xmlns:xlink="http://www.w3.org/1999/xlink"
   xmlns:sodipodi="http://sodipodi.sourceforge.net/DTD/sodipodi-0.dtd"
   xmlns:inkscape="http://www.inkscape.org/namespaces/inkscape"
   width="30px"
   height="30px"
   version="1.1"
   id="svg8"
   inkscape:version="0.92.4 5da689c313, 2019-01-14"
   sodipodi:docname="container.svg">
  <defs
     id="defs2" />
  <sodipodi:namedview
     id="base"
     pagecolor="#ffffff"
     bordercolor="#666666"
     borderopacity="1.0"
     inkscape:pageopacity="0.0"
     inkscape:pageshadow="2"
     inkscape:zoom="13.049334"
     inkscape:cx="18.679046"
     inkscape:cy="12.165829"
     inkscape:document-units="px"
     inkscape:current-layer="layer1"
     showgrid="false"
     inkscape:snap-page="false"
     units="px"
     inkscape:window-width="1884"
     inkscape:window-height="1061"
     inkscape:window-x="0"
     inkscape:window-y="0"
     inkscape:window-maximized="1"
     fit-margin-top="0"
     fit-margin-left="0"
     fit-margin-right="0"
     fit-margin-bottom="0" />
  <metadata
     id="metadata5">
    <rdf:RDF>
      <cc:Work
         rdf:about="">
        <dc:format>image/svg+xml</dc:format>
        <dc:type
           rdf:resource="http://purl.org/dc/dcmitype/StillImage" />
        <dc:title></dc:title>
      </cc:Work>
    </rdf:RDF>
  </metadata>
    <circle
       style="color:#000000;clip-rule:nonzero;display:inline;overflow:visible;visibility:visible;opacity:1;isolation:auto;mix-blend-mode:normal;color-interpolation:sRGB;color-interpolation-filters:linearRGB;solid-color:#000000;solid-opacity:1;vector-effect:none;fill:#ffffff;fill-opacity:1;fill-rule:evenodd;stroke:#808080;stroke-width:1;stroke-linecap:butt;stroke-linejoin:miter;stroke-miterlimit:4;stroke-dasharray:none;stroke-dashoffset:0;stroke-opacity:1;marker:none;color-rendering:auto;image-rendering:auto;shape-rendering:auto;text-rendering:auto;enable-background:accumulate"
       id="path815"
       cx="15"
       cy="15"
       r="14.5" />
<g transform="translate(12,7)"><g id="surface1">
<path style=" stroke:none;fill-rule:nonzero;fill:rgb(30%,30%,30%);fill-opacity:1;" d="M 5.34375 4.273438 C 5.675781 3.660156 5.992188 3.023438 5.996094 1.710938 C 6 1.113281 5.6875 0.015625 5.1875 0 C 4.066406 -0.03125 3.394531 1.820312 3.332031 2.261719 C 3.269531 2.707031 3.351562 4.59375 3.351562 4.59375 C 1.730469 5.4375 1.316406 5.636719 0.503906 6.730469 C -0.585938 8.203125 -0.0078125 11.519531 3.3125 11.613281 L 3.332031 13.496094 C 3.355469 13.886719 2.945312 14.785156 2.023438 14.613281 C 1.453125 14.507812 1.175781 14.335938 1.054688 14.136719 C 1.359375 14.136719 1.640625 13.984375 1.792969 13.738281 C 1.945312 13.492188 1.945312 13.1875 1.792969 12.941406 C 1.640625 12.695312 1.359375 12.546875 1.054688 12.546875 C 0.585938 12.546875 0.183594 12.972656 0.183594 13.410156 C 0.183594 13.410156 -0.00390625 14.230469 0.933594 14.714844 C 2.21875 15.386719 3.5625 14.804688 3.644531 13.648438 C 3.667969 13.292969 3.671875 12.550781 3.683594 11.605469 C 6.441406 11.410156 6.429688 7.355469 3.703125 7.226562 C 3.703125 6.71875 3.707031 6.226562 3.707031 5.761719 C 4.375 5.414062 4.917969 5.054688 5.34375 4.273438 Z M 5.25 1.066406 C 5.886719 1.023438 5.671875 2.632812 5.125 3.292969 C 4.867188 3.601562 4.550781 3.941406 3.707031 4.402344 C 3.707031 3.769531 3.707031 3.273438 3.707031 2.996094 C 3.894531 1.734375 4.910156 1.089844 5.25 1.066406 Z M 4.910156 9.988281 C 4.847656 10.570312 4.402344 11.09375 3.683594 11.238281 C 3.691406 10.378906 3.699219 9.394531 3.699219 8.402344 C 4.453125 8.484375 5.019531 8.992188 4.910156 9.988281 Z M 3.335938 7.234375 C 1.898438 7.367188 1.351562 8.835938 1.804688 9.84375 C 2.050781 10.390625 2.644531 10.519531 2.644531 10.519531 C 2.152344 9.832031 1.898438 8.464844 3.328125 8.402344 L 3.3125 11.277344 C 2.855469 11.289062 2.308594 11.164062 1.695312 10.8125 C 0.183594 9.933594 0.382812 7.871094 1.585938 6.976562 C 2.238281 6.496094 2.824219 6.203125 3.34375 5.945312 Z M 3.335938 7.234375 "/>
</g>
</g>
</svg>
