<?xml version="1.0" encoding="UTF-8" standalone="no"?>
<!-- Created with Inkscape (http://www.inkscape.org/) -->

<svg
   xmlns:dc="http://purl.org/dc/elements/1.1/"
   xmlns:cc="http://creativecommons.org/ns#"
   xmlns:rdf="http://www.w3.org/1999/02/22-rdf-syntax-ns#"
   xmlns:svg="http://www.w3.org/2000/svg"
   xmlns="http://www.w3.org/2000/svg"
   xmlns:xlink="http://www.w3.org/1999/xlink"
   xmlns:sodipodi="http://sodipodi.sourceforge.net/DTD/sodipodi-0.dtd"
   xmlns:inkscape="http://www.inkscape.org/namespaces/inkscape"
   width="30px"
   height="30px"
   version="1.1"
   id="svg8"
   inkscape:version="0.92.4 5da689c313, 2019-01-14"
   sodipodi:docname="container.svg">
  <defs
     id="defs2" />
  <sodipodi:namedview
     id="base"
     pagecolor="#ffffff"
     bordercolor="#666666"
     borderopacity="1.0"
     inkscape:pageopacity="0.0"
     inkscape:pageshadow="2"
     inkscape:zoom="13.049334"
     inkscape:cx="18.679046"
     inkscape:cy="12.165829"
     inkscape:document-units="px"
     inkscape:current-layer="layer1"
     showgrid="false"
     inkscape:snap-page="false"
     units="px"
     inkscape:window-width="1884"
     inkscape:window-height="1061"
     inkscape:window-x="0"
     inkscape:window-y="0"
     inkscape:window-maximized="1"
     fit-margin-top="0"
     fit-margin-left="0"
     fit-margin-right="0"
     fit-margin-bottom="0" />
  <metadata
     id="metadata5">
    <rdf:RDF>
      <cc:Work
         rdf:about="">
        <dc:format>image/svg+xml</dc:format>
        <dc:type
           rdf:resource="http://purl.org/dc/dcmitype/StillImage" />
        <dc:title></dc:title>
      </cc:Work>
    </rdf:RDF>
  </metadata>
    <circle
       style="color:#000000;clip-rule:nonzero;display:inline;overflow:visible;visibility:visible;opacity:1;isolation:auto;mix-blend-mode:normal;color-interpolation:sRGB;color-interpolation-filters:linearRGB;solid-color:#000000;solid-opacity:1;vector-effect:none;fill:#808080;fill-opacity:1;fill-rule:evenodd;stroke:#ffffff;stroke-width:1;stroke-linecap:butt;stroke-linejoin:miter;stroke-miterlimit:4;stroke-dasharray:none;stroke-dashoffset:0;stroke-opacity:1;marker:none;color-rendering:auto;image-rendering:auto;shape-rendering:auto;text-rendering:auto;enable-background:accumulate"
       id="path815"
       cx="15"
       cy="15"
       r="14.5" />
<g transform="translate(7,6)"><g id="surface1">
<path style=" stroke:none;fill-rule:nonzero;fill:#FFFFFF;fill-opacity:1;" d="M 6.84375 8.019531 C 8.308594 7.996094 9.460938 6.179688 9.425781 3.964844 C 9.386719 1.75 8.171875 -0.0234375 6.707031 0 C 5.25 0.0234375 4.09375 1.839844 4.128906 4.054688 C 4.164062 6.269531 5.382812 8.046875 6.84375 8.019531 Z M 6.441406 3.949219 C 6.886719 2.089844 6.710938 0.480469 6.738281 0.429688 C 6.753906 0.5 7.570312 2.074219 7.117188 4.070312 C 6.667969 5.933594 6.84375 7.539062 6.816406 7.59375 C 6.800781 7.519531 5.980469 5.949219 6.441406 3.949219 Z M 6.441406 3.949219 "/>
<path style=" stroke:none;fill-rule:nonzero;fill:#FFFFFF;fill-opacity:1;" d="M 14.355469 6.964844 C 13.199219 5.839844 10.863281 6.347656 9.144531 8.105469 C 7.425781 9.863281 6.972656 12.199219 8.132812 13.324219 C 9.292969 14.453125 11.625 13.941406 13.34375 12.183594 C 15.0625 10.429688 15.515625 8.09375 14.355469 6.964844 Z M 11.457031 10.457031 C 9.640625 11.558594 8.511719 12.949219 8.449219 12.96875 C 8.492188 12.898438 9.09375 11.035156 11.03125 9.832031 C 12.847656 8.734375 13.976562 7.34375 14.042969 7.320312 C 14 7.394531 13.390625 9.257812 11.457031 10.457031 Z M 11.457031 10.457031 "/>
<path style=" stroke:none;fill-rule:nonzero;fill:#FFFFFF;fill-opacity:1;" d="M 1.574219 7.722656 C -0.0820312 8.46875 -0.496094 11.109375 0.644531 13.617188 C 1.785156 16.125 4.054688 17.546875 5.710938 16.800781 C 7.363281 16.054688 7.78125 13.414062 6.640625 10.90625 C 5.496094 8.398438 3.230469 6.972656 1.574219 7.722656 Z M 3.226562 12.359375 C 2.8125 10.015625 1.816406 8.269531 1.820312 8.199219 C 1.875 8.269531 3.585938 9.660156 4.058594 12.167969 C 4.472656 14.507812 5.46875 16.253906 5.464844 16.324219 C 5.40625 16.253906 3.695312 14.863281 3.226562 12.359375 Z M 3.226562 12.359375 "/>
</g>
</g>
</svg>
