<?xml version="1.0" encoding="UTF-8"?>
<svg xmlns="http://www.w3.org/2000/svg" xmlns:xlink="http://www.w3.org/1999/xlink" width="6px" height="10px" viewBox="0 0 6 10" version="1.1">
<g id="surface1">
<path style=" stroke:none;fill-rule:nonzero;fill:rgb(30%,30%,30%);fill-opacity:1;" d="M 4.652344 5.003906 L 3.277344 5.003906 C 3.257812 4.847656 3.140625 4.722656 2.984375 4.6875 L 2.984375 3.328125 C 2.960938 3.308594 2.933594 3.296875 2.902344 3.296875 C 2.871094 3.296875 2.84375 3.308594 2.824219 3.328125 L 2.824219 4.6875 C 2.722656 4.707031 2.636719 4.769531 2.582031 4.855469 C 2.527344 4.9375 2.511719 5.039062 2.539062 5.136719 C 2.546875 5.160156 2.554688 5.183594 2.566406 5.207031 L 1.699219 6.046875 L 1.699219 6.066406 C 1.707031 6.144531 1.769531 6.203125 1.847656 6.210938 L 1.867188 6.210938 L 2.734375 5.371094 C 2.757812 5.382812 2.78125 5.390625 2.808594 5.394531 C 3.054688 5.453125 3.253906 5.292969 3.277344 5.082031 L 4.652344 5.082031 C 4.6875 5.0625 4.6875 5.027344 4.652344 5.003906 Z M 4.652344 5.003906 "/>
<path style=" stroke:none;fill-rule:nonzero;fill:rgb(30%,30%,30%);fill-opacity:1;" d="M 5.90625 4.734375 L 5.785156 4.734375 C 5.71875 4.121094 5.441406 3.542969 5 3.097656 C 4.914062 2.71875 4.832031 2.34375 4.746094 1.964844 L 4.355469 1.964844 L 4.355469 1.761719 L 4.296875 1.761719 L 4.296875 1.648438 L 4.355469 1.648438 L 4.355469 0.863281 L 4.296875 0.863281 L 4.296875 0.75 L 4.355469 0.75 L 4.355469 0.175781 C 4.335938 0.167969 4.316406 0.164062 4.296875 0.160156 L 4.175781 0.128906 C 3.402344 -0.0429688 2.597656 -0.0429688 1.824219 0.128906 C 1.714844 0.15625 1.609375 0.183594 1.503906 0.214844 C 1.484375 0.21875 1.464844 0.226562 1.445312 0.230469 L 1.445312 0.75 L 1.503906 0.75 L 1.503906 0.863281 L 1.445312 0.863281 L 1.445312 1.648438 L 1.503906 1.648438 L 1.503906 1.761719 L 1.445312 1.761719 L 1.445312 1.964844 L 1.058594 1.964844 C 0.972656 2.34375 0.890625 2.71875 0.804688 3.097656 C -0.277344 4.195312 -0.265625 5.929688 0.828125 7.015625 C 0.90625 7.355469 0.980469 7.695312 1.058594 8.035156 L 1.503906 8.035156 L 1.503906 8.351562 L 1.445312 8.351562 L 1.445312 9.136719 L 1.503906 9.136719 L 1.503906 9.25 L 1.445312 9.25 L 1.445312 9.769531 C 1.464844 9.773438 1.484375 9.78125 1.503906 9.785156 L 1.824219 9.867188 C 2.597656 10.042969 3.402344 10.042969 4.175781 9.867188 C 4.214844 9.859375 4.253906 9.851562 4.296875 9.839844 C 4.316406 9.835938 4.335938 9.832031 4.355469 9.824219 L 4.355469 9.25 L 4.296875 9.25 L 4.296875 9.136719 L 4.355469 9.136719 L 4.355469 8.351562 L 4.296875 8.351562 L 4.296875 8.035156 L 4.746094 8.035156 C 4.824219 7.695312 4.898438 7.355469 4.976562 7.011719 C 5.429688 6.5625 5.714844 5.976562 5.785156 5.351562 L 5.90625 5.351562 C 5.957031 5.351562 6 5.308594 6 5.257812 L 6 4.828125 C 6 4.777344 5.957031 4.734375 5.90625 4.734375 Z M 2.984375 7.253906 L 2.984375 6.910156 C 2.9375 6.867188 2.867188 6.867188 2.824219 6.910156 L 2.824219 7.253906 C 1.625 7.214844 0.664062 6.28125 0.621094 5.121094 L 0.9375 5.121094 C 0.960938 5.101562 0.972656 5.074219 0.972656 5.042969 C 0.972656 5.015625 0.960938 4.984375 0.9375 4.964844 L 0.621094 4.964844 C 0.664062 3.804688 1.625 2.871094 2.824219 2.832031 L 2.824219 3.152344 C 2.867188 3.195312 2.9375 3.195312 2.984375 3.152344 L 2.984375 2.832031 C 4.179688 2.871094 5.140625 3.804688 5.183594 4.964844 L 4.875 4.964844 C 4.855469 4.984375 4.84375 5.015625 4.84375 5.042969 C 4.84375 5.074219 4.855469 5.101562 4.875 5.121094 L 5.183594 5.121094 C 5.140625 6.28125 4.179688 7.214844 2.984375 7.253906 Z M 2.984375 7.253906 "/>
</g>
</svg>
