<?xml version="1.0" encoding="UTF-8" standalone="no"?>
<!-- Created with Inkscape (http://www.inkscape.org/) -->

<svg
   xmlns:dc="http://purl.org/dc/elements/1.1/"
   xmlns:cc="http://creativecommons.org/ns#"
   xmlns:rdf="http://www.w3.org/1999/02/22-rdf-syntax-ns#"
   xmlns:svg="http://www.w3.org/2000/svg"
   xmlns="http://www.w3.org/2000/svg"
   xmlns:xlink="http://www.w3.org/1999/xlink"
   xmlns:sodipodi="http://sodipodi.sourceforge.net/DTD/sodipodi-0.dtd"
   xmlns:inkscape="http://www.inkscape.org/namespaces/inkscape"
   width="30px"
   height="30px"
   version="1.1"
   id="svg8"
   inkscape:version="0.92.4 5da689c313, 2019-01-14"
   sodipodi:docname="container.svg">
  <defs
     id="defs2" />
  <sodipodi:namedview
     id="base"
     pagecolor="#ffffff"
     bordercolor="#666666"
     borderopacity="1.0"
     inkscape:pageopacity="0.0"
     inkscape:pageshadow="2"
     inkscape:zoom="13.049334"
     inkscape:cx="18.679046"
     inkscape:cy="12.165829"
     inkscape:document-units="px"
     inkscape:current-layer="layer1"
     showgrid="false"
     inkscape:snap-page="false"
     units="px"
     inkscape:window-width="1884"
     inkscape:window-height="1061"
     inkscape:window-x="0"
     inkscape:window-y="0"
     inkscape:window-maximized="1"
     fit-margin-top="0"
     fit-margin-left="0"
     fit-margin-right="0"
     fit-margin-bottom="0" />
  <metadata
     id="metadata5">
    <rdf:RDF>
      <cc:Work
         rdf:about="">
        <dc:format>image/svg+xml</dc:format>
        <dc:type
           rdf:resource="http://purl.org/dc/dcmitype/StillImage" />
        <dc:title></dc:title>
      </cc:Work>
    </rdf:RDF>
  </metadata>
    <circle
       style="color:#000000;clip-rule:nonzero;display:inline;overflow:visible;visibility:visible;opacity:1;isolation:auto;mix-blend-mode:normal;color-interpolation:sRGB;color-interpolation-filters:linearRGB;solid-color:#000000;solid-opacity:1;vector-effect:none;fill:#ffffff;fill-opacity:1;fill-rule:evenodd;stroke:#808080;stroke-width:1;stroke-linecap:butt;stroke-linejoin:miter;stroke-miterlimit:4;stroke-dasharray:none;stroke-dashoffset:0;stroke-opacity:1;marker:none;color-rendering:auto;image-rendering:auto;shape-rendering:auto;text-rendering:auto;enable-background:accumulate"
       id="path815"
       cx="15"
       cy="15"
       r="14.5" />
<g transform="translate(10,6)"><g id="surface1">
<path style=" stroke:none;fill-rule:nonzero;fill:rgb(30%,30%,30%);fill-opacity:1;" d="M 7.753906 8.507812 L 5.460938 8.507812 C 5.429688 8.242188 5.234375 8.023438 4.972656 7.96875 L 4.972656 5.65625 C 4.933594 5.621094 4.886719 5.601562 4.835938 5.601562 C 4.789062 5.601562 4.738281 5.621094 4.703125 5.65625 L 4.703125 7.96875 C 4.535156 8.003906 4.390625 8.105469 4.304688 8.25 C 4.214844 8.394531 4.1875 8.570312 4.230469 8.734375 C 4.242188 8.773438 4.257812 8.816406 4.277344 8.851562 L 2.832031 10.28125 L 2.835938 10.316406 C 2.847656 10.441406 2.949219 10.542969 3.078125 10.554688 L 3.113281 10.558594 L 4.554688 9.128906 C 4.59375 9.148438 4.636719 9.164062 4.679688 9.171875 C 5.089844 9.273438 5.421875 8.996094 5.460938 8.640625 L 7.753906 8.640625 C 7.8125 8.605469 7.8125 8.542969 7.753906 8.507812 Z M 7.753906 8.507812 "/>
<path style=" stroke:none;fill-rule:nonzero;fill:rgb(30%,30%,30%);fill-opacity:1;" d="M 9.84375 8.050781 L 9.644531 8.050781 C 9.53125 7.003906 9.070312 6.027344 8.332031 5.265625 C 8.191406 4.625 8.050781 3.980469 7.910156 3.339844 L 7.257812 3.339844 L 7.257812 2.996094 L 7.160156 2.996094 L 7.160156 2.800781 L 7.257812 2.800781 L 7.257812 1.46875 L 7.160156 1.46875 L 7.160156 1.277344 L 7.257812 1.277344 L 7.257812 0.296875 C 7.226562 0.289062 7.191406 0.277344 7.160156 0.269531 L 6.960938 0.222656 C 5.671875 -0.0742188 4.328125 -0.0742188 3.039062 0.222656 C 2.859375 0.261719 2.683594 0.308594 2.507812 0.363281 C 2.476562 0.371094 2.441406 0.382812 2.410156 0.394531 L 2.410156 1.277344 L 2.507812 1.277344 L 2.507812 1.46875 L 2.410156 1.46875 L 2.410156 2.800781 L 2.507812 2.800781 L 2.507812 2.996094 L 2.410156 2.996094 L 2.410156 3.339844 L 1.761719 3.339844 C 1.621094 3.980469 1.480469 4.625 1.339844 5.265625 C -0.460938 7.132812 -0.445312 10.078125 1.382812 11.921875 C 1.507812 12.503906 1.636719 13.082031 1.761719 13.660156 L 2.507812 13.660156 L 2.507812 14.195312 L 2.410156 14.195312 L 2.410156 15.53125 L 2.507812 15.53125 L 2.507812 15.722656 L 2.410156 15.722656 L 2.410156 16.605469 C 2.441406 16.617188 2.476562 16.628906 2.507812 16.636719 L 3.039062 16.777344 C 4.328125 17.074219 5.671875 17.074219 6.960938 16.777344 C 7.027344 16.761719 7.09375 16.746094 7.160156 16.730469 C 7.191406 16.71875 7.226562 16.710938 7.257812 16.703125 L 7.257812 15.722656 L 7.160156 15.722656 L 7.160156 15.53125 L 7.257812 15.53125 L 7.257812 14.195312 L 7.160156 14.195312 L 7.160156 13.660156 L 7.910156 13.660156 C 8.039062 13.082031 8.164062 12.503906 8.292969 11.921875 C 9.050781 11.15625 9.527344 10.160156 9.644531 9.09375 L 9.84375 9.09375 C 9.929688 9.09375 10 9.027344 10 8.941406 L 10 8.207031 C 10 8.121094 9.929688 8.050781 9.84375 8.050781 Z M 4.972656 12.332031 L 4.972656 11.75 C 4.898438 11.675781 4.777344 11.675781 4.703125 11.75 L 4.703125 12.332031 C 2.710938 12.265625 1.105469 10.679688 1.039062 8.707031 L 1.566406 8.707031 C 1.601562 8.671875 1.621094 8.625 1.621094 8.574219 C 1.621094 8.523438 1.601562 8.476562 1.566406 8.441406 L 1.039062 8.441406 C 1.105469 6.46875 2.710938 4.882812 4.703125 4.8125 L 4.703125 5.359375 C 4.777344 5.429688 4.898438 5.429688 4.972656 5.359375 L 4.972656 4.8125 C 6.964844 4.882812 8.566406 6.46875 8.636719 8.441406 L 8.125 8.441406 C 8.089844 8.476562 8.070312 8.523438 8.070312 8.574219 C 8.070312 8.625 8.089844 8.671875 8.125 8.707031 L 8.636719 8.707031 C 8.566406 10.679688 6.964844 12.265625 4.972656 12.332031 Z M 4.972656 12.332031 "/>
</g>
</g>
</svg>
