<?xml version="1.0" encoding="UTF-8" standalone="no"?>
<!-- Created with Inkscape (http://www.inkscape.org/) -->

<svg
   xmlns:dc="http://purl.org/dc/elements/1.1/"
   xmlns:cc="http://creativecommons.org/ns#"
   xmlns:rdf="http://www.w3.org/1999/02/22-rdf-syntax-ns#"
   xmlns:svg="http://www.w3.org/2000/svg"
   xmlns="http://www.w3.org/2000/svg"
   xmlns:xlink="http://www.w3.org/1999/xlink"
   xmlns:sodipodi="http://sodipodi.sourceforge.net/DTD/sodipodi-0.dtd"
   xmlns:inkscape="http://www.inkscape.org/namespaces/inkscape"
   width="30px"
   height="30px"
   version="1.1"
   id="svg8"
   inkscape:version="0.92.4 5da689c313, 2019-01-14"
   sodipodi:docname="container.svg">
  <defs
     id="defs2" />
  <sodipodi:namedview
     id="base"
     pagecolor="#ffffff"
     bordercolor="#666666"
     borderopacity="1.0"
     inkscape:pageopacity="0.0"
     inkscape:pageshadow="2"
     inkscape:zoom="13.049334"
     inkscape:cx="18.679046"
     inkscape:cy="12.165829"
     inkscape:document-units="px"
     inkscape:current-layer="layer1"
     showgrid="false"
     inkscape:snap-page="false"
     units="px"
     inkscape:window-width="1884"
     inkscape:window-height="1061"
     inkscape:window-x="0"
     inkscape:window-y="0"
     inkscape:window-maximized="1"
     fit-margin-top="0"
     fit-margin-left="0"
     fit-margin-right="0"
     fit-margin-bottom="0" />
  <metadata
     id="metadata5">
    <rdf:RDF>
      <cc:Work
         rdf:about="">
        <dc:format>image/svg+xml</dc:format>
        <dc:type
           rdf:resource="http://purl.org/dc/dcmitype/StillImage" />
        <dc:title></dc:title>
      </cc:Work>
    </rdf:RDF>
  </metadata>
    <circle
       style="color:#000000;clip-rule:nonzero;display:inline;overflow:visible;visibility:visible;opacity:1;isolation:auto;mix-blend-mode:normal;color-interpolation:sRGB;color-interpolation-filters:linearRGB;solid-color:#000000;solid-opacity:1;vector-effect:none;fill:#808080;fill-opacity:1;fill-rule:evenodd;stroke:#ffffff;stroke-width:1;stroke-linecap:butt;stroke-linejoin:miter;stroke-miterlimit:4;stroke-dasharray:none;stroke-dashoffset:0;stroke-opacity:1;marker:none;color-rendering:auto;image-rendering:auto;shape-rendering:auto;text-rendering:auto;enable-background:accumulate"
       id="path815"
       cx="15"
       cy="15"
       r="14.5" />
<g transform="translate(6,7)"><g id="surface1">
<path style=" stroke:none;fill-rule:nonzero;fill:#FFFFFF;fill-opacity:1;" d="M 16.90625 12.441406 C 16.90625 12.441406 14.421875 5.261719 13.398438 5.261719 C 13.398438 5.261719 12.242188 5.464844 12.65625 6.839844 C 12.792969 6.984375 12.871094 7.179688 12.867188 7.378906 C 12.867188 7.804688 12.542969 8.148438 12.144531 8.148438 C 11.746094 8.148438 11.421875 7.804688 11.421875 7.378906 C 11.421875 7.3125 11.429688 7.246094 11.445312 7.183594 C 11.382812 6.5625 11.160156 5.210938 10.179688 5.261719 C 10.179688 5.261719 9.375 5.261719 8.527344 5.261719 C 8.519531 5.261719 8.507812 5.261719 8.5 5.261719 C 8.492188 5.261719 8.480469 5.261719 8.472656 5.261719 C 7.625 5.261719 6.820312 5.261719 6.820312 5.261719 C 5.839844 5.210938 5.617188 6.5625 5.554688 7.183594 C 5.570312 7.246094 5.578125 7.3125 5.578125 7.378906 C 5.578125 7.804688 5.253906 8.148438 4.855469 8.148438 C 4.457031 8.148438 4.132812 7.804688 4.132812 7.378906 C 4.128906 7.179688 4.207031 6.984375 4.34375 6.839844 C 4.757812 5.464844 3.601562 5.261719 3.601562 5.261719 C 2.578125 5.261719 0.09375 12.441406 0.09375 12.441406 C -0.289062 13.667969 0.539062 14.957031 1.753906 14.996094 C 1.769531 14.996094 1.789062 14.996094 1.808594 14.996094 L 15.191406 14.996094 C 15.210938 14.996094 15.230469 14.996094 15.246094 14.996094 C 16.460938 14.957031 17.289062 13.667969 16.90625 12.441406 Z M 16.90625 12.441406 "/>
<path style=" stroke:none;fill-rule:nonzero;fill:#FFFFFF;fill-opacity:1;" d="M 12.359375 6.941406 L 12.359375 5.558594 C 12.359375 5.386719 12.351562 5.214844 12.332031 5.042969 L 12.332031 4.167969 C 12.332031 3.039062 11.953125 1.996094 11.265625 1.226562 C 10.554688 0.4375 9.5625 0.00390625 8.472656 0.00390625 C 7.382812 0.00390625 6.375 0.4375 5.644531 1.222656 C 4.925781 1.996094 4.53125 3.042969 4.53125 4.167969 C 4.53125 4.207031 4.527344 4.304688 4.527344 4.429688 C 4.515625 5.234375 4.515625 5.695312 4.53125 5.832031 C 4.535156 5.851562 4.539062 6.570312 4.550781 6.972656 C 4.398438 7.117188 4.351562 7.34375 4.429688 7.539062 C 4.511719 7.738281 4.699219 7.863281 4.910156 7.859375 C 5.117188 7.855469 5.300781 7.71875 5.371094 7.519531 C 5.445312 7.320312 5.386719 7.09375 5.230469 6.957031 C 5.226562 6.65625 5.234375 6.082031 5.238281 5.832031 C 5.238281 5.703125 5.238281 5.601562 5.238281 5.558594 C 5.238281 4.613281 5.570312 3.738281 6.167969 3.097656 C 6.769531 2.449219 7.597656 2.09375 8.5 2.09375 C 9.394531 2.09375 10.207031 2.449219 10.789062 3.09375 C 11.265625 3.621094 11.5625 4.316406 11.652344 5.109375 L 11.652344 5.8125 C 11.652344 5.828125 11.667969 6.628906 11.675781 6.996094 C 11.535156 7.152344 11.503906 7.378906 11.59375 7.570312 C 11.683594 7.761719 11.882812 7.875 12.085938 7.855469 C 12.292969 7.839844 12.46875 7.695312 12.53125 7.492188 C 12.589844 7.292969 12.523438 7.070312 12.359375 6.941406 Z M 11.292969 2.621094 C 10.578125 1.832031 9.589844 1.394531 8.5 1.394531 C 7.40625 1.394531 6.402344 1.828125 5.671875 2.617188 C 5.582031 2.714844 5.496094 2.816406 5.414062 2.921875 C 5.570312 2.46875 5.816406 2.050781 6.140625 1.703125 C 6.742188 1.054688 7.570312 0.699219 8.472656 0.699219 C 9.367188 0.699219 10.179688 1.054688 10.761719 1.699219 C 11.035156 2.003906 11.246094 2.355469 11.394531 2.742188 C 11.359375 2.699219 11.328125 2.660156 11.292969 2.621094 Z M 11.292969 2.621094 "/>
</g>
</g>
</svg>
