<?xml version="1.0" encoding="UTF-8" standalone="no"?>
<!-- Created with Inkscape (http://www.inkscape.org/) -->

<svg
   xmlns:dc="http://purl.org/dc/elements/1.1/"
   xmlns:cc="http://creativecommons.org/ns#"
   xmlns:rdf="http://www.w3.org/1999/02/22-rdf-syntax-ns#"
   xmlns:svg="http://www.w3.org/2000/svg"
   xmlns="http://www.w3.org/2000/svg"
   xmlns:xlink="http://www.w3.org/1999/xlink"
   xmlns:sodipodi="http://sodipodi.sourceforge.net/DTD/sodipodi-0.dtd"
   xmlns:inkscape="http://www.inkscape.org/namespaces/inkscape"
   width="30px"
   height="30px"
   version="1.1"
   id="svg8"
   inkscape:version="0.92.4 5da689c313, 2019-01-14"
   sodipodi:docname="container.svg">
  <defs
     id="defs2" />
  <sodipodi:namedview
     id="base"
     pagecolor="#ffffff"
     bordercolor="#666666"
     borderopacity="1.0"
     inkscape:pageopacity="0.0"
     inkscape:pageshadow="2"
     inkscape:zoom="13.049334"
     inkscape:cx="18.679046"
     inkscape:cy="12.165829"
     inkscape:document-units="px"
     inkscape:current-layer="layer1"
     showgrid="false"
     inkscape:snap-page="false"
     units="px"
     inkscape:window-width="1884"
     inkscape:window-height="1061"
     inkscape:window-x="0"
     inkscape:window-y="0"
     inkscape:window-maximized="1"
     fit-margin-top="0"
     fit-margin-left="0"
     fit-margin-right="0"
     fit-margin-bottom="0" />
  <metadata
     id="metadata5">
    <rdf:RDF>
      <cc:Work
         rdf:about="">
        <dc:format>image/svg+xml</dc:format>
        <dc:type
           rdf:resource="http://purl.org/dc/dcmitype/StillImage" />
        <dc:title></dc:title>
      </cc:Work>
    </rdf:RDF>
  </metadata>
    <circle
       style="color:#000000;clip-rule:nonzero;display:inline;overflow:visible;visibility:visible;opacity:1;isolation:auto;mix-blend-mode:normal;color-interpolation:sRGB;color-interpolation-filters:linearRGB;solid-color:#000000;solid-opacity:1;vector-effect:none;fill:#ffffff;fill-opacity:1;fill-rule:evenodd;stroke:#808080;stroke-width:1;stroke-linecap:butt;stroke-linejoin:miter;stroke-miterlimit:4;stroke-dasharray:none;stroke-dashoffset:0;stroke-opacity:1;marker:none;color-rendering:auto;image-rendering:auto;shape-rendering:auto;text-rendering:auto;enable-background:accumulate"
       id="path815"
       cx="15"
       cy="15"
       r="14.5" />
<g transform="translate(7,7)"><g id="surface1">
<path style=" stroke:none;fill-rule:nonzero;fill:rgb(30%,30%,30%);fill-opacity:1;" d="M 14.945312 6.785156 C 14.597656 5.609375 12.132812 4.671875 8.996094 4.507812 C 6.273438 4.363281 1.605469 4.945312 1.0625 6.785156 C 1.355469 6.710938 14.503906 6.671875 14.945312 6.785156 Z M 14.945312 6.785156 "/>
<path style=" stroke:none;fill-rule:nonzero;fill:rgb(30%,30%,30%);fill-opacity:1;" d="M 1.496094 10.21875 C 1.507812 10.679688 1.914062 11.050781 2.40625 11.050781 L 13.601562 11.050781 C 14.097656 11.050781 14.5 10.679688 14.511719 10.21875 Z M 1.496094 10.21875 "/>
<path style=" stroke:none;fill-rule:nonzero;fill:rgb(30%,30%,30%);fill-opacity:1;" d="M 2.824219 11.355469 C 2.769531 11.894531 3.222656 12.335938 3.777344 12.335938 L 12.230469 12.335938 C 12.78125 12.335938 13.238281 11.894531 13.183594 11.355469 Z M 2.824219 11.355469 "/>
<path style=" stroke:none;fill-rule:nonzero;fill:rgb(30%,30%,30%);fill-opacity:1;" d="M 8.804688 4.261719 C 9.148438 3.007812 9.472656 1.730469 9.472656 1.371094 C 9.472656 -0.457031 6.535156 -0.460938 6.535156 1.371094 C 6.535156 1.730469 6.859375 3.007812 7.203125 4.261719 C 7.734375 4.242188 8.261719 4.238281 8.804688 4.261719 Z M 8.804688 4.261719 "/>
<path style=" stroke:none;fill-rule:nonzero;fill:rgb(30%,30%,30%);fill-opacity:1;" d="M 14.503906 7.082031 C 0.457031 7.082031 1.277344 7.011719 0.792969 7.257812 C -0.578125 7.949219 -0.0625 9.914062 1.523438 9.914062 C 15.429688 9.914062 14.546875 9.921875 14.730469 9.894531 C 16.554688 9.632812 16.347656 7.082031 14.503906 7.082031 Z M 14.503906 7.082031 "/>
<path style=" stroke:none;fill-rule:nonzero;fill:rgb(30%,30%,30%);fill-opacity:1;" d="M 8.007812 16 C 8.019531 15.941406 8.023438 15.941406 8.207031 14.953125 L 7.808594 14.953125 C 7.949219 15.707031 7.953125 15.707031 8.007812 16 Z M 8.007812 16 "/>
<path style=" stroke:none;fill-rule:nonzero;fill:rgb(30%,30%,30%);fill-opacity:1;" d="M 5.863281 13.757812 C 5.78125 14.246094 6.1875 14.6875 6.710938 14.6875 L 9.296875 14.6875 C 9.824219 14.6875 10.226562 14.242188 10.148438 13.757812 Z M 5.863281 13.757812 "/>
<path style=" stroke:none;fill-rule:nonzero;fill:rgb(30%,30%,30%);fill-opacity:1;" d="M 4.515625 12.640625 C 4.460938 13.066406 4.824219 13.457031 5.292969 13.457031 L 10.714844 13.457031 C 11.1875 13.457031 11.546875 13.066406 11.492188 12.640625 Z M 4.515625 12.640625 "/>
</g>
</g>
</svg>
