<?xml version="1.0" encoding="UTF-8" standalone="no"?>
<!-- Created with Inkscape (http://www.inkscape.org/) -->

<svg
   xmlns:dc="http://purl.org/dc/elements/1.1/"
   xmlns:cc="http://creativecommons.org/ns#"
   xmlns:rdf="http://www.w3.org/1999/02/22-rdf-syntax-ns#"
   xmlns:svg="http://www.w3.org/2000/svg"
   xmlns="http://www.w3.org/2000/svg"
   xmlns:xlink="http://www.w3.org/1999/xlink"
   xmlns:sodipodi="http://sodipodi.sourceforge.net/DTD/sodipodi-0.dtd"
   xmlns:inkscape="http://www.inkscape.org/namespaces/inkscape"
   width="30px"
   height="30px"
   version="1.1"
   id="svg8"
   inkscape:version="0.92.4 5da689c313, 2019-01-14"
   sodipodi:docname="container.svg">
  <defs
     id="defs2" />
  <sodipodi:namedview
     id="base"
     pagecolor="#ffffff"
     bordercolor="#666666"
     borderopacity="1.0"
     inkscape:pageopacity="0.0"
     inkscape:pageshadow="2"
     inkscape:zoom="13.049334"
     inkscape:cx="18.679046"
     inkscape:cy="12.165829"
     inkscape:document-units="px"
     inkscape:current-layer="layer1"
     showgrid="false"
     inkscape:snap-page="false"
     units="px"
     inkscape:window-width="1884"
     inkscape:window-height="1061"
     inkscape:window-x="0"
     inkscape:window-y="0"
     inkscape:window-maximized="1"
     fit-margin-top="0"
     fit-margin-left="0"
     fit-margin-right="0"
     fit-margin-bottom="0" />
  <metadata
     id="metadata5">
    <rdf:RDF>
      <cc:Work
         rdf:about="">
        <dc:format>image/svg+xml</dc:format>
        <dc:type
           rdf:resource="http://purl.org/dc/dcmitype/StillImage" />
        <dc:title></dc:title>
      </cc:Work>
    </rdf:RDF>
  </metadata>
    <circle
       style="color:#000000;clip-rule:nonzero;display:inline;overflow:visible;visibility:visible;opacity:1;isolation:auto;mix-blend-mode:normal;color-interpolation:sRGB;color-interpolation-filters:linearRGB;solid-color:#000000;solid-opacity:1;vector-effect:none;fill:#ffffff;fill-opacity:1;fill-rule:evenodd;stroke:#808080;stroke-width:1;stroke-linecap:butt;stroke-linejoin:miter;stroke-miterlimit:4;stroke-dasharray:none;stroke-dashoffset:0;stroke-opacity:1;marker:none;color-rendering:auto;image-rendering:auto;shape-rendering:auto;text-rendering:auto;enable-background:accumulate"
       id="path815"
       cx="15"
       cy="15"
       r="14.5" />
<g transform="translate(7,9)"><g id="surface1">
<path style=" stroke:none;fill-rule:nonzero;fill:rgb(30%,30%,30%);fill-opacity:1;" d="M 3.582031 11.542969 C 3.582031 11.84375 3.433594 12 3.144531 12 L 2.261719 12 C 1.972656 12 1.824219 11.84375 1.824219 11.542969 L 1.824219 10.167969 L 0.597656 7.886719 C 0.234375 7.539062 0 7.039062 0 6.503906 C 0 5.441406 0.773438 4.582031 1.792969 4.582031 C 2.808594 4.582031 3.582031 5.441406 3.582031 6.503906 Z M 11.496094 8.335938 L 11.496094 11.082031 L 4.460938 11.082031 L 4.460938 7.921875 C 5.339844 6.925781 6.703125 6.414062 8.023438 6.414062 C 9.339844 6.414062 10.546875 6.925781 11.53125 7.855469 Z M 11.496094 6.503906 L 11.496094 7.210938 L 11.390625 7.074219 C 10.433594 6.175781 9.226562 5.679688 7.957031 5.679688 C 6.683594 5.679688 5.511719 6.175781 4.554688 7.074219 L 4.460938 7.210938 L 4.460938 6.503906 C 4.460938 5.476562 3.835938 4.53125 2.933594 4.097656 L 2.839844 4.066406 L 2.851562 3.988281 C 3.523438 1.640625 5.632812 0 7.984375 0 C 10.335938 0 12.445312 1.640625 13.117188 3.988281 L 13.136719 4.066406 L 13.023438 4.097656 C 12.121094 4.53125 11.496094 5.476562 11.496094 6.503906 Z M 15.394531 7.910156 L 14.171875 10.210938 L 14.132812 10.742188 L 14.132812 11.542969 C 14.132812 11.84375 13.984375 12 13.691406 12 L 12.8125 12 C 12.523438 12 12.375 11.84375 12.375 11.542969 L 12.375 6.503906 C 12.375 5.441406 13.160156 4.582031 14.175781 4.582031 C 15.195312 4.582031 16 5.441406 16 6.503906 C 16 7.039062 15.777344 7.539062 15.394531 7.910156 Z M 15.394531 7.910156 "/>
</g>
</g>
</svg>
