<?xml version="1.0" encoding="UTF-8"?>
<svg xmlns="http://www.w3.org/2000/svg" xmlns:xlink="http://www.w3.org/1999/xlink" width="11px" height="10px" viewBox="0 0 11 10" version="1.1">
<g id="surface1">
<path style=" stroke:none;fill-rule:nonzero;fill:rgb(30%,30%,30%);fill-opacity:1;" d="M 5.191406 3.09375 C 5.175781 3.09375 5.164062 3.089844 5.148438 3.085938 C 4.589844 2.996094 4.023438 3 3.46875 3.089844 C 3.460938 3.089844 3.453125 3.09375 3.445312 3.09375 C 1.480469 3.429688 0 4.882812 0 6.625 C 0 8.164062 1.15625 9.480469 2.785156 9.996094 L 5.851562 9.996094 C 7.480469 9.480469 8.636719 8.164062 8.636719 6.625 C 8.636719 4.882812 7.15625 3.433594 5.191406 3.09375 Z M 5.191406 3.09375 "/>
<path style=" stroke:none;fill-rule:nonzero;fill:rgb(30%,30%,30%);fill-opacity:1;" d="M 8.878906 0.00390625 C 7.808594 0.00390625 6.921875 0.523438 6.777344 1.195312 L 5.164062 1.195312 L 5.164062 0.117188 L 3.46875 0.117188 L 3.46875 1.195312 L 2.914062 1.195312 L 2.914062 1.574219 L 3.46875 1.574219 C 3.46875 1.574219 3.460938 2.695312 3.46875 2.710938 C 3.75 2.664062 4.035156 2.640625 4.316406 2.640625 C 4.597656 2.640625 4.878906 2.664062 5.15625 2.707031 L 5.15625 1.574219 L 6.777344 1.574219 C 6.921875 2.246094 7.808594 2.761719 8.878906 2.761719 C 10.050781 2.761719 11 2.144531 11 1.382812 C 11 0.621094 10.050781 0.00390625 8.878906 0.00390625 Z M 8.878906 0.00390625 "/>
</g>
</svg>
