<?xml version="1.0" encoding="UTF-8"?>
<svg xmlns="http://www.w3.org/2000/svg" xmlns:xlink="http://www.w3.org/1999/xlink" width="11px" height="9px" viewBox="0 0 11 9" version="1.1">
<g id="surface1">
<path style=" stroke:none;fill-rule:nonzero;fill:rgb(30%,30%,30%);fill-opacity:1;" d="M 2.378906 6.152344 C 3.691406 6.152344 4.753906 6.011719 4.753906 5.835938 L 4.753906 4.808594 L 4.730469 4.808594 C 4.566406 4.65625 3.574219 4.539062 2.378906 4.539062 C 1.179688 4.539062 0.1875 4.65625 0.0234375 4.808594 L 0 4.808594 L 0 4.84375 C 0 4.851562 0 4.855469 0 4.863281 L 0 5.847656 C 0.0351562 6.015625 1.085938 6.152344 2.378906 6.152344 Z M 2.378906 6.152344 "/>
<path style=" stroke:none;fill-rule:nonzero;fill:rgb(30%,30%,30%);fill-opacity:1;" d="M 4.753906 6.183594 L 4.753906 8.691406 C 4.722656 8.863281 3.671875 9 2.378906 9 C 1.066406 9 0 8.859375 0 8.683594 L 0 6.183594 C 0.0234375 6.355469 1.078125 6.492188 2.378906 6.492188 C 3.679688 6.492188 4.734375 6.355469 4.753906 6.183594 Z M 2.378906 7.183594 C 1.929688 7.183594 1.511719 7.164062 1.15625 7.136719 L 1.15625 7.980469 C 1.511719 8.011719 1.929688 8.027344 2.378906 8.027344 C 2.804688 8.027344 3.203125 8.011719 3.550781 7.988281 L 3.550781 7.140625 C 3.203125 7.167969 2.804688 7.183594 2.378906 7.183594 Z M 2.378906 7.183594 "/>
<path style=" stroke:none;fill-rule:nonzero;fill:rgb(30%,30%,30%);fill-opacity:1;" d="M 6.503906 7.472656 C 5.773438 7.472656 5.175781 7.398438 5.164062 7.300781 L 5.164062 8.707031 C 5.164062 8.804688 5.765625 8.882812 6.503906 8.882812 C 7.230469 8.882812 7.820312 8.804688 7.839844 8.710938 L 7.839844 7.300781 C 7.828125 7.398438 7.234375 7.472656 6.503906 7.472656 Z M 6.503906 7.472656 "/>
<path style=" stroke:none;fill-rule:nonzero;fill:rgb(30%,30%,30%);fill-opacity:1;" d="M 8.429688 0 L 4.320312 0 L 4.429688 0.910156 L 8.355469 0.910156 Z M 8.429688 0 "/>
<path style=" stroke:none;fill-rule:nonzero;fill:rgb(30%,30%,30%);fill-opacity:1;" d="M 8.773438 4.238281 L 9.894531 4.238281 L 9.894531 8.378906 C 9.894531 8.648438 9.683594 8.867188 9.421875 8.867188 L 9.246094 8.867188 C 8.984375 8.867188 8.773438 8.648438 8.773438 8.378906 Z M 8.773438 4.238281 "/>
<path style=" stroke:none;fill-rule:nonzero;fill:rgb(30%,30%,30%);fill-opacity:1;" d="M 8.273438 1.933594 L 8.328125 1.214844 L 4.464844 1.214844 L 5.164062 7.039062 C 5.175781 7.132812 5.773438 7.210938 6.503906 7.210938 C 7.234375 7.210938 7.828125 7.132812 7.839844 7.039062 L 8.125 3.550781 L 7.445312 2.691406 C 7.628906 2.433594 8.003906 2.085938 8.273438 1.933594 Z M 7.328125 4.554688 L 5.597656 4.554688 L 5.597656 3.277344 L 7.328125 3.277344 Z M 7.328125 4.554688 "/>
<path style=" stroke:none;fill-rule:nonzero;fill:rgb(30%,30%,30%);fill-opacity:1;" d="M 9.351562 1.828125 C 9.007812 1.828125 8.671875 1.917969 8.371094 2.089844 C 8.101562 2.242188 7.867188 2.457031 7.6875 2.714844 L 8.261719 3.433594 L 8.773438 4.078125 L 9.128906 4.074219 L 8.972656 2.953125 L 9.132812 2.9375 L 9.289062 4.070312 L 9.355469 4.070312 L 9.347656 2.5 L 9.527344 2.5 L 9.539062 4.066406 L 9.914062 4.058594 L 11 2.695312 C 10.625 2.167969 10.023438 1.828125 9.351562 1.828125 Z M 9.351562 1.828125 "/>
</g>
</svg>
