<?xml version="1.0" encoding="UTF-8" standalone="no"?>
<!-- Created with Inkscape (http://www.inkscape.org/) -->

<svg
   xmlns:dc="http://purl.org/dc/elements/1.1/"
   xmlns:cc="http://creativecommons.org/ns#"
   xmlns:rdf="http://www.w3.org/1999/02/22-rdf-syntax-ns#"
   xmlns:svg="http://www.w3.org/2000/svg"
   xmlns="http://www.w3.org/2000/svg"
   xmlns:xlink="http://www.w3.org/1999/xlink"
   xmlns:sodipodi="http://sodipodi.sourceforge.net/DTD/sodipodi-0.dtd"
   xmlns:inkscape="http://www.inkscape.org/namespaces/inkscape"
   width="30px"
   height="30px"
   version="1.1"
   id="svg8"
   inkscape:version="0.92.4 5da689c313, 2019-01-14"
   sodipodi:docname="container.svg">
  <defs
     id="defs2" />
  <sodipodi:namedview
     id="base"
     pagecolor="#ffffff"
     bordercolor="#666666"
     borderopacity="1.0"
     inkscape:pageopacity="0.0"
     inkscape:pageshadow="2"
     inkscape:zoom="13.049334"
     inkscape:cx="18.679046"
     inkscape:cy="12.165829"
     inkscape:document-units="px"
     inkscape:current-layer="layer1"
     showgrid="false"
     inkscape:snap-page="false"
     units="px"
     inkscape:window-width="1884"
     inkscape:window-height="1061"
     inkscape:window-x="0"
     inkscape:window-y="0"
     inkscape:window-maximized="1"
     fit-margin-top="0"
     fit-margin-left="0"
     fit-margin-right="0"
     fit-margin-bottom="0" />
  <metadata
     id="metadata5">
    <rdf:RDF>
      <cc:Work
         rdf:about="">
        <dc:format>image/svg+xml</dc:format>
        <dc:type
           rdf:resource="http://purl.org/dc/dcmitype/StillImage" />
        <dc:title></dc:title>
      </cc:Work>
    </rdf:RDF>
  </metadata>
    <circle
       style="color:#000000;clip-rule:nonzero;display:inline;overflow:visible;visibility:visible;opacity:1;isolation:auto;mix-blend-mode:normal;color-interpolation:sRGB;color-interpolation-filters:linearRGB;solid-color:#000000;solid-opacity:1;vector-effect:none;fill:#ffffff;fill-opacity:1;fill-rule:evenodd;stroke:#808080;stroke-width:1;stroke-linecap:butt;stroke-linejoin:miter;stroke-miterlimit:4;stroke-dasharray:none;stroke-dashoffset:0;stroke-opacity:1;marker:none;color-rendering:auto;image-rendering:auto;shape-rendering:auto;text-rendering:auto;enable-background:accumulate"
       id="path815"
       cx="15"
       cy="15"
       r="14.5" />
<g transform="translate(8,7)"><g id="surface1">
<path style=" stroke:none;fill-rule:nonzero;fill:rgb(30%,30%,30%);fill-opacity:1;" d="M 12.5 4.394531 L 9.761719 4.394531 C 9.523438 1.578125 8.371094 0.03125 6.449219 0.00390625 C 5.765625 -0.00390625 5.164062 0.230469 4.660156 0.699219 C 3.867188 1.4375 3.367188 2.726562 3.214844 4.394531 L 0.476562 4.394531 L 0 15.546875 C -0.00390625 15.664062 0.0429688 15.777344 0.128906 15.863281 C 0.214844 15.949219 0.332031 15.996094 0.457031 15.996094 L 12.542969 15.972656 C 12.667969 15.972656 12.785156 15.921875 12.871094 15.835938 C 12.960938 15.753906 13.003906 15.636719 13 15.519531 Z M 5.121094 1.144531 C 5.496094 0.796875 5.941406 0.625 6.441406 0.628906 C 7.550781 0.644531 8.847656 1.34375 9.105469 4.394531 L 3.878906 4.394531 C 4.023438 2.914062 4.460938 1.761719 5.121094 1.144531 Z M 3.464844 6.34375 C 3.101562 6.320312 2.800781 6.066406 2.730469 5.726562 C 2.664062 5.382812 2.847656 5.042969 3.179688 4.894531 C 3.171875 5.101562 3.164062 5.3125 3.164062 5.527344 C 3.164062 5.6875 3.289062 5.828125 3.457031 5.847656 C 3.550781 5.855469 3.644531 5.828125 3.714844 5.769531 C 3.785156 5.710938 3.824219 5.625 3.824219 5.535156 C 3.824219 5.3125 3.832031 5.09375 3.84375 4.882812 C 4.203125 5.03125 4.402344 5.402344 4.308594 5.765625 C 4.214844 6.125 3.859375 6.371094 3.464844 6.34375 Z M 9.40625 6.34375 C 9.039062 6.320312 8.738281 6.0625 8.671875 5.71875 C 8.605469 5.375 8.796875 5.03125 9.136719 4.890625 C 9.144531 5.09375 9.148438 5.304688 9.148438 5.527344 C 9.148438 5.6875 9.273438 5.828125 9.441406 5.847656 C 9.535156 5.855469 9.628906 5.828125 9.699219 5.769531 C 9.769531 5.710938 9.808594 5.625 9.808594 5.535156 C 9.808594 5.3125 9.804688 5.097656 9.796875 4.890625 C 10.152344 5.039062 10.34375 5.410156 10.246094 5.769531 C 10.152344 6.128906 9.796875 6.371094 9.40625 6.34375 Z M 9.40625 6.34375 "/>
</g>
</g>
</svg>
