<?xml version="1.0" encoding="UTF-8" standalone="no"?>
<!-- Created with Inkscape (http://www.inkscape.org/) -->

<svg
   xmlns:dc="http://purl.org/dc/elements/1.1/"
   xmlns:cc="http://creativecommons.org/ns#"
   xmlns:rdf="http://www.w3.org/1999/02/22-rdf-syntax-ns#"
   xmlns:svg="http://www.w3.org/2000/svg"
   xmlns="http://www.w3.org/2000/svg"
   xmlns:xlink="http://www.w3.org/1999/xlink"
   xmlns:sodipodi="http://sodipodi.sourceforge.net/DTD/sodipodi-0.dtd"
   xmlns:inkscape="http://www.inkscape.org/namespaces/inkscape"
   width="30px"
   height="30px"
   version="1.1"
   id="svg8"
   inkscape:version="0.92.4 5da689c313, 2019-01-14"
   sodipodi:docname="container.svg">
  <defs
     id="defs2" />
  <sodipodi:namedview
     id="base"
     pagecolor="#ffffff"
     bordercolor="#666666"
     borderopacity="1.0"
     inkscape:pageopacity="0.0"
     inkscape:pageshadow="2"
     inkscape:zoom="13.049334"
     inkscape:cx="18.679046"
     inkscape:cy="12.165829"
     inkscape:document-units="px"
     inkscape:current-layer="layer1"
     showgrid="false"
     inkscape:snap-page="false"
     units="px"
     inkscape:window-width="1884"
     inkscape:window-height="1061"
     inkscape:window-x="0"
     inkscape:window-y="0"
     inkscape:window-maximized="1"
     fit-margin-top="0"
     fit-margin-left="0"
     fit-margin-right="0"
     fit-margin-bottom="0" />
  <metadata
     id="metadata5">
    <rdf:RDF>
      <cc:Work
         rdf:about="">
        <dc:format>image/svg+xml</dc:format>
        <dc:type
           rdf:resource="http://purl.org/dc/dcmitype/StillImage" />
        <dc:title></dc:title>
      </cc:Work>
    </rdf:RDF>
  </metadata>
    <circle
       style="color:#000000;clip-rule:nonzero;display:inline;overflow:visible;visibility:visible;opacity:1;isolation:auto;mix-blend-mode:normal;color-interpolation:sRGB;color-interpolation-filters:linearRGB;solid-color:#000000;solid-opacity:1;vector-effect:none;fill:#ffffff;fill-opacity:1;fill-rule:evenodd;stroke:#808080;stroke-width:1;stroke-linecap:butt;stroke-linejoin:miter;stroke-miterlimit:4;stroke-dasharray:none;stroke-dashoffset:0;stroke-opacity:1;marker:none;color-rendering:auto;image-rendering:auto;shape-rendering:auto;text-rendering:auto;enable-background:accumulate"
       id="path815"
       cx="15"
       cy="15"
       r="14.5" />
<g transform="translate(6,8)"><g id="surface1">
<path style=" stroke:none;fill-rule:nonzero;fill:rgb(30%,30%,30%);fill-opacity:1;" d="M 3.675781 9.570312 C 5.703125 9.570312 7.347656 9.351562 7.347656 9.082031 L 7.347656 7.480469 L 7.3125 7.480469 C 7.058594 7.242188 5.527344 7.058594 3.675781 7.058594 C 1.824219 7.058594 0.292969 7.242188 0.0390625 7.480469 L 0 7.480469 L 0 7.535156 C 0 7.542969 0 7.554688 0 7.5625 L 0 9.09375 C 0.0585938 9.359375 1.679688 9.570312 3.675781 9.570312 Z M 3.675781 9.570312 "/>
<path style=" stroke:none;fill-rule:nonzero;fill:rgb(30%,30%,30%);fill-opacity:1;" d="M 7.347656 9.621094 L 7.347656 13.523438 C 7.296875 13.785156 5.671875 14 3.675781 14 C 1.644531 14 0 13.777344 0 13.507812 L 0 9.621094 C 0.0351562 9.886719 1.667969 10.101562 3.675781 10.101562 C 5.683594 10.101562 7.316406 9.886719 7.347656 9.621094 Z M 3.675781 11.171875 C 2.984375 11.171875 2.335938 11.144531 1.785156 11.101562 L 1.785156 12.417969 C 2.335938 12.460938 2.984375 12.488281 3.675781 12.488281 C 4.332031 12.488281 4.949219 12.464844 5.484375 12.421875 L 5.484375 11.109375 C 4.949219 11.148438 4.332031 11.171875 3.675781 11.171875 Z M 3.675781 11.171875 "/>
<path style=" stroke:none;fill-rule:nonzero;fill:rgb(30%,30%,30%);fill-opacity:1;" d="M 10.050781 11.625 C 8.917969 11.625 8 11.503906 7.984375 11.355469 L 7.984375 13.542969 L 7.980469 13.542969 C 7.980469 13.695312 8.90625 13.816406 10.050781 13.816406 C 11.171875 13.816406 12.085938 13.699219 12.117188 13.550781 L 12.117188 11.355469 C 12.097656 11.503906 11.179688 11.625 10.050781 11.625 Z M 10.050781 11.625 "/>
<path style=" stroke:none;fill-rule:nonzero;fill:rgb(30%,30%,30%);fill-opacity:1;" d="M 13.027344 0 L 6.675781 0 L 6.847656 1.417969 L 12.910156 1.417969 Z M 13.027344 0 "/>
<path style=" stroke:none;fill-rule:nonzero;fill:rgb(30%,30%,30%);fill-opacity:1;" d="M 13.558594 6.59375 L 15.292969 6.59375 L 15.292969 13.035156 C 15.292969 13.453125 14.964844 13.792969 14.5625 13.792969 L 14.289062 13.792969 C 13.886719 13.792969 13.558594 13.453125 13.558594 13.035156 Z M 13.558594 6.59375 "/>
<path style=" stroke:none;fill-rule:nonzero;fill:rgb(30%,30%,30%);fill-opacity:1;" d="M 12.785156 3.007812 L 12.871094 1.890625 L 6.902344 1.890625 L 7.984375 10.945312 C 8 11.097656 8.917969 11.21875 10.050781 11.21875 C 11.179688 11.21875 12.097656 11.097656 12.117188 10.945312 L 12.554688 5.527344 L 11.507812 4.1875 C 11.789062 3.785156 12.367188 3.246094 12.785156 3.007812 Z M 11.324219 7.082031 L 8.652344 7.082031 L 8.652344 5.101562 L 11.324219 5.101562 Z M 11.324219 7.082031 "/>
<path style=" stroke:none;fill-rule:nonzero;fill:rgb(30%,30%,30%);fill-opacity:1;" d="M 14.449219 2.847656 C 13.921875 2.84375 13.402344 2.984375 12.941406 3.246094 C 12.523438 3.488281 12.160156 3.820312 11.882812 4.21875 L 12.765625 5.339844 L 13.558594 6.34375 L 14.105469 6.335938 L 13.867188 4.597656 L 14.117188 4.566406 L 14.359375 6.332031 L 14.460938 6.328125 L 14.445312 3.890625 L 14.726562 3.886719 L 14.742188 6.324219 L 15.320312 6.3125 L 17 4.195312 C 16.417969 3.375 15.492188 2.847656 14.449219 2.847656 Z M 14.449219 2.847656 "/>
</g>
</g>
</svg>
