<?xml version="1.0" encoding="UTF-8"?>
<svg xmlns="http://www.w3.org/2000/svg" xmlns:xlink="http://www.w3.org/1999/xlink" width="11px" height="10px" viewBox="0 0 11 10" version="1.1">
<g id="surface1">
<path style=" stroke:none;fill-rule:nonzero;fill:rgb(30%,30%,30%);fill-opacity:1;" d="M 10.9375 8.292969 C 10.9375 8.292969 9.332031 3.507812 8.667969 3.507812 C 8.667969 3.507812 7.921875 3.644531 8.191406 4.558594 C 8.277344 4.65625 8.328125 4.785156 8.328125 4.921875 C 8.328125 5.203125 8.117188 5.433594 7.859375 5.433594 C 7.601562 5.433594 7.390625 5.203125 7.390625 4.921875 C 7.390625 4.875 7.394531 4.832031 7.40625 4.789062 C 7.367188 4.375 7.21875 3.472656 6.585938 3.507812 C 6.585938 3.507812 6.066406 3.507812 5.519531 3.507812 C 5.511719 3.507812 5.507812 3.507812 5.5 3.507812 C 5.492188 3.507812 5.488281 3.507812 5.480469 3.507812 C 4.933594 3.507812 4.414062 3.507812 4.414062 3.507812 C 3.78125 3.472656 3.632812 4.375 3.59375 4.789062 C 3.605469 4.832031 3.609375 4.875 3.609375 4.921875 C 3.609375 5.203125 3.398438 5.433594 3.140625 5.433594 C 2.882812 5.433594 2.671875 5.203125 2.671875 4.921875 C 2.671875 4.785156 2.722656 4.65625 2.808594 4.558594 C 3.078125 3.644531 2.332031 3.507812 2.332031 3.507812 C 1.667969 3.507812 0.0625 8.292969 0.0625 8.292969 C -0.1875 9.109375 0.347656 9.972656 1.132812 9.996094 C 1.144531 9.996094 1.15625 9.996094 1.167969 9.996094 L 9.832031 9.996094 C 9.84375 9.996094 9.855469 9.996094 9.867188 9.996094 C 10.652344 9.972656 11.1875 9.109375 10.9375 8.292969 Z M 10.9375 8.292969 "/>
<path style=" stroke:none;fill-rule:nonzero;fill:rgb(30%,30%,30%);fill-opacity:1;" d="M 8 4.625 L 8 3.707031 C 8 3.589844 7.992188 3.476562 7.980469 3.359375 L 7.980469 2.777344 C 7.980469 2.027344 7.734375 1.328125 7.289062 0.820312 C 6.828125 0.292969 6.1875 0.00390625 5.480469 0.00390625 C 4.777344 0.00390625 4.125 0.292969 3.652344 0.816406 C 3.1875 1.332031 2.929688 2.027344 2.929688 2.777344 C 2.929688 2.804688 2.929688 2.871094 2.929688 2.953125 C 2.921875 3.492188 2.921875 3.796875 2.933594 3.886719 C 2.933594 3.902344 2.9375 4.378906 2.945312 4.648438 C 2.847656 4.746094 2.816406 4.894531 2.867188 5.027344 C 2.917969 5.160156 3.042969 5.242188 3.175781 5.238281 C 3.3125 5.238281 3.429688 5.144531 3.476562 5.011719 C 3.523438 4.878906 3.484375 4.730469 3.382812 4.636719 C 3.382812 4.4375 3.386719 4.054688 3.386719 3.886719 C 3.390625 3.800781 3.390625 3.734375 3.390625 3.707031 C 3.390625 3.074219 3.601562 2.492188 3.988281 2.0625 C 4.378906 1.632812 4.914062 1.394531 5.5 1.394531 C 6.078125 1.394531 6.605469 1.632812 6.980469 2.0625 C 7.289062 2.414062 7.484375 2.875 7.539062 3.40625 L 7.539062 3.875 C 7.539062 3.882812 7.550781 4.417969 7.554688 4.664062 C 7.464844 4.769531 7.441406 4.917969 7.503906 5.046875 C 7.5625 5.171875 7.6875 5.25 7.820312 5.238281 C 7.957031 5.226562 8.070312 5.128906 8.109375 4.996094 C 8.148438 4.859375 8.101562 4.714844 8 4.625 Z M 7.304688 1.746094 C 6.847656 1.21875 6.203125 0.929688 5.5 0.929688 C 4.792969 0.929688 4.144531 1.21875 3.671875 1.746094 C 3.613281 1.808594 3.554688 1.875 3.503906 1.949219 C 3.605469 1.644531 3.761719 1.367188 3.972656 1.136719 C 4.363281 0.703125 4.898438 0.464844 5.480469 0.464844 C 6.0625 0.464844 6.585938 0.703125 6.964844 1.132812 C 7.140625 1.335938 7.277344 1.570312 7.371094 1.828125 C 7.351562 1.800781 7.328125 1.773438 7.304688 1.746094 Z M 7.304688 1.746094 "/>
</g>
</svg>
