<?xml version="1.0" encoding="UTF-8" standalone="no"?>
<!-- Created with Inkscape (http://www.inkscape.org/) -->

<svg
   xmlns:dc="http://purl.org/dc/elements/1.1/"
   xmlns:cc="http://creativecommons.org/ns#"
   xmlns:rdf="http://www.w3.org/1999/02/22-rdf-syntax-ns#"
   xmlns:svg="http://www.w3.org/2000/svg"
   xmlns="http://www.w3.org/2000/svg"
   xmlns:xlink="http://www.w3.org/1999/xlink"
   xmlns:sodipodi="http://sodipodi.sourceforge.net/DTD/sodipodi-0.dtd"
   xmlns:inkscape="http://www.inkscape.org/namespaces/inkscape"
   width="30px"
   height="30px"
   version="1.1"
   id="svg8"
   inkscape:version="0.92.4 5da689c313, 2019-01-14"
   sodipodi:docname="container.svg">
  <defs
     id="defs2" />
  <sodipodi:namedview
     id="base"
     pagecolor="#ffffff"
     bordercolor="#666666"
     borderopacity="1.0"
     inkscape:pageopacity="0.0"
     inkscape:pageshadow="2"
     inkscape:zoom="13.049334"
     inkscape:cx="18.679046"
     inkscape:cy="12.165829"
     inkscape:document-units="px"
     inkscape:current-layer="layer1"
     showgrid="false"
     inkscape:snap-page="false"
     units="px"
     inkscape:window-width="1884"
     inkscape:window-height="1061"
     inkscape:window-x="0"
     inkscape:window-y="0"
     inkscape:window-maximized="1"
     fit-margin-top="0"
     fit-margin-left="0"
     fit-margin-right="0"
     fit-margin-bottom="0" />
  <metadata
     id="metadata5">
    <rdf:RDF>
      <cc:Work
         rdf:about="">
        <dc:format>image/svg+xml</dc:format>
        <dc:type
           rdf:resource="http://purl.org/dc/dcmitype/StillImage" />
        <dc:title></dc:title>
      </cc:Work>
    </rdf:RDF>
  </metadata>
    <circle
       style="color:#000000;clip-rule:nonzero;display:inline;overflow:visible;visibility:visible;opacity:1;isolation:auto;mix-blend-mode:normal;color-interpolation:sRGB;color-interpolation-filters:linearRGB;solid-color:#000000;solid-opacity:1;vector-effect:none;fill:#ffffff;fill-opacity:1;fill-rule:evenodd;stroke:#808080;stroke-width:1;stroke-linecap:butt;stroke-linejoin:miter;stroke-miterlimit:4;stroke-dasharray:none;stroke-dashoffset:0;stroke-opacity:1;marker:none;color-rendering:auto;image-rendering:auto;shape-rendering:auto;text-rendering:auto;enable-background:accumulate"
       id="path815"
       cx="15"
       cy="15"
       r="14.5" />
<g transform="translate(7,10)"><g id="surface1">
<path style=" stroke:none;fill-rule:nonzero;fill:rgb(30%,30%,30%);fill-opacity:1;" d="M 16 8.222656 C 16 8.652344 15.566406 9 15.03125 9 L 13.523438 9 C 10.972656 9 12.09375 5.996094 8.632812 5.996094 L 7.367188 5.996094 C 3.929688 5.996094 5.003906 9 2.476562 9 L 0.96875 9 C 0.433594 9 0 8.652344 0 8.222656 L 1.089844 2.699219 C 1.457031 0.765625 2.496094 0 4.359375 0 C 5.796875 0 5.742188 1.050781 8.105469 1.050781 C 10.21875 1.050781 10.203125 0 11.640625 0 C 13.503906 0 14.542969 0.765625 14.910156 2.699219 Z M 12.105469 0.804688 C 10.734375 0.804688 9.625 1.933594 9.625 3.328125 C 9.625 4.71875 10.734375 5.847656 12.105469 5.847656 C 13.472656 5.847656 14.585938 4.71875 14.585938 3.328125 C 14.585938 1.933594 13.472656 0.804688 12.105469 0.804688 Z M 3.894531 0.933594 C 2.527344 0.933594 1.414062 2.0625 1.414062 3.453125 C 1.414062 4.847656 2.527344 5.976562 3.894531 5.976562 C 5.265625 5.976562 6.375 4.847656 6.375 3.453125 C 6.375 2.0625 5.265625 0.933594 3.894531 0.933594 Z M 3.894531 0.933594 "/>
<path style=" stroke:none;fill-rule:nonzero;fill:rgb(30%,30%,30%);fill-opacity:1;" d="M 12.46875 2.257812 C 11.863281 2.507812 11.382812 2.996094 11.136719 3.613281 C 11.027344 3.882812 10.757812 4.042969 10.476562 4.007812 C 10.191406 3.96875 9.96875 3.742188 9.933594 3.457031 C 9.898438 3.167969 10.054688 2.894531 10.320312 2.785156 C 10.925781 2.535156 11.40625 2.046875 11.652344 1.429688 C 11.757812 1.164062 12.03125 1 12.3125 1.039062 C 12.59375 1.074219 12.816406 1.300781 12.855469 1.585938 C 12.890625 1.875 12.730469 2.152344 12.46875 2.257812 Z M 12.234375 1.136719 C 11.945312 1.136719 11.710938 1.375 11.710938 1.667969 C 11.710938 1.960938 11.945312 2.199219 12.234375 2.199219 C 12.519531 2.199219 12.753906 1.960938 12.753906 1.667969 C 12.753906 1.375 12.519531 1.136719 12.234375 1.136719 Z M 10.546875 2.84375 C 10.257812 2.84375 10.023438 3.082031 10.023438 3.375 C 10.023438 3.667969 10.257812 3.90625 10.546875 3.90625 C 10.832031 3.90625 11.066406 3.667969 11.066406 3.375 C 11.066406 3.082031 10.832031 2.84375 10.546875 2.84375 Z M 10.546875 2.84375 "/>
<path style=" stroke:none;fill-rule:nonzero;fill:rgb(30%,30%,30%);fill-opacity:1;" d="M 13.933594 3.75 C 13.328125 4 12.847656 4.488281 12.601562 5.105469 C 12.492188 5.371094 12.222656 5.535156 11.941406 5.496094 C 11.65625 5.460938 11.4375 5.234375 11.398438 4.945312 C 11.363281 4.660156 11.523438 4.382812 11.785156 4.273438 C 12.390625 4.023438 12.871094 3.535156 13.117188 2.917969 L 13.117188 2.921875 C 13.222656 2.652344 13.496094 2.492188 13.777344 2.527344 C 14.058594 2.5625 14.28125 2.789062 14.320312 3.078125 C 14.355469 3.363281 14.195312 3.640625 13.933594 3.75 Z M 13.699219 2.628906 C 13.410156 2.628906 13.175781 2.867188 13.175781 3.160156 C 13.175781 3.453125 13.410156 3.691406 13.699219 3.691406 C 13.988281 3.691406 14.21875 3.453125 14.21875 3.160156 C 14.21875 2.867188 13.988281 2.628906 13.699219 2.628906 Z M 12.011719 4.332031 C 11.722656 4.332031 11.488281 4.570312 11.488281 4.863281 C 11.488281 5.15625 11.722656 5.394531 12.011719 5.394531 C 12.296875 5.394531 12.53125 5.15625 12.53125 4.863281 C 12.53125 4.570312 12.296875 4.332031 12.011719 4.332031 Z M 12.011719 4.332031 "/>
<path style=" stroke:none;fill-rule:nonzero;fill:rgb(30%,30%,30%);fill-opacity:1;" d="M 5.417969 2.695312 L 4.464844 2.695312 L 4.464844 1.726562 C 4.464844 1.5 4.210938 1.3125 3.894531 1.3125 C 3.578125 1.3125 3.324219 1.5 3.324219 1.726562 L 3.324219 2.695312 L 2.375 2.695312 C 2.148438 2.695312 1.964844 2.953125 1.964844 3.277344 C 1.964844 3.597656 2.148438 3.855469 2.375 3.855469 L 3.324219 3.855469 L 3.324219 4.824219 C 3.324219 5.050781 3.578125 5.238281 3.894531 5.238281 C 4.210938 5.238281 4.464844 5.050781 4.464844 4.824219 L 4.464844 3.855469 L 5.417969 3.855469 C 5.640625 3.855469 5.824219 3.597656 5.824219 3.277344 C 5.824219 2.953125 5.640625 2.695312 5.417969 2.695312 Z M 5.417969 2.695312 "/>
</g>
</g>
</svg>
