<?xml version="1.0" encoding="UTF-8"?>
<svg xmlns="http://www.w3.org/2000/svg" xmlns:xlink="http://www.w3.org/1999/xlink" width="9px" height="10px" viewBox="0 0 9 10" version="1.1">
<g id="surface1">
<path style="fill-rule:nonzero;fill:rgb(30%,30%,30%);fill-opacity:1;stroke-width:2.43;stroke-linecap:butt;stroke-linejoin:miter;stroke:rgb(0%,0%,0%);stroke-opacity:1;stroke-miterlimit:10;" d="M 458.49882 116.753584 C 458.49882 116.753584 458.144166 116.753584 457.789512 116.376575 C 458.144166 116.753584 458.144166 116.753584 458.49882 116.753584 Z M 458.49882 116.753584 " transform="matrix(0.0110143,0,0,0.0103611,-1.014867,-0.244856)"/>
<path style="fill-rule:nonzero;fill:rgb(30%,30%,30%);fill-opacity:1;stroke-width:2.43;stroke-linecap:butt;stroke-linejoin:miter;stroke:rgb(0%,0%,0%);stroke-opacity:1;stroke-miterlimit:10;" d="M 883.019715 422.508565 L 878.763866 419.115477 C 878.763866 419.115477 555.319375 234.380655 539.359943 224.578399 C 508.150387 205.350897 543.615792 185.369375 543.615792 185.369375 C 579.43585 163.879815 594.685974 119.769663 579.790505 80.93765 C 564.895035 41.728626 524.464473 19.108036 483.324604 26.648232 C 442.184734 34.188429 412.393794 70.004364 412.393794 111.475447 C 412.393794 113.737506 412.393794 115.622555 412.748448 117.507604 C 412.748448 117.507604 453.533664 116.376575 457.789512 116.376575 C 457.789512 115.245545 458.144166 114.114516 458.144166 112.983486 C 458.144166 92.624955 475.876869 76.036522 497.86542 76.036522 C 519.853971 76.036522 537.586673 92.624955 537.941327 112.983486 C 538.295981 138.620155 507.086425 149.176431 507.086425 149.176431 C 488.644414 158.601677 468.07448 170.288982 475.167561 212.137074 C 476.231523 220.054281 131.507789 417.230428 131.507789 417.230428 C 105.263389 430.802782 93.205152 450.407294 93.205152 477.552002 C 93.205152 514.121957 122.996092 543.528724 159.525459 543.528724 C 165.909231 543.528724 279.398527 541.266665 279.398527 541.266665 L 279.398527 663.040844 C 279.398527 663.040844 275.142678 722.608399 315.927893 745.983009 C 366.643422 775.389776 726.262626 986.515287 726.262626 986.515287 L 728.39055 535.988527 C 733.355707 537.119557 836.560035 540.512646 841.879845 540.512646 C 869.897515 540.512646 895.077952 522.793183 904.298958 496.025484 C 913.519963 469.634795 905.008266 440.228028 883.019715 422.508565 Z M 287.910224 473.027884 C 287.910224 480.568081 281.881105 486.600238 274.43337 486.600238 L 164.845269 486.600238 C 154.560302 486.600238 151.013761 473.404894 159.525459 468.126756 L 267.694943 401.773024 C 271.596137 399.510965 276.915948 399.133955 281.171797 401.773024 C 285.427645 404.035083 287.910224 408.559201 287.910224 413.460329 Z M 499.993344 480.568081 C 423.742724 480.568081 356.713109 430.048762 335.78852 356.908853 L 501.766614 260.394334 L 664.198168 356.531843 C 643.273579 430.048762 576.243964 480.568081 499.993344 480.568081 Z M 843.653116 486.600238 L 733.710361 486.600238 C 726.262626 486.600238 720.588161 480.568081 720.588161 473.027884 L 720.588161 413.460329 C 720.588161 408.559201 723.07074 404.035083 727.326588 401.773024 C 731.582437 399.133955 736.547593 399.510965 740.803442 401.773024 L 848.972926 468.126756 C 857.484623 473.404894 853.583429 486.600238 843.653116 486.600238 Z M 843.653116 486.600238 " transform="matrix(0.0110143,0,0,0.0103611,-1.014867,-0.244856)"/>
</g>
</svg>
