<?xml version="1.0" encoding="UTF-8" standalone="no"?>
<!-- Created with Inkscape (http://www.inkscape.org/) -->

<svg
   xmlns:dc="http://purl.org/dc/elements/1.1/"
   xmlns:cc="http://creativecommons.org/ns#"
   xmlns:rdf="http://www.w3.org/1999/02/22-rdf-syntax-ns#"
   xmlns:svg="http://www.w3.org/2000/svg"
   xmlns="http://www.w3.org/2000/svg"
   xmlns:xlink="http://www.w3.org/1999/xlink"
   xmlns:sodipodi="http://sodipodi.sourceforge.net/DTD/sodipodi-0.dtd"
   xmlns:inkscape="http://www.inkscape.org/namespaces/inkscape"
   width="30px"
   height="30px"
   version="1.1"
   id="svg8"
   inkscape:version="0.92.4 5da689c313, 2019-01-14"
   sodipodi:docname="container.svg">
  <defs
     id="defs2" />
  <sodipodi:namedview
     id="base"
     pagecolor="#ffffff"
     bordercolor="#666666"
     borderopacity="1.0"
     inkscape:pageopacity="0.0"
     inkscape:pageshadow="2"
     inkscape:zoom="13.049334"
     inkscape:cx="18.679046"
     inkscape:cy="12.165829"
     inkscape:document-units="px"
     inkscape:current-layer="layer1"
     showgrid="false"
     inkscape:snap-page="false"
     units="px"
     inkscape:window-width="1884"
     inkscape:window-height="1061"
     inkscape:window-x="0"
     inkscape:window-y="0"
     inkscape:window-maximized="1"
     fit-margin-top="0"
     fit-margin-left="0"
     fit-margin-right="0"
     fit-margin-bottom="0" />
  <metadata
     id="metadata5">
    <rdf:RDF>
      <cc:Work
         rdf:about="">
        <dc:format>image/svg+xml</dc:format>
        <dc:type
           rdf:resource="http://purl.org/dc/dcmitype/StillImage" />
        <dc:title></dc:title>
      </cc:Work>
    </rdf:RDF>
  </metadata>
    <circle
       style="color:#000000;clip-rule:nonzero;display:inline;overflow:visible;visibility:visible;opacity:1;isolation:auto;mix-blend-mode:normal;color-interpolation:sRGB;color-interpolation-filters:linearRGB;solid-color:#000000;solid-opacity:1;vector-effect:none;fill:#ffffff;fill-opacity:1;fill-rule:evenodd;stroke:#808080;stroke-width:1;stroke-linecap:butt;stroke-linejoin:miter;stroke-miterlimit:4;stroke-dasharray:none;stroke-dashoffset:0;stroke-opacity:1;marker:none;color-rendering:auto;image-rendering:auto;shape-rendering:auto;text-rendering:auto;enable-background:accumulate"
       id="path815"
       cx="15"
       cy="15"
       r="14.5" />
<g transform="translate(6,7)"><g id="surface1">
<path style=" stroke:none;fill-rule:nonzero;fill:rgb(30%,30%,30%);fill-opacity:1;" d="M 16.550781 15.996094 L 2.382812 15.996094 C 1.046875 15.996094 0 14.984375 0 13.6875 L 0 13.242188 C 0 11.945312 1.046875 10.933594 2.382812 10.933594 L 16.628906 10.933594 C 16.820312 10.933594 16.972656 11.089844 16.972656 11.28125 C 16.972656 11.476562 16.820312 11.632812 16.628906 11.632812 L 2.382812 11.632812 C 1.417969 11.632812 0.691406 12.324219 0.691406 13.242188 L 0.691406 13.6875 C 0.691406 14.605469 1.417969 15.296875 2.382812 15.296875 L 16.550781 15.296875 C 16.742188 15.296875 16.898438 15.453125 16.898438 15.648438 C 16.898438 15.839844 16.742188 15.996094 16.550781 15.996094 Z M 16.550781 15.996094 "/>
<path style=" stroke:none;fill-rule:nonzero;fill:rgb(30%,30%,30%);fill-opacity:1;" d="M 16.050781 14.765625 L 2.472656 14.765625 C 1.773438 14.761719 1.207031 14.191406 1.207031 13.484375 C 1.207031 12.777344 1.773438 12.203125 2.472656 12.203125 L 15.972656 12.203125 C 15.972656 12.203125 15.335938 14.011719 16.050781 14.765625 Z M 16.050781 14.765625 "/>
<path style=" stroke:none;fill-rule:nonzero;fill:rgb(30%,30%,30%);fill-opacity:1;" d="M 16.566406 5.066406 L 2.398438 5.066406 C 1.0625 5.066406 0.015625 4.050781 0.015625 2.757812 L 0.015625 2.3125 C 0.015625 1.015625 1.0625 0.00390625 2.398438 0.00390625 L 16.644531 0.00390625 C 16.835938 0.00390625 16.988281 0.160156 16.988281 0.351562 C 16.988281 0.546875 16.835938 0.703125 16.644531 0.703125 L 2.398438 0.703125 C 1.433594 0.703125 0.707031 1.394531 0.707031 2.3125 L 0.707031 2.757812 C 0.707031 3.675781 1.433594 4.367188 2.398438 4.367188 L 16.566406 4.367188 C 16.757812 4.367188 16.914062 4.523438 16.914062 4.71875 C 16.914062 4.910156 16.757812 5.066406 16.566406 5.066406 Z M 16.566406 5.066406 "/>
<path style=" stroke:none;fill-rule:nonzero;fill:rgb(30%,30%,30%);fill-opacity:1;" d="M 16.066406 3.835938 L 2.488281 3.835938 C 1.789062 3.832031 1.222656 3.261719 1.222656 2.554688 C 1.222656 1.847656 1.789062 1.273438 2.488281 1.273438 L 15.988281 1.273438 C 15.988281 1.273438 15.351562 3.082031 16.066406 3.835938 Z M 16.066406 3.835938 "/>
<path style=" stroke:none;fill-rule:nonzero;fill:rgb(30%,30%,30%);fill-opacity:1;" d="M 16.578125 10.511719 L 2.410156 10.511719 C 1.074219 10.511719 0.0273438 9.5 0.0273438 8.203125 L 0.0273438 7.757812 C 0.0273438 6.460938 1.074219 5.449219 2.410156 5.449219 L 16.65625 5.449219 C 16.84375 5.449219 17 5.605469 17 5.796875 C 17 5.992188 16.84375 6.148438 16.65625 6.148438 L 2.410156 6.148438 C 1.445312 6.148438 0.71875 6.839844 0.71875 7.757812 L 0.71875 8.203125 C 0.71875 9.121094 1.445312 9.8125 2.410156 9.8125 L 16.578125 9.8125 C 16.769531 9.8125 16.921875 9.96875 16.921875 10.164062 C 16.921875 10.355469 16.769531 10.511719 16.578125 10.511719 Z M 16.578125 10.511719 "/>
<path style=" stroke:none;fill-rule:nonzero;fill:rgb(30%,30%,30%);fill-opacity:1;" d="M 16.078125 9.28125 L 2.5 9.28125 C 1.800781 9.277344 1.234375 8.707031 1.234375 8 C 1.234375 7.292969 1.800781 6.71875 2.5 6.71875 L 16 6.71875 C 16 6.71875 15.359375 8.527344 16.078125 9.28125 Z M 16.078125 9.28125 "/>
</g>
</g>
</svg>
