<?xml version="1.0" encoding="UTF-8"?>
<svg xmlns="http://www.w3.org/2000/svg" xmlns:xlink="http://www.w3.org/1999/xlink" width="11px" height="10px" viewBox="0 0 11 10" version="1.1">
<g id="surface1">
<path style=" stroke:none;fill-rule:nonzero;fill:rgb(30%,30%,30%);fill-opacity:1;" d="M 5.308594 0.589844 C 5.378906 0.960938 5.222656 1.296875 4.960938 1.339844 C 4.699219 1.386719 4.425781 1.125 4.355469 0.753906 C 4.285156 0.386719 4.4375 0.0507812 4.703125 0.00390625 C 4.964844 -0.0390625 5.234375 0.222656 5.308594 0.589844 Z M 5.308594 0.589844 "/>
<path style=" stroke:none;fill-rule:nonzero;fill:rgb(30%,30%,30%);fill-opacity:1;" d="M 4.34375 1.355469 C 4.5 1.652344 4.4375 1.980469 4.203125 2.089844 C 3.96875 2.199219 3.652344 2.050781 3.496094 1.753906 C 3.339844 1.457031 3.402344 1.125 3.636719 1.015625 C 3.871094 0.90625 4.1875 1.058594 4.34375 1.355469 Z M 4.34375 1.355469 "/>
<path style=" stroke:none;fill-rule:nonzero;fill:rgb(30%,30%,30%);fill-opacity:1;" d="M 7.234375 1 C 7.484375 1.074219 7.601562 1.390625 7.5 1.707031 C 7.394531 2.023438 7.109375 2.222656 6.859375 2.148438 C 6.609375 2.074219 6.492188 1.757812 6.59375 1.441406 C 6.695312 1.125 6.984375 0.929688 7.234375 1 Z M 7.234375 1 "/>
<path style=" stroke:none;fill-rule:nonzero;fill:rgb(30%,30%,30%);fill-opacity:1;" d="M 6.265625 0.00390625 C 6.527344 0.0507812 6.683594 0.386719 6.609375 0.753906 C 6.539062 1.125 6.269531 1.386719 6.003906 1.339844 C 5.742188 1.292969 5.589844 0.957031 5.660156 0.589844 C 5.730469 0.222656 6.003906 -0.0390625 6.265625 0.00390625 Z M 6.265625 0.00390625 "/>
<path style=" stroke:none;fill-rule:nonzero;fill:rgb(30%,30%,30%);fill-opacity:1;" d="M 4.117188 2.710938 C 4.117188 2.710938 4.433594 2.328125 4.585938 2.179688 C 4.734375 2.035156 4.933594 1.6875 4.933594 1.6875 C 5.074219 1.515625 5.292969 1.414062 5.523438 1.414062 C 5.753906 1.417969 5.96875 1.519531 6.105469 1.699219 C 6.105469 1.699219 6.28125 2.058594 6.410156 2.207031 C 6.542969 2.359375 6.882812 2.707031 6.882812 2.707031 C 7.195312 3.152344 6.882812 3.742188 6.351562 3.722656 C 6.339844 3.722656 6.328125 3.71875 6.316406 3.714844 C 6.214844 3.683594 5.703125 3.539062 5.484375 3.539062 C 5.238281 3.539062 4.742188 3.683594 4.652344 3.707031 C 4.644531 3.710938 4.636719 3.710938 4.625 3.710938 C 4.089844 3.699219 3.792969 3.117188 4.117188 2.710938 Z M 4.117188 2.710938 "/>
<path style=" stroke:none;fill-rule:nonzero;fill:rgb(30%,30%,30%);fill-opacity:1;" d="M 5.257812 5.125 C 5.136719 5.042969 0.609375 2.066406 0.308594 2.386719 C 0.0859375 2.609375 3.015625 5.046875 4.035156 5.871094 L 5.28125 5.140625 Z M 5.257812 5.125 "/>
<path style=" stroke:none;fill-rule:nonzero;fill:rgb(30%,30%,30%);fill-opacity:1;" d="M 4.585938 6.289062 L 4.699219 6.371094 L 4.628906 6.265625 Z M 4.585938 6.289062 "/>
<path style=" stroke:none;fill-rule:nonzero;fill:rgb(30%,30%,30%);fill-opacity:1;" d="M 10.332031 7.515625 L 9.984375 7.242188 C 10.0625 6.847656 9.910156 6.445312 9.582031 6.191406 C 9.253906 5.9375 8.804688 5.871094 8.414062 6.019531 C 8.019531 6.167969 7.742188 6.511719 7.691406 6.90625 L 6.875 6.308594 C 6.882812 6.375 6.832031 6.453125 6.746094 6.503906 C 6.636719 6.574219 6.503906 6.566406 6.453125 6.492188 L 5.816406 5.574219 L 5.648438 5.671875 L 6.285156 6.589844 C 6.292969 6.605469 6.300781 6.625 6.304688 6.644531 L 7.917969 7.726562 C 7.921875 7.722656 7.953125 7.753906 7.957031 7.746094 C 8.210938 8.050781 8.597656 8.1875 9.03125 8.121094 C 9.304688 8.082031 9.554688 7.945312 9.734375 7.742188 L 10.152344 8.015625 C 10.152344 8.015625 10.957031 8.269531 10.996094 7.917969 C 11.035156 7.566406 10.332031 7.515625 10.332031 7.515625 Z M 8.984375 7.660156 C 8.617188 7.714844 8.273438 7.480469 8.214844 7.136719 C 8.15625 6.789062 8.40625 6.464844 8.769531 6.40625 C 9.136719 6.351562 9.480469 6.585938 9.539062 6.933594 C 9.597656 7.277344 9.347656 7.605469 8.984375 7.660156 Z M 8.984375 7.660156 "/>
<path style=" stroke:none;fill-rule:nonzero;fill:rgb(30%,30%,30%);fill-opacity:1;" d="M 6.171875 6.839844 C 6.0625 6.90625 5.929688 6.902344 5.878906 6.828125 L 5.339844 6.046875 C 5.421875 5.96875 5.429688 5.847656 5.363281 5.757812 C 5.296875 5.667969 5.167969 5.636719 5.0625 5.683594 C 5.164062 5.640625 5.277344 5.667969 5.347656 5.742188 C 5.417969 5.820312 5.421875 5.933594 5.363281 6.019531 C 5.300781 6.101562 5.191406 6.140625 5.089844 6.109375 L 5.667969 6.949219 C 5.691406 6.980469 5.691406 7.019531 5.675781 7.058594 L 6.855469 7.890625 C 6.351562 8.09375 6.0625 8.605469 6.167969 9.113281 C 6.273438 9.625 6.746094 9.992188 7.292969 10 C 7.84375 10.007812 8.320312 9.648438 8.441406 9.140625 C 8.558594 8.632812 8.285156 8.117188 7.785156 7.902344 C 7.46875 7.640625 6.765625 7.140625 6.25 6.777344 C 6.226562 6.800781 6.199219 6.824219 6.171875 6.839844 Z M 7.96875 8.800781 C 8.027344 9.148438 7.78125 9.472656 7.414062 9.527344 C 7.050781 9.582031 6.707031 9.347656 6.644531 9.003906 C 6.585938 8.65625 6.835938 8.332031 7.203125 8.277344 C 7.566406 8.21875 7.910156 8.457031 7.96875 8.800781 Z M 7.96875 8.800781 "/>
<path style=" stroke:none;fill-rule:nonzero;fill:rgb(30%,30%,30%);fill-opacity:1;" d="M 3.90625 5.933594 L 0.167969 8.113281 C -0.0820312 8.261719 0.00390625 8.453125 0.078125 8.566406 C 0.105469 8.617188 0.136719 8.664062 0.167969 8.707031 L 0.925781 9.824219 C 0.945312 9.851562 0.996094 9.851562 1.035156 9.824219 C 1.074219 9.800781 1.09375 9.757812 1.070312 9.734375 L 0.375 8.703125 C 0.417969 8.691406 0.460938 8.675781 0.503906 8.652344 L 1.191406 9.667969 C 1.210938 9.691406 1.261719 9.695312 1.300781 9.667969 C 1.339844 9.644531 1.359375 9.601562 1.339844 9.578125 L 0.652344 8.566406 L 0.769531 8.496094 L 1.457031 9.507812 C 1.476562 9.535156 1.527344 9.539062 1.566406 9.515625 C 1.605469 9.488281 1.625 9.449219 1.605469 9.421875 L 0.917969 8.410156 L 1.035156 8.34375 L 1.722656 9.355469 C 1.742188 9.378906 1.792969 9.382812 1.832031 9.359375 C 1.875 9.332031 1.890625 9.292969 1.871094 9.265625 L 1.183594 8.253906 L 1.300781 8.1875 L 1.988281 9.199219 C 2.007812 9.222656 2.058594 9.230469 2.101562 9.203125 C 2.140625 9.179688 2.15625 9.136719 2.136719 9.113281 L 1.453125 8.101562 L 1.570312 8.03125 L 2.253906 9.042969 C 2.273438 9.070312 2.324219 9.074219 2.367188 9.046875 C 2.40625 9.023438 2.421875 8.980469 2.402344 8.957031 L 1.71875 7.945312 L 1.835938 7.878906 L 2.519531 8.886719 C 2.539062 8.914062 2.59375 8.917969 2.632812 8.890625 C 2.671875 8.867188 2.6875 8.828125 2.667969 8.800781 L 1.984375 7.789062 L 2.101562 7.722656 L 2.785156 8.730469 C 2.804688 8.757812 2.859375 8.761719 2.898438 8.738281 C 2.9375 8.710938 2.957031 8.671875 2.933594 8.644531 L 2.25 7.636719 L 2.367188 7.566406 L 3.050781 8.578125 C 3.074219 8.601562 3.125 8.605469 3.164062 8.582031 C 3.203125 8.554688 3.222656 8.515625 3.203125 8.488281 L 2.519531 7.480469 L 2.636719 7.414062 L 3.320312 8.421875 C 3.339844 8.449219 3.390625 8.453125 3.429688 8.425781 C 3.472656 8.402344 3.488281 8.359375 3.46875 8.335938 L 2.785156 7.324219 L 2.902344 7.257812 L 3.585938 8.265625 C 3.605469 8.292969 3.65625 8.296875 3.695312 8.269531 C 3.738281 8.246094 3.753906 8.203125 3.734375 8.179688 L 3.050781 7.171875 L 3.167969 7.101562 L 3.851562 8.109375 C 3.871094 8.136719 3.921875 8.140625 3.964844 8.117188 C 4.003906 8.089844 4.019531 8.050781 4 8.023438 L 3.316406 7.015625 L 3.433594 6.949219 L 4.117188 7.957031 C 4.136719 7.980469 4.1875 7.984375 4.230469 7.960938 C 4.269531 7.933594 4.285156 7.894531 4.265625 7.867188 L 3.585938 6.859375 L 3.703125 6.792969 L 4.382812 7.800781 C 4.402344 7.824219 4.457031 7.832031 4.496094 7.804688 C 4.535156 7.78125 4.554688 7.738281 4.53125 7.710938 L 3.851562 6.707031 L 3.96875 6.636719 L 4.648438 7.644531 C 4.667969 7.671875 4.722656 7.675781 4.761719 7.648438 C 4.800781 7.625 4.820312 7.582031 4.800781 7.558594 L 4.117188 6.550781 L 4.246094 6.476562 L 4.914062 7.496094 C 4.933594 7.519531 4.984375 7.523438 5.023438 7.496094 C 5.0625 7.472656 5.082031 7.429688 5.0625 7.402344 L 4.394531 6.390625 L 4.457031 6.355469 L 4.242188 6.203125 C 4.222656 6.1875 4.097656 6.089844 3.90625 5.933594 Z M 3.90625 5.933594 "/>
<path style=" stroke:none;fill-rule:nonzero;fill:rgb(30%,30%,30%);fill-opacity:1;" d="M 5.136719 7.25 C 5.1875 7.324219 5.308594 7.335938 5.417969 7.269531 C 5.480469 7.230469 5.527344 7.175781 5.550781 7.125 L 4.570312 6.433594 Z M 5.136719 7.25 "/>
<path style=" stroke:none;fill-rule:nonzero;fill:rgb(30%,30%,30%);fill-opacity:1;" d="M 6.980469 6.191406 L 6.34375 5.273438 L 6.511719 5.175781 L 7.152344 6.09375 C 7.203125 6.164062 7.324219 6.175781 7.433594 6.109375 C 7.542969 6.042969 7.605469 5.929688 7.558594 5.855469 L 6.917969 4.941406 L 7.085938 4.84375 L 7.726562 5.757812 C 7.777344 5.828125 7.90625 5.835938 8.019531 5.769531 C 8.128906 5.703125 8.179688 5.59375 8.128906 5.519531 L 7.492188 4.605469 L 7.722656 4.472656 L 8.359375 5.386719 C 8.410156 5.460938 8.542969 5.464844 8.652344 5.398438 C 8.765625 5.332031 8.816406 5.222656 8.765625 5.148438 L 8.128906 4.238281 L 8.296875 4.140625 L 8.929688 5.054688 C 8.980469 5.125 9.117188 5.132812 9.226562 5.0625 C 9.335938 4.996094 9.386719 4.890625 9.335938 4.816406 L 8.703125 3.902344 L 8.871094 3.804688 L 9.503906 4.71875 C 9.554688 4.792969 9.6875 4.796875 9.796875 4.730469 C 9.910156 4.664062 9.960938 4.554688 9.910156 4.480469 L 9.277344 3.570312 L 9.441406 3.472656 L 10.046875 4.402344 C 10.097656 4.472656 10.234375 4.476562 10.34375 4.410156 C 10.453125 4.34375 10.488281 4.246094 10.4375 4.171875 L 9.664062 3 C 9.648438 2.980469 9.609375 2.929688 9.609375 2.929688 C 9.53125 2.808594 9.316406 2.792969 9.136719 2.902344 L 5.386719 5.085938 L 6.980469 6.253906 C 6.980469 6.234375 6.988281 6.207031 6.980469 6.191406 Z M 6.980469 6.191406 "/>
<path style=" stroke:none;fill-rule:nonzero;fill:rgb(30%,30%,30%);fill-opacity:1;" d="M 4.933594 5.941406 C 4.90625 5.835938 4.960938 5.726562 5.0625 5.683594 C 4.972656 5.722656 4.914062 5.808594 4.921875 5.902344 C 4.925781 5.996094 4.992188 6.078125 5.089844 6.109375 L 5.085938 6.105469 C 5.007812 6.078125 4.949219 6.015625 4.933594 5.941406 Z M 4.933594 5.941406 "/>
<path style=" stroke:none;fill-rule:nonzero;fill:rgb(30%,30%,30%);fill-opacity:1;" d="M 5.648438 5.671875 L 5.816406 5.574219 L 6.453125 6.492188 C 6.503906 6.566406 6.636719 6.574219 6.746094 6.503906 C 6.832031 6.453125 6.882812 6.375 6.875 6.308594 L 5.28125 5.140625 L 4.035156 5.871094 C 4.226562 6.027344 4.351562 6.125 4.371094 6.136719 L 4.585938 6.289062 L 4.628906 6.265625 L 4.699219 6.371094 L 5.675781 7.058594 C 5.691406 7.019531 5.691406 6.980469 5.667969 6.949219 L 5.089844 6.109375 C 4.984375 6.078125 4.914062 5.984375 4.917969 5.878906 C 4.921875 5.777344 4.996094 5.6875 5.105469 5.664062 C 5.210938 5.636719 5.320312 5.683594 5.375 5.773438 C 5.429688 5.863281 5.414062 5.972656 5.339844 6.046875 L 5.878906 6.828125 C 5.929688 6.902344 6.0625 6.90625 6.171875 6.839844 C 6.199219 6.824219 6.226562 6.800781 6.25 6.777344 C 6.039062 6.632812 5.855469 6.507812 5.746094 6.429688 C 5.707031 6.40625 5.816406 6.335938 5.828125 6.324219 L 6.304688 6.644531 C 6.300781 6.625 6.292969 6.605469 6.285156 6.589844 Z M 5.648438 5.671875 "/>
</g>
</svg>
