<?xml version="1.0" encoding="UTF-8" standalone="no"?>
<!-- Created with Inkscape (http://www.inkscape.org/) -->

<svg
   xmlns:dc="http://purl.org/dc/elements/1.1/"
   xmlns:cc="http://creativecommons.org/ns#"
   xmlns:rdf="http://www.w3.org/1999/02/22-rdf-syntax-ns#"
   xmlns:svg="http://www.w3.org/2000/svg"
   xmlns="http://www.w3.org/2000/svg"
   xmlns:xlink="http://www.w3.org/1999/xlink"
   xmlns:sodipodi="http://sodipodi.sourceforge.net/DTD/sodipodi-0.dtd"
   xmlns:inkscape="http://www.inkscape.org/namespaces/inkscape"
   width="30px"
   height="30px"
   version="1.1"
   id="svg8"
   inkscape:version="0.92.4 5da689c313, 2019-01-14"
   sodipodi:docname="container.svg">
  <defs
     id="defs2" />
  <sodipodi:namedview
     id="base"
     pagecolor="#ffffff"
     bordercolor="#666666"
     borderopacity="1.0"
     inkscape:pageopacity="0.0"
     inkscape:pageshadow="2"
     inkscape:zoom="13.049334"
     inkscape:cx="18.679046"
     inkscape:cy="12.165829"
     inkscape:document-units="px"
     inkscape:current-layer="layer1"
     showgrid="false"
     inkscape:snap-page="false"
     units="px"
     inkscape:window-width="1884"
     inkscape:window-height="1061"
     inkscape:window-x="0"
     inkscape:window-y="0"
     inkscape:window-maximized="1"
     fit-margin-top="0"
     fit-margin-left="0"
     fit-margin-right="0"
     fit-margin-bottom="0" />
  <metadata
     id="metadata5">
    <rdf:RDF>
      <cc:Work
         rdf:about="">
        <dc:format>image/svg+xml</dc:format>
        <dc:type
           rdf:resource="http://purl.org/dc/dcmitype/StillImage" />
        <dc:title></dc:title>
      </cc:Work>
    </rdf:RDF>
  </metadata>
    <circle
       style="color:#000000;clip-rule:nonzero;display:inline;overflow:visible;visibility:visible;opacity:1;isolation:auto;mix-blend-mode:normal;color-interpolation:sRGB;color-interpolation-filters:linearRGB;solid-color:#000000;solid-opacity:1;vector-effect:none;fill:#ffffff;fill-opacity:1;fill-rule:evenodd;stroke:#808080;stroke-width:1;stroke-linecap:butt;stroke-linejoin:miter;stroke-miterlimit:4;stroke-dasharray:none;stroke-dashoffset:0;stroke-opacity:1;marker:none;color-rendering:auto;image-rendering:auto;shape-rendering:auto;text-rendering:auto;enable-background:accumulate"
       id="path815"
       cx="15"
       cy="15"
       r="14.5" />
<g transform="translate(7,7)"><g id="surface1">
<path style=" stroke:none;fill-rule:nonzero;fill:rgb(30%,30%,30%);fill-opacity:1;" d="M 7.71875 0.945312 C 7.824219 1.535156 7.597656 2.070312 7.214844 2.144531 C 6.832031 2.21875 6.4375 1.796875 6.335938 1.207031 C 6.230469 0.617188 6.457031 0.0820312 6.839844 0.0078125 C 7.222656 -0.0664062 7.617188 0.355469 7.71875 0.945312 Z M 7.71875 0.945312 "/>
<path style=" stroke:none;fill-rule:nonzero;fill:rgb(30%,30%,30%);fill-opacity:1;" d="M 6.316406 2.167969 C 6.542969 2.640625 6.453125 3.167969 6.109375 3.34375 C 5.769531 3.519531 5.308594 3.28125 5.082031 2.804688 C 4.855469 2.332031 4.949219 1.804688 5.289062 1.625 C 5.632812 1.449219 6.089844 1.691406 6.316406 2.167969 Z M 6.316406 2.167969 "/>
<path style=" stroke:none;fill-rule:nonzero;fill:rgb(30%,30%,30%);fill-opacity:1;" d="M 10.523438 1.601562 C 10.886719 1.71875 11.058594 2.226562 10.910156 2.730469 C 10.757812 3.238281 10.339844 3.554688 9.976562 3.4375 C 9.613281 3.320312 9.441406 2.8125 9.589844 2.308594 C 9.742188 1.800781 10.15625 1.484375 10.523438 1.601562 Z M 10.523438 1.601562 "/>
<path style=" stroke:none;fill-rule:nonzero;fill:rgb(30%,30%,30%);fill-opacity:1;" d="M 9.113281 0.0078125 C 9.496094 0.0820312 9.71875 0.621094 9.617188 1.210938 C 9.511719 1.800781 9.117188 2.21875 8.734375 2.144531 C 8.351562 2.070312 8.128906 1.535156 8.234375 0.945312 C 8.335938 0.355469 8.730469 -0.0664062 9.113281 0.0078125 Z M 9.113281 0.0078125 "/>
<path style=" stroke:none;fill-rule:nonzero;fill:rgb(30%,30%,30%);fill-opacity:1;" d="M 5.988281 4.335938 C 5.988281 4.335938 6.449219 3.726562 6.667969 3.488281 C 6.886719 3.253906 7.179688 2.699219 7.179688 2.699219 C 7.378906 2.421875 7.695312 2.257812 8.03125 2.261719 C 8.367188 2.265625 8.683594 2.433594 8.878906 2.714844 C 8.878906 2.714844 9.136719 3.292969 9.324219 3.535156 C 9.515625 3.773438 10.011719 4.332031 10.011719 4.332031 C 10.46875 5.042969 10.011719 5.988281 9.242188 5.957031 C 9.222656 5.957031 9.203125 5.953125 9.1875 5.945312 C 9.039062 5.894531 8.296875 5.660156 7.976562 5.660156 C 7.621094 5.664062 6.898438 5.894531 6.769531 5.933594 C 6.753906 5.9375 6.742188 5.9375 6.730469 5.9375 C 5.953125 5.917969 5.515625 4.988281 5.988281 4.335938 Z M 5.988281 4.335938 "/>
<path style=" stroke:none;fill-rule:nonzero;fill:rgb(30%,30%,30%);fill-opacity:1;" d="M 7.648438 8.203125 C 7.46875 8.066406 0.882812 3.304688 0.449219 3.816406 C 0.128906 4.175781 4.390625 8.074219 5.867188 9.390625 L 7.679688 8.226562 Z M 7.648438 8.203125 "/>
<path style=" stroke:none;fill-rule:nonzero;fill:rgb(30%,30%,30%);fill-opacity:1;" d="M 6.671875 10.0625 L 6.835938 10.191406 L 6.730469 10.023438 Z M 6.671875 10.0625 "/>
<path style=" stroke:none;fill-rule:nonzero;fill:rgb(30%,30%,30%);fill-opacity:1;" d="M 15.03125 12.027344 L 14.523438 11.585938 C 14.636719 10.957031 14.414062 10.3125 13.9375 9.90625 C 13.460938 9.496094 12.808594 9.394531 12.234375 9.632812 C 11.664062 9.871094 11.261719 10.417969 11.191406 11.054688 L 10.003906 10.097656 C 10.011719 10.203125 9.9375 10.328125 9.8125 10.410156 C 9.652344 10.515625 9.457031 10.507812 9.386719 10.390625 L 8.460938 8.917969 L 8.214844 9.074219 L 9.140625 10.546875 C 9.15625 10.570312 9.164062 10.601562 9.167969 10.628906 L 11.519531 12.363281 C 11.523438 12.359375 11.570312 12.402344 11.574219 12.394531 C 11.941406 12.882812 12.503906 13.101562 13.132812 12.996094 C 13.535156 12.929688 13.898438 12.714844 14.160156 12.390625 L 14.769531 12.824219 C 14.769531 12.824219 15.9375 13.230469 15.996094 12.667969 C 16.054688 12.105469 15.03125 12.027344 15.03125 12.027344 Z M 13.066406 12.257812 C 12.535156 12.34375 12.035156 11.96875 11.949219 11.414062 C 11.863281 10.863281 12.226562 10.34375 12.757812 10.253906 C 13.289062 10.164062 13.789062 10.539062 13.875 11.09375 C 13.960938 11.644531 13.597656 12.167969 13.066406 12.257812 Z M 13.066406 12.257812 "/>
<path style=" stroke:none;fill-rule:nonzero;fill:rgb(30%,30%,30%);fill-opacity:1;" d="M 8.976562 10.945312 C 8.816406 11.050781 8.625 11.042969 8.550781 10.925781 L 7.765625 9.679688 C 7.886719 9.550781 7.898438 9.355469 7.800781 9.210938 C 7.703125 9.066406 7.519531 9.015625 7.367188 9.089844 C 7.507812 9.027344 7.675781 9.066406 7.777344 9.191406 C 7.878906 9.316406 7.886719 9.496094 7.800781 9.628906 C 7.710938 9.765625 7.550781 9.824219 7.402344 9.773438 L 8.246094 11.121094 C 8.277344 11.171875 8.277344 11.230469 8.257812 11.296875 L 9.96875 12.625 C 9.96875 12.625 9.972656 12.625 9.972656 12.625 C 9.234375 12.949219 8.820312 13.765625 8.972656 14.582031 C 9.128906 15.398438 9.808594 15.988281 10.609375 16 C 11.40625 16.011719 12.105469 15.4375 12.277344 14.625 C 12.449219 13.8125 12.054688 12.984375 11.324219 12.644531 C 10.863281 12.222656 9.839844 11.425781 9.089844 10.84375 C 9.054688 10.882812 9.019531 10.917969 8.976562 10.945312 Z M 11.59375 14.082031 C 11.675781 14.636719 11.316406 15.15625 10.785156 15.246094 C 10.253906 15.332031 9.753906 14.957031 9.667969 14.402344 C 9.582031 13.851562 9.945312 13.332031 10.476562 13.242188 C 11.007812 13.152344 11.507812 13.527344 11.59375 14.082031 Z M 11.59375 14.082031 "/>
<path style=" stroke:none;fill-rule:nonzero;fill:rgb(30%,30%,30%);fill-opacity:1;" d="M 5.679688 9.492188 L 0.242188 12.980469 C -0.121094 13.214844 0.00390625 13.527344 0.113281 13.707031 C 0.152344 13.785156 0.195312 13.859375 0.246094 13.929688 L 1.347656 15.71875 C 1.375 15.761719 1.445312 15.761719 1.503906 15.71875 C 1.5625 15.679688 1.589844 15.613281 1.558594 15.574219 L 0.542969 13.925781 C 0.609375 13.90625 0.671875 13.878906 0.730469 13.84375 L 1.730469 15.464844 C 1.761719 15.507812 1.835938 15.511719 1.890625 15.472656 C 1.949219 15.429688 1.976562 15.367188 1.945312 15.324219 L 0.949219 13.703125 L 1.117188 13.59375 L 2.117188 15.214844 C 2.144531 15.257812 2.222656 15.261719 2.28125 15.222656 C 2.335938 15.183594 2.363281 15.117188 2.332031 15.074219 L 1.335938 13.457031 L 1.507812 13.347656 L 2.503906 14.964844 C 2.53125 15.007812 2.609375 15.015625 2.667969 14.972656 C 2.726562 14.933594 2.75 14.867188 2.722656 14.828125 L 1.722656 13.207031 L 1.894531 13.101562 L 2.890625 14.71875 C 2.921875 14.757812 2.996094 14.765625 3.054688 14.726562 C 3.113281 14.683594 3.136719 14.621094 3.109375 14.578125 L 2.113281 12.960938 L 2.28125 12.851562 L 3.277344 14.46875 C 3.308594 14.511719 3.382812 14.515625 3.441406 14.476562 C 3.5 14.4375 3.523438 14.371094 3.496094 14.328125 L 2.5 12.714844 L 2.671875 12.605469 L 3.664062 14.21875 C 3.695312 14.261719 3.769531 14.269531 3.828125 14.226562 C 3.886719 14.1875 3.910156 14.121094 3.882812 14.082031 L 2.886719 12.464844 L 3.058594 12.355469 L 4.054688 13.972656 C 4.082031 14.011719 4.15625 14.019531 4.214844 13.980469 C 4.273438 13.9375 4.300781 13.875 4.269531 13.832031 L 3.273438 12.21875 L 3.445312 12.109375 L 4.441406 13.722656 C 4.46875 13.765625 4.542969 13.773438 4.601562 13.730469 C 4.660156 13.691406 4.6875 13.625 4.65625 13.582031 L 3.664062 11.96875 L 3.832031 11.859375 L 4.828125 13.472656 C 4.855469 13.515625 4.933594 13.523438 4.988281 13.480469 C 5.046875 13.441406 5.074219 13.375 5.042969 13.335938 L 4.050781 11.722656 L 4.222656 11.613281 L 5.214844 13.226562 C 5.242188 13.265625 5.320312 13.273438 5.378906 13.234375 C 5.4375 13.191406 5.460938 13.128906 5.429688 13.085938 L 4.4375 11.472656 L 4.609375 11.363281 L 5.601562 12.976562 C 5.632812 13.019531 5.707031 13.027344 5.765625 12.984375 C 5.824219 12.945312 5.847656 12.878906 5.820312 12.835938 L 4.828125 11.226562 L 4.996094 11.117188 L 5.988281 12.726562 C 6.019531 12.769531 6.09375 12.777344 6.152344 12.738281 C 6.210938 12.695312 6.234375 12.628906 6.207031 12.589844 L 5.214844 10.976562 L 5.382812 10.867188 L 6.375 12.480469 C 6.40625 12.519531 6.480469 12.527344 6.539062 12.488281 C 6.597656 12.445312 6.621094 12.382812 6.59375 12.339844 L 5.601562 10.730469 L 5.773438 10.621094 L 6.761719 12.230469 C 6.792969 12.273438 6.867188 12.28125 6.925781 12.238281 C 6.984375 12.199219 7.007812 12.132812 6.980469 12.09375 L 5.988281 10.480469 L 6.175781 10.363281 L 7.148438 11.992188 C 7.175781 12.03125 7.25 12.035156 7.308594 11.996094 C 7.367188 11.953125 7.390625 11.886719 7.363281 11.847656 L 6.394531 10.222656 L 6.484375 10.167969 L 6.171875 9.925781 C 6.144531 9.902344 5.960938 9.746094 5.679688 9.492188 Z M 5.679688 9.492188 "/>
<path style=" stroke:none;fill-rule:nonzero;fill:rgb(30%,30%,30%);fill-opacity:1;" d="M 7.472656 11.601562 C 7.542969 11.71875 7.71875 11.738281 7.878906 11.632812 C 7.972656 11.570312 8.042969 11.484375 8.070312 11.398438 L 6.648438 10.292969 Z M 7.472656 11.601562 "/>
<path style=" stroke:none;fill-rule:nonzero;fill:rgb(30%,30%,30%);fill-opacity:1;" d="M 10.152344 9.910156 L 9.226562 8.4375 L 9.472656 8.28125 L 10.402344 9.746094 C 10.476562 9.863281 10.652344 9.882812 10.8125 9.777344 C 10.972656 9.667969 11.066406 9.484375 10.992188 9.367188 L 10.0625 7.90625 L 10.304688 7.75 L 11.234375 9.210938 C 11.308594 9.328125 11.503906 9.335938 11.664062 9.230469 C 11.824219 9.125 11.898438 8.949219 11.824219 8.832031 L 10.898438 7.371094 L 11.230469 7.15625 L 12.160156 8.617188 C 12.234375 8.734375 12.425781 8.742188 12.585938 8.636719 C 12.746094 8.53125 12.824219 8.355469 12.75 8.238281 L 11.820312 6.78125 L 12.066406 6.625 L 12.988281 8.085938 C 13.0625 8.203125 13.257812 8.210938 13.417969 8.101562 C 13.582031 7.996094 13.652344 7.824219 13.578125 7.707031 L 12.65625 6.246094 L 12.902344 6.089844 L 13.824219 7.550781 C 13.894531 7.667969 14.089844 7.675781 14.25 7.570312 C 14.414062 7.460938 14.484375 7.289062 14.414062 7.171875 L 13.492188 5.710938 L 13.734375 5.554688 L 14.617188 7.042969 C 14.691406 7.15625 14.882812 7.164062 15.046875 7.058594 C 15.207031 6.953125 15.257812 6.792969 15.183594 6.675781 L 14.054688 4.800781 C 14.035156 4.769531 13.980469 4.6875 13.980469 4.6875 C 13.867188 4.492188 13.554688 4.472656 13.289062 4.640625 L 7.835938 8.136719 L 10.15625 10.003906 C 10.152344 9.972656 10.167969 9.933594 10.152344 9.910156 Z M 10.152344 9.910156 "/>
<path style=" stroke:none;fill-rule:nonzero;fill:rgb(30%,30%,30%);fill-opacity:1;" d="M 7.175781 9.507812 C 7.136719 9.339844 7.214844 9.164062 7.367188 9.089844 C 7.234375 9.152344 7.148438 9.292969 7.15625 9.445312 C 7.164062 9.597656 7.261719 9.726562 7.402344 9.773438 L 7.394531 9.765625 C 7.285156 9.726562 7.203125 9.628906 7.175781 9.507812 Z M 7.175781 9.507812 "/>
<path style=" stroke:none;fill-rule:nonzero;fill:rgb(30%,30%,30%);fill-opacity:1;" d="M 8.214844 9.074219 L 8.460938 8.917969 L 9.386719 10.390625 C 9.457031 10.507812 9.652344 10.515625 9.8125 10.410156 C 9.9375 10.328125 10.011719 10.203125 10.003906 10.097656 L 7.679688 8.226562 L 5.867188 9.390625 C 6.148438 9.640625 6.328125 9.800781 6.359375 9.820312 L 6.671875 10.0625 L 6.730469 10.023438 L 6.835938 10.191406 L 8.257812 11.296875 C 8.277344 11.230469 8.277344 11.171875 8.246094 11.121094 L 7.402344 9.773438 C 7.25 9.722656 7.148438 9.574219 7.152344 9.410156 C 7.160156 9.242188 7.269531 9.101562 7.421875 9.0625 C 7.578125 9.019531 7.738281 9.09375 7.816406 9.234375 C 7.898438 9.378906 7.878906 9.558594 7.765625 9.679688 L 8.550781 10.925781 C 8.625 11.042969 8.816406 11.050781 8.976562 10.945312 C 9.019531 10.917969 9.054688 10.882812 9.089844 10.84375 C 8.78125 10.609375 8.519531 10.410156 8.355469 10.289062 C 8.300781 10.246094 8.460938 10.136719 8.476562 10.117188 L 9.167969 10.628906 C 9.164062 10.601562 9.15625 10.570312 9.140625 10.546875 Z M 8.214844 9.074219 "/>
</g>
</g>
</svg>
