<?xml version="1.0" encoding="UTF-8"?>
<svg xmlns="http://www.w3.org/2000/svg" xmlns:xlink="http://www.w3.org/1999/xlink" width="11px" height="6px" viewBox="0 0 11 6" version="1.1">
<g id="surface1">
<path style=" stroke:none;fill-rule:nonzero;fill:rgb(30%,30%,30%);fill-opacity:1;" d="M 9.253906 2.34375 C 9.019531 2.34375 8.785156 2.394531 8.570312 2.492188 L 7.953125 1.488281 L 8.15625 1.492188 L 8.15625 0.367188 C 7.652344 0.367188 7.449219 0.589844 7.367188 0.753906 L 6.066406 0.0273438 C 5.957031 -0.0351562 5.820312 0.0117188 5.761719 0.125 L 5.699219 0.246094 C 5.640625 0.363281 5.683594 0.507812 5.792969 0.570312 L 6.480469 0.949219 C 4.042969 1.265625 3.941406 2.078125 3.855469 2.015625 C 3.460938 1.742188 1.730469 1.714844 1.730469 1.714844 L 1.730469 2.128906 C 2.183594 2.058594 2.605469 2.15625 2.953125 2.386719 C 2.949219 2.394531 2.941406 2.398438 2.9375 2.402344 L 2.714844 2.65625 C 2.054688 2.191406 1.179688 2.253906 0.585938 2.808594 C -0.0078125 3.363281 -0.167969 4.269531 0.199219 5.011719 C 0.5625 5.753906 1.359375 6.140625 2.132812 5.953125 C 2.910156 5.765625 3.464844 5.054688 3.484375 4.21875 L 3.859375 4.171875 C 3.929688 4.324219 5.402344 4.601562 6.714844 4.464844 C 7.082031 4.429688 7.183594 3.945312 7.183594 3.945312 L 7.265625 1.632812 L 7.300781 1.492188 L 8.105469 2.800781 C 7.472656 3.382812 7.328125 4.359375 7.761719 5.113281 C 8.195312 5.871094 9.082031 6.191406 9.871094 5.882812 C 10.65625 5.570312 11.117188 4.710938 10.964844 3.84375 C 10.816406 2.976562 10.09375 2.34375 9.253906 2.34375 Z M 2.765625 3.488281 C 2.808594 3.558594 2.84375 3.636719 2.875 3.714844 L 2.527344 3.757812 Z M 1.746094 5.441406 C 1.238281 5.441406 0.78125 5.109375 0.609375 4.609375 C 0.433594 4.109375 0.578125 3.546875 0.964844 3.203125 C 1.355469 2.859375 1.90625 2.804688 2.347656 3.070312 L 1.574219 3.945312 C 1.484375 4.050781 1.492188 4.210938 1.589844 4.308594 L 1.652344 4.371094 C 1.726562 4.441406 1.828125 4.457031 1.917969 4.417969 L 2.949219 4.285156 C 2.894531 4.941406 2.371094 5.441406 1.746094 5.441406 Z M 3.414062 3.648438 C 3.355469 3.4375 3.257812 3.242188 3.132812 3.070312 L 3.359375 2.8125 C 3.367188 2.804688 3.371094 2.796875 3.375 2.789062 C 3.546875 3.011719 3.679688 3.285156 3.761719 3.601562 Z M 9.230469 5.441406 C 8.738281 5.441406 8.296875 5.128906 8.109375 4.652344 C 7.925781 4.171875 8.035156 3.625 8.386719 3.261719 L 9.015625 4.289062 C 9.097656 4.421875 9.265625 4.460938 9.394531 4.375 C 9.523438 4.289062 9.558594 4.109375 9.476562 3.976562 L 8.859375 2.964844 C 9.3125 2.808594 9.8125 2.953125 10.128906 3.324219 C 10.449219 3.695312 10.53125 4.230469 10.335938 4.691406 C 10.140625 5.148438 9.707031 5.441406 9.230469 5.441406 Z M 9.230469 5.441406 "/>
</g>
</svg>
