<?xml version="1.0" encoding="UTF-8"?>
<svg xmlns="http://www.w3.org/2000/svg" xmlns:xlink="http://www.w3.org/1999/xlink" width="10px" height="11px" viewBox="0 0 10 11" version="1.1">
<g id="surface1">
<path style=" stroke:none;fill-rule:nonzero;fill:rgb(30%,30%,30%);fill-opacity:1;" d="M 3.359375 4.210938 C 3.359375 4.210938 2.191406 2.269531 3.058594 1.464844 C 3.683594 0.882812 4.140625 1.363281 4.542969 1.347656 C 4.945312 1.332031 5.429688 -0.0234375 6.847656 0 C 8.730469 0.0351562 8.464844 1.363281 8.632812 1.363281 C 8.964844 1.363281 8.976562 1.113281 9.398438 1.234375 C 10.828125 1.636719 9.265625 4.011719 9.132812 4.109375 C 9.011719 4.199219 9.800781 4.046875 9.816406 4.980469 C 9.828125 5.671875 9.082031 5.753906 9.082031 5.753906 C 9.082031 5.753906 8.867188 6.230469 8.964844 6.527344 C 9.085938 6.878906 9.132812 7.398438 8.898438 7.710938 C 8.664062 8.023438 8.761719 8.074219 8.765625 8.453125 C 8.78125 9.570312 9.050781 9.847656 9.050781 9.847656 L 8.714844 9.898438 C 8.714844 9.898438 8.28125 9.257812 8.265625 8.945312 C 8.25 8.632812 8.28125 8.484375 8.28125 8.484375 C 8.28125 8.484375 7.964844 8.929688 7.863281 8.945312 C 7.765625 8.960938 7.964844 9.273438 7.796875 9.785156 C 7.628906 10.292969 7.613281 10.34375 7.746094 10.605469 C 7.882812 10.867188 8.066406 11 8.066406 11 L 7.582031 11 C 7.582031 11 7.039062 10.222656 6.996094 9.949219 C 6.945312 9.617188 7.011719 9.042969 7.011719 9.042969 L 3.742188 8.894531 C 3.742188 8.894531 3.574219 9.175781 3.476562 9.371094 C 3.375 9.570312 3.441406 9.800781 3.441406 9.800781 L 3.023438 9.800781 C 3.023438 9.800781 3.097656 9.085938 3.308594 8.878906 C 3.324219 8.863281 1.773438 8.648438 1.773438 8.648438 C 1.773438 8.648438 1.890625 9.453125 1.753906 9.898438 C 1.621094 10.34375 1.238281 10.851562 1.238281 10.851562 L 0.804688 10.851562 C 0.804688 10.851562 1.1875 10.492188 1.1875 10.359375 C 1.1875 9.949219 0.90625 9.191406 0.972656 8.796875 C 0.992188 8.675781 1 8.554688 1.003906 8.433594 C 1.003906 8.433594 0.53125 8.113281 0.605469 7.726562 C 0.722656 7.121094 0.988281 6.660156 0.988281 5.855469 C 1 5.9375 0.0234375 6.242188 0.00390625 5.164062 C -0.0117188 4.339844 0.972656 4.308594 0.972656 4.308594 C 0.972656 4.308594 1.722656 4.242188 2.941406 4.175781 C 3.113281 4.167969 3.359375 4.210938 3.359375 4.210938 Z M 3.359375 4.210938 "/>
</g>
</svg>
