<?xml version="1.0" encoding="UTF-8" standalone="no"?>
<!-- Created with Inkscape (http://www.inkscape.org/) -->

<svg
   xmlns:dc="http://purl.org/dc/elements/1.1/"
   xmlns:cc="http://creativecommons.org/ns#"
   xmlns:rdf="http://www.w3.org/1999/02/22-rdf-syntax-ns#"
   xmlns:svg="http://www.w3.org/2000/svg"
   xmlns="http://www.w3.org/2000/svg"
   xmlns:xlink="http://www.w3.org/1999/xlink"
   xmlns:sodipodi="http://sodipodi.sourceforge.net/DTD/sodipodi-0.dtd"
   xmlns:inkscape="http://www.inkscape.org/namespaces/inkscape"
   width="30px"
   height="30px"
   version="1.1"
   id="svg8"
   inkscape:version="0.92.4 5da689c313, 2019-01-14"
   sodipodi:docname="container.svg">
  <defs
     id="defs2" />
  <sodipodi:namedview
     id="base"
     pagecolor="#ffffff"
     bordercolor="#666666"
     borderopacity="1.0"
     inkscape:pageopacity="0.0"
     inkscape:pageshadow="2"
     inkscape:zoom="13.049334"
     inkscape:cx="18.679046"
     inkscape:cy="12.165829"
     inkscape:document-units="px"
     inkscape:current-layer="layer1"
     showgrid="false"
     inkscape:snap-page="false"
     units="px"
     inkscape:window-width="1884"
     inkscape:window-height="1061"
     inkscape:window-x="0"
     inkscape:window-y="0"
     inkscape:window-maximized="1"
     fit-margin-top="0"
     fit-margin-left="0"
     fit-margin-right="0"
     fit-margin-bottom="0" />
  <metadata
     id="metadata5">
    <rdf:RDF>
      <cc:Work
         rdf:about="">
        <dc:format>image/svg+xml</dc:format>
        <dc:type
           rdf:resource="http://purl.org/dc/dcmitype/StillImage" />
        <dc:title></dc:title>
      </cc:Work>
    </rdf:RDF>
  </metadata>
    <circle
       style="color:#000000;clip-rule:nonzero;display:inline;overflow:visible;visibility:visible;opacity:1;isolation:auto;mix-blend-mode:normal;color-interpolation:sRGB;color-interpolation-filters:linearRGB;solid-color:#000000;solid-opacity:1;vector-effect:none;fill:#ffffff;fill-opacity:1;fill-rule:evenodd;stroke:#808080;stroke-width:1;stroke-linecap:butt;stroke-linejoin:miter;stroke-miterlimit:4;stroke-dasharray:none;stroke-dashoffset:0;stroke-opacity:1;marker:none;color-rendering:auto;image-rendering:auto;shape-rendering:auto;text-rendering:auto;enable-background:accumulate"
       id="path815"
       cx="15"
       cy="15"
       r="14.5" />
<g transform="translate(6,7)"><g id="surface1">
<path style=" stroke:none;fill-rule:nonzero;fill:rgb(30%,30%,30%);fill-opacity:1;" d="M 9.699219 14.894531 L 7.210938 9.871094 C 9.652344 9.375 9.574219 7.082031 9.425781 6.074219 C 9.320312 5.351562 6.984375 5.5625 6.714844 5.5625 C 6.449219 5.5625 5.992188 5.027344 5.457031 4.886719 C 4.921875 4.742188 1.792969 4.847656 1.609375 4.867188 C 1.429688 4.886719 0.0273438 5.125 0.140625 5.902344 C 0.457031 8.0625 1.460938 9.085938 2.769531 9.5625 L 0.0351562 14.449219 C -0.03125 14.570312 0.0195312 14.71875 0.144531 14.78125 C 0.269531 14.84375 0.425781 14.796875 0.492188 14.679688 L 3.265625 9.71875 C 3.421875 9.757812 3.582031 9.792969 3.742188 9.820312 L 2.664062 15.3125 C 2.636719 15.445312 2.730469 15.574219 2.871094 15.597656 C 3.011719 15.621094 3.144531 15.535156 3.171875 15.402344 L 4.253906 9.894531 C 4.523438 9.921875 4.796875 9.941406 5.074219 9.953125 L 6.214844 15.511719 C 6.230469 15.597656 6.296875 15.667969 6.382812 15.699219 C 6.472656 15.726562 6.566406 15.707031 6.636719 15.652344 C 6.707031 15.59375 6.738281 15.503906 6.722656 15.417969 L 5.601562 9.96875 C 5.816406 9.96875 6.027344 9.96875 6.238281 9.96875 C 6.394531 9.964844 6.539062 9.957031 6.675781 9.945312 L 9.230469 15.101562 C 9.289062 15.222656 9.445312 15.277344 9.574219 15.21875 C 9.703125 15.160156 9.757812 15.015625 9.699219 14.894531 Z M 4.367188 9.398438 C 4.367188 9.398438 3.453125 8.933594 3.347656 8.15625 C 3.242188 7.382812 3.367188 6.886719 3.070312 6.632812 C 2.773438 6.382812 2.085938 6.382812 1.589844 6.21875 C 0.960938 6.011719 1.042969 5.621094 1.265625 5.542969 C 1.648438 5.40625 4.636719 5.308594 5.3125 5.496094 C 5.992188 5.6875 6.25 6.128906 6.535156 6.136719 C 6.820312 6.148438 8.464844 6.113281 8.605469 6.171875 C 8.851562 6.28125 9.0625 6.851562 8.851562 7.644531 C 8.613281 8.554688 8.136719 9.039062 7.191406 9.355469 C 6.855469 9.46875 4.367188 9.398438 4.367188 9.398438 Z M 13.902344 14.40625 L 13.902344 5.171875 L 16.992188 5.171875 L 16.152344 0 L 11 0 L 10.0625 5.171875 L 13.214844 5.171875 L 13.214844 14.40625 C 11.523438 14.445312 10.199219 14.785156 10.199219 15.203125 C 10.199219 15.640625 11.691406 16 13.53125 16 C 15.375 16 16.867188 15.640625 16.867188 15.203125 C 16.867188 14.789062 15.570312 14.453125 13.902344 14.40625 Z M 13.902344 14.40625 "/>
</g>
</g>
</svg>
