<?xml version="1.0" encoding="UTF-8"?>
<svg xmlns="http://www.w3.org/2000/svg" xmlns:xlink="http://www.w3.org/1999/xlink" width="11px" height="10px" viewBox="0 0 11 10" version="1.1">
<g id="surface1">
<path style=" stroke:none;fill-rule:nonzero;fill:rgb(30%,30%,30%);fill-opacity:1;" d="M 6.273438 9.308594 L 4.664062 6.167969 C 6.246094 5.859375 6.195312 4.425781 6.097656 3.796875 C 6.03125 3.347656 4.519531 3.476562 4.34375 3.476562 C 4.171875 3.476562 3.875 3.144531 3.53125 3.054688 C 3.183594 2.960938 1.160156 3.03125 1.042969 3.042969 C 0.925781 3.054688 0.0195312 3.203125 0.0898438 3.691406 C 0.292969 5.039062 0.945312 5.679688 1.792969 5.976562 L 0.0234375 9.03125 C -0.0195312 9.105469 0.0117188 9.199219 0.09375 9.238281 C 0.175781 9.277344 0.277344 9.25 0.320312 9.175781 L 2.113281 6.074219 C 2.214844 6.097656 2.316406 6.121094 2.421875 6.136719 L 1.722656 9.570312 C 1.707031 9.652344 1.765625 9.734375 1.859375 9.75 C 1.949219 9.765625 2.035156 9.710938 2.050781 9.625 L 2.75 6.183594 C 2.925781 6.203125 3.105469 6.214844 3.285156 6.222656 L 4.019531 9.695312 C 4.03125 9.75 4.074219 9.792969 4.128906 9.8125 C 4.1875 9.828125 4.25 9.816406 4.296875 9.78125 C 4.339844 9.746094 4.359375 9.691406 4.347656 9.636719 L 3.625 6.230469 C 3.761719 6.230469 3.898438 6.230469 4.035156 6.230469 C 4.136719 6.230469 4.230469 6.222656 4.320312 6.214844 L 5.972656 9.4375 C 6.011719 9.515625 6.109375 9.546875 6.195312 9.511719 C 6.277344 9.476562 6.3125 9.386719 6.273438 9.308594 Z M 2.828125 5.875 C 2.828125 5.875 2.234375 5.582031 2.167969 5.097656 C 2.097656 4.613281 2.179688 4.304688 1.988281 4.144531 C 1.796875 3.988281 1.351562 3.988281 1.03125 3.886719 C 0.621094 3.757812 0.675781 3.515625 0.820312 3.464844 C 1.066406 3.378906 3 3.316406 3.4375 3.4375 C 3.875 3.554688 4.042969 3.832031 4.226562 3.835938 C 4.414062 3.839844 5.476562 3.820312 5.566406 3.859375 C 5.730469 3.925781 5.863281 4.28125 5.730469 4.777344 C 5.574219 5.347656 5.265625 5.648438 4.65625 5.847656 C 4.4375 5.917969 2.828125 5.875 2.828125 5.875 Z M 8.996094 9.003906 L 8.996094 3.234375 L 10.996094 3.234375 L 10.453125 0 L 7.117188 0 L 6.511719 3.234375 L 8.550781 3.234375 L 8.550781 9.003906 C 7.457031 9.027344 6.597656 9.242188 6.597656 9.5 C 6.597656 9.777344 7.566406 10 8.757812 10 C 9.949219 10 10.914062 9.777344 10.914062 9.5 C 10.914062 9.242188 10.074219 9.03125 8.996094 9.003906 Z M 8.996094 9.003906 "/>
</g>
</svg>
