<?xml version="1.0" encoding="UTF-8" standalone="no"?>
<!-- Created with Inkscape (http://www.inkscape.org/) -->

<svg
   xmlns:dc="http://purl.org/dc/elements/1.1/"
   xmlns:cc="http://creativecommons.org/ns#"
   xmlns:rdf="http://www.w3.org/1999/02/22-rdf-syntax-ns#"
   xmlns:svg="http://www.w3.org/2000/svg"
   xmlns="http://www.w3.org/2000/svg"
   xmlns:xlink="http://www.w3.org/1999/xlink"
   xmlns:sodipodi="http://sodipodi.sourceforge.net/DTD/sodipodi-0.dtd"
   xmlns:inkscape="http://www.inkscape.org/namespaces/inkscape"
   width="30px"
   height="30px"
   version="1.1"
   id="svg8"
   inkscape:version="0.92.4 5da689c313, 2019-01-14"
   sodipodi:docname="container.svg">
  <defs
     id="defs2" />
  <sodipodi:namedview
     id="base"
     pagecolor="#ffffff"
     bordercolor="#666666"
     borderopacity="1.0"
     inkscape:pageopacity="0.0"
     inkscape:pageshadow="2"
     inkscape:zoom="13.049334"
     inkscape:cx="18.679046"
     inkscape:cy="12.165829"
     inkscape:document-units="px"
     inkscape:current-layer="layer1"
     showgrid="false"
     inkscape:snap-page="false"
     units="px"
     inkscape:window-width="1884"
     inkscape:window-height="1061"
     inkscape:window-x="0"
     inkscape:window-y="0"
     inkscape:window-maximized="1"
     fit-margin-top="0"
     fit-margin-left="0"
     fit-margin-right="0"
     fit-margin-bottom="0" />
  <metadata
     id="metadata5">
    <rdf:RDF>
      <cc:Work
         rdf:about="">
        <dc:format>image/svg+xml</dc:format>
        <dc:type
           rdf:resource="http://purl.org/dc/dcmitype/StillImage" />
        <dc:title></dc:title>
      </cc:Work>
    </rdf:RDF>
  </metadata>
    <circle
       style="color:#000000;clip-rule:nonzero;display:inline;overflow:visible;visibility:visible;opacity:1;isolation:auto;mix-blend-mode:normal;color-interpolation:sRGB;color-interpolation-filters:linearRGB;solid-color:#000000;solid-opacity:1;vector-effect:none;fill:#808080;fill-opacity:1;fill-rule:evenodd;stroke:#ffffff;stroke-width:1;stroke-linecap:butt;stroke-linejoin:miter;stroke-miterlimit:4;stroke-dasharray:none;stroke-dashoffset:0;stroke-opacity:1;marker:none;color-rendering:auto;image-rendering:auto;shape-rendering:auto;text-rendering:auto;enable-background:accumulate"
       id="path815"
       cx="15"
       cy="15"
       r="14.5" />
<g transform="translate(6,6)"><g id="surface1">
<path style=" stroke:none;fill-rule:nonzero;fill:#FFFFFF;fill-opacity:1;" d="M 8.152344 12.820312 L 3.261719 2.542969 C 3.050781 2.105469 2.734375 1.757812 2.367188 1.570312 C 1.945312 1.355469 1.488281 1.347656 1.042969 1.554688 C 0.210938 1.941406 -0.195312 2.878906 0.0898438 3.738281 C 0.109375 3.792969 0.148438 3.835938 0.199219 3.855469 C 0.253906 3.878906 0.3125 3.875 0.363281 3.851562 L 0.542969 3.769531 C 0.628906 3.726562 0.675781 3.628906 0.644531 3.535156 C 0.464844 2.957031 0.742188 2.339844 1.296875 2.082031 C 1.570312 1.953125 1.839844 1.957031 2.097656 2.085938 C 2.347656 2.21875 2.574219 2.464844 2.726562 2.789062 L 7.523438 12.863281 C 7.675781 12.832031 7.835938 12.8125 7.992188 12.8125 C 8.046875 12.8125 8.101562 12.816406 8.152344 12.820312 Z M 8.152344 12.820312 "/>
<path style=" stroke:none;fill-rule:nonzero;fill:#FFFFFF;fill-opacity:1;" d="M 17 11.144531 L 16.753906 10.617188 L 9.800781 13.753906 C 9.914062 13.917969 10.003906 14.089844 10.066406 14.277344 Z M 17 11.144531 "/>
<path style=" stroke:none;fill-rule:nonzero;fill:#FFFFFF;fill-opacity:1;" d="M 7.992188 16.992188 C 6.863281 16.992188 5.945312 16.089844 5.945312 14.972656 C 5.945312 13.855469 6.863281 12.953125 7.992188 12.953125 C 9.125 12.953125 10.042969 13.855469 10.042969 14.972656 C 10.042969 16.089844 9.125 16.992188 7.992188 16.992188 Z M 7.992188 13.4375 C 7.132812 13.4375 6.4375 14.125 6.4375 14.972656 C 6.4375 15.820312 7.132812 16.507812 7.992188 16.507812 C 8.855469 16.507812 9.550781 15.820312 9.550781 14.972656 C 9.550781 14.125 8.851562 13.4375 7.992188 13.4375 Z M 7.992188 13.4375 "/>
<path style=" stroke:none;fill-rule:nonzero;fill:#FFFFFF;fill-opacity:1;" d="M 12.695312 3.6875 L 6.226562 6.53125 L 9.109375 12.910156 L 15.578125 10.066406 Z M 11.972656 10.898438 L 11.164062 9.292969 L 10.390625 9.636719 L 10.527344 7.308594 L 12.375 8.714844 L 11.761719 9.023438 L 12.511719 10.65625 Z M 11.972656 10.898438 "/>
<path style=" stroke:none;fill-rule:nonzero;fill:#FFFFFF;fill-opacity:1;" d="M 8.132812 0.0078125 L 3.917969 1.859375 L 5.796875 6.015625 L 10.011719 4.164062 Z M 7.648438 4.765625 L 7.003906 3.480469 L 6.382812 3.757812 L 6.492188 1.894531 L 7.96875 3.019531 L 7.480469 3.265625 L 8.078125 4.574219 Z M 7.648438 4.765625 "/>
</g>
</g>
</svg>
