<?xml version="1.0" encoding="UTF-8" standalone="no"?>
<!-- Created with Inkscape (http://www.inkscape.org/) -->

<svg
   xmlns:dc="http://purl.org/dc/elements/1.1/"
   xmlns:cc="http://creativecommons.org/ns#"
   xmlns:rdf="http://www.w3.org/1999/02/22-rdf-syntax-ns#"
   xmlns:svg="http://www.w3.org/2000/svg"
   xmlns="http://www.w3.org/2000/svg"
   xmlns:xlink="http://www.w3.org/1999/xlink"
   xmlns:sodipodi="http://sodipodi.sourceforge.net/DTD/sodipodi-0.dtd"
   xmlns:inkscape="http://www.inkscape.org/namespaces/inkscape"
   width="30px"
   height="30px"
   version="1.1"
   id="svg8"
   inkscape:version="0.92.4 5da689c313, 2019-01-14"
   sodipodi:docname="container.svg">
  <defs
     id="defs2" />
  <sodipodi:namedview
     id="base"
     pagecolor="#ffffff"
     bordercolor="#666666"
     borderopacity="1.0"
     inkscape:pageopacity="0.0"
     inkscape:pageshadow="2"
     inkscape:zoom="13.049334"
     inkscape:cx="18.679046"
     inkscape:cy="12.165829"
     inkscape:document-units="px"
     inkscape:current-layer="layer1"
     showgrid="false"
     inkscape:snap-page="false"
     units="px"
     inkscape:window-width="1884"
     inkscape:window-height="1061"
     inkscape:window-x="0"
     inkscape:window-y="0"
     inkscape:window-maximized="1"
     fit-margin-top="0"
     fit-margin-left="0"
     fit-margin-right="0"
     fit-margin-bottom="0" />
  <metadata
     id="metadata5">
    <rdf:RDF>
      <cc:Work
         rdf:about="">
        <dc:format>image/svg+xml</dc:format>
        <dc:type
           rdf:resource="http://purl.org/dc/dcmitype/StillImage" />
        <dc:title></dc:title>
      </cc:Work>
    </rdf:RDF>
  </metadata>
    <circle
       style="color:#000000;clip-rule:nonzero;display:inline;overflow:visible;visibility:visible;opacity:1;isolation:auto;mix-blend-mode:normal;color-interpolation:sRGB;color-interpolation-filters:linearRGB;solid-color:#000000;solid-opacity:1;vector-effect:none;fill:#808080;fill-opacity:1;fill-rule:evenodd;stroke:#ffffff;stroke-width:1;stroke-linecap:butt;stroke-linejoin:miter;stroke-miterlimit:4;stroke-dasharray:none;stroke-dashoffset:0;stroke-opacity:1;marker:none;color-rendering:auto;image-rendering:auto;shape-rendering:auto;text-rendering:auto;enable-background:accumulate"
       id="path815"
       cx="15"
       cy="15"
       r="14.5" />
<g transform="translate(7,7)"><g id="surface1">
<path style=" stroke:none;fill-rule:nonzero;fill:#FFFFFF;fill-opacity:1;" d="M 7.550781 4.640625 C 7.53125 4.636719 7.507812 4.632812 7.488281 4.628906 C 6.679688 4.496094 5.855469 4.496094 5.046875 4.636719 C 5.035156 4.636719 5.023438 4.640625 5.011719 4.640625 C 2.152344 5.148438 0 7.324219 0 9.9375 C 0 12.246094 1.683594 14.21875 4.046875 14.992188 L 8.511719 14.992188 C 10.878906 14.21875 12.5625 12.246094 12.5625 9.9375 C 12.5625 7.328125 10.410156 5.148438 7.550781 4.640625 Z M 7.550781 4.640625 "/>
<path style=" stroke:none;fill-rule:nonzero;fill:#FFFFFF;fill-opacity:1;" d="M 12.914062 0.0078125 C 11.355469 0.0078125 10.066406 0.785156 9.859375 1.792969 L 7.511719 1.792969 L 7.511719 0.171875 L 5.042969 0.171875 L 5.042969 1.792969 L 4.242188 1.792969 L 4.242188 2.359375 L 5.042969 2.359375 C 5.042969 2.359375 5.035156 4.042969 5.046875 4.066406 C 5.453125 4 5.867188 3.964844 6.28125 3.964844 C 6.6875 3.964844 7.097656 3.996094 7.5 4.0625 L 7.5 2.359375 L 9.859375 2.359375 C 10.066406 3.367188 11.355469 4.144531 12.914062 4.144531 C 14.621094 4.144531 16 3.21875 16 2.074219 C 16 0.933594 14.621094 0.0078125 12.914062 0.0078125 Z M 12.914062 0.0078125 "/>
</g>
</g>
</svg>
