<?xml version="1.0" encoding="UTF-8"?>
<svg xmlns="http://www.w3.org/2000/svg" xmlns:xlink="http://www.w3.org/1999/xlink" width="11px" height="11px" viewBox="0 0 11 11" version="1.1">
<g id="surface1">
<path style=" stroke:none;fill-rule:nonzero;fill:rgb(30%,30%,30%);fill-opacity:1;" d="M 6.984375 4.039062 C 5.746094 2.808594 4.082031 2.457031 3.277344 3.257812 C 2.472656 4.058594 2.828125 5.714844 4.066406 6.945312 C 5.304688 8.179688 6.964844 8.53125 7.769531 7.730469 C 8.574219 6.925781 8.21875 5.273438 6.984375 4.039062 Z M 6.984375 4.039062 "/>
<path style=" stroke:none;fill-rule:nonzero;fill:rgb(30%,30%,30%);fill-opacity:1;" d="M 9.46875 8.742188 L 8.019531 8.011719 L 8.804688 9.386719 C 8.847656 9.464844 8.828125 9.558594 8.761719 9.609375 C 8.691406 9.664062 8.59375 9.65625 8.53125 9.597656 C 8.519531 9.585938 8.511719 9.574219 8.503906 9.558594 L 7.851562 8.417969 L 7.875 11 C 8.027344 10.949219 8.171875 10.941406 8.300781 10.9375 C 8.515625 10.925781 8.660156 10.917969 8.828125 10.75 C 8.996094 10.582031 9.003906 10.4375 9.015625 10.226562 C 9.027344 9.976562 9.042969 9.671875 9.355469 9.359375 C 9.667969 9.050781 9.976562 9.035156 10.222656 9.023438 C 10.4375 9.011719 10.578125 9.003906 10.75 8.835938 C 10.917969 8.667969 10.925781 8.523438 10.9375 8.3125 C 10.945312 8.183594 10.949219 8.039062 11 7.886719 L 8.5 7.863281 L 9.625 8.429688 C 9.710938 8.472656 9.746094 8.578125 9.703125 8.664062 C 9.65625 8.75 9.554688 8.785156 9.46875 8.742188 Z M 9.46875 8.742188 "/>
<path style=" stroke:none;fill-rule:nonzero;fill:rgb(30%,30%,30%);fill-opacity:1;" d="M 2.46875 1.410156 C 2.558594 1.371094 2.660156 1.410156 2.703125 1.496094 L 3.148438 2.433594 L 3.125 0 C 2.972656 0.0507812 2.828125 0.0585938 2.699219 0.0664062 C 2.484375 0.0742188 2.34375 0.0820312 2.175781 0.25 C 2.003906 0.417969 1.996094 0.5625 1.984375 0.773438 C 1.972656 1.019531 1.957031 1.328125 1.644531 1.640625 C 1.335938 1.949219 1.027344 1.964844 0.777344 1.976562 C 0.5625 1.988281 0.421875 1.996094 0.253906 2.164062 C 0.0820312 2.335938 0.0742188 2.476562 0.0625 2.6875 C 0.0585938 2.816406 0.0507812 2.960938 0 3.117188 L 2.554688 3.136719 L 1.570312 2.609375 C 1.554688 2.601562 1.542969 2.589844 1.53125 2.578125 C 1.46875 2.519531 1.460938 2.421875 1.511719 2.355469 C 1.566406 2.285156 1.660156 2.261719 1.734375 2.304688 L 3.035156 3 L 2.386719 1.644531 C 2.347656 1.558594 2.382812 1.453125 2.46875 1.410156 Z M 2.46875 1.410156 "/>
</g>
</svg>
