<?xml version="1.0" encoding="UTF-8" standalone="no"?>
<!-- Created with Inkscape (http://www.inkscape.org/) -->

<svg
   xmlns:dc="http://purl.org/dc/elements/1.1/"
   xmlns:cc="http://creativecommons.org/ns#"
   xmlns:rdf="http://www.w3.org/1999/02/22-rdf-syntax-ns#"
   xmlns:svg="http://www.w3.org/2000/svg"
   xmlns="http://www.w3.org/2000/svg"
   xmlns:xlink="http://www.w3.org/1999/xlink"
   xmlns:sodipodi="http://sodipodi.sourceforge.net/DTD/sodipodi-0.dtd"
   xmlns:inkscape="http://www.inkscape.org/namespaces/inkscape"
   width="30px"
   height="30px"
   version="1.1"
   id="svg8"
   inkscape:version="0.92.4 5da689c313, 2019-01-14"
   sodipodi:docname="container.svg">
  <defs
     id="defs2" />
  <sodipodi:namedview
     id="base"
     pagecolor="#ffffff"
     bordercolor="#666666"
     borderopacity="1.0"
     inkscape:pageopacity="0.0"
     inkscape:pageshadow="2"
     inkscape:zoom="13.049334"
     inkscape:cx="18.679046"
     inkscape:cy="12.165829"
     inkscape:document-units="px"
     inkscape:current-layer="layer1"
     showgrid="false"
     inkscape:snap-page="false"
     units="px"
     inkscape:window-width="1884"
     inkscape:window-height="1061"
     inkscape:window-x="0"
     inkscape:window-y="0"
     inkscape:window-maximized="1"
     fit-margin-top="0"
     fit-margin-left="0"
     fit-margin-right="0"
     fit-margin-bottom="0" />
  <metadata
     id="metadata5">
    <rdf:RDF>
      <cc:Work
         rdf:about="">
        <dc:format>image/svg+xml</dc:format>
        <dc:type
           rdf:resource="http://purl.org/dc/dcmitype/StillImage" />
        <dc:title></dc:title>
      </cc:Work>
    </rdf:RDF>
  </metadata>
    <circle
       style="color:#000000;clip-rule:nonzero;display:inline;overflow:visible;visibility:visible;opacity:1;isolation:auto;mix-blend-mode:normal;color-interpolation:sRGB;color-interpolation-filters:linearRGB;solid-color:#000000;solid-opacity:1;vector-effect:none;fill:#ffffff;fill-opacity:1;fill-rule:evenodd;stroke:#808080;stroke-width:1;stroke-linecap:butt;stroke-linejoin:miter;stroke-miterlimit:4;stroke-dasharray:none;stroke-dashoffset:0;stroke-opacity:1;marker:none;color-rendering:auto;image-rendering:auto;shape-rendering:auto;text-rendering:auto;enable-background:accumulate"
       id="path815"
       cx="15"
       cy="15"
       r="14.5" />
<g transform="translate(7,7)"><g id="surface1">
<path style=" stroke:none;fill-rule:nonzero;fill:rgb(30%,30%,30%);fill-opacity:1;" d="M 13.355469 7.269531 C 13.566406 7.328125 13.785156 7.191406 13.839844 6.96875 C 13.894531 6.746094 13.765625 6.519531 13.550781 6.464844 L 11.855469 6.011719 L 13.535156 4.949219 C 13.722656 4.832031 13.785156 4.574219 13.671875 4.378906 C 13.558594 4.183594 13.3125 4.121094 13.125 4.238281 L 11.410156 5.324219 L 11.820312 3.507812 C 11.871094 3.285156 11.738281 3.0625 11.523438 3.007812 C 11.308594 2.957031 11.09375 3.09375 11.042969 3.320312 L 10.457031 5.929688 L 8.335938 7.269531 L 8.335938 4.492188 L 10.148438 2.632812 C 10.304688 2.472656 10.308594 2.207031 10.15625 2.042969 C 10 1.878906 9.75 1.878906 9.59375 2.039062 L 8.335938 3.328125 L 8.335938 1.347656 C 8.335938 1.199219 8.257812 1.0625 8.136719 0.988281 C 8.011719 0.914062 7.859375 0.914062 7.738281 0.988281 C 7.613281 1.0625 7.539062 1.199219 7.539062 1.347656 L 7.539062 3.320312 L 6.273438 2.023438 C 6.117188 1.859375 5.867188 1.863281 5.710938 2.027344 C 5.558594 2.191406 5.558594 2.453125 5.71875 2.613281 L 7.539062 4.484375 L 7.539062 7.339844 L 5.226562 5.839844 L 4.667969 3.246094 C 4.621094 3.023438 4.40625 2.882812 4.191406 2.933594 C 3.976562 2.984375 3.84375 3.207031 3.890625 3.429688 L 4.277344 5.226562 L 2.667969 4.183594 C 2.480469 4.0625 2.234375 4.121094 2.121094 4.316406 C 2.003906 4.511719 2.0625 4.765625 2.246094 4.886719 L 3.851562 5.925781 L 2.128906 6.367188 C 1.914062 6.417969 1.785156 6.644531 1.835938 6.867188 C 1.890625 7.089844 2.105469 7.226562 2.316406 7.171875 L 4.800781 6.539062 L 7.117188 8.042969 L 4.796875 9.507812 L 2.332031 8.851562 C 2.117188 8.796875 1.902344 8.929688 1.847656 9.152344 C 1.792969 9.375 1.921875 9.601562 2.136719 9.65625 L 3.84375 10.113281 L 2.222656 11.136719 C 2.035156 11.257812 1.972656 11.511719 2.085938 11.707031 C 2.199219 11.90625 2.445312 11.96875 2.632812 11.847656 L 4.246094 10.828125 L 3.839844 12.628906 C 3.789062 12.851562 3.921875 13.074219 4.136719 13.128906 C 4.347656 13.179688 4.5625 13.042969 4.613281 12.820312 L 5.203125 10.222656 L 7.539062 8.746094 L 7.539062 11.445312 L 5.734375 13.300781 C 5.578125 13.460938 5.574219 13.722656 5.730469 13.886719 C 5.882812 14.050781 6.132812 14.050781 6.289062 13.890625 L 7.539062 12.609375 L 7.539062 14.664062 C 7.539062 14.8125 7.613281 14.949219 7.738281 15.023438 C 7.859375 15.097656 8.011719 15.097656 8.136719 15.023438 C 8.257812 14.949219 8.335938 14.8125 8.335938 14.664062 L 8.335938 12.566406 L 9.609375 13.875 C 9.683594 13.949219 9.78125 13.992188 9.886719 13.992188 C 9.886719 13.992188 9.890625 13.992188 9.890625 13.992188 C 10.050781 13.992188 10.195312 13.890625 10.253906 13.734375 C 10.316406 13.578125 10.28125 13.398438 10.164062 13.28125 L 8.335938 11.402344 L 8.335938 8.832031 L 10.464844 10.210938 L 11.019531 12.789062 C 11.066406 13.011719 11.28125 13.152344 11.496094 13.101562 C 11.707031 13.054688 11.84375 12.832031 11.796875 12.605469 L 11.410156 10.824219 L 13.082031 11.90625 C 13.269531 12.027344 13.511719 11.964844 13.628906 11.773438 C 13.746094 11.578125 13.6875 11.320312 13.5 11.199219 L 11.796875 10.09375 L 13.53125 9.652344 C 13.742188 9.597656 13.875 9.375 13.824219 9.152344 C 13.769531 8.929688 13.554688 8.792969 13.34375 8.847656 L 10.847656 9.480469 L 8.636719 8.050781 L 10.902344 6.617188 Z M 13.355469 7.269531 "/>
<path style=" stroke:none;fill-rule:nonzero;fill:rgb(30%,30%,30%);fill-opacity:1;" d="M 11.148438 0.671875 C 11.710938 0.671875 12.261719 0.789062 12.777344 1.019531 C 13.785156 1.46875 14.585938 2.304688 15.015625 3.359375 C 15.238281 3.894531 15.347656 4.472656 15.347656 5.058594 L 15.347656 10.941406 C 15.347656 11.527344 15.238281 12.105469 15.015625 12.640625 C 14.585938 13.695312 13.785156 14.53125 12.777344 14.980469 C 12.261719 15.210938 11.710938 15.328125 11.148438 15.328125 L 4.851562 15.328125 C 4.289062 15.328125 3.738281 15.210938 3.222656 14.980469 C 2.214844 14.53125 1.414062 13.695312 0.984375 12.640625 C 0.761719 12.105469 0.652344 11.527344 0.652344 10.941406 L 0.652344 5.058594 C 0.652344 4.472656 0.761719 3.894531 0.984375 3.359375 C 1.414062 2.304688 2.214844 1.46875 3.222656 1.019531 C 3.738281 0.789062 4.289062 0.671875 4.851562 0.671875 L 11.148438 0.671875 M 11.148438 0 L 4.851562 0 C 2.1875 0 0.0078125 2.277344 0.0078125 5.058594 L 0.0078125 10.941406 C 0.0078125 13.722656 2.1875 16 4.851562 16 L 11.148438 16 C 13.8125 16 15.992188 13.722656 15.992188 10.941406 L 15.992188 5.058594 C 15.992188 2.277344 13.8125 0 11.148438 0 Z M 11.148438 0 "/>
</g>
</g>
</svg>
