<?xml version="1.0" encoding="UTF-8" standalone="no"?>
<!-- Created with Inkscape (http://www.inkscape.org/) -->

<svg
   xmlns:dc="http://purl.org/dc/elements/1.1/"
   xmlns:cc="http://creativecommons.org/ns#"
   xmlns:rdf="http://www.w3.org/1999/02/22-rdf-syntax-ns#"
   xmlns:svg="http://www.w3.org/2000/svg"
   xmlns="http://www.w3.org/2000/svg"
   xmlns:xlink="http://www.w3.org/1999/xlink"
   xmlns:sodipodi="http://sodipodi.sourceforge.net/DTD/sodipodi-0.dtd"
   xmlns:inkscape="http://www.inkscape.org/namespaces/inkscape"
   width="30px"
   height="30px"
   version="1.1"
   id="svg8"
   inkscape:version="0.92.4 5da689c313, 2019-01-14"
   sodipodi:docname="container.svg">
  <defs
     id="defs2" />
  <sodipodi:namedview
     id="base"
     pagecolor="#ffffff"
     bordercolor="#666666"
     borderopacity="1.0"
     inkscape:pageopacity="0.0"
     inkscape:pageshadow="2"
     inkscape:zoom="13.049334"
     inkscape:cx="18.679046"
     inkscape:cy="12.165829"
     inkscape:document-units="px"
     inkscape:current-layer="layer1"
     showgrid="false"
     inkscape:snap-page="false"
     units="px"
     inkscape:window-width="1884"
     inkscape:window-height="1061"
     inkscape:window-x="0"
     inkscape:window-y="0"
     inkscape:window-maximized="1"
     fit-margin-top="0"
     fit-margin-left="0"
     fit-margin-right="0"
     fit-margin-bottom="0" />
  <metadata
     id="metadata5">
    <rdf:RDF>
      <cc:Work
         rdf:about="">
        <dc:format>image/svg+xml</dc:format>
        <dc:type
           rdf:resource="http://purl.org/dc/dcmitype/StillImage" />
        <dc:title></dc:title>
      </cc:Work>
    </rdf:RDF>
  </metadata>
    <circle
       style="color:#000000;clip-rule:nonzero;display:inline;overflow:visible;visibility:visible;opacity:1;isolation:auto;mix-blend-mode:normal;color-interpolation:sRGB;color-interpolation-filters:linearRGB;solid-color:#000000;solid-opacity:1;vector-effect:none;fill:#ffffff;fill-opacity:1;fill-rule:evenodd;stroke:#808080;stroke-width:1;stroke-linecap:butt;stroke-linejoin:miter;stroke-miterlimit:4;stroke-dasharray:none;stroke-dashoffset:0;stroke-opacity:1;marker:none;color-rendering:auto;image-rendering:auto;shape-rendering:auto;text-rendering:auto;enable-background:accumulate"
       id="path815"
       cx="15"
       cy="15"
       r="14.5" />
<g transform="translate(7,6)"><g id="surface1">
<path style=" stroke:none;fill-rule:nonzero;fill:rgb(30%,30%,30%);fill-opacity:1;" d="M 8.277344 13.140625 C 8.371094 12.226562 8.480469 9.222656 9.351562 7.691406 C 9.773438 6.949219 8.703125 4.214844 8.703125 4.214844 C 8.703125 4.214844 8.867188 4.140625 8.992188 3.5625 L 7.933594 3.582031 L 7.53125 3.59375 L 7.429688 3.972656 C 7.40625 4.066406 7.160156 4.886719 6.304688 4.925781 C 6.292969 4.925781 6.285156 4.925781 6.273438 4.925781 L 6.238281 4.925781 C 6.226562 4.925781 6.214844 4.925781 6.203125 4.925781 C 5.347656 4.886719 5.105469 4.066406 5.082031 3.976562 L 4.984375 3.589844 L 2.882812 3.550781 L 0.00390625 5.832031 L 1.882812 8.917969 L 2.625 8.597656 L 2.625 14.292969 L 6.253906 14.238281 L 8.054688 14.265625 C 8.164062 13.808594 8.253906 13.398438 8.277344 13.140625 Z M 8.277344 13.140625 "/>
<path style=" stroke:none;fill-rule:nonzero;fill:rgb(30%,30%,30%);fill-opacity:1;" d="M 9.210938 0.546875 L 10.21875 0.0234375 C 10.21875 0.0234375 10.289062 1.964844 11.933594 1.984375 C 13.578125 2.007812 13.765625 0 13.765625 0 L 14.636719 0.503906 C 14.636719 0.503906 14.308594 3.195312 14.589844 3.675781 L 14.871094 4.15625 C 14.871094 4.15625 13.929688 6.96875 14.164062 7.554688 C 14.3125 7.917969 14.941406 8.742188 15.199219 12.917969 C 15.339844 15.167969 15.996094 16.707031 15.996094 16.707031 C 15.996094 16.707031 12.238281 17.28125 7.730469 16.824219 C 7.730469 16.824219 8.574219 14.015625 8.671875 13.101562 C 8.765625 12.1875 8.875 9.183594 9.742188 7.65625 C 10.164062 6.914062 9.09375 4.175781 9.09375 4.175781 C 9.09375 4.175781 9.398438 4.039062 9.492188 2.714844 C 9.585938 1.390625 9.210938 0.546875 9.210938 0.546875 Z M 9.210938 0.546875 "/>
</g>
</g>
</svg>
