<?xml version="1.0" encoding="UTF-8" standalone="no"?>
<!-- Created with Inkscape (http://www.inkscape.org/) -->

<svg
   xmlns:dc="http://purl.org/dc/elements/1.1/"
   xmlns:cc="http://creativecommons.org/ns#"
   xmlns:rdf="http://www.w3.org/1999/02/22-rdf-syntax-ns#"
   xmlns:svg="http://www.w3.org/2000/svg"
   xmlns="http://www.w3.org/2000/svg"
   xmlns:xlink="http://www.w3.org/1999/xlink"
   xmlns:sodipodi="http://sodipodi.sourceforge.net/DTD/sodipodi-0.dtd"
   xmlns:inkscape="http://www.inkscape.org/namespaces/inkscape"
   width="30px"
   height="30px"
   version="1.1"
   id="svg8"
   inkscape:version="0.92.4 5da689c313, 2019-01-14"
   sodipodi:docname="container.svg">
  <defs
     id="defs2" />
  <sodipodi:namedview
     id="base"
     pagecolor="#ffffff"
     bordercolor="#666666"
     borderopacity="1.0"
     inkscape:pageopacity="0.0"
     inkscape:pageshadow="2"
     inkscape:zoom="13.049334"
     inkscape:cx="18.679046"
     inkscape:cy="12.165829"
     inkscape:document-units="px"
     inkscape:current-layer="layer1"
     showgrid="false"
     inkscape:snap-page="false"
     units="px"
     inkscape:window-width="1884"
     inkscape:window-height="1061"
     inkscape:window-x="0"
     inkscape:window-y="0"
     inkscape:window-maximized="1"
     fit-margin-top="0"
     fit-margin-left="0"
     fit-margin-right="0"
     fit-margin-bottom="0" />
  <metadata
     id="metadata5">
    <rdf:RDF>
      <cc:Work
         rdf:about="">
        <dc:format>image/svg+xml</dc:format>
        <dc:type
           rdf:resource="http://purl.org/dc/dcmitype/StillImage" />
        <dc:title></dc:title>
      </cc:Work>
    </rdf:RDF>
  </metadata>
    <circle
       style="color:#000000;clip-rule:nonzero;display:inline;overflow:visible;visibility:visible;opacity:1;isolation:auto;mix-blend-mode:normal;color-interpolation:sRGB;color-interpolation-filters:linearRGB;solid-color:#000000;solid-opacity:1;vector-effect:none;fill:#ffffff;fill-opacity:1;fill-rule:evenodd;stroke:#808080;stroke-width:1;stroke-linecap:butt;stroke-linejoin:miter;stroke-miterlimit:4;stroke-dasharray:none;stroke-dashoffset:0;stroke-opacity:1;marker:none;color-rendering:auto;image-rendering:auto;shape-rendering:auto;text-rendering:auto;enable-background:accumulate"
       id="path815"
       cx="15"
       cy="15"
       r="14.5" />
<g transform="translate(6,6)"><g id="surface1">
<path style=" stroke:none;fill-rule:nonzero;fill:rgb(30%,30%,30%);fill-opacity:1;" d="M 13.929688 15.09375 L 13.929688 5.304688 L 17 5.304688 L 16.167969 0.00390625 L 11.050781 0.00390625 L 10.121094 5.304688 L 13.25 5.304688 L 13.25 15.09375 C 11.570312 15.132812 10.253906 15.480469 10.253906 15.90625 C 10.253906 16.359375 11.738281 16.726562 13.566406 16.726562 C 15.394531 16.726562 16.875 16.359375 16.875 15.90625 C 16.875 15.484375 15.585938 15.140625 13.929688 15.09375 Z M 13.929688 15.09375 "/>
<path style=" stroke:none;fill-rule:nonzero;fill:rgb(30%,30%,30%);fill-opacity:1;" d="M 9.539062 5.878906 L 6.753906 5.878906 L 6.753906 5.617188 L 6.253906 5.617188 L 6.253906 5.878906 L 3.570312 5.878906 C 2.628906 5.882812 1.867188 6.625 1.863281 7.542969 L 1.867188 7.773438 C 1.941406 7.859375 2.570312 7.949219 2.6875 7.96875 C 2.839844 7.988281 4.476562 8.085938 6.277344 8.132812 L 6.277344 11.980469 C 6.277344 11.980469 6.296875 14.179688 5.574219 15.09375 C 5.550781 15.125 5.515625 15.144531 5.480469 15.148438 C 4.800781 15.25 4.289062 15.453125 4.234375 15.746094 C 3.621094 15.644531 2.503906 15.464844 2.058594 15.441406 C 1.46875 15.410156 0.921875 15.933594 0.519531 16.316406 C 0.472656 16.359375 0.429688 16.402344 0.386719 16.441406 C 0.289062 16.535156 0.148438 16.65625 0 16.78125 L 0 16.996094 C 0.191406 16.835938 0.375 16.679688 0.503906 16.558594 C 0.546875 16.519531 0.589844 16.476562 0.636719 16.433594 C 1.015625 16.070312 1.53125 15.578125 2.046875 15.601562 C 2.492188 15.625 3.652344 15.816406 4.246094 15.914062 C 4.363281 16.277344 5.011719 16.8125 6.472656 16.84375 C 8.09375 16.875 8.636719 16.246094 8.613281 15.898438 C 8.589844 15.535156 8.0625 15.261719 7.320312 15.144531 C 7.28125 15.140625 7.25 15.117188 7.226562 15.089844 C 6.464844 14.101562 6.621094 12.105469 6.628906 11.988281 C 6.628906 11.984375 6.628906 11.980469 6.628906 11.976562 L 6.628906 8.140625 C 8.011719 8.121094 11.117188 7.976562 11.191406 7.714844 L 11.246094 7.542969 C 11.246094 6.625 10.480469 5.882812 9.539062 5.878906 Z M 9.539062 5.878906 "/>
</g>
</g>
</svg>
