<?xml version="1.0" encoding="UTF-8" standalone="no"?>
<!-- Created with Inkscape (http://www.inkscape.org/) -->

<svg
   xmlns:dc="http://purl.org/dc/elements/1.1/"
   xmlns:cc="http://creativecommons.org/ns#"
   xmlns:rdf="http://www.w3.org/1999/02/22-rdf-syntax-ns#"
   xmlns:svg="http://www.w3.org/2000/svg"
   xmlns="http://www.w3.org/2000/svg"
   xmlns:xlink="http://www.w3.org/1999/xlink"
   xmlns:sodipodi="http://sodipodi.sourceforge.net/DTD/sodipodi-0.dtd"
   xmlns:inkscape="http://www.inkscape.org/namespaces/inkscape"
   width="30px"
   height="30px"
   version="1.1"
   id="svg8"
   inkscape:version="0.92.4 5da689c313, 2019-01-14"
   sodipodi:docname="container.svg">
  <defs
     id="defs2" />
  <sodipodi:namedview
     id="base"
     pagecolor="#ffffff"
     bordercolor="#666666"
     borderopacity="1.0"
     inkscape:pageopacity="0.0"
     inkscape:pageshadow="2"
     inkscape:zoom="13.049334"
     inkscape:cx="18.679046"
     inkscape:cy="12.165829"
     inkscape:document-units="px"
     inkscape:current-layer="layer1"
     showgrid="false"
     inkscape:snap-page="false"
     units="px"
     inkscape:window-width="1884"
     inkscape:window-height="1061"
     inkscape:window-x="0"
     inkscape:window-y="0"
     inkscape:window-maximized="1"
     fit-margin-top="0"
     fit-margin-left="0"
     fit-margin-right="0"
     fit-margin-bottom="0" />
  <metadata
     id="metadata5">
    <rdf:RDF>
      <cc:Work
         rdf:about="">
        <dc:format>image/svg+xml</dc:format>
        <dc:type
           rdf:resource="http://purl.org/dc/dcmitype/StillImage" />
        <dc:title></dc:title>
      </cc:Work>
    </rdf:RDF>
  </metadata>
    <circle
       style="color:#000000;clip-rule:nonzero;display:inline;overflow:visible;visibility:visible;opacity:1;isolation:auto;mix-blend-mode:normal;color-interpolation:sRGB;color-interpolation-filters:linearRGB;solid-color:#000000;solid-opacity:1;vector-effect:none;fill:#ffffff;fill-opacity:1;fill-rule:evenodd;stroke:#808080;stroke-width:1;stroke-linecap:butt;stroke-linejoin:miter;stroke-miterlimit:4;stroke-dasharray:none;stroke-dashoffset:0;stroke-opacity:1;marker:none;color-rendering:auto;image-rendering:auto;shape-rendering:auto;text-rendering:auto;enable-background:accumulate"
       id="path815"
       cx="15"
       cy="15"
       r="14.5" />
<g transform="translate(10,7)"><g id="surface1">
<path style=" stroke:none;fill-rule:nonzero;fill:rgb(30%,30%,30%);fill-opacity:1;" d="M 8.648438 0 L 1.351562 0 C 0.605469 0 0 0.578125 0 1.289062 L 0 15.179688 L 0.621094 15.179688 L 0.621094 15.632812 C 0.621094 15.835938 0.792969 16 1.007812 16 L 2.058594 16 C 2.273438 16 2.445312 15.835938 2.445312 15.632812 L 2.445312 15.179688 L 7.5 15.179688 L 7.5 15.632812 C 7.5 15.835938 7.675781 16 7.886719 16 L 8.941406 16 C 9.15625 16 9.328125 15.835938 9.328125 15.632812 L 9.328125 15.179688 L 10 15.179688 L 10 1.289062 C 10 0.578125 9.394531 0 8.648438 0 Z M 3.988281 1.359375 C 5.011719 0.949219 6.199219 1.226562 6.910156 2.046875 C 7.617188 2.863281 7.683594 4.027344 7.066406 4.914062 C 6.453125 5.796875 5.300781 6.195312 4.234375 5.886719 C 3.171875 5.578125 2.441406 4.644531 2.441406 3.582031 C 2.4375 2.609375 3.046875 1.734375 3.988281 1.359375 Z M 5.019531 13.910156 C 2.941406 13.910156 1.261719 12.304688 1.261719 10.324219 C 1.261719 8.34375 2.941406 6.738281 5.019531 6.738281 C 7.09375 6.738281 8.777344 8.34375 8.777344 10.324219 C 8.777344 12.304688 7.09375 13.910156 5.019531 13.910156 Z M 4.96875 1.652344 C 3.855469 1.652344 2.949219 2.515625 2.949219 3.578125 C 2.949219 4.644531 3.855469 5.503906 4.96875 5.503906 C 6.082031 5.503906 6.988281 4.644531 6.988281 3.578125 C 6.988281 3.066406 6.777344 2.578125 6.398438 2.214844 C 6.019531 1.855469 5.503906 1.652344 4.96875 1.652344 Z M 5.433594 4.566406 C 4.972656 4.761719 4.433594 4.640625 4.109375 4.277344 C 3.785156 3.910156 3.75 3.386719 4.023438 2.984375 C 4.300781 2.582031 4.816406 2.402344 5.300781 2.539062 C 5.78125 2.675781 6.109375 3.097656 6.109375 3.578125 C 6.113281 4.007812 5.84375 4.394531 5.433594 4.566406 Z M 5.0625 7.207031 C 3.277344 7.207031 1.828125 8.585938 1.828125 10.289062 C 1.828125 11.996094 3.277344 13.375 5.0625 13.375 C 6.847656 13.375 8.292969 11.996094 8.292969 10.289062 C 8.292969 8.585938 6.847656 7.207031 5.0625 7.207031 Z M 5.0625 12.140625 C 3.988281 12.140625 3.121094 11.3125 3.121094 10.289062 C 3.121094 9.269531 3.988281 8.441406 5.0625 8.441406 C 6.132812 8.441406 7 9.269531 7 10.289062 C 7 11.3125 6.132812 12.140625 5.0625 12.140625 Z M 5.0625 12.140625 "/>
</g>
</g>
</svg>
