<?xml version="1.0" encoding="UTF-8"?>
<svg xmlns="http://www.w3.org/2000/svg" xmlns:xlink="http://www.w3.org/1999/xlink" width="10px" height="11px" viewBox="0 0 10 11" version="1.1">
<g id="surface1">
<path style=" stroke:none;fill-rule:nonzero;fill:rgb(30%,30%,30%);fill-opacity:1;" d="M 5 0 C 4.996094 0 0.00390625 3.132812 0.00390625 3.132812 L 0.00390625 11 L 9.996094 11 L 9.996094 3.132812 C 9.996094 3.132812 5.003906 0 5 0 Z M 5.019531 1.164062 C 5.523438 1.164062 5.933594 1.570312 5.933594 2.066406 C 5.933594 2.566406 5.523438 2.972656 5.019531 2.972656 C 4.515625 2.972656 4.105469 2.566406 4.105469 2.066406 C 4.105469 1.570312 4.515625 1.164062 5.019531 1.164062 Z M 5.03125 9.757812 C 5.03125 9.757812 1.191406 8.054688 1.191406 5.957031 C 1.191406 5.953125 1.191406 5.945312 1.191406 5.941406 C 1.195312 4.894531 2.054688 4.050781 3.109375 4.050781 C 4.167969 4.050781 5.023438 4.894531 5.03125 5.941406 C 5.035156 4.894531 5.890625 4.050781 6.949219 4.050781 C 8.007812 4.050781 8.863281 4.894531 8.867188 5.941406 C 8.867188 5.945312 8.867188 5.953125 8.867188 5.957031 C 8.867188 8.054688 5.03125 9.757812 5.03125 9.757812 Z M 5.03125 9.757812 "/>
</g>
</svg>
