<?xml version="1.0" encoding="UTF-8"?>
<svg xmlns="http://www.w3.org/2000/svg" xmlns:xlink="http://www.w3.org/1999/xlink" width="10px" height="10px" viewBox="0 0 10 10" version="1.1">
<g id="surface1">
<path style=" stroke:none;fill-rule:nonzero;fill:rgb(30%,30%,30%);fill-opacity:1;" d="M 9.734375 9.996094 L 1.402344 9.996094 C 0.617188 9.996094 0 9.363281 0 8.554688 L 0 8.277344 C 0 7.46875 0.617188 6.832031 1.402344 6.832031 L 9.78125 6.832031 C 9.894531 6.832031 9.984375 6.929688 9.984375 7.050781 C 9.984375 7.171875 9.894531 7.269531 9.78125 7.269531 L 1.402344 7.269531 C 0.835938 7.269531 0.40625 7.703125 0.40625 8.277344 L 0.40625 8.554688 C 0.40625 9.128906 0.835938 9.5625 1.402344 9.5625 L 9.734375 9.5625 C 9.847656 9.5625 9.9375 9.660156 9.9375 9.78125 C 9.9375 9.898438 9.847656 9.996094 9.734375 9.996094 Z M 9.734375 9.996094 "/>
<path style=" stroke:none;fill-rule:nonzero;fill:rgb(30%,30%,30%);fill-opacity:1;" d="M 9.441406 9.226562 L 1.453125 9.226562 C 1.042969 9.226562 0.710938 8.867188 0.710938 8.425781 C 0.710938 7.984375 1.042969 7.628906 1.453125 7.625 L 9.394531 7.625 C 9.394531 7.625 9.019531 8.757812 9.441406 9.226562 Z M 9.441406 9.226562 "/>
<path style=" stroke:none;fill-rule:nonzero;fill:rgb(30%,30%,30%);fill-opacity:1;" d="M 9.746094 3.167969 L 1.410156 3.167969 C 0.625 3.167969 0.0078125 2.53125 0.0078125 1.722656 L 0.0078125 1.445312 C 0.0078125 0.636719 0.625 0.00390625 1.410156 0.00390625 L 9.789062 0.00390625 C 9.902344 0.00390625 9.992188 0.101562 9.992188 0.21875 C 9.992188 0.339844 9.902344 0.4375 9.789062 0.4375 L 1.410156 0.4375 C 0.84375 0.4375 0.414062 0.871094 0.414062 1.445312 L 0.414062 1.722656 C 0.414062 2.296875 0.84375 2.730469 1.410156 2.730469 L 9.746094 2.730469 C 9.859375 2.730469 9.949219 2.828125 9.949219 2.949219 C 9.949219 3.070312 9.859375 3.167969 9.746094 3.167969 Z M 9.746094 3.167969 "/>
<path style=" stroke:none;fill-rule:nonzero;fill:rgb(30%,30%,30%);fill-opacity:1;" d="M 9.453125 2.398438 L 1.464844 2.398438 C 1.054688 2.394531 0.71875 2.039062 0.71875 1.59375 C 0.71875 1.152344 1.054688 0.796875 1.464844 0.792969 L 9.40625 0.792969 C 9.40625 0.792969 9.03125 1.925781 9.453125 2.398438 Z M 9.453125 2.398438 "/>
<path style=" stroke:none;fill-rule:nonzero;fill:rgb(30%,30%,30%);fill-opacity:1;" d="M 9.75 6.570312 L 1.417969 6.570312 C 0.632812 6.570312 0.015625 5.9375 0.015625 5.128906 L 0.015625 4.847656 C 0.015625 4.039062 0.632812 3.40625 1.417969 3.40625 L 9.796875 3.40625 C 9.910156 3.40625 10 3.503906 10 3.625 C 10 3.746094 9.910156 3.84375 9.796875 3.84375 L 1.417969 3.84375 C 0.851562 3.84375 0.421875 4.273438 0.421875 4.847656 L 0.421875 5.128906 C 0.421875 5.699219 0.851562 6.132812 1.417969 6.132812 L 9.75 6.132812 C 9.863281 6.132812 9.953125 6.230469 9.953125 6.351562 C 9.953125 6.472656 9.863281 6.570312 9.75 6.570312 Z M 9.75 6.570312 "/>
<path style=" stroke:none;fill-rule:nonzero;fill:rgb(30%,30%,30%);fill-opacity:1;" d="M 9.457031 5.800781 L 1.46875 5.800781 C 1.058594 5.796875 0.726562 5.441406 0.726562 5 C 0.726562 4.558594 1.058594 4.199219 1.46875 4.199219 L 9.410156 4.199219 C 9.410156 4.199219 9.035156 5.332031 9.457031 5.800781 Z M 9.457031 5.800781 "/>
</g>
</svg>
