<?xml version="1.0" encoding="UTF-8" standalone="no"?>
<!-- Created with Inkscape (http://www.inkscape.org/) -->

<svg
   xmlns:dc="http://purl.org/dc/elements/1.1/"
   xmlns:cc="http://creativecommons.org/ns#"
   xmlns:rdf="http://www.w3.org/1999/02/22-rdf-syntax-ns#"
   xmlns:svg="http://www.w3.org/2000/svg"
   xmlns="http://www.w3.org/2000/svg"
   xmlns:xlink="http://www.w3.org/1999/xlink"
   xmlns:sodipodi="http://sodipodi.sourceforge.net/DTD/sodipodi-0.dtd"
   xmlns:inkscape="http://www.inkscape.org/namespaces/inkscape"
   width="30px"
   height="30px"
   version="1.1"
   id="svg8"
   inkscape:version="0.92.4 5da689c313, 2019-01-14"
   sodipodi:docname="container.svg">
  <defs
     id="defs2" />
  <sodipodi:namedview
     id="base"
     pagecolor="#ffffff"
     bordercolor="#666666"
     borderopacity="1.0"
     inkscape:pageopacity="0.0"
     inkscape:pageshadow="2"
     inkscape:zoom="13.049334"
     inkscape:cx="18.679046"
     inkscape:cy="12.165829"
     inkscape:document-units="px"
     inkscape:current-layer="layer1"
     showgrid="false"
     inkscape:snap-page="false"
     units="px"
     inkscape:window-width="1884"
     inkscape:window-height="1061"
     inkscape:window-x="0"
     inkscape:window-y="0"
     inkscape:window-maximized="1"
     fit-margin-top="0"
     fit-margin-left="0"
     fit-margin-right="0"
     fit-margin-bottom="0" />
  <metadata
     id="metadata5">
    <rdf:RDF>
      <cc:Work
         rdf:about="">
        <dc:format>image/svg+xml</dc:format>
        <dc:type
           rdf:resource="http://purl.org/dc/dcmitype/StillImage" />
        <dc:title></dc:title>
      </cc:Work>
    </rdf:RDF>
  </metadata>
    <circle
       style="color:#000000;clip-rule:nonzero;display:inline;overflow:visible;visibility:visible;opacity:1;isolation:auto;mix-blend-mode:normal;color-interpolation:sRGB;color-interpolation-filters:linearRGB;solid-color:#000000;solid-opacity:1;vector-effect:none;fill:#808080;fill-opacity:1;fill-rule:evenodd;stroke:#ffffff;stroke-width:1;stroke-linecap:butt;stroke-linejoin:miter;stroke-miterlimit:4;stroke-dasharray:none;stroke-dashoffset:0;stroke-opacity:1;marker:none;color-rendering:auto;image-rendering:auto;shape-rendering:auto;text-rendering:auto;enable-background:accumulate"
       id="path815"
       cx="15"
       cy="15"
       r="14.5" />
<g transform="translate(6,7)"><g id="surface1">
<path style=" stroke:none;fill-rule:evenodd;fill:#FFFFFF;fill-opacity:1;" d="M 3.613281 1.527344 L 3.703125 1.839844 C 3.652344 2.003906 3.652344 2.125 3.699219 2.195312 C 3.742188 2.265625 3.847656 2.3125 4.007812 2.339844 L 4.265625 2.5625 L 5.285156 4.183594 L 5.730469 3.933594 L 10.035156 10.769531 L 9.472656 12.246094 L 7.867188 13.164062 L 6.195312 12.957031 L 1.890625 6.121094 L 2.324219 5.875 L 1.300781 4.25 L 1.21875 3.929688 C 1.269531 3.78125 1.273438 3.671875 1.230469 3.601562 C 1.183594 3.53125 1.074219 3.476562 0.898438 3.4375 L 0.652344 3.214844 L 0.0664062 2.285156 L 0.0234375 2.144531 L 0 1.132812 L 0.144531 0.886719 L 1.695312 0.00390625 L 1.992188 0 L 2.917969 0.496094 L 3.027344 0.597656 Z M 9.898438 12.765625 L 8.382812 13.628906 C 9.375 14.867188 11.402344 16.800781 13.71875 15.648438 C 15.792969 14.613281 14.90625 11.96875 14.070312 9.488281 C 13.578125 8.019531 13.113281 6.628906 13.386719 6.285156 C 13.902344 5.632812 16.113281 7.40625 17 8.160156 L 17 6.027344 C 15.445312 4.960938 13.140625 3.804688 11.976562 5.277344 C 11.15625 6.3125 11.757812 8.105469 12.390625 9.996094 C 13.007812 11.824219 13.660156 13.777344 12.898438 14.15625 C 11.769531 14.71875 10.597656 13.625 9.898438 12.765625 Z M 3.085938 6.535156 L 6.617188 12.144531 L 7.167969 11.828125 L 3.640625 6.222656 Z M 2.832031 5.585938 L 4.78125 4.472656 L 3.851562 3 L 1.902344 4.109375 Z M 3.332031 2.644531 C 3.21875 2.542969 3.140625 2.414062 3.101562 2.273438 L 1.582031 3.140625 C 1.699219 3.238281 1.78125 3.363281 1.820312 3.503906 Z M 0.59375 1.285156 L 0.609375 2.058594 L 1.066406 2.78125 L 3.015625 1.667969 L 2.558594 0.945312 L 1.851562 0.566406 Z M 0.59375 1.285156 "/>
</g>
</g>
</svg>
