<?xml version="1.0" encoding="UTF-8"?>
<svg xmlns="http://www.w3.org/2000/svg" xmlns:xlink="http://www.w3.org/1999/xlink" width="10px" height="7px" viewBox="0 0 10 7" version="1.1">
<g id="surface1">
<path style=" stroke:none;fill-rule:nonzero;fill:rgb(30%,30%,30%);fill-opacity:1;" d="M 9.582031 5.921875 L 9.582031 0.78125 C 9.582031 0.328125 9.265625 0.00390625 8.792969 0 L 1.207031 0 C 0.734375 0.00390625 0.417969 0.328125 0.417969 0.78125 L 0.417969 5.921875 L 0 5.921875 L 0 6.574219 C 0 6.808594 0.238281 7 0.53125 7 L 9.496094 7 C 9.789062 7 10 6.78125 10 6.546875 L 10 5.921875 Z M 0.832031 0.699219 C 0.832031 0.550781 0.949219 0.429688 1.09375 0.429688 L 8.90625 0.429688 C 9.050781 0.429688 9.167969 0.550781 9.167969 0.699219 L 9.167969 5.707031 L 0.832031 5.707031 Z M 1.042969 6.570312 L 0.832031 6.570312 L 0.832031 6.355469 L 1.042969 6.355469 Z M 1.667969 6.570312 L 1.457031 6.570312 L 1.457031 6.355469 L 1.667969 6.355469 Z M 5.832031 6.136719 L 4.167969 6.136719 C 3.925781 6.136719 3.871094 5.921875 3.871094 5.921875 L 6.128906 5.921875 C 6.128906 5.921875 6.074219 6.136719 5.832031 6.136719 Z M 5.832031 6.136719 "/>
</g>
</svg>
