<?xml version="1.0" encoding="UTF-8" standalone="no"?>
<!-- Created with Inkscape (http://www.inkscape.org/) -->

<svg
   xmlns:dc="http://purl.org/dc/elements/1.1/"
   xmlns:cc="http://creativecommons.org/ns#"
   xmlns:rdf="http://www.w3.org/1999/02/22-rdf-syntax-ns#"
   xmlns:svg="http://www.w3.org/2000/svg"
   xmlns="http://www.w3.org/2000/svg"
   xmlns:xlink="http://www.w3.org/1999/xlink"
   xmlns:sodipodi="http://sodipodi.sourceforge.net/DTD/sodipodi-0.dtd"
   xmlns:inkscape="http://www.inkscape.org/namespaces/inkscape"
   width="30px"
   height="30px"
   version="1.1"
   id="svg8"
   inkscape:version="0.92.4 5da689c313, 2019-01-14"
   sodipodi:docname="container.svg">
  <defs
     id="defs2" />
  <sodipodi:namedview
     id="base"
     pagecolor="#ffffff"
     bordercolor="#666666"
     borderopacity="1.0"
     inkscape:pageopacity="0.0"
     inkscape:pageshadow="2"
     inkscape:zoom="13.049334"
     inkscape:cx="18.679046"
     inkscape:cy="12.165829"
     inkscape:document-units="px"
     inkscape:current-layer="layer1"
     showgrid="false"
     inkscape:snap-page="false"
     units="px"
     inkscape:window-width="1884"
     inkscape:window-height="1061"
     inkscape:window-x="0"
     inkscape:window-y="0"
     inkscape:window-maximized="1"
     fit-margin-top="0"
     fit-margin-left="0"
     fit-margin-right="0"
     fit-margin-bottom="0" />
  <metadata
     id="metadata5">
    <rdf:RDF>
      <cc:Work
         rdf:about="">
        <dc:format>image/svg+xml</dc:format>
        <dc:type
           rdf:resource="http://purl.org/dc/dcmitype/StillImage" />
        <dc:title></dc:title>
      </cc:Work>
    </rdf:RDF>
  </metadata>
    <circle
       style="color:#000000;clip-rule:nonzero;display:inline;overflow:visible;visibility:visible;opacity:1;isolation:auto;mix-blend-mode:normal;color-interpolation:sRGB;color-interpolation-filters:linearRGB;solid-color:#000000;solid-opacity:1;vector-effect:none;fill:#ffffff;fill-opacity:1;fill-rule:evenodd;stroke:#808080;stroke-width:1;stroke-linecap:butt;stroke-linejoin:miter;stroke-miterlimit:4;stroke-dasharray:none;stroke-dashoffset:0;stroke-opacity:1;marker:none;color-rendering:auto;image-rendering:auto;shape-rendering:auto;text-rendering:auto;enable-background:accumulate"
       id="path815"
       cx="15"
       cy="15"
       r="14.5" />
<g transform="translate(7,6)"><g id="surface1">
<path style=" stroke:none;fill-rule:nonzero;fill:rgb(30%,30%,30%);fill-opacity:1;" d="M 1.96875 16.109375 L 1.96875 16.710938 L 2.535156 16.710938 L 2.535156 16.109375 Z M 1.96875 16.109375 "/>
<path style=" stroke:none;fill-rule:nonzero;fill:rgb(30%,30%,30%);fill-opacity:1;" d="M 4.828125 3.269531 C 6.203125 5.636719 7.339844 10.65625 8.300781 11.980469 C 8.582031 12.363281 8.992188 12.71875 9.546875 13.054688 C 6.148438 12.390625 5.941406 6.109375 4.828125 3.269531 M 3.097656 0.00390625 C 3.089844 0.0078125 3.082031 0.0117188 3.074219 0.0117188 C 3.53125 0.96875 4.5 3.039062 4.773438 3.90625 C 5.402344 5.921875 6.007812 10.285156 7.402344 11.9375 C 8.226562 12.910156 9.332031 13.589844 10.578125 13.292969 C 9.71875 12.902344 8.957031 12.421875 8.523438 11.824219 C 7.773438 10.792969 6.476562 6.167969 5.683594 4.308594 C 5.191406 3.160156 3.097656 0.00390625 3.097656 0.00390625 Z M 3.097656 0.00390625 "/>
<path style=" stroke:none;fill-rule:nonzero;fill:rgb(30%,30%,30%);fill-opacity:1;" d="M 15.171875 14.894531 C 14.570312 14.546875 12.363281 14.105469 10.578125 13.292969 C 9.882812 13.460938 8.671875 13.433594 7.402344 11.9375 C 6.007812 10.285156 5.402344 5.921875 4.773438 3.90625 C 4.5 3.039062 3.53125 0.96875 3.074219 0.0117188 C 1.214844 0.746094 -0.0585938 2.917969 0.00390625 3.851562 C 0.015625 4.046875 0.21875 4.40625 0.289062 4.59375 C 1.640625 8.265625 1.898438 7.507812 1.988281 15.96875 L 2.472656 15.96875 C 2.496094 14.945312 2.605469 7.847656 3.632812 7.839844 C 4.113281 7.835938 4.230469 9.125 4.386719 9.566406 C 4.949219 11.15625 4.917969 14.894531 6.148438 16.0625 C 7.515625 17.355469 13.605469 17.242188 15.570312 16.097656 C 15.71875 16.007812 16.015625 15.734375 16 15.566406 C 15.972656 15.304688 15.402344 15.03125 15.171875 14.894531 Z M 15.171875 14.894531 "/>
</g>
</g>
</svg>
