<?xml version="1.0" encoding="UTF-8"?>
<svg xmlns="http://www.w3.org/2000/svg" xmlns:xlink="http://www.w3.org/1999/xlink" width="10px" height="10px" viewBox="0 0 10 10" version="1.1">
<g id="surface1">
<path style=" stroke:none;fill-rule:nonzero;fill:rgb(30%,30%,30%);fill-opacity:1;" d="M 8.496094 9.253906 L 8.496094 3.402344 L 6.972656 3.402344 L 6.972656 9.253906 C 6.972656 9.632812 7.257812 9.941406 7.613281 9.941406 L 7.855469 9.941406 C 8.210938 9.941406 8.496094 9.632812 8.496094 9.253906 Z M 7.757812 0 C 7.292969 0 6.835938 0.125 6.429688 0.367188 C 6.058594 0.582031 5.742188 0.886719 5.496094 1.25 L 6.273438 2.265625 L 6.972656 3.179688 L 7.453125 3.167969 L 7.242188 1.589844 L 7.464844 1.5625 L 7.675781 3.164062 L 7.765625 3.164062 L 7.75 0.949219 L 8 0.949219 L 8.011719 3.160156 L 8.523438 3.148438 L 10 1.226562 C 9.488281 0.480469 8.671875 0 7.757812 0 Z M 3.234375 5.976562 C 5.019531 5.976562 6.464844 5.777344 6.464844 5.535156 L 6.464844 4.078125 L 6.433594 4.078125 C 6.210938 3.863281 4.863281 3.699219 3.234375 3.699219 C 1.605469 3.699219 0.257812 3.863281 0.03125 4.078125 L 0 4.078125 L 0 4.128906 C 0 4.136719 0 4.148438 0 4.15625 L 0 5.546875 C 0.0507812 5.785156 1.476562 5.976562 3.234375 5.976562 Z M 3.234375 6.460938 C 1.464844 6.460938 0.03125 6.265625 0 6.023438 L 0 9.554688 C 0 9.800781 1.449219 10 3.234375 10 C 4.992188 10 6.421875 9.804688 6.464844 9.566406 L 6.464844 6.023438 C 6.4375 6.265625 5 6.460938 3.234375 6.460938 Z M 4.828125 7.375 L 4.828125 8.570312 C 4.355469 8.605469 3.8125 8.625 3.234375 8.625 C 2.625 8.625 2.054688 8.601562 1.570312 8.5625 L 1.570312 7.367188 C 2.054688 7.410156 2.625 7.433594 3.234375 7.433594 C 3.8125 7.433594 4.355469 7.410156 4.828125 7.375 Z M 4.828125 7.375 "/>
</g>
</svg>
