<?xml version="1.0" encoding="UTF-8"?>
<svg xmlns="http://www.w3.org/2000/svg" xmlns:xlink="http://www.w3.org/1999/xlink" width="11px" height="9px" viewBox="0 0 11 9" version="1.1">
<g id="surface1">
<path style=" stroke:none;fill-rule:nonzero;fill:rgb(30%,30%,30%);fill-opacity:1;" d="M 0.0117188 6.648438 L 1.308594 2.933594 C 1.339844 2.839844 1.292969 2.738281 1.203125 2.703125 C 1.007812 2.628906 0.878906 2.441406 0.878906 2.230469 L 0.878906 0.691406 C 0.878906 0.3125 1.179688 0.00390625 1.554688 0.00390625 L 9.671875 0.00390625 C 10.402344 0.00390625 10.292969 0.00390625 10.292969 0.460938 L 10.570312 0.460938 L 10.570312 1.371094 L 10.308594 1.371094 C 10.292969 1.824219 10.292969 1.824219 9.671875 1.824219 L 5.9375 1.824219 C 5.882812 1.824219 5.832031 1.847656 5.796875 1.890625 L 5.082031 2.777344 C 5.046875 2.820312 4.96875 3.078125 5.023438 3.304688 C 5.082031 3.53125 5.304688 3.929688 5.304688 3.929688 C 5.304688 3.929688 4.867188 3.851562 4.667969 3.445312 C 4.644531 3.394531 4.628906 3.34375 4.625 3.289062 L 4.574219 2.871094 C 4.527344 2.800781 4.4375 2.773438 4.359375 2.804688 C 4.308594 2.828125 4.269531 2.871094 4.253906 2.925781 L 3.863281 4.167969 C 4.394531 4.183594 5.292969 4.210938 5.539062 4.214844 C 5.640625 4.078125 5.8125 3.507812 5.9375 2.957031 L 5.585938 2.960938 L 6.03125 2.28125 L 10.066406 2.28125 L 9.957031 2.90625 L 6.28125 2.953125 C 5.933594 4.554688 5.699219 4.554688 5.585938 4.554688 C 5.414062 4.554688 4.304688 4.523438 3.757812 4.507812 L 3.046875 6.761719 C 3.023438 6.835938 2.953125 6.886719 2.878906 6.886719 L 0.179688 6.886719 C 0.121094 6.886719 0.0664062 6.859375 0.03125 6.8125 C 0 6.765625 -0.0078125 6.703125 0.0117188 6.648438 Z M 11 6.484375 L 10.714844 6.484375 C 10.667969 7.628906 9.757812 8.546875 8.632812 8.597656 L 8.632812 8.996094 L 8.417969 8.996094 L 8.417969 8.597656 C 7.304688 8.535156 6.410156 7.617188 6.363281 6.484375 L 6.050781 6.484375 L 6.050781 6.375 L 6.359375 6.375 C 6.367188 5.203125 7.277344 4.242188 8.417969 4.179688 L 8.417969 3.863281 L 8.632812 3.863281 L 8.632812 4.179688 C 9.785156 4.226562 10.710938 5.191406 10.71875 6.375 L 11 6.375 Z M 8.632812 4.902344 C 9.398438 4.953125 9.996094 5.59375 10.003906 6.375 L 10.476562 6.375 C 10.46875 5.328125 9.652344 4.472656 8.632812 4.421875 Z M 6.601562 6.375 L 7.074219 6.375 C 7.082031 5.605469 7.664062 4.96875 8.417969 4.90625 L 8.417969 4.425781 C 7.410156 4.488281 6.609375 5.335938 6.601562 6.375 Z M 8.417969 7.871094 C 7.695312 7.808594 7.125 7.21875 7.078125 6.484375 L 6.605469 6.484375 C 6.652344 7.480469 7.4375 8.289062 8.417969 8.351562 Z M 9.429688 6.386719 C 9.429688 5.886719 9.03125 5.480469 8.539062 5.480469 C 8.046875 5.480469 7.648438 5.886719 7.648438 6.386719 C 7.648438 6.886719 8.046875 7.292969 8.539062 7.292969 C 9.03125 7.292969 9.429688 6.886719 9.429688 6.386719 Z M 10.472656 6.484375 L 10 6.484375 C 9.953125 7.230469 9.367188 7.824219 8.632812 7.871094 L 8.632812 8.351562 C 9.625 8.304688 10.425781 7.492188 10.472656 6.484375 Z M 8.539062 5.773438 C 8.21875 5.773438 7.960938 6.035156 7.960938 6.359375 C 7.960938 6.683594 8.21875 6.949219 8.539062 6.949219 C 8.859375 6.949219 9.117188 6.683594 9.117188 6.359375 C 9.117188 6.035156 8.859375 5.773438 8.539062 5.773438 Z M 8.539062 5.773438 "/>
</g>
</svg>
