<?xml version="1.0" encoding="UTF-8"?>
<svg xmlns="http://www.w3.org/2000/svg" xmlns:xlink="http://www.w3.org/1999/xlink" width="11px" height="11px" viewBox="0 0 11 11" version="1.1">
<g id="surface1">
<path style=" stroke:none;fill-rule:nonzero;fill:rgb(30%,30%,30%);fill-opacity:1;" d="M 9.015625 9.765625 L 9.015625 3.429688 L 11 3.429688 L 10.460938 0 L 7.152344 0 L 6.550781 3.429688 L 8.574219 3.429688 L 8.574219 9.765625 C 7.484375 9.792969 6.636719 10.019531 6.636719 10.292969 C 6.636719 10.585938 7.59375 10.824219 8.777344 10.824219 C 9.960938 10.824219 10.917969 10.585938 10.917969 10.292969 C 10.917969 10.019531 10.085938 9.796875 9.015625 9.765625 Z M 9.015625 9.765625 "/>
<path style=" stroke:none;fill-rule:nonzero;fill:rgb(30%,30%,30%);fill-opacity:1;" d="M 6.171875 3.804688 L 4.371094 3.804688 L 4.371094 3.636719 L 4.046875 3.636719 L 4.046875 3.804688 L 2.3125 3.804688 C 1.703125 3.804688 1.207031 4.289062 1.207031 4.882812 L 1.207031 5.027344 C 1.257812 5.085938 1.664062 5.144531 1.738281 5.15625 C 1.835938 5.171875 2.898438 5.230469 4.0625 5.261719 L 4.0625 7.753906 C 4.0625 7.753906 4.074219 9.175781 3.605469 9.765625 C 3.59375 9.785156 3.570312 9.800781 3.546875 9.800781 C 3.105469 9.867188 2.773438 10 2.738281 10.1875 C 2.34375 10.121094 1.621094 10.007812 1.332031 9.992188 C 0.949219 9.972656 0.59375 10.308594 0.335938 10.558594 C 0.304688 10.585938 0.277344 10.613281 0.25 10.636719 C 0.1875 10.699219 0.0976562 10.777344 0 10.859375 L 0 11 C 0.125 10.894531 0.242188 10.792969 0.324219 10.714844 C 0.351562 10.691406 0.382812 10.664062 0.414062 10.632812 C 0.65625 10.398438 0.992188 10.078125 1.324219 10.097656 C 1.613281 10.113281 2.363281 10.234375 2.75 10.296875 C 2.824219 10.53125 3.242188 10.878906 4.1875 10.898438 C 5.238281 10.917969 5.589844 10.511719 5.574219 10.285156 C 5.558594 10.050781 5.214844 9.875 4.738281 9.800781 C 4.710938 9.796875 4.691406 9.78125 4.675781 9.761719 C 4.183594 9.125 4.285156 7.832031 4.289062 7.757812 C 4.289062 7.753906 4.289062 7.75 4.289062 7.75 L 4.289062 5.265625 C 5.183594 5.253906 7.191406 5.160156 7.242188 4.992188 L 7.277344 4.882812 C 7.277344 4.289062 6.78125 3.804688 6.171875 3.804688 Z M 6.171875 3.804688 "/>
</g>
</svg>
