<?xml version="1.0" encoding="UTF-8"?>
<svg xmlns="http://www.w3.org/2000/svg" xmlns:xlink="http://www.w3.org/1999/xlink" width="11px" height="10px" viewBox="0 0 11 10" version="1.1">
<g id="surface1">
<path style=" stroke:none;fill-rule:nonzero;fill:rgb(30%,30%,30%);fill-opacity:1;" d="M 8.398438 1.21875 C 8.398438 1.21875 8.394531 1.222656 8.394531 1.222656 L 5.074219 8.671875 C 4.800781 9.265625 4.347656 9.605469 3.832031 9.605469 L 1.648438 9.605469 C 1.046875 9.605469 0.53125 9.144531 0.539062 8.582031 C 0.546875 8.003906 1.046875 7.585938 1.734375 7.585938 L 3.851562 7.585938 C 4.042969 7.585938 4.214844 7.71875 4.230469 7.894531 C 4.238281 7.992188 4.207031 8.085938 4.136719 8.15625 C 4.070312 8.226562 3.972656 8.265625 3.871094 8.265625 L 1.734375 8.265625 C 1.453125 8.265625 1.265625 8.390625 1.261719 8.589844 C 1.257812 8.777344 1.4375 8.929688 1.636719 8.929688 L 3.832031 8.929688 C 4.042969 8.929688 4.484375 8.597656 4.632812 8.269531 L 8.035156 0.8125 C 8.085938 0.503906 8.046875 0.0273438 7.902344 0 L 4.128906 0 C 4.128906 0 4.128906 0 4.125 0.00390625 C 4.125 0.00390625 0.148438 7.457031 0.0742188 7.863281 C 0.00390625 8.269531 0.00390625 8.675781 0.00390625 8.675781 C 0.0273438 9.011719 0.148438 10.015625 1.332031 10 L 7.339844 10 C 7.34375 10 7.34375 10 7.34375 9.996094 L 10.996094 1.210938 C 10.996094 1.210938 10.996094 1.207031 10.996094 1.207031 C 10.996094 1.207031 10.996094 1.207031 10.992188 1.207031 Z M 8.503906 3.117188 C 8.367188 3.117188 8.253906 3.011719 8.253906 2.878906 C 8.253906 2.75 8.367188 2.644531 8.503906 2.644531 C 8.644531 2.644531 8.757812 2.75 8.757812 2.878906 C 8.757812 3.011719 8.644531 3.117188 8.503906 3.117188 Z M 8.867188 2.238281 C 8.726562 2.238281 8.613281 2.128906 8.613281 2 C 8.613281 1.867188 8.726562 1.761719 8.867188 1.761719 C 9.007812 1.761719 9.121094 1.867188 9.121094 2 C 9.121094 2.128906 9.007812 2.238281 8.867188 2.238281 Z M 9.589844 2.914062 C 9.449219 2.914062 9.335938 2.808594 9.335938 2.675781 C 9.335938 2.546875 9.449219 2.441406 9.589844 2.441406 C 9.730469 2.441406 9.84375 2.546875 9.84375 2.675781 C 9.84375 2.808594 9.730469 2.914062 9.589844 2.914062 Z M 8.144531 4 C 8.003906 4 7.890625 3.890625 7.890625 3.761719 C 7.890625 3.628906 8.003906 3.523438 8.144531 3.523438 C 8.285156 3.523438 8.398438 3.628906 8.398438 3.761719 C 8.398438 3.890625 8.285156 4 8.144531 4 Z M 9.230469 3.796875 C 9.089844 3.796875 8.976562 3.6875 8.976562 3.558594 C 8.976562 3.425781 9.089844 3.320312 9.230469 3.320312 C 9.367188 3.320312 9.480469 3.425781 9.480469 3.558594 C 9.480469 3.6875 9.367188 3.796875 9.230469 3.796875 Z M 7.710938 5.015625 C 7.570312 5.015625 7.457031 4.910156 7.457031 4.777344 C 7.457031 4.648438 7.570312 4.539062 7.710938 4.539062 C 7.847656 4.539062 7.960938 4.648438 7.960938 4.777344 C 7.960938 4.910156 7.847656 5.015625 7.710938 5.015625 Z M 8.792969 4.8125 C 8.65625 4.8125 8.542969 4.707031 8.542969 4.574219 C 8.542969 4.445312 8.65625 4.335938 8.792969 4.335938 C 8.933594 4.335938 9.046875 4.445312 9.046875 4.574219 C 9.046875 4.707031 8.933594 4.8125 8.792969 4.8125 Z M 7.347656 6.101562 C 7.207031 6.101562 7.09375 5.992188 7.09375 5.863281 C 7.09375 5.730469 7.207031 5.625 7.347656 5.625 C 7.488281 5.625 7.601562 5.730469 7.601562 5.863281 C 7.601562 5.992188 7.488281 6.101562 7.347656 6.101562 Z M 8.433594 5.894531 C 8.292969 5.894531 8.179688 5.789062 8.179688 5.660156 C 8.179688 5.527344 8.292969 5.421875 8.433594 5.421875 C 8.574219 5.421875 8.6875 5.527344 8.6875 5.660156 C 8.6875 5.789062 8.574219 5.894531 8.433594 5.894531 Z M 6.695312 7.183594 C 6.554688 7.183594 6.441406 7.078125 6.441406 6.945312 C 6.441406 6.816406 6.554688 6.710938 6.695312 6.710938 C 6.835938 6.710938 6.949219 6.816406 6.949219 6.945312 C 6.949219 7.078125 6.835938 7.183594 6.695312 7.183594 Z M 7.78125 6.980469 C 7.640625 6.980469 7.527344 6.875 7.527344 6.742188 C 7.527344 6.613281 7.640625 6.507812 7.78125 6.507812 C 7.921875 6.507812 8.035156 6.613281 8.035156 6.742188 C 8.035156 6.875 7.921875 6.980469 7.78125 6.980469 Z M 6.261719 8.199219 C 6.121094 8.199219 6.007812 8.09375 6.007812 7.964844 C 6.007812 7.832031 6.121094 7.726562 6.261719 7.726562 C 6.402344 7.726562 6.515625 7.832031 6.515625 7.964844 C 6.515625 8.09375 6.402344 8.199219 6.261719 8.199219 Z M 7.347656 7.996094 C 7.207031 7.996094 7.09375 7.890625 7.09375 7.761719 C 7.09375 7.628906 7.207031 7.523438 7.347656 7.523438 C 7.488281 7.523438 7.601562 7.628906 7.601562 7.761719 C 7.601562 7.890625 7.488281 7.996094 7.347656 7.996094 Z M 5.753906 9.421875 C 5.617188 9.421875 5.503906 9.3125 5.503906 9.183594 C 5.503906 9.050781 5.617188 8.945312 5.753906 8.945312 C 5.894531 8.945312 6.007812 9.050781 6.007812 9.183594 C 6.007812 9.3125 5.894531 9.421875 5.753906 9.421875 Z M 6.839844 9.21875 C 6.699219 9.21875 6.585938 9.109375 6.585938 8.980469 C 6.585938 8.847656 6.699219 8.742188 6.839844 8.742188 C 6.980469 8.742188 7.09375 8.847656 7.09375 8.980469 C 7.09375 9.109375 6.980469 9.21875 6.839844 9.21875 Z M 9.953125 2.101562 C 9.8125 2.101562 9.699219 1.996094 9.699219 1.863281 C 9.699219 1.734375 9.8125 1.625 9.953125 1.625 C 10.09375 1.625 10.207031 1.734375 10.207031 1.863281 C 10.207031 1.996094 10.09375 2.101562 9.953125 2.101562 Z M 9.953125 2.101562 "/>
</g>
</svg>
