<?xml version="1.0" encoding="UTF-8"?>
<svg xmlns="http://www.w3.org/2000/svg" xmlns:xlink="http://www.w3.org/1999/xlink" width="7px" height="11px" viewBox="0 0 7 11" version="1.1">
<g id="surface1">
<path style=" stroke:none;fill-rule:nonzero;fill:rgb(30%,30%,30%);fill-opacity:1;" d="M 6.054688 0 L 0.945312 0 C 0.425781 0 0 0.394531 0 0.886719 L 0 10.4375 L 0.433594 10.4375 L 0.433594 10.746094 C 0.433594 10.886719 0.554688 11 0.703125 11 L 1.441406 11 C 1.59375 11 1.714844 10.886719 1.714844 10.746094 L 1.714844 10.4375 L 5.25 10.4375 L 5.25 10.746094 C 5.25 10.886719 5.371094 11 5.519531 11 L 6.257812 11 C 6.410156 11 6.53125 10.886719 6.53125 10.746094 L 6.53125 10.4375 L 7 10.4375 L 7 0.886719 C 7 0.394531 6.574219 0 6.054688 0 Z M 2.789062 0.933594 C 3.507812 0.652344 4.339844 0.84375 4.835938 1.40625 C 5.332031 1.96875 5.378906 2.769531 4.945312 3.378906 C 4.515625 3.984375 3.710938 4.257812 2.964844 4.046875 C 2.21875 3.835938 1.707031 3.191406 1.707031 2.460938 C 1.707031 1.792969 2.132812 1.191406 2.789062 0.933594 Z M 3.511719 9.5625 C 2.058594 9.5625 0.882812 8.460938 0.882812 7.097656 C 0.882812 5.738281 2.058594 4.632812 3.511719 4.632812 C 4.964844 4.632812 6.144531 5.738281 6.144531 7.097656 C 6.144531 8.460938 4.964844 9.5625 3.511719 9.5625 Z M 3.476562 1.136719 C 2.699219 1.136719 2.066406 1.730469 2.066406 2.460938 C 2.066406 3.191406 2.699219 3.785156 3.476562 3.785156 C 4.257812 3.785156 4.890625 3.191406 4.890625 2.460938 C 4.890625 2.109375 4.742188 1.773438 4.480469 1.523438 C 4.214844 1.273438 3.851562 1.136719 3.476562 1.136719 Z M 3.804688 3.140625 C 3.480469 3.273438 3.105469 3.191406 2.875 2.941406 C 2.648438 2.6875 2.625 2.328125 2.816406 2.050781 C 3.007812 1.777344 3.371094 1.652344 3.710938 1.746094 C 4.046875 1.839844 4.277344 2.128906 4.277344 2.457031 C 4.277344 2.753906 4.089844 3.023438 3.804688 3.140625 Z M 3.542969 4.953125 C 2.292969 4.953125 1.28125 5.902344 1.28125 7.074219 C 1.28125 8.246094 2.292969 9.195312 3.542969 9.195312 C 4.792969 9.195312 5.804688 8.246094 5.804688 7.074219 C 5.804688 5.902344 4.792969 4.953125 3.542969 4.953125 Z M 3.542969 8.347656 C 2.792969 8.347656 2.183594 7.777344 2.183594 7.074219 C 2.183594 6.371094 2.792969 5.804688 3.542969 5.804688 C 4.292969 5.804688 4.898438 6.371094 4.898438 7.074219 C 4.898438 7.777344 4.292969 8.347656 3.542969 8.347656 Z M 3.542969 8.347656 "/>
</g>
</svg>
