<?xml version="1.0" encoding="UTF-8"?>
<svg xmlns="http://www.w3.org/2000/svg" xmlns:xlink="http://www.w3.org/1999/xlink" width="8px" height="11px" viewBox="0 0 8 11" version="1.1">
<g id="surface1">
<path style=" stroke:none;fill-rule:nonzero;fill:rgb(30%,30%,30%);fill-opacity:1;" d="M 6.195312 3.441406 L 6.699219 3.398438 L 8 10.023438 L 5.398438 10.996094 Z M 5.144531 3.269531 L 5.921875 3.433594 L 5.128906 10.984375 L 0 9.390625 L 1.226562 2.460938 L 2.042969 2.632812 L 2.042969 1.839844 C 2.042969 1.019531 2.738281 0.351562 3.59375 0.351562 C 3.644531 0.351562 3.695312 0.355469 3.746094 0.359375 C 4.027344 0.128906 4.382812 0.00390625 4.75 0.00390625 C 5.605469 0.00390625 6.300781 0.671875 6.300781 1.492188 L 6.320312 3.148438 L 5.542969 2.976562 L 5.542969 1.492188 C 5.546875 1.269531 5.445312 1.058594 5.269531 0.914062 C 5.097656 0.769531 4.863281 0.703125 4.636719 0.738281 C 4.960938 1.019531 5.144531 1.417969 5.144531 1.839844 Z M 2.800781 2.695312 L 4.386719 3.023438 L 4.386719 1.839844 C 4.386719 1.578125 4.25 1.335938 4.019531 1.195312 C 3.976562 1.289062 3.953125 1.390625 3.957031 1.492188 L 3.9375 2.558594 L 3.179688 2.398438 L 3.199219 1.492188 C 3.199219 1.378906 3.214844 1.265625 3.238281 1.15625 C 2.96875 1.285156 2.800781 1.550781 2.800781 1.839844 Z M 1.988281 3.496094 C 1.988281 3.667969 2.132812 3.804688 2.3125 3.804688 C 2.488281 3.804688 2.632812 3.667969 2.632812 3.496094 C 2.632812 3.324219 2.488281 3.183594 2.3125 3.183594 C 2.132812 3.183594 1.988281 3.324219 1.988281 3.496094 Z M 4.265625 5.972656 L 1.800781 5.414062 L 1.515625 7.039062 L 4.007812 7.621094 Z M 4.867188 4.003906 C 4.867188 3.832031 4.722656 3.691406 4.542969 3.691406 C 4.363281 3.691406 4.21875 3.832031 4.21875 4.003906 C 4.21875 4.175781 4.363281 4.3125 4.542969 4.3125 C 4.722656 4.3125 4.867188 4.175781 4.867188 4.003906 Z M 4.867188 4.003906 "/>
</g>
</svg>
