<?xml version="1.0" encoding="UTF-8"?>
<svg xmlns="http://www.w3.org/2000/svg" xmlns:xlink="http://www.w3.org/1999/xlink" width="10px" height="10px" viewBox="0 0 10 10" version="1.1">
<g id="surface1">
<path style=" stroke:none;fill-rule:nonzero;fill:rgb(30%,30%,30%);fill-opacity:1;" d="M 5.175781 7.730469 C 5.234375 7.191406 5.300781 5.425781 5.84375 4.523438 C 6.109375 4.089844 5.4375 2.480469 5.4375 2.480469 C 5.4375 2.480469 5.542969 2.433594 5.621094 2.09375 L 4.960938 2.105469 L 4.707031 2.113281 L 4.644531 2.335938 C 4.628906 2.390625 4.476562 2.875 3.941406 2.898438 C 3.933594 2.898438 3.925781 2.898438 3.921875 2.898438 L 3.898438 2.898438 C 3.890625 2.898438 3.886719 2.898438 3.878906 2.898438 C 3.34375 2.875 3.191406 2.390625 3.175781 2.339844 L 3.113281 2.113281 L 1.804688 2.089844 L 0 3.429688 L 1.175781 5.246094 L 1.640625 5.058594 L 1.640625 8.40625 L 3.910156 8.375 L 5.035156 8.390625 C 5.101562 8.125 5.15625 7.882812 5.175781 7.730469 Z M 5.175781 7.730469 "/>
<path style=" stroke:none;fill-rule:nonzero;fill:rgb(30%,30%,30%);fill-opacity:1;" d="M 5.757812 0.320312 L 6.386719 0.0117188 C 6.386719 0.0117188 6.429688 1.15625 7.460938 1.167969 C 8.488281 1.179688 8.605469 0 8.605469 0 L 9.148438 0.296875 C 9.148438 0.296875 8.941406 1.878906 9.117188 2.160156 L 9.292969 2.445312 C 9.292969 2.445312 8.707031 4.101562 8.855469 4.445312 C 8.945312 4.65625 9.339844 5.144531 9.5 7.601562 C 9.585938 8.921875 10 9.828125 10 9.828125 C 10 9.828125 7.648438 10.164062 4.832031 9.894531 C 4.832031 9.894531 5.359375 8.246094 5.417969 7.707031 C 5.476562 7.171875 5.546875 5.402344 6.089844 4.503906 C 6.351562 4.066406 5.683594 2.457031 5.683594 2.457031 C 5.683594 2.457031 5.875 2.375 5.933594 1.597656 C 5.992188 0.820312 5.757812 0.320312 5.757812 0.320312 Z M 5.757812 0.320312 "/>
</g>
</svg>
