<?xml version="1.0" encoding="UTF-8"?>
<svg xmlns="http://www.w3.org/2000/svg" xmlns:xlink="http://www.w3.org/1999/xlink" width="8px" height="10px" viewBox="0 0 8 10" version="1.1">
<g id="surface1">
<path style=" stroke:none;fill-rule:nonzero;fill:rgb(30%,30%,30%);fill-opacity:1;" d="M 1.484375 2.90625 L 2.382812 1.625 L 6.039062 2.5625 L 5.828125 2.957031 Z M 4.609375 1.871094 L 4.609375 2.019531 L 6.359375 2.464844 L 6.09375 2.957031 L 7.3125 2.957031 L 7.046875 1.378906 Z M 3.601562 0.589844 L 4.183594 1.871094 L 6.09375 1.28125 L 5.511719 0 Z M 0.0546875 1.28125 L 0.742188 2.957031 L 1.164062 2.957031 L 2.226562 1.332031 L 3.867188 1.773438 L 3.230469 0.296875 Z M 8 10 L 0 9.902344 L 0.371094 3.152344 L 7.628906 3.152344 Z M 5.933594 3.964844 C 5.933594 3.757812 5.769531 3.582031 5.546875 3.550781 C 5.328125 3.519531 5.117188 3.648438 5.050781 3.847656 C 4.988281 4.046875 5.089844 4.257812 5.292969 4.34375 C 5.285156 4.375 5.285156 4.402344 5.289062 4.429688 C 5.316406 4.546875 5.332031 4.660156 5.332031 4.777344 C 5.332031 5.554688 4.734375 6.1875 4 6.1875 C 3.265625 6.1875 2.667969 5.554688 2.667969 4.777344 C 2.667969 4.664062 2.683594 4.550781 2.707031 4.4375 C 2.714844 4.414062 2.714844 4.386719 2.707031 4.363281 C 2.914062 4.304688 3.042969 4.117188 3.019531 3.917969 C 2.992188 3.71875 2.820312 3.5625 2.605469 3.546875 C 2.390625 3.53125 2.195312 3.660156 2.136719 3.851562 C 2.078125 4.046875 2.175781 4.25 2.367188 4.339844 C 2.363281 4.347656 2.359375 4.359375 2.359375 4.367188 C 2.328125 4.503906 2.3125 4.640625 2.3125 4.777344 C 2.3125 5.738281 3.070312 6.519531 4 6.519531 C 4.929688 6.519531 5.6875 5.738281 5.6875 4.777344 C 5.6875 4.636719 5.671875 4.496094 5.640625 4.359375 C 5.816406 4.296875 5.933594 4.140625 5.933594 3.964844 Z M 5.933594 3.964844 "/>
</g>
</svg>
