<?xml version="1.0" encoding="UTF-8"?>
<svg xmlns="http://www.w3.org/2000/svg" xmlns:xlink="http://www.w3.org/1999/xlink" width="11px" height="7px" viewBox="0 0 11 7" version="1.1">
<g id="surface1">
<path style=" stroke:none;fill-rule:nonzero;fill:rgb(30%,30%,30%);fill-opacity:1;" d="M 10.792969 4.398438 L 10.792969 4.394531 C 9.910156 4.179688 9.394531 3.453125 8.980469 2.730469 C 8.613281 2.644531 8.40625 2.609375 8.269531 2.640625 C 8.308594 2.8125 8.445312 3.066406 8.683594 3.507812 C 8.425781 3.070312 8.273438 2.828125 8.144531 2.707031 C 8.074219 2.773438 8.027344 2.886719 7.96875 3.054688 C 8.003906 2.847656 8.023438 2.71875 7.96875 2.617188 C 7.867188 2.605469 7.75 2.652344 7.578125 2.734375 C 7.710938 2.644531 7.800781 2.574219 7.851562 2.496094 C 7.703125 2.398438 7.429688 2.316406 6.945312 2.175781 C 7.4375 2.296875 7.71875 2.363281 7.894531 2.351562 C 7.898438 2.175781 7.761719 1.917969 7.46875 1.382812 C 7.796875 1.933594 7.953125 2.179688 8.113281 2.25 C 8.171875 2.183594 8.214844 2.074219 8.265625 1.929688 C 8.242188 2.074219 8.222656 2.183594 8.238281 2.273438 C 8.328125 2.265625 8.433594 2.21875 8.574219 2.152344 C 8.4375 2.25 8.339844 2.324219 8.292969 2.40625 C 8.382812 2.515625 8.578125 2.59375 8.96875 2.710938 C 8.5 1.890625 8.160156 1.082031 7.558594 1.03125 C 7.417969 0.996094 7.273438 0.992188 7.128906 1.023438 C 6.613281 1.125 6.203125 1.40625 5.875 1.636719 C 5.613281 1.816406 5.367188 1.984375 5.230469 1.945312 C 5.160156 1.925781 5.015625 1.824219 4.832031 1.386719 C 4.46875 0.539062 4.148438 0.132812 3.757812 0.0273438 C 3.324219 -0.0898438 2.941406 0.203125 2.601562 0.460938 C 1.933594 0.964844 0.28125 1.304688 0.265625 1.308594 L 0.00390625 1.359375 L 0.0625 1.621094 C 0.0664062 1.632812 0.0703125 1.644531 0.0703125 1.65625 C 0.0742188 1.664062 0.0742188 1.667969 0.078125 1.675781 C 0.714844 4.386719 1.800781 6.054688 3.453125 6.691406 C 3.613281 6.753906 3.976562 6.890625 4.140625 6.933594 C 4.488281 7.019531 4.726562 6.996094 5.109375 6.996094 C 5.875 6.996094 6.710938 6.824219 7.601562 6.472656 C 8.476562 6.132812 9.390625 5.625 10.3125 4.972656 C 10.445312 4.878906 10.535156 4.8125 10.566406 4.789062 C 10.578125 4.78125 10.585938 4.773438 10.585938 4.773438 L 10.996094 4.453125 Z M 3.621094 0.207031 C 3.773438 0.183594 4.371094 1.492188 4.453125 1.5 L 4.425781 1.535156 C 4.261719 1.660156 3.640625 0.40625 3.453125 0.515625 C 3.265625 0.628906 2.785156 0.59375 2.785156 0.59375 C 3.007812 0.546875 3.378906 0.25 3.621094 0.207031 Z M 7.769531 3.679688 C 7.074219 3.546875 5.914062 4.777344 4.660156 4.671875 C 3.773438 4.601562 2.722656 2.996094 2.210938 2.558594 C 1.890625 2.285156 0.933594 1.871094 0.261719 1.597656 C 0.308594 1.585938 0.0625 1.433594 0.113281 1.421875 C 0.964844 1.679688 2.585938 2.296875 2.9375 2.816406 C 3.453125 3.574219 4.5 5.019531 6.503906 3.652344 C 7.402344 3.039062 8.585938 3.5625 9.476562 4.046875 C 9.695312 4.308594 10.398438 4.402344 10.699219 4.582031 C 9.511719 4.4375 8.300781 3.777344 7.769531 3.679688 Z M 7.769531 3.679688 "/>
</g>
</svg>
