<?xml version="1.0" encoding="UTF-8"?>
<svg xmlns="http://www.w3.org/2000/svg" xmlns:xlink="http://www.w3.org/1999/xlink" width="10px" height="7px" viewBox="0 0 10 7" version="1.1">
<g id="surface1">
<path style=" stroke:none;fill-rule:nonzero;fill:rgb(30%,30%,30%);fill-opacity:1;" d="M 6.710938 4.023438 C 6.710938 5.023438 5.949219 5.832031 5.011719 5.832031 C 4.070312 5.832031 3.3125 5.023438 3.3125 4.023438 C 3.3125 3.027344 4.070312 2.21875 5.011719 2.21875 C 5.949219 2.21875 6.710938 3.027344 6.710938 4.023438 Z M 10 1.609375 L 10 6.148438 C 10 6.617188 9.640625 7 9.199219 7 L 0.800781 7 C 0.359375 7 0 6.617188 0 6.148438 L 0 1.609375 C 0 1.140625 0.359375 0.761719 0.800781 0.761719 L 3.191406 0.761719 L 3.191406 0.40625 C 3.191406 0.183594 3.363281 0.00390625 3.574219 0 L 6.511719 0 C 6.71875 0.00390625 6.890625 0.183594 6.890625 0.40625 L 6.890625 0.761719 L 9.199219 0.761719 C 9.640625 0.761719 10 1.140625 10 1.609375 Z M 7.390625 4.445312 C 7.652344 2.707031 6.253906 1.21875 4.617188 1.5 C 3.597656 1.675781 2.796875 2.523438 2.632812 3.605469 C 2.371094 5.34375 3.769531 6.832031 5.40625 6.550781 C 6.425781 6.375 7.222656 5.527344 7.390625 4.445312 Z M 9.097656 1.582031 L 7.386719 1.582031 L 7.386719 2.140625 L 9.097656 2.140625 Z M 9.097656 1.582031 "/>
</g>
</svg>
