<?xml version="1.0" encoding="UTF-8" standalone="no"?>
<!-- Created with Inkscape (http://www.inkscape.org/) -->

<svg
   xmlns:dc="http://purl.org/dc/elements/1.1/"
   xmlns:cc="http://creativecommons.org/ns#"
   xmlns:rdf="http://www.w3.org/1999/02/22-rdf-syntax-ns#"
   xmlns:svg="http://www.w3.org/2000/svg"
   xmlns="http://www.w3.org/2000/svg"
   xmlns:xlink="http://www.w3.org/1999/xlink"
   xmlns:sodipodi="http://sodipodi.sourceforge.net/DTD/sodipodi-0.dtd"
   xmlns:inkscape="http://www.inkscape.org/namespaces/inkscape"
   width="30px"
   height="30px"
   version="1.1"
   id="svg8"
   inkscape:version="0.92.4 5da689c313, 2019-01-14"
   sodipodi:docname="container.svg">
  <defs
     id="defs2" />
  <sodipodi:namedview
     id="base"
     pagecolor="#ffffff"
     bordercolor="#666666"
     borderopacity="1.0"
     inkscape:pageopacity="0.0"
     inkscape:pageshadow="2"
     inkscape:zoom="13.049334"
     inkscape:cx="18.679046"
     inkscape:cy="12.165829"
     inkscape:document-units="px"
     inkscape:current-layer="layer1"
     showgrid="false"
     inkscape:snap-page="false"
     units="px"
     inkscape:window-width="1884"
     inkscape:window-height="1061"
     inkscape:window-x="0"
     inkscape:window-y="0"
     inkscape:window-maximized="1"
     fit-margin-top="0"
     fit-margin-left="0"
     fit-margin-right="0"
     fit-margin-bottom="0" />
  <metadata
     id="metadata5">
    <rdf:RDF>
      <cc:Work
         rdf:about="">
        <dc:format>image/svg+xml</dc:format>
        <dc:type
           rdf:resource="http://purl.org/dc/dcmitype/StillImage" />
        <dc:title></dc:title>
      </cc:Work>
    </rdf:RDF>
  </metadata>
    <circle
       style="color:#000000;clip-rule:nonzero;display:inline;overflow:visible;visibility:visible;opacity:1;isolation:auto;mix-blend-mode:normal;color-interpolation:sRGB;color-interpolation-filters:linearRGB;solid-color:#000000;solid-opacity:1;vector-effect:none;fill:#808080;fill-opacity:1;fill-rule:evenodd;stroke:#ffffff;stroke-width:1;stroke-linecap:butt;stroke-linejoin:miter;stroke-miterlimit:4;stroke-dasharray:none;stroke-dashoffset:0;stroke-opacity:1;marker:none;color-rendering:auto;image-rendering:auto;shape-rendering:auto;text-rendering:auto;enable-background:accumulate"
       id="path815"
       cx="15"
       cy="15"
       r="14.5" />
<g transform="translate(10,6)"><g id="surface1">
<path style=" stroke:none;fill-rule:nonzero;fill:#FFFFFF;fill-opacity:1;" d="M 5.007812 17 L 0.425781 6.972656 L 9.585938 6.972656 Z M 7.449219 2.457031 C 7.449219 2.441406 7.445312 2.484375 7.445312 2.464844 C 7.445312 1.136719 6.355469 0 5 0 C 3.648438 0 2.550781 1.078125 2.550781 2.40625 C 2.550781 2.429688 2.554688 2.449219 2.554688 2.46875 C 4.785156 2.480469 4.972656 4.414062 4.972656 4.398438 C 4.992188 3.601562 5.753906 2.652344 7.449219 2.457031 Z M 4.917969 5.363281 C 4.917969 5.34375 4.910156 5.324219 4.910156 5.304688 C 4.878906 4.050781 3.871094 3.035156 2.59375 2.96875 C 2.550781 2.964844 2.507812 2.957031 2.464844 2.957031 C 1.109375 2.957031 0.0078125 4.035156 0.0078125 5.363281 C 0.0078125 5.765625 0.113281 6.160156 0.3125 6.511719 L 4.613281 6.511719 C 4.8125 6.160156 4.917969 5.761719 4.917969 5.363281 Z M 7.535156 2.957031 C 7.519531 2.957031 7.507812 2.960938 7.492188 2.960938 C 6.175781 2.984375 5.113281 4.019531 5.085938 5.3125 C 5.085938 5.332031 5.082031 5.347656 5.082031 5.363281 C 5.082031 5.765625 5.1875 6.160156 5.386719 6.511719 L 9.683594 6.511719 C 9.882812 6.160156 9.988281 5.765625 9.988281 5.363281 C 9.992188 4.035156 8.890625 2.957031 7.535156 2.957031 Z M 7.535156 2.957031 "/>
</g>
</g>
</svg>
